<svg aria-roledescription="er" role="graphics-document document" viewBox="0 0 2445.9921875 1226" style="max-width: 2445.99px; background-color: white;" xmlns:xlink="http://www.w3.org/1999/xlink" xmlns="http://www.w3.org/2000/svg" width="100%" id="my-svg"><style>#my-svg{font-family:"trebuchet ms",verdana,arial,sans-serif;font-size:16px;fill:#333;}#my-svg .error-icon{fill:#552222;}#my-svg .error-text{fill:#552222;stroke:#552222;}#my-svg .edge-thickness-normal{stroke-width:1px;}#my-svg .edge-thickness-thick{stroke-width:3.5px;}#my-svg .edge-pattern-solid{stroke-dasharray:0;}#my-svg .edge-thickness-invisible{stroke-width:0;fill:none;}#my-svg .edge-pattern-dashed{stroke-dasharray:3;}#my-svg .edge-pattern-dotted{stroke-dasharray:2;}#my-svg .marker{fill:#333333;stroke:#333333;}#my-svg .marker.cross{stroke:#333333;}#my-svg svg{font-family:"trebuchet ms",verdana,arial,sans-serif;font-size:16px;}#my-svg p{margin:0;}#my-svg .entityBox{fill:#ECECFF;stroke:#9370DB;}#my-svg .attributeBoxOdd{fill:#ffffff;stroke:#9370DB;}#my-svg .attributeBoxEven{fill:#f2f2f2;stroke:#9370DB;}#my-svg .relationshipLabelBox{fill:hsl(80, 100%, 96.2745098039%);opacity:0.7;background-color:hsl(80, 100%, 96.2745098039%);}#my-svg .relationshipLabelBox rect{opacity:0.5;}#my-svg .relationshipLine{stroke:#333333;}#my-svg .entityTitleText{text-anchor:middle;font-size:18px;fill:#333;}#my-svg #MD_PARENT_START{fill:#f5f5f5!important;stroke:#333333!important;stroke-width:1;}#my-svg #MD_PARENT_END{fill:#f5f5f5!important;stroke:#333333!important;stroke-width:1;}#my-svg :root{--mermaid-font-family:"trebuchet ms",verdana,arial,sans-serif;}</style><g/><defs><marker orient="auto" markerHeight="240" markerWidth="190" refY="7" refX="0" id="MD_PARENT_START"><path d="M 18,7 L9,13 L1,7 L9,1 Z"/></marker></defs><defs><marker orient="auto" markerHeight="28" markerWidth="20" refY="7" refX="19" id="MD_PARENT_END"><path d="M 18,7 L9,13 L1,7 L9,1 Z"/></marker></defs><defs><marker orient="auto" markerHeight="18" markerWidth="18" refY="9" refX="0" id="ONLY_ONE_START"><path d="M9,0 L9,18 M15,0 L15,18" fill="none" stroke="gray"/></marker></defs><defs><marker orient="auto" markerHeight="18" markerWidth="18" refY="9" refX="18" id="ONLY_ONE_END"><path d="M3,0 L3,18 M9,0 L9,18" fill="none" stroke="gray"/></marker></defs><defs><marker orient="auto" markerHeight="18" markerWidth="30" refY="9" refX="0" id="ZERO_OR_ONE_START"><circle r="6" cy="9" cx="21" fill="white" stroke="gray"/><path d="M9,0 L9,18" fill="none" stroke="gray"/></marker></defs><defs><marker orient="auto" markerHeight="18" markerWidth="30" refY="9" refX="30" id="ZERO_OR_ONE_END"><circle r="6" cy="9" cx="9" fill="white" stroke="gray"/><path d="M21,0 L21,18" fill="none" stroke="gray"/></marker></defs><defs><marker orient="auto" markerHeight="36" markerWidth="45" refY="18" refX="18" id="ONE_OR_MORE_START"><path d="M0,18 Q 18,0 36,18 Q 18,36 0,18 M42,9 L42,27" fill="none" stroke="gray"/></marker></defs><defs><marker orient="auto" markerHeight="36" markerWidth="45" refY="18" refX="27" id="ONE_OR_MORE_END"><path d="M3,9 L3,27 M9,18 Q27,0 45,18 Q27,36 9,18" fill="none" stroke="gray"/></marker></defs><defs><marker orient="auto" markerHeight="36" markerWidth="57" refY="18" refX="18" id="ZERO_OR_MORE_START"><circle r="6" cy="18" cx="48" fill="white" stroke="gray"/><path d="M0,18 Q18,0 36,18 Q18,36 0,18" fill="none" stroke="gray"/></marker></defs><defs><marker orient="auto" markerHeight="36" markerWidth="57" refY="18" refX="39" id="ZERO_OR_MORE_END"><circle r="6" cy="18" cx="9" fill="white" stroke="gray"/><path d="M21,18 Q39,0 57,18 Q39,36 21,18" fill="none" stroke="gray"/></marker></defs><path style="stroke: gray; fill: none;" marker-start="url(#ONLY_ONE_START)" marker-end="url(#ZERO_OR_MORE_END)" d="M1269.233,571.357L1064.16,656.297C859.087,741.238,448.942,911.119,248.631,1004.393C48.321,1097.667,57.844,1114.333,62.606,1122.667L67.368,1131" class="er relationshipLine"/><path style="stroke: gray; fill: none;" marker-start="url(#ONLY_ONE_START)" marker-end="url(#ZERO_OR_MORE_END)" d="M1269.233,575.43L1082.393,659.691C895.553,743.953,521.874,912.477,329.378,1005.072C136.881,1097.667,125.567,1114.333,119.91,1122.667L114.253,1131" class="er relationshipLine"/><path style="stroke: gray; fill: none;" marker-start="url(#ONLY_ONE_START)" marker-end="url(#ZERO_OR_MORE_END)" d="M1269.233,582.851L1108.959,665.876C948.686,748.901,628.14,914.95,467.867,1006.309C307.594,1097.667,307.594,1114.333,307.594,1122.667L307.594,1131" class="er relationshipLine"/><path style="stroke: gray; fill: none;" marker-start="url(#ONLY_ONE_START)" marker-end="url(#ZERO_OR_MORE_END)" d="M1269.233,596.56L1143.437,677.3C1017.642,758.04,766.051,919.52,640.256,1008.593C514.461,1097.667,514.461,1114.333,514.461,1122.667L514.461,1131" class="er relationshipLine"/><path style="stroke: gray; fill: none;" marker-start="url(#ONLY_ONE_START)" marker-end="url(#ZERO_OR_MORE_END)" d="M1269.233,621.148L1180.519,697.79C1091.806,774.432,914.38,927.716,825.666,1012.691C736.953,1097.667,736.953,1114.333,736.953,1122.667L736.953,1131" class="er relationshipLine"/><path style="stroke: gray; fill: none;" marker-start="url(#ONLY_ONE_START)" marker-end="url(#ZERO_OR_MORE_END)" d="M1269.233,689.158L1225.053,754.465C1180.874,819.772,1092.515,950.386,1048.336,1024.026C1004.156,1097.667,1004.156,1114.333,1004.156,1122.667L1004.156,1131" class="er relationshipLine"/><path style="stroke: gray; fill: none;" marker-start="url(#ONLY_ONE_START)" marker-end="url(#ZERO_OR_MORE_END)" d="M1269.233,771.504L1246.018,823.087C1222.803,874.669,1176.374,977.835,1169.827,1039.14C1163.279,1100.444,1196.612,1119.889,1213.279,1129.611L1229.945,1139.333" class="er relationshipLine"/><path style="stroke: gray; fill: none;" marker-start="url(#ONLY_ONE_START)" marker-end="url(#ZERO_OR_MORE_END)" d="M1269.233,935.506L1262.685,959.755C1256.137,984.004,1243.041,1032.502,1241.255,1065.084C1239.469,1097.667,1248.993,1114.333,1253.755,1122.667L1258.517,1131" class="er relationshipLine"/><path style="stroke: gray; fill: none;" marker-start="url(#ONLY_ONE_START)" marker-end="url(#ZERO_OR_MORE_END)" d="M1334.446,1031L1333.696,1039.333C1332.946,1047.667,1331.445,1064.333,1325.933,1081C1320.422,1097.667,1310.898,1114.333,1306.136,1122.667L1301.374,1131" class="er relationshipLine"/><path style="stroke: gray; fill: none;" marker-start="url(#ONLY_ONE_START)" marker-end="url(#ZERO_OR_MORE_END)" d="M1425.445,1031L1426.195,1039.333C1426.945,1047.667,1428.445,1064.333,1433.957,1081C1439.469,1097.667,1448.993,1114.333,1453.755,1122.667L1458.517,1131" class="er relationshipLine"/><path style="stroke: gray; fill: none;" marker-start="url(#ONLY_ONE_START)" marker-end="url(#ZERO_OR_MORE_END)" d="M1490.658,933.308L1497.341,957.923C1504.023,982.539,1517.389,1031.769,1519.232,1064.718C1521.076,1097.667,1511.398,1114.333,1506.559,1122.667L1501.72,1131" class="er relationshipLine"/><path style="stroke: gray; fill: none;" marker-start="url(#ONLY_ONE_START)" marker-end="url(#ZERO_OR_MORE_END)" d="M1490.658,729.404L1522.476,788.003C1554.293,846.603,1617.928,963.801,1649.745,1030.734C1681.563,1097.667,1681.563,1114.333,1681.563,1122.667L1681.563,1131" class="er relationshipLine"/><path style="stroke: gray; fill: none;" marker-start="url(#ONLY_ONE_START)" marker-end="url(#ZERO_OR_MORE_END)" d="M1490.658,654.805L1551.477,725.837C1612.297,796.87,1733.936,938.935,1801.804,1018.301C1869.672,1097.667,1883.769,1114.333,1890.818,1122.667L1897.867,1131" class="er relationshipLine"/><path style="stroke: gray; fill: none;" marker-start="url(#ONLY_ONE_START)" marker-end="url(#ZERO_OR_MORE_END)" d="M1490.658,610.582L1592.68,688.985C1694.702,767.388,1898.745,924.194,2007.739,1010.93C2116.733,1097.667,2130.676,1114.333,2137.648,1122.667L2144.619,1131" class="er relationshipLine"/><path style="stroke: gray; fill: none;" marker-start="url(#ONLY_ONE_START)" marker-end="url(#ZERO_OR_MORE_END)" d="M1490.658,598.192L1613.214,678.66C1735.769,759.128,1980.881,920.064,2098.675,1008.865C2216.468,1097.667,2206.945,1114.333,2202.183,1122.667L2197.421,1131" class="er relationshipLine"/><path style="stroke: gray; fill: none;" marker-start="url(#ONLY_ONE_START)" marker-end="url(#ZERO_OR_MORE_END)" d="M1490.658,624.242L1576.013,700.368C1661.368,776.495,1832.079,928.747,1910.462,1013.207C1988.846,1097.667,1974.902,1114.333,1967.93,1122.667L1960.959,1131" class="er relationshipLine"/><path style="stroke: gray; fill: none;" marker-start="url(#ONLY_ONE_START)" marker-end="url(#ZERO_OR_MORE_END)" d="M1490.658,587.245L1638.214,669.538C1785.769,751.83,2080.881,916.415,2228.437,1007.041C2375.992,1097.667,2375.992,1114.333,2375.992,1122.667L2375.992,1131" class="er relationshipLine"/><g transform="translate(1269.2325134277344,20 )" id="entity-ApartmentComplex-0c0a41db-a69b-508b-8e1d-2285431860a8"><rect height="1011" width="221.42559814453125" y="0" x="0" class="er entityBox"/><text style="dominant-baseline: middle; text-anchor: middle; font-size: 12px;" transform="translate(110.71279907226562,12)" y="0" x="0" id="text-entity-ApartmentComplex-0c0a41db-a69b-508b-8e1d-2285431860a8" class="er entityLabel">ApartmentComplex</text><rect height="21" width="69.06622314453125" y="24" x="0" class="er attributeBoxOdd"/><text style="dominant-baseline: middle; font-size: 10.2px;" transform="translate(5,34.5)" y="0" x="0" id="text-entity-ApartmentComplex-0c0a41db-a69b-508b-8e1d-2285431860a8-attr-1-type" class="er entityLabel">stringList</text><rect height="21" width="152.359375" y="24" x="69.06622314453125" class="er attributeBoxOdd"/><text style="dominant-baseline: middle; font-size: 10.2px;" transform="translate(74.06622314453125,34.5)" y="0" x="0" id="text-entity-ApartmentComplex-0c0a41db-a69b-508b-8e1d-2285431860a8-attr-1-name" class="er entityLabel">numberOfBedrooms</text><rect height="21" width="69.06622314453125" y="45" x="0" class="er attributeBoxEven"/><text style="dominant-baseline: middle; font-size: 10.2px;" transform="translate(5,55.5)" y="0" x="0" id="text-entity-ApartmentComplex-0c0a41db-a69b-508b-8e1d-2285431860a8-attr-2-type" class="er entityLabel">stringList</text><rect height="21" width="152.359375" y="45" x="69.06622314453125" class="er attributeBoxEven"/><text style="dominant-baseline: middle; font-size: 10.2px;" transform="translate(74.06622314453125,55.5)" y="0" x="0" id="text-entity-ApartmentComplex-0c0a41db-a69b-508b-8e1d-2285431860a8-attr-2-name" class="er entityLabel">petsAllowed</text><rect height="21" width="69.06622314453125" y="66" x="0" class="er attributeBoxOdd"/><text style="dominant-baseline: middle; font-size: 10.2px;" transform="translate(5,76.5)" y="0" x="0" id="text-entity-ApartmentComplex-0c0a41db-a69b-508b-8e1d-2285431860a8-attr-3-type" class="er entityLabel">URLList</text><rect height="21" width="152.359375" y="66" x="69.06622314453125" class="er attributeBoxOdd"/><text style="dominant-baseline: middle; font-size: 10.2px;" transform="translate(74.06622314453125,76.5)" y="0" x="0" id="text-entity-ApartmentComplex-0c0a41db-a69b-508b-8e1d-2285431860a8-attr-3-name" class="er entityLabel">tourBookingPage</text><rect height="21" width="69.06622314453125" y="87" x="0" class="er attributeBoxEven"/><text style="dominant-baseline: middle; font-size: 10.2px;" transform="translate(5,97.5)" y="0" x="0" id="text-entity-ApartmentComplex-0c0a41db-a69b-508b-8e1d-2285431860a8-attr-4-type" class="er entityLabel">TextList</text><rect height="21" width="152.359375" y="87" x="69.06622314453125" class="er attributeBoxEven"/><text style="dominant-baseline: middle; font-size: 10.2px;" transform="translate(74.06622314453125,97.5)" y="0" x="0" id="text-entity-ApartmentComplex-0c0a41db-a69b-508b-8e1d-2285431860a8-attr-4-name" class="er entityLabel">globalLocationNumber</text><rect height="21" width="69.06622314453125" y="108" x="0" class="er attributeBoxOdd"/><text style="dominant-baseline: middle; font-size: 10.2px;" transform="translate(5,118.5)" y="0" x="0" id="text-entity-ApartmentComplex-0c0a41db-a69b-508b-8e1d-2285431860a8-attr-5-type" class="er entityLabel">URLList</text><rect height="21" width="152.359375" y="108" x="69.06622314453125" class="er attributeBoxOdd"/><text style="dominant-baseline: middle; font-size: 10.2px;" transform="translate(74.06622314453125,118.5)" y="0" x="0" id="text-entity-ApartmentComplex-0c0a41db-a69b-508b-8e1d-2285431860a8-attr-5-name" class="er entityLabel">hasGS1DigitalLink</text><rect height="21" width="69.06622314453125" y="129" x="0" class="er attributeBoxEven"/><text style="dominant-baseline: middle; font-size: 10.2px;" transform="translate(5,139.5)" y="0" x="0" id="text-entity-ApartmentComplex-0c0a41db-a69b-508b-8e1d-2285431860a8-attr-6-type" class="er entityLabel">stringList</text><rect height="21" width="152.359375" y="129" x="69.06622314453125" class="er attributeBoxEven"/><text style="dominant-baseline: middle; font-size: 10.2px;" transform="translate(74.06622314453125,139.5)" y="0" x="0" id="text-entity-ApartmentComplex-0c0a41db-a69b-508b-8e1d-2285431860a8-attr-6-name" class="er entityLabel">logo</text><rect height="21" width="69.06622314453125" y="150" x="0" class="er attributeBoxOdd"/><text style="dominant-baseline: middle; font-size: 10.2px;" transform="translate(5,160.5)" y="0" x="0" id="text-entity-ApartmentComplex-0c0a41db-a69b-508b-8e1d-2285431860a8-attr-7-type" class="er entityLabel">stringList</text><rect height="21" width="152.359375" y="150" x="69.06622314453125" class="er attributeBoxOdd"/><text style="dominant-baseline: middle; font-size: 10.2px;" transform="translate(74.06622314453125,160.5)" y="0" x="0" id="text-entity-ApartmentComplex-0c0a41db-a69b-508b-8e1d-2285431860a8-attr-7-name" class="er entityLabel">photo</text><rect height="21" width="69.06622314453125" y="171" x="0" class="er attributeBoxEven"/><text style="dominant-baseline: middle; font-size: 10.2px;" transform="translate(5,181.5)" y="0" x="0" id="text-entity-ApartmentComplex-0c0a41db-a69b-508b-8e1d-2285431860a8-attr-8-type" class="er entityLabel">stringList</text><rect height="21" width="152.359375" y="171" x="69.06622314453125" class="er attributeBoxEven"/><text style="dominant-baseline: middle; font-size: 10.2px;" transform="translate(74.06622314453125,181.5)" y="0" x="0" id="text-entity-ApartmentComplex-0c0a41db-a69b-508b-8e1d-2285431860a8-attr-8-name" class="er entityLabel">address</text><rect height="21" width="69.06622314453125" y="192" x="0" class="er attributeBoxOdd"/><text style="dominant-baseline: middle; font-size: 10.2px;" transform="translate(5,202.5)" y="0" x="0" id="text-entity-ApartmentComplex-0c0a41db-a69b-508b-8e1d-2285431860a8-attr-9-type" class="er entityLabel">TextList</text><rect height="21" width="152.359375" y="192" x="69.06622314453125" class="er attributeBoxOdd"/><text style="dominant-baseline: middle; font-size: 10.2px;" transform="translate(74.06622314453125,202.5)" y="0" x="0" id="text-entity-ApartmentComplex-0c0a41db-a69b-508b-8e1d-2285431860a8-attr-9-name" class="er entityLabel">branchCode</text><rect height="21" width="69.06622314453125" y="213" x="0" class="er attributeBoxEven"/><text style="dominant-baseline: middle; font-size: 10.2px;" transform="translate(5,223.5)" y="0" x="0" id="text-entity-ApartmentComplex-0c0a41db-a69b-508b-8e1d-2285431860a8-attr-10-type" class="er entityLabel">TextList</text><rect height="21" width="152.359375" y="213" x="69.06622314453125" class="er attributeBoxEven"/><text style="dominant-baseline: middle; font-size: 10.2px;" transform="translate(74.06622314453125,223.5)" y="0" x="0" id="text-entity-ApartmentComplex-0c0a41db-a69b-508b-8e1d-2285431860a8-attr-10-name" class="er entityLabel">faxNumber</text><rect height="21" width="69.06622314453125" y="234" x="0" class="er attributeBoxOdd"/><text style="dominant-baseline: middle; font-size: 10.2px;" transform="translate(5,244.5)" y="0" x="0" id="text-entity-ApartmentComplex-0c0a41db-a69b-508b-8e1d-2285431860a8-attr-11-type" class="er entityLabel">stringList</text><rect height="21" width="152.359375" y="234" x="69.06622314453125" class="er attributeBoxOdd"/><text style="dominant-baseline: middle; font-size: 10.2px;" transform="translate(74.06622314453125,244.5)" y="0" x="0" id="text-entity-ApartmentComplex-0c0a41db-a69b-508b-8e1d-2285431860a8-attr-11-name" class="er entityLabel">geo</text><rect height="21" width="69.06622314453125" y="255" x="0" class="er attributeBoxEven"/><text style="dominant-baseline: middle; font-size: 10.2px;" transform="translate(5,265.5)" y="0" x="0" id="text-entity-ApartmentComplex-0c0a41db-a69b-508b-8e1d-2285431860a8-attr-12-type" class="er entityLabel">stringList</text><rect height="21" width="152.359375" y="255" x="69.06622314453125" class="er attributeBoxEven"/><text style="dominant-baseline: middle; font-size: 10.2px;" transform="translate(74.06622314453125,265.5)" y="0" x="0" id="text-entity-ApartmentComplex-0c0a41db-a69b-508b-8e1d-2285431860a8-attr-12-name" class="er entityLabel">geoContains</text><rect height="21" width="69.06622314453125" y="276" x="0" class="er attributeBoxOdd"/><text style="dominant-baseline: middle; font-size: 10.2px;" transform="translate(5,286.5)" y="0" x="0" id="text-entity-ApartmentComplex-0c0a41db-a69b-508b-8e1d-2285431860a8-attr-13-type" class="er entityLabel">stringList</text><rect height="21" width="152.359375" y="276" x="69.06622314453125" class="er attributeBoxOdd"/><text style="dominant-baseline: middle; font-size: 10.2px;" transform="translate(74.06622314453125,286.5)" y="0" x="0" id="text-entity-ApartmentComplex-0c0a41db-a69b-508b-8e1d-2285431860a8-attr-13-name" class="er entityLabel">geoCoveredBy</text><rect height="21" width="69.06622314453125" y="297" x="0" class="er attributeBoxEven"/><text style="dominant-baseline: middle; font-size: 10.2px;" transform="translate(5,307.5)" y="0" x="0" id="text-entity-ApartmentComplex-0c0a41db-a69b-508b-8e1d-2285431860a8-attr-14-type" class="er entityLabel">stringList</text><rect height="21" width="152.359375" y="297" x="69.06622314453125" class="er attributeBoxEven"/><text style="dominant-baseline: middle; font-size: 10.2px;" transform="translate(74.06622314453125,307.5)" y="0" x="0" id="text-entity-ApartmentComplex-0c0a41db-a69b-508b-8e1d-2285431860a8-attr-14-name" class="er entityLabel">geoCovers</text><rect height="21" width="69.06622314453125" y="318" x="0" class="er attributeBoxOdd"/><text style="dominant-baseline: middle; font-size: 10.2px;" transform="translate(5,328.5)" y="0" x="0" id="text-entity-ApartmentComplex-0c0a41db-a69b-508b-8e1d-2285431860a8-attr-15-type" class="er entityLabel">stringList</text><rect height="21" width="152.359375" y="318" x="69.06622314453125" class="er attributeBoxOdd"/><text style="dominant-baseline: middle; font-size: 10.2px;" transform="translate(74.06622314453125,328.5)" y="0" x="0" id="text-entity-ApartmentComplex-0c0a41db-a69b-508b-8e1d-2285431860a8-attr-15-name" class="er entityLabel">geoCrosses</text><rect height="21" width="69.06622314453125" y="339" x="0" class="er attributeBoxEven"/><text style="dominant-baseline: middle; font-size: 10.2px;" transform="translate(5,349.5)" y="0" x="0" id="text-entity-ApartmentComplex-0c0a41db-a69b-508b-8e1d-2285431860a8-attr-16-type" class="er entityLabel">stringList</text><rect height="21" width="152.359375" y="339" x="69.06622314453125" class="er attributeBoxEven"/><text style="dominant-baseline: middle; font-size: 10.2px;" transform="translate(74.06622314453125,349.5)" y="0" x="0" id="text-entity-ApartmentComplex-0c0a41db-a69b-508b-8e1d-2285431860a8-attr-16-name" class="er entityLabel">geoDisjoint</text><rect height="21" width="69.06622314453125" y="360" x="0" class="er attributeBoxOdd"/><text style="dominant-baseline: middle; font-size: 10.2px;" transform="translate(5,370.5)" y="0" x="0" id="text-entity-ApartmentComplex-0c0a41db-a69b-508b-8e1d-2285431860a8-attr-17-type" class="er entityLabel">stringList</text><rect height="21" width="152.359375" y="360" x="69.06622314453125" class="er attributeBoxOdd"/><text style="dominant-baseline: middle; font-size: 10.2px;" transform="translate(74.06622314453125,370.5)" y="0" x="0" id="text-entity-ApartmentComplex-0c0a41db-a69b-508b-8e1d-2285431860a8-attr-17-name" class="er entityLabel">geoEquals</text><rect height="21" width="69.06622314453125" y="381" x="0" class="er attributeBoxEven"/><text style="dominant-baseline: middle; font-size: 10.2px;" transform="translate(5,391.5)" y="0" x="0" id="text-entity-ApartmentComplex-0c0a41db-a69b-508b-8e1d-2285431860a8-attr-18-type" class="er entityLabel">stringList</text><rect height="21" width="152.359375" y="381" x="69.06622314453125" class="er attributeBoxEven"/><text style="dominant-baseline: middle; font-size: 10.2px;" transform="translate(74.06622314453125,391.5)" y="0" x="0" id="text-entity-ApartmentComplex-0c0a41db-a69b-508b-8e1d-2285431860a8-attr-18-name" class="er entityLabel">geoIntersects</text><rect height="21" width="69.06622314453125" y="402" x="0" class="er attributeBoxOdd"/><text style="dominant-baseline: middle; font-size: 10.2px;" transform="translate(5,412.5)" y="0" x="0" id="text-entity-ApartmentComplex-0c0a41db-a69b-508b-8e1d-2285431860a8-attr-19-type" class="er entityLabel">stringList</text><rect height="21" width="152.359375" y="402" x="69.06622314453125" class="er attributeBoxOdd"/><text style="dominant-baseline: middle; font-size: 10.2px;" transform="translate(74.06622314453125,412.5)" y="0" x="0" id="text-entity-ApartmentComplex-0c0a41db-a69b-508b-8e1d-2285431860a8-attr-19-name" class="er entityLabel">geoOverlaps</text><rect height="21" width="69.06622314453125" y="423" x="0" class="er attributeBoxEven"/><text style="dominant-baseline: middle; font-size: 10.2px;" transform="translate(5,433.5)" y="0" x="0" id="text-entity-ApartmentComplex-0c0a41db-a69b-508b-8e1d-2285431860a8-attr-20-type" class="er entityLabel">stringList</text><rect height="21" width="152.359375" y="423" x="69.06622314453125" class="er attributeBoxEven"/><text style="dominant-baseline: middle; font-size: 10.2px;" transform="translate(74.06622314453125,433.5)" y="0" x="0" id="text-entity-ApartmentComplex-0c0a41db-a69b-508b-8e1d-2285431860a8-attr-20-name" class="er entityLabel">geoTouches</text><rect height="21" width="69.06622314453125" y="444" x="0" class="er attributeBoxOdd"/><text style="dominant-baseline: middle; font-size: 10.2px;" transform="translate(5,454.5)" y="0" x="0" id="text-entity-ApartmentComplex-0c0a41db-a69b-508b-8e1d-2285431860a8-attr-21-type" class="er entityLabel">stringList</text><rect height="21" width="152.359375" y="444" x="69.06622314453125" class="er attributeBoxOdd"/><text style="dominant-baseline: middle; font-size: 10.2px;" transform="translate(74.06622314453125,454.5)" y="0" x="0" id="text-entity-ApartmentComplex-0c0a41db-a69b-508b-8e1d-2285431860a8-attr-21-name" class="er entityLabel">geoWithin</text><rect height="21" width="69.06622314453125" y="465" x="0" class="er attributeBoxEven"/><text style="dominant-baseline: middle; font-size: 10.2px;" transform="translate(5,475.5)" y="0" x="0" id="text-entity-ApartmentComplex-0c0a41db-a69b-508b-8e1d-2285431860a8-attr-22-type" class="er entityLabel">BooleanList</text><rect height="21" width="152.359375" y="465" x="69.06622314453125" class="er attributeBoxEven"/><text style="dominant-baseline: middle; font-size: 10.2px;" transform="translate(74.06622314453125,475.5)" y="0" x="0" id="text-entity-ApartmentComplex-0c0a41db-a69b-508b-8e1d-2285431860a8-attr-22-name" class="er entityLabel">hasDriveThroughService</text><rect height="21" width="69.06622314453125" y="486" x="0" class="er attributeBoxOdd"/><text style="dominant-baseline: middle; font-size: 10.2px;" transform="translate(5,496.5)" y="0" x="0" id="text-entity-ApartmentComplex-0c0a41db-a69b-508b-8e1d-2285431860a8-attr-23-type" class="er entityLabel">stringList</text><rect height="21" width="152.359375" y="486" x="69.06622314453125" class="er attributeBoxOdd"/><text style="dominant-baseline: middle; font-size: 10.2px;" transform="translate(74.06622314453125,496.5)" y="0" x="0" id="text-entity-ApartmentComplex-0c0a41db-a69b-508b-8e1d-2285431860a8-attr-23-name" class="er entityLabel">hasMap</text><rect height="21" width="69.06622314453125" y="507" x="0" class="er attributeBoxEven"/><text style="dominant-baseline: middle; font-size: 10.2px;" transform="translate(5,517.5)" y="0" x="0" id="text-entity-ApartmentComplex-0c0a41db-a69b-508b-8e1d-2285431860a8-attr-24-type" class="er entityLabel">BooleanList</text><rect height="21" width="152.359375" y="507" x="69.06622314453125" class="er attributeBoxEven"/><text style="dominant-baseline: middle; font-size: 10.2px;" transform="translate(74.06622314453125,517.5)" y="0" x="0" id="text-entity-ApartmentComplex-0c0a41db-a69b-508b-8e1d-2285431860a8-attr-24-name" class="er entityLabel">isAccessibleForFree</text><rect height="21" width="69.06622314453125" y="528" x="0" class="er attributeBoxOdd"/><text style="dominant-baseline: middle; font-size: 10.2px;" transform="translate(5,538.5)" y="0" x="0" id="text-entity-ApartmentComplex-0c0a41db-a69b-508b-8e1d-2285431860a8-attr-25-type" class="er entityLabel">TextList</text><rect height="21" width="152.359375" y="528" x="69.06622314453125" class="er attributeBoxOdd"/><text style="dominant-baseline: middle; font-size: 10.2px;" transform="translate(74.06622314453125,538.5)" y="0" x="0" id="text-entity-ApartmentComplex-0c0a41db-a69b-508b-8e1d-2285431860a8-attr-25-name" class="er entityLabel">isicV4</text><rect height="21" width="69.06622314453125" y="549" x="0" class="er attributeBoxEven"/><text style="dominant-baseline: middle; font-size: 10.2px;" transform="translate(5,559.5)" y="0" x="0" id="text-entity-ApartmentComplex-0c0a41db-a69b-508b-8e1d-2285431860a8-attr-26-type" class="er entityLabel">stringList</text><rect height="21" width="152.359375" y="549" x="69.06622314453125" class="er attributeBoxEven"/><text style="dominant-baseline: middle; font-size: 10.2px;" transform="translate(74.06622314453125,559.5)" y="0" x="0" id="text-entity-ApartmentComplex-0c0a41db-a69b-508b-8e1d-2285431860a8-attr-26-name" class="er entityLabel">keywords</text><rect height="21" width="69.06622314453125" y="570" x="0" class="er attributeBoxOdd"/><text style="dominant-baseline: middle; font-size: 10.2px;" transform="translate(5,580.5)" y="0" x="0" id="text-entity-ApartmentComplex-0c0a41db-a69b-508b-8e1d-2285431860a8-attr-27-type" class="er entityLabel">stringList</text><rect height="21" width="152.359375" y="570" x="69.06622314453125" class="er attributeBoxOdd"/><text style="dominant-baseline: middle; font-size: 10.2px;" transform="translate(74.06622314453125,580.5)" y="0" x="0" id="text-entity-ApartmentComplex-0c0a41db-a69b-508b-8e1d-2285431860a8-attr-27-name" class="er entityLabel">latitude</text><rect height="21" width="69.06622314453125" y="591" x="0" class="er attributeBoxEven"/><text style="dominant-baseline: middle; font-size: 10.2px;" transform="translate(5,601.5)" y="0" x="0" id="text-entity-ApartmentComplex-0c0a41db-a69b-508b-8e1d-2285431860a8-attr-28-type" class="er entityLabel">stringList</text><rect height="21" width="152.359375" y="591" x="69.06622314453125" class="er attributeBoxEven"/><text style="dominant-baseline: middle; font-size: 10.2px;" transform="translate(74.06622314453125,601.5)" y="0" x="0" id="text-entity-ApartmentComplex-0c0a41db-a69b-508b-8e1d-2285431860a8-attr-28-name" class="er entityLabel">longitude</text><rect height="21" width="69.06622314453125" y="612" x="0" class="er attributeBoxOdd"/><text style="dominant-baseline: middle; font-size: 10.2px;" transform="translate(5,622.5)" y="0" x="0" id="text-entity-ApartmentComplex-0c0a41db-a69b-508b-8e1d-2285431860a8-attr-29-type" class="er entityLabel">URLList</text><rect height="21" width="152.359375" y="612" x="69.06622314453125" class="er attributeBoxOdd"/><text style="dominant-baseline: middle; font-size: 10.2px;" transform="translate(74.06622314453125,622.5)" y="0" x="0" id="text-entity-ApartmentComplex-0c0a41db-a69b-508b-8e1d-2285431860a8-attr-29-name" class="er entityLabel">map</text><rect height="21" width="69.06622314453125" y="633" x="0" class="er attributeBoxEven"/><text style="dominant-baseline: middle; font-size: 10.2px;" transform="translate(5,643.5)" y="0" x="0" id="text-entity-ApartmentComplex-0c0a41db-a69b-508b-8e1d-2285431860a8-attr-30-type" class="er entityLabel">URLList</text><rect height="21" width="152.359375" y="633" x="69.06622314453125" class="er attributeBoxEven"/><text style="dominant-baseline: middle; font-size: 10.2px;" transform="translate(74.06622314453125,643.5)" y="0" x="0" id="text-entity-ApartmentComplex-0c0a41db-a69b-508b-8e1d-2285431860a8-attr-30-name" class="er entityLabel">maps</text><rect height="21" width="69.06622314453125" y="654" x="0" class="er attributeBoxOdd"/><text style="dominant-baseline: middle; font-size: 10.2px;" transform="translate(5,664.5)" y="0" x="0" id="text-entity-ApartmentComplex-0c0a41db-a69b-508b-8e1d-2285431860a8-attr-31-type" class="er entityLabel">IntegerList</text><rect height="21" width="152.359375" y="654" x="69.06622314453125" class="er attributeBoxOdd"/><text style="dominant-baseline: middle; font-size: 10.2px;" transform="translate(74.06622314453125,664.5)" y="0" x="0" id="text-entity-ApartmentComplex-0c0a41db-a69b-508b-8e1d-2285431860a8-attr-31-name" class="er entityLabel">maximumAttendeeCapacity</text><rect height="21" width="69.06622314453125" y="675" x="0" class="er attributeBoxEven"/><text style="dominant-baseline: middle; font-size: 10.2px;" transform="translate(5,685.5)" y="0" x="0" id="text-entity-ApartmentComplex-0c0a41db-a69b-508b-8e1d-2285431860a8-attr-32-type" class="er entityLabel">stringList</text><rect height="21" width="152.359375" y="675" x="69.06622314453125" class="er attributeBoxEven"/><text style="dominant-baseline: middle; font-size: 10.2px;" transform="translate(74.06622314453125,685.5)" y="0" x="0" id="text-entity-ApartmentComplex-0c0a41db-a69b-508b-8e1d-2285431860a8-attr-32-name" class="er entityLabel">photos</text><rect height="21" width="69.06622314453125" y="696" x="0" class="er attributeBoxOdd"/><text style="dominant-baseline: middle; font-size: 10.2px;" transform="translate(5,706.5)" y="0" x="0" id="text-entity-ApartmentComplex-0c0a41db-a69b-508b-8e1d-2285431860a8-attr-33-type" class="er entityLabel">BooleanList</text><rect height="21" width="152.359375" y="696" x="69.06622314453125" class="er attributeBoxOdd"/><text style="dominant-baseline: middle; font-size: 10.2px;" transform="translate(74.06622314453125,706.5)" y="0" x="0" id="text-entity-ApartmentComplex-0c0a41db-a69b-508b-8e1d-2285431860a8-attr-33-name" class="er entityLabel">publicAccess</text><rect height="21" width="69.06622314453125" y="717" x="0" class="er attributeBoxEven"/><text style="dominant-baseline: middle; font-size: 10.2px;" transform="translate(5,727.5)" y="0" x="0" id="text-entity-ApartmentComplex-0c0a41db-a69b-508b-8e1d-2285431860a8-attr-34-type" class="er entityLabel">TextList</text><rect height="21" width="152.359375" y="717" x="69.06622314453125" class="er attributeBoxEven"/><text style="dominant-baseline: middle; font-size: 10.2px;" transform="translate(74.06622314453125,727.5)" y="0" x="0" id="text-entity-ApartmentComplex-0c0a41db-a69b-508b-8e1d-2285431860a8-attr-34-name" class="er entityLabel">slogan</text><rect height="21" width="69.06622314453125" y="738" x="0" class="er attributeBoxOdd"/><text style="dominant-baseline: middle; font-size: 10.2px;" transform="translate(5,748.5)" y="0" x="0" id="text-entity-ApartmentComplex-0c0a41db-a69b-508b-8e1d-2285431860a8-attr-35-type" class="er entityLabel">BooleanList</text><rect height="21" width="152.359375" y="738" x="69.06622314453125" class="er attributeBoxOdd"/><text style="dominant-baseline: middle; font-size: 10.2px;" transform="translate(74.06622314453125,748.5)" y="0" x="0" id="text-entity-ApartmentComplex-0c0a41db-a69b-508b-8e1d-2285431860a8-attr-35-name" class="er entityLabel">smokingAllowed</text><rect height="21" width="69.06622314453125" y="759" x="0" class="er attributeBoxEven"/><text style="dominant-baseline: middle; font-size: 10.2px;" transform="translate(5,769.5)" y="0" x="0" id="text-entity-ApartmentComplex-0c0a41db-a69b-508b-8e1d-2285431860a8-attr-36-type" class="er entityLabel">TextList</text><rect height="21" width="152.359375" y="759" x="69.06622314453125" class="er attributeBoxEven"/><text style="dominant-baseline: middle; font-size: 10.2px;" transform="translate(74.06622314453125,769.5)" y="0" x="0" id="text-entity-ApartmentComplex-0c0a41db-a69b-508b-8e1d-2285431860a8-attr-36-name" class="er entityLabel">telephone</text><rect height="21" width="69.06622314453125" y="780" x="0" class="er attributeBoxOdd"/><text style="dominant-baseline: middle; font-size: 10.2px;" transform="translate(5,790.5)" y="0" x="0" id="text-entity-ApartmentComplex-0c0a41db-a69b-508b-8e1d-2285431860a8-attr-37-type" class="er entityLabel">stringList</text><rect height="21" width="152.359375" y="780" x="69.06622314453125" class="er attributeBoxOdd"/><text style="dominant-baseline: middle; font-size: 10.2px;" transform="translate(74.06622314453125,790.5)" y="0" x="0" id="text-entity-ApartmentComplex-0c0a41db-a69b-508b-8e1d-2285431860a8-attr-37-name" class="er entityLabel">additionalType</text><rect height="21" width="69.06622314453125" y="801" x="0" class="er attributeBoxEven"/><text style="dominant-baseline: middle; font-size: 10.2px;" transform="translate(5,811.5)" y="0" x="0" id="text-entity-ApartmentComplex-0c0a41db-a69b-508b-8e1d-2285431860a8-attr-38-type" class="er entityLabel">TextList</text><rect height="21" width="152.359375" y="801" x="69.06622314453125" class="er attributeBoxEven"/><text style="dominant-baseline: middle; font-size: 10.2px;" transform="translate(74.06622314453125,811.5)" y="0" x="0" id="text-entity-ApartmentComplex-0c0a41db-a69b-508b-8e1d-2285431860a8-attr-38-name" class="er entityLabel">alternateName</text><rect height="21" width="69.06622314453125" y="822" x="0" class="er attributeBoxOdd"/><text style="dominant-baseline: middle; font-size: 10.2px;" transform="translate(5,832.5)" y="0" x="0" id="text-entity-ApartmentComplex-0c0a41db-a69b-508b-8e1d-2285431860a8-attr-39-type" class="er entityLabel">stringList</text><rect height="21" width="152.359375" y="822" x="69.06622314453125" class="er attributeBoxOdd"/><text style="dominant-baseline: middle; font-size: 10.2px;" transform="translate(74.06622314453125,832.5)" y="0" x="0" id="text-entity-ApartmentComplex-0c0a41db-a69b-508b-8e1d-2285431860a8-attr-39-name" class="er entityLabel">description</text><rect height="21" width="69.06622314453125" y="843" x="0" class="er attributeBoxEven"/><text style="dominant-baseline: middle; font-size: 10.2px;" transform="translate(5,853.5)" y="0" x="0" id="text-entity-ApartmentComplex-0c0a41db-a69b-508b-8e1d-2285431860a8-attr-40-type" class="er entityLabel">TextList</text><rect height="21" width="152.359375" y="843" x="69.06622314453125" class="er attributeBoxEven"/><text style="dominant-baseline: middle; font-size: 10.2px;" transform="translate(74.06622314453125,853.5)" y="0" x="0" id="text-entity-ApartmentComplex-0c0a41db-a69b-508b-8e1d-2285431860a8-attr-40-name" class="er entityLabel">disambiguatingDescription</text><rect height="21" width="69.06622314453125" y="864" x="0" class="er attributeBoxOdd"/><text style="dominant-baseline: middle; font-size: 10.2px;" transform="translate(5,874.5)" y="0" x="0" id="text-entity-ApartmentComplex-0c0a41db-a69b-508b-8e1d-2285431860a8-attr-41-type" class="er entityLabel">stringList</text><rect height="21" width="152.359375" y="864" x="69.06622314453125" class="er attributeBoxOdd"/><text style="dominant-baseline: middle; font-size: 10.2px;" transform="translate(74.06622314453125,874.5)" y="0" x="0" id="text-entity-ApartmentComplex-0c0a41db-a69b-508b-8e1d-2285431860a8-attr-41-name" class="er entityLabel">identifier</text><rect height="21" width="69.06622314453125" y="885" x="0" class="er attributeBoxEven"/><text style="dominant-baseline: middle; font-size: 10.2px;" transform="translate(5,895.5)" y="0" x="0" id="text-entity-ApartmentComplex-0c0a41db-a69b-508b-8e1d-2285431860a8-attr-42-type" class="er entityLabel">stringList</text><rect height="21" width="152.359375" y="885" x="69.06622314453125" class="er attributeBoxEven"/><text style="dominant-baseline: middle; font-size: 10.2px;" transform="translate(74.06622314453125,895.5)" y="0" x="0" id="text-entity-ApartmentComplex-0c0a41db-a69b-508b-8e1d-2285431860a8-attr-42-name" class="er entityLabel">image</text><rect height="21" width="69.06622314453125" y="906" x="0" class="er attributeBoxOdd"/><text style="dominant-baseline: middle; font-size: 10.2px;" transform="translate(5,916.5)" y="0" x="0" id="text-entity-ApartmentComplex-0c0a41db-a69b-508b-8e1d-2285431860a8-attr-43-type" class="er entityLabel">TextList</text><rect height="21" width="152.359375" y="906" x="69.06622314453125" class="er attributeBoxOdd"/><text style="dominant-baseline: middle; font-size: 10.2px;" transform="translate(74.06622314453125,916.5)" y="0" x="0" id="text-entity-ApartmentComplex-0c0a41db-a69b-508b-8e1d-2285431860a8-attr-43-name" class="er entityLabel">name</text><rect height="21" width="69.06622314453125" y="927" x="0" class="er attributeBoxEven"/><text style="dominant-baseline: middle; font-size: 10.2px;" transform="translate(5,937.5)" y="0" x="0" id="text-entity-ApartmentComplex-0c0a41db-a69b-508b-8e1d-2285431860a8-attr-44-type" class="er entityLabel">URLList</text><rect height="21" width="152.359375" y="927" x="69.06622314453125" class="er attributeBoxEven"/><text style="dominant-baseline: middle; font-size: 10.2px;" transform="translate(74.06622314453125,937.5)" y="0" x="0" id="text-entity-ApartmentComplex-0c0a41db-a69b-508b-8e1d-2285431860a8-attr-44-name" class="er entityLabel">sameAs</text><rect height="21" width="69.06622314453125" y="948" x="0" class="er attributeBoxOdd"/><text style="dominant-baseline: middle; font-size: 10.2px;" transform="translate(5,958.5)" y="0" x="0" id="text-entity-ApartmentComplex-0c0a41db-a69b-508b-8e1d-2285431860a8-attr-45-type" class="er entityLabel">stringList</text><rect height="21" width="152.359375" y="948" x="69.06622314453125" class="er attributeBoxOdd"/><text style="dominant-baseline: middle; font-size: 10.2px;" transform="translate(74.06622314453125,958.5)" y="0" x="0" id="text-entity-ApartmentComplex-0c0a41db-a69b-508b-8e1d-2285431860a8-attr-45-name" class="er entityLabel">mainEntityOfPage</text><rect height="21" width="69.06622314453125" y="969" x="0" class="er attributeBoxEven"/><text style="dominant-baseline: middle; font-size: 10.2px;" transform="translate(5,979.5)" y="0" x="0" id="text-entity-ApartmentComplex-0c0a41db-a69b-508b-8e1d-2285431860a8-attr-46-type" class="er entityLabel">stringList</text><rect height="21" width="152.359375" y="969" x="69.06622314453125" class="er attributeBoxEven"/><text style="dominant-baseline: middle; font-size: 10.2px;" transform="translate(74.06622314453125,979.5)" y="0" x="0" id="text-entity-ApartmentComplex-0c0a41db-a69b-508b-8e1d-2285431860a8-attr-46-name" class="er entityLabel">subjectOf</text><rect height="21" width="69.06622314453125" y="990" x="0" class="er attributeBoxOdd"/><text style="dominant-baseline: middle; font-size: 10.2px;" transform="translate(5,1000.5)" y="0" x="0" id="text-entity-ApartmentComplex-0c0a41db-a69b-508b-8e1d-2285431860a8-attr-47-type" class="er entityLabel">URLList</text><rect height="21" width="152.359375" y="990" x="69.06622314453125" class="er attributeBoxOdd"/><text style="dominant-baseline: middle; font-size: 10.2px;" transform="translate(74.06622314453125,1000.5)" y="0" x="0" id="text-entity-ApartmentComplex-0c0a41db-a69b-508b-8e1d-2285431860a8-attr-47-name" class="er entityLabel">url</text></g><g transform="translate(20,1131 )" id="entity-QuantitativeValue-3d19db81-2acf-5dcd-99e0-52d6a275eca4"><rect height="75" width="137.59375" y="0" x="0" class="er entityBox"/><text style="dominant-baseline: middle; text-anchor: middle; font-size: 12px;" transform="translate(68.796875,37.5)" y="0" x="0" id="text-entity-QuantitativeValue-3d19db81-2acf-5dcd-99e0-52d6a275eca4" class="er entityLabel">QuantitativeValue</text></g><g transform="translate(257.59375,1131 )" id="entity-FloorPlan-c68fc71d-a919-5aeb-b8e8-2bb700970f75"><rect height="75" width="100" y="0" x="0" class="er entityBox"/><text style="dominant-baseline: middle; text-anchor: middle; font-size: 12px;" transform="translate(50,37.5)" y="0" x="0" id="text-entity-FloorPlan-c68fc71d-a919-5aeb-b8e8-2bb700970f75" class="er entityLabel">FloorPlan</text></g><g transform="translate(457.59375,1131 )" id="entity-PropertyValue-0e208f6c-77f8-5d2e-b4a4-9a09101a021a"><rect height="75" width="113.734375" y="0" x="0" class="er entityBox"/><text style="dominant-baseline: middle; text-anchor: middle; font-size: 12px;" transform="translate(56.8671875,37.5)" y="0" x="0" id="text-entity-PropertyValue-0e208f6c-77f8-5d2e-b4a4-9a09101a021a" class="er entityLabel">PropertyValue</text></g><g transform="translate(671.328125,1131 )" id="entity-AggregateRating-aa0a8837-178a-57ab-baa0-94ad30d90eb5"><rect height="75" width="131.25" y="0" x="0" class="er entityBox"/><text style="dominant-baseline: middle; text-anchor: middle; font-size: 12px;" transform="translate(65.625,37.5)" y="0" x="0" id="text-entity-AggregateRating-aa0a8837-178a-57ab-baa0-94ad30d90eb5" class="er entityLabel">AggregateRating</text></g><g transform="translate(902.578125,1131 )" id="entity-LocationFeatureSpecification-dbe29f9c-e3d0-5bc9-80cd-10146568b0ab"><rect height="75" width="203.15625" y="0" x="0" class="er entityBox"/><text style="dominant-baseline: middle; text-anchor: middle; font-size: 12px;" transform="translate(101.578125,37.5)" y="0" x="0" id="text-entity-LocationFeatureSpecification-dbe29f9c-e3d0-5bc9-80cd-10146568b0ab" class="er entityLabel">LocationFeatureSpecification</text></g><g transform="translate(1229.9453125,1131 )" id="entity-Place-18cedc50-4c85-52d4-b2dd-111465382dcf"><rect height="75" width="100" y="0" x="0" class="er entityBox"/><text style="dominant-baseline: middle; text-anchor: middle; font-size: 12px;" transform="translate(50,37.5)" y="0" x="0" id="text-entity-Place-18cedc50-4c85-52d4-b2dd-111465382dcf" class="er entityLabel">Place</text></g><g transform="translate(1429.9453125,1131 )" id="entity-Event-5fcfcec5-0af7-59ba-bebb-bb0a822c8afa"><rect height="75" width="100" y="0" x="0" class="er entityBox"/><text style="dominant-baseline: middle; text-anchor: middle; font-size: 12px;" transform="translate(50,37.5)" y="0" x="0" id="text-entity-Event-5fcfcec5-0af7-59ba-bebb-bb0a822c8afa" class="er entityLabel">Event</text></g><g transform="translate(1629.9453125,1131 )" id="entity-Certification-8b250de0-929b-5806-8c87-f8e7c928ef36"><rect height="75" width="103.234375" y="0" x="0" class="er entityBox"/><text style="dominant-baseline: middle; text-anchor: middle; font-size: 12px;" transform="translate(51.6171875,37.5)" y="0" x="0" id="text-entity-Certification-8b250de0-929b-5806-8c87-f8e7c928ef36" class="er entityLabel">Certification</text></g><g transform="translate(1833.1796875,1131 )" id="entity-OpeningHoursSpecification-677aa64f-a506-5d18-b5d1-75a0f22f6986"><rect height="75" width="192.8125" y="0" x="0" class="er entityBox"/><text style="dominant-baseline: middle; text-anchor: middle; font-size: 12px;" transform="translate(96.40625,37.5)" y="0" x="0" id="text-entity-OpeningHoursSpecification-677aa64f-a506-5d18-b5d1-75a0f22f6986" class="er entityLabel">OpeningHoursSpecification</text></g><g transform="translate(2125.9921875,1131 )" id="entity-Review-77c92a79-8cff-50c0-9604-f9135763cccd"><rect height="75" width="100" y="0" x="0" class="er entityBox"/><text style="dominant-baseline: middle; text-anchor: middle; font-size: 12px;" transform="translate(50,37.5)" y="0" x="0" id="text-entity-Review-77c92a79-8cff-50c0-9604-f9135763cccd" class="er entityLabel">Review</text></g><g transform="translate(2325.9921875,1131 )" id="entity-Action-6cd87d9a-a078-546e-a35b-bee54f477b31"><rect height="75" width="100" y="0" x="0" class="er entityBox"/><text style="dominant-baseline: middle; text-anchor: middle; font-size: 12px;" transform="translate(50,37.5)" y="0" x="0" id="text-entity-Action-6cd87d9a-a078-546e-a35b-bee54f477b31" class="er entityLabel">Action</text></g><rect height="14" width="188.40625" y="823.0689697265625" x="553.674072265625" class="er relationshipLabelBox"/><text style="text-anchor: middle; dominant-baseline: middle; font-size: 12px;" y="830.0689697265625" x="647.877197265625" id="rel1" class="er relationshipLabel">numberOfAccommodationUnits</text><rect height="14" width="242.71875" y="833.2188720703125" x="562.6304321289062" class="er relationshipLabelBox"/><text style="text-anchor: middle; dominant-baseline: middle; font-size: 12px;" y="840.2188720703125" x="683.9898071289062" id="rel2" class="er relationshipLabel">numberOfAvailableAccommodationUnits</text><rect height="14" width="151.953125" y="833.4072875976562" x="698.3252563476562" class="er relationshipLabelBox"/><text style="text-anchor: middle; dominant-baseline: middle; font-size: 12px;" y="840.4072875976562" x="774.3018188476562" id="rel3" class="er relationshipLabel">accommodationFloorPlan</text><rect height="14" width="110.375" y="842.3369750976562" x="822.1004028320312" class="er relationshipLabelBox"/><text style="text-anchor: middle; dominant-baseline: middle; font-size: 12px;" y="849.3369750976562" x="877.2879028320312" id="rel4" class="er relationshipLabel">additionalProperty</text><rect height="14" width="100.390625" y="857.85888671875" x="938.43115234375" class="er relationshipLabelBox"/><text style="text-anchor: middle; dominant-baseline: middle; font-size: 12px;" y="864.85888671875" x="988.62646484375" id="rel5" class="er relationshipLabel">aggregateRating</text><rect height="14" width="94.53125" y="897.3655395507812" x="1077.3760986328125" class="er relationshipLabelBox"/><text style="text-anchor: middle; dominant-baseline: middle; font-size: 12px;" y="904.3655395507812" x="1124.6417236328125" id="rel6" class="er relationshipLabel">amenityFeature</text><rect height="14" width="70.6875" y="954.9401245117188" x="1153.8018798828125" class="er relationshipLabelBox"/><text style="text-anchor: middle; dominant-baseline: middle; font-size: 12px;" y="961.9401245117188" x="1189.1456298828125" id="rel7" class="er relationshipLabel">containedIn</text><rect height="14" width="102.59375" y="1026.6920166015625" x="1193.9326171875" class="er relationshipLabelBox"/><text style="text-anchor: middle; dominant-baseline: middle; font-size: 12px;" y="1033.6920166015625" x="1245.2294921875" id="rel8" class="er relationshipLabel">containedInPlace</text><rect height="14" width="82.703125" y="1076.3453369140625" x="1283.780029296875" class="er relationshipLabelBox"/><text style="text-anchor: middle; dominant-baseline: middle; font-size: 12px;" y="1083.3453369140625" x="1325.131591796875" id="rel9" class="er relationshipLabel">containsPlace</text><rect height="14" width="34.47265625" y="1076.3455810546875" x="1417.5223388671875" class="er relationshipLabelBox"/><text style="text-anchor: middle; dominant-baseline: middle; font-size: 12px;" y="1083.3455810546875" x="1434.7586669921875" id="rel10" class="er relationshipLabel">event</text><rect height="14" width="40.4375" y="1025.6136474609375" x="1494.8865966796875" class="er relationshipLabelBox"/><text style="text-anchor: middle; dominant-baseline: middle; font-size: 12px;" y="1032.6136474609375" x="1515.1053466796875" id="rel11" class="er relationshipLabel">events</text><rect height="14" width="94.453125" y="919.1827392578125" x="1549.419189453125" class="er relationshipLabelBox"/><text style="text-anchor: middle; dominant-baseline: middle; font-size: 12px;" y="926.1827392578125" x="1596.645751953125" id="rel12" class="er relationshipLabel">hasCertification</text><rect height="14" width="160.71875" y="885.7990112304688" x="1614.0244140625" class="er relationshipLabelBox"/><text style="text-anchor: middle; dominant-baseline: middle; font-size: 12px;" y="892.7990112304688" x="1694.3837890625" id="rel13" class="er relationshipLabel">openingHoursSpecification</text><rect height="14" width="39.87109375" y="858.708740234375" x="1802.049560546875" class="er relationshipLabelBox"/><text style="text-anchor: middle; dominant-baseline: middle; font-size: 12px;" y="865.708740234375" x="1821.985107421875" id="rel14" class="er relationshipLabel">review</text><rect height="14" width="45.9375" y="840.3522338867188" x="1844.7340087890625" class="er relationshipLabelBox"/><text style="text-anchor: middle; dominant-baseline: middle; font-size: 12px;" y="847.3522338867188" x="1867.7027587890625" id="rel15" class="er relationshipLabel">reviews</text><rect height="14" width="204.6875" y="856.3484497070312" x="1654.0072021484375" class="er relationshipLabelBox"/><text style="text-anchor: middle; dominant-baseline: middle; font-size: 12px;" y="863.3484497070312" x="1756.3509521484375" id="rel16" class="er relationshipLabel">specialOpeningHoursSpecification</text><rect height="14" width="90.96875" y="836.285888671875" x="1902.146484375" class="er relationshipLabelBox"/><text style="text-anchor: middle; dominant-baseline: middle; font-size: 12px;" y="843.285888671875" x="1947.630859375" id="rel17" class="er relationshipLabel">potentialAction</text></svg>