<svg aria-roledescription="er" role="graphics-document document" viewBox="0 0 1213.360595703125 491" style="max-width: 1213.36px; background-color: white;" xmlns:xlink="http://www.w3.org/1999/xlink" xmlns="http://www.w3.org/2000/svg" width="100%" id="my-svg"><style>#my-svg{font-family:"trebuchet ms",verdana,arial,sans-serif;font-size:16px;fill:#333;}#my-svg .error-icon{fill:#552222;}#my-svg .error-text{fill:#552222;stroke:#552222;}#my-svg .edge-thickness-normal{stroke-width:1px;}#my-svg .edge-thickness-thick{stroke-width:3.5px;}#my-svg .edge-pattern-solid{stroke-dasharray:0;}#my-svg .edge-thickness-invisible{stroke-width:0;fill:none;}#my-svg .edge-pattern-dashed{stroke-dasharray:3;}#my-svg .edge-pattern-dotted{stroke-dasharray:2;}#my-svg .marker{fill:#333333;stroke:#333333;}#my-svg .marker.cross{stroke:#333333;}#my-svg svg{font-family:"trebuchet ms",verdana,arial,sans-serif;font-size:16px;}#my-svg p{margin:0;}#my-svg .entityBox{fill:#ECECFF;stroke:#9370DB;}#my-svg .attributeBoxOdd{fill:#ffffff;stroke:#9370DB;}#my-svg .attributeBoxEven{fill:#f2f2f2;stroke:#9370DB;}#my-svg .relationshipLabelBox{fill:hsl(80, 100%, 96.2745098039%);opacity:0.7;background-color:hsl(80, 100%, 96.2745098039%);}#my-svg .relationshipLabelBox rect{opacity:0.5;}#my-svg .relationshipLine{stroke:#333333;}#my-svg .entityTitleText{text-anchor:middle;font-size:18px;fill:#333;}#my-svg #MD_PARENT_START{fill:#f5f5f5!important;stroke:#333333!important;stroke-width:1;}#my-svg #MD_PARENT_END{fill:#f5f5f5!important;stroke:#333333!important;stroke-width:1;}#my-svg :root{--mermaid-font-family:"trebuchet ms",verdana,arial,sans-serif;}</style><g/><defs><marker orient="auto" markerHeight="240" markerWidth="190" refY="7" refX="0" id="MD_PARENT_START"><path d="M 18,7 L9,13 L1,7 L9,1 Z"/></marker></defs><defs><marker orient="auto" markerHeight="28" markerWidth="20" refY="7" refX="19" id="MD_PARENT_END"><path d="M 18,7 L9,13 L1,7 L9,1 Z"/></marker></defs><defs><marker orient="auto" markerHeight="18" markerWidth="18" refY="9" refX="0" id="ONLY_ONE_START"><path d="M9,0 L9,18 M15,0 L15,18" fill="none" stroke="gray"/></marker></defs><defs><marker orient="auto" markerHeight="18" markerWidth="18" refY="9" refX="18" id="ONLY_ONE_END"><path d="M3,0 L3,18 M9,0 L9,18" fill="none" stroke="gray"/></marker></defs><defs><marker orient="auto" markerHeight="18" markerWidth="30" refY="9" refX="0" id="ZERO_OR_ONE_START"><circle r="6" cy="9" cx="21" fill="white" stroke="gray"/><path d="M9,0 L9,18" fill="none" stroke="gray"/></marker></defs><defs><marker orient="auto" markerHeight="18" markerWidth="30" refY="9" refX="30" id="ZERO_OR_ONE_END"><circle r="6" cy="9" cx="9" fill="white" stroke="gray"/><path d="M21,0 L21,18" fill="none" stroke="gray"/></marker></defs><defs><marker orient="auto" markerHeight="36" markerWidth="45" refY="18" refX="18" id="ONE_OR_MORE_START"><path d="M0,18 Q 18,0 36,18 Q 18,36 0,18 M42,9 L42,27" fill="none" stroke="gray"/></marker></defs><defs><marker orient="auto" markerHeight="36" markerWidth="45" refY="18" refX="27" id="ONE_OR_MORE_END"><path d="M3,9 L3,27 M9,18 Q27,0 45,18 Q27,36 9,18" fill="none" stroke="gray"/></marker></defs><defs><marker orient="auto" markerHeight="36" markerWidth="57" refY="18" refX="18" id="ZERO_OR_MORE_START"><circle r="6" cy="18" cx="48" fill="white" stroke="gray"/><path d="M0,18 Q18,0 36,18 Q18,36 0,18" fill="none" stroke="gray"/></marker></defs><defs><marker orient="auto" markerHeight="36" markerWidth="57" refY="18" refX="39" id="ZERO_OR_MORE_END"><circle r="6" cy="18" cx="9" fill="white" stroke="gray"/><path d="M21,18 Q39,0 57,18 Q39,36 21,18" fill="none" stroke="gray"/></marker></defs><path style="stroke: gray; fill: none;" marker-start="url(#ONLY_ONE_START)" marker-end="url(#ZERO_OR_MORE_END)" d="M714.551,72.975L726.217,64.145C737.884,55.316,761.217,37.658,775.801,28.829C790.384,20,796.217,20,802.051,43C807.884,66,813.717,112,813.717,158C813.717,204,807.884,250,802.051,273C796.217,296,790.384,296,775.801,287.171C761.217,278.342,737.884,260.684,726.217,251.855L714.551,243.025" class="er relationshipLine"/><path style="stroke: gray; fill: none;" marker-start="url(#ONLY_ONE_START)" marker-end="url(#ZERO_OR_MORE_END)" d="M714.551,97.361L738.44,84.467C762.329,71.574,810.106,45.787,839.967,32.893C869.829,20,881.773,20,893.717,43C905.662,66,917.606,112,917.606,158C917.606,204,905.662,250,893.717,273C881.773,296,869.829,296,839.967,283.107C810.106,270.213,762.329,244.426,738.44,231.533L714.551,218.639" class="er relationshipLine"/><path style="stroke: gray; fill: none;" marker-start="url(#ONLY_ONE_START)" marker-end="url(#ZERO_OR_MORE_END)" d="M489.848,197.909L420.363,222.59C350.878,247.272,211.908,296.636,142.423,329.651C72.938,362.667,72.938,379.333,72.938,387.667L72.938,396" class="er relationshipLine"/><path style="stroke: gray; fill: none;" marker-start="url(#ONLY_ONE_START)" marker-end="url(#ZERO_OR_MORE_END)" d="M489.848,222.727L454.186,243.273C418.523,263.818,347.199,304.909,311.537,333.788C275.875,362.667,275.875,379.333,275.875,387.667L275.875,396" class="er relationshipLine"/><path style="stroke: gray; fill: none;" marker-start="url(#ONLY_ONE_START)" marker-end="url(#ZERO_OR_MORE_END)" d="M714.551,110.876L750.662,95.73C786.773,80.584,858.995,50.292,904.134,35.146C949.273,20,967.329,20,985.384,43C1003.44,66,1021.495,112,1021.495,158C1021.495,204,1003.44,250,985.384,273C967.329,296,949.273,296,904.134,280.854C858.995,265.708,786.773,235.416,750.662,220.27L714.551,205.124" class="er relationshipLine"/><path style="stroke: gray; fill: none;" marker-start="url(#ONLY_ONE_START)" marker-end="url(#ZERO_OR_MORE_END)" d="M509.472,296L503.872,304.333C498.273,312.667,487.074,329.333,481.474,346C475.875,362.667,475.875,379.333,475.875,387.667L475.875,396" class="er relationshipLine"/><path style="stroke: gray; fill: none;" marker-start="url(#ONLY_ONE_START)" marker-end="url(#ZERO_OR_MORE_END)" d="M714.551,119.465L762.884,102.888C811.217,86.31,907.884,53.155,968.301,36.578C1028.717,20,1052.884,20,1077.051,43C1101.217,66,1125.384,112,1125.384,158C1125.384,204,1101.217,250,1077.051,273C1052.884,296,1028.717,296,968.301,279.422C907.884,262.845,811.217,229.69,762.884,213.112L714.551,196.535" class="er relationshipLine"/><path style="stroke: gray; fill: none;" marker-start="url(#ONLY_ONE_START)" marker-end="url(#ZERO_OR_MORE_END)" d="M582.876,296L581.709,304.333C580.542,312.667,578.209,329.333,593.709,347.389C609.208,365.444,642.542,384.889,659.208,394.611L675.875,404.333" class="er relationshipLine"/><path style="stroke: gray; fill: none;" marker-start="url(#ONLY_ONE_START)" marker-end="url(#ZERO_OR_MORE_END)" d="M656.28,296L659.546,304.333C662.812,312.667,669.343,329.333,677.371,346C685.399,362.667,694.923,379.333,699.685,387.667L704.446,396" class="er relationshipLine"/><path style="stroke: gray; fill: none;" marker-start="url(#ONLY_ONE_START)" marker-end="url(#ZERO_OR_MORE_END)" d="M714.551,279.618L724.771,290.682C734.992,301.745,755.434,323.873,760.892,343.27C766.351,362.667,756.827,379.333,752.065,387.667L747.304,396" class="er relationshipLine"/><path style="stroke: gray; fill: none;" marker-start="url(#ONLY_ONE_START)" marker-end="url(#ZERO_OR_MORE_END)" d="M714.551,235.179L741.438,253.649C768.326,272.12,822.1,309.06,853.75,335.863C885.399,362.667,894.923,379.333,899.685,387.667L904.446,396" class="er relationshipLine"/><path style="stroke: gray; fill: none;" marker-start="url(#ONLY_ONE_START)" marker-end="url(#ZERO_OR_MORE_END)" d="M714.551,198.334L783.105,222.945C851.659,247.556,988.767,296.778,1057.321,329.722C1125.875,362.667,1125.875,379.333,1125.875,387.667L1125.875,396" class="er relationshipLine"/><path style="stroke: gray; fill: none;" marker-start="url(#ONLY_ONE_START)" marker-end="url(#ZERO_OR_MORE_END)" d="M714.551,214.525L758.105,236.438C801.659,258.35,888.767,302.175,927.559,332.421C966.351,362.667,956.827,379.333,952.065,387.667L947.304,396" class="er relationshipLine"/><g transform="translate(489.84765625,20 )" id="entity-BioChemEntity-91ca7764-8775-5ab9-9cc3-ecf3ff3a9f54"><rect height="276" width="224.703125" y="0" x="0" class="er entityBox"/><text style="dominant-baseline: middle; text-anchor: middle; font-size: 12px;" transform="translate(112.3515625,12)" y="0" x="0" id="text-entity-BioChemEntity-91ca7764-8775-5ab9-9cc3-ecf3ff3a9f54" class="er entityLabel">BioChemEntity</text><rect height="21" width="57.0625" y="24" x="0" class="er attributeBoxOdd"/><text style="dominant-baseline: middle; font-size: 10.2px;" transform="translate(5,34.5)" y="0" x="0" id="text-entity-BioChemEntity-91ca7764-8775-5ab9-9cc3-ecf3ff3a9f54-attr-1-type" class="er entityLabel">stringList</text><rect height="21" width="167.640625" y="24" x="57.0625" class="er attributeBoxOdd"/><text style="dominant-baseline: middle; font-size: 10.2px;" transform="translate(62.0625,34.5)" y="0" x="0" id="text-entity-BioChemEntity-91ca7764-8775-5ab9-9cc3-ecf3ff3a9f54-attr-1-name" class="er entityLabel">hasRepresentation</text><rect height="21" width="57.0625" y="45" x="0" class="er attributeBoxEven"/><text style="dominant-baseline: middle; font-size: 10.2px;" transform="translate(5,55.5)" y="0" x="0" id="text-entity-BioChemEntity-91ca7764-8775-5ab9-9cc3-ecf3ff3a9f54-attr-2-type" class="er entityLabel">stringList</text><rect height="21" width="167.640625" y="45" x="57.0625" class="er attributeBoxEven"/><text style="dominant-baseline: middle; font-size: 10.2px;" transform="translate(62.0625,55.5)" y="0" x="0" id="text-entity-BioChemEntity-91ca7764-8775-5ab9-9cc3-ecf3ff3a9f54-attr-2-name" class="er entityLabel">associatedDisease</text><rect height="21" width="57.0625" y="66" x="0" class="er attributeBoxOdd"/><text style="dominant-baseline: middle; font-size: 10.2px;" transform="translate(5,76.5)" y="0" x="0" id="text-entity-BioChemEntity-91ca7764-8775-5ab9-9cc3-ecf3ff3a9f54-attr-3-type" class="er entityLabel">stringList</text><rect height="21" width="167.640625" y="66" x="57.0625" class="er attributeBoxOdd"/><text style="dominant-baseline: middle; font-size: 10.2px;" transform="translate(62.0625,76.5)" y="0" x="0" id="text-entity-BioChemEntity-91ca7764-8775-5ab9-9cc3-ecf3ff3a9f54-attr-3-name" class="er entityLabel">hasMolecularFunction</text><rect height="21" width="57.0625" y="87" x="0" class="er attributeBoxEven"/><text style="dominant-baseline: middle; font-size: 10.2px;" transform="translate(5,97.5)" y="0" x="0" id="text-entity-BioChemEntity-91ca7764-8775-5ab9-9cc3-ecf3ff3a9f54-attr-4-type" class="er entityLabel">stringList</text><rect height="21" width="167.640625" y="87" x="57.0625" class="er attributeBoxEven"/><text style="dominant-baseline: middle; font-size: 10.2px;" transform="translate(62.0625,97.5)" y="0" x="0" id="text-entity-BioChemEntity-91ca7764-8775-5ab9-9cc3-ecf3ff3a9f54-attr-4-name" class="er entityLabel">isInvolvedInBiologicalProcess</text><rect height="21" width="57.0625" y="108" x="0" class="er attributeBoxOdd"/><text style="dominant-baseline: middle; font-size: 10.2px;" transform="translate(5,118.5)" y="0" x="0" id="text-entity-BioChemEntity-91ca7764-8775-5ab9-9cc3-ecf3ff3a9f54-attr-5-type" class="er entityLabel">stringList</text><rect height="21" width="167.640625" y="108" x="57.0625" class="er attributeBoxOdd"/><text style="dominant-baseline: middle; font-size: 10.2px;" transform="translate(62.0625,118.5)" y="0" x="0" id="text-entity-BioChemEntity-91ca7764-8775-5ab9-9cc3-ecf3ff3a9f54-attr-5-name" class="er entityLabel">isLocatedInSubcellularLocation</text><rect height="21" width="57.0625" y="129" x="0" class="er attributeBoxEven"/><text style="dominant-baseline: middle; font-size: 10.2px;" transform="translate(5,139.5)" y="0" x="0" id="text-entity-BioChemEntity-91ca7764-8775-5ab9-9cc3-ecf3ff3a9f54-attr-6-type" class="er entityLabel">stringList</text><rect height="21" width="167.640625" y="129" x="57.0625" class="er attributeBoxEven"/><text style="dominant-baseline: middle; font-size: 10.2px;" transform="translate(62.0625,139.5)" y="0" x="0" id="text-entity-BioChemEntity-91ca7764-8775-5ab9-9cc3-ecf3ff3a9f54-attr-6-name" class="er entityLabel">taxonomicRange</text><rect height="21" width="57.0625" y="150" x="0" class="er attributeBoxOdd"/><text style="dominant-baseline: middle; font-size: 10.2px;" transform="translate(5,160.5)" y="0" x="0" id="text-entity-BioChemEntity-91ca7764-8775-5ab9-9cc3-ecf3ff3a9f54-attr-7-type" class="er entityLabel">stringList</text><rect height="21" width="167.640625" y="150" x="57.0625" class="er attributeBoxOdd"/><text style="dominant-baseline: middle; font-size: 10.2px;" transform="translate(62.0625,160.5)" y="0" x="0" id="text-entity-BioChemEntity-91ca7764-8775-5ab9-9cc3-ecf3ff3a9f54-attr-7-name" class="er entityLabel">additionalType</text><rect height="21" width="57.0625" y="171" x="0" class="er attributeBoxEven"/><text style="dominant-baseline: middle; font-size: 10.2px;" transform="translate(5,181.5)" y="0" x="0" id="text-entity-BioChemEntity-91ca7764-8775-5ab9-9cc3-ecf3ff3a9f54-attr-8-type" class="er entityLabel">stringList</text><rect height="21" width="167.640625" y="171" x="57.0625" class="er attributeBoxEven"/><text style="dominant-baseline: middle; font-size: 10.2px;" transform="translate(62.0625,181.5)" y="0" x="0" id="text-entity-BioChemEntity-91ca7764-8775-5ab9-9cc3-ecf3ff3a9f54-attr-8-name" class="er entityLabel">description</text><rect height="21" width="57.0625" y="192" x="0" class="er attributeBoxOdd"/><text style="dominant-baseline: middle; font-size: 10.2px;" transform="translate(5,202.5)" y="0" x="0" id="text-entity-BioChemEntity-91ca7764-8775-5ab9-9cc3-ecf3ff3a9f54-attr-9-type" class="er entityLabel">stringList</text><rect height="21" width="167.640625" y="192" x="57.0625" class="er attributeBoxOdd"/><text style="dominant-baseline: middle; font-size: 10.2px;" transform="translate(62.0625,202.5)" y="0" x="0" id="text-entity-BioChemEntity-91ca7764-8775-5ab9-9cc3-ecf3ff3a9f54-attr-9-name" class="er entityLabel">identifier</text><rect height="21" width="57.0625" y="213" x="0" class="er attributeBoxEven"/><text style="dominant-baseline: middle; font-size: 10.2px;" transform="translate(5,223.5)" y="0" x="0" id="text-entity-BioChemEntity-91ca7764-8775-5ab9-9cc3-ecf3ff3a9f54-attr-10-type" class="er entityLabel">stringList</text><rect height="21" width="167.640625" y="213" x="57.0625" class="er attributeBoxEven"/><text style="dominant-baseline: middle; font-size: 10.2px;" transform="translate(62.0625,223.5)" y="0" x="0" id="text-entity-BioChemEntity-91ca7764-8775-5ab9-9cc3-ecf3ff3a9f54-attr-10-name" class="er entityLabel">image</text><rect height="21" width="57.0625" y="234" x="0" class="er attributeBoxOdd"/><text style="dominant-baseline: middle; font-size: 10.2px;" transform="translate(5,244.5)" y="0" x="0" id="text-entity-BioChemEntity-91ca7764-8775-5ab9-9cc3-ecf3ff3a9f54-attr-11-type" class="er entityLabel">stringList</text><rect height="21" width="167.640625" y="234" x="57.0625" class="er attributeBoxOdd"/><text style="dominant-baseline: middle; font-size: 10.2px;" transform="translate(62.0625,244.5)" y="0" x="0" id="text-entity-BioChemEntity-91ca7764-8775-5ab9-9cc3-ecf3ff3a9f54-attr-11-name" class="er entityLabel">mainEntityOfPage</text><rect height="21" width="57.0625" y="255" x="0" class="er attributeBoxEven"/><text style="dominant-baseline: middle; font-size: 10.2px;" transform="translate(5,265.5)" y="0" x="0" id="text-entity-BioChemEntity-91ca7764-8775-5ab9-9cc3-ecf3ff3a9f54-attr-12-type" class="er entityLabel">stringList</text><rect height="21" width="167.640625" y="255" x="57.0625" class="er attributeBoxEven"/><text style="dominant-baseline: middle; font-size: 10.2px;" transform="translate(62.0625,265.5)" y="0" x="0" id="text-entity-BioChemEntity-91ca7764-8775-5ab9-9cc3-ecf3ff3a9f54-attr-12-name" class="er entityLabel">subjectOf</text></g><g transform="translate(20,396 )" id="entity-DefinedTerm-e1e3104f-d120-5416-9bc5-123ff9563b07"><rect height="75" width="105.875" y="0" x="0" class="er entityBox"/><text style="dominant-baseline: middle; text-anchor: middle; font-size: 12px;" transform="translate(52.9375,37.5)" y="0" x="0" id="text-entity-DefinedTerm-e1e3104f-d120-5416-9bc5-123ff9563b07" class="er entityLabel">DefinedTerm</text></g><g transform="translate(225.875,396 )" id="entity-Grant-291daf2c-8722-576f-890e-1045bc6484c0"><rect height="75" width="100" y="0" x="0" class="er entityBox"/><text style="dominant-baseline: middle; text-anchor: middle; font-size: 12px;" transform="translate(50,37.5)" y="0" x="0" id="text-entity-Grant-291daf2c-8722-576f-890e-1045bc6484c0" class="er entityLabel">Grant</text></g><g transform="translate(425.875,396 )" id="entity-Gene-1b8bbbb1-1b46-548a-9347-52717796e662"><rect height="75" width="100" y="0" x="0" class="er entityBox"/><text style="dominant-baseline: middle; text-anchor: middle; font-size: 12px;" transform="translate(50,37.5)" y="0" x="0" id="text-entity-Gene-1b8bbbb1-1b46-548a-9347-52717796e662" class="er entityLabel">Gene</text></g><g transform="translate(675.875,396 )" id="entity-Text-426c5d39-acfc-5487-a6d9-ede67887190e"><rect height="75" width="100" y="0" x="0" class="er entityBox"/><text style="dominant-baseline: middle; text-anchor: middle; font-size: 12px;" transform="translate(50,37.5)" y="0" x="0" id="text-entity-Text-426c5d39-acfc-5487-a6d9-ede67887190e" class="er entityLabel">Text</text></g><g transform="translate(875.875,396 )" id="entity-URL-07f78d3e-fd74-5925-b39b-26c1cc2d6b7c"><rect height="75" width="100" y="0" x="0" class="er entityBox"/><text style="dominant-baseline: middle; text-anchor: middle; font-size: 12px;" transform="translate(50,37.5)" y="0" x="0" id="text-entity-URL-07f78d3e-fd74-5925-b39b-26c1cc2d6b7c" class="er entityLabel">URL</text></g><g transform="translate(1075.875,396 )" id="entity-Action-6cd87d9a-a078-546e-a35b-bee54f477b31"><rect height="75" width="100" y="0" x="0" class="er entityBox"/><text style="dominant-baseline: middle; text-anchor: middle; font-size: 12px;" transform="translate(50,37.5)" y="0" x="0" id="text-entity-Action-6cd87d9a-a078-546e-a35b-bee54f477b31" class="er entityLabel">Action</text></g><rect height="14" width="118.453125" y="151.00001525878906" x="754.4904174804688" class="er relationshipLabelBox"/><text style="text-anchor: middle; dominant-baseline: middle; font-size: 12px;" y="158.00001525878906" x="813.7169799804688" id="rel1" class="er relationshipLabel">bioChemInteraction</text><rect height="14" width="110.09375" y="151" x="862.5591430664062" class="er relationshipLabelBox"/><text style="text-anchor: middle; dominant-baseline: middle; font-size: 12px;" y="158" x="917.6060180664062" id="rel2" class="er relationshipLabel">bioChemSimilarity</text><rect height="14" width="83.0625" y="271.5135498046875" x="225.2313232421875" class="er relationshipLabelBox"/><text style="text-anchor: middle; dominant-baseline: middle; font-size: 12px;" y="278.5135498046875" x="266.7625732421875" id="rel3" class="er relationshipLabel">biologicalRole</text><rect height="14" width="45.609375" y="288.3211975097656" x="344.1551513671875" class="er relationshipLabelBox"/><text style="text-anchor: middle; dominant-baseline: middle; font-size: 12px;" y="295.3211975097656" x="366.9598388671875" id="rel4" class="er relationshipLabel">funding</text><rect height="14" width="134.193359375" y="151" x="954.3983154296875" class="er relationshipLabelBox"/><text style="text-anchor: middle; dominant-baseline: middle; font-size: 12px;" y="158" x="1021.4949951171875" id="rel5" class="er relationshipLabel">hasBioChemEntityPart</text><rect height="14" width="165.671875" y="335.743896484375" x="399.80133056640625" class="er relationshipLabelBox"/><text style="text-anchor: middle; dominant-baseline: middle; font-size: 12px;" y="342.743896484375" x="482.63726806640625" id="rel6" class="er relationshipLabel">isEncodedByBioChemEntity</text><rect height="14" width="135.953125" y="151.00003051757812" x="1057.407470703125" class="er relationshipLabelBox"/><text style="text-anchor: middle; dominant-baseline: middle; font-size: 12px;" y="158.00003051757812" x="1125.384033203125" id="rel7" class="er relationshipLabel">isPartOfBioChemEntity</text><rect height="14" width="89.953125" y="355.8494873046875" x="565.4579467773438" class="er relationshipLabelBox"/><text style="text-anchor: middle; dominant-baseline: middle; font-size: 12px;" y="362.8494873046875" x="610.4345092773438" id="rel8" class="er relationshipLabel">alternateName</text><rect height="14" width="161.390625" y="340.1662902832031" x="597.2406616210938" class="er relationshipLabelBox"/><text style="text-anchor: middle; dominant-baseline: middle; font-size: 12px;" y="347.1662902832031" x="677.9359741210938" id="rel9" class="er relationshipLabel">disambiguatingDescription</text><rect height="14" width="34.03125" y="325.52716064453125" x="739.5772094726562" class="er relationshipLabelBox"/><text style="text-anchor: middle; dominant-baseline: middle; font-size: 12px;" y="332.52716064453125" x="756.5928344726562" id="rel10" class="er relationshipLabel">name</text><rect height="14" width="47.140625" y="300.2989196777344" x="793.72216796875" class="er relationshipLabelBox"/><text style="text-anchor: middle; dominant-baseline: middle; font-size: 12px;" y="307.2989196777344" x="817.29248046875" id="rel11" class="er relationshipLabel">sameAs</text><rect height="14" width="90.96875" y="271.8061218261719" x="889.4006958007812" class="er relationshipLabelBox"/><text style="text-anchor: middle; dominant-baseline: middle; font-size: 12px;" y="278.8061218261719" x="934.8850708007812" id="rel12" class="er relationshipLabel">potentialAction</text><rect height="14" width="15.875" y="281.0472412109375" x="848.9236450195312" class="er relationshipLabelBox"/><text style="text-anchor: middle; dominant-baseline: middle; font-size: 12px;" y="288.0472412109375" x="856.8611450195312" id="rel13" class="er relationshipLabel">url</text></svg>