<svg aria-roledescription="er" role="graphics-document document" viewBox="0 0 2508.71875 512" style="max-width: 2508.72px; background-color: white;" xmlns:xlink="http://www.w3.org/1999/xlink" xmlns="http://www.w3.org/2000/svg" width="100%" id="my-svg"><style>#my-svg{font-family:"trebuchet ms",verdana,arial,sans-serif;font-size:16px;fill:#333;}#my-svg .error-icon{fill:#552222;}#my-svg .error-text{fill:#552222;stroke:#552222;}#my-svg .edge-thickness-normal{stroke-width:1px;}#my-svg .edge-thickness-thick{stroke-width:3.5px;}#my-svg .edge-pattern-solid{stroke-dasharray:0;}#my-svg .edge-thickness-invisible{stroke-width:0;fill:none;}#my-svg .edge-pattern-dashed{stroke-dasharray:3;}#my-svg .edge-pattern-dotted{stroke-dasharray:2;}#my-svg .marker{fill:#333333;stroke:#333333;}#my-svg .marker.cross{stroke:#333333;}#my-svg svg{font-family:"trebuchet ms",verdana,arial,sans-serif;font-size:16px;}#my-svg p{margin:0;}#my-svg .entityBox{fill:#ECECFF;stroke:#9370DB;}#my-svg .attributeBoxOdd{fill:#ffffff;stroke:#9370DB;}#my-svg .attributeBoxEven{fill:#f2f2f2;stroke:#9370DB;}#my-svg .relationshipLabelBox{fill:hsl(80, 100%, 96.2745098039%);opacity:0.7;background-color:hsl(80, 100%, 96.2745098039%);}#my-svg .relationshipLabelBox rect{opacity:0.5;}#my-svg .relationshipLine{stroke:#333333;}#my-svg .entityTitleText{text-anchor:middle;font-size:18px;fill:#333;}#my-svg #MD_PARENT_START{fill:#f5f5f5!important;stroke:#333333!important;stroke-width:1;}#my-svg #MD_PARENT_END{fill:#f5f5f5!important;stroke:#333333!important;stroke-width:1;}#my-svg :root{--mermaid-font-family:"trebuchet ms",verdana,arial,sans-serif;}</style><g/><defs><marker orient="auto" markerHeight="240" markerWidth="190" refY="7" refX="0" id="MD_PARENT_START"><path d="M 18,7 L9,13 L1,7 L9,1 Z"/></marker></defs><defs><marker orient="auto" markerHeight="28" markerWidth="20" refY="7" refX="19" id="MD_PARENT_END"><path d="M 18,7 L9,13 L1,7 L9,1 Z"/></marker></defs><defs><marker orient="auto" markerHeight="18" markerWidth="18" refY="9" refX="0" id="ONLY_ONE_START"><path d="M9,0 L9,18 M15,0 L15,18" fill="none" stroke="gray"/></marker></defs><defs><marker orient="auto" markerHeight="18" markerWidth="18" refY="9" refX="18" id="ONLY_ONE_END"><path d="M3,0 L3,18 M9,0 L9,18" fill="none" stroke="gray"/></marker></defs><defs><marker orient="auto" markerHeight="18" markerWidth="30" refY="9" refX="0" id="ZERO_OR_ONE_START"><circle r="6" cy="9" cx="21" fill="white" stroke="gray"/><path d="M9,0 L9,18" fill="none" stroke="gray"/></marker></defs><defs><marker orient="auto" markerHeight="18" markerWidth="30" refY="9" refX="30" id="ZERO_OR_ONE_END"><circle r="6" cy="9" cx="9" fill="white" stroke="gray"/><path d="M21,0 L21,18" fill="none" stroke="gray"/></marker></defs><defs><marker orient="auto" markerHeight="36" markerWidth="45" refY="18" refX="18" id="ONE_OR_MORE_START"><path d="M0,18 Q 18,0 36,18 Q 18,36 0,18 M42,9 L42,27" fill="none" stroke="gray"/></marker></defs><defs><marker orient="auto" markerHeight="36" markerWidth="45" refY="18" refX="27" id="ONE_OR_MORE_END"><path d="M3,9 L3,27 M9,18 Q27,0 45,18 Q27,36 9,18" fill="none" stroke="gray"/></marker></defs><defs><marker orient="auto" markerHeight="36" markerWidth="57" refY="18" refX="18" id="ZERO_OR_MORE_START"><circle r="6" cy="18" cx="48" fill="white" stroke="gray"/><path d="M0,18 Q18,0 36,18 Q18,36 0,18" fill="none" stroke="gray"/></marker></defs><defs><marker orient="auto" markerHeight="36" markerWidth="57" refY="18" refX="39" id="ZERO_OR_MORE_END"><circle r="6" cy="18" cx="9" fill="white" stroke="gray"/><path d="M21,18 Q39,0 57,18 Q39,36 21,18" fill="none" stroke="gray"/></marker></defs><path style="stroke: gray; fill: none;" marker-start="url(#ONLY_ONE_START)" marker-end="url(#ZERO_OR_MORE_END)" d="M1135.305,185.851L957.754,216.043C780.203,246.234,425.102,306.617,247.551,345.142C70,383.667,70,400.333,70,408.667L70,417" class="er relationshipLine"/><path style="stroke: gray; fill: none;" marker-start="url(#ONLY_ONE_START)" marker-end="url(#ZERO_OR_MORE_END)" d="M1135.305,189.462L991.267,219.052C847.229,248.641,559.154,307.821,415.116,345.744C271.078,383.667,271.078,400.333,271.078,408.667L271.078,417" class="er relationshipLine"/><path style="stroke: gray; fill: none;" marker-start="url(#ONLY_ONE_START)" marker-end="url(#ZERO_OR_MORE_END)" d="M1135.305,195.558L1027.551,224.132C919.797,252.705,704.289,309.853,596.535,346.76C488.781,383.667,488.781,400.333,488.781,408.667L488.781,417" class="er relationshipLine"/><path style="stroke: gray; fill: none;" marker-start="url(#ONLY_ONE_START)" marker-end="url(#ZERO_OR_MORE_END)" d="M1135.305,207.196L1065.073,233.83C994.841,260.464,854.378,313.732,784.146,348.699C713.914,383.667,713.914,400.333,713.914,408.667L713.914,417" class="er relationshipLine"/><path style="stroke: gray; fill: none;" marker-start="url(#ONLY_ONE_START)" marker-end="url(#ZERO_OR_MORE_END)" d="M1135.305,233.509L1100.383,255.757C1065.461,278.006,995.617,322.503,960.695,353.085C925.773,383.667,925.773,400.333,925.773,408.667L925.773,417" class="er relationshipLine"/><path style="stroke: gray; fill: none;" marker-start="url(#ONLY_ONE_START)" marker-end="url(#ZERO_OR_MORE_END)" d="M1156.384,317L1151.841,325.333C1147.298,333.667,1138.211,350.333,1133.668,367C1129.125,383.667,1129.125,400.333,1129.125,408.667L1129.125,417" class="er relationshipLine"/><path style="stroke: gray; fill: none;" marker-start="url(#ONLY_ONE_START)" marker-end="url(#ZERO_OR_MORE_END)" d="M1318.303,317L1322.847,325.333C1327.39,333.667,1336.476,350.333,1341.019,367C1345.563,383.667,1345.563,400.333,1345.563,408.667L1345.563,417" class="er relationshipLine"/><path style="stroke: gray; fill: none;" marker-start="url(#ONLY_ONE_START)" marker-end="url(#ZERO_OR_MORE_END)" d="M1339.383,228.277L1378.849,251.398C1418.315,274.518,1497.247,320.759,1536.714,352.213C1576.18,383.667,1576.18,400.333,1576.18,408.667L1576.18,417" class="er relationshipLine"/><path style="stroke: gray; fill: none;" marker-start="url(#ONLY_ONE_START)" marker-end="url(#ZERO_OR_MORE_END)" d="M1339.383,204.905L1415.105,231.921C1490.828,258.937,1642.273,312.968,1717.996,348.317C1793.719,383.667,1793.719,400.333,1793.719,408.667L1793.719,417" class="er relationshipLine"/><path style="stroke: gray; fill: none;" marker-start="url(#ONLY_ONE_START)" marker-end="url(#ZERO_OR_MORE_END)" d="M1339.383,194.627L1451.583,223.356C1563.784,252.085,1788.185,309.542,1900.385,346.605C2012.586,383.667,2012.586,400.333,2012.586,408.667L2012.586,417" class="er relationshipLine"/><path style="stroke: gray; fill: none;" marker-start="url(#ONLY_ONE_START)" marker-end="url(#ZERO_OR_MORE_END)" d="M1339.383,188.835L1488.387,218.529C1637.391,248.223,1935.398,307.612,2084.402,345.639C2233.406,383.667,2233.406,400.333,2233.406,408.667L2233.406,417" class="er relationshipLine"/><path style="stroke: gray; fill: none;" marker-start="url(#ONLY_ONE_START)" marker-end="url(#ZERO_OR_MORE_END)" d="M1339.383,185.36L1522.605,215.633C1705.828,245.906,2072.273,306.453,2255.496,345.06C2438.719,383.667,2438.719,400.333,2438.719,408.667L2438.719,417" class="er relationshipLine"/><g transform="translate(1135.3046875,20 )" id="entity-BloodTest-ac710473-e302-5d7c-9de7-1dce69b1e7ce"><rect height="297" width="204.078125" y="0" x="0" class="er entityBox"/><text style="dominant-baseline: middle; text-anchor: middle; font-size: 12px;" transform="translate(102.0390625,12)" y="0" x="0" id="text-entity-BloodTest-ac710473-e302-5d7c-9de7-1dce69b1e7ce" class="er entityLabel">BloodTest</text><rect height="21" width="57.0625" y="24" x="0" class="er attributeBoxOdd"/><text style="dominant-baseline: middle; font-size: 10.2px;" transform="translate(5,34.5)" y="0" x="0" id="text-entity-BloodTest-ac710473-e302-5d7c-9de7-1dce69b1e7ce-attr-1-type" class="er entityLabel">stringList</text><rect height="21" width="147.015625" y="24" x="57.0625" class="er attributeBoxOdd"/><text style="dominant-baseline: middle; font-size: 10.2px;" transform="translate(62.0625,34.5)" y="0" x="0" id="text-entity-BloodTest-ac710473-e302-5d7c-9de7-1dce69b1e7ce-attr-1-name" class="er entityLabel">normalRange</text><rect height="21" width="57.0625" y="45" x="0" class="er attributeBoxEven"/><text style="dominant-baseline: middle; font-size: 10.2px;" transform="translate(5,55.5)" y="0" x="0" id="text-entity-BloodTest-ac710473-e302-5d7c-9de7-1dce69b1e7ce-attr-2-type" class="er entityLabel">stringList</text><rect height="21" width="147.015625" y="45" x="57.0625" class="er attributeBoxEven"/><text style="dominant-baseline: middle; font-size: 10.2px;" transform="translate(62.0625,55.5)" y="0" x="0" id="text-entity-BloodTest-ac710473-e302-5d7c-9de7-1dce69b1e7ce-attr-2-name" class="er entityLabel">legalStatus</text><rect height="21" width="57.0625" y="66" x="0" class="er attributeBoxOdd"/><text style="dominant-baseline: middle; font-size: 10.2px;" transform="translate(5,76.5)" y="0" x="0" id="text-entity-BloodTest-ac710473-e302-5d7c-9de7-1dce69b1e7ce-attr-3-type" class="er entityLabel">stringList</text><rect height="21" width="147.015625" y="66" x="57.0625" class="er attributeBoxOdd"/><text style="dominant-baseline: middle; font-size: 10.2px;" transform="translate(62.0625,76.5)" y="0" x="0" id="text-entity-BloodTest-ac710473-e302-5d7c-9de7-1dce69b1e7ce-attr-3-name" class="er entityLabel">additionalType</text><rect height="21" width="57.0625" y="87" x="0" class="er attributeBoxEven"/><text style="dominant-baseline: middle; font-size: 10.2px;" transform="translate(5,97.5)" y="0" x="0" id="text-entity-BloodTest-ac710473-e302-5d7c-9de7-1dce69b1e7ce-attr-4-type" class="er entityLabel">TextList</text><rect height="21" width="147.015625" y="87" x="57.0625" class="er attributeBoxEven"/><text style="dominant-baseline: middle; font-size: 10.2px;" transform="translate(62.0625,97.5)" y="0" x="0" id="text-entity-BloodTest-ac710473-e302-5d7c-9de7-1dce69b1e7ce-attr-4-name" class="er entityLabel">alternateName</text><rect height="21" width="57.0625" y="108" x="0" class="er attributeBoxOdd"/><text style="dominant-baseline: middle; font-size: 10.2px;" transform="translate(5,118.5)" y="0" x="0" id="text-entity-BloodTest-ac710473-e302-5d7c-9de7-1dce69b1e7ce-attr-5-type" class="er entityLabel">stringList</text><rect height="21" width="147.015625" y="108" x="57.0625" class="er attributeBoxOdd"/><text style="dominant-baseline: middle; font-size: 10.2px;" transform="translate(62.0625,118.5)" y="0" x="0" id="text-entity-BloodTest-ac710473-e302-5d7c-9de7-1dce69b1e7ce-attr-5-name" class="er entityLabel">description</text><rect height="21" width="57.0625" y="129" x="0" class="er attributeBoxEven"/><text style="dominant-baseline: middle; font-size: 10.2px;" transform="translate(5,139.5)" y="0" x="0" id="text-entity-BloodTest-ac710473-e302-5d7c-9de7-1dce69b1e7ce-attr-6-type" class="er entityLabel">TextList</text><rect height="21" width="147.015625" y="129" x="57.0625" class="er attributeBoxEven"/><text style="dominant-baseline: middle; font-size: 10.2px;" transform="translate(62.0625,139.5)" y="0" x="0" id="text-entity-BloodTest-ac710473-e302-5d7c-9de7-1dce69b1e7ce-attr-6-name" class="er entityLabel">disambiguatingDescription</text><rect height="21" width="57.0625" y="150" x="0" class="er attributeBoxOdd"/><text style="dominant-baseline: middle; font-size: 10.2px;" transform="translate(5,160.5)" y="0" x="0" id="text-entity-BloodTest-ac710473-e302-5d7c-9de7-1dce69b1e7ce-attr-7-type" class="er entityLabel">stringList</text><rect height="21" width="147.015625" y="150" x="57.0625" class="er attributeBoxOdd"/><text style="dominant-baseline: middle; font-size: 10.2px;" transform="translate(62.0625,160.5)" y="0" x="0" id="text-entity-BloodTest-ac710473-e302-5d7c-9de7-1dce69b1e7ce-attr-7-name" class="er entityLabel">identifier</text><rect height="21" width="57.0625" y="171" x="0" class="er attributeBoxEven"/><text style="dominant-baseline: middle; font-size: 10.2px;" transform="translate(5,181.5)" y="0" x="0" id="text-entity-BloodTest-ac710473-e302-5d7c-9de7-1dce69b1e7ce-attr-8-type" class="er entityLabel">stringList</text><rect height="21" width="147.015625" y="171" x="57.0625" class="er attributeBoxEven"/><text style="dominant-baseline: middle; font-size: 10.2px;" transform="translate(62.0625,181.5)" y="0" x="0" id="text-entity-BloodTest-ac710473-e302-5d7c-9de7-1dce69b1e7ce-attr-8-name" class="er entityLabel">image</text><rect height="21" width="57.0625" y="192" x="0" class="er attributeBoxOdd"/><text style="dominant-baseline: middle; font-size: 10.2px;" transform="translate(5,202.5)" y="0" x="0" id="text-entity-BloodTest-ac710473-e302-5d7c-9de7-1dce69b1e7ce-attr-9-type" class="er entityLabel">TextList</text><rect height="21" width="147.015625" y="192" x="57.0625" class="er attributeBoxOdd"/><text style="dominant-baseline: middle; font-size: 10.2px;" transform="translate(62.0625,202.5)" y="0" x="0" id="text-entity-BloodTest-ac710473-e302-5d7c-9de7-1dce69b1e7ce-attr-9-name" class="er entityLabel">name</text><rect height="21" width="57.0625" y="213" x="0" class="er attributeBoxEven"/><text style="dominant-baseline: middle; font-size: 10.2px;" transform="translate(5,223.5)" y="0" x="0" id="text-entity-BloodTest-ac710473-e302-5d7c-9de7-1dce69b1e7ce-attr-10-type" class="er entityLabel">URLList</text><rect height="21" width="147.015625" y="213" x="57.0625" class="er attributeBoxEven"/><text style="dominant-baseline: middle; font-size: 10.2px;" transform="translate(62.0625,223.5)" y="0" x="0" id="text-entity-BloodTest-ac710473-e302-5d7c-9de7-1dce69b1e7ce-attr-10-name" class="er entityLabel">sameAs</text><rect height="21" width="57.0625" y="234" x="0" class="er attributeBoxOdd"/><text style="dominant-baseline: middle; font-size: 10.2px;" transform="translate(5,244.5)" y="0" x="0" id="text-entity-BloodTest-ac710473-e302-5d7c-9de7-1dce69b1e7ce-attr-11-type" class="er entityLabel">stringList</text><rect height="21" width="147.015625" y="234" x="57.0625" class="er attributeBoxOdd"/><text style="dominant-baseline: middle; font-size: 10.2px;" transform="translate(62.0625,244.5)" y="0" x="0" id="text-entity-BloodTest-ac710473-e302-5d7c-9de7-1dce69b1e7ce-attr-11-name" class="er entityLabel">mainEntityOfPage</text><rect height="21" width="57.0625" y="255" x="0" class="er attributeBoxEven"/><text style="dominant-baseline: middle; font-size: 10.2px;" transform="translate(5,265.5)" y="0" x="0" id="text-entity-BloodTest-ac710473-e302-5d7c-9de7-1dce69b1e7ce-attr-12-type" class="er entityLabel">stringList</text><rect height="21" width="147.015625" y="255" x="57.0625" class="er attributeBoxEven"/><text style="dominant-baseline: middle; font-size: 10.2px;" transform="translate(62.0625,265.5)" y="0" x="0" id="text-entity-BloodTest-ac710473-e302-5d7c-9de7-1dce69b1e7ce-attr-12-name" class="er entityLabel">subjectOf</text><rect height="21" width="57.0625" y="276" x="0" class="er attributeBoxOdd"/><text style="dominant-baseline: middle; font-size: 10.2px;" transform="translate(5,286.5)" y="0" x="0" id="text-entity-BloodTest-ac710473-e302-5d7c-9de7-1dce69b1e7ce-attr-13-type" class="er entityLabel">URLList</text><rect height="21" width="147.015625" y="276" x="57.0625" class="er attributeBoxOdd"/><text style="dominant-baseline: middle; font-size: 10.2px;" transform="translate(62.0625,286.5)" y="0" x="0" id="text-entity-BloodTest-ac710473-e302-5d7c-9de7-1dce69b1e7ce-attr-13-name" class="er entityLabel">url</text></g><g transform="translate(20,417 )" id="entity-Drug-eafa91c0-1824-5f2e-9826-905b73217603"><rect height="75" width="100" y="0" x="0" class="er entityBox"/><text style="dominant-baseline: middle; text-anchor: middle; font-size: 12px;" transform="translate(50,37.5)" y="0" x="0" id="text-entity-Drug-eafa91c0-1824-5f2e-9826-905b73217603" class="er entityLabel">Drug</text></g><g transform="translate(220,417 )" id="entity-MedicalSign-32f5b091-3010-5cae-8dbe-0b34bb5eb9aa"><rect height="75" width="102.15625" y="0" x="0" class="er entityBox"/><text style="dominant-baseline: middle; text-anchor: middle; font-size: 12px;" transform="translate(51.078125,37.5)" y="0" x="0" id="text-entity-MedicalSign-32f5b091-3010-5cae-8dbe-0b34bb5eb9aa" class="er entityLabel">MedicalSign</text></g><g transform="translate(422.15625,417 )" id="entity-MedicalCondition-a93e7da7-17aa-5f46-8e3a-8f90076b9104"><rect height="75" width="133.25" y="0" x="0" class="er entityBox"/><text style="dominant-baseline: middle; text-anchor: middle; font-size: 12px;" transform="translate(66.625,37.5)" y="0" x="0" id="text-entity-MedicalCondition-a93e7da7-17aa-5f46-8e3a-8f90076b9104" class="er entityLabel">MedicalCondition</text></g><g transform="translate(655.40625,417 )" id="entity-MedicalDevice-5f6f3c8c-4266-59d7-8529-6d2f742c8c82"><rect height="75" width="117.015625" y="0" x="0" class="er entityBox"/><text style="dominant-baseline: middle; text-anchor: middle; font-size: 12px;" transform="translate(58.5078125,37.5)" y="0" x="0" id="text-entity-MedicalDevice-5f6f3c8c-4266-59d7-8529-6d2f742c8c82" class="er entityLabel">MedicalDevice</text></g><g transform="translate(872.421875,417 )" id="entity-MedicalCode-340ab1f3-b0e0-51ff-b309-32031f623ceb"><rect height="75" width="106.703125" y="0" x="0" class="er entityBox"/><text style="dominant-baseline: middle; text-anchor: middle; font-size: 12px;" transform="translate(53.3515625,37.5)" y="0" x="0" id="text-entity-MedicalCode-340ab1f3-b0e0-51ff-b309-32031f623ceb" class="er entityLabel">MedicalCode</text></g><g transform="translate(1079.125,417 )" id="entity-Grant-291daf2c-8722-576f-890e-1045bc6484c0"><rect height="75" width="100" y="0" x="0" class="er entityBox"/><text style="dominant-baseline: middle; text-anchor: middle; font-size: 12px;" transform="translate(50,37.5)" y="0" x="0" id="text-entity-Grant-291daf2c-8722-576f-890e-1045bc6484c0" class="er entityLabel">Grant</text></g><g transform="translate(1279.125,417 )" id="entity-MedicalGuideline-a05959e1-803b-55cd-8b3c-b530a54fde23"><rect height="75" width="132.875" y="0" x="0" class="er entityBox"/><text style="dominant-baseline: middle; text-anchor: middle; font-size: 12px;" transform="translate(66.4375,37.5)" y="0" x="0" id="text-entity-MedicalGuideline-a05959e1-803b-55cd-8b3c-b530a54fde23" class="er entityLabel">MedicalGuideline</text></g><g transform="translate(1512,417 )" id="entity-MedicineSystem-74197b84-67e0-5471-ab59-f3fd7c3c0e72"><rect height="75" width="128.359375" y="0" x="0" class="er entityBox"/><text style="dominant-baseline: middle; text-anchor: middle; font-size: 12px;" transform="translate(64.1796875,37.5)" y="0" x="0" id="text-entity-MedicineSystem-74197b84-67e0-5471-ab59-f3fd7c3c0e72" class="er entityLabel">MedicineSystem</text></g><g transform="translate(1740.359375,417 )" id="entity-Organization-ef1721ab-1f62-5ef5-a525-a6c60c2f6032"><rect height="75" width="106.71875" y="0" x="0" class="er entityBox"/><text style="dominant-baseline: middle; text-anchor: middle; font-size: 12px;" transform="translate(53.359375,37.5)" y="0" x="0" id="text-entity-Organization-ef1721ab-1f62-5ef5-a525-a6c60c2f6032" class="er entityLabel">Organization</text></g><g transform="translate(1947.078125,417 )" id="entity-MedicalSpecialty-0f4a20d3-5a5d-5b81-b412-da395afebba8"><rect height="75" width="131.015625" y="0" x="0" class="er entityBox"/><text style="dominant-baseline: middle; text-anchor: middle; font-size: 12px;" transform="translate(65.5078125,37.5)" y="0" x="0" id="text-entity-MedicalSpecialty-0f4a20d3-5a5d-5b81-b412-da395afebba8" class="er entityLabel">MedicalSpecialty</text></g><g transform="translate(2178.09375,417 )" id="entity-MedicalStudy-22dea251-12b7-5654-af29-afad6ffe12b1"><rect height="75" width="110.625" y="0" x="0" class="er entityBox"/><text style="dominant-baseline: middle; text-anchor: middle; font-size: 12px;" transform="translate(55.3125,37.5)" y="0" x="0" id="text-entity-MedicalStudy-22dea251-12b7-5654-af29-afad6ffe12b1" class="er entityLabel">MedicalStudy</text></g><g transform="translate(2388.71875,417 )" id="entity-Action-6cd87d9a-a078-546e-a35b-bee54f477b31"><rect height="75" width="100" y="0" x="0" class="er entityBox"/><text style="dominant-baseline: middle; text-anchor: middle; font-size: 12px;" transform="translate(50,37.5)" y="0" x="0" id="text-entity-Action-6cd87d9a-a078-546e-a35b-bee54f477b31" class="er entityLabel">Action</text></g><rect height="14" width="64.640625" y="272.4628601074219" x="559.1441040039062" class="er relationshipLabelBox"/><text style="text-anchor: middle; dominant-baseline: middle; font-size: 12px;" y="279.4628601074219" x="591.4644165039062" id="rel1" class="er relationshipLabel">affectedBy</text><rect height="14" width="79.828125" y="274.8645935058594" x="651.2611083984375" class="er relationshipLabelBox"/><text style="text-anchor: middle; dominant-baseline: middle; font-size: 12px;" y="281.8645935058594" x="691.1751708984375" id="rel2" class="er relationshipLabel">signDetected</text><rect height="14" width="97.625" y="278.9974670410156" x="750.0473022460938" class="er relationshipLabelBox"/><text style="text-anchor: middle; dominant-baseline: middle; font-size: 12px;" y="285.9974670410156" x="798.8598022460938" id="rel3" class="er relationshipLabel">usedToDiagnose</text><rect height="14" width="68.53125" y="287.0459289550781" x="875.6209106445312" class="er relationshipLabelBox"/><text style="text-anchor: middle; dominant-baseline: middle; font-size: 12px;" y="294.0459289550781" x="909.8865356445312" id="rel4" class="er relationshipLabel">usesDevice</text><rect height="14" width="28.953125" y="305.1243591308594" x="1000.2714233398438" class="er relationshipLabelBox"/><text style="text-anchor: middle; dominant-baseline: middle; font-size: 12px;" y="312.1243591308594" x="1014.7479858398438" id="rel5" class="er relationshipLabel">code</text><rect height="14" width="45.609375" y="357.7518615722656" x="1111.50341796875" class="er relationshipLabelBox"/><text style="text-anchor: middle; dominant-baseline: middle; font-size: 12px;" y="364.7518615722656" x="1134.30810546875" id="rel6" class="er relationshipLabel">funding</text><rect height="14" width="55.21875" y="357.7519226074219" x="1312.76953125" class="er relationshipLabelBox"/><text style="text-anchor: middle; dominant-baseline: middle; font-size: 12px;" y="364.7519226074219" x="1340.37890625" id="rel7" class="er relationshipLabel">guideline</text><rect height="14" width="99.703125" y="301.58856201171875" x="1423.71044921875" class="er relationshipLabelBox"/><text style="text-anchor: middle; dominant-baseline: middle; font-size: 12px;" y="308.58856201171875" x="1473.56201171875" id="rel8" class="er relationshipLabel">medicineSystem</text><rect height="14" width="124.953125" y="285.45391845703125" x="1518.5579833984375" class="er relationshipLabelBox"/><text style="text-anchor: middle; dominant-baseline: middle; font-size: 12px;" y="292.45391845703125" x="1581.0345458984375" id="rel9" class="er relationshipLabel">recognizingAuthority</text><rect height="14" width="104.578125" y="278.3612365722656" x="1636.718017578125" class="er relationshipLabelBox"/><text style="text-anchor: middle; dominant-baseline: middle; font-size: 12px;" y="285.3612365722656" x="1689.007080078125" id="rel10" class="er relationshipLabel">relevantSpecialty</text><rect height="14" width="33.28125" y="274.4445495605469" x="1781.6343994140625" class="er relationshipLabelBox"/><text style="text-anchor: middle; dominant-baseline: middle; font-size: 12px;" y="281.4445495605469" x="1798.2750244140625" id="rel11" class="er relationshipLabel">study</text><rect height="14" width="90.96875" y="272.1391906738281" x="1854.633544921875" class="er relationshipLabelBox"/><text style="text-anchor: middle; dominant-baseline: middle; font-size: 12px;" y="279.1391906738281" x="1900.117919921875" id="rel12" class="er relationshipLabel">potentialAction</text></svg>