<svg aria-roledescription="er" role="graphics-document document" viewBox="0 0 2956.0625 407" style="max-width: 2956.06px; background-color: white;" xmlns:xlink="http://www.w3.org/1999/xlink" xmlns="http://www.w3.org/2000/svg" width="100%" id="my-svg"><style>#my-svg{font-family:"trebuchet ms",verdana,arial,sans-serif;font-size:16px;fill:#333;}#my-svg .error-icon{fill:#552222;}#my-svg .error-text{fill:#552222;stroke:#552222;}#my-svg .edge-thickness-normal{stroke-width:1px;}#my-svg .edge-thickness-thick{stroke-width:3.5px;}#my-svg .edge-pattern-solid{stroke-dasharray:0;}#my-svg .edge-thickness-invisible{stroke-width:0;fill:none;}#my-svg .edge-pattern-dashed{stroke-dasharray:3;}#my-svg .edge-pattern-dotted{stroke-dasharray:2;}#my-svg .marker{fill:#333333;stroke:#333333;}#my-svg .marker.cross{stroke:#333333;}#my-svg svg{font-family:"trebuchet ms",verdana,arial,sans-serif;font-size:16px;}#my-svg p{margin:0;}#my-svg .entityBox{fill:#ECECFF;stroke:#9370DB;}#my-svg .attributeBoxOdd{fill:#ffffff;stroke:#9370DB;}#my-svg .attributeBoxEven{fill:#f2f2f2;stroke:#9370DB;}#my-svg .relationshipLabelBox{fill:hsl(80, 100%, 96.2745098039%);opacity:0.7;background-color:hsl(80, 100%, 96.2745098039%);}#my-svg .relationshipLabelBox rect{opacity:0.5;}#my-svg .relationshipLine{stroke:#333333;}#my-svg .entityTitleText{text-anchor:middle;font-size:18px;fill:#333;}#my-svg #MD_PARENT_START{fill:#f5f5f5!important;stroke:#333333!important;stroke-width:1;}#my-svg #MD_PARENT_END{fill:#f5f5f5!important;stroke:#333333!important;stroke-width:1;}#my-svg :root{--mermaid-font-family:"trebuchet ms",verdana,arial,sans-serif;}</style><g/><defs><marker orient="auto" markerHeight="240" markerWidth="190" refY="7" refX="0" id="MD_PARENT_START"><path d="M 18,7 L9,13 L1,7 L9,1 Z"/></marker></defs><defs><marker orient="auto" markerHeight="28" markerWidth="20" refY="7" refX="19" id="MD_PARENT_END"><path d="M 18,7 L9,13 L1,7 L9,1 Z"/></marker></defs><defs><marker orient="auto" markerHeight="18" markerWidth="18" refY="9" refX="0" id="ONLY_ONE_START"><path d="M9,0 L9,18 M15,0 L15,18" fill="none" stroke="gray"/></marker></defs><defs><marker orient="auto" markerHeight="18" markerWidth="18" refY="9" refX="18" id="ONLY_ONE_END"><path d="M3,0 L3,18 M9,0 L9,18" fill="none" stroke="gray"/></marker></defs><defs><marker orient="auto" markerHeight="18" markerWidth="30" refY="9" refX="0" id="ZERO_OR_ONE_START"><circle r="6" cy="9" cx="21" fill="white" stroke="gray"/><path d="M9,0 L9,18" fill="none" stroke="gray"/></marker></defs><defs><marker orient="auto" markerHeight="18" markerWidth="30" refY="9" refX="30" id="ZERO_OR_ONE_END"><circle r="6" cy="9" cx="9" fill="white" stroke="gray"/><path d="M21,0 L21,18" fill="none" stroke="gray"/></marker></defs><defs><marker orient="auto" markerHeight="36" markerWidth="45" refY="18" refX="18" id="ONE_OR_MORE_START"><path d="M0,18 Q 18,0 36,18 Q 18,36 0,18 M42,9 L42,27" fill="none" stroke="gray"/></marker></defs><defs><marker orient="auto" markerHeight="36" markerWidth="45" refY="18" refX="27" id="ONE_OR_MORE_END"><path d="M3,9 L3,27 M9,18 Q27,0 45,18 Q27,36 9,18" fill="none" stroke="gray"/></marker></defs><defs><marker orient="auto" markerHeight="36" markerWidth="57" refY="18" refX="18" id="ZERO_OR_MORE_START"><circle r="6" cy="18" cx="48" fill="white" stroke="gray"/><path d="M0,18 Q18,0 36,18 Q18,36 0,18" fill="none" stroke="gray"/></marker></defs><defs><marker orient="auto" markerHeight="36" markerWidth="57" refY="18" refX="39" id="ZERO_OR_MORE_END"><circle r="6" cy="18" cx="9" fill="white" stroke="gray"/><path d="M21,18 Q39,0 57,18 Q39,36 21,18" fill="none" stroke="gray"/></marker></defs><path style="stroke: gray; fill: none;" marker-start="url(#ONLY_ONE_START)" marker-end="url(#ZERO_OR_MORE_END)" d="M1714.453,122.714L1440.378,145.928C1166.302,169.143,618.151,215.571,344.076,247.119C70,278.667,70,295.333,70,303.667L70,312" class="er relationshipLine"/><path style="stroke: gray; fill: none;" marker-start="url(#ONLY_ONE_START)" marker-end="url(#ZERO_OR_MORE_END)" d="M1714.453,123.6L1473.891,146.667C1233.328,169.734,752.203,215.867,511.641,247.267C271.078,278.667,271.078,295.333,271.078,303.667L271.078,312" class="er relationshipLine"/><path style="stroke: gray; fill: none;" marker-start="url(#ONLY_ONE_START)" marker-end="url(#ZERO_OR_MORE_END)" d="M1714.453,124.868L1510.174,147.724C1305.896,170.579,897.339,216.289,693.06,247.478C488.781,278.667,488.781,295.333,488.781,303.667L488.781,312" class="er relationshipLine"/><path style="stroke: gray; fill: none;" marker-start="url(#ONLY_ONE_START)" marker-end="url(#ZERO_OR_MORE_END)" d="M1714.453,126.717L1547.697,149.265C1380.94,171.812,1047.427,216.906,880.671,247.786C713.914,278.667,713.914,295.333,713.914,303.667L713.914,312" class="er relationshipLine"/><path style="stroke: gray; fill: none;" marker-start="url(#ONLY_ONE_START)" marker-end="url(#ZERO_OR_MORE_END)" d="M1714.453,129.334L1583.007,151.445C1451.56,173.556,1188.667,217.778,1057.22,248.222C925.773,278.667,925.773,295.333,925.773,303.667L925.773,312" class="er relationshipLine"/><path style="stroke: gray; fill: none;" marker-start="url(#ONLY_ONE_START)" marker-end="url(#ZERO_OR_MORE_END)" d="M1714.453,133.413L1616.898,154.844C1519.344,176.276,1324.234,219.138,1226.68,248.902C1129.125,278.667,1129.125,295.333,1129.125,303.667L1129.125,312" class="er relationshipLine"/><path style="stroke: gray; fill: none;" marker-start="url(#ONLY_ONE_START)" marker-end="url(#ZERO_OR_MORE_END)" d="M1714.453,141.823L1652.971,161.853C1591.49,181.882,1468.526,221.941,1407.044,250.304C1345.563,278.667,1345.563,295.333,1345.563,303.667L1345.563,312" class="er relationshipLine"/><path style="stroke: gray; fill: none;" marker-start="url(#ONLY_ONE_START)" marker-end="url(#ZERO_OR_MORE_END)" d="M1714.453,169.199L1691.408,184.666C1668.362,200.132,1622.271,231.066,1599.225,254.866C1576.18,278.667,1576.18,295.333,1576.18,303.667L1576.18,312" class="er relationshipLine"/><path style="stroke: gray; fill: none;" marker-start="url(#ONLY_ONE_START)" marker-end="url(#ZERO_OR_MORE_END)" d="M1793.719,212L1793.719,220.333C1793.719,228.667,1793.719,245.333,1793.719,262C1793.719,278.667,1793.719,295.333,1793.719,303.667L1793.719,312" class="er relationshipLine"/><path style="stroke: gray; fill: none;" marker-start="url(#ONLY_ONE_START)" marker-end="url(#ZERO_OR_MORE_END)" d="M1872.984,168.876L1896.251,184.397C1919.518,199.917,1966.052,230.959,1989.319,254.813C2012.586,278.667,2012.586,295.333,2012.586,303.667L2012.586,312" class="er relationshipLine"/><path style="stroke: gray; fill: none;" marker-start="url(#ONLY_ONE_START)" marker-end="url(#ZERO_OR_MORE_END)" d="M1872.984,142.32L1933.055,162.267C1993.125,182.214,2113.266,222.107,2173.336,250.387C2233.406,278.667,2233.406,295.333,2233.406,303.667L2233.406,312" class="er relationshipLine"/><path style="stroke: gray; fill: none;" marker-start="url(#ONLY_ONE_START)" marker-end="url(#ZERO_OR_MORE_END)" d="M1872.984,137.338L1950.164,158.115C2027.344,178.892,2181.703,220.446,2275.549,250.945C2369.396,281.444,2402.729,300.889,2419.396,310.611L2436.063,320.333" class="er relationshipLine"/><path style="stroke: gray; fill: none;" marker-start="url(#ONLY_ONE_START)" marker-end="url(#ZERO_OR_MORE_END)" d="M1872.984,134.016L1966.831,155.347C2060.677,176.678,2248.37,219.339,2346.978,249.003C2445.586,278.667,2455.11,295.333,2459.872,303.667L2464.634,312" class="er relationshipLine"/><path style="stroke: gray; fill: none;" marker-start="url(#ONLY_ONE_START)" marker-end="url(#ZERO_OR_MORE_END)" d="M1872.984,131.59L1983.497,153.325C2094.01,175.06,2315.036,218.53,2420.788,248.598C2526.539,278.667,2517.015,295.333,2512.253,303.667L2507.491,312" class="er relationshipLine"/><path style="stroke: gray; fill: none;" marker-start="url(#ONLY_ONE_START)" marker-end="url(#ZERO_OR_MORE_END)" d="M1872.984,129.739L2000.164,151.782C2127.344,173.826,2381.703,217.913,2513.645,248.29C2645.586,278.667,2655.11,295.333,2659.872,303.667L2664.634,312" class="er relationshipLine"/><path style="stroke: gray; fill: none;" marker-start="url(#ONLY_ONE_START)" marker-end="url(#ZERO_OR_MORE_END)" d="M1872.984,126.594L2041.831,149.162C2210.677,171.73,2548.37,216.865,2717.216,247.766C2886.063,278.667,2886.063,295.333,2886.063,303.667L2886.063,312" class="er relationshipLine"/><path style="stroke: gray; fill: none;" marker-start="url(#ONLY_ONE_START)" marker-end="url(#ZERO_OR_MORE_END)" d="M1872.984,128.281L2016.831,150.567C2160.677,172.854,2448.37,217.427,2587.454,248.047C2726.539,278.667,2717.015,295.333,2712.253,303.667L2707.491,312" class="er relationshipLine"/><g transform="translate(1714.453125,20 )" id="entity-BloodTest-ac710473-e302-5d7c-9de7-1dce69b1e7ce"><rect height="192" width="158.53125" y="0" x="0" class="er entityBox"/><text style="dominant-baseline: middle; text-anchor: middle; font-size: 12px;" transform="translate(79.265625,12)" y="0" x="0" id="text-entity-BloodTest-ac710473-e302-5d7c-9de7-1dce69b1e7ce" class="er entityLabel">BloodTest</text><rect height="21" width="57.0625" y="24" x="0" class="er attributeBoxOdd"/><text style="dominant-baseline: middle; font-size: 10.2px;" transform="translate(5,34.5)" y="0" x="0" id="text-entity-BloodTest-ac710473-e302-5d7c-9de7-1dce69b1e7ce-attr-1-type" class="er entityLabel">stringList</text><rect height="21" width="101.46875" y="24" x="57.0625" class="er attributeBoxOdd"/><text style="dominant-baseline: middle; font-size: 10.2px;" transform="translate(62.0625,34.5)" y="0" x="0" id="text-entity-BloodTest-ac710473-e302-5d7c-9de7-1dce69b1e7ce-attr-1-name" class="er entityLabel">normalRange</text><rect height="21" width="57.0625" y="45" x="0" class="er attributeBoxEven"/><text style="dominant-baseline: middle; font-size: 10.2px;" transform="translate(5,55.5)" y="0" x="0" id="text-entity-BloodTest-ac710473-e302-5d7c-9de7-1dce69b1e7ce-attr-2-type" class="er entityLabel">stringList</text><rect height="21" width="101.46875" y="45" x="57.0625" class="er attributeBoxEven"/><text style="dominant-baseline: middle; font-size: 10.2px;" transform="translate(62.0625,55.5)" y="0" x="0" id="text-entity-BloodTest-ac710473-e302-5d7c-9de7-1dce69b1e7ce-attr-2-name" class="er entityLabel">legalStatus</text><rect height="21" width="57.0625" y="66" x="0" class="er attributeBoxOdd"/><text style="dominant-baseline: middle; font-size: 10.2px;" transform="translate(5,76.5)" y="0" x="0" id="text-entity-BloodTest-ac710473-e302-5d7c-9de7-1dce69b1e7ce-attr-3-type" class="er entityLabel">stringList</text><rect height="21" width="101.46875" y="66" x="57.0625" class="er attributeBoxOdd"/><text style="dominant-baseline: middle; font-size: 10.2px;" transform="translate(62.0625,76.5)" y="0" x="0" id="text-entity-BloodTest-ac710473-e302-5d7c-9de7-1dce69b1e7ce-attr-3-name" class="er entityLabel">additionalType</text><rect height="21" width="57.0625" y="87" x="0" class="er attributeBoxEven"/><text style="dominant-baseline: middle; font-size: 10.2px;" transform="translate(5,97.5)" y="0" x="0" id="text-entity-BloodTest-ac710473-e302-5d7c-9de7-1dce69b1e7ce-attr-4-type" class="er entityLabel">stringList</text><rect height="21" width="101.46875" y="87" x="57.0625" class="er attributeBoxEven"/><text style="dominant-baseline: middle; font-size: 10.2px;" transform="translate(62.0625,97.5)" y="0" x="0" id="text-entity-BloodTest-ac710473-e302-5d7c-9de7-1dce69b1e7ce-attr-4-name" class="er entityLabel">description</text><rect height="21" width="57.0625" y="108" x="0" class="er attributeBoxOdd"/><text style="dominant-baseline: middle; font-size: 10.2px;" transform="translate(5,118.5)" y="0" x="0" id="text-entity-BloodTest-ac710473-e302-5d7c-9de7-1dce69b1e7ce-attr-5-type" class="er entityLabel">stringList</text><rect height="21" width="101.46875" y="108" x="57.0625" class="er attributeBoxOdd"/><text style="dominant-baseline: middle; font-size: 10.2px;" transform="translate(62.0625,118.5)" y="0" x="0" id="text-entity-BloodTest-ac710473-e302-5d7c-9de7-1dce69b1e7ce-attr-5-name" class="er entityLabel">identifier</text><rect height="21" width="57.0625" y="129" x="0" class="er attributeBoxEven"/><text style="dominant-baseline: middle; font-size: 10.2px;" transform="translate(5,139.5)" y="0" x="0" id="text-entity-BloodTest-ac710473-e302-5d7c-9de7-1dce69b1e7ce-attr-6-type" class="er entityLabel">stringList</text><rect height="21" width="101.46875" y="129" x="57.0625" class="er attributeBoxEven"/><text style="dominant-baseline: middle; font-size: 10.2px;" transform="translate(62.0625,139.5)" y="0" x="0" id="text-entity-BloodTest-ac710473-e302-5d7c-9de7-1dce69b1e7ce-attr-6-name" class="er entityLabel">image</text><rect height="21" width="57.0625" y="150" x="0" class="er attributeBoxOdd"/><text style="dominant-baseline: middle; font-size: 10.2px;" transform="translate(5,160.5)" y="0" x="0" id="text-entity-BloodTest-ac710473-e302-5d7c-9de7-1dce69b1e7ce-attr-7-type" class="er entityLabel">stringList</text><rect height="21" width="101.46875" y="150" x="57.0625" class="er attributeBoxOdd"/><text style="dominant-baseline: middle; font-size: 10.2px;" transform="translate(62.0625,160.5)" y="0" x="0" id="text-entity-BloodTest-ac710473-e302-5d7c-9de7-1dce69b1e7ce-attr-7-name" class="er entityLabel">mainEntityOfPage</text><rect height="21" width="57.0625" y="171" x="0" class="er attributeBoxEven"/><text style="dominant-baseline: middle; font-size: 10.2px;" transform="translate(5,181.5)" y="0" x="0" id="text-entity-BloodTest-ac710473-e302-5d7c-9de7-1dce69b1e7ce-attr-8-type" class="er entityLabel">stringList</text><rect height="21" width="101.46875" y="171" x="57.0625" class="er attributeBoxEven"/><text style="dominant-baseline: middle; font-size: 10.2px;" transform="translate(62.0625,181.5)" y="0" x="0" id="text-entity-BloodTest-ac710473-e302-5d7c-9de7-1dce69b1e7ce-attr-8-name" class="er entityLabel">subjectOf</text></g><g transform="translate(20,312 )" id="entity-Drug-eafa91c0-1824-5f2e-9826-905b73217603"><rect height="75" width="100" y="0" x="0" class="er entityBox"/><text style="dominant-baseline: middle; text-anchor: middle; font-size: 12px;" transform="translate(50,37.5)" y="0" x="0" id="text-entity-Drug-eafa91c0-1824-5f2e-9826-905b73217603" class="er entityLabel">Drug</text></g><g transform="translate(220,312 )" id="entity-MedicalSign-32f5b091-3010-5cae-8dbe-0b34bb5eb9aa"><rect height="75" width="102.15625" y="0" x="0" class="er entityBox"/><text style="dominant-baseline: middle; text-anchor: middle; font-size: 12px;" transform="translate(51.078125,37.5)" y="0" x="0" id="text-entity-MedicalSign-32f5b091-3010-5cae-8dbe-0b34bb5eb9aa" class="er entityLabel">MedicalSign</text></g><g transform="translate(422.15625,312 )" id="entity-MedicalCondition-a93e7da7-17aa-5f46-8e3a-8f90076b9104"><rect height="75" width="133.25" y="0" x="0" class="er entityBox"/><text style="dominant-baseline: middle; text-anchor: middle; font-size: 12px;" transform="translate(66.625,37.5)" y="0" x="0" id="text-entity-MedicalCondition-a93e7da7-17aa-5f46-8e3a-8f90076b9104" class="er entityLabel">MedicalCondition</text></g><g transform="translate(655.40625,312 )" id="entity-MedicalDevice-5f6f3c8c-4266-59d7-8529-6d2f742c8c82"><rect height="75" width="117.015625" y="0" x="0" class="er entityBox"/><text style="dominant-baseline: middle; text-anchor: middle; font-size: 12px;" transform="translate(58.5078125,37.5)" y="0" x="0" id="text-entity-MedicalDevice-5f6f3c8c-4266-59d7-8529-6d2f742c8c82" class="er entityLabel">MedicalDevice</text></g><g transform="translate(872.421875,312 )" id="entity-MedicalCode-340ab1f3-b0e0-51ff-b309-32031f623ceb"><rect height="75" width="106.703125" y="0" x="0" class="er entityBox"/><text style="dominant-baseline: middle; text-anchor: middle; font-size: 12px;" transform="translate(53.3515625,37.5)" y="0" x="0" id="text-entity-MedicalCode-340ab1f3-b0e0-51ff-b309-32031f623ceb" class="er entityLabel">MedicalCode</text></g><g transform="translate(1079.125,312 )" id="entity-Grant-291daf2c-8722-576f-890e-1045bc6484c0"><rect height="75" width="100" y="0" x="0" class="er entityBox"/><text style="dominant-baseline: middle; text-anchor: middle; font-size: 12px;" transform="translate(50,37.5)" y="0" x="0" id="text-entity-Grant-291daf2c-8722-576f-890e-1045bc6484c0" class="er entityLabel">Grant</text></g><g transform="translate(1279.125,312 )" id="entity-MedicalGuideline-a05959e1-803b-55cd-8b3c-b530a54fde23"><rect height="75" width="132.875" y="0" x="0" class="er entityBox"/><text style="dominant-baseline: middle; text-anchor: middle; font-size: 12px;" transform="translate(66.4375,37.5)" y="0" x="0" id="text-entity-MedicalGuideline-a05959e1-803b-55cd-8b3c-b530a54fde23" class="er entityLabel">MedicalGuideline</text></g><g transform="translate(1512,312 )" id="entity-MedicineSystem-74197b84-67e0-5471-ab59-f3fd7c3c0e72"><rect height="75" width="128.359375" y="0" x="0" class="er entityBox"/><text style="dominant-baseline: middle; text-anchor: middle; font-size: 12px;" transform="translate(64.1796875,37.5)" y="0" x="0" id="text-entity-MedicineSystem-74197b84-67e0-5471-ab59-f3fd7c3c0e72" class="er entityLabel">MedicineSystem</text></g><g transform="translate(1740.359375,312 )" id="entity-Organization-ef1721ab-1f62-5ef5-a525-a6c60c2f6032"><rect height="75" width="106.71875" y="0" x="0" class="er entityBox"/><text style="dominant-baseline: middle; text-anchor: middle; font-size: 12px;" transform="translate(53.359375,37.5)" y="0" x="0" id="text-entity-Organization-ef1721ab-1f62-5ef5-a525-a6c60c2f6032" class="er entityLabel">Organization</text></g><g transform="translate(1947.078125,312 )" id="entity-MedicalSpecialty-0f4a20d3-5a5d-5b81-b412-da395afebba8"><rect height="75" width="131.015625" y="0" x="0" class="er entityBox"/><text style="dominant-baseline: middle; text-anchor: middle; font-size: 12px;" transform="translate(65.5078125,37.5)" y="0" x="0" id="text-entity-MedicalSpecialty-0f4a20d3-5a5d-5b81-b412-da395afebba8" class="er entityLabel">MedicalSpecialty</text></g><g transform="translate(2178.09375,312 )" id="entity-MedicalStudy-22dea251-12b7-5654-af29-afad6ffe12b1"><rect height="75" width="110.625" y="0" x="0" class="er entityBox"/><text style="dominant-baseline: middle; text-anchor: middle; font-size: 12px;" transform="translate(55.3125,37.5)" y="0" x="0" id="text-entity-MedicalStudy-22dea251-12b7-5654-af29-afad6ffe12b1" class="er entityLabel">MedicalStudy</text></g><g transform="translate(2436.0625,312 )" id="entity-Text-426c5d39-acfc-5487-a6d9-ede67887190e"><rect height="75" width="100" y="0" x="0" class="er entityBox"/><text style="dominant-baseline: middle; text-anchor: middle; font-size: 12px;" transform="translate(50,37.5)" y="0" x="0" id="text-entity-Text-426c5d39-acfc-5487-a6d9-ede67887190e" class="er entityLabel">Text</text></g><g transform="translate(2636.0625,312 )" id="entity-URL-07f78d3e-fd74-5925-b39b-26c1cc2d6b7c"><rect height="75" width="100" y="0" x="0" class="er entityBox"/><text style="dominant-baseline: middle; text-anchor: middle; font-size: 12px;" transform="translate(50,37.5)" y="0" x="0" id="text-entity-URL-07f78d3e-fd74-5925-b39b-26c1cc2d6b7c" class="er entityLabel">URL</text></g><g transform="translate(2836.0625,312 )" id="entity-Action-6cd87d9a-a078-546e-a35b-bee54f477b31"><rect height="75" width="100" y="0" x="0" class="er entityBox"/><text style="dominant-baseline: middle; text-anchor: middle; font-size: 12px;" transform="translate(50,37.5)" y="0" x="0" id="text-entity-Action-6cd87d9a-a078-546e-a35b-bee54f477b31" class="er entityLabel">Action</text></g><rect height="14" width="64.640625" y="187.2247314453125" x="850.7369384765625" class="er relationshipLabelBox"/><text style="text-anchor: middle; dominant-baseline: middle; font-size: 12px;" y="194.2247314453125" x="883.0572509765625" id="rel1" class="er relationshipLabel">affectedBy</text><rect height="14" width="79.828125" y="187.819091796875" x="943.2763061523438" class="er relationshipLabelBox"/><text style="text-anchor: middle; dominant-baseline: middle; font-size: 12px;" y="194.819091796875" x="983.1903686523438" id="rel2" class="er relationshipLabel">signDetected</text><rect height="14" width="97.625" y="188.68121337890625" x="1042.6849365234375" class="er relationshipLabelBox"/><text style="text-anchor: middle; dominant-baseline: middle; font-size: 12px;" y="195.68121337890625" x="1091.4974365234375" id="rel3" class="er relationshipLabel">usedToDiagnose</text><rect height="14" width="68.53125" y="189.96340942382812" x="1169.0709228515625" class="er relationshipLabelBox"/><text style="text-anchor: middle; dominant-baseline: middle; font-size: 12px;" y="196.96340942382812" x="1203.3365478515625" id="rel4" class="er relationshipLabel">usesDevice</text><rect height="14" width="28.953125" y="191.81930541992188" x="1293.8756103515625" class="er relationshipLabelBox"/><text style="text-anchor: middle; dominant-baseline: middle; font-size: 12px;" y="198.81930541992188" x="1308.3521728515625" id="rel5" class="er relationshipLabel">code</text><rect height="14" width="45.609375" y="194.79144287109375" x="1386.026611328125" class="er relationshipLabelBox"/><text style="text-anchor: middle; dominant-baseline: middle; font-size: 12px;" y="201.79144287109375" x="1408.831298828125" id="rel6" class="er relationshipLabel">funding</text><rect height="14" width="55.21875" y="201.11642456054688" x="1487.6922607421875" class="er relationshipLabelBox"/><text style="text-anchor: middle; dominant-baseline: middle; font-size: 12px;" y="208.11642456054688" x="1515.3016357421875" id="rel7" class="er relationshipLabel">guideline</text><rect height="14" width="99.703125" y="221.65281677246094" x="1579.5123291015625" class="er relationshipLabelBox"/><text style="text-anchor: middle; dominant-baseline: middle; font-size: 12px;" y="228.65281677246094" x="1629.3638916015625" id="rel8" class="er relationshipLabel">medicineSystem</text><rect height="14" width="124.953125" y="255" x="1731.242431640625" class="er relationshipLabelBox"/><text style="text-anchor: middle; dominant-baseline: middle; font-size: 12px;" y="262" x="1793.718994140625" id="rel9" class="er relationshipLabel">recognizingAuthority</text><rect height="14" width="104.578125" y="221.41983032226562" x="1906.459716796875" class="er relationshipLabelBox"/><text style="text-anchor: middle; dominant-baseline: middle; font-size: 12px;" y="228.41983032226562" x="1958.748779296875" id="rel10" class="er relationshipLabel">relevantSpecialty</text><rect height="14" width="33.28125" y="201.49462890625" x="2051.338134765625" class="er relationshipLabelBox"/><text style="text-anchor: middle; dominant-baseline: middle; font-size: 12px;" y="208.49462890625" x="2067.978759765625" id="rel11" class="er relationshipLabel">study</text><rect height="14" width="89.953125" y="208.81410217285156" x="2114.26904296875" class="er relationshipLabelBox"/><text style="text-anchor: middle; dominant-baseline: middle; font-size: 12px;" y="215.81410217285156" x="2159.24560546875" id="rel12" class="er relationshipLabel">alternateName</text><rect height="14" width="161.390625" y="197.43414306640625" x="2096.711181640625" class="er relationshipLabelBox"/><text style="text-anchor: middle; dominant-baseline: middle; font-size: 12px;" y="204.43414306640625" x="2177.406494140625" id="rel13" class="er relationshipLabel">disambiguatingDescription</text><rect height="14" width="34.03125" y="192.05511474609375" x="2192.668701171875" class="er relationshipLabelBox"/><text style="text-anchor: middle; dominant-baseline: middle; font-size: 12px;" y="199.05511474609375" x="2209.684326171875" id="rel14" class="er relationshipLabel">name</text><rect height="14" width="47.140625" y="193.88963317871094" x="2253.176513671875" class="er relationshipLabelBox"/><text style="text-anchor: middle; dominant-baseline: middle; font-size: 12px;" y="200.88963317871094" x="2276.746826171875" id="rel15" class="er relationshipLabel">sameAs</text><rect height="14" width="90.96875" y="189.87730407714844" x="2344.83984375" class="er relationshipLabelBox"/><text style="text-anchor: middle; dominant-baseline: middle; font-size: 12px;" y="196.87730407714844" x="2390.32421875" id="rel16" class="er relationshipLabel">potentialAction</text><rect height="14" width="15.875" y="189.85653686523438" x="2300.048828125" class="er relationshipLabelBox"/><text style="text-anchor: middle; dominant-baseline: middle; font-size: 12px;" y="196.85653686523438" x="2307.986328125" id="rel17" class="er relationshipLabel">url</text></svg>