<svg aria-roledescription="er" role="graphics-document document" viewBox="-168.06407165527344 0 3844.57568359375 764" style="max-width: 3844.58px; background-color: white;" xmlns:xlink="http://www.w3.org/1999/xlink" xmlns="http://www.w3.org/2000/svg" width="100%" id="my-svg"><style>#my-svg{font-family:"trebuchet ms",verdana,arial,sans-serif;font-size:16px;fill:#333;}#my-svg .error-icon{fill:#552222;}#my-svg .error-text{fill:#552222;stroke:#552222;}#my-svg .edge-thickness-normal{stroke-width:1px;}#my-svg .edge-thickness-thick{stroke-width:3.5px;}#my-svg .edge-pattern-solid{stroke-dasharray:0;}#my-svg .edge-thickness-invisible{stroke-width:0;fill:none;}#my-svg .edge-pattern-dashed{stroke-dasharray:3;}#my-svg .edge-pattern-dotted{stroke-dasharray:2;}#my-svg .marker{fill:#333333;stroke:#333333;}#my-svg .marker.cross{stroke:#333333;}#my-svg svg{font-family:"trebuchet ms",verdana,arial,sans-serif;font-size:16px;}#my-svg p{margin:0;}#my-svg .entityBox{fill:#ECECFF;stroke:#9370DB;}#my-svg .attributeBoxOdd{fill:#ffffff;stroke:#9370DB;}#my-svg .attributeBoxEven{fill:#f2f2f2;stroke:#9370DB;}#my-svg .relationshipLabelBox{fill:hsl(80, 100%, 96.2745098039%);opacity:0.7;background-color:hsl(80, 100%, 96.2745098039%);}#my-svg .relationshipLabelBox rect{opacity:0.5;}#my-svg .relationshipLine{stroke:#333333;}#my-svg .entityTitleText{text-anchor:middle;font-size:18px;fill:#333;}#my-svg #MD_PARENT_START{fill:#f5f5f5!important;stroke:#333333!important;stroke-width:1;}#my-svg #MD_PARENT_END{fill:#f5f5f5!important;stroke:#333333!important;stroke-width:1;}#my-svg :root{--mermaid-font-family:"trebuchet ms",verdana,arial,sans-serif;}</style><g/><defs><marker orient="auto" markerHeight="240" markerWidth="190" refY="7" refX="0" id="MD_PARENT_START"><path d="M 18,7 L9,13 L1,7 L9,1 Z"/></marker></defs><defs><marker orient="auto" markerHeight="28" markerWidth="20" refY="7" refX="19" id="MD_PARENT_END"><path d="M 18,7 L9,13 L1,7 L9,1 Z"/></marker></defs><defs><marker orient="auto" markerHeight="18" markerWidth="18" refY="9" refX="0" id="ONLY_ONE_START"><path d="M9,0 L9,18 M15,0 L15,18" fill="none" stroke="gray"/></marker></defs><defs><marker orient="auto" markerHeight="18" markerWidth="18" refY="9" refX="18" id="ONLY_ONE_END"><path d="M3,0 L3,18 M9,0 L9,18" fill="none" stroke="gray"/></marker></defs><defs><marker orient="auto" markerHeight="18" markerWidth="30" refY="9" refX="0" id="ZERO_OR_ONE_START"><circle r="6" cy="9" cx="21" fill="white" stroke="gray"/><path d="M9,0 L9,18" fill="none" stroke="gray"/></marker></defs><defs><marker orient="auto" markerHeight="18" markerWidth="30" refY="9" refX="30" id="ZERO_OR_ONE_END"><circle r="6" cy="9" cx="9" fill="white" stroke="gray"/><path d="M21,0 L21,18" fill="none" stroke="gray"/></marker></defs><defs><marker orient="auto" markerHeight="36" markerWidth="45" refY="18" refX="18" id="ONE_OR_MORE_START"><path d="M0,18 Q 18,0 36,18 Q 18,36 0,18 M42,9 L42,27" fill="none" stroke="gray"/></marker></defs><defs><marker orient="auto" markerHeight="36" markerWidth="45" refY="18" refX="27" id="ONE_OR_MORE_END"><path d="M3,9 L3,27 M9,18 Q27,0 45,18 Q27,36 9,18" fill="none" stroke="gray"/></marker></defs><defs><marker orient="auto" markerHeight="36" markerWidth="57" refY="18" refX="18" id="ZERO_OR_MORE_START"><circle r="6" cy="18" cx="48" fill="white" stroke="gray"/><path d="M0,18 Q18,0 36,18 Q18,36 0,18" fill="none" stroke="gray"/></marker></defs><defs><marker orient="auto" markerHeight="36" markerWidth="57" refY="18" refX="39" id="ZERO_OR_MORE_END"><circle r="6" cy="18" cx="9" fill="white" stroke="gray"/><path d="M21,18 Q39,0 57,18 Q39,36 21,18" fill="none" stroke="gray"/></marker></defs><path style="stroke: gray; fill: none;" marker-start="url(#ONLY_ONE_START)" marker-end="url(#ZERO_OR_MORE_END)" d="M1339.016,308.803L1052.513,360.503C766.01,412.202,193.005,515.601,-26.831,580.264C-246.667,644.926,-113.333,670.852,-46.667,683.815L20,696.778" class="er relationshipLine"/><path style="stroke: gray; fill: none;" marker-start="url(#ONLY_ONE_START)" marker-end="url(#ZERO_OR_MORE_END)" d="M1339.016,309.646L1069.18,361.205C799.344,412.764,259.672,515.882,39.836,579.941C-180,644,-80,669,-30,681.5L20,694" class="er relationshipLine"/><path style="stroke: gray; fill: none;" marker-start="url(#ONLY_ONE_START)" marker-end="url(#ZERO_OR_MORE_END)" d="M1339.016,326.721L1219.18,375.434C1099.344,424.148,859.672,521.574,773.169,581.954C686.667,642.333,753.333,665.667,786.667,677.333L820,689" class="er relationshipLine"/><path style="stroke: gray; fill: none;" marker-start="url(#ONLY_ONE_START)" marker-end="url(#ZERO_OR_MORE_END)" d="M1339.016,424.223L1319.18,456.686C1299.344,489.149,1259.672,554.074,1239.836,594.871C1220,635.667,1220,652.333,1220,660.667L1220,669" class="er relationshipLine"/><path style="stroke: gray; fill: none;" marker-start="url(#ONLY_ONE_START)" marker-end="url(#ZERO_OR_MORE_END)" d="M1438.762,569L1439.383,577.333C1440.005,585.667,1441.249,602.333,1441.87,619C1442.492,635.667,1442.492,652.333,1442.492,660.667L1442.492,669" class="er relationshipLine"/><path style="stroke: gray; fill: none;" marker-start="url(#ONLY_ONE_START)" marker-end="url(#ZERO_OR_MORE_END)" d="M1497.547,382.765L1532.905,422.138C1568.263,461.51,1638.979,540.255,1674.337,587.961C1709.695,635.667,1709.695,652.333,1709.695,660.667L1709.695,669" class="er relationshipLine"/><path style="stroke: gray; fill: none;" marker-start="url(#ONLY_ONE_START)" marker-end="url(#ZERO_OR_MORE_END)" d="M1339.016,310.593L1085.846,361.994C832.677,413.396,326.339,516.198,106.503,579.266C-113.333,642.333,-46.667,665.667,-13.333,677.333L20,689" class="er relationshipLine"/><path style="stroke: gray; fill: none;" marker-start="url(#ONLY_ONE_START)" marker-end="url(#ZERO_OR_MORE_END)" d="M1497.547,356.153L1553.87,399.961C1610.193,443.768,1722.839,531.384,1791.793,583.979C1860.747,636.573,1886.01,654.146,1898.642,662.933L1911.273,671.72" class="er relationshipLine"/><path style="stroke: gray; fill: none;" marker-start="url(#ONLY_ONE_START)" marker-end="url(#ZERO_OR_MORE_END)" d="M1497.547,341.87L1574.835,388.059C1652.122,434.247,1806.698,526.623,1883.986,581.145C1961.273,635.667,1961.273,652.333,1961.273,660.667L1961.273,669" class="er relationshipLine"/><path style="stroke: gray; fill: none;" marker-start="url(#ONLY_ONE_START)" marker-end="url(#ZERO_OR_MORE_END)" d="M1497.547,334.503L1591.501,381.919C1685.456,429.335,1873.365,524.168,1957.795,579.917C2042.226,635.667,2023.178,652.333,2013.654,660.667L2004.131,669" class="er relationshipLine"/><path style="stroke: gray; fill: none;" marker-start="url(#ONLY_ONE_START)" marker-end="url(#ZERO_OR_MORE_END)" d="M1497.547,329.119L1608.168,377.433C1718.789,425.746,1940.031,522.373,2055.414,579.02C2170.797,635.667,2180.321,652.333,2185.083,660.667L2189.845,669" class="er relationshipLine"/><path style="stroke: gray; fill: none;" marker-start="url(#ONLY_ONE_START)" marker-end="url(#ZERO_OR_MORE_END)" d="M1497.547,324.983L1624.969,373.986C1752.392,422.989,2007.237,520.994,2129.821,578.331C2252.404,635.667,2242.726,652.333,2237.887,660.667L2233.049,669" class="er relationshipLine"/><path style="stroke: gray; fill: none;" marker-start="url(#ONLY_ONE_START)" marker-end="url(#ZERO_OR_MORE_END)" d="M1339.016,311.667L1102.513,362.89C866.01,414.112,393.005,516.556,173.169,577.5C-46.667,638.444,-13.333,657.889,3.333,667.611L20,677.333" class="er relationshipLine"/><path style="stroke: gray; fill: none;" marker-start="url(#ONLY_ONE_START)" marker-end="url(#ZERO_OR_MORE_END)" d="M1497.547,320.361L1650.104,370.134C1802.661,419.907,2107.776,519.454,2260.333,577.56C2412.891,635.667,2412.891,652.333,2412.891,660.667L2412.891,669" class="er relationshipLine"/><path style="stroke: gray; fill: none;" marker-start="url(#ONLY_ONE_START)" marker-end="url(#ZERO_OR_MORE_END)" d="M1497.547,317.981L1666.906,368.151C1836.264,418.321,2174.982,518.66,2369.34,579.768C2563.699,640.875,2613.699,662.75,2638.699,673.688L2663.699,684.625" class="er relationshipLine"/><path style="stroke: gray; fill: none;" marker-start="url(#ONLY_ONE_START)" marker-end="url(#ZERO_OR_MORE_END)" d="M1497.547,316.017L1683.572,366.514C1869.598,417.011,2241.648,518.006,2437.198,576.836C2632.747,635.667,2651.794,652.333,2661.318,660.667L2670.842,669" class="er relationshipLine"/><path style="stroke: gray; fill: none;" marker-start="url(#ONLY_ONE_START)" marker-end="url(#ZERO_OR_MORE_END)" d="M1339.016,312.895L1119.18,363.913C899.344,414.93,459.672,516.965,244.598,576.316C29.524,635.667,39.048,652.333,43.81,660.667L48.571,669" class="er relationshipLine"/><path style="stroke: gray; fill: none;" marker-start="url(#ONLY_ONE_START)" marker-end="url(#ZERO_OR_MORE_END)" d="M1339.016,331.336L1235.846,379.28C1132.677,427.224,926.339,523.112,839.836,580.778C753.333,638.444,786.667,657.889,803.333,667.611L820,677.333" class="er relationshipLine"/><path style="stroke: gray; fill: none;" marker-start="url(#ONLY_ONE_START)" marker-end="url(#ZERO_OR_MORE_END)" d="M1339.016,337.493L1252.513,384.411C1166.01,431.328,993.005,525.164,911.265,580.415C829.524,635.667,839.048,652.333,843.81,660.667L848.571,669" class="er relationshipLine"/><path style="stroke: gray; fill: none;" marker-start="url(#ONLY_ONE_START)" marker-end="url(#ZERO_OR_MORE_END)" d="M1497.547,311.7L1733.572,362.917C1969.598,414.134,2441.648,516.567,2677.674,576.117C2913.699,635.667,2913.699,652.333,2913.699,660.667L2913.699,669" class="er relationshipLine"/><path style="stroke: gray; fill: none;" marker-start="url(#ONLY_ONE_START)" marker-end="url(#ZERO_OR_MORE_END)" d="M1497.547,309.915L1762.439,361.429C2027.332,412.943,2557.117,515.972,2828.981,575.819C3100.846,635.667,3114.789,652.333,3121.761,660.667L3128.733,669" class="er relationshipLine"/><path style="stroke: gray; fill: none;" marker-start="url(#ONLY_ONE_START)" marker-end="url(#ZERO_OR_MORE_END)" d="M1497.547,314.356L1700.239,365.13C1902.931,415.904,2308.315,517.452,2511.007,576.559C2713.699,635.667,2713.699,652.333,2713.699,660.667L2713.699,669" class="er relationshipLine"/><path style="stroke: gray; fill: none;" marker-start="url(#ONLY_ONE_START)" marker-end="url(#ZERO_OR_MORE_END)" d="M1497.547,307.932L1803.507,359.776C2109.467,411.621,2721.388,515.311,3034.32,575.489C3347.252,635.667,3361.195,652.333,3368.167,660.667L3375.139,669" class="er relationshipLine"/><path style="stroke: gray; fill: none;" marker-start="url(#ONLY_ONE_START)" marker-end="url(#ZERO_OR_MORE_END)" d="M1497.547,307.12L1824.041,359.1C2150.535,411.08,2803.523,515.04,3125.256,575.353C3446.988,635.667,3437.464,652.333,3432.702,660.667L3427.94,669" class="er relationshipLine"/><path style="stroke: gray; fill: none;" marker-start="url(#ONLY_ONE_START)" marker-end="url(#ZERO_OR_MORE_END)" d="M1339.016,314.312L1135.846,365.093C932.677,415.875,526.339,517.437,318.407,576.552C110.476,635.667,100.952,652.333,96.19,660.667L91.429,669" class="er relationshipLine"/><path style="stroke: gray; fill: none;" marker-start="url(#ONLY_ONE_START)" marker-end="url(#ZERO_OR_MORE_END)" d="M1497.547,312.933L1716.906,363.944C1936.264,414.955,2374.982,516.978,2584.817,576.322C2794.652,635.667,2775.604,652.333,2766.08,660.667L2756.556,669" class="er relationshipLine"/><path style="stroke: gray; fill: none;" marker-start="url(#ONLY_ONE_START)" marker-end="url(#ZERO_OR_MORE_END)" d="M1497.547,308.672L1786.84,360.393C2076.134,412.114,2654.721,515.557,2937.043,575.612C3219.365,635.667,3205.422,652.333,3198.45,660.667L3191.478,669" class="er relationshipLine"/><path style="stroke: gray; fill: none;" marker-start="url(#ONLY_ONE_START)" marker-end="url(#ZERO_OR_MORE_END)" d="M1339.016,315.965L1152.513,366.471C966.01,416.977,593.005,517.988,389.836,578.216C186.667,638.444,153.333,657.889,136.667,667.611L120,677.333" class="er relationshipLine"/><path style="stroke: gray; fill: none;" marker-start="url(#ONLY_ONE_START)" marker-end="url(#ZERO_OR_MORE_END)" d="M1339.016,346.121L1269.18,391.601C1199.344,437.081,1059.672,528.04,985.074,581.853C910.476,635.667,900.952,652.333,896.19,660.667L891.429,669" class="er relationshipLine"/><path style="stroke: gray; fill: none;" marker-start="url(#ONLY_ONE_START)" marker-end="url(#ZERO_OR_MORE_END)" d="M1339.016,317.92L1169.18,368.1C999.344,418.28,659.672,518.64,456.503,580.487C253.333,642.333,186.667,665.667,153.333,677.333L120,689" class="er relationshipLine"/><path style="stroke: gray; fill: none;" marker-start="url(#ONLY_ONE_START)" marker-end="url(#ZERO_OR_MORE_END)" d="M1339.016,320.266L1185.846,370.055C1032.677,419.844,726.339,519.422,523.169,581.711C320,644,220,669,170,681.5L120,694" class="er relationshipLine"/><path style="stroke: gray; fill: none;" marker-start="url(#ONLY_ONE_START)" marker-end="url(#ZERO_OR_MORE_END)" d="M1339.016,323.134L1202.513,372.445C1066.01,421.756,793.005,520.378,589.836,582.652C386.667,644.926,253.333,670.852,186.667,683.815L120,696.778" class="er relationshipLine"/><path style="stroke: gray; fill: none;" marker-start="url(#ONLY_ONE_START)" marker-end="url(#ZERO_OR_MORE_END)" d="M1339.016,359.082L1285.846,402.401C1232.677,445.721,1126.339,532.361,1056.503,585.403C986.667,638.444,953.333,657.889,936.667,667.611L920,677.333" class="er relationshipLine"/><path style="stroke: gray; fill: none;" marker-start="url(#ONLY_ONE_START)" marker-end="url(#ZERO_OR_MORE_END)" d="M1497.547,306.255L1849.041,358.379C2200.535,410.503,2903.523,514.752,3255.018,575.209C3606.512,635.667,3606.512,652.333,3606.512,660.667L3606.512,669" class="er relationshipLine"/><path style="stroke: gray; fill: none;" marker-start="url(#ONLY_ONE_START)" marker-end="url(#ZERO_OR_MORE_END)" d="M1339.016,380.733L1302.513,420.444C1266.01,460.155,1193.005,539.578,1123.169,590.956C1053.333,642.333,986.667,665.667,953.333,677.333L920,689" class="er relationshipLine"/><g transform="translate(1339.015625,20 )" id="entity-BoatTerminal-e150957e-b733-54f6-87bb-59467d284a73"><rect height="549" width="158.53125" y="0" x="0" class="er entityBox"/><text style="dominant-baseline: middle; text-anchor: middle; font-size: 12px;" transform="translate(79.265625,12)" y="0" x="0" id="text-entity-BoatTerminal-e150957e-b733-54f6-87bb-59467d284a73" class="er entityLabel">BoatTerminal</text><rect height="21" width="57.0625" y="24" x="0" class="er attributeBoxOdd"/><text style="dominant-baseline: middle; font-size: 10.2px;" transform="translate(5,34.5)" y="0" x="0" id="text-entity-BoatTerminal-e150957e-b733-54f6-87bb-59467d284a73-attr-1-type" class="er entityLabel">stringList</text><rect height="21" width="101.46875" y="24" x="57.0625" class="er attributeBoxOdd"/><text style="dominant-baseline: middle; font-size: 10.2px;" transform="translate(62.0625,34.5)" y="0" x="0" id="text-entity-BoatTerminal-e150957e-b733-54f6-87bb-59467d284a73-attr-1-name" class="er entityLabel">logo</text><rect height="21" width="57.0625" y="45" x="0" class="er attributeBoxEven"/><text style="dominant-baseline: middle; font-size: 10.2px;" transform="translate(5,55.5)" y="0" x="0" id="text-entity-BoatTerminal-e150957e-b733-54f6-87bb-59467d284a73-attr-2-type" class="er entityLabel">stringList</text><rect height="21" width="101.46875" y="45" x="57.0625" class="er attributeBoxEven"/><text style="dominant-baseline: middle; font-size: 10.2px;" transform="translate(62.0625,55.5)" y="0" x="0" id="text-entity-BoatTerminal-e150957e-b733-54f6-87bb-59467d284a73-attr-2-name" class="er entityLabel">photo</text><rect height="21" width="57.0625" y="66" x="0" class="er attributeBoxOdd"/><text style="dominant-baseline: middle; font-size: 10.2px;" transform="translate(5,76.5)" y="0" x="0" id="text-entity-BoatTerminal-e150957e-b733-54f6-87bb-59467d284a73-attr-3-type" class="er entityLabel">stringList</text><rect height="21" width="101.46875" y="66" x="57.0625" class="er attributeBoxOdd"/><text style="dominant-baseline: middle; font-size: 10.2px;" transform="translate(62.0625,76.5)" y="0" x="0" id="text-entity-BoatTerminal-e150957e-b733-54f6-87bb-59467d284a73-attr-3-name" class="er entityLabel">address</text><rect height="21" width="57.0625" y="87" x="0" class="er attributeBoxEven"/><text style="dominant-baseline: middle; font-size: 10.2px;" transform="translate(5,97.5)" y="0" x="0" id="text-entity-BoatTerminal-e150957e-b733-54f6-87bb-59467d284a73-attr-4-type" class="er entityLabel">stringList</text><rect height="21" width="101.46875" y="87" x="57.0625" class="er attributeBoxEven"/><text style="dominant-baseline: middle; font-size: 10.2px;" transform="translate(62.0625,97.5)" y="0" x="0" id="text-entity-BoatTerminal-e150957e-b733-54f6-87bb-59467d284a73-attr-4-name" class="er entityLabel">geo</text><rect height="21" width="57.0625" y="108" x="0" class="er attributeBoxOdd"/><text style="dominant-baseline: middle; font-size: 10.2px;" transform="translate(5,118.5)" y="0" x="0" id="text-entity-BoatTerminal-e150957e-b733-54f6-87bb-59467d284a73-attr-5-type" class="er entityLabel">stringList</text><rect height="21" width="101.46875" y="108" x="57.0625" class="er attributeBoxOdd"/><text style="dominant-baseline: middle; font-size: 10.2px;" transform="translate(62.0625,118.5)" y="0" x="0" id="text-entity-BoatTerminal-e150957e-b733-54f6-87bb-59467d284a73-attr-5-name" class="er entityLabel">geoContains</text><rect height="21" width="57.0625" y="129" x="0" class="er attributeBoxEven"/><text style="dominant-baseline: middle; font-size: 10.2px;" transform="translate(5,139.5)" y="0" x="0" id="text-entity-BoatTerminal-e150957e-b733-54f6-87bb-59467d284a73-attr-6-type" class="er entityLabel">stringList</text><rect height="21" width="101.46875" y="129" x="57.0625" class="er attributeBoxEven"/><text style="dominant-baseline: middle; font-size: 10.2px;" transform="translate(62.0625,139.5)" y="0" x="0" id="text-entity-BoatTerminal-e150957e-b733-54f6-87bb-59467d284a73-attr-6-name" class="er entityLabel">geoCoveredBy</text><rect height="21" width="57.0625" y="150" x="0" class="er attributeBoxOdd"/><text style="dominant-baseline: middle; font-size: 10.2px;" transform="translate(5,160.5)" y="0" x="0" id="text-entity-BoatTerminal-e150957e-b733-54f6-87bb-59467d284a73-attr-7-type" class="er entityLabel">stringList</text><rect height="21" width="101.46875" y="150" x="57.0625" class="er attributeBoxOdd"/><text style="dominant-baseline: middle; font-size: 10.2px;" transform="translate(62.0625,160.5)" y="0" x="0" id="text-entity-BoatTerminal-e150957e-b733-54f6-87bb-59467d284a73-attr-7-name" class="er entityLabel">geoCovers</text><rect height="21" width="57.0625" y="171" x="0" class="er attributeBoxEven"/><text style="dominant-baseline: middle; font-size: 10.2px;" transform="translate(5,181.5)" y="0" x="0" id="text-entity-BoatTerminal-e150957e-b733-54f6-87bb-59467d284a73-attr-8-type" class="er entityLabel">stringList</text><rect height="21" width="101.46875" y="171" x="57.0625" class="er attributeBoxEven"/><text style="dominant-baseline: middle; font-size: 10.2px;" transform="translate(62.0625,181.5)" y="0" x="0" id="text-entity-BoatTerminal-e150957e-b733-54f6-87bb-59467d284a73-attr-8-name" class="er entityLabel">geoCrosses</text><rect height="21" width="57.0625" y="192" x="0" class="er attributeBoxOdd"/><text style="dominant-baseline: middle; font-size: 10.2px;" transform="translate(5,202.5)" y="0" x="0" id="text-entity-BoatTerminal-e150957e-b733-54f6-87bb-59467d284a73-attr-9-type" class="er entityLabel">stringList</text><rect height="21" width="101.46875" y="192" x="57.0625" class="er attributeBoxOdd"/><text style="dominant-baseline: middle; font-size: 10.2px;" transform="translate(62.0625,202.5)" y="0" x="0" id="text-entity-BoatTerminal-e150957e-b733-54f6-87bb-59467d284a73-attr-9-name" class="er entityLabel">geoDisjoint</text><rect height="21" width="57.0625" y="213" x="0" class="er attributeBoxEven"/><text style="dominant-baseline: middle; font-size: 10.2px;" transform="translate(5,223.5)" y="0" x="0" id="text-entity-BoatTerminal-e150957e-b733-54f6-87bb-59467d284a73-attr-10-type" class="er entityLabel">stringList</text><rect height="21" width="101.46875" y="213" x="57.0625" class="er attributeBoxEven"/><text style="dominant-baseline: middle; font-size: 10.2px;" transform="translate(62.0625,223.5)" y="0" x="0" id="text-entity-BoatTerminal-e150957e-b733-54f6-87bb-59467d284a73-attr-10-name" class="er entityLabel">geoEquals</text><rect height="21" width="57.0625" y="234" x="0" class="er attributeBoxOdd"/><text style="dominant-baseline: middle; font-size: 10.2px;" transform="translate(5,244.5)" y="0" x="0" id="text-entity-BoatTerminal-e150957e-b733-54f6-87bb-59467d284a73-attr-11-type" class="er entityLabel">stringList</text><rect height="21" width="101.46875" y="234" x="57.0625" class="er attributeBoxOdd"/><text style="dominant-baseline: middle; font-size: 10.2px;" transform="translate(62.0625,244.5)" y="0" x="0" id="text-entity-BoatTerminal-e150957e-b733-54f6-87bb-59467d284a73-attr-11-name" class="er entityLabel">geoIntersects</text><rect height="21" width="57.0625" y="255" x="0" class="er attributeBoxEven"/><text style="dominant-baseline: middle; font-size: 10.2px;" transform="translate(5,265.5)" y="0" x="0" id="text-entity-BoatTerminal-e150957e-b733-54f6-87bb-59467d284a73-attr-12-type" class="er entityLabel">stringList</text><rect height="21" width="101.46875" y="255" x="57.0625" class="er attributeBoxEven"/><text style="dominant-baseline: middle; font-size: 10.2px;" transform="translate(62.0625,265.5)" y="0" x="0" id="text-entity-BoatTerminal-e150957e-b733-54f6-87bb-59467d284a73-attr-12-name" class="er entityLabel">geoOverlaps</text><rect height="21" width="57.0625" y="276" x="0" class="er attributeBoxOdd"/><text style="dominant-baseline: middle; font-size: 10.2px;" transform="translate(5,286.5)" y="0" x="0" id="text-entity-BoatTerminal-e150957e-b733-54f6-87bb-59467d284a73-attr-13-type" class="er entityLabel">stringList</text><rect height="21" width="101.46875" y="276" x="57.0625" class="er attributeBoxOdd"/><text style="dominant-baseline: middle; font-size: 10.2px;" transform="translate(62.0625,286.5)" y="0" x="0" id="text-entity-BoatTerminal-e150957e-b733-54f6-87bb-59467d284a73-attr-13-name" class="er entityLabel">geoTouches</text><rect height="21" width="57.0625" y="297" x="0" class="er attributeBoxEven"/><text style="dominant-baseline: middle; font-size: 10.2px;" transform="translate(5,307.5)" y="0" x="0" id="text-entity-BoatTerminal-e150957e-b733-54f6-87bb-59467d284a73-attr-14-type" class="er entityLabel">stringList</text><rect height="21" width="101.46875" y="297" x="57.0625" class="er attributeBoxEven"/><text style="dominant-baseline: middle; font-size: 10.2px;" transform="translate(62.0625,307.5)" y="0" x="0" id="text-entity-BoatTerminal-e150957e-b733-54f6-87bb-59467d284a73-attr-14-name" class="er entityLabel">geoWithin</text><rect height="21" width="57.0625" y="318" x="0" class="er attributeBoxOdd"/><text style="dominant-baseline: middle; font-size: 10.2px;" transform="translate(5,328.5)" y="0" x="0" id="text-entity-BoatTerminal-e150957e-b733-54f6-87bb-59467d284a73-attr-15-type" class="er entityLabel">stringList</text><rect height="21" width="101.46875" y="318" x="57.0625" class="er attributeBoxOdd"/><text style="dominant-baseline: middle; font-size: 10.2px;" transform="translate(62.0625,328.5)" y="0" x="0" id="text-entity-BoatTerminal-e150957e-b733-54f6-87bb-59467d284a73-attr-15-name" class="er entityLabel">hasMap</text><rect height="21" width="57.0625" y="339" x="0" class="er attributeBoxEven"/><text style="dominant-baseline: middle; font-size: 10.2px;" transform="translate(5,349.5)" y="0" x="0" id="text-entity-BoatTerminal-e150957e-b733-54f6-87bb-59467d284a73-attr-16-type" class="er entityLabel">stringList</text><rect height="21" width="101.46875" y="339" x="57.0625" class="er attributeBoxEven"/><text style="dominant-baseline: middle; font-size: 10.2px;" transform="translate(62.0625,349.5)" y="0" x="0" id="text-entity-BoatTerminal-e150957e-b733-54f6-87bb-59467d284a73-attr-16-name" class="er entityLabel">keywords</text><rect height="21" width="57.0625" y="360" x="0" class="er attributeBoxOdd"/><text style="dominant-baseline: middle; font-size: 10.2px;" transform="translate(5,370.5)" y="0" x="0" id="text-entity-BoatTerminal-e150957e-b733-54f6-87bb-59467d284a73-attr-17-type" class="er entityLabel">stringList</text><rect height="21" width="101.46875" y="360" x="57.0625" class="er attributeBoxOdd"/><text style="dominant-baseline: middle; font-size: 10.2px;" transform="translate(62.0625,370.5)" y="0" x="0" id="text-entity-BoatTerminal-e150957e-b733-54f6-87bb-59467d284a73-attr-17-name" class="er entityLabel">latitude</text><rect height="21" width="57.0625" y="381" x="0" class="er attributeBoxEven"/><text style="dominant-baseline: middle; font-size: 10.2px;" transform="translate(5,391.5)" y="0" x="0" id="text-entity-BoatTerminal-e150957e-b733-54f6-87bb-59467d284a73-attr-18-type" class="er entityLabel">stringList</text><rect height="21" width="101.46875" y="381" x="57.0625" class="er attributeBoxEven"/><text style="dominant-baseline: middle; font-size: 10.2px;" transform="translate(62.0625,391.5)" y="0" x="0" id="text-entity-BoatTerminal-e150957e-b733-54f6-87bb-59467d284a73-attr-18-name" class="er entityLabel">longitude</text><rect height="21" width="57.0625" y="402" x="0" class="er attributeBoxOdd"/><text style="dominant-baseline: middle; font-size: 10.2px;" transform="translate(5,412.5)" y="0" x="0" id="text-entity-BoatTerminal-e150957e-b733-54f6-87bb-59467d284a73-attr-19-type" class="er entityLabel">stringList</text><rect height="21" width="101.46875" y="402" x="57.0625" class="er attributeBoxOdd"/><text style="dominant-baseline: middle; font-size: 10.2px;" transform="translate(62.0625,412.5)" y="0" x="0" id="text-entity-BoatTerminal-e150957e-b733-54f6-87bb-59467d284a73-attr-19-name" class="er entityLabel">photos</text><rect height="21" width="57.0625" y="423" x="0" class="er attributeBoxEven"/><text style="dominant-baseline: middle; font-size: 10.2px;" transform="translate(5,433.5)" y="0" x="0" id="text-entity-BoatTerminal-e150957e-b733-54f6-87bb-59467d284a73-attr-20-type" class="er entityLabel">stringList</text><rect height="21" width="101.46875" y="423" x="57.0625" class="er attributeBoxEven"/><text style="dominant-baseline: middle; font-size: 10.2px;" transform="translate(62.0625,433.5)" y="0" x="0" id="text-entity-BoatTerminal-e150957e-b733-54f6-87bb-59467d284a73-attr-20-name" class="er entityLabel">additionalType</text><rect height="21" width="57.0625" y="444" x="0" class="er attributeBoxOdd"/><text style="dominant-baseline: middle; font-size: 10.2px;" transform="translate(5,454.5)" y="0" x="0" id="text-entity-BoatTerminal-e150957e-b733-54f6-87bb-59467d284a73-attr-21-type" class="er entityLabel">stringList</text><rect height="21" width="101.46875" y="444" x="57.0625" class="er attributeBoxOdd"/><text style="dominant-baseline: middle; font-size: 10.2px;" transform="translate(62.0625,454.5)" y="0" x="0" id="text-entity-BoatTerminal-e150957e-b733-54f6-87bb-59467d284a73-attr-21-name" class="er entityLabel">description</text><rect height="21" width="57.0625" y="465" x="0" class="er attributeBoxEven"/><text style="dominant-baseline: middle; font-size: 10.2px;" transform="translate(5,475.5)" y="0" x="0" id="text-entity-BoatTerminal-e150957e-b733-54f6-87bb-59467d284a73-attr-22-type" class="er entityLabel">stringList</text><rect height="21" width="101.46875" y="465" x="57.0625" class="er attributeBoxEven"/><text style="dominant-baseline: middle; font-size: 10.2px;" transform="translate(62.0625,475.5)" y="0" x="0" id="text-entity-BoatTerminal-e150957e-b733-54f6-87bb-59467d284a73-attr-22-name" class="er entityLabel">identifier</text><rect height="21" width="57.0625" y="486" x="0" class="er attributeBoxOdd"/><text style="dominant-baseline: middle; font-size: 10.2px;" transform="translate(5,496.5)" y="0" x="0" id="text-entity-BoatTerminal-e150957e-b733-54f6-87bb-59467d284a73-attr-23-type" class="er entityLabel">stringList</text><rect height="21" width="101.46875" y="486" x="57.0625" class="er attributeBoxOdd"/><text style="dominant-baseline: middle; font-size: 10.2px;" transform="translate(62.0625,496.5)" y="0" x="0" id="text-entity-BoatTerminal-e150957e-b733-54f6-87bb-59467d284a73-attr-23-name" class="er entityLabel">image</text><rect height="21" width="57.0625" y="507" x="0" class="er attributeBoxEven"/><text style="dominant-baseline: middle; font-size: 10.2px;" transform="translate(5,517.5)" y="0" x="0" id="text-entity-BoatTerminal-e150957e-b733-54f6-87bb-59467d284a73-attr-24-type" class="er entityLabel">stringList</text><rect height="21" width="101.46875" y="507" x="57.0625" class="er attributeBoxEven"/><text style="dominant-baseline: middle; font-size: 10.2px;" transform="translate(62.0625,517.5)" y="0" x="0" id="text-entity-BoatTerminal-e150957e-b733-54f6-87bb-59467d284a73-attr-24-name" class="er entityLabel">mainEntityOfPage</text><rect height="21" width="57.0625" y="528" x="0" class="er attributeBoxOdd"/><text style="dominant-baseline: middle; font-size: 10.2px;" transform="translate(5,538.5)" y="0" x="0" id="text-entity-BoatTerminal-e150957e-b733-54f6-87bb-59467d284a73-attr-25-type" class="er entityLabel">stringList</text><rect height="21" width="101.46875" y="528" x="57.0625" class="er attributeBoxOdd"/><text style="dominant-baseline: middle; font-size: 10.2px;" transform="translate(62.0625,538.5)" y="0" x="0" id="text-entity-BoatTerminal-e150957e-b733-54f6-87bb-59467d284a73-attr-25-name" class="er entityLabel">subjectOf</text></g><g transform="translate(20,669 )" id="entity-Text-426c5d39-acfc-5487-a6d9-ede67887190e"><rect height="75" width="100" y="0" x="0" class="er entityBox"/><text style="dominant-baseline: middle; text-anchor: middle; font-size: 12px;" transform="translate(50,37.5)" y="0" x="0" id="text-entity-Text-426c5d39-acfc-5487-a6d9-ede67887190e" class="er entityLabel">Text</text></g><g transform="translate(820,669 )" id="entity-URL-07f78d3e-fd74-5925-b39b-26c1cc2d6b7c"><rect height="75" width="100" y="0" x="0" class="er entityBox"/><text style="dominant-baseline: middle; text-anchor: middle; font-size: 12px;" transform="translate(50,37.5)" y="0" x="0" id="text-entity-URL-07f78d3e-fd74-5925-b39b-26c1cc2d6b7c" class="er entityLabel">URL</text></g><g transform="translate(1163.1328125,669 )" id="entity-PropertyValue-0e208f6c-77f8-5d2e-b4a4-9a09101a021a"><rect height="75" width="113.734375" y="0" x="0" class="er entityBox"/><text style="dominant-baseline: middle; text-anchor: middle; font-size: 12px;" transform="translate(56.8671875,37.5)" y="0" x="0" id="text-entity-PropertyValue-0e208f6c-77f8-5d2e-b4a4-9a09101a021a" class="er entityLabel">PropertyValue</text></g><g transform="translate(1376.8671875,669 )" id="entity-AggregateRating-aa0a8837-178a-57ab-baa0-94ad30d90eb5"><rect height="75" width="131.25" y="0" x="0" class="er entityBox"/><text style="dominant-baseline: middle; text-anchor: middle; font-size: 12px;" transform="translate(65.625,37.5)" y="0" x="0" id="text-entity-AggregateRating-aa0a8837-178a-57ab-baa0-94ad30d90eb5" class="er entityLabel">AggregateRating</text></g><g transform="translate(1608.1171875,669 )" id="entity-LocationFeatureSpecification-dbe29f9c-e3d0-5bc9-80cd-10146568b0ab"><rect height="75" width="203.15625" y="0" x="0" class="er entityBox"/><text style="dominant-baseline: middle; text-anchor: middle; font-size: 12px;" transform="translate(101.578125,37.5)" y="0" x="0" id="text-entity-LocationFeatureSpecification-dbe29f9c-e3d0-5bc9-80cd-10146568b0ab" class="er entityLabel">LocationFeatureSpecification</text></g><g transform="translate(1911.2734375,669 )" id="entity-Place-18cedc50-4c85-52d4-b2dd-111465382dcf"><rect height="75" width="100" y="0" x="0" class="er entityBox"/><text style="dominant-baseline: middle; text-anchor: middle; font-size: 12px;" transform="translate(50,37.5)" y="0" x="0" id="text-entity-Place-18cedc50-4c85-52d4-b2dd-111465382dcf" class="er entityLabel">Place</text></g><g transform="translate(2161.2734375,669 )" id="entity-Event-5fcfcec5-0af7-59ba-bebb-bb0a822c8afa"><rect height="75" width="100" y="0" x="0" class="er entityBox"/><text style="dominant-baseline: middle; text-anchor: middle; font-size: 12px;" transform="translate(50,37.5)" y="0" x="0" id="text-entity-Event-5fcfcec5-0af7-59ba-bebb-bb0a822c8afa" class="er entityLabel">Event</text></g><g transform="translate(2361.2734375,669 )" id="entity-Certification-8b250de0-929b-5806-8c87-f8e7c928ef36"><rect height="75" width="103.234375" y="0" x="0" class="er entityBox"/><text style="dominant-baseline: middle; text-anchor: middle; font-size: 12px;" transform="translate(51.6171875,37.5)" y="0" x="0" id="text-entity-Certification-8b250de0-929b-5806-8c87-f8e7c928ef36" class="er entityLabel">Certification</text></g><g transform="translate(2663.69921875,669 )" id="entity-Boolean-5b26178e-f873-50aa-bf9a-b8300df1b991"><rect height="75" width="100" y="0" x="0" class="er entityBox"/><text style="dominant-baseline: middle; text-anchor: middle; font-size: 12px;" transform="translate(50,37.5)" y="0" x="0" id="text-entity-Boolean-5b26178e-f873-50aa-bf9a-b8300df1b991" class="er entityLabel">Boolean</text></g><g transform="translate(2863.69921875,669 )" id="entity-Integer-fc94dbf2-2dc2-55cd-ac16-6d1e48f8bef9"><rect height="75" width="100" y="0" x="0" class="er entityBox"/><text style="dominant-baseline: middle; text-anchor: middle; font-size: 12px;" transform="translate(50,37.5)" y="0" x="0" id="text-entity-Integer-fc94dbf2-2dc2-55cd-ac16-6d1e48f8bef9" class="er entityLabel">Integer</text></g><g transform="translate(3063.69921875,669 )" id="entity-OpeningHoursSpecification-677aa64f-a506-5d18-b5d1-75a0f22f6986"><rect height="75" width="192.8125" y="0" x="0" class="er entityBox"/><text style="dominant-baseline: middle; text-anchor: middle; font-size: 12px;" transform="translate(96.40625,37.5)" y="0" x="0" id="text-entity-OpeningHoursSpecification-677aa64f-a506-5d18-b5d1-75a0f22f6986" class="er entityLabel">OpeningHoursSpecification</text></g><g transform="translate(3356.51171875,669 )" id="entity-Review-77c92a79-8cff-50c0-9604-f9135763cccd"><rect height="75" width="100" y="0" x="0" class="er entityBox"/><text style="dominant-baseline: middle; text-anchor: middle; font-size: 12px;" transform="translate(50,37.5)" y="0" x="0" id="text-entity-Review-77c92a79-8cff-50c0-9604-f9135763cccd" class="er entityLabel">Review</text></g><g transform="translate(3556.51171875,669 )" id="entity-Action-6cd87d9a-a078-546e-a35b-bee54f477b31"><rect height="75" width="100" y="0" x="0" class="er entityBox"/><text style="dominant-baseline: middle; text-anchor: middle; font-size: 12px;" transform="translate(50,37.5)" y="0" x="0" id="text-entity-Action-6cd87d9a-a078-546e-a35b-bee54f477b31" class="er entityLabel">Action</text></g><rect height="14" width="83.671875" y="457.0224914550781" x="453.6910400390625" class="er relationshipLabelBox"/><text style="text-anchor: middle; dominant-baseline: middle; font-size: 12px;" y="464.0224914550781" x="495.5269775390625" id="rel1" class="er relationshipLabel">openingHours</text><rect height="14" width="135.623046875" y="456.58758544921875" x="479.17315673828125" class="er relationshipLabelBox"/><text style="text-anchor: middle; dominant-baseline: middle; font-size: 12px;" y="463.58758544921875" x="546.9846801757812" id="rel2" class="er relationshipLabel">globalLocationNumber</text><rect height="14" width="109.3046875" y="473.8010559082031" x="914.4771728515625" class="er relationshipLabelBox"/><text style="text-anchor: middle; dominant-baseline: middle; font-size: 12px;" y="480.8010559082031" x="969.1295166015625" id="rel3" class="er relationshipLabel">hasGS1DigitalLink</text><rect height="14" width="110.375" y="535.1419067382812" x="1213.0338134765625" class="er relationshipLabelBox"/><text style="text-anchor: middle; dominant-baseline: middle; font-size: 12px;" y="542.1419067382812" x="1268.2213134765625" id="rel4" class="er relationshipLabel">additionalProperty</text><rect height="14" width="100.390625" y="611.9537353515625" x="1391.6728515625" class="er relationshipLabelBox"/><text style="text-anchor: middle; dominant-baseline: middle; font-size: 12px;" y="618.9537353515625" x="1441.8681640625" id="rel5" class="er relationshipLabel">aggregateRating</text><rect height="14" width="94.53125" y="510.9403076171875" x="1570.1575927734375" class="er relationshipLabelBox"/><text style="text-anchor: middle; dominant-baseline: middle; font-size: 12px;" y="517.9403076171875" x="1617.4232177734375" id="rel6" class="er relationshipLabel">amenityFeature</text><rect height="14" width="72.4375" y="456.870849609375" x="558.54345703125" class="er relationshipLabelBox"/><text style="text-anchor: middle; dominant-baseline: middle; font-size: 12px;" y="463.870849609375" x="594.76220703125" id="rel7" class="er relationshipLabel">branchCode</text><rect height="14" width="70.6875" y="508.734375" x="1667.7149658203125" class="er relationshipLabelBox"/><text style="text-anchor: middle; dominant-baseline: middle; font-size: 12px;" y="515.734375" x="1703.0587158203125" id="rel8" class="er relationshipLabel">containedIn</text><rect height="14" width="102.59375" y="483.7610778808594" x="1693.150634765625" class="er relationshipLabelBox"/><text style="text-anchor: middle; dominant-baseline: middle; font-size: 12px;" y="490.7610778808594" x="1744.447509765625" id="rel9" class="er relationshipLabel">containedInPlace</text><rect height="14" width="82.703125" y="474.7274475097656" x="1744.2926025390625" class="er relationshipLabelBox"/><text style="text-anchor: middle; dominant-baseline: middle; font-size: 12px;" y="481.7274475097656" x="1785.6441650390625" id="rel10" class="er relationshipLabel">containsPlace</text><rect height="14" width="34.47265625" y="478.14996337890625" x="1835.2449951171875" class="er relationshipLabelBox"/><text style="text-anchor: middle; dominant-baseline: middle; font-size: 12px;" y="485.14996337890625" x="1852.4813232421875" id="rel11" class="er relationshipLabel">event</text><rect height="14" width="40.4375" y="469.08953857421875" x="1866.6534423828125" class="er relationshipLabelBox"/><text style="text-anchor: middle; dominant-baseline: middle; font-size: 12px;" y="476.08953857421875" x="1886.8721923828125" id="rel12" class="er relationshipLabel">events</text><rect height="14" width="66.951171875" y="458.14324951171875" x="604.3502197265625" class="er relationshipLabelBox"/><text style="text-anchor: middle; dominant-baseline: middle; font-size: 12px;" y="465.14324951171875" x="637.8258056640625" id="rel13" class="er relationshipLabel">faxNumber</text><rect height="14" width="94.453125" y="468.1234436035156" x="1921.0931396484375" class="er relationshipLabelBox"/><text style="text-anchor: middle; dominant-baseline: middle; font-size: 12px;" y="475.1234436035156" x="1968.3197021484375" id="rel14" class="er relationshipLabel">hasCertification</text><rect height="14" width="147.328125" y="485.349609375" x="2009.957275390625" class="er relationshipLabelBox"/><text style="text-anchor: middle; dominant-baseline: middle; font-size: 12px;" y="492.349609375" x="2083.621337890625" id="rel15" class="er relationshipLabel">hasDriveThroughService</text><rect height="14" width="116.5625" y="470.71563720703125" x="2031.593505859375" class="er relationshipLabelBox"/><text style="text-anchor: middle; dominant-baseline: middle; font-size: 12px;" y="477.71563720703125" x="2089.874755859375" id="rel16" class="er relationshipLabel">isAccessibleForFree</text><rect height="14" width="35.375" y="460.929443359375" x="658.49365234375" class="er relationshipLabelBox"/><text style="text-anchor: middle; dominant-baseline: middle; font-size: 12px;" y="467.929443359375" x="676.18115234375" id="rel17" class="er relationshipLabel">isicV4</text><rect height="14" width="26.671875" y="473.4484558105469" x="1010.041748046875" class="er relationshipLabelBox"/><text style="text-anchor: middle; dominant-baseline: middle; font-size: 12px;" y="480.4484558105469" x="1023.377685546875" id="rel18" class="er relationshipLabel">map</text><rect height="14" width="32.921875" y="478.0851135253906" x="1053.381103515625" class="er relationshipLabelBox"/><text style="text-anchor: middle; dominant-baseline: middle; font-size: 12px;" y="485.0851135253906" x="1069.842041015625" id="rel19" class="er relationshipLabel">maps</text><rect height="14" width="167.6875" y="461.9175109863281" x="2133.070556640625" class="er relationshipLabelBox"/><text style="text-anchor: middle; dominant-baseline: middle; font-size: 12px;" y="468.9175109863281" x="2216.914306640625" id="rel20" class="er relationshipLabel">maximumAttendeeCapacity</text><rect height="14" width="160.71875" y="463.7607421875" x="2239.121337890625" class="er relationshipLabelBox"/><text style="text-anchor: middle; dominant-baseline: middle; font-size: 12px;" y="470.7607421875" x="2319.480712890625" id="rel21" class="er relationshipLabel">openingHoursSpecification</text><rect height="14" width="77.1875" y="463.7936096191406" x="2078.95361328125" class="er relationshipLabelBox"/><text style="text-anchor: middle; dominant-baseline: middle; font-size: 12px;" y="470.7936096191406" x="2117.54736328125" id="rel22" class="er relationshipLabel">publicAccess</text><rect height="14" width="39.87109375" y="462.0465393066406" x="2422.47265625" class="er relationshipLabelBox"/><text style="text-anchor: middle; dominant-baseline: middle; font-size: 12px;" y="469.0465393066406" x="2442.408203125" id="rel23" class="er relationshipLabel">review</text><rect height="14" width="45.9375" y="457.35504150390625" x="2455.0087890625" class="er relationshipLabelBox"/><text style="text-anchor: middle; dominant-baseline: middle; font-size: 12px;" y="464.35504150390625" x="2477.9775390625" id="rel24" class="er relationshipLabel">reviews</text><rect height="14" width="39.515625" y="466.25732421875" x="687.4505615234375" class="er relationshipLabelBox"/><text style="text-anchor: middle; dominant-baseline: middle; font-size: 12px;" y="473.25732421875" x="707.2083740234375" id="rel25" class="er relationshipLabel">slogan</text><rect height="14" width="97.828125" y="459.62188720703125" x="2103.91015625" class="er relationshipLabelBox"/><text style="text-anchor: middle; dominant-baseline: middle; font-size: 12px;" y="466.62188720703125" x="2152.82421875" id="rel26" class="er relationshipLabel">smokingAllowed</text><rect height="14" width="204.6875" y="457.7088928222656" x="2261.295654296875" class="er relationshipLabelBox"/><text style="text-anchor: middle; dominant-baseline: middle; font-size: 12px;" y="464.7088928222656" x="2363.639404296875" id="rel27" class="er relationshipLabel">specialOpeningHoursSpecification</text><rect height="14" width="60.359375" y="476.1954345703125" x="694.71337890625" class="er relationshipLabelBox"/><text style="text-anchor: middle; dominant-baseline: middle; font-size: 12px;" y="483.1954345703125" x="724.89306640625" id="rel28" class="er relationshipLabel">telephone</text><rect height="14" width="102.0625" y="491.0531921386719" x="1056.1641845703125" class="er relationshipLabelBox"/><text style="text-anchor: middle; dominant-baseline: middle; font-size: 12px;" y="498.0531921386719" x="1107.1954345703125" id="rel29" class="er relationshipLabel">tourBookingPage</text><rect height="14" width="89.953125" y="491.86920166015625" x="683.0999755859375" class="er relationshipLabelBox"/><text style="text-anchor: middle; dominant-baseline: middle; font-size: 12px;" y="498.86920166015625" x="728.0765380859375" id="rel30" class="er relationshipLabel">alternateName</text><rect height="14" width="161.390625" y="509.25726318359375" x="651.5376586914062" class="er relationshipLabelBox"/><text style="text-anchor: middle; dominant-baseline: middle; font-size: 12px;" y="516.2572631835938" x="732.2329711914062" id="rel31" class="er relationshipLabel">disambiguatingDescription</text><rect height="14" width="34.03125" y="528.4759521484375" x="720.0093383789062" class="er relationshipLabelBox"/><text style="text-anchor: middle; dominant-baseline: middle; font-size: 12px;" y="535.4759521484375" x="737.0249633789062" id="rel32" class="er relationshipLabel">name</text><rect height="14" width="47.140625" y="517.728515625" x="1110.7083740234375" class="er relationshipLabelBox"/><text style="text-anchor: middle; dominant-baseline: middle; font-size: 12px;" y="524.728515625" x="1134.2786865234375" id="rel33" class="er relationshipLabel">sameAs</text><rect height="14" width="90.96875" y="458.1567077636719" x="2516.29931640625" class="er relationshipLabelBox"/><text style="text-anchor: middle; dominant-baseline: middle; font-size: 12px;" y="465.1567077636719" x="2561.78369140625" id="rel34" class="er relationshipLabel">potentialAction</text><rect height="14" width="15.875" y="560.7814331054688" x="1144.8001708984375" class="er relationshipLabelBox"/><text style="text-anchor: middle; dominant-baseline: middle; font-size: 12px;" y="567.7814331054688" x="1152.7376708984375" id="rel35" class="er relationshipLabel">url</text></svg>