<svg aria-roledescription="er" role="graphics-document document" viewBox="-153.96990966796875 0 3542.180908203125 659" style="max-width: 3542.18px; background-color: white;" xmlns:xlink="http://www.w3.org/1999/xlink" xmlns="http://www.w3.org/2000/svg" width="100%" id="my-svg"><style>#my-svg{font-family:"trebuchet ms",verdana,arial,sans-serif;font-size:16px;fill:#333;}#my-svg .error-icon{fill:#552222;}#my-svg .error-text{fill:#552222;stroke:#552222;}#my-svg .edge-thickness-normal{stroke-width:1px;}#my-svg .edge-thickness-thick{stroke-width:3.5px;}#my-svg .edge-pattern-solid{stroke-dasharray:0;}#my-svg .edge-thickness-invisible{stroke-width:0;fill:none;}#my-svg .edge-pattern-dashed{stroke-dasharray:3;}#my-svg .edge-pattern-dotted{stroke-dasharray:2;}#my-svg .marker{fill:#333333;stroke:#333333;}#my-svg .marker.cross{stroke:#333333;}#my-svg svg{font-family:"trebuchet ms",verdana,arial,sans-serif;font-size:16px;}#my-svg p{margin:0;}#my-svg .entityBox{fill:#ECECFF;stroke:#9370DB;}#my-svg .attributeBoxOdd{fill:#ffffff;stroke:#9370DB;}#my-svg .attributeBoxEven{fill:#f2f2f2;stroke:#9370DB;}#my-svg .relationshipLabelBox{fill:hsl(80, 100%, 96.2745098039%);opacity:0.7;background-color:hsl(80, 100%, 96.2745098039%);}#my-svg .relationshipLabelBox rect{opacity:0.5;}#my-svg .relationshipLine{stroke:#333333;}#my-svg .entityTitleText{text-anchor:middle;font-size:18px;fill:#333;}#my-svg #MD_PARENT_START{fill:#f5f5f5!important;stroke:#333333!important;stroke-width:1;}#my-svg #MD_PARENT_END{fill:#f5f5f5!important;stroke:#333333!important;stroke-width:1;}#my-svg :root{--mermaid-font-family:"trebuchet ms",verdana,arial,sans-serif;}</style><g/><defs><marker orient="auto" markerHeight="240" markerWidth="190" refY="7" refX="0" id="MD_PARENT_START"><path d="M 18,7 L9,13 L1,7 L9,1 Z"/></marker></defs><defs><marker orient="auto" markerHeight="28" markerWidth="20" refY="7" refX="19" id="MD_PARENT_END"><path d="M 18,7 L9,13 L1,7 L9,1 Z"/></marker></defs><defs><marker orient="auto" markerHeight="18" markerWidth="18" refY="9" refX="0" id="ONLY_ONE_START"><path d="M9,0 L9,18 M15,0 L15,18" fill="none" stroke="gray"/></marker></defs><defs><marker orient="auto" markerHeight="18" markerWidth="18" refY="9" refX="18" id="ONLY_ONE_END"><path d="M3,0 L3,18 M9,0 L9,18" fill="none" stroke="gray"/></marker></defs><defs><marker orient="auto" markerHeight="18" markerWidth="30" refY="9" refX="0" id="ZERO_OR_ONE_START"><circle r="6" cy="9" cx="21" fill="white" stroke="gray"/><path d="M9,0 L9,18" fill="none" stroke="gray"/></marker></defs><defs><marker orient="auto" markerHeight="18" markerWidth="30" refY="9" refX="30" id="ZERO_OR_ONE_END"><circle r="6" cy="9" cx="9" fill="white" stroke="gray"/><path d="M21,0 L21,18" fill="none" stroke="gray"/></marker></defs><defs><marker orient="auto" markerHeight="36" markerWidth="45" refY="18" refX="18" id="ONE_OR_MORE_START"><path d="M0,18 Q 18,0 36,18 Q 18,36 0,18 M42,9 L42,27" fill="none" stroke="gray"/></marker></defs><defs><marker orient="auto" markerHeight="36" markerWidth="45" refY="18" refX="27" id="ONE_OR_MORE_END"><path d="M3,9 L3,27 M9,18 Q27,0 45,18 Q27,36 9,18" fill="none" stroke="gray"/></marker></defs><defs><marker orient="auto" markerHeight="36" markerWidth="57" refY="18" refX="18" id="ZERO_OR_MORE_START"><circle r="6" cy="18" cx="48" fill="white" stroke="gray"/><path d="M0,18 Q18,0 36,18 Q18,36 0,18" fill="none" stroke="gray"/></marker></defs><defs><marker orient="auto" markerHeight="36" markerWidth="57" refY="18" refX="39" id="ZERO_OR_MORE_END"><circle r="6" cy="18" cx="9" fill="white" stroke="gray"/><path d="M21,18 Q39,0 57,18 Q39,36 21,18" fill="none" stroke="gray"/></marker></defs><path style="stroke: gray; fill: none;" marker-start="url(#ONLY_ONE_START)" marker-end="url(#ZERO_OR_MORE_END)" d="M1056.359,257.68L824.475,300.4C592.591,343.12,128.823,428.56,-43.904,484.063C-216.63,539.565,-98.315,565.131,-39.158,577.913L20,590.696" class="er relationshipLine"/><path style="stroke: gray; fill: none;" marker-start="url(#ONLY_ONE_START)" marker-end="url(#ZERO_OR_MORE_END)" d="M1056.359,296.289L999.475,332.574C942.591,368.86,828.823,441.43,771.939,486.048C715.055,530.667,715.055,547.333,715.055,555.667L715.055,564" class="er relationshipLine"/><path style="stroke: gray; fill: none;" marker-start="url(#ONLY_ONE_START)" marker-end="url(#ZERO_OR_MORE_END)" d="M1056.359,326.262L1024.755,357.552C993.151,388.842,929.943,451.421,903.26,491.044C876.578,530.667,886.422,547.333,891.344,555.667L896.266,564" class="er relationshipLine"/><path style="stroke: gray; fill: none;" marker-start="url(#ONLY_ONE_START)" marker-end="url(#ZERO_OR_MORE_END)" d="M1056.359,258.819L841.142,301.349C625.924,343.879,195.49,428.94,22.763,483.662C-149.964,538.384,-64.982,562.769,-22.491,574.961L20,587.153" class="er relationshipLine"/><path style="stroke: gray; fill: none;" marker-start="url(#ONLY_ONE_START)" marker-end="url(#ZERO_OR_MORE_END)" d="M1056.359,260.137L857.809,302.447C659.258,344.758,262.156,429.379,89.43,482.715C-83.297,536.051,-31.648,558.102,-5.824,569.127L20,580.153" class="er relationshipLine"/><path style="stroke: gray; fill: none;" marker-start="url(#ONLY_ONE_START)" marker-end="url(#ZERO_OR_MORE_END)" d="M1056.359,385.318L1043.623,406.765C1030.887,428.212,1005.414,471.106,986.818,500.886C968.222,530.667,956.502,547.333,950.643,555.667L944.783,564" class="er relationshipLine"/><path style="stroke: gray; fill: none;" marker-start="url(#ONLY_ONE_START)" marker-end="url(#ZERO_OR_MORE_END)" d="M1141.469,464L1141.469,472.333C1141.469,480.667,1141.469,497.333,1141.469,514C1141.469,530.667,1141.469,547.333,1141.469,555.667L1141.469,564" class="er relationshipLine"/><path style="stroke: gray; fill: none;" marker-start="url(#ONLY_ONE_START)" marker-end="url(#ZERO_OR_MORE_END)" d="M1226.578,120.187L1238.245,103.489C1249.911,86.792,1273.245,53.396,1287.828,36.698C1302.411,20,1308.245,20,1314.078,57C1319.911,94,1325.745,168,1325.745,242C1325.745,316,1319.911,390,1314.078,427C1308.245,464,1302.411,464,1287.828,447.302C1273.245,430.604,1249.911,397.208,1238.245,380.511L1226.578,363.813" class="er relationshipLine"/><path style="stroke: gray; fill: none;" marker-start="url(#ONLY_ONE_START)" marker-end="url(#ZERO_OR_MORE_END)" d="M1056.359,261.678L874.475,303.732C692.591,345.785,328.823,429.893,156.934,480.28C-14.956,530.667,5.034,547.333,15.029,555.667L25.023,564" class="er relationshipLine"/><path style="stroke: gray; fill: none;" marker-start="url(#ONLY_ONE_START)" marker-end="url(#ZERO_OR_MORE_END)" d="M1226.578,340.375L1251.613,369.313C1276.648,398.25,1326.719,456.125,1351.754,493.396C1376.789,530.667,1376.789,547.333,1376.789,555.667L1376.789,564" class="er relationshipLine"/><path style="stroke: gray; fill: none;" marker-start="url(#ONLY_ONE_START)" marker-end="url(#ZERO_OR_MORE_END)" d="M1226.578,300.885L1277.915,336.404C1329.253,371.924,1431.927,442.962,1488.77,486.814C1545.613,530.667,1556.625,547.333,1562.131,555.667L1567.637,564" class="er relationshipLine"/><path style="stroke: gray; fill: none;" marker-start="url(#ONLY_ONE_START)" marker-end="url(#ZERO_OR_MORE_END)" d="M1226.578,276.929L1322.853,316.441C1419.128,355.953,1611.677,434.976,1707.952,482.822C1804.227,530.667,1804.227,547.333,1804.227,555.667L1804.227,564" class="er relationshipLine"/><path style="stroke: gray; fill: none;" marker-start="url(#ONLY_ONE_START)" marker-end="url(#ZERO_OR_MORE_END)" d="M1056.359,263.506L891.142,305.255C725.924,347.004,395.49,430.502,230.743,480.584C65.997,530.667,66.939,547.333,67.41,555.667L67.881,564" class="er relationshipLine"/><path style="stroke: gray; fill: none;" marker-start="url(#ONLY_ONE_START)" marker-end="url(#ZERO_OR_MORE_END)" d="M1226.578,268.421L1358.424,309.351C1490.271,350.281,1753.964,432.14,1885.81,481.404C2017.656,530.667,2017.656,547.333,2017.656,555.667L2017.656,564" class="er relationshipLine"/><path style="stroke: gray; fill: none;" marker-start="url(#ONLY_ONE_START)" marker-end="url(#ZERO_OR_MORE_END)" d="M1226.578,263.418L1392.538,305.181C1558.497,346.945,1890.417,430.473,2056.376,480.57C2222.336,530.667,2222.336,547.333,2222.336,555.667L2222.336,564" class="er relationshipLine"/><path style="stroke: gray; fill: none;" marker-start="url(#ONLY_ONE_START)" marker-end="url(#ZERO_OR_MORE_END)" d="M1226.578,259.401L1434.116,301.835C1641.654,344.268,2056.729,429.134,2264.267,479.9C2471.805,530.667,2471.805,547.333,2471.805,555.667L2471.805,564" class="er relationshipLine"/><path style="stroke: gray; fill: none;" marker-start="url(#ONLY_ONE_START)" marker-end="url(#ZERO_OR_MORE_END)" d="M1226.578,257.397L1462.983,300.164C1699.388,342.931,2172.198,428.466,2415.575,479.566C2658.951,530.667,2672.895,547.333,2679.866,555.667L2686.838,564" class="er relationshipLine"/><path style="stroke: gray; fill: none;" marker-start="url(#ONLY_ONE_START)" marker-end="url(#ZERO_OR_MORE_END)" d="M1056.359,265.709L907.809,307.091C759.258,348.473,462.156,431.236,304.553,480.951C146.949,530.667,128.843,547.333,119.791,555.667L110.738,564" class="er relationshipLine"/><path style="stroke: gray; fill: none;" marker-start="url(#ONLY_ONE_START)" marker-end="url(#ZERO_OR_MORE_END)" d="M1226.578,255.029L1508.517,298.191C1790.456,341.353,2354.333,427.676,2636.272,479.172C2918.211,530.667,2918.211,547.333,2918.211,555.667L2918.211,564" class="er relationshipLine"/><path style="stroke: gray; fill: none;" marker-start="url(#ONLY_ONE_START)" marker-end="url(#ZERO_OR_MORE_END)" d="M1226.578,287.674L1296.868,325.395C1367.159,363.116,1507.74,438.558,1572.706,484.612C1637.672,530.667,1627.023,547.333,1621.698,555.667L1616.374,564" class="er relationshipLine"/><path style="stroke: gray; fill: none;" marker-start="url(#ONLY_ONE_START)" marker-end="url(#ZERO_OR_MORE_END)" d="M1226.578,256.231L1483.517,299.192C1740.456,342.154,2254.333,428.077,2506.51,479.372C2758.687,530.667,2749.163,547.333,2744.401,555.667L2739.64,564" class="er relationshipLine"/><path style="stroke: gray; fill: none;" marker-start="url(#ONLY_ONE_START)" marker-end="url(#ZERO_OR_MORE_END)" d="M1056.359,268.414L924.475,309.345C792.591,350.276,528.823,432.138,372.763,483.914C216.703,535.69,168.352,557.38,144.176,568.225L120,579.07" class="er relationshipLine"/><path style="stroke: gray; fill: none;" marker-start="url(#ONLY_ONE_START)" marker-end="url(#ZERO_OR_MORE_END)" d="M1056.359,271.816L941.142,312.18C825.924,352.544,595.49,433.272,439.43,485.748C283.37,538.224,201.685,562.448,160.842,574.56L120,586.672" class="er relationshipLine"/><path style="stroke: gray; fill: none;" marker-start="url(#ONLY_ONE_START)" marker-end="url(#ZERO_OR_MORE_END)" d="M1056.359,276.224L957.809,315.854C859.258,355.483,662.156,434.741,506.096,487.108C350.036,539.475,235.018,564.95,177.509,577.688L120,590.426" class="er relationshipLine"/><path style="stroke: gray; fill: none;" marker-start="url(#ONLY_ONE_START)" marker-end="url(#ZERO_OR_MORE_END)" d="M1056.359,282.162L974.475,320.801C892.591,359.441,728.823,436.721,572.763,488.471C416.703,540.221,268.352,566.442,194.176,579.552L120,592.663" class="er relationshipLine"/><path style="stroke: gray; fill: none;" marker-start="url(#ONLY_ONE_START)" marker-end="url(#ZERO_OR_MORE_END)" d="M1226.578,254.015L1533.517,297.346C1840.456,340.677,2454.333,427.338,2766.034,479.002C3077.735,530.667,3087.259,547.333,3092.02,555.667L3096.782,564" class="er relationshipLine"/><path style="stroke: gray; fill: none;" marker-start="url(#ONLY_ONE_START)" marker-end="url(#ZERO_OR_MORE_END)" d="M1226.578,252.635L1575.184,296.196C1923.789,339.757,2621,426.878,2969.605,478.773C3318.211,530.667,3318.211,547.333,3318.211,555.667L3318.211,564" class="er relationshipLine"/><path style="stroke: gray; fill: none;" marker-start="url(#ONLY_ONE_START)" marker-end="url(#ZERO_OR_MORE_END)" d="M1226.578,253.422L1550.184,296.852C1873.789,340.281,2521,427.141,2839.844,478.904C3158.687,530.667,3149.163,547.333,3144.401,555.667L3139.64,564" class="er relationshipLine"/><g transform="translate(1056.359375,20 )" id="entity-BroadcastService-ce01e69d-1fd7-5b86-b226-ddea4e4569fe"><rect height="444" width="170.21875" y="0" x="0" class="er entityBox"/><text style="dominant-baseline: middle; text-anchor: middle; font-size: 12px;" transform="translate(85.109375,12)" y="0" x="0" id="text-entity-BroadcastService-ce01e69d-1fd7-5b86-b226-ddea4e4569fe" class="er entityLabel">BroadcastService</text><rect height="21" width="57.0625" y="24" x="0" class="er attributeBoxOdd"/><text style="dominant-baseline: middle; font-size: 10.2px;" transform="translate(5,34.5)" y="0" x="0" id="text-entity-BroadcastService-ce01e69d-1fd7-5b86-b226-ddea4e4569fe-attr-1-type" class="er entityLabel">stringList</text><rect height="21" width="113.15625" y="24" x="57.0625" class="er attributeBoxOdd"/><text style="dominant-baseline: middle; font-size: 10.2px;" transform="translate(62.0625,34.5)" y="0" x="0" id="text-entity-BroadcastService-ce01e69d-1fd7-5b86-b226-ddea4e4569fe-attr-1-name" class="er entityLabel">broadcastFrequency</text><rect height="21" width="57.0625" y="45" x="0" class="er attributeBoxEven"/><text style="dominant-baseline: middle; font-size: 10.2px;" transform="translate(5,55.5)" y="0" x="0" id="text-entity-BroadcastService-ce01e69d-1fd7-5b86-b226-ddea4e4569fe-attr-2-type" class="er entityLabel">stringList</text><rect height="21" width="113.15625" y="45" x="57.0625" class="er attributeBoxEven"/><text style="dominant-baseline: middle; font-size: 10.2px;" transform="translate(62.0625,55.5)" y="0" x="0" id="text-entity-BroadcastService-ce01e69d-1fd7-5b86-b226-ddea4e4569fe-attr-2-name" class="er entityLabel">inLanguage</text><rect height="21" width="57.0625" y="66" x="0" class="er attributeBoxOdd"/><text style="dominant-baseline: middle; font-size: 10.2px;" transform="translate(5,76.5)" y="0" x="0" id="text-entity-BroadcastService-ce01e69d-1fd7-5b86-b226-ddea4e4569fe-attr-3-type" class="er entityLabel">stringList</text><rect height="21" width="113.15625" y="66" x="57.0625" class="er attributeBoxOdd"/><text style="dominant-baseline: middle; font-size: 10.2px;" transform="translate(62.0625,76.5)" y="0" x="0" id="text-entity-BroadcastService-ce01e69d-1fd7-5b86-b226-ddea4e4569fe-attr-3-name" class="er entityLabel">areaServed</text><rect height="21" width="57.0625" y="87" x="0" class="er attributeBoxEven"/><text style="dominant-baseline: middle; font-size: 10.2px;" transform="translate(5,97.5)" y="0" x="0" id="text-entity-BroadcastService-ce01e69d-1fd7-5b86-b226-ddea4e4569fe-attr-4-type" class="er entityLabel">stringList</text><rect height="21" width="113.15625" y="87" x="57.0625" class="er attributeBoxEven"/><text style="dominant-baseline: middle; font-size: 10.2px;" transform="translate(62.0625,97.5)" y="0" x="0" id="text-entity-BroadcastService-ce01e69d-1fd7-5b86-b226-ddea4e4569fe-attr-4-name" class="er entityLabel">category</text><rect height="21" width="57.0625" y="108" x="0" class="er attributeBoxOdd"/><text style="dominant-baseline: middle; font-size: 10.2px;" transform="translate(5,118.5)" y="0" x="0" id="text-entity-BroadcastService-ce01e69d-1fd7-5b86-b226-ddea4e4569fe-attr-5-type" class="er entityLabel">stringList</text><rect height="21" width="113.15625" y="108" x="57.0625" class="er attributeBoxOdd"/><text style="dominant-baseline: middle; font-size: 10.2px;" transform="translate(62.0625,118.5)" y="0" x="0" id="text-entity-BroadcastService-ce01e69d-1fd7-5b86-b226-ddea4e4569fe-attr-5-name" class="er entityLabel">logo</text><rect height="21" width="57.0625" y="129" x="0" class="er attributeBoxEven"/><text style="dominant-baseline: middle; font-size: 10.2px;" transform="translate(5,139.5)" y="0" x="0" id="text-entity-BroadcastService-ce01e69d-1fd7-5b86-b226-ddea4e4569fe-attr-6-type" class="er entityLabel">stringList</text><rect height="21" width="113.15625" y="129" x="57.0625" class="er attributeBoxEven"/><text style="dominant-baseline: middle; font-size: 10.2px;" transform="translate(62.0625,139.5)" y="0" x="0" id="text-entity-BroadcastService-ce01e69d-1fd7-5b86-b226-ddea4e4569fe-attr-6-name" class="er entityLabel">brand</text><rect height="21" width="57.0625" y="150" x="0" class="er attributeBoxOdd"/><text style="dominant-baseline: middle; font-size: 10.2px;" transform="translate(5,160.5)" y="0" x="0" id="text-entity-BroadcastService-ce01e69d-1fd7-5b86-b226-ddea4e4569fe-attr-7-type" class="er entityLabel">stringList</text><rect height="21" width="113.15625" y="150" x="57.0625" class="er attributeBoxOdd"/><text style="dominant-baseline: middle; font-size: 10.2px;" transform="translate(62.0625,160.5)" y="0" x="0" id="text-entity-BroadcastService-ce01e69d-1fd7-5b86-b226-ddea4e4569fe-attr-7-name" class="er entityLabel">broker</text><rect height="21" width="57.0625" y="171" x="0" class="er attributeBoxEven"/><text style="dominant-baseline: middle; font-size: 10.2px;" transform="translate(5,181.5)" y="0" x="0" id="text-entity-BroadcastService-ce01e69d-1fd7-5b86-b226-ddea4e4569fe-attr-8-type" class="er entityLabel">stringList</text><rect height="21" width="113.15625" y="171" x="57.0625" class="er attributeBoxEven"/><text style="dominant-baseline: middle; font-size: 10.2px;" transform="translate(62.0625,181.5)" y="0" x="0" id="text-entity-BroadcastService-ce01e69d-1fd7-5b86-b226-ddea4e4569fe-attr-8-name" class="er entityLabel">isRelatedTo</text><rect height="21" width="57.0625" y="192" x="0" class="er attributeBoxOdd"/><text style="dominant-baseline: middle; font-size: 10.2px;" transform="translate(5,202.5)" y="0" x="0" id="text-entity-BroadcastService-ce01e69d-1fd7-5b86-b226-ddea4e4569fe-attr-9-type" class="er entityLabel">stringList</text><rect height="21" width="113.15625" y="192" x="57.0625" class="er attributeBoxOdd"/><text style="dominant-baseline: middle; font-size: 10.2px;" transform="translate(62.0625,202.5)" y="0" x="0" id="text-entity-BroadcastService-ce01e69d-1fd7-5b86-b226-ddea4e4569fe-attr-9-name" class="er entityLabel">isSimilarTo</text><rect height="21" width="57.0625" y="213" x="0" class="er attributeBoxEven"/><text style="dominant-baseline: middle; font-size: 10.2px;" transform="translate(5,223.5)" y="0" x="0" id="text-entity-BroadcastService-ce01e69d-1fd7-5b86-b226-ddea4e4569fe-attr-10-type" class="er entityLabel">stringList</text><rect height="21" width="113.15625" y="213" x="57.0625" class="er attributeBoxEven"/><text style="dominant-baseline: middle; font-size: 10.2px;" transform="translate(62.0625,223.5)" y="0" x="0" id="text-entity-BroadcastService-ce01e69d-1fd7-5b86-b226-ddea4e4569fe-attr-10-name" class="er entityLabel">offers</text><rect height="21" width="57.0625" y="234" x="0" class="er attributeBoxOdd"/><text style="dominant-baseline: middle; font-size: 10.2px;" transform="translate(5,244.5)" y="0" x="0" id="text-entity-BroadcastService-ce01e69d-1fd7-5b86-b226-ddea4e4569fe-attr-11-type" class="er entityLabel">stringList</text><rect height="21" width="113.15625" y="234" x="57.0625" class="er attributeBoxOdd"/><text style="dominant-baseline: middle; font-size: 10.2px;" transform="translate(62.0625,244.5)" y="0" x="0" id="text-entity-BroadcastService-ce01e69d-1fd7-5b86-b226-ddea4e4569fe-attr-11-name" class="er entityLabel">provider</text><rect height="21" width="57.0625" y="255" x="0" class="er attributeBoxEven"/><text style="dominant-baseline: middle; font-size: 10.2px;" transform="translate(5,265.5)" y="0" x="0" id="text-entity-BroadcastService-ce01e69d-1fd7-5b86-b226-ddea4e4569fe-attr-12-type" class="er entityLabel">stringList</text><rect height="21" width="113.15625" y="255" x="57.0625" class="er attributeBoxEven"/><text style="dominant-baseline: middle; font-size: 10.2px;" transform="translate(62.0625,265.5)" y="0" x="0" id="text-entity-BroadcastService-ce01e69d-1fd7-5b86-b226-ddea4e4569fe-attr-12-name" class="er entityLabel">serviceArea</text><rect height="21" width="57.0625" y="276" x="0" class="er attributeBoxOdd"/><text style="dominant-baseline: middle; font-size: 10.2px;" transform="translate(5,286.5)" y="0" x="0" id="text-entity-BroadcastService-ce01e69d-1fd7-5b86-b226-ddea4e4569fe-attr-13-type" class="er entityLabel">stringList</text><rect height="21" width="113.15625" y="276" x="57.0625" class="er attributeBoxOdd"/><text style="dominant-baseline: middle; font-size: 10.2px;" transform="translate(62.0625,286.5)" y="0" x="0" id="text-entity-BroadcastService-ce01e69d-1fd7-5b86-b226-ddea4e4569fe-attr-13-name" class="er entityLabel">serviceType</text><rect height="21" width="57.0625" y="297" x="0" class="er attributeBoxEven"/><text style="dominant-baseline: middle; font-size: 10.2px;" transform="translate(5,307.5)" y="0" x="0" id="text-entity-BroadcastService-ce01e69d-1fd7-5b86-b226-ddea4e4569fe-attr-14-type" class="er entityLabel">stringList</text><rect height="21" width="113.15625" y="297" x="57.0625" class="er attributeBoxEven"/><text style="dominant-baseline: middle; font-size: 10.2px;" transform="translate(62.0625,307.5)" y="0" x="0" id="text-entity-BroadcastService-ce01e69d-1fd7-5b86-b226-ddea4e4569fe-attr-14-name" class="er entityLabel">termsOfService</text><rect height="21" width="57.0625" y="318" x="0" class="er attributeBoxOdd"/><text style="dominant-baseline: middle; font-size: 10.2px;" transform="translate(5,328.5)" y="0" x="0" id="text-entity-BroadcastService-ce01e69d-1fd7-5b86-b226-ddea4e4569fe-attr-15-type" class="er entityLabel">stringList</text><rect height="21" width="113.15625" y="318" x="57.0625" class="er attributeBoxOdd"/><text style="dominant-baseline: middle; font-size: 10.2px;" transform="translate(62.0625,328.5)" y="0" x="0" id="text-entity-BroadcastService-ce01e69d-1fd7-5b86-b226-ddea4e4569fe-attr-15-name" class="er entityLabel">additionalType</text><rect height="21" width="57.0625" y="339" x="0" class="er attributeBoxEven"/><text style="dominant-baseline: middle; font-size: 10.2px;" transform="translate(5,349.5)" y="0" x="0" id="text-entity-BroadcastService-ce01e69d-1fd7-5b86-b226-ddea4e4569fe-attr-16-type" class="er entityLabel">stringList</text><rect height="21" width="113.15625" y="339" x="57.0625" class="er attributeBoxEven"/><text style="dominant-baseline: middle; font-size: 10.2px;" transform="translate(62.0625,349.5)" y="0" x="0" id="text-entity-BroadcastService-ce01e69d-1fd7-5b86-b226-ddea4e4569fe-attr-16-name" class="er entityLabel">description</text><rect height="21" width="57.0625" y="360" x="0" class="er attributeBoxOdd"/><text style="dominant-baseline: middle; font-size: 10.2px;" transform="translate(5,370.5)" y="0" x="0" id="text-entity-BroadcastService-ce01e69d-1fd7-5b86-b226-ddea4e4569fe-attr-17-type" class="er entityLabel">stringList</text><rect height="21" width="113.15625" y="360" x="57.0625" class="er attributeBoxOdd"/><text style="dominant-baseline: middle; font-size: 10.2px;" transform="translate(62.0625,370.5)" y="0" x="0" id="text-entity-BroadcastService-ce01e69d-1fd7-5b86-b226-ddea4e4569fe-attr-17-name" class="er entityLabel">identifier</text><rect height="21" width="57.0625" y="381" x="0" class="er attributeBoxEven"/><text style="dominant-baseline: middle; font-size: 10.2px;" transform="translate(5,391.5)" y="0" x="0" id="text-entity-BroadcastService-ce01e69d-1fd7-5b86-b226-ddea4e4569fe-attr-18-type" class="er entityLabel">stringList</text><rect height="21" width="113.15625" y="381" x="57.0625" class="er attributeBoxEven"/><text style="dominant-baseline: middle; font-size: 10.2px;" transform="translate(62.0625,391.5)" y="0" x="0" id="text-entity-BroadcastService-ce01e69d-1fd7-5b86-b226-ddea4e4569fe-attr-18-name" class="er entityLabel">image</text><rect height="21" width="57.0625" y="402" x="0" class="er attributeBoxOdd"/><text style="dominant-baseline: middle; font-size: 10.2px;" transform="translate(5,412.5)" y="0" x="0" id="text-entity-BroadcastService-ce01e69d-1fd7-5b86-b226-ddea4e4569fe-attr-19-type" class="er entityLabel">stringList</text><rect height="21" width="113.15625" y="402" x="57.0625" class="er attributeBoxOdd"/><text style="dominant-baseline: middle; font-size: 10.2px;" transform="translate(62.0625,412.5)" y="0" x="0" id="text-entity-BroadcastService-ce01e69d-1fd7-5b86-b226-ddea4e4569fe-attr-19-name" class="er entityLabel">mainEntityOfPage</text><rect height="21" width="57.0625" y="423" x="0" class="er attributeBoxEven"/><text style="dominant-baseline: middle; font-size: 10.2px;" transform="translate(5,433.5)" y="0" x="0" id="text-entity-BroadcastService-ce01e69d-1fd7-5b86-b226-ddea4e4569fe-attr-20-type" class="er entityLabel">stringList</text><rect height="21" width="113.15625" y="423" x="57.0625" class="er attributeBoxEven"/><text style="dominant-baseline: middle; font-size: 10.2px;" transform="translate(62.0625,433.5)" y="0" x="0" id="text-entity-BroadcastService-ce01e69d-1fd7-5b86-b226-ddea4e4569fe-attr-20-name" class="er entityLabel">subjectOf</text></g><g transform="translate(20,564 )" id="entity-Text-426c5d39-acfc-5487-a6d9-ede67887190e"><rect height="75" width="100" y="0" x="0" class="er entityBox"/><text style="dominant-baseline: middle; text-anchor: middle; font-size: 12px;" transform="translate(50,37.5)" y="0" x="0" id="text-entity-Text-426c5d39-acfc-5487-a6d9-ede67887190e" class="er entityLabel">Text</text></g><g transform="translate(665.0546875,564 )" id="entity-Place-18cedc50-4c85-52d4-b2dd-111465382dcf"><rect height="75" width="100" y="0" x="0" class="er entityBox"/><text style="dominant-baseline: middle; text-anchor: middle; font-size: 12px;" transform="translate(50,37.5)" y="0" x="0" id="text-entity-Place-18cedc50-4c85-52d4-b2dd-111465382dcf" class="er entityLabel">Place</text></g><g transform="translate(865.0546875,564 )" id="entity-Organization-ef1721ab-1f62-5ef5-a525-a6c60c2f6032"><rect height="75" width="106.71875" y="0" x="0" class="er entityBox"/><text style="dominant-baseline: middle; text-anchor: middle; font-size: 12px;" transform="translate(53.359375,37.5)" y="0" x="0" id="text-entity-Organization-ef1721ab-1f62-5ef5-a525-a6c60c2f6032" class="er entityLabel">Organization</text></g><g transform="translate(1071.7734375,564 )" id="entity-BroadcastChannel-be917b90-1374-5b68-9ee5-e665c9d35d73"><rect height="75" width="139.390625" y="0" x="0" class="er entityBox"/><text style="dominant-baseline: middle; text-anchor: middle; font-size: 12px;" transform="translate(69.6953125,37.5)" y="0" x="0" id="text-entity-BroadcastChannel-be917b90-1374-5b68-9ee5-e665c9d35d73" class="er entityLabel">BroadcastChannel</text></g><g transform="translate(1311.1640625,564 )" id="entity-AggregateRating-aa0a8837-178a-57ab-baa0-94ad30d90eb5"><rect height="75" width="131.25" y="0" x="0" class="er entityBox"/><text style="dominant-baseline: middle; text-anchor: middle; font-size: 12px;" transform="translate(65.625,37.5)" y="0" x="0" id="text-entity-AggregateRating-aa0a8837-178a-57ab-baa0-94ad30d90eb5" class="er entityLabel">AggregateRating</text></g><g transform="translate(1542.4140625,564 )" id="entity-Audience-f784d19a-7c58-5869-868f-14b9086fca44"><rect height="75" width="100" y="0" x="0" class="er entityBox"/><text style="dominant-baseline: middle; text-anchor: middle; font-size: 12px;" transform="translate(50,37.5)" y="0" x="0" id="text-entity-Audience-f784d19a-7c58-5869-868f-14b9086fca44" class="er entityLabel">Audience</text></g><g transform="translate(1742.4140625,564 )" id="entity-ServiceChannel-5f9e70a6-8dc6-5d0f-a871-3e775d52af1b"><rect height="75" width="123.625" y="0" x="0" class="er entityBox"/><text style="dominant-baseline: middle; text-anchor: middle; font-size: 12px;" transform="translate(61.8125,37.5)" y="0" x="0" id="text-entity-ServiceChannel-5f9e70a6-8dc6-5d0f-a871-3e775d52af1b" class="er entityLabel">ServiceChannel</text></g><g transform="translate(1966.0390625,564 )" id="entity-Certification-8b250de0-929b-5806-8c87-f8e7c928ef36"><rect height="75" width="103.234375" y="0" x="0" class="er entityBox"/><text style="dominant-baseline: middle; text-anchor: middle; font-size: 12px;" transform="translate(51.6171875,37.5)" y="0" x="0" id="text-entity-Certification-8b250de0-929b-5806-8c87-f8e7c928ef36" class="er entityLabel">Certification</text></g><g transform="translate(2169.2734375,564 )" id="entity-OfferCatalog-e4b8efcd-db96-5dc8-b042-81a3acf3e3fe"><rect height="75" width="106.125" y="0" x="0" class="er entityBox"/><text style="dominant-baseline: middle; text-anchor: middle; font-size: 12px;" transform="translate(53.0625,37.5)" y="0" x="0" id="text-entity-OfferCatalog-e4b8efcd-db96-5dc8-b042-81a3acf3e3fe" class="er entityLabel">OfferCatalog</text></g><g transform="translate(2375.3984375,564 )" id="entity-OpeningHoursSpecification-677aa64f-a506-5d18-b5d1-75a0f22f6986"><rect height="75" width="192.8125" y="0" x="0" class="er entityBox"/><text style="dominant-baseline: middle; text-anchor: middle; font-size: 12px;" transform="translate(96.40625,37.5)" y="0" x="0" id="text-entity-OpeningHoursSpecification-677aa64f-a506-5d18-b5d1-75a0f22f6986" class="er entityLabel">OpeningHoursSpecification</text></g><g transform="translate(2668.2109375,564 )" id="entity-Thing-27bc9527-b992-59fc-a0fb-da83e2ff80bf"><rect height="75" width="100" y="0" x="0" class="er entityBox"/><text style="dominant-baseline: middle; text-anchor: middle; font-size: 12px;" transform="translate(50,37.5)" y="0" x="0" id="text-entity-Thing-27bc9527-b992-59fc-a0fb-da83e2ff80bf" class="er entityLabel">Thing</text></g><g transform="translate(2868.2109375,564 )" id="entity-Review-77c92a79-8cff-50c0-9604-f9135763cccd"><rect height="75" width="100" y="0" x="0" class="er entityBox"/><text style="dominant-baseline: middle; text-anchor: middle; font-size: 12px;" transform="translate(50,37.5)" y="0" x="0" id="text-entity-Review-77c92a79-8cff-50c0-9604-f9135763cccd" class="er entityLabel">Review</text></g><g transform="translate(3068.2109375,564 )" id="entity-URL-07f78d3e-fd74-5925-b39b-26c1cc2d6b7c"><rect height="75" width="100" y="0" x="0" class="er entityBox"/><text style="dominant-baseline: middle; text-anchor: middle; font-size: 12px;" transform="translate(50,37.5)" y="0" x="0" id="text-entity-URL-07f78d3e-fd74-5925-b39b-26c1cc2d6b7c" class="er entityLabel">URL</text></g><g transform="translate(3268.2109375,564 )" id="entity-Action-6cd87d9a-a078-546e-a35b-bee54f477b31"><rect height="75" width="100" y="0" x="0" class="er entityBox"/><text style="dominant-baseline: middle; text-anchor: middle; font-size: 12px;" transform="translate(50,37.5)" y="0" x="0" id="text-entity-Action-6cd87d9a-a078-546e-a35b-bee54f477b31" class="er entityLabel">Action</text></g><rect height="14" width="46.796875" y="380.35089111328125" x="345.135009765625" class="er relationshipLabelBox"/><text style="text-anchor: middle; dominant-baseline: middle; font-size: 12px;" y="387.35089111328125" x="368.533447265625" id="rel1" class="er relationshipLabel">callSign</text><rect height="14" width="26.765625" y="409.3871765136719" x="856.9953002929688" class="er relationshipLabelBox"/><text style="text-anchor: middle; dominant-baseline: middle; font-size: 12px;" y="416.3871765136719" x="870.3781127929688" id="rel2" class="er relationshipLabel">area</text><rect height="14" width="119.873046875" y="427.82598876953125" x="889.5418090820312" class="er relationshipLabelBox"/><text style="text-anchor: middle; dominant-baseline: middle; font-size: 12px;" y="434.82598876953125" x="949.4783325195312" id="rel3" class="er relationshipLabel">broadcastAffiliateOf</text><rect height="14" width="139.15625" y="379.8481750488281" x="351.5218200683594" class="er relationshipLabelBox"/><text style="text-anchor: middle; dominant-baseline: middle; font-size: 12px;" y="386.8481750488281" x="421.0999450683594" id="rel4" class="er relationshipLabel">broadcastDisplayName</text><rect height="14" width="117.515625" y="380.1650085449219" x="410.8273010253906" class="er relationshipLabelBox"/><text style="text-anchor: middle; dominant-baseline: middle; font-size: 12px;" y="387.1650085449219" x="469.5851135253906" id="rel5" class="er relationshipLabel">broadcastTimezone</text><rect height="14" width="71.890625" y="468.7456359863281" x="966.3411865234375" class="er relationshipLabelBox"/><text style="text-anchor: middle; dominant-baseline: middle; font-size: 12px;" y="475.7456359863281" x="1002.2864990234375" id="rel6" class="er relationshipLabel">broadcaster</text><rect height="14" width="130.609375" y="507" x="1076.164306640625" class="er relationshipLabelBox"/><text style="text-anchor: middle; dominant-baseline: middle; font-size: 12px;" y="514" x="1141.468994140625" id="rel7" class="er relationshipLabel">hasBroadcastChannel</text><rect height="14" width="83.6875" y="235" x="1283.9012451171875" class="er relationshipLabelBox"/><text style="text-anchor: middle; dominant-baseline: middle; font-size: 12px;" y="242" x="1325.7449951171875" id="rel8" class="er relationshipLabel">parentService</text><rect height="14" width="75.359375" y="381.6277770996094" x="475.32867431640625" class="er relationshipLabelBox"/><text style="text-anchor: middle; dominant-baseline: middle; font-size: 12px;" y="388.6277770996094" x="513.0083618164062" id="rel9" class="er relationshipLabel">videoFormat</text><rect height="14" width="100.390625" y="437.9260559082031" x="1265.1014404296875" class="er relationshipLabelBox"/><text style="text-anchor: middle; dominant-baseline: middle; font-size: 12px;" y="444.9260559082031" x="1315.2967529296875" id="rel10" class="er relationshipLabel">aggregateRating</text><rect height="14" width="54.890625" y="417.56005859375" x="1376.4967041015625" class="er relationshipLabelBox"/><text style="text-anchor: middle; dominant-baseline: middle; font-size: 12px;" y="424.56005859375" x="1403.9420166015625" id="rel11" class="er relationshipLabel">audience</text><rect height="14" width="103.4375" y="395.6183776855469" x="1478.035888671875" class="er relationshipLabelBox"/><text style="text-anchor: middle; dominant-baseline: middle; font-size: 12px;" y="402.6183776855469" x="1529.754638671875" id="rel12" class="er relationshipLabel">availableChannel</text><rect height="14" width="36.875" y="385.7950744628906" x="530.8662719726562" class="er relationshipLabelBox"/><text style="text-anchor: middle; dominant-baseline: middle; font-size: 12px;" y="392.7950744628906" x="549.3037719726562" id="rel13" class="er relationshipLabel">award</text><rect height="14" width="94.453125" y="389.5003356933594" x="1588.0980224609375" class="er relationshipLabelBox"/><text style="text-anchor: middle; dominant-baseline: middle; font-size: 12px;" y="396.5003356933594" x="1635.3245849609375" id="rel14" class="er relationshipLabel">hasCertification</text><rect height="14" width="97.328125" y="385.94671630859375" x="1688.059326171875" class="er relationshipLabelBox"/><text style="text-anchor: middle; dominant-baseline: middle; font-size: 12px;" y="392.94671630859375" x="1736.723388671875" id="rel15" class="er relationshipLabel">hasOfferCatalog</text><rect height="14" width="88.0625" y="383.143310546875" x="1816.5067138671875" class="er relationshipLabelBox"/><text style="text-anchor: middle; dominant-baseline: middle; font-size: 12px;" y="390.143310546875" x="1860.5379638671875" id="rel16" class="er relationshipLabel">hoursAvailable</text><rect height="14" width="55.09375" y="384.6585388183594" x="1935.487060546875" class="er relationshipLabelBox"/><text style="text-anchor: middle; dominant-baseline: middle; font-size: 12px;" y="391.6585388183594" x="1963.033935546875" id="rel17" class="er relationshipLabel">produces</text><rect height="14" width="97.125" y="393.0392761230469" x="529.0135498046875" class="er relationshipLabelBox"/><text style="text-anchor: middle; dominant-baseline: middle; font-size: 12px;" y="400.0392761230469" x="577.5760498046875" id="rel18" class="er relationshipLabel">providerMobility</text><rect height="14" width="39.87109375" y="380.1645202636719" x="2062.616455078125" class="er relationshipLabelBox"/><text style="text-anchor: middle; dominant-baseline: middle; font-size: 12px;" y="387.1645202636719" x="2082.552001953125" id="rel19" class="er relationshipLabel">review</text><rect height="14" width="98.71875" y="400.8387451171875" x="1397.96435546875" class="er relationshipLabelBox"/><text style="text-anchor: middle; dominant-baseline: middle; font-size: 12px;" y="407.8387451171875" x="1447.32373046875" id="rel20" class="er relationshipLabel">serviceAudience</text><rect height="14" width="84.962890625" y="379.5648193359375" x="1956.661865234375" class="er relationshipLabelBox"/><text style="text-anchor: middle; dominant-baseline: middle; font-size: 12px;" y="386.5648193359375" x="1999.143310546875" id="rel21" class="er relationshipLabel">serviceOutput</text><rect height="14" width="39.515625" y="408.4144287109375" x="565.50244140625" class="er relationshipLabelBox"/><text style="text-anchor: middle; dominant-baseline: middle; font-size: 12px;" y="415.4144287109375" x="585.26025390625" id="rel22" class="er relationshipLabel">slogan</text><rect height="14" width="89.953125" y="427.4429626464844" x="544.9236450195312" class="er relationshipLabelBox"/><text style="text-anchor: middle; dominant-baseline: middle; font-size: 12px;" y="434.4429626464844" x="589.9002075195312" id="rel23" class="er relationshipLabel">alternateName</text><rect height="14" width="161.390625" y="448.8882751464844" x="514.8309936523438" class="er relationshipLabelBox"/><text style="text-anchor: middle; dominant-baseline: middle; font-size: 12px;" y="455.8882751464844" x="595.5263061523438" id="rel24" class="er relationshipLabel">disambiguatingDescription</text><rect height="14" width="34.03125" y="471.6385192871094" x="584.6340942382812" class="er relationshipLabelBox"/><text style="text-anchor: middle; dominant-baseline: middle; font-size: 12px;" y="478.6385192871094" x="601.6497192382812" id="rel25" class="er relationshipLabel">name</text><rect height="14" width="47.140625" y="381.029052734375" x="2144.8486328125" class="er relationshipLabelBox"/><text style="text-anchor: middle; dominant-baseline: middle; font-size: 12px;" y="388.029052734375" x="2168.4189453125" id="rel26" class="er relationshipLabel">sameAs</text><rect height="14" width="90.96875" y="378.57781982421875" x="2236.322265625" class="er relationshipLabelBox"/><text style="text-anchor: middle; dominant-baseline: middle; font-size: 12px;" y="385.57781982421875" x="2281.806640625" id="rel27" class="er relationshipLabel">potentialAction</text><rect height="14" width="15.875" y="377.9060974121094" x="2189.961669921875" class="er relationshipLabelBox"/><text style="text-anchor: middle; dominant-baseline: middle; font-size: 12px;" y="384.9060974121094" x="2197.899169921875" id="rel28" class="er relationshipLabel">url</text></svg>