<svg aria-roledescription="er" role="graphics-document document" viewBox="0 0 2543.15625 911" style="max-width: 2543.16px; background-color: white;" xmlns:xlink="http://www.w3.org/1999/xlink" xmlns="http://www.w3.org/2000/svg" width="100%" id="my-svg"><style>#my-svg{font-family:"trebuchet ms",verdana,arial,sans-serif;font-size:16px;fill:#333;}#my-svg .error-icon{fill:#552222;}#my-svg .error-text{fill:#552222;stroke:#552222;}#my-svg .edge-thickness-normal{stroke-width:1px;}#my-svg .edge-thickness-thick{stroke-width:3.5px;}#my-svg .edge-pattern-solid{stroke-dasharray:0;}#my-svg .edge-thickness-invisible{stroke-width:0;fill:none;}#my-svg .edge-pattern-dashed{stroke-dasharray:3;}#my-svg .edge-pattern-dotted{stroke-dasharray:2;}#my-svg .marker{fill:#333333;stroke:#333333;}#my-svg .marker.cross{stroke:#333333;}#my-svg svg{font-family:"trebuchet ms",verdana,arial,sans-serif;font-size:16px;}#my-svg p{margin:0;}#my-svg .entityBox{fill:#ECECFF;stroke:#9370DB;}#my-svg .attributeBoxOdd{fill:#ffffff;stroke:#9370DB;}#my-svg .attributeBoxEven{fill:#f2f2f2;stroke:#9370DB;}#my-svg .relationshipLabelBox{fill:hsl(80, 100%, 96.2745098039%);opacity:0.7;background-color:hsl(80, 100%, 96.2745098039%);}#my-svg .relationshipLabelBox rect{opacity:0.5;}#my-svg .relationshipLine{stroke:#333333;}#my-svg .entityTitleText{text-anchor:middle;font-size:18px;fill:#333;}#my-svg #MD_PARENT_START{fill:#f5f5f5!important;stroke:#333333!important;stroke-width:1;}#my-svg #MD_PARENT_END{fill:#f5f5f5!important;stroke:#333333!important;stroke-width:1;}#my-svg :root{--mermaid-font-family:"trebuchet ms",verdana,arial,sans-serif;}</style><g/><defs><marker orient="auto" markerHeight="240" markerWidth="190" refY="7" refX="0" id="MD_PARENT_START"><path d="M 18,7 L9,13 L1,7 L9,1 Z"/></marker></defs><defs><marker orient="auto" markerHeight="28" markerWidth="20" refY="7" refX="19" id="MD_PARENT_END"><path d="M 18,7 L9,13 L1,7 L9,1 Z"/></marker></defs><defs><marker orient="auto" markerHeight="18" markerWidth="18" refY="9" refX="0" id="ONLY_ONE_START"><path d="M9,0 L9,18 M15,0 L15,18" fill="none" stroke="gray"/></marker></defs><defs><marker orient="auto" markerHeight="18" markerWidth="18" refY="9" refX="18" id="ONLY_ONE_END"><path d="M3,0 L3,18 M9,0 L9,18" fill="none" stroke="gray"/></marker></defs><defs><marker orient="auto" markerHeight="18" markerWidth="30" refY="9" refX="0" id="ZERO_OR_ONE_START"><circle r="6" cy="9" cx="21" fill="white" stroke="gray"/><path d="M9,0 L9,18" fill="none" stroke="gray"/></marker></defs><defs><marker orient="auto" markerHeight="18" markerWidth="30" refY="9" refX="30" id="ZERO_OR_ONE_END"><circle r="6" cy="9" cx="9" fill="white" stroke="gray"/><path d="M21,0 L21,18" fill="none" stroke="gray"/></marker></defs><defs><marker orient="auto" markerHeight="36" markerWidth="45" refY="18" refX="18" id="ONE_OR_MORE_START"><path d="M0,18 Q 18,0 36,18 Q 18,36 0,18 M42,9 L42,27" fill="none" stroke="gray"/></marker></defs><defs><marker orient="auto" markerHeight="36" markerWidth="45" refY="18" refX="27" id="ONE_OR_MORE_END"><path d="M3,9 L3,27 M9,18 Q27,0 45,18 Q27,36 9,18" fill="none" stroke="gray"/></marker></defs><defs><marker orient="auto" markerHeight="36" markerWidth="57" refY="18" refX="18" id="ZERO_OR_MORE_START"><circle r="6" cy="18" cx="48" fill="white" stroke="gray"/><path d="M0,18 Q18,0 36,18 Q18,36 0,18" fill="none" stroke="gray"/></marker></defs><defs><marker orient="auto" markerHeight="36" markerWidth="57" refY="18" refX="39" id="ZERO_OR_MORE_END"><circle r="6" cy="18" cx="9" fill="white" stroke="gray"/><path d="M21,18 Q39,0 57,18 Q39,36 21,18" fill="none" stroke="gray"/></marker></defs><path style="stroke: gray; fill: none;" marker-start="url(#ONLY_ONE_START)" marker-end="url(#ZERO_OR_MORE_END)" d="M1057.133,405.287L892.611,465.406C728.089,525.524,399.044,645.762,234.522,714.214C70,782.667,70,799.333,70,807.667L70,816" class="er relationshipLine"/><path style="stroke: gray; fill: none;" marker-start="url(#ONLY_ONE_START)" marker-end="url(#ZERO_OR_MORE_END)" d="M1057.133,411.319L917.891,470.433C778.648,529.546,500.164,647.773,365.844,715.22C231.523,782.667,241.367,799.333,246.289,807.667L251.211,816" class="er relationshipLine"/><path style="stroke: gray; fill: none;" marker-start="url(#ONLY_ONE_START)" marker-end="url(#ZERO_OR_MORE_END)" d="M1057.133,417.269L936.758,475.391C816.384,533.513,575.635,649.756,449.401,716.211C323.167,782.667,311.448,799.333,305.588,807.667L299.728,816" class="er relationshipLine"/><path style="stroke: gray; fill: none;" marker-start="url(#ONLY_ONE_START)" marker-end="url(#ZERO_OR_MORE_END)" d="M1057.133,429.277L963.68,485.397C870.227,541.518,683.32,653.759,589.867,718.213C496.414,782.667,496.414,799.333,496.414,807.667L496.414,816" class="er relationshipLine"/><path style="stroke: gray; fill: none;" marker-start="url(#ONLY_ONE_START)" marker-end="url(#ZERO_OR_MORE_END)" d="M1261.211,161.596L1272.878,137.996C1284.544,114.397,1307.878,67.199,1322.461,43.599C1337.044,20,1342.878,20,1348.711,78C1354.544,136,1360.378,252,1360.378,368C1360.378,484,1354.544,600,1348.711,658C1342.878,716,1337.044,716,1322.461,692.401C1307.878,668.801,1284.544,621.603,1272.878,598.004L1261.211,574.404" class="er relationshipLine"/><path style="stroke: gray; fill: none;" marker-start="url(#ONLY_ONE_START)" marker-end="url(#ZERO_OR_MORE_END)" d="M1057.133,463.012L1002.9,513.51C948.667,564.008,840.201,665.004,785.967,723.835C731.734,782.667,731.734,799.333,731.734,807.667L731.734,816" class="er relationshipLine"/><path style="stroke: gray; fill: none;" marker-start="url(#ONLY_ONE_START)" marker-end="url(#ZERO_OR_MORE_END)" d="M1057.133,518.622L1029.202,559.852C1001.271,601.082,945.409,683.541,922.984,733.104C900.559,782.667,911.571,799.333,917.077,807.667L922.583,816" class="er relationshipLine"/><path style="stroke: gray; fill: none;" marker-start="url(#ONLY_ONE_START)" marker-end="url(#ZERO_OR_MORE_END)" d="M1159.172,716L1159.172,724.333C1159.172,732.667,1159.172,749.333,1159.172,766C1159.172,782.667,1159.172,799.333,1159.172,807.667L1159.172,816" class="er relationshipLine"/><path style="stroke: gray; fill: none;" marker-start="url(#ONLY_ONE_START)" marker-end="url(#ZERO_OR_MORE_END)" d="M1261.211,558.281L1279.776,592.901C1298.341,627.52,1335.471,696.76,1354.036,739.713C1372.602,782.667,1372.602,799.333,1372.602,807.667L1372.602,816" class="er relationshipLine"/><path style="stroke: gray; fill: none;" marker-start="url(#ONLY_ONE_START)" marker-end="url(#ZERO_OR_MORE_END)" d="M1261.211,465.131L1313.889,515.276C1366.568,565.421,1471.924,665.71,1524.603,724.189C1577.281,782.667,1577.281,799.333,1577.281,807.667L1577.281,816" class="er relationshipLine"/><path style="stroke: gray; fill: none;" marker-start="url(#ONLY_ONE_START)" marker-end="url(#ZERO_OR_MORE_END)" d="M1261.211,428.834L1355.467,485.028C1449.724,541.223,1638.237,653.611,1732.493,718.139C1826.75,782.667,1826.75,799.333,1826.75,807.667L1826.75,816" class="er relationshipLine"/><path style="stroke: gray; fill: none;" marker-start="url(#ONLY_ONE_START)" marker-end="url(#ZERO_OR_MORE_END)" d="M1261.211,416.302L1384.335,474.585C1507.458,532.868,1753.706,649.434,1883.801,716.05C2013.897,782.667,2027.84,799.333,2034.812,807.667L2041.783,816" class="er relationshipLine"/><path style="stroke: gray; fill: none;" marker-start="url(#ONLY_ONE_START)" marker-end="url(#ZERO_OR_MORE_END)" d="M1261.211,404.456L1429.868,464.713C1598.526,524.971,1935.841,645.485,2104.499,714.076C2273.156,782.667,2273.156,799.333,2273.156,807.667L2273.156,816" class="er relationshipLine"/><path style="stroke: gray; fill: none;" marker-start="url(#ONLY_ONE_START)" marker-end="url(#ZERO_OR_MORE_END)" d="M1057.133,628.487L1048.155,651.406C1039.177,674.325,1021.221,720.162,1006.919,751.414C992.617,782.667,981.968,799.333,976.644,807.667L971.319,816" class="er relationshipLine"/><path style="stroke: gray; fill: none;" marker-start="url(#ONLY_ONE_START)" marker-end="url(#ZERO_OR_MORE_END)" d="M1261.211,410.129L1404.868,469.441C1548.526,528.753,1835.841,647.376,1974.737,715.021C2113.632,782.667,2104.109,799.333,2099.347,807.667L2094.585,816" class="er relationshipLine"/><path style="stroke: gray; fill: none;" marker-start="url(#ONLY_ONE_START)" marker-end="url(#ZERO_OR_MORE_END)" d="M1261.211,398.907L1463.202,460.089C1665.193,521.271,2069.174,643.636,2271.165,713.151C2473.156,782.667,2473.156,799.333,2473.156,807.667L2473.156,816" class="er relationshipLine"/><g transform="translate(1057.1328125,20 )" id="entity-BroadcastService-ce01e69d-1fd7-5b86-b226-ddea4e4569fe"><rect height="696" width="204.078125" y="0" x="0" class="er entityBox"/><text style="dominant-baseline: middle; text-anchor: middle; font-size: 12px;" transform="translate(102.0390625,12)" y="0" x="0" id="text-entity-BroadcastService-ce01e69d-1fd7-5b86-b226-ddea4e4569fe" class="er entityLabel">BroadcastService</text><rect height="21" width="57.0625" y="24" x="0" class="er attributeBoxOdd"/><text style="dominant-baseline: middle; font-size: 10.2px;" transform="translate(5,34.5)" y="0" x="0" id="text-entity-BroadcastService-ce01e69d-1fd7-5b86-b226-ddea4e4569fe-attr-1-type" class="er entityLabel">TextList</text><rect height="21" width="147.015625" y="24" x="57.0625" class="er attributeBoxOdd"/><text style="dominant-baseline: middle; font-size: 10.2px;" transform="translate(62.0625,34.5)" y="0" x="0" id="text-entity-BroadcastService-ce01e69d-1fd7-5b86-b226-ddea4e4569fe-attr-1-name" class="er entityLabel">callSign</text><rect height="21" width="57.0625" y="45" x="0" class="er attributeBoxEven"/><text style="dominant-baseline: middle; font-size: 10.2px;" transform="translate(5,55.5)" y="0" x="0" id="text-entity-BroadcastService-ce01e69d-1fd7-5b86-b226-ddea4e4569fe-attr-2-type" class="er entityLabel">TextList</text><rect height="21" width="147.015625" y="45" x="57.0625" class="er attributeBoxEven"/><text style="dominant-baseline: middle; font-size: 10.2px;" transform="translate(62.0625,55.5)" y="0" x="0" id="text-entity-BroadcastService-ce01e69d-1fd7-5b86-b226-ddea4e4569fe-attr-2-name" class="er entityLabel">broadcastDisplayName</text><rect height="21" width="57.0625" y="66" x="0" class="er attributeBoxOdd"/><text style="dominant-baseline: middle; font-size: 10.2px;" transform="translate(5,76.5)" y="0" x="0" id="text-entity-BroadcastService-ce01e69d-1fd7-5b86-b226-ddea4e4569fe-attr-3-type" class="er entityLabel">stringList</text><rect height="21" width="147.015625" y="66" x="57.0625" class="er attributeBoxOdd"/><text style="dominant-baseline: middle; font-size: 10.2px;" transform="translate(62.0625,76.5)" y="0" x="0" id="text-entity-BroadcastService-ce01e69d-1fd7-5b86-b226-ddea4e4569fe-attr-3-name" class="er entityLabel">broadcastFrequency</text><rect height="21" width="57.0625" y="87" x="0" class="er attributeBoxEven"/><text style="dominant-baseline: middle; font-size: 10.2px;" transform="translate(5,97.5)" y="0" x="0" id="text-entity-BroadcastService-ce01e69d-1fd7-5b86-b226-ddea4e4569fe-attr-4-type" class="er entityLabel">TextList</text><rect height="21" width="147.015625" y="87" x="57.0625" class="er attributeBoxEven"/><text style="dominant-baseline: middle; font-size: 10.2px;" transform="translate(62.0625,97.5)" y="0" x="0" id="text-entity-BroadcastService-ce01e69d-1fd7-5b86-b226-ddea4e4569fe-attr-4-name" class="er entityLabel">broadcastTimezone</text><rect height="21" width="57.0625" y="108" x="0" class="er attributeBoxOdd"/><text style="dominant-baseline: middle; font-size: 10.2px;" transform="translate(5,118.5)" y="0" x="0" id="text-entity-BroadcastService-ce01e69d-1fd7-5b86-b226-ddea4e4569fe-attr-5-type" class="er entityLabel">stringList</text><rect height="21" width="147.015625" y="108" x="57.0625" class="er attributeBoxOdd"/><text style="dominant-baseline: middle; font-size: 10.2px;" transform="translate(62.0625,118.5)" y="0" x="0" id="text-entity-BroadcastService-ce01e69d-1fd7-5b86-b226-ddea4e4569fe-attr-5-name" class="er entityLabel">inLanguage</text><rect height="21" width="57.0625" y="129" x="0" class="er attributeBoxEven"/><text style="dominant-baseline: middle; font-size: 10.2px;" transform="translate(5,139.5)" y="0" x="0" id="text-entity-BroadcastService-ce01e69d-1fd7-5b86-b226-ddea4e4569fe-attr-6-type" class="er entityLabel">TextList</text><rect height="21" width="147.015625" y="129" x="57.0625" class="er attributeBoxEven"/><text style="dominant-baseline: middle; font-size: 10.2px;" transform="translate(62.0625,139.5)" y="0" x="0" id="text-entity-BroadcastService-ce01e69d-1fd7-5b86-b226-ddea4e4569fe-attr-6-name" class="er entityLabel">videoFormat</text><rect height="21" width="57.0625" y="150" x="0" class="er attributeBoxOdd"/><text style="dominant-baseline: middle; font-size: 10.2px;" transform="translate(5,160.5)" y="0" x="0" id="text-entity-BroadcastService-ce01e69d-1fd7-5b86-b226-ddea4e4569fe-attr-7-type" class="er entityLabel">stringList</text><rect height="21" width="147.015625" y="150" x="57.0625" class="er attributeBoxOdd"/><text style="dominant-baseline: middle; font-size: 10.2px;" transform="translate(62.0625,160.5)" y="0" x="0" id="text-entity-BroadcastService-ce01e69d-1fd7-5b86-b226-ddea4e4569fe-attr-7-name" class="er entityLabel">areaServed</text><rect height="21" width="57.0625" y="171" x="0" class="er attributeBoxEven"/><text style="dominant-baseline: middle; font-size: 10.2px;" transform="translate(5,181.5)" y="0" x="0" id="text-entity-BroadcastService-ce01e69d-1fd7-5b86-b226-ddea4e4569fe-attr-8-type" class="er entityLabel">stringList</text><rect height="21" width="147.015625" y="171" x="57.0625" class="er attributeBoxEven"/><text style="dominant-baseline: middle; font-size: 10.2px;" transform="translate(62.0625,181.5)" y="0" x="0" id="text-entity-BroadcastService-ce01e69d-1fd7-5b86-b226-ddea4e4569fe-attr-8-name" class="er entityLabel">category</text><rect height="21" width="57.0625" y="192" x="0" class="er attributeBoxOdd"/><text style="dominant-baseline: middle; font-size: 10.2px;" transform="translate(5,202.5)" y="0" x="0" id="text-entity-BroadcastService-ce01e69d-1fd7-5b86-b226-ddea4e4569fe-attr-9-type" class="er entityLabel">stringList</text><rect height="21" width="147.015625" y="192" x="57.0625" class="er attributeBoxOdd"/><text style="dominant-baseline: middle; font-size: 10.2px;" transform="translate(62.0625,202.5)" y="0" x="0" id="text-entity-BroadcastService-ce01e69d-1fd7-5b86-b226-ddea4e4569fe-attr-9-name" class="er entityLabel">logo</text><rect height="21" width="57.0625" y="213" x="0" class="er attributeBoxEven"/><text style="dominant-baseline: middle; font-size: 10.2px;" transform="translate(5,223.5)" y="0" x="0" id="text-entity-BroadcastService-ce01e69d-1fd7-5b86-b226-ddea4e4569fe-attr-10-type" class="er entityLabel">TextList</text><rect height="21" width="147.015625" y="213" x="57.0625" class="er attributeBoxEven"/><text style="dominant-baseline: middle; font-size: 10.2px;" transform="translate(62.0625,223.5)" y="0" x="0" id="text-entity-BroadcastService-ce01e69d-1fd7-5b86-b226-ddea4e4569fe-attr-10-name" class="er entityLabel">award</text><rect height="21" width="57.0625" y="234" x="0" class="er attributeBoxOdd"/><text style="dominant-baseline: middle; font-size: 10.2px;" transform="translate(5,244.5)" y="0" x="0" id="text-entity-BroadcastService-ce01e69d-1fd7-5b86-b226-ddea4e4569fe-attr-11-type" class="er entityLabel">stringList</text><rect height="21" width="147.015625" y="234" x="57.0625" class="er attributeBoxOdd"/><text style="dominant-baseline: middle; font-size: 10.2px;" transform="translate(62.0625,244.5)" y="0" x="0" id="text-entity-BroadcastService-ce01e69d-1fd7-5b86-b226-ddea4e4569fe-attr-11-name" class="er entityLabel">brand</text><rect height="21" width="57.0625" y="255" x="0" class="er attributeBoxEven"/><text style="dominant-baseline: middle; font-size: 10.2px;" transform="translate(5,265.5)" y="0" x="0" id="text-entity-BroadcastService-ce01e69d-1fd7-5b86-b226-ddea4e4569fe-attr-12-type" class="er entityLabel">stringList</text><rect height="21" width="147.015625" y="255" x="57.0625" class="er attributeBoxEven"/><text style="dominant-baseline: middle; font-size: 10.2px;" transform="translate(62.0625,265.5)" y="0" x="0" id="text-entity-BroadcastService-ce01e69d-1fd7-5b86-b226-ddea4e4569fe-attr-12-name" class="er entityLabel">broker</text><rect height="21" width="57.0625" y="276" x="0" class="er attributeBoxOdd"/><text style="dominant-baseline: middle; font-size: 10.2px;" transform="translate(5,286.5)" y="0" x="0" id="text-entity-BroadcastService-ce01e69d-1fd7-5b86-b226-ddea4e4569fe-attr-13-type" class="er entityLabel">stringList</text><rect height="21" width="147.015625" y="276" x="57.0625" class="er attributeBoxOdd"/><text style="dominant-baseline: middle; font-size: 10.2px;" transform="translate(62.0625,286.5)" y="0" x="0" id="text-entity-BroadcastService-ce01e69d-1fd7-5b86-b226-ddea4e4569fe-attr-13-name" class="er entityLabel">isRelatedTo</text><rect height="21" width="57.0625" y="297" x="0" class="er attributeBoxEven"/><text style="dominant-baseline: middle; font-size: 10.2px;" transform="translate(5,307.5)" y="0" x="0" id="text-entity-BroadcastService-ce01e69d-1fd7-5b86-b226-ddea4e4569fe-attr-14-type" class="er entityLabel">stringList</text><rect height="21" width="147.015625" y="297" x="57.0625" class="er attributeBoxEven"/><text style="dominant-baseline: middle; font-size: 10.2px;" transform="translate(62.0625,307.5)" y="0" x="0" id="text-entity-BroadcastService-ce01e69d-1fd7-5b86-b226-ddea4e4569fe-attr-14-name" class="er entityLabel">isSimilarTo</text><rect height="21" width="57.0625" y="318" x="0" class="er attributeBoxOdd"/><text style="dominant-baseline: middle; font-size: 10.2px;" transform="translate(5,328.5)" y="0" x="0" id="text-entity-BroadcastService-ce01e69d-1fd7-5b86-b226-ddea4e4569fe-attr-15-type" class="er entityLabel">stringList</text><rect height="21" width="147.015625" y="318" x="57.0625" class="er attributeBoxOdd"/><text style="dominant-baseline: middle; font-size: 10.2px;" transform="translate(62.0625,328.5)" y="0" x="0" id="text-entity-BroadcastService-ce01e69d-1fd7-5b86-b226-ddea4e4569fe-attr-15-name" class="er entityLabel">offers</text><rect height="21" width="57.0625" y="339" x="0" class="er attributeBoxEven"/><text style="dominant-baseline: middle; font-size: 10.2px;" transform="translate(5,349.5)" y="0" x="0" id="text-entity-BroadcastService-ce01e69d-1fd7-5b86-b226-ddea4e4569fe-attr-16-type" class="er entityLabel">stringList</text><rect height="21" width="147.015625" y="339" x="57.0625" class="er attributeBoxEven"/><text style="dominant-baseline: middle; font-size: 10.2px;" transform="translate(62.0625,349.5)" y="0" x="0" id="text-entity-BroadcastService-ce01e69d-1fd7-5b86-b226-ddea4e4569fe-attr-16-name" class="er entityLabel">provider</text><rect height="21" width="57.0625" y="360" x="0" class="er attributeBoxOdd"/><text style="dominant-baseline: middle; font-size: 10.2px;" transform="translate(5,370.5)" y="0" x="0" id="text-entity-BroadcastService-ce01e69d-1fd7-5b86-b226-ddea4e4569fe-attr-17-type" class="er entityLabel">TextList</text><rect height="21" width="147.015625" y="360" x="57.0625" class="er attributeBoxOdd"/><text style="dominant-baseline: middle; font-size: 10.2px;" transform="translate(62.0625,370.5)" y="0" x="0" id="text-entity-BroadcastService-ce01e69d-1fd7-5b86-b226-ddea4e4569fe-attr-17-name" class="er entityLabel">providerMobility</text><rect height="21" width="57.0625" y="381" x="0" class="er attributeBoxEven"/><text style="dominant-baseline: middle; font-size: 10.2px;" transform="translate(5,391.5)" y="0" x="0" id="text-entity-BroadcastService-ce01e69d-1fd7-5b86-b226-ddea4e4569fe-attr-18-type" class="er entityLabel">stringList</text><rect height="21" width="147.015625" y="381" x="57.0625" class="er attributeBoxEven"/><text style="dominant-baseline: middle; font-size: 10.2px;" transform="translate(62.0625,391.5)" y="0" x="0" id="text-entity-BroadcastService-ce01e69d-1fd7-5b86-b226-ddea4e4569fe-attr-18-name" class="er entityLabel">serviceArea</text><rect height="21" width="57.0625" y="402" x="0" class="er attributeBoxOdd"/><text style="dominant-baseline: middle; font-size: 10.2px;" transform="translate(5,412.5)" y="0" x="0" id="text-entity-BroadcastService-ce01e69d-1fd7-5b86-b226-ddea4e4569fe-attr-19-type" class="er entityLabel">stringList</text><rect height="21" width="147.015625" y="402" x="57.0625" class="er attributeBoxOdd"/><text style="dominant-baseline: middle; font-size: 10.2px;" transform="translate(62.0625,412.5)" y="0" x="0" id="text-entity-BroadcastService-ce01e69d-1fd7-5b86-b226-ddea4e4569fe-attr-19-name" class="er entityLabel">serviceType</text><rect height="21" width="57.0625" y="423" x="0" class="er attributeBoxEven"/><text style="dominant-baseline: middle; font-size: 10.2px;" transform="translate(5,433.5)" y="0" x="0" id="text-entity-BroadcastService-ce01e69d-1fd7-5b86-b226-ddea4e4569fe-attr-20-type" class="er entityLabel">TextList</text><rect height="21" width="147.015625" y="423" x="57.0625" class="er attributeBoxEven"/><text style="dominant-baseline: middle; font-size: 10.2px;" transform="translate(62.0625,433.5)" y="0" x="0" id="text-entity-BroadcastService-ce01e69d-1fd7-5b86-b226-ddea4e4569fe-attr-20-name" class="er entityLabel">slogan</text><rect height="21" width="57.0625" y="444" x="0" class="er attributeBoxOdd"/><text style="dominant-baseline: middle; font-size: 10.2px;" transform="translate(5,454.5)" y="0" x="0" id="text-entity-BroadcastService-ce01e69d-1fd7-5b86-b226-ddea4e4569fe-attr-21-type" class="er entityLabel">stringList</text><rect height="21" width="147.015625" y="444" x="57.0625" class="er attributeBoxOdd"/><text style="dominant-baseline: middle; font-size: 10.2px;" transform="translate(62.0625,454.5)" y="0" x="0" id="text-entity-BroadcastService-ce01e69d-1fd7-5b86-b226-ddea4e4569fe-attr-21-name" class="er entityLabel">termsOfService</text><rect height="21" width="57.0625" y="465" x="0" class="er attributeBoxEven"/><text style="dominant-baseline: middle; font-size: 10.2px;" transform="translate(5,475.5)" y="0" x="0" id="text-entity-BroadcastService-ce01e69d-1fd7-5b86-b226-ddea4e4569fe-attr-22-type" class="er entityLabel">stringList</text><rect height="21" width="147.015625" y="465" x="57.0625" class="er attributeBoxEven"/><text style="dominant-baseline: middle; font-size: 10.2px;" transform="translate(62.0625,475.5)" y="0" x="0" id="text-entity-BroadcastService-ce01e69d-1fd7-5b86-b226-ddea4e4569fe-attr-22-name" class="er entityLabel">additionalType</text><rect height="21" width="57.0625" y="486" x="0" class="er attributeBoxOdd"/><text style="dominant-baseline: middle; font-size: 10.2px;" transform="translate(5,496.5)" y="0" x="0" id="text-entity-BroadcastService-ce01e69d-1fd7-5b86-b226-ddea4e4569fe-attr-23-type" class="er entityLabel">TextList</text><rect height="21" width="147.015625" y="486" x="57.0625" class="er attributeBoxOdd"/><text style="dominant-baseline: middle; font-size: 10.2px;" transform="translate(62.0625,496.5)" y="0" x="0" id="text-entity-BroadcastService-ce01e69d-1fd7-5b86-b226-ddea4e4569fe-attr-23-name" class="er entityLabel">alternateName</text><rect height="21" width="57.0625" y="507" x="0" class="er attributeBoxEven"/><text style="dominant-baseline: middle; font-size: 10.2px;" transform="translate(5,517.5)" y="0" x="0" id="text-entity-BroadcastService-ce01e69d-1fd7-5b86-b226-ddea4e4569fe-attr-24-type" class="er entityLabel">stringList</text><rect height="21" width="147.015625" y="507" x="57.0625" class="er attributeBoxEven"/><text style="dominant-baseline: middle; font-size: 10.2px;" transform="translate(62.0625,517.5)" y="0" x="0" id="text-entity-BroadcastService-ce01e69d-1fd7-5b86-b226-ddea4e4569fe-attr-24-name" class="er entityLabel">description</text><rect height="21" width="57.0625" y="528" x="0" class="er attributeBoxOdd"/><text style="dominant-baseline: middle; font-size: 10.2px;" transform="translate(5,538.5)" y="0" x="0" id="text-entity-BroadcastService-ce01e69d-1fd7-5b86-b226-ddea4e4569fe-attr-25-type" class="er entityLabel">TextList</text><rect height="21" width="147.015625" y="528" x="57.0625" class="er attributeBoxOdd"/><text style="dominant-baseline: middle; font-size: 10.2px;" transform="translate(62.0625,538.5)" y="0" x="0" id="text-entity-BroadcastService-ce01e69d-1fd7-5b86-b226-ddea4e4569fe-attr-25-name" class="er entityLabel">disambiguatingDescription</text><rect height="21" width="57.0625" y="549" x="0" class="er attributeBoxEven"/><text style="dominant-baseline: middle; font-size: 10.2px;" transform="translate(5,559.5)" y="0" x="0" id="text-entity-BroadcastService-ce01e69d-1fd7-5b86-b226-ddea4e4569fe-attr-26-type" class="er entityLabel">stringList</text><rect height="21" width="147.015625" y="549" x="57.0625" class="er attributeBoxEven"/><text style="dominant-baseline: middle; font-size: 10.2px;" transform="translate(62.0625,559.5)" y="0" x="0" id="text-entity-BroadcastService-ce01e69d-1fd7-5b86-b226-ddea4e4569fe-attr-26-name" class="er entityLabel">identifier</text><rect height="21" width="57.0625" y="570" x="0" class="er attributeBoxOdd"/><text style="dominant-baseline: middle; font-size: 10.2px;" transform="translate(5,580.5)" y="0" x="0" id="text-entity-BroadcastService-ce01e69d-1fd7-5b86-b226-ddea4e4569fe-attr-27-type" class="er entityLabel">stringList</text><rect height="21" width="147.015625" y="570" x="57.0625" class="er attributeBoxOdd"/><text style="dominant-baseline: middle; font-size: 10.2px;" transform="translate(62.0625,580.5)" y="0" x="0" id="text-entity-BroadcastService-ce01e69d-1fd7-5b86-b226-ddea4e4569fe-attr-27-name" class="er entityLabel">image</text><rect height="21" width="57.0625" y="591" x="0" class="er attributeBoxEven"/><text style="dominant-baseline: middle; font-size: 10.2px;" transform="translate(5,601.5)" y="0" x="0" id="text-entity-BroadcastService-ce01e69d-1fd7-5b86-b226-ddea4e4569fe-attr-28-type" class="er entityLabel">TextList</text><rect height="21" width="147.015625" y="591" x="57.0625" class="er attributeBoxEven"/><text style="dominant-baseline: middle; font-size: 10.2px;" transform="translate(62.0625,601.5)" y="0" x="0" id="text-entity-BroadcastService-ce01e69d-1fd7-5b86-b226-ddea4e4569fe-attr-28-name" class="er entityLabel">name</text><rect height="21" width="57.0625" y="612" x="0" class="er attributeBoxOdd"/><text style="dominant-baseline: middle; font-size: 10.2px;" transform="translate(5,622.5)" y="0" x="0" id="text-entity-BroadcastService-ce01e69d-1fd7-5b86-b226-ddea4e4569fe-attr-29-type" class="er entityLabel">URLList</text><rect height="21" width="147.015625" y="612" x="57.0625" class="er attributeBoxOdd"/><text style="dominant-baseline: middle; font-size: 10.2px;" transform="translate(62.0625,622.5)" y="0" x="0" id="text-entity-BroadcastService-ce01e69d-1fd7-5b86-b226-ddea4e4569fe-attr-29-name" class="er entityLabel">sameAs</text><rect height="21" width="57.0625" y="633" x="0" class="er attributeBoxEven"/><text style="dominant-baseline: middle; font-size: 10.2px;" transform="translate(5,643.5)" y="0" x="0" id="text-entity-BroadcastService-ce01e69d-1fd7-5b86-b226-ddea4e4569fe-attr-30-type" class="er entityLabel">stringList</text><rect height="21" width="147.015625" y="633" x="57.0625" class="er attributeBoxEven"/><text style="dominant-baseline: middle; font-size: 10.2px;" transform="translate(62.0625,643.5)" y="0" x="0" id="text-entity-BroadcastService-ce01e69d-1fd7-5b86-b226-ddea4e4569fe-attr-30-name" class="er entityLabel">mainEntityOfPage</text><rect height="21" width="57.0625" y="654" x="0" class="er attributeBoxOdd"/><text style="dominant-baseline: middle; font-size: 10.2px;" transform="translate(5,664.5)" y="0" x="0" id="text-entity-BroadcastService-ce01e69d-1fd7-5b86-b226-ddea4e4569fe-attr-31-type" class="er entityLabel">stringList</text><rect height="21" width="147.015625" y="654" x="57.0625" class="er attributeBoxOdd"/><text style="dominant-baseline: middle; font-size: 10.2px;" transform="translate(62.0625,664.5)" y="0" x="0" id="text-entity-BroadcastService-ce01e69d-1fd7-5b86-b226-ddea4e4569fe-attr-31-name" class="er entityLabel">subjectOf</text><rect height="21" width="57.0625" y="675" x="0" class="er attributeBoxEven"/><text style="dominant-baseline: middle; font-size: 10.2px;" transform="translate(5,685.5)" y="0" x="0" id="text-entity-BroadcastService-ce01e69d-1fd7-5b86-b226-ddea4e4569fe-attr-32-type" class="er entityLabel">URLList</text><rect height="21" width="147.015625" y="675" x="57.0625" class="er attributeBoxEven"/><text style="dominant-baseline: middle; font-size: 10.2px;" transform="translate(62.0625,685.5)" y="0" x="0" id="text-entity-BroadcastService-ce01e69d-1fd7-5b86-b226-ddea4e4569fe-attr-32-name" class="er entityLabel">url</text></g><g transform="translate(20,816 )" id="entity-Place-18cedc50-4c85-52d4-b2dd-111465382dcf"><rect height="75" width="100" y="0" x="0" class="er entityBox"/><text style="dominant-baseline: middle; text-anchor: middle; font-size: 12px;" transform="translate(50,37.5)" y="0" x="0" id="text-entity-Place-18cedc50-4c85-52d4-b2dd-111465382dcf" class="er entityLabel">Place</text></g><g transform="translate(220,816 )" id="entity-Organization-ef1721ab-1f62-5ef5-a525-a6c60c2f6032"><rect height="75" width="106.71875" y="0" x="0" class="er entityBox"/><text style="dominant-baseline: middle; text-anchor: middle; font-size: 12px;" transform="translate(53.359375,37.5)" y="0" x="0" id="text-entity-Organization-ef1721ab-1f62-5ef5-a525-a6c60c2f6032" class="er entityLabel">Organization</text></g><g transform="translate(426.71875,816 )" id="entity-BroadcastChannel-be917b90-1374-5b68-9ee5-e665c9d35d73"><rect height="75" width="139.390625" y="0" x="0" class="er entityBox"/><text style="dominant-baseline: middle; text-anchor: middle; font-size: 12px;" transform="translate(69.6953125,37.5)" y="0" x="0" id="text-entity-BroadcastChannel-be917b90-1374-5b68-9ee5-e665c9d35d73" class="er entityLabel">BroadcastChannel</text></g><g transform="translate(666.109375,816 )" id="entity-AggregateRating-aa0a8837-178a-57ab-baa0-94ad30d90eb5"><rect height="75" width="131.25" y="0" x="0" class="er entityBox"/><text style="dominant-baseline: middle; text-anchor: middle; font-size: 12px;" transform="translate(65.625,37.5)" y="0" x="0" id="text-entity-AggregateRating-aa0a8837-178a-57ab-baa0-94ad30d90eb5" class="er entityLabel">AggregateRating</text></g><g transform="translate(897.359375,816 )" id="entity-Audience-f784d19a-7c58-5869-868f-14b9086fca44"><rect height="75" width="100" y="0" x="0" class="er entityBox"/><text style="dominant-baseline: middle; text-anchor: middle; font-size: 12px;" transform="translate(50,37.5)" y="0" x="0" id="text-entity-Audience-f784d19a-7c58-5869-868f-14b9086fca44" class="er entityLabel">Audience</text></g><g transform="translate(1097.359375,816 )" id="entity-ServiceChannel-5f9e70a6-8dc6-5d0f-a871-3e775d52af1b"><rect height="75" width="123.625" y="0" x="0" class="er entityBox"/><text style="dominant-baseline: middle; text-anchor: middle; font-size: 12px;" transform="translate(61.8125,37.5)" y="0" x="0" id="text-entity-ServiceChannel-5f9e70a6-8dc6-5d0f-a871-3e775d52af1b" class="er entityLabel">ServiceChannel</text></g><g transform="translate(1320.984375,816 )" id="entity-Certification-8b250de0-929b-5806-8c87-f8e7c928ef36"><rect height="75" width="103.234375" y="0" x="0" class="er entityBox"/><text style="dominant-baseline: middle; text-anchor: middle; font-size: 12px;" transform="translate(51.6171875,37.5)" y="0" x="0" id="text-entity-Certification-8b250de0-929b-5806-8c87-f8e7c928ef36" class="er entityLabel">Certification</text></g><g transform="translate(1524.21875,816 )" id="entity-OfferCatalog-e4b8efcd-db96-5dc8-b042-81a3acf3e3fe"><rect height="75" width="106.125" y="0" x="0" class="er entityBox"/><text style="dominant-baseline: middle; text-anchor: middle; font-size: 12px;" transform="translate(53.0625,37.5)" y="0" x="0" id="text-entity-OfferCatalog-e4b8efcd-db96-5dc8-b042-81a3acf3e3fe" class="er entityLabel">OfferCatalog</text></g><g transform="translate(1730.34375,816 )" id="entity-OpeningHoursSpecification-677aa64f-a506-5d18-b5d1-75a0f22f6986"><rect height="75" width="192.8125" y="0" x="0" class="er entityBox"/><text style="dominant-baseline: middle; text-anchor: middle; font-size: 12px;" transform="translate(96.40625,37.5)" y="0" x="0" id="text-entity-OpeningHoursSpecification-677aa64f-a506-5d18-b5d1-75a0f22f6986" class="er entityLabel">OpeningHoursSpecification</text></g><g transform="translate(2023.15625,816 )" id="entity-Thing-27bc9527-b992-59fc-a0fb-da83e2ff80bf"><rect height="75" width="100" y="0" x="0" class="er entityBox"/><text style="dominant-baseline: middle; text-anchor: middle; font-size: 12px;" transform="translate(50,37.5)" y="0" x="0" id="text-entity-Thing-27bc9527-b992-59fc-a0fb-da83e2ff80bf" class="er entityLabel">Thing</text></g><g transform="translate(2223.15625,816 )" id="entity-Review-77c92a79-8cff-50c0-9604-f9135763cccd"><rect height="75" width="100" y="0" x="0" class="er entityBox"/><text style="dominant-baseline: middle; text-anchor: middle; font-size: 12px;" transform="translate(50,37.5)" y="0" x="0" id="text-entity-Review-77c92a79-8cff-50c0-9604-f9135763cccd" class="er entityLabel">Review</text></g><g transform="translate(2423.15625,816 )" id="entity-Action-6cd87d9a-a078-546e-a35b-bee54f477b31"><rect height="75" width="100" y="0" x="0" class="er entityBox"/><text style="dominant-baseline: middle; text-anchor: middle; font-size: 12px;" transform="translate(50,37.5)" y="0" x="0" id="text-entity-Action-6cd87d9a-a078-546e-a35b-bee54f477b31" class="er entityLabel">Action</text></g><rect height="14" width="26.765625" y="584.6604614257812" x="536.89404296875" class="er relationshipLabelBox"/><text style="text-anchor: middle; dominant-baseline: middle; font-size: 12px;" y="591.6604614257812" x="550.27685546875" id="rel1" class="er relationshipLabel">area</text><rect height="14" width="119.873046875" y="586.093994140625" x="572.3372192382812" class="er relationshipLabelBox"/><text style="text-anchor: middle; dominant-baseline: middle; font-size: 12px;" y="593.093994140625" x="632.2737426757812" id="rel2" class="er relationshipLabel">broadcastAffiliateOf</text><rect height="14" width="71.890625" y="597.6961669921875" x="634.8604125976562" class="er relationshipLabelBox"/><text style="text-anchor: middle; dominant-baseline: middle; font-size: 12px;" y="604.6961669921875" x="670.8057250976562" id="rel3" class="er relationshipLabel">broadcaster</text><rect height="14" width="130.609375" y="600.8277587890625" x="696.6324462890625" class="er relationshipLabelBox"/><text style="text-anchor: middle; dominant-baseline: middle; font-size: 12px;" y="607.8277587890625" x="761.9371337890625" id="rel4" class="er relationshipLabel">hasBroadcastChannel</text><rect height="14" width="83.6875" y="361" x="1318.5343017578125" class="er relationshipLabelBox"/><text style="text-anchor: middle; dominant-baseline: middle; font-size: 12px;" y="368" x="1360.3780517578125" id="rel5" class="er relationshipLabel">parentService</text><rect height="14" width="100.390625" y="622.4625244140625" x="829.7443237304688" class="er relationshipLabelBox"/><text style="text-anchor: middle; dominant-baseline: middle; font-size: 12px;" y="629.4625244140625" x="879.9396362304688" id="rel6" class="er relationshipLabel">aggregateRating</text><rect height="14" width="54.890625" y="654.046630859375" x="935.5167236328125" class="er relationshipLabelBox"/><text style="text-anchor: middle; dominant-baseline: middle; font-size: 12px;" y="661.046630859375" x="962.9620361328125" id="rel7" class="er relationshipLabel">audience</text><rect height="14" width="103.4375" y="759" x="1107.4532470703125" class="er relationshipLabelBox"/><text style="text-anchor: middle; dominant-baseline: middle; font-size: 12px;" y="766" x="1159.1719970703125" id="rel8" class="er relationshipLabel">availableChannel</text><rect height="14" width="94.453125" y="676.479736328125" x="1280.032958984375" class="er relationshipLabelBox"/><text style="text-anchor: middle; dominant-baseline: middle; font-size: 12px;" y="683.479736328125" x="1327.259521484375" id="rel9" class="er relationshipLabel">hasCertification</text><rect height="14" width="97.328125" y="623.7655639648438" x="1385.0037841796875" class="er relationshipLabelBox"/><text style="text-anchor: middle; dominant-baseline: middle; font-size: 12px;" y="630.7655639648438" x="1433.6678466796875" id="rel10" class="er relationshipLabel">hasOfferCatalog</text><rect height="14" width="88.0625" y="600.5332641601562" x="1514.7750244140625" class="er relationshipLabelBox"/><text style="text-anchor: middle; dominant-baseline: middle; font-size: 12px;" y="607.5332641601562" x="1558.8062744140625" id="rel11" class="er relationshipLabel">hoursAvailable</text><rect height="14" width="55.09375" y="598.0606079101562" x="1630.6591796875" class="er relationshipLabelBox"/><text style="text-anchor: middle; dominant-baseline: middle; font-size: 12px;" y="605.0606079101562" x="1658.2060546875" id="rel12" class="er relationshipLabel">produces</text><rect height="14" width="39.87109375" y="584.0991821289062" x="1760.4420166015625" class="er relationshipLabelBox"/><text style="text-anchor: middle; dominant-baseline: middle; font-size: 12px;" y="591.0991821289062" x="1780.3775634765625" id="rel13" class="er relationshipLabel">review</text><rect height="14" width="98.71875" y="717.3992919921875" x="969.3765869140625" class="er relationshipLabelBox"/><text style="text-anchor: middle; dominant-baseline: middle; font-size: 12px;" y="724.3992919921875" x="1018.7359619140625" id="rel14" class="er relationshipLabel">serviceAudience</text><rect height="14" width="84.962890625" y="585.3789672851562" x="1656.7957763671875" class="er relationshipLabelBox"/><text style="text-anchor: middle; dominant-baseline: middle; font-size: 12px;" y="592.3789672851562" x="1699.2772216796875" id="rel15" class="er relationshipLabel">serviceOutput</text><rect height="14" width="90.96875" y="580.363037109375" x="1834.1678466796875" class="er relationshipLabelBox"/><text style="text-anchor: middle; dominant-baseline: middle; font-size: 12px;" y="587.363037109375" x="1879.6522216796875" id="rel16" class="er relationshipLabel">potentialAction</text></svg>