<svg aria-roledescription="er" role="graphics-document document" viewBox="0 0 1897.046875 869" style="max-width: 1897.05px; background-color: white;" xmlns:xlink="http://www.w3.org/1999/xlink" xmlns="http://www.w3.org/2000/svg" width="100%" id="my-svg"><style>#my-svg{font-family:"trebuchet ms",verdana,arial,sans-serif;font-size:16px;fill:#333;}#my-svg .error-icon{fill:#552222;}#my-svg .error-text{fill:#552222;stroke:#552222;}#my-svg .edge-thickness-normal{stroke-width:1px;}#my-svg .edge-thickness-thick{stroke-width:3.5px;}#my-svg .edge-pattern-solid{stroke-dasharray:0;}#my-svg .edge-thickness-invisible{stroke-width:0;fill:none;}#my-svg .edge-pattern-dashed{stroke-dasharray:3;}#my-svg .edge-pattern-dotted{stroke-dasharray:2;}#my-svg .marker{fill:#333333;stroke:#333333;}#my-svg .marker.cross{stroke:#333333;}#my-svg svg{font-family:"trebuchet ms",verdana,arial,sans-serif;font-size:16px;}#my-svg p{margin:0;}#my-svg .entityBox{fill:#ECECFF;stroke:#9370DB;}#my-svg .attributeBoxOdd{fill:#ffffff;stroke:#9370DB;}#my-svg .attributeBoxEven{fill:#f2f2f2;stroke:#9370DB;}#my-svg .relationshipLabelBox{fill:hsl(80, 100%, 96.2745098039%);opacity:0.7;background-color:hsl(80, 100%, 96.2745098039%);}#my-svg .relationshipLabelBox rect{opacity:0.5;}#my-svg .relationshipLine{stroke:#333333;}#my-svg .entityTitleText{text-anchor:middle;font-size:18px;fill:#333;}#my-svg #MD_PARENT_START{fill:#f5f5f5!important;stroke:#333333!important;stroke-width:1;}#my-svg #MD_PARENT_END{fill:#f5f5f5!important;stroke:#333333!important;stroke-width:1;}#my-svg :root{--mermaid-font-family:"trebuchet ms",verdana,arial,sans-serif;}</style><g/><defs><marker orient="auto" markerHeight="240" markerWidth="190" refY="7" refX="0" id="MD_PARENT_START"><path d="M 18,7 L9,13 L1,7 L9,1 Z"/></marker></defs><defs><marker orient="auto" markerHeight="28" markerWidth="20" refY="7" refX="19" id="MD_PARENT_END"><path d="M 18,7 L9,13 L1,7 L9,1 Z"/></marker></defs><defs><marker orient="auto" markerHeight="18" markerWidth="18" refY="9" refX="0" id="ONLY_ONE_START"><path d="M9,0 L9,18 M15,0 L15,18" fill="none" stroke="gray"/></marker></defs><defs><marker orient="auto" markerHeight="18" markerWidth="18" refY="9" refX="18" id="ONLY_ONE_END"><path d="M3,0 L3,18 M9,0 L9,18" fill="none" stroke="gray"/></marker></defs><defs><marker orient="auto" markerHeight="18" markerWidth="30" refY="9" refX="0" id="ZERO_OR_ONE_START"><circle r="6" cy="9" cx="21" fill="white" stroke="gray"/><path d="M9,0 L9,18" fill="none" stroke="gray"/></marker></defs><defs><marker orient="auto" markerHeight="18" markerWidth="30" refY="9" refX="30" id="ZERO_OR_ONE_END"><circle r="6" cy="9" cx="9" fill="white" stroke="gray"/><path d="M21,0 L21,18" fill="none" stroke="gray"/></marker></defs><defs><marker orient="auto" markerHeight="36" markerWidth="45" refY="18" refX="18" id="ONE_OR_MORE_START"><path d="M0,18 Q 18,0 36,18 Q 18,36 0,18 M42,9 L42,27" fill="none" stroke="gray"/></marker></defs><defs><marker orient="auto" markerHeight="36" markerWidth="45" refY="18" refX="27" id="ONE_OR_MORE_END"><path d="M3,9 L3,27 M9,18 Q27,0 45,18 Q27,36 9,18" fill="none" stroke="gray"/></marker></defs><defs><marker orient="auto" markerHeight="36" markerWidth="57" refY="18" refX="18" id="ZERO_OR_MORE_START"><circle r="6" cy="18" cx="48" fill="white" stroke="gray"/><path d="M0,18 Q18,0 36,18 Q18,36 0,18" fill="none" stroke="gray"/></marker></defs><defs><marker orient="auto" markerHeight="36" markerWidth="57" refY="18" refX="39" id="ZERO_OR_MORE_END"><circle r="6" cy="18" cx="9" fill="white" stroke="gray"/><path d="M21,18 Q39,0 57,18 Q39,36 21,18" fill="none" stroke="gray"/></marker></defs><path style="stroke: gray; fill: none;" marker-start="url(#ONLY_ONE_START)" marker-end="url(#ZERO_OR_MORE_END)" d="M810.539,400.786L689.72,454.655C568.901,508.524,327.263,616.262,206.444,678.464C85.625,740.667,85.625,757.333,85.625,765.667L85.625,774" class="er relationshipLine"/><path style="stroke: gray; fill: none;" marker-start="url(#ONLY_ONE_START)" marker-end="url(#ZERO_OR_MORE_END)" d="M810.539,413.128L716.022,464.94C621.505,516.752,432.471,620.376,343.46,680.521C254.449,740.667,265.461,757.333,270.967,765.667L276.473,774" class="er relationshipLine"/><path style="stroke: gray; fill: none;" marker-start="url(#ONLY_ONE_START)" marker-end="url(#ZERO_OR_MORE_END)" d="M810.539,455.772L760.96,500.477C711.38,545.181,612.221,634.591,562.642,687.629C513.063,740.667,513.063,757.333,513.063,765.667L513.063,774" class="er relationshipLine"/><path style="stroke: gray; fill: none;" marker-start="url(#ONLY_ONE_START)" marker-end="url(#ZERO_OR_MORE_END)" d="M810.539,569.194L796.531,594.995C782.523,620.796,754.508,672.398,740.5,706.532C726.492,740.667,726.492,757.333,726.492,765.667L726.492,774" class="er relationshipLine"/><path style="stroke: gray; fill: none;" marker-start="url(#ONLY_ONE_START)" marker-end="url(#ZERO_OR_MORE_END)" d="M931.172,674L931.172,682.333C931.172,690.667,931.172,707.333,931.172,724C931.172,740.667,931.172,757.333,931.172,765.667L931.172,774" class="er relationshipLine"/><path style="stroke: gray; fill: none;" marker-start="url(#ONLY_ONE_START)" marker-end="url(#ZERO_OR_MORE_END)" d="M1051.805,529.302L1073.277,561.751C1094.75,594.201,1137.695,659.101,1159.168,699.884C1180.641,740.667,1180.641,757.333,1180.641,765.667L1180.641,774" class="er relationshipLine"/><path style="stroke: gray; fill: none;" marker-start="url(#ONLY_ONE_START)" marker-end="url(#ZERO_OR_MORE_END)" d="M1051.805,454.598L1102.145,499.498C1152.484,544.399,1253.164,634.199,1310.476,687.433C1367.787,740.667,1381.731,757.333,1388.702,765.667L1395.674,774" class="er relationshipLine"/><path style="stroke: gray; fill: none;" marker-start="url(#ONLY_ONE_START)" marker-end="url(#ZERO_OR_MORE_END)" d="M1051.805,412.355L1147.678,464.295C1243.552,516.236,1435.299,620.118,1531.173,680.392C1627.047,740.667,1627.047,757.333,1627.047,765.667L1627.047,774" class="er relationshipLine"/><path style="stroke: gray; fill: none;" marker-start="url(#ONLY_ONE_START)" marker-end="url(#ZERO_OR_MORE_END)" d="M810.539,426.229L734.975,475.857C659.411,525.486,508.284,624.743,427.396,682.705C346.507,740.667,335.859,757.333,330.534,765.667L325.21,774" class="er relationshipLine"/><path style="stroke: gray; fill: none;" marker-start="url(#ONLY_ONE_START)" marker-end="url(#ZERO_OR_MORE_END)" d="M1051.805,430.313L1122.678,479.261C1193.552,528.209,1335.299,626.104,1401.411,683.386C1467.523,740.667,1457.999,757.333,1453.237,765.667L1448.475,774" class="er relationshipLine"/><path style="stroke: gray; fill: none;" marker-start="url(#ONLY_ONE_START)" marker-end="url(#ZERO_OR_MORE_END)" d="M1051.805,397.764L1181.012,452.137C1310.219,506.51,1568.633,615.255,1697.84,677.961C1827.047,740.667,1827.047,757.333,1827.047,765.667L1827.047,774" class="er relationshipLine"/><g transform="translate(810.5390625,20 )" id="entity-BrokerageAccount-ef948474-7045-5609-b64d-ec7c57093b97"><rect height="654" width="241.265625" y="0" x="0" class="er entityBox"/><text style="dominant-baseline: middle; text-anchor: middle; font-size: 12px;" transform="translate(120.6328125,12)" y="0" x="0" id="text-entity-BrokerageAccount-ef948474-7045-5609-b64d-ec7c57093b97" class="er entityLabel">BrokerageAccount</text><rect height="21" width="57.0625" y="24" x="0" class="er attributeBoxOdd"/><text style="dominant-baseline: middle; font-size: 10.2px;" transform="translate(5,34.5)" y="0" x="0" id="text-entity-BrokerageAccount-ef948474-7045-5609-b64d-ec7c57093b97-attr-1-type" class="er entityLabel">stringList</text><rect height="21" width="184.203125" y="24" x="57.0625" class="er attributeBoxOdd"/><text style="dominant-baseline: middle; font-size: 10.2px;" transform="translate(62.0625,34.5)" y="0" x="0" id="text-entity-BrokerageAccount-ef948474-7045-5609-b64d-ec7c57093b97-attr-1-name" class="er entityLabel">amount</text><rect height="21" width="57.0625" y="45" x="0" class="er attributeBoxEven"/><text style="dominant-baseline: middle; font-size: 10.2px;" transform="translate(5,55.5)" y="0" x="0" id="text-entity-BrokerageAccount-ef948474-7045-5609-b64d-ec7c57093b97-attr-2-type" class="er entityLabel">stringList</text><rect height="21" width="184.203125" y="45" x="57.0625" class="er attributeBoxEven"/><text style="dominant-baseline: middle; font-size: 10.2px;" transform="translate(62.0625,55.5)" y="0" x="0" id="text-entity-BrokerageAccount-ef948474-7045-5609-b64d-ec7c57093b97-attr-2-name" class="er entityLabel">annualPercentageRate</text><rect height="21" width="57.0625" y="66" x="0" class="er attributeBoxOdd"/><text style="dominant-baseline: middle; font-size: 10.2px;" transform="translate(5,76.5)" y="0" x="0" id="text-entity-BrokerageAccount-ef948474-7045-5609-b64d-ec7c57093b97-attr-3-type" class="er entityLabel">stringList</text><rect height="21" width="184.203125" y="66" x="57.0625" class="er attributeBoxOdd"/><text style="dominant-baseline: middle; font-size: 10.2px;" transform="translate(62.0625,76.5)" y="0" x="0" id="text-entity-BrokerageAccount-ef948474-7045-5609-b64d-ec7c57093b97-attr-3-name" class="er entityLabel">feesAndCommissionsSpecification</text><rect height="21" width="57.0625" y="87" x="0" class="er attributeBoxEven"/><text style="dominant-baseline: middle; font-size: 10.2px;" transform="translate(5,97.5)" y="0" x="0" id="text-entity-BrokerageAccount-ef948474-7045-5609-b64d-ec7c57093b97-attr-4-type" class="er entityLabel">stringList</text><rect height="21" width="184.203125" y="87" x="57.0625" class="er attributeBoxEven"/><text style="dominant-baseline: middle; font-size: 10.2px;" transform="translate(62.0625,97.5)" y="0" x="0" id="text-entity-BrokerageAccount-ef948474-7045-5609-b64d-ec7c57093b97-attr-4-name" class="er entityLabel">interestRate</text><rect height="21" width="57.0625" y="108" x="0" class="er attributeBoxOdd"/><text style="dominant-baseline: middle; font-size: 10.2px;" transform="translate(5,118.5)" y="0" x="0" id="text-entity-BrokerageAccount-ef948474-7045-5609-b64d-ec7c57093b97-attr-5-type" class="er entityLabel">stringList</text><rect height="21" width="184.203125" y="108" x="57.0625" class="er attributeBoxOdd"/><text style="dominant-baseline: middle; font-size: 10.2px;" transform="translate(62.0625,118.5)" y="0" x="0" id="text-entity-BrokerageAccount-ef948474-7045-5609-b64d-ec7c57093b97-attr-5-name" class="er entityLabel">areaServed</text><rect height="21" width="57.0625" y="129" x="0" class="er attributeBoxEven"/><text style="dominant-baseline: middle; font-size: 10.2px;" transform="translate(5,139.5)" y="0" x="0" id="text-entity-BrokerageAccount-ef948474-7045-5609-b64d-ec7c57093b97-attr-6-type" class="er entityLabel">stringList</text><rect height="21" width="184.203125" y="129" x="57.0625" class="er attributeBoxEven"/><text style="dominant-baseline: middle; font-size: 10.2px;" transform="translate(62.0625,139.5)" y="0" x="0" id="text-entity-BrokerageAccount-ef948474-7045-5609-b64d-ec7c57093b97-attr-6-name" class="er entityLabel">category</text><rect height="21" width="57.0625" y="150" x="0" class="er attributeBoxOdd"/><text style="dominant-baseline: middle; font-size: 10.2px;" transform="translate(5,160.5)" y="0" x="0" id="text-entity-BrokerageAccount-ef948474-7045-5609-b64d-ec7c57093b97-attr-7-type" class="er entityLabel">stringList</text><rect height="21" width="184.203125" y="150" x="57.0625" class="er attributeBoxOdd"/><text style="dominant-baseline: middle; font-size: 10.2px;" transform="translate(62.0625,160.5)" y="0" x="0" id="text-entity-BrokerageAccount-ef948474-7045-5609-b64d-ec7c57093b97-attr-7-name" class="er entityLabel">logo</text><rect height="21" width="57.0625" y="171" x="0" class="er attributeBoxEven"/><text style="dominant-baseline: middle; font-size: 10.2px;" transform="translate(5,181.5)" y="0" x="0" id="text-entity-BrokerageAccount-ef948474-7045-5609-b64d-ec7c57093b97-attr-8-type" class="er entityLabel">TextList</text><rect height="21" width="184.203125" y="171" x="57.0625" class="er attributeBoxEven"/><text style="dominant-baseline: middle; font-size: 10.2px;" transform="translate(62.0625,181.5)" y="0" x="0" id="text-entity-BrokerageAccount-ef948474-7045-5609-b64d-ec7c57093b97-attr-8-name" class="er entityLabel">award</text><rect height="21" width="57.0625" y="192" x="0" class="er attributeBoxOdd"/><text style="dominant-baseline: middle; font-size: 10.2px;" transform="translate(5,202.5)" y="0" x="0" id="text-entity-BrokerageAccount-ef948474-7045-5609-b64d-ec7c57093b97-attr-9-type" class="er entityLabel">stringList</text><rect height="21" width="184.203125" y="192" x="57.0625" class="er attributeBoxOdd"/><text style="dominant-baseline: middle; font-size: 10.2px;" transform="translate(62.0625,202.5)" y="0" x="0" id="text-entity-BrokerageAccount-ef948474-7045-5609-b64d-ec7c57093b97-attr-9-name" class="er entityLabel">brand</text><rect height="21" width="57.0625" y="213" x="0" class="er attributeBoxEven"/><text style="dominant-baseline: middle; font-size: 10.2px;" transform="translate(5,223.5)" y="0" x="0" id="text-entity-BrokerageAccount-ef948474-7045-5609-b64d-ec7c57093b97-attr-10-type" class="er entityLabel">stringList</text><rect height="21" width="184.203125" y="213" x="57.0625" class="er attributeBoxEven"/><text style="dominant-baseline: middle; font-size: 10.2px;" transform="translate(62.0625,223.5)" y="0" x="0" id="text-entity-BrokerageAccount-ef948474-7045-5609-b64d-ec7c57093b97-attr-10-name" class="er entityLabel">broker</text><rect height="21" width="57.0625" y="234" x="0" class="er attributeBoxOdd"/><text style="dominant-baseline: middle; font-size: 10.2px;" transform="translate(5,244.5)" y="0" x="0" id="text-entity-BrokerageAccount-ef948474-7045-5609-b64d-ec7c57093b97-attr-11-type" class="er entityLabel">stringList</text><rect height="21" width="184.203125" y="234" x="57.0625" class="er attributeBoxOdd"/><text style="dominant-baseline: middle; font-size: 10.2px;" transform="translate(62.0625,244.5)" y="0" x="0" id="text-entity-BrokerageAccount-ef948474-7045-5609-b64d-ec7c57093b97-attr-11-name" class="er entityLabel">isRelatedTo</text><rect height="21" width="57.0625" y="255" x="0" class="er attributeBoxEven"/><text style="dominant-baseline: middle; font-size: 10.2px;" transform="translate(5,265.5)" y="0" x="0" id="text-entity-BrokerageAccount-ef948474-7045-5609-b64d-ec7c57093b97-attr-12-type" class="er entityLabel">stringList</text><rect height="21" width="184.203125" y="255" x="57.0625" class="er attributeBoxEven"/><text style="dominant-baseline: middle; font-size: 10.2px;" transform="translate(62.0625,265.5)" y="0" x="0" id="text-entity-BrokerageAccount-ef948474-7045-5609-b64d-ec7c57093b97-attr-12-name" class="er entityLabel">isSimilarTo</text><rect height="21" width="57.0625" y="276" x="0" class="er attributeBoxOdd"/><text style="dominant-baseline: middle; font-size: 10.2px;" transform="translate(5,286.5)" y="0" x="0" id="text-entity-BrokerageAccount-ef948474-7045-5609-b64d-ec7c57093b97-attr-13-type" class="er entityLabel">stringList</text><rect height="21" width="184.203125" y="276" x="57.0625" class="er attributeBoxOdd"/><text style="dominant-baseline: middle; font-size: 10.2px;" transform="translate(62.0625,286.5)" y="0" x="0" id="text-entity-BrokerageAccount-ef948474-7045-5609-b64d-ec7c57093b97-attr-13-name" class="er entityLabel">offers</text><rect height="21" width="57.0625" y="297" x="0" class="er attributeBoxEven"/><text style="dominant-baseline: middle; font-size: 10.2px;" transform="translate(5,307.5)" y="0" x="0" id="text-entity-BrokerageAccount-ef948474-7045-5609-b64d-ec7c57093b97-attr-14-type" class="er entityLabel">stringList</text><rect height="21" width="184.203125" y="297" x="57.0625" class="er attributeBoxEven"/><text style="dominant-baseline: middle; font-size: 10.2px;" transform="translate(62.0625,307.5)" y="0" x="0" id="text-entity-BrokerageAccount-ef948474-7045-5609-b64d-ec7c57093b97-attr-14-name" class="er entityLabel">provider</text><rect height="21" width="57.0625" y="318" x="0" class="er attributeBoxOdd"/><text style="dominant-baseline: middle; font-size: 10.2px;" transform="translate(5,328.5)" y="0" x="0" id="text-entity-BrokerageAccount-ef948474-7045-5609-b64d-ec7c57093b97-attr-15-type" class="er entityLabel">TextList</text><rect height="21" width="184.203125" y="318" x="57.0625" class="er attributeBoxOdd"/><text style="dominant-baseline: middle; font-size: 10.2px;" transform="translate(62.0625,328.5)" y="0" x="0" id="text-entity-BrokerageAccount-ef948474-7045-5609-b64d-ec7c57093b97-attr-15-name" class="er entityLabel">providerMobility</text><rect height="21" width="57.0625" y="339" x="0" class="er attributeBoxEven"/><text style="dominant-baseline: middle; font-size: 10.2px;" transform="translate(5,349.5)" y="0" x="0" id="text-entity-BrokerageAccount-ef948474-7045-5609-b64d-ec7c57093b97-attr-16-type" class="er entityLabel">stringList</text><rect height="21" width="184.203125" y="339" x="57.0625" class="er attributeBoxEven"/><text style="dominant-baseline: middle; font-size: 10.2px;" transform="translate(62.0625,349.5)" y="0" x="0" id="text-entity-BrokerageAccount-ef948474-7045-5609-b64d-ec7c57093b97-attr-16-name" class="er entityLabel">serviceArea</text><rect height="21" width="57.0625" y="360" x="0" class="er attributeBoxOdd"/><text style="dominant-baseline: middle; font-size: 10.2px;" transform="translate(5,370.5)" y="0" x="0" id="text-entity-BrokerageAccount-ef948474-7045-5609-b64d-ec7c57093b97-attr-17-type" class="er entityLabel">stringList</text><rect height="21" width="184.203125" y="360" x="57.0625" class="er attributeBoxOdd"/><text style="dominant-baseline: middle; font-size: 10.2px;" transform="translate(62.0625,370.5)" y="0" x="0" id="text-entity-BrokerageAccount-ef948474-7045-5609-b64d-ec7c57093b97-attr-17-name" class="er entityLabel">serviceType</text><rect height="21" width="57.0625" y="381" x="0" class="er attributeBoxEven"/><text style="dominant-baseline: middle; font-size: 10.2px;" transform="translate(5,391.5)" y="0" x="0" id="text-entity-BrokerageAccount-ef948474-7045-5609-b64d-ec7c57093b97-attr-18-type" class="er entityLabel">TextList</text><rect height="21" width="184.203125" y="381" x="57.0625" class="er attributeBoxEven"/><text style="dominant-baseline: middle; font-size: 10.2px;" transform="translate(62.0625,391.5)" y="0" x="0" id="text-entity-BrokerageAccount-ef948474-7045-5609-b64d-ec7c57093b97-attr-18-name" class="er entityLabel">slogan</text><rect height="21" width="57.0625" y="402" x="0" class="er attributeBoxOdd"/><text style="dominant-baseline: middle; font-size: 10.2px;" transform="translate(5,412.5)" y="0" x="0" id="text-entity-BrokerageAccount-ef948474-7045-5609-b64d-ec7c57093b97-attr-19-type" class="er entityLabel">stringList</text><rect height="21" width="184.203125" y="402" x="57.0625" class="er attributeBoxOdd"/><text style="dominant-baseline: middle; font-size: 10.2px;" transform="translate(62.0625,412.5)" y="0" x="0" id="text-entity-BrokerageAccount-ef948474-7045-5609-b64d-ec7c57093b97-attr-19-name" class="er entityLabel">termsOfService</text><rect height="21" width="57.0625" y="423" x="0" class="er attributeBoxEven"/><text style="dominant-baseline: middle; font-size: 10.2px;" transform="translate(5,433.5)" y="0" x="0" id="text-entity-BrokerageAccount-ef948474-7045-5609-b64d-ec7c57093b97-attr-20-type" class="er entityLabel">stringList</text><rect height="21" width="184.203125" y="423" x="57.0625" class="er attributeBoxEven"/><text style="dominant-baseline: middle; font-size: 10.2px;" transform="translate(62.0625,433.5)" y="0" x="0" id="text-entity-BrokerageAccount-ef948474-7045-5609-b64d-ec7c57093b97-attr-20-name" class="er entityLabel">additionalType</text><rect height="21" width="57.0625" y="444" x="0" class="er attributeBoxOdd"/><text style="dominant-baseline: middle; font-size: 10.2px;" transform="translate(5,454.5)" y="0" x="0" id="text-entity-BrokerageAccount-ef948474-7045-5609-b64d-ec7c57093b97-attr-21-type" class="er entityLabel">TextList</text><rect height="21" width="184.203125" y="444" x="57.0625" class="er attributeBoxOdd"/><text style="dominant-baseline: middle; font-size: 10.2px;" transform="translate(62.0625,454.5)" y="0" x="0" id="text-entity-BrokerageAccount-ef948474-7045-5609-b64d-ec7c57093b97-attr-21-name" class="er entityLabel">alternateName</text><rect height="21" width="57.0625" y="465" x="0" class="er attributeBoxEven"/><text style="dominant-baseline: middle; font-size: 10.2px;" transform="translate(5,475.5)" y="0" x="0" id="text-entity-BrokerageAccount-ef948474-7045-5609-b64d-ec7c57093b97-attr-22-type" class="er entityLabel">stringList</text><rect height="21" width="184.203125" y="465" x="57.0625" class="er attributeBoxEven"/><text style="dominant-baseline: middle; font-size: 10.2px;" transform="translate(62.0625,475.5)" y="0" x="0" id="text-entity-BrokerageAccount-ef948474-7045-5609-b64d-ec7c57093b97-attr-22-name" class="er entityLabel">description</text><rect height="21" width="57.0625" y="486" x="0" class="er attributeBoxOdd"/><text style="dominant-baseline: middle; font-size: 10.2px;" transform="translate(5,496.5)" y="0" x="0" id="text-entity-BrokerageAccount-ef948474-7045-5609-b64d-ec7c57093b97-attr-23-type" class="er entityLabel">TextList</text><rect height="21" width="184.203125" y="486" x="57.0625" class="er attributeBoxOdd"/><text style="dominant-baseline: middle; font-size: 10.2px;" transform="translate(62.0625,496.5)" y="0" x="0" id="text-entity-BrokerageAccount-ef948474-7045-5609-b64d-ec7c57093b97-attr-23-name" class="er entityLabel">disambiguatingDescription</text><rect height="21" width="57.0625" y="507" x="0" class="er attributeBoxEven"/><text style="dominant-baseline: middle; font-size: 10.2px;" transform="translate(5,517.5)" y="0" x="0" id="text-entity-BrokerageAccount-ef948474-7045-5609-b64d-ec7c57093b97-attr-24-type" class="er entityLabel">stringList</text><rect height="21" width="184.203125" y="507" x="57.0625" class="er attributeBoxEven"/><text style="dominant-baseline: middle; font-size: 10.2px;" transform="translate(62.0625,517.5)" y="0" x="0" id="text-entity-BrokerageAccount-ef948474-7045-5609-b64d-ec7c57093b97-attr-24-name" class="er entityLabel">identifier</text><rect height="21" width="57.0625" y="528" x="0" class="er attributeBoxOdd"/><text style="dominant-baseline: middle; font-size: 10.2px;" transform="translate(5,538.5)" y="0" x="0" id="text-entity-BrokerageAccount-ef948474-7045-5609-b64d-ec7c57093b97-attr-25-type" class="er entityLabel">stringList</text><rect height="21" width="184.203125" y="528" x="57.0625" class="er attributeBoxOdd"/><text style="dominant-baseline: middle; font-size: 10.2px;" transform="translate(62.0625,538.5)" y="0" x="0" id="text-entity-BrokerageAccount-ef948474-7045-5609-b64d-ec7c57093b97-attr-25-name" class="er entityLabel">image</text><rect height="21" width="57.0625" y="549" x="0" class="er attributeBoxEven"/><text style="dominant-baseline: middle; font-size: 10.2px;" transform="translate(5,559.5)" y="0" x="0" id="text-entity-BrokerageAccount-ef948474-7045-5609-b64d-ec7c57093b97-attr-26-type" class="er entityLabel">TextList</text><rect height="21" width="184.203125" y="549" x="57.0625" class="er attributeBoxEven"/><text style="dominant-baseline: middle; font-size: 10.2px;" transform="translate(62.0625,559.5)" y="0" x="0" id="text-entity-BrokerageAccount-ef948474-7045-5609-b64d-ec7c57093b97-attr-26-name" class="er entityLabel">name</text><rect height="21" width="57.0625" y="570" x="0" class="er attributeBoxOdd"/><text style="dominant-baseline: middle; font-size: 10.2px;" transform="translate(5,580.5)" y="0" x="0" id="text-entity-BrokerageAccount-ef948474-7045-5609-b64d-ec7c57093b97-attr-27-type" class="er entityLabel">URLList</text><rect height="21" width="184.203125" y="570" x="57.0625" class="er attributeBoxOdd"/><text style="dominant-baseline: middle; font-size: 10.2px;" transform="translate(62.0625,580.5)" y="0" x="0" id="text-entity-BrokerageAccount-ef948474-7045-5609-b64d-ec7c57093b97-attr-27-name" class="er entityLabel">sameAs</text><rect height="21" width="57.0625" y="591" x="0" class="er attributeBoxEven"/><text style="dominant-baseline: middle; font-size: 10.2px;" transform="translate(5,601.5)" y="0" x="0" id="text-entity-BrokerageAccount-ef948474-7045-5609-b64d-ec7c57093b97-attr-28-type" class="er entityLabel">stringList</text><rect height="21" width="184.203125" y="591" x="57.0625" class="er attributeBoxEven"/><text style="dominant-baseline: middle; font-size: 10.2px;" transform="translate(62.0625,601.5)" y="0" x="0" id="text-entity-BrokerageAccount-ef948474-7045-5609-b64d-ec7c57093b97-attr-28-name" class="er entityLabel">mainEntityOfPage</text><rect height="21" width="57.0625" y="612" x="0" class="er attributeBoxOdd"/><text style="dominant-baseline: middle; font-size: 10.2px;" transform="translate(5,622.5)" y="0" x="0" id="text-entity-BrokerageAccount-ef948474-7045-5609-b64d-ec7c57093b97-attr-29-type" class="er entityLabel">stringList</text><rect height="21" width="184.203125" y="612" x="57.0625" class="er attributeBoxOdd"/><text style="dominant-baseline: middle; font-size: 10.2px;" transform="translate(62.0625,622.5)" y="0" x="0" id="text-entity-BrokerageAccount-ef948474-7045-5609-b64d-ec7c57093b97-attr-29-name" class="er entityLabel">subjectOf</text><rect height="21" width="57.0625" y="633" x="0" class="er attributeBoxEven"/><text style="dominant-baseline: middle; font-size: 10.2px;" transform="translate(5,643.5)" y="0" x="0" id="text-entity-BrokerageAccount-ef948474-7045-5609-b64d-ec7c57093b97-attr-30-type" class="er entityLabel">URLList</text><rect height="21" width="184.203125" y="633" x="57.0625" class="er attributeBoxEven"/><text style="dominant-baseline: middle; font-size: 10.2px;" transform="translate(62.0625,643.5)" y="0" x="0" id="text-entity-BrokerageAccount-ef948474-7045-5609-b64d-ec7c57093b97-attr-30-name" class="er entityLabel">url</text></g><g transform="translate(20,774 )" id="entity-AggregateRating-aa0a8837-178a-57ab-baa0-94ad30d90eb5"><rect height="75" width="131.25" y="0" x="0" class="er entityBox"/><text style="dominant-baseline: middle; text-anchor: middle; font-size: 12px;" transform="translate(65.625,37.5)" y="0" x="0" id="text-entity-AggregateRating-aa0a8837-178a-57ab-baa0-94ad30d90eb5" class="er entityLabel">AggregateRating</text></g><g transform="translate(251.25,774 )" id="entity-Audience-f784d19a-7c58-5869-868f-14b9086fca44"><rect height="75" width="100" y="0" x="0" class="er entityBox"/><text style="dominant-baseline: middle; text-anchor: middle; font-size: 12px;" transform="translate(50,37.5)" y="0" x="0" id="text-entity-Audience-f784d19a-7c58-5869-868f-14b9086fca44" class="er entityLabel">Audience</text></g><g transform="translate(451.25,774 )" id="entity-ServiceChannel-5f9e70a6-8dc6-5d0f-a871-3e775d52af1b"><rect height="75" width="123.625" y="0" x="0" class="er entityBox"/><text style="dominant-baseline: middle; text-anchor: middle; font-size: 12px;" transform="translate(61.8125,37.5)" y="0" x="0" id="text-entity-ServiceChannel-5f9e70a6-8dc6-5d0f-a871-3e775d52af1b" class="er entityLabel">ServiceChannel</text></g><g transform="translate(674.875,774 )" id="entity-Certification-8b250de0-929b-5806-8c87-f8e7c928ef36"><rect height="75" width="103.234375" y="0" x="0" class="er entityBox"/><text style="dominant-baseline: middle; text-anchor: middle; font-size: 12px;" transform="translate(51.6171875,37.5)" y="0" x="0" id="text-entity-Certification-8b250de0-929b-5806-8c87-f8e7c928ef36" class="er entityLabel">Certification</text></g><g transform="translate(878.109375,774 )" id="entity-OfferCatalog-e4b8efcd-db96-5dc8-b042-81a3acf3e3fe"><rect height="75" width="106.125" y="0" x="0" class="er entityBox"/><text style="dominant-baseline: middle; text-anchor: middle; font-size: 12px;" transform="translate(53.0625,37.5)" y="0" x="0" id="text-entity-OfferCatalog-e4b8efcd-db96-5dc8-b042-81a3acf3e3fe" class="er entityLabel">OfferCatalog</text></g><g transform="translate(1084.234375,774 )" id="entity-OpeningHoursSpecification-677aa64f-a506-5d18-b5d1-75a0f22f6986"><rect height="75" width="192.8125" y="0" x="0" class="er entityBox"/><text style="dominant-baseline: middle; text-anchor: middle; font-size: 12px;" transform="translate(96.40625,37.5)" y="0" x="0" id="text-entity-OpeningHoursSpecification-677aa64f-a506-5d18-b5d1-75a0f22f6986" class="er entityLabel">OpeningHoursSpecification</text></g><g transform="translate(1377.046875,774 )" id="entity-Thing-27bc9527-b992-59fc-a0fb-da83e2ff80bf"><rect height="75" width="100" y="0" x="0" class="er entityBox"/><text style="dominant-baseline: middle; text-anchor: middle; font-size: 12px;" transform="translate(50,37.5)" y="0" x="0" id="text-entity-Thing-27bc9527-b992-59fc-a0fb-da83e2ff80bf" class="er entityLabel">Thing</text></g><g transform="translate(1577.046875,774 )" id="entity-Review-77c92a79-8cff-50c0-9604-f9135763cccd"><rect height="75" width="100" y="0" x="0" class="er entityBox"/><text style="dominant-baseline: middle; text-anchor: middle; font-size: 12px;" transform="translate(50,37.5)" y="0" x="0" id="text-entity-Review-77c92a79-8cff-50c0-9604-f9135763cccd" class="er entityLabel">Review</text></g><g transform="translate(1777.046875,774 )" id="entity-Action-6cd87d9a-a078-546e-a35b-bee54f477b31"><rect height="75" width="100" y="0" x="0" class="er entityBox"/><text style="dominant-baseline: middle; text-anchor: middle; font-size: 12px;" transform="translate(50,37.5)" y="0" x="0" id="text-entity-Action-6cd87d9a-a078-546e-a35b-bee54f477b31" class="er entityLabel">Action</text></g><rect height="14" width="100.390625" y="562.931884765625" x="383.70367431640625" class="er relationshipLabelBox"/><text style="text-anchor: middle; dominant-baseline: middle; font-size: 12px;" y="569.931884765625" x="433.89898681640625" id="rel1" class="er relationshipLabel">aggregateRating</text><rect height="14" width="54.890625" y="568.0427856445312" x="490.68280029296875" class="er relationshipLabelBox"/><text style="text-anchor: middle; dominant-baseline: middle; font-size: 12px;" y="575.0427856445312" x="518.1281127929688" id="rel2" class="er relationshipLabel">audience</text><rect height="14" width="103.4375" y="597.6127319335938" x="595.4251098632812" class="er relationshipLabelBox"/><text style="text-anchor: middle; dominant-baseline: middle; font-size: 12px;" y="604.6127319335938" x="647.1438598632812" id="rel3" class="er relationshipLabel">availableChannel</text><rect height="14" width="94.453125" y="661.0599975585938" x="710.9716186523438" class="er relationshipLabelBox"/><text style="text-anchor: middle; dominant-baseline: middle; font-size: 12px;" y="668.0599975585938" x="758.1981811523438" id="rel4" class="er relationshipLabel">hasCertification</text><rect height="14" width="97.328125" y="717" x="882.5079345703125" class="er relationshipLabelBox"/><text style="text-anchor: middle; dominant-baseline: middle; font-size: 12px;" y="724" x="931.1719970703125" id="rel5" class="er relationshipLabel">hasOfferCatalog</text><rect height="14" width="88.0625" y="639.5961303710938" x="1084.0516357421875" class="er relationshipLabelBox"/><text style="text-anchor: middle; dominant-baseline: middle; font-size: 12px;" y="646.5961303710938" x="1128.0828857421875" id="rel6" class="er relationshipLabel">hoursAvailable</text><rect height="14" width="55.09375" y="604.1433715820312" x="1199.2528076171875" class="er relationshipLabelBox"/><text style="text-anchor: middle; dominant-baseline: middle; font-size: 12px;" y="611.1433715820312" x="1226.7996826171875" id="rel7" class="er relationshipLabel">produces</text><rect height="14" width="39.87109375" y="570.441650390625" x="1334.2437744140625" class="er relationshipLabelBox"/><text style="text-anchor: middle; dominant-baseline: middle; font-size: 12px;" y="577.441650390625" x="1354.1793212890625" id="rel8" class="er relationshipLabel">review</text><rect height="14" width="98.71875" y="584.2704467773438" x="511.2237548828125" class="er relationshipLabelBox"/><text style="text-anchor: middle; dominant-baseline: middle; font-size: 12px;" y="591.2704467773438" x="560.5831298828125" id="rel9" class="er relationshipLabel">serviceAudience</text><rect height="14" width="84.962890625" y="579.397705078125" x="1232.7298583984375" class="er relationshipLabelBox"/><text style="text-anchor: middle; dominant-baseline: middle; font-size: 12px;" y="586.397705078125" x="1275.2113037109375" id="rel10" class="er relationshipLabel">serviceOutput</text><rect height="14" width="90.96875" y="560.9638061523438" x="1407.9140625" class="er relationshipLabelBox"/><text style="text-anchor: middle; dominant-baseline: middle; font-size: 12px;" y="567.9638061523438" x="1453.3984375" id="rel11" class="er relationshipLabel">potentialAction</text></svg>