<svg aria-roledescription="er" role="graphics-document document" viewBox="-73.08707427978516 0 1163.0870361328125 512" style="max-width: 1163.09px; background-color: white;" xmlns:xlink="http://www.w3.org/1999/xlink" xmlns="http://www.w3.org/2000/svg" width="100%" id="my-svg"><style>#my-svg{font-family:"trebuchet ms",verdana,arial,sans-serif;font-size:16px;fill:#333;}#my-svg .error-icon{fill:#552222;}#my-svg .error-text{fill:#552222;stroke:#552222;}#my-svg .edge-thickness-normal{stroke-width:1px;}#my-svg .edge-thickness-thick{stroke-width:3.5px;}#my-svg .edge-pattern-solid{stroke-dasharray:0;}#my-svg .edge-thickness-invisible{stroke-width:0;fill:none;}#my-svg .edge-pattern-dashed{stroke-dasharray:3;}#my-svg .edge-pattern-dotted{stroke-dasharray:2;}#my-svg .marker{fill:#333333;stroke:#333333;}#my-svg .marker.cross{stroke:#333333;}#my-svg svg{font-family:"trebuchet ms",verdana,arial,sans-serif;font-size:16px;}#my-svg p{margin:0;}#my-svg .entityBox{fill:#ECECFF;stroke:#9370DB;}#my-svg .attributeBoxOdd{fill:#ffffff;stroke:#9370DB;}#my-svg .attributeBoxEven{fill:#f2f2f2;stroke:#9370DB;}#my-svg .relationshipLabelBox{fill:hsl(80, 100%, 96.2745098039%);opacity:0.7;background-color:hsl(80, 100%, 96.2745098039%);}#my-svg .relationshipLabelBox rect{opacity:0.5;}#my-svg .relationshipLine{stroke:#333333;}#my-svg .entityTitleText{text-anchor:middle;font-size:18px;fill:#333;}#my-svg #MD_PARENT_START{fill:#f5f5f5!important;stroke:#333333!important;stroke-width:1;}#my-svg #MD_PARENT_END{fill:#f5f5f5!important;stroke:#333333!important;stroke-width:1;}#my-svg :root{--mermaid-font-family:"trebuchet ms",verdana,arial,sans-serif;}</style><g/><defs><marker orient="auto" markerHeight="240" markerWidth="190" refY="7" refX="0" id="MD_PARENT_START"><path d="M 18,7 L9,13 L1,7 L9,1 Z"/></marker></defs><defs><marker orient="auto" markerHeight="28" markerWidth="20" refY="7" refX="19" id="MD_PARENT_END"><path d="M 18,7 L9,13 L1,7 L9,1 Z"/></marker></defs><defs><marker orient="auto" markerHeight="18" markerWidth="18" refY="9" refX="0" id="ONLY_ONE_START"><path d="M9,0 L9,18 M15,0 L15,18" fill="none" stroke="gray"/></marker></defs><defs><marker orient="auto" markerHeight="18" markerWidth="18" refY="9" refX="18" id="ONLY_ONE_END"><path d="M3,0 L3,18 M9,0 L9,18" fill="none" stroke="gray"/></marker></defs><defs><marker orient="auto" markerHeight="18" markerWidth="30" refY="9" refX="0" id="ZERO_OR_ONE_START"><circle r="6" cy="9" cx="21" fill="white" stroke="gray"/><path d="M9,0 L9,18" fill="none" stroke="gray"/></marker></defs><defs><marker orient="auto" markerHeight="18" markerWidth="30" refY="9" refX="30" id="ZERO_OR_ONE_END"><circle r="6" cy="9" cx="9" fill="white" stroke="gray"/><path d="M21,0 L21,18" fill="none" stroke="gray"/></marker></defs><defs><marker orient="auto" markerHeight="36" markerWidth="45" refY="18" refX="18" id="ONE_OR_MORE_START"><path d="M0,18 Q 18,0 36,18 Q 18,36 0,18 M42,9 L42,27" fill="none" stroke="gray"/></marker></defs><defs><marker orient="auto" markerHeight="36" markerWidth="45" refY="18" refX="27" id="ONE_OR_MORE_END"><path d="M3,9 L3,27 M9,18 Q27,0 45,18 Q27,36 9,18" fill="none" stroke="gray"/></marker></defs><defs><marker orient="auto" markerHeight="36" markerWidth="57" refY="18" refX="18" id="ZERO_OR_MORE_START"><circle r="6" cy="18" cx="48" fill="white" stroke="gray"/><path d="M0,18 Q18,0 36,18 Q18,36 0,18" fill="none" stroke="gray"/></marker></defs><defs><marker orient="auto" markerHeight="36" markerWidth="57" refY="18" refX="39" id="ZERO_OR_MORE_END"><circle r="6" cy="18" cx="9" fill="white" stroke="gray"/><path d="M21,18 Q39,0 57,18 Q39,36 21,18" fill="none" stroke="gray"/></marker></defs><path style="stroke: gray; fill: none;" marker-start="url(#ONLY_ONE_START)" marker-end="url(#ZERO_OR_MORE_END)" d="M290.352,200.12L220.293,227.934C150.234,255.747,10.117,311.373,-34.941,350.124C-80,388.875,-30,410.75,-5,421.688L20,432.625" class="er relationshipLine"/><path style="stroke: gray; fill: none;" marker-start="url(#ONLY_ONE_START)" marker-end="url(#ZERO_OR_MORE_END)" d="M290.352,208.026L236.96,234.521C183.568,261.017,76.784,314.009,32.916,348.838C-10.952,383.667,8.095,400.333,17.619,408.667L27.143,417" class="er relationshipLine"/><path style="stroke: gray; fill: none;" marker-start="url(#ONLY_ONE_START)" marker-end="url(#ZERO_OR_MORE_END)" d="M370,317L370,325.333C370,333.667,370,350.333,374.762,367C379.524,383.667,389.048,400.333,393.81,408.667L398.571,417" class="er relationshipLine"/><path style="stroke: gray; fill: none;" marker-start="url(#ONLY_ONE_START)" marker-end="url(#ZERO_OR_MORE_END)" d="M444.811,317L449.009,325.333C453.207,333.667,461.604,350.333,461.04,367C460.476,383.667,450.952,400.333,446.19,408.667L441.429,417" class="er relationshipLine"/><path style="stroke: gray; fill: none;" marker-start="url(#ONLY_ONE_START)" marker-end="url(#ZERO_OR_MORE_END)" d="M449.648,231.741L478.04,254.284C506.432,276.827,563.216,321.914,591.608,352.79C620,383.667,620,400.333,620,408.667L620,417" class="er relationshipLine"/><path style="stroke: gray; fill: none;" marker-start="url(#ONLY_ONE_START)" marker-end="url(#ZERO_OR_MORE_END)" d="M290.352,221.201L253.626,245.501C216.901,269.8,143.451,318.4,106.725,351.033C70,383.667,70,400.333,70,408.667L70,417" class="er relationshipLine"/><path style="stroke: gray; fill: none;" marker-start="url(#ONLY_ONE_START)" marker-end="url(#ZERO_OR_MORE_END)" d="M290.352,247.551L270.293,267.459C250.234,287.367,210.117,327.184,180.535,355.425C150.952,383.667,131.905,400.333,122.381,408.667L112.857,417" class="er relationshipLine"/><path style="stroke: gray; fill: none;" marker-start="url(#ONLY_ONE_START)" marker-end="url(#ZERO_OR_MORE_END)" d="M295.189,317L290.991,325.333C286.793,333.667,278.396,350.333,249.198,369.604C220,388.875,170,410.75,145,421.688L120,432.625" class="er relationshipLine"/><path style="stroke: gray; fill: none;" marker-start="url(#ONLY_ONE_START)" marker-end="url(#ZERO_OR_MORE_END)" d="M449.648,208.026L503.04,234.521C556.432,261.017,663.216,314.009,721.37,348.838C779.524,383.667,789.048,400.333,793.81,408.667L798.571,417" class="er relationshipLine"/><path style="stroke: gray; fill: none;" marker-start="url(#ONLY_ONE_START)" marker-end="url(#ZERO_OR_MORE_END)" d="M449.648,192.823L544.707,221.853C639.766,250.882,829.883,308.941,924.941,346.304C1020,383.667,1020,400.333,1020,408.667L1020,417" class="er relationshipLine"/><path style="stroke: gray; fill: none;" marker-start="url(#ONLY_ONE_START)" marker-end="url(#ZERO_OR_MORE_END)" d="M449.648,200.12L519.707,227.934C589.766,255.747,729.883,311.373,795.18,347.52C860.476,383.667,850.952,400.333,846.19,408.667L841.429,417" class="er relationshipLine"/><g transform="translate(290.3515625,20 )" id="entity-BusTrip-1138c8e0-ce00-5ade-8dd9-6acad09eb0c9"><rect height="297" width="159.296875" y="0" x="0" class="er entityBox"/><text style="dominant-baseline: middle; text-anchor: middle; font-size: 12px;" transform="translate(79.6484375,12)" y="0" x="0" id="text-entity-BusTrip-1138c8e0-ce00-5ade-8dd9-6acad09eb0c9" class="er entityLabel">BusTrip</text><rect height="21" width="57.0625" y="24" x="0" class="er attributeBoxOdd"/><text style="dominant-baseline: middle; font-size: 10.2px;" transform="translate(5,34.5)" y="0" x="0" id="text-entity-BusTrip-1138c8e0-ce00-5ade-8dd9-6acad09eb0c9-attr-1-type" class="er entityLabel">stringList</text><rect height="21" width="102.234375" y="24" x="57.0625" class="er attributeBoxOdd"/><text style="dominant-baseline: middle; font-size: 10.2px;" transform="translate(62.0625,34.5)" y="0" x="0" id="text-entity-BusTrip-1138c8e0-ce00-5ade-8dd9-6acad09eb0c9-attr-1-name" class="er entityLabel">arrivalBusStop</text><rect height="21" width="57.0625" y="45" x="0" class="er attributeBoxEven"/><text style="dominant-baseline: middle; font-size: 10.2px;" transform="translate(5,55.5)" y="0" x="0" id="text-entity-BusTrip-1138c8e0-ce00-5ade-8dd9-6acad09eb0c9-attr-2-type" class="er entityLabel">stringList</text><rect height="21" width="102.234375" y="45" x="57.0625" class="er attributeBoxEven"/><text style="dominant-baseline: middle; font-size: 10.2px;" transform="translate(62.0625,55.5)" y="0" x="0" id="text-entity-BusTrip-1138c8e0-ce00-5ade-8dd9-6acad09eb0c9-attr-2-name" class="er entityLabel">departureBusStop</text><rect height="21" width="57.0625" y="66" x="0" class="er attributeBoxOdd"/><text style="dominant-baseline: middle; font-size: 10.2px;" transform="translate(5,76.5)" y="0" x="0" id="text-entity-BusTrip-1138c8e0-ce00-5ade-8dd9-6acad09eb0c9-attr-3-type" class="er entityLabel">stringList</text><rect height="21" width="102.234375" y="66" x="57.0625" class="er attributeBoxOdd"/><text style="dominant-baseline: middle; font-size: 10.2px;" transform="translate(62.0625,76.5)" y="0" x="0" id="text-entity-BusTrip-1138c8e0-ce00-5ade-8dd9-6acad09eb0c9-attr-3-name" class="er entityLabel">arrivalTime</text><rect height="21" width="57.0625" y="87" x="0" class="er attributeBoxEven"/><text style="dominant-baseline: middle; font-size: 10.2px;" transform="translate(5,97.5)" y="0" x="0" id="text-entity-BusTrip-1138c8e0-ce00-5ade-8dd9-6acad09eb0c9-attr-4-type" class="er entityLabel">stringList</text><rect height="21" width="102.234375" y="87" x="57.0625" class="er attributeBoxEven"/><text style="dominant-baseline: middle; font-size: 10.2px;" transform="translate(62.0625,97.5)" y="0" x="0" id="text-entity-BusTrip-1138c8e0-ce00-5ade-8dd9-6acad09eb0c9-attr-4-name" class="er entityLabel">departureTime</text><rect height="21" width="57.0625" y="108" x="0" class="er attributeBoxOdd"/><text style="dominant-baseline: middle; font-size: 10.2px;" transform="translate(5,118.5)" y="0" x="0" id="text-entity-BusTrip-1138c8e0-ce00-5ade-8dd9-6acad09eb0c9-attr-5-type" class="er entityLabel">stringList</text><rect height="21" width="102.234375" y="108" x="57.0625" class="er attributeBoxOdd"/><text style="dominant-baseline: middle; font-size: 10.2px;" transform="translate(62.0625,118.5)" y="0" x="0" id="text-entity-BusTrip-1138c8e0-ce00-5ade-8dd9-6acad09eb0c9-attr-5-name" class="er entityLabel">itinerary</text><rect height="21" width="57.0625" y="129" x="0" class="er attributeBoxEven"/><text style="dominant-baseline: middle; font-size: 10.2px;" transform="translate(5,139.5)" y="0" x="0" id="text-entity-BusTrip-1138c8e0-ce00-5ade-8dd9-6acad09eb0c9-attr-6-type" class="er entityLabel">stringList</text><rect height="21" width="102.234375" y="129" x="57.0625" class="er attributeBoxEven"/><text style="dominant-baseline: middle; font-size: 10.2px;" transform="translate(62.0625,139.5)" y="0" x="0" id="text-entity-BusTrip-1138c8e0-ce00-5ade-8dd9-6acad09eb0c9-attr-6-name" class="er entityLabel">offers</text><rect height="21" width="57.0625" y="150" x="0" class="er attributeBoxOdd"/><text style="dominant-baseline: middle; font-size: 10.2px;" transform="translate(5,160.5)" y="0" x="0" id="text-entity-BusTrip-1138c8e0-ce00-5ade-8dd9-6acad09eb0c9-attr-7-type" class="er entityLabel">stringList</text><rect height="21" width="102.234375" y="150" x="57.0625" class="er attributeBoxOdd"/><text style="dominant-baseline: middle; font-size: 10.2px;" transform="translate(62.0625,160.5)" y="0" x="0" id="text-entity-BusTrip-1138c8e0-ce00-5ade-8dd9-6acad09eb0c9-attr-7-name" class="er entityLabel">provider</text><rect height="21" width="57.0625" y="171" x="0" class="er attributeBoxEven"/><text style="dominant-baseline: middle; font-size: 10.2px;" transform="translate(5,181.5)" y="0" x="0" id="text-entity-BusTrip-1138c8e0-ce00-5ade-8dd9-6acad09eb0c9-attr-8-type" class="er entityLabel">stringList</text><rect height="21" width="102.234375" y="171" x="57.0625" class="er attributeBoxEven"/><text style="dominant-baseline: middle; font-size: 10.2px;" transform="translate(62.0625,181.5)" y="0" x="0" id="text-entity-BusTrip-1138c8e0-ce00-5ade-8dd9-6acad09eb0c9-attr-8-name" class="er entityLabel">additionalType</text><rect height="21" width="57.0625" y="192" x="0" class="er attributeBoxOdd"/><text style="dominant-baseline: middle; font-size: 10.2px;" transform="translate(5,202.5)" y="0" x="0" id="text-entity-BusTrip-1138c8e0-ce00-5ade-8dd9-6acad09eb0c9-attr-9-type" class="er entityLabel">stringList</text><rect height="21" width="102.234375" y="192" x="57.0625" class="er attributeBoxOdd"/><text style="dominant-baseline: middle; font-size: 10.2px;" transform="translate(62.0625,202.5)" y="0" x="0" id="text-entity-BusTrip-1138c8e0-ce00-5ade-8dd9-6acad09eb0c9-attr-9-name" class="er entityLabel">description</text><rect height="21" width="57.0625" y="213" x="0" class="er attributeBoxEven"/><text style="dominant-baseline: middle; font-size: 10.2px;" transform="translate(5,223.5)" y="0" x="0" id="text-entity-BusTrip-1138c8e0-ce00-5ade-8dd9-6acad09eb0c9-attr-10-type" class="er entityLabel">stringList</text><rect height="21" width="102.234375" y="213" x="57.0625" class="er attributeBoxEven"/><text style="dominant-baseline: middle; font-size: 10.2px;" transform="translate(62.0625,223.5)" y="0" x="0" id="text-entity-BusTrip-1138c8e0-ce00-5ade-8dd9-6acad09eb0c9-attr-10-name" class="er entityLabel">identifier</text><rect height="21" width="57.0625" y="234" x="0" class="er attributeBoxOdd"/><text style="dominant-baseline: middle; font-size: 10.2px;" transform="translate(5,244.5)" y="0" x="0" id="text-entity-BusTrip-1138c8e0-ce00-5ade-8dd9-6acad09eb0c9-attr-11-type" class="er entityLabel">stringList</text><rect height="21" width="102.234375" y="234" x="57.0625" class="er attributeBoxOdd"/><text style="dominant-baseline: middle; font-size: 10.2px;" transform="translate(62.0625,244.5)" y="0" x="0" id="text-entity-BusTrip-1138c8e0-ce00-5ade-8dd9-6acad09eb0c9-attr-11-name" class="er entityLabel">image</text><rect height="21" width="57.0625" y="255" x="0" class="er attributeBoxEven"/><text style="dominant-baseline: middle; font-size: 10.2px;" transform="translate(5,265.5)" y="0" x="0" id="text-entity-BusTrip-1138c8e0-ce00-5ade-8dd9-6acad09eb0c9-attr-12-type" class="er entityLabel">stringList</text><rect height="21" width="102.234375" y="255" x="57.0625" class="er attributeBoxEven"/><text style="dominant-baseline: middle; font-size: 10.2px;" transform="translate(62.0625,265.5)" y="0" x="0" id="text-entity-BusTrip-1138c8e0-ce00-5ade-8dd9-6acad09eb0c9-attr-12-name" class="er entityLabel">mainEntityOfPage</text><rect height="21" width="57.0625" y="276" x="0" class="er attributeBoxOdd"/><text style="dominant-baseline: middle; font-size: 10.2px;" transform="translate(5,286.5)" y="0" x="0" id="text-entity-BusTrip-1138c8e0-ce00-5ade-8dd9-6acad09eb0c9-attr-13-type" class="er entityLabel">stringList</text><rect height="21" width="102.234375" y="276" x="57.0625" class="er attributeBoxOdd"/><text style="dominant-baseline: middle; font-size: 10.2px;" transform="translate(62.0625,286.5)" y="0" x="0" id="text-entity-BusTrip-1138c8e0-ce00-5ade-8dd9-6acad09eb0c9-attr-13-name" class="er entityLabel">subjectOf</text></g><g transform="translate(20,417 )" id="entity-Text-426c5d39-acfc-5487-a6d9-ede67887190e"><rect height="75" width="100" y="0" x="0" class="er entityBox"/><text style="dominant-baseline: middle; text-anchor: middle; font-size: 12px;" transform="translate(50,37.5)" y="0" x="0" id="text-entity-Text-426c5d39-acfc-5487-a6d9-ede67887190e" class="er entityLabel">Text</text></g><g transform="translate(370,417 )" id="entity-Trip-15bfdc92-c22b-56f9-8fb0-ea400e825ad0"><rect height="75" width="100" y="0" x="0" class="er entityBox"/><text style="dominant-baseline: middle; text-anchor: middle; font-size: 12px;" transform="translate(50,37.5)" y="0" x="0" id="text-entity-Trip-15bfdc92-c22b-56f9-8fb0-ea400e825ad0" class="er entityLabel">Trip</text></g><g transform="translate(570,417 )" id="entity-Place-18cedc50-4c85-52d4-b2dd-111465382dcf"><rect height="75" width="100" y="0" x="0" class="er entityBox"/><text style="dominant-baseline: middle; text-anchor: middle; font-size: 12px;" transform="translate(50,37.5)" y="0" x="0" id="text-entity-Place-18cedc50-4c85-52d4-b2dd-111465382dcf" class="er entityLabel">Place</text></g><g transform="translate(770,417 )" id="entity-URL-07f78d3e-fd74-5925-b39b-26c1cc2d6b7c"><rect height="75" width="100" y="0" x="0" class="er entityBox"/><text style="dominant-baseline: middle; text-anchor: middle; font-size: 12px;" transform="translate(50,37.5)" y="0" x="0" id="text-entity-URL-07f78d3e-fd74-5925-b39b-26c1cc2d6b7c" class="er entityLabel">URL</text></g><g transform="translate(970,417 )" id="entity-Action-6cd87d9a-a078-546e-a35b-bee54f477b31"><rect height="75" width="100" y="0" x="0" class="er entityBox"/><text style="dominant-baseline: middle; text-anchor: middle; font-size: 12px;" transform="translate(50,37.5)" y="0" x="0" id="text-entity-Action-6cd87d9a-a078-546e-a35b-bee54f477b31" class="er entityLabel">Action</text></g><rect height="14" width="56.890625" y="286.62939453125" x="35.837120056152344" class="er relationshipLabelBox"/><text style="text-anchor: middle; dominant-baseline: middle; font-size: 12px;" y="293.62939453125" x="64.28243255615234" id="rel1" class="er relationshipLabel">busName</text><rect height="14" width="69.74609375" y="287.36376953125" x="85.78443145751953" class="er relationshipLabelBox"/><text style="text-anchor: middle; dominant-baseline: middle; font-size: 12px;" y="294.36376953125" x="120.65747833251953" id="rel2" class="er relationshipLabel">busNumber</text><rect height="14" width="59.734375" y="362.44708251953125" x="345.6275634765625" class="er relationshipLabelBox"/><text style="text-anchor: middle; dominant-baseline: middle; font-size: 12px;" y="369.44708251953125" x="375.4947509765625" id="rel3" class="er relationshipLabel">partOfTrip</text><rect height="14" width="42.9375" y="360.552978515625" x="439.54888916015625" class="er relationshipLabelBox"/><text style="text-anchor: middle; dominant-baseline: middle; font-size: 12px;" y="367.552978515625" x="461.01763916015625" id="rel4" class="er relationshipLabel">subTrip</text><rect height="14" width="56.859375" y="306.56890869140625" x="521.76123046875" class="er relationshipLabelBox"/><text style="text-anchor: middle; dominant-baseline: middle; font-size: 12px;" y="313.56890869140625" x="550.19091796875" id="rel5" class="er relationshipLabel">tripOrigin</text><rect height="14" width="89.953125" y="299.2364196777344" x="119.51455688476562" class="er relationshipLabelBox"/><text style="text-anchor: middle; dominant-baseline: middle; font-size: 12px;" y="306.2364196777344" x="164.49111938476562" id="rel6" class="er relationshipLabel">alternateName</text><rect height="14" width="161.390625" y="326.75048828125" x="122.30410766601562" class="er relationshipLabelBox"/><text style="text-anchor: middle; dominant-baseline: middle; font-size: 12px;" y="333.75048828125" x="202.99942016601562" id="rel7" class="er relationshipLabel">disambiguatingDescription</text><rect height="14" width="34.03125" y="380.7696533203125" x="200.59356689453125" class="er relationshipLabelBox"/><text style="text-anchor: middle; dominant-baseline: middle; font-size: 12px;" y="387.7696533203125" x="217.60919189453125" id="rel8" class="er relationshipLabel">name</text><rect height="14" width="47.140625" y="293.277099609375" x="609.4677124023438" class="er relationshipLabelBox"/><text style="text-anchor: middle; dominant-baseline: middle; font-size: 12px;" y="300.277099609375" x="633.0380249023438" id="rel9" class="er relationshipLabel">sameAs</text><rect height="14" width="90.96875" y="278.3659362792969" x="703.0870361328125" class="er relationshipLabelBox"/><text style="text-anchor: middle; dominant-baseline: middle; font-size: 12px;" y="285.3659362792969" x="748.5714111328125" id="rel10" class="er relationshipLabel">potentialAction</text><rect height="14" width="15.875" y="281.8002014160156" x="661.21142578125" class="er relationshipLabelBox"/><text style="text-anchor: middle; dominant-baseline: middle; font-size: 12px;" y="288.8002014160156" x="669.14892578125" id="rel11" class="er relationshipLabel">url</text></svg>