<svg aria-roledescription="er" role="graphics-document document" viewBox="0 0 2064.1728515625 470" style="max-width: 2064.17px; background-color: white;" xmlns:xlink="http://www.w3.org/1999/xlink" xmlns="http://www.w3.org/2000/svg" width="100%" id="my-svg"><style>#my-svg{font-family:"trebuchet ms",verdana,arial,sans-serif;font-size:16px;fill:#333;}#my-svg .error-icon{fill:#552222;}#my-svg .error-text{fill:#552222;stroke:#552222;}#my-svg .edge-thickness-normal{stroke-width:1px;}#my-svg .edge-thickness-thick{stroke-width:3.5px;}#my-svg .edge-pattern-solid{stroke-dasharray:0;}#my-svg .edge-thickness-invisible{stroke-width:0;fill:none;}#my-svg .edge-pattern-dashed{stroke-dasharray:3;}#my-svg .edge-pattern-dotted{stroke-dasharray:2;}#my-svg .marker{fill:#333333;stroke:#333333;}#my-svg .marker.cross{stroke:#333333;}#my-svg svg{font-family:"trebuchet ms",verdana,arial,sans-serif;font-size:16px;}#my-svg p{margin:0;}#my-svg .entityBox{fill:#ECECFF;stroke:#9370DB;}#my-svg .attributeBoxOdd{fill:#ffffff;stroke:#9370DB;}#my-svg .attributeBoxEven{fill:#f2f2f2;stroke:#9370DB;}#my-svg .relationshipLabelBox{fill:hsl(80, 100%, 96.2745098039%);opacity:0.7;background-color:hsl(80, 100%, 96.2745098039%);}#my-svg .relationshipLabelBox rect{opacity:0.5;}#my-svg .relationshipLine{stroke:#333333;}#my-svg .entityTitleText{text-anchor:middle;font-size:18px;fill:#333;}#my-svg #MD_PARENT_START{fill:#f5f5f5!important;stroke:#333333!important;stroke-width:1;}#my-svg #MD_PARENT_END{fill:#f5f5f5!important;stroke:#333333!important;stroke-width:1;}#my-svg :root{--mermaid-font-family:"trebuchet ms",verdana,arial,sans-serif;}</style><g/><defs><marker orient="auto" markerHeight="240" markerWidth="190" refY="7" refX="0" id="MD_PARENT_START"><path d="M 18,7 L9,13 L1,7 L9,1 Z"/></marker></defs><defs><marker orient="auto" markerHeight="28" markerWidth="20" refY="7" refX="19" id="MD_PARENT_END"><path d="M 18,7 L9,13 L1,7 L9,1 Z"/></marker></defs><defs><marker orient="auto" markerHeight="18" markerWidth="18" refY="9" refX="0" id="ONLY_ONE_START"><path d="M9,0 L9,18 M15,0 L15,18" fill="none" stroke="gray"/></marker></defs><defs><marker orient="auto" markerHeight="18" markerWidth="18" refY="9" refX="18" id="ONLY_ONE_END"><path d="M3,0 L3,18 M9,0 L9,18" fill="none" stroke="gray"/></marker></defs><defs><marker orient="auto" markerHeight="18" markerWidth="30" refY="9" refX="0" id="ZERO_OR_ONE_START"><circle r="6" cy="9" cx="21" fill="white" stroke="gray"/><path d="M9,0 L9,18" fill="none" stroke="gray"/></marker></defs><defs><marker orient="auto" markerHeight="18" markerWidth="30" refY="9" refX="30" id="ZERO_OR_ONE_END"><circle r="6" cy="9" cx="9" fill="white" stroke="gray"/><path d="M21,0 L21,18" fill="none" stroke="gray"/></marker></defs><defs><marker orient="auto" markerHeight="36" markerWidth="45" refY="18" refX="18" id="ONE_OR_MORE_START"><path d="M0,18 Q 18,0 36,18 Q 18,36 0,18 M42,9 L42,27" fill="none" stroke="gray"/></marker></defs><defs><marker orient="auto" markerHeight="36" markerWidth="45" refY="18" refX="27" id="ONE_OR_MORE_END"><path d="M3,9 L3,27 M9,18 Q27,0 45,18 Q27,36 9,18" fill="none" stroke="gray"/></marker></defs><defs><marker orient="auto" markerHeight="36" markerWidth="57" refY="18" refX="18" id="ZERO_OR_MORE_START"><circle r="6" cy="18" cx="48" fill="white" stroke="gray"/><path d="M0,18 Q18,0 36,18 Q18,36 0,18" fill="none" stroke="gray"/></marker></defs><defs><marker orient="auto" markerHeight="36" markerWidth="57" refY="18" refX="39" id="ZERO_OR_MORE_END"><circle r="6" cy="18" cx="9" fill="white" stroke="gray"/><path d="M21,18 Q39,0 57,18 Q39,36 21,18" fill="none" stroke="gray"/></marker></defs><path style="stroke: gray; fill: none;" marker-start="url(#ONLY_ONE_START)" marker-end="url(#ZERO_OR_MORE_END)" d="M953.914,166.241L811.658,192.701C669.401,219.161,384.888,272.08,242.632,306.874C100.375,341.667,100.375,358.333,100.375,366.667L100.375,375" class="er relationshipLine"/><path style="stroke: gray; fill: none;" marker-start="url(#ONLY_ONE_START)" marker-end="url(#ZERO_OR_MORE_END)" d="M953.914,172.864L853.186,198.22C752.458,223.576,551.003,274.288,450.275,307.977C349.547,341.667,349.547,358.333,349.547,366.667L349.547,375" class="er relationshipLine"/><path style="stroke: gray; fill: none;" marker-start="url(#ONLY_ONE_START)" marker-end="url(#ZERO_OR_MORE_END)" d="M953.914,185.701L892.68,208.918C831.445,232.134,708.977,278.567,647.742,310.117C586.508,341.667,586.508,358.333,586.508,366.667L586.508,375" class="er relationshipLine"/><path style="stroke: gray; fill: none;" marker-start="url(#ONLY_ONE_START)" marker-end="url(#ZERO_OR_MORE_END)" d="M953.914,205.363L919.193,225.303C884.473,245.242,815.031,285.121,785.937,313.394C756.844,341.667,768.097,358.333,773.724,366.667L779.351,375" class="er relationshipLine"/><path style="stroke: gray; fill: none;" marker-start="url(#ONLY_ONE_START)" marker-end="url(#ZERO_OR_MORE_END)" d="M953.914,236.923L937.374,251.602C920.833,266.282,887.753,295.641,866.45,318.654C845.148,341.667,835.624,358.333,830.862,366.667L826.1,375" class="er relationshipLine"/><path style="stroke: gray; fill: none;" marker-start="url(#ONLY_ONE_START)" marker-end="url(#ZERO_OR_MORE_END)" d="M982.841,275L978.146,283.333C973.451,291.667,964.062,308.333,976.033,326.389C988.005,344.444,1021.339,363.889,1038.005,373.611L1054.672,383.333" class="er relationshipLine"/><path style="stroke: gray; fill: none;" marker-start="url(#ONLY_ONE_START)" marker-end="url(#ZERO_OR_MORE_END)" d="M1155.43,204.609L1190.831,224.674C1226.233,244.739,1297.036,284.87,1332.437,313.268C1367.839,341.667,1367.839,358.333,1367.839,366.667L1367.839,375" class="er relationshipLine"/><path style="stroke: gray; fill: none;" marker-start="url(#ONLY_ONE_START)" marker-end="url(#ZERO_OR_MORE_END)" d="M1155.43,180.65L1228.554,204.708C1301.677,228.767,1447.925,276.883,1521.049,309.275C1594.173,341.667,1594.173,358.333,1594.173,366.667L1594.173,375" class="er relationshipLine"/><path style="stroke: gray; fill: none;" marker-start="url(#ONLY_ONE_START)" marker-end="url(#ZERO_OR_MORE_END)" d="M1054.672,275L1054.672,283.333C1054.672,291.667,1054.672,308.333,1059.434,325C1064.196,341.667,1073.719,358.333,1078.481,366.667L1083.243,375" class="er relationshipLine"/><path style="stroke: gray; fill: none;" marker-start="url(#ONLY_ONE_START)" marker-end="url(#ZERO_OR_MORE_END)" d="M1126.503,275L1131.198,283.333C1135.893,291.667,1145.282,308.333,1145.215,325C1145.148,341.667,1135.624,358.333,1130.862,366.667L1126.1,375" class="er relationshipLine"/><path style="stroke: gray; fill: none;" marker-start="url(#ONLY_ONE_START)" marker-end="url(#ZERO_OR_MORE_END)" d="M1155.43,236.923L1171.97,251.602C1188.51,266.282,1221.591,295.641,1221.465,320.043C1221.339,344.444,1188.005,363.889,1171.339,373.611L1154.672,383.333" class="er relationshipLine"/><path style="stroke: gray; fill: none;" marker-start="url(#ONLY_ONE_START)" marker-end="url(#ZERO_OR_MORE_END)" d="M1155.43,173.438L1253.554,198.699C1351.677,223.959,1547.925,274.479,1650.811,308.073C1753.697,341.667,1763.22,358.333,1767.982,366.667L1772.744,375" class="er relationshipLine"/><path style="stroke: gray; fill: none;" marker-start="url(#ONLY_ONE_START)" marker-end="url(#ZERO_OR_MORE_END)" d="M1155.43,166.536L1295.22,192.947C1435.011,219.357,1714.592,272.179,1854.382,306.923C1994.173,341.667,1994.173,358.333,1994.173,366.667L1994.173,375" class="er relationshipLine"/><path style="stroke: gray; fill: none;" marker-start="url(#ONLY_ONE_START)" marker-end="url(#ZERO_OR_MORE_END)" d="M1155.43,170.153L1270.22,195.961C1385.011,221.769,1614.592,273.384,1724.62,307.525C1834.649,341.667,1825.125,358.333,1820.363,366.667L1815.601,375" class="er relationshipLine"/><g transform="translate(953.9140625,20 )" id="entity-CompoundPriceSpecification-347d95f3-b61f-5ac2-8b8e-6a25b00b8398"><rect height="255" width="201.515625" y="0" x="0" class="er entityBox"/><text style="dominant-baseline: middle; text-anchor: middle; font-size: 12px;" transform="translate(100.7578125,12)" y="0" x="0" id="text-entity-CompoundPriceSpecification-347d95f3-b61f-5ac2-8b8e-6a25b00b8398" class="er entityLabel">CompoundPriceSpecification</text><rect height="21" width="58.9921875" y="24" x="0" class="er attributeBoxOdd"/><text style="dominant-baseline: middle; font-size: 10.2px;" transform="translate(5,34.5)" y="0" x="0" id="text-entity-CompoundPriceSpecification-347d95f3-b61f-5ac2-8b8e-6a25b00b8398-attr-1-type" class="er entityLabel">stringList</text><rect height="21" width="142.5234375" y="24" x="58.9921875" class="er attributeBoxOdd"/><text style="dominant-baseline: middle; font-size: 10.2px;" transform="translate(63.9921875,34.5)" y="0" x="0" id="text-entity-CompoundPriceSpecification-347d95f3-b61f-5ac2-8b8e-6a25b00b8398-attr-1-name" class="er entityLabel">priceType</text><rect height="21" width="58.9921875" y="45" x="0" class="er attributeBoxEven"/><text style="dominant-baseline: middle; font-size: 10.2px;" transform="translate(5,55.5)" y="0" x="0" id="text-entity-CompoundPriceSpecification-347d95f3-b61f-5ac2-8b8e-6a25b00b8398-attr-2-type" class="er entityLabel">stringList</text><rect height="21" width="142.5234375" y="45" x="58.9921875" class="er attributeBoxEven"/><text style="dominant-baseline: middle; font-size: 10.2px;" transform="translate(63.9921875,55.5)" y="0" x="0" id="text-entity-CompoundPriceSpecification-347d95f3-b61f-5ac2-8b8e-6a25b00b8398-attr-2-name" class="er entityLabel">membershipPointsEarned</text><rect height="21" width="58.9921875" y="66" x="0" class="er attributeBoxOdd"/><text style="dominant-baseline: middle; font-size: 10.2px;" transform="translate(5,76.5)" y="0" x="0" id="text-entity-CompoundPriceSpecification-347d95f3-b61f-5ac2-8b8e-6a25b00b8398-attr-3-type" class="er entityLabel">stringList</text><rect height="21" width="142.5234375" y="66" x="58.9921875" class="er attributeBoxOdd"/><text style="dominant-baseline: middle; font-size: 10.2px;" transform="translate(63.9921875,76.5)" y="0" x="0" id="text-entity-CompoundPriceSpecification-347d95f3-b61f-5ac2-8b8e-6a25b00b8398-attr-3-name" class="er entityLabel">price</text><rect height="21" width="58.9921875" y="87" x="0" class="er attributeBoxEven"/><text style="dominant-baseline: middle; font-size: 10.2px;" transform="translate(5,97.5)" y="0" x="0" id="text-entity-CompoundPriceSpecification-347d95f3-b61f-5ac2-8b8e-6a25b00b8398-attr-4-type" class="er entityLabel">stringList</text><rect height="21" width="142.5234375" y="87" x="58.9921875" class="er attributeBoxEven"/><text style="dominant-baseline: middle; font-size: 10.2px;" transform="translate(63.9921875,97.5)" y="0" x="0" id="text-entity-CompoundPriceSpecification-347d95f3-b61f-5ac2-8b8e-6a25b00b8398-attr-4-name" class="er entityLabel">validFrom</text><rect height="21" width="58.9921875" y="108" x="0" class="er attributeBoxOdd"/><text style="dominant-baseline: middle; font-size: 10.2px;" transform="translate(5,118.5)" y="0" x="0" id="text-entity-CompoundPriceSpecification-347d95f3-b61f-5ac2-8b8e-6a25b00b8398-attr-5-type" class="er entityLabel">stringList</text><rect height="21" width="142.5234375" y="108" x="58.9921875" class="er attributeBoxOdd"/><text style="dominant-baseline: middle; font-size: 10.2px;" transform="translate(63.9921875,118.5)" y="0" x="0" id="text-entity-CompoundPriceSpecification-347d95f3-b61f-5ac2-8b8e-6a25b00b8398-attr-5-name" class="er entityLabel">validThrough</text><rect height="21" width="58.9921875" y="129" x="0" class="er attributeBoxEven"/><text style="dominant-baseline: middle; font-size: 10.2px;" transform="translate(5,139.5)" y="0" x="0" id="text-entity-CompoundPriceSpecification-347d95f3-b61f-5ac2-8b8e-6a25b00b8398-attr-6-type" class="er entityLabel">stringList</text><rect height="21" width="142.5234375" y="129" x="58.9921875" class="er attributeBoxEven"/><text style="dominant-baseline: middle; font-size: 10.2px;" transform="translate(63.9921875,139.5)" y="0" x="0" id="text-entity-CompoundPriceSpecification-347d95f3-b61f-5ac2-8b8e-6a25b00b8398-attr-6-name" class="er entityLabel">additionalType</text><rect height="21" width="58.9921875" y="150" x="0" class="er attributeBoxOdd"/><text style="dominant-baseline: middle; font-size: 10.2px;" transform="translate(5,160.5)" y="0" x="0" id="text-entity-CompoundPriceSpecification-347d95f3-b61f-5ac2-8b8e-6a25b00b8398-attr-7-type" class="er entityLabel">stringList</text><rect height="21" width="142.5234375" y="150" x="58.9921875" class="er attributeBoxOdd"/><text style="dominant-baseline: middle; font-size: 10.2px;" transform="translate(63.9921875,160.5)" y="0" x="0" id="text-entity-CompoundPriceSpecification-347d95f3-b61f-5ac2-8b8e-6a25b00b8398-attr-7-name" class="er entityLabel">description</text><rect height="21" width="58.9921875" y="171" x="0" class="er attributeBoxEven"/><text style="dominant-baseline: middle; font-size: 10.2px;" transform="translate(5,181.5)" y="0" x="0" id="text-entity-CompoundPriceSpecification-347d95f3-b61f-5ac2-8b8e-6a25b00b8398-attr-8-type" class="er entityLabel">stringList</text><rect height="21" width="142.5234375" y="171" x="58.9921875" class="er attributeBoxEven"/><text style="dominant-baseline: middle; font-size: 10.2px;" transform="translate(63.9921875,181.5)" y="0" x="0" id="text-entity-CompoundPriceSpecification-347d95f3-b61f-5ac2-8b8e-6a25b00b8398-attr-8-name" class="er entityLabel">identifier</text><rect height="21" width="58.9921875" y="192" x="0" class="er attributeBoxOdd"/><text style="dominant-baseline: middle; font-size: 10.2px;" transform="translate(5,202.5)" y="0" x="0" id="text-entity-CompoundPriceSpecification-347d95f3-b61f-5ac2-8b8e-6a25b00b8398-attr-9-type" class="er entityLabel">stringList</text><rect height="21" width="142.5234375" y="192" x="58.9921875" class="er attributeBoxOdd"/><text style="dominant-baseline: middle; font-size: 10.2px;" transform="translate(63.9921875,202.5)" y="0" x="0" id="text-entity-CompoundPriceSpecification-347d95f3-b61f-5ac2-8b8e-6a25b00b8398-attr-9-name" class="er entityLabel">image</text><rect height="21" width="58.9921875" y="213" x="0" class="er attributeBoxEven"/><text style="dominant-baseline: middle; font-size: 10.2px;" transform="translate(5,223.5)" y="0" x="0" id="text-entity-CompoundPriceSpecification-347d95f3-b61f-5ac2-8b8e-6a25b00b8398-attr-10-type" class="er entityLabel">stringList</text><rect height="21" width="142.5234375" y="213" x="58.9921875" class="er attributeBoxEven"/><text style="dominant-baseline: middle; font-size: 10.2px;" transform="translate(63.9921875,223.5)" y="0" x="0" id="text-entity-CompoundPriceSpecification-347d95f3-b61f-5ac2-8b8e-6a25b00b8398-attr-10-name" class="er entityLabel">mainEntityOfPage</text><rect height="21" width="58.9921875" y="234" x="0" class="er attributeBoxOdd"/><text style="dominant-baseline: middle; font-size: 10.2px;" transform="translate(5,244.5)" y="0" x="0" id="text-entity-CompoundPriceSpecification-347d95f3-b61f-5ac2-8b8e-6a25b00b8398-attr-11-type" class="er entityLabel">stringList</text><rect height="21" width="142.5234375" y="234" x="58.9921875" class="er attributeBoxOdd"/><text style="dominant-baseline: middle; font-size: 10.2px;" transform="translate(63.9921875,244.5)" y="0" x="0" id="text-entity-CompoundPriceSpecification-347d95f3-b61f-5ac2-8b8e-6a25b00b8398-attr-11-name" class="er entityLabel">subjectOf</text></g><g transform="translate(20,375 )" id="entity-UnitPriceSpecification-45b45016-0820-5d33-bffc-3f5784ddc9d3"><rect height="75" width="160.75" y="0" x="0" class="er entityBox"/><text style="dominant-baseline: middle; text-anchor: middle; font-size: 12px;" transform="translate(80.375,37.5)" y="0" x="0" id="text-entity-UnitPriceSpecification-45b45016-0820-5d33-bffc-3f5784ddc9d3" class="er entityLabel">UnitPriceSpecification</text></g><g transform="translate(280.75,375 )" id="entity-QuantitativeValue-3d19db81-2acf-5dcd-99e0-52d6a275eca4"><rect height="75" width="137.59375" y="0" x="0" class="er entityBox"/><text style="dominant-baseline: middle; text-anchor: middle; font-size: 12px;" transform="translate(68.796875,37.5)" y="0" x="0" id="text-entity-QuantitativeValue-3d19db81-2acf-5dcd-99e0-52d6a275eca4" class="er entityLabel">QuantitativeValue</text></g><g transform="translate(518.34375,375 )" id="entity-PriceSpecification-06171b48-9437-5ab1-a607-7f40e6a6fc9e"><rect height="75" width="136.328125" y="0" x="0" class="er entityBox"/><text style="dominant-baseline: middle; text-anchor: middle; font-size: 12px;" transform="translate(68.1640625,37.5)" y="0" x="0" id="text-entity-PriceSpecification-06171b48-9437-5ab1-a607-7f40e6a6fc9e" class="er entityLabel">PriceSpecification</text></g><g transform="translate(754.671875,375 )" id="entity-Number-03723608-6bf1-5294-8c7e-b493e3224412"><rect height="75" width="100" y="0" x="0" class="er entityBox"/><text style="dominant-baseline: middle; text-anchor: middle; font-size: 12px;" transform="translate(50,37.5)" y="0" x="0" id="text-entity-Number-03723608-6bf1-5294-8c7e-b493e3224412" class="er entityLabel">Number</text></g><g transform="translate(1054.671875,375 )" id="entity-Text-426c5d39-acfc-5487-a6d9-ede67887190e"><rect height="75" width="100" y="0" x="0" class="er entityBox"/><text style="dominant-baseline: middle; text-anchor: middle; font-size: 12px;" transform="translate(50,37.5)" y="0" x="0" id="text-entity-Text-426c5d39-acfc-5487-a6d9-ede67887190e" class="er entityLabel">Text</text></g><g transform="translate(1291.5048828125,375 )" id="entity-MemberProgramTier-9007dd70-1421-5b4f-9029-fd44084bd9e1"><rect height="75" width="152.66796875" y="0" x="0" class="er entityBox"/><text style="dominant-baseline: middle; text-anchor: middle; font-size: 12px;" transform="translate(76.333984375,37.5)" y="0" x="0" id="text-entity-MemberProgramTier-9007dd70-1421-5b4f-9029-fd44084bd9e1" class="er entityLabel">MemberProgramTier</text></g><g transform="translate(1544.1728515625,375 )" id="entity-Boolean-5b26178e-f873-50aa-bf9a-b8300df1b991"><rect height="75" width="100" y="0" x="0" class="er entityBox"/><text style="dominant-baseline: middle; text-anchor: middle; font-size: 12px;" transform="translate(50,37.5)" y="0" x="0" id="text-entity-Boolean-5b26178e-f873-50aa-bf9a-b8300df1b991" class="er entityLabel">Boolean</text></g><g transform="translate(1744.1728515625,375 )" id="entity-URL-07f78d3e-fd74-5925-b39b-26c1cc2d6b7c"><rect height="75" width="100" y="0" x="0" class="er entityBox"/><text style="dominant-baseline: middle; text-anchor: middle; font-size: 12px;" transform="translate(50,37.5)" y="0" x="0" id="text-entity-URL-07f78d3e-fd74-5925-b39b-26c1cc2d6b7c" class="er entityLabel">URL</text></g><g transform="translate(1944.1728515625,375 )" id="entity-Action-6cd87d9a-a078-546e-a35b-bee54f477b31"><rect height="75" width="100" y="0" x="0" class="er entityBox"/><text style="dominant-baseline: middle; text-anchor: middle; font-size: 12px;" transform="translate(50,37.5)" y="0" x="0" id="text-entity-Action-6cd87d9a-a078-546e-a35b-bee54f477b31" class="er entityLabel">Action</text></g><rect height="14" width="99.828125" y="241.98239135742188" x="465.41656494140625" class="er relationshipLabelBox"/><text style="text-anchor: middle; dominant-baseline: middle; font-size: 12px;" y="248.98239135742188" x="515.3306274414062" id="rel1" class="er relationshipLabel">priceComponent</text><rect height="14" width="95.203125" y="246.48834228515625" x="590.9340209960938" class="er relationshipLabelBox"/><text style="text-anchor: middle; dominant-baseline: middle; font-size: 12px;" y="253.48834228515625" x="638.5355834960938" id="rel2" class="er relationshipLabel">eligibleQuantity</text><rect height="14" width="156.625" y="255.44354248046875" x="676.9374389648438" class="er relationshipLabelBox"/><text style="text-anchor: middle; dominant-baseline: middle; font-size: 12px;" y="262.44354248046875" x="755.2499389648438" id="rel3" class="er relationshipLabel">eligibleTransactionVolume</text><rect height="14" width="55.421875" y="267.56951904296875" x="809.7522583007812" class="er relationshipLabelBox"/><text style="text-anchor: middle; dominant-baseline: middle; font-size: 12px;" y="274.56951904296875" x="837.4631958007812" id="rel4" class="er relationshipLabel">maxPrice</text><rect height="14" width="51.90625" y="293.7012023925781" x="858.0682373046875" class="er relationshipLabelBox"/><text style="text-anchor: middle; dominant-baseline: middle; font-size: 12px;" y="300.7012023925781" x="884.0213623046875" id="rel5" class="er relationshipLabel">minPrice</text><rect height="14" width="83.9375" y="334.803955078125" x="948.5043334960938" class="er relationshipLabelBox"/><text style="text-anchor: middle; dominant-baseline: middle; font-size: 12px;" y="341.803955078125" x="990.4730834960938" id="rel6" class="er relationshipLabel">priceCurrency</text><rect height="14" width="119.52734375" y="268.6351013183594" x="1217.7952880859375" class="er relationshipLabelBox"/><text style="text-anchor: middle; dominant-baseline: middle; font-size: 12px;" y="275.6351013183594" x="1277.5589599609375" id="rel7" class="er relationshipLabel">validForMemberTier</text><rect height="14" width="142.109375" y="251.90383911132812" x="1318.14013671875" class="er relationshipLabelBox"/><text style="text-anchor: middle; dominant-baseline: middle; font-size: 12px;" y="258.9038391113281" x="1389.19482421875" id="rel8" class="er relationshipLabel">valueAddedTaxIncluded</text><rect height="14" width="89.953125" y="320.44708251953125" x="1015.1903076171875" class="er relationshipLabelBox"/><text style="text-anchor: middle; dominant-baseline: middle; font-size: 12px;" y="327.44708251953125" x="1060.1668701171875" id="rel9" class="er relationshipLabel">alternateName</text><rect height="14" width="161.390625" y="318.0690002441406" x="1064.51904296875" class="er relationshipLabelBox"/><text style="text-anchor: middle; dominant-baseline: middle; font-size: 12px;" y="325.0690002441406" x="1145.21435546875" id="rel10" class="er relationshipLabel">disambiguatingDescription</text><rect height="14" width="34.03125" y="306.6153259277344" x="1203.76953125" class="er relationshipLabelBox"/><text style="text-anchor: middle; dominant-baseline: middle; font-size: 12px;" y="313.6153259277344" x="1220.78515625" id="rel11" class="er relationshipLabel">name</text><rect height="14" width="47.140625" y="249.31948852539062" x="1449.2012939453125" class="er relationshipLabelBox"/><text style="text-anchor: middle; dominant-baseline: middle; font-size: 12px;" y="256.3194885253906" x="1472.7716064453125" id="rel12" class="er relationshipLabel">sameAs</text><rect height="14" width="90.96875" y="242.18055725097656" x="1541.2005615234375" class="er relationshipLabelBox"/><text style="text-anchor: middle; dominant-baseline: middle; font-size: 12px;" y="249.18055725097656" x="1586.6849365234375" id="rel13" class="er relationshipLabel">potentialAction</text><rect height="14" width="15.875" y="243.061279296875" x="1497.295166015625" class="er relationshipLabelBox"/><text style="text-anchor: middle; dominant-baseline: middle; font-size: 12px;" y="250.061279296875" x="1505.232666015625" id="rel14" class="er relationshipLabel">url</text></svg>