<svg aria-roledescription="er" role="graphics-document document" viewBox="0 0 1409.671875 449" style="max-width: 1409.67px; background-color: white;" xmlns:xlink="http://www.w3.org/1999/xlink" xmlns="http://www.w3.org/2000/svg" width="100%" id="my-svg"><style>#my-svg{font-family:"trebuchet ms",verdana,arial,sans-serif;font-size:16px;fill:#333;}#my-svg .error-icon{fill:#552222;}#my-svg .error-text{fill:#552222;stroke:#552222;}#my-svg .edge-thickness-normal{stroke-width:1px;}#my-svg .edge-thickness-thick{stroke-width:3.5px;}#my-svg .edge-pattern-solid{stroke-dasharray:0;}#my-svg .edge-thickness-invisible{stroke-width:0;fill:none;}#my-svg .edge-pattern-dashed{stroke-dasharray:3;}#my-svg .edge-pattern-dotted{stroke-dasharray:2;}#my-svg .marker{fill:#333333;stroke:#333333;}#my-svg .marker.cross{stroke:#333333;}#my-svg svg{font-family:"trebuchet ms",verdana,arial,sans-serif;font-size:16px;}#my-svg p{margin:0;}#my-svg .entityBox{fill:#ECECFF;stroke:#9370DB;}#my-svg .attributeBoxOdd{fill:#ffffff;stroke:#9370DB;}#my-svg .attributeBoxEven{fill:#f2f2f2;stroke:#9370DB;}#my-svg .relationshipLabelBox{fill:hsl(80, 100%, 96.2745098039%);opacity:0.7;background-color:hsl(80, 100%, 96.2745098039%);}#my-svg .relationshipLabelBox rect{opacity:0.5;}#my-svg .relationshipLine{stroke:#333333;}#my-svg .entityTitleText{text-anchor:middle;font-size:18px;fill:#333;}#my-svg #MD_PARENT_START{fill:#f5f5f5!important;stroke:#333333!important;stroke-width:1;}#my-svg #MD_PARENT_END{fill:#f5f5f5!important;stroke:#333333!important;stroke-width:1;}#my-svg :root{--mermaid-font-family:"trebuchet ms",verdana,arial,sans-serif;}</style><g/><defs><marker orient="auto" markerHeight="240" markerWidth="190" refY="7" refX="0" id="MD_PARENT_START"><path d="M 18,7 L9,13 L1,7 L9,1 Z"/></marker></defs><defs><marker orient="auto" markerHeight="28" markerWidth="20" refY="7" refX="19" id="MD_PARENT_END"><path d="M 18,7 L9,13 L1,7 L9,1 Z"/></marker></defs><defs><marker orient="auto" markerHeight="18" markerWidth="18" refY="9" refX="0" id="ONLY_ONE_START"><path d="M9,0 L9,18 M15,0 L15,18" fill="none" stroke="gray"/></marker></defs><defs><marker orient="auto" markerHeight="18" markerWidth="18" refY="9" refX="18" id="ONLY_ONE_END"><path d="M3,0 L3,18 M9,0 L9,18" fill="none" stroke="gray"/></marker></defs><defs><marker orient="auto" markerHeight="18" markerWidth="30" refY="9" refX="0" id="ZERO_OR_ONE_START"><circle r="6" cy="9" cx="21" fill="white" stroke="gray"/><path d="M9,0 L9,18" fill="none" stroke="gray"/></marker></defs><defs><marker orient="auto" markerHeight="18" markerWidth="30" refY="9" refX="30" id="ZERO_OR_ONE_END"><circle r="6" cy="9" cx="9" fill="white" stroke="gray"/><path d="M21,0 L21,18" fill="none" stroke="gray"/></marker></defs><defs><marker orient="auto" markerHeight="36" markerWidth="45" refY="18" refX="18" id="ONE_OR_MORE_START"><path d="M0,18 Q 18,0 36,18 Q 18,36 0,18 M42,9 L42,27" fill="none" stroke="gray"/></marker></defs><defs><marker orient="auto" markerHeight="36" markerWidth="45" refY="18" refX="27" id="ONE_OR_MORE_END"><path d="M3,9 L3,27 M9,18 Q27,0 45,18 Q27,36 9,18" fill="none" stroke="gray"/></marker></defs><defs><marker orient="auto" markerHeight="36" markerWidth="57" refY="18" refX="18" id="ZERO_OR_MORE_START"><circle r="6" cy="18" cx="48" fill="white" stroke="gray"/><path d="M0,18 Q18,0 36,18 Q18,36 0,18" fill="none" stroke="gray"/></marker></defs><defs><marker orient="auto" markerHeight="36" markerWidth="57" refY="18" refX="39" id="ZERO_OR_MORE_END"><circle r="6" cy="18" cx="9" fill="white" stroke="gray"/><path d="M21,18 Q39,0 57,18 Q39,36 21,18" fill="none" stroke="gray"/></marker></defs><path style="stroke: gray; fill: none;" marker-start="url(#ONLY_ONE_START)" marker-end="url(#ZERO_OR_MORE_END)" d="M550.031,162.329L473.904,185.941C397.776,209.553,245.521,256.776,169.393,288.722C93.266,320.667,93.266,337.333,93.266,345.667L93.266,354" class="er relationshipLine"/><path style="stroke: gray; fill: none;" marker-start="url(#ONLY_ONE_START)" marker-end="url(#ZERO_OR_MORE_END)" d="M550.031,168.106L490.57,190.755C431.109,213.404,312.188,258.702,294.393,293.504C276.599,328.306,359.932,352.611,401.599,364.764L443.266,376.917" class="er relationshipLine"/><path style="stroke: gray; fill: none;" marker-start="url(#ONLY_ONE_START)" marker-end="url(#ZERO_OR_MORE_END)" d="M550.031,177.298L507.237,198.415C464.443,219.532,378.854,261.766,361.06,293.82C343.266,325.875,393.266,347.75,418.266,358.688L443.266,369.625" class="er relationshipLine"/><path style="stroke: gray; fill: none;" marker-start="url(#ONLY_ONE_START)" marker-end="url(#ZERO_OR_MORE_END)" d="M550.031,194.199L523.904,212.499C497.776,230.799,445.521,267.4,428.917,294.033C412.313,320.667,431.361,337.333,440.885,345.667L450.408,354" class="er relationshipLine"/><path style="stroke: gray; fill: none;" marker-start="url(#ONLY_ONE_START)" marker-end="url(#ZERO_OR_MORE_END)" d="M713.359,189.139L743.344,208.282C773.328,227.426,833.297,265.713,863.281,293.19C893.266,320.667,893.266,337.333,893.266,345.667L893.266,354" class="er relationshipLine"/><path style="stroke: gray; fill: none;" marker-start="url(#ONLY_ONE_START)" marker-end="url(#ZERO_OR_MORE_END)" d="M550.031,235.519L540.57,246.932C531.109,258.346,512.188,281.173,502.727,300.92C493.266,320.667,493.266,337.333,493.266,345.667L493.266,354" class="er relationshipLine"/><path style="stroke: gray; fill: none;" marker-start="url(#ONLY_ONE_START)" marker-end="url(#ZERO_OR_MORE_END)" d="M604.772,254L602.854,262.333C600.936,270.667,597.101,287.333,585.659,304C574.218,320.667,555.17,337.333,545.647,345.667L536.123,354" class="er relationshipLine"/><path style="stroke: gray; fill: none;" marker-start="url(#ONLY_ONE_START)" marker-end="url(#ZERO_OR_MORE_END)" d="M674.831,254L677.904,262.333C680.976,270.667,687.121,287.333,665.193,306.604C643.266,325.875,593.266,347.75,568.266,358.688L543.266,369.625" class="er relationshipLine"/><path style="stroke: gray; fill: none;" marker-start="url(#ONLY_ONE_START)" marker-end="url(#ZERO_OR_MORE_END)" d="M713.359,221.408L726.677,235.174C739.995,248.939,766.63,276.469,738.281,302.388C709.932,328.306,626.599,352.611,584.932,364.764L543.266,376.917" class="er relationshipLine"/><path style="stroke: gray; fill: none;" marker-start="url(#ONLY_ONE_START)" marker-end="url(#ZERO_OR_MORE_END)" d="M713.359,168.368L772.211,190.973C831.063,213.579,948.766,258.789,1014.589,289.728C1080.412,320.667,1094.356,337.333,1101.327,345.667L1108.299,354" class="er relationshipLine"/><path style="stroke: gray; fill: none;" marker-start="url(#ONLY_ONE_START)" marker-end="url(#ZERO_OR_MORE_END)" d="M713.359,156.263L817.745,180.886C922.13,205.509,1130.901,254.754,1235.286,287.711C1339.672,320.667,1339.672,337.333,1339.672,345.667L1339.672,354" class="er relationshipLine"/><path style="stroke: gray; fill: none;" marker-start="url(#ONLY_ONE_START)" marker-end="url(#ZERO_OR_MORE_END)" d="M713.359,161.442L792.745,185.201C872.13,208.961,1030.901,256.481,1105.525,288.574C1180.148,320.667,1170.624,337.333,1165.862,345.667L1161.1,354" class="er relationshipLine"/><g transform="translate(550.03125,20 )" id="entity-ContactPoint-58bf6365-d2da-551d-a1b0-91793c4d1cf4"><rect height="234" width="163.328125" y="0" x="0" class="er entityBox"/><text style="dominant-baseline: middle; text-anchor: middle; font-size: 12px;" transform="translate(81.6640625,12)" y="0" x="0" id="text-entity-ContactPoint-58bf6365-d2da-551d-a1b0-91793c4d1cf4" class="er entityLabel">ContactPoint</text><rect height="21" width="57.0625" y="24" x="0" class="er attributeBoxOdd"/><text style="dominant-baseline: middle; font-size: 10.2px;" transform="translate(5,34.5)" y="0" x="0" id="text-entity-ContactPoint-58bf6365-d2da-551d-a1b0-91793c4d1cf4-attr-1-type" class="er entityLabel">stringList</text><rect height="21" width="106.265625" y="24" x="57.0625" class="er attributeBoxOdd"/><text style="dominant-baseline: middle; font-size: 10.2px;" transform="translate(62.0625,34.5)" y="0" x="0" id="text-entity-ContactPoint-58bf6365-d2da-551d-a1b0-91793c4d1cf4-attr-1-name" class="er entityLabel">areaServed</text><rect height="21" width="57.0625" y="45" x="0" class="er attributeBoxEven"/><text style="dominant-baseline: middle; font-size: 10.2px;" transform="translate(5,55.5)" y="0" x="0" id="text-entity-ContactPoint-58bf6365-d2da-551d-a1b0-91793c4d1cf4-attr-2-type" class="er entityLabel">stringList</text><rect height="21" width="106.265625" y="45" x="57.0625" class="er attributeBoxEven"/><text style="dominant-baseline: middle; font-size: 10.2px;" transform="translate(62.0625,55.5)" y="0" x="0" id="text-entity-ContactPoint-58bf6365-d2da-551d-a1b0-91793c4d1cf4-attr-2-name" class="er entityLabel">availableLanguage</text><rect height="21" width="57.0625" y="66" x="0" class="er attributeBoxOdd"/><text style="dominant-baseline: middle; font-size: 10.2px;" transform="translate(5,76.5)" y="0" x="0" id="text-entity-ContactPoint-58bf6365-d2da-551d-a1b0-91793c4d1cf4-attr-3-type" class="er entityLabel">stringList</text><rect height="21" width="106.265625" y="66" x="57.0625" class="er attributeBoxOdd"/><text style="dominant-baseline: middle; font-size: 10.2px;" transform="translate(62.0625,76.5)" y="0" x="0" id="text-entity-ContactPoint-58bf6365-d2da-551d-a1b0-91793c4d1cf4-attr-3-name" class="er entityLabel">productSupported</text><rect height="21" width="57.0625" y="87" x="0" class="er attributeBoxEven"/><text style="dominant-baseline: middle; font-size: 10.2px;" transform="translate(5,97.5)" y="0" x="0" id="text-entity-ContactPoint-58bf6365-d2da-551d-a1b0-91793c4d1cf4-attr-4-type" class="er entityLabel">stringList</text><rect height="21" width="106.265625" y="87" x="57.0625" class="er attributeBoxEven"/><text style="dominant-baseline: middle; font-size: 10.2px;" transform="translate(62.0625,97.5)" y="0" x="0" id="text-entity-ContactPoint-58bf6365-d2da-551d-a1b0-91793c4d1cf4-attr-4-name" class="er entityLabel">serviceArea</text><rect height="21" width="57.0625" y="108" x="0" class="er attributeBoxOdd"/><text style="dominant-baseline: middle; font-size: 10.2px;" transform="translate(5,118.5)" y="0" x="0" id="text-entity-ContactPoint-58bf6365-d2da-551d-a1b0-91793c4d1cf4-attr-5-type" class="er entityLabel">stringList</text><rect height="21" width="106.265625" y="108" x="57.0625" class="er attributeBoxOdd"/><text style="dominant-baseline: middle; font-size: 10.2px;" transform="translate(62.0625,118.5)" y="0" x="0" id="text-entity-ContactPoint-58bf6365-d2da-551d-a1b0-91793c4d1cf4-attr-5-name" class="er entityLabel">additionalType</text><rect height="21" width="57.0625" y="129" x="0" class="er attributeBoxEven"/><text style="dominant-baseline: middle; font-size: 10.2px;" transform="translate(5,139.5)" y="0" x="0" id="text-entity-ContactPoint-58bf6365-d2da-551d-a1b0-91793c4d1cf4-attr-6-type" class="er entityLabel">stringList</text><rect height="21" width="106.265625" y="129" x="57.0625" class="er attributeBoxEven"/><text style="dominant-baseline: middle; font-size: 10.2px;" transform="translate(62.0625,139.5)" y="0" x="0" id="text-entity-ContactPoint-58bf6365-d2da-551d-a1b0-91793c4d1cf4-attr-6-name" class="er entityLabel">description</text><rect height="21" width="57.0625" y="150" x="0" class="er attributeBoxOdd"/><text style="dominant-baseline: middle; font-size: 10.2px;" transform="translate(5,160.5)" y="0" x="0" id="text-entity-ContactPoint-58bf6365-d2da-551d-a1b0-91793c4d1cf4-attr-7-type" class="er entityLabel">stringList</text><rect height="21" width="106.265625" y="150" x="57.0625" class="er attributeBoxOdd"/><text style="dominant-baseline: middle; font-size: 10.2px;" transform="translate(62.0625,160.5)" y="0" x="0" id="text-entity-ContactPoint-58bf6365-d2da-551d-a1b0-91793c4d1cf4-attr-7-name" class="er entityLabel">identifier</text><rect height="21" width="57.0625" y="171" x="0" class="er attributeBoxEven"/><text style="dominant-baseline: middle; font-size: 10.2px;" transform="translate(5,181.5)" y="0" x="0" id="text-entity-ContactPoint-58bf6365-d2da-551d-a1b0-91793c4d1cf4-attr-8-type" class="er entityLabel">stringList</text><rect height="21" width="106.265625" y="171" x="57.0625" class="er attributeBoxEven"/><text style="dominant-baseline: middle; font-size: 10.2px;" transform="translate(62.0625,181.5)" y="0" x="0" id="text-entity-ContactPoint-58bf6365-d2da-551d-a1b0-91793c4d1cf4-attr-8-name" class="er entityLabel">image</text><rect height="21" width="57.0625" y="192" x="0" class="er attributeBoxOdd"/><text style="dominant-baseline: middle; font-size: 10.2px;" transform="translate(5,202.5)" y="0" x="0" id="text-entity-ContactPoint-58bf6365-d2da-551d-a1b0-91793c4d1cf4-attr-9-type" class="er entityLabel">stringList</text><rect height="21" width="106.265625" y="192" x="57.0625" class="er attributeBoxOdd"/><text style="dominant-baseline: middle; font-size: 10.2px;" transform="translate(62.0625,202.5)" y="0" x="0" id="text-entity-ContactPoint-58bf6365-d2da-551d-a1b0-91793c4d1cf4-attr-9-name" class="er entityLabel">mainEntityOfPage</text><rect height="21" width="57.0625" y="213" x="0" class="er attributeBoxEven"/><text style="dominant-baseline: middle; font-size: 10.2px;" transform="translate(5,223.5)" y="0" x="0" id="text-entity-ContactPoint-58bf6365-d2da-551d-a1b0-91793c4d1cf4-attr-10-type" class="er entityLabel">stringList</text><rect height="21" width="106.265625" y="213" x="57.0625" class="er attributeBoxEven"/><text style="dominant-baseline: middle; font-size: 10.2px;" transform="translate(62.0625,223.5)" y="0" x="0" id="text-entity-ContactPoint-58bf6365-d2da-551d-a1b0-91793c4d1cf4-attr-10-name" class="er entityLabel">subjectOf</text></g><g transform="translate(20,354 )" id="entity-ContactPointOption-260b39e4-2889-5600-9440-34f3a8c36692"><rect height="75" width="146.53125" y="0" x="0" class="er entityBox"/><text style="dominant-baseline: middle; text-anchor: middle; font-size: 12px;" transform="translate(73.265625,37.5)" y="0" x="0" id="text-entity-ContactPointOption-260b39e4-2889-5600-9440-34f3a8c36692" class="er entityLabel">ContactPointOption</text></g><g transform="translate(443.265625,354 )" id="entity-Text-426c5d39-acfc-5487-a6d9-ede67887190e"><rect height="75" width="100" y="0" x="0" class="er entityBox"/><text style="dominant-baseline: middle; text-anchor: middle; font-size: 12px;" transform="translate(50,37.5)" y="0" x="0" id="text-entity-Text-426c5d39-acfc-5487-a6d9-ede67887190e" class="er entityLabel">Text</text></g><g transform="translate(796.859375,354 )" id="entity-OpeningHoursSpecification-677aa64f-a506-5d18-b5d1-75a0f22f6986"><rect height="75" width="192.8125" y="0" x="0" class="er entityBox"/><text style="dominant-baseline: middle; text-anchor: middle; font-size: 12px;" transform="translate(96.40625,37.5)" y="0" x="0" id="text-entity-OpeningHoursSpecification-677aa64f-a506-5d18-b5d1-75a0f22f6986" class="er entityLabel">OpeningHoursSpecification</text></g><g transform="translate(1089.671875,354 )" id="entity-URL-07f78d3e-fd74-5925-b39b-26c1cc2d6b7c"><rect height="75" width="100" y="0" x="0" class="er entityBox"/><text style="dominant-baseline: middle; text-anchor: middle; font-size: 12px;" transform="translate(50,37.5)" y="0" x="0" id="text-entity-URL-07f78d3e-fd74-5925-b39b-26c1cc2d6b7c" class="er entityLabel">URL</text></g><g transform="translate(1289.671875,354 )" id="entity-Action-6cd87d9a-a078-546e-a35b-bee54f477b31"><rect height="75" width="100" y="0" x="0" class="er entityBox"/><text style="dominant-baseline: middle; text-anchor: middle; font-size: 12px;" transform="translate(50,37.5)" y="0" x="0" id="text-entity-Action-6cd87d9a-a078-546e-a35b-bee54f477b31" class="er entityLabel">Action</text></g><rect height="14" width="84.96875" y="231.8929901123047" x="264.9631042480469" class="er relationshipLabelBox"/><text style="text-anchor: middle; dominant-baseline: middle; font-size: 12px;" y="238.8929901123047" x="307.4474792480469" id="rel1" class="er relationshipLabel">contactOption</text><rect height="14" width="72.46875" y="253.44149780273438" x="296.81024169921875" class="er relationshipLabelBox"/><text style="text-anchor: middle; dominant-baseline: middle; font-size: 12px;" y="260.4414978027344" x="333.04461669921875" id="rel2" class="er relationshipLabel">contactType</text><rect height="14" width="33.09375" y="253.03375244140625" x="380.0921325683594" class="er relationshipLabelBox"/><text style="text-anchor: middle; dominant-baseline: middle; font-size: 12px;" y="260.03375244140625" x="396.6390075683594" id="rel3" class="er relationshipLabel">email</text><rect height="14" width="66.951171875" y="255.62643432617188" x="424.4510192871094" class="er relationshipLabelBox"/><text style="text-anchor: middle; dominant-baseline: middle; font-size: 12px;" y="262.6264343261719" x="457.9266052246094" id="rel4" class="er relationshipLabel">faxNumber</text><rect height="14" width="88.0625" y="251.70156860351562" x="775.19140625" class="er relationshipLabelBox"/><text style="text-anchor: middle; dominant-baseline: middle; font-size: 12px;" y="258.7015686035156" x="819.22265625" id="rel5" class="er relationshipLabel">hoursAvailable</text><rect height="14" width="60.359375" y="282.3423767089844" x="478.8883056640625" class="er relationshipLabelBox"/><text style="text-anchor: middle; dominant-baseline: middle; font-size: 12px;" y="289.3423767089844" x="509.0679931640625" id="rel6" class="er relationshipLabel">telephone</text><rect height="14" width="89.953125" y="303.6789245605469" x="535.71533203125" class="er relationshipLabelBox"/><text style="text-anchor: middle; dominant-baseline: middle; font-size: 12px;" y="310.6789245605469" x="580.69189453125" id="rel7" class="er relationshipLabel">alternateName</text><rect height="14" width="161.390625" y="321.2507019042969" x="551.551025390625" class="er relationshipLabelBox"/><text style="text-anchor: middle; dominant-baseline: middle; font-size: 12px;" y="328.2507019042969" x="632.246337890625" id="rel8" class="er relationshipLabel">disambiguatingDescription</text><rect height="14" width="34.03125" y="322.7414855957031" x="672.6359252929688" class="er relationshipLabelBox"/><text style="text-anchor: middle; dominant-baseline: middle; font-size: 12px;" y="329.7414855957031" x="689.6515502929688" id="rel9" class="er relationshipLabel">name</text><rect height="14" width="47.140625" y="241.25880432128906" x="894.57373046875" class="er relationshipLabelBox"/><text style="text-anchor: middle; dominant-baseline: middle; font-size: 12px;" y="248.25880432128906" x="918.14404296875" id="rel10" class="er relationshipLabel">sameAs</text><rect height="14" width="90.96875" y="227.4175262451172" x="994.005859375" class="er relationshipLabelBox"/><text style="text-anchor: middle; dominant-baseline: middle; font-size: 12px;" y="234.4175262451172" x="1039.490234375" id="rel11" class="er relationshipLabel">potentialAction</text><rect height="14" width="15.875" y="229.48202514648438" x="951.4511108398438" class="er relationshipLabelBox"/><text style="text-anchor: middle; dominant-baseline: middle; font-size: 12px;" y="236.48202514648438" x="959.3886108398438" id="rel12" class="er relationshipLabel">url</text></svg>