<svg aria-roledescription="er" role="graphics-document document" viewBox="0 0 1273.390625 638" style="max-width: 1273.39px; background-color: white;" xmlns:xlink="http://www.w3.org/1999/xlink" xmlns="http://www.w3.org/2000/svg" width="100%" id="my-svg"><style>#my-svg{font-family:"trebuchet ms",verdana,arial,sans-serif;font-size:16px;fill:#333;}#my-svg .error-icon{fill:#552222;}#my-svg .error-text{fill:#552222;stroke:#552222;}#my-svg .edge-thickness-normal{stroke-width:1px;}#my-svg .edge-thickness-thick{stroke-width:3.5px;}#my-svg .edge-pattern-solid{stroke-dasharray:0;}#my-svg .edge-thickness-invisible{stroke-width:0;fill:none;}#my-svg .edge-pattern-dashed{stroke-dasharray:3;}#my-svg .edge-pattern-dotted{stroke-dasharray:2;}#my-svg .marker{fill:#333333;stroke:#333333;}#my-svg .marker.cross{stroke:#333333;}#my-svg svg{font-family:"trebuchet ms",verdana,arial,sans-serif;font-size:16px;}#my-svg p{margin:0;}#my-svg .entityBox{fill:#ECECFF;stroke:#9370DB;}#my-svg .attributeBoxOdd{fill:#ffffff;stroke:#9370DB;}#my-svg .attributeBoxEven{fill:#f2f2f2;stroke:#9370DB;}#my-svg .relationshipLabelBox{fill:hsl(80, 100%, 96.2745098039%);opacity:0.7;background-color:hsl(80, 100%, 96.2745098039%);}#my-svg .relationshipLabelBox rect{opacity:0.5;}#my-svg .relationshipLine{stroke:#333333;}#my-svg .entityTitleText{text-anchor:middle;font-size:18px;fill:#333;}#my-svg #MD_PARENT_START{fill:#f5f5f5!important;stroke:#333333!important;stroke-width:1;}#my-svg #MD_PARENT_END{fill:#f5f5f5!important;stroke:#333333!important;stroke-width:1;}#my-svg :root{--mermaid-font-family:"trebuchet ms",verdana,arial,sans-serif;}</style><g/><defs><marker orient="auto" markerHeight="240" markerWidth="190" refY="7" refX="0" id="MD_PARENT_START"><path d="M 18,7 L9,13 L1,7 L9,1 Z"/></marker></defs><defs><marker orient="auto" markerHeight="28" markerWidth="20" refY="7" refX="19" id="MD_PARENT_END"><path d="M 18,7 L9,13 L1,7 L9,1 Z"/></marker></defs><defs><marker orient="auto" markerHeight="18" markerWidth="18" refY="9" refX="0" id="ONLY_ONE_START"><path d="M9,0 L9,18 M15,0 L15,18" fill="none" stroke="gray"/></marker></defs><defs><marker orient="auto" markerHeight="18" markerWidth="18" refY="9" refX="18" id="ONLY_ONE_END"><path d="M3,0 L3,18 M9,0 L9,18" fill="none" stroke="gray"/></marker></defs><defs><marker orient="auto" markerHeight="18" markerWidth="30" refY="9" refX="0" id="ZERO_OR_ONE_START"><circle r="6" cy="9" cx="21" fill="white" stroke="gray"/><path d="M9,0 L9,18" fill="none" stroke="gray"/></marker></defs><defs><marker orient="auto" markerHeight="18" markerWidth="30" refY="9" refX="30" id="ZERO_OR_ONE_END"><circle r="6" cy="9" cx="9" fill="white" stroke="gray"/><path d="M21,0 L21,18" fill="none" stroke="gray"/></marker></defs><defs><marker orient="auto" markerHeight="36" markerWidth="45" refY="18" refX="18" id="ONE_OR_MORE_START"><path d="M0,18 Q 18,0 36,18 Q 18,36 0,18 M42,9 L42,27" fill="none" stroke="gray"/></marker></defs><defs><marker orient="auto" markerHeight="36" markerWidth="45" refY="18" refX="27" id="ONE_OR_MORE_END"><path d="M3,9 L3,27 M9,18 Q27,0 45,18 Q27,36 9,18" fill="none" stroke="gray"/></marker></defs><defs><marker orient="auto" markerHeight="36" markerWidth="57" refY="18" refX="18" id="ZERO_OR_MORE_START"><circle r="6" cy="18" cx="48" fill="white" stroke="gray"/><path d="M0,18 Q18,0 36,18 Q18,36 0,18" fill="none" stroke="gray"/></marker></defs><defs><marker orient="auto" markerHeight="36" markerWidth="57" refY="18" refX="39" id="ZERO_OR_MORE_END"><circle r="6" cy="18" cx="9" fill="white" stroke="gray"/><path d="M21,18 Q39,0 57,18 Q39,36 21,18" fill="none" stroke="gray"/></marker></defs><path style="stroke: gray; fill: none;" marker-start="url(#ONLY_ONE_START)" marker-end="url(#ZERO_OR_MORE_END)" d="M467.961,284.866L401.634,319.555C335.307,354.244,202.654,423.622,136.327,466.644C70,509.667,70,526.333,70,534.667L70,543" class="er relationshipLine"/><path style="stroke: gray; fill: none;" marker-start="url(#ONLY_ONE_START)" marker-end="url(#ZERO_OR_MORE_END)" d="M467.961,320.444L434.967,349.203C401.974,377.963,335.987,435.481,302.993,472.574C270,509.667,270,526.333,270,534.667L270,543" class="er relationshipLine"/><path style="stroke: gray; fill: none;" marker-start="url(#ONLY_ONE_START)" marker-end="url(#ZERO_OR_MORE_END)" d="M467.961,364.916L451.634,386.263C435.307,407.611,402.654,450.305,402.993,481.375C403.333,512.444,436.667,531.889,453.333,541.611L470,551.333" class="er relationshipLine"/><path style="stroke: gray; fill: none;" marker-start="url(#ONLY_ONE_START)" marker-end="url(#ZERO_OR_MORE_END)" d="M489.12,443L485.934,451.333C482.747,459.667,476.373,476.333,477.949,493C479.524,509.667,489.048,526.333,493.81,534.667L498.571,543" class="er relationshipLine"/><path style="stroke: gray; fill: none;" marker-start="url(#ONLY_ONE_START)" marker-end="url(#ZERO_OR_MORE_END)" d="M570,443L570,451.333C570,459.667,570,476.333,565.238,493C560.476,509.667,550.952,526.333,546.19,534.667L541.429,543" class="er relationshipLine"/><path style="stroke: gray; fill: none;" marker-start="url(#ONLY_ONE_START)" marker-end="url(#ZERO_OR_MORE_END)" d="M672.039,364.916L688.366,386.263C704.693,407.611,737.346,450.305,753.673,479.986C770,509.667,770,526.333,770,534.667L770,543" class="er relationshipLine"/><path style="stroke: gray; fill: none;" marker-start="url(#ONLY_ONE_START)" marker-end="url(#ZERO_OR_MORE_END)" d="M672.039,295.535L724.482,328.446C776.924,361.357,881.81,427.178,934.253,468.423C986.695,509.667,986.695,526.333,986.695,534.667L986.695,543" class="er relationshipLine"/><path style="stroke: gray; fill: none;" marker-start="url(#ONLY_ONE_START)" marker-end="url(#ZERO_OR_MORE_END)" d="M650.88,443L654.066,451.333C657.253,459.667,663.627,476.333,650.147,494.389C636.667,512.444,603.333,531.889,586.667,541.611L570,551.333" class="er relationshipLine"/><path style="stroke: gray; fill: none;" marker-start="url(#ONLY_ONE_START)" marker-end="url(#ZERO_OR_MORE_END)" d="M672.039,273.628L760.598,310.19C849.156,346.752,1026.273,419.876,1114.832,464.771C1203.391,509.667,1203.391,526.333,1203.391,534.667L1203.391,543" class="er relationshipLine"/><g transform="translate(467.9609375,20 )" id="entity-CookAction-b3ed4773-a17e-52bf-b541-af3f7aeacfe7"><rect height="423" width="204.078125" y="0" x="0" class="er entityBox"/><text style="dominant-baseline: middle; text-anchor: middle; font-size: 12px;" transform="translate(102.0390625,12)" y="0" x="0" id="text-entity-CookAction-b3ed4773-a17e-52bf-b541-af3f7aeacfe7" class="er entityLabel">CookAction</text><rect height="21" width="57.0625" y="24" x="0" class="er attributeBoxOdd"/><text style="dominant-baseline: middle; font-size: 10.2px;" transform="translate(5,34.5)" y="0" x="0" id="text-entity-CookAction-b3ed4773-a17e-52bf-b541-af3f7aeacfe7-attr-1-type" class="er entityLabel">stringList</text><rect height="21" width="147.015625" y="24" x="57.0625" class="er attributeBoxOdd"/><text style="dominant-baseline: middle; font-size: 10.2px;" transform="translate(62.0625,34.5)" y="0" x="0" id="text-entity-CookAction-b3ed4773-a17e-52bf-b541-af3f7aeacfe7-attr-1-name" class="er entityLabel">foodEstablishment</text><rect height="21" width="57.0625" y="45" x="0" class="er attributeBoxEven"/><text style="dominant-baseline: middle; font-size: 10.2px;" transform="translate(5,55.5)" y="0" x="0" id="text-entity-CookAction-b3ed4773-a17e-52bf-b541-af3f7aeacfe7-attr-2-type" class="er entityLabel">stringList</text><rect height="21" width="147.015625" y="45" x="57.0625" class="er attributeBoxEven"/><text style="dominant-baseline: middle; font-size: 10.2px;" transform="translate(62.0625,55.5)" y="0" x="0" id="text-entity-CookAction-b3ed4773-a17e-52bf-b541-af3f7aeacfe7-attr-2-name" class="er entityLabel">location</text><rect height="21" width="57.0625" y="66" x="0" class="er attributeBoxOdd"/><text style="dominant-baseline: middle; font-size: 10.2px;" transform="translate(5,76.5)" y="0" x="0" id="text-entity-CookAction-b3ed4773-a17e-52bf-b541-af3f7aeacfe7-attr-3-type" class="er entityLabel">stringList</text><rect height="21" width="147.015625" y="66" x="57.0625" class="er attributeBoxOdd"/><text style="dominant-baseline: middle; font-size: 10.2px;" transform="translate(62.0625,76.5)" y="0" x="0" id="text-entity-CookAction-b3ed4773-a17e-52bf-b541-af3f7aeacfe7-attr-3-name" class="er entityLabel">participant</text><rect height="21" width="57.0625" y="87" x="0" class="er attributeBoxEven"/><text style="dominant-baseline: middle; font-size: 10.2px;" transform="translate(5,97.5)" y="0" x="0" id="text-entity-CookAction-b3ed4773-a17e-52bf-b541-af3f7aeacfe7-attr-4-type" class="er entityLabel">stringList</text><rect height="21" width="147.015625" y="87" x="57.0625" class="er attributeBoxEven"/><text style="dominant-baseline: middle; font-size: 10.2px;" transform="translate(62.0625,97.5)" y="0" x="0" id="text-entity-CookAction-b3ed4773-a17e-52bf-b541-af3f7aeacfe7-attr-4-name" class="er entityLabel">agent</text><rect height="21" width="57.0625" y="108" x="0" class="er attributeBoxOdd"/><text style="dominant-baseline: middle; font-size: 10.2px;" transform="translate(5,118.5)" y="0" x="0" id="text-entity-CookAction-b3ed4773-a17e-52bf-b541-af3f7aeacfe7-attr-5-type" class="er entityLabel">stringList</text><rect height="21" width="147.015625" y="108" x="57.0625" class="er attributeBoxOdd"/><text style="dominant-baseline: middle; font-size: 10.2px;" transform="translate(62.0625,118.5)" y="0" x="0" id="text-entity-CookAction-b3ed4773-a17e-52bf-b541-af3f7aeacfe7-attr-5-name" class="er entityLabel">endTime</text><rect height="21" width="57.0625" y="129" x="0" class="er attributeBoxEven"/><text style="dominant-baseline: middle; font-size: 10.2px;" transform="translate(5,139.5)" y="0" x="0" id="text-entity-CookAction-b3ed4773-a17e-52bf-b541-af3f7aeacfe7-attr-6-type" class="er entityLabel">stringList</text><rect height="21" width="147.015625" y="129" x="57.0625" class="er attributeBoxEven"/><text style="dominant-baseline: middle; font-size: 10.2px;" transform="translate(62.0625,139.5)" y="0" x="0" id="text-entity-CookAction-b3ed4773-a17e-52bf-b541-af3f7aeacfe7-attr-6-name" class="er entityLabel">provider</text><rect height="21" width="57.0625" y="150" x="0" class="er attributeBoxOdd"/><text style="dominant-baseline: middle; font-size: 10.2px;" transform="translate(5,160.5)" y="0" x="0" id="text-entity-CookAction-b3ed4773-a17e-52bf-b541-af3f7aeacfe7-attr-7-type" class="er entityLabel">stringList</text><rect height="21" width="147.015625" y="150" x="57.0625" class="er attributeBoxOdd"/><text style="dominant-baseline: middle; font-size: 10.2px;" transform="translate(62.0625,160.5)" y="0" x="0" id="text-entity-CookAction-b3ed4773-a17e-52bf-b541-af3f7aeacfe7-attr-7-name" class="er entityLabel">startTime</text><rect height="21" width="57.0625" y="171" x="0" class="er attributeBoxEven"/><text style="dominant-baseline: middle; font-size: 10.2px;" transform="translate(5,181.5)" y="0" x="0" id="text-entity-CookAction-b3ed4773-a17e-52bf-b541-af3f7aeacfe7-attr-8-type" class="er entityLabel">stringList</text><rect height="21" width="147.015625" y="171" x="57.0625" class="er attributeBoxEven"/><text style="dominant-baseline: middle; font-size: 10.2px;" transform="translate(62.0625,181.5)" y="0" x="0" id="text-entity-CookAction-b3ed4773-a17e-52bf-b541-af3f7aeacfe7-attr-8-name" class="er entityLabel">target</text><rect height="21" width="57.0625" y="192" x="0" class="er attributeBoxOdd"/><text style="dominant-baseline: middle; font-size: 10.2px;" transform="translate(5,202.5)" y="0" x="0" id="text-entity-CookAction-b3ed4773-a17e-52bf-b541-af3f7aeacfe7-attr-9-type" class="er entityLabel">stringList</text><rect height="21" width="147.015625" y="192" x="57.0625" class="er attributeBoxOdd"/><text style="dominant-baseline: middle; font-size: 10.2px;" transform="translate(62.0625,202.5)" y="0" x="0" id="text-entity-CookAction-b3ed4773-a17e-52bf-b541-af3f7aeacfe7-attr-9-name" class="er entityLabel">additionalType</text><rect height="21" width="57.0625" y="213" x="0" class="er attributeBoxEven"/><text style="dominant-baseline: middle; font-size: 10.2px;" transform="translate(5,223.5)" y="0" x="0" id="text-entity-CookAction-b3ed4773-a17e-52bf-b541-af3f7aeacfe7-attr-10-type" class="er entityLabel">TextList</text><rect height="21" width="147.015625" y="213" x="57.0625" class="er attributeBoxEven"/><text style="dominant-baseline: middle; font-size: 10.2px;" transform="translate(62.0625,223.5)" y="0" x="0" id="text-entity-CookAction-b3ed4773-a17e-52bf-b541-af3f7aeacfe7-attr-10-name" class="er entityLabel">alternateName</text><rect height="21" width="57.0625" y="234" x="0" class="er attributeBoxOdd"/><text style="dominant-baseline: middle; font-size: 10.2px;" transform="translate(5,244.5)" y="0" x="0" id="text-entity-CookAction-b3ed4773-a17e-52bf-b541-af3f7aeacfe7-attr-11-type" class="er entityLabel">stringList</text><rect height="21" width="147.015625" y="234" x="57.0625" class="er attributeBoxOdd"/><text style="dominant-baseline: middle; font-size: 10.2px;" transform="translate(62.0625,244.5)" y="0" x="0" id="text-entity-CookAction-b3ed4773-a17e-52bf-b541-af3f7aeacfe7-attr-11-name" class="er entityLabel">description</text><rect height="21" width="57.0625" y="255" x="0" class="er attributeBoxEven"/><text style="dominant-baseline: middle; font-size: 10.2px;" transform="translate(5,265.5)" y="0" x="0" id="text-entity-CookAction-b3ed4773-a17e-52bf-b541-af3f7aeacfe7-attr-12-type" class="er entityLabel">TextList</text><rect height="21" width="147.015625" y="255" x="57.0625" class="er attributeBoxEven"/><text style="dominant-baseline: middle; font-size: 10.2px;" transform="translate(62.0625,265.5)" y="0" x="0" id="text-entity-CookAction-b3ed4773-a17e-52bf-b541-af3f7aeacfe7-attr-12-name" class="er entityLabel">disambiguatingDescription</text><rect height="21" width="57.0625" y="276" x="0" class="er attributeBoxOdd"/><text style="dominant-baseline: middle; font-size: 10.2px;" transform="translate(5,286.5)" y="0" x="0" id="text-entity-CookAction-b3ed4773-a17e-52bf-b541-af3f7aeacfe7-attr-13-type" class="er entityLabel">stringList</text><rect height="21" width="147.015625" y="276" x="57.0625" class="er attributeBoxOdd"/><text style="dominant-baseline: middle; font-size: 10.2px;" transform="translate(62.0625,286.5)" y="0" x="0" id="text-entity-CookAction-b3ed4773-a17e-52bf-b541-af3f7aeacfe7-attr-13-name" class="er entityLabel">identifier</text><rect height="21" width="57.0625" y="297" x="0" class="er attributeBoxEven"/><text style="dominant-baseline: middle; font-size: 10.2px;" transform="translate(5,307.5)" y="0" x="0" id="text-entity-CookAction-b3ed4773-a17e-52bf-b541-af3f7aeacfe7-attr-14-type" class="er entityLabel">stringList</text><rect height="21" width="147.015625" y="297" x="57.0625" class="er attributeBoxEven"/><text style="dominant-baseline: middle; font-size: 10.2px;" transform="translate(62.0625,307.5)" y="0" x="0" id="text-entity-CookAction-b3ed4773-a17e-52bf-b541-af3f7aeacfe7-attr-14-name" class="er entityLabel">image</text><rect height="21" width="57.0625" y="318" x="0" class="er attributeBoxOdd"/><text style="dominant-baseline: middle; font-size: 10.2px;" transform="translate(5,328.5)" y="0" x="0" id="text-entity-CookAction-b3ed4773-a17e-52bf-b541-af3f7aeacfe7-attr-15-type" class="er entityLabel">TextList</text><rect height="21" width="147.015625" y="318" x="57.0625" class="er attributeBoxOdd"/><text style="dominant-baseline: middle; font-size: 10.2px;" transform="translate(62.0625,328.5)" y="0" x="0" id="text-entity-CookAction-b3ed4773-a17e-52bf-b541-af3f7aeacfe7-attr-15-name" class="er entityLabel">name</text><rect height="21" width="57.0625" y="339" x="0" class="er attributeBoxEven"/><text style="dominant-baseline: middle; font-size: 10.2px;" transform="translate(5,349.5)" y="0" x="0" id="text-entity-CookAction-b3ed4773-a17e-52bf-b541-af3f7aeacfe7-attr-16-type" class="er entityLabel">URLList</text><rect height="21" width="147.015625" y="339" x="57.0625" class="er attributeBoxEven"/><text style="dominant-baseline: middle; font-size: 10.2px;" transform="translate(62.0625,349.5)" y="0" x="0" id="text-entity-CookAction-b3ed4773-a17e-52bf-b541-af3f7aeacfe7-attr-16-name" class="er entityLabel">sameAs</text><rect height="21" width="57.0625" y="360" x="0" class="er attributeBoxOdd"/><text style="dominant-baseline: middle; font-size: 10.2px;" transform="translate(5,370.5)" y="0" x="0" id="text-entity-CookAction-b3ed4773-a17e-52bf-b541-af3f7aeacfe7-attr-17-type" class="er entityLabel">stringList</text><rect height="21" width="147.015625" y="360" x="57.0625" class="er attributeBoxOdd"/><text style="dominant-baseline: middle; font-size: 10.2px;" transform="translate(62.0625,370.5)" y="0" x="0" id="text-entity-CookAction-b3ed4773-a17e-52bf-b541-af3f7aeacfe7-attr-17-name" class="er entityLabel">mainEntityOfPage</text><rect height="21" width="57.0625" y="381" x="0" class="er attributeBoxEven"/><text style="dominant-baseline: middle; font-size: 10.2px;" transform="translate(5,391.5)" y="0" x="0" id="text-entity-CookAction-b3ed4773-a17e-52bf-b541-af3f7aeacfe7-attr-18-type" class="er entityLabel">stringList</text><rect height="21" width="147.015625" y="381" x="57.0625" class="er attributeBoxEven"/><text style="dominant-baseline: middle; font-size: 10.2px;" transform="translate(62.0625,391.5)" y="0" x="0" id="text-entity-CookAction-b3ed4773-a17e-52bf-b541-af3f7aeacfe7-attr-18-name" class="er entityLabel">subjectOf</text><rect height="21" width="57.0625" y="402" x="0" class="er attributeBoxOdd"/><text style="dominant-baseline: middle; font-size: 10.2px;" transform="translate(5,412.5)" y="0" x="0" id="text-entity-CookAction-b3ed4773-a17e-52bf-b541-af3f7aeacfe7-attr-19-type" class="er entityLabel">URLList</text><rect height="21" width="147.015625" y="402" x="57.0625" class="er attributeBoxOdd"/><text style="dominant-baseline: middle; font-size: 10.2px;" transform="translate(62.0625,412.5)" y="0" x="0" id="text-entity-CookAction-b3ed4773-a17e-52bf-b541-af3f7aeacfe7-attr-19-name" class="er entityLabel">url</text></g><g transform="translate(20,543 )" id="entity-FoodEvent-a0b023b0-bfbb-51d7-8028-bd471326b4ae"><rect height="75" width="100" y="0" x="0" class="er entityBox"/><text style="dominant-baseline: middle; text-anchor: middle; font-size: 12px;" transform="translate(50,37.5)" y="0" x="0" id="text-entity-FoodEvent-a0b023b0-bfbb-51d7-8028-bd471326b4ae" class="er entityLabel">FoodEvent</text></g><g transform="translate(220,543 )" id="entity-Recipe-c5a555a1-f960-52db-b4ed-0bfa18575689"><rect height="75" width="100" y="0" x="0" class="er entityBox"/><text style="dominant-baseline: middle; text-anchor: middle; font-size: 12px;" transform="translate(50,37.5)" y="0" x="0" id="text-entity-Recipe-c5a555a1-f960-52db-b4ed-0bfa18575689" class="er entityLabel">Recipe</text></g><g transform="translate(470,543 )" id="entity-Thing-27bc9527-b992-59fc-a0fb-da83e2ff80bf"><rect height="75" width="100" y="0" x="0" class="er entityBox"/><text style="dominant-baseline: middle; text-anchor: middle; font-size: 12px;" transform="translate(50,37.5)" y="0" x="0" id="text-entity-Thing-27bc9527-b992-59fc-a0fb-da83e2ff80bf" class="er entityLabel">Thing</text></g><g transform="translate(720,543 )" id="entity-HowTo-6f9e6b0e-89c2-59a9-964a-8696b3aa66a4"><rect height="75" width="100" y="0" x="0" class="er entityBox"/><text style="dominant-baseline: middle; text-anchor: middle; font-size: 12px;" transform="translate(50,37.5)" y="0" x="0" id="text-entity-HowTo-6f9e6b0e-89c2-59a9-964a-8696b3aa66a4" class="er entityLabel">HowTo</text></g><g transform="translate(920,543 )" id="entity-ActionStatusType-935590f3-1b2a-599d-8a3e-9af222825f06"><rect height="75" width="133.390625" y="0" x="0" class="er entityBox"/><text style="dominant-baseline: middle; text-anchor: middle; font-size: 12px;" transform="translate(66.6953125,37.5)" y="0" x="0" id="text-entity-ActionStatusType-935590f3-1b2a-599d-8a3e-9af222825f06" class="er entityLabel">ActionStatusType</text></g><g transform="translate(1153.390625,543 )" id="entity-Action-6cd87d9a-a078-546e-a35b-bee54f477b31"><rect height="75" width="100" y="0" x="0" class="er entityBox"/><text style="dominant-baseline: middle; text-anchor: middle; font-size: 12px;" transform="translate(50,37.5)" y="0" x="0" id="text-entity-Action-6cd87d9a-a078-546e-a35b-bee54f477b31" class="er entityLabel">Action</text></g><rect height="14" width="61.197265625" y="391.26904296875" x="223.19668579101562" class="er relationshipLabelBox"/><text style="text-anchor: middle; dominant-baseline: middle; font-size: 12px;" y="398.26904296875" x="253.79531860351562" id="rel1" class="er relationshipLabel">foodEvent</text><rect height="14" width="36.984375" y="414.5820007324219" x="335.5196228027344" class="er relationshipLabelBox"/><text style="text-anchor: middle; dominant-baseline: middle; font-size: 12px;" y="421.5820007324219" x="354.0118103027344" id="rel2" class="er relationshipLabel">recipe</text><rect height="14" width="66.11328125" y="457.7071228027344" x="372.3752746582031" class="er relationshipLabelBox"/><text style="text-anchor: middle; dominant-baseline: middle; font-size: 12px;" y="464.7071228027344" x="405.4319152832031" id="rel3" class="er relationshipLabel">instrument</text><rect height="14" width="37.2734375" y="487.38421630859375" x="459.4614562988281" class="er relationshipLabelBox"/><text style="text-anchor: middle; dominant-baseline: middle; font-size: 12px;" y="494.38421630859375" x="478.0981750488281" id="rel4" class="er relationshipLabel">object</text><rect height="14" width="34.244140625" y="488.44708251953125" x="547.3831787109375" class="er relationshipLabelBox"/><text style="text-anchor: middle; dominant-baseline: middle; font-size: 12px;" y="495.44708251953125" x="564.5052490234375" id="rel5" class="er relationshipLabel">result</text><rect height="14" width="82.46875" y="441.16082763671875" x="692.5062255859375" class="er relationshipLabelBox"/><text style="text-anchor: middle; dominant-baseline: middle; font-size: 12px;" y="448.16082763671875" x="733.7406005859375" id="rel6" class="er relationshipLabel">actionProcess</text><rect height="14" width="75.1875" y="398.45513916015625" x="807.1984252929688" class="er relationshipLabelBox"/><text style="text-anchor: middle; dominant-baseline: middle; font-size: 12px;" y="405.45513916015625" x="844.7921752929688" id="rel7" class="er relationshipLabel">actionStatus</text><rect height="14.000030517578125" width="29.1171875" y="503.0431671142578" x="619.9048461914062" class="er relationshipLabelBox"/><text style="text-anchor: middle; dominant-baseline: middle; font-size: 12px;" y="510.0431823730469" x="634.4634399414062" id="rel8" class="er relationshipLabel">error</text><rect height="14" width="90.96875" y="383.5847473144531" x="906.7216186523438" class="er relationshipLabelBox"/><text style="text-anchor: middle; dominant-baseline: middle; font-size: 12px;" y="390.5847473144531" x="952.2059936523438" id="rel9" class="er relationshipLabel">potentialAction</text></svg>