<svg aria-roledescription="er" role="graphics-document document" viewBox="0 0 1723.390625 533" style="max-width: 1723.39px; background-color: white;" xmlns:xlink="http://www.w3.org/1999/xlink" xmlns="http://www.w3.org/2000/svg" width="100%" id="my-svg"><style>#my-svg{font-family:"trebuchet ms",verdana,arial,sans-serif;font-size:16px;fill:#333;}#my-svg .error-icon{fill:#552222;}#my-svg .error-text{fill:#552222;stroke:#552222;}#my-svg .edge-thickness-normal{stroke-width:1px;}#my-svg .edge-thickness-thick{stroke-width:3.5px;}#my-svg .edge-pattern-solid{stroke-dasharray:0;}#my-svg .edge-thickness-invisible{stroke-width:0;fill:none;}#my-svg .edge-pattern-dashed{stroke-dasharray:3;}#my-svg .edge-pattern-dotted{stroke-dasharray:2;}#my-svg .marker{fill:#333333;stroke:#333333;}#my-svg .marker.cross{stroke:#333333;}#my-svg svg{font-family:"trebuchet ms",verdana,arial,sans-serif;font-size:16px;}#my-svg p{margin:0;}#my-svg .entityBox{fill:#ECECFF;stroke:#9370DB;}#my-svg .attributeBoxOdd{fill:#ffffff;stroke:#9370DB;}#my-svg .attributeBoxEven{fill:#f2f2f2;stroke:#9370DB;}#my-svg .relationshipLabelBox{fill:hsl(80, 100%, 96.2745098039%);opacity:0.7;background-color:hsl(80, 100%, 96.2745098039%);}#my-svg .relationshipLabelBox rect{opacity:0.5;}#my-svg .relationshipLine{stroke:#333333;}#my-svg .entityTitleText{text-anchor:middle;font-size:18px;fill:#333;}#my-svg #MD_PARENT_START{fill:#f5f5f5!important;stroke:#333333!important;stroke-width:1;}#my-svg #MD_PARENT_END{fill:#f5f5f5!important;stroke:#333333!important;stroke-width:1;}#my-svg :root{--mermaid-font-family:"trebuchet ms",verdana,arial,sans-serif;}</style><g/><defs><marker orient="auto" markerHeight="240" markerWidth="190" refY="7" refX="0" id="MD_PARENT_START"><path d="M 18,7 L9,13 L1,7 L9,1 Z"/></marker></defs><defs><marker orient="auto" markerHeight="28" markerWidth="20" refY="7" refX="19" id="MD_PARENT_END"><path d="M 18,7 L9,13 L1,7 L9,1 Z"/></marker></defs><defs><marker orient="auto" markerHeight="18" markerWidth="18" refY="9" refX="0" id="ONLY_ONE_START"><path d="M9,0 L9,18 M15,0 L15,18" fill="none" stroke="gray"/></marker></defs><defs><marker orient="auto" markerHeight="18" markerWidth="18" refY="9" refX="18" id="ONLY_ONE_END"><path d="M3,0 L3,18 M9,0 L9,18" fill="none" stroke="gray"/></marker></defs><defs><marker orient="auto" markerHeight="18" markerWidth="30" refY="9" refX="0" id="ZERO_OR_ONE_START"><circle r="6" cy="9" cx="21" fill="white" stroke="gray"/><path d="M9,0 L9,18" fill="none" stroke="gray"/></marker></defs><defs><marker orient="auto" markerHeight="18" markerWidth="30" refY="9" refX="30" id="ZERO_OR_ONE_END"><circle r="6" cy="9" cx="9" fill="white" stroke="gray"/><path d="M21,0 L21,18" fill="none" stroke="gray"/></marker></defs><defs><marker orient="auto" markerHeight="36" markerWidth="45" refY="18" refX="18" id="ONE_OR_MORE_START"><path d="M0,18 Q 18,0 36,18 Q 18,36 0,18 M42,9 L42,27" fill="none" stroke="gray"/></marker></defs><defs><marker orient="auto" markerHeight="36" markerWidth="45" refY="18" refX="27" id="ONE_OR_MORE_END"><path d="M3,9 L3,27 M9,18 Q27,0 45,18 Q27,36 9,18" fill="none" stroke="gray"/></marker></defs><defs><marker orient="auto" markerHeight="36" markerWidth="57" refY="18" refX="18" id="ZERO_OR_MORE_START"><circle r="6" cy="18" cx="48" fill="white" stroke="gray"/><path d="M0,18 Q18,0 36,18 Q18,36 0,18" fill="none" stroke="gray"/></marker></defs><defs><marker orient="auto" markerHeight="36" markerWidth="57" refY="18" refX="39" id="ZERO_OR_MORE_END"><circle r="6" cy="18" cx="9" fill="white" stroke="gray"/><path d="M21,18 Q39,0 57,18 Q39,36 21,18" fill="none" stroke="gray"/></marker></defs><path style="stroke: gray; fill: none;" marker-start="url(#ONLY_ONE_START)" marker-end="url(#ZERO_OR_MORE_END)" d="M855.641,198.546L724.701,230.122C593.76,261.697,331.88,324.849,200.94,364.758C70,404.667,70,421.333,70,429.667L70,438" class="er relationshipLine"/><path style="stroke: gray; fill: none;" marker-start="url(#ONLY_ONE_START)" marker-end="url(#ZERO_OR_MORE_END)" d="M855.641,204.41L758.034,235.008C660.427,265.606,465.214,326.803,367.607,365.735C270,404.667,270,421.333,270,429.667L270,438" class="er relationshipLine"/><path style="stroke: gray; fill: none;" marker-start="url(#ONLY_ONE_START)" marker-end="url(#ZERO_OR_MORE_END)" d="M855.641,208.893L774.701,238.744C693.76,268.596,531.88,328.298,467.607,367.871C403.333,407.444,436.667,426.889,453.333,436.611L470,446.333" class="er relationshipLine"/><path style="stroke: gray; fill: none;" marker-start="url(#ONLY_ONE_START)" marker-end="url(#ZERO_OR_MORE_END)" d="M855.641,215.299L791.367,244.082C727.094,272.866,598.547,330.433,539.035,367.55C479.524,404.667,489.048,421.333,493.81,429.667L498.571,438" class="er relationshipLine"/><path style="stroke: gray; fill: none;" marker-start="url(#ONLY_ONE_START)" marker-end="url(#ZERO_OR_MORE_END)" d="M855.641,225.198L808.034,252.331C760.427,279.465,665.214,333.733,612.845,369.2C560.476,404.667,550.952,421.333,546.19,429.667L541.429,438" class="er relationshipLine"/><path style="stroke: gray; fill: none;" marker-start="url(#ONLY_ONE_START)" marker-end="url(#ZERO_OR_MORE_END)" d="M855.641,285.983L842.758,302.985C829.876,319.988,804.112,353.994,791.23,379.33C778.348,404.667,778.348,421.333,778.348,429.667L778.348,438" class="er relationshipLine"/><path style="stroke: gray; fill: none;" marker-start="url(#ONLY_ONE_START)" marker-end="url(#ZERO_OR_MORE_END)" d="M981.084,338L983.411,346.333C985.737,354.667,990.39,371.333,992.717,388C995.043,404.667,995.043,421.333,995.043,429.667L995.043,438" class="er relationshipLine"/><path style="stroke: gray; fill: none;" marker-start="url(#ONLY_ONE_START)" marker-end="url(#ZERO_OR_MORE_END)" d="M855.641,242.52L824.701,266.766C793.76,291.013,731.88,339.507,684.273,373.476C636.667,407.444,603.333,426.889,586.667,436.611L570,446.333" class="er relationshipLine"/><path style="stroke: gray; fill: none;" marker-start="url(#ONLY_ONE_START)" marker-end="url(#ZERO_OR_MORE_END)" d="M1017.75,280.625L1032.023,298.521C1046.297,316.417,1074.844,352.208,1105.784,379.826C1136.724,407.444,1170.057,426.889,1186.724,436.611L1203.391,446.333" class="er relationshipLine"/><path style="stroke: gray; fill: none;" marker-start="url(#ONLY_ONE_START)" marker-end="url(#ZERO_OR_MORE_END)" d="M1017.75,242.52L1048.69,266.766C1079.63,291.013,1141.51,339.507,1177.212,372.087C1212.914,404.667,1222.438,421.333,1227.2,429.667L1231.962,438" class="er relationshipLine"/><path style="stroke: gray; fill: none;" marker-start="url(#ONLY_ONE_START)" marker-end="url(#ZERO_OR_MORE_END)" d="M1017.75,225.198L1065.357,252.331C1112.964,279.465,1208.177,333.733,1251.022,369.2C1293.867,404.667,1284.343,421.333,1279.581,429.667L1274.819,438" class="er relationshipLine"/><path style="stroke: gray; fill: none;" marker-start="url(#ONLY_ONE_START)" marker-end="url(#ZERO_OR_MORE_END)" d="M1017.75,215.299L1082.023,244.082C1146.297,272.866,1274.844,330.433,1343.879,367.55C1412.914,404.667,1422.438,421.333,1427.2,429.667L1431.962,438" class="er relationshipLine"/><path style="stroke: gray; fill: none;" marker-start="url(#ONLY_ONE_START)" marker-end="url(#ZERO_OR_MORE_END)" d="M1017.75,202.637L1123.69,233.531C1229.63,264.425,1441.51,326.212,1547.451,365.439C1653.391,404.667,1653.391,421.333,1653.391,429.667L1653.391,438" class="er relationshipLine"/><path style="stroke: gray; fill: none;" marker-start="url(#ONLY_ONE_START)" marker-end="url(#ZERO_OR_MORE_END)" d="M1017.75,208.893L1098.69,238.744C1179.63,268.596,1341.51,328.298,1417.689,366.482C1493.867,404.667,1484.343,421.333,1479.581,429.667L1474.819,438" class="er relationshipLine"/><g transform="translate(855.640625,20 )" id="entity-CookAction-b3ed4773-a17e-52bf-b541-af3f7aeacfe7"><rect height="318" width="162.109375" y="0" x="0" class="er entityBox"/><text style="dominant-baseline: middle; text-anchor: middle; font-size: 12px;" transform="translate(81.0546875,12)" y="0" x="0" id="text-entity-CookAction-b3ed4773-a17e-52bf-b541-af3f7aeacfe7" class="er entityLabel">CookAction</text><rect height="21" width="57.0625" y="24" x="0" class="er attributeBoxOdd"/><text style="dominant-baseline: middle; font-size: 10.2px;" transform="translate(5,34.5)" y="0" x="0" id="text-entity-CookAction-b3ed4773-a17e-52bf-b541-af3f7aeacfe7-attr-1-type" class="er entityLabel">stringList</text><rect height="21" width="105.046875" y="24" x="57.0625" class="er attributeBoxOdd"/><text style="dominant-baseline: middle; font-size: 10.2px;" transform="translate(62.0625,34.5)" y="0" x="0" id="text-entity-CookAction-b3ed4773-a17e-52bf-b541-af3f7aeacfe7-attr-1-name" class="er entityLabel">foodEstablishment</text><rect height="21" width="57.0625" y="45" x="0" class="er attributeBoxEven"/><text style="dominant-baseline: middle; font-size: 10.2px;" transform="translate(5,55.5)" y="0" x="0" id="text-entity-CookAction-b3ed4773-a17e-52bf-b541-af3f7aeacfe7-attr-2-type" class="er entityLabel">stringList</text><rect height="21" width="105.046875" y="45" x="57.0625" class="er attributeBoxEven"/><text style="dominant-baseline: middle; font-size: 10.2px;" transform="translate(62.0625,55.5)" y="0" x="0" id="text-entity-CookAction-b3ed4773-a17e-52bf-b541-af3f7aeacfe7-attr-2-name" class="er entityLabel">location</text><rect height="21" width="57.0625" y="66" x="0" class="er attributeBoxOdd"/><text style="dominant-baseline: middle; font-size: 10.2px;" transform="translate(5,76.5)" y="0" x="0" id="text-entity-CookAction-b3ed4773-a17e-52bf-b541-af3f7aeacfe7-attr-3-type" class="er entityLabel">stringList</text><rect height="21" width="105.046875" y="66" x="57.0625" class="er attributeBoxOdd"/><text style="dominant-baseline: middle; font-size: 10.2px;" transform="translate(62.0625,76.5)" y="0" x="0" id="text-entity-CookAction-b3ed4773-a17e-52bf-b541-af3f7aeacfe7-attr-3-name" class="er entityLabel">participant</text><rect height="21" width="57.0625" y="87" x="0" class="er attributeBoxEven"/><text style="dominant-baseline: middle; font-size: 10.2px;" transform="translate(5,97.5)" y="0" x="0" id="text-entity-CookAction-b3ed4773-a17e-52bf-b541-af3f7aeacfe7-attr-4-type" class="er entityLabel">stringList</text><rect height="21" width="105.046875" y="87" x="57.0625" class="er attributeBoxEven"/><text style="dominant-baseline: middle; font-size: 10.2px;" transform="translate(62.0625,97.5)" y="0" x="0" id="text-entity-CookAction-b3ed4773-a17e-52bf-b541-af3f7aeacfe7-attr-4-name" class="er entityLabel">agent</text><rect height="21" width="57.0625" y="108" x="0" class="er attributeBoxOdd"/><text style="dominant-baseline: middle; font-size: 10.2px;" transform="translate(5,118.5)" y="0" x="0" id="text-entity-CookAction-b3ed4773-a17e-52bf-b541-af3f7aeacfe7-attr-5-type" class="er entityLabel">stringList</text><rect height="21" width="105.046875" y="108" x="57.0625" class="er attributeBoxOdd"/><text style="dominant-baseline: middle; font-size: 10.2px;" transform="translate(62.0625,118.5)" y="0" x="0" id="text-entity-CookAction-b3ed4773-a17e-52bf-b541-af3f7aeacfe7-attr-5-name" class="er entityLabel">endTime</text><rect height="21" width="57.0625" y="129" x="0" class="er attributeBoxEven"/><text style="dominant-baseline: middle; font-size: 10.2px;" transform="translate(5,139.5)" y="0" x="0" id="text-entity-CookAction-b3ed4773-a17e-52bf-b541-af3f7aeacfe7-attr-6-type" class="er entityLabel">stringList</text><rect height="21" width="105.046875" y="129" x="57.0625" class="er attributeBoxEven"/><text style="dominant-baseline: middle; font-size: 10.2px;" transform="translate(62.0625,139.5)" y="0" x="0" id="text-entity-CookAction-b3ed4773-a17e-52bf-b541-af3f7aeacfe7-attr-6-name" class="er entityLabel">provider</text><rect height="21" width="57.0625" y="150" x="0" class="er attributeBoxOdd"/><text style="dominant-baseline: middle; font-size: 10.2px;" transform="translate(5,160.5)" y="0" x="0" id="text-entity-CookAction-b3ed4773-a17e-52bf-b541-af3f7aeacfe7-attr-7-type" class="er entityLabel">stringList</text><rect height="21" width="105.046875" y="150" x="57.0625" class="er attributeBoxOdd"/><text style="dominant-baseline: middle; font-size: 10.2px;" transform="translate(62.0625,160.5)" y="0" x="0" id="text-entity-CookAction-b3ed4773-a17e-52bf-b541-af3f7aeacfe7-attr-7-name" class="er entityLabel">startTime</text><rect height="21" width="57.0625" y="171" x="0" class="er attributeBoxEven"/><text style="dominant-baseline: middle; font-size: 10.2px;" transform="translate(5,181.5)" y="0" x="0" id="text-entity-CookAction-b3ed4773-a17e-52bf-b541-af3f7aeacfe7-attr-8-type" class="er entityLabel">stringList</text><rect height="21" width="105.046875" y="171" x="57.0625" class="er attributeBoxEven"/><text style="dominant-baseline: middle; font-size: 10.2px;" transform="translate(62.0625,181.5)" y="0" x="0" id="text-entity-CookAction-b3ed4773-a17e-52bf-b541-af3f7aeacfe7-attr-8-name" class="er entityLabel">target</text><rect height="21" width="57.0625" y="192" x="0" class="er attributeBoxOdd"/><text style="dominant-baseline: middle; font-size: 10.2px;" transform="translate(5,202.5)" y="0" x="0" id="text-entity-CookAction-b3ed4773-a17e-52bf-b541-af3f7aeacfe7-attr-9-type" class="er entityLabel">stringList</text><rect height="21" width="105.046875" y="192" x="57.0625" class="er attributeBoxOdd"/><text style="dominant-baseline: middle; font-size: 10.2px;" transform="translate(62.0625,202.5)" y="0" x="0" id="text-entity-CookAction-b3ed4773-a17e-52bf-b541-af3f7aeacfe7-attr-9-name" class="er entityLabel">additionalType</text><rect height="21" width="57.0625" y="213" x="0" class="er attributeBoxEven"/><text style="dominant-baseline: middle; font-size: 10.2px;" transform="translate(5,223.5)" y="0" x="0" id="text-entity-CookAction-b3ed4773-a17e-52bf-b541-af3f7aeacfe7-attr-10-type" class="er entityLabel">stringList</text><rect height="21" width="105.046875" y="213" x="57.0625" class="er attributeBoxEven"/><text style="dominant-baseline: middle; font-size: 10.2px;" transform="translate(62.0625,223.5)" y="0" x="0" id="text-entity-CookAction-b3ed4773-a17e-52bf-b541-af3f7aeacfe7-attr-10-name" class="er entityLabel">description</text><rect height="21" width="57.0625" y="234" x="0" class="er attributeBoxOdd"/><text style="dominant-baseline: middle; font-size: 10.2px;" transform="translate(5,244.5)" y="0" x="0" id="text-entity-CookAction-b3ed4773-a17e-52bf-b541-af3f7aeacfe7-attr-11-type" class="er entityLabel">stringList</text><rect height="21" width="105.046875" y="234" x="57.0625" class="er attributeBoxOdd"/><text style="dominant-baseline: middle; font-size: 10.2px;" transform="translate(62.0625,244.5)" y="0" x="0" id="text-entity-CookAction-b3ed4773-a17e-52bf-b541-af3f7aeacfe7-attr-11-name" class="er entityLabel">identifier</text><rect height="21" width="57.0625" y="255" x="0" class="er attributeBoxEven"/><text style="dominant-baseline: middle; font-size: 10.2px;" transform="translate(5,265.5)" y="0" x="0" id="text-entity-CookAction-b3ed4773-a17e-52bf-b541-af3f7aeacfe7-attr-12-type" class="er entityLabel">stringList</text><rect height="21" width="105.046875" y="255" x="57.0625" class="er attributeBoxEven"/><text style="dominant-baseline: middle; font-size: 10.2px;" transform="translate(62.0625,265.5)" y="0" x="0" id="text-entity-CookAction-b3ed4773-a17e-52bf-b541-af3f7aeacfe7-attr-12-name" class="er entityLabel">image</text><rect height="21" width="57.0625" y="276" x="0" class="er attributeBoxOdd"/><text style="dominant-baseline: middle; font-size: 10.2px;" transform="translate(5,286.5)" y="0" x="0" id="text-entity-CookAction-b3ed4773-a17e-52bf-b541-af3f7aeacfe7-attr-13-type" class="er entityLabel">stringList</text><rect height="21" width="105.046875" y="276" x="57.0625" class="er attributeBoxOdd"/><text style="dominant-baseline: middle; font-size: 10.2px;" transform="translate(62.0625,286.5)" y="0" x="0" id="text-entity-CookAction-b3ed4773-a17e-52bf-b541-af3f7aeacfe7-attr-13-name" class="er entityLabel">mainEntityOfPage</text><rect height="21" width="57.0625" y="297" x="0" class="er attributeBoxEven"/><text style="dominant-baseline: middle; font-size: 10.2px;" transform="translate(5,307.5)" y="0" x="0" id="text-entity-CookAction-b3ed4773-a17e-52bf-b541-af3f7aeacfe7-attr-14-type" class="er entityLabel">stringList</text><rect height="21" width="105.046875" y="297" x="57.0625" class="er attributeBoxEven"/><text style="dominant-baseline: middle; font-size: 10.2px;" transform="translate(62.0625,307.5)" y="0" x="0" id="text-entity-CookAction-b3ed4773-a17e-52bf-b541-af3f7aeacfe7-attr-14-name" class="er entityLabel">subjectOf</text></g><g transform="translate(20,438 )" id="entity-FoodEvent-a0b023b0-bfbb-51d7-8028-bd471326b4ae"><rect height="75" width="100" y="0" x="0" class="er entityBox"/><text style="dominant-baseline: middle; text-anchor: middle; font-size: 12px;" transform="translate(50,37.5)" y="0" x="0" id="text-entity-FoodEvent-a0b023b0-bfbb-51d7-8028-bd471326b4ae" class="er entityLabel">FoodEvent</text></g><g transform="translate(220,438 )" id="entity-Recipe-c5a555a1-f960-52db-b4ed-0bfa18575689"><rect height="75" width="100" y="0" x="0" class="er entityBox"/><text style="dominant-baseline: middle; text-anchor: middle; font-size: 12px;" transform="translate(50,37.5)" y="0" x="0" id="text-entity-Recipe-c5a555a1-f960-52db-b4ed-0bfa18575689" class="er entityLabel">Recipe</text></g><g transform="translate(470,438 )" id="entity-Thing-27bc9527-b992-59fc-a0fb-da83e2ff80bf"><rect height="75" width="100" y="0" x="0" class="er entityBox"/><text style="dominant-baseline: middle; text-anchor: middle; font-size: 12px;" transform="translate(50,37.5)" y="0" x="0" id="text-entity-Thing-27bc9527-b992-59fc-a0fb-da83e2ff80bf" class="er entityLabel">Thing</text></g><g transform="translate(728.34765625,438 )" id="entity-HowTo-6f9e6b0e-89c2-59a9-964a-8696b3aa66a4"><rect height="75" width="100" y="0" x="0" class="er entityBox"/><text style="dominant-baseline: middle; text-anchor: middle; font-size: 12px;" transform="translate(50,37.5)" y="0" x="0" id="text-entity-HowTo-6f9e6b0e-89c2-59a9-964a-8696b3aa66a4" class="er entityLabel">HowTo</text></g><g transform="translate(928.34765625,438 )" id="entity-ActionStatusType-935590f3-1b2a-599d-8a3e-9af222825f06"><rect height="75" width="133.390625" y="0" x="0" class="er entityBox"/><text style="dominant-baseline: middle; text-anchor: middle; font-size: 12px;" transform="translate(66.6953125,37.5)" y="0" x="0" id="text-entity-ActionStatusType-935590f3-1b2a-599d-8a3e-9af222825f06" class="er entityLabel">ActionStatusType</text></g><g transform="translate(1203.390625,438 )" id="entity-Text-426c5d39-acfc-5487-a6d9-ede67887190e"><rect height="75" width="100" y="0" x="0" class="er entityBox"/><text style="dominant-baseline: middle; text-anchor: middle; font-size: 12px;" transform="translate(50,37.5)" y="0" x="0" id="text-entity-Text-426c5d39-acfc-5487-a6d9-ede67887190e" class="er entityLabel">Text</text></g><g transform="translate(1403.390625,438 )" id="entity-URL-07f78d3e-fd74-5925-b39b-26c1cc2d6b7c"><rect height="75" width="100" y="0" x="0" class="er entityBox"/><text style="dominant-baseline: middle; text-anchor: middle; font-size: 12px;" transform="translate(50,37.5)" y="0" x="0" id="text-entity-URL-07f78d3e-fd74-5925-b39b-26c1cc2d6b7c" class="er entityLabel">URL</text></g><g transform="translate(1603.390625,438 )" id="entity-Action-6cd87d9a-a078-546e-a35b-bee54f477b31"><rect height="75" width="100" y="0" x="0" class="er entityBox"/><text style="dominant-baseline: middle; text-anchor: middle; font-size: 12px;" transform="translate(50,37.5)" y="0" x="0" id="text-entity-Action-6cd87d9a-a078-546e-a35b-bee54f477b31" class="er entityLabel">Action</text></g><rect height="14" width="61.197265625" y="290.4911193847656" x="419.63861083984375" class="er relationshipLabelBox"/><text style="text-anchor: middle; dominant-baseline: middle; font-size: 12px;" y="297.4911193847656" x="450.23724365234375" id="rel1" class="er relationshipLabel">foodEvent</text><rect height="14" width="36.984375" y="294.7677001953125" x="530.5701293945312" class="er relationshipLabelBox"/><text style="text-anchor: middle; dominant-baseline: middle; font-size: 12px;" y="301.7677001953125" x="549.0623168945312" id="rel2" class="er relationshipLabel">recipe</text><rect height="14" width="66.11328125" y="296.504638671875" x="572.3527221679688" class="er relationshipLabelBox"/><text style="text-anchor: middle; dominant-baseline: middle; font-size: 12px;" y="303.504638671875" x="605.4093627929688" id="rel3" class="er relationshipLabel">instrument</text><rect height="14" width="37.2734375" y="300.75982666015625" x="634.164794921875" class="er relationshipLabelBox"/><text style="text-anchor: middle; dominant-baseline: middle; font-size: 12px;" y="307.75982666015625" x="652.801513671875" id="rel4" class="er relationshipLabel">object</text><rect height="14" width="34.244140625" y="313.86456298828125" x="672.825439453125" class="er relationshipLabelBox"/><text style="text-anchor: middle; dominant-baseline: middle; font-size: 12px;" y="320.86456298828125" x="689.947509765625" id="rel5" class="er relationshipLabel">result</text><rect height="14" width="82.46875" y="349.578369140625" x="763.277099609375" class="er relationshipLabelBox"/><text style="text-anchor: middle; dominant-baseline: middle; font-size: 12px;" y="356.578369140625" x="804.511474609375" id="rel6" class="er relationshipLabel">actionProcess</text><rect height="14" width="75.1875" y="380.3671569824219" x="955.0335693359375" class="er relationshipLabelBox"/><text style="text-anchor: middle; dominant-baseline: middle; font-size: 12px;" y="387.3671569824219" x="992.6273193359375" id="rel7" class="er relationshipLabel">actionStatus</text><rect height="14" width="29.1171875" y="342.8544006347656" x="702.0611572265625" class="er relationshipLabelBox"/><text style="text-anchor: middle; dominant-baseline: middle; font-size: 12px;" y="349.8544006347656" x="716.6197509765625" id="rel8" class="er relationshipLabel">error</text><rect height="14" width="89.953125" y="367.95648193359375" x="1055.46630859375" class="er relationshipLabelBox"/><text style="text-anchor: middle; dominant-baseline: middle; font-size: 12px;" y="374.95648193359375" x="1100.44287109375" id="rel9" class="er relationshipLabel">alternateName</text><rect height="14" width="161.390625" y="326.23931884765625" x="1051.234619140625" class="er relationshipLabelBox"/><text style="text-anchor: middle; dominant-baseline: middle; font-size: 12px;" y="333.23931884765625" x="1131.929931640625" id="rel10" class="er relationshipLabel">disambiguatingDescription</text><rect height="14" width="34.03125" y="308.1150207519531" x="1155.127685546875" class="er relationshipLabelBox"/><text style="text-anchor: middle; dominant-baseline: middle; font-size: 12px;" y="315.1150207519531" x="1172.143310546875" id="rel11" class="er relationshipLabel">name</text><rect height="14" width="47.140625" y="306.28765869140625" x="1210.3133544921875" class="er relationshipLabelBox"/><text style="text-anchor: middle; dominant-baseline: middle; font-size: 12px;" y="313.28765869140625" x="1233.8836669921875" id="rel12" class="er relationshipLabel">sameAs</text><rect height="14" width="90.96875" y="293.4670715332031" x="1303.526123046875" class="er relationshipLabelBox"/><text style="text-anchor: middle; dominant-baseline: middle; font-size: 12px;" y="300.4670715332031" x="1349.010498046875" id="rel13" class="er relationshipLabel">potentialAction</text><rect height="14" width="15.875" y="296.05975341796875" x="1261.16748046875" class="er relationshipLabelBox"/><text style="text-anchor: middle; dominant-baseline: middle; font-size: 12px;" y="303.05975341796875" x="1269.10498046875" id="rel14" class="er relationshipLabel">url</text></svg>