<svg aria-roledescription="er" role="graphics-document document" viewBox="0 0 4130.869140625 785" style="max-width: 4130.87px; background-color: white;" xmlns:xlink="http://www.w3.org/1999/xlink" xmlns="http://www.w3.org/2000/svg" width="100%" id="my-svg"><style>#my-svg{font-family:"trebuchet ms",verdana,arial,sans-serif;font-size:16px;fill:#333;}#my-svg .error-icon{fill:#552222;}#my-svg .error-text{fill:#552222;stroke:#552222;}#my-svg .edge-thickness-normal{stroke-width:1px;}#my-svg .edge-thickness-thick{stroke-width:3.5px;}#my-svg .edge-pattern-solid{stroke-dasharray:0;}#my-svg .edge-thickness-invisible{stroke-width:0;fill:none;}#my-svg .edge-pattern-dashed{stroke-dasharray:3;}#my-svg .edge-pattern-dotted{stroke-dasharray:2;}#my-svg .marker{fill:#333333;stroke:#333333;}#my-svg .marker.cross{stroke:#333333;}#my-svg svg{font-family:"trebuchet ms",verdana,arial,sans-serif;font-size:16px;}#my-svg p{margin:0;}#my-svg .entityBox{fill:#ECECFF;stroke:#9370DB;}#my-svg .attributeBoxOdd{fill:#ffffff;stroke:#9370DB;}#my-svg .attributeBoxEven{fill:#f2f2f2;stroke:#9370DB;}#my-svg .relationshipLabelBox{fill:hsl(80, 100%, 96.2745098039%);opacity:0.7;background-color:hsl(80, 100%, 96.2745098039%);}#my-svg .relationshipLabelBox rect{opacity:0.5;}#my-svg .relationshipLine{stroke:#333333;}#my-svg .entityTitleText{text-anchor:middle;font-size:18px;fill:#333;}#my-svg #MD_PARENT_START{fill:#f5f5f5!important;stroke:#333333!important;stroke-width:1;}#my-svg #MD_PARENT_END{fill:#f5f5f5!important;stroke:#333333!important;stroke-width:1;}#my-svg :root{--mermaid-font-family:"trebuchet ms",verdana,arial,sans-serif;}</style><g/><defs><marker orient="auto" markerHeight="240" markerWidth="190" refY="7" refX="0" id="MD_PARENT_START"><path d="M 18,7 L9,13 L1,7 L9,1 Z"/></marker></defs><defs><marker orient="auto" markerHeight="28" markerWidth="20" refY="7" refX="19" id="MD_PARENT_END"><path d="M 18,7 L9,13 L1,7 L9,1 Z"/></marker></defs><defs><marker orient="auto" markerHeight="18" markerWidth="18" refY="9" refX="0" id="ONLY_ONE_START"><path d="M9,0 L9,18 M15,0 L15,18" fill="none" stroke="gray"/></marker></defs><defs><marker orient="auto" markerHeight="18" markerWidth="18" refY="9" refX="18" id="ONLY_ONE_END"><path d="M3,0 L3,18 M9,0 L9,18" fill="none" stroke="gray"/></marker></defs><defs><marker orient="auto" markerHeight="18" markerWidth="30" refY="9" refX="0" id="ZERO_OR_ONE_START"><circle r="6" cy="9" cx="21" fill="white" stroke="gray"/><path d="M9,0 L9,18" fill="none" stroke="gray"/></marker></defs><defs><marker orient="auto" markerHeight="18" markerWidth="30" refY="9" refX="30" id="ZERO_OR_ONE_END"><circle r="6" cy="9" cx="9" fill="white" stroke="gray"/><path d="M21,0 L21,18" fill="none" stroke="gray"/></marker></defs><defs><marker orient="auto" markerHeight="36" markerWidth="45" refY="18" refX="18" id="ONE_OR_MORE_START"><path d="M0,18 Q 18,0 36,18 Q 18,36 0,18 M42,9 L42,27" fill="none" stroke="gray"/></marker></defs><defs><marker orient="auto" markerHeight="36" markerWidth="45" refY="18" refX="27" id="ONE_OR_MORE_END"><path d="M3,9 L3,27 M9,18 Q27,0 45,18 Q27,36 9,18" fill="none" stroke="gray"/></marker></defs><defs><marker orient="auto" markerHeight="36" markerWidth="57" refY="18" refX="18" id="ZERO_OR_MORE_START"><circle r="6" cy="18" cx="48" fill="white" stroke="gray"/><path d="M0,18 Q18,0 36,18 Q18,36 0,18" fill="none" stroke="gray"/></marker></defs><defs><marker orient="auto" markerHeight="36" markerWidth="57" refY="18" refX="39" id="ZERO_OR_MORE_END"><circle r="6" cy="18" cx="9" fill="white" stroke="gray"/><path d="M21,18 Q39,0 57,18 Q39,36 21,18" fill="none" stroke="gray"/></marker></defs><path style="stroke: gray; fill: none;" marker-start="url(#ONLY_ONE_START)" marker-end="url(#ZERO_OR_MORE_END)" d="M1661.187,329.107L1387.656,380.922C1114.125,432.738,567.062,536.369,298.293,596.518C29.524,656.667,39.048,673.333,43.81,681.667L48.571,690" class="er relationshipLine"/><path style="stroke: gray; fill: none;" marker-start="url(#ONLY_ONE_START)" marker-end="url(#ZERO_OR_MORE_END)" d="M1661.187,334.202L1439.082,385.168C1216.977,436.135,772.767,538.067,550.662,597.367C328.557,656.667,328.557,673.333,328.557,681.667L328.557,690" class="er relationshipLine"/><path style="stroke: gray; fill: none;" marker-start="url(#ONLY_ONE_START)" marker-end="url(#ZERO_OR_MORE_END)" d="M1661.187,339.83L1478.401,389.859C1295.614,439.887,930.041,539.943,747.255,598.305C564.468,656.667,564.468,673.333,564.468,681.667L564.468,690" class="er relationshipLine"/><path style="stroke: gray; fill: none;" marker-start="url(#ONLY_ONE_START)" marker-end="url(#ZERO_OR_MORE_END)" d="M1661.187,343.22L1496.493,392.683C1331.8,442.147,1002.413,541.073,879.386,602.689C756.359,664.306,839.692,688.611,881.359,700.764L923.025,712.917" class="er relationshipLine"/><path style="stroke: gray; fill: none;" marker-start="url(#ONLY_ONE_START)" marker-end="url(#ZERO_OR_MORE_END)" d="M1661.187,407.622L1613.16,446.352C1565.133,485.082,1469.079,562.541,1421.052,609.604C1373.025,656.667,1373.025,673.333,1373.025,681.667L1373.025,690" class="er relationshipLine"/><path style="stroke: gray; fill: none;" marker-start="url(#ONLY_ONE_START)" marker-end="url(#ZERO_OR_MORE_END)" d="M1661.187,545.074L1652.801,560.895C1644.414,576.716,1627.642,608.358,1619.255,632.512C1610.869,656.667,1610.869,673.333,1610.869,681.667L1610.869,690" class="er relationshipLine"/><path style="stroke: gray; fill: none;" marker-start="url(#ONLY_ONE_START)" marker-end="url(#ZERO_OR_MORE_END)" d="M1661.187,330.552L1404.323,382.126C1147.458,433.701,633.729,536.851,372.103,596.759C110.476,656.667,100.952,673.333,96.19,681.667L91.429,690" class="er relationshipLine"/><path style="stroke: gray; fill: none;" marker-start="url(#ONLY_ONE_START)" marker-end="url(#ZERO_OR_MORE_END)" d="M1661.187,332.181L1420.989,383.484C1180.791,434.787,700.396,537.394,443.531,598.419C186.667,659.444,153.333,678.889,136.667,688.611L120,698.333" class="er relationshipLine"/><path style="stroke: gray; fill: none;" marker-start="url(#ONLY_ONE_START)" marker-end="url(#ZERO_OR_MORE_END)" d="M1853.011,590L1854.898,598.333C1856.786,606.667,1860.562,623.333,1862.45,640C1864.338,656.667,1864.338,673.333,1864.338,681.667L1864.338,690" class="er relationshipLine"/><path style="stroke: gray; fill: none;" marker-start="url(#ONLY_ONE_START)" marker-end="url(#ZERO_OR_MORE_END)" d="M1915.703,487.415L1933.444,512.846C1951.185,538.277,1986.668,589.138,2009.915,622.902C2033.162,656.667,2044.174,673.333,2049.68,681.667L2055.186,690" class="er relationshipLine"/><path style="stroke: gray; fill: none;" marker-start="url(#ONLY_ONE_START)" marker-end="url(#ZERO_OR_MORE_END)" d="M1915.703,389.699L1978.381,431.415C2041.06,473.132,2166.418,556.566,2229.097,606.616C2291.775,656.667,2291.775,673.333,2291.775,681.667L2291.775,690" class="er relationshipLine"/><path style="stroke: gray; fill: none;" marker-start="url(#ONLY_ONE_START)" marker-end="url(#ZERO_OR_MORE_END)" d="M1661.187,346.984L1513.16,395.82C1365.133,444.656,1069.079,542.328,946.052,602.101C823.025,661.875,873.025,683.75,898.025,694.688L923.025,705.625" class="er relationshipLine"/><path style="stroke: gray; fill: none;" marker-start="url(#ONLY_ONE_START)" marker-end="url(#ZERO_OR_MORE_END)" d="M1915.703,364.478L2013.953,410.398C2112.203,456.319,2308.704,548.159,2406.955,602.413C2505.205,656.667,2505.205,673.333,2505.205,681.667L2505.205,690" class="er relationshipLine"/><path style="stroke: gray; fill: none;" marker-start="url(#ONLY_ONE_START)" marker-end="url(#ZERO_OR_MORE_END)" d="M1915.703,351.266L2048.066,399.388C2180.43,447.511,2445.157,543.755,2577.521,600.211C2709.885,656.667,2709.885,673.333,2709.885,681.667L2709.885,690" class="er relationshipLine"/><path style="stroke: gray; fill: none;" marker-start="url(#ONLY_ONE_START)" marker-end="url(#ZERO_OR_MORE_END)" d="M1915.703,341.409L2089.644,391.174C2263.586,440.939,2611.47,540.47,2785.412,598.568C2959.354,656.667,2959.354,673.333,2959.354,681.667L2959.354,690" class="er relationshipLine"/><path style="stroke: gray; fill: none;" marker-start="url(#ONLY_ONE_START)" marker-end="url(#ZERO_OR_MORE_END)" d="M1915.703,336.717L2118.512,387.264C2321.321,437.811,2726.939,538.906,2936.719,597.786C3146.5,656.667,3160.444,673.333,3167.415,681.667L3174.387,690" class="er relationshipLine"/><path style="stroke: gray; fill: none;" marker-start="url(#ONLY_ONE_START)" marker-end="url(#ZERO_OR_MORE_END)" d="M1661.187,351.57L1529.827,399.642C1398.466,447.714,1135.746,543.857,1013.909,600.262C892.073,656.667,911.121,673.333,920.644,681.667L930.168,690" class="er relationshipLine"/><path style="stroke: gray; fill: none;" marker-start="url(#ONLY_ONE_START)" marker-end="url(#ZERO_OR_MORE_END)" d="M1915.703,331.359L2164.045,382.799C2412.388,434.24,2909.074,537.12,3157.417,596.893C3405.76,656.667,3405.76,673.333,3405.76,681.667L3405.76,690" class="er relationshipLine"/><path style="stroke: gray; fill: none;" marker-start="url(#ONLY_ONE_START)" marker-end="url(#ZERO_OR_MORE_END)" d="M1915.703,427.707L1952.397,463.089C1989.091,498.471,2062.48,569.236,2093.85,612.951C2125.22,656.667,2114.572,673.333,2109.247,681.667L2103.923,690" class="er relationshipLine"/><path style="stroke: gray; fill: none;" marker-start="url(#ONLY_ONE_START)" marker-end="url(#ZERO_OR_MORE_END)" d="M1915.703,334.054L2139.045,385.045C2362.388,436.036,2809.074,538.018,3027.655,597.342C3246.236,656.667,3236.712,673.333,3231.95,681.667L3227.188,690" class="er relationshipLine"/><path style="stroke: gray; fill: none;" marker-start="url(#ONLY_ONE_START)" marker-end="url(#ZERO_OR_MORE_END)" d="M1661.187,357.282L1546.493,404.401C1431.8,451.521,1202.413,545.761,1087.719,601.214C973.025,656.667,973.025,673.333,973.025,681.667L973.025,690" class="er relationshipLine"/><path style="stroke: gray; fill: none;" marker-start="url(#ONLY_ONE_START)" marker-end="url(#ZERO_OR_MORE_END)" d="M1661.187,364.589L1563.16,410.491C1465.133,456.393,1269.079,548.196,1161.529,602.432C1053.978,656.667,1034.93,673.333,1025.406,681.667L1015.883,690" class="er relationshipLine"/><path style="stroke: gray; fill: none;" marker-start="url(#ONLY_ONE_START)" marker-end="url(#ZERO_OR_MORE_END)" d="M1661.187,374.272L1579.827,418.56C1498.466,462.848,1335.746,551.424,1229.386,606.65C1123.025,661.875,1073.025,683.75,1048.025,694.688L1023.025,705.625" class="er relationshipLine"/><path style="stroke: gray; fill: none;" marker-start="url(#ONLY_ONE_START)" marker-end="url(#ZERO_OR_MORE_END)" d="M1661.187,387.712L1596.493,429.76C1531.8,471.808,1402.413,555.904,1296.052,610.105C1189.692,664.306,1106.359,688.611,1064.692,700.764L1023.025,712.917" class="er relationshipLine"/><path style="stroke: gray; fill: none;" marker-start="url(#ONLY_ONE_START)" marker-end="url(#ZERO_OR_MORE_END)" d="M1915.703,329.122L2189.045,380.935C2462.388,432.748,3009.074,536.374,3287.179,596.52C3565.284,656.667,3574.807,673.333,3579.569,681.667L3584.331,690" class="er relationshipLine"/><path style="stroke: gray; fill: none;" marker-start="url(#ONLY_ONE_START)" marker-end="url(#ZERO_OR_MORE_END)" d="M1915.703,326.133L2230.712,378.444C2545.722,430.755,3175.741,535.378,3490.75,596.022C3805.76,656.667,3805.76,673.333,3805.76,681.667L3805.76,690" class="er relationshipLine"/><path style="stroke: gray; fill: none;" marker-start="url(#ONLY_ONE_START)" marker-end="url(#ZERO_OR_MORE_END)" d="M1915.703,327.83L2205.712,379.859C2495.722,431.887,3075.741,535.943,3360.988,596.305C3646.236,656.667,3636.712,673.333,3631.95,681.667L3627.188,690" class="er relationshipLine"/><path style="stroke: gray; fill: none;" marker-start="url(#ONLY_ONE_START)" marker-end="url(#ZERO_OR_MORE_END)" d="M1915.703,323.991L2268.638,376.659C2621.573,429.327,3327.444,534.664,3680.379,595.665C4033.314,656.667,4033.314,673.333,4033.314,681.667L4033.314,690" class="er relationshipLine"/><g transform="translate(1661.18701171875,20 )" id="entity-CreditCard-ba790912-701c-5730-a598-e92c4b441db1"><rect height="570" width="254.515625" y="0" x="0" class="er entityBox"/><text style="dominant-baseline: middle; text-anchor: middle; font-size: 12px;" transform="translate(127.2578125,12)" y="0" x="0" id="text-entity-CreditCard-ba790912-701c-5730-a598-e92c4b441db1" class="er entityLabel">CreditCard</text><rect height="21" width="57.0625" y="24" x="0" class="er attributeBoxOdd"/><text style="dominant-baseline: middle; font-size: 10.2px;" transform="translate(5,34.5)" y="0" x="0" id="text-entity-CreditCard-ba790912-701c-5730-a598-e92c4b441db1-attr-1-type" class="er entityLabel">stringList</text><rect height="21" width="197.453125" y="24" x="57.0625" class="er attributeBoxOdd"/><text style="dominant-baseline: middle; font-size: 10.2px;" transform="translate(62.0625,34.5)" y="0" x="0" id="text-entity-CreditCard-ba790912-701c-5730-a598-e92c4b441db1-attr-1-name" class="er entityLabel">cashBack</text><rect height="21" width="57.0625" y="45" x="0" class="er attributeBoxEven"/><text style="dominant-baseline: middle; font-size: 10.2px;" transform="translate(5,55.5)" y="0" x="0" id="text-entity-CreditCard-ba790912-701c-5730-a598-e92c4b441db1-attr-2-type" class="er entityLabel">stringList</text><rect height="21" width="197.453125" y="45" x="57.0625" class="er attributeBoxEven"/><text style="dominant-baseline: middle; font-size: 10.2px;" transform="translate(62.0625,55.5)" y="0" x="0" id="text-entity-CreditCard-ba790912-701c-5730-a598-e92c4b441db1-attr-2-name" class="er entityLabel">monthlyMinimumRepaymentAmount</text><rect height="21" width="57.0625" y="66" x="0" class="er attributeBoxOdd"/><text style="dominant-baseline: middle; font-size: 10.2px;" transform="translate(5,76.5)" y="0" x="0" id="text-entity-CreditCard-ba790912-701c-5730-a598-e92c4b441db1-attr-3-type" class="er entityLabel">stringList</text><rect height="21" width="197.453125" y="66" x="57.0625" class="er attributeBoxOdd"/><text style="dominant-baseline: middle; font-size: 10.2px;" transform="translate(62.0625,76.5)" y="0" x="0" id="text-entity-CreditCard-ba790912-701c-5730-a598-e92c4b441db1-attr-3-name" class="er entityLabel">amount</text><rect height="21" width="57.0625" y="87" x="0" class="er attributeBoxEven"/><text style="dominant-baseline: middle; font-size: 10.2px;" transform="translate(5,97.5)" y="0" x="0" id="text-entity-CreditCard-ba790912-701c-5730-a598-e92c4b441db1-attr-4-type" class="er entityLabel">stringList</text><rect height="21" width="197.453125" y="87" x="57.0625" class="er attributeBoxEven"/><text style="dominant-baseline: middle; font-size: 10.2px;" transform="translate(62.0625,97.5)" y="0" x="0" id="text-entity-CreditCard-ba790912-701c-5730-a598-e92c4b441db1-attr-4-name" class="er entityLabel">loanType</text><rect height="21" width="57.0625" y="108" x="0" class="er attributeBoxOdd"/><text style="dominant-baseline: middle; font-size: 10.2px;" transform="translate(5,118.5)" y="0" x="0" id="text-entity-CreditCard-ba790912-701c-5730-a598-e92c4b441db1-attr-5-type" class="er entityLabel">stringList</text><rect height="21" width="197.453125" y="108" x="57.0625" class="er attributeBoxOdd"/><text style="dominant-baseline: middle; font-size: 10.2px;" transform="translate(62.0625,118.5)" y="0" x="0" id="text-entity-CreditCard-ba790912-701c-5730-a598-e92c4b441db1-attr-5-name" class="er entityLabel">requiredCollateral</text><rect height="21" width="57.0625" y="129" x="0" class="er attributeBoxEven"/><text style="dominant-baseline: middle; font-size: 10.2px;" transform="translate(5,139.5)" y="0" x="0" id="text-entity-CreditCard-ba790912-701c-5730-a598-e92c4b441db1-attr-6-type" class="er entityLabel">stringList</text><rect height="21" width="197.453125" y="129" x="57.0625" class="er attributeBoxEven"/><text style="dominant-baseline: middle; font-size: 10.2px;" transform="translate(62.0625,139.5)" y="0" x="0" id="text-entity-CreditCard-ba790912-701c-5730-a598-e92c4b441db1-attr-6-name" class="er entityLabel">annualPercentageRate</text><rect height="21" width="57.0625" y="150" x="0" class="er attributeBoxOdd"/><text style="dominant-baseline: middle; font-size: 10.2px;" transform="translate(5,160.5)" y="0" x="0" id="text-entity-CreditCard-ba790912-701c-5730-a598-e92c4b441db1-attr-7-type" class="er entityLabel">stringList</text><rect height="21" width="197.453125" y="150" x="57.0625" class="er attributeBoxOdd"/><text style="dominant-baseline: middle; font-size: 10.2px;" transform="translate(62.0625,160.5)" y="0" x="0" id="text-entity-CreditCard-ba790912-701c-5730-a598-e92c4b441db1-attr-7-name" class="er entityLabel">feesAndCommissionsSpecification</text><rect height="21" width="57.0625" y="171" x="0" class="er attributeBoxEven"/><text style="dominant-baseline: middle; font-size: 10.2px;" transform="translate(5,181.5)" y="0" x="0" id="text-entity-CreditCard-ba790912-701c-5730-a598-e92c4b441db1-attr-8-type" class="er entityLabel">stringList</text><rect height="21" width="197.453125" y="171" x="57.0625" class="er attributeBoxEven"/><text style="dominant-baseline: middle; font-size: 10.2px;" transform="translate(62.0625,181.5)" y="0" x="0" id="text-entity-CreditCard-ba790912-701c-5730-a598-e92c4b441db1-attr-8-name" class="er entityLabel">interestRate</text><rect height="21" width="57.0625" y="192" x="0" class="er attributeBoxOdd"/><text style="dominant-baseline: middle; font-size: 10.2px;" transform="translate(5,202.5)" y="0" x="0" id="text-entity-CreditCard-ba790912-701c-5730-a598-e92c4b441db1-attr-9-type" class="er entityLabel">stringList</text><rect height="21" width="197.453125" y="192" x="57.0625" class="er attributeBoxOdd"/><text style="dominant-baseline: middle; font-size: 10.2px;" transform="translate(62.0625,202.5)" y="0" x="0" id="text-entity-CreditCard-ba790912-701c-5730-a598-e92c4b441db1-attr-9-name" class="er entityLabel">areaServed</text><rect height="21" width="57.0625" y="213" x="0" class="er attributeBoxEven"/><text style="dominant-baseline: middle; font-size: 10.2px;" transform="translate(5,223.5)" y="0" x="0" id="text-entity-CreditCard-ba790912-701c-5730-a598-e92c4b441db1-attr-10-type" class="er entityLabel">stringList</text><rect height="21" width="197.453125" y="213" x="57.0625" class="er attributeBoxEven"/><text style="dominant-baseline: middle; font-size: 10.2px;" transform="translate(62.0625,223.5)" y="0" x="0" id="text-entity-CreditCard-ba790912-701c-5730-a598-e92c4b441db1-attr-10-name" class="er entityLabel">category</text><rect height="21" width="57.0625" y="234" x="0" class="er attributeBoxOdd"/><text style="dominant-baseline: middle; font-size: 10.2px;" transform="translate(5,244.5)" y="0" x="0" id="text-entity-CreditCard-ba790912-701c-5730-a598-e92c4b441db1-attr-11-type" class="er entityLabel">stringList</text><rect height="21" width="197.453125" y="234" x="57.0625" class="er attributeBoxOdd"/><text style="dominant-baseline: middle; font-size: 10.2px;" transform="translate(62.0625,244.5)" y="0" x="0" id="text-entity-CreditCard-ba790912-701c-5730-a598-e92c4b441db1-attr-11-name" class="er entityLabel">logo</text><rect height="21" width="57.0625" y="255" x="0" class="er attributeBoxEven"/><text style="dominant-baseline: middle; font-size: 10.2px;" transform="translate(5,265.5)" y="0" x="0" id="text-entity-CreditCard-ba790912-701c-5730-a598-e92c4b441db1-attr-12-type" class="er entityLabel">stringList</text><rect height="21" width="197.453125" y="255" x="57.0625" class="er attributeBoxEven"/><text style="dominant-baseline: middle; font-size: 10.2px;" transform="translate(62.0625,265.5)" y="0" x="0" id="text-entity-CreditCard-ba790912-701c-5730-a598-e92c4b441db1-attr-12-name" class="er entityLabel">brand</text><rect height="21" width="57.0625" y="276" x="0" class="er attributeBoxOdd"/><text style="dominant-baseline: middle; font-size: 10.2px;" transform="translate(5,286.5)" y="0" x="0" id="text-entity-CreditCard-ba790912-701c-5730-a598-e92c4b441db1-attr-13-type" class="er entityLabel">stringList</text><rect height="21" width="197.453125" y="276" x="57.0625" class="er attributeBoxOdd"/><text style="dominant-baseline: middle; font-size: 10.2px;" transform="translate(62.0625,286.5)" y="0" x="0" id="text-entity-CreditCard-ba790912-701c-5730-a598-e92c4b441db1-attr-13-name" class="er entityLabel">broker</text><rect height="21" width="57.0625" y="297" x="0" class="er attributeBoxEven"/><text style="dominant-baseline: middle; font-size: 10.2px;" transform="translate(5,307.5)" y="0" x="0" id="text-entity-CreditCard-ba790912-701c-5730-a598-e92c4b441db1-attr-14-type" class="er entityLabel">stringList</text><rect height="21" width="197.453125" y="297" x="57.0625" class="er attributeBoxEven"/><text style="dominant-baseline: middle; font-size: 10.2px;" transform="translate(62.0625,307.5)" y="0" x="0" id="text-entity-CreditCard-ba790912-701c-5730-a598-e92c4b441db1-attr-14-name" class="er entityLabel">isRelatedTo</text><rect height="21" width="57.0625" y="318" x="0" class="er attributeBoxOdd"/><text style="dominant-baseline: middle; font-size: 10.2px;" transform="translate(5,328.5)" y="0" x="0" id="text-entity-CreditCard-ba790912-701c-5730-a598-e92c4b441db1-attr-15-type" class="er entityLabel">stringList</text><rect height="21" width="197.453125" y="318" x="57.0625" class="er attributeBoxOdd"/><text style="dominant-baseline: middle; font-size: 10.2px;" transform="translate(62.0625,328.5)" y="0" x="0" id="text-entity-CreditCard-ba790912-701c-5730-a598-e92c4b441db1-attr-15-name" class="er entityLabel">isSimilarTo</text><rect height="21" width="57.0625" y="339" x="0" class="er attributeBoxEven"/><text style="dominant-baseline: middle; font-size: 10.2px;" transform="translate(5,349.5)" y="0" x="0" id="text-entity-CreditCard-ba790912-701c-5730-a598-e92c4b441db1-attr-16-type" class="er entityLabel">stringList</text><rect height="21" width="197.453125" y="339" x="57.0625" class="er attributeBoxEven"/><text style="dominant-baseline: middle; font-size: 10.2px;" transform="translate(62.0625,349.5)" y="0" x="0" id="text-entity-CreditCard-ba790912-701c-5730-a598-e92c4b441db1-attr-16-name" class="er entityLabel">offers</text><rect height="21" width="57.0625" y="360" x="0" class="er attributeBoxOdd"/><text style="dominant-baseline: middle; font-size: 10.2px;" transform="translate(5,370.5)" y="0" x="0" id="text-entity-CreditCard-ba790912-701c-5730-a598-e92c4b441db1-attr-17-type" class="er entityLabel">stringList</text><rect height="21" width="197.453125" y="360" x="57.0625" class="er attributeBoxOdd"/><text style="dominant-baseline: middle; font-size: 10.2px;" transform="translate(62.0625,370.5)" y="0" x="0" id="text-entity-CreditCard-ba790912-701c-5730-a598-e92c4b441db1-attr-17-name" class="er entityLabel">provider</text><rect height="21" width="57.0625" y="381" x="0" class="er attributeBoxEven"/><text style="dominant-baseline: middle; font-size: 10.2px;" transform="translate(5,391.5)" y="0" x="0" id="text-entity-CreditCard-ba790912-701c-5730-a598-e92c4b441db1-attr-18-type" class="er entityLabel">stringList</text><rect height="21" width="197.453125" y="381" x="57.0625" class="er attributeBoxEven"/><text style="dominant-baseline: middle; font-size: 10.2px;" transform="translate(62.0625,391.5)" y="0" x="0" id="text-entity-CreditCard-ba790912-701c-5730-a598-e92c4b441db1-attr-18-name" class="er entityLabel">serviceArea</text><rect height="21" width="57.0625" y="402" x="0" class="er attributeBoxOdd"/><text style="dominant-baseline: middle; font-size: 10.2px;" transform="translate(5,412.5)" y="0" x="0" id="text-entity-CreditCard-ba790912-701c-5730-a598-e92c4b441db1-attr-19-type" class="er entityLabel">stringList</text><rect height="21" width="197.453125" y="402" x="57.0625" class="er attributeBoxOdd"/><text style="dominant-baseline: middle; font-size: 10.2px;" transform="translate(62.0625,412.5)" y="0" x="0" id="text-entity-CreditCard-ba790912-701c-5730-a598-e92c4b441db1-attr-19-name" class="er entityLabel">serviceType</text><rect height="21" width="57.0625" y="423" x="0" class="er attributeBoxEven"/><text style="dominant-baseline: middle; font-size: 10.2px;" transform="translate(5,433.5)" y="0" x="0" id="text-entity-CreditCard-ba790912-701c-5730-a598-e92c4b441db1-attr-20-type" class="er entityLabel">stringList</text><rect height="21" width="197.453125" y="423" x="57.0625" class="er attributeBoxEven"/><text style="dominant-baseline: middle; font-size: 10.2px;" transform="translate(62.0625,433.5)" y="0" x="0" id="text-entity-CreditCard-ba790912-701c-5730-a598-e92c4b441db1-attr-20-name" class="er entityLabel">termsOfService</text><rect height="21" width="57.0625" y="444" x="0" class="er attributeBoxOdd"/><text style="dominant-baseline: middle; font-size: 10.2px;" transform="translate(5,454.5)" y="0" x="0" id="text-entity-CreditCard-ba790912-701c-5730-a598-e92c4b441db1-attr-21-type" class="er entityLabel">stringList</text><rect height="21" width="197.453125" y="444" x="57.0625" class="er attributeBoxOdd"/><text style="dominant-baseline: middle; font-size: 10.2px;" transform="translate(62.0625,454.5)" y="0" x="0" id="text-entity-CreditCard-ba790912-701c-5730-a598-e92c4b441db1-attr-21-name" class="er entityLabel">additionalType</text><rect height="21" width="57.0625" y="465" x="0" class="er attributeBoxEven"/><text style="dominant-baseline: middle; font-size: 10.2px;" transform="translate(5,475.5)" y="0" x="0" id="text-entity-CreditCard-ba790912-701c-5730-a598-e92c4b441db1-attr-22-type" class="er entityLabel">stringList</text><rect height="21" width="197.453125" y="465" x="57.0625" class="er attributeBoxEven"/><text style="dominant-baseline: middle; font-size: 10.2px;" transform="translate(62.0625,475.5)" y="0" x="0" id="text-entity-CreditCard-ba790912-701c-5730-a598-e92c4b441db1-attr-22-name" class="er entityLabel">description</text><rect height="21" width="57.0625" y="486" x="0" class="er attributeBoxOdd"/><text style="dominant-baseline: middle; font-size: 10.2px;" transform="translate(5,496.5)" y="0" x="0" id="text-entity-CreditCard-ba790912-701c-5730-a598-e92c4b441db1-attr-23-type" class="er entityLabel">stringList</text><rect height="21" width="197.453125" y="486" x="57.0625" class="er attributeBoxOdd"/><text style="dominant-baseline: middle; font-size: 10.2px;" transform="translate(62.0625,496.5)" y="0" x="0" id="text-entity-CreditCard-ba790912-701c-5730-a598-e92c4b441db1-attr-23-name" class="er entityLabel">identifier</text><rect height="21" width="57.0625" y="507" x="0" class="er attributeBoxEven"/><text style="dominant-baseline: middle; font-size: 10.2px;" transform="translate(5,517.5)" y="0" x="0" id="text-entity-CreditCard-ba790912-701c-5730-a598-e92c4b441db1-attr-24-type" class="er entityLabel">stringList</text><rect height="21" width="197.453125" y="507" x="57.0625" class="er attributeBoxEven"/><text style="dominant-baseline: middle; font-size: 10.2px;" transform="translate(62.0625,517.5)" y="0" x="0" id="text-entity-CreditCard-ba790912-701c-5730-a598-e92c4b441db1-attr-24-name" class="er entityLabel">image</text><rect height="21" width="57.0625" y="528" x="0" class="er attributeBoxOdd"/><text style="dominant-baseline: middle; font-size: 10.2px;" transform="translate(5,538.5)" y="0" x="0" id="text-entity-CreditCard-ba790912-701c-5730-a598-e92c4b441db1-attr-25-type" class="er entityLabel">stringList</text><rect height="21" width="197.453125" y="528" x="57.0625" class="er attributeBoxOdd"/><text style="dominant-baseline: middle; font-size: 10.2px;" transform="translate(62.0625,538.5)" y="0" x="0" id="text-entity-CreditCard-ba790912-701c-5730-a598-e92c4b441db1-attr-25-name" class="er entityLabel">mainEntityOfPage</text><rect height="21" width="57.0625" y="549" x="0" class="er attributeBoxEven"/><text style="dominant-baseline: middle; font-size: 10.2px;" transform="translate(5,559.5)" y="0" x="0" id="text-entity-CreditCard-ba790912-701c-5730-a598-e92c4b441db1-attr-26-type" class="er entityLabel">stringList</text><rect height="21" width="197.453125" y="549" x="57.0625" class="er attributeBoxEven"/><text style="dominant-baseline: middle; font-size: 10.2px;" transform="translate(62.0625,559.5)" y="0" x="0" id="text-entity-CreditCard-ba790912-701c-5730-a598-e92c4b441db1-attr-26-name" class="er entityLabel">subjectOf</text></g><g transform="translate(20,690 )" id="entity-Boolean-5b26178e-f873-50aa-bf9a-b8300df1b991"><rect height="75" width="100" y="0" x="0" class="er entityBox"/><text style="dominant-baseline: middle; text-anchor: middle; font-size: 12px;" transform="translate(50,37.5)" y="0" x="0" id="text-entity-Boolean-5b26178e-f873-50aa-bf9a-b8300df1b991" class="er entityLabel">Boolean</text></g><g transform="translate(261.44287109375,690 )" id="entity-MonetaryAmount-99d98e1d-dae3-555c-a0b3-eeec7bd13c3e"><rect height="75" width="134.228515625" y="0" x="0" class="er entityBox"/><text style="dominant-baseline: middle; text-anchor: middle; font-size: 12px;" transform="translate(67.1142578125,37.5)" y="0" x="0" id="text-entity-MonetaryAmount-99d98e1d-dae3-555c-a0b3-eeec7bd13c3e" class="er entityLabel">MonetaryAmount</text></g><g transform="translate(495.67138671875,690 )" id="entity-QuantitativeValue-3d19db81-2acf-5dcd-99e0-52d6a275eca4"><rect height="75" width="137.59375" y="0" x="0" class="er entityBox"/><text style="dominant-baseline: middle; text-anchor: middle; font-size: 12px;" transform="translate(68.796875,37.5)" y="0" x="0" id="text-entity-QuantitativeValue-3d19db81-2acf-5dcd-99e0-52d6a275eca4" class="er entityLabel">QuantitativeValue</text></g><g transform="translate(923.025390625,690 )" id="entity-Text-426c5d39-acfc-5487-a6d9-ede67887190e"><rect height="75" width="100" y="0" x="0" class="er entityBox"/><text style="dominant-baseline: middle; text-anchor: middle; font-size: 12px;" transform="translate(50,37.5)" y="0" x="0" id="text-entity-Text-426c5d39-acfc-5487-a6d9-ede67887190e" class="er entityLabel">Text</text></g><g transform="translate(1323.025390625,690 )" id="entity-Duration-4925bcef-08f8-5f30-b1af-3959fea9384e"><rect height="75" width="100" y="0" x="0" class="er entityBox"/><text style="dominant-baseline: middle; text-anchor: middle; font-size: 12px;" transform="translate(50,37.5)" y="0" x="0" id="text-entity-Duration-4925bcef-08f8-5f30-b1af-3959fea9384e" class="er entityLabel">Duration</text></g><g transform="translate(1523.025390625,690 )" id="entity-RepaymentSpecification-bc966c2b-46a4-5671-9084-3929a80b235c"><rect height="75" width="175.6875" y="0" x="0" class="er entityBox"/><text style="dominant-baseline: middle; text-anchor: middle; font-size: 12px;" transform="translate(87.84375,37.5)" y="0" x="0" id="text-entity-RepaymentSpecification-bc966c2b-46a4-5671-9084-3929a80b235c" class="er entityLabel">RepaymentSpecification</text></g><g transform="translate(1798.712890625,690 )" id="entity-AggregateRating-aa0a8837-178a-57ab-baa0-94ad30d90eb5"><rect height="75" width="131.25" y="0" x="0" class="er entityBox"/><text style="dominant-baseline: middle; text-anchor: middle; font-size: 12px;" transform="translate(65.625,37.5)" y="0" x="0" id="text-entity-AggregateRating-aa0a8837-178a-57ab-baa0-94ad30d90eb5" class="er entityLabel">AggregateRating</text></g><g transform="translate(2029.962890625,690 )" id="entity-Audience-f784d19a-7c58-5869-868f-14b9086fca44"><rect height="75" width="100" y="0" x="0" class="er entityBox"/><text style="dominant-baseline: middle; text-anchor: middle; font-size: 12px;" transform="translate(50,37.5)" y="0" x="0" id="text-entity-Audience-f784d19a-7c58-5869-868f-14b9086fca44" class="er entityLabel">Audience</text></g><g transform="translate(2229.962890625,690 )" id="entity-ServiceChannel-5f9e70a6-8dc6-5d0f-a871-3e775d52af1b"><rect height="75" width="123.625" y="0" x="0" class="er entityBox"/><text style="dominant-baseline: middle; text-anchor: middle; font-size: 12px;" transform="translate(61.8125,37.5)" y="0" x="0" id="text-entity-ServiceChannel-5f9e70a6-8dc6-5d0f-a871-3e775d52af1b" class="er entityLabel">ServiceChannel</text></g><g transform="translate(2453.587890625,690 )" id="entity-Certification-8b250de0-929b-5806-8c87-f8e7c928ef36"><rect height="75" width="103.234375" y="0" x="0" class="er entityBox"/><text style="dominant-baseline: middle; text-anchor: middle; font-size: 12px;" transform="translate(51.6171875,37.5)" y="0" x="0" id="text-entity-Certification-8b250de0-929b-5806-8c87-f8e7c928ef36" class="er entityLabel">Certification</text></g><g transform="translate(2656.822265625,690 )" id="entity-OfferCatalog-e4b8efcd-db96-5dc8-b042-81a3acf3e3fe"><rect height="75" width="106.125" y="0" x="0" class="er entityBox"/><text style="dominant-baseline: middle; text-anchor: middle; font-size: 12px;" transform="translate(53.0625,37.5)" y="0" x="0" id="text-entity-OfferCatalog-e4b8efcd-db96-5dc8-b042-81a3acf3e3fe" class="er entityLabel">OfferCatalog</text></g><g transform="translate(2862.947265625,690 )" id="entity-OpeningHoursSpecification-677aa64f-a506-5d18-b5d1-75a0f22f6986"><rect height="75" width="192.8125" y="0" x="0" class="er entityBox"/><text style="dominant-baseline: middle; text-anchor: middle; font-size: 12px;" transform="translate(96.40625,37.5)" y="0" x="0" id="text-entity-OpeningHoursSpecification-677aa64f-a506-5d18-b5d1-75a0f22f6986" class="er entityLabel">OpeningHoursSpecification</text></g><g transform="translate(3155.759765625,690 )" id="entity-Thing-27bc9527-b992-59fc-a0fb-da83e2ff80bf"><rect height="75" width="100" y="0" x="0" class="er entityBox"/><text style="dominant-baseline: middle; text-anchor: middle; font-size: 12px;" transform="translate(50,37.5)" y="0" x="0" id="text-entity-Thing-27bc9527-b992-59fc-a0fb-da83e2ff80bf" class="er entityLabel">Thing</text></g><g transform="translate(3355.759765625,690 )" id="entity-Review-77c92a79-8cff-50c0-9604-f9135763cccd"><rect height="75" width="100" y="0" x="0" class="er entityBox"/><text style="dominant-baseline: middle; text-anchor: middle; font-size: 12px;" transform="translate(50,37.5)" y="0" x="0" id="text-entity-Review-77c92a79-8cff-50c0-9604-f9135763cccd" class="er entityLabel">Review</text></g><g transform="translate(3555.759765625,690 )" id="entity-URL-07f78d3e-fd74-5925-b39b-26c1cc2d6b7c"><rect height="75" width="100" y="0" x="0" class="er entityBox"/><text style="dominant-baseline: middle; text-anchor: middle; font-size: 12px;" transform="translate(50,37.5)" y="0" x="0" id="text-entity-URL-07f78d3e-fd74-5925-b39b-26c1cc2d6b7c" class="er entityLabel">URL</text></g><g transform="translate(3755.759765625,690 )" id="entity-Action-6cd87d9a-a078-546e-a35b-bee54f477b31"><rect height="75" width="100" y="0" x="0" class="er entityBox"/><text style="dominant-baseline: middle; text-anchor: middle; font-size: 12px;" transform="translate(50,37.5)" y="0" x="0" id="text-entity-Action-6cd87d9a-a078-546e-a35b-bee54f477b31" class="er entityLabel">Action</text></g><g transform="translate(3955.759765625,690 )" id="entity-PaymentMethodType-d208bc60-309a-55de-b7b3-2349600a8439"><rect height="75" width="155.109375" y="0" x="0" class="er entityBox"/><text style="dominant-baseline: middle; text-anchor: middle; font-size: 12px;" transform="translate(77.5546875,37.5)" y="0" x="0" id="text-entity-PaymentMethodType-d208bc60-309a-55de-b7b3-2349600a8439" class="er entityLabel">PaymentMethodType</text></g><rect height="14" width="120.95703125" y="479.0964050292969" x="778.1454467773438" class="er relationshipLabelBox"/><text style="text-anchor: middle; dominant-baseline: middle; font-size: 12px;" y="486.0964050292969" x="838.6239624023438" id="rel1" class="er relationshipLabel">contactlessPayment</text><rect height="14" width="57.21875" y="483.8672790527344" x="954.7236938476562" class="er relationshipLabelBox"/><text style="text-anchor: middle; dominant-baseline: middle; font-size: 12px;" y="490.8672790527344" x="983.3330688476562" id="rel2" class="er relationshipLabel">floorLimit</text><rect height="14" width="54.734375" y="487.4324645996094" x="1073.1258544921875" class="er relationshipLabelBox"/><text style="text-anchor: middle; dominant-baseline: middle; font-size: 12px;" y="494.4324645996094" x="1100.4930419921875" id="rel3" class="er relationshipLabel">loanTerm</text><rect height="14" width="52.296875" y="488.715576171875" x="1138.2625732421875" class="er relationshipLabelBox"/><text style="text-anchor: middle; dominant-baseline: middle; font-size: 12px;" y="495.715576171875" x="1164.4110107421875" id="rel4" class="er relationshipLabel">currency</text><rect height="14" width="71.3125" y="530.4796142578125" x="1466.41455078125" class="er relationshipLabelBox"/><text style="text-anchor: middle; dominant-baseline: middle; font-size: 12px;" y="537.4796142578125" x="1502.07080078125" id="rel5" class="er relationshipLabel">gracePeriod</text><rect height="14" width="124.5" y="607.5601196289062" x="1564.083251953125" class="er relationshipLabelBox"/><text style="text-anchor: middle; dominant-baseline: middle; font-size: 12px;" y="614.5601196289062" x="1626.333251953125" id="rel6" class="er relationshipLabel">loanRepaymentForm</text><rect height="14" width="80.953125" y="483.67413330078125" x="828.3597412109375" class="er relationshipLabelBox"/><text style="text-anchor: middle; dominant-baseline: middle; font-size: 12px;" y="490.67413330078125" x="868.8363037109375" id="rel7" class="er relationshipLabel">recourseLoan</text><rect height="14" width="104.515625" y="491.8160705566406" x="833.5208740234375" class="er relationshipLabelBox"/><text style="text-anchor: middle; dominant-baseline: middle; font-size: 12px;" y="498.8160705566406" x="885.7786865234375" id="rel8" class="er relationshipLabel">renegotiableLoan</text><rect height="14" width="100.390625" y="632.5797729492188" x="1812.20556640625" class="er relationshipLabelBox"/><text style="text-anchor: middle; dominant-baseline: middle; font-size: 12px;" y="639.5797729492188" x="1862.40087890625" id="rel9" class="er relationshipLabel">aggregateRating</text><rect height="14" width="54.890625" y="581.3306884765625" x="1958.5496826171875" class="er relationshipLabelBox"/><text style="text-anchor: middle; dominant-baseline: middle; font-size: 12px;" y="588.3306884765625" x="1985.9949951171875" id="rel10" class="er relationshipLabel">audience</text><rect height="14" width="103.4375" y="519.3812255859375" x="2067.21484375" class="er relationshipLabelBox"/><text style="text-anchor: middle; dominant-baseline: middle; font-size: 12px;" y="526.3812255859375" x="2118.93359375" id="rel11" class="er relationshipLabel">availableChannel</text><rect height="14" width="36.875" y="489.0345764160156" x="1198.4622802734375" class="er relationshipLabelBox"/><text style="text-anchor: middle; dominant-baseline: middle; font-size: 12px;" y="496.0345764160156" x="1216.8997802734375" id="rel12" class="er relationshipLabel">award</text><rect height="14" width="94.453125" y="503.29937744140625" x="2177.773193359375" class="er relationshipLabelBox"/><text style="text-anchor: middle; dominant-baseline: middle; font-size: 12px;" y="510.29937744140625" x="2224.999755859375" id="rel13" class="er relationshipLabel">hasCertification</text><rect height="14" width="97.328125" y="494.77044677734375" x="2277.72802734375" class="er relationshipLabelBox"/><text style="text-anchor: middle; dominant-baseline: middle; font-size: 12px;" y="501.77044677734375" x="2326.39208984375" id="rel14" class="er relationshipLabel">hasOfferCatalog</text><rect height="14" width="88.0625" y="488.439453125" x="2406.033447265625" class="er relationshipLabelBox"/><text style="text-anchor: middle; dominant-baseline: middle; font-size: 12px;" y="495.439453125" x="2450.064697265625" id="rel15" class="er relationshipLabel">hoursAvailable</text><rect height="14" width="55.09375" y="489.2489929199219" x="2524.27783203125" class="er relationshipLabelBox"/><text style="text-anchor: middle; dominant-baseline: middle; font-size: 12px;" y="496.2489929199219" x="2551.82470703125" id="rel16" class="er relationshipLabel">produces</text><rect height="14" width="97.125" y="491.2305603027344" x="1216.061279296875" class="er relationshipLabelBox"/><text style="text-anchor: middle; dominant-baseline: middle; font-size: 12px;" y="498.2305603027344" x="1264.623779296875" id="rel17" class="er relationshipLabel">providerMobility</text><rect height="14" width="39.87109375" y="482.088623046875" x="2651.884521484375" class="er relationshipLabelBox"/><text style="text-anchor: middle; dominant-baseline: middle; font-size: 12px;" y="489.088623046875" x="2671.820068359375" id="rel18" class="er relationshipLabel">review</text><rect height="14" width="98.71875" y="540.8746337890625" x="1988.26806640625" class="er relationshipLabelBox"/><text style="text-anchor: middle; dominant-baseline: middle; font-size: 12px;" y="547.8746337890625" x="2037.62744140625" id="rel19" class="er relationshipLabel">serviceAudience</text><rect height="14" width="84.962890625" y="481.9679870605469" x="2546.468017578125" class="er relationshipLabelBox"/><text style="text-anchor: middle; dominant-baseline: middle; font-size: 12px;" y="488.9679870605469" x="2588.949462890625" id="rel20" class="er relationshipLabel">serviceOutput</text><rect height="14.000030517578125" width="39.515625" y="498.6537628173828" x="1283.25634765625" class="er relationshipLabelBox"/><text style="text-anchor: middle; dominant-baseline: middle; font-size: 12px;" y="505.6537780761719" x="1303.01416015625" id="rel21" class="er relationshipLabel">slogan</text><rect height="14" width="89.953125" y="511.66644287109375" x="1288.7161865234375" class="er relationshipLabelBox"/><text style="text-anchor: middle; dominant-baseline: middle; font-size: 12px;" y="518.6664428710938" x="1333.6927490234375" id="rel22" class="er relationshipLabel">alternateName</text><rect height="14" width="161.390625" y="538.5731811523438" x="1264.262939453125" class="er relationshipLabelBox"/><text style="text-anchor: middle; dominant-baseline: middle; font-size: 12px;" y="545.5731811523438" x="1344.958251953125" id="rel23" class="er relationshipLabel">disambiguatingDescription</text><rect height="14" width="34.03125" y="571.0723266601562" x="1338.68994140625" class="er relationshipLabelBox"/><text style="text-anchor: middle; dominant-baseline: middle; font-size: 12px;" y="578.0723266601562" x="1355.70556640625" id="rel24" class="er relationshipLabel">name</text><rect height="14" width="47.140625" y="482.6867980957031" x="2733.769287109375" class="er relationshipLabelBox"/><text style="text-anchor: middle; dominant-baseline: middle; font-size: 12px;" y="489.6867980957031" x="2757.339599609375" id="rel25" class="er relationshipLabel">sameAs</text><rect height="14" width="90.96875" y="478.8482666015625" x="2825.419921875" class="er relationshipLabelBox"/><text style="text-anchor: middle; dominant-baseline: middle; font-size: 12px;" y="485.8482666015625" x="2870.904296875" id="rel26" class="er relationshipLabel">potentialAction</text><rect height="14" width="15.875" y="478.36865234375" x="2779.42431640625" class="er relationshipLabelBox"/><text style="text-anchor: middle; dominant-baseline: middle; font-size: 12px;" y="485.36865234375" x="2787.36181640625" id="rel27" class="er relationshipLabel">url</text><rect height="14" width="126.03125" y="477.5373229980469" x="2921.254638671875" class="er relationshipLabelBox"/><text style="text-anchor: middle; dominant-baseline: middle; font-size: 12px;" y="484.5373229980469" x="2984.270263671875" id="rel28" class="er relationshipLabel">paymentMethodType</text></svg>