<svg aria-roledescription="er" role="graphics-document document" viewBox="0 0 3099.666015625 1037" style="max-width: 3099.67px; background-color: white;" xmlns:xlink="http://www.w3.org/1999/xlink" xmlns="http://www.w3.org/2000/svg" width="100%" id="my-svg"><style>#my-svg{font-family:"trebuchet ms",verdana,arial,sans-serif;font-size:16px;fill:#333;}#my-svg .error-icon{fill:#552222;}#my-svg .error-text{fill:#552222;stroke:#552222;}#my-svg .edge-thickness-normal{stroke-width:1px;}#my-svg .edge-thickness-thick{stroke-width:3.5px;}#my-svg .edge-pattern-solid{stroke-dasharray:0;}#my-svg .edge-thickness-invisible{stroke-width:0;fill:none;}#my-svg .edge-pattern-dashed{stroke-dasharray:3;}#my-svg .edge-pattern-dotted{stroke-dasharray:2;}#my-svg .marker{fill:#333333;stroke:#333333;}#my-svg .marker.cross{stroke:#333333;}#my-svg svg{font-family:"trebuchet ms",verdana,arial,sans-serif;font-size:16px;}#my-svg p{margin:0;}#my-svg .entityBox{fill:#ECECFF;stroke:#9370DB;}#my-svg .attributeBoxOdd{fill:#ffffff;stroke:#9370DB;}#my-svg .attributeBoxEven{fill:#f2f2f2;stroke:#9370DB;}#my-svg .relationshipLabelBox{fill:hsl(80, 100%, 96.2745098039%);opacity:0.7;background-color:hsl(80, 100%, 96.2745098039%);}#my-svg .relationshipLabelBox rect{opacity:0.5;}#my-svg .relationshipLine{stroke:#333333;}#my-svg .entityTitleText{text-anchor:middle;font-size:18px;fill:#333;}#my-svg #MD_PARENT_START{fill:#f5f5f5!important;stroke:#333333!important;stroke-width:1;}#my-svg #MD_PARENT_END{fill:#f5f5f5!important;stroke:#333333!important;stroke-width:1;}#my-svg :root{--mermaid-font-family:"trebuchet ms",verdana,arial,sans-serif;}</style><g/><defs><marker orient="auto" markerHeight="240" markerWidth="190" refY="7" refX="0" id="MD_PARENT_START"><path d="M 18,7 L9,13 L1,7 L9,1 Z"/></marker></defs><defs><marker orient="auto" markerHeight="28" markerWidth="20" refY="7" refX="19" id="MD_PARENT_END"><path d="M 18,7 L9,13 L1,7 L9,1 Z"/></marker></defs><defs><marker orient="auto" markerHeight="18" markerWidth="18" refY="9" refX="0" id="ONLY_ONE_START"><path d="M9,0 L9,18 M15,0 L15,18" fill="none" stroke="gray"/></marker></defs><defs><marker orient="auto" markerHeight="18" markerWidth="18" refY="9" refX="18" id="ONLY_ONE_END"><path d="M3,0 L3,18 M9,0 L9,18" fill="none" stroke="gray"/></marker></defs><defs><marker orient="auto" markerHeight="18" markerWidth="30" refY="9" refX="0" id="ZERO_OR_ONE_START"><circle r="6" cy="9" cx="21" fill="white" stroke="gray"/><path d="M9,0 L9,18" fill="none" stroke="gray"/></marker></defs><defs><marker orient="auto" markerHeight="18" markerWidth="30" refY="9" refX="30" id="ZERO_OR_ONE_END"><circle r="6" cy="9" cx="9" fill="white" stroke="gray"/><path d="M21,0 L21,18" fill="none" stroke="gray"/></marker></defs><defs><marker orient="auto" markerHeight="36" markerWidth="45" refY="18" refX="18" id="ONE_OR_MORE_START"><path d="M0,18 Q 18,0 36,18 Q 18,36 0,18 M42,9 L42,27" fill="none" stroke="gray"/></marker></defs><defs><marker orient="auto" markerHeight="36" markerWidth="45" refY="18" refX="27" id="ONE_OR_MORE_END"><path d="M3,9 L3,27 M9,18 Q27,0 45,18 Q27,36 9,18" fill="none" stroke="gray"/></marker></defs><defs><marker orient="auto" markerHeight="36" markerWidth="57" refY="18" refX="18" id="ZERO_OR_MORE_START"><circle r="6" cy="18" cx="48" fill="white" stroke="gray"/><path d="M0,18 Q18,0 36,18 Q18,36 0,18" fill="none" stroke="gray"/></marker></defs><defs><marker orient="auto" markerHeight="36" markerWidth="57" refY="18" refX="39" id="ZERO_OR_MORE_END"><circle r="6" cy="18" cx="9" fill="white" stroke="gray"/><path d="M21,18 Q39,0 57,18 Q39,36 21,18" fill="none" stroke="gray"/></marker></defs><path style="stroke: gray; fill: none;" marker-start="url(#ONLY_ONE_START)" marker-end="url(#ZERO_OR_MORE_END)" d="M1434.027,472.504L1209.542,542.42C985.056,612.336,536.085,752.168,311.6,830.417C87.114,908.667,87.114,925.333,87.114,933.667L87.114,942" class="er relationshipLine"/><path style="stroke: gray; fill: none;" marker-start="url(#ONLY_ONE_START)" marker-end="url(#ZERO_OR_MORE_END)" d="M1434.027,480.373L1248.86,548.977C1063.693,617.582,693.359,754.791,508.192,831.729C323.025,908.667,323.025,925.333,323.025,933.667L323.025,942" class="er relationshipLine"/><path style="stroke: gray; fill: none;" marker-start="url(#ONLY_ONE_START)" marker-end="url(#ZERO_OR_MORE_END)" d="M1434.027,490.907L1285.327,557.756C1136.626,624.605,839.224,758.302,690.523,833.485C541.822,908.667,541.822,925.333,541.822,933.667L541.822,942" class="er relationshipLine"/><path style="stroke: gray; fill: none;" marker-start="url(#ONLY_ONE_START)" marker-end="url(#ZERO_OR_MORE_END)" d="M1434.027,508.998L1324.967,572.831C1215.907,636.665,997.786,764.333,888.726,836.5C779.666,908.667,779.666,925.333,779.666,933.667L779.666,942" class="er relationshipLine"/><path style="stroke: gray; fill: none;" marker-start="url(#ONLY_ONE_START)" marker-end="url(#ZERO_OR_MORE_END)" d="M1434.027,546.01L1367.212,603.675C1300.397,661.34,1166.766,776.67,1099.95,842.668C1033.135,908.667,1033.135,925.333,1033.135,933.667L1033.135,942" class="er relationshipLine"/><path style="stroke: gray; fill: none;" marker-start="url(#ONLY_ONE_START)" marker-end="url(#ZERO_OR_MORE_END)" d="M1434.027,594.237L1393.514,643.864C1353.001,693.492,1271.974,792.746,1236.967,850.706C1201.959,908.667,1212.971,925.333,1218.477,933.667L1223.983,942" class="er relationshipLine"/><path style="stroke: gray; fill: none;" marker-start="url(#ONLY_ONE_START)" marker-end="url(#ZERO_OR_MORE_END)" d="M1472.147,842L1470.217,850.333C1468.288,858.667,1464.43,875.333,1462.501,892C1460.572,908.667,1460.572,925.333,1460.572,933.667L1460.572,942" class="er relationshipLine"/><path style="stroke: gray; fill: none;" marker-start="url(#ONLY_ONE_START)" marker-end="url(#ZERO_OR_MORE_END)" d="M1662.428,842L1664.357,850.333C1666.286,858.667,1670.144,875.333,1672.073,892C1674.002,908.667,1674.002,925.333,1674.002,933.667L1674.002,942" class="er relationshipLine"/><path style="stroke: gray; fill: none;" marker-start="url(#ONLY_ONE_START)" marker-end="url(#ZERO_OR_MORE_END)" d="M1700.547,628.283L1730.236,672.235C1759.925,716.188,1819.303,804.094,1848.992,856.38C1878.682,908.667,1878.682,925.333,1878.682,933.667L1878.682,942" class="er relationshipLine"/><path style="stroke: gray; fill: none;" marker-start="url(#ONLY_ONE_START)" marker-end="url(#ZERO_OR_MORE_END)" d="M1700.547,540.532L1771.814,599.11C1843.081,657.688,1985.616,774.844,2056.883,841.755C2128.15,908.667,2128.15,925.333,2128.15,933.667L2128.15,942" class="er relationshipLine"/><path style="stroke: gray; fill: none;" marker-start="url(#ONLY_ONE_START)" marker-end="url(#ZERO_OR_MORE_END)" d="M1700.547,514.688L1800.681,577.574C1900.816,640.459,2101.085,766.229,2208.191,837.448C2315.297,908.667,2329.24,925.333,2336.212,933.667L2343.184,942" class="er relationshipLine"/><path style="stroke: gray; fill: none;" marker-start="url(#ONLY_ONE_START)" marker-end="url(#ZERO_OR_MORE_END)" d="M1700.547,491.989L1846.215,558.658C1991.883,625.326,2283.22,758.663,2428.888,833.665C2574.557,908.667,2574.557,925.333,2574.557,933.667L2574.557,942" class="er relationshipLine"/><path style="stroke: gray; fill: none;" marker-start="url(#ONLY_ONE_START)" marker-end="url(#ZERO_OR_MORE_END)" d="M1434.027,664.921L1412.467,702.768C1390.907,740.614,1347.786,816.307,1320.902,862.487C1294.017,908.667,1283.368,925.333,1278.044,933.667L1272.72,942" class="er relationshipLine"/><path style="stroke: gray; fill: none;" marker-start="url(#ONLY_ONE_START)" marker-end="url(#ZERO_OR_MORE_END)" d="M1700.547,502.661L1821.215,567.551C1941.883,632.441,2183.22,762.22,2299.126,835.443C2415.033,908.667,2405.509,925.333,2400.747,933.667L2395.985,942" class="er relationshipLine"/><path style="stroke: gray; fill: none;" marker-start="url(#ONLY_ONE_START)" marker-end="url(#ZERO_OR_MORE_END)" d="M1700.547,481.886L1879.548,550.238C2058.55,618.59,2416.553,755.295,2595.555,831.981C2774.557,908.667,2774.557,925.333,2774.557,933.667L2774.557,942" class="er relationshipLine"/><path style="stroke: gray; fill: none;" marker-start="url(#ONLY_ONE_START)" marker-end="url(#ZERO_OR_MORE_END)" d="M1700.547,473.815L1917.474,543.513C2134.402,613.21,2568.256,752.605,2785.184,830.636C3002.111,908.667,3002.111,925.333,3002.111,933.667L3002.111,942" class="er relationshipLine"/><g transform="translate(1434.0274353027344,20 )" id="entity-CreditCard-ba790912-701c-5730-a598-e92c4b441db1"><rect height="822" width="266.51934814453125" y="0" x="0" class="er entityBox"/><text style="dominant-baseline: middle; text-anchor: middle; font-size: 12px;" transform="translate(133.25967407226562,12)" y="0" x="0" id="text-entity-CreditCard-ba790912-701c-5730-a598-e92c4b441db1" class="er entityLabel">CreditCard</text><rect height="21" width="69.06622314453125" y="24" x="0" class="er attributeBoxOdd"/><text style="dominant-baseline: middle; font-size: 10.2px;" transform="translate(5,34.5)" y="0" x="0" id="text-entity-CreditCard-ba790912-701c-5730-a598-e92c4b441db1-attr-1-type" class="er entityLabel">stringList</text><rect height="21" width="197.453125" y="24" x="69.06622314453125" class="er attributeBoxOdd"/><text style="dominant-baseline: middle; font-size: 10.2px;" transform="translate(74.06622314453125,34.5)" y="0" x="0" id="text-entity-CreditCard-ba790912-701c-5730-a598-e92c4b441db1-attr-1-name" class="er entityLabel">cashBack</text><rect height="21" width="69.06622314453125" y="45" x="0" class="er attributeBoxEven"/><text style="dominant-baseline: middle; font-size: 10.2px;" transform="translate(5,55.5)" y="0" x="0" id="text-entity-CreditCard-ba790912-701c-5730-a598-e92c4b441db1-attr-2-type" class="er entityLabel">BooleanList</text><rect height="21" width="197.453125" y="45" x="69.06622314453125" class="er attributeBoxEven"/><text style="dominant-baseline: middle; font-size: 10.2px;" transform="translate(74.06622314453125,55.5)" y="0" x="0" id="text-entity-CreditCard-ba790912-701c-5730-a598-e92c4b441db1-attr-2-name" class="er entityLabel">contactlessPayment</text><rect height="21" width="69.06622314453125" y="66" x="0" class="er attributeBoxOdd"/><text style="dominant-baseline: middle; font-size: 10.2px;" transform="translate(5,76.5)" y="0" x="0" id="text-entity-CreditCard-ba790912-701c-5730-a598-e92c4b441db1-attr-3-type" class="er entityLabel">stringList</text><rect height="21" width="197.453125" y="66" x="69.06622314453125" class="er attributeBoxOdd"/><text style="dominant-baseline: middle; font-size: 10.2px;" transform="translate(74.06622314453125,76.5)" y="0" x="0" id="text-entity-CreditCard-ba790912-701c-5730-a598-e92c4b441db1-attr-3-name" class="er entityLabel">monthlyMinimumRepaymentAmount</text><rect height="21" width="69.06622314453125" y="87" x="0" class="er attributeBoxEven"/><text style="dominant-baseline: middle; font-size: 10.2px;" transform="translate(5,97.5)" y="0" x="0" id="text-entity-CreditCard-ba790912-701c-5730-a598-e92c4b441db1-attr-4-type" class="er entityLabel">stringList</text><rect height="21" width="197.453125" y="87" x="69.06622314453125" class="er attributeBoxEven"/><text style="dominant-baseline: middle; font-size: 10.2px;" transform="translate(74.06622314453125,97.5)" y="0" x="0" id="text-entity-CreditCard-ba790912-701c-5730-a598-e92c4b441db1-attr-4-name" class="er entityLabel">amount</text><rect height="21" width="69.06622314453125" y="108" x="0" class="er attributeBoxOdd"/><text style="dominant-baseline: middle; font-size: 10.2px;" transform="translate(5,118.5)" y="0" x="0" id="text-entity-CreditCard-ba790912-701c-5730-a598-e92c4b441db1-attr-5-type" class="er entityLabel">TextList</text><rect height="21" width="197.453125" y="108" x="69.06622314453125" class="er attributeBoxOdd"/><text style="dominant-baseline: middle; font-size: 10.2px;" transform="translate(74.06622314453125,118.5)" y="0" x="0" id="text-entity-CreditCard-ba790912-701c-5730-a598-e92c4b441db1-attr-5-name" class="er entityLabel">currency</text><rect height="21" width="69.06622314453125" y="129" x="0" class="er attributeBoxEven"/><text style="dominant-baseline: middle; font-size: 10.2px;" transform="translate(5,139.5)" y="0" x="0" id="text-entity-CreditCard-ba790912-701c-5730-a598-e92c4b441db1-attr-6-type" class="er entityLabel">stringList</text><rect height="21" width="197.453125" y="129" x="69.06622314453125" class="er attributeBoxEven"/><text style="dominant-baseline: middle; font-size: 10.2px;" transform="translate(74.06622314453125,139.5)" y="0" x="0" id="text-entity-CreditCard-ba790912-701c-5730-a598-e92c4b441db1-attr-6-name" class="er entityLabel">loanType</text><rect height="21" width="69.06622314453125" y="150" x="0" class="er attributeBoxOdd"/><text style="dominant-baseline: middle; font-size: 10.2px;" transform="translate(5,160.5)" y="0" x="0" id="text-entity-CreditCard-ba790912-701c-5730-a598-e92c4b441db1-attr-7-type" class="er entityLabel">BooleanList</text><rect height="21" width="197.453125" y="150" x="69.06622314453125" class="er attributeBoxOdd"/><text style="dominant-baseline: middle; font-size: 10.2px;" transform="translate(74.06622314453125,160.5)" y="0" x="0" id="text-entity-CreditCard-ba790912-701c-5730-a598-e92c4b441db1-attr-7-name" class="er entityLabel">recourseLoan</text><rect height="21" width="69.06622314453125" y="171" x="0" class="er attributeBoxEven"/><text style="dominant-baseline: middle; font-size: 10.2px;" transform="translate(5,181.5)" y="0" x="0" id="text-entity-CreditCard-ba790912-701c-5730-a598-e92c4b441db1-attr-8-type" class="er entityLabel">BooleanList</text><rect height="21" width="197.453125" y="171" x="69.06622314453125" class="er attributeBoxEven"/><text style="dominant-baseline: middle; font-size: 10.2px;" transform="translate(74.06622314453125,181.5)" y="0" x="0" id="text-entity-CreditCard-ba790912-701c-5730-a598-e92c4b441db1-attr-8-name" class="er entityLabel">renegotiableLoan</text><rect height="21" width="69.06622314453125" y="192" x="0" class="er attributeBoxOdd"/><text style="dominant-baseline: middle; font-size: 10.2px;" transform="translate(5,202.5)" y="0" x="0" id="text-entity-CreditCard-ba790912-701c-5730-a598-e92c4b441db1-attr-9-type" class="er entityLabel">stringList</text><rect height="21" width="197.453125" y="192" x="69.06622314453125" class="er attributeBoxOdd"/><text style="dominant-baseline: middle; font-size: 10.2px;" transform="translate(74.06622314453125,202.5)" y="0" x="0" id="text-entity-CreditCard-ba790912-701c-5730-a598-e92c4b441db1-attr-9-name" class="er entityLabel">requiredCollateral</text><rect height="21" width="69.06622314453125" y="213" x="0" class="er attributeBoxEven"/><text style="dominant-baseline: middle; font-size: 10.2px;" transform="translate(5,223.5)" y="0" x="0" id="text-entity-CreditCard-ba790912-701c-5730-a598-e92c4b441db1-attr-10-type" class="er entityLabel">stringList</text><rect height="21" width="197.453125" y="213" x="69.06622314453125" class="er attributeBoxEven"/><text style="dominant-baseline: middle; font-size: 10.2px;" transform="translate(74.06622314453125,223.5)" y="0" x="0" id="text-entity-CreditCard-ba790912-701c-5730-a598-e92c4b441db1-attr-10-name" class="er entityLabel">annualPercentageRate</text><rect height="21" width="69.06622314453125" y="234" x="0" class="er attributeBoxOdd"/><text style="dominant-baseline: middle; font-size: 10.2px;" transform="translate(5,244.5)" y="0" x="0" id="text-entity-CreditCard-ba790912-701c-5730-a598-e92c4b441db1-attr-11-type" class="er entityLabel">stringList</text><rect height="21" width="197.453125" y="234" x="69.06622314453125" class="er attributeBoxOdd"/><text style="dominant-baseline: middle; font-size: 10.2px;" transform="translate(74.06622314453125,244.5)" y="0" x="0" id="text-entity-CreditCard-ba790912-701c-5730-a598-e92c4b441db1-attr-11-name" class="er entityLabel">feesAndCommissionsSpecification</text><rect height="21" width="69.06622314453125" y="255" x="0" class="er attributeBoxEven"/><text style="dominant-baseline: middle; font-size: 10.2px;" transform="translate(5,265.5)" y="0" x="0" id="text-entity-CreditCard-ba790912-701c-5730-a598-e92c4b441db1-attr-12-type" class="er entityLabel">stringList</text><rect height="21" width="197.453125" y="255" x="69.06622314453125" class="er attributeBoxEven"/><text style="dominant-baseline: middle; font-size: 10.2px;" transform="translate(74.06622314453125,265.5)" y="0" x="0" id="text-entity-CreditCard-ba790912-701c-5730-a598-e92c4b441db1-attr-12-name" class="er entityLabel">interestRate</text><rect height="21" width="69.06622314453125" y="276" x="0" class="er attributeBoxOdd"/><text style="dominant-baseline: middle; font-size: 10.2px;" transform="translate(5,286.5)" y="0" x="0" id="text-entity-CreditCard-ba790912-701c-5730-a598-e92c4b441db1-attr-13-type" class="er entityLabel">stringList</text><rect height="21" width="197.453125" y="276" x="69.06622314453125" class="er attributeBoxOdd"/><text style="dominant-baseline: middle; font-size: 10.2px;" transform="translate(74.06622314453125,286.5)" y="0" x="0" id="text-entity-CreditCard-ba790912-701c-5730-a598-e92c4b441db1-attr-13-name" class="er entityLabel">areaServed</text><rect height="21" width="69.06622314453125" y="297" x="0" class="er attributeBoxEven"/><text style="dominant-baseline: middle; font-size: 10.2px;" transform="translate(5,307.5)" y="0" x="0" id="text-entity-CreditCard-ba790912-701c-5730-a598-e92c4b441db1-attr-14-type" class="er entityLabel">stringList</text><rect height="21" width="197.453125" y="297" x="69.06622314453125" class="er attributeBoxEven"/><text style="dominant-baseline: middle; font-size: 10.2px;" transform="translate(74.06622314453125,307.5)" y="0" x="0" id="text-entity-CreditCard-ba790912-701c-5730-a598-e92c4b441db1-attr-14-name" class="er entityLabel">category</text><rect height="21" width="69.06622314453125" y="318" x="0" class="er attributeBoxOdd"/><text style="dominant-baseline: middle; font-size: 10.2px;" transform="translate(5,328.5)" y="0" x="0" id="text-entity-CreditCard-ba790912-701c-5730-a598-e92c4b441db1-attr-15-type" class="er entityLabel">stringList</text><rect height="21" width="197.453125" y="318" x="69.06622314453125" class="er attributeBoxOdd"/><text style="dominant-baseline: middle; font-size: 10.2px;" transform="translate(74.06622314453125,328.5)" y="0" x="0" id="text-entity-CreditCard-ba790912-701c-5730-a598-e92c4b441db1-attr-15-name" class="er entityLabel">logo</text><rect height="21" width="69.06622314453125" y="339" x="0" class="er attributeBoxEven"/><text style="dominant-baseline: middle; font-size: 10.2px;" transform="translate(5,349.5)" y="0" x="0" id="text-entity-CreditCard-ba790912-701c-5730-a598-e92c4b441db1-attr-16-type" class="er entityLabel">TextList</text><rect height="21" width="197.453125" y="339" x="69.06622314453125" class="er attributeBoxEven"/><text style="dominant-baseline: middle; font-size: 10.2px;" transform="translate(74.06622314453125,349.5)" y="0" x="0" id="text-entity-CreditCard-ba790912-701c-5730-a598-e92c4b441db1-attr-16-name" class="er entityLabel">award</text><rect height="21" width="69.06622314453125" y="360" x="0" class="er attributeBoxOdd"/><text style="dominant-baseline: middle; font-size: 10.2px;" transform="translate(5,370.5)" y="0" x="0" id="text-entity-CreditCard-ba790912-701c-5730-a598-e92c4b441db1-attr-17-type" class="er entityLabel">stringList</text><rect height="21" width="197.453125" y="360" x="69.06622314453125" class="er attributeBoxOdd"/><text style="dominant-baseline: middle; font-size: 10.2px;" transform="translate(74.06622314453125,370.5)" y="0" x="0" id="text-entity-CreditCard-ba790912-701c-5730-a598-e92c4b441db1-attr-17-name" class="er entityLabel">brand</text><rect height="21" width="69.06622314453125" y="381" x="0" class="er attributeBoxEven"/><text style="dominant-baseline: middle; font-size: 10.2px;" transform="translate(5,391.5)" y="0" x="0" id="text-entity-CreditCard-ba790912-701c-5730-a598-e92c4b441db1-attr-18-type" class="er entityLabel">stringList</text><rect height="21" width="197.453125" y="381" x="69.06622314453125" class="er attributeBoxEven"/><text style="dominant-baseline: middle; font-size: 10.2px;" transform="translate(74.06622314453125,391.5)" y="0" x="0" id="text-entity-CreditCard-ba790912-701c-5730-a598-e92c4b441db1-attr-18-name" class="er entityLabel">broker</text><rect height="21" width="69.06622314453125" y="402" x="0" class="er attributeBoxOdd"/><text style="dominant-baseline: middle; font-size: 10.2px;" transform="translate(5,412.5)" y="0" x="0" id="text-entity-CreditCard-ba790912-701c-5730-a598-e92c4b441db1-attr-19-type" class="er entityLabel">stringList</text><rect height="21" width="197.453125" y="402" x="69.06622314453125" class="er attributeBoxOdd"/><text style="dominant-baseline: middle; font-size: 10.2px;" transform="translate(74.06622314453125,412.5)" y="0" x="0" id="text-entity-CreditCard-ba790912-701c-5730-a598-e92c4b441db1-attr-19-name" class="er entityLabel">isRelatedTo</text><rect height="21" width="69.06622314453125" y="423" x="0" class="er attributeBoxEven"/><text style="dominant-baseline: middle; font-size: 10.2px;" transform="translate(5,433.5)" y="0" x="0" id="text-entity-CreditCard-ba790912-701c-5730-a598-e92c4b441db1-attr-20-type" class="er entityLabel">stringList</text><rect height="21" width="197.453125" y="423" x="69.06622314453125" class="er attributeBoxEven"/><text style="dominant-baseline: middle; font-size: 10.2px;" transform="translate(74.06622314453125,433.5)" y="0" x="0" id="text-entity-CreditCard-ba790912-701c-5730-a598-e92c4b441db1-attr-20-name" class="er entityLabel">isSimilarTo</text><rect height="21" width="69.06622314453125" y="444" x="0" class="er attributeBoxOdd"/><text style="dominant-baseline: middle; font-size: 10.2px;" transform="translate(5,454.5)" y="0" x="0" id="text-entity-CreditCard-ba790912-701c-5730-a598-e92c4b441db1-attr-21-type" class="er entityLabel">stringList</text><rect height="21" width="197.453125" y="444" x="69.06622314453125" class="er attributeBoxOdd"/><text style="dominant-baseline: middle; font-size: 10.2px;" transform="translate(74.06622314453125,454.5)" y="0" x="0" id="text-entity-CreditCard-ba790912-701c-5730-a598-e92c4b441db1-attr-21-name" class="er entityLabel">offers</text><rect height="21" width="69.06622314453125" y="465" x="0" class="er attributeBoxEven"/><text style="dominant-baseline: middle; font-size: 10.2px;" transform="translate(5,475.5)" y="0" x="0" id="text-entity-CreditCard-ba790912-701c-5730-a598-e92c4b441db1-attr-22-type" class="er entityLabel">stringList</text><rect height="21" width="197.453125" y="465" x="69.06622314453125" class="er attributeBoxEven"/><text style="dominant-baseline: middle; font-size: 10.2px;" transform="translate(74.06622314453125,475.5)" y="0" x="0" id="text-entity-CreditCard-ba790912-701c-5730-a598-e92c4b441db1-attr-22-name" class="er entityLabel">provider</text><rect height="21" width="69.06622314453125" y="486" x="0" class="er attributeBoxOdd"/><text style="dominant-baseline: middle; font-size: 10.2px;" transform="translate(5,496.5)" y="0" x="0" id="text-entity-CreditCard-ba790912-701c-5730-a598-e92c4b441db1-attr-23-type" class="er entityLabel">TextList</text><rect height="21" width="197.453125" y="486" x="69.06622314453125" class="er attributeBoxOdd"/><text style="dominant-baseline: middle; font-size: 10.2px;" transform="translate(74.06622314453125,496.5)" y="0" x="0" id="text-entity-CreditCard-ba790912-701c-5730-a598-e92c4b441db1-attr-23-name" class="er entityLabel">providerMobility</text><rect height="21" width="69.06622314453125" y="507" x="0" class="er attributeBoxEven"/><text style="dominant-baseline: middle; font-size: 10.2px;" transform="translate(5,517.5)" y="0" x="0" id="text-entity-CreditCard-ba790912-701c-5730-a598-e92c4b441db1-attr-24-type" class="er entityLabel">stringList</text><rect height="21" width="197.453125" y="507" x="69.06622314453125" class="er attributeBoxEven"/><text style="dominant-baseline: middle; font-size: 10.2px;" transform="translate(74.06622314453125,517.5)" y="0" x="0" id="text-entity-CreditCard-ba790912-701c-5730-a598-e92c4b441db1-attr-24-name" class="er entityLabel">serviceArea</text><rect height="21" width="69.06622314453125" y="528" x="0" class="er attributeBoxOdd"/><text style="dominant-baseline: middle; font-size: 10.2px;" transform="translate(5,538.5)" y="0" x="0" id="text-entity-CreditCard-ba790912-701c-5730-a598-e92c4b441db1-attr-25-type" class="er entityLabel">stringList</text><rect height="21" width="197.453125" y="528" x="69.06622314453125" class="er attributeBoxOdd"/><text style="dominant-baseline: middle; font-size: 10.2px;" transform="translate(74.06622314453125,538.5)" y="0" x="0" id="text-entity-CreditCard-ba790912-701c-5730-a598-e92c4b441db1-attr-25-name" class="er entityLabel">serviceType</text><rect height="21" width="69.06622314453125" y="549" x="0" class="er attributeBoxEven"/><text style="dominant-baseline: middle; font-size: 10.2px;" transform="translate(5,559.5)" y="0" x="0" id="text-entity-CreditCard-ba790912-701c-5730-a598-e92c4b441db1-attr-26-type" class="er entityLabel">TextList</text><rect height="21" width="197.453125" y="549" x="69.06622314453125" class="er attributeBoxEven"/><text style="dominant-baseline: middle; font-size: 10.2px;" transform="translate(74.06622314453125,559.5)" y="0" x="0" id="text-entity-CreditCard-ba790912-701c-5730-a598-e92c4b441db1-attr-26-name" class="er entityLabel">slogan</text><rect height="21" width="69.06622314453125" y="570" x="0" class="er attributeBoxOdd"/><text style="dominant-baseline: middle; font-size: 10.2px;" transform="translate(5,580.5)" y="0" x="0" id="text-entity-CreditCard-ba790912-701c-5730-a598-e92c4b441db1-attr-27-type" class="er entityLabel">stringList</text><rect height="21" width="197.453125" y="570" x="69.06622314453125" class="er attributeBoxOdd"/><text style="dominant-baseline: middle; font-size: 10.2px;" transform="translate(74.06622314453125,580.5)" y="0" x="0" id="text-entity-CreditCard-ba790912-701c-5730-a598-e92c4b441db1-attr-27-name" class="er entityLabel">termsOfService</text><rect height="21" width="69.06622314453125" y="591" x="0" class="er attributeBoxEven"/><text style="dominant-baseline: middle; font-size: 10.2px;" transform="translate(5,601.5)" y="0" x="0" id="text-entity-CreditCard-ba790912-701c-5730-a598-e92c4b441db1-attr-28-type" class="er entityLabel">stringList</text><rect height="21" width="197.453125" y="591" x="69.06622314453125" class="er attributeBoxEven"/><text style="dominant-baseline: middle; font-size: 10.2px;" transform="translate(74.06622314453125,601.5)" y="0" x="0" id="text-entity-CreditCard-ba790912-701c-5730-a598-e92c4b441db1-attr-28-name" class="er entityLabel">additionalType</text><rect height="21" width="69.06622314453125" y="612" x="0" class="er attributeBoxOdd"/><text style="dominant-baseline: middle; font-size: 10.2px;" transform="translate(5,622.5)" y="0" x="0" id="text-entity-CreditCard-ba790912-701c-5730-a598-e92c4b441db1-attr-29-type" class="er entityLabel">TextList</text><rect height="21" width="197.453125" y="612" x="69.06622314453125" class="er attributeBoxOdd"/><text style="dominant-baseline: middle; font-size: 10.2px;" transform="translate(74.06622314453125,622.5)" y="0" x="0" id="text-entity-CreditCard-ba790912-701c-5730-a598-e92c4b441db1-attr-29-name" class="er entityLabel">alternateName</text><rect height="21" width="69.06622314453125" y="633" x="0" class="er attributeBoxEven"/><text style="dominant-baseline: middle; font-size: 10.2px;" transform="translate(5,643.5)" y="0" x="0" id="text-entity-CreditCard-ba790912-701c-5730-a598-e92c4b441db1-attr-30-type" class="er entityLabel">stringList</text><rect height="21" width="197.453125" y="633" x="69.06622314453125" class="er attributeBoxEven"/><text style="dominant-baseline: middle; font-size: 10.2px;" transform="translate(74.06622314453125,643.5)" y="0" x="0" id="text-entity-CreditCard-ba790912-701c-5730-a598-e92c4b441db1-attr-30-name" class="er entityLabel">description</text><rect height="21" width="69.06622314453125" y="654" x="0" class="er attributeBoxOdd"/><text style="dominant-baseline: middle; font-size: 10.2px;" transform="translate(5,664.5)" y="0" x="0" id="text-entity-CreditCard-ba790912-701c-5730-a598-e92c4b441db1-attr-31-type" class="er entityLabel">TextList</text><rect height="21" width="197.453125" y="654" x="69.06622314453125" class="er attributeBoxOdd"/><text style="dominant-baseline: middle; font-size: 10.2px;" transform="translate(74.06622314453125,664.5)" y="0" x="0" id="text-entity-CreditCard-ba790912-701c-5730-a598-e92c4b441db1-attr-31-name" class="er entityLabel">disambiguatingDescription</text><rect height="21" width="69.06622314453125" y="675" x="0" class="er attributeBoxEven"/><text style="dominant-baseline: middle; font-size: 10.2px;" transform="translate(5,685.5)" y="0" x="0" id="text-entity-CreditCard-ba790912-701c-5730-a598-e92c4b441db1-attr-32-type" class="er entityLabel">stringList</text><rect height="21" width="197.453125" y="675" x="69.06622314453125" class="er attributeBoxEven"/><text style="dominant-baseline: middle; font-size: 10.2px;" transform="translate(74.06622314453125,685.5)" y="0" x="0" id="text-entity-CreditCard-ba790912-701c-5730-a598-e92c4b441db1-attr-32-name" class="er entityLabel">identifier</text><rect height="21" width="69.06622314453125" y="696" x="0" class="er attributeBoxOdd"/><text style="dominant-baseline: middle; font-size: 10.2px;" transform="translate(5,706.5)" y="0" x="0" id="text-entity-CreditCard-ba790912-701c-5730-a598-e92c4b441db1-attr-33-type" class="er entityLabel">stringList</text><rect height="21" width="197.453125" y="696" x="69.06622314453125" class="er attributeBoxOdd"/><text style="dominant-baseline: middle; font-size: 10.2px;" transform="translate(74.06622314453125,706.5)" y="0" x="0" id="text-entity-CreditCard-ba790912-701c-5730-a598-e92c4b441db1-attr-33-name" class="er entityLabel">image</text><rect height="21" width="69.06622314453125" y="717" x="0" class="er attributeBoxEven"/><text style="dominant-baseline: middle; font-size: 10.2px;" transform="translate(5,727.5)" y="0" x="0" id="text-entity-CreditCard-ba790912-701c-5730-a598-e92c4b441db1-attr-34-type" class="er entityLabel">TextList</text><rect height="21" width="197.453125" y="717" x="69.06622314453125" class="er attributeBoxEven"/><text style="dominant-baseline: middle; font-size: 10.2px;" transform="translate(74.06622314453125,727.5)" y="0" x="0" id="text-entity-CreditCard-ba790912-701c-5730-a598-e92c4b441db1-attr-34-name" class="er entityLabel">name</text><rect height="21" width="69.06622314453125" y="738" x="0" class="er attributeBoxOdd"/><text style="dominant-baseline: middle; font-size: 10.2px;" transform="translate(5,748.5)" y="0" x="0" id="text-entity-CreditCard-ba790912-701c-5730-a598-e92c4b441db1-attr-35-type" class="er entityLabel">URLList</text><rect height="21" width="197.453125" y="738" x="69.06622314453125" class="er attributeBoxOdd"/><text style="dominant-baseline: middle; font-size: 10.2px;" transform="translate(74.06622314453125,748.5)" y="0" x="0" id="text-entity-CreditCard-ba790912-701c-5730-a598-e92c4b441db1-attr-35-name" class="er entityLabel">sameAs</text><rect height="21" width="69.06622314453125" y="759" x="0" class="er attributeBoxEven"/><text style="dominant-baseline: middle; font-size: 10.2px;" transform="translate(5,769.5)" y="0" x="0" id="text-entity-CreditCard-ba790912-701c-5730-a598-e92c4b441db1-attr-36-type" class="er entityLabel">stringList</text><rect height="21" width="197.453125" y="759" x="69.06622314453125" class="er attributeBoxEven"/><text style="dominant-baseline: middle; font-size: 10.2px;" transform="translate(74.06622314453125,769.5)" y="0" x="0" id="text-entity-CreditCard-ba790912-701c-5730-a598-e92c4b441db1-attr-36-name" class="er entityLabel">mainEntityOfPage</text><rect height="21" width="69.06622314453125" y="780" x="0" class="er attributeBoxOdd"/><text style="dominant-baseline: middle; font-size: 10.2px;" transform="translate(5,790.5)" y="0" x="0" id="text-entity-CreditCard-ba790912-701c-5730-a598-e92c4b441db1-attr-37-type" class="er entityLabel">stringList</text><rect height="21" width="197.453125" y="780" x="69.06622314453125" class="er attributeBoxOdd"/><text style="dominant-baseline: middle; font-size: 10.2px;" transform="translate(74.06622314453125,790.5)" y="0" x="0" id="text-entity-CreditCard-ba790912-701c-5730-a598-e92c4b441db1-attr-37-name" class="er entityLabel">subjectOf</text><rect height="21" width="69.06622314453125" y="801" x="0" class="er attributeBoxEven"/><text style="dominant-baseline: middle; font-size: 10.2px;" transform="translate(5,811.5)" y="0" x="0" id="text-entity-CreditCard-ba790912-701c-5730-a598-e92c4b441db1-attr-38-type" class="er entityLabel">URLList</text><rect height="21" width="197.453125" y="801" x="69.06622314453125" class="er attributeBoxEven"/><text style="dominant-baseline: middle; font-size: 10.2px;" transform="translate(74.06622314453125,811.5)" y="0" x="0" id="text-entity-CreditCard-ba790912-701c-5730-a598-e92c4b441db1-attr-38-name" class="er entityLabel">url</text></g><g transform="translate(20,942 )" id="entity-MonetaryAmount-99d98e1d-dae3-555c-a0b3-eeec7bd13c3e"><rect height="75" width="134.228515625" y="0" x="0" class="er entityBox"/><text style="dominant-baseline: middle; text-anchor: middle; font-size: 12px;" transform="translate(67.1142578125,37.5)" y="0" x="0" id="text-entity-MonetaryAmount-99d98e1d-dae3-555c-a0b3-eeec7bd13c3e" class="er entityLabel">MonetaryAmount</text></g><g transform="translate(254.228515625,942 )" id="entity-QuantitativeValue-3d19db81-2acf-5dcd-99e0-52d6a275eca4"><rect height="75" width="137.59375" y="0" x="0" class="er entityBox"/><text style="dominant-baseline: middle; text-anchor: middle; font-size: 12px;" transform="translate(68.796875,37.5)" y="0" x="0" id="text-entity-QuantitativeValue-3d19db81-2acf-5dcd-99e0-52d6a275eca4" class="er entityLabel">QuantitativeValue</text></g><g transform="translate(491.822265625,942 )" id="entity-Duration-4925bcef-08f8-5f30-b1af-3959fea9384e"><rect height="75" width="100" y="0" x="0" class="er entityBox"/><text style="dominant-baseline: middle; text-anchor: middle; font-size: 12px;" transform="translate(50,37.5)" y="0" x="0" id="text-entity-Duration-4925bcef-08f8-5f30-b1af-3959fea9384e" class="er entityLabel">Duration</text></g><g transform="translate(691.822265625,942 )" id="entity-RepaymentSpecification-bc966c2b-46a4-5671-9084-3929a80b235c"><rect height="75" width="175.6875" y="0" x="0" class="er entityBox"/><text style="dominant-baseline: middle; text-anchor: middle; font-size: 12px;" transform="translate(87.84375,37.5)" y="0" x="0" id="text-entity-RepaymentSpecification-bc966c2b-46a4-5671-9084-3929a80b235c" class="er entityLabel">RepaymentSpecification</text></g><g transform="translate(967.509765625,942 )" id="entity-AggregateRating-aa0a8837-178a-57ab-baa0-94ad30d90eb5"><rect height="75" width="131.25" y="0" x="0" class="er entityBox"/><text style="dominant-baseline: middle; text-anchor: middle; font-size: 12px;" transform="translate(65.625,37.5)" y="0" x="0" id="text-entity-AggregateRating-aa0a8837-178a-57ab-baa0-94ad30d90eb5" class="er entityLabel">AggregateRating</text></g><g transform="translate(1198.759765625,942 )" id="entity-Audience-f784d19a-7c58-5869-868f-14b9086fca44"><rect height="75" width="100" y="0" x="0" class="er entityBox"/><text style="dominant-baseline: middle; text-anchor: middle; font-size: 12px;" transform="translate(50,37.5)" y="0" x="0" id="text-entity-Audience-f784d19a-7c58-5869-868f-14b9086fca44" class="er entityLabel">Audience</text></g><g transform="translate(1398.759765625,942 )" id="entity-ServiceChannel-5f9e70a6-8dc6-5d0f-a871-3e775d52af1b"><rect height="75" width="123.625" y="0" x="0" class="er entityBox"/><text style="dominant-baseline: middle; text-anchor: middle; font-size: 12px;" transform="translate(61.8125,37.5)" y="0" x="0" id="text-entity-ServiceChannel-5f9e70a6-8dc6-5d0f-a871-3e775d52af1b" class="er entityLabel">ServiceChannel</text></g><g transform="translate(1622.384765625,942 )" id="entity-Certification-8b250de0-929b-5806-8c87-f8e7c928ef36"><rect height="75" width="103.234375" y="0" x="0" class="er entityBox"/><text style="dominant-baseline: middle; text-anchor: middle; font-size: 12px;" transform="translate(51.6171875,37.5)" y="0" x="0" id="text-entity-Certification-8b250de0-929b-5806-8c87-f8e7c928ef36" class="er entityLabel">Certification</text></g><g transform="translate(1825.619140625,942 )" id="entity-OfferCatalog-e4b8efcd-db96-5dc8-b042-81a3acf3e3fe"><rect height="75" width="106.125" y="0" x="0" class="er entityBox"/><text style="dominant-baseline: middle; text-anchor: middle; font-size: 12px;" transform="translate(53.0625,37.5)" y="0" x="0" id="text-entity-OfferCatalog-e4b8efcd-db96-5dc8-b042-81a3acf3e3fe" class="er entityLabel">OfferCatalog</text></g><g transform="translate(2031.744140625,942 )" id="entity-OpeningHoursSpecification-677aa64f-a506-5d18-b5d1-75a0f22f6986"><rect height="75" width="192.8125" y="0" x="0" class="er entityBox"/><text style="dominant-baseline: middle; text-anchor: middle; font-size: 12px;" transform="translate(96.40625,37.5)" y="0" x="0" id="text-entity-OpeningHoursSpecification-677aa64f-a506-5d18-b5d1-75a0f22f6986" class="er entityLabel">OpeningHoursSpecification</text></g><g transform="translate(2324.556640625,942 )" id="entity-Thing-27bc9527-b992-59fc-a0fb-da83e2ff80bf"><rect height="75" width="100" y="0" x="0" class="er entityBox"/><text style="dominant-baseline: middle; text-anchor: middle; font-size: 12px;" transform="translate(50,37.5)" y="0" x="0" id="text-entity-Thing-27bc9527-b992-59fc-a0fb-da83e2ff80bf" class="er entityLabel">Thing</text></g><g transform="translate(2524.556640625,942 )" id="entity-Review-77c92a79-8cff-50c0-9604-f9135763cccd"><rect height="75" width="100" y="0" x="0" class="er entityBox"/><text style="dominant-baseline: middle; text-anchor: middle; font-size: 12px;" transform="translate(50,37.5)" y="0" x="0" id="text-entity-Review-77c92a79-8cff-50c0-9604-f9135763cccd" class="er entityLabel">Review</text></g><g transform="translate(2724.556640625,942 )" id="entity-Action-6cd87d9a-a078-546e-a35b-bee54f477b31"><rect height="75" width="100" y="0" x="0" class="er entityBox"/><text style="dominant-baseline: middle; text-anchor: middle; font-size: 12px;" transform="translate(50,37.5)" y="0" x="0" id="text-entity-Action-6cd87d9a-a078-546e-a35b-bee54f477b31" class="er entityLabel">Action</text></g><g transform="translate(2924.556640625,942 )" id="entity-PaymentMethodType-d208bc60-309a-55de-b7b3-2349600a8439"><rect height="75" width="155.109375" y="0" x="0" class="er entityBox"/><text style="dominant-baseline: middle; text-anchor: middle; font-size: 12px;" transform="translate(77.5546875,37.5)" y="0" x="0" id="text-entity-PaymentMethodType-d208bc60-309a-55de-b7b3-2349600a8439" class="er entityLabel">PaymentMethodType</text></g><rect height="14" width="57.21875" y="680.237060546875" x="719.5618286132812" class="er relationshipLabelBox"/><text style="text-anchor: middle; dominant-baseline: middle; font-size: 12px;" y="687.237060546875" x="748.1712036132812" id="rel1" class="er relationshipLabel">floorLimit</text><rect height="14" width="54.734375" y="685.2100219726562" x="837.9961547851562" class="er relationshipLabelBox"/><text style="text-anchor: middle; dominant-baseline: middle; font-size: 12px;" y="692.2100219726562" x="865.3633422851562" id="rel2" class="er relationshipLabel">loanTerm</text><rect height="14" width="71.3125" y="691.8950805664062" x="938.3406372070312" class="er relationshipLabelBox"/><text style="text-anchor: middle; dominant-baseline: middle; font-size: 12px;" y="698.8950805664062" x="973.9968872070312" id="rel3" class="er relationshipLabel">gracePeriod</text><rect height="14" width="124.5" y="703.3228149414062" x="1029.9317626953125" class="er relationshipLabelBox"/><text style="text-anchor: middle; dominant-baseline: middle; font-size: 12px;" y="710.3228149414062" x="1092.1817626953125" id="rel4" class="er relationshipLabel">loanRepaymentForm</text><rect height="14" width="100.390625" y="726.0176391601562" x="1168.7491455078125" class="er relationshipLabelBox"/><text style="text-anchor: middle; dominant-baseline: middle; font-size: 12px;" y="733.0176391601562" x="1218.9444580078125" id="rel5" class="er relationshipLabel">aggregateRating</text><rect height="14" width="54.890625" y="752.2186279296875" x="1274.1253662109375" class="er relationshipLabelBox"/><text style="text-anchor: middle; dominant-baseline: middle; font-size: 12px;" y="759.2186279296875" x="1301.5706787109375" id="rel6" class="er relationshipLabel">audience</text><rect height="14" width="103.4375" y="884.5614624023438" x="1410.8345947265625" class="er relationshipLabelBox"/><text style="text-anchor: middle; dominant-baseline: middle; font-size: 12px;" y="891.5614624023438" x="1462.5533447265625" id="rel7" class="er relationshipLabel">availableChannel</text><rect height="14" width="94.453125" y="884.5615234375" x="1624.794189453125" class="er relationshipLabelBox"/><text style="text-anchor: middle; dominant-baseline: middle; font-size: 12px;" y="891.5615234375" x="1672.020751953125" id="rel8" class="er relationshipLabel">hasCertification</text><rect height="14" width="97.328125" y="772.6949462890625" x="1752.9979248046875" class="er relationshipLabelBox"/><text style="text-anchor: middle; dominant-baseline: middle; font-size: 12px;" y="779.6949462890625" x="1801.6619873046875" id="rel9" class="er relationshipLabel">hasOfferCatalog</text><rect height="14" width="88.0625" y="722.7315673828125" x="1885.045654296875" class="er relationshipLabelBox"/><text style="text-anchor: middle; dominant-baseline: middle; font-size: 12px;" y="729.7315673828125" x="1929.076904296875" id="rel10" class="er relationshipLabel">hoursAvailable</text><rect height="14" width="55.09375" y="713.7120971679688" x="1999.9710693359375" class="er relationshipLabelBox"/><text style="text-anchor: middle; dominant-baseline: middle; font-size: 12px;" y="720.7120971679688" x="2027.5179443359375" id="rel11" class="er relationshipLabel">produces</text><rect height="14" width="39.87109375" y="692.581787109375" x="2131.607666015625" class="er relationshipLabelBox"/><text style="text-anchor: middle; dominant-baseline: middle; font-size: 12px;" y="699.581787109375" x="2151.543212890625" id="rel12" class="er relationshipLabel">review</text><rect height="14" width="98.71875" y="797.1583862304688" x="1305.19482421875" class="er relationshipLabelBox"/><text style="text-anchor: middle; dominant-baseline: middle; font-size: 12px;" y="804.1583862304688" x="1354.55419921875" id="rel13" class="er relationshipLabel">serviceAudience</text><rect height="14" width="84.962890625" y="696.52685546875" x="2028.78125" class="er relationshipLabelBox"/><text style="text-anchor: middle; dominant-baseline: middle; font-size: 12px;" y="703.52685546875" x="2071.2626953125" id="rel14" class="er relationshipLabel">serviceOutput</text><rect height="14" width="90.96875" y="686.1689453125" x="2205.357666015625" class="er relationshipLabelBox"/><text style="text-anchor: middle; dominant-baseline: middle; font-size: 12px;" y="693.1689453125" x="2250.842041015625" id="rel15" class="er relationshipLabel">potentialAction</text><rect height="14" width="126.03125" y="681.0632934570312" x="2300.852294921875" class="er relationshipLabelBox"/><text style="text-anchor: middle; dominant-baseline: middle; font-size: 12px;" y="688.0632934570312" x="2363.867919921875" id="rel16" class="er relationshipLabel">paymentMethodType</text></svg>