<svg aria-roledescription="er" role="graphics-document document" viewBox="-53.815147399902344 0 693.8151245117188 428" style="max-width: 693.815px; background-color: white;" xmlns:xlink="http://www.w3.org/1999/xlink" xmlns="http://www.w3.org/2000/svg" width="100%" id="my-svg"><style>#my-svg{font-family:"trebuchet ms",verdana,arial,sans-serif;font-size:16px;fill:#333;}#my-svg .error-icon{fill:#552222;}#my-svg .error-text{fill:#552222;stroke:#552222;}#my-svg .edge-thickness-normal{stroke-width:1px;}#my-svg .edge-thickness-thick{stroke-width:3.5px;}#my-svg .edge-pattern-solid{stroke-dasharray:0;}#my-svg .edge-thickness-invisible{stroke-width:0;fill:none;}#my-svg .edge-pattern-dashed{stroke-dasharray:3;}#my-svg .edge-pattern-dotted{stroke-dasharray:2;}#my-svg .marker{fill:#333333;stroke:#333333;}#my-svg .marker.cross{stroke:#333333;}#my-svg svg{font-family:"trebuchet ms",verdana,arial,sans-serif;font-size:16px;}#my-svg p{margin:0;}#my-svg .entityBox{fill:#ECECFF;stroke:#9370DB;}#my-svg .attributeBoxOdd{fill:#ffffff;stroke:#9370DB;}#my-svg .attributeBoxEven{fill:#f2f2f2;stroke:#9370DB;}#my-svg .relationshipLabelBox{fill:hsl(80, 100%, 96.2745098039%);opacity:0.7;background-color:hsl(80, 100%, 96.2745098039%);}#my-svg .relationshipLabelBox rect{opacity:0.5;}#my-svg .relationshipLine{stroke:#333333;}#my-svg .entityTitleText{text-anchor:middle;font-size:18px;fill:#333;}#my-svg #MD_PARENT_START{fill:#f5f5f5!important;stroke:#333333!important;stroke-width:1;}#my-svg #MD_PARENT_END{fill:#f5f5f5!important;stroke:#333333!important;stroke-width:1;}#my-svg :root{--mermaid-font-family:"trebuchet ms",verdana,arial,sans-serif;}</style><g/><defs><marker orient="auto" markerHeight="240" markerWidth="190" refY="7" refX="0" id="MD_PARENT_START"><path d="M 18,7 L9,13 L1,7 L9,1 Z"/></marker></defs><defs><marker orient="auto" markerHeight="28" markerWidth="20" refY="7" refX="19" id="MD_PARENT_END"><path d="M 18,7 L9,13 L1,7 L9,1 Z"/></marker></defs><defs><marker orient="auto" markerHeight="18" markerWidth="18" refY="9" refX="0" id="ONLY_ONE_START"><path d="M9,0 L9,18 M15,0 L15,18" fill="none" stroke="gray"/></marker></defs><defs><marker orient="auto" markerHeight="18" markerWidth="18" refY="9" refX="18" id="ONLY_ONE_END"><path d="M3,0 L3,18 M9,0 L9,18" fill="none" stroke="gray"/></marker></defs><defs><marker orient="auto" markerHeight="18" markerWidth="30" refY="9" refX="0" id="ZERO_OR_ONE_START"><circle r="6" cy="9" cx="21" fill="white" stroke="gray"/><path d="M9,0 L9,18" fill="none" stroke="gray"/></marker></defs><defs><marker orient="auto" markerHeight="18" markerWidth="30" refY="9" refX="30" id="ZERO_OR_ONE_END"><circle r="6" cy="9" cx="9" fill="white" stroke="gray"/><path d="M21,0 L21,18" fill="none" stroke="gray"/></marker></defs><defs><marker orient="auto" markerHeight="36" markerWidth="45" refY="18" refX="18" id="ONE_OR_MORE_START"><path d="M0,18 Q 18,0 36,18 Q 18,36 0,18 M42,9 L42,27" fill="none" stroke="gray"/></marker></defs><defs><marker orient="auto" markerHeight="36" markerWidth="45" refY="18" refX="27" id="ONE_OR_MORE_END"><path d="M3,9 L3,27 M9,18 Q27,0 45,18 Q27,36 9,18" fill="none" stroke="gray"/></marker></defs><defs><marker orient="auto" markerHeight="36" markerWidth="57" refY="18" refX="18" id="ZERO_OR_MORE_START"><circle r="6" cy="18" cx="48" fill="white" stroke="gray"/><path d="M0,18 Q18,0 36,18 Q18,36 0,18" fill="none" stroke="gray"/></marker></defs><defs><marker orient="auto" markerHeight="36" markerWidth="57" refY="18" refX="39" id="ZERO_OR_MORE_END"><circle r="6" cy="18" cx="9" fill="white" stroke="gray"/><path d="M21,18 Q39,0 57,18 Q39,36 21,18" fill="none" stroke="gray"/></marker></defs><path style="stroke: gray; fill: none;" marker-start="url(#ONLY_ONE_START)" marker-end="url(#ZERO_OR_MORE_END)" d="M128.43,174.269L93.691,192.391C58.953,210.513,-10.523,246.756,-28.595,274.6C-46.667,302.444,-13.333,321.889,3.333,331.611L20,341.333" class="er relationshipLine"/><path style="stroke: gray; fill: none;" marker-start="url(#ONLY_ONE_START)" marker-end="url(#ZERO_OR_MORE_END)" d="M128.43,198.154L110.358,212.295C92.286,226.436,56.143,254.718,42.834,277.192C29.524,299.667,39.048,316.333,43.81,324.667L48.571,333" class="er relationshipLine"/><path style="stroke: gray; fill: none;" marker-start="url(#ONLY_ONE_START)" marker-end="url(#ZERO_OR_MORE_END)" d="M151.949,233L146.624,241.333C141.299,249.667,130.65,266.333,120.563,283C110.476,299.667,100.952,316.333,96.19,324.667L91.429,333" class="er relationshipLine"/><path style="stroke: gray; fill: none;" marker-start="url(#ONLY_ONE_START)" marker-end="url(#ZERO_OR_MORE_END)" d="M220,233L220,241.333C220,249.667,220,266.333,203.333,284.389C186.667,302.444,153.333,321.889,136.667,331.611L120,341.333" class="er relationshipLine"/><path style="stroke: gray; fill: none;" marker-start="url(#ONLY_ONE_START)" marker-end="url(#ZERO_OR_MORE_END)" d="M288.051,233L293.376,241.333C298.701,249.667,309.35,266.333,319.437,283C329.524,299.667,339.048,316.333,343.81,324.667L348.571,333" class="er relationshipLine"/><path style="stroke: gray; fill: none;" marker-start="url(#ONLY_ONE_START)" marker-end="url(#ZERO_OR_MORE_END)" d="M311.57,167.445L354.642,186.704C397.714,205.963,483.857,244.482,526.928,272.074C570,299.667,570,316.333,570,324.667L570,333" class="er relationshipLine"/><path style="stroke: gray; fill: none;" marker-start="url(#ONLY_ONE_START)" marker-end="url(#ZERO_OR_MORE_END)" d="M311.57,198.154L329.642,212.295C347.714,226.436,383.857,254.718,397.166,277.192C410.476,299.667,400.952,316.333,396.19,324.667L391.429,333" class="er relationshipLine"/><g transform="translate(128.4296875,20 )" id="entity-DatedMoneySpecification-c371c16b-2a04-53a0-a5bf-fd5b0d1670e1"><rect height="213" width="183.140625" y="0" x="0" class="er entityBox"/><text style="dominant-baseline: middle; text-anchor: middle; font-size: 12px;" transform="translate(91.5703125,12)" y="0" x="0" id="text-entity-DatedMoneySpecification-c371c16b-2a04-53a0-a5bf-fd5b0d1670e1" class="er entityLabel">DatedMoneySpecification</text><rect height="21" width="69.3671875" y="24" x="0" class="er attributeBoxOdd"/><text style="dominant-baseline: middle; font-size: 10.2px;" transform="translate(5,34.5)" y="0" x="0" id="text-entity-DatedMoneySpecification-c371c16b-2a04-53a0-a5bf-fd5b0d1670e1-attr-1-type" class="er entityLabel">stringList</text><rect height="21" width="113.7734375" y="24" x="69.3671875" class="er attributeBoxOdd"/><text style="dominant-baseline: middle; font-size: 10.2px;" transform="translate(74.3671875,34.5)" y="0" x="0" id="text-entity-DatedMoneySpecification-c371c16b-2a04-53a0-a5bf-fd5b0d1670e1-attr-1-name" class="er entityLabel">amount</text><rect height="21" width="69.3671875" y="45" x="0" class="er attributeBoxEven"/><text style="dominant-baseline: middle; font-size: 10.2px;" transform="translate(5,55.5)" y="0" x="0" id="text-entity-DatedMoneySpecification-c371c16b-2a04-53a0-a5bf-fd5b0d1670e1-attr-2-type" class="er entityLabel">stringList</text><rect height="21" width="113.7734375" y="45" x="69.3671875" class="er attributeBoxEven"/><text style="dominant-baseline: middle; font-size: 10.2px;" transform="translate(74.3671875,55.5)" y="0" x="0" id="text-entity-DatedMoneySpecification-c371c16b-2a04-53a0-a5bf-fd5b0d1670e1-attr-2-name" class="er entityLabel">endDate</text><rect height="21" width="69.3671875" y="66" x="0" class="er attributeBoxOdd"/><text style="dominant-baseline: middle; font-size: 10.2px;" transform="translate(5,76.5)" y="0" x="0" id="text-entity-DatedMoneySpecification-c371c16b-2a04-53a0-a5bf-fd5b0d1670e1-attr-3-type" class="er entityLabel">stringList</text><rect height="21" width="113.7734375" y="66" x="69.3671875" class="er attributeBoxOdd"/><text style="dominant-baseline: middle; font-size: 10.2px;" transform="translate(74.3671875,76.5)" y="0" x="0" id="text-entity-DatedMoneySpecification-c371c16b-2a04-53a0-a5bf-fd5b0d1670e1-attr-3-name" class="er entityLabel">startDate</text><rect height="21" width="69.3671875" y="87" x="0" class="er attributeBoxEven"/><text style="dominant-baseline: middle; font-size: 10.2px;" transform="translate(5,97.5)" y="0" x="0" id="text-entity-DatedMoneySpecification-c371c16b-2a04-53a0-a5bf-fd5b0d1670e1-attr-4-type" class="er entityLabel">stringList</text><rect height="21" width="113.7734375" y="87" x="69.3671875" class="er attributeBoxEven"/><text style="dominant-baseline: middle; font-size: 10.2px;" transform="translate(74.3671875,97.5)" y="0" x="0" id="text-entity-DatedMoneySpecification-c371c16b-2a04-53a0-a5bf-fd5b0d1670e1-attr-4-name" class="er entityLabel">additionalType</text><rect height="21" width="69.3671875" y="108" x="0" class="er attributeBoxOdd"/><text style="dominant-baseline: middle; font-size: 10.2px;" transform="translate(5,118.5)" y="0" x="0" id="text-entity-DatedMoneySpecification-c371c16b-2a04-53a0-a5bf-fd5b0d1670e1-attr-5-type" class="er entityLabel">stringList</text><rect height="21" width="113.7734375" y="108" x="69.3671875" class="er attributeBoxOdd"/><text style="dominant-baseline: middle; font-size: 10.2px;" transform="translate(74.3671875,118.5)" y="0" x="0" id="text-entity-DatedMoneySpecification-c371c16b-2a04-53a0-a5bf-fd5b0d1670e1-attr-5-name" class="er entityLabel">description</text><rect height="21" width="69.3671875" y="129" x="0" class="er attributeBoxEven"/><text style="dominant-baseline: middle; font-size: 10.2px;" transform="translate(5,139.5)" y="0" x="0" id="text-entity-DatedMoneySpecification-c371c16b-2a04-53a0-a5bf-fd5b0d1670e1-attr-6-type" class="er entityLabel">stringList</text><rect height="21" width="113.7734375" y="129" x="69.3671875" class="er attributeBoxEven"/><text style="dominant-baseline: middle; font-size: 10.2px;" transform="translate(74.3671875,139.5)" y="0" x="0" id="text-entity-DatedMoneySpecification-c371c16b-2a04-53a0-a5bf-fd5b0d1670e1-attr-6-name" class="er entityLabel">identifier</text><rect height="21" width="69.3671875" y="150" x="0" class="er attributeBoxOdd"/><text style="dominant-baseline: middle; font-size: 10.2px;" transform="translate(5,160.5)" y="0" x="0" id="text-entity-DatedMoneySpecification-c371c16b-2a04-53a0-a5bf-fd5b0d1670e1-attr-7-type" class="er entityLabel">stringList</text><rect height="21" width="113.7734375" y="150" x="69.3671875" class="er attributeBoxOdd"/><text style="dominant-baseline: middle; font-size: 10.2px;" transform="translate(74.3671875,160.5)" y="0" x="0" id="text-entity-DatedMoneySpecification-c371c16b-2a04-53a0-a5bf-fd5b0d1670e1-attr-7-name" class="er entityLabel">image</text><rect height="21" width="69.3671875" y="171" x="0" class="er attributeBoxEven"/><text style="dominant-baseline: middle; font-size: 10.2px;" transform="translate(5,181.5)" y="0" x="0" id="text-entity-DatedMoneySpecification-c371c16b-2a04-53a0-a5bf-fd5b0d1670e1-attr-8-type" class="er entityLabel">stringList</text><rect height="21" width="113.7734375" y="171" x="69.3671875" class="er attributeBoxEven"/><text style="dominant-baseline: middle; font-size: 10.2px;" transform="translate(74.3671875,181.5)" y="0" x="0" id="text-entity-DatedMoneySpecification-c371c16b-2a04-53a0-a5bf-fd5b0d1670e1-attr-8-name" class="er entityLabel">mainEntityOfPage</text><rect height="21" width="69.3671875" y="192" x="0" class="er attributeBoxOdd"/><text style="dominant-baseline: middle; font-size: 10.2px;" transform="translate(5,202.5)" y="0" x="0" id="text-entity-DatedMoneySpecification-c371c16b-2a04-53a0-a5bf-fd5b0d1670e1-attr-9-type" class="er entityLabel">stringList</text><rect height="21" width="113.7734375" y="192" x="69.3671875" class="er attributeBoxOdd"/><text style="dominant-baseline: middle; font-size: 10.2px;" transform="translate(74.3671875,202.5)" y="0" x="0" id="text-entity-DatedMoneySpecification-c371c16b-2a04-53a0-a5bf-fd5b0d1670e1-attr-9-name" class="er entityLabel">subjectOf</text></g><g transform="translate(20,333 )" id="entity-Text-426c5d39-acfc-5487-a6d9-ede67887190e"><rect height="75" width="100" y="0" x="0" class="er entityBox"/><text style="dominant-baseline: middle; text-anchor: middle; font-size: 12px;" transform="translate(50,37.5)" y="0" x="0" id="text-entity-Text-426c5d39-acfc-5487-a6d9-ede67887190e" class="er entityLabel">Text</text></g><g transform="translate(320,333 )" id="entity-URL-07f78d3e-fd74-5925-b39b-26c1cc2d6b7c"><rect height="75" width="100" y="0" x="0" class="er entityBox"/><text style="dominant-baseline: middle; text-anchor: middle; font-size: 12px;" transform="translate(50,37.5)" y="0" x="0" id="text-entity-URL-07f78d3e-fd74-5925-b39b-26c1cc2d6b7c" class="er entityLabel">URL</text></g><g transform="translate(520,333 )" id="entity-Action-6cd87d9a-a078-546e-a35b-bee54f477b31"><rect height="75" width="100" y="0" x="0" class="er entityBox"/><text style="dominant-baseline: middle; text-anchor: middle; font-size: 12px;" transform="translate(50,37.5)" y="0" x="0" id="text-entity-Action-6cd87d9a-a078-546e-a35b-bee54f477b31" class="er entityLabel">Action</text></g><rect height="14" width="52.296875" y="236.300048828125" x="-20.40705919265747" class="er relationshipLabelBox"/><text style="text-anchor: middle; dominant-baseline: middle; font-size: 12px;" y="243.300048828125" x="5.741378307342529" id="rel1" class="er relationshipLabel">currency</text><rect height="14" width="89.953125" y="248.01971435546875" x="15.785877227783203" class="er relationshipLabelBox"/><text style="text-anchor: middle; dominant-baseline: middle; font-size: 12px;" y="255.01971435546875" x="60.7624397277832" id="rel2" class="er relationshipLabel">alternateName</text><rect height="14" width="161.390625" y="275.5015563964844" x="40.16986083984375" class="er relationshipLabelBox"/><text style="text-anchor: middle; dominant-baseline: middle; font-size: 12px;" y="282.5015563964844" x="120.86517333984375" id="rel3" class="er relationshipLabel">disambiguatingDescription</text><rect height="14" width="34.03125" y="292.4764709472656" x="169.3392333984375" class="er relationshipLabelBox"/><text style="text-anchor: middle; dominant-baseline: middle; font-size: 12px;" y="299.4764709472656" x="186.3548583984375" id="rel4" class="er relationshipLabel">name</text><rect height="14" width="47.140625" y="275.5015563964844" x="295.56451416015625" class="er relationshipLabelBox"/><text style="text-anchor: middle; dominant-baseline: middle; font-size: 12px;" y="282.5015563964844" x="319.13482666015625" id="rel5" class="er relationshipLabel">sameAs</text><rect height="14" width="90.96875" y="226.88365173339844" x="411.0091247558594" class="er relationshipLabelBox"/><text style="text-anchor: middle; dominant-baseline: middle; font-size: 12px;" y="233.88365173339844" x="456.4934997558594" id="rel6" class="er relationshipLabel">potentialAction</text><rect height="14" width="15.875" y="248.01971435546875" x="371.300048828125" class="er relationshipLabelBox"/><text style="text-anchor: middle; dominant-baseline: middle; font-size: 12px;" y="255.01971435546875" x="379.237548828125" id="rel7" class="er relationshipLabel">url</text></svg>