<svg aria-roledescription="er" role="graphics-document document" viewBox="-168.18258666992188 0 3844.6943359375 764" style="max-width: 3844.69px; background-color: white;" xmlns:xlink="http://www.w3.org/1999/xlink" xmlns="http://www.w3.org/2000/svg" width="100%" id="my-svg"><style>#my-svg{font-family:"trebuchet ms",verdana,arial,sans-serif;font-size:16px;fill:#333;}#my-svg .error-icon{fill:#552222;}#my-svg .error-text{fill:#552222;stroke:#552222;}#my-svg .edge-thickness-normal{stroke-width:1px;}#my-svg .edge-thickness-thick{stroke-width:3.5px;}#my-svg .edge-pattern-solid{stroke-dasharray:0;}#my-svg .edge-thickness-invisible{stroke-width:0;fill:none;}#my-svg .edge-pattern-dashed{stroke-dasharray:3;}#my-svg .edge-pattern-dotted{stroke-dasharray:2;}#my-svg .marker{fill:#333333;stroke:#333333;}#my-svg .marker.cross{stroke:#333333;}#my-svg svg{font-family:"trebuchet ms",verdana,arial,sans-serif;font-size:16px;}#my-svg p{margin:0;}#my-svg .entityBox{fill:#ECECFF;stroke:#9370DB;}#my-svg .attributeBoxOdd{fill:#ffffff;stroke:#9370DB;}#my-svg .attributeBoxEven{fill:#f2f2f2;stroke:#9370DB;}#my-svg .relationshipLabelBox{fill:hsl(80, 100%, 96.2745098039%);opacity:0.7;background-color:hsl(80, 100%, 96.2745098039%);}#my-svg .relationshipLabelBox rect{opacity:0.5;}#my-svg .relationshipLine{stroke:#333333;}#my-svg .entityTitleText{text-anchor:middle;font-size:18px;fill:#333;}#my-svg #MD_PARENT_START{fill:#f5f5f5!important;stroke:#333333!important;stroke-width:1;}#my-svg #MD_PARENT_END{fill:#f5f5f5!important;stroke:#333333!important;stroke-width:1;}#my-svg :root{--mermaid-font-family:"trebuchet ms",verdana,arial,sans-serif;}</style><g/><defs><marker orient="auto" markerHeight="240" markerWidth="190" refY="7" refX="0" id="MD_PARENT_START"><path d="M 18,7 L9,13 L1,7 L9,1 Z"/></marker></defs><defs><marker orient="auto" markerHeight="28" markerWidth="20" refY="7" refX="19" id="MD_PARENT_END"><path d="M 18,7 L9,13 L1,7 L9,1 Z"/></marker></defs><defs><marker orient="auto" markerHeight="18" markerWidth="18" refY="9" refX="0" id="ONLY_ONE_START"><path d="M9,0 L9,18 M15,0 L15,18" fill="none" stroke="gray"/></marker></defs><defs><marker orient="auto" markerHeight="18" markerWidth="18" refY="9" refX="18" id="ONLY_ONE_END"><path d="M3,0 L3,18 M9,0 L9,18" fill="none" stroke="gray"/></marker></defs><defs><marker orient="auto" markerHeight="18" markerWidth="30" refY="9" refX="0" id="ZERO_OR_ONE_START"><circle r="6" cy="9" cx="21" fill="white" stroke="gray"/><path d="M9,0 L9,18" fill="none" stroke="gray"/></marker></defs><defs><marker orient="auto" markerHeight="18" markerWidth="30" refY="9" refX="30" id="ZERO_OR_ONE_END"><circle r="6" cy="9" cx="9" fill="white" stroke="gray"/><path d="M21,0 L21,18" fill="none" stroke="gray"/></marker></defs><defs><marker orient="auto" markerHeight="36" markerWidth="45" refY="18" refX="18" id="ONE_OR_MORE_START"><path d="M0,18 Q 18,0 36,18 Q 18,36 0,18 M42,9 L42,27" fill="none" stroke="gray"/></marker></defs><defs><marker orient="auto" markerHeight="36" markerWidth="45" refY="18" refX="27" id="ONE_OR_MORE_END"><path d="M3,9 L3,27 M9,18 Q27,0 45,18 Q27,36 9,18" fill="none" stroke="gray"/></marker></defs><defs><marker orient="auto" markerHeight="36" markerWidth="57" refY="18" refX="18" id="ZERO_OR_MORE_START"><circle r="6" cy="18" cx="48" fill="white" stroke="gray"/><path d="M0,18 Q18,0 36,18 Q18,36 0,18" fill="none" stroke="gray"/></marker></defs><defs><marker orient="auto" markerHeight="36" markerWidth="57" refY="18" refX="39" id="ZERO_OR_MORE_END"><circle r="6" cy="18" cx="9" fill="white" stroke="gray"/><path d="M21,18 Q39,0 57,18 Q39,36 21,18" fill="none" stroke="gray"/></marker></defs><path style="stroke: gray; fill: none;" marker-start="url(#ONLY_ONE_START)" marker-end="url(#ZERO_OR_MORE_END)" d="M1335.517,309.435L1049.597,361.029C763.678,412.623,191.839,515.812,-27.414,580.369C-246.667,644.926,-113.333,670.852,-46.667,683.815L20,696.778" class="er relationshipLine"/><path style="stroke: gray; fill: none;" marker-start="url(#ONLY_ONE_START)" marker-end="url(#ZERO_OR_MORE_END)" d="M1335.517,310.314L1066.264,361.762C797.011,413.21,258.506,516.105,39.253,580.052C-180,644,-80,669,-30,681.5L20,694" class="er relationshipLine"/><path style="stroke: gray; fill: none;" marker-start="url(#ONLY_ONE_START)" marker-end="url(#ZERO_OR_MORE_END)" d="M1335.517,328.144L1216.264,376.62C1097.011,425.096,858.506,522.048,772.586,582.191C686.667,642.333,753.333,665.667,786.667,677.333L820,689" class="er relationshipLine"/><path style="stroke: gray; fill: none;" marker-start="url(#ONLY_ONE_START)" marker-end="url(#ZERO_OR_MORE_END)" d="M1335.517,429.95L1316.264,461.458C1297.011,492.966,1258.506,555.983,1239.253,595.825C1220,635.667,1220,652.333,1220,660.667L1220,669" class="er relationshipLine"/><path style="stroke: gray; fill: none;" marker-start="url(#ONLY_ONE_START)" marker-end="url(#ZERO_OR_MORE_END)" d="M1438.762,569L1439.383,577.333C1440.005,585.667,1441.249,602.333,1441.87,619C1442.492,635.667,1442.492,652.333,1442.492,660.667L1442.492,669" class="er relationshipLine"/><path style="stroke: gray; fill: none;" marker-start="url(#ONLY_ONE_START)" marker-end="url(#ZERO_OR_MORE_END)" d="M1501.046,386.661L1535.821,425.385C1570.596,464.108,1640.146,541.554,1674.92,588.61C1709.695,635.667,1709.695,652.333,1709.695,660.667L1709.695,669" class="er relationshipLine"/><path style="stroke: gray; fill: none;" marker-start="url(#ONLY_ONE_START)" marker-end="url(#ZERO_OR_MORE_END)" d="M1335.517,311.304L1082.931,362.586C830.344,413.869,325.172,516.435,105.919,579.384C-113.333,642.333,-46.667,665.667,-13.333,677.333L20,689" class="er relationshipLine"/><path style="stroke: gray; fill: none;" marker-start="url(#ONLY_ONE_START)" marker-end="url(#ZERO_OR_MORE_END)" d="M1501.046,358.874L1556.786,402.229C1612.525,445.583,1724.005,532.291,1792.376,584.432C1860.747,636.573,1886.01,654.146,1898.642,662.933L1911.273,671.72" class="er relationshipLine"/><path style="stroke: gray; fill: none;" marker-start="url(#ONLY_ONE_START)" marker-end="url(#ZERO_OR_MORE_END)" d="M1501.046,343.961L1577.75,389.801C1654.455,435.641,1807.864,527.32,1884.569,581.494C1961.273,635.667,1961.273,652.333,1961.273,660.667L1961.273,669" class="er relationshipLine"/><path style="stroke: gray; fill: none;" marker-start="url(#ONLY_ONE_START)" marker-end="url(#ZERO_OR_MORE_END)" d="M1501.046,336.269L1594.417,383.391C1687.788,430.513,1874.531,524.756,1958.378,580.211C2042.226,635.667,2023.178,652.333,2013.654,660.667L2004.131,669" class="er relationshipLine"/><path style="stroke: gray; fill: none;" marker-start="url(#ONLY_ONE_START)" marker-end="url(#ZERO_OR_MORE_END)" d="M1501.046,330.647L1611.084,378.706C1721.122,426.765,1941.198,522.882,2055.997,579.275C2170.797,635.667,2180.321,652.333,2185.083,660.667L2189.845,669" class="er relationshipLine"/><path style="stroke: gray; fill: none;" marker-start="url(#ONLY_ONE_START)" marker-end="url(#ZERO_OR_MORE_END)" d="M1501.046,326.329L1627.885,375.107C1754.725,423.886,2008.403,521.443,2130.404,578.555C2252.404,635.667,2242.726,652.333,2237.887,660.667L2233.049,669" class="er relationshipLine"/><path style="stroke: gray; fill: none;" marker-start="url(#ONLY_ONE_START)" marker-end="url(#ZERO_OR_MORE_END)" d="M1335.517,312.425L1099.597,363.521C863.678,414.617,391.839,516.808,172.586,577.626C-46.667,638.444,-13.333,657.889,3.333,667.611L20,677.333" class="er relationshipLine"/><path style="stroke: gray; fill: none;" marker-start="url(#ONLY_ONE_START)" marker-end="url(#ZERO_OR_MORE_END)" d="M1501.046,321.503L1653.02,371.086C1804.994,420.668,2108.942,519.834,2260.917,577.75C2412.891,635.667,2412.891,652.333,2412.891,660.667L2412.891,669" class="er relationshipLine"/><path style="stroke: gray; fill: none;" marker-start="url(#ONLY_ONE_START)" marker-end="url(#ZERO_OR_MORE_END)" d="M1501.046,319.018L1669.821,369.015C1838.597,419.012,2176.148,519.006,2369.924,579.94C2563.699,640.875,2613.699,662.75,2638.699,673.688L2663.699,684.625" class="er relationshipLine"/><path style="stroke: gray; fill: none;" marker-start="url(#ONLY_ONE_START)" marker-end="url(#ZERO_OR_MORE_END)" d="M1501.046,316.967L1686.488,367.306C1871.93,417.644,2242.815,518.322,2437.781,576.994C2632.747,635.667,2651.794,652.333,2661.318,660.667L2670.842,669" class="er relationshipLine"/><path style="stroke: gray; fill: none;" marker-start="url(#ONLY_ONE_START)" marker-end="url(#ZERO_OR_MORE_END)" d="M1335.517,313.707L1116.264,364.589C897.011,415.471,458.506,517.236,244.015,576.451C29.524,635.667,39.048,652.333,43.81,660.667L48.571,669" class="er relationshipLine"/><path style="stroke: gray; fill: none;" marker-start="url(#ONLY_ONE_START)" marker-end="url(#ZERO_OR_MORE_END)" d="M1335.517,332.962L1232.931,380.635C1130.344,428.308,925.172,523.654,839.253,581.049C753.333,638.444,786.667,657.889,803.333,667.611L820,677.333" class="er relationshipLine"/><path style="stroke: gray; fill: none;" marker-start="url(#ONLY_ONE_START)" marker-end="url(#ZERO_OR_MORE_END)" d="M1335.517,339.39L1249.597,385.992C1163.678,432.594,991.839,525.797,910.681,580.732C829.524,635.667,839.048,652.333,843.81,660.667L848.571,669" class="er relationshipLine"/><path style="stroke: gray; fill: none;" marker-start="url(#ONLY_ONE_START)" marker-end="url(#ZERO_OR_MORE_END)" d="M1501.046,312.46L1736.488,363.55C1971.93,414.64,2442.815,516.82,2678.257,576.243C2913.699,635.667,2913.699,652.333,2913.699,660.667L2913.699,669" class="er relationshipLine"/><path style="stroke: gray; fill: none;" marker-start="url(#ONLY_ONE_START)" marker-end="url(#ZERO_OR_MORE_END)" d="M1501.046,310.595L1765.355,361.996C2029.665,413.397,2558.284,516.198,2829.565,575.933C3100.846,635.667,3114.789,652.333,3121.761,660.667L3128.733,669" class="er relationshipLine"/><path style="stroke: gray; fill: none;" marker-start="url(#ONLY_ONE_START)" marker-end="url(#ZERO_OR_MORE_END)" d="M1501.046,315.232L1703.155,365.86C1905.264,416.488,2309.481,517.744,2511.59,576.705C2713.699,635.667,2713.699,652.333,2713.699,660.667L2713.699,669" class="er relationshipLine"/><path style="stroke: gray; fill: none;" marker-start="url(#ONLY_ONE_START)" marker-end="url(#ZERO_OR_MORE_END)" d="M1501.046,308.524L1806.423,360.27C2111.8,412.016,2722.554,515.508,3034.903,575.587C3347.252,635.667,3361.195,652.333,3368.167,660.667L3375.139,669" class="er relationshipLine"/><path style="stroke: gray; fill: none;" marker-start="url(#ONLY_ONE_START)" marker-end="url(#ZERO_OR_MORE_END)" d="M1501.046,307.677L1826.957,359.564C2152.868,411.451,2804.69,515.226,3125.839,575.446C3446.988,635.667,3437.464,652.333,3432.702,660.667L3427.94,669" class="er relationshipLine"/><path style="stroke: gray; fill: none;" marker-start="url(#ONLY_ONE_START)" marker-end="url(#ZERO_OR_MORE_END)" d="M1335.517,315.187L1132.931,365.822C930.344,416.458,525.172,517.729,317.824,576.698C110.476,635.667,100.952,652.333,96.19,660.667L91.429,669" class="er relationshipLine"/><path style="stroke: gray; fill: none;" marker-start="url(#ONLY_ONE_START)" marker-end="url(#ZERO_OR_MORE_END)" d="M1501.046,313.747L1719.821,364.622C1938.597,415.498,2376.148,517.249,2585.4,576.458C2794.652,635.667,2775.604,652.333,2766.08,660.667L2756.556,669" class="er relationshipLine"/><path style="stroke: gray; fill: none;" marker-start="url(#ONLY_ONE_START)" marker-end="url(#ZERO_OR_MORE_END)" d="M1501.046,309.297L1789.756,360.914C2078.467,412.531,2655.888,515.766,2937.626,575.716C3219.365,635.667,3205.422,652.333,3198.45,660.667L3191.478,669" class="er relationshipLine"/><path style="stroke: gray; fill: none;" marker-start="url(#ONLY_ONE_START)" marker-end="url(#ZERO_OR_MORE_END)" d="M1335.517,316.913L1149.597,367.261C963.678,417.609,591.839,518.304,389.253,578.374C186.667,638.444,153.333,657.889,136.667,667.611L120,677.333" class="er relationshipLine"/><path style="stroke: gray; fill: none;" marker-start="url(#ONLY_ONE_START)" marker-end="url(#ZERO_OR_MORE_END)" d="M1335.517,348.4L1266.264,393.5C1197.011,438.6,1058.506,528.8,984.491,582.233C910.476,635.667,900.952,652.333,896.19,660.667L891.429,669" class="er relationshipLine"/><path style="stroke: gray; fill: none;" marker-start="url(#ONLY_ONE_START)" marker-end="url(#ZERO_OR_MORE_END)" d="M1335.517,318.954L1166.264,368.961C997.011,418.969,658.506,518.985,455.919,580.659C253.333,642.333,186.667,665.667,153.333,677.333L120,689" class="er relationshipLine"/><path style="stroke: gray; fill: none;" marker-start="url(#ONLY_ONE_START)" marker-end="url(#ZERO_OR_MORE_END)" d="M1335.517,321.403L1182.931,371.003C1030.344,420.602,725.172,519.801,522.586,581.901C320,644,220,669,170,681.5L120,694" class="er relationshipLine"/><path style="stroke: gray; fill: none;" marker-start="url(#ONLY_ONE_START)" marker-end="url(#ZERO_OR_MORE_END)" d="M1335.517,324.398L1199.597,373.499C1063.678,422.599,791.839,520.799,589.253,582.863C386.667,644.926,253.333,670.852,186.667,683.815L120,696.778" class="er relationshipLine"/><path style="stroke: gray; fill: none;" marker-start="url(#ONLY_ONE_START)" marker-end="url(#ZERO_OR_MORE_END)" d="M1335.517,361.933L1282.931,404.777C1230.344,447.622,1125.172,533.311,1055.919,585.878C986.667,638.444,953.333,657.889,936.667,667.611L920,677.333" class="er relationshipLine"/><path style="stroke: gray; fill: none;" marker-start="url(#ONLY_ONE_START)" marker-end="url(#ZERO_OR_MORE_END)" d="M1501.046,306.773L1851.957,358.811C2202.868,410.849,2904.69,514.924,3255.601,575.296C3606.512,635.667,3606.512,652.333,3606.512,660.667L3606.512,669" class="er relationshipLine"/><path style="stroke: gray; fill: none;" marker-start="url(#ONLY_ONE_START)" marker-end="url(#ZERO_OR_MORE_END)" d="M1335.517,384.54L1299.597,423.616C1263.678,462.693,1191.839,540.847,1122.586,591.59C1053.333,642.333,986.667,665.667,953.333,677.333L920,689" class="er relationshipLine"/><g transform="translate(1335.5166015625,20 )" id="entity-DefenceEstablishment-7b3806d8-dadc-53d7-ae65-ce2ad89d640a"><rect height="549" width="165.529296875" y="0" x="0" class="er entityBox"/><text style="dominant-baseline: middle; text-anchor: middle; font-size: 12px;" transform="translate(82.7646484375,12)" y="0" x="0" id="text-entity-DefenceEstablishment-7b3806d8-dadc-53d7-ae65-ce2ad89d640a" class="er entityLabel">DefenceEstablishment</text><rect height="21" width="60.5615234375" y="24" x="0" class="er attributeBoxOdd"/><text style="dominant-baseline: middle; font-size: 10.2px;" transform="translate(5,34.5)" y="0" x="0" id="text-entity-DefenceEstablishment-7b3806d8-dadc-53d7-ae65-ce2ad89d640a-attr-1-type" class="er entityLabel">stringList</text><rect height="21" width="104.9677734375" y="24" x="60.5615234375" class="er attributeBoxOdd"/><text style="dominant-baseline: middle; font-size: 10.2px;" transform="translate(65.5615234375,34.5)" y="0" x="0" id="text-entity-DefenceEstablishment-7b3806d8-dadc-53d7-ae65-ce2ad89d640a-attr-1-name" class="er entityLabel">logo</text><rect height="21" width="60.5615234375" y="45" x="0" class="er attributeBoxEven"/><text style="dominant-baseline: middle; font-size: 10.2px;" transform="translate(5,55.5)" y="0" x="0" id="text-entity-DefenceEstablishment-7b3806d8-dadc-53d7-ae65-ce2ad89d640a-attr-2-type" class="er entityLabel">stringList</text><rect height="21" width="104.9677734375" y="45" x="60.5615234375" class="er attributeBoxEven"/><text style="dominant-baseline: middle; font-size: 10.2px;" transform="translate(65.5615234375,55.5)" y="0" x="0" id="text-entity-DefenceEstablishment-7b3806d8-dadc-53d7-ae65-ce2ad89d640a-attr-2-name" class="er entityLabel">photo</text><rect height="21" width="60.5615234375" y="66" x="0" class="er attributeBoxOdd"/><text style="dominant-baseline: middle; font-size: 10.2px;" transform="translate(5,76.5)" y="0" x="0" id="text-entity-DefenceEstablishment-7b3806d8-dadc-53d7-ae65-ce2ad89d640a-attr-3-type" class="er entityLabel">stringList</text><rect height="21" width="104.9677734375" y="66" x="60.5615234375" class="er attributeBoxOdd"/><text style="dominant-baseline: middle; font-size: 10.2px;" transform="translate(65.5615234375,76.5)" y="0" x="0" id="text-entity-DefenceEstablishment-7b3806d8-dadc-53d7-ae65-ce2ad89d640a-attr-3-name" class="er entityLabel">address</text><rect height="21" width="60.5615234375" y="87" x="0" class="er attributeBoxEven"/><text style="dominant-baseline: middle; font-size: 10.2px;" transform="translate(5,97.5)" y="0" x="0" id="text-entity-DefenceEstablishment-7b3806d8-dadc-53d7-ae65-ce2ad89d640a-attr-4-type" class="er entityLabel">stringList</text><rect height="21" width="104.9677734375" y="87" x="60.5615234375" class="er attributeBoxEven"/><text style="dominant-baseline: middle; font-size: 10.2px;" transform="translate(65.5615234375,97.5)" y="0" x="0" id="text-entity-DefenceEstablishment-7b3806d8-dadc-53d7-ae65-ce2ad89d640a-attr-4-name" class="er entityLabel">geo</text><rect height="21" width="60.5615234375" y="108" x="0" class="er attributeBoxOdd"/><text style="dominant-baseline: middle; font-size: 10.2px;" transform="translate(5,118.5)" y="0" x="0" id="text-entity-DefenceEstablishment-7b3806d8-dadc-53d7-ae65-ce2ad89d640a-attr-5-type" class="er entityLabel">stringList</text><rect height="21" width="104.9677734375" y="108" x="60.5615234375" class="er attributeBoxOdd"/><text style="dominant-baseline: middle; font-size: 10.2px;" transform="translate(65.5615234375,118.5)" y="0" x="0" id="text-entity-DefenceEstablishment-7b3806d8-dadc-53d7-ae65-ce2ad89d640a-attr-5-name" class="er entityLabel">geoContains</text><rect height="21" width="60.5615234375" y="129" x="0" class="er attributeBoxEven"/><text style="dominant-baseline: middle; font-size: 10.2px;" transform="translate(5,139.5)" y="0" x="0" id="text-entity-DefenceEstablishment-7b3806d8-dadc-53d7-ae65-ce2ad89d640a-attr-6-type" class="er entityLabel">stringList</text><rect height="21" width="104.9677734375" y="129" x="60.5615234375" class="er attributeBoxEven"/><text style="dominant-baseline: middle; font-size: 10.2px;" transform="translate(65.5615234375,139.5)" y="0" x="0" id="text-entity-DefenceEstablishment-7b3806d8-dadc-53d7-ae65-ce2ad89d640a-attr-6-name" class="er entityLabel">geoCoveredBy</text><rect height="21" width="60.5615234375" y="150" x="0" class="er attributeBoxOdd"/><text style="dominant-baseline: middle; font-size: 10.2px;" transform="translate(5,160.5)" y="0" x="0" id="text-entity-DefenceEstablishment-7b3806d8-dadc-53d7-ae65-ce2ad89d640a-attr-7-type" class="er entityLabel">stringList</text><rect height="21" width="104.9677734375" y="150" x="60.5615234375" class="er attributeBoxOdd"/><text style="dominant-baseline: middle; font-size: 10.2px;" transform="translate(65.5615234375,160.5)" y="0" x="0" id="text-entity-DefenceEstablishment-7b3806d8-dadc-53d7-ae65-ce2ad89d640a-attr-7-name" class="er entityLabel">geoCovers</text><rect height="21" width="60.5615234375" y="171" x="0" class="er attributeBoxEven"/><text style="dominant-baseline: middle; font-size: 10.2px;" transform="translate(5,181.5)" y="0" x="0" id="text-entity-DefenceEstablishment-7b3806d8-dadc-53d7-ae65-ce2ad89d640a-attr-8-type" class="er entityLabel">stringList</text><rect height="21" width="104.9677734375" y="171" x="60.5615234375" class="er attributeBoxEven"/><text style="dominant-baseline: middle; font-size: 10.2px;" transform="translate(65.5615234375,181.5)" y="0" x="0" id="text-entity-DefenceEstablishment-7b3806d8-dadc-53d7-ae65-ce2ad89d640a-attr-8-name" class="er entityLabel">geoCrosses</text><rect height="21" width="60.5615234375" y="192" x="0" class="er attributeBoxOdd"/><text style="dominant-baseline: middle; font-size: 10.2px;" transform="translate(5,202.5)" y="0" x="0" id="text-entity-DefenceEstablishment-7b3806d8-dadc-53d7-ae65-ce2ad89d640a-attr-9-type" class="er entityLabel">stringList</text><rect height="21" width="104.9677734375" y="192" x="60.5615234375" class="er attributeBoxOdd"/><text style="dominant-baseline: middle; font-size: 10.2px;" transform="translate(65.5615234375,202.5)" y="0" x="0" id="text-entity-DefenceEstablishment-7b3806d8-dadc-53d7-ae65-ce2ad89d640a-attr-9-name" class="er entityLabel">geoDisjoint</text><rect height="21" width="60.5615234375" y="213" x="0" class="er attributeBoxEven"/><text style="dominant-baseline: middle; font-size: 10.2px;" transform="translate(5,223.5)" y="0" x="0" id="text-entity-DefenceEstablishment-7b3806d8-dadc-53d7-ae65-ce2ad89d640a-attr-10-type" class="er entityLabel">stringList</text><rect height="21" width="104.9677734375" y="213" x="60.5615234375" class="er attributeBoxEven"/><text style="dominant-baseline: middle; font-size: 10.2px;" transform="translate(65.5615234375,223.5)" y="0" x="0" id="text-entity-DefenceEstablishment-7b3806d8-dadc-53d7-ae65-ce2ad89d640a-attr-10-name" class="er entityLabel">geoEquals</text><rect height="21" width="60.5615234375" y="234" x="0" class="er attributeBoxOdd"/><text style="dominant-baseline: middle; font-size: 10.2px;" transform="translate(5,244.5)" y="0" x="0" id="text-entity-DefenceEstablishment-7b3806d8-dadc-53d7-ae65-ce2ad89d640a-attr-11-type" class="er entityLabel">stringList</text><rect height="21" width="104.9677734375" y="234" x="60.5615234375" class="er attributeBoxOdd"/><text style="dominant-baseline: middle; font-size: 10.2px;" transform="translate(65.5615234375,244.5)" y="0" x="0" id="text-entity-DefenceEstablishment-7b3806d8-dadc-53d7-ae65-ce2ad89d640a-attr-11-name" class="er entityLabel">geoIntersects</text><rect height="21" width="60.5615234375" y="255" x="0" class="er attributeBoxEven"/><text style="dominant-baseline: middle; font-size: 10.2px;" transform="translate(5,265.5)" y="0" x="0" id="text-entity-DefenceEstablishment-7b3806d8-dadc-53d7-ae65-ce2ad89d640a-attr-12-type" class="er entityLabel">stringList</text><rect height="21" width="104.9677734375" y="255" x="60.5615234375" class="er attributeBoxEven"/><text style="dominant-baseline: middle; font-size: 10.2px;" transform="translate(65.5615234375,265.5)" y="0" x="0" id="text-entity-DefenceEstablishment-7b3806d8-dadc-53d7-ae65-ce2ad89d640a-attr-12-name" class="er entityLabel">geoOverlaps</text><rect height="21" width="60.5615234375" y="276" x="0" class="er attributeBoxOdd"/><text style="dominant-baseline: middle; font-size: 10.2px;" transform="translate(5,286.5)" y="0" x="0" id="text-entity-DefenceEstablishment-7b3806d8-dadc-53d7-ae65-ce2ad89d640a-attr-13-type" class="er entityLabel">stringList</text><rect height="21" width="104.9677734375" y="276" x="60.5615234375" class="er attributeBoxOdd"/><text style="dominant-baseline: middle; font-size: 10.2px;" transform="translate(65.5615234375,286.5)" y="0" x="0" id="text-entity-DefenceEstablishment-7b3806d8-dadc-53d7-ae65-ce2ad89d640a-attr-13-name" class="er entityLabel">geoTouches</text><rect height="21" width="60.5615234375" y="297" x="0" class="er attributeBoxEven"/><text style="dominant-baseline: middle; font-size: 10.2px;" transform="translate(5,307.5)" y="0" x="0" id="text-entity-DefenceEstablishment-7b3806d8-dadc-53d7-ae65-ce2ad89d640a-attr-14-type" class="er entityLabel">stringList</text><rect height="21" width="104.9677734375" y="297" x="60.5615234375" class="er attributeBoxEven"/><text style="dominant-baseline: middle; font-size: 10.2px;" transform="translate(65.5615234375,307.5)" y="0" x="0" id="text-entity-DefenceEstablishment-7b3806d8-dadc-53d7-ae65-ce2ad89d640a-attr-14-name" class="er entityLabel">geoWithin</text><rect height="21" width="60.5615234375" y="318" x="0" class="er attributeBoxOdd"/><text style="dominant-baseline: middle; font-size: 10.2px;" transform="translate(5,328.5)" y="0" x="0" id="text-entity-DefenceEstablishment-7b3806d8-dadc-53d7-ae65-ce2ad89d640a-attr-15-type" class="er entityLabel">stringList</text><rect height="21" width="104.9677734375" y="318" x="60.5615234375" class="er attributeBoxOdd"/><text style="dominant-baseline: middle; font-size: 10.2px;" transform="translate(65.5615234375,328.5)" y="0" x="0" id="text-entity-DefenceEstablishment-7b3806d8-dadc-53d7-ae65-ce2ad89d640a-attr-15-name" class="er entityLabel">hasMap</text><rect height="21" width="60.5615234375" y="339" x="0" class="er attributeBoxEven"/><text style="dominant-baseline: middle; font-size: 10.2px;" transform="translate(5,349.5)" y="0" x="0" id="text-entity-DefenceEstablishment-7b3806d8-dadc-53d7-ae65-ce2ad89d640a-attr-16-type" class="er entityLabel">stringList</text><rect height="21" width="104.9677734375" y="339" x="60.5615234375" class="er attributeBoxEven"/><text style="dominant-baseline: middle; font-size: 10.2px;" transform="translate(65.5615234375,349.5)" y="0" x="0" id="text-entity-DefenceEstablishment-7b3806d8-dadc-53d7-ae65-ce2ad89d640a-attr-16-name" class="er entityLabel">keywords</text><rect height="21" width="60.5615234375" y="360" x="0" class="er attributeBoxOdd"/><text style="dominant-baseline: middle; font-size: 10.2px;" transform="translate(5,370.5)" y="0" x="0" id="text-entity-DefenceEstablishment-7b3806d8-dadc-53d7-ae65-ce2ad89d640a-attr-17-type" class="er entityLabel">stringList</text><rect height="21" width="104.9677734375" y="360" x="60.5615234375" class="er attributeBoxOdd"/><text style="dominant-baseline: middle; font-size: 10.2px;" transform="translate(65.5615234375,370.5)" y="0" x="0" id="text-entity-DefenceEstablishment-7b3806d8-dadc-53d7-ae65-ce2ad89d640a-attr-17-name" class="er entityLabel">latitude</text><rect height="21" width="60.5615234375" y="381" x="0" class="er attributeBoxEven"/><text style="dominant-baseline: middle; font-size: 10.2px;" transform="translate(5,391.5)" y="0" x="0" id="text-entity-DefenceEstablishment-7b3806d8-dadc-53d7-ae65-ce2ad89d640a-attr-18-type" class="er entityLabel">stringList</text><rect height="21" width="104.9677734375" y="381" x="60.5615234375" class="er attributeBoxEven"/><text style="dominant-baseline: middle; font-size: 10.2px;" transform="translate(65.5615234375,391.5)" y="0" x="0" id="text-entity-DefenceEstablishment-7b3806d8-dadc-53d7-ae65-ce2ad89d640a-attr-18-name" class="er entityLabel">longitude</text><rect height="21" width="60.5615234375" y="402" x="0" class="er attributeBoxOdd"/><text style="dominant-baseline: middle; font-size: 10.2px;" transform="translate(5,412.5)" y="0" x="0" id="text-entity-DefenceEstablishment-7b3806d8-dadc-53d7-ae65-ce2ad89d640a-attr-19-type" class="er entityLabel">stringList</text><rect height="21" width="104.9677734375" y="402" x="60.5615234375" class="er attributeBoxOdd"/><text style="dominant-baseline: middle; font-size: 10.2px;" transform="translate(65.5615234375,412.5)" y="0" x="0" id="text-entity-DefenceEstablishment-7b3806d8-dadc-53d7-ae65-ce2ad89d640a-attr-19-name" class="er entityLabel">photos</text><rect height="21" width="60.5615234375" y="423" x="0" class="er attributeBoxEven"/><text style="dominant-baseline: middle; font-size: 10.2px;" transform="translate(5,433.5)" y="0" x="0" id="text-entity-DefenceEstablishment-7b3806d8-dadc-53d7-ae65-ce2ad89d640a-attr-20-type" class="er entityLabel">stringList</text><rect height="21" width="104.9677734375" y="423" x="60.5615234375" class="er attributeBoxEven"/><text style="dominant-baseline: middle; font-size: 10.2px;" transform="translate(65.5615234375,433.5)" y="0" x="0" id="text-entity-DefenceEstablishment-7b3806d8-dadc-53d7-ae65-ce2ad89d640a-attr-20-name" class="er entityLabel">additionalType</text><rect height="21" width="60.5615234375" y="444" x="0" class="er attributeBoxOdd"/><text style="dominant-baseline: middle; font-size: 10.2px;" transform="translate(5,454.5)" y="0" x="0" id="text-entity-DefenceEstablishment-7b3806d8-dadc-53d7-ae65-ce2ad89d640a-attr-21-type" class="er entityLabel">stringList</text><rect height="21" width="104.9677734375" y="444" x="60.5615234375" class="er attributeBoxOdd"/><text style="dominant-baseline: middle; font-size: 10.2px;" transform="translate(65.5615234375,454.5)" y="0" x="0" id="text-entity-DefenceEstablishment-7b3806d8-dadc-53d7-ae65-ce2ad89d640a-attr-21-name" class="er entityLabel">description</text><rect height="21" width="60.5615234375" y="465" x="0" class="er attributeBoxEven"/><text style="dominant-baseline: middle; font-size: 10.2px;" transform="translate(5,475.5)" y="0" x="0" id="text-entity-DefenceEstablishment-7b3806d8-dadc-53d7-ae65-ce2ad89d640a-attr-22-type" class="er entityLabel">stringList</text><rect height="21" width="104.9677734375" y="465" x="60.5615234375" class="er attributeBoxEven"/><text style="dominant-baseline: middle; font-size: 10.2px;" transform="translate(65.5615234375,475.5)" y="0" x="0" id="text-entity-DefenceEstablishment-7b3806d8-dadc-53d7-ae65-ce2ad89d640a-attr-22-name" class="er entityLabel">identifier</text><rect height="21" width="60.5615234375" y="486" x="0" class="er attributeBoxOdd"/><text style="dominant-baseline: middle; font-size: 10.2px;" transform="translate(5,496.5)" y="0" x="0" id="text-entity-DefenceEstablishment-7b3806d8-dadc-53d7-ae65-ce2ad89d640a-attr-23-type" class="er entityLabel">stringList</text><rect height="21" width="104.9677734375" y="486" x="60.5615234375" class="er attributeBoxOdd"/><text style="dominant-baseline: middle; font-size: 10.2px;" transform="translate(65.5615234375,496.5)" y="0" x="0" id="text-entity-DefenceEstablishment-7b3806d8-dadc-53d7-ae65-ce2ad89d640a-attr-23-name" class="er entityLabel">image</text><rect height="21" width="60.5615234375" y="507" x="0" class="er attributeBoxEven"/><text style="dominant-baseline: middle; font-size: 10.2px;" transform="translate(5,517.5)" y="0" x="0" id="text-entity-DefenceEstablishment-7b3806d8-dadc-53d7-ae65-ce2ad89d640a-attr-24-type" class="er entityLabel">stringList</text><rect height="21" width="104.9677734375" y="507" x="60.5615234375" class="er attributeBoxEven"/><text style="dominant-baseline: middle; font-size: 10.2px;" transform="translate(65.5615234375,517.5)" y="0" x="0" id="text-entity-DefenceEstablishment-7b3806d8-dadc-53d7-ae65-ce2ad89d640a-attr-24-name" class="er entityLabel">mainEntityOfPage</text><rect height="21" width="60.5615234375" y="528" x="0" class="er attributeBoxOdd"/><text style="dominant-baseline: middle; font-size: 10.2px;" transform="translate(5,538.5)" y="0" x="0" id="text-entity-DefenceEstablishment-7b3806d8-dadc-53d7-ae65-ce2ad89d640a-attr-25-type" class="er entityLabel">stringList</text><rect height="21" width="104.9677734375" y="528" x="60.5615234375" class="er attributeBoxOdd"/><text style="dominant-baseline: middle; font-size: 10.2px;" transform="translate(65.5615234375,538.5)" y="0" x="0" id="text-entity-DefenceEstablishment-7b3806d8-dadc-53d7-ae65-ce2ad89d640a-attr-25-name" class="er entityLabel">subjectOf</text></g><g transform="translate(20,669 )" id="entity-Text-426c5d39-acfc-5487-a6d9-ede67887190e"><rect height="75" width="100" y="0" x="0" class="er entityBox"/><text style="dominant-baseline: middle; text-anchor: middle; font-size: 12px;" transform="translate(50,37.5)" y="0" x="0" id="text-entity-Text-426c5d39-acfc-5487-a6d9-ede67887190e" class="er entityLabel">Text</text></g><g transform="translate(820,669 )" id="entity-URL-07f78d3e-fd74-5925-b39b-26c1cc2d6b7c"><rect height="75" width="100" y="0" x="0" class="er entityBox"/><text style="dominant-baseline: middle; text-anchor: middle; font-size: 12px;" transform="translate(50,37.5)" y="0" x="0" id="text-entity-URL-07f78d3e-fd74-5925-b39b-26c1cc2d6b7c" class="er entityLabel">URL</text></g><g transform="translate(1163.1328125,669 )" id="entity-PropertyValue-0e208f6c-77f8-5d2e-b4a4-9a09101a021a"><rect height="75" width="113.734375" y="0" x="0" class="er entityBox"/><text style="dominant-baseline: middle; text-anchor: middle; font-size: 12px;" transform="translate(56.8671875,37.5)" y="0" x="0" id="text-entity-PropertyValue-0e208f6c-77f8-5d2e-b4a4-9a09101a021a" class="er entityLabel">PropertyValue</text></g><g transform="translate(1376.8671875,669 )" id="entity-AggregateRating-aa0a8837-178a-57ab-baa0-94ad30d90eb5"><rect height="75" width="131.25" y="0" x="0" class="er entityBox"/><text style="dominant-baseline: middle; text-anchor: middle; font-size: 12px;" transform="translate(65.625,37.5)" y="0" x="0" id="text-entity-AggregateRating-aa0a8837-178a-57ab-baa0-94ad30d90eb5" class="er entityLabel">AggregateRating</text></g><g transform="translate(1608.1171875,669 )" id="entity-LocationFeatureSpecification-dbe29f9c-e3d0-5bc9-80cd-10146568b0ab"><rect height="75" width="203.15625" y="0" x="0" class="er entityBox"/><text style="dominant-baseline: middle; text-anchor: middle; font-size: 12px;" transform="translate(101.578125,37.5)" y="0" x="0" id="text-entity-LocationFeatureSpecification-dbe29f9c-e3d0-5bc9-80cd-10146568b0ab" class="er entityLabel">LocationFeatureSpecification</text></g><g transform="translate(1911.2734375,669 )" id="entity-Place-18cedc50-4c85-52d4-b2dd-111465382dcf"><rect height="75" width="100" y="0" x="0" class="er entityBox"/><text style="dominant-baseline: middle; text-anchor: middle; font-size: 12px;" transform="translate(50,37.5)" y="0" x="0" id="text-entity-Place-18cedc50-4c85-52d4-b2dd-111465382dcf" class="er entityLabel">Place</text></g><g transform="translate(2161.2734375,669 )" id="entity-Event-5fcfcec5-0af7-59ba-bebb-bb0a822c8afa"><rect height="75" width="100" y="0" x="0" class="er entityBox"/><text style="dominant-baseline: middle; text-anchor: middle; font-size: 12px;" transform="translate(50,37.5)" y="0" x="0" id="text-entity-Event-5fcfcec5-0af7-59ba-bebb-bb0a822c8afa" class="er entityLabel">Event</text></g><g transform="translate(2361.2734375,669 )" id="entity-Certification-8b250de0-929b-5806-8c87-f8e7c928ef36"><rect height="75" width="103.234375" y="0" x="0" class="er entityBox"/><text style="dominant-baseline: middle; text-anchor: middle; font-size: 12px;" transform="translate(51.6171875,37.5)" y="0" x="0" id="text-entity-Certification-8b250de0-929b-5806-8c87-f8e7c928ef36" class="er entityLabel">Certification</text></g><g transform="translate(2663.69921875,669 )" id="entity-Boolean-5b26178e-f873-50aa-bf9a-b8300df1b991"><rect height="75" width="100" y="0" x="0" class="er entityBox"/><text style="dominant-baseline: middle; text-anchor: middle; font-size: 12px;" transform="translate(50,37.5)" y="0" x="0" id="text-entity-Boolean-5b26178e-f873-50aa-bf9a-b8300df1b991" class="er entityLabel">Boolean</text></g><g transform="translate(2863.69921875,669 )" id="entity-Integer-fc94dbf2-2dc2-55cd-ac16-6d1e48f8bef9"><rect height="75" width="100" y="0" x="0" class="er entityBox"/><text style="dominant-baseline: middle; text-anchor: middle; font-size: 12px;" transform="translate(50,37.5)" y="0" x="0" id="text-entity-Integer-fc94dbf2-2dc2-55cd-ac16-6d1e48f8bef9" class="er entityLabel">Integer</text></g><g transform="translate(3063.69921875,669 )" id="entity-OpeningHoursSpecification-677aa64f-a506-5d18-b5d1-75a0f22f6986"><rect height="75" width="192.8125" y="0" x="0" class="er entityBox"/><text style="dominant-baseline: middle; text-anchor: middle; font-size: 12px;" transform="translate(96.40625,37.5)" y="0" x="0" id="text-entity-OpeningHoursSpecification-677aa64f-a506-5d18-b5d1-75a0f22f6986" class="er entityLabel">OpeningHoursSpecification</text></g><g transform="translate(3356.51171875,669 )" id="entity-Review-77c92a79-8cff-50c0-9604-f9135763cccd"><rect height="75" width="100" y="0" x="0" class="er entityBox"/><text style="dominant-baseline: middle; text-anchor: middle; font-size: 12px;" transform="translate(50,37.5)" y="0" x="0" id="text-entity-Review-77c92a79-8cff-50c0-9604-f9135763cccd" class="er entityLabel">Review</text></g><g transform="translate(3556.51171875,669 )" id="entity-Action-6cd87d9a-a078-546e-a35b-bee54f477b31"><rect height="75" width="100" y="0" x="0" class="er entityBox"/><text style="dominant-baseline: middle; text-anchor: middle; font-size: 12px;" transform="translate(50,37.5)" y="0" x="0" id="text-entity-Action-6cd87d9a-a078-546e-a35b-bee54f477b31" class="er entityLabel">Action</text></g><rect height="14" width="83.671875" y="457.3606872558594" x="451.82623291015625" class="er relationshipLabelBox"/><text style="text-anchor: middle; dominant-baseline: middle; font-size: 12px;" y="464.3606872558594" x="493.66217041015625" id="rel1" class="er relationshipLabel">openingHours</text><rect height="14" width="135.623046875" y="456.93896484375" x="477.33868408203125" class="er relationshipLabelBox"/><text style="text-anchor: middle; dominant-baseline: middle; font-size: 12px;" y="463.93896484375" x="545.1502075195312" id="rel2" class="er relationshipLabel">globalLocationNumber</text><rect height="14" width="109.3046875" y="474.5705261230469" x="912.6038818359375" class="er relationshipLabelBox"/><text style="text-anchor: middle; dominant-baseline: middle; font-size: 12px;" y="481.5705261230469" x="967.2562255859375" id="rel3" class="er relationshipLabel">hasGS1DigitalLink</text><rect height="14" width="110.375" y="538.0281372070312" x="1211.294189453125" class="er relationshipLabelBox"/><text style="text-anchor: middle; dominant-baseline: middle; font-size: 12px;" y="545.0281372070312" x="1266.481689453125" id="rel4" class="er relationshipLabel">additionalProperty</text><rect height="14" width="100.390625" y="611.9537353515625" x="1391.6728515625" class="er relationshipLabelBox"/><text style="text-anchor: middle; dominant-baseline: middle; font-size: 12px;" y="618.9537353515625" x="1441.8681640625" id="rel5" class="er relationshipLabel">aggregateRating</text><rect height="14" width="94.53125" y="512.904052734375" x="1571.91015625" class="er relationshipLabelBox"/><text style="text-anchor: middle; dominant-baseline: middle; font-size: 12px;" y="519.904052734375" x="1619.17578125" id="rel6" class="er relationshipLabel">amenityFeature</text><rect height="14" width="72.4375" y="457.237060546875" x="556.7400512695312" class="er relationshipLabelBox"/><text style="text-anchor: middle; dominant-baseline: middle; font-size: 12px;" y="464.237060546875" x="592.9588012695312" id="rel7" class="er relationshipLabel">branchCode</text><rect height="14" width="70.6875" y="510.09393310546875" x="1669.46533203125" class="er relationshipLabelBox"/><text style="text-anchor: middle; dominant-baseline: middle; font-size: 12px;" y="517.0939331054688" x="1704.80908203125" id="rel8" class="er relationshipLabel">containedIn</text><rect height="14" width="102.59375" y="484.814208984375" x="1694.908203125" class="er relationshipLabelBox"/><text style="text-anchor: middle; dominant-baseline: middle; font-size: 12px;" y="491.814208984375" x="1746.205078125" id="rel9" class="er relationshipLabel">containedInPlace</text><rect height="14" width="82.703125" y="475.630126953125" x="1746.0765380859375" class="er relationshipLabelBox"/><text style="text-anchor: middle; dominant-baseline: middle; font-size: 12px;" y="482.630126953125" x="1787.4281005859375" id="rel10" class="er relationshipLabel">containsPlace</text><rect height="14" width="34.47265625" y="478.9162902832031" x="1836.997314453125" class="er relationshipLabelBox"/><text style="text-anchor: middle; dominant-baseline: middle; font-size: 12px;" y="485.9162902832031" x="1854.233642578125" id="rel11" class="er relationshipLabel">event</text><rect height="14" width="40.4375" y="469.7688293457031" x="1868.417724609375" class="er relationshipLabelBox"/><text style="text-anchor: middle; dominant-baseline: middle; font-size: 12px;" y="476.7688293457031" x="1888.636474609375" id="rel12" class="er relationshipLabel">events</text><rect height="14" width="66.951171875" y="458.5270080566406" x="602.5770874023438" class="er relationshipLabelBox"/><text style="text-anchor: middle; dominant-baseline: middle; font-size: 12px;" y="465.5270080566406" x="636.0526733398438" id="rel13" class="er relationshipLabel">faxNumber</text><rect height="14" width="94.453125" y="468.69647216796875" x="1922.8486328125" class="er relationshipLabelBox"/><text style="text-anchor: middle; dominant-baseline: middle; font-size: 12px;" y="475.69647216796875" x="1970.0751953125" id="rel14" class="er relationshipLabel">hasCertification</text><rect height="14" width="147.328125" y="485.8690185546875" x="2011.706787109375" class="er relationshipLabelBox"/><text style="text-anchor: middle; dominant-baseline: middle; font-size: 12px;" y="492.8690185546875" x="2085.370849609375" id="rel15" class="er relationshipLabel">hasDriveThroughService</text><rect height="14" width="116.5625" y="471.1911926269531" x="2033.34423828125" class="er relationshipLabelBox"/><text style="text-anchor: middle; dominant-baseline: middle; font-size: 12px;" y="478.1911926269531" x="2091.62548828125" id="rel16" class="er relationshipLabel">isAccessibleForFree</text><rect height="14" width="35.375" y="461.3372802734375" x="656.7363891601562" class="er relationshipLabelBox"/><text style="text-anchor: middle; dominant-baseline: middle; font-size: 12px;" y="468.3372802734375" x="674.4238891601562" id="rel17" class="er relationshipLabel">isicV4</text><rect height="14" width="26.671875" y="474.29327392578125" x="1008.23095703125" class="er relationshipLabelBox"/><text style="text-anchor: middle; dominant-baseline: middle; font-size: 12px;" y="481.29327392578125" x="1021.56689453125" id="rel18" class="er relationshipLabel">map</text><rect height="14" width="32.921875" y="479.0461120605469" x="1051.6119384765625" class="er relationshipLabelBox"/><text style="text-anchor: middle; dominant-baseline: middle; font-size: 12px;" y="486.0461120605469" x="1068.0728759765625" id="rel19" class="er relationshipLabel">maps</text><rect height="14" width="167.6875" y="462.2937927246094" x="2134.8251953125" class="er relationshipLabelBox"/><text style="text-anchor: middle; dominant-baseline: middle; font-size: 12px;" y="469.2937927246094" x="2218.6689453125" id="rel20" class="er relationshipLabel">maximumAttendeeCapacity</text><rect height="14" width="160.71875" y="464.1014099121094" x="2240.87255859375" class="er relationshipLabelBox"/><text style="text-anchor: middle; dominant-baseline: middle; font-size: 12px;" y="471.1014099121094" x="2321.23193359375" id="rel21" class="er relationshipLabel">openingHoursSpecification</text><rect height="14" width="77.1875" y="464.2331237792969" x="2080.7080078125" class="er relationshipLabelBox"/><text style="text-anchor: middle; dominant-baseline: middle; font-size: 12px;" y="471.2331237792969" x="2119.3017578125" id="rel22" class="er relationshipLabel">publicAccess</text><rect height="14" width="39.87109375" y="462.3429870605469" x="2424.2236328125" class="er relationshipLabelBox"/><text style="text-anchor: middle; dominant-baseline: middle; font-size: 12px;" y="469.3429870605469" x="2444.1591796875" id="rel23" class="er relationshipLabel">review</text><rect height="14" width="45.9375" y="457.6342468261719" x="2456.762939453125" class="er relationshipLabelBox"/><text style="text-anchor: middle; dominant-baseline: middle; font-size: 12px;" y="464.6342468261719" x="2479.731689453125" id="rel24" class="er relationshipLabel">reviews</text><rect height="14" width="39.515625" y="466.69573974609375" x="685.6986694335938" class="er relationshipLabelBox"/><text style="text-anchor: middle; dominant-baseline: middle; font-size: 12px;" y="473.69573974609375" x="705.4564819335938" id="rel25" class="er relationshipLabel">slogan</text><rect height="14" width="97.828125" y="460.0321044921875" x="2105.673095703125" class="er relationshipLabelBox"/><text style="text-anchor: middle; dominant-baseline: middle; font-size: 12px;" y="467.0321044921875" x="2154.587158203125" id="rel26" class="er relationshipLabel">smokingAllowed</text><rect height="14" width="204.6875" y="458.0227355957031" x="2263.052490234375" class="er relationshipLabelBox"/><text style="text-anchor: middle; dominant-baseline: middle; font-size: 12px;" y="465.0227355957031" x="2365.396240234375" id="rel27" class="er relationshipLabel">specialOpeningHoursSpecification</text><rect height="14" width="60.359375" y="476.67059326171875" x="692.9632568359375" class="er relationshipLabelBox"/><text style="text-anchor: middle; dominant-baseline: middle; font-size: 12px;" y="483.67059326171875" x="723.1429443359375" id="rel28" class="er relationshipLabel">telephone</text><rect height="14" width="102.0625" y="492.1966552734375" x="1054.4134521484375" class="er relationshipLabelBox"/><text style="text-anchor: middle; dominant-baseline: middle; font-size: 12px;" y="499.1966552734375" x="1105.4447021484375" id="rel29" class="er relationshipLabel">tourBookingPage</text><rect height="14" width="89.953125" y="492.3868103027344" x="681.3505249023438" class="er relationshipLabelBox"/><text style="text-anchor: middle; dominant-baseline: middle; font-size: 12px;" y="499.3868103027344" x="726.3270874023438" id="rel30" class="er relationshipLabel">alternateName</text><rect height="14" width="161.390625" y="509.82244873046875" x="649.7869262695312" class="er relationshipLabelBox"/><text style="text-anchor: middle; dominant-baseline: middle; font-size: 12px;" y="516.8224487304688" x="730.4822387695312" id="rel31" class="er relationshipLabel">disambiguatingDescription</text><rect height="14" width="34.03125" y="529.090087890625" x="718.25244140625" class="er relationshipLabelBox"/><text style="text-anchor: middle; dominant-baseline: middle; font-size: 12px;" y="536.090087890625" x="735.26806640625" id="rel32" class="er relationshipLabel">name</text><rect height="14" width="47.140625" y="519.1487426757812" x="1108.953369140625" class="er relationshipLabelBox"/><text style="text-anchor: middle; dominant-baseline: middle; font-size: 12px;" y="526.1487426757812" x="1132.523681640625" id="rel33" class="er relationshipLabel">sameAs</text><rect height="14" width="90.96875" y="458.41876220703125" x="2518.05078125" class="er relationshipLabelBox"/><text style="text-anchor: middle; dominant-baseline: middle; font-size: 12px;" y="465.41876220703125" x="2563.53515625" id="rel34" class="er relationshipLabel">potentialAction</text><rect height="14" width="15.875" y="562.5654907226562" x="1142.91015625" class="er relationshipLabelBox"/><text style="text-anchor: middle; dominant-baseline: middle; font-size: 12px;" y="569.5654907226562" x="1150.84765625" id="rel35" class="er relationshipLabel">url</text></svg>