<svg aria-roledescription="er" role="graphics-document document" viewBox="0 0 1091.41796875 701" style="max-width: 1091.42px; background-color: white;" xmlns:xlink="http://www.w3.org/1999/xlink" xmlns="http://www.w3.org/2000/svg" width="100%" id="my-svg"><style>#my-svg{font-family:"trebuchet ms",verdana,arial,sans-serif;font-size:16px;fill:#333;}#my-svg .error-icon{fill:#552222;}#my-svg .error-text{fill:#552222;stroke:#552222;}#my-svg .edge-thickness-normal{stroke-width:1px;}#my-svg .edge-thickness-thick{stroke-width:3.5px;}#my-svg .edge-pattern-solid{stroke-dasharray:0;}#my-svg .edge-thickness-invisible{stroke-width:0;fill:none;}#my-svg .edge-pattern-dashed{stroke-dasharray:3;}#my-svg .edge-pattern-dotted{stroke-dasharray:2;}#my-svg .marker{fill:#333333;stroke:#333333;}#my-svg .marker.cross{stroke:#333333;}#my-svg svg{font-family:"trebuchet ms",verdana,arial,sans-serif;font-size:16px;}#my-svg p{margin:0;}#my-svg .entityBox{fill:#ECECFF;stroke:#9370DB;}#my-svg .attributeBoxOdd{fill:#ffffff;stroke:#9370DB;}#my-svg .attributeBoxEven{fill:#f2f2f2;stroke:#9370DB;}#my-svg .relationshipLabelBox{fill:hsl(80, 100%, 96.2745098039%);opacity:0.7;background-color:hsl(80, 100%, 96.2745098039%);}#my-svg .relationshipLabelBox rect{opacity:0.5;}#my-svg .relationshipLine{stroke:#333333;}#my-svg .entityTitleText{text-anchor:middle;font-size:18px;fill:#333;}#my-svg #MD_PARENT_START{fill:#f5f5f5!important;stroke:#333333!important;stroke-width:1;}#my-svg #MD_PARENT_END{fill:#f5f5f5!important;stroke:#333333!important;stroke-width:1;}#my-svg :root{--mermaid-font-family:"trebuchet ms",verdana,arial,sans-serif;}</style><g/><defs><marker orient="auto" markerHeight="240" markerWidth="190" refY="7" refX="0" id="MD_PARENT_START"><path d="M 18,7 L9,13 L1,7 L9,1 Z"/></marker></defs><defs><marker orient="auto" markerHeight="28" markerWidth="20" refY="7" refX="19" id="MD_PARENT_END"><path d="M 18,7 L9,13 L1,7 L9,1 Z"/></marker></defs><defs><marker orient="auto" markerHeight="18" markerWidth="18" refY="9" refX="0" id="ONLY_ONE_START"><path d="M9,0 L9,18 M15,0 L15,18" fill="none" stroke="gray"/></marker></defs><defs><marker orient="auto" markerHeight="18" markerWidth="18" refY="9" refX="18" id="ONLY_ONE_END"><path d="M3,0 L3,18 M9,0 L9,18" fill="none" stroke="gray"/></marker></defs><defs><marker orient="auto" markerHeight="18" markerWidth="30" refY="9" refX="0" id="ZERO_OR_ONE_START"><circle r="6" cy="9" cx="21" fill="white" stroke="gray"/><path d="M9,0 L9,18" fill="none" stroke="gray"/></marker></defs><defs><marker orient="auto" markerHeight="18" markerWidth="30" refY="9" refX="30" id="ZERO_OR_ONE_END"><circle r="6" cy="9" cx="9" fill="white" stroke="gray"/><path d="M21,0 L21,18" fill="none" stroke="gray"/></marker></defs><defs><marker orient="auto" markerHeight="36" markerWidth="45" refY="18" refX="18" id="ONE_OR_MORE_START"><path d="M0,18 Q 18,0 36,18 Q 18,36 0,18 M42,9 L42,27" fill="none" stroke="gray"/></marker></defs><defs><marker orient="auto" markerHeight="36" markerWidth="45" refY="18" refX="27" id="ONE_OR_MORE_END"><path d="M3,9 L3,27 M9,18 Q27,0 45,18 Q27,36 9,18" fill="none" stroke="gray"/></marker></defs><defs><marker orient="auto" markerHeight="36" markerWidth="57" refY="18" refX="18" id="ZERO_OR_MORE_START"><circle r="6" cy="18" cx="48" fill="white" stroke="gray"/><path d="M0,18 Q18,0 36,18 Q18,36 0,18" fill="none" stroke="gray"/></marker></defs><defs><marker orient="auto" markerHeight="36" markerWidth="57" refY="18" refX="39" id="ZERO_OR_MORE_END"><circle r="6" cy="18" cx="9" fill="white" stroke="gray"/><path d="M21,18 Q39,0 57,18 Q39,36 21,18" fill="none" stroke="gray"/></marker></defs><path style="stroke: gray; fill: none;" marker-start="url(#ONLY_ONE_START)" marker-end="url(#ZERO_OR_MORE_END)" d="M442.545,330.616L382.523,368.18C322.501,405.744,202.458,480.872,142.436,526.769C82.414,572.667,82.414,589.333,82.414,597.667L82.414,606" class="er relationshipLine"/><path style="stroke: gray; fill: none;" marker-start="url(#ONLY_ONE_START)" marker-end="url(#ZERO_OR_MORE_END)" d="M442.545,396.592L421.058,423.16C399.572,449.728,356.598,502.864,335.112,537.765C313.625,572.667,313.625,589.333,313.625,597.667L313.625,606" class="er relationshipLine"/><path style="stroke: gray; fill: none;" marker-start="url(#ONLY_ONE_START)" marker-end="url(#ZERO_OR_MORE_END)" d="M550.586,506L550.586,514.333C550.586,522.667,550.586,539.333,550.586,556C550.586,572.667,550.586,589.333,550.586,597.667L550.586,606" class="er relationshipLine"/><path style="stroke: gray; fill: none;" marker-start="url(#ONLY_ONE_START)" marker-end="url(#ZERO_OR_MORE_END)" d="M658.627,392.473L681.37,419.728C704.113,446.982,749.598,501.491,772.341,537.079C795.084,572.667,795.084,589.333,795.084,597.667L795.084,606" class="er relationshipLine"/><path style="stroke: gray; fill: none;" marker-start="url(#ONLY_ONE_START)" marker-end="url(#ZERO_OR_MORE_END)" d="M658.627,330.234L719.092,367.862C779.557,405.489,900.488,480.745,960.953,526.706C1021.418,572.667,1021.418,589.333,1021.418,597.667L1021.418,606" class="er relationshipLine"/><g transform="translate(442.5450134277344,20 )" id="entity-DeliveryChargeSpecification-e9d96709-4acd-5d96-9643-f9053be38480"><rect height="486" width="216.08184814453125" y="0" x="0" class="er entityBox"/><text style="dominant-baseline: middle; text-anchor: middle; font-size: 12px;" transform="translate(108.04092407226562,12)" y="0" x="0" id="text-entity-DeliveryChargeSpecification-e9d96709-4acd-5d96-9643-f9053be38480" class="er entityLabel">DeliveryChargeSpecification</text><rect height="21" width="69.06622314453125" y="24" x="0" class="er attributeBoxOdd"/><text style="dominant-baseline: middle; font-size: 10.2px;" transform="translate(5,34.5)" y="0" x="0" id="text-entity-DeliveryChargeSpecification-e9d96709-4acd-5d96-9643-f9053be38480-attr-1-type" class="er entityLabel">stringList</text><rect height="21" width="147.015625" y="24" x="69.06622314453125" class="er attributeBoxOdd"/><text style="dominant-baseline: middle; font-size: 10.2px;" transform="translate(74.06622314453125,34.5)" y="0" x="0" id="text-entity-DeliveryChargeSpecification-e9d96709-4acd-5d96-9643-f9053be38480-attr-1-name" class="er entityLabel">areaServed</text><rect height="21" width="69.06622314453125" y="45" x="0" class="er attributeBoxEven"/><text style="dominant-baseline: middle; font-size: 10.2px;" transform="translate(5,55.5)" y="0" x="0" id="text-entity-DeliveryChargeSpecification-e9d96709-4acd-5d96-9643-f9053be38480-attr-2-type" class="er entityLabel">stringList</text><rect height="21" width="147.015625" y="45" x="69.06622314453125" class="er attributeBoxEven"/><text style="dominant-baseline: middle; font-size: 10.2px;" transform="translate(74.06622314453125,55.5)" y="0" x="0" id="text-entity-DeliveryChargeSpecification-e9d96709-4acd-5d96-9643-f9053be38480-attr-2-name" class="er entityLabel">eligibleRegion</text><rect height="21" width="69.06622314453125" y="66" x="0" class="er attributeBoxOdd"/><text style="dominant-baseline: middle; font-size: 10.2px;" transform="translate(5,76.5)" y="0" x="0" id="text-entity-DeliveryChargeSpecification-e9d96709-4acd-5d96-9643-f9053be38480-attr-3-type" class="er entityLabel">stringList</text><rect height="21" width="147.015625" y="66" x="69.06622314453125" class="er attributeBoxOdd"/><text style="dominant-baseline: middle; font-size: 10.2px;" transform="translate(74.06622314453125,76.5)" y="0" x="0" id="text-entity-DeliveryChargeSpecification-e9d96709-4acd-5d96-9643-f9053be38480-attr-3-name" class="er entityLabel">ineligibleRegion</text><rect height="21" width="69.06622314453125" y="87" x="0" class="er attributeBoxEven"/><text style="dominant-baseline: middle; font-size: 10.2px;" transform="translate(5,97.5)" y="0" x="0" id="text-entity-DeliveryChargeSpecification-e9d96709-4acd-5d96-9643-f9053be38480-attr-4-type" class="er entityLabel">NumberList</text><rect height="21" width="147.015625" y="87" x="69.06622314453125" class="er attributeBoxEven"/><text style="dominant-baseline: middle; font-size: 10.2px;" transform="translate(74.06622314453125,97.5)" y="0" x="0" id="text-entity-DeliveryChargeSpecification-e9d96709-4acd-5d96-9643-f9053be38480-attr-4-name" class="er entityLabel">maxPrice</text><rect height="21" width="69.06622314453125" y="108" x="0" class="er attributeBoxOdd"/><text style="dominant-baseline: middle; font-size: 10.2px;" transform="translate(5,118.5)" y="0" x="0" id="text-entity-DeliveryChargeSpecification-e9d96709-4acd-5d96-9643-f9053be38480-attr-5-type" class="er entityLabel">stringList</text><rect height="21" width="147.015625" y="108" x="69.06622314453125" class="er attributeBoxOdd"/><text style="dominant-baseline: middle; font-size: 10.2px;" transform="translate(74.06622314453125,118.5)" y="0" x="0" id="text-entity-DeliveryChargeSpecification-e9d96709-4acd-5d96-9643-f9053be38480-attr-5-name" class="er entityLabel">membershipPointsEarned</text><rect height="21" width="69.06622314453125" y="129" x="0" class="er attributeBoxEven"/><text style="dominant-baseline: middle; font-size: 10.2px;" transform="translate(5,139.5)" y="0" x="0" id="text-entity-DeliveryChargeSpecification-e9d96709-4acd-5d96-9643-f9053be38480-attr-6-type" class="er entityLabel">NumberList</text><rect height="21" width="147.015625" y="129" x="69.06622314453125" class="er attributeBoxEven"/><text style="dominant-baseline: middle; font-size: 10.2px;" transform="translate(74.06622314453125,139.5)" y="0" x="0" id="text-entity-DeliveryChargeSpecification-e9d96709-4acd-5d96-9643-f9053be38480-attr-6-name" class="er entityLabel">minPrice</text><rect height="21" width="69.06622314453125" y="150" x="0" class="er attributeBoxOdd"/><text style="dominant-baseline: middle; font-size: 10.2px;" transform="translate(5,160.5)" y="0" x="0" id="text-entity-DeliveryChargeSpecification-e9d96709-4acd-5d96-9643-f9053be38480-attr-7-type" class="er entityLabel">stringList</text><rect height="21" width="147.015625" y="150" x="69.06622314453125" class="er attributeBoxOdd"/><text style="dominant-baseline: middle; font-size: 10.2px;" transform="translate(74.06622314453125,160.5)" y="0" x="0" id="text-entity-DeliveryChargeSpecification-e9d96709-4acd-5d96-9643-f9053be38480-attr-7-name" class="er entityLabel">price</text><rect height="21" width="69.06622314453125" y="171" x="0" class="er attributeBoxEven"/><text style="dominant-baseline: middle; font-size: 10.2px;" transform="translate(5,181.5)" y="0" x="0" id="text-entity-DeliveryChargeSpecification-e9d96709-4acd-5d96-9643-f9053be38480-attr-8-type" class="er entityLabel">TextList</text><rect height="21" width="147.015625" y="171" x="69.06622314453125" class="er attributeBoxEven"/><text style="dominant-baseline: middle; font-size: 10.2px;" transform="translate(74.06622314453125,181.5)" y="0" x="0" id="text-entity-DeliveryChargeSpecification-e9d96709-4acd-5d96-9643-f9053be38480-attr-8-name" class="er entityLabel">priceCurrency</text><rect height="21" width="69.06622314453125" y="192" x="0" class="er attributeBoxOdd"/><text style="dominant-baseline: middle; font-size: 10.2px;" transform="translate(5,202.5)" y="0" x="0" id="text-entity-DeliveryChargeSpecification-e9d96709-4acd-5d96-9643-f9053be38480-attr-9-type" class="er entityLabel">stringList</text><rect height="21" width="147.015625" y="192" x="69.06622314453125" class="er attributeBoxOdd"/><text style="dominant-baseline: middle; font-size: 10.2px;" transform="translate(74.06622314453125,202.5)" y="0" x="0" id="text-entity-DeliveryChargeSpecification-e9d96709-4acd-5d96-9643-f9053be38480-attr-9-name" class="er entityLabel">validFrom</text><rect height="21" width="69.06622314453125" y="213" x="0" class="er attributeBoxEven"/><text style="dominant-baseline: middle; font-size: 10.2px;" transform="translate(5,223.5)" y="0" x="0" id="text-entity-DeliveryChargeSpecification-e9d96709-4acd-5d96-9643-f9053be38480-attr-10-type" class="er entityLabel">stringList</text><rect height="21" width="147.015625" y="213" x="69.06622314453125" class="er attributeBoxEven"/><text style="dominant-baseline: middle; font-size: 10.2px;" transform="translate(74.06622314453125,223.5)" y="0" x="0" id="text-entity-DeliveryChargeSpecification-e9d96709-4acd-5d96-9643-f9053be38480-attr-10-name" class="er entityLabel">validThrough</text><rect height="21" width="69.06622314453125" y="234" x="0" class="er attributeBoxOdd"/><text style="dominant-baseline: middle; font-size: 10.2px;" transform="translate(5,244.5)" y="0" x="0" id="text-entity-DeliveryChargeSpecification-e9d96709-4acd-5d96-9643-f9053be38480-attr-11-type" class="er entityLabel">BooleanList</text><rect height="21" width="147.015625" y="234" x="69.06622314453125" class="er attributeBoxOdd"/><text style="dominant-baseline: middle; font-size: 10.2px;" transform="translate(74.06622314453125,244.5)" y="0" x="0" id="text-entity-DeliveryChargeSpecification-e9d96709-4acd-5d96-9643-f9053be38480-attr-11-name" class="er entityLabel">valueAddedTaxIncluded</text><rect height="21" width="69.06622314453125" y="255" x="0" class="er attributeBoxEven"/><text style="dominant-baseline: middle; font-size: 10.2px;" transform="translate(5,265.5)" y="0" x="0" id="text-entity-DeliveryChargeSpecification-e9d96709-4acd-5d96-9643-f9053be38480-attr-12-type" class="er entityLabel">stringList</text><rect height="21" width="147.015625" y="255" x="69.06622314453125" class="er attributeBoxEven"/><text style="dominant-baseline: middle; font-size: 10.2px;" transform="translate(74.06622314453125,265.5)" y="0" x="0" id="text-entity-DeliveryChargeSpecification-e9d96709-4acd-5d96-9643-f9053be38480-attr-12-name" class="er entityLabel">additionalType</text><rect height="21" width="69.06622314453125" y="276" x="0" class="er attributeBoxOdd"/><text style="dominant-baseline: middle; font-size: 10.2px;" transform="translate(5,286.5)" y="0" x="0" id="text-entity-DeliveryChargeSpecification-e9d96709-4acd-5d96-9643-f9053be38480-attr-13-type" class="er entityLabel">TextList</text><rect height="21" width="147.015625" y="276" x="69.06622314453125" class="er attributeBoxOdd"/><text style="dominant-baseline: middle; font-size: 10.2px;" transform="translate(74.06622314453125,286.5)" y="0" x="0" id="text-entity-DeliveryChargeSpecification-e9d96709-4acd-5d96-9643-f9053be38480-attr-13-name" class="er entityLabel">alternateName</text><rect height="21" width="69.06622314453125" y="297" x="0" class="er attributeBoxEven"/><text style="dominant-baseline: middle; font-size: 10.2px;" transform="translate(5,307.5)" y="0" x="0" id="text-entity-DeliveryChargeSpecification-e9d96709-4acd-5d96-9643-f9053be38480-attr-14-type" class="er entityLabel">stringList</text><rect height="21" width="147.015625" y="297" x="69.06622314453125" class="er attributeBoxEven"/><text style="dominant-baseline: middle; font-size: 10.2px;" transform="translate(74.06622314453125,307.5)" y="0" x="0" id="text-entity-DeliveryChargeSpecification-e9d96709-4acd-5d96-9643-f9053be38480-attr-14-name" class="er entityLabel">description</text><rect height="21" width="69.06622314453125" y="318" x="0" class="er attributeBoxOdd"/><text style="dominant-baseline: middle; font-size: 10.2px;" transform="translate(5,328.5)" y="0" x="0" id="text-entity-DeliveryChargeSpecification-e9d96709-4acd-5d96-9643-f9053be38480-attr-15-type" class="er entityLabel">TextList</text><rect height="21" width="147.015625" y="318" x="69.06622314453125" class="er attributeBoxOdd"/><text style="dominant-baseline: middle; font-size: 10.2px;" transform="translate(74.06622314453125,328.5)" y="0" x="0" id="text-entity-DeliveryChargeSpecification-e9d96709-4acd-5d96-9643-f9053be38480-attr-15-name" class="er entityLabel">disambiguatingDescription</text><rect height="21" width="69.06622314453125" y="339" x="0" class="er attributeBoxEven"/><text style="dominant-baseline: middle; font-size: 10.2px;" transform="translate(5,349.5)" y="0" x="0" id="text-entity-DeliveryChargeSpecification-e9d96709-4acd-5d96-9643-f9053be38480-attr-16-type" class="er entityLabel">stringList</text><rect height="21" width="147.015625" y="339" x="69.06622314453125" class="er attributeBoxEven"/><text style="dominant-baseline: middle; font-size: 10.2px;" transform="translate(74.06622314453125,349.5)" y="0" x="0" id="text-entity-DeliveryChargeSpecification-e9d96709-4acd-5d96-9643-f9053be38480-attr-16-name" class="er entityLabel">identifier</text><rect height="21" width="69.06622314453125" y="360" x="0" class="er attributeBoxOdd"/><text style="dominant-baseline: middle; font-size: 10.2px;" transform="translate(5,370.5)" y="0" x="0" id="text-entity-DeliveryChargeSpecification-e9d96709-4acd-5d96-9643-f9053be38480-attr-17-type" class="er entityLabel">stringList</text><rect height="21" width="147.015625" y="360" x="69.06622314453125" class="er attributeBoxOdd"/><text style="dominant-baseline: middle; font-size: 10.2px;" transform="translate(74.06622314453125,370.5)" y="0" x="0" id="text-entity-DeliveryChargeSpecification-e9d96709-4acd-5d96-9643-f9053be38480-attr-17-name" class="er entityLabel">image</text><rect height="21" width="69.06622314453125" y="381" x="0" class="er attributeBoxEven"/><text style="dominant-baseline: middle; font-size: 10.2px;" transform="translate(5,391.5)" y="0" x="0" id="text-entity-DeliveryChargeSpecification-e9d96709-4acd-5d96-9643-f9053be38480-attr-18-type" class="er entityLabel">TextList</text><rect height="21" width="147.015625" y="381" x="69.06622314453125" class="er attributeBoxEven"/><text style="dominant-baseline: middle; font-size: 10.2px;" transform="translate(74.06622314453125,391.5)" y="0" x="0" id="text-entity-DeliveryChargeSpecification-e9d96709-4acd-5d96-9643-f9053be38480-attr-18-name" class="er entityLabel">name</text><rect height="21" width="69.06622314453125" y="402" x="0" class="er attributeBoxOdd"/><text style="dominant-baseline: middle; font-size: 10.2px;" transform="translate(5,412.5)" y="0" x="0" id="text-entity-DeliveryChargeSpecification-e9d96709-4acd-5d96-9643-f9053be38480-attr-19-type" class="er entityLabel">URLList</text><rect height="21" width="147.015625" y="402" x="69.06622314453125" class="er attributeBoxOdd"/><text style="dominant-baseline: middle; font-size: 10.2px;" transform="translate(74.06622314453125,412.5)" y="0" x="0" id="text-entity-DeliveryChargeSpecification-e9d96709-4acd-5d96-9643-f9053be38480-attr-19-name" class="er entityLabel">sameAs</text><rect height="21" width="69.06622314453125" y="423" x="0" class="er attributeBoxEven"/><text style="dominant-baseline: middle; font-size: 10.2px;" transform="translate(5,433.5)" y="0" x="0" id="text-entity-DeliveryChargeSpecification-e9d96709-4acd-5d96-9643-f9053be38480-attr-20-type" class="er entityLabel">stringList</text><rect height="21" width="147.015625" y="423" x="69.06622314453125" class="er attributeBoxEven"/><text style="dominant-baseline: middle; font-size: 10.2px;" transform="translate(74.06622314453125,433.5)" y="0" x="0" id="text-entity-DeliveryChargeSpecification-e9d96709-4acd-5d96-9643-f9053be38480-attr-20-name" class="er entityLabel">mainEntityOfPage</text><rect height="21" width="69.06622314453125" y="444" x="0" class="er attributeBoxOdd"/><text style="dominant-baseline: middle; font-size: 10.2px;" transform="translate(5,454.5)" y="0" x="0" id="text-entity-DeliveryChargeSpecification-e9d96709-4acd-5d96-9643-f9053be38480-attr-21-type" class="er entityLabel">stringList</text><rect height="21" width="147.015625" y="444" x="69.06622314453125" class="er attributeBoxOdd"/><text style="dominant-baseline: middle; font-size: 10.2px;" transform="translate(74.06622314453125,454.5)" y="0" x="0" id="text-entity-DeliveryChargeSpecification-e9d96709-4acd-5d96-9643-f9053be38480-attr-21-name" class="er entityLabel">subjectOf</text><rect height="21" width="69.06622314453125" y="465" x="0" class="er attributeBoxEven"/><text style="dominant-baseline: middle; font-size: 10.2px;" transform="translate(5,475.5)" y="0" x="0" id="text-entity-DeliveryChargeSpecification-e9d96709-4acd-5d96-9643-f9053be38480-attr-22-type" class="er entityLabel">URLList</text><rect height="21" width="147.015625" y="465" x="69.06622314453125" class="er attributeBoxEven"/><text style="dominant-baseline: middle; font-size: 10.2px;" transform="translate(74.06622314453125,475.5)" y="0" x="0" id="text-entity-DeliveryChargeSpecification-e9d96709-4acd-5d96-9643-f9053be38480-attr-22-name" class="er entityLabel">url</text></g><g transform="translate(20,606 )" id="entity-DeliveryMethod-e577a7f1-5177-5a6a-88c8-ea80527e051e"><rect height="75" width="124.828125" y="0" x="0" class="er entityBox"/><text style="dominant-baseline: middle; text-anchor: middle; font-size: 12px;" transform="translate(62.4140625,37.5)" y="0" x="0" id="text-entity-DeliveryMethod-e577a7f1-5177-5a6a-88c8-ea80527e051e" class="er entityLabel">DeliveryMethod</text></g><g transform="translate(244.828125,606 )" id="entity-QuantitativeValue-3d19db81-2acf-5dcd-99e0-52d6a275eca4"><rect height="75" width="137.59375" y="0" x="0" class="er entityBox"/><text style="dominant-baseline: middle; text-anchor: middle; font-size: 12px;" transform="translate(68.796875,37.5)" y="0" x="0" id="text-entity-QuantitativeValue-3d19db81-2acf-5dcd-99e0-52d6a275eca4" class="er entityLabel">QuantitativeValue</text></g><g transform="translate(482.421875,606 )" id="entity-PriceSpecification-06171b48-9437-5ab1-a607-7f40e6a6fc9e"><rect height="75" width="136.328125" y="0" x="0" class="er entityBox"/><text style="dominant-baseline: middle; text-anchor: middle; font-size: 12px;" transform="translate(68.1640625,37.5)" y="0" x="0" id="text-entity-PriceSpecification-06171b48-9437-5ab1-a607-7f40e6a6fc9e" class="er entityLabel">PriceSpecification</text></g><g transform="translate(718.75,606 )" id="entity-MemberProgramTier-9007dd70-1421-5b4f-9029-fd44084bd9e1"><rect height="75" width="152.66796875" y="0" x="0" class="er entityBox"/><text style="dominant-baseline: middle; text-anchor: middle; font-size: 12px;" transform="translate(76.333984375,37.5)" y="0" x="0" id="text-entity-MemberProgramTier-9007dd70-1421-5b4f-9029-fd44084bd9e1" class="er entityLabel">MemberProgramTier</text></g><g transform="translate(971.41796875,606 )" id="entity-Action-6cd87d9a-a078-546e-a35b-bee54f477b31"><rect height="75" width="100" y="0" x="0" class="er entityBox"/><text style="dominant-baseline: middle; text-anchor: middle; font-size: 12px;" transform="translate(50,37.5)" y="0" x="0" id="text-entity-Action-6cd87d9a-a078-546e-a35b-bee54f477b31" class="er entityLabel">Action</text></g><rect height="14" width="150.34375" y="447.3153991699219" x="172.017822265625" class="er relationshipLabelBox"/><text style="text-anchor: middle; dominant-baseline: middle; font-size: 12px;" y="454.3153991699219" x="247.189697265625" id="rel1" class="er relationshipLabel">appliesToDeliveryMethod</text><rect height="14" width="95.203125" y="487.755126953125" x="317.30120849609375" class="er relationshipLabelBox"/><text style="text-anchor: middle; dominant-baseline: middle; font-size: 12px;" y="494.755126953125" x="364.90277099609375" id="rel2" class="er relationshipLabel">eligibleQuantity</text><rect height="14" width="156.625" y="549" x="472.27349853515625" class="er relationshipLabelBox"/><text style="text-anchor: middle; dominant-baseline: middle; font-size: 12px;" y="556" x="550.5859985351562" id="rel3" class="er relationshipLabel">eligibleTransactionVolume</text><rect height="14" width="119.52734375" y="485.3812561035156" x="680.47802734375" class="er relationshipLabelBox"/><text style="text-anchor: middle; dominant-baseline: middle; font-size: 12px;" y="492.3812561035156" x="740.24169921875" id="rel4" class="er relationshipLabel">validForMemberTier</text><rect height="14" width="90.96875" y="447.065673828125" x="809.8233032226562" class="er relationshipLabelBox"/><text style="text-anchor: middle; dominant-baseline: middle; font-size: 12px;" y="454.065673828125" x="855.3076782226562" id="rel5" class="er relationshipLabel">potentialAction</text></svg>