<svg aria-roledescription="er" role="graphics-document document" viewBox="0 0 2028.2509765625 512" style="max-width: 2028.25px; background-color: white;" xmlns:xlink="http://www.w3.org/1999/xlink" xmlns="http://www.w3.org/2000/svg" width="100%" id="my-svg"><style>#my-svg{font-family:"trebuchet ms",verdana,arial,sans-serif;font-size:16px;fill:#333;}#my-svg .error-icon{fill:#552222;}#my-svg .error-text{fill:#552222;stroke:#552222;}#my-svg .edge-thickness-normal{stroke-width:1px;}#my-svg .edge-thickness-thick{stroke-width:3.5px;}#my-svg .edge-pattern-solid{stroke-dasharray:0;}#my-svg .edge-thickness-invisible{stroke-width:0;fill:none;}#my-svg .edge-pattern-dashed{stroke-dasharray:3;}#my-svg .edge-pattern-dotted{stroke-dasharray:2;}#my-svg .marker{fill:#333333;stroke:#333333;}#my-svg .marker.cross{stroke:#333333;}#my-svg svg{font-family:"trebuchet ms",verdana,arial,sans-serif;font-size:16px;}#my-svg p{margin:0;}#my-svg .entityBox{fill:#ECECFF;stroke:#9370DB;}#my-svg .attributeBoxOdd{fill:#ffffff;stroke:#9370DB;}#my-svg .attributeBoxEven{fill:#f2f2f2;stroke:#9370DB;}#my-svg .relationshipLabelBox{fill:hsl(80, 100%, 96.2745098039%);opacity:0.7;background-color:hsl(80, 100%, 96.2745098039%);}#my-svg .relationshipLabelBox rect{opacity:0.5;}#my-svg .relationshipLine{stroke:#333333;}#my-svg .entityTitleText{text-anchor:middle;font-size:18px;fill:#333;}#my-svg #MD_PARENT_START{fill:#f5f5f5!important;stroke:#333333!important;stroke-width:1;}#my-svg #MD_PARENT_END{fill:#f5f5f5!important;stroke:#333333!important;stroke-width:1;}#my-svg :root{--mermaid-font-family:"trebuchet ms",verdana,arial,sans-serif;}</style><g/><defs><marker orient="auto" markerHeight="240" markerWidth="190" refY="7" refX="0" id="MD_PARENT_START"><path d="M 18,7 L9,13 L1,7 L9,1 Z"/></marker></defs><defs><marker orient="auto" markerHeight="28" markerWidth="20" refY="7" refX="19" id="MD_PARENT_END"><path d="M 18,7 L9,13 L1,7 L9,1 Z"/></marker></defs><defs><marker orient="auto" markerHeight="18" markerWidth="18" refY="9" refX="0" id="ONLY_ONE_START"><path d="M9,0 L9,18 M15,0 L15,18" fill="none" stroke="gray"/></marker></defs><defs><marker orient="auto" markerHeight="18" markerWidth="18" refY="9" refX="18" id="ONLY_ONE_END"><path d="M3,0 L3,18 M9,0 L9,18" fill="none" stroke="gray"/></marker></defs><defs><marker orient="auto" markerHeight="18" markerWidth="30" refY="9" refX="0" id="ZERO_OR_ONE_START"><circle r="6" cy="9" cx="21" fill="white" stroke="gray"/><path d="M9,0 L9,18" fill="none" stroke="gray"/></marker></defs><defs><marker orient="auto" markerHeight="18" markerWidth="30" refY="9" refX="30" id="ZERO_OR_ONE_END"><circle r="6" cy="9" cx="9" fill="white" stroke="gray"/><path d="M21,0 L21,18" fill="none" stroke="gray"/></marker></defs><defs><marker orient="auto" markerHeight="36" markerWidth="45" refY="18" refX="18" id="ONE_OR_MORE_START"><path d="M0,18 Q 18,0 36,18 Q 18,36 0,18 M42,9 L42,27" fill="none" stroke="gray"/></marker></defs><defs><marker orient="auto" markerHeight="36" markerWidth="45" refY="18" refX="27" id="ONE_OR_MORE_END"><path d="M3,9 L3,27 M9,18 Q27,0 45,18 Q27,36 9,18" fill="none" stroke="gray"/></marker></defs><defs><marker orient="auto" markerHeight="36" markerWidth="57" refY="18" refX="18" id="ZERO_OR_MORE_START"><circle r="6" cy="18" cx="48" fill="white" stroke="gray"/><path d="M0,18 Q18,0 36,18 Q18,36 0,18" fill="none" stroke="gray"/></marker></defs><defs><marker orient="auto" markerHeight="36" markerWidth="57" refY="18" refX="39" id="ZERO_OR_MORE_END"><circle r="6" cy="18" cx="9" fill="white" stroke="gray"/><path d="M21,18 Q39,0 57,18 Q39,36 21,18" fill="none" stroke="gray"/></marker></defs><path style="stroke: gray; fill: none;" marker-start="url(#ONLY_ONE_START)" marker-end="url(#ZERO_OR_MORE_END)" d="M918.789,189.691L779.393,219.243C639.997,248.794,361.206,307.897,221.81,345.782C82.414,383.667,82.414,400.333,82.414,408.667L82.414,417" class="er relationshipLine"/><path style="stroke: gray; fill: none;" marker-start="url(#ONLY_ONE_START)" marker-end="url(#ZERO_OR_MORE_END)" d="M918.789,196.64L817.928,225.033C717.068,253.427,515.346,310.213,414.486,346.94C313.625,383.667,313.625,400.333,313.625,408.667L313.625,417" class="er relationshipLine"/><path style="stroke: gray; fill: none;" marker-start="url(#ONLY_ONE_START)" marker-end="url(#ZERO_OR_MORE_END)" d="M918.789,210.883L857.422,236.903C796.055,262.922,673.32,314.961,611.953,349.314C550.586,383.667,550.586,400.333,550.586,408.667L550.586,417" class="er relationshipLine"/><path style="stroke: gray; fill: none;" marker-start="url(#ONLY_ONE_START)" marker-end="url(#ZERO_OR_MORE_END)" d="M918.789,232.697L883.936,255.081C849.082,277.465,779.375,322.232,750.148,352.95C720.922,383.667,732.175,400.333,737.802,408.667L743.429,417" class="er relationshipLine"/><path style="stroke: gray; fill: none;" marker-start="url(#ONLY_ONE_START)" marker-end="url(#ZERO_OR_MORE_END)" d="M918.789,267.711L902.116,284.259C885.443,300.807,852.096,333.904,830.661,358.785C809.226,383.667,799.702,400.333,794.94,408.667L790.179,417" class="er relationshipLine"/><path style="stroke: gray; fill: none;" marker-start="url(#ONLY_ONE_START)" marker-end="url(#ZERO_OR_MORE_END)" d="M943.939,317L939.741,325.333C935.543,333.667,927.146,350.333,939.615,368.389C952.083,386.444,985.417,405.889,1002.083,415.611L1018.75,425.333" class="er relationshipLine"/><path style="stroke: gray; fill: none;" marker-start="url(#ONLY_ONE_START)" marker-end="url(#ZERO_OR_MORE_END)" d="M1118.711,231.86L1154.245,254.383C1189.78,276.907,1260.848,321.953,1296.383,352.81C1331.917,383.667,1331.917,400.333,1331.917,408.667L1331.917,417" class="er relationshipLine"/><path style="stroke: gray; fill: none;" marker-start="url(#ONLY_ONE_START)" marker-end="url(#ZERO_OR_MORE_END)" d="M1118.711,205.279L1191.968,232.232C1265.224,259.186,1411.738,313.093,1484.994,348.38C1558.251,383.667,1558.251,400.333,1558.251,408.667L1558.251,417" class="er relationshipLine"/><path style="stroke: gray; fill: none;" marker-start="url(#ONLY_ONE_START)" marker-end="url(#ZERO_OR_MORE_END)" d="M1018.75,317L1018.75,325.333C1018.75,333.667,1018.75,350.333,1023.512,367C1028.274,383.667,1037.798,400.333,1042.56,408.667L1047.321,417" class="er relationshipLine"/><path style="stroke: gray; fill: none;" marker-start="url(#ONLY_ONE_START)" marker-end="url(#ZERO_OR_MORE_END)" d="M1093.561,317L1097.759,325.333C1101.957,333.667,1110.354,350.333,1109.79,367C1109.226,383.667,1099.702,400.333,1094.94,408.667L1090.179,417" class="er relationshipLine"/><path style="stroke: gray; fill: none;" marker-start="url(#ONLY_ONE_START)" marker-end="url(#ZERO_OR_MORE_END)" d="M1118.711,267.711L1135.384,284.259C1152.057,300.807,1185.404,333.904,1185.41,360.174C1185.417,386.444,1152.083,405.889,1135.417,415.611L1118.75,425.333" class="er relationshipLine"/><path style="stroke: gray; fill: none;" marker-start="url(#ONLY_ONE_START)" marker-end="url(#ZERO_OR_MORE_END)" d="M1118.711,197.278L1216.968,225.565C1315.224,253.852,1511.738,310.426,1614.756,347.046C1717.775,383.667,1727.299,400.333,1732.061,408.667L1736.822,417" class="er relationshipLine"/><path style="stroke: gray; fill: none;" marker-start="url(#ONLY_ONE_START)" marker-end="url(#ZERO_OR_MORE_END)" d="M1118.711,189.62L1258.634,219.183C1398.558,248.747,1678.404,307.873,1818.328,345.77C1958.251,383.667,1958.251,400.333,1958.251,408.667L1958.251,417" class="er relationshipLine"/><path style="stroke: gray; fill: none;" marker-start="url(#ONLY_ONE_START)" marker-end="url(#ZERO_OR_MORE_END)" d="M1118.711,193.633L1233.634,222.527C1348.558,251.422,1578.404,309.211,1688.566,346.439C1798.727,383.667,1789.203,400.333,1784.441,408.667L1779.68,417" class="er relationshipLine"/><g transform="translate(918.7890625,20 )" id="entity-DeliveryChargeSpecification-e9d96709-4acd-5d96-9643-f9053be38480"><rect height="297" width="199.921875" y="0" x="0" class="er entityBox"/><text style="dominant-baseline: middle; text-anchor: middle; font-size: 12px;" transform="translate(99.9609375,12)" y="0" x="0" id="text-entity-DeliveryChargeSpecification-e9d96709-4acd-5d96-9643-f9053be38480" class="er entityLabel">DeliveryChargeSpecification</text><rect height="21" width="58.1953125" y="24" x="0" class="er attributeBoxOdd"/><text style="dominant-baseline: middle; font-size: 10.2px;" transform="translate(5,34.5)" y="0" x="0" id="text-entity-DeliveryChargeSpecification-e9d96709-4acd-5d96-9643-f9053be38480-attr-1-type" class="er entityLabel">stringList</text><rect height="21" width="141.7265625" y="24" x="58.1953125" class="er attributeBoxOdd"/><text style="dominant-baseline: middle; font-size: 10.2px;" transform="translate(63.1953125,34.5)" y="0" x="0" id="text-entity-DeliveryChargeSpecification-e9d96709-4acd-5d96-9643-f9053be38480-attr-1-name" class="er entityLabel">areaServed</text><rect height="21" width="58.1953125" y="45" x="0" class="er attributeBoxEven"/><text style="dominant-baseline: middle; font-size: 10.2px;" transform="translate(5,55.5)" y="0" x="0" id="text-entity-DeliveryChargeSpecification-e9d96709-4acd-5d96-9643-f9053be38480-attr-2-type" class="er entityLabel">stringList</text><rect height="21" width="141.7265625" y="45" x="58.1953125" class="er attributeBoxEven"/><text style="dominant-baseline: middle; font-size: 10.2px;" transform="translate(63.1953125,55.5)" y="0" x="0" id="text-entity-DeliveryChargeSpecification-e9d96709-4acd-5d96-9643-f9053be38480-attr-2-name" class="er entityLabel">eligibleRegion</text><rect height="21" width="58.1953125" y="66" x="0" class="er attributeBoxOdd"/><text style="dominant-baseline: middle; font-size: 10.2px;" transform="translate(5,76.5)" y="0" x="0" id="text-entity-DeliveryChargeSpecification-e9d96709-4acd-5d96-9643-f9053be38480-attr-3-type" class="er entityLabel">stringList</text><rect height="21" width="141.7265625" y="66" x="58.1953125" class="er attributeBoxOdd"/><text style="dominant-baseline: middle; font-size: 10.2px;" transform="translate(63.1953125,76.5)" y="0" x="0" id="text-entity-DeliveryChargeSpecification-e9d96709-4acd-5d96-9643-f9053be38480-attr-3-name" class="er entityLabel">ineligibleRegion</text><rect height="21" width="58.1953125" y="87" x="0" class="er attributeBoxEven"/><text style="dominant-baseline: middle; font-size: 10.2px;" transform="translate(5,97.5)" y="0" x="0" id="text-entity-DeliveryChargeSpecification-e9d96709-4acd-5d96-9643-f9053be38480-attr-4-type" class="er entityLabel">stringList</text><rect height="21" width="141.7265625" y="87" x="58.1953125" class="er attributeBoxEven"/><text style="dominant-baseline: middle; font-size: 10.2px;" transform="translate(63.1953125,97.5)" y="0" x="0" id="text-entity-DeliveryChargeSpecification-e9d96709-4acd-5d96-9643-f9053be38480-attr-4-name" class="er entityLabel">membershipPointsEarned</text><rect height="21" width="58.1953125" y="108" x="0" class="er attributeBoxOdd"/><text style="dominant-baseline: middle; font-size: 10.2px;" transform="translate(5,118.5)" y="0" x="0" id="text-entity-DeliveryChargeSpecification-e9d96709-4acd-5d96-9643-f9053be38480-attr-5-type" class="er entityLabel">stringList</text><rect height="21" width="141.7265625" y="108" x="58.1953125" class="er attributeBoxOdd"/><text style="dominant-baseline: middle; font-size: 10.2px;" transform="translate(63.1953125,118.5)" y="0" x="0" id="text-entity-DeliveryChargeSpecification-e9d96709-4acd-5d96-9643-f9053be38480-attr-5-name" class="er entityLabel">price</text><rect height="21" width="58.1953125" y="129" x="0" class="er attributeBoxEven"/><text style="dominant-baseline: middle; font-size: 10.2px;" transform="translate(5,139.5)" y="0" x="0" id="text-entity-DeliveryChargeSpecification-e9d96709-4acd-5d96-9643-f9053be38480-attr-6-type" class="er entityLabel">stringList</text><rect height="21" width="141.7265625" y="129" x="58.1953125" class="er attributeBoxEven"/><text style="dominant-baseline: middle; font-size: 10.2px;" transform="translate(63.1953125,139.5)" y="0" x="0" id="text-entity-DeliveryChargeSpecification-e9d96709-4acd-5d96-9643-f9053be38480-attr-6-name" class="er entityLabel">validFrom</text><rect height="21" width="58.1953125" y="150" x="0" class="er attributeBoxOdd"/><text style="dominant-baseline: middle; font-size: 10.2px;" transform="translate(5,160.5)" y="0" x="0" id="text-entity-DeliveryChargeSpecification-e9d96709-4acd-5d96-9643-f9053be38480-attr-7-type" class="er entityLabel">stringList</text><rect height="21" width="141.7265625" y="150" x="58.1953125" class="er attributeBoxOdd"/><text style="dominant-baseline: middle; font-size: 10.2px;" transform="translate(63.1953125,160.5)" y="0" x="0" id="text-entity-DeliveryChargeSpecification-e9d96709-4acd-5d96-9643-f9053be38480-attr-7-name" class="er entityLabel">validThrough</text><rect height="21" width="58.1953125" y="171" x="0" class="er attributeBoxEven"/><text style="dominant-baseline: middle; font-size: 10.2px;" transform="translate(5,181.5)" y="0" x="0" id="text-entity-DeliveryChargeSpecification-e9d96709-4acd-5d96-9643-f9053be38480-attr-8-type" class="er entityLabel">stringList</text><rect height="21" width="141.7265625" y="171" x="58.1953125" class="er attributeBoxEven"/><text style="dominant-baseline: middle; font-size: 10.2px;" transform="translate(63.1953125,181.5)" y="0" x="0" id="text-entity-DeliveryChargeSpecification-e9d96709-4acd-5d96-9643-f9053be38480-attr-8-name" class="er entityLabel">additionalType</text><rect height="21" width="58.1953125" y="192" x="0" class="er attributeBoxOdd"/><text style="dominant-baseline: middle; font-size: 10.2px;" transform="translate(5,202.5)" y="0" x="0" id="text-entity-DeliveryChargeSpecification-e9d96709-4acd-5d96-9643-f9053be38480-attr-9-type" class="er entityLabel">stringList</text><rect height="21" width="141.7265625" y="192" x="58.1953125" class="er attributeBoxOdd"/><text style="dominant-baseline: middle; font-size: 10.2px;" transform="translate(63.1953125,202.5)" y="0" x="0" id="text-entity-DeliveryChargeSpecification-e9d96709-4acd-5d96-9643-f9053be38480-attr-9-name" class="er entityLabel">description</text><rect height="21" width="58.1953125" y="213" x="0" class="er attributeBoxEven"/><text style="dominant-baseline: middle; font-size: 10.2px;" transform="translate(5,223.5)" y="0" x="0" id="text-entity-DeliveryChargeSpecification-e9d96709-4acd-5d96-9643-f9053be38480-attr-10-type" class="er entityLabel">stringList</text><rect height="21" width="141.7265625" y="213" x="58.1953125" class="er attributeBoxEven"/><text style="dominant-baseline: middle; font-size: 10.2px;" transform="translate(63.1953125,223.5)" y="0" x="0" id="text-entity-DeliveryChargeSpecification-e9d96709-4acd-5d96-9643-f9053be38480-attr-10-name" class="er entityLabel">identifier</text><rect height="21" width="58.1953125" y="234" x="0" class="er attributeBoxOdd"/><text style="dominant-baseline: middle; font-size: 10.2px;" transform="translate(5,244.5)" y="0" x="0" id="text-entity-DeliveryChargeSpecification-e9d96709-4acd-5d96-9643-f9053be38480-attr-11-type" class="er entityLabel">stringList</text><rect height="21" width="141.7265625" y="234" x="58.1953125" class="er attributeBoxOdd"/><text style="dominant-baseline: middle; font-size: 10.2px;" transform="translate(63.1953125,244.5)" y="0" x="0" id="text-entity-DeliveryChargeSpecification-e9d96709-4acd-5d96-9643-f9053be38480-attr-11-name" class="er entityLabel">image</text><rect height="21" width="58.1953125" y="255" x="0" class="er attributeBoxEven"/><text style="dominant-baseline: middle; font-size: 10.2px;" transform="translate(5,265.5)" y="0" x="0" id="text-entity-DeliveryChargeSpecification-e9d96709-4acd-5d96-9643-f9053be38480-attr-12-type" class="er entityLabel">stringList</text><rect height="21" width="141.7265625" y="255" x="58.1953125" class="er attributeBoxEven"/><text style="dominant-baseline: middle; font-size: 10.2px;" transform="translate(63.1953125,265.5)" y="0" x="0" id="text-entity-DeliveryChargeSpecification-e9d96709-4acd-5d96-9643-f9053be38480-attr-12-name" class="er entityLabel">mainEntityOfPage</text><rect height="21" width="58.1953125" y="276" x="0" class="er attributeBoxOdd"/><text style="dominant-baseline: middle; font-size: 10.2px;" transform="translate(5,286.5)" y="0" x="0" id="text-entity-DeliveryChargeSpecification-e9d96709-4acd-5d96-9643-f9053be38480-attr-13-type" class="er entityLabel">stringList</text><rect height="21" width="141.7265625" y="276" x="58.1953125" class="er attributeBoxOdd"/><text style="dominant-baseline: middle; font-size: 10.2px;" transform="translate(63.1953125,286.5)" y="0" x="0" id="text-entity-DeliveryChargeSpecification-e9d96709-4acd-5d96-9643-f9053be38480-attr-13-name" class="er entityLabel">subjectOf</text></g><g transform="translate(20,417 )" id="entity-DeliveryMethod-e577a7f1-5177-5a6a-88c8-ea80527e051e"><rect height="75" width="124.828125" y="0" x="0" class="er entityBox"/><text style="dominant-baseline: middle; text-anchor: middle; font-size: 12px;" transform="translate(62.4140625,37.5)" y="0" x="0" id="text-entity-DeliveryMethod-e577a7f1-5177-5a6a-88c8-ea80527e051e" class="er entityLabel">DeliveryMethod</text></g><g transform="translate(244.828125,417 )" id="entity-QuantitativeValue-3d19db81-2acf-5dcd-99e0-52d6a275eca4"><rect height="75" width="137.59375" y="0" x="0" class="er entityBox"/><text style="dominant-baseline: middle; text-anchor: middle; font-size: 12px;" transform="translate(68.796875,37.5)" y="0" x="0" id="text-entity-QuantitativeValue-3d19db81-2acf-5dcd-99e0-52d6a275eca4" class="er entityLabel">QuantitativeValue</text></g><g transform="translate(482.421875,417 )" id="entity-PriceSpecification-06171b48-9437-5ab1-a607-7f40e6a6fc9e"><rect height="75" width="136.328125" y="0" x="0" class="er entityBox"/><text style="dominant-baseline: middle; text-anchor: middle; font-size: 12px;" transform="translate(68.1640625,37.5)" y="0" x="0" id="text-entity-PriceSpecification-06171b48-9437-5ab1-a607-7f40e6a6fc9e" class="er entityLabel">PriceSpecification</text></g><g transform="translate(718.75,417 )" id="entity-Number-03723608-6bf1-5294-8c7e-b493e3224412"><rect height="75" width="100" y="0" x="0" class="er entityBox"/><text style="dominant-baseline: middle; text-anchor: middle; font-size: 12px;" transform="translate(50,37.5)" y="0" x="0" id="text-entity-Number-03723608-6bf1-5294-8c7e-b493e3224412" class="er entityLabel">Number</text></g><g transform="translate(1018.75,417 )" id="entity-Text-426c5d39-acfc-5487-a6d9-ede67887190e"><rect height="75" width="100" y="0" x="0" class="er entityBox"/><text style="dominant-baseline: middle; text-anchor: middle; font-size: 12px;" transform="translate(50,37.5)" y="0" x="0" id="text-entity-Text-426c5d39-acfc-5487-a6d9-ede67887190e" class="er entityLabel">Text</text></g><g transform="translate(1255.5830078125,417 )" id="entity-MemberProgramTier-9007dd70-1421-5b4f-9029-fd44084bd9e1"><rect height="75" width="152.66796875" y="0" x="0" class="er entityBox"/><text style="dominant-baseline: middle; text-anchor: middle; font-size: 12px;" transform="translate(76.333984375,37.5)" y="0" x="0" id="text-entity-MemberProgramTier-9007dd70-1421-5b4f-9029-fd44084bd9e1" class="er entityLabel">MemberProgramTier</text></g><g transform="translate(1508.2509765625,417 )" id="entity-Boolean-5b26178e-f873-50aa-bf9a-b8300df1b991"><rect height="75" width="100" y="0" x="0" class="er entityBox"/><text style="dominant-baseline: middle; text-anchor: middle; font-size: 12px;" transform="translate(50,37.5)" y="0" x="0" id="text-entity-Boolean-5b26178e-f873-50aa-bf9a-b8300df1b991" class="er entityLabel">Boolean</text></g><g transform="translate(1708.2509765625,417 )" id="entity-URL-07f78d3e-fd74-5925-b39b-26c1cc2d6b7c"><rect height="75" width="100" y="0" x="0" class="er entityBox"/><text style="dominant-baseline: middle; text-anchor: middle; font-size: 12px;" transform="translate(50,37.5)" y="0" x="0" id="text-entity-URL-07f78d3e-fd74-5925-b39b-26c1cc2d6b7c" class="er entityLabel">URL</text></g><g transform="translate(1908.2509765625,417 )" id="entity-Action-6cd87d9a-a078-546e-a35b-bee54f477b31"><rect height="75" width="100" y="0" x="0" class="er entityBox"/><text style="dominant-baseline: middle; text-anchor: middle; font-size: 12px;" transform="translate(50,37.5)" y="0" x="0" id="text-entity-Action-6cd87d9a-a078-546e-a35b-bee54f477b31" class="er entityLabel">Action</text></g><rect height="14" width="150.34375" y="275.0926513671875" x="413.27606201171875" class="er relationshipLabelBox"/><text style="text-anchor: middle; dominant-baseline: middle; font-size: 12px;" y="282.0926513671875" x="488.44793701171875" id="rel1" class="er relationshipLabel">appliesToDeliveryMethod</text><rect height="14" width="95.203125" y="279.844970703125" x="555.15576171875" class="er relationshipLabelBox"/><text style="text-anchor: middle; dominant-baseline: middle; font-size: 12px;" y="286.844970703125" x="602.75732421875" id="rel2" class="er relationshipLabel">eligibleQuantity</text><rect height="14" width="156.625" y="289.7719421386719" x="641.2651977539062" class="er relationshipLabelBox"/><text style="text-anchor: middle; dominant-baseline: middle; font-size: 12px;" y="296.7719421386719" x="719.5776977539062" id="rel3" class="er relationshipLabel">eligibleTransactionVolume</text><rect height="14" width="55.421875" y="303.1768798828125" x="774.1838989257812" class="er relationshipLabelBox"/><text style="text-anchor: middle; dominant-baseline: middle; font-size: 12px;" y="310.1768798828125" x="801.8948364257812" id="rel4" class="er relationshipLabel">maxPrice</text><rect height="14" width="51.90625" y="331.1136474609375" x="823.3734741210938" class="er relationshipLabelBox"/><text style="text-anchor: middle; dominant-baseline: middle; font-size: 12px;" y="338.1136474609375" x="849.3265991210938" id="rel5" class="er relationshipLabel">minPrice</text><rect height="14" width="83.9375" y="376.9187316894531" x="912.5360107421875" class="er relationshipLabelBox"/><text style="text-anchor: middle; dominant-baseline: middle; font-size: 12px;" y="383.9187316894531" x="954.5047607421875" id="rel6" class="er relationshipLabel">priceCurrency</text><rect height="14" width="119.52734375" y="304.2279357910156" x="1181.334716796875" class="er relationshipLabelBox"/><text style="text-anchor: middle; dominant-baseline: middle; font-size: 12px;" y="311.2279357910156" x="1241.098388671875" id="rel7" class="er relationshipLabel">validForMemberTier</text><rect height="14" width="142.109375" y="285.85784912109375" x="1282.024169921875" class="er relationshipLabelBox"/><text style="text-anchor: middle; dominant-baseline: middle; font-size: 12px;" y="292.85784912109375" x="1353.078857421875" id="rel8" class="er relationshipLabel">valueAddedTaxIncluded</text><rect height="14" width="89.953125" y="362.447021484375" x="979.2684326171875" class="er relationshipLabelBox"/><text style="text-anchor: middle; dominant-baseline: middle; font-size: 12px;" y="369.447021484375" x="1024.2449951171875" id="rel9" class="er relationshipLabel">alternateName</text><rect height="14" width="161.390625" y="360.552978515625" x="1029.0723876953125" class="er relationshipLabelBox"/><text style="text-anchor: middle; dominant-baseline: middle; font-size: 12px;" y="367.552978515625" x="1109.7677001953125" id="rel10" class="er relationshipLabel">disambiguatingDescription</text><rect height="14" width="34.03125" y="343.7359313964844" x="1167.1094970703125" class="er relationshipLabelBox"/><text style="text-anchor: middle; dominant-baseline: middle; font-size: 12px;" y="350.7359313964844" x="1184.1251220703125" id="rel11" class="er relationshipLabel">name</text><rect height="14" width="47.140625" y="282.94439697265625" x="1412.980712890625" class="er relationshipLabelBox"/><text style="text-anchor: middle; dominant-baseline: middle; font-size: 12px;" y="289.94439697265625" x="1436.551025390625" id="rel12" class="er relationshipLabel">sameAs</text><rect height="14" width="90.96875" y="275.0444641113281" x="1505.135009765625" class="er relationshipLabelBox"/><text style="text-anchor: middle; dominant-baseline: middle; font-size: 12px;" y="282.0444641113281" x="1550.619384765625" id="rel13" class="er relationshipLabel">potentialAction</text><rect height="14" width="15.875" y="276.06341552734375" x="1461.353271484375" class="er relationshipLabelBox"/><text style="text-anchor: middle; dominant-baseline: middle; font-size: 12px;" y="283.06341552734375" x="1469.290771484375" id="rel14" class="er relationshipLabel">url</text></svg>