<svg aria-roledescription="er" role="graphics-document document" viewBox="0 0 2131.275390625 890" style="max-width: 2131.28px; background-color: white;" xmlns:xlink="http://www.w3.org/1999/xlink" xmlns="http://www.w3.org/2000/svg" width="100%" id="my-svg"><style>#my-svg{font-family:"trebuchet ms",verdana,arial,sans-serif;font-size:16px;fill:#333;}#my-svg .error-icon{fill:#552222;}#my-svg .error-text{fill:#552222;stroke:#552222;}#my-svg .edge-thickness-normal{stroke-width:1px;}#my-svg .edge-thickness-thick{stroke-width:3.5px;}#my-svg .edge-pattern-solid{stroke-dasharray:0;}#my-svg .edge-thickness-invisible{stroke-width:0;fill:none;}#my-svg .edge-pattern-dashed{stroke-dasharray:3;}#my-svg .edge-pattern-dotted{stroke-dasharray:2;}#my-svg .marker{fill:#333333;stroke:#333333;}#my-svg .marker.cross{stroke:#333333;}#my-svg svg{font-family:"trebuchet ms",verdana,arial,sans-serif;font-size:16px;}#my-svg p{margin:0;}#my-svg .entityBox{fill:#ECECFF;stroke:#9370DB;}#my-svg .attributeBoxOdd{fill:#ffffff;stroke:#9370DB;}#my-svg .attributeBoxEven{fill:#f2f2f2;stroke:#9370DB;}#my-svg .relationshipLabelBox{fill:hsl(80, 100%, 96.2745098039%);opacity:0.7;background-color:hsl(80, 100%, 96.2745098039%);}#my-svg .relationshipLabelBox rect{opacity:0.5;}#my-svg .relationshipLine{stroke:#333333;}#my-svg .entityTitleText{text-anchor:middle;font-size:18px;fill:#333;}#my-svg #MD_PARENT_START{fill:#f5f5f5!important;stroke:#333333!important;stroke-width:1;}#my-svg #MD_PARENT_END{fill:#f5f5f5!important;stroke:#333333!important;stroke-width:1;}#my-svg :root{--mermaid-font-family:"trebuchet ms",verdana,arial,sans-serif;}</style><g/><defs><marker orient="auto" markerHeight="240" markerWidth="190" refY="7" refX="0" id="MD_PARENT_START"><path d="M 18,7 L9,13 L1,7 L9,1 Z"/></marker></defs><defs><marker orient="auto" markerHeight="28" markerWidth="20" refY="7" refX="19" id="MD_PARENT_END"><path d="M 18,7 L9,13 L1,7 L9,1 Z"/></marker></defs><defs><marker orient="auto" markerHeight="18" markerWidth="18" refY="9" refX="0" id="ONLY_ONE_START"><path d="M9,0 L9,18 M15,0 L15,18" fill="none" stroke="gray"/></marker></defs><defs><marker orient="auto" markerHeight="18" markerWidth="18" refY="9" refX="18" id="ONLY_ONE_END"><path d="M3,0 L3,18 M9,0 L9,18" fill="none" stroke="gray"/></marker></defs><defs><marker orient="auto" markerHeight="18" markerWidth="30" refY="9" refX="0" id="ZERO_OR_ONE_START"><circle r="6" cy="9" cx="21" fill="white" stroke="gray"/><path d="M9,0 L9,18" fill="none" stroke="gray"/></marker></defs><defs><marker orient="auto" markerHeight="18" markerWidth="30" refY="9" refX="30" id="ZERO_OR_ONE_END"><circle r="6" cy="9" cx="9" fill="white" stroke="gray"/><path d="M21,0 L21,18" fill="none" stroke="gray"/></marker></defs><defs><marker orient="auto" markerHeight="36" markerWidth="45" refY="18" refX="18" id="ONE_OR_MORE_START"><path d="M0,18 Q 18,0 36,18 Q 18,36 0,18 M42,9 L42,27" fill="none" stroke="gray"/></marker></defs><defs><marker orient="auto" markerHeight="36" markerWidth="45" refY="18" refX="27" id="ONE_OR_MORE_END"><path d="M3,9 L3,27 M9,18 Q27,0 45,18 Q27,36 9,18" fill="none" stroke="gray"/></marker></defs><defs><marker orient="auto" markerHeight="36" markerWidth="57" refY="18" refX="18" id="ZERO_OR_MORE_START"><circle r="6" cy="18" cx="48" fill="white" stroke="gray"/><path d="M0,18 Q18,0 36,18 Q18,36 0,18" fill="none" stroke="gray"/></marker></defs><defs><marker orient="auto" markerHeight="36" markerWidth="57" refY="18" refX="39" id="ZERO_OR_MORE_END"><circle r="6" cy="18" cx="9" fill="white" stroke="gray"/><path d="M21,18 Q39,0 57,18 Q39,36 21,18" fill="none" stroke="gray"/></marker></defs><path style="stroke: gray; fill: none;" marker-start="url(#ONLY_ONE_START)" marker-end="url(#ZERO_OR_MORE_END)" d="M840.088,408.112L706.259,464.26C572.43,520.408,304.772,632.704,175.705,697.185C46.638,761.667,56.162,778.333,60.924,786.667L65.686,795" class="er relationshipLine"/><path style="stroke: gray; fill: none;" marker-start="url(#ONLY_ONE_START)" marker-end="url(#ZERO_OR_MORE_END)" d="M840.088,415.408L725.654,470.34C611.22,525.272,382.352,635.136,261.597,698.401C140.842,761.667,128.2,778.333,121.879,786.667L115.558,795" class="er relationshipLine"/><path style="stroke: gray; fill: none;" marker-start="url(#ONLY_ONE_START)" marker-end="url(#ZERO_OR_MORE_END)" d="M840.088,430.441L753.382,482.867C666.676,535.294,493.265,640.147,406.559,700.907C319.854,761.667,319.854,778.333,319.854,786.667L319.854,795" class="er relationshipLine"/><path style="stroke: gray; fill: none;" marker-start="url(#ONLY_ONE_START)" marker-end="url(#ZERO_OR_MORE_END)" d="M840.088,454.27L779.684,502.725C719.281,551.18,598.473,648.09,543.576,704.878C488.678,761.667,499.69,778.333,505.196,786.667L510.702,795" class="er relationshipLine"/><path style="stroke: gray; fill: none;" marker-start="url(#ONLY_ONE_START)" marker-end="url(#ZERO_OR_MORE_END)" d="M840.088,576.519L824.622,604.599C809.156,632.68,778.223,688.84,762.757,725.253C747.291,761.667,747.291,778.333,747.291,786.667L747.291,795" class="er relationshipLine"/><path style="stroke: gray; fill: none;" marker-start="url(#ONLY_ONE_START)" marker-end="url(#ZERO_OR_MORE_END)" d="M960.721,695L960.721,703.333C960.721,711.667,960.721,728.333,960.721,745C960.721,761.667,960.721,778.333,960.721,786.667L960.721,795" class="er relationshipLine"/><path style="stroke: gray; fill: none;" marker-start="url(#ONLY_ONE_START)" marker-end="url(#ZERO_OR_MORE_END)" d="M1081.354,585.882L1095.361,612.402C1109.369,638.922,1137.385,691.961,1151.393,726.814C1165.4,761.667,1165.4,778.333,1165.4,786.667L1165.4,795" class="er relationshipLine"/><path style="stroke: gray; fill: none;" marker-start="url(#ONLY_ONE_START)" marker-end="url(#ZERO_OR_MORE_END)" d="M1081.354,460.429L1136.939,507.858C1192.525,555.286,1303.697,650.143,1359.283,705.905C1414.869,761.667,1414.869,778.333,1414.869,786.667L1414.869,795" class="er relationshipLine"/><path style="stroke: gray; fill: none;" marker-start="url(#ONLY_ONE_START)" marker-end="url(#ZERO_OR_MORE_END)" d="M1081.354,432.012L1165.807,484.177C1250.26,536.341,1419.166,640.671,1510.591,701.169C1602.016,761.667,1615.959,778.333,1622.931,786.667L1629.903,795" class="er relationshipLine"/><path style="stroke: gray; fill: none;" marker-start="url(#ONLY_ONE_START)" marker-end="url(#ZERO_OR_MORE_END)" d="M1081.354,409.407L1211.34,465.339C1341.327,521.271,1601.301,633.136,1731.288,697.401C1861.275,761.667,1861.275,778.333,1861.275,786.667L1861.275,795" class="er relationshipLine"/><path style="stroke: gray; fill: none;" marker-start="url(#ONLY_ONE_START)" marker-end="url(#ZERO_OR_MORE_END)" d="M840.088,484.066L798.637,527.555C757.187,571.044,674.286,658.022,627.511,709.844C580.736,761.667,570.087,778.333,564.763,786.667L559.438,795" class="er relationshipLine"/><path style="stroke: gray; fill: none;" marker-start="url(#ONLY_ONE_START)" marker-end="url(#ZERO_OR_MORE_END)" d="M1081.354,419.781L1186.34,473.984C1291.327,528.187,1501.301,636.594,1601.527,699.13C1701.752,761.667,1692.228,778.333,1687.466,786.667L1682.704,795" class="er relationshipLine"/><path style="stroke: gray; fill: none;" marker-start="url(#ONLY_ONE_START)" marker-end="url(#ZERO_OR_MORE_END)" d="M1081.354,399.974L1244.674,457.479C1407.994,514.983,1734.635,629.991,1897.955,695.829C2061.275,761.667,2061.275,778.333,2061.275,786.667L2061.275,795" class="er relationshipLine"/><g transform="translate(840.087890625,20 )" id="entity-DepositAccount-35316f48-f5e0-54bc-ad4b-a09906d0452f"><rect height="675" width="241.265625" y="0" x="0" class="er entityBox"/><text style="dominant-baseline: middle; text-anchor: middle; font-size: 12px;" transform="translate(120.6328125,12)" y="0" x="0" id="text-entity-DepositAccount-35316f48-f5e0-54bc-ad4b-a09906d0452f" class="er entityLabel">DepositAccount</text><rect height="21" width="57.0625" y="24" x="0" class="er attributeBoxOdd"/><text style="dominant-baseline: middle; font-size: 10.2px;" transform="translate(5,34.5)" y="0" x="0" id="text-entity-DepositAccount-35316f48-f5e0-54bc-ad4b-a09906d0452f-attr-1-type" class="er entityLabel">stringList</text><rect height="21" width="184.203125" y="24" x="57.0625" class="er attributeBoxOdd"/><text style="dominant-baseline: middle; font-size: 10.2px;" transform="translate(62.0625,34.5)" y="0" x="0" id="text-entity-DepositAccount-35316f48-f5e0-54bc-ad4b-a09906d0452f-attr-1-name" class="er entityLabel">amount</text><rect height="21" width="57.0625" y="45" x="0" class="er attributeBoxEven"/><text style="dominant-baseline: middle; font-size: 10.2px;" transform="translate(5,55.5)" y="0" x="0" id="text-entity-DepositAccount-35316f48-f5e0-54bc-ad4b-a09906d0452f-attr-2-type" class="er entityLabel">stringList</text><rect height="21" width="184.203125" y="45" x="57.0625" class="er attributeBoxEven"/><text style="dominant-baseline: middle; font-size: 10.2px;" transform="translate(62.0625,55.5)" y="0" x="0" id="text-entity-DepositAccount-35316f48-f5e0-54bc-ad4b-a09906d0452f-attr-2-name" class="er entityLabel">bankAccountType</text><rect height="21" width="57.0625" y="66" x="0" class="er attributeBoxOdd"/><text style="dominant-baseline: middle; font-size: 10.2px;" transform="translate(5,76.5)" y="0" x="0" id="text-entity-DepositAccount-35316f48-f5e0-54bc-ad4b-a09906d0452f-attr-3-type" class="er entityLabel">stringList</text><rect height="21" width="184.203125" y="66" x="57.0625" class="er attributeBoxOdd"/><text style="dominant-baseline: middle; font-size: 10.2px;" transform="translate(62.0625,76.5)" y="0" x="0" id="text-entity-DepositAccount-35316f48-f5e0-54bc-ad4b-a09906d0452f-attr-3-name" class="er entityLabel">annualPercentageRate</text><rect height="21" width="57.0625" y="87" x="0" class="er attributeBoxEven"/><text style="dominant-baseline: middle; font-size: 10.2px;" transform="translate(5,97.5)" y="0" x="0" id="text-entity-DepositAccount-35316f48-f5e0-54bc-ad4b-a09906d0452f-attr-4-type" class="er entityLabel">stringList</text><rect height="21" width="184.203125" y="87" x="57.0625" class="er attributeBoxEven"/><text style="dominant-baseline: middle; font-size: 10.2px;" transform="translate(62.0625,97.5)" y="0" x="0" id="text-entity-DepositAccount-35316f48-f5e0-54bc-ad4b-a09906d0452f-attr-4-name" class="er entityLabel">feesAndCommissionsSpecification</text><rect height="21" width="57.0625" y="108" x="0" class="er attributeBoxOdd"/><text style="dominant-baseline: middle; font-size: 10.2px;" transform="translate(5,118.5)" y="0" x="0" id="text-entity-DepositAccount-35316f48-f5e0-54bc-ad4b-a09906d0452f-attr-5-type" class="er entityLabel">stringList</text><rect height="21" width="184.203125" y="108" x="57.0625" class="er attributeBoxOdd"/><text style="dominant-baseline: middle; font-size: 10.2px;" transform="translate(62.0625,118.5)" y="0" x="0" id="text-entity-DepositAccount-35316f48-f5e0-54bc-ad4b-a09906d0452f-attr-5-name" class="er entityLabel">interestRate</text><rect height="21" width="57.0625" y="129" x="0" class="er attributeBoxEven"/><text style="dominant-baseline: middle; font-size: 10.2px;" transform="translate(5,139.5)" y="0" x="0" id="text-entity-DepositAccount-35316f48-f5e0-54bc-ad4b-a09906d0452f-attr-6-type" class="er entityLabel">stringList</text><rect height="21" width="184.203125" y="129" x="57.0625" class="er attributeBoxEven"/><text style="dominant-baseline: middle; font-size: 10.2px;" transform="translate(62.0625,139.5)" y="0" x="0" id="text-entity-DepositAccount-35316f48-f5e0-54bc-ad4b-a09906d0452f-attr-6-name" class="er entityLabel">areaServed</text><rect height="21" width="57.0625" y="150" x="0" class="er attributeBoxOdd"/><text style="dominant-baseline: middle; font-size: 10.2px;" transform="translate(5,160.5)" y="0" x="0" id="text-entity-DepositAccount-35316f48-f5e0-54bc-ad4b-a09906d0452f-attr-7-type" class="er entityLabel">stringList</text><rect height="21" width="184.203125" y="150" x="57.0625" class="er attributeBoxOdd"/><text style="dominant-baseline: middle; font-size: 10.2px;" transform="translate(62.0625,160.5)" y="0" x="0" id="text-entity-DepositAccount-35316f48-f5e0-54bc-ad4b-a09906d0452f-attr-7-name" class="er entityLabel">category</text><rect height="21" width="57.0625" y="171" x="0" class="er attributeBoxEven"/><text style="dominant-baseline: middle; font-size: 10.2px;" transform="translate(5,181.5)" y="0" x="0" id="text-entity-DepositAccount-35316f48-f5e0-54bc-ad4b-a09906d0452f-attr-8-type" class="er entityLabel">stringList</text><rect height="21" width="184.203125" y="171" x="57.0625" class="er attributeBoxEven"/><text style="dominant-baseline: middle; font-size: 10.2px;" transform="translate(62.0625,181.5)" y="0" x="0" id="text-entity-DepositAccount-35316f48-f5e0-54bc-ad4b-a09906d0452f-attr-8-name" class="er entityLabel">logo</text><rect height="21" width="57.0625" y="192" x="0" class="er attributeBoxOdd"/><text style="dominant-baseline: middle; font-size: 10.2px;" transform="translate(5,202.5)" y="0" x="0" id="text-entity-DepositAccount-35316f48-f5e0-54bc-ad4b-a09906d0452f-attr-9-type" class="er entityLabel">TextList</text><rect height="21" width="184.203125" y="192" x="57.0625" class="er attributeBoxOdd"/><text style="dominant-baseline: middle; font-size: 10.2px;" transform="translate(62.0625,202.5)" y="0" x="0" id="text-entity-DepositAccount-35316f48-f5e0-54bc-ad4b-a09906d0452f-attr-9-name" class="er entityLabel">award</text><rect height="21" width="57.0625" y="213" x="0" class="er attributeBoxEven"/><text style="dominant-baseline: middle; font-size: 10.2px;" transform="translate(5,223.5)" y="0" x="0" id="text-entity-DepositAccount-35316f48-f5e0-54bc-ad4b-a09906d0452f-attr-10-type" class="er entityLabel">stringList</text><rect height="21" width="184.203125" y="213" x="57.0625" class="er attributeBoxEven"/><text style="dominant-baseline: middle; font-size: 10.2px;" transform="translate(62.0625,223.5)" y="0" x="0" id="text-entity-DepositAccount-35316f48-f5e0-54bc-ad4b-a09906d0452f-attr-10-name" class="er entityLabel">brand</text><rect height="21" width="57.0625" y="234" x="0" class="er attributeBoxOdd"/><text style="dominant-baseline: middle; font-size: 10.2px;" transform="translate(5,244.5)" y="0" x="0" id="text-entity-DepositAccount-35316f48-f5e0-54bc-ad4b-a09906d0452f-attr-11-type" class="er entityLabel">stringList</text><rect height="21" width="184.203125" y="234" x="57.0625" class="er attributeBoxOdd"/><text style="dominant-baseline: middle; font-size: 10.2px;" transform="translate(62.0625,244.5)" y="0" x="0" id="text-entity-DepositAccount-35316f48-f5e0-54bc-ad4b-a09906d0452f-attr-11-name" class="er entityLabel">broker</text><rect height="21" width="57.0625" y="255" x="0" class="er attributeBoxEven"/><text style="dominant-baseline: middle; font-size: 10.2px;" transform="translate(5,265.5)" y="0" x="0" id="text-entity-DepositAccount-35316f48-f5e0-54bc-ad4b-a09906d0452f-attr-12-type" class="er entityLabel">stringList</text><rect height="21" width="184.203125" y="255" x="57.0625" class="er attributeBoxEven"/><text style="dominant-baseline: middle; font-size: 10.2px;" transform="translate(62.0625,265.5)" y="0" x="0" id="text-entity-DepositAccount-35316f48-f5e0-54bc-ad4b-a09906d0452f-attr-12-name" class="er entityLabel">isRelatedTo</text><rect height="21" width="57.0625" y="276" x="0" class="er attributeBoxOdd"/><text style="dominant-baseline: middle; font-size: 10.2px;" transform="translate(5,286.5)" y="0" x="0" id="text-entity-DepositAccount-35316f48-f5e0-54bc-ad4b-a09906d0452f-attr-13-type" class="er entityLabel">stringList</text><rect height="21" width="184.203125" y="276" x="57.0625" class="er attributeBoxOdd"/><text style="dominant-baseline: middle; font-size: 10.2px;" transform="translate(62.0625,286.5)" y="0" x="0" id="text-entity-DepositAccount-35316f48-f5e0-54bc-ad4b-a09906d0452f-attr-13-name" class="er entityLabel">isSimilarTo</text><rect height="21" width="57.0625" y="297" x="0" class="er attributeBoxEven"/><text style="dominant-baseline: middle; font-size: 10.2px;" transform="translate(5,307.5)" y="0" x="0" id="text-entity-DepositAccount-35316f48-f5e0-54bc-ad4b-a09906d0452f-attr-14-type" class="er entityLabel">stringList</text><rect height="21" width="184.203125" y="297" x="57.0625" class="er attributeBoxEven"/><text style="dominant-baseline: middle; font-size: 10.2px;" transform="translate(62.0625,307.5)" y="0" x="0" id="text-entity-DepositAccount-35316f48-f5e0-54bc-ad4b-a09906d0452f-attr-14-name" class="er entityLabel">offers</text><rect height="21" width="57.0625" y="318" x="0" class="er attributeBoxOdd"/><text style="dominant-baseline: middle; font-size: 10.2px;" transform="translate(5,328.5)" y="0" x="0" id="text-entity-DepositAccount-35316f48-f5e0-54bc-ad4b-a09906d0452f-attr-15-type" class="er entityLabel">stringList</text><rect height="21" width="184.203125" y="318" x="57.0625" class="er attributeBoxOdd"/><text style="dominant-baseline: middle; font-size: 10.2px;" transform="translate(62.0625,328.5)" y="0" x="0" id="text-entity-DepositAccount-35316f48-f5e0-54bc-ad4b-a09906d0452f-attr-15-name" class="er entityLabel">provider</text><rect height="21" width="57.0625" y="339" x="0" class="er attributeBoxEven"/><text style="dominant-baseline: middle; font-size: 10.2px;" transform="translate(5,349.5)" y="0" x="0" id="text-entity-DepositAccount-35316f48-f5e0-54bc-ad4b-a09906d0452f-attr-16-type" class="er entityLabel">TextList</text><rect height="21" width="184.203125" y="339" x="57.0625" class="er attributeBoxEven"/><text style="dominant-baseline: middle; font-size: 10.2px;" transform="translate(62.0625,349.5)" y="0" x="0" id="text-entity-DepositAccount-35316f48-f5e0-54bc-ad4b-a09906d0452f-attr-16-name" class="er entityLabel">providerMobility</text><rect height="21" width="57.0625" y="360" x="0" class="er attributeBoxOdd"/><text style="dominant-baseline: middle; font-size: 10.2px;" transform="translate(5,370.5)" y="0" x="0" id="text-entity-DepositAccount-35316f48-f5e0-54bc-ad4b-a09906d0452f-attr-17-type" class="er entityLabel">stringList</text><rect height="21" width="184.203125" y="360" x="57.0625" class="er attributeBoxOdd"/><text style="dominant-baseline: middle; font-size: 10.2px;" transform="translate(62.0625,370.5)" y="0" x="0" id="text-entity-DepositAccount-35316f48-f5e0-54bc-ad4b-a09906d0452f-attr-17-name" class="er entityLabel">serviceArea</text><rect height="21" width="57.0625" y="381" x="0" class="er attributeBoxEven"/><text style="dominant-baseline: middle; font-size: 10.2px;" transform="translate(5,391.5)" y="0" x="0" id="text-entity-DepositAccount-35316f48-f5e0-54bc-ad4b-a09906d0452f-attr-18-type" class="er entityLabel">stringList</text><rect height="21" width="184.203125" y="381" x="57.0625" class="er attributeBoxEven"/><text style="dominant-baseline: middle; font-size: 10.2px;" transform="translate(62.0625,391.5)" y="0" x="0" id="text-entity-DepositAccount-35316f48-f5e0-54bc-ad4b-a09906d0452f-attr-18-name" class="er entityLabel">serviceType</text><rect height="21" width="57.0625" y="402" x="0" class="er attributeBoxOdd"/><text style="dominant-baseline: middle; font-size: 10.2px;" transform="translate(5,412.5)" y="0" x="0" id="text-entity-DepositAccount-35316f48-f5e0-54bc-ad4b-a09906d0452f-attr-19-type" class="er entityLabel">TextList</text><rect height="21" width="184.203125" y="402" x="57.0625" class="er attributeBoxOdd"/><text style="dominant-baseline: middle; font-size: 10.2px;" transform="translate(62.0625,412.5)" y="0" x="0" id="text-entity-DepositAccount-35316f48-f5e0-54bc-ad4b-a09906d0452f-attr-19-name" class="er entityLabel">slogan</text><rect height="21" width="57.0625" y="423" x="0" class="er attributeBoxEven"/><text style="dominant-baseline: middle; font-size: 10.2px;" transform="translate(5,433.5)" y="0" x="0" id="text-entity-DepositAccount-35316f48-f5e0-54bc-ad4b-a09906d0452f-attr-20-type" class="er entityLabel">stringList</text><rect height="21" width="184.203125" y="423" x="57.0625" class="er attributeBoxEven"/><text style="dominant-baseline: middle; font-size: 10.2px;" transform="translate(62.0625,433.5)" y="0" x="0" id="text-entity-DepositAccount-35316f48-f5e0-54bc-ad4b-a09906d0452f-attr-20-name" class="er entityLabel">termsOfService</text><rect height="21" width="57.0625" y="444" x="0" class="er attributeBoxOdd"/><text style="dominant-baseline: middle; font-size: 10.2px;" transform="translate(5,454.5)" y="0" x="0" id="text-entity-DepositAccount-35316f48-f5e0-54bc-ad4b-a09906d0452f-attr-21-type" class="er entityLabel">stringList</text><rect height="21" width="184.203125" y="444" x="57.0625" class="er attributeBoxOdd"/><text style="dominant-baseline: middle; font-size: 10.2px;" transform="translate(62.0625,454.5)" y="0" x="0" id="text-entity-DepositAccount-35316f48-f5e0-54bc-ad4b-a09906d0452f-attr-21-name" class="er entityLabel">additionalType</text><rect height="21" width="57.0625" y="465" x="0" class="er attributeBoxEven"/><text style="dominant-baseline: middle; font-size: 10.2px;" transform="translate(5,475.5)" y="0" x="0" id="text-entity-DepositAccount-35316f48-f5e0-54bc-ad4b-a09906d0452f-attr-22-type" class="er entityLabel">TextList</text><rect height="21" width="184.203125" y="465" x="57.0625" class="er attributeBoxEven"/><text style="dominant-baseline: middle; font-size: 10.2px;" transform="translate(62.0625,475.5)" y="0" x="0" id="text-entity-DepositAccount-35316f48-f5e0-54bc-ad4b-a09906d0452f-attr-22-name" class="er entityLabel">alternateName</text><rect height="21" width="57.0625" y="486" x="0" class="er attributeBoxOdd"/><text style="dominant-baseline: middle; font-size: 10.2px;" transform="translate(5,496.5)" y="0" x="0" id="text-entity-DepositAccount-35316f48-f5e0-54bc-ad4b-a09906d0452f-attr-23-type" class="er entityLabel">stringList</text><rect height="21" width="184.203125" y="486" x="57.0625" class="er attributeBoxOdd"/><text style="dominant-baseline: middle; font-size: 10.2px;" transform="translate(62.0625,496.5)" y="0" x="0" id="text-entity-DepositAccount-35316f48-f5e0-54bc-ad4b-a09906d0452f-attr-23-name" class="er entityLabel">description</text><rect height="21" width="57.0625" y="507" x="0" class="er attributeBoxEven"/><text style="dominant-baseline: middle; font-size: 10.2px;" transform="translate(5,517.5)" y="0" x="0" id="text-entity-DepositAccount-35316f48-f5e0-54bc-ad4b-a09906d0452f-attr-24-type" class="er entityLabel">TextList</text><rect height="21" width="184.203125" y="507" x="57.0625" class="er attributeBoxEven"/><text style="dominant-baseline: middle; font-size: 10.2px;" transform="translate(62.0625,517.5)" y="0" x="0" id="text-entity-DepositAccount-35316f48-f5e0-54bc-ad4b-a09906d0452f-attr-24-name" class="er entityLabel">disambiguatingDescription</text><rect height="21" width="57.0625" y="528" x="0" class="er attributeBoxOdd"/><text style="dominant-baseline: middle; font-size: 10.2px;" transform="translate(5,538.5)" y="0" x="0" id="text-entity-DepositAccount-35316f48-f5e0-54bc-ad4b-a09906d0452f-attr-25-type" class="er entityLabel">stringList</text><rect height="21" width="184.203125" y="528" x="57.0625" class="er attributeBoxOdd"/><text style="dominant-baseline: middle; font-size: 10.2px;" transform="translate(62.0625,538.5)" y="0" x="0" id="text-entity-DepositAccount-35316f48-f5e0-54bc-ad4b-a09906d0452f-attr-25-name" class="er entityLabel">identifier</text><rect height="21" width="57.0625" y="549" x="0" class="er attributeBoxEven"/><text style="dominant-baseline: middle; font-size: 10.2px;" transform="translate(5,559.5)" y="0" x="0" id="text-entity-DepositAccount-35316f48-f5e0-54bc-ad4b-a09906d0452f-attr-26-type" class="er entityLabel">stringList</text><rect height="21" width="184.203125" y="549" x="57.0625" class="er attributeBoxEven"/><text style="dominant-baseline: middle; font-size: 10.2px;" transform="translate(62.0625,559.5)" y="0" x="0" id="text-entity-DepositAccount-35316f48-f5e0-54bc-ad4b-a09906d0452f-attr-26-name" class="er entityLabel">image</text><rect height="21" width="57.0625" y="570" x="0" class="er attributeBoxOdd"/><text style="dominant-baseline: middle; font-size: 10.2px;" transform="translate(5,580.5)" y="0" x="0" id="text-entity-DepositAccount-35316f48-f5e0-54bc-ad4b-a09906d0452f-attr-27-type" class="er entityLabel">TextList</text><rect height="21" width="184.203125" y="570" x="57.0625" class="er attributeBoxOdd"/><text style="dominant-baseline: middle; font-size: 10.2px;" transform="translate(62.0625,580.5)" y="0" x="0" id="text-entity-DepositAccount-35316f48-f5e0-54bc-ad4b-a09906d0452f-attr-27-name" class="er entityLabel">name</text><rect height="21" width="57.0625" y="591" x="0" class="er attributeBoxEven"/><text style="dominant-baseline: middle; font-size: 10.2px;" transform="translate(5,601.5)" y="0" x="0" id="text-entity-DepositAccount-35316f48-f5e0-54bc-ad4b-a09906d0452f-attr-28-type" class="er entityLabel">URLList</text><rect height="21" width="184.203125" y="591" x="57.0625" class="er attributeBoxEven"/><text style="dominant-baseline: middle; font-size: 10.2px;" transform="translate(62.0625,601.5)" y="0" x="0" id="text-entity-DepositAccount-35316f48-f5e0-54bc-ad4b-a09906d0452f-attr-28-name" class="er entityLabel">sameAs</text><rect height="21" width="57.0625" y="612" x="0" class="er attributeBoxOdd"/><text style="dominant-baseline: middle; font-size: 10.2px;" transform="translate(5,622.5)" y="0" x="0" id="text-entity-DepositAccount-35316f48-f5e0-54bc-ad4b-a09906d0452f-attr-29-type" class="er entityLabel">stringList</text><rect height="21" width="184.203125" y="612" x="57.0625" class="er attributeBoxOdd"/><text style="dominant-baseline: middle; font-size: 10.2px;" transform="translate(62.0625,622.5)" y="0" x="0" id="text-entity-DepositAccount-35316f48-f5e0-54bc-ad4b-a09906d0452f-attr-29-name" class="er entityLabel">mainEntityOfPage</text><rect height="21" width="57.0625" y="633" x="0" class="er attributeBoxEven"/><text style="dominant-baseline: middle; font-size: 10.2px;" transform="translate(5,643.5)" y="0" x="0" id="text-entity-DepositAccount-35316f48-f5e0-54bc-ad4b-a09906d0452f-attr-30-type" class="er entityLabel">stringList</text><rect height="21" width="184.203125" y="633" x="57.0625" class="er attributeBoxEven"/><text style="dominant-baseline: middle; font-size: 10.2px;" transform="translate(62.0625,643.5)" y="0" x="0" id="text-entity-DepositAccount-35316f48-f5e0-54bc-ad4b-a09906d0452f-attr-30-name" class="er entityLabel">subjectOf</text><rect height="21" width="57.0625" y="654" x="0" class="er attributeBoxOdd"/><text style="dominant-baseline: middle; font-size: 10.2px;" transform="translate(5,664.5)" y="0" x="0" id="text-entity-DepositAccount-35316f48-f5e0-54bc-ad4b-a09906d0452f-attr-31-type" class="er entityLabel">URLList</text><rect height="21" width="184.203125" y="654" x="57.0625" class="er attributeBoxOdd"/><text style="dominant-baseline: middle; font-size: 10.2px;" transform="translate(62.0625,664.5)" y="0" x="0" id="text-entity-DepositAccount-35316f48-f5e0-54bc-ad4b-a09906d0452f-attr-31-name" class="er entityLabel">url</text></g><g transform="translate(20,795 )" id="entity-MonetaryAmount-99d98e1d-dae3-555c-a0b3-eeec7bd13c3e"><rect height="75" width="134.228515625" y="0" x="0" class="er entityBox"/><text style="dominant-baseline: middle; text-anchor: middle; font-size: 12px;" transform="translate(67.1142578125,37.5)" y="0" x="0" id="text-entity-MonetaryAmount-99d98e1d-dae3-555c-a0b3-eeec7bd13c3e" class="er entityLabel">MonetaryAmount</text></g><g transform="translate(254.228515625,795 )" id="entity-AggregateRating-aa0a8837-178a-57ab-baa0-94ad30d90eb5"><rect height="75" width="131.25" y="0" x="0" class="er entityBox"/><text style="dominant-baseline: middle; text-anchor: middle; font-size: 12px;" transform="translate(65.625,37.5)" y="0" x="0" id="text-entity-AggregateRating-aa0a8837-178a-57ab-baa0-94ad30d90eb5" class="er entityLabel">AggregateRating</text></g><g transform="translate(485.478515625,795 )" id="entity-Audience-f784d19a-7c58-5869-868f-14b9086fca44"><rect height="75" width="100" y="0" x="0" class="er entityBox"/><text style="dominant-baseline: middle; text-anchor: middle; font-size: 12px;" transform="translate(50,37.5)" y="0" x="0" id="text-entity-Audience-f784d19a-7c58-5869-868f-14b9086fca44" class="er entityLabel">Audience</text></g><g transform="translate(685.478515625,795 )" id="entity-ServiceChannel-5f9e70a6-8dc6-5d0f-a871-3e775d52af1b"><rect height="75" width="123.625" y="0" x="0" class="er entityBox"/><text style="dominant-baseline: middle; text-anchor: middle; font-size: 12px;" transform="translate(61.8125,37.5)" y="0" x="0" id="text-entity-ServiceChannel-5f9e70a6-8dc6-5d0f-a871-3e775d52af1b" class="er entityLabel">ServiceChannel</text></g><g transform="translate(909.103515625,795 )" id="entity-Certification-8b250de0-929b-5806-8c87-f8e7c928ef36"><rect height="75" width="103.234375" y="0" x="0" class="er entityBox"/><text style="dominant-baseline: middle; text-anchor: middle; font-size: 12px;" transform="translate(51.6171875,37.5)" y="0" x="0" id="text-entity-Certification-8b250de0-929b-5806-8c87-f8e7c928ef36" class="er entityLabel">Certification</text></g><g transform="translate(1112.337890625,795 )" id="entity-OfferCatalog-e4b8efcd-db96-5dc8-b042-81a3acf3e3fe"><rect height="75" width="106.125" y="0" x="0" class="er entityBox"/><text style="dominant-baseline: middle; text-anchor: middle; font-size: 12px;" transform="translate(53.0625,37.5)" y="0" x="0" id="text-entity-OfferCatalog-e4b8efcd-db96-5dc8-b042-81a3acf3e3fe" class="er entityLabel">OfferCatalog</text></g><g transform="translate(1318.462890625,795 )" id="entity-OpeningHoursSpecification-677aa64f-a506-5d18-b5d1-75a0f22f6986"><rect height="75" width="192.8125" y="0" x="0" class="er entityBox"/><text style="dominant-baseline: middle; text-anchor: middle; font-size: 12px;" transform="translate(96.40625,37.5)" y="0" x="0" id="text-entity-OpeningHoursSpecification-677aa64f-a506-5d18-b5d1-75a0f22f6986" class="er entityLabel">OpeningHoursSpecification</text></g><g transform="translate(1611.275390625,795 )" id="entity-Thing-27bc9527-b992-59fc-a0fb-da83e2ff80bf"><rect height="75" width="100" y="0" x="0" class="er entityBox"/><text style="dominant-baseline: middle; text-anchor: middle; font-size: 12px;" transform="translate(50,37.5)" y="0" x="0" id="text-entity-Thing-27bc9527-b992-59fc-a0fb-da83e2ff80bf" class="er entityLabel">Thing</text></g><g transform="translate(1811.275390625,795 )" id="entity-Review-77c92a79-8cff-50c0-9604-f9135763cccd"><rect height="75" width="100" y="0" x="0" class="er entityBox"/><text style="dominant-baseline: middle; text-anchor: middle; font-size: 12px;" transform="translate(50,37.5)" y="0" x="0" id="text-entity-Review-77c92a79-8cff-50c0-9604-f9135763cccd" class="er entityLabel">Review</text></g><g transform="translate(2011.275390625,795 )" id="entity-Action-6cd87d9a-a078-546e-a35b-bee54f477b31"><rect height="75" width="100" y="0" x="0" class="er entityBox"/><text style="dominant-baseline: middle; text-anchor: middle; font-size: 12px;" transform="translate(50,37.5)" y="0" x="0" id="text-entity-Action-6cd87d9a-a078-546e-a35b-bee54f477b31" class="er entityLabel">Action</text></g><rect height="14" width="139.462890625" y="574.0480346679688" x="361.4944763183594" class="er relationshipLabelBox"/><text style="text-anchor: middle; dominant-baseline: middle; font-size: 12px;" y="581.0480346679688" x="431.2259216308594" id="rel1" class="er relationshipLabel">accountMinimumInflow</text><rect height="14" width="135.125" y="586.6627807617188" x="403.01629638671875" class="er relationshipLabelBox"/><text style="text-anchor: middle; dominant-baseline: middle; font-size: 12px;" y="593.6627807617188" x="470.57879638671875" id="rel2" class="er relationshipLabel">accountOverdraftLimit</text><rect height="14" width="100.390625" y="591.0408325195312" x="514.8599243164062" class="er relationshipLabelBox"/><text style="text-anchor: middle; dominant-baseline: middle; font-size: 12px;" y="598.0408325195312" x="565.0552368164062" id="rel3" class="er relationshipLabel">aggregateRating</text><rect height="14" width="54.890625" y="603.4674072265625" x="620.48193359375" class="er relationshipLabelBox"/><text style="text-anchor: middle; dominant-baseline: middle; font-size: 12px;" y="610.4674072265625" x="647.92724609375" id="rel4" class="er relationshipLabel">audience</text><rect height="14" width="103.4375" y="675.0752563476562" x="731.50341796875" class="er relationshipLabelBox"/><text style="text-anchor: middle; dominant-baseline: middle; font-size: 12px;" y="682.0752563476562" x="783.22216796875" id="rel5" class="er relationshipLabel">availableChannel</text><rect height="14" width="94.453125" y="738" x="913.4944458007812" class="er relationshipLabelBox"/><text style="text-anchor: middle; dominant-baseline: middle; font-size: 12px;" y="745" x="960.7210083007812" id="rel6" class="er relationshipLabel">hasCertification</text><rect height="14" width="97.328125" y="680.0433959960938" x="1084.8411865234375" class="er relationshipLabelBox"/><text style="text-anchor: middle; dominant-baseline: middle; font-size: 12px;" y="687.0433959960938" x="1133.5052490234375" id="rel7" class="er relationshipLabel">hasOfferCatalog</text><rect height="14" width="88.0625" y="609.7845458984375" x="1218.860595703125" class="er relationshipLabelBox"/><text style="text-anchor: middle; dominant-baseline: middle; font-size: 12px;" y="616.7845458984375" x="1262.891845703125" id="rel8" class="er relationshipLabel">hoursAvailable</text><rect height="14" width="55.09375" y="598.7130737304688" x="1333.83251953125" class="er relationshipLabelBox"/><text style="text-anchor: middle; dominant-baseline: middle; font-size: 12px;" y="605.7130737304688" x="1361.37939453125" id="rel9" class="er relationshipLabel">produces</text><rect height="14" width="39.87109375" y="577.4337768554688" x="1465.3907470703125" class="er relationshipLabelBox"/><text style="text-anchor: middle; dominant-baseline: middle; font-size: 12px;" y="584.4337768554688" x="1485.3262939453125" id="rel10" class="er relationshipLabel">review</text><rect height="14" width="98.71875" y="629.1087036132812" x="646.38671875" class="er relationshipLabelBox"/><text style="text-anchor: middle; dominant-baseline: middle; font-size: 12px;" y="636.1087036132812" x="695.74609375" id="rel11" class="er relationshipLabel">serviceAudience</text><rect height="14" width="84.962890625" y="581.52978515625" x="1362.771728515625" class="er relationshipLabelBox"/><text style="text-anchor: middle; dominant-baseline: middle; font-size: 12px;" y="588.52978515625" x="1405.253173828125" id="rel12" class="er relationshipLabel">serviceOutput</text><rect height="14" width="90.96875" y="571.2963256835938" x="1539.031494140625" class="er relationshipLabelBox"/><text style="text-anchor: middle; dominant-baseline: middle; font-size: 12px;" y="578.2963256835938" x="1584.515869140625" id="rel13" class="er relationshipLabel">potentialAction</text></svg>