<svg aria-roledescription="er" role="graphics-document document" viewBox="0 0 2817.845703125 722" style="max-width: 2817.85px; background-color: white;" xmlns:xlink="http://www.w3.org/1999/xlink" xmlns="http://www.w3.org/2000/svg" width="100%" id="my-svg"><style>#my-svg{font-family:"trebuchet ms",verdana,arial,sans-serif;font-size:16px;fill:#333;}#my-svg .error-icon{fill:#552222;}#my-svg .error-text{fill:#552222;stroke:#552222;}#my-svg .edge-thickness-normal{stroke-width:1px;}#my-svg .edge-thickness-thick{stroke-width:3.5px;}#my-svg .edge-pattern-solid{stroke-dasharray:0;}#my-svg .edge-thickness-invisible{stroke-width:0;fill:none;}#my-svg .edge-pattern-dashed{stroke-dasharray:3;}#my-svg .edge-pattern-dotted{stroke-dasharray:2;}#my-svg .marker{fill:#333333;stroke:#333333;}#my-svg .marker.cross{stroke:#333333;}#my-svg svg{font-family:"trebuchet ms",verdana,arial,sans-serif;font-size:16px;}#my-svg p{margin:0;}#my-svg .entityBox{fill:#ECECFF;stroke:#9370DB;}#my-svg .attributeBoxOdd{fill:#ffffff;stroke:#9370DB;}#my-svg .attributeBoxEven{fill:#f2f2f2;stroke:#9370DB;}#my-svg .relationshipLabelBox{fill:hsl(80, 100%, 96.2745098039%);opacity:0.7;background-color:hsl(80, 100%, 96.2745098039%);}#my-svg .relationshipLabelBox rect{opacity:0.5;}#my-svg .relationshipLine{stroke:#333333;}#my-svg .entityTitleText{text-anchor:middle;font-size:18px;fill:#333;}#my-svg #MD_PARENT_START{fill:#f5f5f5!important;stroke:#333333!important;stroke-width:1;}#my-svg #MD_PARENT_END{fill:#f5f5f5!important;stroke:#333333!important;stroke-width:1;}#my-svg :root{--mermaid-font-family:"trebuchet ms",verdana,arial,sans-serif;}</style><g/><defs><marker orient="auto" markerHeight="240" markerWidth="190" refY="7" refX="0" id="MD_PARENT_START"><path d="M 18,7 L9,13 L1,7 L9,1 Z"/></marker></defs><defs><marker orient="auto" markerHeight="28" markerWidth="20" refY="7" refX="19" id="MD_PARENT_END"><path d="M 18,7 L9,13 L1,7 L9,1 Z"/></marker></defs><defs><marker orient="auto" markerHeight="18" markerWidth="18" refY="9" refX="0" id="ONLY_ONE_START"><path d="M9,0 L9,18 M15,0 L15,18" fill="none" stroke="gray"/></marker></defs><defs><marker orient="auto" markerHeight="18" markerWidth="18" refY="9" refX="18" id="ONLY_ONE_END"><path d="M3,0 L3,18 M9,0 L9,18" fill="none" stroke="gray"/></marker></defs><defs><marker orient="auto" markerHeight="18" markerWidth="30" refY="9" refX="0" id="ZERO_OR_ONE_START"><circle r="6" cy="9" cx="21" fill="white" stroke="gray"/><path d="M9,0 L9,18" fill="none" stroke="gray"/></marker></defs><defs><marker orient="auto" markerHeight="18" markerWidth="30" refY="9" refX="30" id="ZERO_OR_ONE_END"><circle r="6" cy="9" cx="9" fill="white" stroke="gray"/><path d="M21,0 L21,18" fill="none" stroke="gray"/></marker></defs><defs><marker orient="auto" markerHeight="36" markerWidth="45" refY="18" refX="18" id="ONE_OR_MORE_START"><path d="M0,18 Q 18,0 36,18 Q 18,36 0,18 M42,9 L42,27" fill="none" stroke="gray"/></marker></defs><defs><marker orient="auto" markerHeight="36" markerWidth="45" refY="18" refX="27" id="ONE_OR_MORE_END"><path d="M3,9 L3,27 M9,18 Q27,0 45,18 Q27,36 9,18" fill="none" stroke="gray"/></marker></defs><defs><marker orient="auto" markerHeight="36" markerWidth="57" refY="18" refX="18" id="ZERO_OR_MORE_START"><circle r="6" cy="18" cx="48" fill="white" stroke="gray"/><path d="M0,18 Q18,0 36,18 Q18,36 0,18" fill="none" stroke="gray"/></marker></defs><defs><marker orient="auto" markerHeight="36" markerWidth="57" refY="18" refX="39" id="ZERO_OR_MORE_END"><circle r="6" cy="18" cx="9" fill="white" stroke="gray"/><path d="M21,18 Q39,0 57,18 Q39,36 21,18" fill="none" stroke="gray"/></marker></defs><path style="stroke: gray; fill: none;" marker-start="url(#ONLY_ONE_START)" marker-end="url(#ZERO_OR_MORE_END)" d="M1131.756,303.627L949.316,349.189C766.875,394.751,401.995,485.876,224.316,539.771C46.638,593.667,56.162,610.333,60.924,618.667L65.686,627" class="er relationshipLine"/><path style="stroke: gray; fill: none;" marker-start="url(#ONLY_ONE_START)" marker-end="url(#ZERO_OR_MORE_END)" d="M1131.756,306.817L968.711,351.847C805.665,396.878,479.575,486.939,310.208,540.303C140.842,593.667,128.2,610.333,121.879,618.667L115.558,627" class="er relationshipLine"/><path style="stroke: gray; fill: none;" marker-start="url(#ONLY_ONE_START)" marker-end="url(#ZERO_OR_MORE_END)" d="M1131.756,312.761L996.439,356.801C861.122,400.841,590.488,488.92,455.171,541.293C319.854,593.667,319.854,610.333,319.854,618.667L319.854,627" class="er relationshipLine"/><path style="stroke: gray; fill: none;" marker-start="url(#ONLY_ONE_START)" marker-end="url(#ZERO_OR_MORE_END)" d="M1131.756,320.758L1022.741,363.465C913.726,406.172,695.696,491.586,592.187,542.626C488.678,593.667,499.69,610.333,505.196,618.667L510.702,627" class="er relationshipLine"/><path style="stroke: gray; fill: none;" marker-start="url(#ONLY_ONE_START)" marker-end="url(#ZERO_OR_MORE_END)" d="M1131.756,345.985L1067.678,384.488C1003.601,422.99,875.446,499.995,811.368,546.831C747.291,593.667,747.291,610.333,747.291,618.667L747.291,627" class="er relationshipLine"/><path style="stroke: gray; fill: none;" marker-start="url(#ONLY_ONE_START)" marker-end="url(#ZERO_OR_MORE_END)" d="M1131.756,363.878L1084.345,399.399C1036.934,434.919,942.113,505.959,928.035,553.146C913.958,600.333,980.624,623.667,1013.958,635.333L1047.291,647" class="er relationshipLine"/><path style="stroke: gray; fill: none;" marker-start="url(#ONLY_ONE_START)" marker-end="url(#ZERO_OR_MORE_END)" d="M1373.021,461.348L1385.4,480.624C1397.778,499.899,1422.535,538.449,1434.913,566.058C1447.291,593.667,1447.291,610.333,1447.291,618.667L1447.291,627" class="er relationshipLine"/><path style="stroke: gray; fill: none;" marker-start="url(#ONLY_ONE_START)" marker-end="url(#ZERO_OR_MORE_END)" d="M1373.021,365.126L1419.513,400.438C1466.005,435.751,1558.988,506.375,1605.479,550.021C1651.971,593.667,1651.971,610.333,1651.971,618.667L1651.971,627" class="er relationshipLine"/><path style="stroke: gray; fill: none;" marker-start="url(#ONLY_ONE_START)" marker-end="url(#ZERO_OR_MORE_END)" d="M1373.021,329.909L1461.091,371.091C1549.161,412.272,1725.3,494.636,1813.37,544.151C1901.439,593.667,1901.439,610.333,1901.439,618.667L1901.439,627" class="er relationshipLine"/><path style="stroke: gray; fill: none;" marker-start="url(#ONLY_ONE_START)" marker-end="url(#ZERO_OR_MORE_END)" d="M1373.021,318.026L1489.958,361.189C1606.895,404.351,1840.769,490.675,1964.677,542.171C2088.586,593.667,2102.529,610.333,2109.501,618.667L2116.473,627" class="er relationshipLine"/><path style="stroke: gray; fill: none;" marker-start="url(#ONLY_ONE_START)" marker-end="url(#ZERO_OR_MORE_END)" d="M1131.756,393.501L1101.012,424.084C1070.268,454.667,1008.779,515.834,994.702,556.139C980.624,596.444,1013.958,615.889,1030.624,625.611L1047.291,635.333" class="er relationshipLine"/><path style="stroke: gray; fill: none;" marker-start="url(#ONLY_ONE_START)" marker-end="url(#ZERO_OR_MORE_END)" d="M1373.021,306.922L1535.492,351.935C1697.963,396.948,2022.904,486.974,2185.375,540.32C2347.846,593.667,2347.846,610.333,2347.846,618.667L2347.846,627" class="er relationshipLine"/><path style="stroke: gray; fill: none;" marker-start="url(#ONLY_ONE_START)" marker-end="url(#ZERO_OR_MORE_END)" d="M1131.756,328.889L1041.694,370.24C951.632,411.592,771.508,494.296,676.122,543.981C580.736,593.667,570.087,610.333,564.763,618.667L559.438,627" class="er relationshipLine"/><path style="stroke: gray; fill: none;" marker-start="url(#ONLY_ONE_START)" marker-end="url(#ZERO_OR_MORE_END)" d="M1373.021,312.224L1510.492,356.353C1647.963,400.483,1922.904,488.741,2055.613,541.204C2188.322,593.667,2178.798,610.333,2174.036,618.667L2169.274,627" class="er relationshipLine"/><path style="stroke: gray; fill: none;" marker-start="url(#ONLY_ONE_START)" marker-end="url(#ZERO_OR_MORE_END)" d="M1131.756,452.01L1117.678,472.842C1103.601,493.674,1075.446,535.337,1066.13,564.502C1056.815,593.667,1066.339,610.333,1071.101,618.667L1075.862,627" class="er relationshipLine"/><path style="stroke: gray; fill: none;" marker-start="url(#ONLY_ONE_START)" marker-end="url(#ZERO_OR_MORE_END)" d="M1164.605,527L1161.72,535.333C1158.834,543.667,1153.062,560.333,1145.415,577C1137.767,593.667,1128.243,610.333,1123.481,618.667L1118.72,627" class="er relationshipLine"/><path style="stroke: gray; fill: none;" marker-start="url(#ONLY_ONE_START)" marker-end="url(#ZERO_OR_MORE_END)" d="M1248.131,527L1247.991,535.333C1247.851,543.667,1247.571,560.333,1230.764,578.389C1213.958,596.444,1180.624,615.889,1163.958,625.611L1147.291,635.333" class="er relationshipLine"/><path style="stroke: gray; fill: none;" marker-start="url(#ONLY_ONE_START)" marker-end="url(#ZERO_OR_MORE_END)" d="M1331.656,527L1334.262,535.333C1336.868,543.667,1342.079,560.333,1311.352,580.333C1280.624,600.333,1213.958,623.667,1180.624,635.333L1147.291,647" class="er relationshipLine"/><path style="stroke: gray; fill: none;" marker-start="url(#ONLY_ONE_START)" marker-end="url(#ZERO_OR_MORE_END)" d="M1373.021,302.896L1560.492,348.58C1747.963,394.264,2122.904,485.632,2315.137,539.649C2507.37,593.667,2516.893,610.333,2521.655,618.667L2526.417,627" class="er relationshipLine"/><path style="stroke: gray; fill: none;" marker-start="url(#ONLY_ONE_START)" marker-end="url(#ZERO_OR_MORE_END)" d="M1373.021,297.982L1602.159,344.485C1831.296,390.988,2289.571,483.994,2518.708,538.83C2747.846,593.667,2747.846,610.333,2747.846,618.667L2747.846,627" class="er relationshipLine"/><path style="stroke: gray; fill: none;" marker-start="url(#ONLY_ONE_START)" marker-end="url(#ZERO_OR_MORE_END)" d="M1373.021,300.712L1577.159,346.76C1781.296,392.808,2189.571,484.904,2388.946,539.285C2588.322,593.667,2578.798,610.333,2574.036,618.667L2569.274,627" class="er relationshipLine"/><g transform="translate(1131.755859375,20 )" id="entity-DepositAccount-35316f48-f5e0-54bc-ad4b-a09906d0452f"><rect height="507" width="241.265625" y="0" x="0" class="er entityBox"/><text style="dominant-baseline: middle; text-anchor: middle; font-size: 12px;" transform="translate(120.6328125,12)" y="0" x="0" id="text-entity-DepositAccount-35316f48-f5e0-54bc-ad4b-a09906d0452f" class="er entityLabel">DepositAccount</text><rect height="21" width="57.0625" y="24" x="0" class="er attributeBoxOdd"/><text style="dominant-baseline: middle; font-size: 10.2px;" transform="translate(5,34.5)" y="0" x="0" id="text-entity-DepositAccount-35316f48-f5e0-54bc-ad4b-a09906d0452f-attr-1-type" class="er entityLabel">stringList</text><rect height="21" width="184.203125" y="24" x="57.0625" class="er attributeBoxOdd"/><text style="dominant-baseline: middle; font-size: 10.2px;" transform="translate(62.0625,34.5)" y="0" x="0" id="text-entity-DepositAccount-35316f48-f5e0-54bc-ad4b-a09906d0452f-attr-1-name" class="er entityLabel">amount</text><rect height="21" width="57.0625" y="45" x="0" class="er attributeBoxEven"/><text style="dominant-baseline: middle; font-size: 10.2px;" transform="translate(5,55.5)" y="0" x="0" id="text-entity-DepositAccount-35316f48-f5e0-54bc-ad4b-a09906d0452f-attr-2-type" class="er entityLabel">stringList</text><rect height="21" width="184.203125" y="45" x="57.0625" class="er attributeBoxEven"/><text style="dominant-baseline: middle; font-size: 10.2px;" transform="translate(62.0625,55.5)" y="0" x="0" id="text-entity-DepositAccount-35316f48-f5e0-54bc-ad4b-a09906d0452f-attr-2-name" class="er entityLabel">bankAccountType</text><rect height="21" width="57.0625" y="66" x="0" class="er attributeBoxOdd"/><text style="dominant-baseline: middle; font-size: 10.2px;" transform="translate(5,76.5)" y="0" x="0" id="text-entity-DepositAccount-35316f48-f5e0-54bc-ad4b-a09906d0452f-attr-3-type" class="er entityLabel">stringList</text><rect height="21" width="184.203125" y="66" x="57.0625" class="er attributeBoxOdd"/><text style="dominant-baseline: middle; font-size: 10.2px;" transform="translate(62.0625,76.5)" y="0" x="0" id="text-entity-DepositAccount-35316f48-f5e0-54bc-ad4b-a09906d0452f-attr-3-name" class="er entityLabel">annualPercentageRate</text><rect height="21" width="57.0625" y="87" x="0" class="er attributeBoxEven"/><text style="dominant-baseline: middle; font-size: 10.2px;" transform="translate(5,97.5)" y="0" x="0" id="text-entity-DepositAccount-35316f48-f5e0-54bc-ad4b-a09906d0452f-attr-4-type" class="er entityLabel">stringList</text><rect height="21" width="184.203125" y="87" x="57.0625" class="er attributeBoxEven"/><text style="dominant-baseline: middle; font-size: 10.2px;" transform="translate(62.0625,97.5)" y="0" x="0" id="text-entity-DepositAccount-35316f48-f5e0-54bc-ad4b-a09906d0452f-attr-4-name" class="er entityLabel">feesAndCommissionsSpecification</text><rect height="21" width="57.0625" y="108" x="0" class="er attributeBoxOdd"/><text style="dominant-baseline: middle; font-size: 10.2px;" transform="translate(5,118.5)" y="0" x="0" id="text-entity-DepositAccount-35316f48-f5e0-54bc-ad4b-a09906d0452f-attr-5-type" class="er entityLabel">stringList</text><rect height="21" width="184.203125" y="108" x="57.0625" class="er attributeBoxOdd"/><text style="dominant-baseline: middle; font-size: 10.2px;" transform="translate(62.0625,118.5)" y="0" x="0" id="text-entity-DepositAccount-35316f48-f5e0-54bc-ad4b-a09906d0452f-attr-5-name" class="er entityLabel">interestRate</text><rect height="21" width="57.0625" y="129" x="0" class="er attributeBoxEven"/><text style="dominant-baseline: middle; font-size: 10.2px;" transform="translate(5,139.5)" y="0" x="0" id="text-entity-DepositAccount-35316f48-f5e0-54bc-ad4b-a09906d0452f-attr-6-type" class="er entityLabel">stringList</text><rect height="21" width="184.203125" y="129" x="57.0625" class="er attributeBoxEven"/><text style="dominant-baseline: middle; font-size: 10.2px;" transform="translate(62.0625,139.5)" y="0" x="0" id="text-entity-DepositAccount-35316f48-f5e0-54bc-ad4b-a09906d0452f-attr-6-name" class="er entityLabel">areaServed</text><rect height="21" width="57.0625" y="150" x="0" class="er attributeBoxOdd"/><text style="dominant-baseline: middle; font-size: 10.2px;" transform="translate(5,160.5)" y="0" x="0" id="text-entity-DepositAccount-35316f48-f5e0-54bc-ad4b-a09906d0452f-attr-7-type" class="er entityLabel">stringList</text><rect height="21" width="184.203125" y="150" x="57.0625" class="er attributeBoxOdd"/><text style="dominant-baseline: middle; font-size: 10.2px;" transform="translate(62.0625,160.5)" y="0" x="0" id="text-entity-DepositAccount-35316f48-f5e0-54bc-ad4b-a09906d0452f-attr-7-name" class="er entityLabel">category</text><rect height="21" width="57.0625" y="171" x="0" class="er attributeBoxEven"/><text style="dominant-baseline: middle; font-size: 10.2px;" transform="translate(5,181.5)" y="0" x="0" id="text-entity-DepositAccount-35316f48-f5e0-54bc-ad4b-a09906d0452f-attr-8-type" class="er entityLabel">stringList</text><rect height="21" width="184.203125" y="171" x="57.0625" class="er attributeBoxEven"/><text style="dominant-baseline: middle; font-size: 10.2px;" transform="translate(62.0625,181.5)" y="0" x="0" id="text-entity-DepositAccount-35316f48-f5e0-54bc-ad4b-a09906d0452f-attr-8-name" class="er entityLabel">logo</text><rect height="21" width="57.0625" y="192" x="0" class="er attributeBoxOdd"/><text style="dominant-baseline: middle; font-size: 10.2px;" transform="translate(5,202.5)" y="0" x="0" id="text-entity-DepositAccount-35316f48-f5e0-54bc-ad4b-a09906d0452f-attr-9-type" class="er entityLabel">stringList</text><rect height="21" width="184.203125" y="192" x="57.0625" class="er attributeBoxOdd"/><text style="dominant-baseline: middle; font-size: 10.2px;" transform="translate(62.0625,202.5)" y="0" x="0" id="text-entity-DepositAccount-35316f48-f5e0-54bc-ad4b-a09906d0452f-attr-9-name" class="er entityLabel">brand</text><rect height="21" width="57.0625" y="213" x="0" class="er attributeBoxEven"/><text style="dominant-baseline: middle; font-size: 10.2px;" transform="translate(5,223.5)" y="0" x="0" id="text-entity-DepositAccount-35316f48-f5e0-54bc-ad4b-a09906d0452f-attr-10-type" class="er entityLabel">stringList</text><rect height="21" width="184.203125" y="213" x="57.0625" class="er attributeBoxEven"/><text style="dominant-baseline: middle; font-size: 10.2px;" transform="translate(62.0625,223.5)" y="0" x="0" id="text-entity-DepositAccount-35316f48-f5e0-54bc-ad4b-a09906d0452f-attr-10-name" class="er entityLabel">broker</text><rect height="21" width="57.0625" y="234" x="0" class="er attributeBoxOdd"/><text style="dominant-baseline: middle; font-size: 10.2px;" transform="translate(5,244.5)" y="0" x="0" id="text-entity-DepositAccount-35316f48-f5e0-54bc-ad4b-a09906d0452f-attr-11-type" class="er entityLabel">stringList</text><rect height="21" width="184.203125" y="234" x="57.0625" class="er attributeBoxOdd"/><text style="dominant-baseline: middle; font-size: 10.2px;" transform="translate(62.0625,244.5)" y="0" x="0" id="text-entity-DepositAccount-35316f48-f5e0-54bc-ad4b-a09906d0452f-attr-11-name" class="er entityLabel">isRelatedTo</text><rect height="21" width="57.0625" y="255" x="0" class="er attributeBoxEven"/><text style="dominant-baseline: middle; font-size: 10.2px;" transform="translate(5,265.5)" y="0" x="0" id="text-entity-DepositAccount-35316f48-f5e0-54bc-ad4b-a09906d0452f-attr-12-type" class="er entityLabel">stringList</text><rect height="21" width="184.203125" y="255" x="57.0625" class="er attributeBoxEven"/><text style="dominant-baseline: middle; font-size: 10.2px;" transform="translate(62.0625,265.5)" y="0" x="0" id="text-entity-DepositAccount-35316f48-f5e0-54bc-ad4b-a09906d0452f-attr-12-name" class="er entityLabel">isSimilarTo</text><rect height="21" width="57.0625" y="276" x="0" class="er attributeBoxOdd"/><text style="dominant-baseline: middle; font-size: 10.2px;" transform="translate(5,286.5)" y="0" x="0" id="text-entity-DepositAccount-35316f48-f5e0-54bc-ad4b-a09906d0452f-attr-13-type" class="er entityLabel">stringList</text><rect height="21" width="184.203125" y="276" x="57.0625" class="er attributeBoxOdd"/><text style="dominant-baseline: middle; font-size: 10.2px;" transform="translate(62.0625,286.5)" y="0" x="0" id="text-entity-DepositAccount-35316f48-f5e0-54bc-ad4b-a09906d0452f-attr-13-name" class="er entityLabel">offers</text><rect height="21" width="57.0625" y="297" x="0" class="er attributeBoxEven"/><text style="dominant-baseline: middle; font-size: 10.2px;" transform="translate(5,307.5)" y="0" x="0" id="text-entity-DepositAccount-35316f48-f5e0-54bc-ad4b-a09906d0452f-attr-14-type" class="er entityLabel">stringList</text><rect height="21" width="184.203125" y="297" x="57.0625" class="er attributeBoxEven"/><text style="dominant-baseline: middle; font-size: 10.2px;" transform="translate(62.0625,307.5)" y="0" x="0" id="text-entity-DepositAccount-35316f48-f5e0-54bc-ad4b-a09906d0452f-attr-14-name" class="er entityLabel">provider</text><rect height="21" width="57.0625" y="318" x="0" class="er attributeBoxOdd"/><text style="dominant-baseline: middle; font-size: 10.2px;" transform="translate(5,328.5)" y="0" x="0" id="text-entity-DepositAccount-35316f48-f5e0-54bc-ad4b-a09906d0452f-attr-15-type" class="er entityLabel">stringList</text><rect height="21" width="184.203125" y="318" x="57.0625" class="er attributeBoxOdd"/><text style="dominant-baseline: middle; font-size: 10.2px;" transform="translate(62.0625,328.5)" y="0" x="0" id="text-entity-DepositAccount-35316f48-f5e0-54bc-ad4b-a09906d0452f-attr-15-name" class="er entityLabel">serviceArea</text><rect height="21" width="57.0625" y="339" x="0" class="er attributeBoxEven"/><text style="dominant-baseline: middle; font-size: 10.2px;" transform="translate(5,349.5)" y="0" x="0" id="text-entity-DepositAccount-35316f48-f5e0-54bc-ad4b-a09906d0452f-attr-16-type" class="er entityLabel">stringList</text><rect height="21" width="184.203125" y="339" x="57.0625" class="er attributeBoxEven"/><text style="dominant-baseline: middle; font-size: 10.2px;" transform="translate(62.0625,349.5)" y="0" x="0" id="text-entity-DepositAccount-35316f48-f5e0-54bc-ad4b-a09906d0452f-attr-16-name" class="er entityLabel">serviceType</text><rect height="21" width="57.0625" y="360" x="0" class="er attributeBoxOdd"/><text style="dominant-baseline: middle; font-size: 10.2px;" transform="translate(5,370.5)" y="0" x="0" id="text-entity-DepositAccount-35316f48-f5e0-54bc-ad4b-a09906d0452f-attr-17-type" class="er entityLabel">stringList</text><rect height="21" width="184.203125" y="360" x="57.0625" class="er attributeBoxOdd"/><text style="dominant-baseline: middle; font-size: 10.2px;" transform="translate(62.0625,370.5)" y="0" x="0" id="text-entity-DepositAccount-35316f48-f5e0-54bc-ad4b-a09906d0452f-attr-17-name" class="er entityLabel">termsOfService</text><rect height="21" width="57.0625" y="381" x="0" class="er attributeBoxEven"/><text style="dominant-baseline: middle; font-size: 10.2px;" transform="translate(5,391.5)" y="0" x="0" id="text-entity-DepositAccount-35316f48-f5e0-54bc-ad4b-a09906d0452f-attr-18-type" class="er entityLabel">stringList</text><rect height="21" width="184.203125" y="381" x="57.0625" class="er attributeBoxEven"/><text style="dominant-baseline: middle; font-size: 10.2px;" transform="translate(62.0625,391.5)" y="0" x="0" id="text-entity-DepositAccount-35316f48-f5e0-54bc-ad4b-a09906d0452f-attr-18-name" class="er entityLabel">additionalType</text><rect height="21" width="57.0625" y="402" x="0" class="er attributeBoxOdd"/><text style="dominant-baseline: middle; font-size: 10.2px;" transform="translate(5,412.5)" y="0" x="0" id="text-entity-DepositAccount-35316f48-f5e0-54bc-ad4b-a09906d0452f-attr-19-type" class="er entityLabel">stringList</text><rect height="21" width="184.203125" y="402" x="57.0625" class="er attributeBoxOdd"/><text style="dominant-baseline: middle; font-size: 10.2px;" transform="translate(62.0625,412.5)" y="0" x="0" id="text-entity-DepositAccount-35316f48-f5e0-54bc-ad4b-a09906d0452f-attr-19-name" class="er entityLabel">description</text><rect height="21" width="57.0625" y="423" x="0" class="er attributeBoxEven"/><text style="dominant-baseline: middle; font-size: 10.2px;" transform="translate(5,433.5)" y="0" x="0" id="text-entity-DepositAccount-35316f48-f5e0-54bc-ad4b-a09906d0452f-attr-20-type" class="er entityLabel">stringList</text><rect height="21" width="184.203125" y="423" x="57.0625" class="er attributeBoxEven"/><text style="dominant-baseline: middle; font-size: 10.2px;" transform="translate(62.0625,433.5)" y="0" x="0" id="text-entity-DepositAccount-35316f48-f5e0-54bc-ad4b-a09906d0452f-attr-20-name" class="er entityLabel">identifier</text><rect height="21" width="57.0625" y="444" x="0" class="er attributeBoxOdd"/><text style="dominant-baseline: middle; font-size: 10.2px;" transform="translate(5,454.5)" y="0" x="0" id="text-entity-DepositAccount-35316f48-f5e0-54bc-ad4b-a09906d0452f-attr-21-type" class="er entityLabel">stringList</text><rect height="21" width="184.203125" y="444" x="57.0625" class="er attributeBoxOdd"/><text style="dominant-baseline: middle; font-size: 10.2px;" transform="translate(62.0625,454.5)" y="0" x="0" id="text-entity-DepositAccount-35316f48-f5e0-54bc-ad4b-a09906d0452f-attr-21-name" class="er entityLabel">image</text><rect height="21" width="57.0625" y="465" x="0" class="er attributeBoxEven"/><text style="dominant-baseline: middle; font-size: 10.2px;" transform="translate(5,475.5)" y="0" x="0" id="text-entity-DepositAccount-35316f48-f5e0-54bc-ad4b-a09906d0452f-attr-22-type" class="er entityLabel">stringList</text><rect height="21" width="184.203125" y="465" x="57.0625" class="er attributeBoxEven"/><text style="dominant-baseline: middle; font-size: 10.2px;" transform="translate(62.0625,475.5)" y="0" x="0" id="text-entity-DepositAccount-35316f48-f5e0-54bc-ad4b-a09906d0452f-attr-22-name" class="er entityLabel">mainEntityOfPage</text><rect height="21" width="57.0625" y="486" x="0" class="er attributeBoxOdd"/><text style="dominant-baseline: middle; font-size: 10.2px;" transform="translate(5,496.5)" y="0" x="0" id="text-entity-DepositAccount-35316f48-f5e0-54bc-ad4b-a09906d0452f-attr-23-type" class="er entityLabel">stringList</text><rect height="21" width="184.203125" y="486" x="57.0625" class="er attributeBoxOdd"/><text style="dominant-baseline: middle; font-size: 10.2px;" transform="translate(62.0625,496.5)" y="0" x="0" id="text-entity-DepositAccount-35316f48-f5e0-54bc-ad4b-a09906d0452f-attr-23-name" class="er entityLabel">subjectOf</text></g><g transform="translate(20,627 )" id="entity-MonetaryAmount-99d98e1d-dae3-555c-a0b3-eeec7bd13c3e"><rect height="75" width="134.228515625" y="0" x="0" class="er entityBox"/><text style="dominant-baseline: middle; text-anchor: middle; font-size: 12px;" transform="translate(67.1142578125,37.5)" y="0" x="0" id="text-entity-MonetaryAmount-99d98e1d-dae3-555c-a0b3-eeec7bd13c3e" class="er entityLabel">MonetaryAmount</text></g><g transform="translate(254.228515625,627 )" id="entity-AggregateRating-aa0a8837-178a-57ab-baa0-94ad30d90eb5"><rect height="75" width="131.25" y="0" x="0" class="er entityBox"/><text style="dominant-baseline: middle; text-anchor: middle; font-size: 12px;" transform="translate(65.625,37.5)" y="0" x="0" id="text-entity-AggregateRating-aa0a8837-178a-57ab-baa0-94ad30d90eb5" class="er entityLabel">AggregateRating</text></g><g transform="translate(485.478515625,627 )" id="entity-Audience-f784d19a-7c58-5869-868f-14b9086fca44"><rect height="75" width="100" y="0" x="0" class="er entityBox"/><text style="dominant-baseline: middle; text-anchor: middle; font-size: 12px;" transform="translate(50,37.5)" y="0" x="0" id="text-entity-Audience-f784d19a-7c58-5869-868f-14b9086fca44" class="er entityLabel">Audience</text></g><g transform="translate(685.478515625,627 )" id="entity-ServiceChannel-5f9e70a6-8dc6-5d0f-a871-3e775d52af1b"><rect height="75" width="123.625" y="0" x="0" class="er entityBox"/><text style="dominant-baseline: middle; text-anchor: middle; font-size: 12px;" transform="translate(61.8125,37.5)" y="0" x="0" id="text-entity-ServiceChannel-5f9e70a6-8dc6-5d0f-a871-3e775d52af1b" class="er entityLabel">ServiceChannel</text></g><g transform="translate(1047.291015625,627 )" id="entity-Text-426c5d39-acfc-5487-a6d9-ede67887190e"><rect height="75" width="100" y="0" x="0" class="er entityBox"/><text style="dominant-baseline: middle; text-anchor: middle; font-size: 12px;" transform="translate(50,37.5)" y="0" x="0" id="text-entity-Text-426c5d39-acfc-5487-a6d9-ede67887190e" class="er entityLabel">Text</text></g><g transform="translate(1395.673828125,627 )" id="entity-Certification-8b250de0-929b-5806-8c87-f8e7c928ef36"><rect height="75" width="103.234375" y="0" x="0" class="er entityBox"/><text style="dominant-baseline: middle; text-anchor: middle; font-size: 12px;" transform="translate(51.6171875,37.5)" y="0" x="0" id="text-entity-Certification-8b250de0-929b-5806-8c87-f8e7c928ef36" class="er entityLabel">Certification</text></g><g transform="translate(1598.908203125,627 )" id="entity-OfferCatalog-e4b8efcd-db96-5dc8-b042-81a3acf3e3fe"><rect height="75" width="106.125" y="0" x="0" class="er entityBox"/><text style="dominant-baseline: middle; text-anchor: middle; font-size: 12px;" transform="translate(53.0625,37.5)" y="0" x="0" id="text-entity-OfferCatalog-e4b8efcd-db96-5dc8-b042-81a3acf3e3fe" class="er entityLabel">OfferCatalog</text></g><g transform="translate(1805.033203125,627 )" id="entity-OpeningHoursSpecification-677aa64f-a506-5d18-b5d1-75a0f22f6986"><rect height="75" width="192.8125" y="0" x="0" class="er entityBox"/><text style="dominant-baseline: middle; text-anchor: middle; font-size: 12px;" transform="translate(96.40625,37.5)" y="0" x="0" id="text-entity-OpeningHoursSpecification-677aa64f-a506-5d18-b5d1-75a0f22f6986" class="er entityLabel">OpeningHoursSpecification</text></g><g transform="translate(2097.845703125,627 )" id="entity-Thing-27bc9527-b992-59fc-a0fb-da83e2ff80bf"><rect height="75" width="100" y="0" x="0" class="er entityBox"/><text style="dominant-baseline: middle; text-anchor: middle; font-size: 12px;" transform="translate(50,37.5)" y="0" x="0" id="text-entity-Thing-27bc9527-b992-59fc-a0fb-da83e2ff80bf" class="er entityLabel">Thing</text></g><g transform="translate(2297.845703125,627 )" id="entity-Review-77c92a79-8cff-50c0-9604-f9135763cccd"><rect height="75" width="100" y="0" x="0" class="er entityBox"/><text style="dominant-baseline: middle; text-anchor: middle; font-size: 12px;" transform="translate(50,37.5)" y="0" x="0" id="text-entity-Review-77c92a79-8cff-50c0-9604-f9135763cccd" class="er entityLabel">Review</text></g><g transform="translate(2497.845703125,627 )" id="entity-URL-07f78d3e-fd74-5925-b39b-26c1cc2d6b7c"><rect height="75" width="100" y="0" x="0" class="er entityBox"/><text style="dominant-baseline: middle; text-anchor: middle; font-size: 12px;" transform="translate(50,37.5)" y="0" x="0" id="text-entity-URL-07f78d3e-fd74-5925-b39b-26c1cc2d6b7c" class="er entityLabel">URL</text></g><g transform="translate(2697.845703125,627 )" id="entity-Action-6cd87d9a-a078-546e-a35b-bee54f477b31"><rect height="75" width="100" y="0" x="0" class="er entityBox"/><text style="dominant-baseline: middle; text-anchor: middle; font-size: 12px;" transform="translate(50,37.5)" y="0" x="0" id="text-entity-Action-6cd87d9a-a078-546e-a35b-bee54f477b31" class="er entityLabel">Action</text></g><rect height="14" width="139.462890625" y="435.59246826171875" x="510.52203369140625" class="er relationshipLabelBox"/><text style="text-anchor: middle; dominant-baseline: middle; font-size: 12px;" y="442.59246826171875" x="580.2534790039062" id="rel1" class="er relationshipLabel">accountMinimumInflow</text><rect height="14" width="135.125" y="443.1819763183594" x="548.7482299804688" class="er relationshipLabelBox"/><text style="text-anchor: middle; dominant-baseline: middle; font-size: 12px;" y="450.1819763183594" x="616.3107299804688" id="rel2" class="er relationshipLabel">accountOverdraftLimit</text><rect height="14" width="100.390625" y="443.39105224609375" x="662.3242797851562" class="er relationshipLabelBox"/><text style="text-anchor: middle; dominant-baseline: middle; font-size: 12px;" y="450.39105224609375" x="712.5195922851562" id="rel3" class="er relationshipLabel">aggregateRating</text><rect height="14" width="54.890625" y="446.0581359863281" x="770.2824096679688" class="er relationshipLabelBox"/><text style="text-anchor: middle; dominant-baseline: middle; font-size: 12px;" y="453.0581359863281" x="797.7277221679688" id="rel4" class="er relationshipLabel">audience</text><rect height="14" width="103.4375" y="465.0613708496094" x="872.5647583007812" class="er relationshipLabelBox"/><text style="text-anchor: middle; dominant-baseline: middle; font-size: 12px;" y="472.0613708496094" x="924.2835083007812" id="rel5" class="er relationshipLabel">availableChannel</text><rect height="14.000030517578125" width="36.875" y="498.8860626220703" x="940.5682373046875" class="er relationshipLabelBox"/><text style="text-anchor: middle; dominant-baseline: middle; font-size: 12px;" y="505.8860778808594" x="959.0057373046875" id="rel6" class="er relationshipLabel">award</text><rect height="14" width="94.453125" y="532.8341064453125" x="1374.296875" class="er relationshipLabelBox"/><text style="text-anchor: middle; dominant-baseline: middle; font-size: 12px;" y="539.8341064453125" x="1421.5234375" id="rel7" class="er relationshipLabel">hasCertification</text><rect height="14" width="97.328125" y="477.1884765625" x="1479.0457763671875" class="er relationshipLabelBox"/><text style="text-anchor: middle; dominant-baseline: middle; font-size: 12px;" y="484.1884765625" x="1527.7098388671875" id="rel8" class="er relationshipLabel">hasOfferCatalog</text><rect height="14" width="88.0625" y="454.6194763183594" x="1607.8956298828125" class="er relationshipLabelBox"/><text style="text-anchor: middle; dominant-baseline: middle; font-size: 12px;" y="461.6194763183594" x="1651.9268798828125" id="rel9" class="er relationshipLabel">hoursAvailable</text><rect height="14" width="55.09375" y="451.826904296875" x="1724.31884765625" class="er relationshipLabelBox"/><text style="text-anchor: middle; dominant-baseline: middle; font-size: 12px;" y="458.826904296875" x="1751.86572265625" id="rel10" class="er relationshipLabel">produces</text><rect height="14" width="97.125" y="502.97760009765625" x="973.7445678710938" class="er relationshipLabelBox"/><text style="text-anchor: middle; dominant-baseline: middle; font-size: 12px;" y="509.97760009765625" x="1022.3070678710938" id="rel11" class="er relationshipLabel">providerMobility</text><rect height="14" width="39.87109375" y="439.5964660644531" x="1853.0572509765625" class="er relationshipLabelBox"/><text style="text-anchor: middle; dominant-baseline: middle; font-size: 12px;" y="446.5964660644531" x="1872.9927978515625" id="rel12" class="er relationshipLabel">review</text><rect height="14" width="98.71875" y="458.11279296875" x="787.9349975585938" class="er relationshipLabelBox"/><text style="text-anchor: middle; dominant-baseline: middle; font-size: 12px;" y="465.11279296875" x="837.2943725585938" id="rel13" class="er relationshipLabel">serviceAudience</text><rect height="14" width="84.962890625" y="440.8968200683594" x="1749.076904296875" class="er relationshipLabelBox"/><text style="text-anchor: middle; dominant-baseline: middle; font-size: 12px;" y="447.8968200683594" x="1791.558349609375" id="rel14" class="er relationshipLabel">serviceOutput</text><rect height="14" width="39.515625" y="527.9205322265625" x="1059.4072265625" class="er relationshipLabelBox"/><text style="text-anchor: middle; dominant-baseline: middle; font-size: 12px;" y="534.9205322265625" x="1079.1650390625" id="rel15" class="er relationshipLabel">slogan</text><rect height="14" width="89.953125" y="571.4161376953125" x="1099.7835693359375" class="er relationshipLabelBox"/><text style="text-anchor: middle; dominant-baseline: middle; font-size: 12px;" y="578.4161376953125" x="1144.7601318359375" id="rel16" class="er relationshipLabel">alternateName</text><rect height="14" width="161.390625" y="586.4190063476562" x="1133.0772705078125" class="er relationshipLabelBox"/><text style="text-anchor: middle; dominant-baseline: middle; font-size: 12px;" y="593.4190063476562" x="1213.7725830078125" id="rel17" class="er relationshipLabel">disambiguatingDescription</text><rect height="14" width="34.03125" y="598.436279296875" x="1243.536865234375" class="er relationshipLabelBox"/><text style="text-anchor: middle; dominant-baseline: middle; font-size: 12px;" y="605.436279296875" x="1260.552490234375" id="rel18" class="er relationshipLabel">name</text><rect height="14" width="47.140625" y="439.4324645996094" x="1934.1915283203125" class="er relationshipLabelBox"/><text style="text-anchor: middle; dominant-baseline: middle; font-size: 12px;" y="446.4324645996094" x="1957.7618408203125" id="rel19" class="er relationshipLabel">sameAs</text><rect height="14" width="90.96875" y="433.8747863769531" x="2026.112548828125" class="er relationshipLabelBox"/><text style="text-anchor: middle; dominant-baseline: middle; font-size: 12px;" y="440.8747863769531" x="2071.596923828125" id="rel20" class="er relationshipLabel">potentialAction</text><rect height="14" width="15.875" y="433.8417663574219" x="1980.9393310546875" class="er relationshipLabelBox"/><text style="text-anchor: middle; dominant-baseline: middle; font-size: 12px;" y="440.8417663574219" x="1988.8768310546875" id="rel21" class="er relationshipLabel">url</text></svg>