<svg aria-roledescription="er" role="graphics-document document" viewBox="0 0 846.8671875 512" style="max-width: 846.867px; background-color: white;" xmlns:xlink="http://www.w3.org/1999/xlink" xmlns="http://www.w3.org/2000/svg" width="100%" id="my-svg"><style>#my-svg{font-family:"trebuchet ms",verdana,arial,sans-serif;font-size:16px;fill:#333;}#my-svg .error-icon{fill:#552222;}#my-svg .error-text{fill:#552222;stroke:#552222;}#my-svg .edge-thickness-normal{stroke-width:1px;}#my-svg .edge-thickness-thick{stroke-width:3.5px;}#my-svg .edge-pattern-solid{stroke-dasharray:0;}#my-svg .edge-thickness-invisible{stroke-width:0;fill:none;}#my-svg .edge-pattern-dashed{stroke-dasharray:3;}#my-svg .edge-pattern-dotted{stroke-dasharray:2;}#my-svg .marker{fill:#333333;stroke:#333333;}#my-svg .marker.cross{stroke:#333333;}#my-svg svg{font-family:"trebuchet ms",verdana,arial,sans-serif;font-size:16px;}#my-svg p{margin:0;}#my-svg .entityBox{fill:#ECECFF;stroke:#9370DB;}#my-svg .attributeBoxOdd{fill:#ffffff;stroke:#9370DB;}#my-svg .attributeBoxEven{fill:#f2f2f2;stroke:#9370DB;}#my-svg .relationshipLabelBox{fill:hsl(80, 100%, 96.2745098039%);opacity:0.7;background-color:hsl(80, 100%, 96.2745098039%);}#my-svg .relationshipLabelBox rect{opacity:0.5;}#my-svg .relationshipLine{stroke:#333333;}#my-svg .entityTitleText{text-anchor:middle;font-size:18px;fill:#333;}#my-svg #MD_PARENT_START{fill:#f5f5f5!important;stroke:#333333!important;stroke-width:1;}#my-svg #MD_PARENT_END{fill:#f5f5f5!important;stroke:#333333!important;stroke-width:1;}#my-svg :root{--mermaid-font-family:"trebuchet ms",verdana,arial,sans-serif;}</style><g/><defs><marker orient="auto" markerHeight="240" markerWidth="190" refY="7" refX="0" id="MD_PARENT_START"><path d="M 18,7 L9,13 L1,7 L9,1 Z"/></marker></defs><defs><marker orient="auto" markerHeight="28" markerWidth="20" refY="7" refX="19" id="MD_PARENT_END"><path d="M 18,7 L9,13 L1,7 L9,1 Z"/></marker></defs><defs><marker orient="auto" markerHeight="18" markerWidth="18" refY="9" refX="0" id="ONLY_ONE_START"><path d="M9,0 L9,18 M15,0 L15,18" fill="none" stroke="gray"/></marker></defs><defs><marker orient="auto" markerHeight="18" markerWidth="18" refY="9" refX="18" id="ONLY_ONE_END"><path d="M3,0 L3,18 M9,0 L9,18" fill="none" stroke="gray"/></marker></defs><defs><marker orient="auto" markerHeight="18" markerWidth="30" refY="9" refX="0" id="ZERO_OR_ONE_START"><circle r="6" cy="9" cx="21" fill="white" stroke="gray"/><path d="M9,0 L9,18" fill="none" stroke="gray"/></marker></defs><defs><marker orient="auto" markerHeight="18" markerWidth="30" refY="9" refX="30" id="ZERO_OR_ONE_END"><circle r="6" cy="9" cx="9" fill="white" stroke="gray"/><path d="M21,0 L21,18" fill="none" stroke="gray"/></marker></defs><defs><marker orient="auto" markerHeight="36" markerWidth="45" refY="18" refX="18" id="ONE_OR_MORE_START"><path d="M0,18 Q 18,0 36,18 Q 18,36 0,18 M42,9 L42,27" fill="none" stroke="gray"/></marker></defs><defs><marker orient="auto" markerHeight="36" markerWidth="45" refY="18" refX="27" id="ONE_OR_MORE_END"><path d="M3,9 L3,27 M9,18 Q27,0 45,18 Q27,36 9,18" fill="none" stroke="gray"/></marker></defs><defs><marker orient="auto" markerHeight="36" markerWidth="57" refY="18" refX="18" id="ZERO_OR_MORE_START"><circle r="6" cy="18" cx="48" fill="white" stroke="gray"/><path d="M0,18 Q18,0 36,18 Q18,36 0,18" fill="none" stroke="gray"/></marker></defs><defs><marker orient="auto" markerHeight="36" markerWidth="57" refY="18" refX="39" id="ZERO_OR_MORE_END"><circle r="6" cy="18" cx="9" fill="white" stroke="gray"/><path d="M21,18 Q39,0 57,18 Q39,36 21,18" fill="none" stroke="gray"/></marker></defs><path style="stroke: gray; fill: none;" marker-start="url(#ONLY_ONE_START)" marker-end="url(#ZERO_OR_MORE_END)" d="M323.348,228.568L282.268,251.64C241.188,274.712,159.027,320.856,117.947,352.261C76.867,383.667,76.867,400.333,76.867,408.667L76.867,417" class="er relationshipLine"/><path style="stroke: gray; fill: none;" marker-start="url(#ONLY_ONE_START)" marker-end="url(#ZERO_OR_MORE_END)" d="M323.348,252.27L298.934,271.392C274.521,290.513,225.694,328.757,232.23,358.711C238.766,388.664,300.664,410.329,331.613,421.161L362.563,431.993" class="er relationshipLine"/><path style="stroke: gray; fill: none;" marker-start="url(#ONLY_ONE_START)" marker-end="url(#ZERO_OR_MORE_END)" d="M323.348,306.867L315.601,316.889C307.854,326.912,292.361,346.956,298.9,365.311C305.439,383.667,334.01,400.333,348.296,408.667L362.581,417" class="er relationshipLine"/><path style="stroke: gray; fill: none;" marker-start="url(#ONLY_ONE_START)" marker-end="url(#ZERO_OR_MORE_END)" d="M390.327,317L388.083,325.333C385.84,333.667,381.354,350.333,383.872,367C386.391,383.667,395.915,400.333,400.677,408.667L405.439,417" class="er relationshipLine"/><path style="stroke: gray; fill: none;" marker-start="url(#ONLY_ONE_START)" marker-end="url(#ZERO_OR_MORE_END)" d="M465.138,317L467.093,325.333C469.047,333.667,472.957,350.333,470.15,367C467.343,383.667,457.82,400.333,453.058,408.667L448.296,417" class="er relationshipLine"/><path style="stroke: gray; fill: none;" marker-start="url(#ONLY_ONE_START)" marker-end="url(#ZERO_OR_MORE_END)" d="M537.254,313.35L543.856,322.292C550.458,331.234,563.663,349.117,555.979,366.392C548.296,383.667,519.724,400.333,505.439,408.667L491.153,417" class="er relationshipLine"/><path style="stroke: gray; fill: none;" marker-start="url(#ONLY_ONE_START)" marker-end="url(#ZERO_OR_MORE_END)" d="M537.254,254.603L560.523,273.336C583.792,292.069,630.329,329.534,622.649,359.099C614.969,388.664,553.07,410.329,522.121,421.161L491.172,431.993" class="er relationshipLine"/><path style="stroke: gray; fill: none;" marker-start="url(#ONLY_ONE_START)" marker-end="url(#ZERO_OR_MORE_END)" d="M537.254,229.759L577.189,252.632C617.125,275.506,696.996,321.253,736.932,352.46C776.867,383.667,776.867,400.333,776.867,408.667L776.867,417" class="er relationshipLine"/><g transform="translate(323.34765625,20 )" id="entity-DriveWheelConfigurationValue-c09a5209-d9b6-511e-8ec5-bb7dcab50284"><rect height="297" width="213.90625" y="0" x="0" class="er entityBox"/><text style="dominant-baseline: middle; text-anchor: middle; font-size: 12px;" transform="translate(106.953125,12)" y="0" x="0" id="text-entity-DriveWheelConfigurationValue-c09a5209-d9b6-511e-8ec5-bb7dcab50284" class="er entityLabel">DriveWheelConfigurationValue</text><rect height="21" width="61.9765625" y="24" x="0" class="er attributeBoxOdd"/><text style="dominant-baseline: middle; font-size: 10.2px;" transform="translate(5,34.5)" y="0" x="0" id="text-entity-DriveWheelConfigurationValue-c09a5209-d9b6-511e-8ec5-bb7dcab50284-attr-1-type" class="er entityLabel">stringList</text><rect height="21" width="151.9296875" y="24" x="61.9765625" class="er attributeBoxOdd"/><text style="dominant-baseline: middle; font-size: 10.2px;" transform="translate(66.9765625,34.5)" y="0" x="0" id="text-entity-DriveWheelConfigurationValue-c09a5209-d9b6-511e-8ec5-bb7dcab50284-attr-1-name" class="er entityLabel">valueReference</text><rect height="21" width="61.9765625" y="45" x="0" class="er attributeBoxEven"/><text style="dominant-baseline: middle; font-size: 10.2px;" transform="translate(5,55.5)" y="0" x="0" id="text-entity-DriveWheelConfigurationValue-c09a5209-d9b6-511e-8ec5-bb7dcab50284-attr-2-type" class="er entityLabel">stringList</text><rect height="21" width="151.9296875" y="45" x="61.9765625" class="er attributeBoxEven"/><text style="dominant-baseline: middle; font-size: 10.2px;" transform="translate(66.9765625,55.5)" y="0" x="0" id="text-entity-DriveWheelConfigurationValue-c09a5209-d9b6-511e-8ec5-bb7dcab50284-attr-2-name" class="er entityLabel">supersededBy</text><rect height="21" width="61.9765625" y="66" x="0" class="er attributeBoxOdd"/><text style="dominant-baseline: middle; font-size: 10.2px;" transform="translate(5,76.5)" y="0" x="0" id="text-entity-DriveWheelConfigurationValue-c09a5209-d9b6-511e-8ec5-bb7dcab50284-attr-3-type" class="er entityLabel">stringList</text><rect height="21" width="151.9296875" y="66" x="61.9765625" class="er attributeBoxOdd"/><text style="dominant-baseline: middle; font-size: 10.2px;" transform="translate(66.9765625,76.5)" y="0" x="0" id="text-entity-DriveWheelConfigurationValue-c09a5209-d9b6-511e-8ec5-bb7dcab50284-attr-3-name" class="er entityLabel">additionalType</text><rect height="21" width="61.9765625" y="87" x="0" class="er attributeBoxEven"/><text style="dominant-baseline: middle; font-size: 10.2px;" transform="translate(5,97.5)" y="0" x="0" id="text-entity-DriveWheelConfigurationValue-c09a5209-d9b6-511e-8ec5-bb7dcab50284-attr-4-type" class="er entityLabel">TextList</text><rect height="21" width="151.9296875" y="87" x="61.9765625" class="er attributeBoxEven"/><text style="dominant-baseline: middle; font-size: 10.2px;" transform="translate(66.9765625,97.5)" y="0" x="0" id="text-entity-DriveWheelConfigurationValue-c09a5209-d9b6-511e-8ec5-bb7dcab50284-attr-4-name" class="er entityLabel">alternateName</text><rect height="21" width="61.9765625" y="108" x="0" class="er attributeBoxOdd"/><text style="dominant-baseline: middle; font-size: 10.2px;" transform="translate(5,118.5)" y="0" x="0" id="text-entity-DriveWheelConfigurationValue-c09a5209-d9b6-511e-8ec5-bb7dcab50284-attr-5-type" class="er entityLabel">stringList</text><rect height="21" width="151.9296875" y="108" x="61.9765625" class="er attributeBoxOdd"/><text style="dominant-baseline: middle; font-size: 10.2px;" transform="translate(66.9765625,118.5)" y="0" x="0" id="text-entity-DriveWheelConfigurationValue-c09a5209-d9b6-511e-8ec5-bb7dcab50284-attr-5-name" class="er entityLabel">description</text><rect height="21" width="61.9765625" y="129" x="0" class="er attributeBoxEven"/><text style="dominant-baseline: middle; font-size: 10.2px;" transform="translate(5,139.5)" y="0" x="0" id="text-entity-DriveWheelConfigurationValue-c09a5209-d9b6-511e-8ec5-bb7dcab50284-attr-6-type" class="er entityLabel">TextList</text><rect height="21" width="151.9296875" y="129" x="61.9765625" class="er attributeBoxEven"/><text style="dominant-baseline: middle; font-size: 10.2px;" transform="translate(66.9765625,139.5)" y="0" x="0" id="text-entity-DriveWheelConfigurationValue-c09a5209-d9b6-511e-8ec5-bb7dcab50284-attr-6-name" class="er entityLabel">disambiguatingDescription</text><rect height="21" width="61.9765625" y="150" x="0" class="er attributeBoxOdd"/><text style="dominant-baseline: middle; font-size: 10.2px;" transform="translate(5,160.5)" y="0" x="0" id="text-entity-DriveWheelConfigurationValue-c09a5209-d9b6-511e-8ec5-bb7dcab50284-attr-7-type" class="er entityLabel">stringList</text><rect height="21" width="151.9296875" y="150" x="61.9765625" class="er attributeBoxOdd"/><text style="dominant-baseline: middle; font-size: 10.2px;" transform="translate(66.9765625,160.5)" y="0" x="0" id="text-entity-DriveWheelConfigurationValue-c09a5209-d9b6-511e-8ec5-bb7dcab50284-attr-7-name" class="er entityLabel">identifier</text><rect height="21" width="61.9765625" y="171" x="0" class="er attributeBoxEven"/><text style="dominant-baseline: middle; font-size: 10.2px;" transform="translate(5,181.5)" y="0" x="0" id="text-entity-DriveWheelConfigurationValue-c09a5209-d9b6-511e-8ec5-bb7dcab50284-attr-8-type" class="er entityLabel">stringList</text><rect height="21" width="151.9296875" y="171" x="61.9765625" class="er attributeBoxEven"/><text style="dominant-baseline: middle; font-size: 10.2px;" transform="translate(66.9765625,181.5)" y="0" x="0" id="text-entity-DriveWheelConfigurationValue-c09a5209-d9b6-511e-8ec5-bb7dcab50284-attr-8-name" class="er entityLabel">image</text><rect height="21" width="61.9765625" y="192" x="0" class="er attributeBoxOdd"/><text style="dominant-baseline: middle; font-size: 10.2px;" transform="translate(5,202.5)" y="0" x="0" id="text-entity-DriveWheelConfigurationValue-c09a5209-d9b6-511e-8ec5-bb7dcab50284-attr-9-type" class="er entityLabel">TextList</text><rect height="21" width="151.9296875" y="192" x="61.9765625" class="er attributeBoxOdd"/><text style="dominant-baseline: middle; font-size: 10.2px;" transform="translate(66.9765625,202.5)" y="0" x="0" id="text-entity-DriveWheelConfigurationValue-c09a5209-d9b6-511e-8ec5-bb7dcab50284-attr-9-name" class="er entityLabel">name</text><rect height="21" width="61.9765625" y="213" x="0" class="er attributeBoxEven"/><text style="dominant-baseline: middle; font-size: 10.2px;" transform="translate(5,223.5)" y="0" x="0" id="text-entity-DriveWheelConfigurationValue-c09a5209-d9b6-511e-8ec5-bb7dcab50284-attr-10-type" class="er entityLabel">URLList</text><rect height="21" width="151.9296875" y="213" x="61.9765625" class="er attributeBoxEven"/><text style="dominant-baseline: middle; font-size: 10.2px;" transform="translate(66.9765625,223.5)" y="0" x="0" id="text-entity-DriveWheelConfigurationValue-c09a5209-d9b6-511e-8ec5-bb7dcab50284-attr-10-name" class="er entityLabel">sameAs</text><rect height="21" width="61.9765625" y="234" x="0" class="er attributeBoxOdd"/><text style="dominant-baseline: middle; font-size: 10.2px;" transform="translate(5,244.5)" y="0" x="0" id="text-entity-DriveWheelConfigurationValue-c09a5209-d9b6-511e-8ec5-bb7dcab50284-attr-11-type" class="er entityLabel">stringList</text><rect height="21" width="151.9296875" y="234" x="61.9765625" class="er attributeBoxOdd"/><text style="dominant-baseline: middle; font-size: 10.2px;" transform="translate(66.9765625,244.5)" y="0" x="0" id="text-entity-DriveWheelConfigurationValue-c09a5209-d9b6-511e-8ec5-bb7dcab50284-attr-11-name" class="er entityLabel">mainEntityOfPage</text><rect height="21" width="61.9765625" y="255" x="0" class="er attributeBoxEven"/><text style="dominant-baseline: middle; font-size: 10.2px;" transform="translate(5,265.5)" y="0" x="0" id="text-entity-DriveWheelConfigurationValue-c09a5209-d9b6-511e-8ec5-bb7dcab50284-attr-12-type" class="er entityLabel">stringList</text><rect height="21" width="151.9296875" y="255" x="61.9765625" class="er attributeBoxEven"/><text style="dominant-baseline: middle; font-size: 10.2px;" transform="translate(66.9765625,265.5)" y="0" x="0" id="text-entity-DriveWheelConfigurationValue-c09a5209-d9b6-511e-8ec5-bb7dcab50284-attr-12-name" class="er entityLabel">subjectOf</text><rect height="21" width="61.9765625" y="276" x="0" class="er attributeBoxOdd"/><text style="dominant-baseline: middle; font-size: 10.2px;" transform="translate(5,286.5)" y="0" x="0" id="text-entity-DriveWheelConfigurationValue-c09a5209-d9b6-511e-8ec5-bb7dcab50284-attr-13-type" class="er entityLabel">URLList</text><rect height="21" width="151.9296875" y="276" x="61.9765625" class="er attributeBoxOdd"/><text style="dominant-baseline: middle; font-size: 10.2px;" transform="translate(66.9765625,286.5)" y="0" x="0" id="text-entity-DriveWheelConfigurationValue-c09a5209-d9b6-511e-8ec5-bb7dcab50284-attr-13-name" class="er entityLabel">url</text></g><g transform="translate(20,417 )" id="entity-PropertyValue-0e208f6c-77f8-5d2e-b4a4-9a09101a021a"><rect height="75" width="113.734375" y="0" x="0" class="er entityBox"/><text style="dominant-baseline: middle; text-anchor: middle; font-size: 12px;" transform="translate(56.8671875,37.5)" y="0" x="0" id="text-entity-PropertyValue-0e208f6c-77f8-5d2e-b4a4-9a09101a021a" class="er entityLabel">PropertyValue</text></g><g transform="translate(362.5625,417 )" id="entity-QualitativeValue-33ae9988-fb34-53ed-b9e5-5b5d88f226a2"><rect height="75" width="128.609375" y="0" x="0" class="er entityBox"/><text style="dominant-baseline: middle; text-anchor: middle; font-size: 12px;" transform="translate(64.3046875,37.5)" y="0" x="0" id="text-entity-QualitativeValue-33ae9988-fb34-53ed-b9e5-5b5d88f226a2" class="er entityLabel">QualitativeValue</text></g><g transform="translate(726.8671875,417 )" id="entity-Action-6cd87d9a-a078-546e-a35b-bee54f477b31"><rect height="75" width="100" y="0" x="0" class="er entityBox"/><text style="dominant-baseline: middle; text-anchor: middle; font-size: 12px;" transform="translate(50,37.5)" y="0" x="0" id="text-entity-Action-6cd87d9a-a078-546e-a35b-bee54f477b31" class="er entityLabel">Action</text></g><rect height="14" width="110.375" y="301.3145751953125" x="129.15101623535156" class="er relationshipLabelBox"/><text style="text-anchor: middle; dominant-baseline: middle; font-size: 12px;" y="308.3145751953125" x="184.33851623535156" id="rel1" class="er relationshipLabel">additionalProperty</text><rect height="14" width="33.296875" y="355.7837219238281" x="216.82359313964844" class="er relationshipLabelBox"/><text style="text-anchor: middle; dominant-baseline: middle; font-size: 12px;" y="362.7837219238281" x="233.47203063964844" id="rel2" class="er relationshipLabel">equal</text><rect height="14" width="44.111328125" y="365.95867919921875" x="280.82427978515625" class="er relationshipLabelBox"/><text style="text-anchor: middle; dominant-baseline: middle; font-size: 12px;" y="372.95867919921875" x="302.87994384765625" id="rel3" class="er relationshipLabel">greater</text><rect height="14" width="91.921875" y="361.95355224609375" x="338.2377624511719" class="er relationshipLabelBox"/><text style="text-anchor: middle; dominant-baseline: middle; font-size: 12px;" y="368.95355224609375" x="384.1986999511719" id="rel4" class="er relationshipLabel">greaterOrEqual</text><rect height="14" width="35.603515625" y="362.08526611328125" x="451.96246337890625" class="er relationshipLabelBox"/><text style="text-anchor: middle; dominant-baseline: middle; font-size: 12px;" y="369.08526611328125" x="469.76422119140625" id="rel5" class="er relationshipLabel">lesser</text><rect height="14" width="83.421875" y="369.3994445800781" x="507.6268310546875" class="er relationshipLabelBox"/><text style="text-anchor: middle; dominant-baseline: middle; font-size: 12px;" y="376.3994445800781" x="549.3377685546875" id="rel6" class="er relationshipLabel">lesserOrEqual</text><rect height="14" width="56.046875" y="358.558837890625" x="592.049560546875" class="er relationshipLabelBox"/><text style="text-anchor: middle; dominant-baseline: middle; font-size: 12px;" y="365.558837890625" x="620.072998046875" id="rel7" class="er relationshipLabel">nonEqual</text><rect height="14" width="90.96875" y="302.1179504394531" x="627.3629760742188" class="er relationshipLabelBox"/><text style="text-anchor: middle; dominant-baseline: middle; font-size: 12px;" y="309.1179504394531" x="672.8473510742188" id="rel8" class="er relationshipLabel">potentialAction</text></svg>