<svg aria-roledescription="er" role="graphics-document document" viewBox="0 0 1396.8671875 407" style="max-width: 1396.87px; background-color: white;" xmlns:xlink="http://www.w3.org/1999/xlink" xmlns="http://www.w3.org/2000/svg" width="100%" id="my-svg"><style>#my-svg{font-family:"trebuchet ms",verdana,arial,sans-serif;font-size:16px;fill:#333;}#my-svg .error-icon{fill:#552222;}#my-svg .error-text{fill:#552222;stroke:#552222;}#my-svg .edge-thickness-normal{stroke-width:1px;}#my-svg .edge-thickness-thick{stroke-width:3.5px;}#my-svg .edge-pattern-solid{stroke-dasharray:0;}#my-svg .edge-thickness-invisible{stroke-width:0;fill:none;}#my-svg .edge-pattern-dashed{stroke-dasharray:3;}#my-svg .edge-pattern-dotted{stroke-dasharray:2;}#my-svg .marker{fill:#333333;stroke:#333333;}#my-svg .marker.cross{stroke:#333333;}#my-svg svg{font-family:"trebuchet ms",verdana,arial,sans-serif;font-size:16px;}#my-svg p{margin:0;}#my-svg .entityBox{fill:#ECECFF;stroke:#9370DB;}#my-svg .attributeBoxOdd{fill:#ffffff;stroke:#9370DB;}#my-svg .attributeBoxEven{fill:#f2f2f2;stroke:#9370DB;}#my-svg .relationshipLabelBox{fill:hsl(80, 100%, 96.2745098039%);opacity:0.7;background-color:hsl(80, 100%, 96.2745098039%);}#my-svg .relationshipLabelBox rect{opacity:0.5;}#my-svg .relationshipLine{stroke:#333333;}#my-svg .entityTitleText{text-anchor:middle;font-size:18px;fill:#333;}#my-svg #MD_PARENT_START{fill:#f5f5f5!important;stroke:#333333!important;stroke-width:1;}#my-svg #MD_PARENT_END{fill:#f5f5f5!important;stroke:#333333!important;stroke-width:1;}#my-svg :root{--mermaid-font-family:"trebuchet ms",verdana,arial,sans-serif;}</style><g/><defs><marker orient="auto" markerHeight="240" markerWidth="190" refY="7" refX="0" id="MD_PARENT_START"><path d="M 18,7 L9,13 L1,7 L9,1 Z"/></marker></defs><defs><marker orient="auto" markerHeight="28" markerWidth="20" refY="7" refX="19" id="MD_PARENT_END"><path d="M 18,7 L9,13 L1,7 L9,1 Z"/></marker></defs><defs><marker orient="auto" markerHeight="18" markerWidth="18" refY="9" refX="0" id="ONLY_ONE_START"><path d="M9,0 L9,18 M15,0 L15,18" fill="none" stroke="gray"/></marker></defs><defs><marker orient="auto" markerHeight="18" markerWidth="18" refY="9" refX="18" id="ONLY_ONE_END"><path d="M3,0 L3,18 M9,0 L9,18" fill="none" stroke="gray"/></marker></defs><defs><marker orient="auto" markerHeight="18" markerWidth="30" refY="9" refX="0" id="ZERO_OR_ONE_START"><circle r="6" cy="9" cx="21" fill="white" stroke="gray"/><path d="M9,0 L9,18" fill="none" stroke="gray"/></marker></defs><defs><marker orient="auto" markerHeight="18" markerWidth="30" refY="9" refX="30" id="ZERO_OR_ONE_END"><circle r="6" cy="9" cx="9" fill="white" stroke="gray"/><path d="M21,0 L21,18" fill="none" stroke="gray"/></marker></defs><defs><marker orient="auto" markerHeight="36" markerWidth="45" refY="18" refX="18" id="ONE_OR_MORE_START"><path d="M0,18 Q 18,0 36,18 Q 18,36 0,18 M42,9 L42,27" fill="none" stroke="gray"/></marker></defs><defs><marker orient="auto" markerHeight="36" markerWidth="45" refY="18" refX="27" id="ONE_OR_MORE_END"><path d="M3,9 L3,27 M9,18 Q27,0 45,18 Q27,36 9,18" fill="none" stroke="gray"/></marker></defs><defs><marker orient="auto" markerHeight="36" markerWidth="57" refY="18" refX="18" id="ZERO_OR_MORE_START"><circle r="6" cy="18" cx="48" fill="white" stroke="gray"/><path d="M0,18 Q18,0 36,18 Q18,36 0,18" fill="none" stroke="gray"/></marker></defs><defs><marker orient="auto" markerHeight="36" markerWidth="57" refY="18" refX="39" id="ZERO_OR_MORE_END"><circle r="6" cy="18" cx="9" fill="white" stroke="gray"/><path d="M21,18 Q39,0 57,18 Q39,36 21,18" fill="none" stroke="gray"/></marker></defs><path style="stroke: gray; fill: none;" marker-start="url(#ONLY_ONE_START)" marker-end="url(#ZERO_OR_MORE_END)" d="M630.5,139.638L538.228,160.032C445.956,180.426,261.411,221.213,169.139,249.94C76.867,278.667,76.867,295.333,76.867,303.667L76.867,312" class="er relationshipLine"/><path style="stroke: gray; fill: none;" marker-start="url(#ONLY_ONE_START)" marker-end="url(#ZERO_OR_MORE_END)" d="M630.5,143.855L554.895,163.546C479.289,183.237,328.078,222.618,283.422,253.141C238.766,283.664,300.664,305.329,331.613,316.161L362.563,326.993" class="er relationshipLine"/><path style="stroke: gray; fill: none;" marker-start="url(#ONLY_ONE_START)" marker-end="url(#ZERO_OR_MORE_END)" d="M630.5,149.903L571.561,168.586C512.622,187.269,394.745,224.634,350.092,251.65C305.439,278.667,334.01,295.333,348.296,303.667L362.581,312" class="er relationshipLine"/><path style="stroke: gray; fill: none;" marker-start="url(#ONLY_ONE_START)" marker-end="url(#ZERO_OR_MORE_END)" d="M630.5,159.305L588.228,176.421C545.956,193.537,461.411,227.768,423.901,253.217C386.391,278.667,395.915,295.333,400.677,303.667L405.439,312" class="er relationshipLine"/><path style="stroke: gray; fill: none;" marker-start="url(#ONLY_ONE_START)" marker-end="url(#ZERO_OR_MORE_END)" d="M630.5,175.923L604.895,190.269C579.289,204.615,528.078,233.308,497.711,255.987C467.343,278.667,457.82,295.333,453.058,303.667L448.296,312" class="er relationshipLine"/><path style="stroke: gray; fill: none;" marker-start="url(#ONLY_ONE_START)" marker-end="url(#ZERO_OR_MORE_END)" d="M631.862,212L622.697,220.333C613.531,228.667,595.199,245.333,571.747,262C548.296,278.667,519.724,295.333,505.439,303.667L491.153,312" class="er relationshipLine"/><path style="stroke: gray; fill: none;" marker-start="url(#ONLY_ONE_START)" marker-end="url(#ZERO_OR_MORE_END)" d="M697.616,212L694.158,220.333C690.7,228.667,683.783,245.333,649.376,264.499C614.969,283.664,553.07,305.329,522.121,316.161L491.172,326.993" class="er relationshipLine"/><path style="stroke: gray; fill: none;" marker-start="url(#ONLY_ONE_START)" marker-end="url(#ZERO_OR_MORE_END)" d="M763.369,212L765.619,220.333C767.869,228.667,772.368,245.333,791.284,263.389C810.201,281.444,843.534,300.889,860.201,310.611L876.867,320.333" class="er relationshipLine"/><path style="stroke: gray; fill: none;" marker-start="url(#ONLY_ONE_START)" marker-end="url(#ZERO_OR_MORE_END)" d="M829.123,212L837.08,220.333C845.037,228.667,860.952,245.333,873.672,262C886.391,278.667,895.915,295.333,900.677,303.667L905.439,312" class="er relationshipLine"/><path style="stroke: gray; fill: none;" marker-start="url(#ONLY_ONE_START)" marker-end="url(#ZERO_OR_MORE_END)" d="M844.406,181.222L866.483,194.685C888.56,208.148,932.714,235.074,950.028,256.87C967.343,278.667,957.82,295.333,953.058,303.667L948.296,312" class="er relationshipLine"/><path style="stroke: gray; fill: none;" marker-start="url(#ONLY_ONE_START)" marker-end="url(#ZERO_OR_MORE_END)" d="M844.406,162.006L883.15,178.672C921.893,195.337,999.38,228.669,1042.886,253.668C1086.391,278.667,1095.915,295.333,1100.677,303.667L1105.439,312" class="er relationshipLine"/><path style="stroke: gray; fill: none;" marker-start="url(#ONLY_ONE_START)" marker-end="url(#ZERO_OR_MORE_END)" d="M844.406,142.493L924.816,162.411C1005.227,182.328,1166.047,222.164,1246.457,250.415C1326.867,278.667,1326.867,295.333,1326.867,303.667L1326.867,312" class="er relationshipLine"/><path style="stroke: gray; fill: none;" marker-start="url(#ONLY_ONE_START)" marker-end="url(#ZERO_OR_MORE_END)" d="M844.406,151.536L899.816,169.947C955.227,188.358,1066.047,225.179,1116.695,251.923C1167.343,278.667,1157.82,295.333,1153.058,303.667L1148.296,312" class="er relationshipLine"/><g transform="translate(630.5,20 )" id="entity-DriveWheelConfigurationValue-c09a5209-d9b6-511e-8ec5-bb7dcab50284"><rect height="192" width="213.90625" y="0" x="0" class="er entityBox"/><text style="dominant-baseline: middle; text-anchor: middle; font-size: 12px;" transform="translate(106.953125,12)" y="0" x="0" id="text-entity-DriveWheelConfigurationValue-c09a5209-d9b6-511e-8ec5-bb7dcab50284" class="er entityLabel">DriveWheelConfigurationValue</text><rect height="21" width="84.75" y="24" x="0" class="er attributeBoxOdd"/><text style="dominant-baseline: middle; font-size: 10.2px;" transform="translate(5,34.5)" y="0" x="0" id="text-entity-DriveWheelConfigurationValue-c09a5209-d9b6-511e-8ec5-bb7dcab50284-attr-1-type" class="er entityLabel">stringList</text><rect height="21" width="129.15625" y="24" x="84.75" class="er attributeBoxOdd"/><text style="dominant-baseline: middle; font-size: 10.2px;" transform="translate(89.75,34.5)" y="0" x="0" id="text-entity-DriveWheelConfigurationValue-c09a5209-d9b6-511e-8ec5-bb7dcab50284-attr-1-name" class="er entityLabel">valueReference</text><rect height="21" width="84.75" y="45" x="0" class="er attributeBoxEven"/><text style="dominant-baseline: middle; font-size: 10.2px;" transform="translate(5,55.5)" y="0" x="0" id="text-entity-DriveWheelConfigurationValue-c09a5209-d9b6-511e-8ec5-bb7dcab50284-attr-2-type" class="er entityLabel">stringList</text><rect height="21" width="129.15625" y="45" x="84.75" class="er attributeBoxEven"/><text style="dominant-baseline: middle; font-size: 10.2px;" transform="translate(89.75,55.5)" y="0" x="0" id="text-entity-DriveWheelConfigurationValue-c09a5209-d9b6-511e-8ec5-bb7dcab50284-attr-2-name" class="er entityLabel">supersededBy</text><rect height="21" width="84.75" y="66" x="0" class="er attributeBoxOdd"/><text style="dominant-baseline: middle; font-size: 10.2px;" transform="translate(5,76.5)" y="0" x="0" id="text-entity-DriveWheelConfigurationValue-c09a5209-d9b6-511e-8ec5-bb7dcab50284-attr-3-type" class="er entityLabel">stringList</text><rect height="21" width="129.15625" y="66" x="84.75" class="er attributeBoxOdd"/><text style="dominant-baseline: middle; font-size: 10.2px;" transform="translate(89.75,76.5)" y="0" x="0" id="text-entity-DriveWheelConfigurationValue-c09a5209-d9b6-511e-8ec5-bb7dcab50284-attr-3-name" class="er entityLabel">additionalType</text><rect height="21" width="84.75" y="87" x="0" class="er attributeBoxEven"/><text style="dominant-baseline: middle; font-size: 10.2px;" transform="translate(5,97.5)" y="0" x="0" id="text-entity-DriveWheelConfigurationValue-c09a5209-d9b6-511e-8ec5-bb7dcab50284-attr-4-type" class="er entityLabel">stringList</text><rect height="21" width="129.15625" y="87" x="84.75" class="er attributeBoxEven"/><text style="dominant-baseline: middle; font-size: 10.2px;" transform="translate(89.75,97.5)" y="0" x="0" id="text-entity-DriveWheelConfigurationValue-c09a5209-d9b6-511e-8ec5-bb7dcab50284-attr-4-name" class="er entityLabel">description</text><rect height="21" width="84.75" y="108" x="0" class="er attributeBoxOdd"/><text style="dominant-baseline: middle; font-size: 10.2px;" transform="translate(5,118.5)" y="0" x="0" id="text-entity-DriveWheelConfigurationValue-c09a5209-d9b6-511e-8ec5-bb7dcab50284-attr-5-type" class="er entityLabel">stringList</text><rect height="21" width="129.15625" y="108" x="84.75" class="er attributeBoxOdd"/><text style="dominant-baseline: middle; font-size: 10.2px;" transform="translate(89.75,118.5)" y="0" x="0" id="text-entity-DriveWheelConfigurationValue-c09a5209-d9b6-511e-8ec5-bb7dcab50284-attr-5-name" class="er entityLabel">identifier</text><rect height="21" width="84.75" y="129" x="0" class="er attributeBoxEven"/><text style="dominant-baseline: middle; font-size: 10.2px;" transform="translate(5,139.5)" y="0" x="0" id="text-entity-DriveWheelConfigurationValue-c09a5209-d9b6-511e-8ec5-bb7dcab50284-attr-6-type" class="er entityLabel">stringList</text><rect height="21" width="129.15625" y="129" x="84.75" class="er attributeBoxEven"/><text style="dominant-baseline: middle; font-size: 10.2px;" transform="translate(89.75,139.5)" y="0" x="0" id="text-entity-DriveWheelConfigurationValue-c09a5209-d9b6-511e-8ec5-bb7dcab50284-attr-6-name" class="er entityLabel">image</text><rect height="21" width="84.75" y="150" x="0" class="er attributeBoxOdd"/><text style="dominant-baseline: middle; font-size: 10.2px;" transform="translate(5,160.5)" y="0" x="0" id="text-entity-DriveWheelConfigurationValue-c09a5209-d9b6-511e-8ec5-bb7dcab50284-attr-7-type" class="er entityLabel">stringList</text><rect height="21" width="129.15625" y="150" x="84.75" class="er attributeBoxOdd"/><text style="dominant-baseline: middle; font-size: 10.2px;" transform="translate(89.75,160.5)" y="0" x="0" id="text-entity-DriveWheelConfigurationValue-c09a5209-d9b6-511e-8ec5-bb7dcab50284-attr-7-name" class="er entityLabel">mainEntityOfPage</text><rect height="21" width="84.75" y="171" x="0" class="er attributeBoxEven"/><text style="dominant-baseline: middle; font-size: 10.2px;" transform="translate(5,181.5)" y="0" x="0" id="text-entity-DriveWheelConfigurationValue-c09a5209-d9b6-511e-8ec5-bb7dcab50284-attr-8-type" class="er entityLabel">stringList</text><rect height="21" width="129.15625" y="171" x="84.75" class="er attributeBoxEven"/><text style="dominant-baseline: middle; font-size: 10.2px;" transform="translate(89.75,181.5)" y="0" x="0" id="text-entity-DriveWheelConfigurationValue-c09a5209-d9b6-511e-8ec5-bb7dcab50284-attr-8-name" class="er entityLabel">subjectOf</text></g><g transform="translate(20,312 )" id="entity-PropertyValue-0e208f6c-77f8-5d2e-b4a4-9a09101a021a"><rect height="75" width="113.734375" y="0" x="0" class="er entityBox"/><text style="dominant-baseline: middle; text-anchor: middle; font-size: 12px;" transform="translate(56.8671875,37.5)" y="0" x="0" id="text-entity-PropertyValue-0e208f6c-77f8-5d2e-b4a4-9a09101a021a" class="er entityLabel">PropertyValue</text></g><g transform="translate(362.5625,312 )" id="entity-QualitativeValue-33ae9988-fb34-53ed-b9e5-5b5d88f226a2"><rect height="75" width="128.609375" y="0" x="0" class="er entityBox"/><text style="dominant-baseline: middle; text-anchor: middle; font-size: 12px;" transform="translate(64.3046875,37.5)" y="0" x="0" id="text-entity-QualitativeValue-33ae9988-fb34-53ed-b9e5-5b5d88f226a2" class="er entityLabel">QualitativeValue</text></g><g transform="translate(876.8671875,312 )" id="entity-Text-426c5d39-acfc-5487-a6d9-ede67887190e"><rect height="75" width="100" y="0" x="0" class="er entityBox"/><text style="dominant-baseline: middle; text-anchor: middle; font-size: 12px;" transform="translate(50,37.5)" y="0" x="0" id="text-entity-Text-426c5d39-acfc-5487-a6d9-ede67887190e" class="er entityLabel">Text</text></g><g transform="translate(1076.8671875,312 )" id="entity-URL-07f78d3e-fd74-5925-b39b-26c1cc2d6b7c"><rect height="75" width="100" y="0" x="0" class="er entityBox"/><text style="dominant-baseline: middle; text-anchor: middle; font-size: 12px;" transform="translate(50,37.5)" y="0" x="0" id="text-entity-URL-07f78d3e-fd74-5925-b39b-26c1cc2d6b7c" class="er entityLabel">URL</text></g><g transform="translate(1276.8671875,312 )" id="entity-Action-6cd87d9a-a078-546e-a35b-bee54f477b31"><rect height="75" width="100" y="0" x="0" class="er entityBox"/><text style="dominant-baseline: middle; text-anchor: middle; font-size: 12px;" transform="translate(50,37.5)" y="0" x="0" id="text-entity-Action-6cd87d9a-a078-546e-a35b-bee54f477b31" class="er entityLabel">Action</text></g><rect height="14" width="110.375" y="197.96395874023438" x="285.406494140625" class="er relationshipLabelBox"/><text style="text-anchor: middle; dominant-baseline: middle; font-size: 12px;" y="204.96395874023438" x="340.593994140625" id="rel1" class="er relationshipLabel">additionalProperty</text><rect height="14" width="33.296875" y="203.6326141357422" x="370.53717041015625" class="er relationshipLabelBox"/><text style="text-anchor: middle; dominant-baseline: middle; font-size: 12px;" y="210.6326141357422" x="387.18560791015625" id="rel2" class="er relationshipLabel">equal</text><rect height="14" width="44.111328125" y="203.2964324951172" x="424.1863708496094" class="er relationshipLabelBox"/><text style="text-anchor: middle; dominant-baseline: middle; font-size: 12px;" y="210.2964324951172" x="446.2420349121094" id="rel3" class="er relationshipLabel">greater</text><rect height="14" width="91.921875" y="210.0742950439453" x="446.4114074707031" class="er relationshipLabelBox"/><text style="text-anchor: middle; dominant-baseline: middle; font-size: 12px;" y="217.0742950439453" x="492.3723449707031" id="rel4" class="er relationshipLabel">greaterOrEqual</text><rect height="14" width="35.603515625" y="226.67236328125" x="512.9288940429688" class="er relationshipLabelBox"/><text style="text-anchor: middle; dominant-baseline: middle; font-size: 12px;" y="233.67236328125" x="530.7306518554688" id="rel5" class="er relationshipLabel">lesser</text><rect height="14" width="83.421875" y="259.7538146972656" x="523.2142944335938" class="er relationshipLabelBox"/><text style="text-anchor: middle; dominant-baseline: middle; font-size: 12px;" y="266.7538146972656" x="564.9252319335938" id="rel6" class="er relationshipLabel">lesserOrEqual</text><rect height="14" width="56.046875" y="278.0504455566406" x="577.4297485351562" class="er relationshipLabelBox"/><text style="text-anchor: middle; dominant-baseline: middle; font-size: 12px;" y="285.0504455566406" x="605.4531860351562" id="rel7" class="er relationshipLabel">nonEqual</text><rect height="14" width="89.953125" y="270.2730712890625" x="763.0570068359375" class="er relationshipLabelBox"/><text style="text-anchor: middle; dominant-baseline: middle; font-size: 12px;" y="277.2730712890625" x="808.0335693359375" id="rel8" class="er relationshipLabel">alternateName</text><rect height="14" width="161.390625" y="251.9505615234375" x="790.6146240234375" class="er relationshipLabelBox"/><text style="text-anchor: middle; dominant-baseline: middle; font-size: 12px;" y="258.9505615234375" x="871.3099365234375" id="rel9" class="er relationshipLabel">disambiguatingDescription</text><rect height="14" width="34.03125" y="226.0755615234375" x="907.29931640625" class="er relationshipLabelBox"/><text style="text-anchor: middle; dominant-baseline: middle; font-size: 12px;" y="233.0755615234375" x="924.31494140625" id="rel10" class="er relationshipLabel">name</text><rect height="14" width="47.140625" y="216.71463012695312" x="960.64794921875" class="er relationshipLabelBox"/><text style="text-anchor: middle; dominant-baseline: middle; font-size: 12px;" y="223.71463012695312" x="984.21826171875" id="rel11" class="er relationshipLabel">sameAs</text><rect height="14" width="90.96875" y="199.9183349609375" x="1053.7764892578125" class="er relationshipLabelBox"/><text style="text-anchor: middle; dominant-baseline: middle; font-size: 12px;" y="206.9183349609375" x="1099.2608642578125" id="rel12" class="er relationshipLabel">potentialAction</text><rect height="14" width="15.875" y="204.5674591064453" x="1012.39013671875" class="er relationshipLabelBox"/><text style="text-anchor: middle; dominant-baseline: middle; font-size: 12px;" y="211.5674591064453" x="1020.32763671875" id="rel13" class="er relationshipLabel">url</text></svg>