<svg aria-roledescription="er" role="graphics-document document" viewBox="0 0 2194.24609375 659" style="max-width: 2194.25px; background-color: white;" xmlns:xlink="http://www.w3.org/1999/xlink" xmlns="http://www.w3.org/2000/svg" width="100%" id="my-svg"><style>#my-svg{font-family:"trebuchet ms",verdana,arial,sans-serif;font-size:16px;fill:#333;}#my-svg .error-icon{fill:#552222;}#my-svg .error-text{fill:#552222;stroke:#552222;}#my-svg .edge-thickness-normal{stroke-width:1px;}#my-svg .edge-thickness-thick{stroke-width:3.5px;}#my-svg .edge-pattern-solid{stroke-dasharray:0;}#my-svg .edge-thickness-invisible{stroke-width:0;fill:none;}#my-svg .edge-pattern-dashed{stroke-dasharray:3;}#my-svg .edge-pattern-dotted{stroke-dasharray:2;}#my-svg .marker{fill:#333333;stroke:#333333;}#my-svg .marker.cross{stroke:#333333;}#my-svg svg{font-family:"trebuchet ms",verdana,arial,sans-serif;font-size:16px;}#my-svg p{margin:0;}#my-svg .entityBox{fill:#ECECFF;stroke:#9370DB;}#my-svg .attributeBoxOdd{fill:#ffffff;stroke:#9370DB;}#my-svg .attributeBoxEven{fill:#f2f2f2;stroke:#9370DB;}#my-svg .relationshipLabelBox{fill:hsl(80, 100%, 96.2745098039%);opacity:0.7;background-color:hsl(80, 100%, 96.2745098039%);}#my-svg .relationshipLabelBox rect{opacity:0.5;}#my-svg .relationshipLine{stroke:#333333;}#my-svg .entityTitleText{text-anchor:middle;font-size:18px;fill:#333;}#my-svg #MD_PARENT_START{fill:#f5f5f5!important;stroke:#333333!important;stroke-width:1;}#my-svg #MD_PARENT_END{fill:#f5f5f5!important;stroke:#333333!important;stroke-width:1;}#my-svg :root{--mermaid-font-family:"trebuchet ms",verdana,arial,sans-serif;}</style><g/><defs><marker orient="auto" markerHeight="240" markerWidth="190" refY="7" refX="0" id="MD_PARENT_START"><path d="M 18,7 L9,13 L1,7 L9,1 Z"/></marker></defs><defs><marker orient="auto" markerHeight="28" markerWidth="20" refY="7" refX="19" id="MD_PARENT_END"><path d="M 18,7 L9,13 L1,7 L9,1 Z"/></marker></defs><defs><marker orient="auto" markerHeight="18" markerWidth="18" refY="9" refX="0" id="ONLY_ONE_START"><path d="M9,0 L9,18 M15,0 L15,18" fill="none" stroke="gray"/></marker></defs><defs><marker orient="auto" markerHeight="18" markerWidth="18" refY="9" refX="18" id="ONLY_ONE_END"><path d="M3,0 L3,18 M9,0 L9,18" fill="none" stroke="gray"/></marker></defs><defs><marker orient="auto" markerHeight="18" markerWidth="30" refY="9" refX="0" id="ZERO_OR_ONE_START"><circle r="6" cy="9" cx="21" fill="white" stroke="gray"/><path d="M9,0 L9,18" fill="none" stroke="gray"/></marker></defs><defs><marker orient="auto" markerHeight="18" markerWidth="30" refY="9" refX="30" id="ZERO_OR_ONE_END"><circle r="6" cy="9" cx="9" fill="white" stroke="gray"/><path d="M21,0 L21,18" fill="none" stroke="gray"/></marker></defs><defs><marker orient="auto" markerHeight="36" markerWidth="45" refY="18" refX="18" id="ONE_OR_MORE_START"><path d="M0,18 Q 18,0 36,18 Q 18,36 0,18 M42,9 L42,27" fill="none" stroke="gray"/></marker></defs><defs><marker orient="auto" markerHeight="36" markerWidth="45" refY="18" refX="27" id="ONE_OR_MORE_END"><path d="M3,9 L3,27 M9,18 Q27,0 45,18 Q27,36 9,18" fill="none" stroke="gray"/></marker></defs><defs><marker orient="auto" markerHeight="36" markerWidth="57" refY="18" refX="18" id="ZERO_OR_MORE_START"><circle r="6" cy="18" cx="48" fill="white" stroke="gray"/><path d="M0,18 Q18,0 36,18 Q18,36 0,18" fill="none" stroke="gray"/></marker></defs><defs><marker orient="auto" markerHeight="36" markerWidth="57" refY="18" refX="39" id="ZERO_OR_MORE_END"><circle r="6" cy="18" cx="9" fill="white" stroke="gray"/><path d="M21,18 Q39,0 57,18 Q39,36 21,18" fill="none" stroke="gray"/></marker></defs><path style="stroke: gray; fill: none;" marker-start="url(#ONLY_ONE_START)" marker-end="url(#ZERO_OR_MORE_END)" d="M1209.27,266.934L1019.391,308.112C829.513,349.289,449.757,431.645,259.878,481.156C70,530.667,70,547.333,70,555.667L70,564" class="er relationshipLine"/><path style="stroke: gray; fill: none;" marker-start="url(#ONLY_ONE_START)" marker-end="url(#ZERO_OR_MORE_END)" d="M1209.27,271.669L1052.749,312.057C896.229,352.446,583.188,433.223,426.667,481.945C270.146,530.667,270.146,547.333,270.146,555.667L270.146,564" class="er relationshipLine"/><path style="stroke: gray; fill: none;" marker-start="url(#ONLY_ONE_START)" marker-end="url(#ZERO_OR_MORE_END)" d="M1209.27,278.622L1086.107,317.852C962.944,357.081,716.618,435.541,593.456,483.104C470.293,530.667,470.293,547.333,470.293,555.667L470.293,564" class="er relationshipLine"/><path style="stroke: gray; fill: none;" marker-start="url(#ONLY_ONE_START)" marker-end="url(#ZERO_OR_MORE_END)" d="M1209.27,289.822L1119.44,327.185C1029.611,364.548,849.952,439.274,760.122,484.97C670.293,530.667,670.293,547.333,670.293,555.667L670.293,564" class="er relationshipLine"/><path style="stroke: gray; fill: none;" marker-start="url(#ONLY_ONE_START)" marker-end="url(#ZERO_OR_MORE_END)" d="M1209.27,307.431L1148.771,341.859C1088.273,376.287,967.277,445.144,914.016,487.905C860.755,530.667,875.229,547.333,882.466,555.667L889.703,564" class="er relationshipLine"/><path style="stroke: gray; fill: none;" marker-start="url(#ONLY_ONE_START)" marker-end="url(#ZERO_OR_MORE_END)" d="M1209.27,380.386L1190.768,402.655C1172.266,424.924,1135.262,469.462,1123.997,500.064C1112.732,530.667,1127.206,547.333,1134.443,555.667L1141.68,564" class="er relationshipLine"/><path style="stroke: gray; fill: none;" marker-start="url(#ONLY_ONE_START)" marker-end="url(#ZERO_OR_MORE_END)" d="M1365.055,464L1366.587,472.333C1368.119,480.667,1371.182,497.333,1372.714,514C1374.246,530.667,1374.246,547.333,1374.246,555.667L1374.246,564" class="er relationshipLine"/><path style="stroke: gray; fill: none;" marker-start="url(#ONLY_ONE_START)" marker-end="url(#ZERO_OR_MORE_END)" d="M1439.223,450.491L1445.06,461.076C1450.897,471.661,1462.572,492.83,1485.076,513.137C1507.579,533.444,1540.913,552.889,1557.579,562.611L1574.246,572.333" class="er relationshipLine"/><path style="stroke: gray; fill: none;" marker-start="url(#ONLY_ONE_START)" marker-end="url(#ZERO_OR_MORE_END)" d="M1242.628,464L1239.565,472.333C1236.501,480.667,1230.374,497.333,1222.548,514C1214.722,530.667,1205.198,547.333,1200.437,555.667L1195.675,564" class="er relationshipLine"/><path style="stroke: gray; fill: none;" marker-start="url(#ONLY_ONE_START)" marker-end="url(#ZERO_OR_MORE_END)" d="M1209.27,337.935L1174.101,367.279C1138.932,396.623,1068.595,455.312,1026.189,492.989C983.784,530.667,969.31,547.333,962.073,555.667L954.836,564" class="er relationshipLine"/><path style="stroke: gray; fill: none;" marker-start="url(#ONLY_ONE_START)" marker-end="url(#ZERO_OR_MORE_END)" d="M1439.223,367.095L1461.727,391.579C1484.23,416.063,1529.238,465.032,1556.504,497.849C1583.77,530.667,1593.294,547.333,1598.056,555.667L1602.818,564" class="er relationshipLine"/><path style="stroke: gray; fill: none;" marker-start="url(#ONLY_ONE_START)" marker-end="url(#ZERO_OR_MORE_END)" d="M1439.223,331.353L1478.393,361.794C1517.564,392.235,1595.905,453.118,1630.314,491.892C1664.722,530.667,1655.198,547.333,1650.437,555.667L1645.675,564" class="er relationshipLine"/><path style="stroke: gray; fill: none;" marker-start="url(#ONLY_ONE_START)" marker-end="url(#ZERO_OR_MORE_END)" d="M1439.223,311.497L1495.06,345.247C1550.897,378.998,1662.572,446.499,1701.742,489.972C1740.913,533.444,1707.579,552.889,1690.913,562.611L1674.246,572.333" class="er relationshipLine"/><path style="stroke: gray; fill: none;" marker-start="url(#ONLY_ONE_START)" marker-end="url(#ZERO_OR_MORE_END)" d="M1439.223,298.861L1511.727,334.718C1584.23,370.574,1729.238,442.287,1806.504,486.477C1883.77,530.667,1893.294,547.333,1898.056,555.667L1902.818,564" class="er relationshipLine"/><path style="stroke: gray; fill: none;" marker-start="url(#ONLY_ONE_START)" marker-end="url(#ZERO_OR_MORE_END)" d="M1439.223,281.092L1553.393,319.91C1667.564,358.728,1895.905,436.364,2010.076,483.515C2124.246,530.667,2124.246,547.333,2124.246,555.667L2124.246,564" class="er relationshipLine"/><path style="stroke: gray; fill: none;" marker-start="url(#ONLY_ONE_START)" marker-end="url(#ZERO_OR_MORE_END)" d="M1439.223,290.113L1528.393,327.428C1617.564,364.742,1795.905,439.371,1880.314,485.019C1964.722,530.667,1955.198,547.333,1950.437,555.667L1945.675,564" class="er relationshipLine"/><g transform="translate(1209.26953125,20 )" id="entity-EducationalOccupationalProgram-73c25f65-c520-530a-ab31-d67481ca2f7d"><rect height="444" width="229.953125" y="0" x="0" class="er entityBox"/><text style="dominant-baseline: middle; text-anchor: middle; font-size: 12px;" transform="translate(114.9765625,12)" y="0" x="0" id="text-entity-EducationalOccupationalProgram-73c25f65-c520-530a-ab31-d67481ca2f7d" class="er entityLabel">EducationalOccupationalProgram</text><rect height="21" width="57.5234375" y="24" x="0" class="er attributeBoxOdd"/><text style="dominant-baseline: middle; font-size: 10.2px;" transform="translate(5,34.5)" y="0" x="0" id="text-entity-EducationalOccupationalProgram-73c25f65-c520-530a-ab31-d67481ca2f7d-attr-1-type" class="er entityLabel">stringList</text><rect height="21" width="172.4296875" y="24" x="57.5234375" class="er attributeBoxOdd"/><text style="dominant-baseline: middle; font-size: 10.2px;" transform="translate(62.5234375,34.5)" y="0" x="0" id="text-entity-EducationalOccupationalProgram-73c25f65-c520-530a-ab31-d67481ca2f7d-attr-1-name" class="er entityLabel">applicationDeadline</text><rect height="21" width="57.5234375" y="45" x="0" class="er attributeBoxEven"/><text style="dominant-baseline: middle; font-size: 10.2px;" transform="translate(5,55.5)" y="0" x="0" id="text-entity-EducationalOccupationalProgram-73c25f65-c520-530a-ab31-d67481ca2f7d-attr-2-type" class="er entityLabel">stringList</text><rect height="21" width="172.4296875" y="45" x="57.5234375" class="er attributeBoxEven"/><text style="dominant-baseline: middle; font-size: 10.2px;" transform="translate(62.5234375,55.5)" y="0" x="0" id="text-entity-EducationalOccupationalProgram-73c25f65-c520-530a-ab31-d67481ca2f7d-attr-2-name" class="er entityLabel">educationalCredentialAwarded</text><rect height="21" width="57.5234375" y="66" x="0" class="er attributeBoxOdd"/><text style="dominant-baseline: middle; font-size: 10.2px;" transform="translate(5,76.5)" y="0" x="0" id="text-entity-EducationalOccupationalProgram-73c25f65-c520-530a-ab31-d67481ca2f7d-attr-3-type" class="er entityLabel">stringList</text><rect height="21" width="172.4296875" y="66" x="57.5234375" class="er attributeBoxOdd"/><text style="dominant-baseline: middle; font-size: 10.2px;" transform="translate(62.5234375,76.5)" y="0" x="0" id="text-entity-EducationalOccupationalProgram-73c25f65-c520-530a-ab31-d67481ca2f7d-attr-3-name" class="er entityLabel">educationalProgramMode</text><rect height="21" width="57.5234375" y="87" x="0" class="er attributeBoxEven"/><text style="dominant-baseline: middle; font-size: 10.2px;" transform="translate(5,97.5)" y="0" x="0" id="text-entity-EducationalOccupationalProgram-73c25f65-c520-530a-ab31-d67481ca2f7d-attr-4-type" class="er entityLabel">stringList</text><rect height="21" width="172.4296875" y="87" x="57.5234375" class="er attributeBoxEven"/><text style="dominant-baseline: middle; font-size: 10.2px;" transform="translate(62.5234375,97.5)" y="0" x="0" id="text-entity-EducationalOccupationalProgram-73c25f65-c520-530a-ab31-d67481ca2f7d-attr-4-name" class="er entityLabel">endDate</text><rect height="21" width="57.5234375" y="108" x="0" class="er attributeBoxOdd"/><text style="dominant-baseline: middle; font-size: 10.2px;" transform="translate(5,118.5)" y="0" x="0" id="text-entity-EducationalOccupationalProgram-73c25f65-c520-530a-ab31-d67481ca2f7d-attr-5-type" class="er entityLabel">stringList</text><rect height="21" width="172.4296875" y="108" x="57.5234375" class="er attributeBoxOdd"/><text style="dominant-baseline: middle; font-size: 10.2px;" transform="translate(62.5234375,118.5)" y="0" x="0" id="text-entity-EducationalOccupationalProgram-73c25f65-c520-530a-ab31-d67481ca2f7d-attr-5-name" class="er entityLabel">financialAidEligible</text><rect height="21" width="57.5234375" y="129" x="0" class="er attributeBoxEven"/><text style="dominant-baseline: middle; font-size: 10.2px;" transform="translate(5,139.5)" y="0" x="0" id="text-entity-EducationalOccupationalProgram-73c25f65-c520-530a-ab31-d67481ca2f7d-attr-6-type" class="er entityLabel">stringList</text><rect height="21" width="172.4296875" y="129" x="57.5234375" class="er attributeBoxEven"/><text style="dominant-baseline: middle; font-size: 10.2px;" transform="translate(62.5234375,139.5)" y="0" x="0" id="text-entity-EducationalOccupationalProgram-73c25f65-c520-530a-ab31-d67481ca2f7d-attr-6-name" class="er entityLabel">numberOfCredits</text><rect height="21" width="57.5234375" y="150" x="0" class="er attributeBoxOdd"/><text style="dominant-baseline: middle; font-size: 10.2px;" transform="translate(5,160.5)" y="0" x="0" id="text-entity-EducationalOccupationalProgram-73c25f65-c520-530a-ab31-d67481ca2f7d-attr-7-type" class="er entityLabel">stringList</text><rect height="21" width="172.4296875" y="150" x="57.5234375" class="er attributeBoxOdd"/><text style="dominant-baseline: middle; font-size: 10.2px;" transform="translate(62.5234375,160.5)" y="0" x="0" id="text-entity-EducationalOccupationalProgram-73c25f65-c520-530a-ab31-d67481ca2f7d-attr-7-name" class="er entityLabel">occupationalCategory</text><rect height="21" width="57.5234375" y="171" x="0" class="er attributeBoxEven"/><text style="dominant-baseline: middle; font-size: 10.2px;" transform="translate(5,181.5)" y="0" x="0" id="text-entity-EducationalOccupationalProgram-73c25f65-c520-530a-ab31-d67481ca2f7d-attr-8-type" class="er entityLabel">stringList</text><rect height="21" width="172.4296875" y="171" x="57.5234375" class="er attributeBoxEven"/><text style="dominant-baseline: middle; font-size: 10.2px;" transform="translate(62.5234375,181.5)" y="0" x="0" id="text-entity-EducationalOccupationalProgram-73c25f65-c520-530a-ab31-d67481ca2f7d-attr-8-name" class="er entityLabel">occupationalCredentialAwarded</text><rect height="21" width="57.5234375" y="192" x="0" class="er attributeBoxOdd"/><text style="dominant-baseline: middle; font-size: 10.2px;" transform="translate(5,202.5)" y="0" x="0" id="text-entity-EducationalOccupationalProgram-73c25f65-c520-530a-ab31-d67481ca2f7d-attr-9-type" class="er entityLabel">stringList</text><rect height="21" width="172.4296875" y="192" x="57.5234375" class="er attributeBoxOdd"/><text style="dominant-baseline: middle; font-size: 10.2px;" transform="translate(62.5234375,202.5)" y="0" x="0" id="text-entity-EducationalOccupationalProgram-73c25f65-c520-530a-ab31-d67481ca2f7d-attr-9-name" class="er entityLabel">offers</text><rect height="21" width="57.5234375" y="213" x="0" class="er attributeBoxEven"/><text style="dominant-baseline: middle; font-size: 10.2px;" transform="translate(5,223.5)" y="0" x="0" id="text-entity-EducationalOccupationalProgram-73c25f65-c520-530a-ab31-d67481ca2f7d-attr-10-type" class="er entityLabel">stringList</text><rect height="21" width="172.4296875" y="213" x="57.5234375" class="er attributeBoxEven"/><text style="dominant-baseline: middle; font-size: 10.2px;" transform="translate(62.5234375,223.5)" y="0" x="0" id="text-entity-EducationalOccupationalProgram-73c25f65-c520-530a-ab31-d67481ca2f7d-attr-10-name" class="er entityLabel">programPrerequisites</text><rect height="21" width="57.5234375" y="234" x="0" class="er attributeBoxOdd"/><text style="dominant-baseline: middle; font-size: 10.2px;" transform="translate(5,244.5)" y="0" x="0" id="text-entity-EducationalOccupationalProgram-73c25f65-c520-530a-ab31-d67481ca2f7d-attr-11-type" class="er entityLabel">stringList</text><rect height="21" width="172.4296875" y="234" x="57.5234375" class="er attributeBoxOdd"/><text style="dominant-baseline: middle; font-size: 10.2px;" transform="translate(62.5234375,244.5)" y="0" x="0" id="text-entity-EducationalOccupationalProgram-73c25f65-c520-530a-ab31-d67481ca2f7d-attr-11-name" class="er entityLabel">programType</text><rect height="21" width="57.5234375" y="255" x="0" class="er attributeBoxEven"/><text style="dominant-baseline: middle; font-size: 10.2px;" transform="translate(5,265.5)" y="0" x="0" id="text-entity-EducationalOccupationalProgram-73c25f65-c520-530a-ab31-d67481ca2f7d-attr-12-type" class="er entityLabel">stringList</text><rect height="21" width="172.4296875" y="255" x="57.5234375" class="er attributeBoxEven"/><text style="dominant-baseline: middle; font-size: 10.2px;" transform="translate(62.5234375,265.5)" y="0" x="0" id="text-entity-EducationalOccupationalProgram-73c25f65-c520-530a-ab31-d67481ca2f7d-attr-12-name" class="er entityLabel">provider</text><rect height="21" width="57.5234375" y="276" x="0" class="er attributeBoxOdd"/><text style="dominant-baseline: middle; font-size: 10.2px;" transform="translate(5,286.5)" y="0" x="0" id="text-entity-EducationalOccupationalProgram-73c25f65-c520-530a-ab31-d67481ca2f7d-attr-13-type" class="er entityLabel">stringList</text><rect height="21" width="172.4296875" y="276" x="57.5234375" class="er attributeBoxOdd"/><text style="dominant-baseline: middle; font-size: 10.2px;" transform="translate(62.5234375,286.5)" y="0" x="0" id="text-entity-EducationalOccupationalProgram-73c25f65-c520-530a-ab31-d67481ca2f7d-attr-13-name" class="er entityLabel">startDate</text><rect height="21" width="57.5234375" y="297" x="0" class="er attributeBoxEven"/><text style="dominant-baseline: middle; font-size: 10.2px;" transform="translate(5,307.5)" y="0" x="0" id="text-entity-EducationalOccupationalProgram-73c25f65-c520-530a-ab31-d67481ca2f7d-attr-14-type" class="er entityLabel">stringList</text><rect height="21" width="172.4296875" y="297" x="57.5234375" class="er attributeBoxEven"/><text style="dominant-baseline: middle; font-size: 10.2px;" transform="translate(62.5234375,307.5)" y="0" x="0" id="text-entity-EducationalOccupationalProgram-73c25f65-c520-530a-ab31-d67481ca2f7d-attr-14-name" class="er entityLabel">typicalCreditsPerTerm</text><rect height="21" width="57.5234375" y="318" x="0" class="er attributeBoxOdd"/><text style="dominant-baseline: middle; font-size: 10.2px;" transform="translate(5,328.5)" y="0" x="0" id="text-entity-EducationalOccupationalProgram-73c25f65-c520-530a-ab31-d67481ca2f7d-attr-15-type" class="er entityLabel">stringList</text><rect height="21" width="172.4296875" y="318" x="57.5234375" class="er attributeBoxOdd"/><text style="dominant-baseline: middle; font-size: 10.2px;" transform="translate(62.5234375,328.5)" y="0" x="0" id="text-entity-EducationalOccupationalProgram-73c25f65-c520-530a-ab31-d67481ca2f7d-attr-15-name" class="er entityLabel">additionalType</text><rect height="21" width="57.5234375" y="339" x="0" class="er attributeBoxEven"/><text style="dominant-baseline: middle; font-size: 10.2px;" transform="translate(5,349.5)" y="0" x="0" id="text-entity-EducationalOccupationalProgram-73c25f65-c520-530a-ab31-d67481ca2f7d-attr-16-type" class="er entityLabel">stringList</text><rect height="21" width="172.4296875" y="339" x="57.5234375" class="er attributeBoxEven"/><text style="dominant-baseline: middle; font-size: 10.2px;" transform="translate(62.5234375,349.5)" y="0" x="0" id="text-entity-EducationalOccupationalProgram-73c25f65-c520-530a-ab31-d67481ca2f7d-attr-16-name" class="er entityLabel">description</text><rect height="21" width="57.5234375" y="360" x="0" class="er attributeBoxOdd"/><text style="dominant-baseline: middle; font-size: 10.2px;" transform="translate(5,370.5)" y="0" x="0" id="text-entity-EducationalOccupationalProgram-73c25f65-c520-530a-ab31-d67481ca2f7d-attr-17-type" class="er entityLabel">stringList</text><rect height="21" width="172.4296875" y="360" x="57.5234375" class="er attributeBoxOdd"/><text style="dominant-baseline: middle; font-size: 10.2px;" transform="translate(62.5234375,370.5)" y="0" x="0" id="text-entity-EducationalOccupationalProgram-73c25f65-c520-530a-ab31-d67481ca2f7d-attr-17-name" class="er entityLabel">identifier</text><rect height="21" width="57.5234375" y="381" x="0" class="er attributeBoxEven"/><text style="dominant-baseline: middle; font-size: 10.2px;" transform="translate(5,391.5)" y="0" x="0" id="text-entity-EducationalOccupationalProgram-73c25f65-c520-530a-ab31-d67481ca2f7d-attr-18-type" class="er entityLabel">stringList</text><rect height="21" width="172.4296875" y="381" x="57.5234375" class="er attributeBoxEven"/><text style="dominant-baseline: middle; font-size: 10.2px;" transform="translate(62.5234375,391.5)" y="0" x="0" id="text-entity-EducationalOccupationalProgram-73c25f65-c520-530a-ab31-d67481ca2f7d-attr-18-name" class="er entityLabel">image</text><rect height="21" width="57.5234375" y="402" x="0" class="er attributeBoxOdd"/><text style="dominant-baseline: middle; font-size: 10.2px;" transform="translate(5,412.5)" y="0" x="0" id="text-entity-EducationalOccupationalProgram-73c25f65-c520-530a-ab31-d67481ca2f7d-attr-19-type" class="er entityLabel">stringList</text><rect height="21" width="172.4296875" y="402" x="57.5234375" class="er attributeBoxOdd"/><text style="dominant-baseline: middle; font-size: 10.2px;" transform="translate(62.5234375,412.5)" y="0" x="0" id="text-entity-EducationalOccupationalProgram-73c25f65-c520-530a-ab31-d67481ca2f7d-attr-19-name" class="er entityLabel">mainEntityOfPage</text><rect height="21" width="57.5234375" y="423" x="0" class="er attributeBoxEven"/><text style="dominant-baseline: middle; font-size: 10.2px;" transform="translate(5,433.5)" y="0" x="0" id="text-entity-EducationalOccupationalProgram-73c25f65-c520-530a-ab31-d67481ca2f7d-attr-20-type" class="er entityLabel">stringList</text><rect height="21" width="172.4296875" y="423" x="57.5234375" class="er attributeBoxEven"/><text style="dominant-baseline: middle; font-size: 10.2px;" transform="translate(62.5234375,433.5)" y="0" x="0" id="text-entity-EducationalOccupationalProgram-73c25f65-c520-530a-ab31-d67481ca2f7d-attr-20-name" class="er entityLabel">subjectOf</text></g><g transform="translate(20,564 )" id="entity-Date-7e62fd57-a538-5b88-8dc2-5a8d536e6d1b"><rect height="75" width="100" y="0" x="0" class="er entityBox"/><text style="dominant-baseline: middle; text-anchor: middle; font-size: 12px;" transform="translate(50,37.5)" y="0" x="0" id="text-entity-Date-7e62fd57-a538-5b88-8dc2-5a8d536e6d1b" class="er entityLabel">Date</text></g><g transform="translate(220,564 )" id="entity-DayOfWeek-10b17d84-0d6c-5612-82cd-c4d01e4780a8"><rect height="75" width="100.29296875" y="0" x="0" class="er entityBox"/><text style="dominant-baseline: middle; text-anchor: middle; font-size: 12px;" transform="translate(50.146484375,37.5)" y="0" x="0" id="text-entity-DayOfWeek-10b17d84-0d6c-5612-82cd-c4d01e4780a8" class="er entityLabel">DayOfWeek</text></g><g transform="translate(420.29296875,564 )" id="entity-Course-e6435c0c-5f73-5cd3-80c6-be59c059830f"><rect height="75" width="100" y="0" x="0" class="er entityBox"/><text style="dominant-baseline: middle; text-anchor: middle; font-size: 12px;" transform="translate(50,37.5)" y="0" x="0" id="text-entity-Course-e6435c0c-5f73-5cd3-80c6-be59c059830f" class="er entityLabel">Course</text></g><g transform="translate(620.29296875,564 )" id="entity-Integer-fc94dbf2-2dc2-55cd-ac16-6d1e48f8bef9"><rect height="75" width="100" y="0" x="0" class="er entityBox"/><text style="dominant-baseline: middle; text-anchor: middle; font-size: 12px;" transform="translate(50,37.5)" y="0" x="0" id="text-entity-Integer-fc94dbf2-2dc2-55cd-ac16-6d1e48f8bef9" class="er entityLabel">Integer</text></g><g transform="translate(820.29296875,564 )" id="entity-MonetaryAmountDistribution-3ca5e3da-fa82-5009-a087-5a854b9dacdf"><rect height="75" width="203.953125" y="0" x="0" class="er entityBox"/><text style="dominant-baseline: middle; text-anchor: middle; font-size: 12px;" transform="translate(101.9765625,37.5)" y="0" x="0" id="text-entity-MonetaryAmountDistribution-3ca5e3da-fa82-5009-a087-5a854b9dacdf" class="er entityLabel">MonetaryAmountDistribution</text></g><g transform="translate(1124.24609375,564 )" id="entity-Duration-4925bcef-08f8-5f30-b1af-3959fea9384e"><rect height="75" width="100" y="0" x="0" class="er entityBox"/><text style="dominant-baseline: middle; text-anchor: middle; font-size: 12px;" transform="translate(50,37.5)" y="0" x="0" id="text-entity-Duration-4925bcef-08f8-5f30-b1af-3959fea9384e" class="er entityLabel">Duration</text></g><g transform="translate(1324.24609375,564 )" id="entity-Number-03723608-6bf1-5294-8c7e-b493e3224412"><rect height="75" width="100" y="0" x="0" class="er entityBox"/><text style="dominant-baseline: middle; text-anchor: middle; font-size: 12px;" transform="translate(50,37.5)" y="0" x="0" id="text-entity-Number-03723608-6bf1-5294-8c7e-b493e3224412" class="er entityLabel">Number</text></g><g transform="translate(1574.24609375,564 )" id="entity-Text-426c5d39-acfc-5487-a6d9-ede67887190e"><rect height="75" width="100" y="0" x="0" class="er entityBox"/><text style="dominant-baseline: middle; text-anchor: middle; font-size: 12px;" transform="translate(50,37.5)" y="0" x="0" id="text-entity-Text-426c5d39-acfc-5487-a6d9-ede67887190e" class="er entityLabel">Text</text></g><g transform="translate(1874.24609375,564 )" id="entity-URL-07f78d3e-fd74-5925-b39b-26c1cc2d6b7c"><rect height="75" width="100" y="0" x="0" class="er entityBox"/><text style="dominant-baseline: middle; text-anchor: middle; font-size: 12px;" transform="translate(50,37.5)" y="0" x="0" id="text-entity-URL-07f78d3e-fd74-5925-b39b-26c1cc2d6b7c" class="er entityLabel">URL</text></g><g transform="translate(2074.24609375,564 )" id="entity-Action-6cd87d9a-a078-546e-a35b-bee54f477b31"><rect height="75" width="100" y="0" x="0" class="er entityBox"/><text style="dominant-baseline: middle; text-anchor: middle; font-size: 12px;" transform="translate(50,37.5)" y="0" x="0" id="text-entity-Action-6cd87d9a-a078-546e-a35b-bee54f477b31" class="er entityLabel">Action</text></g><rect height="14" width="124.203125" y="387.12530517578125" x="565.8859252929688" class="er relationshipLabelBox"/><text style="text-anchor: middle; dominant-baseline: middle; font-size: 12px;" y="394.12530517578125" x="627.9874877929688" id="rel1" class="er relationshipLabel">applicationStartDate</text><rect height="14" width="68.669921875" y="390.2018737792969" x="692.9400634765625" class="er relationshipLabelBox"/><text style="text-anchor: middle; dominant-baseline: middle; font-size: 12px;" y="397.2018737792969" x="727.2750244140625" id="rel2" class="er relationshipLabel">dayOfWeek</text><rect height="14" width="63.109375" y="394.7773132324219" x="794.8397216796875" class="er relationshipLabelBox"/><text style="text-anchor: middle; dominant-baseline: middle; font-size: 12px;" y="401.7773132324219" x="826.3944091796875" id="rel3" class="er relationshipLabel">hasCourse</text><rect height="14" width="126.0078125" y="402.21844482421875" x="862.2953491210938" class="er relationshipLabelBox"/><text style="text-anchor: middle; dominant-baseline: middle; font-size: 12px;" y="409.21844482421875" x="925.2992553710938" id="rel4" class="er relationshipLabel">maximumEnrollment</text><rect height="14" width="136.40625" y="411.20037841796875" x="949.8643798828125" class="er relationshipLabelBox"/><text style="text-anchor: middle; dominant-baseline: middle; font-size: 12px;" y="418.20037841796875" x="1018.0675048828125" id="rel5" class="er relationshipLabel">salaryUponCompletion</text><rect height="14" width="80.625" y="459.4468078613281" x="1101.7021484375" class="er relationshipLabelBox"/><text style="text-anchor: middle; dominant-baseline: middle; font-size: 12px;" y="466.4468078613281" x="1142.0146484375" id="rel6" class="er relationshipLabel">termDuration</text><rect height="14" width="79.349609375" y="506.7216796875" x="1333.0128173828125" class="er relationshipLabelBox"/><text style="text-anchor: middle; dominant-baseline: middle; font-size: 12px;" y="513.7216796875" x="1372.6876220703125" id="rel7" class="er relationshipLabel">termsPerYear</text><rect height="14" width="64.484375" y="515.49658203125" x="1463.991455078125" class="er relationshipLabelBox"/><text style="text-anchor: middle; dominant-baseline: middle; font-size: 12px;" y="522.49658203125" x="1496.233642578125" id="rel8" class="er relationshipLabel">timeOfDay</text><rect height="14" width="97.578125" y="508.3018798828125" x="1173.1435546875" class="er relationshipLabelBox"/><text style="text-anchor: middle; dominant-baseline: middle; font-size: 12px;" y="515.3018798828125" x="1221.9326171875" id="rel9" class="er relationshipLabel">timeToComplete</text><rect height="14" width="84.1875" y="440.435302734375" x="1036.6904296875" class="er relationshipLabelBox"/><text style="text-anchor: middle; dominant-baseline: middle; font-size: 12px;" y="447.435302734375" x="1078.7841796875" id="rel10" class="er relationshipLabel">trainingSalary</text><rect height="14" width="89.953125" y="454.97955322265625" x="1480.5687255859375" class="er relationshipLabelBox"/><text style="text-anchor: middle; dominant-baseline: middle; font-size: 12px;" y="461.97955322265625" x="1525.5452880859375" id="rel11" class="er relationshipLabel">alternateName</text><rect height="14" width="161.390625" y="427.44635009765625" x="1488.245849609375" class="er relationshipLabelBox"/><text style="text-anchor: middle; dominant-baseline: middle; font-size: 12px;" y="434.44635009765625" x="1568.941162109375" id="rel12" class="er relationshipLabel">disambiguatingDescription</text><rect height="14" width="34.03125" y="417.8352355957031" x="1603.7108154296875" class="er relationshipLabelBox"/><text style="text-anchor: middle; dominant-baseline: middle; font-size: 12px;" y="424.8352355957031" x="1620.7264404296875" id="rel13" class="er relationshipLabel">name</text><rect height="14" width="47.140625" y="411.9580383300781" x="1656.273193359375" class="er relationshipLabelBox"/><text style="text-anchor: middle; dominant-baseline: middle; font-size: 12px;" y="418.9580383300781" x="1679.843505859375" id="rel14" class="er relationshipLabel">sameAs</text><rect height="14" width="90.96875" y="396.41357421875" x="1749.9234619140625" class="er relationshipLabelBox"/><text style="text-anchor: middle; dominant-baseline: middle; font-size: 12px;" y="403.41357421875" x="1795.4078369140625" id="rel15" class="er relationshipLabel">potentialAction</text><rect height="14" width="15.875" y="400.1615905761719" x="1707.453369140625" class="er relationshipLabelBox"/><text style="text-anchor: middle; dominant-baseline: middle; font-size: 12px;" y="407.1615905761719" x="1715.390869140625" id="rel16" class="er relationshipLabel">url</text></svg>