<svg aria-roledescription="er" role="graphics-document document" viewBox="0 0 1044.24609375 848" style="max-width: 1044.25px; background-color: white;" xmlns:xlink="http://www.w3.org/1999/xlink" xmlns="http://www.w3.org/2000/svg" width="100%" id="my-svg"><style>#my-svg{font-family:"trebuchet ms",verdana,arial,sans-serif;font-size:16px;fill:#333;}#my-svg .error-icon{fill:#552222;}#my-svg .error-text{fill:#552222;stroke:#552222;}#my-svg .edge-thickness-normal{stroke-width:1px;}#my-svg .edge-thickness-thick{stroke-width:3.5px;}#my-svg .edge-pattern-solid{stroke-dasharray:0;}#my-svg .edge-thickness-invisible{stroke-width:0;fill:none;}#my-svg .edge-pattern-dashed{stroke-dasharray:3;}#my-svg .edge-pattern-dotted{stroke-dasharray:2;}#my-svg .marker{fill:#333333;stroke:#333333;}#my-svg .marker.cross{stroke:#333333;}#my-svg svg{font-family:"trebuchet ms",verdana,arial,sans-serif;font-size:16px;}#my-svg p{margin:0;}#my-svg .entityBox{fill:#ECECFF;stroke:#9370DB;}#my-svg .attributeBoxOdd{fill:#ffffff;stroke:#9370DB;}#my-svg .attributeBoxEven{fill:#f2f2f2;stroke:#9370DB;}#my-svg .relationshipLabelBox{fill:hsl(80, 100%, 96.2745098039%);opacity:0.7;background-color:hsl(80, 100%, 96.2745098039%);}#my-svg .relationshipLabelBox rect{opacity:0.5;}#my-svg .relationshipLine{stroke:#333333;}#my-svg .entityTitleText{text-anchor:middle;font-size:18px;fill:#333;}#my-svg #MD_PARENT_START{fill:#f5f5f5!important;stroke:#333333!important;stroke-width:1;}#my-svg #MD_PARENT_END{fill:#f5f5f5!important;stroke:#333333!important;stroke-width:1;}#my-svg :root{--mermaid-font-family:"trebuchet ms",verdana,arial,sans-serif;}</style><g/><defs><marker orient="auto" markerHeight="240" markerWidth="190" refY="7" refX="0" id="MD_PARENT_START"><path d="M 18,7 L9,13 L1,7 L9,1 Z"/></marker></defs><defs><marker orient="auto" markerHeight="28" markerWidth="20" refY="7" refX="19" id="MD_PARENT_END"><path d="M 18,7 L9,13 L1,7 L9,1 Z"/></marker></defs><defs><marker orient="auto" markerHeight="18" markerWidth="18" refY="9" refX="0" id="ONLY_ONE_START"><path d="M9,0 L9,18 M15,0 L15,18" fill="none" stroke="gray"/></marker></defs><defs><marker orient="auto" markerHeight="18" markerWidth="18" refY="9" refX="18" id="ONLY_ONE_END"><path d="M3,0 L3,18 M9,0 L9,18" fill="none" stroke="gray"/></marker></defs><defs><marker orient="auto" markerHeight="18" markerWidth="30" refY="9" refX="0" id="ZERO_OR_ONE_START"><circle r="6" cy="9" cx="21" fill="white" stroke="gray"/><path d="M9,0 L9,18" fill="none" stroke="gray"/></marker></defs><defs><marker orient="auto" markerHeight="18" markerWidth="30" refY="9" refX="30" id="ZERO_OR_ONE_END"><circle r="6" cy="9" cx="9" fill="white" stroke="gray"/><path d="M21,0 L21,18" fill="none" stroke="gray"/></marker></defs><defs><marker orient="auto" markerHeight="36" markerWidth="45" refY="18" refX="18" id="ONE_OR_MORE_START"><path d="M0,18 Q 18,0 36,18 Q 18,36 0,18 M42,9 L42,27" fill="none" stroke="gray"/></marker></defs><defs><marker orient="auto" markerHeight="36" markerWidth="45" refY="18" refX="27" id="ONE_OR_MORE_END"><path d="M3,9 L3,27 M9,18 Q27,0 45,18 Q27,36 9,18" fill="none" stroke="gray"/></marker></defs><defs><marker orient="auto" markerHeight="36" markerWidth="57" refY="18" refX="18" id="ZERO_OR_MORE_START"><circle r="6" cy="18" cx="48" fill="white" stroke="gray"/><path d="M0,18 Q18,0 36,18 Q18,36 0,18" fill="none" stroke="gray"/></marker></defs><defs><marker orient="auto" markerHeight="36" markerWidth="57" refY="18" refX="39" id="ZERO_OR_MORE_END"><circle r="6" cy="18" cx="9" fill="white" stroke="gray"/><path d="M21,18 Q39,0 57,18 Q39,36 21,18" fill="none" stroke="gray"/></marker></defs><path style="stroke: gray; fill: none;" marker-start="url(#ONLY_ONE_START)" marker-end="url(#ZERO_OR_MORE_END)" d="M477.904,420.023L409.945,467.186C341.985,514.349,206.066,608.674,138.106,664.171C70.146,719.667,70.146,736.333,70.146,744.667L70.146,753" class="er relationshipLine"/><path style="stroke: gray; fill: none;" marker-start="url(#ONLY_ONE_START)" marker-end="url(#ZERO_OR_MORE_END)" d="M477.904,470.995L443.303,509.662C408.701,548.33,339.497,625.665,304.895,672.666C270.293,719.667,270.293,736.333,270.293,744.667L270.293,753" class="er relationshipLine"/><path style="stroke: gray; fill: none;" marker-start="url(#ONLY_ONE_START)" marker-end="url(#ZERO_OR_MORE_END)" d="M477.904,626.739L472.634,639.449C467.363,652.159,456.822,677.58,458.789,698.623C460.755,719.667,475.229,736.333,482.466,744.667L489.703,753" class="er relationshipLine"/><path style="stroke: gray; fill: none;" marker-start="url(#ONLY_ONE_START)" marker-end="url(#ZERO_OR_MORE_END)" d="M684.615,653L686.889,661.333C689.163,669.667,693.71,686.333,703.221,703C712.732,719.667,727.206,736.333,734.443,744.667L741.68,753" class="er relationshipLine"/><path style="stroke: gray; fill: none;" marker-start="url(#ONLY_ONE_START)" marker-end="url(#ZERO_OR_MORE_END)" d="M718.611,531.685L736.217,560.237C753.823,588.79,789.034,645.895,801.878,682.781C814.722,719.667,805.198,736.333,800.437,744.667L795.675,753" class="er relationshipLine"/><path style="stroke: gray; fill: none;" marker-start="url(#ONLY_ONE_START)" marker-end="url(#ZERO_OR_MORE_END)" d="M598.258,653L598.258,661.333C598.258,669.667,598.258,686.333,591.021,703C583.784,719.667,569.31,736.333,562.073,744.667L554.836,753" class="er relationshipLine"/><path style="stroke: gray; fill: none;" marker-start="url(#ONLY_ONE_START)" marker-end="url(#ZERO_OR_MORE_END)" d="M718.611,453.816L761.217,495.347C803.823,536.877,889.034,619.939,931.64,669.803C974.246,719.667,974.246,736.333,974.246,744.667L974.246,753" class="er relationshipLine"/><g transform="translate(477.90447998046875,20 )" id="entity-EducationalOccupationalProgram-73c25f65-c520-530a-ab31-d67481ca2f7d"><rect height="633" width="240.7066650390625" y="0" x="0" class="er entityBox"/><text style="dominant-baseline: middle; text-anchor: middle; font-size: 12px;" transform="translate(120.35333251953125,12)" y="0" x="0" id="text-entity-EducationalOccupationalProgram-73c25f65-c520-530a-ab31-d67481ca2f7d" class="er entityLabel">EducationalOccupationalProgram</text><rect height="21" width="68.7379150390625" y="24" x="0" class="er attributeBoxOdd"/><text style="dominant-baseline: middle; font-size: 10.2px;" transform="translate(5,34.5)" y="0" x="0" id="text-entity-EducationalOccupationalProgram-73c25f65-c520-530a-ab31-d67481ca2f7d-attr-1-type" class="er entityLabel">stringList</text><rect height="21" width="171.96875" y="24" x="68.7379150390625" class="er attributeBoxOdd"/><text style="dominant-baseline: middle; font-size: 10.2px;" transform="translate(73.7379150390625,34.5)" y="0" x="0" id="text-entity-EducationalOccupationalProgram-73c25f65-c520-530a-ab31-d67481ca2f7d-attr-1-name" class="er entityLabel">applicationDeadline</text><rect height="21" width="68.7379150390625" y="45" x="0" class="er attributeBoxEven"/><text style="dominant-baseline: middle; font-size: 10.2px;" transform="translate(5,55.5)" y="0" x="0" id="text-entity-EducationalOccupationalProgram-73c25f65-c520-530a-ab31-d67481ca2f7d-attr-2-type" class="er entityLabel">DateList</text><rect height="21" width="171.96875" y="45" x="68.7379150390625" class="er attributeBoxEven"/><text style="dominant-baseline: middle; font-size: 10.2px;" transform="translate(73.7379150390625,55.5)" y="0" x="0" id="text-entity-EducationalOccupationalProgram-73c25f65-c520-530a-ab31-d67481ca2f7d-attr-2-name" class="er entityLabel">applicationStartDate</text><rect height="21" width="68.7379150390625" y="66" x="0" class="er attributeBoxOdd"/><text style="dominant-baseline: middle; font-size: 10.2px;" transform="translate(5,76.5)" y="0" x="0" id="text-entity-EducationalOccupationalProgram-73c25f65-c520-530a-ab31-d67481ca2f7d-attr-3-type" class="er entityLabel">stringList</text><rect height="21" width="171.96875" y="66" x="68.7379150390625" class="er attributeBoxOdd"/><text style="dominant-baseline: middle; font-size: 10.2px;" transform="translate(73.7379150390625,76.5)" y="0" x="0" id="text-entity-EducationalOccupationalProgram-73c25f65-c520-530a-ab31-d67481ca2f7d-attr-3-name" class="er entityLabel">educationalCredentialAwarded</text><rect height="21" width="68.7379150390625" y="87" x="0" class="er attributeBoxEven"/><text style="dominant-baseline: middle; font-size: 10.2px;" transform="translate(5,97.5)" y="0" x="0" id="text-entity-EducationalOccupationalProgram-73c25f65-c520-530a-ab31-d67481ca2f7d-attr-4-type" class="er entityLabel">stringList</text><rect height="21" width="171.96875" y="87" x="68.7379150390625" class="er attributeBoxEven"/><text style="dominant-baseline: middle; font-size: 10.2px;" transform="translate(73.7379150390625,97.5)" y="0" x="0" id="text-entity-EducationalOccupationalProgram-73c25f65-c520-530a-ab31-d67481ca2f7d-attr-4-name" class="er entityLabel">educationalProgramMode</text><rect height="21" width="68.7379150390625" y="108" x="0" class="er attributeBoxOdd"/><text style="dominant-baseline: middle; font-size: 10.2px;" transform="translate(5,118.5)" y="0" x="0" id="text-entity-EducationalOccupationalProgram-73c25f65-c520-530a-ab31-d67481ca2f7d-attr-5-type" class="er entityLabel">stringList</text><rect height="21" width="171.96875" y="108" x="68.7379150390625" class="er attributeBoxOdd"/><text style="dominant-baseline: middle; font-size: 10.2px;" transform="translate(73.7379150390625,118.5)" y="0" x="0" id="text-entity-EducationalOccupationalProgram-73c25f65-c520-530a-ab31-d67481ca2f7d-attr-5-name" class="er entityLabel">endDate</text><rect height="21" width="68.7379150390625" y="129" x="0" class="er attributeBoxEven"/><text style="dominant-baseline: middle; font-size: 10.2px;" transform="translate(5,139.5)" y="0" x="0" id="text-entity-EducationalOccupationalProgram-73c25f65-c520-530a-ab31-d67481ca2f7d-attr-6-type" class="er entityLabel">stringList</text><rect height="21" width="171.96875" y="129" x="68.7379150390625" class="er attributeBoxEven"/><text style="dominant-baseline: middle; font-size: 10.2px;" transform="translate(73.7379150390625,139.5)" y="0" x="0" id="text-entity-EducationalOccupationalProgram-73c25f65-c520-530a-ab31-d67481ca2f7d-attr-6-name" class="er entityLabel">financialAidEligible</text><rect height="21" width="68.7379150390625" y="150" x="0" class="er attributeBoxOdd"/><text style="dominant-baseline: middle; font-size: 10.2px;" transform="translate(5,160.5)" y="0" x="0" id="text-entity-EducationalOccupationalProgram-73c25f65-c520-530a-ab31-d67481ca2f7d-attr-7-type" class="er entityLabel">IntegerList</text><rect height="21" width="171.96875" y="150" x="68.7379150390625" class="er attributeBoxOdd"/><text style="dominant-baseline: middle; font-size: 10.2px;" transform="translate(73.7379150390625,160.5)" y="0" x="0" id="text-entity-EducationalOccupationalProgram-73c25f65-c520-530a-ab31-d67481ca2f7d-attr-7-name" class="er entityLabel">maximumEnrollment</text><rect height="21" width="68.7379150390625" y="171" x="0" class="er attributeBoxEven"/><text style="dominant-baseline: middle; font-size: 10.2px;" transform="translate(5,181.5)" y="0" x="0" id="text-entity-EducationalOccupationalProgram-73c25f65-c520-530a-ab31-d67481ca2f7d-attr-8-type" class="er entityLabel">stringList</text><rect height="21" width="171.96875" y="171" x="68.7379150390625" class="er attributeBoxEven"/><text style="dominant-baseline: middle; font-size: 10.2px;" transform="translate(73.7379150390625,181.5)" y="0" x="0" id="text-entity-EducationalOccupationalProgram-73c25f65-c520-530a-ab31-d67481ca2f7d-attr-8-name" class="er entityLabel">numberOfCredits</text><rect height="21" width="68.7379150390625" y="192" x="0" class="er attributeBoxOdd"/><text style="dominant-baseline: middle; font-size: 10.2px;" transform="translate(5,202.5)" y="0" x="0" id="text-entity-EducationalOccupationalProgram-73c25f65-c520-530a-ab31-d67481ca2f7d-attr-9-type" class="er entityLabel">stringList</text><rect height="21" width="171.96875" y="192" x="68.7379150390625" class="er attributeBoxOdd"/><text style="dominant-baseline: middle; font-size: 10.2px;" transform="translate(73.7379150390625,202.5)" y="0" x="0" id="text-entity-EducationalOccupationalProgram-73c25f65-c520-530a-ab31-d67481ca2f7d-attr-9-name" class="er entityLabel">occupationalCategory</text><rect height="21" width="68.7379150390625" y="213" x="0" class="er attributeBoxEven"/><text style="dominant-baseline: middle; font-size: 10.2px;" transform="translate(5,223.5)" y="0" x="0" id="text-entity-EducationalOccupationalProgram-73c25f65-c520-530a-ab31-d67481ca2f7d-attr-10-type" class="er entityLabel">stringList</text><rect height="21" width="171.96875" y="213" x="68.7379150390625" class="er attributeBoxEven"/><text style="dominant-baseline: middle; font-size: 10.2px;" transform="translate(73.7379150390625,223.5)" y="0" x="0" id="text-entity-EducationalOccupationalProgram-73c25f65-c520-530a-ab31-d67481ca2f7d-attr-10-name" class="er entityLabel">occupationalCredentialAwarded</text><rect height="21" width="68.7379150390625" y="234" x="0" class="er attributeBoxOdd"/><text style="dominant-baseline: middle; font-size: 10.2px;" transform="translate(5,244.5)" y="0" x="0" id="text-entity-EducationalOccupationalProgram-73c25f65-c520-530a-ab31-d67481ca2f7d-attr-11-type" class="er entityLabel">stringList</text><rect height="21" width="171.96875" y="234" x="68.7379150390625" class="er attributeBoxOdd"/><text style="dominant-baseline: middle; font-size: 10.2px;" transform="translate(73.7379150390625,244.5)" y="0" x="0" id="text-entity-EducationalOccupationalProgram-73c25f65-c520-530a-ab31-d67481ca2f7d-attr-11-name" class="er entityLabel">offers</text><rect height="21" width="68.7379150390625" y="255" x="0" class="er attributeBoxEven"/><text style="dominant-baseline: middle; font-size: 10.2px;" transform="translate(5,265.5)" y="0" x="0" id="text-entity-EducationalOccupationalProgram-73c25f65-c520-530a-ab31-d67481ca2f7d-attr-12-type" class="er entityLabel">stringList</text><rect height="21" width="171.96875" y="255" x="68.7379150390625" class="er attributeBoxEven"/><text style="dominant-baseline: middle; font-size: 10.2px;" transform="translate(73.7379150390625,265.5)" y="0" x="0" id="text-entity-EducationalOccupationalProgram-73c25f65-c520-530a-ab31-d67481ca2f7d-attr-12-name" class="er entityLabel">programPrerequisites</text><rect height="21" width="68.7379150390625" y="276" x="0" class="er attributeBoxOdd"/><text style="dominant-baseline: middle; font-size: 10.2px;" transform="translate(5,286.5)" y="0" x="0" id="text-entity-EducationalOccupationalProgram-73c25f65-c520-530a-ab31-d67481ca2f7d-attr-13-type" class="er entityLabel">stringList</text><rect height="21" width="171.96875" y="276" x="68.7379150390625" class="er attributeBoxOdd"/><text style="dominant-baseline: middle; font-size: 10.2px;" transform="translate(73.7379150390625,286.5)" y="0" x="0" id="text-entity-EducationalOccupationalProgram-73c25f65-c520-530a-ab31-d67481ca2f7d-attr-13-name" class="er entityLabel">programType</text><rect height="21" width="68.7379150390625" y="297" x="0" class="er attributeBoxEven"/><text style="dominant-baseline: middle; font-size: 10.2px;" transform="translate(5,307.5)" y="0" x="0" id="text-entity-EducationalOccupationalProgram-73c25f65-c520-530a-ab31-d67481ca2f7d-attr-14-type" class="er entityLabel">stringList</text><rect height="21" width="171.96875" y="297" x="68.7379150390625" class="er attributeBoxEven"/><text style="dominant-baseline: middle; font-size: 10.2px;" transform="translate(73.7379150390625,307.5)" y="0" x="0" id="text-entity-EducationalOccupationalProgram-73c25f65-c520-530a-ab31-d67481ca2f7d-attr-14-name" class="er entityLabel">provider</text><rect height="21" width="68.7379150390625" y="318" x="0" class="er attributeBoxOdd"/><text style="dominant-baseline: middle; font-size: 10.2px;" transform="translate(5,328.5)" y="0" x="0" id="text-entity-EducationalOccupationalProgram-73c25f65-c520-530a-ab31-d67481ca2f7d-attr-15-type" class="er entityLabel">stringList</text><rect height="21" width="171.96875" y="318" x="68.7379150390625" class="er attributeBoxOdd"/><text style="dominant-baseline: middle; font-size: 10.2px;" transform="translate(73.7379150390625,328.5)" y="0" x="0" id="text-entity-EducationalOccupationalProgram-73c25f65-c520-530a-ab31-d67481ca2f7d-attr-15-name" class="er entityLabel">startDate</text><rect height="21" width="68.7379150390625" y="339" x="0" class="er attributeBoxEven"/><text style="dominant-baseline: middle; font-size: 10.2px;" transform="translate(5,349.5)" y="0" x="0" id="text-entity-EducationalOccupationalProgram-73c25f65-c520-530a-ab31-d67481ca2f7d-attr-16-type" class="er entityLabel">NumberList</text><rect height="21" width="171.96875" y="339" x="68.7379150390625" class="er attributeBoxEven"/><text style="dominant-baseline: middle; font-size: 10.2px;" transform="translate(73.7379150390625,349.5)" y="0" x="0" id="text-entity-EducationalOccupationalProgram-73c25f65-c520-530a-ab31-d67481ca2f7d-attr-16-name" class="er entityLabel">termsPerYear</text><rect height="21" width="68.7379150390625" y="360" x="0" class="er attributeBoxOdd"/><text style="dominant-baseline: middle; font-size: 10.2px;" transform="translate(5,370.5)" y="0" x="0" id="text-entity-EducationalOccupationalProgram-73c25f65-c520-530a-ab31-d67481ca2f7d-attr-17-type" class="er entityLabel">TextList</text><rect height="21" width="171.96875" y="360" x="68.7379150390625" class="er attributeBoxOdd"/><text style="dominant-baseline: middle; font-size: 10.2px;" transform="translate(73.7379150390625,370.5)" y="0" x="0" id="text-entity-EducationalOccupationalProgram-73c25f65-c520-530a-ab31-d67481ca2f7d-attr-17-name" class="er entityLabel">timeOfDay</text><rect height="21" width="68.7379150390625" y="381" x="0" class="er attributeBoxEven"/><text style="dominant-baseline: middle; font-size: 10.2px;" transform="translate(5,391.5)" y="0" x="0" id="text-entity-EducationalOccupationalProgram-73c25f65-c520-530a-ab31-d67481ca2f7d-attr-18-type" class="er entityLabel">stringList</text><rect height="21" width="171.96875" y="381" x="68.7379150390625" class="er attributeBoxEven"/><text style="dominant-baseline: middle; font-size: 10.2px;" transform="translate(73.7379150390625,391.5)" y="0" x="0" id="text-entity-EducationalOccupationalProgram-73c25f65-c520-530a-ab31-d67481ca2f7d-attr-18-name" class="er entityLabel">typicalCreditsPerTerm</text><rect height="21" width="68.7379150390625" y="402" x="0" class="er attributeBoxOdd"/><text style="dominant-baseline: middle; font-size: 10.2px;" transform="translate(5,412.5)" y="0" x="0" id="text-entity-EducationalOccupationalProgram-73c25f65-c520-530a-ab31-d67481ca2f7d-attr-19-type" class="er entityLabel">stringList</text><rect height="21" width="171.96875" y="402" x="68.7379150390625" class="er attributeBoxOdd"/><text style="dominant-baseline: middle; font-size: 10.2px;" transform="translate(73.7379150390625,412.5)" y="0" x="0" id="text-entity-EducationalOccupationalProgram-73c25f65-c520-530a-ab31-d67481ca2f7d-attr-19-name" class="er entityLabel">additionalType</text><rect height="21" width="68.7379150390625" y="423" x="0" class="er attributeBoxEven"/><text style="dominant-baseline: middle; font-size: 10.2px;" transform="translate(5,433.5)" y="0" x="0" id="text-entity-EducationalOccupationalProgram-73c25f65-c520-530a-ab31-d67481ca2f7d-attr-20-type" class="er entityLabel">TextList</text><rect height="21" width="171.96875" y="423" x="68.7379150390625" class="er attributeBoxEven"/><text style="dominant-baseline: middle; font-size: 10.2px;" transform="translate(73.7379150390625,433.5)" y="0" x="0" id="text-entity-EducationalOccupationalProgram-73c25f65-c520-530a-ab31-d67481ca2f7d-attr-20-name" class="er entityLabel">alternateName</text><rect height="21" width="68.7379150390625" y="444" x="0" class="er attributeBoxOdd"/><text style="dominant-baseline: middle; font-size: 10.2px;" transform="translate(5,454.5)" y="0" x="0" id="text-entity-EducationalOccupationalProgram-73c25f65-c520-530a-ab31-d67481ca2f7d-attr-21-type" class="er entityLabel">stringList</text><rect height="21" width="171.96875" y="444" x="68.7379150390625" class="er attributeBoxOdd"/><text style="dominant-baseline: middle; font-size: 10.2px;" transform="translate(73.7379150390625,454.5)" y="0" x="0" id="text-entity-EducationalOccupationalProgram-73c25f65-c520-530a-ab31-d67481ca2f7d-attr-21-name" class="er entityLabel">description</text><rect height="21" width="68.7379150390625" y="465" x="0" class="er attributeBoxEven"/><text style="dominant-baseline: middle; font-size: 10.2px;" transform="translate(5,475.5)" y="0" x="0" id="text-entity-EducationalOccupationalProgram-73c25f65-c520-530a-ab31-d67481ca2f7d-attr-22-type" class="er entityLabel">TextList</text><rect height="21" width="171.96875" y="465" x="68.7379150390625" class="er attributeBoxEven"/><text style="dominant-baseline: middle; font-size: 10.2px;" transform="translate(73.7379150390625,475.5)" y="0" x="0" id="text-entity-EducationalOccupationalProgram-73c25f65-c520-530a-ab31-d67481ca2f7d-attr-22-name" class="er entityLabel">disambiguatingDescription</text><rect height="21" width="68.7379150390625" y="486" x="0" class="er attributeBoxOdd"/><text style="dominant-baseline: middle; font-size: 10.2px;" transform="translate(5,496.5)" y="0" x="0" id="text-entity-EducationalOccupationalProgram-73c25f65-c520-530a-ab31-d67481ca2f7d-attr-23-type" class="er entityLabel">stringList</text><rect height="21" width="171.96875" y="486" x="68.7379150390625" class="er attributeBoxOdd"/><text style="dominant-baseline: middle; font-size: 10.2px;" transform="translate(73.7379150390625,496.5)" y="0" x="0" id="text-entity-EducationalOccupationalProgram-73c25f65-c520-530a-ab31-d67481ca2f7d-attr-23-name" class="er entityLabel">identifier</text><rect height="21" width="68.7379150390625" y="507" x="0" class="er attributeBoxEven"/><text style="dominant-baseline: middle; font-size: 10.2px;" transform="translate(5,517.5)" y="0" x="0" id="text-entity-EducationalOccupationalProgram-73c25f65-c520-530a-ab31-d67481ca2f7d-attr-24-type" class="er entityLabel">stringList</text><rect height="21" width="171.96875" y="507" x="68.7379150390625" class="er attributeBoxEven"/><text style="dominant-baseline: middle; font-size: 10.2px;" transform="translate(73.7379150390625,517.5)" y="0" x="0" id="text-entity-EducationalOccupationalProgram-73c25f65-c520-530a-ab31-d67481ca2f7d-attr-24-name" class="er entityLabel">image</text><rect height="21" width="68.7379150390625" y="528" x="0" class="er attributeBoxOdd"/><text style="dominant-baseline: middle; font-size: 10.2px;" transform="translate(5,538.5)" y="0" x="0" id="text-entity-EducationalOccupationalProgram-73c25f65-c520-530a-ab31-d67481ca2f7d-attr-25-type" class="er entityLabel">TextList</text><rect height="21" width="171.96875" y="528" x="68.7379150390625" class="er attributeBoxOdd"/><text style="dominant-baseline: middle; font-size: 10.2px;" transform="translate(73.7379150390625,538.5)" y="0" x="0" id="text-entity-EducationalOccupationalProgram-73c25f65-c520-530a-ab31-d67481ca2f7d-attr-25-name" class="er entityLabel">name</text><rect height="21" width="68.7379150390625" y="549" x="0" class="er attributeBoxEven"/><text style="dominant-baseline: middle; font-size: 10.2px;" transform="translate(5,559.5)" y="0" x="0" id="text-entity-EducationalOccupationalProgram-73c25f65-c520-530a-ab31-d67481ca2f7d-attr-26-type" class="er entityLabel">URLList</text><rect height="21" width="171.96875" y="549" x="68.7379150390625" class="er attributeBoxEven"/><text style="dominant-baseline: middle; font-size: 10.2px;" transform="translate(73.7379150390625,559.5)" y="0" x="0" id="text-entity-EducationalOccupationalProgram-73c25f65-c520-530a-ab31-d67481ca2f7d-attr-26-name" class="er entityLabel">sameAs</text><rect height="21" width="68.7379150390625" y="570" x="0" class="er attributeBoxOdd"/><text style="dominant-baseline: middle; font-size: 10.2px;" transform="translate(5,580.5)" y="0" x="0" id="text-entity-EducationalOccupationalProgram-73c25f65-c520-530a-ab31-d67481ca2f7d-attr-27-type" class="er entityLabel">stringList</text><rect height="21" width="171.96875" y="570" x="68.7379150390625" class="er attributeBoxOdd"/><text style="dominant-baseline: middle; font-size: 10.2px;" transform="translate(73.7379150390625,580.5)" y="0" x="0" id="text-entity-EducationalOccupationalProgram-73c25f65-c520-530a-ab31-d67481ca2f7d-attr-27-name" class="er entityLabel">mainEntityOfPage</text><rect height="21" width="68.7379150390625" y="591" x="0" class="er attributeBoxEven"/><text style="dominant-baseline: middle; font-size: 10.2px;" transform="translate(5,601.5)" y="0" x="0" id="text-entity-EducationalOccupationalProgram-73c25f65-c520-530a-ab31-d67481ca2f7d-attr-28-type" class="er entityLabel">stringList</text><rect height="21" width="171.96875" y="591" x="68.7379150390625" class="er attributeBoxEven"/><text style="dominant-baseline: middle; font-size: 10.2px;" transform="translate(73.7379150390625,601.5)" y="0" x="0" id="text-entity-EducationalOccupationalProgram-73c25f65-c520-530a-ab31-d67481ca2f7d-attr-28-name" class="er entityLabel">subjectOf</text><rect height="21" width="68.7379150390625" y="612" x="0" class="er attributeBoxOdd"/><text style="dominant-baseline: middle; font-size: 10.2px;" transform="translate(5,622.5)" y="0" x="0" id="text-entity-EducationalOccupationalProgram-73c25f65-c520-530a-ab31-d67481ca2f7d-attr-29-type" class="er entityLabel">URLList</text><rect height="21" width="171.96875" y="612" x="68.7379150390625" class="er attributeBoxOdd"/><text style="dominant-baseline: middle; font-size: 10.2px;" transform="translate(73.7379150390625,622.5)" y="0" x="0" id="text-entity-EducationalOccupationalProgram-73c25f65-c520-530a-ab31-d67481ca2f7d-attr-29-name" class="er entityLabel">url</text></g><g transform="translate(20,753 )" id="entity-DayOfWeek-10b17d84-0d6c-5612-82cd-c4d01e4780a8"><rect height="75" width="100.29296875" y="0" x="0" class="er entityBox"/><text style="dominant-baseline: middle; text-anchor: middle; font-size: 12px;" transform="translate(50.146484375,37.5)" y="0" x="0" id="text-entity-DayOfWeek-10b17d84-0d6c-5612-82cd-c4d01e4780a8" class="er entityLabel">DayOfWeek</text></g><g transform="translate(220.29296875,753 )" id="entity-Course-e6435c0c-5f73-5cd3-80c6-be59c059830f"><rect height="75" width="100" y="0" x="0" class="er entityBox"/><text style="dominant-baseline: middle; text-anchor: middle; font-size: 12px;" transform="translate(50,37.5)" y="0" x="0" id="text-entity-Course-e6435c0c-5f73-5cd3-80c6-be59c059830f" class="er entityLabel">Course</text></g><g transform="translate(420.29296875,753 )" id="entity-MonetaryAmountDistribution-3ca5e3da-fa82-5009-a087-5a854b9dacdf"><rect height="75" width="203.953125" y="0" x="0" class="er entityBox"/><text style="dominant-baseline: middle; text-anchor: middle; font-size: 12px;" transform="translate(101.9765625,37.5)" y="0" x="0" id="text-entity-MonetaryAmountDistribution-3ca5e3da-fa82-5009-a087-5a854b9dacdf" class="er entityLabel">MonetaryAmountDistribution</text></g><g transform="translate(724.24609375,753 )" id="entity-Duration-4925bcef-08f8-5f30-b1af-3959fea9384e"><rect height="75" width="100" y="0" x="0" class="er entityBox"/><text style="dominant-baseline: middle; text-anchor: middle; font-size: 12px;" transform="translate(50,37.5)" y="0" x="0" id="text-entity-Duration-4925bcef-08f8-5f30-b1af-3959fea9384e" class="er entityLabel">Duration</text></g><g transform="translate(924.24609375,753 )" id="entity-Action-6cd87d9a-a078-546e-a35b-bee54f477b31"><rect height="75" width="100" y="0" x="0" class="er entityBox"/><text style="dominant-baseline: middle; text-anchor: middle; font-size: 12px;" transform="translate(50,37.5)" y="0" x="0" id="text-entity-Action-6cd87d9a-a078-546e-a35b-bee54f477b31" class="er entityLabel">Action</text></g><rect height="14" width="68.669921875" y="566.3556518554688" x="224.6151123046875" class="er relationshipLabelBox"/><text style="text-anchor: middle; dominant-baseline: middle; font-size: 12px;" y="573.3556518554688" x="258.9500732421875" id="rel1" class="er relationshipLabel">dayOfWeek</text><rect height="14" width="63.109375" y="597.1073608398438" x="328.7567443847656" class="er relationshipLabelBox"/><text style="text-anchor: middle; dominant-baseline: middle; font-size: 12px;" y="604.1073608398438" x="360.3114318847656" id="rel2" class="er relationshipLabel">hasCourse</text><rect height="14" width="136.40625" y="685.9292602539062" x="390.345703125" class="er relationshipLabelBox"/><text style="text-anchor: middle; dominant-baseline: middle; font-size: 12px;" y="692.9292602539062" x="458.548828125" id="rel3" class="er relationshipLabel">salaryUponCompletion</text><rect height="14" width="80.625" y="700.1549682617188" x="665.3789672851562" class="er relationshipLabelBox"/><text style="text-anchor: middle; dominant-baseline: middle; font-size: 12px;" y="707.1549682617188" x="705.6914672851562" id="rel4" class="er relationshipLabel">termDuration</text><rect height="14" width="97.578125" y="630.7352905273438" x="732.5838623046875" class="er relationshipLabelBox"/><text style="text-anchor: middle; dominant-baseline: middle; font-size: 12px;" y="637.7352905273438" x="781.3729248046875" id="rel5" class="er relationshipLabel">timeToComplete</text><rect height="14" width="84.1875" y="700.9759521484375" x="546.5613403320312" class="er relationshipLabelBox"/><text style="text-anchor: middle; dominant-baseline: middle; font-size: 12px;" y="707.9759521484375" x="588.6550903320312" id="rel6" class="er relationshipLabel">trainingSalary</text><rect height="14" width="90.96875" y="587.0433959960938" x="815.3521728515625" class="er relationshipLabelBox"/><text style="text-anchor: middle; dominant-baseline: middle; font-size: 12px;" y="594.0433959960938" x="860.8365478515625" id="rel7" class="er relationshipLabel">potentialAction</text></svg>