<svg aria-roledescription="er" role="graphics-document document" viewBox="0 0 1240 449" style="max-width: 1240px; background-color: white;" xmlns:xlink="http://www.w3.org/1999/xlink" xmlns="http://www.w3.org/2000/svg" width="100%" id="my-svg"><style>#my-svg{font-family:"trebuchet ms",verdana,arial,sans-serif;font-size:16px;fill:#333;}#my-svg .error-icon{fill:#552222;}#my-svg .error-text{fill:#552222;stroke:#552222;}#my-svg .edge-thickness-normal{stroke-width:1px;}#my-svg .edge-thickness-thick{stroke-width:3.5px;}#my-svg .edge-pattern-solid{stroke-dasharray:0;}#my-svg .edge-thickness-invisible{stroke-width:0;fill:none;}#my-svg .edge-pattern-dashed{stroke-dasharray:3;}#my-svg .edge-pattern-dotted{stroke-dasharray:2;}#my-svg .marker{fill:#333333;stroke:#333333;}#my-svg .marker.cross{stroke:#333333;}#my-svg svg{font-family:"trebuchet ms",verdana,arial,sans-serif;font-size:16px;}#my-svg p{margin:0;}#my-svg .entityBox{fill:#ECECFF;stroke:#9370DB;}#my-svg .attributeBoxOdd{fill:#ffffff;stroke:#9370DB;}#my-svg .attributeBoxEven{fill:#f2f2f2;stroke:#9370DB;}#my-svg .relationshipLabelBox{fill:hsl(80, 100%, 96.2745098039%);opacity:0.7;background-color:hsl(80, 100%, 96.2745098039%);}#my-svg .relationshipLabelBox rect{opacity:0.5;}#my-svg .relationshipLine{stroke:#333333;}#my-svg .entityTitleText{text-anchor:middle;font-size:18px;fill:#333;}#my-svg #MD_PARENT_START{fill:#f5f5f5!important;stroke:#333333!important;stroke-width:1;}#my-svg #MD_PARENT_END{fill:#f5f5f5!important;stroke:#333333!important;stroke-width:1;}#my-svg :root{--mermaid-font-family:"trebuchet ms",verdana,arial,sans-serif;}</style><g/><defs><marker orient="auto" markerHeight="240" markerWidth="190" refY="7" refX="0" id="MD_PARENT_START"><path d="M 18,7 L9,13 L1,7 L9,1 Z"/></marker></defs><defs><marker orient="auto" markerHeight="28" markerWidth="20" refY="7" refX="19" id="MD_PARENT_END"><path d="M 18,7 L9,13 L1,7 L9,1 Z"/></marker></defs><defs><marker orient="auto" markerHeight="18" markerWidth="18" refY="9" refX="0" id="ONLY_ONE_START"><path d="M9,0 L9,18 M15,0 L15,18" fill="none" stroke="gray"/></marker></defs><defs><marker orient="auto" markerHeight="18" markerWidth="18" refY="9" refX="18" id="ONLY_ONE_END"><path d="M3,0 L3,18 M9,0 L9,18" fill="none" stroke="gray"/></marker></defs><defs><marker orient="auto" markerHeight="18" markerWidth="30" refY="9" refX="0" id="ZERO_OR_ONE_START"><circle r="6" cy="9" cx="21" fill="white" stroke="gray"/><path d="M9,0 L9,18" fill="none" stroke="gray"/></marker></defs><defs><marker orient="auto" markerHeight="18" markerWidth="30" refY="9" refX="30" id="ZERO_OR_ONE_END"><circle r="6" cy="9" cx="9" fill="white" stroke="gray"/><path d="M21,0 L21,18" fill="none" stroke="gray"/></marker></defs><defs><marker orient="auto" markerHeight="36" markerWidth="45" refY="18" refX="18" id="ONE_OR_MORE_START"><path d="M0,18 Q 18,0 36,18 Q 18,36 0,18 M42,9 L42,27" fill="none" stroke="gray"/></marker></defs><defs><marker orient="auto" markerHeight="36" markerWidth="45" refY="18" refX="27" id="ONE_OR_MORE_END"><path d="M3,9 L3,27 M9,18 Q27,0 45,18 Q27,36 9,18" fill="none" stroke="gray"/></marker></defs><defs><marker orient="auto" markerHeight="36" markerWidth="57" refY="18" refX="18" id="ZERO_OR_MORE_START"><circle r="6" cy="18" cx="48" fill="white" stroke="gray"/><path d="M0,18 Q18,0 36,18 Q18,36 0,18" fill="none" stroke="gray"/></marker></defs><defs><marker orient="auto" markerHeight="36" markerWidth="57" refY="18" refX="39" id="ZERO_OR_MORE_END"><circle r="6" cy="18" cx="9" fill="white" stroke="gray"/><path d="M21,18 Q39,0 57,18 Q39,36 21,18" fill="none" stroke="gray"/></marker></defs><path style="stroke: gray; fill: none;" marker-start="url(#ONLY_ONE_START)" marker-end="url(#ZERO_OR_MORE_END)" d="M525.883,165.577L449.902,188.648C373.922,211.718,221.961,257.859,145.98,289.263C70,320.667,70,337.333,70,345.667L70,354" class="er relationshipLine"/><path style="stroke: gray; fill: none;" marker-start="url(#ONLY_ONE_START)" marker-end="url(#ZERO_OR_MORE_END)" d="M525.883,176.294L474.902,197.578C423.922,218.863,321.961,261.431,275.742,291.049C229.524,320.667,239.048,337.333,243.81,345.667L248.571,354" class="er relationshipLine"/><path style="stroke: gray; fill: none;" marker-start="url(#ONLY_ONE_START)" marker-end="url(#ZERO_OR_MORE_END)" d="M525.883,189.392L491.569,208.493C457.255,227.595,388.628,265.797,349.552,293.232C310.476,320.667,300.952,337.333,296.19,345.667L291.429,354" class="er relationshipLine"/><path style="stroke: gray; fill: none;" marker-start="url(#ONLY_ONE_START)" marker-end="url(#ZERO_OR_MORE_END)" d="M525.883,215.588L508.236,230.323C490.589,245.059,455.294,274.529,462.647,300.202C470,325.875,520,347.75,545,358.688L570,369.625" class="er relationshipLine"/><path style="stroke: gray; fill: none;" marker-start="url(#ONLY_ONE_START)" marker-end="url(#ZERO_OR_MORE_END)" d="M549.94,254L544.95,262.333C539.96,270.667,529.98,287.333,534.514,304C539.048,320.667,558.095,337.333,567.619,345.667L577.143,354" class="er relationshipLine"/><path style="stroke: gray; fill: none;" marker-start="url(#ONLY_ONE_START)" marker-end="url(#ZERO_OR_MORE_END)" d="M620,254L620,262.333C620,270.667,620,287.333,620,304C620,320.667,620,337.333,620,345.667L620,354" class="er relationshipLine"/><path style="stroke: gray; fill: none;" marker-start="url(#ONLY_ONE_START)" marker-end="url(#ZERO_OR_MORE_END)" d="M690.06,254L695.05,262.333C700.04,270.667,710.02,287.333,705.486,304C700.952,320.667,681.905,337.333,672.381,345.667L662.857,354" class="er relationshipLine"/><path style="stroke: gray; fill: none;" marker-start="url(#ONLY_ONE_START)" marker-end="url(#ZERO_OR_MORE_END)" d="M714.117,215.588L731.764,230.323C749.411,245.059,784.706,274.529,777.353,300.202C770,325.875,720,347.75,695,358.688L670,369.625" class="er relationshipLine"/><path style="stroke: gray; fill: none;" marker-start="url(#ONLY_ONE_START)" marker-end="url(#ZERO_OR_MORE_END)" d="M714.117,189.392L748.431,208.493C782.745,227.595,851.372,265.797,890.448,293.232C929.524,320.667,939.048,337.333,943.81,345.667L948.571,354" class="er relationshipLine"/><path style="stroke: gray; fill: none;" marker-start="url(#ONLY_ONE_START)" marker-end="url(#ZERO_OR_MORE_END)" d="M714.117,165.577L790.098,188.648C866.078,211.718,1018.039,257.859,1094.02,289.263C1170,320.667,1170,337.333,1170,345.667L1170,354" class="er relationshipLine"/><path style="stroke: gray; fill: none;" marker-start="url(#ONLY_ONE_START)" marker-end="url(#ZERO_OR_MORE_END)" d="M714.117,176.294L765.098,197.578C816.078,218.863,918.039,261.431,964.258,291.049C1010.476,320.667,1000.952,337.333,996.19,345.667L991.429,354" class="er relationshipLine"/><g transform="translate(525.8828125,20 )" id="entity-EmployerAggregateRating-b9d1a695-daae-5d06-9460-3c7261186eda"><rect height="234" width="188.234375" y="0" x="0" class="er entityBox"/><text style="dominant-baseline: middle; text-anchor: middle; font-size: 12px;" transform="translate(94.1171875,12)" y="0" x="0" id="text-entity-EmployerAggregateRating-b9d1a695-daae-5d06-9460-3c7261186eda" class="er entityLabel">EmployerAggregateRating</text><rect height="21" width="71.9140625" y="24" x="0" class="er attributeBoxOdd"/><text style="dominant-baseline: middle; font-size: 10.2px;" transform="translate(5,34.5)" y="0" x="0" id="text-entity-EmployerAggregateRating-b9d1a695-daae-5d06-9460-3c7261186eda-attr-1-type" class="er entityLabel">stringList</text><rect height="21" width="116.3203125" y="24" x="71.9140625" class="er attributeBoxOdd"/><text style="dominant-baseline: middle; font-size: 10.2px;" transform="translate(76.9140625,34.5)" y="0" x="0" id="text-entity-EmployerAggregateRating-b9d1a695-daae-5d06-9460-3c7261186eda-attr-1-name" class="er entityLabel">author</text><rect height="21" width="71.9140625" y="45" x="0" class="er attributeBoxEven"/><text style="dominant-baseline: middle; font-size: 10.2px;" transform="translate(5,55.5)" y="0" x="0" id="text-entity-EmployerAggregateRating-b9d1a695-daae-5d06-9460-3c7261186eda-attr-2-type" class="er entityLabel">stringList</text><rect height="21" width="116.3203125" y="45" x="71.9140625" class="er attributeBoxEven"/><text style="dominant-baseline: middle; font-size: 10.2px;" transform="translate(76.9140625,55.5)" y="0" x="0" id="text-entity-EmployerAggregateRating-b9d1a695-daae-5d06-9460-3c7261186eda-attr-2-name" class="er entityLabel">bestRating</text><rect height="21" width="71.9140625" y="66" x="0" class="er attributeBoxOdd"/><text style="dominant-baseline: middle; font-size: 10.2px;" transform="translate(5,76.5)" y="0" x="0" id="text-entity-EmployerAggregateRating-b9d1a695-daae-5d06-9460-3c7261186eda-attr-3-type" class="er entityLabel">stringList</text><rect height="21" width="116.3203125" y="66" x="71.9140625" class="er attributeBoxOdd"/><text style="dominant-baseline: middle; font-size: 10.2px;" transform="translate(76.9140625,76.5)" y="0" x="0" id="text-entity-EmployerAggregateRating-b9d1a695-daae-5d06-9460-3c7261186eda-attr-3-name" class="er entityLabel">ratingValue</text><rect height="21" width="71.9140625" y="87" x="0" class="er attributeBoxEven"/><text style="dominant-baseline: middle; font-size: 10.2px;" transform="translate(5,97.5)" y="0" x="0" id="text-entity-EmployerAggregateRating-b9d1a695-daae-5d06-9460-3c7261186eda-attr-4-type" class="er entityLabel">stringList</text><rect height="21" width="116.3203125" y="87" x="71.9140625" class="er attributeBoxEven"/><text style="dominant-baseline: middle; font-size: 10.2px;" transform="translate(76.9140625,97.5)" y="0" x="0" id="text-entity-EmployerAggregateRating-b9d1a695-daae-5d06-9460-3c7261186eda-attr-4-name" class="er entityLabel">worstRating</text><rect height="21" width="71.9140625" y="108" x="0" class="er attributeBoxOdd"/><text style="dominant-baseline: middle; font-size: 10.2px;" transform="translate(5,118.5)" y="0" x="0" id="text-entity-EmployerAggregateRating-b9d1a695-daae-5d06-9460-3c7261186eda-attr-5-type" class="er entityLabel">stringList</text><rect height="21" width="116.3203125" y="108" x="71.9140625" class="er attributeBoxOdd"/><text style="dominant-baseline: middle; font-size: 10.2px;" transform="translate(76.9140625,118.5)" y="0" x="0" id="text-entity-EmployerAggregateRating-b9d1a695-daae-5d06-9460-3c7261186eda-attr-5-name" class="er entityLabel">additionalType</text><rect height="21" width="71.9140625" y="129" x="0" class="er attributeBoxEven"/><text style="dominant-baseline: middle; font-size: 10.2px;" transform="translate(5,139.5)" y="0" x="0" id="text-entity-EmployerAggregateRating-b9d1a695-daae-5d06-9460-3c7261186eda-attr-6-type" class="er entityLabel">stringList</text><rect height="21" width="116.3203125" y="129" x="71.9140625" class="er attributeBoxEven"/><text style="dominant-baseline: middle; font-size: 10.2px;" transform="translate(76.9140625,139.5)" y="0" x="0" id="text-entity-EmployerAggregateRating-b9d1a695-daae-5d06-9460-3c7261186eda-attr-6-name" class="er entityLabel">description</text><rect height="21" width="71.9140625" y="150" x="0" class="er attributeBoxOdd"/><text style="dominant-baseline: middle; font-size: 10.2px;" transform="translate(5,160.5)" y="0" x="0" id="text-entity-EmployerAggregateRating-b9d1a695-daae-5d06-9460-3c7261186eda-attr-7-type" class="er entityLabel">stringList</text><rect height="21" width="116.3203125" y="150" x="71.9140625" class="er attributeBoxOdd"/><text style="dominant-baseline: middle; font-size: 10.2px;" transform="translate(76.9140625,160.5)" y="0" x="0" id="text-entity-EmployerAggregateRating-b9d1a695-daae-5d06-9460-3c7261186eda-attr-7-name" class="er entityLabel">identifier</text><rect height="21" width="71.9140625" y="171" x="0" class="er attributeBoxEven"/><text style="dominant-baseline: middle; font-size: 10.2px;" transform="translate(5,181.5)" y="0" x="0" id="text-entity-EmployerAggregateRating-b9d1a695-daae-5d06-9460-3c7261186eda-attr-8-type" class="er entityLabel">stringList</text><rect height="21" width="116.3203125" y="171" x="71.9140625" class="er attributeBoxEven"/><text style="dominant-baseline: middle; font-size: 10.2px;" transform="translate(76.9140625,181.5)" y="0" x="0" id="text-entity-EmployerAggregateRating-b9d1a695-daae-5d06-9460-3c7261186eda-attr-8-name" class="er entityLabel">image</text><rect height="21" width="71.9140625" y="192" x="0" class="er attributeBoxOdd"/><text style="dominant-baseline: middle; font-size: 10.2px;" transform="translate(5,202.5)" y="0" x="0" id="text-entity-EmployerAggregateRating-b9d1a695-daae-5d06-9460-3c7261186eda-attr-9-type" class="er entityLabel">stringList</text><rect height="21" width="116.3203125" y="192" x="71.9140625" class="er attributeBoxOdd"/><text style="dominant-baseline: middle; font-size: 10.2px;" transform="translate(76.9140625,202.5)" y="0" x="0" id="text-entity-EmployerAggregateRating-b9d1a695-daae-5d06-9460-3c7261186eda-attr-9-name" class="er entityLabel">mainEntityOfPage</text><rect height="21" width="71.9140625" y="213" x="0" class="er attributeBoxEven"/><text style="dominant-baseline: middle; font-size: 10.2px;" transform="translate(5,223.5)" y="0" x="0" id="text-entity-EmployerAggregateRating-b9d1a695-daae-5d06-9460-3c7261186eda-attr-10-type" class="er entityLabel">stringList</text><rect height="21" width="116.3203125" y="213" x="71.9140625" class="er attributeBoxEven"/><text style="dominant-baseline: middle; font-size: 10.2px;" transform="translate(76.9140625,223.5)" y="0" x="0" id="text-entity-EmployerAggregateRating-b9d1a695-daae-5d06-9460-3c7261186eda-attr-10-name" class="er entityLabel">subjectOf</text></g><g transform="translate(20,354 )" id="entity-Thing-27bc9527-b992-59fc-a0fb-da83e2ff80bf"><rect height="75" width="100" y="0" x="0" class="er entityBox"/><text style="dominant-baseline: middle; text-anchor: middle; font-size: 12px;" transform="translate(50,37.5)" y="0" x="0" id="text-entity-Thing-27bc9527-b992-59fc-a0fb-da83e2ff80bf" class="er entityLabel">Thing</text></g><g transform="translate(220,354 )" id="entity-Integer-fc94dbf2-2dc2-55cd-ac16-6d1e48f8bef9"><rect height="75" width="100" y="0" x="0" class="er entityBox"/><text style="dominant-baseline: middle; text-anchor: middle; font-size: 12px;" transform="translate(50,37.5)" y="0" x="0" id="text-entity-Integer-fc94dbf2-2dc2-55cd-ac16-6d1e48f8bef9" class="er entityLabel">Integer</text></g><g transform="translate(570,354 )" id="entity-Text-426c5d39-acfc-5487-a6d9-ede67887190e"><rect height="75" width="100" y="0" x="0" class="er entityBox"/><text style="dominant-baseline: middle; text-anchor: middle; font-size: 12px;" transform="translate(50,37.5)" y="0" x="0" id="text-entity-Text-426c5d39-acfc-5487-a6d9-ede67887190e" class="er entityLabel">Text</text></g><g transform="translate(920,354 )" id="entity-URL-07f78d3e-fd74-5925-b39b-26c1cc2d6b7c"><rect height="75" width="100" y="0" x="0" class="er entityBox"/><text style="dominant-baseline: middle; text-anchor: middle; font-size: 12px;" transform="translate(50,37.5)" y="0" x="0" id="text-entity-URL-07f78d3e-fd74-5925-b39b-26c1cc2d6b7c" class="er entityLabel">URL</text></g><g transform="translate(1120,354 )" id="entity-Action-6cd87d9a-a078-546e-a35b-bee54f477b31"><rect height="75" width="100" y="0" x="0" class="er entityBox"/><text style="dominant-baseline: middle; text-anchor: middle; font-size: 12px;" transform="translate(50,37.5)" y="0" x="0" id="text-entity-Action-6cd87d9a-a078-546e-a35b-bee54f477b31" class="er entityLabel">Action</text></g><rect height="14" width="84.9375" y="233.41213989257812" x="241.31097412109375" class="er relationshipLabelBox"/><text style="text-anchor: middle; dominant-baseline: middle; font-size: 12px;" y="240.41213989257812" x="283.77972412109375" id="rel1" class="er relationshipLabel">itemReviewed</text><rect height="14" width="71.48046875" y="239.31796264648438" x="326.5350646972656" class="er relationshipLabelBox"/><text style="text-anchor: middle; dominant-baseline: middle; font-size: 12px;" y="246.31796264648438" x="362.2752990722656" id="rel2" class="er relationshipLabel">ratingCount</text><rect height="14" width="75.6171875" y="253.99880981445312" x="362.1409912109375" class="er relationshipLabelBox"/><text style="text-anchor: middle; dominant-baseline: middle; font-size: 12px;" y="260.9988098144531" x="399.9495849609375" id="rel3" class="er relationshipLabel">reviewCount</text><rect height="14" width="106.484375" y="302.2599182128906" x="413.7723388671875" class="er relationshipLabelBox"/><text style="text-anchor: middle; dominant-baseline: middle; font-size: 12px;" y="309.2599182128906" x="467.0145263671875" id="rel4" class="er relationshipLabel">ratingExplanation</text><rect height="14" width="80.744140625" y="302.92919921875" x="496.333740234375" class="er relationshipLabelBox"/><text style="text-anchor: middle; dominant-baseline: middle; font-size: 12px;" y="309.92919921875" x="536.705810546875" id="rel5" class="er relationshipLabel">reviewAspect</text><rect height="14" width="89.953125" y="297" x="575.0234375" class="er relationshipLabelBox"/><text style="text-anchor: middle; dominant-baseline: middle; font-size: 12px;" y="304" x="620" id="rel6" class="er relationshipLabel">alternateName</text><rect height="14" width="161.390625" y="302.9291687011719" x="622.598876953125" class="er relationshipLabelBox"/><text style="text-anchor: middle; dominant-baseline: middle; font-size: 12px;" y="309.9291687011719" x="703.294189453125" id="rel7" class="er relationshipLabel">disambiguatingDescription</text><rect height="14" width="34.03125" y="302.2598876953125" x="755.9699096679688" class="er relationshipLabelBox"/><text style="text-anchor: middle; dominant-baseline: middle; font-size: 12px;" y="309.2598876953125" x="772.9855346679688" id="rel8" class="er relationshipLabel">name</text><rect height="14" width="47.140625" y="253.998779296875" x="816.4801635742188" class="er relationshipLabelBox"/><text style="text-anchor: middle; dominant-baseline: middle; font-size: 12px;" y="260.998779296875" x="840.0504760742188" id="rel9" class="er relationshipLabel">sameAs</text><rect height="14" width="90.96875" y="233.41421508789062" x="910.7352294921875" class="er relationshipLabelBox"/><text style="text-anchor: middle; dominant-baseline: middle; font-size: 12px;" y="240.41421508789062" x="956.2196044921875" id="rel10" class="er relationshipLabel">potentialAction</text><rect height="14" width="15.875" y="239.31800842285156" x="869.7872924804688" class="er relationshipLabelBox"/><text style="text-anchor: middle; dominant-baseline: middle; font-size: 12px;" y="246.31800842285156" x="877.7247924804688" id="rel11" class="er relationshipLabel">url</text></svg>