<svg aria-roledescription="er" role="graphics-document document" viewBox="0 0 1897.046875 848" style="max-width: 1897.05px; background-color: white;" xmlns:xlink="http://www.w3.org/1999/xlink" xmlns="http://www.w3.org/2000/svg" width="100%" id="my-svg"><style>#my-svg{font-family:"trebuchet ms",verdana,arial,sans-serif;font-size:16px;fill:#333;}#my-svg .error-icon{fill:#552222;}#my-svg .error-text{fill:#552222;stroke:#552222;}#my-svg .edge-thickness-normal{stroke-width:1px;}#my-svg .edge-thickness-thick{stroke-width:3.5px;}#my-svg .edge-pattern-solid{stroke-dasharray:0;}#my-svg .edge-thickness-invisible{stroke-width:0;fill:none;}#my-svg .edge-pattern-dashed{stroke-dasharray:3;}#my-svg .edge-pattern-dotted{stroke-dasharray:2;}#my-svg .marker{fill:#333333;stroke:#333333;}#my-svg .marker.cross{stroke:#333333;}#my-svg svg{font-family:"trebuchet ms",verdana,arial,sans-serif;font-size:16px;}#my-svg p{margin:0;}#my-svg .entityBox{fill:#ECECFF;stroke:#9370DB;}#my-svg .attributeBoxOdd{fill:#ffffff;stroke:#9370DB;}#my-svg .attributeBoxEven{fill:#f2f2f2;stroke:#9370DB;}#my-svg .relationshipLabelBox{fill:hsl(80, 100%, 96.2745098039%);opacity:0.7;background-color:hsl(80, 100%, 96.2745098039%);}#my-svg .relationshipLabelBox rect{opacity:0.5;}#my-svg .relationshipLine{stroke:#333333;}#my-svg .entityTitleText{text-anchor:middle;font-size:18px;fill:#333;}#my-svg #MD_PARENT_START{fill:#f5f5f5!important;stroke:#333333!important;stroke-width:1;}#my-svg #MD_PARENT_END{fill:#f5f5f5!important;stroke:#333333!important;stroke-width:1;}#my-svg :root{--mermaid-font-family:"trebuchet ms",verdana,arial,sans-serif;}</style><g/><defs><marker orient="auto" markerHeight="240" markerWidth="190" refY="7" refX="0" id="MD_PARENT_START"><path d="M 18,7 L9,13 L1,7 L9,1 Z"/></marker></defs><defs><marker orient="auto" markerHeight="28" markerWidth="20" refY="7" refX="19" id="MD_PARENT_END"><path d="M 18,7 L9,13 L1,7 L9,1 Z"/></marker></defs><defs><marker orient="auto" markerHeight="18" markerWidth="18" refY="9" refX="0" id="ONLY_ONE_START"><path d="M9,0 L9,18 M15,0 L15,18" fill="none" stroke="gray"/></marker></defs><defs><marker orient="auto" markerHeight="18" markerWidth="18" refY="9" refX="18" id="ONLY_ONE_END"><path d="M3,0 L3,18 M9,0 L9,18" fill="none" stroke="gray"/></marker></defs><defs><marker orient="auto" markerHeight="18" markerWidth="30" refY="9" refX="0" id="ZERO_OR_ONE_START"><circle r="6" cy="9" cx="21" fill="white" stroke="gray"/><path d="M9,0 L9,18" fill="none" stroke="gray"/></marker></defs><defs><marker orient="auto" markerHeight="18" markerWidth="30" refY="9" refX="30" id="ZERO_OR_ONE_END"><circle r="6" cy="9" cx="9" fill="white" stroke="gray"/><path d="M21,0 L21,18" fill="none" stroke="gray"/></marker></defs><defs><marker orient="auto" markerHeight="36" markerWidth="45" refY="18" refX="18" id="ONE_OR_MORE_START"><path d="M0,18 Q 18,0 36,18 Q 18,36 0,18 M42,9 L42,27" fill="none" stroke="gray"/></marker></defs><defs><marker orient="auto" markerHeight="36" markerWidth="45" refY="18" refX="27" id="ONE_OR_MORE_END"><path d="M3,9 L3,27 M9,18 Q27,0 45,18 Q27,36 9,18" fill="none" stroke="gray"/></marker></defs><defs><marker orient="auto" markerHeight="36" markerWidth="57" refY="18" refX="18" id="ZERO_OR_MORE_START"><circle r="6" cy="18" cx="48" fill="white" stroke="gray"/><path d="M0,18 Q18,0 36,18 Q18,36 0,18" fill="none" stroke="gray"/></marker></defs><defs><marker orient="auto" markerHeight="36" markerWidth="57" refY="18" refX="39" id="ZERO_OR_MORE_END"><circle r="6" cy="18" cx="9" fill="white" stroke="gray"/><path d="M21,18 Q39,0 57,18 Q39,36 21,18" fill="none" stroke="gray"/></marker></defs><path style="stroke: gray; fill: none;" marker-start="url(#ONLY_ONE_START)" marker-end="url(#ZERO_OR_MORE_END)" d="M810.539,388.788L689.72,441.157C568.901,493.525,327.263,598.263,206.444,658.965C85.625,719.667,85.625,736.333,85.625,744.667L85.625,753" class="er relationshipLine"/><path style="stroke: gray; fill: none;" marker-start="url(#ONLY_ONE_START)" marker-end="url(#ZERO_OR_MORE_END)" d="M810.539,400.786L716.022,451.155C621.505,501.524,432.471,602.262,343.46,660.964C254.449,719.667,265.461,736.333,270.967,744.667L276.473,753" class="er relationshipLine"/><path style="stroke: gray; fill: none;" marker-start="url(#ONLY_ONE_START)" marker-end="url(#ZERO_OR_MORE_END)" d="M810.539,442.242L760.96,485.702C711.38,529.162,612.221,616.081,562.642,667.874C513.063,719.667,513.063,736.333,513.063,744.667L513.063,753" class="er relationshipLine"/><path style="stroke: gray; fill: none;" marker-start="url(#ONLY_ONE_START)" marker-end="url(#ZERO_OR_MORE_END)" d="M810.539,552.505L796.531,577.588C782.523,602.67,754.508,652.835,740.5,686.251C726.492,719.667,726.492,736.333,726.492,744.667L726.492,753" class="er relationshipLine"/><path style="stroke: gray; fill: none;" marker-start="url(#ONLY_ONE_START)" marker-end="url(#ZERO_OR_MORE_END)" d="M931.172,653L931.172,661.333C931.172,669.667,931.172,686.333,931.172,703C931.172,719.667,931.172,736.333,931.172,744.667L931.172,753" class="er relationshipLine"/><path style="stroke: gray; fill: none;" marker-start="url(#ONLY_ONE_START)" marker-end="url(#ZERO_OR_MORE_END)" d="M1051.805,513.724L1073.277,545.27C1094.75,576.816,1137.695,639.908,1159.168,679.787C1180.641,719.667,1180.641,736.333,1180.641,744.667L1180.641,753" class="er relationshipLine"/><path style="stroke: gray; fill: none;" marker-start="url(#ONLY_ONE_START)" marker-end="url(#ZERO_OR_MORE_END)" d="M1051.805,441.101L1102.145,484.751C1152.484,528.401,1253.164,615.7,1310.476,667.684C1367.787,719.667,1381.731,736.333,1388.702,744.667L1395.674,753" class="er relationshipLine"/><path style="stroke: gray; fill: none;" marker-start="url(#ONLY_ONE_START)" marker-end="url(#ZERO_OR_MORE_END)" d="M1051.805,400.034L1147.678,450.529C1243.552,501.023,1435.299,602.011,1531.173,660.839C1627.047,719.667,1627.047,736.333,1627.047,744.667L1627.047,753" class="er relationshipLine"/><path style="stroke: gray; fill: none;" marker-start="url(#ONLY_ONE_START)" marker-end="url(#ZERO_OR_MORE_END)" d="M810.539,413.522L734.975,461.768C659.411,510.015,508.284,606.507,427.396,663.087C346.507,719.667,335.859,736.333,330.534,744.667L325.21,753" class="er relationshipLine"/><path style="stroke: gray; fill: none;" marker-start="url(#ONLY_ONE_START)" marker-end="url(#ZERO_OR_MORE_END)" d="M1051.805,417.493L1122.678,465.077C1193.552,512.662,1335.299,607.831,1401.411,663.749C1467.523,719.667,1457.999,736.333,1453.237,744.667L1448.475,753" class="er relationshipLine"/><path style="stroke: gray; fill: none;" marker-start="url(#ONLY_ONE_START)" marker-end="url(#ZERO_OR_MORE_END)" d="M1051.805,385.851L1181.012,438.709C1310.219,491.567,1568.633,597.284,1697.84,658.475C1827.047,719.667,1827.047,736.333,1827.047,744.667L1827.047,753" class="er relationshipLine"/><g transform="translate(810.5390625,20 )" id="entity-FinancialProduct-edc49fd4-e187-5485-9831-9dcea4762e3a"><rect height="633" width="241.265625" y="0" x="0" class="er entityBox"/><text style="dominant-baseline: middle; text-anchor: middle; font-size: 12px;" transform="translate(120.6328125,12)" y="0" x="0" id="text-entity-FinancialProduct-edc49fd4-e187-5485-9831-9dcea4762e3a" class="er entityLabel">FinancialProduct</text><rect height="21" width="57.0625" y="24" x="0" class="er attributeBoxOdd"/><text style="dominant-baseline: middle; font-size: 10.2px;" transform="translate(5,34.5)" y="0" x="0" id="text-entity-FinancialProduct-edc49fd4-e187-5485-9831-9dcea4762e3a-attr-1-type" class="er entityLabel">stringList</text><rect height="21" width="184.203125" y="24" x="57.0625" class="er attributeBoxOdd"/><text style="dominant-baseline: middle; font-size: 10.2px;" transform="translate(62.0625,34.5)" y="0" x="0" id="text-entity-FinancialProduct-edc49fd4-e187-5485-9831-9dcea4762e3a-attr-1-name" class="er entityLabel">annualPercentageRate</text><rect height="21" width="57.0625" y="45" x="0" class="er attributeBoxEven"/><text style="dominant-baseline: middle; font-size: 10.2px;" transform="translate(5,55.5)" y="0" x="0" id="text-entity-FinancialProduct-edc49fd4-e187-5485-9831-9dcea4762e3a-attr-2-type" class="er entityLabel">stringList</text><rect height="21" width="184.203125" y="45" x="57.0625" class="er attributeBoxEven"/><text style="dominant-baseline: middle; font-size: 10.2px;" transform="translate(62.0625,55.5)" y="0" x="0" id="text-entity-FinancialProduct-edc49fd4-e187-5485-9831-9dcea4762e3a-attr-2-name" class="er entityLabel">feesAndCommissionsSpecification</text><rect height="21" width="57.0625" y="66" x="0" class="er attributeBoxOdd"/><text style="dominant-baseline: middle; font-size: 10.2px;" transform="translate(5,76.5)" y="0" x="0" id="text-entity-FinancialProduct-edc49fd4-e187-5485-9831-9dcea4762e3a-attr-3-type" class="er entityLabel">stringList</text><rect height="21" width="184.203125" y="66" x="57.0625" class="er attributeBoxOdd"/><text style="dominant-baseline: middle; font-size: 10.2px;" transform="translate(62.0625,76.5)" y="0" x="0" id="text-entity-FinancialProduct-edc49fd4-e187-5485-9831-9dcea4762e3a-attr-3-name" class="er entityLabel">interestRate</text><rect height="21" width="57.0625" y="87" x="0" class="er attributeBoxEven"/><text style="dominant-baseline: middle; font-size: 10.2px;" transform="translate(5,97.5)" y="0" x="0" id="text-entity-FinancialProduct-edc49fd4-e187-5485-9831-9dcea4762e3a-attr-4-type" class="er entityLabel">stringList</text><rect height="21" width="184.203125" y="87" x="57.0625" class="er attributeBoxEven"/><text style="dominant-baseline: middle; font-size: 10.2px;" transform="translate(62.0625,97.5)" y="0" x="0" id="text-entity-FinancialProduct-edc49fd4-e187-5485-9831-9dcea4762e3a-attr-4-name" class="er entityLabel">areaServed</text><rect height="21" width="57.0625" y="108" x="0" class="er attributeBoxOdd"/><text style="dominant-baseline: middle; font-size: 10.2px;" transform="translate(5,118.5)" y="0" x="0" id="text-entity-FinancialProduct-edc49fd4-e187-5485-9831-9dcea4762e3a-attr-5-type" class="er entityLabel">stringList</text><rect height="21" width="184.203125" y="108" x="57.0625" class="er attributeBoxOdd"/><text style="dominant-baseline: middle; font-size: 10.2px;" transform="translate(62.0625,118.5)" y="0" x="0" id="text-entity-FinancialProduct-edc49fd4-e187-5485-9831-9dcea4762e3a-attr-5-name" class="er entityLabel">category</text><rect height="21" width="57.0625" y="129" x="0" class="er attributeBoxEven"/><text style="dominant-baseline: middle; font-size: 10.2px;" transform="translate(5,139.5)" y="0" x="0" id="text-entity-FinancialProduct-edc49fd4-e187-5485-9831-9dcea4762e3a-attr-6-type" class="er entityLabel">stringList</text><rect height="21" width="184.203125" y="129" x="57.0625" class="er attributeBoxEven"/><text style="dominant-baseline: middle; font-size: 10.2px;" transform="translate(62.0625,139.5)" y="0" x="0" id="text-entity-FinancialProduct-edc49fd4-e187-5485-9831-9dcea4762e3a-attr-6-name" class="er entityLabel">logo</text><rect height="21" width="57.0625" y="150" x="0" class="er attributeBoxOdd"/><text style="dominant-baseline: middle; font-size: 10.2px;" transform="translate(5,160.5)" y="0" x="0" id="text-entity-FinancialProduct-edc49fd4-e187-5485-9831-9dcea4762e3a-attr-7-type" class="er entityLabel">TextList</text><rect height="21" width="184.203125" y="150" x="57.0625" class="er attributeBoxOdd"/><text style="dominant-baseline: middle; font-size: 10.2px;" transform="translate(62.0625,160.5)" y="0" x="0" id="text-entity-FinancialProduct-edc49fd4-e187-5485-9831-9dcea4762e3a-attr-7-name" class="er entityLabel">award</text><rect height="21" width="57.0625" y="171" x="0" class="er attributeBoxEven"/><text style="dominant-baseline: middle; font-size: 10.2px;" transform="translate(5,181.5)" y="0" x="0" id="text-entity-FinancialProduct-edc49fd4-e187-5485-9831-9dcea4762e3a-attr-8-type" class="er entityLabel">stringList</text><rect height="21" width="184.203125" y="171" x="57.0625" class="er attributeBoxEven"/><text style="dominant-baseline: middle; font-size: 10.2px;" transform="translate(62.0625,181.5)" y="0" x="0" id="text-entity-FinancialProduct-edc49fd4-e187-5485-9831-9dcea4762e3a-attr-8-name" class="er entityLabel">brand</text><rect height="21" width="57.0625" y="192" x="0" class="er attributeBoxOdd"/><text style="dominant-baseline: middle; font-size: 10.2px;" transform="translate(5,202.5)" y="0" x="0" id="text-entity-FinancialProduct-edc49fd4-e187-5485-9831-9dcea4762e3a-attr-9-type" class="er entityLabel">stringList</text><rect height="21" width="184.203125" y="192" x="57.0625" class="er attributeBoxOdd"/><text style="dominant-baseline: middle; font-size: 10.2px;" transform="translate(62.0625,202.5)" y="0" x="0" id="text-entity-FinancialProduct-edc49fd4-e187-5485-9831-9dcea4762e3a-attr-9-name" class="er entityLabel">broker</text><rect height="21" width="57.0625" y="213" x="0" class="er attributeBoxEven"/><text style="dominant-baseline: middle; font-size: 10.2px;" transform="translate(5,223.5)" y="0" x="0" id="text-entity-FinancialProduct-edc49fd4-e187-5485-9831-9dcea4762e3a-attr-10-type" class="er entityLabel">stringList</text><rect height="21" width="184.203125" y="213" x="57.0625" class="er attributeBoxEven"/><text style="dominant-baseline: middle; font-size: 10.2px;" transform="translate(62.0625,223.5)" y="0" x="0" id="text-entity-FinancialProduct-edc49fd4-e187-5485-9831-9dcea4762e3a-attr-10-name" class="er entityLabel">isRelatedTo</text><rect height="21" width="57.0625" y="234" x="0" class="er attributeBoxOdd"/><text style="dominant-baseline: middle; font-size: 10.2px;" transform="translate(5,244.5)" y="0" x="0" id="text-entity-FinancialProduct-edc49fd4-e187-5485-9831-9dcea4762e3a-attr-11-type" class="er entityLabel">stringList</text><rect height="21" width="184.203125" y="234" x="57.0625" class="er attributeBoxOdd"/><text style="dominant-baseline: middle; font-size: 10.2px;" transform="translate(62.0625,244.5)" y="0" x="0" id="text-entity-FinancialProduct-edc49fd4-e187-5485-9831-9dcea4762e3a-attr-11-name" class="er entityLabel">isSimilarTo</text><rect height="21" width="57.0625" y="255" x="0" class="er attributeBoxEven"/><text style="dominant-baseline: middle; font-size: 10.2px;" transform="translate(5,265.5)" y="0" x="0" id="text-entity-FinancialProduct-edc49fd4-e187-5485-9831-9dcea4762e3a-attr-12-type" class="er entityLabel">stringList</text><rect height="21" width="184.203125" y="255" x="57.0625" class="er attributeBoxEven"/><text style="dominant-baseline: middle; font-size: 10.2px;" transform="translate(62.0625,265.5)" y="0" x="0" id="text-entity-FinancialProduct-edc49fd4-e187-5485-9831-9dcea4762e3a-attr-12-name" class="er entityLabel">offers</text><rect height="21" width="57.0625" y="276" x="0" class="er attributeBoxOdd"/><text style="dominant-baseline: middle; font-size: 10.2px;" transform="translate(5,286.5)" y="0" x="0" id="text-entity-FinancialProduct-edc49fd4-e187-5485-9831-9dcea4762e3a-attr-13-type" class="er entityLabel">stringList</text><rect height="21" width="184.203125" y="276" x="57.0625" class="er attributeBoxOdd"/><text style="dominant-baseline: middle; font-size: 10.2px;" transform="translate(62.0625,286.5)" y="0" x="0" id="text-entity-FinancialProduct-edc49fd4-e187-5485-9831-9dcea4762e3a-attr-13-name" class="er entityLabel">provider</text><rect height="21" width="57.0625" y="297" x="0" class="er attributeBoxEven"/><text style="dominant-baseline: middle; font-size: 10.2px;" transform="translate(5,307.5)" y="0" x="0" id="text-entity-FinancialProduct-edc49fd4-e187-5485-9831-9dcea4762e3a-attr-14-type" class="er entityLabel">TextList</text><rect height="21" width="184.203125" y="297" x="57.0625" class="er attributeBoxEven"/><text style="dominant-baseline: middle; font-size: 10.2px;" transform="translate(62.0625,307.5)" y="0" x="0" id="text-entity-FinancialProduct-edc49fd4-e187-5485-9831-9dcea4762e3a-attr-14-name" class="er entityLabel">providerMobility</text><rect height="21" width="57.0625" y="318" x="0" class="er attributeBoxOdd"/><text style="dominant-baseline: middle; font-size: 10.2px;" transform="translate(5,328.5)" y="0" x="0" id="text-entity-FinancialProduct-edc49fd4-e187-5485-9831-9dcea4762e3a-attr-15-type" class="er entityLabel">stringList</text><rect height="21" width="184.203125" y="318" x="57.0625" class="er attributeBoxOdd"/><text style="dominant-baseline: middle; font-size: 10.2px;" transform="translate(62.0625,328.5)" y="0" x="0" id="text-entity-FinancialProduct-edc49fd4-e187-5485-9831-9dcea4762e3a-attr-15-name" class="er entityLabel">serviceArea</text><rect height="21" width="57.0625" y="339" x="0" class="er attributeBoxEven"/><text style="dominant-baseline: middle; font-size: 10.2px;" transform="translate(5,349.5)" y="0" x="0" id="text-entity-FinancialProduct-edc49fd4-e187-5485-9831-9dcea4762e3a-attr-16-type" class="er entityLabel">stringList</text><rect height="21" width="184.203125" y="339" x="57.0625" class="er attributeBoxEven"/><text style="dominant-baseline: middle; font-size: 10.2px;" transform="translate(62.0625,349.5)" y="0" x="0" id="text-entity-FinancialProduct-edc49fd4-e187-5485-9831-9dcea4762e3a-attr-16-name" class="er entityLabel">serviceType</text><rect height="21" width="57.0625" y="360" x="0" class="er attributeBoxOdd"/><text style="dominant-baseline: middle; font-size: 10.2px;" transform="translate(5,370.5)" y="0" x="0" id="text-entity-FinancialProduct-edc49fd4-e187-5485-9831-9dcea4762e3a-attr-17-type" class="er entityLabel">TextList</text><rect height="21" width="184.203125" y="360" x="57.0625" class="er attributeBoxOdd"/><text style="dominant-baseline: middle; font-size: 10.2px;" transform="translate(62.0625,370.5)" y="0" x="0" id="text-entity-FinancialProduct-edc49fd4-e187-5485-9831-9dcea4762e3a-attr-17-name" class="er entityLabel">slogan</text><rect height="21" width="57.0625" y="381" x="0" class="er attributeBoxEven"/><text style="dominant-baseline: middle; font-size: 10.2px;" transform="translate(5,391.5)" y="0" x="0" id="text-entity-FinancialProduct-edc49fd4-e187-5485-9831-9dcea4762e3a-attr-18-type" class="er entityLabel">stringList</text><rect height="21" width="184.203125" y="381" x="57.0625" class="er attributeBoxEven"/><text style="dominant-baseline: middle; font-size: 10.2px;" transform="translate(62.0625,391.5)" y="0" x="0" id="text-entity-FinancialProduct-edc49fd4-e187-5485-9831-9dcea4762e3a-attr-18-name" class="er entityLabel">termsOfService</text><rect height="21" width="57.0625" y="402" x="0" class="er attributeBoxOdd"/><text style="dominant-baseline: middle; font-size: 10.2px;" transform="translate(5,412.5)" y="0" x="0" id="text-entity-FinancialProduct-edc49fd4-e187-5485-9831-9dcea4762e3a-attr-19-type" class="er entityLabel">stringList</text><rect height="21" width="184.203125" y="402" x="57.0625" class="er attributeBoxOdd"/><text style="dominant-baseline: middle; font-size: 10.2px;" transform="translate(62.0625,412.5)" y="0" x="0" id="text-entity-FinancialProduct-edc49fd4-e187-5485-9831-9dcea4762e3a-attr-19-name" class="er entityLabel">additionalType</text><rect height="21" width="57.0625" y="423" x="0" class="er attributeBoxEven"/><text style="dominant-baseline: middle; font-size: 10.2px;" transform="translate(5,433.5)" y="0" x="0" id="text-entity-FinancialProduct-edc49fd4-e187-5485-9831-9dcea4762e3a-attr-20-type" class="er entityLabel">TextList</text><rect height="21" width="184.203125" y="423" x="57.0625" class="er attributeBoxEven"/><text style="dominant-baseline: middle; font-size: 10.2px;" transform="translate(62.0625,433.5)" y="0" x="0" id="text-entity-FinancialProduct-edc49fd4-e187-5485-9831-9dcea4762e3a-attr-20-name" class="er entityLabel">alternateName</text><rect height="21" width="57.0625" y="444" x="0" class="er attributeBoxOdd"/><text style="dominant-baseline: middle; font-size: 10.2px;" transform="translate(5,454.5)" y="0" x="0" id="text-entity-FinancialProduct-edc49fd4-e187-5485-9831-9dcea4762e3a-attr-21-type" class="er entityLabel">stringList</text><rect height="21" width="184.203125" y="444" x="57.0625" class="er attributeBoxOdd"/><text style="dominant-baseline: middle; font-size: 10.2px;" transform="translate(62.0625,454.5)" y="0" x="0" id="text-entity-FinancialProduct-edc49fd4-e187-5485-9831-9dcea4762e3a-attr-21-name" class="er entityLabel">description</text><rect height="21" width="57.0625" y="465" x="0" class="er attributeBoxEven"/><text style="dominant-baseline: middle; font-size: 10.2px;" transform="translate(5,475.5)" y="0" x="0" id="text-entity-FinancialProduct-edc49fd4-e187-5485-9831-9dcea4762e3a-attr-22-type" class="er entityLabel">TextList</text><rect height="21" width="184.203125" y="465" x="57.0625" class="er attributeBoxEven"/><text style="dominant-baseline: middle; font-size: 10.2px;" transform="translate(62.0625,475.5)" y="0" x="0" id="text-entity-FinancialProduct-edc49fd4-e187-5485-9831-9dcea4762e3a-attr-22-name" class="er entityLabel">disambiguatingDescription</text><rect height="21" width="57.0625" y="486" x="0" class="er attributeBoxOdd"/><text style="dominant-baseline: middle; font-size: 10.2px;" transform="translate(5,496.5)" y="0" x="0" id="text-entity-FinancialProduct-edc49fd4-e187-5485-9831-9dcea4762e3a-attr-23-type" class="er entityLabel">stringList</text><rect height="21" width="184.203125" y="486" x="57.0625" class="er attributeBoxOdd"/><text style="dominant-baseline: middle; font-size: 10.2px;" transform="translate(62.0625,496.5)" y="0" x="0" id="text-entity-FinancialProduct-edc49fd4-e187-5485-9831-9dcea4762e3a-attr-23-name" class="er entityLabel">identifier</text><rect height="21" width="57.0625" y="507" x="0" class="er attributeBoxEven"/><text style="dominant-baseline: middle; font-size: 10.2px;" transform="translate(5,517.5)" y="0" x="0" id="text-entity-FinancialProduct-edc49fd4-e187-5485-9831-9dcea4762e3a-attr-24-type" class="er entityLabel">stringList</text><rect height="21" width="184.203125" y="507" x="57.0625" class="er attributeBoxEven"/><text style="dominant-baseline: middle; font-size: 10.2px;" transform="translate(62.0625,517.5)" y="0" x="0" id="text-entity-FinancialProduct-edc49fd4-e187-5485-9831-9dcea4762e3a-attr-24-name" class="er entityLabel">image</text><rect height="21" width="57.0625" y="528" x="0" class="er attributeBoxOdd"/><text style="dominant-baseline: middle; font-size: 10.2px;" transform="translate(5,538.5)" y="0" x="0" id="text-entity-FinancialProduct-edc49fd4-e187-5485-9831-9dcea4762e3a-attr-25-type" class="er entityLabel">TextList</text><rect height="21" width="184.203125" y="528" x="57.0625" class="er attributeBoxOdd"/><text style="dominant-baseline: middle; font-size: 10.2px;" transform="translate(62.0625,538.5)" y="0" x="0" id="text-entity-FinancialProduct-edc49fd4-e187-5485-9831-9dcea4762e3a-attr-25-name" class="er entityLabel">name</text><rect height="21" width="57.0625" y="549" x="0" class="er attributeBoxEven"/><text style="dominant-baseline: middle; font-size: 10.2px;" transform="translate(5,559.5)" y="0" x="0" id="text-entity-FinancialProduct-edc49fd4-e187-5485-9831-9dcea4762e3a-attr-26-type" class="er entityLabel">URLList</text><rect height="21" width="184.203125" y="549" x="57.0625" class="er attributeBoxEven"/><text style="dominant-baseline: middle; font-size: 10.2px;" transform="translate(62.0625,559.5)" y="0" x="0" id="text-entity-FinancialProduct-edc49fd4-e187-5485-9831-9dcea4762e3a-attr-26-name" class="er entityLabel">sameAs</text><rect height="21" width="57.0625" y="570" x="0" class="er attributeBoxOdd"/><text style="dominant-baseline: middle; font-size: 10.2px;" transform="translate(5,580.5)" y="0" x="0" id="text-entity-FinancialProduct-edc49fd4-e187-5485-9831-9dcea4762e3a-attr-27-type" class="er entityLabel">stringList</text><rect height="21" width="184.203125" y="570" x="57.0625" class="er attributeBoxOdd"/><text style="dominant-baseline: middle; font-size: 10.2px;" transform="translate(62.0625,580.5)" y="0" x="0" id="text-entity-FinancialProduct-edc49fd4-e187-5485-9831-9dcea4762e3a-attr-27-name" class="er entityLabel">mainEntityOfPage</text><rect height="21" width="57.0625" y="591" x="0" class="er attributeBoxEven"/><text style="dominant-baseline: middle; font-size: 10.2px;" transform="translate(5,601.5)" y="0" x="0" id="text-entity-FinancialProduct-edc49fd4-e187-5485-9831-9dcea4762e3a-attr-28-type" class="er entityLabel">stringList</text><rect height="21" width="184.203125" y="591" x="57.0625" class="er attributeBoxEven"/><text style="dominant-baseline: middle; font-size: 10.2px;" transform="translate(62.0625,601.5)" y="0" x="0" id="text-entity-FinancialProduct-edc49fd4-e187-5485-9831-9dcea4762e3a-attr-28-name" class="er entityLabel">subjectOf</text><rect height="21" width="57.0625" y="612" x="0" class="er attributeBoxOdd"/><text style="dominant-baseline: middle; font-size: 10.2px;" transform="translate(5,622.5)" y="0" x="0" id="text-entity-FinancialProduct-edc49fd4-e187-5485-9831-9dcea4762e3a-attr-29-type" class="er entityLabel">URLList</text><rect height="21" width="184.203125" y="612" x="57.0625" class="er attributeBoxOdd"/><text style="dominant-baseline: middle; font-size: 10.2px;" transform="translate(62.0625,622.5)" y="0" x="0" id="text-entity-FinancialProduct-edc49fd4-e187-5485-9831-9dcea4762e3a-attr-29-name" class="er entityLabel">url</text></g><g transform="translate(20,753 )" id="entity-AggregateRating-aa0a8837-178a-57ab-baa0-94ad30d90eb5"><rect height="75" width="131.25" y="0" x="0" class="er entityBox"/><text style="dominant-baseline: middle; text-anchor: middle; font-size: 12px;" transform="translate(65.625,37.5)" y="0" x="0" id="text-entity-AggregateRating-aa0a8837-178a-57ab-baa0-94ad30d90eb5" class="er entityLabel">AggregateRating</text></g><g transform="translate(251.25,753 )" id="entity-Audience-f784d19a-7c58-5869-868f-14b9086fca44"><rect height="75" width="100" y="0" x="0" class="er entityBox"/><text style="dominant-baseline: middle; text-anchor: middle; font-size: 12px;" transform="translate(50,37.5)" y="0" x="0" id="text-entity-Audience-f784d19a-7c58-5869-868f-14b9086fca44" class="er entityLabel">Audience</text></g><g transform="translate(451.25,753 )" id="entity-ServiceChannel-5f9e70a6-8dc6-5d0f-a871-3e775d52af1b"><rect height="75" width="123.625" y="0" x="0" class="er entityBox"/><text style="dominant-baseline: middle; text-anchor: middle; font-size: 12px;" transform="translate(61.8125,37.5)" y="0" x="0" id="text-entity-ServiceChannel-5f9e70a6-8dc6-5d0f-a871-3e775d52af1b" class="er entityLabel">ServiceChannel</text></g><g transform="translate(674.875,753 )" id="entity-Certification-8b250de0-929b-5806-8c87-f8e7c928ef36"><rect height="75" width="103.234375" y="0" x="0" class="er entityBox"/><text style="dominant-baseline: middle; text-anchor: middle; font-size: 12px;" transform="translate(51.6171875,37.5)" y="0" x="0" id="text-entity-Certification-8b250de0-929b-5806-8c87-f8e7c928ef36" class="er entityLabel">Certification</text></g><g transform="translate(878.109375,753 )" id="entity-OfferCatalog-e4b8efcd-db96-5dc8-b042-81a3acf3e3fe"><rect height="75" width="106.125" y="0" x="0" class="er entityBox"/><text style="dominant-baseline: middle; text-anchor: middle; font-size: 12px;" transform="translate(53.0625,37.5)" y="0" x="0" id="text-entity-OfferCatalog-e4b8efcd-db96-5dc8-b042-81a3acf3e3fe" class="er entityLabel">OfferCatalog</text></g><g transform="translate(1084.234375,753 )" id="entity-OpeningHoursSpecification-677aa64f-a506-5d18-b5d1-75a0f22f6986"><rect height="75" width="192.8125" y="0" x="0" class="er entityBox"/><text style="dominant-baseline: middle; text-anchor: middle; font-size: 12px;" transform="translate(96.40625,37.5)" y="0" x="0" id="text-entity-OpeningHoursSpecification-677aa64f-a506-5d18-b5d1-75a0f22f6986" class="er entityLabel">OpeningHoursSpecification</text></g><g transform="translate(1377.046875,753 )" id="entity-Thing-27bc9527-b992-59fc-a0fb-da83e2ff80bf"><rect height="75" width="100" y="0" x="0" class="er entityBox"/><text style="dominant-baseline: middle; text-anchor: middle; font-size: 12px;" transform="translate(50,37.5)" y="0" x="0" id="text-entity-Thing-27bc9527-b992-59fc-a0fb-da83e2ff80bf" class="er entityLabel">Thing</text></g><g transform="translate(1577.046875,753 )" id="entity-Review-77c92a79-8cff-50c0-9604-f9135763cccd"><rect height="75" width="100" y="0" x="0" class="er entityBox"/><text style="dominant-baseline: middle; text-anchor: middle; font-size: 12px;" transform="translate(50,37.5)" y="0" x="0" id="text-entity-Review-77c92a79-8cff-50c0-9604-f9135763cccd" class="er entityLabel">Review</text></g><g transform="translate(1777.046875,753 )" id="entity-Action-6cd87d9a-a078-546e-a35b-bee54f477b31"><rect height="75" width="100" y="0" x="0" class="er entityBox"/><text style="dominant-baseline: middle; text-anchor: middle; font-size: 12px;" transform="translate(50,37.5)" y="0" x="0" id="text-entity-Action-6cd87d9a-a078-546e-a35b-bee54f477b31" class="er entityLabel">Action</text></g><rect height="14" width="100.390625" y="546.2321166992188" x="383.7592468261719" class="er relationshipLabelBox"/><text style="text-anchor: middle; dominant-baseline: middle; font-size: 12px;" y="553.2321166992188" x="433.9545593261719" id="rel1" class="er relationshipLabel">aggregateRating</text><rect height="14" width="54.890625" y="551.1663208007812" x="490.78778076171875" class="er relationshipLabelBox"/><text style="text-anchor: middle; dominant-baseline: middle; font-size: 12px;" y="558.1663208007812" x="518.2330932617188" id="rel2" class="er relationshipLabel">audience</text><rect height="14" width="103.4375" y="580.071044921875" x="595.3255615234375" class="er relationshipLabelBox"/><text style="text-anchor: middle; dominant-baseline: middle; font-size: 12px;" y="587.071044921875" x="647.0443115234375" id="rel3" class="er relationshipLabel">availableChannel</text><rect height="14" width="94.453125" y="642.0684814453125" x="710.7778930664062" class="er relationshipLabelBox"/><text style="text-anchor: middle; dominant-baseline: middle; font-size: 12px;" y="649.0684814453125" x="758.0044555664062" id="rel4" class="er relationshipLabel">hasCertification</text><rect height="14" width="97.328125" y="696" x="882.5079345703125" class="er relationshipLabelBox"/><text style="text-anchor: middle; dominant-baseline: middle; font-size: 12px;" y="703" x="931.1719970703125" id="rel5" class="er relationshipLabel">hasOfferCatalog</text><rect height="14" width="88.0625" y="621.1110229492188" x="1084.2447509765625" class="er relationshipLabelBox"/><text style="text-anchor: middle; dominant-baseline: middle; font-size: 12px;" y="628.1110229492188" x="1128.2760009765625" id="rel6" class="er relationshipLabel">hoursAvailable</text><rect height="14" width="55.09375" y="586.5623168945312" x="1199.50927734375" class="er relationshipLabelBox"/><text style="text-anchor: middle; dominant-baseline: middle; font-size: 12px;" y="593.5623168945312" x="1227.05615234375" id="rel7" class="er relationshipLabel">produces</text><rect height="14" width="39.87109375" y="553.5451049804688" x="1334.218017578125" class="er relationshipLabelBox"/><text style="text-anchor: middle; dominant-baseline: middle; font-size: 12px;" y="560.5451049804688" x="1354.153564453125" id="rel8" class="er relationshipLabel">review</text><rect height="14" width="98.71875" y="567.0914916992188" x="511.09735107421875" class="er relationshipLabelBox"/><text style="text-anchor: middle; dominant-baseline: middle; font-size: 12px;" y="574.0914916992188" x="560.4567260742188" id="rel9" class="er relationshipLabel">serviceAudience</text><rect height="14" width="84.962890625" y="562.2346801757812" x="1232.6832275390625" class="er relationshipLabelBox"/><text style="text-anchor: middle; dominant-baseline: middle; font-size: 12px;" y="569.2346801757812" x="1275.1646728515625" id="rel10" class="er relationshipLabel">serviceOutput</text><rect height="14" width="90.96875" y="544.3170776367188" x="1407.8524169921875" class="er relationshipLabelBox"/><text style="text-anchor: middle; dominant-baseline: middle; font-size: 12px;" y="551.3170776367188" x="1453.3367919921875" id="rel11" class="er relationshipLabel">potentialAction</text></svg>