<svg aria-roledescription="er" role="graphics-document document" viewBox="0 0 1061.8125 743" style="max-width: 1061.81px; background-color: white;" xmlns:xlink="http://www.w3.org/1999/xlink" xmlns="http://www.w3.org/2000/svg" width="100%" id="my-svg"><style>#my-svg{font-family:"trebuchet ms",verdana,arial,sans-serif;font-size:16px;fill:#333;}#my-svg .error-icon{fill:#552222;}#my-svg .error-text{fill:#552222;stroke:#552222;}#my-svg .edge-thickness-normal{stroke-width:1px;}#my-svg .edge-thickness-thick{stroke-width:3.5px;}#my-svg .edge-pattern-solid{stroke-dasharray:0;}#my-svg .edge-thickness-invisible{stroke-width:0;fill:none;}#my-svg .edge-pattern-dashed{stroke-dasharray:3;}#my-svg .edge-pattern-dotted{stroke-dasharray:2;}#my-svg .marker{fill:#333333;stroke:#333333;}#my-svg .marker.cross{stroke:#333333;}#my-svg svg{font-family:"trebuchet ms",verdana,arial,sans-serif;font-size:16px;}#my-svg p{margin:0;}#my-svg .entityBox{fill:#ECECFF;stroke:#9370DB;}#my-svg .attributeBoxOdd{fill:#ffffff;stroke:#9370DB;}#my-svg .attributeBoxEven{fill:#f2f2f2;stroke:#9370DB;}#my-svg .relationshipLabelBox{fill:hsl(80, 100%, 96.2745098039%);opacity:0.7;background-color:hsl(80, 100%, 96.2745098039%);}#my-svg .relationshipLabelBox rect{opacity:0.5;}#my-svg .relationshipLine{stroke:#333333;}#my-svg .entityTitleText{text-anchor:middle;font-size:18px;fill:#333;}#my-svg #MD_PARENT_START{fill:#f5f5f5!important;stroke:#333333!important;stroke-width:1;}#my-svg #MD_PARENT_END{fill:#f5f5f5!important;stroke:#333333!important;stroke-width:1;}#my-svg :root{--mermaid-font-family:"trebuchet ms",verdana,arial,sans-serif;}</style><g/><defs><marker orient="auto" markerHeight="240" markerWidth="190" refY="7" refX="0" id="MD_PARENT_START"><path d="M 18,7 L9,13 L1,7 L9,1 Z"/></marker></defs><defs><marker orient="auto" markerHeight="28" markerWidth="20" refY="7" refX="19" id="MD_PARENT_END"><path d="M 18,7 L9,13 L1,7 L9,1 Z"/></marker></defs><defs><marker orient="auto" markerHeight="18" markerWidth="18" refY="9" refX="0" id="ONLY_ONE_START"><path d="M9,0 L9,18 M15,0 L15,18" fill="none" stroke="gray"/></marker></defs><defs><marker orient="auto" markerHeight="18" markerWidth="18" refY="9" refX="18" id="ONLY_ONE_END"><path d="M3,0 L3,18 M9,0 L9,18" fill="none" stroke="gray"/></marker></defs><defs><marker orient="auto" markerHeight="18" markerWidth="30" refY="9" refX="0" id="ZERO_OR_ONE_START"><circle r="6" cy="9" cx="21" fill="white" stroke="gray"/><path d="M9,0 L9,18" fill="none" stroke="gray"/></marker></defs><defs><marker orient="auto" markerHeight="18" markerWidth="30" refY="9" refX="30" id="ZERO_OR_ONE_END"><circle r="6" cy="9" cx="9" fill="white" stroke="gray"/><path d="M21,0 L21,18" fill="none" stroke="gray"/></marker></defs><defs><marker orient="auto" markerHeight="36" markerWidth="45" refY="18" refX="18" id="ONE_OR_MORE_START"><path d="M0,18 Q 18,0 36,18 Q 18,36 0,18 M42,9 L42,27" fill="none" stroke="gray"/></marker></defs><defs><marker orient="auto" markerHeight="36" markerWidth="45" refY="18" refX="27" id="ONE_OR_MORE_END"><path d="M3,9 L3,27 M9,18 Q27,0 45,18 Q27,36 9,18" fill="none" stroke="gray"/></marker></defs><defs><marker orient="auto" markerHeight="36" markerWidth="57" refY="18" refX="18" id="ZERO_OR_MORE_START"><circle r="6" cy="18" cx="48" fill="white" stroke="gray"/><path d="M0,18 Q18,0 36,18 Q18,36 0,18" fill="none" stroke="gray"/></marker></defs><defs><marker orient="auto" markerHeight="36" markerWidth="57" refY="18" refX="39" id="ZERO_OR_MORE_END"><circle r="6" cy="18" cx="9" fill="white" stroke="gray"/><path d="M21,18 Q39,0 57,18 Q39,36 21,18" fill="none" stroke="gray"/></marker></defs><path style="stroke: gray; fill: none;" marker-start="url(#ONLY_ONE_START)" marker-end="url(#ZERO_OR_MORE_END)" d="M442.286,363.045L384.806,402.204C327.326,441.363,212.366,519.682,154.886,567.174C97.406,614.667,97.406,631.333,97.406,639.667L97.406,648" class="er relationshipLine"/><path style="stroke: gray; fill: none;" marker-start="url(#ONLY_ONE_START)" marker-end="url(#ZERO_OR_MORE_END)" d="M442.286,440.027L422.707,466.356C403.128,492.685,363.97,545.342,344.391,580.005C324.813,614.667,324.813,631.333,324.813,639.667L324.813,648" class="er relationshipLine"/><path style="stroke: gray; fill: none;" marker-start="url(#ONLY_ONE_START)" marker-end="url(#ZERO_OR_MORE_END)" d="M558.313,548L558.313,556.333C558.313,564.667,558.313,581.333,558.313,598C558.313,614.667,558.313,631.333,558.313,639.667L558.313,648" class="er relationshipLine"/><path style="stroke: gray; fill: none;" marker-start="url(#ONLY_ONE_START)" marker-end="url(#ZERO_OR_MORE_END)" d="M674.339,440.027L693.918,466.356C713.497,492.685,752.655,545.342,772.234,580.005C791.813,614.667,791.813,631.333,791.813,639.667L791.813,648" class="er relationshipLine"/><path style="stroke: gray; fill: none;" marker-start="url(#ONLY_ONE_START)" marker-end="url(#ZERO_OR_MORE_END)" d="M674.339,368.042L727.251,406.369C780.164,444.695,885.988,521.347,938.9,568.007C991.813,614.667,991.813,631.333,991.813,639.667L991.813,648" class="er relationshipLine"/><g transform="translate(442.28589630126953,20 )" id="entity-FlightReservation-2d444e00-74e5-5737-8440-c490d0658afc"><rect height="528" width="232.05320739746094" y="0" x="0" class="er entityBox"/><text style="dominant-baseline: middle; text-anchor: middle; font-size: 12px;" transform="translate(116.02660369873047,12)" y="0" x="0" id="text-entity-FlightReservation-2d444e00-74e5-5737-8440-c490d0658afc" class="er entityLabel">FlightReservation</text><rect height="21" width="77.09446716308594" y="24" x="0" class="er attributeBoxOdd"/><text style="dominant-baseline: middle; font-size: 10.2px;" transform="translate(5,34.5)" y="0" x="0" id="text-entity-FlightReservation-2d444e00-74e5-5737-8440-c490d0658afc-attr-1-type" class="er entityLabel">TextList</text><rect height="21" width="154.958740234375" y="24" x="77.09446716308594" class="er attributeBoxOdd"/><text style="dominant-baseline: middle; font-size: 10.2px;" transform="translate(82.09446716308594,34.5)" y="0" x="0" id="text-entity-FlightReservation-2d444e00-74e5-5737-8440-c490d0658afc-attr-1-name" class="er entityLabel">boardingGroup</text><rect height="21" width="77.09446716308594" y="45" x="0" class="er attributeBoxEven"/><text style="dominant-baseline: middle; font-size: 10.2px;" transform="translate(5,55.5)" y="0" x="0" id="text-entity-FlightReservation-2d444e00-74e5-5737-8440-c490d0658afc-attr-2-type" class="er entityLabel">stringList</text><rect height="21" width="154.958740234375" y="45" x="77.09446716308594" class="er attributeBoxEven"/><text style="dominant-baseline: middle; font-size: 10.2px;" transform="translate(82.09446716308594,55.5)" y="0" x="0" id="text-entity-FlightReservation-2d444e00-74e5-5737-8440-c490d0658afc-attr-2-name" class="er entityLabel">passengerPriorityStatus</text><rect height="21" width="77.09446716308594" y="66" x="0" class="er attributeBoxOdd"/><text style="dominant-baseline: middle; font-size: 10.2px;" transform="translate(5,76.5)" y="0" x="0" id="text-entity-FlightReservation-2d444e00-74e5-5737-8440-c490d0658afc-attr-3-type" class="er entityLabel">TextList</text><rect height="21" width="154.958740234375" y="66" x="77.09446716308594" class="er attributeBoxOdd"/><text style="dominant-baseline: middle; font-size: 10.2px;" transform="translate(82.09446716308594,76.5)" y="0" x="0" id="text-entity-FlightReservation-2d444e00-74e5-5737-8440-c490d0658afc-attr-3-name" class="er entityLabel">passengerSequenceNumber</text><rect height="21" width="77.09446716308594" y="87" x="0" class="er attributeBoxEven"/><text style="dominant-baseline: middle; font-size: 10.2px;" transform="translate(5,97.5)" y="0" x="0" id="text-entity-FlightReservation-2d444e00-74e5-5737-8440-c490d0658afc-attr-4-type" class="er entityLabel">TextList</text><rect height="21" width="154.958740234375" y="87" x="77.09446716308594" class="er attributeBoxEven"/><text style="dominant-baseline: middle; font-size: 10.2px;" transform="translate(82.09446716308594,97.5)" y="0" x="0" id="text-entity-FlightReservation-2d444e00-74e5-5737-8440-c490d0658afc-attr-4-name" class="er entityLabel">securityScreening</text><rect height="21" width="77.09446716308594" y="108" x="0" class="er attributeBoxOdd"/><text style="dominant-baseline: middle; font-size: 10.2px;" transform="translate(5,118.5)" y="0" x="0" id="text-entity-FlightReservation-2d444e00-74e5-5737-8440-c490d0658afc-attr-5-type" class="er entityLabel">stringList</text><rect height="21" width="154.958740234375" y="108" x="77.09446716308594" class="er attributeBoxOdd"/><text style="dominant-baseline: middle; font-size: 10.2px;" transform="translate(82.09446716308594,118.5)" y="0" x="0" id="text-entity-FlightReservation-2d444e00-74e5-5737-8440-c490d0658afc-attr-5-name" class="er entityLabel">bookingAgent</text><rect height="21" width="77.09446716308594" y="129" x="0" class="er attributeBoxEven"/><text style="dominant-baseline: middle; font-size: 10.2px;" transform="translate(5,139.5)" y="0" x="0" id="text-entity-FlightReservation-2d444e00-74e5-5737-8440-c490d0658afc-attr-6-type" class="er entityLabel">DateTimeList</text><rect height="21" width="154.958740234375" y="129" x="77.09446716308594" class="er attributeBoxEven"/><text style="dominant-baseline: middle; font-size: 10.2px;" transform="translate(82.09446716308594,139.5)" y="0" x="0" id="text-entity-FlightReservation-2d444e00-74e5-5737-8440-c490d0658afc-attr-6-name" class="er entityLabel">bookingTime</text><rect height="21" width="77.09446716308594" y="150" x="0" class="er attributeBoxOdd"/><text style="dominant-baseline: middle; font-size: 10.2px;" transform="translate(5,160.5)" y="0" x="0" id="text-entity-FlightReservation-2d444e00-74e5-5737-8440-c490d0658afc-attr-7-type" class="er entityLabel">stringList</text><rect height="21" width="154.958740234375" y="150" x="77.09446716308594" class="er attributeBoxOdd"/><text style="dominant-baseline: middle; font-size: 10.2px;" transform="translate(82.09446716308594,160.5)" y="0" x="0" id="text-entity-FlightReservation-2d444e00-74e5-5737-8440-c490d0658afc-attr-7-name" class="er entityLabel">broker</text><rect height="21" width="77.09446716308594" y="171" x="0" class="er attributeBoxEven"/><text style="dominant-baseline: middle; font-size: 10.2px;" transform="translate(5,181.5)" y="0" x="0" id="text-entity-FlightReservation-2d444e00-74e5-5737-8440-c490d0658afc-attr-8-type" class="er entityLabel">DateTimeList</text><rect height="21" width="154.958740234375" y="171" x="77.09446716308594" class="er attributeBoxEven"/><text style="dominant-baseline: middle; font-size: 10.2px;" transform="translate(82.09446716308594,181.5)" y="0" x="0" id="text-entity-FlightReservation-2d444e00-74e5-5737-8440-c490d0658afc-attr-8-name" class="er entityLabel">modifiedTime</text><rect height="21" width="77.09446716308594" y="192" x="0" class="er attributeBoxOdd"/><text style="dominant-baseline: middle; font-size: 10.2px;" transform="translate(5,202.5)" y="0" x="0" id="text-entity-FlightReservation-2d444e00-74e5-5737-8440-c490d0658afc-attr-9-type" class="er entityLabel">TextList</text><rect height="21" width="154.958740234375" y="192" x="77.09446716308594" class="er attributeBoxOdd"/><text style="dominant-baseline: middle; font-size: 10.2px;" transform="translate(82.09446716308594,202.5)" y="0" x="0" id="text-entity-FlightReservation-2d444e00-74e5-5737-8440-c490d0658afc-attr-9-name" class="er entityLabel">priceCurrency</text><rect height="21" width="77.09446716308594" y="213" x="0" class="er attributeBoxEven"/><text style="dominant-baseline: middle; font-size: 10.2px;" transform="translate(5,223.5)" y="0" x="0" id="text-entity-FlightReservation-2d444e00-74e5-5737-8440-c490d0658afc-attr-10-type" class="er entityLabel">stringList</text><rect height="21" width="154.958740234375" y="213" x="77.09446716308594" class="er attributeBoxEven"/><text style="dominant-baseline: middle; font-size: 10.2px;" transform="translate(82.09446716308594,223.5)" y="0" x="0" id="text-entity-FlightReservation-2d444e00-74e5-5737-8440-c490d0658afc-attr-10-name" class="er entityLabel">provider</text><rect height="21" width="77.09446716308594" y="234" x="0" class="er attributeBoxOdd"/><text style="dominant-baseline: middle; font-size: 10.2px;" transform="translate(5,244.5)" y="0" x="0" id="text-entity-FlightReservation-2d444e00-74e5-5737-8440-c490d0658afc-attr-11-type" class="er entityLabel">TextList</text><rect height="21" width="154.958740234375" y="234" x="77.09446716308594" class="er attributeBoxOdd"/><text style="dominant-baseline: middle; font-size: 10.2px;" transform="translate(82.09446716308594,244.5)" y="0" x="0" id="text-entity-FlightReservation-2d444e00-74e5-5737-8440-c490d0658afc-attr-11-name" class="er entityLabel">reservationId</text><rect height="21" width="77.09446716308594" y="255" x="0" class="er attributeBoxEven"/><text style="dominant-baseline: middle; font-size: 10.2px;" transform="translate(5,265.5)" y="0" x="0" id="text-entity-FlightReservation-2d444e00-74e5-5737-8440-c490d0658afc-attr-12-type" class="er entityLabel">stringList</text><rect height="21" width="154.958740234375" y="255" x="77.09446716308594" class="er attributeBoxEven"/><text style="dominant-baseline: middle; font-size: 10.2px;" transform="translate(82.09446716308594,265.5)" y="0" x="0" id="text-entity-FlightReservation-2d444e00-74e5-5737-8440-c490d0658afc-attr-12-name" class="er entityLabel">totalPrice</text><rect height="21" width="77.09446716308594" y="276" x="0" class="er attributeBoxOdd"/><text style="dominant-baseline: middle; font-size: 10.2px;" transform="translate(5,286.5)" y="0" x="0" id="text-entity-FlightReservation-2d444e00-74e5-5737-8440-c490d0658afc-attr-13-type" class="er entityLabel">stringList</text><rect height="21" width="154.958740234375" y="276" x="77.09446716308594" class="er attributeBoxOdd"/><text style="dominant-baseline: middle; font-size: 10.2px;" transform="translate(82.09446716308594,286.5)" y="0" x="0" id="text-entity-FlightReservation-2d444e00-74e5-5737-8440-c490d0658afc-attr-13-name" class="er entityLabel">underName</text><rect height="21" width="77.09446716308594" y="297" x="0" class="er attributeBoxEven"/><text style="dominant-baseline: middle; font-size: 10.2px;" transform="translate(5,307.5)" y="0" x="0" id="text-entity-FlightReservation-2d444e00-74e5-5737-8440-c490d0658afc-attr-14-type" class="er entityLabel">stringList</text><rect height="21" width="154.958740234375" y="297" x="77.09446716308594" class="er attributeBoxEven"/><text style="dominant-baseline: middle; font-size: 10.2px;" transform="translate(82.09446716308594,307.5)" y="0" x="0" id="text-entity-FlightReservation-2d444e00-74e5-5737-8440-c490d0658afc-attr-14-name" class="er entityLabel">additionalType</text><rect height="21" width="77.09446716308594" y="318" x="0" class="er attributeBoxOdd"/><text style="dominant-baseline: middle; font-size: 10.2px;" transform="translate(5,328.5)" y="0" x="0" id="text-entity-FlightReservation-2d444e00-74e5-5737-8440-c490d0658afc-attr-15-type" class="er entityLabel">TextList</text><rect height="21" width="154.958740234375" y="318" x="77.09446716308594" class="er attributeBoxOdd"/><text style="dominant-baseline: middle; font-size: 10.2px;" transform="translate(82.09446716308594,328.5)" y="0" x="0" id="text-entity-FlightReservation-2d444e00-74e5-5737-8440-c490d0658afc-attr-15-name" class="er entityLabel">alternateName</text><rect height="21" width="77.09446716308594" y="339" x="0" class="er attributeBoxEven"/><text style="dominant-baseline: middle; font-size: 10.2px;" transform="translate(5,349.5)" y="0" x="0" id="text-entity-FlightReservation-2d444e00-74e5-5737-8440-c490d0658afc-attr-16-type" class="er entityLabel">stringList</text><rect height="21" width="154.958740234375" y="339" x="77.09446716308594" class="er attributeBoxEven"/><text style="dominant-baseline: middle; font-size: 10.2px;" transform="translate(82.09446716308594,349.5)" y="0" x="0" id="text-entity-FlightReservation-2d444e00-74e5-5737-8440-c490d0658afc-attr-16-name" class="er entityLabel">description</text><rect height="21" width="77.09446716308594" y="360" x="0" class="er attributeBoxOdd"/><text style="dominant-baseline: middle; font-size: 10.2px;" transform="translate(5,370.5)" y="0" x="0" id="text-entity-FlightReservation-2d444e00-74e5-5737-8440-c490d0658afc-attr-17-type" class="er entityLabel">TextList</text><rect height="21" width="154.958740234375" y="360" x="77.09446716308594" class="er attributeBoxOdd"/><text style="dominant-baseline: middle; font-size: 10.2px;" transform="translate(82.09446716308594,370.5)" y="0" x="0" id="text-entity-FlightReservation-2d444e00-74e5-5737-8440-c490d0658afc-attr-17-name" class="er entityLabel">disambiguatingDescription</text><rect height="21" width="77.09446716308594" y="381" x="0" class="er attributeBoxEven"/><text style="dominant-baseline: middle; font-size: 10.2px;" transform="translate(5,391.5)" y="0" x="0" id="text-entity-FlightReservation-2d444e00-74e5-5737-8440-c490d0658afc-attr-18-type" class="er entityLabel">stringList</text><rect height="21" width="154.958740234375" y="381" x="77.09446716308594" class="er attributeBoxEven"/><text style="dominant-baseline: middle; font-size: 10.2px;" transform="translate(82.09446716308594,391.5)" y="0" x="0" id="text-entity-FlightReservation-2d444e00-74e5-5737-8440-c490d0658afc-attr-18-name" class="er entityLabel">identifier</text><rect height="21" width="77.09446716308594" y="402" x="0" class="er attributeBoxOdd"/><text style="dominant-baseline: middle; font-size: 10.2px;" transform="translate(5,412.5)" y="0" x="0" id="text-entity-FlightReservation-2d444e00-74e5-5737-8440-c490d0658afc-attr-19-type" class="er entityLabel">stringList</text><rect height="21" width="154.958740234375" y="402" x="77.09446716308594" class="er attributeBoxOdd"/><text style="dominant-baseline: middle; font-size: 10.2px;" transform="translate(82.09446716308594,412.5)" y="0" x="0" id="text-entity-FlightReservation-2d444e00-74e5-5737-8440-c490d0658afc-attr-19-name" class="er entityLabel">image</text><rect height="21" width="77.09446716308594" y="423" x="0" class="er attributeBoxEven"/><text style="dominant-baseline: middle; font-size: 10.2px;" transform="translate(5,433.5)" y="0" x="0" id="text-entity-FlightReservation-2d444e00-74e5-5737-8440-c490d0658afc-attr-20-type" class="er entityLabel">TextList</text><rect height="21" width="154.958740234375" y="423" x="77.09446716308594" class="er attributeBoxEven"/><text style="dominant-baseline: middle; font-size: 10.2px;" transform="translate(82.09446716308594,433.5)" y="0" x="0" id="text-entity-FlightReservation-2d444e00-74e5-5737-8440-c490d0658afc-attr-20-name" class="er entityLabel">name</text><rect height="21" width="77.09446716308594" y="444" x="0" class="er attributeBoxOdd"/><text style="dominant-baseline: middle; font-size: 10.2px;" transform="translate(5,454.5)" y="0" x="0" id="text-entity-FlightReservation-2d444e00-74e5-5737-8440-c490d0658afc-attr-21-type" class="er entityLabel">URLList</text><rect height="21" width="154.958740234375" y="444" x="77.09446716308594" class="er attributeBoxOdd"/><text style="dominant-baseline: middle; font-size: 10.2px;" transform="translate(82.09446716308594,454.5)" y="0" x="0" id="text-entity-FlightReservation-2d444e00-74e5-5737-8440-c490d0658afc-attr-21-name" class="er entityLabel">sameAs</text><rect height="21" width="77.09446716308594" y="465" x="0" class="er attributeBoxEven"/><text style="dominant-baseline: middle; font-size: 10.2px;" transform="translate(5,475.5)" y="0" x="0" id="text-entity-FlightReservation-2d444e00-74e5-5737-8440-c490d0658afc-attr-22-type" class="er entityLabel">stringList</text><rect height="21" width="154.958740234375" y="465" x="77.09446716308594" class="er attributeBoxEven"/><text style="dominant-baseline: middle; font-size: 10.2px;" transform="translate(82.09446716308594,475.5)" y="0" x="0" id="text-entity-FlightReservation-2d444e00-74e5-5737-8440-c490d0658afc-attr-22-name" class="er entityLabel">mainEntityOfPage</text><rect height="21" width="77.09446716308594" y="486" x="0" class="er attributeBoxOdd"/><text style="dominant-baseline: middle; font-size: 10.2px;" transform="translate(5,496.5)" y="0" x="0" id="text-entity-FlightReservation-2d444e00-74e5-5737-8440-c490d0658afc-attr-23-type" class="er entityLabel">stringList</text><rect height="21" width="154.958740234375" y="486" x="77.09446716308594" class="er attributeBoxOdd"/><text style="dominant-baseline: middle; font-size: 10.2px;" transform="translate(82.09446716308594,496.5)" y="0" x="0" id="text-entity-FlightReservation-2d444e00-74e5-5737-8440-c490d0658afc-attr-23-name" class="er entityLabel">subjectOf</text><rect height="21" width="77.09446716308594" y="507" x="0" class="er attributeBoxEven"/><text style="dominant-baseline: middle; font-size: 10.2px;" transform="translate(5,517.5)" y="0" x="0" id="text-entity-FlightReservation-2d444e00-74e5-5737-8440-c490d0658afc-attr-24-type" class="er entityLabel">URLList</text><rect height="21" width="154.958740234375" y="507" x="77.09446716308594" class="er attributeBoxEven"/><text style="dominant-baseline: middle; font-size: 10.2px;" transform="translate(82.09446716308594,517.5)" y="0" x="0" id="text-entity-FlightReservation-2d444e00-74e5-5737-8440-c490d0658afc-attr-24-name" class="er entityLabel">url</text></g><g transform="translate(20,648 )" id="entity-ProgramMembership-dc4ad43d-371a-54e9-b020-38f0264dbead"><rect height="75" width="154.8125" y="0" x="0" class="er entityBox"/><text style="dominant-baseline: middle; text-anchor: middle; font-size: 12px;" transform="translate(77.40625,37.5)" y="0" x="0" id="text-entity-ProgramMembership-dc4ad43d-371a-54e9-b020-38f0264dbead" class="er entityLabel">ProgramMembership</text></g><g transform="translate(274.8125,648 )" id="entity-Thing-27bc9527-b992-59fc-a0fb-da83e2ff80bf"><rect height="75" width="100" y="0" x="0" class="er entityBox"/><text style="dominant-baseline: middle; text-anchor: middle; font-size: 12px;" transform="translate(50,37.5)" y="0" x="0" id="text-entity-Thing-27bc9527-b992-59fc-a0fb-da83e2ff80bf" class="er entityLabel">Thing</text></g><g transform="translate(474.8125,648 )" id="entity-ReservationStatusType-226ac545-7c7e-5fea-8186-370f7e691b71"><rect height="75" width="167" y="0" x="0" class="er entityBox"/><text style="dominant-baseline: middle; text-anchor: middle; font-size: 12px;" transform="translate(83.5,37.5)" y="0" x="0" id="text-entity-ReservationStatusType-226ac545-7c7e-5fea-8186-370f7e691b71" class="er entityLabel">ReservationStatusType</text></g><g transform="translate(741.8125,648 )" id="entity-Ticket-d7e8b329-0aaa-5985-99a1-9a1fad0790bd"><rect height="75" width="100" y="0" x="0" class="er entityBox"/><text style="dominant-baseline: middle; text-anchor: middle; font-size: 12px;" transform="translate(50,37.5)" y="0" x="0" id="text-entity-Ticket-d7e8b329-0aaa-5985-99a1-9a1fad0790bd" class="er entityLabel">Ticket</text></g><g transform="translate(941.8125,648 )" id="entity-Action-6cd87d9a-a078-546e-a35b-bee54f477b31"><rect height="75" width="100" y="0" x="0" class="er entityBox"/><text style="dominant-baseline: middle; text-anchor: middle; font-size: 12px;" transform="translate(50,37.5)" y="0" x="0" id="text-entity-Action-6cd87d9a-a078-546e-a35b-bee54f477b31" class="er entityLabel">Action</text></g><rect height="14" width="155.4375" y="485.36651611328125" x="176.87997436523438" class="er relationshipLabelBox"/><text style="text-anchor: middle; dominant-baseline: middle; font-size: 12px;" y="492.36651611328125" x="254.59872436523438" id="rel1" class="er relationshipLabel">programMembershipUsed</text><rect height="14" width="86.87890625" y="531.2135009765625" x="327.4918518066406" class="er relationshipLabelBox"/><text style="text-anchor: middle; dominant-baseline: middle; font-size: 12px;" y="538.2135009765625" x="370.9313049316406" id="rel2" class="er relationshipLabel">reservationFor</text><rect height="14" width="106.3125" y="591" x="505.15673828125" class="er relationshipLabelBox"/><text style="text-anchor: middle; dominant-baseline: middle; font-size: 12px;" y="598" x="558.31298828125" id="rel3" class="er relationshipLabel">reservationStatus</text><rect height="14" width="88.51953125" y="531.213623046875" x="701.4340209960938" class="er relationshipLabelBox"/><text style="text-anchor: middle; dominant-baseline: middle; font-size: 12px;" y="538.213623046875" x="745.6937866210938" id="rel4" class="er relationshipLabel">reservedTicket</text><rect height="14" width="90.96875" y="488.54095458984375" x="802.8113403320312" class="er relationshipLabelBox"/><text style="text-anchor: middle; dominant-baseline: middle; font-size: 12px;" y="495.54095458984375" x="848.2957153320312" id="rel5" class="er relationshipLabel">potentialAction</text></svg>