<svg aria-roledescription="er" role="graphics-document document" viewBox="0 0 907.96875 617" style="max-width: 907.969px; background-color: white;" xmlns:xlink="http://www.w3.org/1999/xlink" xmlns="http://www.w3.org/2000/svg" width="100%" id="my-svg"><style>#my-svg{font-family:"trebuchet ms",verdana,arial,sans-serif;font-size:16px;fill:#333;}#my-svg .error-icon{fill:#552222;}#my-svg .error-text{fill:#552222;stroke:#552222;}#my-svg .edge-thickness-normal{stroke-width:1px;}#my-svg .edge-thickness-thick{stroke-width:3.5px;}#my-svg .edge-pattern-solid{stroke-dasharray:0;}#my-svg .edge-thickness-invisible{stroke-width:0;fill:none;}#my-svg .edge-pattern-dashed{stroke-dasharray:3;}#my-svg .edge-pattern-dotted{stroke-dasharray:2;}#my-svg .marker{fill:#333333;stroke:#333333;}#my-svg .marker.cross{stroke:#333333;}#my-svg svg{font-family:"trebuchet ms",verdana,arial,sans-serif;font-size:16px;}#my-svg p{margin:0;}#my-svg .entityBox{fill:#ECECFF;stroke:#9370DB;}#my-svg .attributeBoxOdd{fill:#ffffff;stroke:#9370DB;}#my-svg .attributeBoxEven{fill:#f2f2f2;stroke:#9370DB;}#my-svg .relationshipLabelBox{fill:hsl(80, 100%, 96.2745098039%);opacity:0.7;background-color:hsl(80, 100%, 96.2745098039%);}#my-svg .relationshipLabelBox rect{opacity:0.5;}#my-svg .relationshipLine{stroke:#333333;}#my-svg .entityTitleText{text-anchor:middle;font-size:18px;fill:#333;}#my-svg #MD_PARENT_START{fill:#f5f5f5!important;stroke:#333333!important;stroke-width:1;}#my-svg #MD_PARENT_END{fill:#f5f5f5!important;stroke:#333333!important;stroke-width:1;}#my-svg :root{--mermaid-font-family:"trebuchet ms",verdana,arial,sans-serif;}</style><g/><defs><marker orient="auto" markerHeight="240" markerWidth="190" refY="7" refX="0" id="MD_PARENT_START"><path d="M 18,7 L9,13 L1,7 L9,1 Z"/></marker></defs><defs><marker orient="auto" markerHeight="28" markerWidth="20" refY="7" refX="19" id="MD_PARENT_END"><path d="M 18,7 L9,13 L1,7 L9,1 Z"/></marker></defs><defs><marker orient="auto" markerHeight="18" markerWidth="18" refY="9" refX="0" id="ONLY_ONE_START"><path d="M9,0 L9,18 M15,0 L15,18" fill="none" stroke="gray"/></marker></defs><defs><marker orient="auto" markerHeight="18" markerWidth="18" refY="9" refX="18" id="ONLY_ONE_END"><path d="M3,0 L3,18 M9,0 L9,18" fill="none" stroke="gray"/></marker></defs><defs><marker orient="auto" markerHeight="18" markerWidth="30" refY="9" refX="0" id="ZERO_OR_ONE_START"><circle r="6" cy="9" cx="21" fill="white" stroke="gray"/><path d="M9,0 L9,18" fill="none" stroke="gray"/></marker></defs><defs><marker orient="auto" markerHeight="18" markerWidth="30" refY="9" refX="30" id="ZERO_OR_ONE_END"><circle r="6" cy="9" cx="9" fill="white" stroke="gray"/><path d="M21,0 L21,18" fill="none" stroke="gray"/></marker></defs><defs><marker orient="auto" markerHeight="36" markerWidth="45" refY="18" refX="18" id="ONE_OR_MORE_START"><path d="M0,18 Q 18,0 36,18 Q 18,36 0,18 M42,9 L42,27" fill="none" stroke="gray"/></marker></defs><defs><marker orient="auto" markerHeight="36" markerWidth="45" refY="18" refX="27" id="ONE_OR_MORE_END"><path d="M3,9 L3,27 M9,18 Q27,0 45,18 Q27,36 9,18" fill="none" stroke="gray"/></marker></defs><defs><marker orient="auto" markerHeight="36" markerWidth="57" refY="18" refX="18" id="ZERO_OR_MORE_START"><circle r="6" cy="18" cx="48" fill="white" stroke="gray"/><path d="M0,18 Q18,0 36,18 Q18,36 0,18" fill="none" stroke="gray"/></marker></defs><defs><marker orient="auto" markerHeight="36" markerWidth="57" refY="18" refX="39" id="ZERO_OR_MORE_END"><circle r="6" cy="18" cx="9" fill="white" stroke="gray"/><path d="M21,18 Q39,0 57,18 Q39,36 21,18" fill="none" stroke="gray"/></marker></defs><path style="stroke: gray; fill: none;" marker-start="url(#ONLY_ONE_START)" marker-end="url(#ZERO_OR_MORE_END)" d="M333.217,306.19L297.944,333.825C262.671,361.46,192.124,416.73,156.851,452.698C121.578,488.667,121.578,505.333,121.578,513.667L121.578,522" class="er relationshipLine"/><path style="stroke: gray; fill: none;" marker-start="url(#ONLY_ONE_START)" marker-end="url(#ZERO_OR_MORE_END)" d="M333.217,368.379L320.475,385.649C307.733,402.919,282.249,437.46,282.383,463.063C282.516,488.667,308.266,505.333,321.141,513.667L334.016,522" class="er relationshipLine"/><path style="stroke: gray; fill: none;" marker-start="url(#ONLY_ONE_START)" marker-end="url(#ZERO_OR_MORE_END)" d="M550.689,370.626L562.968,387.522C575.246,404.418,599.803,438.209,612.081,463.438C624.359,488.667,624.359,505.333,624.359,513.667L624.359,522" class="er relationshipLine"/><path style="stroke: gray; fill: none;" marker-start="url(#ONLY_ONE_START)" marker-end="url(#ZERO_OR_MORE_END)" d="M401.913,422L400.253,430.333C398.593,438.667,395.273,455.333,393.613,472C391.953,488.667,391.953,505.333,391.953,513.667L391.953,522" class="er relationshipLine"/><path style="stroke: gray; fill: none;" marker-start="url(#ONLY_ONE_START)" marker-end="url(#ZERO_OR_MORE_END)" d="M494.968,422L497.166,430.333C499.364,438.667,503.76,455.333,494.891,472C486.022,488.667,463.888,505.333,452.821,513.667L441.754,522" class="er relationshipLine"/><path style="stroke: gray; fill: none;" marker-start="url(#ONLY_ONE_START)" marker-end="url(#ZERO_OR_MORE_END)" d="M550.689,289.918L598.569,320.265C646.449,350.612,742.209,411.306,790.089,449.986C837.969,488.667,837.969,505.333,837.969,513.667L837.969,522" class="er relationshipLine"/><g transform="translate(333.21697998046875,20 )" id="entity-FloorPlan-c68fc71d-a919-5aeb-b8e8-2bb700970f75"><rect height="402" width="217.4722900390625" y="0" x="0" class="er entityBox"/><text style="dominant-baseline: middle; text-anchor: middle; font-size: 12px;" transform="translate(108.73614501953125,12)" y="0" x="0" id="text-entity-FloorPlan-c68fc71d-a919-5aeb-b8e8-2bb700970f75" class="er entityLabel">FloorPlan</text><rect height="21" width="68.7379150390625" y="24" x="0" class="er attributeBoxOdd"/><text style="dominant-baseline: middle; font-size: 10.2px;" transform="translate(5,34.5)" y="0" x="0" id="text-entity-FloorPlan-c68fc71d-a919-5aeb-b8e8-2bb700970f75-attr-1-type" class="er entityLabel">stringList</text><rect height="21" width="148.734375" y="24" x="68.7379150390625" class="er attributeBoxOdd"/><text style="dominant-baseline: middle; font-size: 10.2px;" transform="translate(73.7379150390625,34.5)" y="0" x="0" id="text-entity-FloorPlan-c68fc71d-a919-5aeb-b8e8-2bb700970f75-attr-1-name" class="er entityLabel">layoutImage</text><rect height="21" width="68.7379150390625" y="45" x="0" class="er attributeBoxEven"/><text style="dominant-baseline: middle; font-size: 10.2px;" transform="translate(5,55.5)" y="0" x="0" id="text-entity-FloorPlan-c68fc71d-a919-5aeb-b8e8-2bb700970f75-attr-2-type" class="er entityLabel">IntegerList</text><rect height="21" width="148.734375" y="45" x="68.7379150390625" class="er attributeBoxEven"/><text style="dominant-baseline: middle; font-size: 10.2px;" transform="translate(73.7379150390625,55.5)" y="0" x="0" id="text-entity-FloorPlan-c68fc71d-a919-5aeb-b8e8-2bb700970f75-attr-2-name" class="er entityLabel">numberOfBathroomsTotal</text><rect height="21" width="68.7379150390625" y="66" x="0" class="er attributeBoxOdd"/><text style="dominant-baseline: middle; font-size: 10.2px;" transform="translate(5,76.5)" y="0" x="0" id="text-entity-FloorPlan-c68fc71d-a919-5aeb-b8e8-2bb700970f75-attr-3-type" class="er entityLabel">stringList</text><rect height="21" width="148.734375" y="66" x="68.7379150390625" class="er attributeBoxOdd"/><text style="dominant-baseline: middle; font-size: 10.2px;" transform="translate(73.7379150390625,76.5)" y="0" x="0" id="text-entity-FloorPlan-c68fc71d-a919-5aeb-b8e8-2bb700970f75-attr-3-name" class="er entityLabel">numberOfBedrooms</text><rect height="21" width="68.7379150390625" y="87" x="0" class="er attributeBoxEven"/><text style="dominant-baseline: middle; font-size: 10.2px;" transform="translate(5,97.5)" y="0" x="0" id="text-entity-FloorPlan-c68fc71d-a919-5aeb-b8e8-2bb700970f75-attr-4-type" class="er entityLabel">NumberList</text><rect height="21" width="148.734375" y="87" x="68.7379150390625" class="er attributeBoxEven"/><text style="dominant-baseline: middle; font-size: 10.2px;" transform="translate(73.7379150390625,97.5)" y="0" x="0" id="text-entity-FloorPlan-c68fc71d-a919-5aeb-b8e8-2bb700970f75-attr-4-name" class="er entityLabel">numberOfFullBathrooms</text><rect height="21" width="68.7379150390625" y="108" x="0" class="er attributeBoxOdd"/><text style="dominant-baseline: middle; font-size: 10.2px;" transform="translate(5,118.5)" y="0" x="0" id="text-entity-FloorPlan-c68fc71d-a919-5aeb-b8e8-2bb700970f75-attr-5-type" class="er entityLabel">NumberList</text><rect height="21" width="148.734375" y="108" x="68.7379150390625" class="er attributeBoxOdd"/><text style="dominant-baseline: middle; font-size: 10.2px;" transform="translate(73.7379150390625,118.5)" y="0" x="0" id="text-entity-FloorPlan-c68fc71d-a919-5aeb-b8e8-2bb700970f75-attr-5-name" class="er entityLabel">numberOfPartialBathrooms</text><rect height="21" width="68.7379150390625" y="129" x="0" class="er attributeBoxEven"/><text style="dominant-baseline: middle; font-size: 10.2px;" transform="translate(5,139.5)" y="0" x="0" id="text-entity-FloorPlan-c68fc71d-a919-5aeb-b8e8-2bb700970f75-attr-6-type" class="er entityLabel">stringList</text><rect height="21" width="148.734375" y="129" x="68.7379150390625" class="er attributeBoxEven"/><text style="dominant-baseline: middle; font-size: 10.2px;" transform="translate(73.7379150390625,139.5)" y="0" x="0" id="text-entity-FloorPlan-c68fc71d-a919-5aeb-b8e8-2bb700970f75-attr-6-name" class="er entityLabel">numberOfRooms</text><rect height="21" width="68.7379150390625" y="150" x="0" class="er attributeBoxOdd"/><text style="dominant-baseline: middle; font-size: 10.2px;" transform="translate(5,160.5)" y="0" x="0" id="text-entity-FloorPlan-c68fc71d-a919-5aeb-b8e8-2bb700970f75-attr-7-type" class="er entityLabel">stringList</text><rect height="21" width="148.734375" y="150" x="68.7379150390625" class="er attributeBoxOdd"/><text style="dominant-baseline: middle; font-size: 10.2px;" transform="translate(73.7379150390625,160.5)" y="0" x="0" id="text-entity-FloorPlan-c68fc71d-a919-5aeb-b8e8-2bb700970f75-attr-7-name" class="er entityLabel">petsAllowed</text><rect height="21" width="68.7379150390625" y="171" x="0" class="er attributeBoxEven"/><text style="dominant-baseline: middle; font-size: 10.2px;" transform="translate(5,181.5)" y="0" x="0" id="text-entity-FloorPlan-c68fc71d-a919-5aeb-b8e8-2bb700970f75-attr-8-type" class="er entityLabel">stringList</text><rect height="21" width="148.734375" y="171" x="68.7379150390625" class="er attributeBoxEven"/><text style="dominant-baseline: middle; font-size: 10.2px;" transform="translate(73.7379150390625,181.5)" y="0" x="0" id="text-entity-FloorPlan-c68fc71d-a919-5aeb-b8e8-2bb700970f75-attr-8-name" class="er entityLabel">additionalType</text><rect height="21" width="68.7379150390625" y="192" x="0" class="er attributeBoxOdd"/><text style="dominant-baseline: middle; font-size: 10.2px;" transform="translate(5,202.5)" y="0" x="0" id="text-entity-FloorPlan-c68fc71d-a919-5aeb-b8e8-2bb700970f75-attr-9-type" class="er entityLabel">TextList</text><rect height="21" width="148.734375" y="192" x="68.7379150390625" class="er attributeBoxOdd"/><text style="dominant-baseline: middle; font-size: 10.2px;" transform="translate(73.7379150390625,202.5)" y="0" x="0" id="text-entity-FloorPlan-c68fc71d-a919-5aeb-b8e8-2bb700970f75-attr-9-name" class="er entityLabel">alternateName</text><rect height="21" width="68.7379150390625" y="213" x="0" class="er attributeBoxEven"/><text style="dominant-baseline: middle; font-size: 10.2px;" transform="translate(5,223.5)" y="0" x="0" id="text-entity-FloorPlan-c68fc71d-a919-5aeb-b8e8-2bb700970f75-attr-10-type" class="er entityLabel">stringList</text><rect height="21" width="148.734375" y="213" x="68.7379150390625" class="er attributeBoxEven"/><text style="dominant-baseline: middle; font-size: 10.2px;" transform="translate(73.7379150390625,223.5)" y="0" x="0" id="text-entity-FloorPlan-c68fc71d-a919-5aeb-b8e8-2bb700970f75-attr-10-name" class="er entityLabel">description</text><rect height="21" width="68.7379150390625" y="234" x="0" class="er attributeBoxOdd"/><text style="dominant-baseline: middle; font-size: 10.2px;" transform="translate(5,244.5)" y="0" x="0" id="text-entity-FloorPlan-c68fc71d-a919-5aeb-b8e8-2bb700970f75-attr-11-type" class="er entityLabel">TextList</text><rect height="21" width="148.734375" y="234" x="68.7379150390625" class="er attributeBoxOdd"/><text style="dominant-baseline: middle; font-size: 10.2px;" transform="translate(73.7379150390625,244.5)" y="0" x="0" id="text-entity-FloorPlan-c68fc71d-a919-5aeb-b8e8-2bb700970f75-attr-11-name" class="er entityLabel">disambiguatingDescription</text><rect height="21" width="68.7379150390625" y="255" x="0" class="er attributeBoxEven"/><text style="dominant-baseline: middle; font-size: 10.2px;" transform="translate(5,265.5)" y="0" x="0" id="text-entity-FloorPlan-c68fc71d-a919-5aeb-b8e8-2bb700970f75-attr-12-type" class="er entityLabel">stringList</text><rect height="21" width="148.734375" y="255" x="68.7379150390625" class="er attributeBoxEven"/><text style="dominant-baseline: middle; font-size: 10.2px;" transform="translate(73.7379150390625,265.5)" y="0" x="0" id="text-entity-FloorPlan-c68fc71d-a919-5aeb-b8e8-2bb700970f75-attr-12-name" class="er entityLabel">identifier</text><rect height="21" width="68.7379150390625" y="276" x="0" class="er attributeBoxOdd"/><text style="dominant-baseline: middle; font-size: 10.2px;" transform="translate(5,286.5)" y="0" x="0" id="text-entity-FloorPlan-c68fc71d-a919-5aeb-b8e8-2bb700970f75-attr-13-type" class="er entityLabel">stringList</text><rect height="21" width="148.734375" y="276" x="68.7379150390625" class="er attributeBoxOdd"/><text style="dominant-baseline: middle; font-size: 10.2px;" transform="translate(73.7379150390625,286.5)" y="0" x="0" id="text-entity-FloorPlan-c68fc71d-a919-5aeb-b8e8-2bb700970f75-attr-13-name" class="er entityLabel">image</text><rect height="21" width="68.7379150390625" y="297" x="0" class="er attributeBoxEven"/><text style="dominant-baseline: middle; font-size: 10.2px;" transform="translate(5,307.5)" y="0" x="0" id="text-entity-FloorPlan-c68fc71d-a919-5aeb-b8e8-2bb700970f75-attr-14-type" class="er entityLabel">TextList</text><rect height="21" width="148.734375" y="297" x="68.7379150390625" class="er attributeBoxEven"/><text style="dominant-baseline: middle; font-size: 10.2px;" transform="translate(73.7379150390625,307.5)" y="0" x="0" id="text-entity-FloorPlan-c68fc71d-a919-5aeb-b8e8-2bb700970f75-attr-14-name" class="er entityLabel">name</text><rect height="21" width="68.7379150390625" y="318" x="0" class="er attributeBoxOdd"/><text style="dominant-baseline: middle; font-size: 10.2px;" transform="translate(5,328.5)" y="0" x="0" id="text-entity-FloorPlan-c68fc71d-a919-5aeb-b8e8-2bb700970f75-attr-15-type" class="er entityLabel">URLList</text><rect height="21" width="148.734375" y="318" x="68.7379150390625" class="er attributeBoxOdd"/><text style="dominant-baseline: middle; font-size: 10.2px;" transform="translate(73.7379150390625,328.5)" y="0" x="0" id="text-entity-FloorPlan-c68fc71d-a919-5aeb-b8e8-2bb700970f75-attr-15-name" class="er entityLabel">sameAs</text><rect height="21" width="68.7379150390625" y="339" x="0" class="er attributeBoxEven"/><text style="dominant-baseline: middle; font-size: 10.2px;" transform="translate(5,349.5)" y="0" x="0" id="text-entity-FloorPlan-c68fc71d-a919-5aeb-b8e8-2bb700970f75-attr-16-type" class="er entityLabel">stringList</text><rect height="21" width="148.734375" y="339" x="68.7379150390625" class="er attributeBoxEven"/><text style="dominant-baseline: middle; font-size: 10.2px;" transform="translate(73.7379150390625,349.5)" y="0" x="0" id="text-entity-FloorPlan-c68fc71d-a919-5aeb-b8e8-2bb700970f75-attr-16-name" class="er entityLabel">mainEntityOfPage</text><rect height="21" width="68.7379150390625" y="360" x="0" class="er attributeBoxOdd"/><text style="dominant-baseline: middle; font-size: 10.2px;" transform="translate(5,370.5)" y="0" x="0" id="text-entity-FloorPlan-c68fc71d-a919-5aeb-b8e8-2bb700970f75-attr-17-type" class="er entityLabel">stringList</text><rect height="21" width="148.734375" y="360" x="68.7379150390625" class="er attributeBoxOdd"/><text style="dominant-baseline: middle; font-size: 10.2px;" transform="translate(73.7379150390625,370.5)" y="0" x="0" id="text-entity-FloorPlan-c68fc71d-a919-5aeb-b8e8-2bb700970f75-attr-17-name" class="er entityLabel">subjectOf</text><rect height="21" width="68.7379150390625" y="381" x="0" class="er attributeBoxEven"/><text style="dominant-baseline: middle; font-size: 10.2px;" transform="translate(5,391.5)" y="0" x="0" id="text-entity-FloorPlan-c68fc71d-a919-5aeb-b8e8-2bb700970f75-attr-18-type" class="er entityLabel">URLList</text><rect height="21" width="148.734375" y="381" x="68.7379150390625" class="er attributeBoxEven"/><text style="dominant-baseline: middle; font-size: 10.2px;" transform="translate(73.7379150390625,391.5)" y="0" x="0" id="text-entity-FloorPlan-c68fc71d-a919-5aeb-b8e8-2bb700970f75-attr-18-name" class="er entityLabel">url</text></g><g transform="translate(20,522 )" id="entity-LocationFeatureSpecification-dbe29f9c-e3d0-5bc9-80cd-10146568b0ab"><rect height="75" width="203.15625" y="0" x="0" class="er entityBox"/><text style="dominant-baseline: middle; text-anchor: middle; font-size: 12px;" transform="translate(101.578125,37.5)" y="0" x="0" id="text-entity-LocationFeatureSpecification-dbe29f9c-e3d0-5bc9-80cd-10146568b0ab" class="er entityLabel">LocationFeatureSpecification</text></g><g transform="translate(323.15625,522 )" id="entity-QuantitativeValue-3d19db81-2acf-5dcd-99e0-52d6a275eca4"><rect height="75" width="137.59375" y="0" x="0" class="er entityBox"/><text style="dominant-baseline: middle; text-anchor: middle; font-size: 12px;" transform="translate(68.796875,37.5)" y="0" x="0" id="text-entity-QuantitativeValue-3d19db81-2acf-5dcd-99e0-52d6a275eca4" class="er entityLabel">QuantitativeValue</text></g><g transform="translate(560.75,522 )" id="entity-Accommodation-6b994e1b-9fce-522d-a0ef-9d67f9c447c6"><rect height="75" width="127.21875" y="0" x="0" class="er entityBox"/><text style="dominant-baseline: middle; text-anchor: middle; font-size: 12px;" transform="translate(63.609375,37.5)" y="0" x="0" id="text-entity-Accommodation-6b994e1b-9fce-522d-a0ef-9d67f9c447c6" class="er entityLabel">Accommodation</text></g><g transform="translate(787.96875,522 )" id="entity-Action-6cd87d9a-a078-546e-a35b-bee54f477b31"><rect height="75" width="100" y="0" x="0" class="er entityBox"/><text style="dominant-baseline: middle; text-anchor: middle; font-size: 12px;" transform="translate(50,37.5)" y="0" x="0" id="text-entity-Action-6cd87d9a-a078-546e-a35b-bee54f477b31" class="er entityLabel">Action</text></g><rect height="14" width="94.53125" y="395.8591003417969" x="164.82542419433594" class="er relationshipLabelBox"/><text style="text-anchor: middle; dominant-baseline: middle; font-size: 12px;" y="402.8591003417969" x="212.09104919433594" id="rel1" class="er relationshipLabel">amenityFeature</text><rect height="14" width="51.8125" y="442.68853759765625" x="258.3538818359375" class="er relationshipLabelBox"/><text style="text-anchor: middle; dominant-baseline: middle; font-size: 12px;" y="449.68853759765625" x="284.2601318359375" id="rel2" class="er relationshipLabel">floorSize</text><rect height="14" width="118.361328125" y="434.23785400390625" x="540.5116577148438" class="er relationshipLabelBox"/><text style="text-anchor: middle; dominant-baseline: middle; font-size: 12px;" y="441.23785400390625" x="599.6923217773438" id="rel3" class="er relationshipLabel">isPlanForApartment</text><rect height="14" width="188.40625" y="464.6737365722656" x="299.44287109375" class="er relationshipLabelBox"/><text style="text-anchor: middle; dominant-baseline: middle; font-size: 12px;" y="471.6737365722656" x="393.64599609375" id="rel4" class="er relationshipLabel">numberOfAccommodationUnits</text><rect height="14" width="242.71875" y="474.1586608886719" x="367.43145751953125" class="er relationshipLabelBox"/><text style="text-anchor: middle; dominant-baseline: middle; font-size: 12px;" y="481.1586608886719" x="488.79083251953125" id="rel5" class="er relationshipLabel">numberOfAvailableAccommodationUnits</text><rect height="14" width="90.96875" y="385.3482360839844" x="664.3504028320312" class="er relationshipLabelBox"/><text style="text-anchor: middle; dominant-baseline: middle; font-size: 12px;" y="392.3482360839844" x="709.8347778320312" id="rel6" class="er relationshipLabel">potentialAction</text></svg>