<svg aria-roledescription="er" role="graphics-document document" viewBox="-62.9851188659668 0 1386.375732421875 512" style="max-width: 1386.38px; background-color: white;" xmlns:xlink="http://www.w3.org/1999/xlink" xmlns="http://www.w3.org/2000/svg" width="100%" id="my-svg"><style>#my-svg{font-family:"trebuchet ms",verdana,arial,sans-serif;font-size:16px;fill:#333;}#my-svg .error-icon{fill:#552222;}#my-svg .error-text{fill:#552222;stroke:#552222;}#my-svg .edge-thickness-normal{stroke-width:1px;}#my-svg .edge-thickness-thick{stroke-width:3.5px;}#my-svg .edge-pattern-solid{stroke-dasharray:0;}#my-svg .edge-thickness-invisible{stroke-width:0;fill:none;}#my-svg .edge-pattern-dashed{stroke-dasharray:3;}#my-svg .edge-pattern-dotted{stroke-dasharray:2;}#my-svg .marker{fill:#333333;stroke:#333333;}#my-svg .marker.cross{stroke:#333333;}#my-svg svg{font-family:"trebuchet ms",verdana,arial,sans-serif;font-size:16px;}#my-svg p{margin:0;}#my-svg .entityBox{fill:#ECECFF;stroke:#9370DB;}#my-svg .attributeBoxOdd{fill:#ffffff;stroke:#9370DB;}#my-svg .attributeBoxEven{fill:#f2f2f2;stroke:#9370DB;}#my-svg .relationshipLabelBox{fill:hsl(80, 100%, 96.2745098039%);opacity:0.7;background-color:hsl(80, 100%, 96.2745098039%);}#my-svg .relationshipLabelBox rect{opacity:0.5;}#my-svg .relationshipLine{stroke:#333333;}#my-svg .entityTitleText{text-anchor:middle;font-size:18px;fill:#333;}#my-svg #MD_PARENT_START{fill:#f5f5f5!important;stroke:#333333!important;stroke-width:1;}#my-svg #MD_PARENT_END{fill:#f5f5f5!important;stroke:#333333!important;stroke-width:1;}#my-svg :root{--mermaid-font-family:"trebuchet ms",verdana,arial,sans-serif;}</style><g/><defs><marker orient="auto" markerHeight="240" markerWidth="190" refY="7" refX="0" id="MD_PARENT_START"><path d="M 18,7 L9,13 L1,7 L9,1 Z"/></marker></defs><defs><marker orient="auto" markerHeight="28" markerWidth="20" refY="7" refX="19" id="MD_PARENT_END"><path d="M 18,7 L9,13 L1,7 L9,1 Z"/></marker></defs><defs><marker orient="auto" markerHeight="18" markerWidth="18" refY="9" refX="0" id="ONLY_ONE_START"><path d="M9,0 L9,18 M15,0 L15,18" fill="none" stroke="gray"/></marker></defs><defs><marker orient="auto" markerHeight="18" markerWidth="18" refY="9" refX="18" id="ONLY_ONE_END"><path d="M3,0 L3,18 M9,0 L9,18" fill="none" stroke="gray"/></marker></defs><defs><marker orient="auto" markerHeight="18" markerWidth="30" refY="9" refX="0" id="ZERO_OR_ONE_START"><circle r="6" cy="9" cx="21" fill="white" stroke="gray"/><path d="M9,0 L9,18" fill="none" stroke="gray"/></marker></defs><defs><marker orient="auto" markerHeight="18" markerWidth="30" refY="9" refX="30" id="ZERO_OR_ONE_END"><circle r="6" cy="9" cx="9" fill="white" stroke="gray"/><path d="M21,0 L21,18" fill="none" stroke="gray"/></marker></defs><defs><marker orient="auto" markerHeight="36" markerWidth="45" refY="18" refX="18" id="ONE_OR_MORE_START"><path d="M0,18 Q 18,0 36,18 Q 18,36 0,18 M42,9 L42,27" fill="none" stroke="gray"/></marker></defs><defs><marker orient="auto" markerHeight="36" markerWidth="45" refY="18" refX="27" id="ONE_OR_MORE_END"><path d="M3,9 L3,27 M9,18 Q27,0 45,18 Q27,36 9,18" fill="none" stroke="gray"/></marker></defs><defs><marker orient="auto" markerHeight="36" markerWidth="57" refY="18" refX="18" id="ZERO_OR_MORE_START"><circle r="6" cy="18" cx="48" fill="white" stroke="gray"/><path d="M0,18 Q18,0 36,18 Q18,36 0,18" fill="none" stroke="gray"/></marker></defs><defs><marker orient="auto" markerHeight="36" markerWidth="57" refY="18" refX="39" id="ZERO_OR_MORE_END"><circle r="6" cy="18" cx="9" fill="white" stroke="gray"/><path d="M21,18 Q39,0 57,18 Q39,36 21,18" fill="none" stroke="gray"/></marker></defs><path style="stroke: gray; fill: none;" marker-start="url(#ONLY_ONE_START)" marker-end="url(#ZERO_OR_MORE_END)" d="M515.777,190.201L408.148,219.668C300.518,249.134,85.259,308.067,2.63,348.471C-80,388.875,-30,410.75,-5,421.688L20,432.625" class="er relationshipLine"/><path style="stroke: gray; fill: none;" marker-start="url(#ONLY_ONE_START)" marker-end="url(#ZERO_OR_MORE_END)" d="M515.777,193.673L424.814,222.561C333.852,251.449,151.926,309.224,70.487,346.446C-10.952,383.667,8.095,400.333,17.619,408.667L27.143,417" class="er relationshipLine"/><path style="stroke: gray; fill: none;" marker-start="url(#ONLY_ONE_START)" marker-end="url(#ZERO_OR_MORE_END)" d="M515.777,198.468L441.481,226.556C367.185,254.645,218.592,310.823,144.296,347.245C70,383.667,70,400.333,70,408.667L70,417" class="er relationshipLine"/><path style="stroke: gray; fill: none;" marker-start="url(#ONLY_ONE_START)" marker-end="url(#ZERO_OR_MORE_END)" d="M515.777,205.518L458.148,232.432C400.518,259.345,285.259,313.173,218.106,348.42C150.952,383.667,131.905,400.333,122.381,408.667L112.857,417" class="er relationshipLine"/><path style="stroke: gray; fill: none;" marker-start="url(#ONLY_ONE_START)" marker-end="url(#ZERO_OR_MORE_END)" d="M515.777,241.11L492.872,262.092C469.967,283.073,424.158,325.037,401.253,354.352C378.348,383.667,378.348,400.333,378.348,408.667L378.348,417" class="er relationshipLine"/><path style="stroke: gray; fill: none;" marker-start="url(#ONLY_ONE_START)" marker-end="url(#ZERO_OR_MORE_END)" d="M595.043,317L595.043,325.333C595.043,333.667,595.043,350.333,595.043,367C595.043,383.667,595.043,400.333,595.043,408.667L595.043,417" class="er relationshipLine"/><path style="stroke: gray; fill: none;" marker-start="url(#ONLY_ONE_START)" marker-end="url(#ZERO_OR_MORE_END)" d="M515.777,216.907L474.814,241.922C433.852,266.938,351.926,316.969,285.963,352.922C220,388.875,170,410.75,145,421.688L120,432.625" class="er relationshipLine"/><path style="stroke: gray; fill: none;" marker-start="url(#ONLY_ONE_START)" marker-end="url(#ZERO_OR_MORE_END)" d="M674.309,313.72L679.156,322.6C684.003,331.48,693.697,349.24,715.21,367.842C736.724,386.444,770.057,405.889,786.724,415.611L803.391,425.333" class="er relationshipLine"/><path style="stroke: gray; fill: none;" marker-start="url(#ONLY_ONE_START)" marker-end="url(#ZERO_OR_MORE_END)" d="M674.309,244.019L695.822,264.516C717.336,285.013,760.363,326.006,786.639,354.837C812.914,383.667,822.438,400.333,827.2,408.667L831.962,417" class="er relationshipLine"/><path style="stroke: gray; fill: none;" marker-start="url(#ONLY_ONE_START)" marker-end="url(#ZERO_OR_MORE_END)" d="M674.309,219.528L712.489,244.106C750.669,268.685,827.03,317.843,860.448,350.755C893.867,383.667,884.343,400.333,879.581,408.667L874.819,417" class="er relationshipLine"/><path style="stroke: gray; fill: none;" marker-start="url(#ONLY_ONE_START)" marker-end="url(#ZERO_OR_MORE_END)" d="M674.309,207.031L729.156,233.693C784.003,260.354,893.697,313.677,953.306,348.672C1012.914,383.667,1022.438,400.333,1027.2,408.667L1031.962,417" class="er relationshipLine"/><path style="stroke: gray; fill: none;" marker-start="url(#ONLY_ONE_START)" marker-end="url(#ZERO_OR_MORE_END)" d="M674.309,192.4L770.822,221.5C867.336,250.6,1060.363,308.8,1156.877,346.233C1253.391,383.667,1253.391,400.333,1253.391,408.667L1253.391,417" class="er relationshipLine"/><path style="stroke: gray; fill: none;" marker-start="url(#ONLY_ONE_START)" marker-end="url(#ZERO_OR_MORE_END)" d="M674.309,199.452L745.822,227.376C817.336,255.301,960.363,311.151,1027.115,347.409C1093.867,383.667,1084.343,400.333,1079.581,408.667L1074.819,417" class="er relationshipLine"/><g transform="translate(515.77734375,20 )" id="entity-FollowAction-530d238a-b645-58a3-bec0-9e13a0534353"><rect height="297" width="158.53125" y="0" x="0" class="er entityBox"/><text style="dominant-baseline: middle; text-anchor: middle; font-size: 12px;" transform="translate(79.265625,12)" y="0" x="0" id="text-entity-FollowAction-530d238a-b645-58a3-bec0-9e13a0534353" class="er entityLabel">FollowAction</text><rect height="21" width="57.0625" y="24" x="0" class="er attributeBoxOdd"/><text style="dominant-baseline: middle; font-size: 10.2px;" transform="translate(5,34.5)" y="0" x="0" id="text-entity-FollowAction-530d238a-b645-58a3-bec0-9e13a0534353-attr-1-type" class="er entityLabel">stringList</text><rect height="21" width="101.46875" y="24" x="57.0625" class="er attributeBoxOdd"/><text style="dominant-baseline: middle; font-size: 10.2px;" transform="translate(62.0625,34.5)" y="0" x="0" id="text-entity-FollowAction-530d238a-b645-58a3-bec0-9e13a0534353-attr-1-name" class="er entityLabel">location</text><rect height="21" width="57.0625" y="45" x="0" class="er attributeBoxEven"/><text style="dominant-baseline: middle; font-size: 10.2px;" transform="translate(5,55.5)" y="0" x="0" id="text-entity-FollowAction-530d238a-b645-58a3-bec0-9e13a0534353-attr-2-type" class="er entityLabel">stringList</text><rect height="21" width="101.46875" y="45" x="57.0625" class="er attributeBoxEven"/><text style="dominant-baseline: middle; font-size: 10.2px;" transform="translate(62.0625,55.5)" y="0" x="0" id="text-entity-FollowAction-530d238a-b645-58a3-bec0-9e13a0534353-attr-2-name" class="er entityLabel">participant</text><rect height="21" width="57.0625" y="66" x="0" class="er attributeBoxOdd"/><text style="dominant-baseline: middle; font-size: 10.2px;" transform="translate(5,76.5)" y="0" x="0" id="text-entity-FollowAction-530d238a-b645-58a3-bec0-9e13a0534353-attr-3-type" class="er entityLabel">stringList</text><rect height="21" width="101.46875" y="66" x="57.0625" class="er attributeBoxOdd"/><text style="dominant-baseline: middle; font-size: 10.2px;" transform="translate(62.0625,76.5)" y="0" x="0" id="text-entity-FollowAction-530d238a-b645-58a3-bec0-9e13a0534353-attr-3-name" class="er entityLabel">agent</text><rect height="21" width="57.0625" y="87" x="0" class="er attributeBoxEven"/><text style="dominant-baseline: middle; font-size: 10.2px;" transform="translate(5,97.5)" y="0" x="0" id="text-entity-FollowAction-530d238a-b645-58a3-bec0-9e13a0534353-attr-4-type" class="er entityLabel">stringList</text><rect height="21" width="101.46875" y="87" x="57.0625" class="er attributeBoxEven"/><text style="dominant-baseline: middle; font-size: 10.2px;" transform="translate(62.0625,97.5)" y="0" x="0" id="text-entity-FollowAction-530d238a-b645-58a3-bec0-9e13a0534353-attr-4-name" class="er entityLabel">endTime</text><rect height="21" width="57.0625" y="108" x="0" class="er attributeBoxOdd"/><text style="dominant-baseline: middle; font-size: 10.2px;" transform="translate(5,118.5)" y="0" x="0" id="text-entity-FollowAction-530d238a-b645-58a3-bec0-9e13a0534353-attr-5-type" class="er entityLabel">stringList</text><rect height="21" width="101.46875" y="108" x="57.0625" class="er attributeBoxOdd"/><text style="dominant-baseline: middle; font-size: 10.2px;" transform="translate(62.0625,118.5)" y="0" x="0" id="text-entity-FollowAction-530d238a-b645-58a3-bec0-9e13a0534353-attr-5-name" class="er entityLabel">provider</text><rect height="21" width="57.0625" y="129" x="0" class="er attributeBoxEven"/><text style="dominant-baseline: middle; font-size: 10.2px;" transform="translate(5,139.5)" y="0" x="0" id="text-entity-FollowAction-530d238a-b645-58a3-bec0-9e13a0534353-attr-6-type" class="er entityLabel">stringList</text><rect height="21" width="101.46875" y="129" x="57.0625" class="er attributeBoxEven"/><text style="dominant-baseline: middle; font-size: 10.2px;" transform="translate(62.0625,139.5)" y="0" x="0" id="text-entity-FollowAction-530d238a-b645-58a3-bec0-9e13a0534353-attr-6-name" class="er entityLabel">startTime</text><rect height="21" width="57.0625" y="150" x="0" class="er attributeBoxOdd"/><text style="dominant-baseline: middle; font-size: 10.2px;" transform="translate(5,160.5)" y="0" x="0" id="text-entity-FollowAction-530d238a-b645-58a3-bec0-9e13a0534353-attr-7-type" class="er entityLabel">stringList</text><rect height="21" width="101.46875" y="150" x="57.0625" class="er attributeBoxOdd"/><text style="dominant-baseline: middle; font-size: 10.2px;" transform="translate(62.0625,160.5)" y="0" x="0" id="text-entity-FollowAction-530d238a-b645-58a3-bec0-9e13a0534353-attr-7-name" class="er entityLabel">target</text><rect height="21" width="57.0625" y="171" x="0" class="er attributeBoxEven"/><text style="dominant-baseline: middle; font-size: 10.2px;" transform="translate(5,181.5)" y="0" x="0" id="text-entity-FollowAction-530d238a-b645-58a3-bec0-9e13a0534353-attr-8-type" class="er entityLabel">stringList</text><rect height="21" width="101.46875" y="171" x="57.0625" class="er attributeBoxEven"/><text style="dominant-baseline: middle; font-size: 10.2px;" transform="translate(62.0625,181.5)" y="0" x="0" id="text-entity-FollowAction-530d238a-b645-58a3-bec0-9e13a0534353-attr-8-name" class="er entityLabel">additionalType</text><rect height="21" width="57.0625" y="192" x="0" class="er attributeBoxOdd"/><text style="dominant-baseline: middle; font-size: 10.2px;" transform="translate(5,202.5)" y="0" x="0" id="text-entity-FollowAction-530d238a-b645-58a3-bec0-9e13a0534353-attr-9-type" class="er entityLabel">stringList</text><rect height="21" width="101.46875" y="192" x="57.0625" class="er attributeBoxOdd"/><text style="dominant-baseline: middle; font-size: 10.2px;" transform="translate(62.0625,202.5)" y="0" x="0" id="text-entity-FollowAction-530d238a-b645-58a3-bec0-9e13a0534353-attr-9-name" class="er entityLabel">description</text><rect height="21" width="57.0625" y="213" x="0" class="er attributeBoxEven"/><text style="dominant-baseline: middle; font-size: 10.2px;" transform="translate(5,223.5)" y="0" x="0" id="text-entity-FollowAction-530d238a-b645-58a3-bec0-9e13a0534353-attr-10-type" class="er entityLabel">stringList</text><rect height="21" width="101.46875" y="213" x="57.0625" class="er attributeBoxEven"/><text style="dominant-baseline: middle; font-size: 10.2px;" transform="translate(62.0625,223.5)" y="0" x="0" id="text-entity-FollowAction-530d238a-b645-58a3-bec0-9e13a0534353-attr-10-name" class="er entityLabel">identifier</text><rect height="21" width="57.0625" y="234" x="0" class="er attributeBoxOdd"/><text style="dominant-baseline: middle; font-size: 10.2px;" transform="translate(5,244.5)" y="0" x="0" id="text-entity-FollowAction-530d238a-b645-58a3-bec0-9e13a0534353-attr-11-type" class="er entityLabel">stringList</text><rect height="21" width="101.46875" y="234" x="57.0625" class="er attributeBoxOdd"/><text style="dominant-baseline: middle; font-size: 10.2px;" transform="translate(62.0625,244.5)" y="0" x="0" id="text-entity-FollowAction-530d238a-b645-58a3-bec0-9e13a0534353-attr-11-name" class="er entityLabel">image</text><rect height="21" width="57.0625" y="255" x="0" class="er attributeBoxEven"/><text style="dominant-baseline: middle; font-size: 10.2px;" transform="translate(5,265.5)" y="0" x="0" id="text-entity-FollowAction-530d238a-b645-58a3-bec0-9e13a0534353-attr-12-type" class="er entityLabel">stringList</text><rect height="21" width="101.46875" y="255" x="57.0625" class="er attributeBoxEven"/><text style="dominant-baseline: middle; font-size: 10.2px;" transform="translate(62.0625,265.5)" y="0" x="0" id="text-entity-FollowAction-530d238a-b645-58a3-bec0-9e13a0534353-attr-12-name" class="er entityLabel">mainEntityOfPage</text><rect height="21" width="57.0625" y="276" x="0" class="er attributeBoxOdd"/><text style="dominant-baseline: middle; font-size: 10.2px;" transform="translate(5,286.5)" y="0" x="0" id="text-entity-FollowAction-530d238a-b645-58a3-bec0-9e13a0534353-attr-13-type" class="er entityLabel">stringList</text><rect height="21" width="101.46875" y="276" x="57.0625" class="er attributeBoxOdd"/><text style="dominant-baseline: middle; font-size: 10.2px;" transform="translate(62.0625,286.5)" y="0" x="0" id="text-entity-FollowAction-530d238a-b645-58a3-bec0-9e13a0534353-attr-13-name" class="er entityLabel">subjectOf</text></g><g transform="translate(20,417 )" id="entity-Thing-27bc9527-b992-59fc-a0fb-da83e2ff80bf"><rect height="75" width="100" y="0" x="0" class="er entityBox"/><text style="dominant-baseline: middle; text-anchor: middle; font-size: 12px;" transform="translate(50,37.5)" y="0" x="0" id="text-entity-Thing-27bc9527-b992-59fc-a0fb-da83e2ff80bf" class="er entityLabel">Thing</text></g><g transform="translate(328.34765625,417 )" id="entity-HowTo-6f9e6b0e-89c2-59a9-964a-8696b3aa66a4"><rect height="75" width="100" y="0" x="0" class="er entityBox"/><text style="dominant-baseline: middle; text-anchor: middle; font-size: 12px;" transform="translate(50,37.5)" y="0" x="0" id="text-entity-HowTo-6f9e6b0e-89c2-59a9-964a-8696b3aa66a4" class="er entityLabel">HowTo</text></g><g transform="translate(528.34765625,417 )" id="entity-ActionStatusType-935590f3-1b2a-599d-8a3e-9af222825f06"><rect height="75" width="133.390625" y="0" x="0" class="er entityBox"/><text style="dominant-baseline: middle; text-anchor: middle; font-size: 12px;" transform="translate(66.6953125,37.5)" y="0" x="0" id="text-entity-ActionStatusType-935590f3-1b2a-599d-8a3e-9af222825f06" class="er entityLabel">ActionStatusType</text></g><g transform="translate(803.390625,417 )" id="entity-Text-426c5d39-acfc-5487-a6d9-ede67887190e"><rect height="75" width="100" y="0" x="0" class="er entityBox"/><text style="dominant-baseline: middle; text-anchor: middle; font-size: 12px;" transform="translate(50,37.5)" y="0" x="0" id="text-entity-Text-426c5d39-acfc-5487-a6d9-ede67887190e" class="er entityLabel">Text</text></g><g transform="translate(1003.390625,417 )" id="entity-URL-07f78d3e-fd74-5925-b39b-26c1cc2d6b7c"><rect height="75" width="100" y="0" x="0" class="er entityBox"/><text style="dominant-baseline: middle; text-anchor: middle; font-size: 12px;" transform="translate(50,37.5)" y="0" x="0" id="text-entity-URL-07f78d3e-fd74-5925-b39b-26c1cc2d6b7c" class="er entityLabel">URL</text></g><g transform="translate(1203.390625,417 )" id="entity-Action-6cd87d9a-a078-546e-a35b-bee54f477b31"><rect height="75" width="100" y="0" x="0" class="er entityBox"/><text style="dominant-baseline: middle; text-anchor: middle; font-size: 12px;" transform="translate(50,37.5)" y="0" x="0" id="text-entity-Action-6cd87d9a-a078-546e-a35b-bee54f477b31" class="er entityLabel">Action</text></g><rect height="14" width="50.15625" y="275.38140869140625" x="162.982666015625" class="er relationshipLabelBox"/><text style="text-anchor: middle; dominant-baseline: middle; font-size: 12px;" y="282.38140869140625" x="188.060791015625" id="rel1" class="er relationshipLabel">followee</text><rect height="14" width="66.11328125" y="276.1444396972656" x="205.8194580078125" class="er relationshipLabelBox"/><text style="text-anchor: middle; dominant-baseline: middle; font-size: 12px;" y="283.1444396972656" x="238.8760986328125" id="rel2" class="er relationshipLabel">instrument</text><rect height="14" width="37.2734375" y="282.6025695800781" x="259.6295471191406" class="er relationshipLabelBox"/><text style="text-anchor: middle; dominant-baseline: middle; font-size: 12px;" y="289.6025695800781" x="278.2662658691406" id="rel3" class="er relationshipLabel">object</text><rect height="14" width="34.244140625" y="295.8065185546875" x="292.3279113769531" class="er relationshipLabelBox"/><text style="text-anchor: middle; dominant-baseline: middle; font-size: 12px;" y="302.8065185546875" x="309.4499816894531" id="rel4" class="er relationshipLabel">result</text><rect height="14" width="82.46875" y="312.884765625" x="390.9931945800781" class="er relationshipLabelBox"/><text style="text-anchor: middle; dominant-baseline: middle; font-size: 12px;" y="319.884765625" x="432.2275695800781" id="rel5" class="er relationshipLabel">actionProcess</text><rect height="14" width="75.1875" y="360" x="557.4492797851562" class="er relationshipLabelBox"/><text style="text-anchor: middle; dominant-baseline: middle; font-size: 12px;" y="367" x="595.0430297851562" id="rel6" class="er relationshipLabel">actionStatus</text><rect height="14" width="29.1171875" y="325.7330017089844" x="307.5995178222656" class="er relationshipLabelBox"/><text style="text-anchor: middle; dominant-baseline: middle; font-size: 12px;" y="332.7330017089844" x="322.1581115722656" id="rel7" class="er relationshipLabel">error</text><rect height="14" width="89.953125" y="372.3460998535156" x="684.776123046875" class="er relationshipLabelBox"/><text style="text-anchor: middle; dominant-baseline: middle; font-size: 12px;" y="379.3460998535156" x="729.752685546875" id="rel8" class="er relationshipLabel">alternateName</text><rect height="14" width="161.390625" y="318.713623046875" x="678.0376586914062" class="er relationshipLabelBox"/><text style="text-anchor: middle; dominant-baseline: middle; font-size: 12px;" y="325.713623046875" x="758.7329711914062" id="rel9" class="er relationshipLabel">disambiguatingDescription</text><rect height="14" width="34.03125" y="296.3844299316406" x="784.1490478515625" class="er relationshipLabelBox"/><text style="text-anchor: middle; dominant-baseline: middle; font-size: 12px;" y="303.3844299316406" x="801.1646728515625" id="rel10" class="er relationshipLabel">name</text><rect height="14" width="47.140625" y="292.5561828613281" x="838.5260009765625" class="er relationshipLabelBox"/><text style="text-anchor: middle; dominant-baseline: middle; font-size: 12px;" y="299.5561828613281" x="862.0963134765625" id="rel11" class="er relationshipLabel">sameAs</text><rect height="14" width="90.96875" y="278.0795593261719" x="932.0559692382812" class="er relationshipLabelBox"/><text style="text-anchor: middle; dominant-baseline: middle; font-size: 12px;" y="285.0795593261719" x="977.5403442382812" id="rel12" class="er relationshipLabel">potentialAction</text><rect height="14" width="15.875" y="281.3404235839844" x="890.1058959960938" class="er relationshipLabelBox"/><text style="text-anchor: middle; dominant-baseline: middle; font-size: 12px;" y="288.3404235839844" x="898.0433959960938" id="rel13" class="er relationshipLabel">url</text></svg>