<svg aria-roledescription="er" role="graphics-document document" viewBox="0 0 2232.609375 1184" style="max-width: 2232.61px; background-color: white;" xmlns:xlink="http://www.w3.org/1999/xlink" xmlns="http://www.w3.org/2000/svg" width="100%" id="my-svg"><style>#my-svg{font-family:"trebuchet ms",verdana,arial,sans-serif;font-size:16px;fill:#333;}#my-svg .error-icon{fill:#552222;}#my-svg .error-text{fill:#552222;stroke:#552222;}#my-svg .edge-thickness-normal{stroke-width:1px;}#my-svg .edge-thickness-thick{stroke-width:3.5px;}#my-svg .edge-pattern-solid{stroke-dasharray:0;}#my-svg .edge-thickness-invisible{stroke-width:0;fill:none;}#my-svg .edge-pattern-dashed{stroke-dasharray:3;}#my-svg .edge-pattern-dotted{stroke-dasharray:2;}#my-svg .marker{fill:#333333;stroke:#333333;}#my-svg .marker.cross{stroke:#333333;}#my-svg svg{font-family:"trebuchet ms",verdana,arial,sans-serif;font-size:16px;}#my-svg p{margin:0;}#my-svg .entityBox{fill:#ECECFF;stroke:#9370DB;}#my-svg .attributeBoxOdd{fill:#ffffff;stroke:#9370DB;}#my-svg .attributeBoxEven{fill:#f2f2f2;stroke:#9370DB;}#my-svg .relationshipLabelBox{fill:hsl(80, 100%, 96.2745098039%);opacity:0.7;background-color:hsl(80, 100%, 96.2745098039%);}#my-svg .relationshipLabelBox rect{opacity:0.5;}#my-svg .relationshipLine{stroke:#333333;}#my-svg .entityTitleText{text-anchor:middle;font-size:18px;fill:#333;}#my-svg #MD_PARENT_START{fill:#f5f5f5!important;stroke:#333333!important;stroke-width:1;}#my-svg #MD_PARENT_END{fill:#f5f5f5!important;stroke:#333333!important;stroke-width:1;}#my-svg :root{--mermaid-font-family:"trebuchet ms",verdana,arial,sans-serif;}</style><g/><defs><marker orient="auto" markerHeight="240" markerWidth="190" refY="7" refX="0" id="MD_PARENT_START"><path d="M 18,7 L9,13 L1,7 L9,1 Z"/></marker></defs><defs><marker orient="auto" markerHeight="28" markerWidth="20" refY="7" refX="19" id="MD_PARENT_END"><path d="M 18,7 L9,13 L1,7 L9,1 Z"/></marker></defs><defs><marker orient="auto" markerHeight="18" markerWidth="18" refY="9" refX="0" id="ONLY_ONE_START"><path d="M9,0 L9,18 M15,0 L15,18" fill="none" stroke="gray"/></marker></defs><defs><marker orient="auto" markerHeight="18" markerWidth="18" refY="9" refX="18" id="ONLY_ONE_END"><path d="M3,0 L3,18 M9,0 L9,18" fill="none" stroke="gray"/></marker></defs><defs><marker orient="auto" markerHeight="18" markerWidth="30" refY="9" refX="0" id="ZERO_OR_ONE_START"><circle r="6" cy="9" cx="21" fill="white" stroke="gray"/><path d="M9,0 L9,18" fill="none" stroke="gray"/></marker></defs><defs><marker orient="auto" markerHeight="18" markerWidth="30" refY="9" refX="30" id="ZERO_OR_ONE_END"><circle r="6" cy="9" cx="9" fill="white" stroke="gray"/><path d="M21,0 L21,18" fill="none" stroke="gray"/></marker></defs><defs><marker orient="auto" markerHeight="36" markerWidth="45" refY="18" refX="18" id="ONE_OR_MORE_START"><path d="M0,18 Q 18,0 36,18 Q 18,36 0,18 M42,9 L42,27" fill="none" stroke="gray"/></marker></defs><defs><marker orient="auto" markerHeight="36" markerWidth="45" refY="18" refX="27" id="ONE_OR_MORE_END"><path d="M3,9 L3,27 M9,18 Q27,0 45,18 Q27,36 9,18" fill="none" stroke="gray"/></marker></defs><defs><marker orient="auto" markerHeight="36" markerWidth="57" refY="18" refX="18" id="ZERO_OR_MORE_START"><circle r="6" cy="18" cx="48" fill="white" stroke="gray"/><path d="M0,18 Q18,0 36,18 Q18,36 0,18" fill="none" stroke="gray"/></marker></defs><defs><marker orient="auto" markerHeight="36" markerWidth="57" refY="18" refX="39" id="ZERO_OR_MORE_END"><circle r="6" cy="18" cx="9" fill="white" stroke="gray"/><path d="M21,18 Q39,0 57,18 Q39,36 21,18" fill="none" stroke="gray"/></marker></defs><path style="stroke: gray; fill: none;" marker-start="url(#ONLY_ONE_START)" marker-end="url(#ZERO_OR_MORE_END)" d="M1131.639,554.976L954.699,635.647C777.759,716.318,423.88,877.659,246.94,966.663C70,1055.667,70,1072.333,70,1080.667L70,1089" class="er relationshipLine"/><path style="stroke: gray; fill: none;" marker-start="url(#ONLY_ONE_START)" marker-end="url(#ZERO_OR_MORE_END)" d="M1131.639,565.792L989.177,644.66C846.715,723.528,561.791,881.264,419.329,968.465C276.867,1055.667,276.867,1072.333,276.867,1080.667L276.867,1089" class="er relationshipLine"/><path style="stroke: gray; fill: none;" marker-start="url(#ONLY_ONE_START)" marker-end="url(#ZERO_OR_MORE_END)" d="M1131.639,584.146L1026.259,659.955C920.879,735.764,710.119,887.382,604.739,971.524C499.359,1055.667,499.359,1072.333,499.359,1080.667L499.359,1089" class="er relationshipLine"/><path style="stroke: gray; fill: none;" marker-start="url(#ONLY_ONE_START)" marker-end="url(#ZERO_OR_MORE_END)" d="M1131.639,628.874L1070.793,697.229C1009.947,765.583,888.255,902.291,827.409,978.979C766.563,1055.667,766.563,1072.333,766.563,1080.667L766.563,1089" class="er relationshipLine"/><path style="stroke: gray; fill: none;" marker-start="url(#ONLY_ONE_START)" marker-end="url(#ZERO_OR_MORE_END)" d="M1131.639,673.574L1091.758,734.479C1051.876,795.383,972.114,917.191,944.864,986.882C917.615,1056.573,942.878,1074.146,955.509,1082.933L968.141,1091.72" class="er relationshipLine"/><path style="stroke: gray; fill: none;" marker-start="url(#ONLY_ONE_START)" marker-end="url(#ZERO_OR_MORE_END)" d="M1131.639,741.204L1108.424,790.837C1085.21,840.469,1038.781,939.735,1018.022,997.701C997.264,1055.667,1002.176,1072.333,1004.632,1080.667L1007.088,1089" class="er relationshipLine"/><path style="stroke: gray; fill: none;" marker-start="url(#ONLY_ONE_START)" marker-end="url(#ZERO_OR_MORE_END)" d="M1131.639,899.007L1125.091,922.339C1118.543,945.671,1105.447,992.336,1091.832,1024.001C1078.216,1055.667,1064.081,1072.333,1057.013,1080.667L1049.945,1089" class="er relationshipLine"/><path style="stroke: gray; fill: none;" marker-start="url(#ONLY_ONE_START)" marker-end="url(#ZERO_OR_MORE_END)" d="M1197.029,989L1196.249,997.333C1195.47,1005.667,1193.911,1022.333,1200.199,1039C1206.487,1055.667,1220.622,1072.333,1227.69,1080.667L1234.758,1089" class="er relationshipLine"/><path style="stroke: gray; fill: none;" marker-start="url(#ONLY_ONE_START)" marker-end="url(#ZERO_OR_MORE_END)" d="M1288.407,989L1289.199,997.333C1289.992,1005.667,1291.576,1022.333,1289.835,1039C1288.094,1055.667,1283.028,1072.333,1280.495,1080.667L1277.961,1089" class="er relationshipLine"/><path style="stroke: gray; fill: none;" marker-start="url(#ONLY_ONE_START)" marker-end="url(#ZERO_OR_MORE_END)" d="M1353.064,766.54L1372.25,811.95C1391.436,857.36,1429.808,948.18,1448.994,1001.923C1468.18,1055.667,1468.18,1072.333,1468.18,1080.667L1468.18,1089" class="er relationshipLine"/><path style="stroke: gray; fill: none;" marker-start="url(#ONLY_ONE_START)" marker-end="url(#ZERO_OR_MORE_END)" d="M1353.064,662.038L1397.217,724.865C1441.37,787.692,1529.675,913.346,1583.182,984.506C1636.69,1055.667,1655.399,1072.333,1664.753,1080.667L1674.108,1089" class="er relationshipLine"/><path style="stroke: gray; fill: none;" marker-start="url(#ONLY_ONE_START)" marker-end="url(#ZERO_OR_MORE_END)" d="M1353.064,599.509L1438.42,672.758C1523.775,746.006,1694.485,892.503,1789.118,974.085C1883.75,1055.667,1902.305,1072.333,1911.583,1080.667L1920.86,1089" class="er relationshipLine"/><path style="stroke: gray; fill: none;" marker-start="url(#ONLY_ONE_START)" marker-end="url(#ZERO_OR_MORE_END)" d="M1353.064,583.819L1458.953,659.683C1564.842,735.546,1776.62,887.273,1880.053,971.47C1983.486,1055.667,1978.574,1072.333,1976.118,1080.667L1973.662,1089" class="er relationshipLine"/><path style="stroke: gray; fill: none;" marker-start="url(#ONLY_ONE_START)" marker-end="url(#ZERO_OR_MORE_END)" d="M1353.064,617.681L1421.753,687.901C1490.441,758.121,1627.818,898.56,1691.841,977.114C1755.863,1055.667,1746.532,1072.333,1741.866,1080.667L1737.2,1089" class="er relationshipLine"/><path style="stroke: gray; fill: none;" marker-start="url(#ONLY_ONE_START)" marker-end="url(#ZERO_OR_MORE_END)" d="M1353.064,568.804L1487.989,647.17C1622.913,725.536,1892.761,882.268,2027.685,968.967C2162.609,1055.667,2162.609,1072.333,2162.609,1080.667L2162.609,1089" class="er relationshipLine"/><g transform="translate(1131.6387634277344,20 )" id="entity-GatedResidenceCommunity-7acab500-a71d-5247-80c3-10b1e67dc9ae"><rect height="969" width="221.42559814453125" y="0" x="0" class="er entityBox"/><text style="dominant-baseline: middle; text-anchor: middle; font-size: 12px;" transform="translate(110.71279907226562,12)" y="0" x="0" id="text-entity-GatedResidenceCommunity-7acab500-a71d-5247-80c3-10b1e67dc9ae" class="er entityLabel">GatedResidenceCommunity</text><rect height="21" width="69.06622314453125" y="24" x="0" class="er attributeBoxOdd"/><text style="dominant-baseline: middle; font-size: 10.2px;" transform="translate(5,34.5)" y="0" x="0" id="text-entity-GatedResidenceCommunity-7acab500-a71d-5247-80c3-10b1e67dc9ae-attr-1-type" class="er entityLabel">TextList</text><rect height="21" width="152.359375" y="24" x="69.06622314453125" class="er attributeBoxOdd"/><text style="dominant-baseline: middle; font-size: 10.2px;" transform="translate(74.06622314453125,34.5)" y="0" x="0" id="text-entity-GatedResidenceCommunity-7acab500-a71d-5247-80c3-10b1e67dc9ae-attr-1-name" class="er entityLabel">globalLocationNumber</text><rect height="21" width="69.06622314453125" y="45" x="0" class="er attributeBoxEven"/><text style="dominant-baseline: middle; font-size: 10.2px;" transform="translate(5,55.5)" y="0" x="0" id="text-entity-GatedResidenceCommunity-7acab500-a71d-5247-80c3-10b1e67dc9ae-attr-2-type" class="er entityLabel">URLList</text><rect height="21" width="152.359375" y="45" x="69.06622314453125" class="er attributeBoxEven"/><text style="dominant-baseline: middle; font-size: 10.2px;" transform="translate(74.06622314453125,55.5)" y="0" x="0" id="text-entity-GatedResidenceCommunity-7acab500-a71d-5247-80c3-10b1e67dc9ae-attr-2-name" class="er entityLabel">hasGS1DigitalLink</text><rect height="21" width="69.06622314453125" y="66" x="0" class="er attributeBoxOdd"/><text style="dominant-baseline: middle; font-size: 10.2px;" transform="translate(5,76.5)" y="0" x="0" id="text-entity-GatedResidenceCommunity-7acab500-a71d-5247-80c3-10b1e67dc9ae-attr-3-type" class="er entityLabel">stringList</text><rect height="21" width="152.359375" y="66" x="69.06622314453125" class="er attributeBoxOdd"/><text style="dominant-baseline: middle; font-size: 10.2px;" transform="translate(74.06622314453125,76.5)" y="0" x="0" id="text-entity-GatedResidenceCommunity-7acab500-a71d-5247-80c3-10b1e67dc9ae-attr-3-name" class="er entityLabel">logo</text><rect height="21" width="69.06622314453125" y="87" x="0" class="er attributeBoxEven"/><text style="dominant-baseline: middle; font-size: 10.2px;" transform="translate(5,97.5)" y="0" x="0" id="text-entity-GatedResidenceCommunity-7acab500-a71d-5247-80c3-10b1e67dc9ae-attr-4-type" class="er entityLabel">stringList</text><rect height="21" width="152.359375" y="87" x="69.06622314453125" class="er attributeBoxEven"/><text style="dominant-baseline: middle; font-size: 10.2px;" transform="translate(74.06622314453125,97.5)" y="0" x="0" id="text-entity-GatedResidenceCommunity-7acab500-a71d-5247-80c3-10b1e67dc9ae-attr-4-name" class="er entityLabel">photo</text><rect height="21" width="69.06622314453125" y="108" x="0" class="er attributeBoxOdd"/><text style="dominant-baseline: middle; font-size: 10.2px;" transform="translate(5,118.5)" y="0" x="0" id="text-entity-GatedResidenceCommunity-7acab500-a71d-5247-80c3-10b1e67dc9ae-attr-5-type" class="er entityLabel">stringList</text><rect height="21" width="152.359375" y="108" x="69.06622314453125" class="er attributeBoxOdd"/><text style="dominant-baseline: middle; font-size: 10.2px;" transform="translate(74.06622314453125,118.5)" y="0" x="0" id="text-entity-GatedResidenceCommunity-7acab500-a71d-5247-80c3-10b1e67dc9ae-attr-5-name" class="er entityLabel">address</text><rect height="21" width="69.06622314453125" y="129" x="0" class="er attributeBoxEven"/><text style="dominant-baseline: middle; font-size: 10.2px;" transform="translate(5,139.5)" y="0" x="0" id="text-entity-GatedResidenceCommunity-7acab500-a71d-5247-80c3-10b1e67dc9ae-attr-6-type" class="er entityLabel">TextList</text><rect height="21" width="152.359375" y="129" x="69.06622314453125" class="er attributeBoxEven"/><text style="dominant-baseline: middle; font-size: 10.2px;" transform="translate(74.06622314453125,139.5)" y="0" x="0" id="text-entity-GatedResidenceCommunity-7acab500-a71d-5247-80c3-10b1e67dc9ae-attr-6-name" class="er entityLabel">branchCode</text><rect height="21" width="69.06622314453125" y="150" x="0" class="er attributeBoxOdd"/><text style="dominant-baseline: middle; font-size: 10.2px;" transform="translate(5,160.5)" y="0" x="0" id="text-entity-GatedResidenceCommunity-7acab500-a71d-5247-80c3-10b1e67dc9ae-attr-7-type" class="er entityLabel">TextList</text><rect height="21" width="152.359375" y="150" x="69.06622314453125" class="er attributeBoxOdd"/><text style="dominant-baseline: middle; font-size: 10.2px;" transform="translate(74.06622314453125,160.5)" y="0" x="0" id="text-entity-GatedResidenceCommunity-7acab500-a71d-5247-80c3-10b1e67dc9ae-attr-7-name" class="er entityLabel">faxNumber</text><rect height="21" width="69.06622314453125" y="171" x="0" class="er attributeBoxEven"/><text style="dominant-baseline: middle; font-size: 10.2px;" transform="translate(5,181.5)" y="0" x="0" id="text-entity-GatedResidenceCommunity-7acab500-a71d-5247-80c3-10b1e67dc9ae-attr-8-type" class="er entityLabel">stringList</text><rect height="21" width="152.359375" y="171" x="69.06622314453125" class="er attributeBoxEven"/><text style="dominant-baseline: middle; font-size: 10.2px;" transform="translate(74.06622314453125,181.5)" y="0" x="0" id="text-entity-GatedResidenceCommunity-7acab500-a71d-5247-80c3-10b1e67dc9ae-attr-8-name" class="er entityLabel">geo</text><rect height="21" width="69.06622314453125" y="192" x="0" class="er attributeBoxOdd"/><text style="dominant-baseline: middle; font-size: 10.2px;" transform="translate(5,202.5)" y="0" x="0" id="text-entity-GatedResidenceCommunity-7acab500-a71d-5247-80c3-10b1e67dc9ae-attr-9-type" class="er entityLabel">stringList</text><rect height="21" width="152.359375" y="192" x="69.06622314453125" class="er attributeBoxOdd"/><text style="dominant-baseline: middle; font-size: 10.2px;" transform="translate(74.06622314453125,202.5)" y="0" x="0" id="text-entity-GatedResidenceCommunity-7acab500-a71d-5247-80c3-10b1e67dc9ae-attr-9-name" class="er entityLabel">geoContains</text><rect height="21" width="69.06622314453125" y="213" x="0" class="er attributeBoxEven"/><text style="dominant-baseline: middle; font-size: 10.2px;" transform="translate(5,223.5)" y="0" x="0" id="text-entity-GatedResidenceCommunity-7acab500-a71d-5247-80c3-10b1e67dc9ae-attr-10-type" class="er entityLabel">stringList</text><rect height="21" width="152.359375" y="213" x="69.06622314453125" class="er attributeBoxEven"/><text style="dominant-baseline: middle; font-size: 10.2px;" transform="translate(74.06622314453125,223.5)" y="0" x="0" id="text-entity-GatedResidenceCommunity-7acab500-a71d-5247-80c3-10b1e67dc9ae-attr-10-name" class="er entityLabel">geoCoveredBy</text><rect height="21" width="69.06622314453125" y="234" x="0" class="er attributeBoxOdd"/><text style="dominant-baseline: middle; font-size: 10.2px;" transform="translate(5,244.5)" y="0" x="0" id="text-entity-GatedResidenceCommunity-7acab500-a71d-5247-80c3-10b1e67dc9ae-attr-11-type" class="er entityLabel">stringList</text><rect height="21" width="152.359375" y="234" x="69.06622314453125" class="er attributeBoxOdd"/><text style="dominant-baseline: middle; font-size: 10.2px;" transform="translate(74.06622314453125,244.5)" y="0" x="0" id="text-entity-GatedResidenceCommunity-7acab500-a71d-5247-80c3-10b1e67dc9ae-attr-11-name" class="er entityLabel">geoCovers</text><rect height="21" width="69.06622314453125" y="255" x="0" class="er attributeBoxEven"/><text style="dominant-baseline: middle; font-size: 10.2px;" transform="translate(5,265.5)" y="0" x="0" id="text-entity-GatedResidenceCommunity-7acab500-a71d-5247-80c3-10b1e67dc9ae-attr-12-type" class="er entityLabel">stringList</text><rect height="21" width="152.359375" y="255" x="69.06622314453125" class="er attributeBoxEven"/><text style="dominant-baseline: middle; font-size: 10.2px;" transform="translate(74.06622314453125,265.5)" y="0" x="0" id="text-entity-GatedResidenceCommunity-7acab500-a71d-5247-80c3-10b1e67dc9ae-attr-12-name" class="er entityLabel">geoCrosses</text><rect height="21" width="69.06622314453125" y="276" x="0" class="er attributeBoxOdd"/><text style="dominant-baseline: middle; font-size: 10.2px;" transform="translate(5,286.5)" y="0" x="0" id="text-entity-GatedResidenceCommunity-7acab500-a71d-5247-80c3-10b1e67dc9ae-attr-13-type" class="er entityLabel">stringList</text><rect height="21" width="152.359375" y="276" x="69.06622314453125" class="er attributeBoxOdd"/><text style="dominant-baseline: middle; font-size: 10.2px;" transform="translate(74.06622314453125,286.5)" y="0" x="0" id="text-entity-GatedResidenceCommunity-7acab500-a71d-5247-80c3-10b1e67dc9ae-attr-13-name" class="er entityLabel">geoDisjoint</text><rect height="21" width="69.06622314453125" y="297" x="0" class="er attributeBoxEven"/><text style="dominant-baseline: middle; font-size: 10.2px;" transform="translate(5,307.5)" y="0" x="0" id="text-entity-GatedResidenceCommunity-7acab500-a71d-5247-80c3-10b1e67dc9ae-attr-14-type" class="er entityLabel">stringList</text><rect height="21" width="152.359375" y="297" x="69.06622314453125" class="er attributeBoxEven"/><text style="dominant-baseline: middle; font-size: 10.2px;" transform="translate(74.06622314453125,307.5)" y="0" x="0" id="text-entity-GatedResidenceCommunity-7acab500-a71d-5247-80c3-10b1e67dc9ae-attr-14-name" class="er entityLabel">geoEquals</text><rect height="21" width="69.06622314453125" y="318" x="0" class="er attributeBoxOdd"/><text style="dominant-baseline: middle; font-size: 10.2px;" transform="translate(5,328.5)" y="0" x="0" id="text-entity-GatedResidenceCommunity-7acab500-a71d-5247-80c3-10b1e67dc9ae-attr-15-type" class="er entityLabel">stringList</text><rect height="21" width="152.359375" y="318" x="69.06622314453125" class="er attributeBoxOdd"/><text style="dominant-baseline: middle; font-size: 10.2px;" transform="translate(74.06622314453125,328.5)" y="0" x="0" id="text-entity-GatedResidenceCommunity-7acab500-a71d-5247-80c3-10b1e67dc9ae-attr-15-name" class="er entityLabel">geoIntersects</text><rect height="21" width="69.06622314453125" y="339" x="0" class="er attributeBoxEven"/><text style="dominant-baseline: middle; font-size: 10.2px;" transform="translate(5,349.5)" y="0" x="0" id="text-entity-GatedResidenceCommunity-7acab500-a71d-5247-80c3-10b1e67dc9ae-attr-16-type" class="er entityLabel">stringList</text><rect height="21" width="152.359375" y="339" x="69.06622314453125" class="er attributeBoxEven"/><text style="dominant-baseline: middle; font-size: 10.2px;" transform="translate(74.06622314453125,349.5)" y="0" x="0" id="text-entity-GatedResidenceCommunity-7acab500-a71d-5247-80c3-10b1e67dc9ae-attr-16-name" class="er entityLabel">geoOverlaps</text><rect height="21" width="69.06622314453125" y="360" x="0" class="er attributeBoxOdd"/><text style="dominant-baseline: middle; font-size: 10.2px;" transform="translate(5,370.5)" y="0" x="0" id="text-entity-GatedResidenceCommunity-7acab500-a71d-5247-80c3-10b1e67dc9ae-attr-17-type" class="er entityLabel">stringList</text><rect height="21" width="152.359375" y="360" x="69.06622314453125" class="er attributeBoxOdd"/><text style="dominant-baseline: middle; font-size: 10.2px;" transform="translate(74.06622314453125,370.5)" y="0" x="0" id="text-entity-GatedResidenceCommunity-7acab500-a71d-5247-80c3-10b1e67dc9ae-attr-17-name" class="er entityLabel">geoTouches</text><rect height="21" width="69.06622314453125" y="381" x="0" class="er attributeBoxEven"/><text style="dominant-baseline: middle; font-size: 10.2px;" transform="translate(5,391.5)" y="0" x="0" id="text-entity-GatedResidenceCommunity-7acab500-a71d-5247-80c3-10b1e67dc9ae-attr-18-type" class="er entityLabel">stringList</text><rect height="21" width="152.359375" y="381" x="69.06622314453125" class="er attributeBoxEven"/><text style="dominant-baseline: middle; font-size: 10.2px;" transform="translate(74.06622314453125,391.5)" y="0" x="0" id="text-entity-GatedResidenceCommunity-7acab500-a71d-5247-80c3-10b1e67dc9ae-attr-18-name" class="er entityLabel">geoWithin</text><rect height="21" width="69.06622314453125" y="402" x="0" class="er attributeBoxOdd"/><text style="dominant-baseline: middle; font-size: 10.2px;" transform="translate(5,412.5)" y="0" x="0" id="text-entity-GatedResidenceCommunity-7acab500-a71d-5247-80c3-10b1e67dc9ae-attr-19-type" class="er entityLabel">BooleanList</text><rect height="21" width="152.359375" y="402" x="69.06622314453125" class="er attributeBoxOdd"/><text style="dominant-baseline: middle; font-size: 10.2px;" transform="translate(74.06622314453125,412.5)" y="0" x="0" id="text-entity-GatedResidenceCommunity-7acab500-a71d-5247-80c3-10b1e67dc9ae-attr-19-name" class="er entityLabel">hasDriveThroughService</text><rect height="21" width="69.06622314453125" y="423" x="0" class="er attributeBoxEven"/><text style="dominant-baseline: middle; font-size: 10.2px;" transform="translate(5,433.5)" y="0" x="0" id="text-entity-GatedResidenceCommunity-7acab500-a71d-5247-80c3-10b1e67dc9ae-attr-20-type" class="er entityLabel">stringList</text><rect height="21" width="152.359375" y="423" x="69.06622314453125" class="er attributeBoxEven"/><text style="dominant-baseline: middle; font-size: 10.2px;" transform="translate(74.06622314453125,433.5)" y="0" x="0" id="text-entity-GatedResidenceCommunity-7acab500-a71d-5247-80c3-10b1e67dc9ae-attr-20-name" class="er entityLabel">hasMap</text><rect height="21" width="69.06622314453125" y="444" x="0" class="er attributeBoxOdd"/><text style="dominant-baseline: middle; font-size: 10.2px;" transform="translate(5,454.5)" y="0" x="0" id="text-entity-GatedResidenceCommunity-7acab500-a71d-5247-80c3-10b1e67dc9ae-attr-21-type" class="er entityLabel">BooleanList</text><rect height="21" width="152.359375" y="444" x="69.06622314453125" class="er attributeBoxOdd"/><text style="dominant-baseline: middle; font-size: 10.2px;" transform="translate(74.06622314453125,454.5)" y="0" x="0" id="text-entity-GatedResidenceCommunity-7acab500-a71d-5247-80c3-10b1e67dc9ae-attr-21-name" class="er entityLabel">isAccessibleForFree</text><rect height="21" width="69.06622314453125" y="465" x="0" class="er attributeBoxEven"/><text style="dominant-baseline: middle; font-size: 10.2px;" transform="translate(5,475.5)" y="0" x="0" id="text-entity-GatedResidenceCommunity-7acab500-a71d-5247-80c3-10b1e67dc9ae-attr-22-type" class="er entityLabel">TextList</text><rect height="21" width="152.359375" y="465" x="69.06622314453125" class="er attributeBoxEven"/><text style="dominant-baseline: middle; font-size: 10.2px;" transform="translate(74.06622314453125,475.5)" y="0" x="0" id="text-entity-GatedResidenceCommunity-7acab500-a71d-5247-80c3-10b1e67dc9ae-attr-22-name" class="er entityLabel">isicV4</text><rect height="21" width="69.06622314453125" y="486" x="0" class="er attributeBoxOdd"/><text style="dominant-baseline: middle; font-size: 10.2px;" transform="translate(5,496.5)" y="0" x="0" id="text-entity-GatedResidenceCommunity-7acab500-a71d-5247-80c3-10b1e67dc9ae-attr-23-type" class="er entityLabel">stringList</text><rect height="21" width="152.359375" y="486" x="69.06622314453125" class="er attributeBoxOdd"/><text style="dominant-baseline: middle; font-size: 10.2px;" transform="translate(74.06622314453125,496.5)" y="0" x="0" id="text-entity-GatedResidenceCommunity-7acab500-a71d-5247-80c3-10b1e67dc9ae-attr-23-name" class="er entityLabel">keywords</text><rect height="21" width="69.06622314453125" y="507" x="0" class="er attributeBoxEven"/><text style="dominant-baseline: middle; font-size: 10.2px;" transform="translate(5,517.5)" y="0" x="0" id="text-entity-GatedResidenceCommunity-7acab500-a71d-5247-80c3-10b1e67dc9ae-attr-24-type" class="er entityLabel">stringList</text><rect height="21" width="152.359375" y="507" x="69.06622314453125" class="er attributeBoxEven"/><text style="dominant-baseline: middle; font-size: 10.2px;" transform="translate(74.06622314453125,517.5)" y="0" x="0" id="text-entity-GatedResidenceCommunity-7acab500-a71d-5247-80c3-10b1e67dc9ae-attr-24-name" class="er entityLabel">latitude</text><rect height="21" width="69.06622314453125" y="528" x="0" class="er attributeBoxOdd"/><text style="dominant-baseline: middle; font-size: 10.2px;" transform="translate(5,538.5)" y="0" x="0" id="text-entity-GatedResidenceCommunity-7acab500-a71d-5247-80c3-10b1e67dc9ae-attr-25-type" class="er entityLabel">stringList</text><rect height="21" width="152.359375" y="528" x="69.06622314453125" class="er attributeBoxOdd"/><text style="dominant-baseline: middle; font-size: 10.2px;" transform="translate(74.06622314453125,538.5)" y="0" x="0" id="text-entity-GatedResidenceCommunity-7acab500-a71d-5247-80c3-10b1e67dc9ae-attr-25-name" class="er entityLabel">longitude</text><rect height="21" width="69.06622314453125" y="549" x="0" class="er attributeBoxEven"/><text style="dominant-baseline: middle; font-size: 10.2px;" transform="translate(5,559.5)" y="0" x="0" id="text-entity-GatedResidenceCommunity-7acab500-a71d-5247-80c3-10b1e67dc9ae-attr-26-type" class="er entityLabel">URLList</text><rect height="21" width="152.359375" y="549" x="69.06622314453125" class="er attributeBoxEven"/><text style="dominant-baseline: middle; font-size: 10.2px;" transform="translate(74.06622314453125,559.5)" y="0" x="0" id="text-entity-GatedResidenceCommunity-7acab500-a71d-5247-80c3-10b1e67dc9ae-attr-26-name" class="er entityLabel">map</text><rect height="21" width="69.06622314453125" y="570" x="0" class="er attributeBoxOdd"/><text style="dominant-baseline: middle; font-size: 10.2px;" transform="translate(5,580.5)" y="0" x="0" id="text-entity-GatedResidenceCommunity-7acab500-a71d-5247-80c3-10b1e67dc9ae-attr-27-type" class="er entityLabel">URLList</text><rect height="21" width="152.359375" y="570" x="69.06622314453125" class="er attributeBoxOdd"/><text style="dominant-baseline: middle; font-size: 10.2px;" transform="translate(74.06622314453125,580.5)" y="0" x="0" id="text-entity-GatedResidenceCommunity-7acab500-a71d-5247-80c3-10b1e67dc9ae-attr-27-name" class="er entityLabel">maps</text><rect height="21" width="69.06622314453125" y="591" x="0" class="er attributeBoxEven"/><text style="dominant-baseline: middle; font-size: 10.2px;" transform="translate(5,601.5)" y="0" x="0" id="text-entity-GatedResidenceCommunity-7acab500-a71d-5247-80c3-10b1e67dc9ae-attr-28-type" class="er entityLabel">IntegerList</text><rect height="21" width="152.359375" y="591" x="69.06622314453125" class="er attributeBoxEven"/><text style="dominant-baseline: middle; font-size: 10.2px;" transform="translate(74.06622314453125,601.5)" y="0" x="0" id="text-entity-GatedResidenceCommunity-7acab500-a71d-5247-80c3-10b1e67dc9ae-attr-28-name" class="er entityLabel">maximumAttendeeCapacity</text><rect height="21" width="69.06622314453125" y="612" x="0" class="er attributeBoxOdd"/><text style="dominant-baseline: middle; font-size: 10.2px;" transform="translate(5,622.5)" y="0" x="0" id="text-entity-GatedResidenceCommunity-7acab500-a71d-5247-80c3-10b1e67dc9ae-attr-29-type" class="er entityLabel">stringList</text><rect height="21" width="152.359375" y="612" x="69.06622314453125" class="er attributeBoxOdd"/><text style="dominant-baseline: middle; font-size: 10.2px;" transform="translate(74.06622314453125,622.5)" y="0" x="0" id="text-entity-GatedResidenceCommunity-7acab500-a71d-5247-80c3-10b1e67dc9ae-attr-29-name" class="er entityLabel">photos</text><rect height="21" width="69.06622314453125" y="633" x="0" class="er attributeBoxEven"/><text style="dominant-baseline: middle; font-size: 10.2px;" transform="translate(5,643.5)" y="0" x="0" id="text-entity-GatedResidenceCommunity-7acab500-a71d-5247-80c3-10b1e67dc9ae-attr-30-type" class="er entityLabel">BooleanList</text><rect height="21" width="152.359375" y="633" x="69.06622314453125" class="er attributeBoxEven"/><text style="dominant-baseline: middle; font-size: 10.2px;" transform="translate(74.06622314453125,643.5)" y="0" x="0" id="text-entity-GatedResidenceCommunity-7acab500-a71d-5247-80c3-10b1e67dc9ae-attr-30-name" class="er entityLabel">publicAccess</text><rect height="21" width="69.06622314453125" y="654" x="0" class="er attributeBoxOdd"/><text style="dominant-baseline: middle; font-size: 10.2px;" transform="translate(5,664.5)" y="0" x="0" id="text-entity-GatedResidenceCommunity-7acab500-a71d-5247-80c3-10b1e67dc9ae-attr-31-type" class="er entityLabel">TextList</text><rect height="21" width="152.359375" y="654" x="69.06622314453125" class="er attributeBoxOdd"/><text style="dominant-baseline: middle; font-size: 10.2px;" transform="translate(74.06622314453125,664.5)" y="0" x="0" id="text-entity-GatedResidenceCommunity-7acab500-a71d-5247-80c3-10b1e67dc9ae-attr-31-name" class="er entityLabel">slogan</text><rect height="21" width="69.06622314453125" y="675" x="0" class="er attributeBoxEven"/><text style="dominant-baseline: middle; font-size: 10.2px;" transform="translate(5,685.5)" y="0" x="0" id="text-entity-GatedResidenceCommunity-7acab500-a71d-5247-80c3-10b1e67dc9ae-attr-32-type" class="er entityLabel">BooleanList</text><rect height="21" width="152.359375" y="675" x="69.06622314453125" class="er attributeBoxEven"/><text style="dominant-baseline: middle; font-size: 10.2px;" transform="translate(74.06622314453125,685.5)" y="0" x="0" id="text-entity-GatedResidenceCommunity-7acab500-a71d-5247-80c3-10b1e67dc9ae-attr-32-name" class="er entityLabel">smokingAllowed</text><rect height="21" width="69.06622314453125" y="696" x="0" class="er attributeBoxOdd"/><text style="dominant-baseline: middle; font-size: 10.2px;" transform="translate(5,706.5)" y="0" x="0" id="text-entity-GatedResidenceCommunity-7acab500-a71d-5247-80c3-10b1e67dc9ae-attr-33-type" class="er entityLabel">TextList</text><rect height="21" width="152.359375" y="696" x="69.06622314453125" class="er attributeBoxOdd"/><text style="dominant-baseline: middle; font-size: 10.2px;" transform="translate(74.06622314453125,706.5)" y="0" x="0" id="text-entity-GatedResidenceCommunity-7acab500-a71d-5247-80c3-10b1e67dc9ae-attr-33-name" class="er entityLabel">telephone</text><rect height="21" width="69.06622314453125" y="717" x="0" class="er attributeBoxEven"/><text style="dominant-baseline: middle; font-size: 10.2px;" transform="translate(5,727.5)" y="0" x="0" id="text-entity-GatedResidenceCommunity-7acab500-a71d-5247-80c3-10b1e67dc9ae-attr-34-type" class="er entityLabel">URLList</text><rect height="21" width="152.359375" y="717" x="69.06622314453125" class="er attributeBoxEven"/><text style="dominant-baseline: middle; font-size: 10.2px;" transform="translate(74.06622314453125,727.5)" y="0" x="0" id="text-entity-GatedResidenceCommunity-7acab500-a71d-5247-80c3-10b1e67dc9ae-attr-34-name" class="er entityLabel">tourBookingPage</text><rect height="21" width="69.06622314453125" y="738" x="0" class="er attributeBoxOdd"/><text style="dominant-baseline: middle; font-size: 10.2px;" transform="translate(5,748.5)" y="0" x="0" id="text-entity-GatedResidenceCommunity-7acab500-a71d-5247-80c3-10b1e67dc9ae-attr-35-type" class="er entityLabel">stringList</text><rect height="21" width="152.359375" y="738" x="69.06622314453125" class="er attributeBoxOdd"/><text style="dominant-baseline: middle; font-size: 10.2px;" transform="translate(74.06622314453125,748.5)" y="0" x="0" id="text-entity-GatedResidenceCommunity-7acab500-a71d-5247-80c3-10b1e67dc9ae-attr-35-name" class="er entityLabel">additionalType</text><rect height="21" width="69.06622314453125" y="759" x="0" class="er attributeBoxEven"/><text style="dominant-baseline: middle; font-size: 10.2px;" transform="translate(5,769.5)" y="0" x="0" id="text-entity-GatedResidenceCommunity-7acab500-a71d-5247-80c3-10b1e67dc9ae-attr-36-type" class="er entityLabel">TextList</text><rect height="21" width="152.359375" y="759" x="69.06622314453125" class="er attributeBoxEven"/><text style="dominant-baseline: middle; font-size: 10.2px;" transform="translate(74.06622314453125,769.5)" y="0" x="0" id="text-entity-GatedResidenceCommunity-7acab500-a71d-5247-80c3-10b1e67dc9ae-attr-36-name" class="er entityLabel">alternateName</text><rect height="21" width="69.06622314453125" y="780" x="0" class="er attributeBoxOdd"/><text style="dominant-baseline: middle; font-size: 10.2px;" transform="translate(5,790.5)" y="0" x="0" id="text-entity-GatedResidenceCommunity-7acab500-a71d-5247-80c3-10b1e67dc9ae-attr-37-type" class="er entityLabel">stringList</text><rect height="21" width="152.359375" y="780" x="69.06622314453125" class="er attributeBoxOdd"/><text style="dominant-baseline: middle; font-size: 10.2px;" transform="translate(74.06622314453125,790.5)" y="0" x="0" id="text-entity-GatedResidenceCommunity-7acab500-a71d-5247-80c3-10b1e67dc9ae-attr-37-name" class="er entityLabel">description</text><rect height="21" width="69.06622314453125" y="801" x="0" class="er attributeBoxEven"/><text style="dominant-baseline: middle; font-size: 10.2px;" transform="translate(5,811.5)" y="0" x="0" id="text-entity-GatedResidenceCommunity-7acab500-a71d-5247-80c3-10b1e67dc9ae-attr-38-type" class="er entityLabel">TextList</text><rect height="21" width="152.359375" y="801" x="69.06622314453125" class="er attributeBoxEven"/><text style="dominant-baseline: middle; font-size: 10.2px;" transform="translate(74.06622314453125,811.5)" y="0" x="0" id="text-entity-GatedResidenceCommunity-7acab500-a71d-5247-80c3-10b1e67dc9ae-attr-38-name" class="er entityLabel">disambiguatingDescription</text><rect height="21" width="69.06622314453125" y="822" x="0" class="er attributeBoxOdd"/><text style="dominant-baseline: middle; font-size: 10.2px;" transform="translate(5,832.5)" y="0" x="0" id="text-entity-GatedResidenceCommunity-7acab500-a71d-5247-80c3-10b1e67dc9ae-attr-39-type" class="er entityLabel">stringList</text><rect height="21" width="152.359375" y="822" x="69.06622314453125" class="er attributeBoxOdd"/><text style="dominant-baseline: middle; font-size: 10.2px;" transform="translate(74.06622314453125,832.5)" y="0" x="0" id="text-entity-GatedResidenceCommunity-7acab500-a71d-5247-80c3-10b1e67dc9ae-attr-39-name" class="er entityLabel">identifier</text><rect height="21" width="69.06622314453125" y="843" x="0" class="er attributeBoxEven"/><text style="dominant-baseline: middle; font-size: 10.2px;" transform="translate(5,853.5)" y="0" x="0" id="text-entity-GatedResidenceCommunity-7acab500-a71d-5247-80c3-10b1e67dc9ae-attr-40-type" class="er entityLabel">stringList</text><rect height="21" width="152.359375" y="843" x="69.06622314453125" class="er attributeBoxEven"/><text style="dominant-baseline: middle; font-size: 10.2px;" transform="translate(74.06622314453125,853.5)" y="0" x="0" id="text-entity-GatedResidenceCommunity-7acab500-a71d-5247-80c3-10b1e67dc9ae-attr-40-name" class="er entityLabel">image</text><rect height="21" width="69.06622314453125" y="864" x="0" class="er attributeBoxOdd"/><text style="dominant-baseline: middle; font-size: 10.2px;" transform="translate(5,874.5)" y="0" x="0" id="text-entity-GatedResidenceCommunity-7acab500-a71d-5247-80c3-10b1e67dc9ae-attr-41-type" class="er entityLabel">TextList</text><rect height="21" width="152.359375" y="864" x="69.06622314453125" class="er attributeBoxOdd"/><text style="dominant-baseline: middle; font-size: 10.2px;" transform="translate(74.06622314453125,874.5)" y="0" x="0" id="text-entity-GatedResidenceCommunity-7acab500-a71d-5247-80c3-10b1e67dc9ae-attr-41-name" class="er entityLabel">name</text><rect height="21" width="69.06622314453125" y="885" x="0" class="er attributeBoxEven"/><text style="dominant-baseline: middle; font-size: 10.2px;" transform="translate(5,895.5)" y="0" x="0" id="text-entity-GatedResidenceCommunity-7acab500-a71d-5247-80c3-10b1e67dc9ae-attr-42-type" class="er entityLabel">URLList</text><rect height="21" width="152.359375" y="885" x="69.06622314453125" class="er attributeBoxEven"/><text style="dominant-baseline: middle; font-size: 10.2px;" transform="translate(74.06622314453125,895.5)" y="0" x="0" id="text-entity-GatedResidenceCommunity-7acab500-a71d-5247-80c3-10b1e67dc9ae-attr-42-name" class="er entityLabel">sameAs</text><rect height="21" width="69.06622314453125" y="906" x="0" class="er attributeBoxOdd"/><text style="dominant-baseline: middle; font-size: 10.2px;" transform="translate(5,916.5)" y="0" x="0" id="text-entity-GatedResidenceCommunity-7acab500-a71d-5247-80c3-10b1e67dc9ae-attr-43-type" class="er entityLabel">stringList</text><rect height="21" width="152.359375" y="906" x="69.06622314453125" class="er attributeBoxOdd"/><text style="dominant-baseline: middle; font-size: 10.2px;" transform="translate(74.06622314453125,916.5)" y="0" x="0" id="text-entity-GatedResidenceCommunity-7acab500-a71d-5247-80c3-10b1e67dc9ae-attr-43-name" class="er entityLabel">mainEntityOfPage</text><rect height="21" width="69.06622314453125" y="927" x="0" class="er attributeBoxEven"/><text style="dominant-baseline: middle; font-size: 10.2px;" transform="translate(5,937.5)" y="0" x="0" id="text-entity-GatedResidenceCommunity-7acab500-a71d-5247-80c3-10b1e67dc9ae-attr-44-type" class="er entityLabel">stringList</text><rect height="21" width="152.359375" y="927" x="69.06622314453125" class="er attributeBoxEven"/><text style="dominant-baseline: middle; font-size: 10.2px;" transform="translate(74.06622314453125,937.5)" y="0" x="0" id="text-entity-GatedResidenceCommunity-7acab500-a71d-5247-80c3-10b1e67dc9ae-attr-44-name" class="er entityLabel">subjectOf</text><rect height="21" width="69.06622314453125" y="948" x="0" class="er attributeBoxOdd"/><text style="dominant-baseline: middle; font-size: 10.2px;" transform="translate(5,958.5)" y="0" x="0" id="text-entity-GatedResidenceCommunity-7acab500-a71d-5247-80c3-10b1e67dc9ae-attr-45-type" class="er entityLabel">URLList</text><rect height="21" width="152.359375" y="948" x="69.06622314453125" class="er attributeBoxOdd"/><text style="dominant-baseline: middle; font-size: 10.2px;" transform="translate(74.06622314453125,958.5)" y="0" x="0" id="text-entity-GatedResidenceCommunity-7acab500-a71d-5247-80c3-10b1e67dc9ae-attr-45-name" class="er entityLabel">url</text></g><g transform="translate(20,1089 )" id="entity-FloorPlan-c68fc71d-a919-5aeb-b8e8-2bb700970f75"><rect height="75" width="100" y="0" x="0" class="er entityBox"/><text style="dominant-baseline: middle; text-anchor: middle; font-size: 12px;" transform="translate(50,37.5)" y="0" x="0" id="text-entity-FloorPlan-c68fc71d-a919-5aeb-b8e8-2bb700970f75" class="er entityLabel">FloorPlan</text></g><g transform="translate(220,1089 )" id="entity-PropertyValue-0e208f6c-77f8-5d2e-b4a4-9a09101a021a"><rect height="75" width="113.734375" y="0" x="0" class="er entityBox"/><text style="dominant-baseline: middle; text-anchor: middle; font-size: 12px;" transform="translate(56.8671875,37.5)" y="0" x="0" id="text-entity-PropertyValue-0e208f6c-77f8-5d2e-b4a4-9a09101a021a" class="er entityLabel">PropertyValue</text></g><g transform="translate(433.734375,1089 )" id="entity-AggregateRating-aa0a8837-178a-57ab-baa0-94ad30d90eb5"><rect height="75" width="131.25" y="0" x="0" class="er entityBox"/><text style="dominant-baseline: middle; text-anchor: middle; font-size: 12px;" transform="translate(65.625,37.5)" y="0" x="0" id="text-entity-AggregateRating-aa0a8837-178a-57ab-baa0-94ad30d90eb5" class="er entityLabel">AggregateRating</text></g><g transform="translate(664.984375,1089 )" id="entity-LocationFeatureSpecification-dbe29f9c-e3d0-5bc9-80cd-10146568b0ab"><rect height="75" width="203.15625" y="0" x="0" class="er entityBox"/><text style="dominant-baseline: middle; text-anchor: middle; font-size: 12px;" transform="translate(101.578125,37.5)" y="0" x="0" id="text-entity-LocationFeatureSpecification-dbe29f9c-e3d0-5bc9-80cd-10146568b0ab" class="er entityLabel">LocationFeatureSpecification</text></g><g transform="translate(968.140625,1089 )" id="entity-Place-18cedc50-4c85-52d4-b2dd-111465382dcf"><rect height="75" width="100" y="0" x="0" class="er entityBox"/><text style="dominant-baseline: middle; text-anchor: middle; font-size: 12px;" transform="translate(50,37.5)" y="0" x="0" id="text-entity-Place-18cedc50-4c85-52d4-b2dd-111465382dcf" class="er entityLabel">Place</text></g><g transform="translate(1216.5625,1089 )" id="entity-Event-5fcfcec5-0af7-59ba-bebb-bb0a822c8afa"><rect height="75" width="100" y="0" x="0" class="er entityBox"/><text style="dominant-baseline: middle; text-anchor: middle; font-size: 12px;" transform="translate(50,37.5)" y="0" x="0" id="text-entity-Event-5fcfcec5-0af7-59ba-bebb-bb0a822c8afa" class="er entityLabel">Event</text></g><g transform="translate(1416.5625,1089 )" id="entity-Certification-8b250de0-929b-5806-8c87-f8e7c928ef36"><rect height="75" width="103.234375" y="0" x="0" class="er entityBox"/><text style="dominant-baseline: middle; text-anchor: middle; font-size: 12px;" transform="translate(51.6171875,37.5)" y="0" x="0" id="text-entity-Certification-8b250de0-929b-5806-8c87-f8e7c928ef36" class="er entityLabel">Certification</text></g><g transform="translate(1619.796875,1089 )" id="entity-OpeningHoursSpecification-677aa64f-a506-5d18-b5d1-75a0f22f6986"><rect height="75" width="192.8125" y="0" x="0" class="er entityBox"/><text style="dominant-baseline: middle; text-anchor: middle; font-size: 12px;" transform="translate(96.40625,37.5)" y="0" x="0" id="text-entity-OpeningHoursSpecification-677aa64f-a506-5d18-b5d1-75a0f22f6986" class="er entityLabel">OpeningHoursSpecification</text></g><g transform="translate(1912.609375,1089 )" id="entity-Review-77c92a79-8cff-50c0-9604-f9135763cccd"><rect height="75" width="100" y="0" x="0" class="er entityBox"/><text style="dominant-baseline: middle; text-anchor: middle; font-size: 12px;" transform="translate(50,37.5)" y="0" x="0" id="text-entity-Review-77c92a79-8cff-50c0-9604-f9135763cccd" class="er entityLabel">Review</text></g><g transform="translate(2112.609375,1089 )" id="entity-Action-6cd87d9a-a078-546e-a35b-bee54f477b31"><rect height="75" width="100" y="0" x="0" class="er entityBox"/><text style="dominant-baseline: middle; text-anchor: middle; font-size: 12px;" transform="translate(50,37.5)" y="0" x="0" id="text-entity-Action-6cd87d9a-a078-546e-a35b-bee54f477b31" class="er entityLabel">Action</text></g><rect height="14" width="151.953125" y="797.4120483398438" x="511.0970458984375" class="er relationshipLabelBox"/><text style="text-anchor: middle; dominant-baseline: middle; font-size: 12px;" y="804.4120483398438" x="587.0736083984375" id="rel1" class="er relationshipLabel">accommodationFloorPlan</text><rect height="14" width="110.375" y="804.5213623046875" x="634.7321166992188" class="er relationshipLabelBox"/><text style="text-anchor: middle; dominant-baseline: middle; font-size: 12px;" y="811.5213623046875" x="689.9196166992188" id="rel2" class="er relationshipLabel">additionalProperty</text><rect height="14" width="100.390625" y="816.3727416992188" x="750.6351318359375" class="er relationshipLabelBox"/><text style="text-anchor: middle; dominant-baseline: middle; font-size: 12px;" y="823.3727416992188" x="800.8304443359375" id="rel3" class="er relationshipLabel">aggregateRating</text><rect height="14" width="94.53125" y="843.6238403320312" x="888.21728515625" class="er relationshipLabelBox"/><text style="text-anchor: middle; dominant-baseline: middle; font-size: 12px;" y="850.6238403320312" x="935.48291015625" id="rel4" class="er relationshipLabel">amenityFeature</text><rect height="14" width="70.6875" y="871.6218872070312" x="965.5326538085938" class="er relationshipLabelBox"/><text style="text-anchor: middle; dominant-baseline: middle; font-size: 12px;" y="878.6218872070312" x="1000.8764038085938" id="rel5" class="er relationshipLabel">containedIn</text><rect height="14" width="102.59375" y="904.3558349609375" x="1002.05029296875" class="er relationshipLabelBox"/><text style="text-anchor: middle; dominant-baseline: middle; font-size: 12px;" y="911.3558349609375" x="1053.34716796875" id="rel6" class="er relationshipLabel">containedInPlace</text><rect height="14" width="82.703125" y="992.0322875976562" x="1060.1478271484375" class="er relationshipLabelBox"/><text style="text-anchor: middle; dominant-baseline: middle; font-size: 12px;" y="999.0322875976562" x="1101.4993896484375" id="rel7" class="er relationshipLabel">containsPlace</text><rect height="14" width="34.47265625" y="1036.8250732421875" x="1184.9931640625" class="er relationshipLabelBox"/><text style="text-anchor: middle; dominant-baseline: middle; font-size: 12px;" y="1043.8250732421875" x="1202.2294921875" id="rel8" class="er relationshipLabel">event</text><rect height="14" width="40.4375" y="1032.6778564453125" x="1269.5433349609375" class="er relationshipLabelBox"/><text style="text-anchor: middle; dominant-baseline: middle; font-size: 12px;" y="1039.6778564453125" x="1289.7620849609375" id="rel9" class="er relationshipLabel">events</text><rect height="14" width="94.453125" y="918.2269897460938" x="1372.1162109375" class="er relationshipLabelBox"/><text style="text-anchor: middle; dominant-baseline: middle; font-size: 12px;" y="925.2269897460938" x="1419.3427734375" id="rel10" class="er relationshipLabel">hasCertification</text><rect height="14" width="160.71875" y="873.5288696289062" x="1427.015380859375" class="er relationshipLabelBox"/><text style="text-anchor: middle; dominant-baseline: middle; font-size: 12px;" y="880.5288696289062" x="1507.374755859375" id="rel11" class="er relationshipLabel">openingHoursSpecification</text><rect height="14" width="39.87109375" y="836.6597900390625" x="1617.54296875" class="er relationshipLabelBox"/><text style="text-anchor: middle; dominant-baseline: middle; font-size: 12px;" y="843.6597900390625" x="1637.478515625" id="rel12" class="er relationshipLabel">review</text><rect height="14" width="45.9375" y="814.4148559570312" x="1659.6767578125" class="er relationshipLabelBox"/><text style="text-anchor: middle; dominant-baseline: middle; font-size: 12px;" y="821.4148559570312" x="1682.6455078125" id="rel13" class="er relationshipLabel">reviews</text><rect height="14" width="204.6875" y="834.5431518554688" x="1467.70458984375" class="er relationshipLabelBox"/><text style="text-anchor: middle; dominant-baseline: middle; font-size: 12px;" y="841.5431518554688" x="1570.04833984375" id="rel14" class="er relationshipLabel">specialOpeningHoursSpecification</text><rect height="14" width="90.96875" y="806.48828125" x="1726.7918701171875" class="er relationshipLabelBox"/><text style="text-anchor: middle; dominant-baseline: middle; font-size: 12px;" y="813.48828125" x="1772.2762451171875" id="rel15" class="er relationshipLabel">potentialAction</text></svg>