<svg aria-roledescription="er" role="graphics-document document" viewBox="0 0 2103.765625 806" style="max-width: 2103.77px; background-color: white;" xmlns:xlink="http://www.w3.org/1999/xlink" xmlns="http://www.w3.org/2000/svg" width="100%" id="my-svg"><style>#my-svg{font-family:"trebuchet ms",verdana,arial,sans-serif;font-size:16px;fill:#333;}#my-svg .error-icon{fill:#552222;}#my-svg .error-text{fill:#552222;stroke:#552222;}#my-svg .edge-thickness-normal{stroke-width:1px;}#my-svg .edge-thickness-thick{stroke-width:3.5px;}#my-svg .edge-pattern-solid{stroke-dasharray:0;}#my-svg .edge-thickness-invisible{stroke-width:0;fill:none;}#my-svg .edge-pattern-dashed{stroke-dasharray:3;}#my-svg .edge-pattern-dotted{stroke-dasharray:2;}#my-svg .marker{fill:#333333;stroke:#333333;}#my-svg .marker.cross{stroke:#333333;}#my-svg svg{font-family:"trebuchet ms",verdana,arial,sans-serif;font-size:16px;}#my-svg p{margin:0;}#my-svg .entityBox{fill:#ECECFF;stroke:#9370DB;}#my-svg .attributeBoxOdd{fill:#ffffff;stroke:#9370DB;}#my-svg .attributeBoxEven{fill:#f2f2f2;stroke:#9370DB;}#my-svg .relationshipLabelBox{fill:hsl(80, 100%, 96.2745098039%);opacity:0.7;background-color:hsl(80, 100%, 96.2745098039%);}#my-svg .relationshipLabelBox rect{opacity:0.5;}#my-svg .relationshipLine{stroke:#333333;}#my-svg .entityTitleText{text-anchor:middle;font-size:18px;fill:#333;}#my-svg #MD_PARENT_START{fill:#f5f5f5!important;stroke:#333333!important;stroke-width:1;}#my-svg #MD_PARENT_END{fill:#f5f5f5!important;stroke:#333333!important;stroke-width:1;}#my-svg :root{--mermaid-font-family:"trebuchet ms",verdana,arial,sans-serif;}</style><g/><defs><marker orient="auto" markerHeight="240" markerWidth="190" refY="7" refX="0" id="MD_PARENT_START"><path d="M 18,7 L9,13 L1,7 L9,1 Z"/></marker></defs><defs><marker orient="auto" markerHeight="28" markerWidth="20" refY="7" refX="19" id="MD_PARENT_END"><path d="M 18,7 L9,13 L1,7 L9,1 Z"/></marker></defs><defs><marker orient="auto" markerHeight="18" markerWidth="18" refY="9" refX="0" id="ONLY_ONE_START"><path d="M9,0 L9,18 M15,0 L15,18" fill="none" stroke="gray"/></marker></defs><defs><marker orient="auto" markerHeight="18" markerWidth="18" refY="9" refX="18" id="ONLY_ONE_END"><path d="M3,0 L3,18 M9,0 L9,18" fill="none" stroke="gray"/></marker></defs><defs><marker orient="auto" markerHeight="18" markerWidth="30" refY="9" refX="0" id="ZERO_OR_ONE_START"><circle r="6" cy="9" cx="21" fill="white" stroke="gray"/><path d="M9,0 L9,18" fill="none" stroke="gray"/></marker></defs><defs><marker orient="auto" markerHeight="18" markerWidth="30" refY="9" refX="30" id="ZERO_OR_ONE_END"><circle r="6" cy="9" cx="9" fill="white" stroke="gray"/><path d="M21,0 L21,18" fill="none" stroke="gray"/></marker></defs><defs><marker orient="auto" markerHeight="36" markerWidth="45" refY="18" refX="18" id="ONE_OR_MORE_START"><path d="M0,18 Q 18,0 36,18 Q 18,36 0,18 M42,9 L42,27" fill="none" stroke="gray"/></marker></defs><defs><marker orient="auto" markerHeight="36" markerWidth="45" refY="18" refX="27" id="ONE_OR_MORE_END"><path d="M3,9 L3,27 M9,18 Q27,0 45,18 Q27,36 9,18" fill="none" stroke="gray"/></marker></defs><defs><marker orient="auto" markerHeight="36" markerWidth="57" refY="18" refX="18" id="ZERO_OR_MORE_START"><circle r="6" cy="18" cx="48" fill="white" stroke="gray"/><path d="M0,18 Q18,0 36,18 Q18,36 0,18" fill="none" stroke="gray"/></marker></defs><defs><marker orient="auto" markerHeight="36" markerWidth="57" refY="18" refX="39" id="ZERO_OR_MORE_END"><circle r="6" cy="18" cx="9" fill="white" stroke="gray"/><path d="M21,18 Q39,0 57,18 Q39,36 21,18" fill="none" stroke="gray"/></marker></defs><path style="stroke: gray; fill: none;" marker-start="url(#ONLY_ONE_START)" marker-end="url(#ZERO_OR_MORE_END)" d="M933.512,352.14L790.153,403.616C646.794,455.093,360.077,558.047,216.718,617.857C73.359,677.667,73.359,694.333,73.359,702.667L73.359,711" class="er relationshipLine"/><path style="stroke: gray; fill: none;" marker-start="url(#ONLY_ONE_START)" marker-end="url(#ZERO_OR_MORE_END)" d="M933.512,362.936L826.65,412.613C719.789,462.29,506.066,561.645,399.205,619.656C292.344,677.667,292.344,694.333,292.344,702.667L292.344,711" class="er relationshipLine"/><path style="stroke: gray; fill: none;" marker-start="url(#ONLY_ONE_START)" marker-end="url(#ZERO_OR_MORE_END)" d="M933.512,375.723L852.952,423.27C772.393,470.816,611.275,565.908,536.221,621.787C461.168,677.667,472.18,694.333,477.686,702.667L483.192,711" class="er relationshipLine"/><path style="stroke: gray; fill: none;" marker-start="url(#ONLY_ONE_START)" marker-end="url(#ZERO_OR_MORE_END)" d="M933.512,427.146L897.89,466.122C862.268,505.098,791.025,583.049,755.403,630.358C719.781,677.667,719.781,694.333,719.781,702.667L719.781,711" class="er relationshipLine"/><path style="stroke: gray; fill: none;" marker-start="url(#ONLY_ONE_START)" marker-end="url(#ZERO_OR_MORE_END)" d="M948.021,611L945.553,619.333C943.085,627.667,938.148,644.333,935.679,661C933.211,677.667,933.211,694.333,933.211,702.667L933.211,711" class="er relationshipLine"/><path style="stroke: gray; fill: none;" marker-start="url(#ONLY_ONE_START)" marker-end="url(#ZERO_OR_MORE_END)" d="M1123.08,611L1125.549,619.333C1128.017,627.667,1132.954,644.333,1135.422,661C1137.891,677.667,1137.891,694.333,1137.891,702.667L1137.891,711" class="er relationshipLine"/><path style="stroke: gray; fill: none;" marker-start="url(#ONLY_ONE_START)" marker-end="url(#ZERO_OR_MORE_END)" d="M1137.59,415.709L1179.218,456.591C1220.846,497.473,1304.103,579.236,1345.731,628.452C1387.359,677.667,1387.359,694.333,1387.359,702.667L1387.359,711" class="er relationshipLine"/><path style="stroke: gray; fill: none;" marker-start="url(#ONLY_ONE_START)" marker-end="url(#ZERO_OR_MORE_END)" d="M1137.59,382.65L1208.085,429.042C1278.581,475.433,1419.572,568.217,1497.039,622.942C1574.506,677.667,1588.449,694.333,1595.421,702.667L1602.393,711" class="er relationshipLine"/><path style="stroke: gray; fill: none;" marker-start="url(#ONLY_ONE_START)" marker-end="url(#ZERO_OR_MORE_END)" d="M1137.59,359.667L1253.619,409.889C1369.648,460.111,1601.707,560.556,1717.736,619.111C1833.766,677.667,1833.766,694.333,1833.766,702.667L1833.766,711" class="er relationshipLine"/><path style="stroke: gray; fill: none;" marker-start="url(#ONLY_ONE_START)" marker-end="url(#ZERO_OR_MORE_END)" d="M933.512,390.243L871.906,435.369C810.299,480.495,687.087,570.748,620.157,624.207C553.226,677.667,542.577,694.333,537.253,702.667L531.929,711" class="er relationshipLine"/><path style="stroke: gray; fill: none;" marker-start="url(#ONLY_ONE_START)" marker-end="url(#ZERO_OR_MORE_END)" d="M1137.59,369.887L1228.619,418.406C1319.648,466.925,1501.707,563.962,1587.974,620.815C1674.242,677.667,1664.718,694.333,1659.956,702.667L1655.194,711" class="er relationshipLine"/><path style="stroke: gray; fill: none;" marker-start="url(#ONLY_ONE_START)" marker-end="url(#ZERO_OR_MORE_END)" d="M1137.59,350.818L1286.952,402.515C1436.315,454.212,1735.04,557.606,1884.403,617.636C2033.766,677.667,2033.766,694.333,2033.766,702.667L2033.766,711" class="er relationshipLine"/><g transform="translate(933.51171875,20 )" id="entity-GovernmentService-8095f15b-3b17-51dd-ba59-dd693c4e6373"><rect height="591" width="204.078125" y="0" x="0" class="er entityBox"/><text style="dominant-baseline: middle; text-anchor: middle; font-size: 12px;" transform="translate(102.0390625,12)" y="0" x="0" id="text-entity-GovernmentService-8095f15b-3b17-51dd-ba59-dd693c4e6373" class="er entityLabel">GovernmentService</text><rect height="21" width="57.0625" y="24" x="0" class="er attributeBoxOdd"/><text style="dominant-baseline: middle; font-size: 10.2px;" transform="translate(5,34.5)" y="0" x="0" id="text-entity-GovernmentService-8095f15b-3b17-51dd-ba59-dd693c4e6373-attr-1-type" class="er entityLabel">stringList</text><rect height="21" width="147.015625" y="24" x="57.0625" class="er attributeBoxOdd"/><text style="dominant-baseline: middle; font-size: 10.2px;" transform="translate(62.0625,34.5)" y="0" x="0" id="text-entity-GovernmentService-8095f15b-3b17-51dd-ba59-dd693c4e6373-attr-1-name" class="er entityLabel">jurisdiction</text><rect height="21" width="57.0625" y="45" x="0" class="er attributeBoxEven"/><text style="dominant-baseline: middle; font-size: 10.2px;" transform="translate(5,55.5)" y="0" x="0" id="text-entity-GovernmentService-8095f15b-3b17-51dd-ba59-dd693c4e6373-attr-2-type" class="er entityLabel">stringList</text><rect height="21" width="147.015625" y="45" x="57.0625" class="er attributeBoxEven"/><text style="dominant-baseline: middle; font-size: 10.2px;" transform="translate(62.0625,55.5)" y="0" x="0" id="text-entity-GovernmentService-8095f15b-3b17-51dd-ba59-dd693c4e6373-attr-2-name" class="er entityLabel">areaServed</text><rect height="21" width="57.0625" y="66" x="0" class="er attributeBoxOdd"/><text style="dominant-baseline: middle; font-size: 10.2px;" transform="translate(5,76.5)" y="0" x="0" id="text-entity-GovernmentService-8095f15b-3b17-51dd-ba59-dd693c4e6373-attr-3-type" class="er entityLabel">stringList</text><rect height="21" width="147.015625" y="66" x="57.0625" class="er attributeBoxOdd"/><text style="dominant-baseline: middle; font-size: 10.2px;" transform="translate(62.0625,76.5)" y="0" x="0" id="text-entity-GovernmentService-8095f15b-3b17-51dd-ba59-dd693c4e6373-attr-3-name" class="er entityLabel">category</text><rect height="21" width="57.0625" y="87" x="0" class="er attributeBoxEven"/><text style="dominant-baseline: middle; font-size: 10.2px;" transform="translate(5,97.5)" y="0" x="0" id="text-entity-GovernmentService-8095f15b-3b17-51dd-ba59-dd693c4e6373-attr-4-type" class="er entityLabel">stringList</text><rect height="21" width="147.015625" y="87" x="57.0625" class="er attributeBoxEven"/><text style="dominant-baseline: middle; font-size: 10.2px;" transform="translate(62.0625,97.5)" y="0" x="0" id="text-entity-GovernmentService-8095f15b-3b17-51dd-ba59-dd693c4e6373-attr-4-name" class="er entityLabel">logo</text><rect height="21" width="57.0625" y="108" x="0" class="er attributeBoxOdd"/><text style="dominant-baseline: middle; font-size: 10.2px;" transform="translate(5,118.5)" y="0" x="0" id="text-entity-GovernmentService-8095f15b-3b17-51dd-ba59-dd693c4e6373-attr-5-type" class="er entityLabel">TextList</text><rect height="21" width="147.015625" y="108" x="57.0625" class="er attributeBoxOdd"/><text style="dominant-baseline: middle; font-size: 10.2px;" transform="translate(62.0625,118.5)" y="0" x="0" id="text-entity-GovernmentService-8095f15b-3b17-51dd-ba59-dd693c4e6373-attr-5-name" class="er entityLabel">award</text><rect height="21" width="57.0625" y="129" x="0" class="er attributeBoxEven"/><text style="dominant-baseline: middle; font-size: 10.2px;" transform="translate(5,139.5)" y="0" x="0" id="text-entity-GovernmentService-8095f15b-3b17-51dd-ba59-dd693c4e6373-attr-6-type" class="er entityLabel">stringList</text><rect height="21" width="147.015625" y="129" x="57.0625" class="er attributeBoxEven"/><text style="dominant-baseline: middle; font-size: 10.2px;" transform="translate(62.0625,139.5)" y="0" x="0" id="text-entity-GovernmentService-8095f15b-3b17-51dd-ba59-dd693c4e6373-attr-6-name" class="er entityLabel">brand</text><rect height="21" width="57.0625" y="150" x="0" class="er attributeBoxOdd"/><text style="dominant-baseline: middle; font-size: 10.2px;" transform="translate(5,160.5)" y="0" x="0" id="text-entity-GovernmentService-8095f15b-3b17-51dd-ba59-dd693c4e6373-attr-7-type" class="er entityLabel">stringList</text><rect height="21" width="147.015625" y="150" x="57.0625" class="er attributeBoxOdd"/><text style="dominant-baseline: middle; font-size: 10.2px;" transform="translate(62.0625,160.5)" y="0" x="0" id="text-entity-GovernmentService-8095f15b-3b17-51dd-ba59-dd693c4e6373-attr-7-name" class="er entityLabel">broker</text><rect height="21" width="57.0625" y="171" x="0" class="er attributeBoxEven"/><text style="dominant-baseline: middle; font-size: 10.2px;" transform="translate(5,181.5)" y="0" x="0" id="text-entity-GovernmentService-8095f15b-3b17-51dd-ba59-dd693c4e6373-attr-8-type" class="er entityLabel">stringList</text><rect height="21" width="147.015625" y="171" x="57.0625" class="er attributeBoxEven"/><text style="dominant-baseline: middle; font-size: 10.2px;" transform="translate(62.0625,181.5)" y="0" x="0" id="text-entity-GovernmentService-8095f15b-3b17-51dd-ba59-dd693c4e6373-attr-8-name" class="er entityLabel">isRelatedTo</text><rect height="21" width="57.0625" y="192" x="0" class="er attributeBoxOdd"/><text style="dominant-baseline: middle; font-size: 10.2px;" transform="translate(5,202.5)" y="0" x="0" id="text-entity-GovernmentService-8095f15b-3b17-51dd-ba59-dd693c4e6373-attr-9-type" class="er entityLabel">stringList</text><rect height="21" width="147.015625" y="192" x="57.0625" class="er attributeBoxOdd"/><text style="dominant-baseline: middle; font-size: 10.2px;" transform="translate(62.0625,202.5)" y="0" x="0" id="text-entity-GovernmentService-8095f15b-3b17-51dd-ba59-dd693c4e6373-attr-9-name" class="er entityLabel">isSimilarTo</text><rect height="21" width="57.0625" y="213" x="0" class="er attributeBoxEven"/><text style="dominant-baseline: middle; font-size: 10.2px;" transform="translate(5,223.5)" y="0" x="0" id="text-entity-GovernmentService-8095f15b-3b17-51dd-ba59-dd693c4e6373-attr-10-type" class="er entityLabel">stringList</text><rect height="21" width="147.015625" y="213" x="57.0625" class="er attributeBoxEven"/><text style="dominant-baseline: middle; font-size: 10.2px;" transform="translate(62.0625,223.5)" y="0" x="0" id="text-entity-GovernmentService-8095f15b-3b17-51dd-ba59-dd693c4e6373-attr-10-name" class="er entityLabel">offers</text><rect height="21" width="57.0625" y="234" x="0" class="er attributeBoxOdd"/><text style="dominant-baseline: middle; font-size: 10.2px;" transform="translate(5,244.5)" y="0" x="0" id="text-entity-GovernmentService-8095f15b-3b17-51dd-ba59-dd693c4e6373-attr-11-type" class="er entityLabel">stringList</text><rect height="21" width="147.015625" y="234" x="57.0625" class="er attributeBoxOdd"/><text style="dominant-baseline: middle; font-size: 10.2px;" transform="translate(62.0625,244.5)" y="0" x="0" id="text-entity-GovernmentService-8095f15b-3b17-51dd-ba59-dd693c4e6373-attr-11-name" class="er entityLabel">provider</text><rect height="21" width="57.0625" y="255" x="0" class="er attributeBoxEven"/><text style="dominant-baseline: middle; font-size: 10.2px;" transform="translate(5,265.5)" y="0" x="0" id="text-entity-GovernmentService-8095f15b-3b17-51dd-ba59-dd693c4e6373-attr-12-type" class="er entityLabel">TextList</text><rect height="21" width="147.015625" y="255" x="57.0625" class="er attributeBoxEven"/><text style="dominant-baseline: middle; font-size: 10.2px;" transform="translate(62.0625,265.5)" y="0" x="0" id="text-entity-GovernmentService-8095f15b-3b17-51dd-ba59-dd693c4e6373-attr-12-name" class="er entityLabel">providerMobility</text><rect height="21" width="57.0625" y="276" x="0" class="er attributeBoxOdd"/><text style="dominant-baseline: middle; font-size: 10.2px;" transform="translate(5,286.5)" y="0" x="0" id="text-entity-GovernmentService-8095f15b-3b17-51dd-ba59-dd693c4e6373-attr-13-type" class="er entityLabel">stringList</text><rect height="21" width="147.015625" y="276" x="57.0625" class="er attributeBoxOdd"/><text style="dominant-baseline: middle; font-size: 10.2px;" transform="translate(62.0625,286.5)" y="0" x="0" id="text-entity-GovernmentService-8095f15b-3b17-51dd-ba59-dd693c4e6373-attr-13-name" class="er entityLabel">serviceArea</text><rect height="21" width="57.0625" y="297" x="0" class="er attributeBoxEven"/><text style="dominant-baseline: middle; font-size: 10.2px;" transform="translate(5,307.5)" y="0" x="0" id="text-entity-GovernmentService-8095f15b-3b17-51dd-ba59-dd693c4e6373-attr-14-type" class="er entityLabel">stringList</text><rect height="21" width="147.015625" y="297" x="57.0625" class="er attributeBoxEven"/><text style="dominant-baseline: middle; font-size: 10.2px;" transform="translate(62.0625,307.5)" y="0" x="0" id="text-entity-GovernmentService-8095f15b-3b17-51dd-ba59-dd693c4e6373-attr-14-name" class="er entityLabel">serviceType</text><rect height="21" width="57.0625" y="318" x="0" class="er attributeBoxOdd"/><text style="dominant-baseline: middle; font-size: 10.2px;" transform="translate(5,328.5)" y="0" x="0" id="text-entity-GovernmentService-8095f15b-3b17-51dd-ba59-dd693c4e6373-attr-15-type" class="er entityLabel">TextList</text><rect height="21" width="147.015625" y="318" x="57.0625" class="er attributeBoxOdd"/><text style="dominant-baseline: middle; font-size: 10.2px;" transform="translate(62.0625,328.5)" y="0" x="0" id="text-entity-GovernmentService-8095f15b-3b17-51dd-ba59-dd693c4e6373-attr-15-name" class="er entityLabel">slogan</text><rect height="21" width="57.0625" y="339" x="0" class="er attributeBoxEven"/><text style="dominant-baseline: middle; font-size: 10.2px;" transform="translate(5,349.5)" y="0" x="0" id="text-entity-GovernmentService-8095f15b-3b17-51dd-ba59-dd693c4e6373-attr-16-type" class="er entityLabel">stringList</text><rect height="21" width="147.015625" y="339" x="57.0625" class="er attributeBoxEven"/><text style="dominant-baseline: middle; font-size: 10.2px;" transform="translate(62.0625,349.5)" y="0" x="0" id="text-entity-GovernmentService-8095f15b-3b17-51dd-ba59-dd693c4e6373-attr-16-name" class="er entityLabel">termsOfService</text><rect height="21" width="57.0625" y="360" x="0" class="er attributeBoxOdd"/><text style="dominant-baseline: middle; font-size: 10.2px;" transform="translate(5,370.5)" y="0" x="0" id="text-entity-GovernmentService-8095f15b-3b17-51dd-ba59-dd693c4e6373-attr-17-type" class="er entityLabel">stringList</text><rect height="21" width="147.015625" y="360" x="57.0625" class="er attributeBoxOdd"/><text style="dominant-baseline: middle; font-size: 10.2px;" transform="translate(62.0625,370.5)" y="0" x="0" id="text-entity-GovernmentService-8095f15b-3b17-51dd-ba59-dd693c4e6373-attr-17-name" class="er entityLabel">additionalType</text><rect height="21" width="57.0625" y="381" x="0" class="er attributeBoxEven"/><text style="dominant-baseline: middle; font-size: 10.2px;" transform="translate(5,391.5)" y="0" x="0" id="text-entity-GovernmentService-8095f15b-3b17-51dd-ba59-dd693c4e6373-attr-18-type" class="er entityLabel">TextList</text><rect height="21" width="147.015625" y="381" x="57.0625" class="er attributeBoxEven"/><text style="dominant-baseline: middle; font-size: 10.2px;" transform="translate(62.0625,391.5)" y="0" x="0" id="text-entity-GovernmentService-8095f15b-3b17-51dd-ba59-dd693c4e6373-attr-18-name" class="er entityLabel">alternateName</text><rect height="21" width="57.0625" y="402" x="0" class="er attributeBoxOdd"/><text style="dominant-baseline: middle; font-size: 10.2px;" transform="translate(5,412.5)" y="0" x="0" id="text-entity-GovernmentService-8095f15b-3b17-51dd-ba59-dd693c4e6373-attr-19-type" class="er entityLabel">stringList</text><rect height="21" width="147.015625" y="402" x="57.0625" class="er attributeBoxOdd"/><text style="dominant-baseline: middle; font-size: 10.2px;" transform="translate(62.0625,412.5)" y="0" x="0" id="text-entity-GovernmentService-8095f15b-3b17-51dd-ba59-dd693c4e6373-attr-19-name" class="er entityLabel">description</text><rect height="21" width="57.0625" y="423" x="0" class="er attributeBoxEven"/><text style="dominant-baseline: middle; font-size: 10.2px;" transform="translate(5,433.5)" y="0" x="0" id="text-entity-GovernmentService-8095f15b-3b17-51dd-ba59-dd693c4e6373-attr-20-type" class="er entityLabel">TextList</text><rect height="21" width="147.015625" y="423" x="57.0625" class="er attributeBoxEven"/><text style="dominant-baseline: middle; font-size: 10.2px;" transform="translate(62.0625,433.5)" y="0" x="0" id="text-entity-GovernmentService-8095f15b-3b17-51dd-ba59-dd693c4e6373-attr-20-name" class="er entityLabel">disambiguatingDescription</text><rect height="21" width="57.0625" y="444" x="0" class="er attributeBoxOdd"/><text style="dominant-baseline: middle; font-size: 10.2px;" transform="translate(5,454.5)" y="0" x="0" id="text-entity-GovernmentService-8095f15b-3b17-51dd-ba59-dd693c4e6373-attr-21-type" class="er entityLabel">stringList</text><rect height="21" width="147.015625" y="444" x="57.0625" class="er attributeBoxOdd"/><text style="dominant-baseline: middle; font-size: 10.2px;" transform="translate(62.0625,454.5)" y="0" x="0" id="text-entity-GovernmentService-8095f15b-3b17-51dd-ba59-dd693c4e6373-attr-21-name" class="er entityLabel">identifier</text><rect height="21" width="57.0625" y="465" x="0" class="er attributeBoxEven"/><text style="dominant-baseline: middle; font-size: 10.2px;" transform="translate(5,475.5)" y="0" x="0" id="text-entity-GovernmentService-8095f15b-3b17-51dd-ba59-dd693c4e6373-attr-22-type" class="er entityLabel">stringList</text><rect height="21" width="147.015625" y="465" x="57.0625" class="er attributeBoxEven"/><text style="dominant-baseline: middle; font-size: 10.2px;" transform="translate(62.0625,475.5)" y="0" x="0" id="text-entity-GovernmentService-8095f15b-3b17-51dd-ba59-dd693c4e6373-attr-22-name" class="er entityLabel">image</text><rect height="21" width="57.0625" y="486" x="0" class="er attributeBoxOdd"/><text style="dominant-baseline: middle; font-size: 10.2px;" transform="translate(5,496.5)" y="0" x="0" id="text-entity-GovernmentService-8095f15b-3b17-51dd-ba59-dd693c4e6373-attr-23-type" class="er entityLabel">TextList</text><rect height="21" width="147.015625" y="486" x="57.0625" class="er attributeBoxOdd"/><text style="dominant-baseline: middle; font-size: 10.2px;" transform="translate(62.0625,496.5)" y="0" x="0" id="text-entity-GovernmentService-8095f15b-3b17-51dd-ba59-dd693c4e6373-attr-23-name" class="er entityLabel">name</text><rect height="21" width="57.0625" y="507" x="0" class="er attributeBoxEven"/><text style="dominant-baseline: middle; font-size: 10.2px;" transform="translate(5,517.5)" y="0" x="0" id="text-entity-GovernmentService-8095f15b-3b17-51dd-ba59-dd693c4e6373-attr-24-type" class="er entityLabel">URLList</text><rect height="21" width="147.015625" y="507" x="57.0625" class="er attributeBoxEven"/><text style="dominant-baseline: middle; font-size: 10.2px;" transform="translate(62.0625,517.5)" y="0" x="0" id="text-entity-GovernmentService-8095f15b-3b17-51dd-ba59-dd693c4e6373-attr-24-name" class="er entityLabel">sameAs</text><rect height="21" width="57.0625" y="528" x="0" class="er attributeBoxOdd"/><text style="dominant-baseline: middle; font-size: 10.2px;" transform="translate(5,538.5)" y="0" x="0" id="text-entity-GovernmentService-8095f15b-3b17-51dd-ba59-dd693c4e6373-attr-25-type" class="er entityLabel">stringList</text><rect height="21" width="147.015625" y="528" x="57.0625" class="er attributeBoxOdd"/><text style="dominant-baseline: middle; font-size: 10.2px;" transform="translate(62.0625,538.5)" y="0" x="0" id="text-entity-GovernmentService-8095f15b-3b17-51dd-ba59-dd693c4e6373-attr-25-name" class="er entityLabel">mainEntityOfPage</text><rect height="21" width="57.0625" y="549" x="0" class="er attributeBoxEven"/><text style="dominant-baseline: middle; font-size: 10.2px;" transform="translate(5,559.5)" y="0" x="0" id="text-entity-GovernmentService-8095f15b-3b17-51dd-ba59-dd693c4e6373-attr-26-type" class="er entityLabel">stringList</text><rect height="21" width="147.015625" y="549" x="57.0625" class="er attributeBoxEven"/><text style="dominant-baseline: middle; font-size: 10.2px;" transform="translate(62.0625,559.5)" y="0" x="0" id="text-entity-GovernmentService-8095f15b-3b17-51dd-ba59-dd693c4e6373-attr-26-name" class="er entityLabel">subjectOf</text><rect height="21" width="57.0625" y="570" x="0" class="er attributeBoxOdd"/><text style="dominant-baseline: middle; font-size: 10.2px;" transform="translate(5,580.5)" y="0" x="0" id="text-entity-GovernmentService-8095f15b-3b17-51dd-ba59-dd693c4e6373-attr-27-type" class="er entityLabel">URLList</text><rect height="21" width="147.015625" y="570" x="57.0625" class="er attributeBoxOdd"/><text style="dominant-baseline: middle; font-size: 10.2px;" transform="translate(62.0625,580.5)" y="0" x="0" id="text-entity-GovernmentService-8095f15b-3b17-51dd-ba59-dd693c4e6373-attr-27-name" class="er entityLabel">url</text></g><g transform="translate(20,711 )" id="entity-Organization-ef1721ab-1f62-5ef5-a525-a6c60c2f6032"><rect height="75" width="106.71875" y="0" x="0" class="er entityBox"/><text style="dominant-baseline: middle; text-anchor: middle; font-size: 12px;" transform="translate(53.359375,37.5)" y="0" x="0" id="text-entity-Organization-ef1721ab-1f62-5ef5-a525-a6c60c2f6032" class="er entityLabel">Organization</text></g><g transform="translate(226.71875,711 )" id="entity-AggregateRating-aa0a8837-178a-57ab-baa0-94ad30d90eb5"><rect height="75" width="131.25" y="0" x="0" class="er entityBox"/><text style="dominant-baseline: middle; text-anchor: middle; font-size: 12px;" transform="translate(65.625,37.5)" y="0" x="0" id="text-entity-AggregateRating-aa0a8837-178a-57ab-baa0-94ad30d90eb5" class="er entityLabel">AggregateRating</text></g><g transform="translate(457.96875,711 )" id="entity-Audience-f784d19a-7c58-5869-868f-14b9086fca44"><rect height="75" width="100" y="0" x="0" class="er entityBox"/><text style="dominant-baseline: middle; text-anchor: middle; font-size: 12px;" transform="translate(50,37.5)" y="0" x="0" id="text-entity-Audience-f784d19a-7c58-5869-868f-14b9086fca44" class="er entityLabel">Audience</text></g><g transform="translate(657.96875,711 )" id="entity-ServiceChannel-5f9e70a6-8dc6-5d0f-a871-3e775d52af1b"><rect height="75" width="123.625" y="0" x="0" class="er entityBox"/><text style="dominant-baseline: middle; text-anchor: middle; font-size: 12px;" transform="translate(61.8125,37.5)" y="0" x="0" id="text-entity-ServiceChannel-5f9e70a6-8dc6-5d0f-a871-3e775d52af1b" class="er entityLabel">ServiceChannel</text></g><g transform="translate(881.59375,711 )" id="entity-Certification-8b250de0-929b-5806-8c87-f8e7c928ef36"><rect height="75" width="103.234375" y="0" x="0" class="er entityBox"/><text style="dominant-baseline: middle; text-anchor: middle; font-size: 12px;" transform="translate(51.6171875,37.5)" y="0" x="0" id="text-entity-Certification-8b250de0-929b-5806-8c87-f8e7c928ef36" class="er entityLabel">Certification</text></g><g transform="translate(1084.828125,711 )" id="entity-OfferCatalog-e4b8efcd-db96-5dc8-b042-81a3acf3e3fe"><rect height="75" width="106.125" y="0" x="0" class="er entityBox"/><text style="dominant-baseline: middle; text-anchor: middle; font-size: 12px;" transform="translate(53.0625,37.5)" y="0" x="0" id="text-entity-OfferCatalog-e4b8efcd-db96-5dc8-b042-81a3acf3e3fe" class="er entityLabel">OfferCatalog</text></g><g transform="translate(1290.953125,711 )" id="entity-OpeningHoursSpecification-677aa64f-a506-5d18-b5d1-75a0f22f6986"><rect height="75" width="192.8125" y="0" x="0" class="er entityBox"/><text style="dominant-baseline: middle; text-anchor: middle; font-size: 12px;" transform="translate(96.40625,37.5)" y="0" x="0" id="text-entity-OpeningHoursSpecification-677aa64f-a506-5d18-b5d1-75a0f22f6986" class="er entityLabel">OpeningHoursSpecification</text></g><g transform="translate(1583.765625,711 )" id="entity-Thing-27bc9527-b992-59fc-a0fb-da83e2ff80bf"><rect height="75" width="100" y="0" x="0" class="er entityBox"/><text style="dominant-baseline: middle; text-anchor: middle; font-size: 12px;" transform="translate(50,37.5)" y="0" x="0" id="text-entity-Thing-27bc9527-b992-59fc-a0fb-da83e2ff80bf" class="er entityLabel">Thing</text></g><g transform="translate(1783.765625,711 )" id="entity-Review-77c92a79-8cff-50c0-9604-f9135763cccd"><rect height="75" width="100" y="0" x="0" class="er entityBox"/><text style="dominant-baseline: middle; text-anchor: middle; font-size: 12px;" transform="translate(50,37.5)" y="0" x="0" id="text-entity-Review-77c92a79-8cff-50c0-9604-f9135763cccd" class="er entityLabel">Review</text></g><g transform="translate(1983.765625,711 )" id="entity-Action-6cd87d9a-a078-546e-a35b-bee54f477b31"><rect height="75" width="100" y="0" x="0" class="er entityBox"/><text style="dominant-baseline: middle; text-anchor: middle; font-size: 12px;" transform="translate(50,37.5)" y="0" x="0" id="text-entity-Action-6cd87d9a-a078-546e-a35b-bee54f477b31" class="er entityLabel">Action</text></g><rect height="14" width="96.763671875" y="505.578369140625" x="441.6077880859375" class="er relationshipLabelBox"/><text style="text-anchor: middle; dominant-baseline: middle; font-size: 12px;" y="512.578369140625" x="489.9896240234375" id="rel1" class="er relationshipLabel">serviceOperator</text><rect height="14" width="100.390625" y="512.9137573242188" x="548.3089599609375" class="er relationshipLabelBox"/><text style="text-anchor: middle; dominant-baseline: middle; font-size: 12px;" y="519.9137573242188" x="598.5042724609375" id="rel2" class="er relationshipLabel">aggregateRating</text><rect height="14" width="54.890625" y="518.744140625" x="654.7827758789062" class="er relationshipLabelBox"/><text style="text-anchor: middle; dominant-baseline: middle; font-size: 12px;" y="525.744140625" x="682.2280883789062" id="rel3" class="er relationshipLabel">audience</text><rect height="14" width="103.4375" y="553.96484375" x="761.0325317382812" class="er relationshipLabelBox"/><text style="text-anchor: middle; dominant-baseline: middle; font-size: 12px;" y="560.96484375" x="812.7512817382812" id="rel4" class="er relationshipLabel">availableChannel</text><rect height="14" width="94.453125" y="653.2900390625" x="888.559326171875" class="er relationshipLabelBox"/><text style="text-anchor: middle; dominant-baseline: middle; font-size: 12px;" y="660.2900390625" x="935.785888671875" id="rel5" class="er relationshipLabel">hasCertification</text><rect height="14" width="97.328125" y="653.2899780273438" x="1086.6513671875" class="er relationshipLabelBox"/><text style="text-anchor: middle; dominant-baseline: middle; font-size: 12px;" y="660.2899780273438" x="1135.3154296875" id="rel6" class="er relationshipLabel">hasOfferCatalog</text><rect height="14" width="88.0625" y="547.08447265625" x="1232.82666015625" class="er relationshipLabelBox"/><text style="text-anchor: middle; dominant-baseline: middle; font-size: 12px;" y="554.08447265625" x="1276.85791015625" id="rel7" class="er relationshipLabel">hoursAvailable</text><rect height="14" width="55.09375" y="532.8722534179688" x="1347.8465576171875" class="er relationshipLabelBox"/><text style="text-anchor: middle; dominant-baseline: middle; font-size: 12px;" y="539.8722534179688" x="1375.3934326171875" id="rel8" class="er relationshipLabel">produces</text><rect height="14" width="39.87109375" y="510.69415283203125" x="1479.9234619140625" class="er relationshipLabelBox"/><text style="text-anchor: middle; dominant-baseline: middle; font-size: 12px;" y="517.6941528320312" x="1499.8590087890625" id="rel9" class="er relationshipLabel">review</text><rect height="14" width="98.71875" y="536.1184692382812" x="676.6207885742188" class="er relationshipLabelBox"/><text style="text-anchor: middle; dominant-baseline: middle; font-size: 12px;" y="543.1184692382812" x="725.9801635742188" id="rel10" class="er relationshipLabel">serviceAudience</text><rect height="14" width="84.962890625" y="515.0604248046875" x="1377.657470703125" class="er relationshipLabelBox"/><text style="text-anchor: middle; dominant-baseline: middle; font-size: 12px;" y="522.0604248046875" x="1420.138916015625" id="rel11" class="er relationshipLabel">serviceOutput</text><rect height="13.999969482421875" width="90.96875" y="504.6819305419922" x="1553.4827880859375" class="er relationshipLabelBox"/><text style="text-anchor: middle; dominant-baseline: middle; font-size: 12px;" y="511.6819152832031" x="1598.9671630859375" id="rel12" class="er relationshipLabel">potentialAction</text></svg>