<svg aria-roledescription="er" role="graphics-document document" viewBox="0 0 847.365234375 596" style="max-width: 847.365px; background-color: white;" xmlns:xlink="http://www.w3.org/1999/xlink" xmlns="http://www.w3.org/2000/svg" width="100%" id="my-svg"><style>#my-svg{font-family:"trebuchet ms",verdana,arial,sans-serif;font-size:16px;fill:#333;}#my-svg .error-icon{fill:#552222;}#my-svg .error-text{fill:#552222;stroke:#552222;}#my-svg .edge-thickness-normal{stroke-width:1px;}#my-svg .edge-thickness-thick{stroke-width:3.5px;}#my-svg .edge-pattern-solid{stroke-dasharray:0;}#my-svg .edge-thickness-invisible{stroke-width:0;fill:none;}#my-svg .edge-pattern-dashed{stroke-dasharray:3;}#my-svg .edge-pattern-dotted{stroke-dasharray:2;}#my-svg .marker{fill:#333333;stroke:#333333;}#my-svg .marker.cross{stroke:#333333;}#my-svg svg{font-family:"trebuchet ms",verdana,arial,sans-serif;font-size:16px;}#my-svg p{margin:0;}#my-svg .entityBox{fill:#ECECFF;stroke:#9370DB;}#my-svg .attributeBoxOdd{fill:#ffffff;stroke:#9370DB;}#my-svg .attributeBoxEven{fill:#f2f2f2;stroke:#9370DB;}#my-svg .relationshipLabelBox{fill:hsl(80, 100%, 96.2745098039%);opacity:0.7;background-color:hsl(80, 100%, 96.2745098039%);}#my-svg .relationshipLabelBox rect{opacity:0.5;}#my-svg .relationshipLine{stroke:#333333;}#my-svg .entityTitleText{text-anchor:middle;font-size:18px;fill:#333;}#my-svg #MD_PARENT_START{fill:#f5f5f5!important;stroke:#333333!important;stroke-width:1;}#my-svg #MD_PARENT_END{fill:#f5f5f5!important;stroke:#333333!important;stroke-width:1;}#my-svg :root{--mermaid-font-family:"trebuchet ms",verdana,arial,sans-serif;}</style><g/><defs><marker orient="auto" markerHeight="240" markerWidth="190" refY="7" refX="0" id="MD_PARENT_START"><path d="M 18,7 L9,13 L1,7 L9,1 Z"/></marker></defs><defs><marker orient="auto" markerHeight="28" markerWidth="20" refY="7" refX="19" id="MD_PARENT_END"><path d="M 18,7 L9,13 L1,7 L9,1 Z"/></marker></defs><defs><marker orient="auto" markerHeight="18" markerWidth="18" refY="9" refX="0" id="ONLY_ONE_START"><path d="M9,0 L9,18 M15,0 L15,18" fill="none" stroke="gray"/></marker></defs><defs><marker orient="auto" markerHeight="18" markerWidth="18" refY="9" refX="18" id="ONLY_ONE_END"><path d="M3,0 L3,18 M9,0 L9,18" fill="none" stroke="gray"/></marker></defs><defs><marker orient="auto" markerHeight="18" markerWidth="30" refY="9" refX="0" id="ZERO_OR_ONE_START"><circle r="6" cy="9" cx="21" fill="white" stroke="gray"/><path d="M9,0 L9,18" fill="none" stroke="gray"/></marker></defs><defs><marker orient="auto" markerHeight="18" markerWidth="30" refY="9" refX="30" id="ZERO_OR_ONE_END"><circle r="6" cy="9" cx="9" fill="white" stroke="gray"/><path d="M21,0 L21,18" fill="none" stroke="gray"/></marker></defs><defs><marker orient="auto" markerHeight="36" markerWidth="45" refY="18" refX="18" id="ONE_OR_MORE_START"><path d="M0,18 Q 18,0 36,18 Q 18,36 0,18 M42,9 L42,27" fill="none" stroke="gray"/></marker></defs><defs><marker orient="auto" markerHeight="36" markerWidth="45" refY="18" refX="27" id="ONE_OR_MORE_END"><path d="M3,9 L3,27 M9,18 Q27,0 45,18 Q27,36 9,18" fill="none" stroke="gray"/></marker></defs><defs><marker orient="auto" markerHeight="36" markerWidth="57" refY="18" refX="18" id="ZERO_OR_MORE_START"><circle r="6" cy="18" cx="48" fill="white" stroke="gray"/><path d="M0,18 Q18,0 36,18 Q18,36 0,18" fill="none" stroke="gray"/></marker></defs><defs><marker orient="auto" markerHeight="36" markerWidth="57" refY="18" refX="39" id="ZERO_OR_MORE_END"><circle r="6" cy="18" cx="9" fill="white" stroke="gray"/><path d="M21,18 Q39,0 57,18 Q39,36 21,18" fill="none" stroke="gray"/></marker></defs><path style="stroke: gray; fill: none;" marker-start="url(#ONLY_ONE_START)" marker-end="url(#ZERO_OR_MORE_END)" d="M327.635,279.378L285.261,307.982C242.886,336.586,158.138,393.793,115.763,430.73C73.389,467.667,73.389,484.333,73.389,492.667L73.389,501" class="er relationshipLine"/><path style="stroke: gray; fill: none;" marker-start="url(#ONLY_ONE_START)" marker-end="url(#ZERO_OR_MORE_END)" d="M330.545,401L326.209,409.333C321.873,417.667,313.2,434.333,308.864,451C304.527,467.667,304.527,484.333,304.527,492.667L304.527,501" class="er relationshipLine"/><path style="stroke: gray; fill: none;" marker-start="url(#ONLY_ONE_START)" marker-end="url(#ZERO_OR_MORE_END)" d="M528.803,401L533.14,409.333C537.476,417.667,546.149,434.333,550.485,451C554.821,467.667,554.821,484.333,554.821,492.667L554.821,501" class="er relationshipLine"/><path style="stroke: gray; fill: none;" marker-start="url(#ONLY_ONE_START)" marker-end="url(#ZERO_OR_MORE_END)" d="M531.713,281.081L572.655,309.401C613.597,337.721,695.481,394.36,736.423,431.014C777.365,467.667,777.365,484.333,777.365,492.667L777.365,501" class="er relationshipLine"/><g transform="translate(327.63525390625,20 )" id="entity-HealthInsurancePlan-fd2b6c17-b903-5525-8bc4-805dc75099f8"><rect height="381" width="204.078125" y="0" x="0" class="er entityBox"/><text style="dominant-baseline: middle; text-anchor: middle; font-size: 12px;" transform="translate(102.0390625,12)" y="0" x="0" id="text-entity-HealthInsurancePlan-fd2b6c17-b903-5525-8bc4-805dc75099f8" class="er entityLabel">HealthInsurancePlan</text><rect height="21" width="57.0625" y="24" x="0" class="er attributeBoxOdd"/><text style="dominant-baseline: middle; font-size: 10.2px;" transform="translate(5,34.5)" y="0" x="0" id="text-entity-HealthInsurancePlan-fd2b6c17-b903-5525-8bc4-805dc75099f8-attr-1-type" class="er entityLabel">URLList</text><rect height="21" width="147.015625" y="24" x="57.0625" class="er attributeBoxOdd"/><text style="dominant-baseline: middle; font-size: 10.2px;" transform="translate(62.0625,34.5)" y="0" x="0" id="text-entity-HealthInsurancePlan-fd2b6c17-b903-5525-8bc4-805dc75099f8-attr-1-name" class="er entityLabel">benefitsSummaryUrl</text><rect height="21" width="57.0625" y="45" x="0" class="er attributeBoxEven"/><text style="dominant-baseline: middle; font-size: 10.2px;" transform="translate(5,55.5)" y="0" x="0" id="text-entity-HealthInsurancePlan-fd2b6c17-b903-5525-8bc4-805dc75099f8-attr-2-type" class="er entityLabel">TextList</text><rect height="21" width="147.015625" y="45" x="57.0625" class="er attributeBoxEven"/><text style="dominant-baseline: middle; font-size: 10.2px;" transform="translate(62.0625,55.5)" y="0" x="0" id="text-entity-HealthInsurancePlan-fd2b6c17-b903-5525-8bc4-805dc75099f8-attr-2-name" class="er entityLabel">healthPlanDrugOption</text><rect height="21" width="57.0625" y="66" x="0" class="er attributeBoxOdd"/><text style="dominant-baseline: middle; font-size: 10.2px;" transform="translate(5,76.5)" y="0" x="0" id="text-entity-HealthInsurancePlan-fd2b6c17-b903-5525-8bc4-805dc75099f8-attr-3-type" class="er entityLabel">TextList</text><rect height="21" width="147.015625" y="66" x="57.0625" class="er attributeBoxOdd"/><text style="dominant-baseline: middle; font-size: 10.2px;" transform="translate(62.0625,76.5)" y="0" x="0" id="text-entity-HealthInsurancePlan-fd2b6c17-b903-5525-8bc4-805dc75099f8-attr-3-name" class="er entityLabel">healthPlanDrugTier</text><rect height="21" width="57.0625" y="87" x="0" class="er attributeBoxEven"/><text style="dominant-baseline: middle; font-size: 10.2px;" transform="translate(5,97.5)" y="0" x="0" id="text-entity-HealthInsurancePlan-fd2b6c17-b903-5525-8bc4-805dc75099f8-attr-4-type" class="er entityLabel">TextList</text><rect height="21" width="147.015625" y="87" x="57.0625" class="er attributeBoxEven"/><text style="dominant-baseline: middle; font-size: 10.2px;" transform="translate(62.0625,97.5)" y="0" x="0" id="text-entity-HealthInsurancePlan-fd2b6c17-b903-5525-8bc4-805dc75099f8-attr-4-name" class="er entityLabel">healthPlanId</text><rect height="21" width="57.0625" y="108" x="0" class="er attributeBoxOdd"/><text style="dominant-baseline: middle; font-size: 10.2px;" transform="translate(5,118.5)" y="0" x="0" id="text-entity-HealthInsurancePlan-fd2b6c17-b903-5525-8bc4-805dc75099f8-attr-5-type" class="er entityLabel">URLList</text><rect height="21" width="147.015625" y="108" x="57.0625" class="er attributeBoxOdd"/><text style="dominant-baseline: middle; font-size: 10.2px;" transform="translate(62.0625,118.5)" y="0" x="0" id="text-entity-HealthInsurancePlan-fd2b6c17-b903-5525-8bc4-805dc75099f8-attr-5-name" class="er entityLabel">healthPlanMarketingUrl</text><rect height="21" width="57.0625" y="129" x="0" class="er attributeBoxEven"/><text style="dominant-baseline: middle; font-size: 10.2px;" transform="translate(5,139.5)" y="0" x="0" id="text-entity-HealthInsurancePlan-fd2b6c17-b903-5525-8bc4-805dc75099f8-attr-6-type" class="er entityLabel">stringList</text><rect height="21" width="147.015625" y="129" x="57.0625" class="er attributeBoxEven"/><text style="dominant-baseline: middle; font-size: 10.2px;" transform="translate(62.0625,139.5)" y="0" x="0" id="text-entity-HealthInsurancePlan-fd2b6c17-b903-5525-8bc4-805dc75099f8-attr-6-name" class="er entityLabel">usesHealthPlanIdStandard</text><rect height="21" width="57.0625" y="150" x="0" class="er attributeBoxOdd"/><text style="dominant-baseline: middle; font-size: 10.2px;" transform="translate(5,160.5)" y="0" x="0" id="text-entity-HealthInsurancePlan-fd2b6c17-b903-5525-8bc4-805dc75099f8-attr-7-type" class="er entityLabel">stringList</text><rect height="21" width="147.015625" y="150" x="57.0625" class="er attributeBoxOdd"/><text style="dominant-baseline: middle; font-size: 10.2px;" transform="translate(62.0625,160.5)" y="0" x="0" id="text-entity-HealthInsurancePlan-fd2b6c17-b903-5525-8bc4-805dc75099f8-attr-7-name" class="er entityLabel">additionalType</text><rect height="21" width="57.0625" y="171" x="0" class="er attributeBoxEven"/><text style="dominant-baseline: middle; font-size: 10.2px;" transform="translate(5,181.5)" y="0" x="0" id="text-entity-HealthInsurancePlan-fd2b6c17-b903-5525-8bc4-805dc75099f8-attr-8-type" class="er entityLabel">TextList</text><rect height="21" width="147.015625" y="171" x="57.0625" class="er attributeBoxEven"/><text style="dominant-baseline: middle; font-size: 10.2px;" transform="translate(62.0625,181.5)" y="0" x="0" id="text-entity-HealthInsurancePlan-fd2b6c17-b903-5525-8bc4-805dc75099f8-attr-8-name" class="er entityLabel">alternateName</text><rect height="21" width="57.0625" y="192" x="0" class="er attributeBoxOdd"/><text style="dominant-baseline: middle; font-size: 10.2px;" transform="translate(5,202.5)" y="0" x="0" id="text-entity-HealthInsurancePlan-fd2b6c17-b903-5525-8bc4-805dc75099f8-attr-9-type" class="er entityLabel">stringList</text><rect height="21" width="147.015625" y="192" x="57.0625" class="er attributeBoxOdd"/><text style="dominant-baseline: middle; font-size: 10.2px;" transform="translate(62.0625,202.5)" y="0" x="0" id="text-entity-HealthInsurancePlan-fd2b6c17-b903-5525-8bc4-805dc75099f8-attr-9-name" class="er entityLabel">description</text><rect height="21" width="57.0625" y="213" x="0" class="er attributeBoxEven"/><text style="dominant-baseline: middle; font-size: 10.2px;" transform="translate(5,223.5)" y="0" x="0" id="text-entity-HealthInsurancePlan-fd2b6c17-b903-5525-8bc4-805dc75099f8-attr-10-type" class="er entityLabel">TextList</text><rect height="21" width="147.015625" y="213" x="57.0625" class="er attributeBoxEven"/><text style="dominant-baseline: middle; font-size: 10.2px;" transform="translate(62.0625,223.5)" y="0" x="0" id="text-entity-HealthInsurancePlan-fd2b6c17-b903-5525-8bc4-805dc75099f8-attr-10-name" class="er entityLabel">disambiguatingDescription</text><rect height="21" width="57.0625" y="234" x="0" class="er attributeBoxOdd"/><text style="dominant-baseline: middle; font-size: 10.2px;" transform="translate(5,244.5)" y="0" x="0" id="text-entity-HealthInsurancePlan-fd2b6c17-b903-5525-8bc4-805dc75099f8-attr-11-type" class="er entityLabel">stringList</text><rect height="21" width="147.015625" y="234" x="57.0625" class="er attributeBoxOdd"/><text style="dominant-baseline: middle; font-size: 10.2px;" transform="translate(62.0625,244.5)" y="0" x="0" id="text-entity-HealthInsurancePlan-fd2b6c17-b903-5525-8bc4-805dc75099f8-attr-11-name" class="er entityLabel">identifier</text><rect height="21" width="57.0625" y="255" x="0" class="er attributeBoxEven"/><text style="dominant-baseline: middle; font-size: 10.2px;" transform="translate(5,265.5)" y="0" x="0" id="text-entity-HealthInsurancePlan-fd2b6c17-b903-5525-8bc4-805dc75099f8-attr-12-type" class="er entityLabel">stringList</text><rect height="21" width="147.015625" y="255" x="57.0625" class="er attributeBoxEven"/><text style="dominant-baseline: middle; font-size: 10.2px;" transform="translate(62.0625,265.5)" y="0" x="0" id="text-entity-HealthInsurancePlan-fd2b6c17-b903-5525-8bc4-805dc75099f8-attr-12-name" class="er entityLabel">image</text><rect height="21" width="57.0625" y="276" x="0" class="er attributeBoxOdd"/><text style="dominant-baseline: middle; font-size: 10.2px;" transform="translate(5,286.5)" y="0" x="0" id="text-entity-HealthInsurancePlan-fd2b6c17-b903-5525-8bc4-805dc75099f8-attr-13-type" class="er entityLabel">TextList</text><rect height="21" width="147.015625" y="276" x="57.0625" class="er attributeBoxOdd"/><text style="dominant-baseline: middle; font-size: 10.2px;" transform="translate(62.0625,286.5)" y="0" x="0" id="text-entity-HealthInsurancePlan-fd2b6c17-b903-5525-8bc4-805dc75099f8-attr-13-name" class="er entityLabel">name</text><rect height="21" width="57.0625" y="297" x="0" class="er attributeBoxEven"/><text style="dominant-baseline: middle; font-size: 10.2px;" transform="translate(5,307.5)" y="0" x="0" id="text-entity-HealthInsurancePlan-fd2b6c17-b903-5525-8bc4-805dc75099f8-attr-14-type" class="er entityLabel">URLList</text><rect height="21" width="147.015625" y="297" x="57.0625" class="er attributeBoxEven"/><text style="dominant-baseline: middle; font-size: 10.2px;" transform="translate(62.0625,307.5)" y="0" x="0" id="text-entity-HealthInsurancePlan-fd2b6c17-b903-5525-8bc4-805dc75099f8-attr-14-name" class="er entityLabel">sameAs</text><rect height="21" width="57.0625" y="318" x="0" class="er attributeBoxOdd"/><text style="dominant-baseline: middle; font-size: 10.2px;" transform="translate(5,328.5)" y="0" x="0" id="text-entity-HealthInsurancePlan-fd2b6c17-b903-5525-8bc4-805dc75099f8-attr-15-type" class="er entityLabel">stringList</text><rect height="21" width="147.015625" y="318" x="57.0625" class="er attributeBoxOdd"/><text style="dominant-baseline: middle; font-size: 10.2px;" transform="translate(62.0625,328.5)" y="0" x="0" id="text-entity-HealthInsurancePlan-fd2b6c17-b903-5525-8bc4-805dc75099f8-attr-15-name" class="er entityLabel">mainEntityOfPage</text><rect height="21" width="57.0625" y="339" x="0" class="er attributeBoxEven"/><text style="dominant-baseline: middle; font-size: 10.2px;" transform="translate(5,349.5)" y="0" x="0" id="text-entity-HealthInsurancePlan-fd2b6c17-b903-5525-8bc4-805dc75099f8-attr-16-type" class="er entityLabel">stringList</text><rect height="21" width="147.015625" y="339" x="57.0625" class="er attributeBoxEven"/><text style="dominant-baseline: middle; font-size: 10.2px;" transform="translate(62.0625,349.5)" y="0" x="0" id="text-entity-HealthInsurancePlan-fd2b6c17-b903-5525-8bc4-805dc75099f8-attr-16-name" class="er entityLabel">subjectOf</text><rect height="21" width="57.0625" y="360" x="0" class="er attributeBoxOdd"/><text style="dominant-baseline: middle; font-size: 10.2px;" transform="translate(5,370.5)" y="0" x="0" id="text-entity-HealthInsurancePlan-fd2b6c17-b903-5525-8bc4-805dc75099f8-attr-17-type" class="er entityLabel">URLList</text><rect height="21" width="147.015625" y="360" x="57.0625" class="er attributeBoxOdd"/><text style="dominant-baseline: middle; font-size: 10.2px;" transform="translate(62.0625,370.5)" y="0" x="0" id="text-entity-HealthInsurancePlan-fd2b6c17-b903-5525-8bc4-805dc75099f8-attr-17-name" class="er entityLabel">url</text></g><g transform="translate(20,501 )" id="entity-ContactPoint-58bf6365-d2da-551d-a1b0-91793c4d1cf4"><rect height="75" width="106.77734375" y="0" x="0" class="er entityBox"/><text style="dominant-baseline: middle; text-anchor: middle; font-size: 12px;" transform="translate(53.388671875,37.5)" y="0" x="0" id="text-entity-ContactPoint-58bf6365-d2da-551d-a1b0-91793c4d1cf4" class="er entityLabel">ContactPoint</text></g><g transform="translate(226.77734375,501 )" id="entity-HealthPlanFormulary-17a40ce5-184e-5c88-b462-dc3139783155"><rect height="75" width="155.5" y="0" x="0" class="er entityBox"/><text style="dominant-baseline: middle; text-anchor: middle; font-size: 12px;" transform="translate(77.75,37.5)" y="0" x="0" id="text-entity-HealthPlanFormulary-17a40ce5-184e-5c88-b462-dc3139783155" class="er entityLabel">HealthPlanFormulary</text></g><g transform="translate(482.27734375,501 )" id="entity-HealthPlanNetwork-d141d042-e8e3-55fd-9ad8-246711396156"><rect height="75" width="145.087890625" y="0" x="0" class="er entityBox"/><text style="dominant-baseline: middle; text-anchor: middle; font-size: 12px;" transform="translate(72.5439453125,37.5)" y="0" x="0" id="text-entity-HealthPlanNetwork-d141d042-e8e3-55fd-9ad8-246711396156" class="er entityLabel">HealthPlanNetwork</text></g><g transform="translate(727.365234375,501 )" id="entity-Action-6cd87d9a-a078-546e-a35b-bee54f477b31"><rect height="75" width="100" y="0" x="0" class="er entityBox"/><text style="dominant-baseline: middle; text-anchor: middle; font-size: 12px;" transform="translate(50,37.5)" y="0" x="0" id="text-entity-Action-6cd87d9a-a078-546e-a35b-bee54f477b31" class="er entityLabel">Action</text></g><rect height="14" width="74.99609375" y="370.3128967285156" x="147.48464965820312" class="er relationshipLabelBox"/><text style="text-anchor: middle; dominant-baseline: middle; font-size: 12px;" y="377.3128967285156" x="184.98269653320312" id="rel1" class="er relationshipLabel">contactPoint</text><rect height="14" width="175.21875" y="441.9349060058594" x="221.81378173828125" class="er relationshipLabelBox"/><text style="text-anchor: middle; dominant-baseline: middle; font-size: 12px;" y="448.9349060058594" x="309.42315673828125" id="rel2" class="er relationshipLabel">includesHealthPlanFormulary</text><rect height="14" width="164.81640625" y="441.9346008300781" x="467.517578125" class="er relationshipLabelBox"/><text style="text-anchor: middle; dominant-baseline: middle; font-size: 12px;" y="448.9346008300781" x="549.92578125" id="rel3" class="er relationshipLabel">includesHealthPlanNetwork</text><rect height="14" width="90.96875" y="371.43603515625" x="624.5679931640625" class="er relationshipLabelBox"/><text style="text-anchor: middle; dominant-baseline: middle; font-size: 12px;" y="378.43603515625" x="670.0523681640625" id="rel4" class="er relationshipLabel">potentialAction</text></svg>