<svg aria-roledescription="er" role="graphics-document document" viewBox="-30.71977996826172 0 620.7197875976562 386" style="max-width: 620.72px; background-color: white;" xmlns:xlink="http://www.w3.org/1999/xlink" xmlns="http://www.w3.org/2000/svg" width="100%" id="my-svg"><style>#my-svg{font-family:"trebuchet ms",verdana,arial,sans-serif;font-size:16px;fill:#333;}#my-svg .error-icon{fill:#552222;}#my-svg .error-text{fill:#552222;stroke:#552222;}#my-svg .edge-thickness-normal{stroke-width:1px;}#my-svg .edge-thickness-thick{stroke-width:3.5px;}#my-svg .edge-pattern-solid{stroke-dasharray:0;}#my-svg .edge-thickness-invisible{stroke-width:0;fill:none;}#my-svg .edge-pattern-dashed{stroke-dasharray:3;}#my-svg .edge-pattern-dotted{stroke-dasharray:2;}#my-svg .marker{fill:#333333;stroke:#333333;}#my-svg .marker.cross{stroke:#333333;}#my-svg svg{font-family:"trebuchet ms",verdana,arial,sans-serif;font-size:16px;}#my-svg p{margin:0;}#my-svg .entityBox{fill:#ECECFF;stroke:#9370DB;}#my-svg .attributeBoxOdd{fill:#ffffff;stroke:#9370DB;}#my-svg .attributeBoxEven{fill:#f2f2f2;stroke:#9370DB;}#my-svg .relationshipLabelBox{fill:hsl(80, 100%, 96.2745098039%);opacity:0.7;background-color:hsl(80, 100%, 96.2745098039%);}#my-svg .relationshipLabelBox rect{opacity:0.5;}#my-svg .relationshipLine{stroke:#333333;}#my-svg .entityTitleText{text-anchor:middle;font-size:18px;fill:#333;}#my-svg #MD_PARENT_START{fill:#f5f5f5!important;stroke:#333333!important;stroke-width:1;}#my-svg #MD_PARENT_END{fill:#f5f5f5!important;stroke:#333333!important;stroke-width:1;}#my-svg :root{--mermaid-font-family:"trebuchet ms",verdana,arial,sans-serif;}</style><g/><defs><marker orient="auto" markerHeight="240" markerWidth="190" refY="7" refX="0" id="MD_PARENT_START"><path d="M 18,7 L9,13 L1,7 L9,1 Z"/></marker></defs><defs><marker orient="auto" markerHeight="28" markerWidth="20" refY="7" refX="19" id="MD_PARENT_END"><path d="M 18,7 L9,13 L1,7 L9,1 Z"/></marker></defs><defs><marker orient="auto" markerHeight="18" markerWidth="18" refY="9" refX="0" id="ONLY_ONE_START"><path d="M9,0 L9,18 M15,0 L15,18" fill="none" stroke="gray"/></marker></defs><defs><marker orient="auto" markerHeight="18" markerWidth="18" refY="9" refX="18" id="ONLY_ONE_END"><path d="M3,0 L3,18 M9,0 L9,18" fill="none" stroke="gray"/></marker></defs><defs><marker orient="auto" markerHeight="18" markerWidth="30" refY="9" refX="0" id="ZERO_OR_ONE_START"><circle r="6" cy="9" cx="21" fill="white" stroke="gray"/><path d="M9,0 L9,18" fill="none" stroke="gray"/></marker></defs><defs><marker orient="auto" markerHeight="18" markerWidth="30" refY="9" refX="30" id="ZERO_OR_ONE_END"><circle r="6" cy="9" cx="9" fill="white" stroke="gray"/><path d="M21,0 L21,18" fill="none" stroke="gray"/></marker></defs><defs><marker orient="auto" markerHeight="36" markerWidth="45" refY="18" refX="18" id="ONE_OR_MORE_START"><path d="M0,18 Q 18,0 36,18 Q 18,36 0,18 M42,9 L42,27" fill="none" stroke="gray"/></marker></defs><defs><marker orient="auto" markerHeight="36" markerWidth="45" refY="18" refX="27" id="ONE_OR_MORE_END"><path d="M3,9 L3,27 M9,18 Q27,0 45,18 Q27,36 9,18" fill="none" stroke="gray"/></marker></defs><defs><marker orient="auto" markerHeight="36" markerWidth="57" refY="18" refX="18" id="ZERO_OR_MORE_START"><circle r="6" cy="18" cx="48" fill="white" stroke="gray"/><path d="M0,18 Q18,0 36,18 Q18,36 0,18" fill="none" stroke="gray"/></marker></defs><defs><marker orient="auto" markerHeight="36" markerWidth="57" refY="18" refX="39" id="ZERO_OR_MORE_END"><circle r="6" cy="18" cx="9" fill="white" stroke="gray"/><path d="M21,18 Q39,0 57,18 Q39,36 21,18" fill="none" stroke="gray"/></marker></defs><path style="stroke: gray; fill: none;" marker-start="url(#ONLY_ONE_START)" marker-end="url(#ZERO_OR_MORE_END)" d="M126.344,156.262L100.286,170.385C74.229,184.508,22.115,212.754,5.581,235.21C-10.952,257.667,8.095,274.333,17.619,282.667L27.143,291" class="er relationshipLine"/><path style="stroke: gray; fill: none;" marker-start="url(#ONLY_ONE_START)" marker-end="url(#ZERO_OR_MORE_END)" d="M126.344,190.103L116.953,198.586C107.563,207.069,88.781,224.034,79.391,240.85C70,257.667,70,274.333,70,282.667L70,291" class="er relationshipLine"/><path style="stroke: gray; fill: none;" marker-start="url(#ONLY_ONE_START)" marker-end="url(#ZERO_OR_MORE_END)" d="M188.45,191L185.375,199.333C182.3,207.667,176.15,224.333,163.551,241C150.952,257.667,131.905,274.333,122.381,282.667L112.857,291" class="er relationshipLine"/><path style="stroke: gray; fill: none;" marker-start="url(#ONLY_ONE_START)" marker-end="url(#ZERO_OR_MORE_END)" d="M251.55,191L254.625,199.333C257.7,207.667,263.85,224.333,271.687,241C279.524,257.667,289.048,274.333,293.81,282.667L298.571,291" class="er relationshipLine"/><path style="stroke: gray; fill: none;" marker-start="url(#ONLY_ONE_START)" marker-end="url(#ZERO_OR_MORE_END)" d="M313.656,147.801L348.047,163.335C382.438,178.868,451.219,209.934,485.609,233.8C520,257.667,520,274.333,520,282.667L520,291" class="er relationshipLine"/><path style="stroke: gray; fill: none;" marker-start="url(#ONLY_ONE_START)" marker-end="url(#ZERO_OR_MORE_END)" d="M313.656,190.103L323.047,198.586C332.438,207.069,351.219,224.034,355.847,240.85C360.476,257.667,350.952,274.333,346.19,282.667L341.429,291" class="er relationshipLine"/><g transform="translate(126.34375,20 )" id="entity-HealthAspectEnumeration-58cf1b81-b93a-5d62-9774-737f11a95585"><rect height="171" width="187.3125" y="0" x="0" class="er entityBox"/><text style="dominant-baseline: middle; text-anchor: middle; font-size: 12px;" transform="translate(93.65625,12)" y="0" x="0" id="text-entity-HealthAspectEnumeration-58cf1b81-b93a-5d62-9774-737f11a95585" class="er entityLabel">HealthAspectEnumeration</text><rect height="21" width="71.453125" y="24" x="0" class="er attributeBoxOdd"/><text style="dominant-baseline: middle; font-size: 10.2px;" transform="translate(5,34.5)" y="0" x="0" id="text-entity-HealthAspectEnumeration-58cf1b81-b93a-5d62-9774-737f11a95585-attr-1-type" class="er entityLabel">stringList</text><rect height="21" width="115.859375" y="24" x="71.453125" class="er attributeBoxOdd"/><text style="dominant-baseline: middle; font-size: 10.2px;" transform="translate(76.453125,34.5)" y="0" x="0" id="text-entity-HealthAspectEnumeration-58cf1b81-b93a-5d62-9774-737f11a95585-attr-1-name" class="er entityLabel">supersededBy</text><rect height="21" width="71.453125" y="45" x="0" class="er attributeBoxEven"/><text style="dominant-baseline: middle; font-size: 10.2px;" transform="translate(5,55.5)" y="0" x="0" id="text-entity-HealthAspectEnumeration-58cf1b81-b93a-5d62-9774-737f11a95585-attr-2-type" class="er entityLabel">stringList</text><rect height="21" width="115.859375" y="45" x="71.453125" class="er attributeBoxEven"/><text style="dominant-baseline: middle; font-size: 10.2px;" transform="translate(76.453125,55.5)" y="0" x="0" id="text-entity-HealthAspectEnumeration-58cf1b81-b93a-5d62-9774-737f11a95585-attr-2-name" class="er entityLabel">additionalType</text><rect height="21" width="71.453125" y="66" x="0" class="er attributeBoxOdd"/><text style="dominant-baseline: middle; font-size: 10.2px;" transform="translate(5,76.5)" y="0" x="0" id="text-entity-HealthAspectEnumeration-58cf1b81-b93a-5d62-9774-737f11a95585-attr-3-type" class="er entityLabel">stringList</text><rect height="21" width="115.859375" y="66" x="71.453125" class="er attributeBoxOdd"/><text style="dominant-baseline: middle; font-size: 10.2px;" transform="translate(76.453125,76.5)" y="0" x="0" id="text-entity-HealthAspectEnumeration-58cf1b81-b93a-5d62-9774-737f11a95585-attr-3-name" class="er entityLabel">description</text><rect height="21" width="71.453125" y="87" x="0" class="er attributeBoxEven"/><text style="dominant-baseline: middle; font-size: 10.2px;" transform="translate(5,97.5)" y="0" x="0" id="text-entity-HealthAspectEnumeration-58cf1b81-b93a-5d62-9774-737f11a95585-attr-4-type" class="er entityLabel">stringList</text><rect height="21" width="115.859375" y="87" x="71.453125" class="er attributeBoxEven"/><text style="dominant-baseline: middle; font-size: 10.2px;" transform="translate(76.453125,97.5)" y="0" x="0" id="text-entity-HealthAspectEnumeration-58cf1b81-b93a-5d62-9774-737f11a95585-attr-4-name" class="er entityLabel">identifier</text><rect height="21" width="71.453125" y="108" x="0" class="er attributeBoxOdd"/><text style="dominant-baseline: middle; font-size: 10.2px;" transform="translate(5,118.5)" y="0" x="0" id="text-entity-HealthAspectEnumeration-58cf1b81-b93a-5d62-9774-737f11a95585-attr-5-type" class="er entityLabel">stringList</text><rect height="21" width="115.859375" y="108" x="71.453125" class="er attributeBoxOdd"/><text style="dominant-baseline: middle; font-size: 10.2px;" transform="translate(76.453125,118.5)" y="0" x="0" id="text-entity-HealthAspectEnumeration-58cf1b81-b93a-5d62-9774-737f11a95585-attr-5-name" class="er entityLabel">image</text><rect height="21" width="71.453125" y="129" x="0" class="er attributeBoxEven"/><text style="dominant-baseline: middle; font-size: 10.2px;" transform="translate(5,139.5)" y="0" x="0" id="text-entity-HealthAspectEnumeration-58cf1b81-b93a-5d62-9774-737f11a95585-attr-6-type" class="er entityLabel">stringList</text><rect height="21" width="115.859375" y="129" x="71.453125" class="er attributeBoxEven"/><text style="dominant-baseline: middle; font-size: 10.2px;" transform="translate(76.453125,139.5)" y="0" x="0" id="text-entity-HealthAspectEnumeration-58cf1b81-b93a-5d62-9774-737f11a95585-attr-6-name" class="er entityLabel">mainEntityOfPage</text><rect height="21" width="71.453125" y="150" x="0" class="er attributeBoxOdd"/><text style="dominant-baseline: middle; font-size: 10.2px;" transform="translate(5,160.5)" y="0" x="0" id="text-entity-HealthAspectEnumeration-58cf1b81-b93a-5d62-9774-737f11a95585-attr-7-type" class="er entityLabel">stringList</text><rect height="21" width="115.859375" y="150" x="71.453125" class="er attributeBoxOdd"/><text style="dominant-baseline: middle; font-size: 10.2px;" transform="translate(76.453125,160.5)" y="0" x="0" id="text-entity-HealthAspectEnumeration-58cf1b81-b93a-5d62-9774-737f11a95585-attr-7-name" class="er entityLabel">subjectOf</text></g><g transform="translate(20,291 )" id="entity-Text-426c5d39-acfc-5487-a6d9-ede67887190e"><rect height="75" width="100" y="0" x="0" class="er entityBox"/><text style="dominant-baseline: middle; text-anchor: middle; font-size: 12px;" transform="translate(50,37.5)" y="0" x="0" id="text-entity-Text-426c5d39-acfc-5487-a6d9-ede67887190e" class="er entityLabel">Text</text></g><g transform="translate(270,291 )" id="entity-URL-07f78d3e-fd74-5925-b39b-26c1cc2d6b7c"><rect height="75" width="100" y="0" x="0" class="er entityBox"/><text style="dominant-baseline: middle; text-anchor: middle; font-size: 12px;" transform="translate(50,37.5)" y="0" x="0" id="text-entity-URL-07f78d3e-fd74-5925-b39b-26c1cc2d6b7c" class="er entityLabel">URL</text></g><g transform="translate(470,291 )" id="entity-Action-6cd87d9a-a078-546e-a35b-bee54f477b31"><rect height="75" width="100" y="0" x="0" class="er entityBox"/><text style="dominant-baseline: middle; text-anchor: middle; font-size: 12px;" transform="translate(50,37.5)" y="0" x="0" id="text-entity-Action-6cd87d9a-a078-546e-a35b-bee54f477b31" class="er entityLabel">Action</text></g><rect height="14" width="89.953125" y="202.7332763671875" x="-10.719779968261719" class="er relationshipLabelBox"/><text style="text-anchor: middle; dominant-baseline: middle; font-size: 12px;" y="209.7332763671875" x="34.25678253173828" id="rel1" class="er relationshipLabel">alternateName</text><rect height="14" width="161.390625" y="226.36854553222656" x="3.4446868896484375" class="er relationshipLabelBox"/><text style="text-anchor: middle; dominant-baseline: middle; font-size: 12px;" y="233.36854553222656" x="84.13999938964844" id="rel2" class="er relationshipLabel">disambiguatingDescription</text><rect height="14" width="34.03125" y="239.94613647460938" x="141.78182983398438" class="er relationshipLabelBox"/><text style="text-anchor: middle; dominant-baseline: middle; font-size: 12px;" y="246.94613647460938" x="158.79745483398438" id="rel3" class="er relationshipLabel">name</text><rect height="14" width="47.140625" y="235.2945098876953" x="248.72900390625" class="er relationshipLabelBox"/><text style="text-anchor: middle; dominant-baseline: middle; font-size: 12px;" y="242.2945098876953" x="272.29931640625" id="rel4" class="er relationshipLabel">sameAs</text><rect height="14" width="90.96875" y="196.4842987060547" x="387.3843078613281" class="er relationshipLabelBox"/><text style="text-anchor: middle; dominant-baseline: middle; font-size: 12px;" y="203.4842987060547" x="432.8686828613281" id="rel5" class="er relationshipLabel">potentialAction</text><rect height="14" width="15.875" y="227.7163848876953" x="345.6319274902344" class="er relationshipLabelBox"/><text style="text-anchor: middle; dominant-baseline: middle; font-size: 12px;" y="234.7163848876953" x="353.5694274902344" id="rel6" class="er relationshipLabel">url</text></svg>