<svg aria-roledescription="er" role="graphics-document document" viewBox="0 0 376.328125 554" style="max-width: 376.328px; background-color: white;" xmlns:xlink="http://www.w3.org/1999/xlink" xmlns="http://www.w3.org/2000/svg" width="100%" id="my-svg"><style>#my-svg{font-family:"trebuchet ms",verdana,arial,sans-serif;font-size:16px;fill:#333;}#my-svg .error-icon{fill:#552222;}#my-svg .error-text{fill:#552222;stroke:#552222;}#my-svg .edge-thickness-normal{stroke-width:1px;}#my-svg .edge-thickness-thick{stroke-width:3.5px;}#my-svg .edge-pattern-solid{stroke-dasharray:0;}#my-svg .edge-thickness-invisible{stroke-width:0;fill:none;}#my-svg .edge-pattern-dashed{stroke-dasharray:3;}#my-svg .edge-pattern-dotted{stroke-dasharray:2;}#my-svg .marker{fill:#333333;stroke:#333333;}#my-svg .marker.cross{stroke:#333333;}#my-svg svg{font-family:"trebuchet ms",verdana,arial,sans-serif;font-size:16px;}#my-svg p{margin:0;}#my-svg .entityBox{fill:#ECECFF;stroke:#9370DB;}#my-svg .attributeBoxOdd{fill:#ffffff;stroke:#9370DB;}#my-svg .attributeBoxEven{fill:#f2f2f2;stroke:#9370DB;}#my-svg .relationshipLabelBox{fill:hsl(80, 100%, 96.2745098039%);opacity:0.7;background-color:hsl(80, 100%, 96.2745098039%);}#my-svg .relationshipLabelBox rect{opacity:0.5;}#my-svg .relationshipLine{stroke:#333333;}#my-svg .entityTitleText{text-anchor:middle;font-size:18px;fill:#333;}#my-svg #MD_PARENT_START{fill:#f5f5f5!important;stroke:#333333!important;stroke-width:1;}#my-svg #MD_PARENT_END{fill:#f5f5f5!important;stroke:#333333!important;stroke-width:1;}#my-svg :root{--mermaid-font-family:"trebuchet ms",verdana,arial,sans-serif;}</style><g/><defs><marker orient="auto" markerHeight="240" markerWidth="190" refY="7" refX="0" id="MD_PARENT_START"><path d="M 18,7 L9,13 L1,7 L9,1 Z"/></marker></defs><defs><marker orient="auto" markerHeight="28" markerWidth="20" refY="7" refX="19" id="MD_PARENT_END"><path d="M 18,7 L9,13 L1,7 L9,1 Z"/></marker></defs><defs><marker orient="auto" markerHeight="18" markerWidth="18" refY="9" refX="0" id="ONLY_ONE_START"><path d="M9,0 L9,18 M15,0 L15,18" fill="none" stroke="gray"/></marker></defs><defs><marker orient="auto" markerHeight="18" markerWidth="18" refY="9" refX="18" id="ONLY_ONE_END"><path d="M3,0 L3,18 M9,0 L9,18" fill="none" stroke="gray"/></marker></defs><defs><marker orient="auto" markerHeight="18" markerWidth="30" refY="9" refX="0" id="ZERO_OR_ONE_START"><circle r="6" cy="9" cx="21" fill="white" stroke="gray"/><path d="M9,0 L9,18" fill="none" stroke="gray"/></marker></defs><defs><marker orient="auto" markerHeight="18" markerWidth="30" refY="9" refX="30" id="ZERO_OR_ONE_END"><circle r="6" cy="9" cx="9" fill="white" stroke="gray"/><path d="M21,0 L21,18" fill="none" stroke="gray"/></marker></defs><defs><marker orient="auto" markerHeight="36" markerWidth="45" refY="18" refX="18" id="ONE_OR_MORE_START"><path d="M0,18 Q 18,0 36,18 Q 18,36 0,18 M42,9 L42,27" fill="none" stroke="gray"/></marker></defs><defs><marker orient="auto" markerHeight="36" markerWidth="45" refY="18" refX="27" id="ONE_OR_MORE_END"><path d="M3,9 L3,27 M9,18 Q27,0 45,18 Q27,36 9,18" fill="none" stroke="gray"/></marker></defs><defs><marker orient="auto" markerHeight="36" markerWidth="57" refY="18" refX="18" id="ZERO_OR_MORE_START"><circle r="6" cy="18" cx="48" fill="white" stroke="gray"/><path d="M0,18 Q18,0 36,18 Q18,36 0,18" fill="none" stroke="gray"/></marker></defs><defs><marker orient="auto" markerHeight="36" markerWidth="57" refY="18" refX="39" id="ZERO_OR_MORE_END"><circle r="6" cy="18" cx="9" fill="white" stroke="gray"/><path d="M21,18 Q39,0 57,18 Q39,36 21,18" fill="none" stroke="gray"/></marker></defs><path style="stroke: gray; fill: none;" marker-start="url(#ONLY_ONE_START)" marker-end="url(#ZERO_OR_MORE_END)" d="M113.012,359L108.871,367.333C104.729,375.667,96.447,392.333,92.305,409C88.164,425.667,88.164,442.333,88.164,450.667L88.164,459" class="er relationshipLine"/><path style="stroke: gray; fill: none;" marker-start="url(#ONLY_ONE_START)" marker-end="url(#ZERO_OR_MORE_END)" d="M281.48,359L285.622,367.333C289.763,375.667,298.046,392.333,302.187,409C306.328,425.667,306.328,442.333,306.328,450.667L306.328,459" class="er relationshipLine"/><g transform="translate(74.87890625,20 )" id="entity-HealthPlanCostSharingSpecification-6ed57d18-c1b1-5c0b-bce6-c3eb4167c927"><rect height="339" width="244.734375" y="0" x="0" class="er entityBox"/><text style="dominant-baseline: middle; text-anchor: middle; font-size: 12px;" transform="translate(122.3671875,12)" y="0" x="0" id="text-entity-HealthPlanCostSharingSpecification-6ed57d18-c1b1-5c0b-bce6-c3eb4167c927" class="er entityLabel">HealthPlanCostSharingSpecification</text><rect height="21" width="76.18145751953125" y="24" x="0" class="er attributeBoxOdd"/><text style="dominant-baseline: middle; font-size: 10.2px;" transform="translate(5,34.5)" y="0" x="0" id="text-entity-HealthPlanCostSharingSpecification-6ed57d18-c1b1-5c0b-bce6-c3eb4167c927-attr-1-type" class="er entityLabel">TextList</text><rect height="21" width="168.55291748046875" y="24" x="76.18145751953125" class="er attributeBoxOdd"/><text style="dominant-baseline: middle; font-size: 10.2px;" transform="translate(81.18145751953125,34.5)" y="0" x="0" id="text-entity-HealthPlanCostSharingSpecification-6ed57d18-c1b1-5c0b-bce6-c3eb4167c927-attr-1-name" class="er entityLabel">healthPlanCoinsuranceOption</text><rect height="21" width="76.18145751953125" y="45" x="0" class="er attributeBoxEven"/><text style="dominant-baseline: middle; font-size: 10.2px;" transform="translate(5,55.5)" y="0" x="0" id="text-entity-HealthPlanCostSharingSpecification-6ed57d18-c1b1-5c0b-bce6-c3eb4167c927-attr-2-type" class="er entityLabel">NumberList</text><rect height="21" width="168.55291748046875" y="45" x="76.18145751953125" class="er attributeBoxEven"/><text style="dominant-baseline: middle; font-size: 10.2px;" transform="translate(81.18145751953125,55.5)" y="0" x="0" id="text-entity-HealthPlanCostSharingSpecification-6ed57d18-c1b1-5c0b-bce6-c3eb4167c927-attr-2-name" class="er entityLabel">healthPlanCoinsuranceRate</text><rect height="21" width="76.18145751953125" y="66" x="0" class="er attributeBoxOdd"/><text style="dominant-baseline: middle; font-size: 10.2px;" transform="translate(5,76.5)" y="0" x="0" id="text-entity-HealthPlanCostSharingSpecification-6ed57d18-c1b1-5c0b-bce6-c3eb4167c927-attr-3-type" class="er entityLabel">TextList</text><rect height="21" width="168.55291748046875" y="66" x="76.18145751953125" class="er attributeBoxOdd"/><text style="dominant-baseline: middle; font-size: 10.2px;" transform="translate(81.18145751953125,76.5)" y="0" x="0" id="text-entity-HealthPlanCostSharingSpecification-6ed57d18-c1b1-5c0b-bce6-c3eb4167c927-attr-3-name" class="er entityLabel">healthPlanCopayOption</text><rect height="21" width="76.18145751953125" y="87" x="0" class="er attributeBoxEven"/><text style="dominant-baseline: middle; font-size: 10.2px;" transform="translate(5,97.5)" y="0" x="0" id="text-entity-HealthPlanCostSharingSpecification-6ed57d18-c1b1-5c0b-bce6-c3eb4167c927-attr-4-type" class="er entityLabel">TextList</text><rect height="21" width="168.55291748046875" y="87" x="76.18145751953125" class="er attributeBoxEven"/><text style="dominant-baseline: middle; font-size: 10.2px;" transform="translate(81.18145751953125,97.5)" y="0" x="0" id="text-entity-HealthPlanCostSharingSpecification-6ed57d18-c1b1-5c0b-bce6-c3eb4167c927-attr-4-name" class="er entityLabel">healthPlanPharmacyCategory</text><rect height="21" width="76.18145751953125" y="108" x="0" class="er attributeBoxOdd"/><text style="dominant-baseline: middle; font-size: 10.2px;" transform="translate(5,118.5)" y="0" x="0" id="text-entity-HealthPlanCostSharingSpecification-6ed57d18-c1b1-5c0b-bce6-c3eb4167c927-attr-5-type" class="er entityLabel">stringList</text><rect height="21" width="168.55291748046875" y="108" x="76.18145751953125" class="er attributeBoxOdd"/><text style="dominant-baseline: middle; font-size: 10.2px;" transform="translate(81.18145751953125,118.5)" y="0" x="0" id="text-entity-HealthPlanCostSharingSpecification-6ed57d18-c1b1-5c0b-bce6-c3eb4167c927-attr-5-name" class="er entityLabel">additionalType</text><rect height="21" width="76.18145751953125" y="129" x="0" class="er attributeBoxEven"/><text style="dominant-baseline: middle; font-size: 10.2px;" transform="translate(5,139.5)" y="0" x="0" id="text-entity-HealthPlanCostSharingSpecification-6ed57d18-c1b1-5c0b-bce6-c3eb4167c927-attr-6-type" class="er entityLabel">TextList</text><rect height="21" width="168.55291748046875" y="129" x="76.18145751953125" class="er attributeBoxEven"/><text style="dominant-baseline: middle; font-size: 10.2px;" transform="translate(81.18145751953125,139.5)" y="0" x="0" id="text-entity-HealthPlanCostSharingSpecification-6ed57d18-c1b1-5c0b-bce6-c3eb4167c927-attr-6-name" class="er entityLabel">alternateName</text><rect height="21" width="76.18145751953125" y="150" x="0" class="er attributeBoxOdd"/><text style="dominant-baseline: middle; font-size: 10.2px;" transform="translate(5,160.5)" y="0" x="0" id="text-entity-HealthPlanCostSharingSpecification-6ed57d18-c1b1-5c0b-bce6-c3eb4167c927-attr-7-type" class="er entityLabel">stringList</text><rect height="21" width="168.55291748046875" y="150" x="76.18145751953125" class="er attributeBoxOdd"/><text style="dominant-baseline: middle; font-size: 10.2px;" transform="translate(81.18145751953125,160.5)" y="0" x="0" id="text-entity-HealthPlanCostSharingSpecification-6ed57d18-c1b1-5c0b-bce6-c3eb4167c927-attr-7-name" class="er entityLabel">description</text><rect height="21" width="76.18145751953125" y="171" x="0" class="er attributeBoxEven"/><text style="dominant-baseline: middle; font-size: 10.2px;" transform="translate(5,181.5)" y="0" x="0" id="text-entity-HealthPlanCostSharingSpecification-6ed57d18-c1b1-5c0b-bce6-c3eb4167c927-attr-8-type" class="er entityLabel">TextList</text><rect height="21" width="168.55291748046875" y="171" x="76.18145751953125" class="er attributeBoxEven"/><text style="dominant-baseline: middle; font-size: 10.2px;" transform="translate(81.18145751953125,181.5)" y="0" x="0" id="text-entity-HealthPlanCostSharingSpecification-6ed57d18-c1b1-5c0b-bce6-c3eb4167c927-attr-8-name" class="er entityLabel">disambiguatingDescription</text><rect height="21" width="76.18145751953125" y="192" x="0" class="er attributeBoxOdd"/><text style="dominant-baseline: middle; font-size: 10.2px;" transform="translate(5,202.5)" y="0" x="0" id="text-entity-HealthPlanCostSharingSpecification-6ed57d18-c1b1-5c0b-bce6-c3eb4167c927-attr-9-type" class="er entityLabel">stringList</text><rect height="21" width="168.55291748046875" y="192" x="76.18145751953125" class="er attributeBoxOdd"/><text style="dominant-baseline: middle; font-size: 10.2px;" transform="translate(81.18145751953125,202.5)" y="0" x="0" id="text-entity-HealthPlanCostSharingSpecification-6ed57d18-c1b1-5c0b-bce6-c3eb4167c927-attr-9-name" class="er entityLabel">identifier</text><rect height="21" width="76.18145751953125" y="213" x="0" class="er attributeBoxEven"/><text style="dominant-baseline: middle; font-size: 10.2px;" transform="translate(5,223.5)" y="0" x="0" id="text-entity-HealthPlanCostSharingSpecification-6ed57d18-c1b1-5c0b-bce6-c3eb4167c927-attr-10-type" class="er entityLabel">stringList</text><rect height="21" width="168.55291748046875" y="213" x="76.18145751953125" class="er attributeBoxEven"/><text style="dominant-baseline: middle; font-size: 10.2px;" transform="translate(81.18145751953125,223.5)" y="0" x="0" id="text-entity-HealthPlanCostSharingSpecification-6ed57d18-c1b1-5c0b-bce6-c3eb4167c927-attr-10-name" class="er entityLabel">image</text><rect height="21" width="76.18145751953125" y="234" x="0" class="er attributeBoxOdd"/><text style="dominant-baseline: middle; font-size: 10.2px;" transform="translate(5,244.5)" y="0" x="0" id="text-entity-HealthPlanCostSharingSpecification-6ed57d18-c1b1-5c0b-bce6-c3eb4167c927-attr-11-type" class="er entityLabel">TextList</text><rect height="21" width="168.55291748046875" y="234" x="76.18145751953125" class="er attributeBoxOdd"/><text style="dominant-baseline: middle; font-size: 10.2px;" transform="translate(81.18145751953125,244.5)" y="0" x="0" id="text-entity-HealthPlanCostSharingSpecification-6ed57d18-c1b1-5c0b-bce6-c3eb4167c927-attr-11-name" class="er entityLabel">name</text><rect height="21" width="76.18145751953125" y="255" x="0" class="er attributeBoxEven"/><text style="dominant-baseline: middle; font-size: 10.2px;" transform="translate(5,265.5)" y="0" x="0" id="text-entity-HealthPlanCostSharingSpecification-6ed57d18-c1b1-5c0b-bce6-c3eb4167c927-attr-12-type" class="er entityLabel">URLList</text><rect height="21" width="168.55291748046875" y="255" x="76.18145751953125" class="er attributeBoxEven"/><text style="dominant-baseline: middle; font-size: 10.2px;" transform="translate(81.18145751953125,265.5)" y="0" x="0" id="text-entity-HealthPlanCostSharingSpecification-6ed57d18-c1b1-5c0b-bce6-c3eb4167c927-attr-12-name" class="er entityLabel">sameAs</text><rect height="21" width="76.18145751953125" y="276" x="0" class="er attributeBoxOdd"/><text style="dominant-baseline: middle; font-size: 10.2px;" transform="translate(5,286.5)" y="0" x="0" id="text-entity-HealthPlanCostSharingSpecification-6ed57d18-c1b1-5c0b-bce6-c3eb4167c927-attr-13-type" class="er entityLabel">stringList</text><rect height="21" width="168.55291748046875" y="276" x="76.18145751953125" class="er attributeBoxOdd"/><text style="dominant-baseline: middle; font-size: 10.2px;" transform="translate(81.18145751953125,286.5)" y="0" x="0" id="text-entity-HealthPlanCostSharingSpecification-6ed57d18-c1b1-5c0b-bce6-c3eb4167c927-attr-13-name" class="er entityLabel">mainEntityOfPage</text><rect height="21" width="76.18145751953125" y="297" x="0" class="er attributeBoxEven"/><text style="dominant-baseline: middle; font-size: 10.2px;" transform="translate(5,307.5)" y="0" x="0" id="text-entity-HealthPlanCostSharingSpecification-6ed57d18-c1b1-5c0b-bce6-c3eb4167c927-attr-14-type" class="er entityLabel">stringList</text><rect height="21" width="168.55291748046875" y="297" x="76.18145751953125" class="er attributeBoxEven"/><text style="dominant-baseline: middle; font-size: 10.2px;" transform="translate(81.18145751953125,307.5)" y="0" x="0" id="text-entity-HealthPlanCostSharingSpecification-6ed57d18-c1b1-5c0b-bce6-c3eb4167c927-attr-14-name" class="er entityLabel">subjectOf</text><rect height="21" width="76.18145751953125" y="318" x="0" class="er attributeBoxOdd"/><text style="dominant-baseline: middle; font-size: 10.2px;" transform="translate(5,328.5)" y="0" x="0" id="text-entity-HealthPlanCostSharingSpecification-6ed57d18-c1b1-5c0b-bce6-c3eb4167c927-attr-15-type" class="er entityLabel">URLList</text><rect height="21" width="168.55291748046875" y="318" x="76.18145751953125" class="er attributeBoxOdd"/><text style="dominant-baseline: middle; font-size: 10.2px;" transform="translate(81.18145751953125,328.5)" y="0" x="0" id="text-entity-HealthPlanCostSharingSpecification-6ed57d18-c1b1-5c0b-bce6-c3eb4167c927-attr-15-name" class="er entityLabel">url</text></g><g transform="translate(20,459 )" id="entity-PriceSpecification-06171b48-9437-5ab1-a607-7f40e6a6fc9e"><rect height="75" width="136.328125" y="0" x="0" class="er entityBox"/><text style="dominant-baseline: middle; text-anchor: middle; font-size: 12px;" transform="translate(68.1640625,37.5)" y="0" x="0" id="text-entity-PriceSpecification-06171b48-9437-5ab1-a607-7f40e6a6fc9e" class="er entityLabel">PriceSpecification</text></g><g transform="translate(256.328125,459 )" id="entity-Action-6cd87d9a-a078-546e-a35b-bee54f477b31"><rect height="75" width="100" y="0" x="0" class="er entityBox"/><text style="dominant-baseline: middle; text-anchor: middle; font-size: 12px;" transform="translate(50,37.5)" y="0" x="0" id="text-entity-Action-6cd87d9a-a078-546e-a35b-bee54f477b31" class="er entityLabel">Action</text></g><rect height="14" width="101.3125" y="400.1019287109375" x="42.138092041015625" class="er relationshipLabelBox"/><text style="text-anchor: middle; dominant-baseline: middle; font-size: 12px;" y="407.1019287109375" x="92.79434204101562" id="rel1" class="er relationshipLabel">healthPlanCopay</text><rect height="14" width="90.96875" y="400.10186767578125" x="256.2134094238281" class="er relationshipLabelBox"/><text style="text-anchor: middle; dominant-baseline: middle; font-size: 12px;" y="407.10186767578125" x="301.6977844238281" id="rel2" class="er relationshipLabel">potentialAction</text></svg>