<svg aria-roledescription="er" role="graphics-document document" viewBox="0 0 1373.390625 659" style="max-width: 1373.39px; background-color: white;" xmlns:xlink="http://www.w3.org/1999/xlink" xmlns="http://www.w3.org/2000/svg" width="100%" id="my-svg"><style>#my-svg{font-family:"trebuchet ms",verdana,arial,sans-serif;font-size:16px;fill:#333;}#my-svg .error-icon{fill:#552222;}#my-svg .error-text{fill:#552222;stroke:#552222;}#my-svg .edge-thickness-normal{stroke-width:1px;}#my-svg .edge-thickness-thick{stroke-width:3.5px;}#my-svg .edge-pattern-solid{stroke-dasharray:0;}#my-svg .edge-thickness-invisible{stroke-width:0;fill:none;}#my-svg .edge-pattern-dashed{stroke-dasharray:3;}#my-svg .edge-pattern-dotted{stroke-dasharray:2;}#my-svg .marker{fill:#333333;stroke:#333333;}#my-svg .marker.cross{stroke:#333333;}#my-svg svg{font-family:"trebuchet ms",verdana,arial,sans-serif;font-size:16px;}#my-svg p{margin:0;}#my-svg .entityBox{fill:#ECECFF;stroke:#9370DB;}#my-svg .attributeBoxOdd{fill:#ffffff;stroke:#9370DB;}#my-svg .attributeBoxEven{fill:#f2f2f2;stroke:#9370DB;}#my-svg .relationshipLabelBox{fill:hsl(80, 100%, 96.2745098039%);opacity:0.7;background-color:hsl(80, 100%, 96.2745098039%);}#my-svg .relationshipLabelBox rect{opacity:0.5;}#my-svg .relationshipLine{stroke:#333333;}#my-svg .entityTitleText{text-anchor:middle;font-size:18px;fill:#333;}#my-svg #MD_PARENT_START{fill:#f5f5f5!important;stroke:#333333!important;stroke-width:1;}#my-svg #MD_PARENT_END{fill:#f5f5f5!important;stroke:#333333!important;stroke-width:1;}#my-svg :root{--mermaid-font-family:"trebuchet ms",verdana,arial,sans-serif;}</style><g/><defs><marker orient="auto" markerHeight="240" markerWidth="190" refY="7" refX="0" id="MD_PARENT_START"><path d="M 18,7 L9,13 L1,7 L9,1 Z"/></marker></defs><defs><marker orient="auto" markerHeight="28" markerWidth="20" refY="7" refX="19" id="MD_PARENT_END"><path d="M 18,7 L9,13 L1,7 L9,1 Z"/></marker></defs><defs><marker orient="auto" markerHeight="18" markerWidth="18" refY="9" refX="0" id="ONLY_ONE_START"><path d="M9,0 L9,18 M15,0 L15,18" fill="none" stroke="gray"/></marker></defs><defs><marker orient="auto" markerHeight="18" markerWidth="18" refY="9" refX="18" id="ONLY_ONE_END"><path d="M3,0 L3,18 M9,0 L9,18" fill="none" stroke="gray"/></marker></defs><defs><marker orient="auto" markerHeight="18" markerWidth="30" refY="9" refX="0" id="ZERO_OR_ONE_START"><circle r="6" cy="9" cx="21" fill="white" stroke="gray"/><path d="M9,0 L9,18" fill="none" stroke="gray"/></marker></defs><defs><marker orient="auto" markerHeight="18" markerWidth="30" refY="9" refX="30" id="ZERO_OR_ONE_END"><circle r="6" cy="9" cx="9" fill="white" stroke="gray"/><path d="M21,0 L21,18" fill="none" stroke="gray"/></marker></defs><defs><marker orient="auto" markerHeight="36" markerWidth="45" refY="18" refX="18" id="ONE_OR_MORE_START"><path d="M0,18 Q 18,0 36,18 Q 18,36 0,18 M42,9 L42,27" fill="none" stroke="gray"/></marker></defs><defs><marker orient="auto" markerHeight="36" markerWidth="45" refY="18" refX="27" id="ONE_OR_MORE_END"><path d="M3,9 L3,27 M9,18 Q27,0 45,18 Q27,36 9,18" fill="none" stroke="gray"/></marker></defs><defs><marker orient="auto" markerHeight="36" markerWidth="57" refY="18" refX="18" id="ZERO_OR_MORE_START"><circle r="6" cy="18" cx="48" fill="white" stroke="gray"/><path d="M0,18 Q18,0 36,18 Q18,36 0,18" fill="none" stroke="gray"/></marker></defs><defs><marker orient="auto" markerHeight="36" markerWidth="57" refY="18" refX="39" id="ZERO_OR_MORE_END"><circle r="6" cy="18" cx="9" fill="white" stroke="gray"/><path d="M21,18 Q39,0 57,18 Q39,36 21,18" fill="none" stroke="gray"/></marker></defs><path style="stroke: gray; fill: none;" marker-start="url(#ONLY_ONE_START)" marker-end="url(#ZERO_OR_MORE_END)" d="M417.961,303.677L359.967,338.731C301.974,373.785,185.987,443.892,127.993,487.279C70,530.667,70,547.333,70,555.667L70,564" class="er relationshipLine"/><path style="stroke: gray; fill: none;" marker-start="url(#ONLY_ONE_START)" marker-end="url(#ZERO_OR_MORE_END)" d="M417.961,321.299L376.634,353.416C335.307,385.533,252.654,449.766,236.327,492.821C220,535.875,270,557.75,295,568.688L320,579.625" class="er relationshipLine"/><path style="stroke: gray; fill: none;" marker-start="url(#ONLY_ONE_START)" marker-end="url(#ZERO_OR_MORE_END)" d="M622.039,427.031L630.033,441.526C638.026,456.021,654.013,485.01,662.007,507.838C670,530.667,670,547.333,670,555.667L670,564" class="er relationshipLine"/><path style="stroke: gray; fill: none;" marker-start="url(#ONLY_ONE_START)" marker-end="url(#ZERO_OR_MORE_END)" d="M417.961,353.019L393.301,379.849C368.641,406.679,319.32,460.34,304.184,495.503C289.048,530.667,308.095,547.333,317.619,555.667L327.143,564" class="er relationshipLine"/><path style="stroke: gray; fill: none;" marker-start="url(#ONLY_ONE_START)" marker-end="url(#ZERO_OR_MORE_END)" d="M417.961,427.031L409.967,441.526C401.974,456.021,385.987,485.01,377.993,507.838C370,530.667,370,547.333,370,555.667L370,564" class="er relationshipLine"/><path style="stroke: gray; fill: none;" marker-start="url(#ONLY_ONE_START)" marker-end="url(#ZERO_OR_MORE_END)" d="M479.191,464L477.659,472.333C476.127,480.667,473.064,497.333,462.008,514C450.952,530.667,431.905,547.333,422.381,555.667L412.857,564" class="er relationshipLine"/><path style="stroke: gray; fill: none;" marker-start="url(#ONLY_ONE_START)" marker-end="url(#ZERO_OR_MORE_END)" d="M622.039,321.299L663.366,353.416C704.693,385.533,787.346,449.766,828.673,490.216C870,530.667,870,547.333,870,555.667L870,564" class="er relationshipLine"/><path style="stroke: gray; fill: none;" marker-start="url(#ONLY_ONE_START)" marker-end="url(#ZERO_OR_MORE_END)" d="M622.039,290.976L699.482,328.147C776.924,365.318,931.81,439.659,1009.253,485.163C1086.695,530.667,1086.695,547.333,1086.695,555.667L1086.695,564" class="er relationshipLine"/><path style="stroke: gray; fill: none;" marker-start="url(#ONLY_ONE_START)" marker-end="url(#ZERO_OR_MORE_END)" d="M560.809,464L562.341,472.333C563.873,480.667,566.936,497.333,543.468,516.604C520,535.875,470,557.75,445,568.688L420,579.625" class="er relationshipLine"/><path style="stroke: gray; fill: none;" marker-start="url(#ONLY_ONE_START)" marker-end="url(#ZERO_OR_MORE_END)" d="M622.039,277.429L735.598,316.857C849.156,356.286,1076.273,435.143,1189.832,482.905C1303.391,530.667,1303.391,547.333,1303.391,555.667L1303.391,564" class="er relationshipLine"/><g transform="translate(417.9609375,20 )" id="entity-InformAction-47657477-0fa6-55a7-9899-0ed86f94b402"><rect height="444" width="204.078125" y="0" x="0" class="er entityBox"/><text style="dominant-baseline: middle; text-anchor: middle; font-size: 12px;" transform="translate(102.0390625,12)" y="0" x="0" id="text-entity-InformAction-47657477-0fa6-55a7-9899-0ed86f94b402" class="er entityLabel">InformAction</text><rect height="21" width="57.0625" y="24" x="0" class="er attributeBoxOdd"/><text style="dominant-baseline: middle; font-size: 10.2px;" transform="translate(5,34.5)" y="0" x="0" id="text-entity-InformAction-47657477-0fa6-55a7-9899-0ed86f94b402-attr-1-type" class="er entityLabel">stringList</text><rect height="21" width="147.015625" y="24" x="57.0625" class="er attributeBoxOdd"/><text style="dominant-baseline: middle; font-size: 10.2px;" transform="translate(62.0625,34.5)" y="0" x="0" id="text-entity-InformAction-47657477-0fa6-55a7-9899-0ed86f94b402-attr-1-name" class="er entityLabel">recipient</text><rect height="21" width="57.0625" y="45" x="0" class="er attributeBoxEven"/><text style="dominant-baseline: middle; font-size: 10.2px;" transform="translate(5,55.5)" y="0" x="0" id="text-entity-InformAction-47657477-0fa6-55a7-9899-0ed86f94b402-attr-2-type" class="er entityLabel">stringList</text><rect height="21" width="147.015625" y="45" x="57.0625" class="er attributeBoxEven"/><text style="dominant-baseline: middle; font-size: 10.2px;" transform="translate(62.0625,55.5)" y="0" x="0" id="text-entity-InformAction-47657477-0fa6-55a7-9899-0ed86f94b402-attr-2-name" class="er entityLabel">inLanguage</text><rect height="21" width="57.0625" y="66" x="0" class="er attributeBoxOdd"/><text style="dominant-baseline: middle; font-size: 10.2px;" transform="translate(5,76.5)" y="0" x="0" id="text-entity-InformAction-47657477-0fa6-55a7-9899-0ed86f94b402-attr-3-type" class="er entityLabel">stringList</text><rect height="21" width="147.015625" y="66" x="57.0625" class="er attributeBoxOdd"/><text style="dominant-baseline: middle; font-size: 10.2px;" transform="translate(62.0625,76.5)" y="0" x="0" id="text-entity-InformAction-47657477-0fa6-55a7-9899-0ed86f94b402-attr-3-name" class="er entityLabel">location</text><rect height="21" width="57.0625" y="87" x="0" class="er attributeBoxEven"/><text style="dominant-baseline: middle; font-size: 10.2px;" transform="translate(5,97.5)" y="0" x="0" id="text-entity-InformAction-47657477-0fa6-55a7-9899-0ed86f94b402-attr-4-type" class="er entityLabel">stringList</text><rect height="21" width="147.015625" y="87" x="57.0625" class="er attributeBoxEven"/><text style="dominant-baseline: middle; font-size: 10.2px;" transform="translate(62.0625,97.5)" y="0" x="0" id="text-entity-InformAction-47657477-0fa6-55a7-9899-0ed86f94b402-attr-4-name" class="er entityLabel">participant</text><rect height="21" width="57.0625" y="108" x="0" class="er attributeBoxOdd"/><text style="dominant-baseline: middle; font-size: 10.2px;" transform="translate(5,118.5)" y="0" x="0" id="text-entity-InformAction-47657477-0fa6-55a7-9899-0ed86f94b402-attr-5-type" class="er entityLabel">stringList</text><rect height="21" width="147.015625" y="108" x="57.0625" class="er attributeBoxOdd"/><text style="dominant-baseline: middle; font-size: 10.2px;" transform="translate(62.0625,118.5)" y="0" x="0" id="text-entity-InformAction-47657477-0fa6-55a7-9899-0ed86f94b402-attr-5-name" class="er entityLabel">agent</text><rect height="21" width="57.0625" y="129" x="0" class="er attributeBoxEven"/><text style="dominant-baseline: middle; font-size: 10.2px;" transform="translate(5,139.5)" y="0" x="0" id="text-entity-InformAction-47657477-0fa6-55a7-9899-0ed86f94b402-attr-6-type" class="er entityLabel">stringList</text><rect height="21" width="147.015625" y="129" x="57.0625" class="er attributeBoxEven"/><text style="dominant-baseline: middle; font-size: 10.2px;" transform="translate(62.0625,139.5)" y="0" x="0" id="text-entity-InformAction-47657477-0fa6-55a7-9899-0ed86f94b402-attr-6-name" class="er entityLabel">endTime</text><rect height="21" width="57.0625" y="150" x="0" class="er attributeBoxOdd"/><text style="dominant-baseline: middle; font-size: 10.2px;" transform="translate(5,160.5)" y="0" x="0" id="text-entity-InformAction-47657477-0fa6-55a7-9899-0ed86f94b402-attr-7-type" class="er entityLabel">stringList</text><rect height="21" width="147.015625" y="150" x="57.0625" class="er attributeBoxOdd"/><text style="dominant-baseline: middle; font-size: 10.2px;" transform="translate(62.0625,160.5)" y="0" x="0" id="text-entity-InformAction-47657477-0fa6-55a7-9899-0ed86f94b402-attr-7-name" class="er entityLabel">provider</text><rect height="21" width="57.0625" y="171" x="0" class="er attributeBoxEven"/><text style="dominant-baseline: middle; font-size: 10.2px;" transform="translate(5,181.5)" y="0" x="0" id="text-entity-InformAction-47657477-0fa6-55a7-9899-0ed86f94b402-attr-8-type" class="er entityLabel">stringList</text><rect height="21" width="147.015625" y="171" x="57.0625" class="er attributeBoxEven"/><text style="dominant-baseline: middle; font-size: 10.2px;" transform="translate(62.0625,181.5)" y="0" x="0" id="text-entity-InformAction-47657477-0fa6-55a7-9899-0ed86f94b402-attr-8-name" class="er entityLabel">startTime</text><rect height="21" width="57.0625" y="192" x="0" class="er attributeBoxOdd"/><text style="dominant-baseline: middle; font-size: 10.2px;" transform="translate(5,202.5)" y="0" x="0" id="text-entity-InformAction-47657477-0fa6-55a7-9899-0ed86f94b402-attr-9-type" class="er entityLabel">stringList</text><rect height="21" width="147.015625" y="192" x="57.0625" class="er attributeBoxOdd"/><text style="dominant-baseline: middle; font-size: 10.2px;" transform="translate(62.0625,202.5)" y="0" x="0" id="text-entity-InformAction-47657477-0fa6-55a7-9899-0ed86f94b402-attr-9-name" class="er entityLabel">target</text><rect height="21" width="57.0625" y="213" x="0" class="er attributeBoxEven"/><text style="dominant-baseline: middle; font-size: 10.2px;" transform="translate(5,223.5)" y="0" x="0" id="text-entity-InformAction-47657477-0fa6-55a7-9899-0ed86f94b402-attr-10-type" class="er entityLabel">stringList</text><rect height="21" width="147.015625" y="213" x="57.0625" class="er attributeBoxEven"/><text style="dominant-baseline: middle; font-size: 10.2px;" transform="translate(62.0625,223.5)" y="0" x="0" id="text-entity-InformAction-47657477-0fa6-55a7-9899-0ed86f94b402-attr-10-name" class="er entityLabel">additionalType</text><rect height="21" width="57.0625" y="234" x="0" class="er attributeBoxOdd"/><text style="dominant-baseline: middle; font-size: 10.2px;" transform="translate(5,244.5)" y="0" x="0" id="text-entity-InformAction-47657477-0fa6-55a7-9899-0ed86f94b402-attr-11-type" class="er entityLabel">TextList</text><rect height="21" width="147.015625" y="234" x="57.0625" class="er attributeBoxOdd"/><text style="dominant-baseline: middle; font-size: 10.2px;" transform="translate(62.0625,244.5)" y="0" x="0" id="text-entity-InformAction-47657477-0fa6-55a7-9899-0ed86f94b402-attr-11-name" class="er entityLabel">alternateName</text><rect height="21" width="57.0625" y="255" x="0" class="er attributeBoxEven"/><text style="dominant-baseline: middle; font-size: 10.2px;" transform="translate(5,265.5)" y="0" x="0" id="text-entity-InformAction-47657477-0fa6-55a7-9899-0ed86f94b402-attr-12-type" class="er entityLabel">stringList</text><rect height="21" width="147.015625" y="255" x="57.0625" class="er attributeBoxEven"/><text style="dominant-baseline: middle; font-size: 10.2px;" transform="translate(62.0625,265.5)" y="0" x="0" id="text-entity-InformAction-47657477-0fa6-55a7-9899-0ed86f94b402-attr-12-name" class="er entityLabel">description</text><rect height="21" width="57.0625" y="276" x="0" class="er attributeBoxOdd"/><text style="dominant-baseline: middle; font-size: 10.2px;" transform="translate(5,286.5)" y="0" x="0" id="text-entity-InformAction-47657477-0fa6-55a7-9899-0ed86f94b402-attr-13-type" class="er entityLabel">TextList</text><rect height="21" width="147.015625" y="276" x="57.0625" class="er attributeBoxOdd"/><text style="dominant-baseline: middle; font-size: 10.2px;" transform="translate(62.0625,286.5)" y="0" x="0" id="text-entity-InformAction-47657477-0fa6-55a7-9899-0ed86f94b402-attr-13-name" class="er entityLabel">disambiguatingDescription</text><rect height="21" width="57.0625" y="297" x="0" class="er attributeBoxEven"/><text style="dominant-baseline: middle; font-size: 10.2px;" transform="translate(5,307.5)" y="0" x="0" id="text-entity-InformAction-47657477-0fa6-55a7-9899-0ed86f94b402-attr-14-type" class="er entityLabel">stringList</text><rect height="21" width="147.015625" y="297" x="57.0625" class="er attributeBoxEven"/><text style="dominant-baseline: middle; font-size: 10.2px;" transform="translate(62.0625,307.5)" y="0" x="0" id="text-entity-InformAction-47657477-0fa6-55a7-9899-0ed86f94b402-attr-14-name" class="er entityLabel">identifier</text><rect height="21" width="57.0625" y="318" x="0" class="er attributeBoxOdd"/><text style="dominant-baseline: middle; font-size: 10.2px;" transform="translate(5,328.5)" y="0" x="0" id="text-entity-InformAction-47657477-0fa6-55a7-9899-0ed86f94b402-attr-15-type" class="er entityLabel">stringList</text><rect height="21" width="147.015625" y="318" x="57.0625" class="er attributeBoxOdd"/><text style="dominant-baseline: middle; font-size: 10.2px;" transform="translate(62.0625,328.5)" y="0" x="0" id="text-entity-InformAction-47657477-0fa6-55a7-9899-0ed86f94b402-attr-15-name" class="er entityLabel">image</text><rect height="21" width="57.0625" y="339" x="0" class="er attributeBoxEven"/><text style="dominant-baseline: middle; font-size: 10.2px;" transform="translate(5,349.5)" y="0" x="0" id="text-entity-InformAction-47657477-0fa6-55a7-9899-0ed86f94b402-attr-16-type" class="er entityLabel">TextList</text><rect height="21" width="147.015625" y="339" x="57.0625" class="er attributeBoxEven"/><text style="dominant-baseline: middle; font-size: 10.2px;" transform="translate(62.0625,349.5)" y="0" x="0" id="text-entity-InformAction-47657477-0fa6-55a7-9899-0ed86f94b402-attr-16-name" class="er entityLabel">name</text><rect height="21" width="57.0625" y="360" x="0" class="er attributeBoxOdd"/><text style="dominant-baseline: middle; font-size: 10.2px;" transform="translate(5,370.5)" y="0" x="0" id="text-entity-InformAction-47657477-0fa6-55a7-9899-0ed86f94b402-attr-17-type" class="er entityLabel">URLList</text><rect height="21" width="147.015625" y="360" x="57.0625" class="er attributeBoxOdd"/><text style="dominant-baseline: middle; font-size: 10.2px;" transform="translate(62.0625,370.5)" y="0" x="0" id="text-entity-InformAction-47657477-0fa6-55a7-9899-0ed86f94b402-attr-17-name" class="er entityLabel">sameAs</text><rect height="21" width="57.0625" y="381" x="0" class="er attributeBoxEven"/><text style="dominant-baseline: middle; font-size: 10.2px;" transform="translate(5,391.5)" y="0" x="0" id="text-entity-InformAction-47657477-0fa6-55a7-9899-0ed86f94b402-attr-18-type" class="er entityLabel">stringList</text><rect height="21" width="147.015625" y="381" x="57.0625" class="er attributeBoxEven"/><text style="dominant-baseline: middle; font-size: 10.2px;" transform="translate(62.0625,391.5)" y="0" x="0" id="text-entity-InformAction-47657477-0fa6-55a7-9899-0ed86f94b402-attr-18-name" class="er entityLabel">mainEntityOfPage</text><rect height="21" width="57.0625" y="402" x="0" class="er attributeBoxOdd"/><text style="dominant-baseline: middle; font-size: 10.2px;" transform="translate(5,412.5)" y="0" x="0" id="text-entity-InformAction-47657477-0fa6-55a7-9899-0ed86f94b402-attr-19-type" class="er entityLabel">stringList</text><rect height="21" width="147.015625" y="402" x="57.0625" class="er attributeBoxOdd"/><text style="dominant-baseline: middle; font-size: 10.2px;" transform="translate(62.0625,412.5)" y="0" x="0" id="text-entity-InformAction-47657477-0fa6-55a7-9899-0ed86f94b402-attr-19-name" class="er entityLabel">subjectOf</text><rect height="21" width="57.0625" y="423" x="0" class="er attributeBoxEven"/><text style="dominant-baseline: middle; font-size: 10.2px;" transform="translate(5,433.5)" y="0" x="0" id="text-entity-InformAction-47657477-0fa6-55a7-9899-0ed86f94b402-attr-20-type" class="er entityLabel">URLList</text><rect height="21" width="147.015625" y="423" x="57.0625" class="er attributeBoxEven"/><text style="dominant-baseline: middle; font-size: 10.2px;" transform="translate(62.0625,433.5)" y="0" x="0" id="text-entity-InformAction-47657477-0fa6-55a7-9899-0ed86f94b402-attr-20-name" class="er entityLabel">url</text></g><g transform="translate(20,564 )" id="entity-Event-5fcfcec5-0af7-59ba-bebb-bb0a822c8afa"><rect height="75" width="100" y="0" x="0" class="er entityBox"/><text style="dominant-baseline: middle; text-anchor: middle; font-size: 12px;" transform="translate(50,37.5)" y="0" x="0" id="text-entity-Event-5fcfcec5-0af7-59ba-bebb-bb0a822c8afa" class="er entityLabel">Event</text></g><g transform="translate(320,564 )" id="entity-Thing-27bc9527-b992-59fc-a0fb-da83e2ff80bf"><rect height="75" width="100" y="0" x="0" class="er entityBox"/><text style="dominant-baseline: middle; text-anchor: middle; font-size: 12px;" transform="translate(50,37.5)" y="0" x="0" id="text-entity-Thing-27bc9527-b992-59fc-a0fb-da83e2ff80bf" class="er entityLabel">Thing</text></g><g transform="translate(620,564 )" id="entity-Language-5612d7a2-2e96-5fdd-95c5-f1c790495640"><rect height="75" width="100" y="0" x="0" class="er entityBox"/><text style="dominant-baseline: middle; text-anchor: middle; font-size: 12px;" transform="translate(50,37.5)" y="0" x="0" id="text-entity-Language-5612d7a2-2e96-5fdd-95c5-f1c790495640" class="er entityLabel">Language</text></g><g transform="translate(820,564 )" id="entity-HowTo-6f9e6b0e-89c2-59a9-964a-8696b3aa66a4"><rect height="75" width="100" y="0" x="0" class="er entityBox"/><text style="dominant-baseline: middle; text-anchor: middle; font-size: 12px;" transform="translate(50,37.5)" y="0" x="0" id="text-entity-HowTo-6f9e6b0e-89c2-59a9-964a-8696b3aa66a4" class="er entityLabel">HowTo</text></g><g transform="translate(1020,564 )" id="entity-ActionStatusType-935590f3-1b2a-599d-8a3e-9af222825f06"><rect height="75" width="133.390625" y="0" x="0" class="er entityBox"/><text style="dominant-baseline: middle; text-anchor: middle; font-size: 12px;" transform="translate(66.6953125,37.5)" y="0" x="0" id="text-entity-ActionStatusType-935590f3-1b2a-599d-8a3e-9af222825f06" class="er entityLabel">ActionStatusType</text></g><g transform="translate(1253.390625,564 )" id="entity-Action-6cd87d9a-a078-546e-a35b-bee54f477b31"><rect height="75" width="100" y="0" x="0" class="er entityBox"/><text style="dominant-baseline: middle; text-anchor: middle; font-size: 12px;" transform="translate(50,37.5)" y="0" x="0" id="text-entity-Action-6cd87d9a-a078-546e-a35b-bee54f477b31" class="er entityLabel">Action</text></g><rect height="14" width="34.47265625" y="412.5699157714844" x="211.39764404296875" class="er relationshipLabelBox"/><text style="text-anchor: middle; dominant-baseline: middle; font-size: 12px;" y="419.5699157714844" x="228.63397216796875" id="rel1" class="er relationshipLabel">event</text><rect height="14" width="34.91796875" y="438.49346923828125" x="252.54827880859375" class="er relationshipLabelBox"/><text style="text-anchor: middle; dominant-baseline: middle; font-size: 12px;" y="445.49346923828125" x="270.00726318359375" id="rel2" class="er relationshipLabel">about</text><rect height="14" width="55.875" y="485.4292297363281" x="627.9478759765625" class="er relationshipLabelBox"/><text style="text-anchor: middle; dominant-baseline: middle; font-size: 12px;" y="492.4292297363281" x="655.8853759765625" id="rel3" class="er relationshipLabel">language</text><rect height="14" width="66.11328125" y="444.9134216308594" x="298.42529296875" class="er relationshipLabelBox"/><text style="text-anchor: middle; dominant-baseline: middle; font-size: 12px;" y="451.9134216308594" x="331.48193359375" id="rel4" class="er relationshipLabel">instrument</text><rect height="14" width="37.2734375" y="485.4292297363281" x="365.47796630859375" class="er relationshipLabelBox"/><text style="text-anchor: middle; dominant-baseline: middle; font-size: 12px;" y="492.4292297363281" x="384.11468505859375" id="rel5" class="er relationshipLabel">object</text><rect height="14" width="34.244140625" y="513.880859375" x="439.8958435058594" class="er relationshipLabelBox"/><text style="text-anchor: middle; dominant-baseline: middle; font-size: 12px;" y="520.880859375" x="457.0179138183594" id="rel6" class="er relationshipLabel">result</text><rect height="14" width="82.46875" y="424.13409423828125" x="720.0200805664062" class="er relationshipLabelBox"/><text style="text-anchor: middle; dominant-baseline: middle; font-size: 12px;" y="431.13409423828125" x="761.2544555664062" id="rel7" class="er relationshipLabel">actionProcess</text><rect height="14" width="75.1875" y="403.9793701171875" x="831.6802368164062" class="er relationshipLabelBox"/><text style="text-anchor: middle; dominant-baseline: middle; font-size: 12px;" y="410.9793701171875" x="869.2739868164062" id="rel8" class="er relationshipLabel">actionStatus</text><rect height="14" width="29.1171875" y="530.9111328125" x="495.4407043457031" class="er relationshipLabelBox"/><text style="text-anchor: middle; dominant-baseline: middle; font-size: 12px;" y="537.9111328125" x="509.9992980957031" id="rel9" class="er relationshipLabel">error</text><rect height="14" width="90.96875" y="394.7026672363281" x="930.9620971679688" class="er relationshipLabelBox"/><text style="text-anchor: middle; dominant-baseline: middle; font-size: 12px;" y="401.7026672363281" x="976.4464721679688" id="rel10" class="er relationshipLabel">potentialAction</text></svg>