<svg aria-roledescription="er" role="graphics-document document" viewBox="0 0 840 449" style="max-width: 840px; background-color: white;" xmlns:xlink="http://www.w3.org/1999/xlink" xmlns="http://www.w3.org/2000/svg" width="100%" id="my-svg"><style>#my-svg{font-family:"trebuchet ms",verdana,arial,sans-serif;font-size:16px;fill:#333;}#my-svg .error-icon{fill:#552222;}#my-svg .error-text{fill:#552222;stroke:#552222;}#my-svg .edge-thickness-normal{stroke-width:1px;}#my-svg .edge-thickness-thick{stroke-width:3.5px;}#my-svg .edge-pattern-solid{stroke-dasharray:0;}#my-svg .edge-thickness-invisible{stroke-width:0;fill:none;}#my-svg .edge-pattern-dashed{stroke-dasharray:3;}#my-svg .edge-pattern-dotted{stroke-dasharray:2;}#my-svg .marker{fill:#333333;stroke:#333333;}#my-svg .marker.cross{stroke:#333333;}#my-svg svg{font-family:"trebuchet ms",verdana,arial,sans-serif;font-size:16px;}#my-svg p{margin:0;}#my-svg .entityBox{fill:#ECECFF;stroke:#9370DB;}#my-svg .attributeBoxOdd{fill:#ffffff;stroke:#9370DB;}#my-svg .attributeBoxEven{fill:#f2f2f2;stroke:#9370DB;}#my-svg .relationshipLabelBox{fill:hsl(80, 100%, 96.2745098039%);opacity:0.7;background-color:hsl(80, 100%, 96.2745098039%);}#my-svg .relationshipLabelBox rect{opacity:0.5;}#my-svg .relationshipLine{stroke:#333333;}#my-svg .entityTitleText{text-anchor:middle;font-size:18px;fill:#333;}#my-svg #MD_PARENT_START{fill:#f5f5f5!important;stroke:#333333!important;stroke-width:1;}#my-svg #MD_PARENT_END{fill:#f5f5f5!important;stroke:#333333!important;stroke-width:1;}#my-svg :root{--mermaid-font-family:"trebuchet ms",verdana,arial,sans-serif;}</style><g/><defs><marker orient="auto" markerHeight="240" markerWidth="190" refY="7" refX="0" id="MD_PARENT_START"><path d="M 18,7 L9,13 L1,7 L9,1 Z"/></marker></defs><defs><marker orient="auto" markerHeight="28" markerWidth="20" refY="7" refX="19" id="MD_PARENT_END"><path d="M 18,7 L9,13 L1,7 L9,1 Z"/></marker></defs><defs><marker orient="auto" markerHeight="18" markerWidth="18" refY="9" refX="0" id="ONLY_ONE_START"><path d="M9,0 L9,18 M15,0 L15,18" fill="none" stroke="gray"/></marker></defs><defs><marker orient="auto" markerHeight="18" markerWidth="18" refY="9" refX="18" id="ONLY_ONE_END"><path d="M3,0 L3,18 M9,0 L9,18" fill="none" stroke="gray"/></marker></defs><defs><marker orient="auto" markerHeight="18" markerWidth="30" refY="9" refX="0" id="ZERO_OR_ONE_START"><circle r="6" cy="9" cx="21" fill="white" stroke="gray"/><path d="M9,0 L9,18" fill="none" stroke="gray"/></marker></defs><defs><marker orient="auto" markerHeight="18" markerWidth="30" refY="9" refX="30" id="ZERO_OR_ONE_END"><circle r="6" cy="9" cx="9" fill="white" stroke="gray"/><path d="M21,0 L21,18" fill="none" stroke="gray"/></marker></defs><defs><marker orient="auto" markerHeight="36" markerWidth="45" refY="18" refX="18" id="ONE_OR_MORE_START"><path d="M0,18 Q 18,0 36,18 Q 18,36 0,18 M42,9 L42,27" fill="none" stroke="gray"/></marker></defs><defs><marker orient="auto" markerHeight="36" markerWidth="45" refY="18" refX="27" id="ONE_OR_MORE_END"><path d="M3,9 L3,27 M9,18 Q27,0 45,18 Q27,36 9,18" fill="none" stroke="gray"/></marker></defs><defs><marker orient="auto" markerHeight="36" markerWidth="57" refY="18" refX="18" id="ZERO_OR_MORE_START"><circle r="6" cy="18" cx="48" fill="white" stroke="gray"/><path d="M0,18 Q18,0 36,18 Q18,36 0,18" fill="none" stroke="gray"/></marker></defs><defs><marker orient="auto" markerHeight="36" markerWidth="57" refY="18" refX="39" id="ZERO_OR_MORE_END"><circle r="6" cy="18" cx="9" fill="white" stroke="gray"/><path d="M21,18 Q39,0 57,18 Q39,36 21,18" fill="none" stroke="gray"/></marker></defs><path style="stroke: gray; fill: none;" marker-start="url(#ONLY_ONE_START)" marker-end="url(#ZERO_OR_MORE_END)" d="M390.094,166.654L328.411,189.545C266.729,212.436,143.365,258.218,86.444,289.442C29.524,320.667,39.048,337.333,43.81,345.667L48.571,354" class="er relationshipLine"/><path style="stroke: gray; fill: none;" marker-start="url(#ONLY_ONE_START)" marker-end="url(#ZERO_OR_MORE_END)" d="M390.094,203.722L370.078,220.435C350.063,237.148,310.031,270.574,290.016,295.62C270,320.667,270,337.333,270,345.667L270,354" class="er relationshipLine"/><path style="stroke: gray; fill: none;" marker-start="url(#ONLY_ONE_START)" marker-end="url(#ZERO_OR_MORE_END)" d="M399.94,254L394.95,262.333C389.96,270.667,379.98,287.333,384.514,304C389.048,320.667,408.095,337.333,417.619,345.667L427.143,354" class="er relationshipLine"/><path style="stroke: gray; fill: none;" marker-start="url(#ONLY_ONE_START)" marker-end="url(#ZERO_OR_MORE_END)" d="M470,254L470,262.333C470,270.667,470,287.333,470,304C470,320.667,470,337.333,470,345.667L470,354" class="er relationshipLine"/><path style="stroke: gray; fill: none;" marker-start="url(#ONLY_ONE_START)" marker-end="url(#ZERO_OR_MORE_END)" d="M540.06,254L545.05,262.333C550.04,270.667,560.02,287.333,555.486,304C550.952,320.667,531.905,337.333,522.381,345.667L512.857,354" class="er relationshipLine"/><path style="stroke: gray; fill: none;" marker-start="url(#ONLY_ONE_START)" marker-end="url(#ZERO_OR_MORE_END)" d="M549.906,203.722L569.922,220.435C589.938,237.148,629.969,270.574,659.508,295.62C689.048,320.667,708.095,337.333,717.619,345.667L727.143,354" class="er relationshipLine"/><path style="stroke: gray; fill: none;" marker-start="url(#ONLY_ONE_START)" marker-end="url(#ZERO_OR_MORE_END)" d="M390.094,175.127L345.078,196.606C300.063,218.084,210.031,261.042,160.254,290.854C110.476,320.667,100.952,337.333,96.19,345.667L91.429,354" class="er relationshipLine"/><path style="stroke: gray; fill: none;" marker-start="url(#ONLY_ONE_START)" marker-end="url(#ZERO_OR_MORE_END)" d="M549.906,181.481L586.589,201.901C623.271,222.321,696.635,263.16,733.318,291.914C770,320.667,770,337.333,770,345.667L770,354" class="er relationshipLine"/><g transform="translate(390.09375,20 )" id="entity-InteractionCounter-106b548b-d4cf-5e9d-8f3b-a8a5a19b64b8"><rect height="234" width="159.8125" y="0" x="0" class="er entityBox"/><text style="dominant-baseline: middle; text-anchor: middle; font-size: 12px;" transform="translate(79.90625,12)" y="0" x="0" id="text-entity-InteractionCounter-106b548b-d4cf-5e9d-8f3b-a8a5a19b64b8" class="er entityLabel">InteractionCounter</text><rect height="21" width="57.0625" y="24" x="0" class="er attributeBoxOdd"/><text style="dominant-baseline: middle; font-size: 10.2px;" transform="translate(5,34.5)" y="0" x="0" id="text-entity-InteractionCounter-106b548b-d4cf-5e9d-8f3b-a8a5a19b64b8-attr-1-type" class="er entityLabel">stringList</text><rect height="21" width="102.75" y="24" x="57.0625" class="er attributeBoxOdd"/><text style="dominant-baseline: middle; font-size: 10.2px;" transform="translate(62.0625,34.5)" y="0" x="0" id="text-entity-InteractionCounter-106b548b-d4cf-5e9d-8f3b-a8a5a19b64b8-attr-1-name" class="er entityLabel">location</text><rect height="21" width="57.0625" y="45" x="0" class="er attributeBoxEven"/><text style="dominant-baseline: middle; font-size: 10.2px;" transform="translate(5,55.5)" y="0" x="0" id="text-entity-InteractionCounter-106b548b-d4cf-5e9d-8f3b-a8a5a19b64b8-attr-2-type" class="er entityLabel">stringList</text><rect height="21" width="102.75" y="45" x="57.0625" class="er attributeBoxEven"/><text style="dominant-baseline: middle; font-size: 10.2px;" transform="translate(62.0625,55.5)" y="0" x="0" id="text-entity-InteractionCounter-106b548b-d4cf-5e9d-8f3b-a8a5a19b64b8-attr-2-name" class="er entityLabel">endTime</text><rect height="21" width="57.0625" y="66" x="0" class="er attributeBoxOdd"/><text style="dominant-baseline: middle; font-size: 10.2px;" transform="translate(5,76.5)" y="0" x="0" id="text-entity-InteractionCounter-106b548b-d4cf-5e9d-8f3b-a8a5a19b64b8-attr-3-type" class="er entityLabel">stringList</text><rect height="21" width="102.75" y="66" x="57.0625" class="er attributeBoxOdd"/><text style="dominant-baseline: middle; font-size: 10.2px;" transform="translate(62.0625,76.5)" y="0" x="0" id="text-entity-InteractionCounter-106b548b-d4cf-5e9d-8f3b-a8a5a19b64b8-attr-3-name" class="er entityLabel">interactionService</text><rect height="21" width="57.0625" y="87" x="0" class="er attributeBoxEven"/><text style="dominant-baseline: middle; font-size: 10.2px;" transform="translate(5,97.5)" y="0" x="0" id="text-entity-InteractionCounter-106b548b-d4cf-5e9d-8f3b-a8a5a19b64b8-attr-4-type" class="er entityLabel">stringList</text><rect height="21" width="102.75" y="87" x="57.0625" class="er attributeBoxEven"/><text style="dominant-baseline: middle; font-size: 10.2px;" transform="translate(62.0625,97.5)" y="0" x="0" id="text-entity-InteractionCounter-106b548b-d4cf-5e9d-8f3b-a8a5a19b64b8-attr-4-name" class="er entityLabel">startTime</text><rect height="21" width="57.0625" y="108" x="0" class="er attributeBoxOdd"/><text style="dominant-baseline: middle; font-size: 10.2px;" transform="translate(5,118.5)" y="0" x="0" id="text-entity-InteractionCounter-106b548b-d4cf-5e9d-8f3b-a8a5a19b64b8-attr-5-type" class="er entityLabel">stringList</text><rect height="21" width="102.75" y="108" x="57.0625" class="er attributeBoxOdd"/><text style="dominant-baseline: middle; font-size: 10.2px;" transform="translate(62.0625,118.5)" y="0" x="0" id="text-entity-InteractionCounter-106b548b-d4cf-5e9d-8f3b-a8a5a19b64b8-attr-5-name" class="er entityLabel">additionalType</text><rect height="21" width="57.0625" y="129" x="0" class="er attributeBoxEven"/><text style="dominant-baseline: middle; font-size: 10.2px;" transform="translate(5,139.5)" y="0" x="0" id="text-entity-InteractionCounter-106b548b-d4cf-5e9d-8f3b-a8a5a19b64b8-attr-6-type" class="er entityLabel">stringList</text><rect height="21" width="102.75" y="129" x="57.0625" class="er attributeBoxEven"/><text style="dominant-baseline: middle; font-size: 10.2px;" transform="translate(62.0625,139.5)" y="0" x="0" id="text-entity-InteractionCounter-106b548b-d4cf-5e9d-8f3b-a8a5a19b64b8-attr-6-name" class="er entityLabel">description</text><rect height="21" width="57.0625" y="150" x="0" class="er attributeBoxOdd"/><text style="dominant-baseline: middle; font-size: 10.2px;" transform="translate(5,160.5)" y="0" x="0" id="text-entity-InteractionCounter-106b548b-d4cf-5e9d-8f3b-a8a5a19b64b8-attr-7-type" class="er entityLabel">stringList</text><rect height="21" width="102.75" y="150" x="57.0625" class="er attributeBoxOdd"/><text style="dominant-baseline: middle; font-size: 10.2px;" transform="translate(62.0625,160.5)" y="0" x="0" id="text-entity-InteractionCounter-106b548b-d4cf-5e9d-8f3b-a8a5a19b64b8-attr-7-name" class="er entityLabel">identifier</text><rect height="21" width="57.0625" y="171" x="0" class="er attributeBoxEven"/><text style="dominant-baseline: middle; font-size: 10.2px;" transform="translate(5,181.5)" y="0" x="0" id="text-entity-InteractionCounter-106b548b-d4cf-5e9d-8f3b-a8a5a19b64b8-attr-8-type" class="er entityLabel">stringList</text><rect height="21" width="102.75" y="171" x="57.0625" class="er attributeBoxEven"/><text style="dominant-baseline: middle; font-size: 10.2px;" transform="translate(62.0625,181.5)" y="0" x="0" id="text-entity-InteractionCounter-106b548b-d4cf-5e9d-8f3b-a8a5a19b64b8-attr-8-name" class="er entityLabel">image</text><rect height="21" width="57.0625" y="192" x="0" class="er attributeBoxOdd"/><text style="dominant-baseline: middle; font-size: 10.2px;" transform="translate(5,202.5)" y="0" x="0" id="text-entity-InteractionCounter-106b548b-d4cf-5e9d-8f3b-a8a5a19b64b8-attr-9-type" class="er entityLabel">stringList</text><rect height="21" width="102.75" y="192" x="57.0625" class="er attributeBoxOdd"/><text style="dominant-baseline: middle; font-size: 10.2px;" transform="translate(62.0625,202.5)" y="0" x="0" id="text-entity-InteractionCounter-106b548b-d4cf-5e9d-8f3b-a8a5a19b64b8-attr-9-name" class="er entityLabel">mainEntityOfPage</text><rect height="21" width="57.0625" y="213" x="0" class="er attributeBoxEven"/><text style="dominant-baseline: middle; font-size: 10.2px;" transform="translate(5,223.5)" y="0" x="0" id="text-entity-InteractionCounter-106b548b-d4cf-5e9d-8f3b-a8a5a19b64b8-attr-10-type" class="er entityLabel">stringList</text><rect height="21" width="102.75" y="213" x="57.0625" class="er attributeBoxEven"/><text style="dominant-baseline: middle; font-size: 10.2px;" transform="translate(62.0625,223.5)" y="0" x="0" id="text-entity-InteractionCounter-106b548b-d4cf-5e9d-8f3b-a8a5a19b64b8-attr-10-name" class="er entityLabel">subjectOf</text></g><g transform="translate(20,354 )" id="entity-Action-6cd87d9a-a078-546e-a35b-bee54f477b31"><rect height="75" width="100" y="0" x="0" class="er entityBox"/><text style="dominant-baseline: middle; text-anchor: middle; font-size: 12px;" transform="translate(50,37.5)" y="0" x="0" id="text-entity-Action-6cd87d9a-a078-546e-a35b-bee54f477b31" class="er entityLabel">Action</text></g><g transform="translate(220,354 )" id="entity-Integer-fc94dbf2-2dc2-55cd-ac16-6d1e48f8bef9"><rect height="75" width="100" y="0" x="0" class="er entityBox"/><text style="dominant-baseline: middle; text-anchor: middle; font-size: 12px;" transform="translate(50,37.5)" y="0" x="0" id="text-entity-Integer-fc94dbf2-2dc2-55cd-ac16-6d1e48f8bef9" class="er entityLabel">Integer</text></g><g transform="translate(420,354 )" id="entity-Text-426c5d39-acfc-5487-a6d9-ede67887190e"><rect height="75" width="100" y="0" x="0" class="er entityBox"/><text style="dominant-baseline: middle; text-anchor: middle; font-size: 12px;" transform="translate(50,37.5)" y="0" x="0" id="text-entity-Text-426c5d39-acfc-5487-a6d9-ede67887190e" class="er entityLabel">Text</text></g><g transform="translate(720,354 )" id="entity-URL-07f78d3e-fd74-5925-b39b-26c1cc2d6b7c"><rect height="75" width="100" y="0" x="0" class="er entityBox"/><text style="dominant-baseline: middle; text-anchor: middle; font-size: 12px;" transform="translate(50,37.5)" y="0" x="0" id="text-entity-URL-07f78d3e-fd74-5925-b39b-26c1cc2d6b7c" class="er entityLabel">URL</text></g><rect height="14" width="92.46875" y="233.4534912109375" x="149.22137451171875" class="er relationshipLabelBox"/><text style="text-anchor: middle; dominant-baseline: middle; font-size: 12px;" y="240.4534912109375" x="195.45574951171875" id="rel1" class="er relationshipLabel">interactionType</text><rect height="14" width="127.208984375" y="262.1049499511719" x="251.20663452148438" class="er relationshipLabelBox"/><text style="text-anchor: middle; dominant-baseline: middle; font-size: 12px;" y="269.1049499511719" x="314.8111267089844" id="rel2" class="er relationshipLabel">userInteractionCount</text><rect height="14" width="89.953125" y="302.9292297363281" x="341.7290954589844" class="er relationshipLabelBox"/><text style="text-anchor: middle; dominant-baseline: middle; font-size: 12px;" y="309.9292297363281" x="386.7056579589844" id="rel3" class="er relationshipLabel">alternateName</text><rect height="14" width="161.390625" y="297" x="389.3046875" class="er relationshipLabelBox"/><text style="text-anchor: middle; dominant-baseline: middle; font-size: 12px;" y="304" x="470" id="rel4" class="er relationshipLabel">disambiguatingDescription</text><rect height="14" width="34.03125" y="302.92919921875" x="536.278564453125" class="er relationshipLabelBox"/><text style="text-anchor: middle; dominant-baseline: middle; font-size: 12px;" y="309.92919921875" x="553.294189453125" id="rel5" class="er relationshipLabel">name</text><rect height="14" width="47.140625" y="271.30084228515625" x="615.4306640625" class="er relationshipLabelBox"/><text style="text-anchor: middle; dominant-baseline: middle; font-size: 12px;" y="278.30084228515625" x="639.0009765625" id="rel6" class="er relationshipLabel">sameAs</text><rect height="14" width="90.96875" y="245.08401489257812" x="186.2122039794922" class="er relationshipLabelBox"/><text style="text-anchor: middle; dominant-baseline: middle; font-size: 12px;" y="252.08401489257812" x="231.6965789794922" id="rel7" class="er relationshipLabel">potentialAction</text><rect height="14" width="15.875" y="246.36358642578125" x="667.916748046875" class="er relationshipLabelBox"/><text style="text-anchor: middle; dominant-baseline: middle; font-size: 12px;" y="253.36358642578125" x="675.854248046875" id="rel8" class="er relationshipLabel">url</text></svg>