<svg aria-roledescription="er" role="graphics-document document" viewBox="0 0 3395.076171875 680" style="max-width: 3395.08px; background-color: white;" xmlns:xlink="http://www.w3.org/1999/xlink" xmlns="http://www.w3.org/2000/svg" width="100%" id="my-svg"><style>#my-svg{font-family:"trebuchet ms",verdana,arial,sans-serif;font-size:16px;fill:#333;}#my-svg .error-icon{fill:#552222;}#my-svg .error-text{fill:#552222;stroke:#552222;}#my-svg .edge-thickness-normal{stroke-width:1px;}#my-svg .edge-thickness-thick{stroke-width:3.5px;}#my-svg .edge-pattern-solid{stroke-dasharray:0;}#my-svg .edge-thickness-invisible{stroke-width:0;fill:none;}#my-svg .edge-pattern-dashed{stroke-dasharray:3;}#my-svg .edge-pattern-dotted{stroke-dasharray:2;}#my-svg .marker{fill:#333333;stroke:#333333;}#my-svg .marker.cross{stroke:#333333;}#my-svg svg{font-family:"trebuchet ms",verdana,arial,sans-serif;font-size:16px;}#my-svg p{margin:0;}#my-svg .entityBox{fill:#ECECFF;stroke:#9370DB;}#my-svg .attributeBoxOdd{fill:#ffffff;stroke:#9370DB;}#my-svg .attributeBoxEven{fill:#f2f2f2;stroke:#9370DB;}#my-svg .relationshipLabelBox{fill:hsl(80, 100%, 96.2745098039%);opacity:0.7;background-color:hsl(80, 100%, 96.2745098039%);}#my-svg .relationshipLabelBox rect{opacity:0.5;}#my-svg .relationshipLine{stroke:#333333;}#my-svg .entityTitleText{text-anchor:middle;font-size:18px;fill:#333;}#my-svg #MD_PARENT_START{fill:#f5f5f5!important;stroke:#333333!important;stroke-width:1;}#my-svg #MD_PARENT_END{fill:#f5f5f5!important;stroke:#333333!important;stroke-width:1;}#my-svg :root{--mermaid-font-family:"trebuchet ms",verdana,arial,sans-serif;}</style><g/><defs><marker orient="auto" markerHeight="240" markerWidth="190" refY="7" refX="0" id="MD_PARENT_START"><path d="M 18,7 L9,13 L1,7 L9,1 Z"/></marker></defs><defs><marker orient="auto" markerHeight="28" markerWidth="20" refY="7" refX="19" id="MD_PARENT_END"><path d="M 18,7 L9,13 L1,7 L9,1 Z"/></marker></defs><defs><marker orient="auto" markerHeight="18" markerWidth="18" refY="9" refX="0" id="ONLY_ONE_START"><path d="M9,0 L9,18 M15,0 L15,18" fill="none" stroke="gray"/></marker></defs><defs><marker orient="auto" markerHeight="18" markerWidth="18" refY="9" refX="18" id="ONLY_ONE_END"><path d="M3,0 L3,18 M9,0 L9,18" fill="none" stroke="gray"/></marker></defs><defs><marker orient="auto" markerHeight="18" markerWidth="30" refY="9" refX="0" id="ZERO_OR_ONE_START"><circle r="6" cy="9" cx="21" fill="white" stroke="gray"/><path d="M9,0 L9,18" fill="none" stroke="gray"/></marker></defs><defs><marker orient="auto" markerHeight="18" markerWidth="30" refY="9" refX="30" id="ZERO_OR_ONE_END"><circle r="6" cy="9" cx="9" fill="white" stroke="gray"/><path d="M21,0 L21,18" fill="none" stroke="gray"/></marker></defs><defs><marker orient="auto" markerHeight="36" markerWidth="45" refY="18" refX="18" id="ONE_OR_MORE_START"><path d="M0,18 Q 18,0 36,18 Q 18,36 0,18 M42,9 L42,27" fill="none" stroke="gray"/></marker></defs><defs><marker orient="auto" markerHeight="36" markerWidth="45" refY="18" refX="27" id="ONE_OR_MORE_END"><path d="M3,9 L3,27 M9,18 Q27,0 45,18 Q27,36 9,18" fill="none" stroke="gray"/></marker></defs><defs><marker orient="auto" markerHeight="36" markerWidth="57" refY="18" refX="18" id="ZERO_OR_MORE_START"><circle r="6" cy="18" cx="48" fill="white" stroke="gray"/><path d="M0,18 Q18,0 36,18 Q18,36 0,18" fill="none" stroke="gray"/></marker></defs><defs><marker orient="auto" markerHeight="36" markerWidth="57" refY="18" refX="39" id="ZERO_OR_MORE_END"><circle r="6" cy="18" cx="9" fill="white" stroke="gray"/><path d="M21,18 Q39,0 57,18 Q39,36 21,18" fill="none" stroke="gray"/></marker></defs><path style="stroke: gray; fill: none;" marker-start="url(#ONLY_ONE_START)" marker-end="url(#ZERO_OR_MORE_END)" d="M1457.816,273.959L1230.261,317.466C1002.706,360.972,547.595,447.986,320.04,499.826C92.484,551.667,92.484,568.333,92.484,576.667L92.484,585" class="er relationshipLine"/><path style="stroke: gray; fill: none;" marker-start="url(#ONLY_ONE_START)" marker-end="url(#ZERO_OR_MORE_END)" d="M1457.816,277.831L1267.906,320.692C1077.997,363.554,698.177,449.277,508.267,500.472C318.357,551.667,318.357,568.333,318.357,576.667L318.357,585" class="er relationshipLine"/><path style="stroke: gray; fill: none;" marker-start="url(#ONLY_ONE_START)" marker-end="url(#ZERO_OR_MORE_END)" d="M1457.816,280.03L1284.573,322.525C1111.33,365.02,764.844,450.01,708.267,506.116C651.691,562.222,885.024,589.444,1001.691,603.056L1118.357,616.667" class="er relationshipLine"/><path style="stroke: gray; fill: none;" marker-start="url(#ONLY_ONE_START)" marker-end="url(#ZERO_OR_MORE_END)" d="M1682.287,323.225L1738.299,358.521C1794.311,393.817,1906.334,464.408,1971.87,508.038C2037.405,551.667,2056.453,568.333,2065.976,576.667L2075.5,585" class="er relationshipLine"/><path style="stroke: gray; fill: none;" marker-start="url(#ONLY_ONE_START)" marker-end="url(#ZERO_OR_MORE_END)" d="M1457.816,282.648L1301.24,324.707C1144.663,366.765,831.51,450.883,774.934,506.403C718.357,561.923,918.357,588.846,1018.357,602.308L1118.357,615.769" class="er relationshipLine"/><path style="stroke: gray; fill: none;" marker-start="url(#ONLY_ONE_START)" marker-end="url(#ZERO_OR_MORE_END)" d="M1457.816,285.816L1317.906,327.347C1177.997,368.877,898.177,451.939,841.601,506.727C785.024,561.515,951.691,588.03,1035.024,601.288L1118.357,614.545" class="er relationshipLine"/><path style="stroke: gray; fill: none;" marker-start="url(#ONLY_ONE_START)" marker-end="url(#ZERO_OR_MORE_END)" d="M1457.816,289.728L1334.573,330.606C1211.33,371.485,964.844,453.243,908.267,507.084C851.691,560.926,985.024,586.852,1051.691,599.815L1118.357,612.778" class="er relationshipLine"/><path style="stroke: gray; fill: none;" marker-start="url(#ONLY_ONE_START)" marker-end="url(#ZERO_OR_MORE_END)" d="M1682.287,294.682L1788.859,334.735C1895.43,374.788,2108.574,454.894,2215.145,503.28C2321.717,551.667,2321.717,568.333,2321.717,576.667L2321.717,585" class="er relationshipLine"/><path style="stroke: gray; fill: none;" marker-start="url(#ONLY_ONE_START)" marker-end="url(#ZERO_OR_MORE_END)" d="M1682.287,310.326L1754.966,347.772C1827.644,385.218,1973.001,460.109,2045.679,505.888C2118.357,551.667,2118.357,568.333,2118.357,576.667L2118.357,585" class="er relationshipLine"/><path style="stroke: gray; fill: none;" marker-start="url(#ONLY_ONE_START)" marker-end="url(#ZERO_OR_MORE_END)" d="M1457.816,294.68L1351.24,334.733C1244.663,374.787,1031.51,454.893,974.934,507.447C918.357,560,1018.357,585,1068.357,597.5L1118.357,610" class="er relationshipLine"/><path style="stroke: gray; fill: none;" marker-start="url(#ONLY_ONE_START)" marker-end="url(#ZERO_OR_MORE_END)" d="M1457.816,301.152L1367.906,340.127C1277.997,379.102,1098.177,457.051,1041.601,507.692C985.024,558.333,1051.691,581.667,1085.024,593.333L1118.357,605" class="er relationshipLine"/><path style="stroke: gray; fill: none;" marker-start="url(#ONLY_ONE_START)" marker-end="url(#ZERO_OR_MORE_END)" d="M1457.816,309.971L1384.573,347.476C1311.33,384.981,1164.844,459.99,1108.267,507.217C1051.691,554.444,1085.024,573.889,1101.691,583.611L1118.357,593.333" class="er relationshipLine"/><path style="stroke: gray; fill: none;" marker-start="url(#ONLY_ONE_START)" marker-end="url(#ZERO_OR_MORE_END)" d="M1682.287,301.28L1771.912,340.234C1861.537,379.187,2040.787,457.093,2120.728,504.38C2200.67,551.667,2181.302,568.333,2171.618,576.667L2161.934,585" class="er relationshipLine"/><path style="stroke: gray; fill: none;" marker-start="url(#ONLY_ONE_START)" marker-end="url(#ZERO_OR_MORE_END)" d="M1682.287,285.7L1822.752,327.25C1963.217,368.8,2244.147,451.9,2384.611,501.783C2525.076,551.667,2525.076,568.333,2525.076,576.667L2525.076,585" class="er relationshipLine"/><path style="stroke: gray; fill: none;" marker-start="url(#ONLY_ONE_START)" marker-end="url(#ZERO_OR_MORE_END)" d="M1457.816,322.695L1401.24,358.079C1344.663,393.463,1231.51,464.232,1179.696,507.949C1127.881,551.667,1137.405,568.333,1142.167,576.667L1146.929,585" class="er relationshipLine"/><path style="stroke: gray; fill: none;" marker-start="url(#ONLY_ONE_START)" marker-end="url(#ZERO_OR_MORE_END)" d="M1682.287,279.951L1856.085,322.459C2029.884,364.967,2377.48,449.984,2551.278,500.825C2725.076,551.667,2725.076,568.333,2725.076,576.667L2725.076,585" class="er relationshipLine"/><path style="stroke: gray; fill: none;" marker-start="url(#ONLY_ONE_START)" marker-end="url(#ZERO_OR_MORE_END)" d="M1457.816,342.654L1417.906,374.711C1377.997,406.769,1298.177,470.885,1253.505,511.276C1208.834,551.667,1199.31,568.333,1194.548,576.667L1189.786,585" class="er relationshipLine"/><path style="stroke: gray; fill: none;" marker-start="url(#ONLY_ONE_START)" marker-end="url(#ZERO_OR_MORE_END)" d="M1457.816,378.472L1434.573,404.56C1411.33,430.648,1364.844,482.824,1324.934,518.634C1285.024,554.444,1251.691,573.889,1235.024,583.611L1218.357,593.333" class="er relationshipLine"/><path style="stroke: gray; fill: none;" marker-start="url(#ONLY_ONE_START)" marker-end="url(#ZERO_OR_MORE_END)" d="M1457.816,461.516L1451.24,473.763C1444.663,486.011,1431.51,510.505,1391.601,534.419C1351.691,558.333,1285.024,581.667,1251.691,593.333L1218.357,605" class="er relationshipLine"/><path style="stroke: gray; fill: none;" marker-start="url(#ONLY_ONE_START)" marker-end="url(#ZERO_OR_MORE_END)" d="M1527.507,485L1525.982,493.333C1524.457,501.667,1521.407,518.333,1469.882,539.167C1418.357,560,1318.357,585,1268.357,597.5L1218.357,610" class="er relationshipLine"/><path style="stroke: gray; fill: none;" marker-start="url(#ONLY_ONE_START)" marker-end="url(#ZERO_OR_MORE_END)" d="M1682.287,275.899L1889.419,319.083C2096.55,362.266,2510.813,448.633,2717.945,500.15C2925.076,551.667,2925.076,568.333,2925.076,576.667L2925.076,585" class="er relationshipLine"/><path style="stroke: gray; fill: none;" marker-start="url(#ONLY_ONE_START)" marker-end="url(#ZERO_OR_MORE_END)" d="M1609.808,485L1611.233,493.333C1612.658,501.667,1615.508,518.333,1550.266,539.63C1485.024,560.926,1351.691,586.852,1285.024,599.815L1218.357,612.778" class="er relationshipLine"/><path style="stroke: gray; fill: none;" marker-start="url(#ONLY_ONE_START)" marker-end="url(#ZERO_OR_MORE_END)" d="M1682.287,466.292L1688.299,477.743C1694.311,489.195,1706.334,512.097,1629.012,536.806C1551.691,561.515,1385.024,588.03,1301.691,601.288L1218.357,614.545" class="er relationshipLine"/><path style="stroke: gray; fill: none;" marker-start="url(#ONLY_ONE_START)" marker-end="url(#ZERO_OR_MORE_END)" d="M1682.287,380.192L1704.966,405.993C1727.644,431.794,1773.001,483.397,1695.679,522.66C1618.357,561.923,1418.357,588.846,1318.357,602.308L1218.357,615.769" class="er relationshipLine"/><path style="stroke: gray; fill: none;" marker-start="url(#ONLY_ONE_START)" marker-end="url(#ZERO_OR_MORE_END)" d="M1682.287,343.531L1721.632,375.442C1760.977,407.354,1839.667,471.177,1762.346,516.7C1685.024,562.222,1451.691,589.444,1335.024,603.056L1218.357,616.667" class="er relationshipLine"/><path style="stroke: gray; fill: none;" marker-start="url(#ONLY_ONE_START)" marker-end="url(#ZERO_OR_MORE_END)" d="M1682.287,273.567L1914.419,317.139C2146.55,360.711,2610.813,447.856,2847.707,499.761C3084.6,551.667,3094.124,568.333,3098.886,576.667L3103.648,585" class="er relationshipLine"/><path style="stroke: gray; fill: none;" marker-start="url(#ONLY_ONE_START)" marker-end="url(#ZERO_OR_MORE_END)" d="M1682.287,270.566L1956.085,314.638C2229.884,358.711,2777.48,446.855,3051.278,499.261C3325.076,551.667,3325.076,568.333,3325.076,576.667L3325.076,585" class="er relationshipLine"/><path style="stroke: gray; fill: none;" marker-start="url(#ONLY_ONE_START)" marker-end="url(#ZERO_OR_MORE_END)" d="M1682.287,272.255L1931.085,316.045C2179.884,359.836,2677.48,447.418,2921.516,499.542C3165.552,551.667,3156.029,568.333,3151.267,576.667L3146.505,585" class="er relationshipLine"/><g transform="translate(1457.8162155151367,20 )" id="entity-JobPosting-f0771af1-7f9b-5d04-8f11-4801551c76c3"><rect height="465" width="224.47108459472656" y="0" x="0" class="er entityBox"/><text style="dominant-baseline: middle; text-anchor: middle; font-size: 12px;" transform="translate(112.23554229736328,12)" y="0" x="0" id="text-entity-JobPosting-f0771af1-7f9b-5d04-8f11-4801551c76c3" class="er entityLabel">JobPosting</text><rect height="21" width="57.0625" y="24" x="0" class="er attributeBoxOdd"/><text style="dominant-baseline: middle; font-size: 10.2px;" transform="translate(5,34.5)" y="0" x="0" id="text-entity-JobPosting-f0771af1-7f9b-5d04-8f11-4801551c76c3-attr-1-type" class="er entityLabel">stringList</text><rect height="21" width="167.40858459472656" y="24" x="57.0625" class="er attributeBoxOdd"/><text style="dominant-baseline: middle; font-size: 10.2px;" transform="translate(62.0625,34.5)" y="0" x="0" id="text-entity-JobPosting-f0771af1-7f9b-5d04-8f11-4801551c76c3-attr-1-name" class="er entityLabel">baseSalary</text><rect height="21" width="57.0625" y="45" x="0" class="er attributeBoxEven"/><text style="dominant-baseline: middle; font-size: 10.2px;" transform="translate(5,55.5)" y="0" x="0" id="text-entity-JobPosting-f0771af1-7f9b-5d04-8f11-4801551c76c3-attr-2-type" class="er entityLabel">stringList</text><rect height="21" width="167.40858459472656" y="45" x="57.0625" class="er attributeBoxEven"/><text style="dominant-baseline: middle; font-size: 10.2px;" transform="translate(62.0625,55.5)" y="0" x="0" id="text-entity-JobPosting-f0771af1-7f9b-5d04-8f11-4801551c76c3-attr-2-name" class="er entityLabel">datePosted</text><rect height="21" width="57.0625" y="66" x="0" class="er attributeBoxOdd"/><text style="dominant-baseline: middle; font-size: 10.2px;" transform="translate(5,76.5)" y="0" x="0" id="text-entity-JobPosting-f0771af1-7f9b-5d04-8f11-4801551c76c3-attr-3-type" class="er entityLabel">stringList</text><rect height="21" width="167.40858459472656" y="66" x="57.0625" class="er attributeBoxOdd"/><text style="dominant-baseline: middle; font-size: 10.2px;" transform="translate(62.0625,76.5)" y="0" x="0" id="text-entity-JobPosting-f0771af1-7f9b-5d04-8f11-4801551c76c3-attr-3-name" class="er entityLabel">educationRequirements</text><rect height="21" width="57.0625" y="87" x="0" class="er attributeBoxEven"/><text style="dominant-baseline: middle; font-size: 10.2px;" transform="translate(5,97.5)" y="0" x="0" id="text-entity-JobPosting-f0771af1-7f9b-5d04-8f11-4801551c76c3-attr-4-type" class="er entityLabel">stringList</text><rect height="21" width="167.40858459472656" y="87" x="57.0625" class="er attributeBoxEven"/><text style="dominant-baseline: middle; font-size: 10.2px;" transform="translate(62.0625,97.5)" y="0" x="0" id="text-entity-JobPosting-f0771af1-7f9b-5d04-8f11-4801551c76c3-attr-4-name" class="er entityLabel">estimatedSalary</text><rect height="21" width="57.0625" y="108" x="0" class="er attributeBoxOdd"/><text style="dominant-baseline: middle; font-size: 10.2px;" transform="translate(5,118.5)" y="0" x="0" id="text-entity-JobPosting-f0771af1-7f9b-5d04-8f11-4801551c76c3-attr-5-type" class="er entityLabel">stringList</text><rect height="21" width="167.40858459472656" y="108" x="57.0625" class="er attributeBoxOdd"/><text style="dominant-baseline: middle; font-size: 10.2px;" transform="translate(62.0625,118.5)" y="0" x="0" id="text-entity-JobPosting-f0771af1-7f9b-5d04-8f11-4801551c76c3-attr-5-name" class="er entityLabel">experienceRequirements</text><rect height="21" width="57.0625" y="129" x="0" class="er attributeBoxEven"/><text style="dominant-baseline: middle; font-size: 10.2px;" transform="translate(5,139.5)" y="0" x="0" id="text-entity-JobPosting-f0771af1-7f9b-5d04-8f11-4801551c76c3-attr-6-type" class="er entityLabel">stringList</text><rect height="21" width="167.40858459472656" y="129" x="57.0625" class="er attributeBoxEven"/><text style="dominant-baseline: middle; font-size: 10.2px;" transform="translate(62.0625,139.5)" y="0" x="0" id="text-entity-JobPosting-f0771af1-7f9b-5d04-8f11-4801551c76c3-attr-6-name" class="er entityLabel">hiringOrganization</text><rect height="21" width="57.0625" y="150" x="0" class="er attributeBoxOdd"/><text style="dominant-baseline: middle; font-size: 10.2px;" transform="translate(5,160.5)" y="0" x="0" id="text-entity-JobPosting-f0771af1-7f9b-5d04-8f11-4801551c76c3-attr-7-type" class="er entityLabel">stringList</text><rect height="21" width="167.40858459472656" y="150" x="57.0625" class="er attributeBoxOdd"/><text style="dominant-baseline: middle; font-size: 10.2px;" transform="translate(62.0625,160.5)" y="0" x="0" id="text-entity-JobPosting-f0771af1-7f9b-5d04-8f11-4801551c76c3-attr-7-name" class="er entityLabel">industry</text><rect height="21" width="57.0625" y="171" x="0" class="er attributeBoxEven"/><text style="dominant-baseline: middle; font-size: 10.2px;" transform="translate(5,181.5)" y="0" x="0" id="text-entity-JobPosting-f0771af1-7f9b-5d04-8f11-4801551c76c3-attr-8-type" class="er entityLabel">stringList</text><rect height="21" width="167.40858459472656" y="171" x="57.0625" class="er attributeBoxEven"/><text style="dominant-baseline: middle; font-size: 10.2px;" transform="translate(62.0625,181.5)" y="0" x="0" id="text-entity-JobPosting-f0771af1-7f9b-5d04-8f11-4801551c76c3-attr-8-name" class="er entityLabel">jobStartDate</text><rect height="21" width="57.0625" y="192" x="0" class="er attributeBoxOdd"/><text style="dominant-baseline: middle; font-size: 10.2px;" transform="translate(5,202.5)" y="0" x="0" id="text-entity-JobPosting-f0771af1-7f9b-5d04-8f11-4801551c76c3-attr-9-type" class="er entityLabel">stringList</text><rect height="21" width="167.40858459472656" y="192" x="57.0625" class="er attributeBoxOdd"/><text style="dominant-baseline: middle; font-size: 10.2px;" transform="translate(62.0625,202.5)" y="0" x="0" id="text-entity-JobPosting-f0771af1-7f9b-5d04-8f11-4801551c76c3-attr-9-name" class="er entityLabel">occupationalCategory</text><rect height="21" width="57.0625" y="213" x="0" class="er attributeBoxEven"/><text style="dominant-baseline: middle; font-size: 10.2px;" transform="translate(5,223.5)" y="0" x="0" id="text-entity-JobPosting-f0771af1-7f9b-5d04-8f11-4801551c76c3-attr-10-type" class="er entityLabel">stringList</text><rect height="21" width="167.40858459472656" y="213" x="57.0625" class="er attributeBoxEven"/><text style="dominant-baseline: middle; font-size: 10.2px;" transform="translate(62.0625,223.5)" y="0" x="0" id="text-entity-JobPosting-f0771af1-7f9b-5d04-8f11-4801551c76c3-attr-10-name" class="er entityLabel">physicalRequirement</text><rect height="21" width="57.0625" y="234" x="0" class="er attributeBoxOdd"/><text style="dominant-baseline: middle; font-size: 10.2px;" transform="translate(5,244.5)" y="0" x="0" id="text-entity-JobPosting-f0771af1-7f9b-5d04-8f11-4801551c76c3-attr-11-type" class="er entityLabel">stringList</text><rect height="21" width="167.40858459472656" y="234" x="57.0625" class="er attributeBoxOdd"/><text style="dominant-baseline: middle; font-size: 10.2px;" transform="translate(62.0625,244.5)" y="0" x="0" id="text-entity-JobPosting-f0771af1-7f9b-5d04-8f11-4801551c76c3-attr-11-name" class="er entityLabel">qualifications</text><rect height="21" width="57.0625" y="255" x="0" class="er attributeBoxEven"/><text style="dominant-baseline: middle; font-size: 10.2px;" transform="translate(5,265.5)" y="0" x="0" id="text-entity-JobPosting-f0771af1-7f9b-5d04-8f11-4801551c76c3-attr-12-type" class="er entityLabel">stringList</text><rect height="21" width="167.40858459472656" y="255" x="57.0625" class="er attributeBoxEven"/><text style="dominant-baseline: middle; font-size: 10.2px;" transform="translate(62.0625,265.5)" y="0" x="0" id="text-entity-JobPosting-f0771af1-7f9b-5d04-8f11-4801551c76c3-attr-12-name" class="er entityLabel">securityClearanceRequirement</text><rect height="21" width="57.0625" y="276" x="0" class="er attributeBoxOdd"/><text style="dominant-baseline: middle; font-size: 10.2px;" transform="translate(5,286.5)" y="0" x="0" id="text-entity-JobPosting-f0771af1-7f9b-5d04-8f11-4801551c76c3-attr-13-type" class="er entityLabel">stringList</text><rect height="21" width="167.40858459472656" y="276" x="57.0625" class="er attributeBoxOdd"/><text style="dominant-baseline: middle; font-size: 10.2px;" transform="translate(62.0625,286.5)" y="0" x="0" id="text-entity-JobPosting-f0771af1-7f9b-5d04-8f11-4801551c76c3-attr-13-name" class="er entityLabel">sensoryRequirement</text><rect height="21" width="57.0625" y="297" x="0" class="er attributeBoxEven"/><text style="dominant-baseline: middle; font-size: 10.2px;" transform="translate(5,307.5)" y="0" x="0" id="text-entity-JobPosting-f0771af1-7f9b-5d04-8f11-4801551c76c3-attr-14-type" class="er entityLabel">stringList</text><rect height="21" width="167.40858459472656" y="297" x="57.0625" class="er attributeBoxEven"/><text style="dominant-baseline: middle; font-size: 10.2px;" transform="translate(62.0625,307.5)" y="0" x="0" id="text-entity-JobPosting-f0771af1-7f9b-5d04-8f11-4801551c76c3-attr-14-name" class="er entityLabel">skills</text><rect height="21" width="57.0625" y="318" x="0" class="er attributeBoxOdd"/><text style="dominant-baseline: middle; font-size: 10.2px;" transform="translate(5,328.5)" y="0" x="0" id="text-entity-JobPosting-f0771af1-7f9b-5d04-8f11-4801551c76c3-attr-15-type" class="er entityLabel">stringList</text><rect height="21" width="167.40858459472656" y="318" x="57.0625" class="er attributeBoxOdd"/><text style="dominant-baseline: middle; font-size: 10.2px;" transform="translate(62.0625,328.5)" y="0" x="0" id="text-entity-JobPosting-f0771af1-7f9b-5d04-8f11-4801551c76c3-attr-15-name" class="er entityLabel">validThrough</text><rect height="21" width="57.0625" y="339" x="0" class="er attributeBoxEven"/><text style="dominant-baseline: middle; font-size: 10.2px;" transform="translate(5,349.5)" y="0" x="0" id="text-entity-JobPosting-f0771af1-7f9b-5d04-8f11-4801551c76c3-attr-16-type" class="er entityLabel">stringList</text><rect height="21" width="167.40858459472656" y="339" x="57.0625" class="er attributeBoxEven"/><text style="dominant-baseline: middle; font-size: 10.2px;" transform="translate(62.0625,349.5)" y="0" x="0" id="text-entity-JobPosting-f0771af1-7f9b-5d04-8f11-4801551c76c3-attr-16-name" class="er entityLabel">additionalType</text><rect height="21" width="57.0625" y="360" x="0" class="er attributeBoxOdd"/><text style="dominant-baseline: middle; font-size: 10.2px;" transform="translate(5,370.5)" y="0" x="0" id="text-entity-JobPosting-f0771af1-7f9b-5d04-8f11-4801551c76c3-attr-17-type" class="er entityLabel">stringList</text><rect height="21" width="167.40858459472656" y="360" x="57.0625" class="er attributeBoxOdd"/><text style="dominant-baseline: middle; font-size: 10.2px;" transform="translate(62.0625,370.5)" y="0" x="0" id="text-entity-JobPosting-f0771af1-7f9b-5d04-8f11-4801551c76c3-attr-17-name" class="er entityLabel">description</text><rect height="21" width="57.0625" y="381" x="0" class="er attributeBoxEven"/><text style="dominant-baseline: middle; font-size: 10.2px;" transform="translate(5,391.5)" y="0" x="0" id="text-entity-JobPosting-f0771af1-7f9b-5d04-8f11-4801551c76c3-attr-18-type" class="er entityLabel">stringList</text><rect height="21" width="167.40858459472656" y="381" x="57.0625" class="er attributeBoxEven"/><text style="dominant-baseline: middle; font-size: 10.2px;" transform="translate(62.0625,391.5)" y="0" x="0" id="text-entity-JobPosting-f0771af1-7f9b-5d04-8f11-4801551c76c3-attr-18-name" class="er entityLabel">identifier</text><rect height="21" width="57.0625" y="402" x="0" class="er attributeBoxOdd"/><text style="dominant-baseline: middle; font-size: 10.2px;" transform="translate(5,412.5)" y="0" x="0" id="text-entity-JobPosting-f0771af1-7f9b-5d04-8f11-4801551c76c3-attr-19-type" class="er entityLabel">stringList</text><rect height="21" width="167.40858459472656" y="402" x="57.0625" class="er attributeBoxOdd"/><text style="dominant-baseline: middle; font-size: 10.2px;" transform="translate(62.0625,412.5)" y="0" x="0" id="text-entity-JobPosting-f0771af1-7f9b-5d04-8f11-4801551c76c3-attr-19-name" class="er entityLabel">image</text><rect height="21" width="57.0625" y="423" x="0" class="er attributeBoxEven"/><text style="dominant-baseline: middle; font-size: 10.2px;" transform="translate(5,433.5)" y="0" x="0" id="text-entity-JobPosting-f0771af1-7f9b-5d04-8f11-4801551c76c3-attr-20-type" class="er entityLabel">stringList</text><rect height="21" width="167.40858459472656" y="423" x="57.0625" class="er attributeBoxEven"/><text style="dominant-baseline: middle; font-size: 10.2px;" transform="translate(62.0625,433.5)" y="0" x="0" id="text-entity-JobPosting-f0771af1-7f9b-5d04-8f11-4801551c76c3-attr-20-name" class="er entityLabel">mainEntityOfPage</text><rect height="21" width="57.0625" y="444" x="0" class="er attributeBoxOdd"/><text style="dominant-baseline: middle; font-size: 10.2px;" transform="translate(5,454.5)" y="0" x="0" id="text-entity-JobPosting-f0771af1-7f9b-5d04-8f11-4801551c76c3-attr-21-type" class="er entityLabel">stringList</text><rect height="21" width="167.40858459472656" y="444" x="57.0625" class="er attributeBoxOdd"/><text style="dominant-baseline: middle; font-size: 10.2px;" transform="translate(62.0625,454.5)" y="0" x="0" id="text-entity-JobPosting-f0771af1-7f9b-5d04-8f11-4801551c76c3-attr-21-name" class="er entityLabel">subjectOf</text></g><g transform="translate(20,585 )" id="entity-AdministrativeArea-148f6b29-78f8-5892-bd48-04ae3b68a278"><rect height="75" width="144.96875" y="0" x="0" class="er entityBox"/><text style="dominant-baseline: middle; text-anchor: middle; font-size: 12px;" transform="translate(72.484375,37.5)" y="0" x="0" id="text-entity-AdministrativeArea-148f6b29-78f8-5892-bd48-04ae3b68a278" class="er entityLabel">AdministrativeArea</text></g><g transform="translate(264.96875,585 )" id="entity-ContactPoint-58bf6365-d2da-551d-a1b0-91793c4d1cf4"><rect height="75" width="106.77734375" y="0" x="0" class="er entityBox"/><text style="dominant-baseline: middle; text-anchor: middle; font-size: 12px;" transform="translate(53.388671875,37.5)" y="0" x="0" id="text-entity-ContactPoint-58bf6365-d2da-551d-a1b0-91793c4d1cf4" class="er entityLabel">ContactPoint</text></g><g transform="translate(1118.357421875,585 )" id="entity-Text-426c5d39-acfc-5487-a6d9-ede67887190e"><rect height="75" width="100" y="0" x="0" class="er entityBox"/><text style="dominant-baseline: middle; text-anchor: middle; font-size: 12px;" transform="translate(50,37.5)" y="0" x="0" id="text-entity-Text-426c5d39-acfc-5487-a6d9-ede67887190e" class="er entityLabel">Text</text></g><g transform="translate(2068.357421875,585 )" id="entity-Boolean-5b26178e-f873-50aa-bf9a-b8300df1b991"><rect height="75" width="100" y="0" x="0" class="er entityBox"/><text style="dominant-baseline: middle; text-anchor: middle; font-size: 12px;" transform="translate(50,37.5)" y="0" x="0" id="text-entity-Boolean-5b26178e-f873-50aa-bf9a-b8300df1b991" class="er entityLabel">Boolean</text></g><g transform="translate(2268.357421875,585 )" id="entity-Organization-ef1721ab-1f62-5ef5-a525-a6c60c2f6032"><rect height="75" width="106.71875" y="0" x="0" class="er entityBox"/><text style="dominant-baseline: middle; text-anchor: middle; font-size: 12px;" transform="translate(53.359375,37.5)" y="0" x="0" id="text-entity-Organization-ef1721ab-1f62-5ef5-a525-a6c60c2f6032" class="er entityLabel">Organization</text></g><g transform="translate(2475.076171875,585 )" id="entity-Place-18cedc50-4c85-52d4-b2dd-111465382dcf"><rect height="75" width="100" y="0" x="0" class="er entityBox"/><text style="dominant-baseline: middle; text-anchor: middle; font-size: 12px;" transform="translate(50,37.5)" y="0" x="0" id="text-entity-Place-18cedc50-4c85-52d4-b2dd-111465382dcf" class="er entityLabel">Place</text></g><g transform="translate(2675.076171875,585 )" id="entity-Occupation-66e5e80e-6366-5c89-b57a-8fea961f885c"><rect height="75" width="100" y="0" x="0" class="er entityBox"/><text style="dominant-baseline: middle; text-anchor: middle; font-size: 12px;" transform="translate(50,37.5)" y="0" x="0" id="text-entity-Occupation-66e5e80e-6366-5c89-b57a-8fea961f885c" class="er entityLabel">Occupation</text></g><g transform="translate(2875.076171875,585 )" id="entity-Integer-fc94dbf2-2dc2-55cd-ac16-6d1e48f8bef9"><rect height="75" width="100" y="0" x="0" class="er entityBox"/><text style="dominant-baseline: middle; text-anchor: middle; font-size: 12px;" transform="translate(50,37.5)" y="0" x="0" id="text-entity-Integer-fc94dbf2-2dc2-55cd-ac16-6d1e48f8bef9" class="er entityLabel">Integer</text></g><g transform="translate(3075.076171875,585 )" id="entity-URL-07f78d3e-fd74-5925-b39b-26c1cc2d6b7c"><rect height="75" width="100" y="0" x="0" class="er entityBox"/><text style="dominant-baseline: middle; text-anchor: middle; font-size: 12px;" transform="translate(50,37.5)" y="0" x="0" id="text-entity-URL-07f78d3e-fd74-5925-b39b-26c1cc2d6b7c" class="er entityLabel">URL</text></g><g transform="translate(3275.076171875,585 )" id="entity-Action-6cd87d9a-a078-546e-a35b-bee54f477b31"><rect height="75" width="100" y="0" x="0" class="er entityBox"/><text style="dominant-baseline: middle; text-anchor: middle; font-size: 12px;" transform="translate(50,37.5)" y="0" x="0" id="text-entity-Action-6cd87d9a-a078-546e-a35b-bee54f477b31" class="er entityLabel">Action</text></g><rect height="14" width="189.703125" y="400.70037841796875" x="669.2733764648438" class="er relationshipLabelBox"/><text style="text-anchor: middle; dominant-baseline: middle; font-size: 12px;" y="407.70037841796875" x="764.1249389648438" id="rel1" class="er relationshipLabel">applicantLocationRequirements</text><rect height="14" width="113.17578125" y="403.20068359375" x="819.7481079101562" class="er relationshipLabelBox"/><text style="text-anchor: middle; dominant-baseline: middle; font-size: 12px;" y="410.20068359375" x="876.3359985351562" id="rel2" class="er relationshipLabel">applicationContact</text><rect height="14" width="48.515625" y="431.89190673828125" x="832.3832397460938" class="er relationshipLabelBox"/><text style="text-anchor: middle; dominant-baseline: middle; font-size: 12px;" y="438.89190673828125" x="856.6410522460938" id="rel3" class="er relationshipLabel">benefits</text><rect height="14" width="68.1875" y="442.63592529296875" x="1847.92333984375" class="er relationshipLabelBox"/><text style="text-anchor: middle; dominant-baseline: middle; font-size: 12px;" y="449.63592529296875" x="1882.01708984375" id="rel4" class="er relationshipLabel">directApply</text><rect height="14" width="174.916015625" y="430.0185546875" x="833.5682373046875" class="er relationshipLabelBox"/><text style="text-anchor: middle; dominant-baseline: middle; font-size: 12px;" y="437.0185546875" x="921.0262451171875" id="rel5" class="er relationshipLabel">eligibilityToWorkRequirement</text><rect height="14" width="113.46484375" y="428.1018371582031" x="928.118896484375" class="er relationshipLabelBox"/><text style="text-anchor: middle; dominant-baseline: middle; font-size: 12px;" y="435.1018371582031" x="984.851318359375" id="rel6" class="er relationshipLabel">employerOverview</text><rect height="14" width="103.421875" y="426.2273864746094" x="996.1741943359375" class="er relationshipLabelBox"/><text style="text-anchor: middle; dominant-baseline: middle; font-size: 12px;" y="433.2273864746094" x="1047.8851318359375" id="rel7" class="er relationshipLabel">employmentType</text><rect height="14" width="100.572265625" y="414.3440246582031" x="1965.7301025390625" class="er relationshipLabelBox"/><text style="text-anchor: middle; dominant-baseline: middle; font-size: 12px;" y="421.3440246582031" x="2016.0162353515625" id="rel8" class="er relationshipLabel">employmentUnit</text><rect height="14" width="182.984375" y="424.78118896484375" x="1823.886474609375" class="er relationshipLabelBox"/><text style="text-anchor: middle; dominant-baseline: middle; font-size: 12px;" y="431.78118896484375" x="1915.378662109375" id="rel9" class="er relationshipLabel">experienceInPlaceOfEducation</text><rect height="14" width="141.65625" y="424.5773620605469" x="1038.9342041015625" class="er relationshipLabelBox"/><text style="text-anchor: middle; dominant-baseline: middle; font-size: 12px;" y="431.5773620605469" x="1109.7623291015625" id="rel10" class="er relationshipLabel">incentiveCompensation</text><rect height="14" width="61.3125" y="423.5363464355469" x="1139.241943359375" class="er relationshipLabelBox"/><text style="text-anchor: middle; dominant-baseline: middle; font-size: 12px;" y="430.5363464355469" x="1169.898193359375" id="rel11" class="er relationshipLabel">incentives</text><rect height="14" width="68.421875" y="423.7291259765625" x="1193.3883056640625" class="er relationshipLabelBox"/><text style="text-anchor: middle; dominant-baseline: middle; font-size: 12px;" y="430.7291259765625" x="1227.5992431640625" id="rel12" class="er relationshipLabel">jobBenefits</text><rect height="14" width="113.595703125" y="415.33673095703125" x="1900.01318359375" class="er relationshipLabelBox"/><text style="text-anchor: middle; dominant-baseline: middle; font-size: 12px;" y="422.33673095703125" x="1956.81103515625" id="rel13" class="er relationshipLabel">jobImmediateStart</text><rect height="14" width="70.046875" y="408.36651611328125" x="2081.634521484375" class="er relationshipLabelBox"/><text style="text-anchor: middle; dominant-baseline: middle; font-size: 12px;" y="415.36651611328125" x="2116.657958984375" id="rel14" class="er relationshipLabel">jobLocation</text><rect height="14" width="97.609375" y="430.7160949707031" x="1228.0648193359375" class="er relationshipLabelBox"/><text style="text-anchor: middle; dominant-baseline: middle; font-size: 12px;" y="437.7160949707031" x="1276.8695068359375" id="rel15" class="er relationshipLabel">jobLocationType</text><rect height="14" width="117.75" y="404.58258056640625" x="2156.9189453125" class="er relationshipLabelBox"/><text style="text-anchor: middle; dominant-baseline: middle; font-size: 12px;" y="411.58258056640625" x="2215.7939453125" id="rel16" class="er relationshipLabel">relevantOccupation</text><rect height="14" width="89.75" y="449.92352294921875" x="1271.976806640625" class="er relationshipLabelBox"/><text style="text-anchor: middle; dominant-baseline: middle; font-size: 12px;" y="456.92352294921875" x="1316.851806640625" id="rel17" class="er relationshipLabel">responsibilities</text><rect height="14" width="90.40625" y="490.12066650390625" x="1302.599365234375" class="er relationshipLabelBox"/><text style="text-anchor: middle; dominant-baseline: middle; font-size: 12px;" y="497.12066650390625" x="1347.802490234375" id="rel18" class="er relationshipLabel">salaryCurrency</text><rect height="14" width="126.65625" y="547.26416015625" x="1289.4703369140625" class="er relationshipLabelBox"/><text style="text-anchor: middle; dominant-baseline: middle; font-size: 12px;" y="554.26416015625" x="1352.7984619140625" id="rel19" class="er relationshipLabel">specialCommitments</text><rect height="14" width="23.46875" y="559.6852416992188" x="1373.8221435546875" class="er relationshipLabelBox"/><text style="text-anchor: middle; dominant-baseline: middle; font-size: 12px;" y="566.6852416992188" x="1385.5565185546875" id="rel20" class="er relationshipLabel">title</text><rect height="14" width="102.796875" y="401.94915771484375" x="2263.6826171875" class="er relationshipLabelBox"/><text style="text-anchor: middle; dominant-baseline: middle; font-size: 12px;" y="408.94915771484375" x="2315.0810546875" id="rel21" class="er relationshipLabel">totalJobOpenings</text><rect height="14" width="64.203125" y="563.3359985351562" x="1397.5980224609375" class="er relationshipLabelBox"/><text style="text-anchor: middle; dominant-baseline: middle; font-size: 12px;" y="570.3359985351562" x="1429.6995849609375" id="rel22" class="er relationshipLabel">workHours</text><rect height="14" width="89.953125" y="564.2350463867188" x="1433.96337890625" class="er relationshipLabelBox"/><text style="text-anchor: middle; dominant-baseline: middle; font-size: 12px;" y="571.2350463867188" x="1478.93994140625" id="rel23" class="er relationshipLabel">alternateName</text><rect height="14" width="161.390625" y="558.7849731445312" x="1467.8173828125" class="er relationshipLabelBox"/><text style="text-anchor: middle; dominant-baseline: middle; font-size: 12px;" y="565.7849731445312" x="1548.5126953125" id="rel24" class="er relationshipLabel">disambiguatingDescription</text><rect height="14" width="34.03125" y="556.443603515625" x="1592.0823974609375" class="er relationshipLabelBox"/><text style="text-anchor: middle; dominant-baseline: middle; font-size: 12px;" y="563.443603515625" x="1609.0980224609375" id="rel25" class="er relationshipLabel">name</text><rect height="14" width="47.140625" y="402.4202575683594" x="2376.844970703125" class="er relationshipLabelBox"/><text style="text-anchor: middle; dominant-baseline: middle; font-size: 12px;" y="409.4202575683594" x="2400.415283203125" id="rel26" class="er relationshipLabel">sameAs</text><rect height="14" width="90.96875" y="398.5408630371094" x="2468.513427734375" class="er relationshipLabelBox"/><text style="text-anchor: middle; dominant-baseline: middle; font-size: 12px;" y="405.5408630371094" x="2513.997802734375" id="rel27" class="er relationshipLabel">potentialAction</text><rect height="14" width="15.875" y="398.1435546875" x="2422.74462890625" class="er relationshipLabelBox"/><text style="text-anchor: middle; dominant-baseline: middle; font-size: 12px;" y="405.1435546875" x="2430.68212890625" id="rel28" class="er relationshipLabel">url</text></svg>