<svg aria-roledescription="er" role="graphics-document document" viewBox="0 0 2817.443359375 596" style="max-width: 2817.44px; background-color: white;" xmlns:xlink="http://www.w3.org/1999/xlink" xmlns="http://www.w3.org/2000/svg" width="100%" id="my-svg"><style>#my-svg{font-family:"trebuchet ms",verdana,arial,sans-serif;font-size:16px;fill:#333;}#my-svg .error-icon{fill:#552222;}#my-svg .error-text{fill:#552222;stroke:#552222;}#my-svg .edge-thickness-normal{stroke-width:1px;}#my-svg .edge-thickness-thick{stroke-width:3.5px;}#my-svg .edge-pattern-solid{stroke-dasharray:0;}#my-svg .edge-thickness-invisible{stroke-width:0;fill:none;}#my-svg .edge-pattern-dashed{stroke-dasharray:3;}#my-svg .edge-pattern-dotted{stroke-dasharray:2;}#my-svg .marker{fill:#333333;stroke:#333333;}#my-svg .marker.cross{stroke:#333333;}#my-svg svg{font-family:"trebuchet ms",verdana,arial,sans-serif;font-size:16px;}#my-svg p{margin:0;}#my-svg .entityBox{fill:#ECECFF;stroke:#9370DB;}#my-svg .attributeBoxOdd{fill:#ffffff;stroke:#9370DB;}#my-svg .attributeBoxEven{fill:#f2f2f2;stroke:#9370DB;}#my-svg .relationshipLabelBox{fill:hsl(80, 100%, 96.2745098039%);opacity:0.7;background-color:hsl(80, 100%, 96.2745098039%);}#my-svg .relationshipLabelBox rect{opacity:0.5;}#my-svg .relationshipLine{stroke:#333333;}#my-svg .entityTitleText{text-anchor:middle;font-size:18px;fill:#333;}#my-svg #MD_PARENT_START{fill:#f5f5f5!important;stroke:#333333!important;stroke-width:1;}#my-svg #MD_PARENT_END{fill:#f5f5f5!important;stroke:#333333!important;stroke-width:1;}#my-svg :root{--mermaid-font-family:"trebuchet ms",verdana,arial,sans-serif;}</style><g/><defs><marker orient="auto" markerHeight="240" markerWidth="190" refY="7" refX="0" id="MD_PARENT_START"><path d="M 18,7 L9,13 L1,7 L9,1 Z"/></marker></defs><defs><marker orient="auto" markerHeight="28" markerWidth="20" refY="7" refX="19" id="MD_PARENT_END"><path d="M 18,7 L9,13 L1,7 L9,1 Z"/></marker></defs><defs><marker orient="auto" markerHeight="18" markerWidth="18" refY="9" refX="0" id="ONLY_ONE_START"><path d="M9,0 L9,18 M15,0 L15,18" fill="none" stroke="gray"/></marker></defs><defs><marker orient="auto" markerHeight="18" markerWidth="18" refY="9" refX="18" id="ONLY_ONE_END"><path d="M3,0 L3,18 M9,0 L9,18" fill="none" stroke="gray"/></marker></defs><defs><marker orient="auto" markerHeight="18" markerWidth="30" refY="9" refX="0" id="ZERO_OR_ONE_START"><circle r="6" cy="9" cx="21" fill="white" stroke="gray"/><path d="M9,0 L9,18" fill="none" stroke="gray"/></marker></defs><defs><marker orient="auto" markerHeight="18" markerWidth="30" refY="9" refX="30" id="ZERO_OR_ONE_END"><circle r="6" cy="9" cx="9" fill="white" stroke="gray"/><path d="M21,0 L21,18" fill="none" stroke="gray"/></marker></defs><defs><marker orient="auto" markerHeight="36" markerWidth="45" refY="18" refX="18" id="ONE_OR_MORE_START"><path d="M0,18 Q 18,0 36,18 Q 18,36 0,18 M42,9 L42,27" fill="none" stroke="gray"/></marker></defs><defs><marker orient="auto" markerHeight="36" markerWidth="45" refY="18" refX="27" id="ONE_OR_MORE_END"><path d="M3,9 L3,27 M9,18 Q27,0 45,18 Q27,36 9,18" fill="none" stroke="gray"/></marker></defs><defs><marker orient="auto" markerHeight="36" markerWidth="57" refY="18" refX="18" id="ZERO_OR_MORE_START"><circle r="6" cy="18" cx="48" fill="white" stroke="gray"/><path d="M0,18 Q18,0 36,18 Q18,36 0,18" fill="none" stroke="gray"/></marker></defs><defs><marker orient="auto" markerHeight="36" markerWidth="57" refY="18" refX="39" id="ZERO_OR_MORE_END"><circle r="6" cy="18" cx="9" fill="white" stroke="gray"/><path d="M21,18 Q39,0 57,18 Q39,36 21,18" fill="none" stroke="gray"/></marker></defs><path style="stroke: gray; fill: none;" marker-start="url(#ONLY_ONE_START)" marker-end="url(#ZERO_OR_MORE_END)" d="M1233.643,229.623L1035.815,266.519C837.988,303.415,442.334,377.208,249.269,422.437C56.203,467.667,65.727,484.333,70.489,492.667L75.251,501" class="er relationshipLine"/><path style="stroke: gray; fill: none;" marker-start="url(#ONLY_ONE_START)" marker-end="url(#ZERO_OR_MORE_END)" d="M1233.643,234.931L1082.509,270.942C931.375,306.954,629.107,378.977,477.973,423.322C326.839,467.667,326.839,484.333,326.839,492.667L326.839,501" class="er relationshipLine"/><path style="stroke: gray; fill: none;" marker-start="url(#ONLY_ONE_START)" marker-end="url(#ZERO_OR_MORE_END)" d="M1233.643,241.924L1119.945,276.77C1006.248,311.616,778.854,381.308,665.156,424.487C551.459,467.667,551.459,484.333,551.459,492.667L551.459,501" class="er relationshipLine"/><path style="stroke: gray; fill: none;" marker-start="url(#ONLY_ONE_START)" marker-end="url(#ZERO_OR_MORE_END)" d="M1233.643,255.584L1159.573,288.153C1085.503,320.723,937.364,385.861,863.294,426.764C789.225,467.667,789.225,484.333,789.225,492.667L789.225,501" class="er relationshipLine"/><path style="stroke: gray; fill: none;" marker-start="url(#ONLY_ONE_START)" marker-end="url(#ZERO_OR_MORE_END)" d="M1233.643,288.122L1197.785,315.269C1161.928,342.415,1090.213,396.707,1054.355,432.187C1018.498,467.667,1018.498,484.333,1018.498,492.667L1018.498,501" class="er relationshipLine"/><path style="stroke: gray; fill: none;" marker-start="url(#ONLY_ONE_START)" marker-end="url(#ZERO_OR_MORE_END)" d="M1233.643,231.497L1054.995,268.081C876.348,304.664,519.054,377.832,334.208,422.749C149.363,467.667,136.967,484.333,130.769,492.667L124.571,501" class="er relationshipLine"/><path style="stroke: gray; fill: none;" marker-start="url(#ONLY_ONE_START)" marker-end="url(#ZERO_OR_MORE_END)" d="M1255.636,401L1252.113,409.333C1248.59,417.667,1241.544,434.333,1238.021,451C1234.498,467.667,1234.498,484.333,1234.498,492.667L1234.498,501" class="er relationshipLine"/><path style="stroke: gray; fill: none;" marker-start="url(#ONLY_ONE_START)" marker-end="url(#ZERO_OR_MORE_END)" d="M1416.711,401L1420.234,409.333C1423.757,417.667,1430.803,434.333,1434.327,451C1437.85,467.667,1437.85,484.333,1437.85,492.667L1437.85,501" class="er relationshipLine"/><path style="stroke: gray; fill: none;" marker-start="url(#ONLY_ONE_START)" marker-end="url(#ZERO_OR_MORE_END)" d="M1438.705,288.016L1474.635,315.18C1510.566,342.344,1582.426,396.672,1618.357,432.169C1654.287,467.667,1654.287,484.333,1654.287,492.667L1654.287,501" class="er relationshipLine"/><path style="stroke: gray; fill: none;" marker-start="url(#ONLY_ONE_START)" marker-end="url(#ZERO_OR_MORE_END)" d="M1438.705,255.438L1513.072,288.032C1587.438,320.625,1736.171,385.813,1810.538,426.74C1884.904,467.667,1884.904,484.333,1884.904,492.667L1884.904,501" class="er relationshipLine"/><path style="stroke: gray; fill: none;" marker-start="url(#ONLY_ONE_START)" marker-end="url(#ZERO_OR_MORE_END)" d="M1438.705,242.68L1549.328,277.4C1659.951,312.12,1881.197,381.56,1991.82,424.613C2102.443,467.667,2102.443,484.333,2102.443,492.667L2102.443,501" class="er relationshipLine"/><path style="stroke: gray; fill: none;" marker-start="url(#ONLY_ONE_START)" marker-end="url(#ZERO_OR_MORE_END)" d="M1438.705,235.531L1585.806,271.442C1732.907,307.354,2027.109,379.177,2174.21,423.422C2321.311,467.667,2321.311,484.333,2321.311,492.667L2321.311,501" class="er relationshipLine"/><path style="stroke: gray; fill: none;" marker-start="url(#ONLY_ONE_START)" marker-end="url(#ZERO_OR_MORE_END)" d="M1438.705,230.947L1622.609,267.623C1806.514,304.298,2174.322,377.649,2358.227,422.658C2542.131,467.667,2542.131,484.333,2542.131,492.667L2542.131,501" class="er relationshipLine"/><path style="stroke: gray; fill: none;" marker-start="url(#ONLY_ONE_START)" marker-end="url(#ZERO_OR_MORE_END)" d="M1438.705,227.973L1656.828,265.144C1874.951,302.315,2311.197,376.658,2529.32,422.162C2747.443,467.667,2747.443,484.333,2747.443,492.667L2747.443,501" class="er relationshipLine"/><g transform="translate(1233.642578125,20 )" id="entity-Joint-3e888258-7e03-5efc-b380-319054ea8049"><rect height="381" width="205.0625" y="0" x="0" class="er entityBox"/><text style="dominant-baseline: middle; text-anchor: middle; font-size: 12px;" transform="translate(102.53125,12)" y="0" x="0" id="text-entity-Joint-3e888258-7e03-5efc-b380-319054ea8049" class="er entityLabel">Joint</text><rect height="21" width="57.0625" y="24" x="0" class="er attributeBoxOdd"/><text style="dominant-baseline: middle; font-size: 10.2px;" transform="translate(5,34.5)" y="0" x="0" id="text-entity-Joint-3e888258-7e03-5efc-b380-319054ea8049-attr-1-type" class="er entityLabel">TextList</text><rect height="21" width="148" y="24" x="57.0625" class="er attributeBoxOdd"/><text style="dominant-baseline: middle; font-size: 10.2px;" transform="translate(62.0625,34.5)" y="0" x="0" id="text-entity-Joint-3e888258-7e03-5efc-b380-319054ea8049-attr-1-name" class="er entityLabel">biomechnicalClass</text><rect height="21" width="57.0625" y="45" x="0" class="er attributeBoxEven"/><text style="dominant-baseline: middle; font-size: 10.2px;" transform="translate(5,55.5)" y="0" x="0" id="text-entity-Joint-3e888258-7e03-5efc-b380-319054ea8049-attr-2-type" class="er entityLabel">stringList</text><rect height="21" width="148" y="45" x="57.0625" class="er attributeBoxEven"/><text style="dominant-baseline: middle; font-size: 10.2px;" transform="translate(62.0625,55.5)" y="0" x="0" id="text-entity-Joint-3e888258-7e03-5efc-b380-319054ea8049-attr-2-name" class="er entityLabel">functionalClass</text><rect height="21" width="57.0625" y="66" x="0" class="er attributeBoxOdd"/><text style="dominant-baseline: middle; font-size: 10.2px;" transform="translate(5,76.5)" y="0" x="0" id="text-entity-Joint-3e888258-7e03-5efc-b380-319054ea8049-attr-3-type" class="er entityLabel">TextList</text><rect height="21" width="148" y="66" x="57.0625" class="er attributeBoxOdd"/><text style="dominant-baseline: middle; font-size: 10.2px;" transform="translate(62.0625,76.5)" y="0" x="0" id="text-entity-Joint-3e888258-7e03-5efc-b380-319054ea8049-attr-3-name" class="er entityLabel">structuralClass</text><rect height="21" width="57.0625" y="87" x="0" class="er attributeBoxEven"/><text style="dominant-baseline: middle; font-size: 10.2px;" transform="translate(5,97.5)" y="0" x="0" id="text-entity-Joint-3e888258-7e03-5efc-b380-319054ea8049-attr-4-type" class="er entityLabel">TextList</text><rect height="21" width="148" y="87" x="57.0625" class="er attributeBoxEven"/><text style="dominant-baseline: middle; font-size: 10.2px;" transform="translate(62.0625,97.5)" y="0" x="0" id="text-entity-Joint-3e888258-7e03-5efc-b380-319054ea8049-attr-4-name" class="er entityLabel">associatedPathophysiology</text><rect height="21" width="57.0625" y="108" x="0" class="er attributeBoxOdd"/><text style="dominant-baseline: middle; font-size: 10.2px;" transform="translate(5,118.5)" y="0" x="0" id="text-entity-Joint-3e888258-7e03-5efc-b380-319054ea8049-attr-5-type" class="er entityLabel">TextList</text><rect height="21" width="148" y="108" x="57.0625" class="er attributeBoxOdd"/><text style="dominant-baseline: middle; font-size: 10.2px;" transform="translate(62.0625,118.5)" y="0" x="0" id="text-entity-Joint-3e888258-7e03-5efc-b380-319054ea8049-attr-5-name" class="er entityLabel">bodyLocation</text><rect height="21" width="57.0625" y="129" x="0" class="er attributeBoxEven"/><text style="dominant-baseline: middle; font-size: 10.2px;" transform="translate(5,139.5)" y="0" x="0" id="text-entity-Joint-3e888258-7e03-5efc-b380-319054ea8049-attr-6-type" class="er entityLabel">stringList</text><rect height="21" width="148" y="129" x="57.0625" class="er attributeBoxEven"/><text style="dominant-baseline: middle; font-size: 10.2px;" transform="translate(62.0625,139.5)" y="0" x="0" id="text-entity-Joint-3e888258-7e03-5efc-b380-319054ea8049-attr-6-name" class="er entityLabel">legalStatus</text><rect height="21" width="57.0625" y="150" x="0" class="er attributeBoxOdd"/><text style="dominant-baseline: middle; font-size: 10.2px;" transform="translate(5,160.5)" y="0" x="0" id="text-entity-Joint-3e888258-7e03-5efc-b380-319054ea8049-attr-7-type" class="er entityLabel">stringList</text><rect height="21" width="148" y="150" x="57.0625" class="er attributeBoxOdd"/><text style="dominant-baseline: middle; font-size: 10.2px;" transform="translate(62.0625,160.5)" y="0" x="0" id="text-entity-Joint-3e888258-7e03-5efc-b380-319054ea8049-attr-7-name" class="er entityLabel">additionalType</text><rect height="21" width="57.0625" y="171" x="0" class="er attributeBoxEven"/><text style="dominant-baseline: middle; font-size: 10.2px;" transform="translate(5,181.5)" y="0" x="0" id="text-entity-Joint-3e888258-7e03-5efc-b380-319054ea8049-attr-8-type" class="er entityLabel">TextList</text><rect height="21" width="148" y="171" x="57.0625" class="er attributeBoxEven"/><text style="dominant-baseline: middle; font-size: 10.2px;" transform="translate(62.0625,181.5)" y="0" x="0" id="text-entity-Joint-3e888258-7e03-5efc-b380-319054ea8049-attr-8-name" class="er entityLabel">alternateName</text><rect height="21" width="57.0625" y="192" x="0" class="er attributeBoxOdd"/><text style="dominant-baseline: middle; font-size: 10.2px;" transform="translate(5,202.5)" y="0" x="0" id="text-entity-Joint-3e888258-7e03-5efc-b380-319054ea8049-attr-9-type" class="er entityLabel">stringList</text><rect height="21" width="148" y="192" x="57.0625" class="er attributeBoxOdd"/><text style="dominant-baseline: middle; font-size: 10.2px;" transform="translate(62.0625,202.5)" y="0" x="0" id="text-entity-Joint-3e888258-7e03-5efc-b380-319054ea8049-attr-9-name" class="er entityLabel">description</text><rect height="21" width="57.0625" y="213" x="0" class="er attributeBoxEven"/><text style="dominant-baseline: middle; font-size: 10.2px;" transform="translate(5,223.5)" y="0" x="0" id="text-entity-Joint-3e888258-7e03-5efc-b380-319054ea8049-attr-10-type" class="er entityLabel">TextList</text><rect height="21" width="148" y="213" x="57.0625" class="er attributeBoxEven"/><text style="dominant-baseline: middle; font-size: 10.2px;" transform="translate(62.0625,223.5)" y="0" x="0" id="text-entity-Joint-3e888258-7e03-5efc-b380-319054ea8049-attr-10-name" class="er entityLabel">disambiguatingDescription</text><rect height="21" width="57.0625" y="234" x="0" class="er attributeBoxOdd"/><text style="dominant-baseline: middle; font-size: 10.2px;" transform="translate(5,244.5)" y="0" x="0" id="text-entity-Joint-3e888258-7e03-5efc-b380-319054ea8049-attr-11-type" class="er entityLabel">stringList</text><rect height="21" width="148" y="234" x="57.0625" class="er attributeBoxOdd"/><text style="dominant-baseline: middle; font-size: 10.2px;" transform="translate(62.0625,244.5)" y="0" x="0" id="text-entity-Joint-3e888258-7e03-5efc-b380-319054ea8049-attr-11-name" class="er entityLabel">identifier</text><rect height="21" width="57.0625" y="255" x="0" class="er attributeBoxEven"/><text style="dominant-baseline: middle; font-size: 10.2px;" transform="translate(5,265.5)" y="0" x="0" id="text-entity-Joint-3e888258-7e03-5efc-b380-319054ea8049-attr-12-type" class="er entityLabel">stringList</text><rect height="21" width="148" y="255" x="57.0625" class="er attributeBoxEven"/><text style="dominant-baseline: middle; font-size: 10.2px;" transform="translate(62.0625,265.5)" y="0" x="0" id="text-entity-Joint-3e888258-7e03-5efc-b380-319054ea8049-attr-12-name" class="er entityLabel">image</text><rect height="21" width="57.0625" y="276" x="0" class="er attributeBoxOdd"/><text style="dominant-baseline: middle; font-size: 10.2px;" transform="translate(5,286.5)" y="0" x="0" id="text-entity-Joint-3e888258-7e03-5efc-b380-319054ea8049-attr-13-type" class="er entityLabel">TextList</text><rect height="21" width="148" y="276" x="57.0625" class="er attributeBoxOdd"/><text style="dominant-baseline: middle; font-size: 10.2px;" transform="translate(62.0625,286.5)" y="0" x="0" id="text-entity-Joint-3e888258-7e03-5efc-b380-319054ea8049-attr-13-name" class="er entityLabel">name</text><rect height="21" width="57.0625" y="297" x="0" class="er attributeBoxEven"/><text style="dominant-baseline: middle; font-size: 10.2px;" transform="translate(5,307.5)" y="0" x="0" id="text-entity-Joint-3e888258-7e03-5efc-b380-319054ea8049-attr-14-type" class="er entityLabel">URLList</text><rect height="21" width="148" y="297" x="57.0625" class="er attributeBoxEven"/><text style="dominant-baseline: middle; font-size: 10.2px;" transform="translate(62.0625,307.5)" y="0" x="0" id="text-entity-Joint-3e888258-7e03-5efc-b380-319054ea8049-attr-14-name" class="er entityLabel">sameAs</text><rect height="21" width="57.0625" y="318" x="0" class="er attributeBoxOdd"/><text style="dominant-baseline: middle; font-size: 10.2px;" transform="translate(5,328.5)" y="0" x="0" id="text-entity-Joint-3e888258-7e03-5efc-b380-319054ea8049-attr-15-type" class="er entityLabel">stringList</text><rect height="21" width="148" y="318" x="57.0625" class="er attributeBoxOdd"/><text style="dominant-baseline: middle; font-size: 10.2px;" transform="translate(62.0625,328.5)" y="0" x="0" id="text-entity-Joint-3e888258-7e03-5efc-b380-319054ea8049-attr-15-name" class="er entityLabel">mainEntityOfPage</text><rect height="21" width="57.0625" y="339" x="0" class="er attributeBoxEven"/><text style="dominant-baseline: middle; font-size: 10.2px;" transform="translate(5,349.5)" y="0" x="0" id="text-entity-Joint-3e888258-7e03-5efc-b380-319054ea8049-attr-16-type" class="er entityLabel">stringList</text><rect height="21" width="148" y="339" x="57.0625" class="er attributeBoxEven"/><text style="dominant-baseline: middle; font-size: 10.2px;" transform="translate(62.0625,349.5)" y="0" x="0" id="text-entity-Joint-3e888258-7e03-5efc-b380-319054ea8049-attr-16-name" class="er entityLabel">subjectOf</text><rect height="21" width="57.0625" y="360" x="0" class="er attributeBoxOdd"/><text style="dominant-baseline: middle; font-size: 10.2px;" transform="translate(5,370.5)" y="0" x="0" id="text-entity-Joint-3e888258-7e03-5efc-b380-319054ea8049-attr-17-type" class="er entityLabel">URLList</text><rect height="21" width="148" y="360" x="57.0625" class="er attributeBoxOdd"/><text style="dominant-baseline: middle; font-size: 10.2px;" transform="translate(62.0625,370.5)" y="0" x="0" id="text-entity-Joint-3e888258-7e03-5efc-b380-319054ea8049-attr-17-name" class="er entityLabel">url</text></g><g transform="translate(20,501 )" id="entity-AnatomicalStructure-3c5e0f00-f4ad-5ab6-89b3-e0fa067e5e05"><rect height="75" width="153.359375" y="0" x="0" class="er entityBox"/><text style="dominant-baseline: middle; text-anchor: middle; font-size: 12px;" transform="translate(76.6796875,37.5)" y="0" x="0" id="text-entity-AnatomicalStructure-3c5e0f00-f4ad-5ab6-89b3-e0fa067e5e05" class="er entityLabel">AnatomicalStructure</text></g><g transform="translate(273.359375,501 )" id="entity-ImageObject-2a761300-e471-57b1-9256-83c78b6eba94"><rect height="75" width="106.958984375" y="0" x="0" class="er entityBox"/><text style="dominant-baseline: middle; text-anchor: middle; font-size: 12px;" transform="translate(53.4794921875,37.5)" y="0" x="0" id="text-entity-ImageObject-2a761300-e471-57b1-9256-83c78b6eba94" class="er entityLabel">ImageObject</text></g><g transform="translate(480.318359375,501 )" id="entity-AnatomicalSystem-95715edd-482f-5376-b264-8ac2a8b4904d"><rect height="75" width="142.28125" y="0" x="0" class="er entityBox"/><text style="dominant-baseline: middle; text-anchor: middle; font-size: 12px;" transform="translate(71.140625,37.5)" y="0" x="0" id="text-entity-AnatomicalSystem-95715edd-482f-5376-b264-8ac2a8b4904d" class="er entityLabel">AnatomicalSystem</text></g><g transform="translate(722.599609375,501 )" id="entity-MedicalCondition-a93e7da7-17aa-5f46-8e3a-8f90076b9104"><rect height="75" width="133.25" y="0" x="0" class="er entityBox"/><text style="dominant-baseline: middle; text-anchor: middle; font-size: 12px;" transform="translate(66.625,37.5)" y="0" x="0" id="text-entity-MedicalCondition-a93e7da7-17aa-5f46-8e3a-8f90076b9104" class="er entityLabel">MedicalCondition</text></g><g transform="translate(955.849609375,501 )" id="entity-MedicalTherapy-cb945121-be61-5f08-b66d-584ab4170081"><rect height="75" width="125.296875" y="0" x="0" class="er entityBox"/><text style="dominant-baseline: middle; text-anchor: middle; font-size: 12px;" transform="translate(62.6484375,37.5)" y="0" x="0" id="text-entity-MedicalTherapy-cb945121-be61-5f08-b66d-584ab4170081" class="er entityLabel">MedicalTherapy</text></g><g transform="translate(1181.146484375,501 )" id="entity-MedicalCode-340ab1f3-b0e0-51ff-b309-32031f623ceb"><rect height="75" width="106.703125" y="0" x="0" class="er entityBox"/><text style="dominant-baseline: middle; text-anchor: middle; font-size: 12px;" transform="translate(53.3515625,37.5)" y="0" x="0" id="text-entity-MedicalCode-340ab1f3-b0e0-51ff-b309-32031f623ceb" class="er entityLabel">MedicalCode</text></g><g transform="translate(1387.849609375,501 )" id="entity-Grant-291daf2c-8722-576f-890e-1045bc6484c0"><rect height="75" width="100" y="0" x="0" class="er entityBox"/><text style="dominant-baseline: middle; text-anchor: middle; font-size: 12px;" transform="translate(50,37.5)" y="0" x="0" id="text-entity-Grant-291daf2c-8722-576f-890e-1045bc6484c0" class="er entityLabel">Grant</text></g><g transform="translate(1587.849609375,501 )" id="entity-MedicalGuideline-a05959e1-803b-55cd-8b3c-b530a54fde23"><rect height="75" width="132.875" y="0" x="0" class="er entityBox"/><text style="dominant-baseline: middle; text-anchor: middle; font-size: 12px;" transform="translate(66.4375,37.5)" y="0" x="0" id="text-entity-MedicalGuideline-a05959e1-803b-55cd-8b3c-b530a54fde23" class="er entityLabel">MedicalGuideline</text></g><g transform="translate(1820.724609375,501 )" id="entity-MedicineSystem-74197b84-67e0-5471-ab59-f3fd7c3c0e72"><rect height="75" width="128.359375" y="0" x="0" class="er entityBox"/><text style="dominant-baseline: middle; text-anchor: middle; font-size: 12px;" transform="translate(64.1796875,37.5)" y="0" x="0" id="text-entity-MedicineSystem-74197b84-67e0-5471-ab59-f3fd7c3c0e72" class="er entityLabel">MedicineSystem</text></g><g transform="translate(2049.083984375,501 )" id="entity-Organization-ef1721ab-1f62-5ef5-a525-a6c60c2f6032"><rect height="75" width="106.71875" y="0" x="0" class="er entityBox"/><text style="dominant-baseline: middle; text-anchor: middle; font-size: 12px;" transform="translate(53.359375,37.5)" y="0" x="0" id="text-entity-Organization-ef1721ab-1f62-5ef5-a525-a6c60c2f6032" class="er entityLabel">Organization</text></g><g transform="translate(2255.802734375,501 )" id="entity-MedicalSpecialty-0f4a20d3-5a5d-5b81-b412-da395afebba8"><rect height="75" width="131.015625" y="0" x="0" class="er entityBox"/><text style="dominant-baseline: middle; text-anchor: middle; font-size: 12px;" transform="translate(65.5078125,37.5)" y="0" x="0" id="text-entity-MedicalSpecialty-0f4a20d3-5a5d-5b81-b412-da395afebba8" class="er entityLabel">MedicalSpecialty</text></g><g transform="translate(2486.818359375,501 )" id="entity-MedicalStudy-22dea251-12b7-5654-af29-afad6ffe12b1"><rect height="75" width="110.625" y="0" x="0" class="er entityBox"/><text style="dominant-baseline: middle; text-anchor: middle; font-size: 12px;" transform="translate(55.3125,37.5)" y="0" x="0" id="text-entity-MedicalStudy-22dea251-12b7-5654-af29-afad6ffe12b1" class="er entityLabel">MedicalStudy</text></g><g transform="translate(2697.443359375,501 )" id="entity-Action-6cd87d9a-a078-546e-a35b-bee54f477b31"><rect height="75" width="100" y="0" x="0" class="er entityBox"/><text style="dominant-baseline: middle; text-anchor: middle; font-size: 12px;" transform="translate(50,37.5)" y="0" x="0" id="text-entity-Action-6cd87d9a-a078-546e-a35b-bee54f477b31" class="er entityLabel">Action</text></g><rect height="14" width="75.46875" y="335.0312805175781" x="599.5408325195312" class="er relationshipLabelBox"/><text style="text-anchor: middle; dominant-baseline: middle; font-size: 12px;" y="342.0312805175781" x="637.2752075195312" id="rel1" class="er relationshipLabel">connectedTo</text><rect height="14" width="49.90625" y="340.0555725097656" x="742.9986572265625" class="er relationshipLabelBox"/><text style="text-anchor: middle; dominant-baseline: middle; font-size: 12px;" y="347.0555725097656" x="767.9517822265625" id="rel2" class="er relationshipLabel">diagram</text><rect height="14" width="83.03125" y="344.79461669921875" x="837.604248046875" class="er relationshipLabelBox"/><text style="text-anchor: middle; dominant-baseline: middle; font-size: 12px;" y="351.79461669921875" x="879.119873046875" id="rel3" class="er relationshipLabel">partOfSystem</text><rect height="14" width="99.71875" y="354.1769714355469" x="946.711181640625" class="er relationshipLabelBox"/><text style="text-anchor: middle; dominant-baseline: middle; font-size: 12px;" y="361.1769714355469" x="996.570556640625" id="rel4" class="er relationshipLabel">relatedCondition</text><rect height="14" width="91.78125" y="375.97967529296875" x="1064.78369140625" class="er relationshipLabelBox"/><text style="text-anchor: middle; dominant-baseline: middle; font-size: 12px;" y="382.97967529296875" x="1110.67431640625" id="rel5" class="er relationshipLabel">relatedTherapy</text><rect height="14" width="77.296875" y="340.5542907714844" x="633.416015625" class="er relationshipLabelBox"/><text style="text-anchor: middle; dominant-baseline: middle; font-size: 12px;" y="347.5542907714844" x="672.064453125" id="rel6" class="er relationshipLabel">subStructure</text><rect height="14" width="28.953125" y="442.5960998535156" x="1223.8497314453125" class="er relationshipLabelBox"/><text style="text-anchor: middle; dominant-baseline: middle; font-size: 12px;" y="449.5960998535156" x="1238.3262939453125" id="rel7" class="er relationshipLabel">code</text><rect height="14" width="45.609375" y="442.59600830078125" x="1411.2169189453125" class="er relationshipLabelBox"/><text style="text-anchor: middle; dominant-baseline: middle; font-size: 12px;" y="449.59600830078125" x="1434.0216064453125" id="rel8" class="er relationshipLabel">funding</text><rect height="14" width="55.21875" y="375.9109191894531" x="1534.2852783203125" class="er relationshipLabelBox"/><text style="text-anchor: middle; dominant-baseline: middle; font-size: 12px;" y="382.9109191894531" x="1561.8946533203125" id="rel9" class="er relationshipLabel">guideline</text><rect height="14" width="99.703125" y="354.07684326171875" x="1626.8056640625" class="er relationshipLabelBox"/><text style="text-anchor: middle; dominant-baseline: middle; font-size: 12px;" y="361.07684326171875" x="1676.6572265625" id="rel10" class="er relationshipLabel">medicineSystem</text><rect height="14" width="124.953125" y="345.3111572265625" x="1721.63427734375" class="er relationshipLabelBox"/><text style="text-anchor: middle; dominant-baseline: middle; font-size: 12px;" y="352.3111572265625" x="1784.11083984375" id="rel11" class="er relationshipLabel">recognizingAuthority</text><rect height="14" width="104.578125" y="340.45880126953125" x="1840.118408203125" class="er relationshipLabelBox"/><text style="text-anchor: middle; dominant-baseline: middle; font-size: 12px;" y="347.45880126953125" x="1892.407470703125" id="rel12" class="er relationshipLabel">relevantSpecialty</text><rect height="14" width="33.28125" y="337.3998107910156" x="1985.2711181640625" class="er relationshipLabelBox"/><text style="text-anchor: middle; dominant-baseline: middle; font-size: 12px;" y="344.3998107910156" x="2001.9117431640625" id="rel13" class="er relationshipLabel">study</text><rect height="14" width="90.96875" y="335.44586181640625" x="2058.41259765625" class="er relationshipLabelBox"/><text style="text-anchor: middle; dominant-baseline: middle; font-size: 12px;" y="342.44586181640625" x="2103.89697265625" id="rel14" class="er relationshipLabel">potentialAction</text></svg>