<svg aria-roledescription="er" role="graphics-document document" viewBox="-140.39212799072266 0 3766.90380859375 764" style="max-width: 3766.9px; background-color: white;" xmlns:xlink="http://www.w3.org/1999/xlink" xmlns="http://www.w3.org/2000/svg" width="100%" id="my-svg"><style>#my-svg{font-family:"trebuchet ms",verdana,arial,sans-serif;font-size:16px;fill:#333;}#my-svg .error-icon{fill:#552222;}#my-svg .error-text{fill:#552222;stroke:#552222;}#my-svg .edge-thickness-normal{stroke-width:1px;}#my-svg .edge-thickness-thick{stroke-width:3.5px;}#my-svg .edge-pattern-solid{stroke-dasharray:0;}#my-svg .edge-thickness-invisible{stroke-width:0;fill:none;}#my-svg .edge-pattern-dashed{stroke-dasharray:3;}#my-svg .edge-pattern-dotted{stroke-dasharray:2;}#my-svg .marker{fill:#333333;stroke:#333333;}#my-svg .marker.cross{stroke:#333333;}#my-svg svg{font-family:"trebuchet ms",verdana,arial,sans-serif;font-size:16px;}#my-svg p{margin:0;}#my-svg .entityBox{fill:#ECECFF;stroke:#9370DB;}#my-svg .attributeBoxOdd{fill:#ffffff;stroke:#9370DB;}#my-svg .attributeBoxEven{fill:#f2f2f2;stroke:#9370DB;}#my-svg .relationshipLabelBox{fill:hsl(80, 100%, 96.2745098039%);opacity:0.7;background-color:hsl(80, 100%, 96.2745098039%);}#my-svg .relationshipLabelBox rect{opacity:0.5;}#my-svg .relationshipLine{stroke:#333333;}#my-svg .entityTitleText{text-anchor:middle;font-size:18px;fill:#333;}#my-svg #MD_PARENT_START{fill:#f5f5f5!important;stroke:#333333!important;stroke-width:1;}#my-svg #MD_PARENT_END{fill:#f5f5f5!important;stroke:#333333!important;stroke-width:1;}#my-svg :root{--mermaid-font-family:"trebuchet ms",verdana,arial,sans-serif;}</style><g/><defs><marker orient="auto" markerHeight="240" markerWidth="190" refY="7" refX="0" id="MD_PARENT_START"><path d="M 18,7 L9,13 L1,7 L9,1 Z"/></marker></defs><defs><marker orient="auto" markerHeight="28" markerWidth="20" refY="7" refX="19" id="MD_PARENT_END"><path d="M 18,7 L9,13 L1,7 L9,1 Z"/></marker></defs><defs><marker orient="auto" markerHeight="18" markerWidth="18" refY="9" refX="0" id="ONLY_ONE_START"><path d="M9,0 L9,18 M15,0 L15,18" fill="none" stroke="gray"/></marker></defs><defs><marker orient="auto" markerHeight="18" markerWidth="18" refY="9" refX="18" id="ONLY_ONE_END"><path d="M3,0 L3,18 M9,0 L9,18" fill="none" stroke="gray"/></marker></defs><defs><marker orient="auto" markerHeight="18" markerWidth="30" refY="9" refX="0" id="ZERO_OR_ONE_START"><circle r="6" cy="9" cx="21" fill="white" stroke="gray"/><path d="M9,0 L9,18" fill="none" stroke="gray"/></marker></defs><defs><marker orient="auto" markerHeight="18" markerWidth="30" refY="9" refX="30" id="ZERO_OR_ONE_END"><circle r="6" cy="9" cx="9" fill="white" stroke="gray"/><path d="M21,0 L21,18" fill="none" stroke="gray"/></marker></defs><defs><marker orient="auto" markerHeight="36" markerWidth="45" refY="18" refX="18" id="ONE_OR_MORE_START"><path d="M0,18 Q 18,0 36,18 Q 18,36 0,18 M42,9 L42,27" fill="none" stroke="gray"/></marker></defs><defs><marker orient="auto" markerHeight="36" markerWidth="45" refY="18" refX="27" id="ONE_OR_MORE_END"><path d="M3,9 L3,27 M9,18 Q27,0 45,18 Q27,36 9,18" fill="none" stroke="gray"/></marker></defs><defs><marker orient="auto" markerHeight="36" markerWidth="57" refY="18" refX="18" id="ZERO_OR_MORE_START"><circle r="6" cy="18" cx="48" fill="white" stroke="gray"/><path d="M0,18 Q18,0 36,18 Q18,36 0,18" fill="none" stroke="gray"/></marker></defs><defs><marker orient="auto" markerHeight="36" markerWidth="57" refY="18" refX="39" id="ZERO_OR_MORE_END"><circle r="6" cy="18" cx="9" fill="white" stroke="gray"/><path d="M21,18 Q39,0 57,18 Q39,36 21,18" fill="none" stroke="gray"/></marker></defs><path style="stroke: gray; fill: none;" marker-start="url(#ONLY_ONE_START)" marker-end="url(#ZERO_OR_MORE_END)" d="M1390.898,314.16L1104.082,364.966C817.266,415.773,243.633,517.387,15.15,580.954C-213.333,644.521,-96.667,670.042,-38.333,682.802L20,695.563" class="er relationshipLine"/><path style="stroke: gray; fill: none;" marker-start="url(#ONLY_ONE_START)" marker-end="url(#ZERO_OR_MORE_END)" d="M1390.898,333.147L1254.082,380.789C1117.266,428.431,843.633,523.716,740.15,583.024C636.667,642.333,703.333,665.667,736.667,677.333L770,689" class="er relationshipLine"/><path style="stroke: gray; fill: none;" marker-start="url(#ONLY_ONE_START)" marker-end="url(#ZERO_OR_MORE_END)" d="M1390.898,403.016L1354.082,439.013C1317.266,475.01,1243.633,547.005,1206.816,591.336C1170,635.667,1170,652.333,1170,660.667L1170,669" class="er relationshipLine"/><path style="stroke: gray; fill: none;" marker-start="url(#ONLY_ONE_START)" marker-end="url(#ZERO_OR_MORE_END)" d="M1409.347,569L1406.538,577.333C1403.729,585.667,1398.111,602.333,1395.301,619C1392.492,635.667,1392.492,652.333,1392.492,660.667L1392.492,669" class="er relationshipLine"/><path style="stroke: gray; fill: none;" marker-start="url(#ONLY_ONE_START)" marker-end="url(#ZERO_OR_MORE_END)" d="M1612.867,522.71L1620.672,538.759C1628.477,554.807,1644.086,586.903,1651.891,611.285C1659.695,635.667,1659.695,652.333,1659.695,660.667L1659.695,669" class="er relationshipLine"/><path style="stroke: gray; fill: none;" marker-start="url(#ONLY_ONE_START)" marker-end="url(#ZERO_OR_MORE_END)" d="M1390.898,315.295L1120.749,365.912C850.599,416.53,310.299,517.765,81.816,580.535C-146.667,643.306,-63.333,667.611,-21.667,679.764L20,691.917" class="er relationshipLine"/><path style="stroke: gray; fill: none;" marker-start="url(#ONLY_ONE_START)" marker-end="url(#ZERO_OR_MORE_END)" d="M1612.867,421.49L1641.637,454.408C1670.406,487.326,1727.945,553.163,1769.346,594.868C1810.747,636.573,1836.01,654.146,1848.642,662.933L1861.273,671.72" class="er relationshipLine"/><path style="stroke: gray; fill: none;" marker-start="url(#ONLY_ONE_START)" marker-end="url(#ZERO_OR_MORE_END)" d="M1612.867,382.471L1662.602,421.892C1712.336,461.314,1811.805,540.157,1861.539,587.912C1911.273,635.667,1911.273,652.333,1911.273,660.667L1911.273,669" class="er relationshipLine"/><path style="stroke: gray; fill: none;" marker-start="url(#ONLY_ONE_START)" marker-end="url(#ZERO_OR_MORE_END)" d="M1612.867,365.201L1679.268,407.501C1745.669,449.801,1878.471,534.4,1935.349,585.034C1992.226,635.667,1973.178,652.333,1963.654,660.667L1954.131,669" class="er relationshipLine"/><path style="stroke: gray; fill: none;" marker-start="url(#ONLY_ONE_START)" marker-end="url(#ZERO_OR_MORE_END)" d="M1612.867,353.599L1695.935,397.833C1779.003,442.066,1945.138,530.533,2032.968,583.1C2120.797,635.667,2130.321,652.333,2135.083,660.667L2139.845,669" class="er relationshipLine"/><path style="stroke: gray; fill: none;" marker-start="url(#ONLY_ONE_START)" marker-end="url(#ZERO_OR_MORE_END)" d="M1612.867,345.21L1712.736,390.842C1812.605,436.474,2012.344,527.737,2107.374,581.702C2202.404,635.667,2192.726,652.333,2187.887,660.667L2183.049,669" class="er relationshipLine"/><path style="stroke: gray; fill: none;" marker-start="url(#ONLY_ONE_START)" marker-end="url(#ZERO_OR_MORE_END)" d="M1390.898,316.569L1137.415,366.974C883.932,417.379,376.966,518.19,148.483,579.532C-80,640.875,-30,662.75,-5,673.688L20,684.625" class="er relationshipLine"/><path style="stroke: gray; fill: none;" marker-start="url(#ONLY_ONE_START)" marker-end="url(#ZERO_OR_MORE_END)" d="M1612.867,336.328L1737.871,383.44C1862.875,430.552,2112.883,524.776,2237.887,580.221C2362.891,635.667,2362.891,652.333,2362.891,660.667L2362.891,669" class="er relationshipLine"/><path style="stroke: gray; fill: none;" marker-start="url(#ONLY_ONE_START)" marker-end="url(#ZERO_OR_MORE_END)" d="M1612.867,331.944L1754.673,379.787C1896.478,427.629,2180.089,523.315,2346.894,582.095C2513.699,640.875,2563.699,662.75,2588.699,673.688L2613.699,684.625" class="er relationshipLine"/><path style="stroke: gray; fill: none;" marker-start="url(#ONLY_ONE_START)" marker-end="url(#ZERO_OR_MORE_END)" d="M1612.867,328.418L1771.339,376.848C1929.811,425.279,2246.755,522.139,2414.751,578.903C2582.747,635.667,2601.794,652.333,2611.318,660.667L2620.842,669" class="er relationshipLine"/><path style="stroke: gray; fill: none;" marker-start="url(#ONLY_ONE_START)" marker-end="url(#ZERO_OR_MORE_END)" d="M1390.898,318.01L1154.082,368.175C917.266,418.34,443.633,518.67,216.34,577.168C-10.952,635.667,8.095,652.333,17.619,660.667L27.143,669" class="er relationshipLine"/><path style="stroke: gray; fill: none;" marker-start="url(#ONLY_ONE_START)" marker-end="url(#ZERO_OR_MORE_END)" d="M1390.898,337.793L1270.749,384.661C1150.599,431.528,910.299,525.264,806.816,581.854C703.333,638.444,736.667,657.889,753.333,667.611L770,677.333" class="er relationshipLine"/><path style="stroke: gray; fill: none;" marker-start="url(#ONLY_ONE_START)" marker-end="url(#ZERO_OR_MORE_END)" d="M1390.898,343.708L1287.415,389.59C1183.932,435.472,976.966,527.236,878.245,581.451C779.524,635.667,789.048,652.333,793.81,660.667L798.571,669" class="er relationshipLine"/><path style="stroke: gray; fill: none;" marker-start="url(#ONLY_ONE_START)" marker-end="url(#ZERO_OR_MORE_END)" d="M1612.867,320.946L1821.339,370.622C2029.811,420.297,2446.755,519.649,2655.227,577.658C2863.699,635.667,2863.699,652.333,2863.699,660.667L2863.699,669" class="er relationshipLine"/><path style="stroke: gray; fill: none;" marker-start="url(#ONLY_ONE_START)" marker-end="url(#ZERO_OR_MORE_END)" d="M1612.867,317.962L1850.206,368.135C2087.546,418.308,2562.224,518.654,2806.535,577.16C3050.846,635.667,3064.789,652.333,3071.761,660.667L3078.733,669" class="er relationshipLine"/><path style="stroke: gray; fill: none;" marker-start="url(#ONLY_ONE_START)" marker-end="url(#ZERO_OR_MORE_END)" d="M1612.867,325.498L1788.006,374.415C1963.145,423.332,2313.422,521.166,2488.561,578.416C2663.699,635.667,2663.699,652.333,2663.699,660.667L2663.699,669" class="er relationshipLine"/><path style="stroke: gray; fill: none;" marker-start="url(#ONLY_ONE_START)" marker-end="url(#ZERO_OR_MORE_END)" d="M1612.867,314.717L1891.274,365.431C2169.681,416.144,2726.495,517.572,3011.873,576.619C3297.252,635.667,3311.195,652.333,3318.167,660.667L3325.139,669" class="er relationshipLine"/><path style="stroke: gray; fill: none;" marker-start="url(#ONLY_ONE_START)" marker-end="url(#ZERO_OR_MORE_END)" d="M1612.867,313.409L1911.808,364.341C2210.749,415.273,2808.63,517.136,3102.809,576.401C3396.988,635.667,3387.464,652.333,3382.702,660.667L3377.94,669" class="er relationshipLine"/><path style="stroke: gray; fill: none;" marker-start="url(#ONLY_ONE_START)" marker-end="url(#ZERO_OR_MORE_END)" d="M1390.898,319.652L1170.749,369.543C950.599,419.435,510.299,519.217,290.15,577.442C70,635.667,70,652.333,70,660.667L70,669" class="er relationshipLine"/><path style="stroke: gray; fill: none;" marker-start="url(#ONLY_ONE_START)" marker-end="url(#ZERO_OR_MORE_END)" d="M1612.867,323.042L1804.673,372.368C1996.478,421.694,2380.089,520.347,2562.37,578.007C2744.652,635.667,2725.604,652.333,2716.08,660.667L2706.556,669" class="er relationshipLine"/><path style="stroke: gray; fill: none;" marker-start="url(#ONLY_ONE_START)" marker-end="url(#ZERO_OR_MORE_END)" d="M1612.867,315.919L1874.607,366.432C2136.348,416.946,2659.828,517.973,2914.597,576.82C3169.365,635.667,3155.422,652.333,3148.45,660.667L3141.478,669" class="er relationshipLine"/><path style="stroke: gray; fill: none;" marker-start="url(#ONLY_ONE_START)" marker-end="url(#ZERO_OR_MORE_END)" d="M1390.898,321.54L1187.415,371.117C983.932,420.693,576.966,519.847,363.959,577.757C150.952,635.667,131.905,652.333,122.381,660.667L112.857,669" class="er relationshipLine"/><path style="stroke: gray; fill: none;" marker-start="url(#ONLY_ONE_START)" marker-end="url(#ZERO_OR_MORE_END)" d="M1390.898,351.495L1304.082,396.08C1217.266,440.664,1043.633,529.832,952.055,582.749C860.476,635.667,850.952,652.333,846.19,660.667L841.429,669" class="er relationshipLine"/><path style="stroke: gray; fill: none;" marker-start="url(#ONLY_ONE_START)" marker-end="url(#ZERO_OR_MORE_END)" d="M1390.898,323.735L1204.082,372.946C1017.266,422.157,643.633,520.578,431.816,580.727C220,640.875,170,662.75,145,673.688L120,684.625" class="er relationshipLine"/><path style="stroke: gray; fill: none;" marker-start="url(#ONLY_ONE_START)" marker-end="url(#ZERO_OR_MORE_END)" d="M1390.898,326.318L1220.749,375.098C1050.599,423.879,710.299,521.439,498.483,582.372C286.667,643.306,203.333,667.611,161.667,679.764L120,691.917" class="er relationshipLine"/><path style="stroke: gray; fill: none;" marker-start="url(#ONLY_ONE_START)" marker-end="url(#ZERO_OR_MORE_END)" d="M1390.898,329.402L1237.415,377.668C1083.932,425.934,776.966,522.467,565.15,583.494C353.333,644.521,236.667,670.042,178.333,682.802L120,695.563" class="er relationshipLine"/><path style="stroke: gray; fill: none;" marker-start="url(#ONLY_ONE_START)" marker-end="url(#ZERO_OR_MORE_END)" d="M1390.898,362.211L1320.749,405.009C1250.599,447.807,1110.299,533.404,1023.483,585.924C936.667,638.444,903.333,657.889,886.667,667.611L870,677.333" class="er relationshipLine"/><path style="stroke: gray; fill: none;" marker-start="url(#ONLY_ONE_START)" marker-end="url(#ZERO_OR_MORE_END)" d="M1612.867,312.028L1936.808,363.19C2260.749,414.352,2908.63,516.676,3232.571,576.171C3556.512,635.667,3556.512,652.333,3556.512,660.667L3556.512,669" class="er relationshipLine"/><path style="stroke: gray; fill: none;" marker-start="url(#ONLY_ONE_START)" marker-end="url(#ZERO_OR_MORE_END)" d="M1390.898,377.889L1337.415,418.074C1283.932,458.26,1176.966,538.63,1090.15,590.482C1003.333,642.333,936.667,665.667,903.333,677.333L870,689" class="er relationshipLine"/><g transform="translate(1390.8984375,20 )" id="entity-LandmarksOrHistoricalBuildings-c08e5b73-ef11-5d83-8a3c-9c0bb70f7400"><rect height="549" width="221.96875" y="0" x="0" class="er entityBox"/><text style="dominant-baseline: middle; text-anchor: middle; font-size: 12px;" transform="translate(110.984375,12)" y="0" x="0" id="text-entity-LandmarksOrHistoricalBuildings-c08e5b73-ef11-5d83-8a3c-9c0bb70f7400" class="er entityLabel">LandmarksOrHistoricalBuildings</text><rect height="21" width="88.78125" y="24" x="0" class="er attributeBoxOdd"/><text style="dominant-baseline: middle; font-size: 10.2px;" transform="translate(5,34.5)" y="0" x="0" id="text-entity-LandmarksOrHistoricalBuildings-c08e5b73-ef11-5d83-8a3c-9c0bb70f7400-attr-1-type" class="er entityLabel">stringList</text><rect height="21" width="133.1875" y="24" x="88.78125" class="er attributeBoxOdd"/><text style="dominant-baseline: middle; font-size: 10.2px;" transform="translate(93.78125,34.5)" y="0" x="0" id="text-entity-LandmarksOrHistoricalBuildings-c08e5b73-ef11-5d83-8a3c-9c0bb70f7400-attr-1-name" class="er entityLabel">logo</text><rect height="21" width="88.78125" y="45" x="0" class="er attributeBoxEven"/><text style="dominant-baseline: middle; font-size: 10.2px;" transform="translate(5,55.5)" y="0" x="0" id="text-entity-LandmarksOrHistoricalBuildings-c08e5b73-ef11-5d83-8a3c-9c0bb70f7400-attr-2-type" class="er entityLabel">stringList</text><rect height="21" width="133.1875" y="45" x="88.78125" class="er attributeBoxEven"/><text style="dominant-baseline: middle; font-size: 10.2px;" transform="translate(93.78125,55.5)" y="0" x="0" id="text-entity-LandmarksOrHistoricalBuildings-c08e5b73-ef11-5d83-8a3c-9c0bb70f7400-attr-2-name" class="er entityLabel">photo</text><rect height="21" width="88.78125" y="66" x="0" class="er attributeBoxOdd"/><text style="dominant-baseline: middle; font-size: 10.2px;" transform="translate(5,76.5)" y="0" x="0" id="text-entity-LandmarksOrHistoricalBuildings-c08e5b73-ef11-5d83-8a3c-9c0bb70f7400-attr-3-type" class="er entityLabel">stringList</text><rect height="21" width="133.1875" y="66" x="88.78125" class="er attributeBoxOdd"/><text style="dominant-baseline: middle; font-size: 10.2px;" transform="translate(93.78125,76.5)" y="0" x="0" id="text-entity-LandmarksOrHistoricalBuildings-c08e5b73-ef11-5d83-8a3c-9c0bb70f7400-attr-3-name" class="er entityLabel">address</text><rect height="21" width="88.78125" y="87" x="0" class="er attributeBoxEven"/><text style="dominant-baseline: middle; font-size: 10.2px;" transform="translate(5,97.5)" y="0" x="0" id="text-entity-LandmarksOrHistoricalBuildings-c08e5b73-ef11-5d83-8a3c-9c0bb70f7400-attr-4-type" class="er entityLabel">stringList</text><rect height="21" width="133.1875" y="87" x="88.78125" class="er attributeBoxEven"/><text style="dominant-baseline: middle; font-size: 10.2px;" transform="translate(93.78125,97.5)" y="0" x="0" id="text-entity-LandmarksOrHistoricalBuildings-c08e5b73-ef11-5d83-8a3c-9c0bb70f7400-attr-4-name" class="er entityLabel">geo</text><rect height="21" width="88.78125" y="108" x="0" class="er attributeBoxOdd"/><text style="dominant-baseline: middle; font-size: 10.2px;" transform="translate(5,118.5)" y="0" x="0" id="text-entity-LandmarksOrHistoricalBuildings-c08e5b73-ef11-5d83-8a3c-9c0bb70f7400-attr-5-type" class="er entityLabel">stringList</text><rect height="21" width="133.1875" y="108" x="88.78125" class="er attributeBoxOdd"/><text style="dominant-baseline: middle; font-size: 10.2px;" transform="translate(93.78125,118.5)" y="0" x="0" id="text-entity-LandmarksOrHistoricalBuildings-c08e5b73-ef11-5d83-8a3c-9c0bb70f7400-attr-5-name" class="er entityLabel">geoContains</text><rect height="21" width="88.78125" y="129" x="0" class="er attributeBoxEven"/><text style="dominant-baseline: middle; font-size: 10.2px;" transform="translate(5,139.5)" y="0" x="0" id="text-entity-LandmarksOrHistoricalBuildings-c08e5b73-ef11-5d83-8a3c-9c0bb70f7400-attr-6-type" class="er entityLabel">stringList</text><rect height="21" width="133.1875" y="129" x="88.78125" class="er attributeBoxEven"/><text style="dominant-baseline: middle; font-size: 10.2px;" transform="translate(93.78125,139.5)" y="0" x="0" id="text-entity-LandmarksOrHistoricalBuildings-c08e5b73-ef11-5d83-8a3c-9c0bb70f7400-attr-6-name" class="er entityLabel">geoCoveredBy</text><rect height="21" width="88.78125" y="150" x="0" class="er attributeBoxOdd"/><text style="dominant-baseline: middle; font-size: 10.2px;" transform="translate(5,160.5)" y="0" x="0" id="text-entity-LandmarksOrHistoricalBuildings-c08e5b73-ef11-5d83-8a3c-9c0bb70f7400-attr-7-type" class="er entityLabel">stringList</text><rect height="21" width="133.1875" y="150" x="88.78125" class="er attributeBoxOdd"/><text style="dominant-baseline: middle; font-size: 10.2px;" transform="translate(93.78125,160.5)" y="0" x="0" id="text-entity-LandmarksOrHistoricalBuildings-c08e5b73-ef11-5d83-8a3c-9c0bb70f7400-attr-7-name" class="er entityLabel">geoCovers</text><rect height="21" width="88.78125" y="171" x="0" class="er attributeBoxEven"/><text style="dominant-baseline: middle; font-size: 10.2px;" transform="translate(5,181.5)" y="0" x="0" id="text-entity-LandmarksOrHistoricalBuildings-c08e5b73-ef11-5d83-8a3c-9c0bb70f7400-attr-8-type" class="er entityLabel">stringList</text><rect height="21" width="133.1875" y="171" x="88.78125" class="er attributeBoxEven"/><text style="dominant-baseline: middle; font-size: 10.2px;" transform="translate(93.78125,181.5)" y="0" x="0" id="text-entity-LandmarksOrHistoricalBuildings-c08e5b73-ef11-5d83-8a3c-9c0bb70f7400-attr-8-name" class="er entityLabel">geoCrosses</text><rect height="21" width="88.78125" y="192" x="0" class="er attributeBoxOdd"/><text style="dominant-baseline: middle; font-size: 10.2px;" transform="translate(5,202.5)" y="0" x="0" id="text-entity-LandmarksOrHistoricalBuildings-c08e5b73-ef11-5d83-8a3c-9c0bb70f7400-attr-9-type" class="er entityLabel">stringList</text><rect height="21" width="133.1875" y="192" x="88.78125" class="er attributeBoxOdd"/><text style="dominant-baseline: middle; font-size: 10.2px;" transform="translate(93.78125,202.5)" y="0" x="0" id="text-entity-LandmarksOrHistoricalBuildings-c08e5b73-ef11-5d83-8a3c-9c0bb70f7400-attr-9-name" class="er entityLabel">geoDisjoint</text><rect height="21" width="88.78125" y="213" x="0" class="er attributeBoxEven"/><text style="dominant-baseline: middle; font-size: 10.2px;" transform="translate(5,223.5)" y="0" x="0" id="text-entity-LandmarksOrHistoricalBuildings-c08e5b73-ef11-5d83-8a3c-9c0bb70f7400-attr-10-type" class="er entityLabel">stringList</text><rect height="21" width="133.1875" y="213" x="88.78125" class="er attributeBoxEven"/><text style="dominant-baseline: middle; font-size: 10.2px;" transform="translate(93.78125,223.5)" y="0" x="0" id="text-entity-LandmarksOrHistoricalBuildings-c08e5b73-ef11-5d83-8a3c-9c0bb70f7400-attr-10-name" class="er entityLabel">geoEquals</text><rect height="21" width="88.78125" y="234" x="0" class="er attributeBoxOdd"/><text style="dominant-baseline: middle; font-size: 10.2px;" transform="translate(5,244.5)" y="0" x="0" id="text-entity-LandmarksOrHistoricalBuildings-c08e5b73-ef11-5d83-8a3c-9c0bb70f7400-attr-11-type" class="er entityLabel">stringList</text><rect height="21" width="133.1875" y="234" x="88.78125" class="er attributeBoxOdd"/><text style="dominant-baseline: middle; font-size: 10.2px;" transform="translate(93.78125,244.5)" y="0" x="0" id="text-entity-LandmarksOrHistoricalBuildings-c08e5b73-ef11-5d83-8a3c-9c0bb70f7400-attr-11-name" class="er entityLabel">geoIntersects</text><rect height="21" width="88.78125" y="255" x="0" class="er attributeBoxEven"/><text style="dominant-baseline: middle; font-size: 10.2px;" transform="translate(5,265.5)" y="0" x="0" id="text-entity-LandmarksOrHistoricalBuildings-c08e5b73-ef11-5d83-8a3c-9c0bb70f7400-attr-12-type" class="er entityLabel">stringList</text><rect height="21" width="133.1875" y="255" x="88.78125" class="er attributeBoxEven"/><text style="dominant-baseline: middle; font-size: 10.2px;" transform="translate(93.78125,265.5)" y="0" x="0" id="text-entity-LandmarksOrHistoricalBuildings-c08e5b73-ef11-5d83-8a3c-9c0bb70f7400-attr-12-name" class="er entityLabel">geoOverlaps</text><rect height="21" width="88.78125" y="276" x="0" class="er attributeBoxOdd"/><text style="dominant-baseline: middle; font-size: 10.2px;" transform="translate(5,286.5)" y="0" x="0" id="text-entity-LandmarksOrHistoricalBuildings-c08e5b73-ef11-5d83-8a3c-9c0bb70f7400-attr-13-type" class="er entityLabel">stringList</text><rect height="21" width="133.1875" y="276" x="88.78125" class="er attributeBoxOdd"/><text style="dominant-baseline: middle; font-size: 10.2px;" transform="translate(93.78125,286.5)" y="0" x="0" id="text-entity-LandmarksOrHistoricalBuildings-c08e5b73-ef11-5d83-8a3c-9c0bb70f7400-attr-13-name" class="er entityLabel">geoTouches</text><rect height="21" width="88.78125" y="297" x="0" class="er attributeBoxEven"/><text style="dominant-baseline: middle; font-size: 10.2px;" transform="translate(5,307.5)" y="0" x="0" id="text-entity-LandmarksOrHistoricalBuildings-c08e5b73-ef11-5d83-8a3c-9c0bb70f7400-attr-14-type" class="er entityLabel">stringList</text><rect height="21" width="133.1875" y="297" x="88.78125" class="er attributeBoxEven"/><text style="dominant-baseline: middle; font-size: 10.2px;" transform="translate(93.78125,307.5)" y="0" x="0" id="text-entity-LandmarksOrHistoricalBuildings-c08e5b73-ef11-5d83-8a3c-9c0bb70f7400-attr-14-name" class="er entityLabel">geoWithin</text><rect height="21" width="88.78125" y="318" x="0" class="er attributeBoxOdd"/><text style="dominant-baseline: middle; font-size: 10.2px;" transform="translate(5,328.5)" y="0" x="0" id="text-entity-LandmarksOrHistoricalBuildings-c08e5b73-ef11-5d83-8a3c-9c0bb70f7400-attr-15-type" class="er entityLabel">stringList</text><rect height="21" width="133.1875" y="318" x="88.78125" class="er attributeBoxOdd"/><text style="dominant-baseline: middle; font-size: 10.2px;" transform="translate(93.78125,328.5)" y="0" x="0" id="text-entity-LandmarksOrHistoricalBuildings-c08e5b73-ef11-5d83-8a3c-9c0bb70f7400-attr-15-name" class="er entityLabel">hasMap</text><rect height="21" width="88.78125" y="339" x="0" class="er attributeBoxEven"/><text style="dominant-baseline: middle; font-size: 10.2px;" transform="translate(5,349.5)" y="0" x="0" id="text-entity-LandmarksOrHistoricalBuildings-c08e5b73-ef11-5d83-8a3c-9c0bb70f7400-attr-16-type" class="er entityLabel">stringList</text><rect height="21" width="133.1875" y="339" x="88.78125" class="er attributeBoxEven"/><text style="dominant-baseline: middle; font-size: 10.2px;" transform="translate(93.78125,349.5)" y="0" x="0" id="text-entity-LandmarksOrHistoricalBuildings-c08e5b73-ef11-5d83-8a3c-9c0bb70f7400-attr-16-name" class="er entityLabel">keywords</text><rect height="21" width="88.78125" y="360" x="0" class="er attributeBoxOdd"/><text style="dominant-baseline: middle; font-size: 10.2px;" transform="translate(5,370.5)" y="0" x="0" id="text-entity-LandmarksOrHistoricalBuildings-c08e5b73-ef11-5d83-8a3c-9c0bb70f7400-attr-17-type" class="er entityLabel">stringList</text><rect height="21" width="133.1875" y="360" x="88.78125" class="er attributeBoxOdd"/><text style="dominant-baseline: middle; font-size: 10.2px;" transform="translate(93.78125,370.5)" y="0" x="0" id="text-entity-LandmarksOrHistoricalBuildings-c08e5b73-ef11-5d83-8a3c-9c0bb70f7400-attr-17-name" class="er entityLabel">latitude</text><rect height="21" width="88.78125" y="381" x="0" class="er attributeBoxEven"/><text style="dominant-baseline: middle; font-size: 10.2px;" transform="translate(5,391.5)" y="0" x="0" id="text-entity-LandmarksOrHistoricalBuildings-c08e5b73-ef11-5d83-8a3c-9c0bb70f7400-attr-18-type" class="er entityLabel">stringList</text><rect height="21" width="133.1875" y="381" x="88.78125" class="er attributeBoxEven"/><text style="dominant-baseline: middle; font-size: 10.2px;" transform="translate(93.78125,391.5)" y="0" x="0" id="text-entity-LandmarksOrHistoricalBuildings-c08e5b73-ef11-5d83-8a3c-9c0bb70f7400-attr-18-name" class="er entityLabel">longitude</text><rect height="21" width="88.78125" y="402" x="0" class="er attributeBoxOdd"/><text style="dominant-baseline: middle; font-size: 10.2px;" transform="translate(5,412.5)" y="0" x="0" id="text-entity-LandmarksOrHistoricalBuildings-c08e5b73-ef11-5d83-8a3c-9c0bb70f7400-attr-19-type" class="er entityLabel">stringList</text><rect height="21" width="133.1875" y="402" x="88.78125" class="er attributeBoxOdd"/><text style="dominant-baseline: middle; font-size: 10.2px;" transform="translate(93.78125,412.5)" y="0" x="0" id="text-entity-LandmarksOrHistoricalBuildings-c08e5b73-ef11-5d83-8a3c-9c0bb70f7400-attr-19-name" class="er entityLabel">photos</text><rect height="21" width="88.78125" y="423" x="0" class="er attributeBoxEven"/><text style="dominant-baseline: middle; font-size: 10.2px;" transform="translate(5,433.5)" y="0" x="0" id="text-entity-LandmarksOrHistoricalBuildings-c08e5b73-ef11-5d83-8a3c-9c0bb70f7400-attr-20-type" class="er entityLabel">stringList</text><rect height="21" width="133.1875" y="423" x="88.78125" class="er attributeBoxEven"/><text style="dominant-baseline: middle; font-size: 10.2px;" transform="translate(93.78125,433.5)" y="0" x="0" id="text-entity-LandmarksOrHistoricalBuildings-c08e5b73-ef11-5d83-8a3c-9c0bb70f7400-attr-20-name" class="er entityLabel">additionalType</text><rect height="21" width="88.78125" y="444" x="0" class="er attributeBoxOdd"/><text style="dominant-baseline: middle; font-size: 10.2px;" transform="translate(5,454.5)" y="0" x="0" id="text-entity-LandmarksOrHistoricalBuildings-c08e5b73-ef11-5d83-8a3c-9c0bb70f7400-attr-21-type" class="er entityLabel">stringList</text><rect height="21" width="133.1875" y="444" x="88.78125" class="er attributeBoxOdd"/><text style="dominant-baseline: middle; font-size: 10.2px;" transform="translate(93.78125,454.5)" y="0" x="0" id="text-entity-LandmarksOrHistoricalBuildings-c08e5b73-ef11-5d83-8a3c-9c0bb70f7400-attr-21-name" class="er entityLabel">description</text><rect height="21" width="88.78125" y="465" x="0" class="er attributeBoxEven"/><text style="dominant-baseline: middle; font-size: 10.2px;" transform="translate(5,475.5)" y="0" x="0" id="text-entity-LandmarksOrHistoricalBuildings-c08e5b73-ef11-5d83-8a3c-9c0bb70f7400-attr-22-type" class="er entityLabel">stringList</text><rect height="21" width="133.1875" y="465" x="88.78125" class="er attributeBoxEven"/><text style="dominant-baseline: middle; font-size: 10.2px;" transform="translate(93.78125,475.5)" y="0" x="0" id="text-entity-LandmarksOrHistoricalBuildings-c08e5b73-ef11-5d83-8a3c-9c0bb70f7400-attr-22-name" class="er entityLabel">identifier</text><rect height="21" width="88.78125" y="486" x="0" class="er attributeBoxOdd"/><text style="dominant-baseline: middle; font-size: 10.2px;" transform="translate(5,496.5)" y="0" x="0" id="text-entity-LandmarksOrHistoricalBuildings-c08e5b73-ef11-5d83-8a3c-9c0bb70f7400-attr-23-type" class="er entityLabel">stringList</text><rect height="21" width="133.1875" y="486" x="88.78125" class="er attributeBoxOdd"/><text style="dominant-baseline: middle; font-size: 10.2px;" transform="translate(93.78125,496.5)" y="0" x="0" id="text-entity-LandmarksOrHistoricalBuildings-c08e5b73-ef11-5d83-8a3c-9c0bb70f7400-attr-23-name" class="er entityLabel">image</text><rect height="21" width="88.78125" y="507" x="0" class="er attributeBoxEven"/><text style="dominant-baseline: middle; font-size: 10.2px;" transform="translate(5,517.5)" y="0" x="0" id="text-entity-LandmarksOrHistoricalBuildings-c08e5b73-ef11-5d83-8a3c-9c0bb70f7400-attr-24-type" class="er entityLabel">stringList</text><rect height="21" width="133.1875" y="507" x="88.78125" class="er attributeBoxEven"/><text style="dominant-baseline: middle; font-size: 10.2px;" transform="translate(93.78125,517.5)" y="0" x="0" id="text-entity-LandmarksOrHistoricalBuildings-c08e5b73-ef11-5d83-8a3c-9c0bb70f7400-attr-24-name" class="er entityLabel">mainEntityOfPage</text><rect height="21" width="88.78125" y="528" x="0" class="er attributeBoxOdd"/><text style="dominant-baseline: middle; font-size: 10.2px;" transform="translate(5,538.5)" y="0" x="0" id="text-entity-LandmarksOrHistoricalBuildings-c08e5b73-ef11-5d83-8a3c-9c0bb70f7400-attr-25-type" class="er entityLabel">stringList</text><rect height="21" width="133.1875" y="528" x="88.78125" class="er attributeBoxOdd"/><text style="dominant-baseline: middle; font-size: 10.2px;" transform="translate(93.78125,538.5)" y="0" x="0" id="text-entity-LandmarksOrHistoricalBuildings-c08e5b73-ef11-5d83-8a3c-9c0bb70f7400-attr-25-name" class="er entityLabel">subjectOf</text></g><g transform="translate(20,669 )" id="entity-Text-426c5d39-acfc-5487-a6d9-ede67887190e"><rect height="75" width="100" y="0" x="0" class="er entityBox"/><text style="dominant-baseline: middle; text-anchor: middle; font-size: 12px;" transform="translate(50,37.5)" y="0" x="0" id="text-entity-Text-426c5d39-acfc-5487-a6d9-ede67887190e" class="er entityLabel">Text</text></g><g transform="translate(770,669 )" id="entity-URL-07f78d3e-fd74-5925-b39b-26c1cc2d6b7c"><rect height="75" width="100" y="0" x="0" class="er entityBox"/><text style="dominant-baseline: middle; text-anchor: middle; font-size: 12px;" transform="translate(50,37.5)" y="0" x="0" id="text-entity-URL-07f78d3e-fd74-5925-b39b-26c1cc2d6b7c" class="er entityLabel">URL</text></g><g transform="translate(1113.1328125,669 )" id="entity-PropertyValue-0e208f6c-77f8-5d2e-b4a4-9a09101a021a"><rect height="75" width="113.734375" y="0" x="0" class="er entityBox"/><text style="dominant-baseline: middle; text-anchor: middle; font-size: 12px;" transform="translate(56.8671875,37.5)" y="0" x="0" id="text-entity-PropertyValue-0e208f6c-77f8-5d2e-b4a4-9a09101a021a" class="er entityLabel">PropertyValue</text></g><g transform="translate(1326.8671875,669 )" id="entity-AggregateRating-aa0a8837-178a-57ab-baa0-94ad30d90eb5"><rect height="75" width="131.25" y="0" x="0" class="er entityBox"/><text style="dominant-baseline: middle; text-anchor: middle; font-size: 12px;" transform="translate(65.625,37.5)" y="0" x="0" id="text-entity-AggregateRating-aa0a8837-178a-57ab-baa0-94ad30d90eb5" class="er entityLabel">AggregateRating</text></g><g transform="translate(1558.1171875,669 )" id="entity-LocationFeatureSpecification-dbe29f9c-e3d0-5bc9-80cd-10146568b0ab"><rect height="75" width="203.15625" y="0" x="0" class="er entityBox"/><text style="dominant-baseline: middle; text-anchor: middle; font-size: 12px;" transform="translate(101.578125,37.5)" y="0" x="0" id="text-entity-LocationFeatureSpecification-dbe29f9c-e3d0-5bc9-80cd-10146568b0ab" class="er entityLabel">LocationFeatureSpecification</text></g><g transform="translate(1861.2734375,669 )" id="entity-Place-18cedc50-4c85-52d4-b2dd-111465382dcf"><rect height="75" width="100" y="0" x="0" class="er entityBox"/><text style="dominant-baseline: middle; text-anchor: middle; font-size: 12px;" transform="translate(50,37.5)" y="0" x="0" id="text-entity-Place-18cedc50-4c85-52d4-b2dd-111465382dcf" class="er entityLabel">Place</text></g><g transform="translate(2111.2734375,669 )" id="entity-Event-5fcfcec5-0af7-59ba-bebb-bb0a822c8afa"><rect height="75" width="100" y="0" x="0" class="er entityBox"/><text style="dominant-baseline: middle; text-anchor: middle; font-size: 12px;" transform="translate(50,37.5)" y="0" x="0" id="text-entity-Event-5fcfcec5-0af7-59ba-bebb-bb0a822c8afa" class="er entityLabel">Event</text></g><g transform="translate(2311.2734375,669 )" id="entity-Certification-8b250de0-929b-5806-8c87-f8e7c928ef36"><rect height="75" width="103.234375" y="0" x="0" class="er entityBox"/><text style="dominant-baseline: middle; text-anchor: middle; font-size: 12px;" transform="translate(51.6171875,37.5)" y="0" x="0" id="text-entity-Certification-8b250de0-929b-5806-8c87-f8e7c928ef36" class="er entityLabel">Certification</text></g><g transform="translate(2613.69921875,669 )" id="entity-Boolean-5b26178e-f873-50aa-bf9a-b8300df1b991"><rect height="75" width="100" y="0" x="0" class="er entityBox"/><text style="dominant-baseline: middle; text-anchor: middle; font-size: 12px;" transform="translate(50,37.5)" y="0" x="0" id="text-entity-Boolean-5b26178e-f873-50aa-bf9a-b8300df1b991" class="er entityLabel">Boolean</text></g><g transform="translate(2813.69921875,669 )" id="entity-Integer-fc94dbf2-2dc2-55cd-ac16-6d1e48f8bef9"><rect height="75" width="100" y="0" x="0" class="er entityBox"/><text style="dominant-baseline: middle; text-anchor: middle; font-size: 12px;" transform="translate(50,37.5)" y="0" x="0" id="text-entity-Integer-fc94dbf2-2dc2-55cd-ac16-6d1e48f8bef9" class="er entityLabel">Integer</text></g><g transform="translate(3013.69921875,669 )" id="entity-OpeningHoursSpecification-677aa64f-a506-5d18-b5d1-75a0f22f6986"><rect height="75" width="192.8125" y="0" x="0" class="er entityBox"/><text style="dominant-baseline: middle; text-anchor: middle; font-size: 12px;" transform="translate(96.40625,37.5)" y="0" x="0" id="text-entity-OpeningHoursSpecification-677aa64f-a506-5d18-b5d1-75a0f22f6986" class="er entityLabel">OpeningHoursSpecification</text></g><g transform="translate(3306.51171875,669 )" id="entity-Review-77c92a79-8cff-50c0-9604-f9135763cccd"><rect height="75" width="100" y="0" x="0" class="er entityBox"/><text style="dominant-baseline: middle; text-anchor: middle; font-size: 12px;" transform="translate(50,37.5)" y="0" x="0" id="text-entity-Review-77c92a79-8cff-50c0-9604-f9135763cccd" class="er entityLabel">Review</text></g><g transform="translate(3506.51171875,669 )" id="entity-Action-6cd87d9a-a078-546e-a35b-bee54f477b31"><rect height="75" width="100" y="0" x="0" class="er entityBox"/><text style="dominant-baseline: middle; text-anchor: middle; font-size: 12px;" transform="translate(50,37.5)" y="0" x="0" id="text-entity-Action-6cd87d9a-a078-546e-a35b-bee54f477b31" class="er entityLabel">Action</text></g><rect height="14" width="135.623046875" y="458.9288635253906" x="481.7149658203125" class="er relationshipLabelBox"/><text style="text-anchor: middle; dominant-baseline: middle; font-size: 12px;" y="465.9288635253906" x="549.5264892578125" id="rel1" class="er relationshipLabel">globalLocationNumber</text><rect height="14" width="109.3046875" y="474.1759948730469" x="920.3439331054688" class="er relationshipLabelBox"/><text style="text-anchor: middle; dominant-baseline: middle; font-size: 12px;" y="481.1759948730469" x="974.9962768554688" id="rel2" class="er relationshipLabel">hasGS1DigitalLink</text><rect height="14" width="110.375" y="519.8236694335938" x="1210.8167724609375" class="er relationshipLabelBox"/><text style="text-anchor: middle; dominant-baseline: middle; font-size: 12px;" y="526.8236694335938" x="1266.0042724609375" id="rel3" class="er relationshipLabel">additionalProperty</text><rect height="14" width="100.390625" y="611.0882568359375" x="1345.2625732421875" class="er relationshipLabelBox"/><text style="text-anchor: middle; dominant-baseline: middle; font-size: 12px;" y="618.0882568359375" x="1395.4578857421875" id="rel4" class="er relationshipLabel">aggregateRating</text><rect height="14" width="94.53125" y="586.279052734375" x="1598.0931396484375" class="er relationshipLabelBox"/><text style="text-anchor: middle; dominant-baseline: middle; font-size: 12px;" y="593.279052734375" x="1645.3587646484375" id="rel5" class="er relationshipLabel">amenityFeature</text><rect height="14" width="72.4375" y="459.04229736328125" x="562.5855102539062" class="er relationshipLabelBox"/><text style="text-anchor: middle; dominant-baseline: middle; font-size: 12px;" y="466.04229736328125" x="598.8042602539062" id="rel6" class="er relationshipLabel">branchCode</text><rect height="14" width="70.6875" y="546.7408447265625" x="1694.8740234375" class="er relationshipLabelBox"/><text style="text-anchor: middle; dominant-baseline: middle; font-size: 12px;" y="553.7408447265625" x="1730.2177734375" id="rel7" class="er relationshipLabel">containedIn</text><rect height="14" width="102.59375" y="507.19708251953125" x="1725.8336181640625" class="er relationshipLabelBox"/><text style="text-anchor: middle; dominant-baseline: middle; font-size: 12px;" y="514.1970825195312" x="1777.1304931640625" id="rel8" class="er relationshipLabel">containedInPlace</text><rect height="14" width="82.703125" y="493.13165283203125" x="1779.8526611328125" class="er relationshipLabelBox"/><text style="text-anchor: middle; dominant-baseline: middle; font-size: 12px;" y="500.13165283203125" x="1821.2042236328125" id="rel9" class="er relationshipLabel">containsPlace</text><rect height="14" width="34.47265625" y="492.5127868652344" x="1867.74267578125" class="er relationshipLabelBox"/><text style="text-anchor: middle; dominant-baseline: middle; font-size: 12px;" y="499.5127868652344" x="1884.97900390625" id="rel10" class="er relationshipLabel">event</text><rect height="14" width="40.4375" y="480.5030517578125" x="1900.805908203125" class="er relationshipLabelBox"/><text style="text-anchor: middle; dominant-baseline: middle; font-size: 12px;" y="487.5030517578125" x="1921.024658203125" id="rel11" class="er relationshipLabel">events</text><rect height="14" width="66.951171875" y="460.01080322265625" x="610.333984375" class="er relationshipLabelBox"/><text style="text-anchor: middle; dominant-baseline: middle; font-size: 12px;" y="467.01080322265625" x="643.8095703125" id="rel12" class="er relationshipLabel">faxNumber</text><rect height="14" width="94.453125" y="477.05889892578125" x="1954.42431640625" class="er relationshipLabelBox"/><text style="text-anchor: middle; dominant-baseline: middle; font-size: 12px;" y="484.05889892578125" x="2001.65087890625" id="rel13" class="er relationshipLabel">hasCertification</text><rect height="14" width="147.328125" y="495.116455078125" x="2041.87841796875" class="er relationshipLabelBox"/><text style="text-anchor: middle; dominant-baseline: middle; font-size: 12px;" y="502.116455078125" x="2115.54248046875" id="rel14" class="er relationshipLabel">hasDriveThroughService</text><rect height="14" width="116.5625" y="478.0676574707031" x="2064.2607421875" class="er relationshipLabelBox"/><text style="text-anchor: middle; dominant-baseline: middle; font-size: 12px;" y="485.0676574707031" x="2122.5419921875" id="rel15" class="er relationshipLabel">isAccessibleForFree</text><rect height="14" width="35.375" y="462.0151672363281" x="666.3823852539062" class="er relationshipLabelBox"/><text style="text-anchor: middle; dominant-baseline: middle; font-size: 12px;" y="469.0151672363281" x="684.0698852539062" id="rel16" class="er relationshipLabel">isicV4</text><rect height="14" width="26.671875" y="474.7680358886719" x="1013.9853515625" class="er relationshipLabelBox"/><text style="text-anchor: middle; dominant-baseline: middle; font-size: 12px;" y="481.7680358886719" x="1027.3212890625" id="rel17" class="er relationshipLabel">map</text><rect height="14" width="32.921875" y="479.5429992675781" x="1055.5950927734375" class="er relationshipLabelBox"/><text style="text-anchor: middle; dominant-baseline: middle; font-size: 12px;" y="486.5429992675781" x="1072.0560302734375" id="rel18" class="er relationshipLabel">maps</text><rect height="14" width="167.6875" y="466.8960266113281" x="2166.181640625" class="er relationshipLabelBox"/><text style="text-anchor: middle; dominant-baseline: middle; font-size: 12px;" y="473.8960266113281" x="2250.025390625" id="rel19" class="er relationshipLabel">maximumAttendeeCapacity</text><rect height="14" width="160.71875" y="468.2806701660156" x="2271.953369140625" class="er relationshipLabelBox"/><text style="text-anchor: middle; dominant-baseline: middle; font-size: 12px;" y="475.2806701660156" x="2352.312744140625" id="rel20" class="er relationshipLabel">openingHoursSpecification</text><rect height="14" width="77.1875" y="469.87542724609375" x="2112.148193359375" class="er relationshipLabelBox"/><text style="text-anchor: middle; dominant-baseline: middle; font-size: 12px;" y="476.87542724609375" x="2150.741943359375" id="rel21" class="er relationshipLabel">publicAccess</text><rect height="14" width="39.87109375" y="465.80975341796875" x="2455.29150390625" class="er relationshipLabelBox"/><text style="text-anchor: middle; dominant-baseline: middle; font-size: 12px;" y="472.80975341796875" x="2475.22705078125" id="rel22" class="er relationshipLabel">review</text><rect height="14" width="45.9375" y="460.5943298339844" x="2488.10595703125" class="er relationshipLabelBox"/><text style="text-anchor: middle; dominant-baseline: middle; font-size: 12px;" y="467.5943298339844" x="2511.07470703125" id="rel23" class="er relationshipLabel">reviews</text><rect height="14" width="39.515625" y="466.05548095703125" x="699.172119140625" class="er relationshipLabelBox"/><text style="text-anchor: middle; dominant-baseline: middle; font-size: 12px;" y="473.05548095703125" x="718.929931640625" id="rel24" class="er relationshipLabel">slogan</text><rect height="14" width="97.828125" y="464.9541320800781" x="2137.7724609375" class="er relationshipLabelBox"/><text style="text-anchor: middle; dominant-baseline: middle; font-size: 12px;" y="471.9541320800781" x="2186.6865234375" id="rel25" class="er relationshipLabel">smokingAllowed</text><rect height="14" width="204.6875" y="461.4454650878906" x="2294.59228515625" class="er relationshipLabelBox"/><text style="text-anchor: middle; dominant-baseline: middle; font-size: 12px;" y="468.4454650878906" x="2396.93603515625" id="rel26" class="er relationshipLabel">specialOpeningHoursSpecification</text><rect height="14" width="60.359375" y="472.5387268066406" x="716.0611572265625" class="er relationshipLabelBox"/><text style="text-anchor: middle; dominant-baseline: middle; font-size: 12px;" y="479.5387268066406" x="746.2408447265625" id="rel27" class="er relationshipLabel">telephone</text><rect height="14" width="102.0625" y="491.06146240234375" x="1056.4488525390625" class="er relationshipLabelBox"/><text style="text-anchor: middle; dominant-baseline: middle; font-size: 12px;" y="498.06146240234375" x="1107.4801025390625" id="rel28" class="er relationshipLabel">tourBookingPage</text><rect height="14" width="89.953125" y="485.9259948730469" x="706.9883422851562" class="er relationshipLabelBox"/><text style="text-anchor: middle; dominant-baseline: middle; font-size: 12px;" y="492.9259948730469" x="751.9649047851562" id="rel29" class="er relationshipLabel">alternateName</text><rect height="14" width="161.390625" y="501.6009521484375" x="674.604736328125" class="er relationshipLabelBox"/><text style="text-anchor: middle; dominant-baseline: middle; font-size: 12px;" y="508.6009521484375" x="755.300048828125" id="rel30" class="er relationshipLabel">disambiguatingDescription</text><rect height="14" width="34.03125" y="518.9561767578125" x="742.1953735351562" class="er relationshipLabelBox"/><text style="text-anchor: middle; dominant-baseline: middle; font-size: 12px;" y="525.9561767578125" x="759.2109985351562" id="rel31" class="er relationshipLabel">name</text><rect height="14" width="47.140625" y="513.66259765625" x="1107.414306640625" class="er relationshipLabelBox"/><text style="text-anchor: middle; dominant-baseline: middle; font-size: 12px;" y="520.66259765625" x="1130.984619140625" id="rel32" class="er relationshipLabel">sameAs</text><rect height="14" width="90.96875" y="461.1859436035156" x="2549.2197265625" class="er relationshipLabelBox"/><text style="text-anchor: middle; dominant-baseline: middle; font-size: 12px;" y="468.1859436035156" x="2594.7041015625" id="rel33" class="er relationshipLabel">potentialAction</text><rect height="14" width="15.875" y="549.6991577148438" x="1135.8233642578125" class="er relationshipLabelBox"/><text style="text-anchor: middle; dominant-baseline: middle; font-size: 12px;" y="556.6991577148438" x="1143.7608642578125" id="rel34" class="er relationshipLabel">url</text></svg>