<svg aria-roledescription="er" role="graphics-document document" viewBox="-48.946266174316406 0 3389.7099609375 386" style="max-width: 3389.71px; background-color: white;" xmlns:xlink="http://www.w3.org/1999/xlink" xmlns="http://www.w3.org/2000/svg" width="100%" id="my-svg"><style>#my-svg{font-family:"trebuchet ms",verdana,arial,sans-serif;font-size:16px;fill:#333;}#my-svg .error-icon{fill:#552222;}#my-svg .error-text{fill:#552222;stroke:#552222;}#my-svg .edge-thickness-normal{stroke-width:1px;}#my-svg .edge-thickness-thick{stroke-width:3.5px;}#my-svg .edge-pattern-solid{stroke-dasharray:0;}#my-svg .edge-thickness-invisible{stroke-width:0;fill:none;}#my-svg .edge-pattern-dashed{stroke-dasharray:3;}#my-svg .edge-pattern-dotted{stroke-dasharray:2;}#my-svg .marker{fill:#333333;stroke:#333333;}#my-svg .marker.cross{stroke:#333333;}#my-svg svg{font-family:"trebuchet ms",verdana,arial,sans-serif;font-size:16px;}#my-svg p{margin:0;}#my-svg .entityBox{fill:#ECECFF;stroke:#9370DB;}#my-svg .attributeBoxOdd{fill:#ffffff;stroke:#9370DB;}#my-svg .attributeBoxEven{fill:#f2f2f2;stroke:#9370DB;}#my-svg .relationshipLabelBox{fill:hsl(80, 100%, 96.2745098039%);opacity:0.7;background-color:hsl(80, 100%, 96.2745098039%);}#my-svg .relationshipLabelBox rect{opacity:0.5;}#my-svg .relationshipLine{stroke:#333333;}#my-svg .entityTitleText{text-anchor:middle;font-size:18px;fill:#333;}#my-svg #MD_PARENT_START{fill:#f5f5f5!important;stroke:#333333!important;stroke-width:1;}#my-svg #MD_PARENT_END{fill:#f5f5f5!important;stroke:#333333!important;stroke-width:1;}#my-svg :root{--mermaid-font-family:"trebuchet ms",verdana,arial,sans-serif;}</style><g/><defs><marker orient="auto" markerHeight="240" markerWidth="190" refY="7" refX="0" id="MD_PARENT_START"><path d="M 18,7 L9,13 L1,7 L9,1 Z"/></marker></defs><defs><marker orient="auto" markerHeight="28" markerWidth="20" refY="7" refX="19" id="MD_PARENT_END"><path d="M 18,7 L9,13 L1,7 L9,1 Z"/></marker></defs><defs><marker orient="auto" markerHeight="18" markerWidth="18" refY="9" refX="0" id="ONLY_ONE_START"><path d="M9,0 L9,18 M15,0 L15,18" fill="none" stroke="gray"/></marker></defs><defs><marker orient="auto" markerHeight="18" markerWidth="18" refY="9" refX="18" id="ONLY_ONE_END"><path d="M3,0 L3,18 M9,0 L9,18" fill="none" stroke="gray"/></marker></defs><defs><marker orient="auto" markerHeight="18" markerWidth="30" refY="9" refX="0" id="ZERO_OR_ONE_START"><circle r="6" cy="9" cx="21" fill="white" stroke="gray"/><path d="M9,0 L9,18" fill="none" stroke="gray"/></marker></defs><defs><marker orient="auto" markerHeight="18" markerWidth="30" refY="9" refX="30" id="ZERO_OR_ONE_END"><circle r="6" cy="9" cx="9" fill="white" stroke="gray"/><path d="M21,0 L21,18" fill="none" stroke="gray"/></marker></defs><defs><marker orient="auto" markerHeight="36" markerWidth="45" refY="18" refX="18" id="ONE_OR_MORE_START"><path d="M0,18 Q 18,0 36,18 Q 18,36 0,18 M42,9 L42,27" fill="none" stroke="gray"/></marker></defs><defs><marker orient="auto" markerHeight="36" markerWidth="45" refY="18" refX="27" id="ONE_OR_MORE_END"><path d="M3,9 L3,27 M9,18 Q27,0 45,18 Q27,36 9,18" fill="none" stroke="gray"/></marker></defs><defs><marker orient="auto" markerHeight="36" markerWidth="57" refY="18" refX="18" id="ZERO_OR_MORE_START"><circle r="6" cy="18" cx="48" fill="white" stroke="gray"/><path d="M0,18 Q18,0 36,18 Q18,36 0,18" fill="none" stroke="gray"/></marker></defs><defs><marker orient="auto" markerHeight="36" markerWidth="57" refY="18" refX="39" id="ZERO_OR_MORE_END"><circle r="6" cy="18" cx="9" fill="white" stroke="gray"/><path d="M21,18 Q39,0 57,18 Q39,36 21,18" fill="none" stroke="gray"/></marker></defs><path style="stroke: gray; fill: none;" marker-start="url(#ONLY_ONE_START)" marker-end="url(#ZERO_OR_MORE_END)" d="M1262.553,112.797L1030.461,134.165C798.368,155.532,334.184,198.266,127.092,230.57C-80,262.875,-30,284.75,-5,295.688L20,306.625" class="er relationshipLine"/><path style="stroke: gray; fill: none;" marker-start="url(#ONLY_ONE_START)" marker-end="url(#ZERO_OR_MORE_END)" d="M1262.553,113.329L1047.127,134.608C831.702,155.886,400.851,198.443,194.949,228.055C-10.952,257.667,8.095,274.333,17.619,282.667L27.143,291" class="er relationshipLine"/><path style="stroke: gray; fill: none;" marker-start="url(#ONLY_ONE_START)" marker-end="url(#ZERO_OR_MORE_END)" d="M1262.553,116.552L1113.794,137.293C965.035,158.035,667.518,199.517,523.521,228.592C379.524,257.667,389.048,274.333,393.81,282.667L398.571,291" class="er relationshipLine"/><path style="stroke: gray; fill: none;" marker-start="url(#ONLY_ONE_START)" marker-end="url(#ZERO_OR_MORE_END)" d="M1262.553,121.029L1160.487,141.024C1058.422,161.019,854.29,201.01,752.225,229.338C650.159,257.667,650.159,274.333,650.159,282.667L650.159,291" class="er relationshipLine"/><path style="stroke: gray; fill: none;" marker-start="url(#ONLY_ONE_START)" marker-end="url(#ZERO_OR_MORE_END)" d="M1262.553,128.497L1197.924,147.247C1133.295,165.998,1004.037,203.499,939.408,230.583C874.779,257.667,874.779,274.333,874.779,282.667L874.779,291" class="er relationshipLine"/><path style="stroke: gray; fill: none;" marker-start="url(#ONLY_ONE_START)" marker-end="url(#ZERO_OR_MORE_END)" d="M1262.553,152.346L1237.551,167.121C1212.55,181.897,1162.548,211.449,1137.546,234.558C1112.545,257.667,1112.545,274.333,1112.545,282.667L1112.545,291" class="er relationshipLine"/><path style="stroke: gray; fill: none;" marker-start="url(#ONLY_ONE_START)" marker-end="url(#ZERO_OR_MORE_END)" d="M1341.818,191L1341.818,199.333C1341.818,207.667,1341.818,224.333,1341.818,241C1341.818,257.667,1341.818,274.333,1341.818,282.667L1341.818,291" class="er relationshipLine"/><path style="stroke: gray; fill: none;" marker-start="url(#ONLY_ONE_START)" marker-end="url(#ZERO_OR_MORE_END)" d="M1262.553,118.036L1132.974,138.53C1003.395,159.024,744.237,200.012,608.46,228.839C472.683,257.667,460.287,274.333,454.089,282.667L447.891,291" class="er relationshipLine"/><path style="stroke: gray; fill: none;" marker-start="url(#ONLY_ONE_START)" marker-end="url(#ZERO_OR_MORE_END)" d="M1421.084,155.225L1443.873,169.52C1466.662,183.816,1512.24,212.408,1535.029,235.037C1557.818,257.667,1557.818,274.333,1557.818,282.667L1557.818,291" class="er relationshipLine"/><path style="stroke: gray; fill: none;" marker-start="url(#ONLY_ONE_START)" marker-end="url(#ZERO_OR_MORE_END)" d="M1421.084,131.112L1477.765,149.427C1534.446,167.741,1647.808,204.371,1704.489,231.019C1761.17,257.667,1761.17,274.333,1761.17,282.667L1761.17,291" class="er relationshipLine"/><path style="stroke: gray; fill: none;" marker-start="url(#ONLY_ONE_START)" marker-end="url(#ZERO_OR_MORE_END)" d="M1421.084,122.393L1513.838,142.161C1606.592,161.929,1792.1,201.464,1884.854,229.566C1977.607,257.667,1977.607,274.333,1977.607,282.667L1977.607,291" class="er relationshipLine"/><path style="stroke: gray; fill: none;" marker-start="url(#ONLY_ONE_START)" marker-end="url(#ZERO_OR_MORE_END)" d="M1421.084,117.897L1552.274,138.414C1683.464,158.931,1945.844,199.966,2077.035,228.816C2208.225,257.667,2208.225,274.333,2208.225,282.667L2208.225,291" class="er relationshipLine"/><path style="stroke: gray; fill: none;" marker-start="url(#ONLY_ONE_START)" marker-end="url(#ZERO_OR_MORE_END)" d="M1421.084,115.409L1588.531,136.341C1755.977,157.272,2090.87,199.136,2258.317,228.401C2425.764,257.667,2425.764,274.333,2425.764,282.667L2425.764,291" class="er relationshipLine"/><path style="stroke: gray; fill: none;" marker-start="url(#ONLY_ONE_START)" marker-end="url(#ZERO_OR_MORE_END)" d="M1421.084,113.744L1625.008,134.953C1828.933,156.163,2236.782,198.581,2440.706,228.124C2644.631,257.667,2644.631,274.333,2644.631,282.667L2644.631,291" class="er relationshipLine"/><path style="stroke: gray; fill: none;" marker-start="url(#ONLY_ONE_START)" marker-end="url(#ZERO_OR_MORE_END)" d="M1421.084,112.549L1661.812,133.958C1902.54,155.366,2383.995,198.183,2624.723,227.925C2865.451,257.667,2865.451,274.333,2865.451,282.667L2865.451,291" class="er relationshipLine"/><path style="stroke: gray; fill: none;" marker-start="url(#ONLY_ONE_START)" marker-end="url(#ZERO_OR_MORE_END)" d="M1262.553,113.945L1063.794,135.121C865.035,156.297,467.518,198.648,268.759,228.157C70,257.667,70,274.333,70,282.667L70,291" class="er relationshipLine"/><path style="stroke: gray; fill: none;" marker-start="url(#ONLY_ONE_START)" marker-end="url(#ZERO_OR_MORE_END)" d="M1262.553,114.666L1080.461,135.721C898.368,156.777,534.184,198.889,342.568,228.278C150.952,257.667,131.905,274.333,122.381,282.667L112.857,291" class="er relationshipLine"/><path style="stroke: gray; fill: none;" marker-start="url(#ONLY_ONE_START)" marker-end="url(#ZERO_OR_MORE_END)" d="M1262.553,115.521L1097.127,136.434C931.702,157.347,600.851,199.174,410.425,231.024C220,262.875,170,284.75,145,295.688L120,306.625" class="er relationshipLine"/><path style="stroke: gray; fill: none;" marker-start="url(#ONLY_ONE_START)" marker-end="url(#ZERO_OR_MORE_END)" d="M1421.084,111.907L1687.255,133.423C1953.425,154.938,2485.766,197.969,2756.952,227.818C3028.137,257.667,3038.167,274.333,3043.182,282.667L3048.197,291" class="er relationshipLine"/><path style="stroke: gray; fill: none;" marker-start="url(#ONLY_ONE_START)" marker-end="url(#ZERO_OR_MORE_END)" d="M1421.084,111.068L1729.364,132.723C2037.644,154.379,2654.204,197.689,2962.484,227.678C3270.764,257.667,3270.764,274.333,3270.764,282.667L3270.764,291" class="er relationshipLine"/><path style="stroke: gray; fill: none;" marker-start="url(#ONLY_ONE_START)" marker-end="url(#ZERO_OR_MORE_END)" d="M1421.084,111.538L1704.364,133.115C1987.644,154.692,2554.204,197.846,2832.722,227.756C3111.24,257.667,3101.716,274.333,3096.954,282.667L3092.192,291" class="er relationshipLine"/><g transform="translate(1262.552734375,20 )" id="entity-Ligament-dedbfe89-b523-5011-92af-2908620e3d34"><rect height="171" width="158.53125" y="0" x="0" class="er entityBox"/><text style="dominant-baseline: middle; text-anchor: middle; font-size: 12px;" transform="translate(79.265625,12)" y="0" x="0" id="text-entity-Ligament-dedbfe89-b523-5011-92af-2908620e3d34" class="er entityLabel">Ligament</text><rect height="21" width="57.0625" y="24" x="0" class="er attributeBoxOdd"/><text style="dominant-baseline: middle; font-size: 10.2px;" transform="translate(5,34.5)" y="0" x="0" id="text-entity-Ligament-dedbfe89-b523-5011-92af-2908620e3d34-attr-1-type" class="er entityLabel">stringList</text><rect height="21" width="101.46875" y="24" x="57.0625" class="er attributeBoxOdd"/><text style="dominant-baseline: middle; font-size: 10.2px;" transform="translate(62.0625,34.5)" y="0" x="0" id="text-entity-Ligament-dedbfe89-b523-5011-92af-2908620e3d34-attr-1-name" class="er entityLabel">legalStatus</text><rect height="21" width="57.0625" y="45" x="0" class="er attributeBoxEven"/><text style="dominant-baseline: middle; font-size: 10.2px;" transform="translate(5,55.5)" y="0" x="0" id="text-entity-Ligament-dedbfe89-b523-5011-92af-2908620e3d34-attr-2-type" class="er entityLabel">stringList</text><rect height="21" width="101.46875" y="45" x="57.0625" class="er attributeBoxEven"/><text style="dominant-baseline: middle; font-size: 10.2px;" transform="translate(62.0625,55.5)" y="0" x="0" id="text-entity-Ligament-dedbfe89-b523-5011-92af-2908620e3d34-attr-2-name" class="er entityLabel">additionalType</text><rect height="21" width="57.0625" y="66" x="0" class="er attributeBoxOdd"/><text style="dominant-baseline: middle; font-size: 10.2px;" transform="translate(5,76.5)" y="0" x="0" id="text-entity-Ligament-dedbfe89-b523-5011-92af-2908620e3d34-attr-3-type" class="er entityLabel">stringList</text><rect height="21" width="101.46875" y="66" x="57.0625" class="er attributeBoxOdd"/><text style="dominant-baseline: middle; font-size: 10.2px;" transform="translate(62.0625,76.5)" y="0" x="0" id="text-entity-Ligament-dedbfe89-b523-5011-92af-2908620e3d34-attr-3-name" class="er entityLabel">description</text><rect height="21" width="57.0625" y="87" x="0" class="er attributeBoxEven"/><text style="dominant-baseline: middle; font-size: 10.2px;" transform="translate(5,97.5)" y="0" x="0" id="text-entity-Ligament-dedbfe89-b523-5011-92af-2908620e3d34-attr-4-type" class="er entityLabel">stringList</text><rect height="21" width="101.46875" y="87" x="57.0625" class="er attributeBoxEven"/><text style="dominant-baseline: middle; font-size: 10.2px;" transform="translate(62.0625,97.5)" y="0" x="0" id="text-entity-Ligament-dedbfe89-b523-5011-92af-2908620e3d34-attr-4-name" class="er entityLabel">identifier</text><rect height="21" width="57.0625" y="108" x="0" class="er attributeBoxOdd"/><text style="dominant-baseline: middle; font-size: 10.2px;" transform="translate(5,118.5)" y="0" x="0" id="text-entity-Ligament-dedbfe89-b523-5011-92af-2908620e3d34-attr-5-type" class="er entityLabel">stringList</text><rect height="21" width="101.46875" y="108" x="57.0625" class="er attributeBoxOdd"/><text style="dominant-baseline: middle; font-size: 10.2px;" transform="translate(62.0625,118.5)" y="0" x="0" id="text-entity-Ligament-dedbfe89-b523-5011-92af-2908620e3d34-attr-5-name" class="er entityLabel">image</text><rect height="21" width="57.0625" y="129" x="0" class="er attributeBoxEven"/><text style="dominant-baseline: middle; font-size: 10.2px;" transform="translate(5,139.5)" y="0" x="0" id="text-entity-Ligament-dedbfe89-b523-5011-92af-2908620e3d34-attr-6-type" class="er entityLabel">stringList</text><rect height="21" width="101.46875" y="129" x="57.0625" class="er attributeBoxEven"/><text style="dominant-baseline: middle; font-size: 10.2px;" transform="translate(62.0625,139.5)" y="0" x="0" id="text-entity-Ligament-dedbfe89-b523-5011-92af-2908620e3d34-attr-6-name" class="er entityLabel">mainEntityOfPage</text><rect height="21" width="57.0625" y="150" x="0" class="er attributeBoxOdd"/><text style="dominant-baseline: middle; font-size: 10.2px;" transform="translate(5,160.5)" y="0" x="0" id="text-entity-Ligament-dedbfe89-b523-5011-92af-2908620e3d34-attr-7-type" class="er entityLabel">stringList</text><rect height="21" width="101.46875" y="150" x="57.0625" class="er attributeBoxOdd"/><text style="dominant-baseline: middle; font-size: 10.2px;" transform="translate(62.0625,160.5)" y="0" x="0" id="text-entity-Ligament-dedbfe89-b523-5011-92af-2908620e3d34-attr-7-name" class="er entityLabel">subjectOf</text></g><g transform="translate(20,291 )" id="entity-Text-426c5d39-acfc-5487-a6d9-ede67887190e"><rect height="75" width="100" y="0" x="0" class="er entityBox"/><text style="dominant-baseline: middle; text-anchor: middle; font-size: 12px;" transform="translate(50,37.5)" y="0" x="0" id="text-entity-Text-426c5d39-acfc-5487-a6d9-ede67887190e" class="er entityLabel">Text</text></g><g transform="translate(343.3203125,291 )" id="entity-AnatomicalStructure-3c5e0f00-f4ad-5ab6-89b3-e0fa067e5e05"><rect height="75" width="153.359375" y="0" x="0" class="er entityBox"/><text style="dominant-baseline: middle; text-anchor: middle; font-size: 12px;" transform="translate(76.6796875,37.5)" y="0" x="0" id="text-entity-AnatomicalStructure-3c5e0f00-f4ad-5ab6-89b3-e0fa067e5e05" class="er entityLabel">AnatomicalStructure</text></g><g transform="translate(596.6796875,291 )" id="entity-ImageObject-2a761300-e471-57b1-9256-83c78b6eba94"><rect height="75" width="106.958984375" y="0" x="0" class="er entityBox"/><text style="dominant-baseline: middle; text-anchor: middle; font-size: 12px;" transform="translate(53.4794921875,37.5)" y="0" x="0" id="text-entity-ImageObject-2a761300-e471-57b1-9256-83c78b6eba94" class="er entityLabel">ImageObject</text></g><g transform="translate(803.638671875,291 )" id="entity-AnatomicalSystem-95715edd-482f-5376-b264-8ac2a8b4904d"><rect height="75" width="142.28125" y="0" x="0" class="er entityBox"/><text style="dominant-baseline: middle; text-anchor: middle; font-size: 12px;" transform="translate(71.140625,37.5)" y="0" x="0" id="text-entity-AnatomicalSystem-95715edd-482f-5376-b264-8ac2a8b4904d" class="er entityLabel">AnatomicalSystem</text></g><g transform="translate(1045.919921875,291 )" id="entity-MedicalCondition-a93e7da7-17aa-5f46-8e3a-8f90076b9104"><rect height="75" width="133.25" y="0" x="0" class="er entityBox"/><text style="dominant-baseline: middle; text-anchor: middle; font-size: 12px;" transform="translate(66.625,37.5)" y="0" x="0" id="text-entity-MedicalCondition-a93e7da7-17aa-5f46-8e3a-8f90076b9104" class="er entityLabel">MedicalCondition</text></g><g transform="translate(1279.169921875,291 )" id="entity-MedicalTherapy-cb945121-be61-5f08-b66d-584ab4170081"><rect height="75" width="125.296875" y="0" x="0" class="er entityBox"/><text style="dominant-baseline: middle; text-anchor: middle; font-size: 12px;" transform="translate(62.6484375,37.5)" y="0" x="0" id="text-entity-MedicalTherapy-cb945121-be61-5f08-b66d-584ab4170081" class="er entityLabel">MedicalTherapy</text></g><g transform="translate(1504.466796875,291 )" id="entity-MedicalCode-340ab1f3-b0e0-51ff-b309-32031f623ceb"><rect height="75" width="106.703125" y="0" x="0" class="er entityBox"/><text style="dominant-baseline: middle; text-anchor: middle; font-size: 12px;" transform="translate(53.3515625,37.5)" y="0" x="0" id="text-entity-MedicalCode-340ab1f3-b0e0-51ff-b309-32031f623ceb" class="er entityLabel">MedicalCode</text></g><g transform="translate(1711.169921875,291 )" id="entity-Grant-291daf2c-8722-576f-890e-1045bc6484c0"><rect height="75" width="100" y="0" x="0" class="er entityBox"/><text style="dominant-baseline: middle; text-anchor: middle; font-size: 12px;" transform="translate(50,37.5)" y="0" x="0" id="text-entity-Grant-291daf2c-8722-576f-890e-1045bc6484c0" class="er entityLabel">Grant</text></g><g transform="translate(1911.169921875,291 )" id="entity-MedicalGuideline-a05959e1-803b-55cd-8b3c-b530a54fde23"><rect height="75" width="132.875" y="0" x="0" class="er entityBox"/><text style="dominant-baseline: middle; text-anchor: middle; font-size: 12px;" transform="translate(66.4375,37.5)" y="0" x="0" id="text-entity-MedicalGuideline-a05959e1-803b-55cd-8b3c-b530a54fde23" class="er entityLabel">MedicalGuideline</text></g><g transform="translate(2144.044921875,291 )" id="entity-MedicineSystem-74197b84-67e0-5471-ab59-f3fd7c3c0e72"><rect height="75" width="128.359375" y="0" x="0" class="er entityBox"/><text style="dominant-baseline: middle; text-anchor: middle; font-size: 12px;" transform="translate(64.1796875,37.5)" y="0" x="0" id="text-entity-MedicineSystem-74197b84-67e0-5471-ab59-f3fd7c3c0e72" class="er entityLabel">MedicineSystem</text></g><g transform="translate(2372.404296875,291 )" id="entity-Organization-ef1721ab-1f62-5ef5-a525-a6c60c2f6032"><rect height="75" width="106.71875" y="0" x="0" class="er entityBox"/><text style="dominant-baseline: middle; text-anchor: middle; font-size: 12px;" transform="translate(53.359375,37.5)" y="0" x="0" id="text-entity-Organization-ef1721ab-1f62-5ef5-a525-a6c60c2f6032" class="er entityLabel">Organization</text></g><g transform="translate(2579.123046875,291 )" id="entity-MedicalSpecialty-0f4a20d3-5a5d-5b81-b412-da395afebba8"><rect height="75" width="131.015625" y="0" x="0" class="er entityBox"/><text style="dominant-baseline: middle; text-anchor: middle; font-size: 12px;" transform="translate(65.5078125,37.5)" y="0" x="0" id="text-entity-MedicalSpecialty-0f4a20d3-5a5d-5b81-b412-da395afebba8" class="er entityLabel">MedicalSpecialty</text></g><g transform="translate(2810.138671875,291 )" id="entity-MedicalStudy-22dea251-12b7-5654-af29-afad6ffe12b1"><rect height="75" width="110.625" y="0" x="0" class="er entityBox"/><text style="dominant-baseline: middle; text-anchor: middle; font-size: 12px;" transform="translate(55.3125,37.5)" y="0" x="0" id="text-entity-MedicalStudy-22dea251-12b7-5654-af29-afad6ffe12b1" class="er entityLabel">MedicalStudy</text></g><g transform="translate(3020.763671875,291 )" id="entity-URL-07f78d3e-fd74-5925-b39b-26c1cc2d6b7c"><rect height="75" width="100" y="0" x="0" class="er entityBox"/><text style="dominant-baseline: middle; text-anchor: middle; font-size: 12px;" transform="translate(50,37.5)" y="0" x="0" id="text-entity-URL-07f78d3e-fd74-5925-b39b-26c1cc2d6b7c" class="er entityLabel">URL</text></g><g transform="translate(3220.763671875,291 )" id="entity-Action-6cd87d9a-a078-546e-a35b-bee54f477b31"><rect height="75" width="100" y="0" x="0" class="er entityBox"/><text style="dominant-baseline: middle; text-anchor: middle; font-size: 12px;" transform="translate(50,37.5)" y="0" x="0" id="text-entity-Action-6cd87d9a-a078-546e-a35b-bee54f477b31" class="er entityLabel">Action</text></g><rect height="14" width="162.546875" y="169.98336791992188" x="500.7733154296875" class="er relationshipLabelBox"/><text style="text-anchor: middle; dominant-baseline: middle; font-size: 12px;" y="176.98336791992188" x="582.0467529296875" id="rel1" class="er relationshipLabel">associatedPathophysiology</text><rect height="14" width="80.4375" y="170.743408203125" x="581.6326904296875" class="er relationshipLabelBox"/><text style="text-anchor: middle; dominant-baseline: middle; font-size: 12px;" y="177.743408203125" x="621.8514404296875" id="rel2" class="er relationshipLabel">bodyLocation</text><rect height="14" width="75.46875" y="173.36875915527344" x="775.4684448242188" class="er relationshipLabelBox"/><text style="text-anchor: middle; dominant-baseline: middle; font-size: 12px;" y="180.36875915527344" x="813.2028198242188" id="rel3" class="er relationshipLabel">connectedTo</text><rect height="14" width="49.90625" y="177.71055603027344" x="918.7860107421875" class="er relationshipLabelBox"/><text style="text-anchor: middle; dominant-baseline: middle; font-size: 12px;" y="184.71055603027344" x="943.7391357421875" id="rel4" class="er relationshipLabel">diagram</text><rect height="14" width="83.03125" y="183.30918884277344" x="1012.7528076171875" class="er relationshipLabelBox"/><text style="text-anchor: middle; dominant-baseline: middle; font-size: 12px;" y="190.30918884277344" x="1054.2684326171875" id="rel5" class="er relationshipLabel">partOfSystem</text><rect height="14" width="99.71875" y="201.47454833984375" x="1121.50927734375" class="er relationshipLabelBox"/><text style="text-anchor: middle; dominant-baseline: middle; font-size: 12px;" y="208.47454833984375" x="1171.36865234375" id="rel6" class="er relationshipLabel">relatedCondition</text><rect height="14" width="91.78125" y="234" x="1295.9273681640625" class="er relationshipLabelBox"/><text style="text-anchor: middle; dominant-baseline: middle; font-size: 12px;" y="241" x="1341.8179931640625" id="rel7" class="er relationshipLabel">relatedTherapy</text><rect height="14" width="77.296875" y="177.74346923828125" x="809.5582275390625" class="er relationshipLabelBox"/><text style="text-anchor: middle; dominant-baseline: middle; font-size: 12px;" y="184.74346923828125" x="848.2066650390625" id="rel8" class="er relationshipLabel">subStructure</text><rect height="14" width="28.953125" y="203.60870361328125" x="1491.0931396484375" class="er relationshipLabelBox"/><text style="text-anchor: middle; dominant-baseline: middle; font-size: 12px;" y="210.60870361328125" x="1505.5697021484375" id="rel9" class="er relationshipLabel">code</text><rect height="14" width="45.609375" y="185.30679321289062" x="1583.173583984375" class="er relationshipLabelBox"/><text style="text-anchor: middle; dominant-baseline: middle; font-size: 12px;" y="192.30679321289062" x="1605.978271484375" id="rel10" class="er relationshipLabel">funding</text><rect height="14" width="55.21875" y="178.71627807617188" x="1684.73779296875" class="er relationshipLabelBox"/><text style="text-anchor: middle; dominant-baseline: middle; font-size: 12px;" y="185.71627807617188" x="1712.34716796875" id="rel11" class="er relationshipLabel">guideline</text><rect height="14" width="99.703125" y="175.43833923339844" x="1776.4224853515625" class="er relationshipLabelBox"/><text style="text-anchor: middle; dominant-baseline: middle; font-size: 12px;" y="182.43833923339844" x="1826.2740478515625" id="rel12" class="er relationshipLabel">medicineSystem</text><rect height="14" width="124.953125" y="173.67758178710938" x="1871.645751953125" class="er relationshipLabelBox"/><text style="text-anchor: middle; dominant-baseline: middle; font-size: 12px;" y="180.67758178710938" x="1934.122314453125" id="rel13" class="er relationshipLabel">recognizingAuthority</text><rect height="14" width="104.578125" y="172.52691650390625" x="1990.5751953125" class="er relationshipLabelBox"/><text style="text-anchor: middle; dominant-baseline: middle; font-size: 12px;" y="179.52691650390625" x="2042.8642578125" id="rel14" class="er relationshipLabel">relevantSpecialty</text><rect height="14" width="33.28125" y="171.7162628173828" x="2136.093505859375" class="er relationshipLabelBox"/><text style="text-anchor: middle; dominant-baseline: middle; font-size: 12px;" y="178.7162628173828" x="2152.734130859375" id="rel15" class="er relationshipLabel">study</text><rect height="14" width="89.953125" y="172.66456604003906" x="611.206298828125" class="er relationshipLabelBox"/><text style="text-anchor: middle; dominant-baseline: middle; font-size: 12px;" y="179.66456604003906" x="656.182861328125" id="rel16" class="er relationshipLabel">alternateName</text><rect height="14" width="161.390625" y="175.86949157714844" x="601.857666015625" class="er relationshipLabelBox"/><text style="text-anchor: middle; dominant-baseline: middle; font-size: 12px;" y="182.86949157714844" x="682.552978515625" id="rel17" class="er relationshipLabel">disambiguatingDescription</text><rect height="14" width="34.03125" y="182.98497009277344" x="669.8080444335938" class="er relationshipLabelBox"/><text style="text-anchor: middle; dominant-baseline: middle; font-size: 12px;" y="189.98497009277344" x="686.8236694335938" id="rel18" class="er relationshipLabel">name</text><rect height="14" width="47.140625" y="172.257080078125" x="2217.115478515625" class="er relationshipLabelBox"/><text style="text-anchor: middle; dominant-baseline: middle; font-size: 12px;" y="179.257080078125" x="2240.685791015625" id="rel19" class="er relationshipLabel">sameAs</text><rect height="14" width="90.96875" y="170.73387145996094" x="2309.176025390625" class="er relationshipLabelBox"/><text style="text-anchor: middle; dominant-baseline: middle; font-size: 12px;" y="177.73387145996094" x="2354.660400390625" id="rel20" class="er relationshipLabel">potentialAction</text><rect height="14" width="15.875" y="170.34109497070312" x="2262.762939453125" class="er relationshipLabelBox"/><text style="text-anchor: middle; dominant-baseline: middle; font-size: 12px;" y="177.34109497070312" x="2270.700439453125" id="rel21" class="er relationshipLabel">url</text></svg>