<svg aria-roledescription="er" role="graphics-document document" viewBox="0 0 790 386" style="max-width: 790px; background-color: white;" xmlns:xlink="http://www.w3.org/1999/xlink" xmlns="http://www.w3.org/2000/svg" width="100%" id="my-svg"><style>#my-svg{font-family:"trebuchet ms",verdana,arial,sans-serif;font-size:16px;fill:#333;}#my-svg .error-icon{fill:#552222;}#my-svg .error-text{fill:#552222;stroke:#552222;}#my-svg .edge-thickness-normal{stroke-width:1px;}#my-svg .edge-thickness-thick{stroke-width:3.5px;}#my-svg .edge-pattern-solid{stroke-dasharray:0;}#my-svg .edge-thickness-invisible{stroke-width:0;fill:none;}#my-svg .edge-pattern-dashed{stroke-dasharray:3;}#my-svg .edge-pattern-dotted{stroke-dasharray:2;}#my-svg .marker{fill:#333333;stroke:#333333;}#my-svg .marker.cross{stroke:#333333;}#my-svg svg{font-family:"trebuchet ms",verdana,arial,sans-serif;font-size:16px;}#my-svg p{margin:0;}#my-svg .entityBox{fill:#ECECFF;stroke:#9370DB;}#my-svg .attributeBoxOdd{fill:#ffffff;stroke:#9370DB;}#my-svg .attributeBoxEven{fill:#f2f2f2;stroke:#9370DB;}#my-svg .relationshipLabelBox{fill:hsl(80, 100%, 96.2745098039%);opacity:0.7;background-color:hsl(80, 100%, 96.2745098039%);}#my-svg .relationshipLabelBox rect{opacity:0.5;}#my-svg .relationshipLine{stroke:#333333;}#my-svg .entityTitleText{text-anchor:middle;font-size:18px;fill:#333;}#my-svg #MD_PARENT_START{fill:#f5f5f5!important;stroke:#333333!important;stroke-width:1;}#my-svg #MD_PARENT_END{fill:#f5f5f5!important;stroke:#333333!important;stroke-width:1;}#my-svg :root{--mermaid-font-family:"trebuchet ms",verdana,arial,sans-serif;}</style><g/><defs><marker orient="auto" markerHeight="240" markerWidth="190" refY="7" refX="0" id="MD_PARENT_START"><path d="M 18,7 L9,13 L1,7 L9,1 Z"/></marker></defs><defs><marker orient="auto" markerHeight="28" markerWidth="20" refY="7" refX="19" id="MD_PARENT_END"><path d="M 18,7 L9,13 L1,7 L9,1 Z"/></marker></defs><defs><marker orient="auto" markerHeight="18" markerWidth="18" refY="9" refX="0" id="ONLY_ONE_START"><path d="M9,0 L9,18 M15,0 L15,18" fill="none" stroke="gray"/></marker></defs><defs><marker orient="auto" markerHeight="18" markerWidth="18" refY="9" refX="18" id="ONLY_ONE_END"><path d="M3,0 L3,18 M9,0 L9,18" fill="none" stroke="gray"/></marker></defs><defs><marker orient="auto" markerHeight="18" markerWidth="30" refY="9" refX="0" id="ZERO_OR_ONE_START"><circle r="6" cy="9" cx="21" fill="white" stroke="gray"/><path d="M9,0 L9,18" fill="none" stroke="gray"/></marker></defs><defs><marker orient="auto" markerHeight="18" markerWidth="30" refY="9" refX="30" id="ZERO_OR_ONE_END"><circle r="6" cy="9" cx="9" fill="white" stroke="gray"/><path d="M21,0 L21,18" fill="none" stroke="gray"/></marker></defs><defs><marker orient="auto" markerHeight="36" markerWidth="45" refY="18" refX="18" id="ONE_OR_MORE_START"><path d="M0,18 Q 18,0 36,18 Q 18,36 0,18 M42,9 L42,27" fill="none" stroke="gray"/></marker></defs><defs><marker orient="auto" markerHeight="36" markerWidth="45" refY="18" refX="27" id="ONE_OR_MORE_END"><path d="M3,9 L3,27 M9,18 Q27,0 45,18 Q27,36 9,18" fill="none" stroke="gray"/></marker></defs><defs><marker orient="auto" markerHeight="36" markerWidth="57" refY="18" refX="18" id="ZERO_OR_MORE_START"><circle r="6" cy="18" cx="48" fill="white" stroke="gray"/><path d="M0,18 Q18,0 36,18 Q18,36 0,18" fill="none" stroke="gray"/></marker></defs><defs><marker orient="auto" markerHeight="36" markerWidth="57" refY="18" refX="39" id="ZERO_OR_MORE_END"><circle r="6" cy="18" cx="9" fill="white" stroke="gray"/><path d="M21,18 Q39,0 57,18 Q39,36 21,18" fill="none" stroke="gray"/></marker></defs><path style="stroke: gray; fill: none;" marker-start="url(#ONLY_ONE_START)" marker-end="url(#ZERO_OR_MORE_END)" d="M293.602,140.963L256.335,157.636C219.068,174.308,144.534,207.654,107.267,232.66C70,257.667,70,274.333,70,282.667L70,291" class="er relationshipLine"/><path style="stroke: gray; fill: none;" marker-start="url(#ONLY_ONE_START)" marker-end="url(#ZERO_OR_MORE_END)" d="M452.133,60.096L463.799,53.414C475.466,46.731,498.799,33.365,513.383,26.683C527.966,20,533.799,20,539.633,34.25C545.466,48.5,551.299,77,551.299,105.5C551.299,134,545.466,162.5,539.633,176.75C533.799,191,527.966,191,513.383,184.317C498.799,177.635,475.466,164.269,463.799,157.586L452.133,150.904" class="er relationshipLine"/><path style="stroke: gray; fill: none;" marker-start="url(#ONLY_ONE_START)" marker-end="url(#ZERO_OR_MORE_END)" d="M452.133,75.054L476.022,65.878C499.911,56.703,547.688,38.351,577.549,29.176C607.411,20,619.355,20,631.299,34.25C643.244,48.5,655.188,77,655.188,105.5C655.188,134,643.244,162.5,631.299,176.75C619.355,191,607.411,191,577.549,181.824C547.688,172.649,499.911,154.297,476.022,145.122L452.133,135.946" class="er relationshipLine"/><path style="stroke: gray; fill: none;" marker-start="url(#ONLY_ONE_START)" marker-end="url(#ZERO_OR_MORE_END)" d="M293.602,158.443L273.001,172.203C252.401,185.962,211.201,213.481,207.267,236.963C203.333,260.444,236.667,279.889,253.333,289.611L270,299.333" class="er relationshipLine"/><path style="stroke: gray; fill: none;" marker-start="url(#ONLY_ONE_START)" marker-end="url(#ZERO_OR_MORE_END)" d="M307.958,191L301.632,199.333C295.306,207.667,282.653,224.333,281.088,241C279.524,257.667,289.048,274.333,293.81,282.667L298.571,291" class="er relationshipLine"/><path style="stroke: gray; fill: none;" marker-start="url(#ONLY_ONE_START)" marker-end="url(#ZERO_OR_MORE_END)" d="M371.058,191L370.882,199.333C370.705,207.667,370.353,224.333,365.414,241C360.476,257.667,350.952,274.333,346.19,282.667L341.429,291" class="er relationshipLine"/><path style="stroke: gray; fill: none;" marker-start="url(#ONLY_ONE_START)" marker-end="url(#ZERO_OR_MORE_END)" d="M434.158,191L440.131,199.333C446.105,207.667,458.053,224.333,468.788,241C479.524,257.667,489.048,274.333,493.81,282.667L498.571,291" class="er relationshipLine"/><path style="stroke: gray; fill: none;" marker-start="url(#ONLY_ONE_START)" marker-end="url(#ZERO_OR_MORE_END)" d="M452.133,136.441L496.777,153.867C541.422,171.294,630.711,206.147,675.355,231.907C720,257.667,720,274.333,720,282.667L720,291" class="er relationshipLine"/><path style="stroke: gray; fill: none;" marker-start="url(#ONLY_ONE_START)" marker-end="url(#ZERO_OR_MORE_END)" d="M452.133,159.984L471.777,173.486C491.422,186.989,530.711,213.995,545.594,235.831C560.476,257.667,550.952,274.333,546.19,282.667L541.429,291" class="er relationshipLine"/><g transform="translate(293.6015625,20 )" id="entity-ListItem-141d187a-a012-5f92-8297-c2f7665e7858"><rect height="171" width="158.53125" y="0" x="0" class="er entityBox"/><text style="dominant-baseline: middle; text-anchor: middle; font-size: 12px;" transform="translate(79.265625,12)" y="0" x="0" id="text-entity-ListItem-141d187a-a012-5f92-8297-c2f7665e7858" class="er entityLabel">ListItem</text><rect height="21" width="57.0625" y="24" x="0" class="er attributeBoxOdd"/><text style="dominant-baseline: middle; font-size: 10.2px;" transform="translate(5,34.5)" y="0" x="0" id="text-entity-ListItem-141d187a-a012-5f92-8297-c2f7665e7858-attr-1-type" class="er entityLabel">stringList</text><rect height="21" width="101.46875" y="24" x="57.0625" class="er attributeBoxOdd"/><text style="dominant-baseline: middle; font-size: 10.2px;" transform="translate(62.0625,34.5)" y="0" x="0" id="text-entity-ListItem-141d187a-a012-5f92-8297-c2f7665e7858-attr-1-name" class="er entityLabel">position</text><rect height="21" width="57.0625" y="45" x="0" class="er attributeBoxEven"/><text style="dominant-baseline: middle; font-size: 10.2px;" transform="translate(5,55.5)" y="0" x="0" id="text-entity-ListItem-141d187a-a012-5f92-8297-c2f7665e7858-attr-2-type" class="er entityLabel">stringList</text><rect height="21" width="101.46875" y="45" x="57.0625" class="er attributeBoxEven"/><text style="dominant-baseline: middle; font-size: 10.2px;" transform="translate(62.0625,55.5)" y="0" x="0" id="text-entity-ListItem-141d187a-a012-5f92-8297-c2f7665e7858-attr-2-name" class="er entityLabel">additionalType</text><rect height="21" width="57.0625" y="66" x="0" class="er attributeBoxOdd"/><text style="dominant-baseline: middle; font-size: 10.2px;" transform="translate(5,76.5)" y="0" x="0" id="text-entity-ListItem-141d187a-a012-5f92-8297-c2f7665e7858-attr-3-type" class="er entityLabel">stringList</text><rect height="21" width="101.46875" y="66" x="57.0625" class="er attributeBoxOdd"/><text style="dominant-baseline: middle; font-size: 10.2px;" transform="translate(62.0625,76.5)" y="0" x="0" id="text-entity-ListItem-141d187a-a012-5f92-8297-c2f7665e7858-attr-3-name" class="er entityLabel">description</text><rect height="21" width="57.0625" y="87" x="0" class="er attributeBoxEven"/><text style="dominant-baseline: middle; font-size: 10.2px;" transform="translate(5,97.5)" y="0" x="0" id="text-entity-ListItem-141d187a-a012-5f92-8297-c2f7665e7858-attr-4-type" class="er entityLabel">stringList</text><rect height="21" width="101.46875" y="87" x="57.0625" class="er attributeBoxEven"/><text style="dominant-baseline: middle; font-size: 10.2px;" transform="translate(62.0625,97.5)" y="0" x="0" id="text-entity-ListItem-141d187a-a012-5f92-8297-c2f7665e7858-attr-4-name" class="er entityLabel">identifier</text><rect height="21" width="57.0625" y="108" x="0" class="er attributeBoxOdd"/><text style="dominant-baseline: middle; font-size: 10.2px;" transform="translate(5,118.5)" y="0" x="0" id="text-entity-ListItem-141d187a-a012-5f92-8297-c2f7665e7858-attr-5-type" class="er entityLabel">stringList</text><rect height="21" width="101.46875" y="108" x="57.0625" class="er attributeBoxOdd"/><text style="dominant-baseline: middle; font-size: 10.2px;" transform="translate(62.0625,118.5)" y="0" x="0" id="text-entity-ListItem-141d187a-a012-5f92-8297-c2f7665e7858-attr-5-name" class="er entityLabel">image</text><rect height="21" width="57.0625" y="129" x="0" class="er attributeBoxEven"/><text style="dominant-baseline: middle; font-size: 10.2px;" transform="translate(5,139.5)" y="0" x="0" id="text-entity-ListItem-141d187a-a012-5f92-8297-c2f7665e7858-attr-6-type" class="er entityLabel">stringList</text><rect height="21" width="101.46875" y="129" x="57.0625" class="er attributeBoxEven"/><text style="dominant-baseline: middle; font-size: 10.2px;" transform="translate(62.0625,139.5)" y="0" x="0" id="text-entity-ListItem-141d187a-a012-5f92-8297-c2f7665e7858-attr-6-name" class="er entityLabel">mainEntityOfPage</text><rect height="21" width="57.0625" y="150" x="0" class="er attributeBoxOdd"/><text style="dominant-baseline: middle; font-size: 10.2px;" transform="translate(5,160.5)" y="0" x="0" id="text-entity-ListItem-141d187a-a012-5f92-8297-c2f7665e7858-attr-7-type" class="er entityLabel">stringList</text><rect height="21" width="101.46875" y="150" x="57.0625" class="er attributeBoxOdd"/><text style="dominant-baseline: middle; font-size: 10.2px;" transform="translate(62.0625,160.5)" y="0" x="0" id="text-entity-ListItem-141d187a-a012-5f92-8297-c2f7665e7858-attr-7-name" class="er entityLabel">subjectOf</text></g><g transform="translate(20,291 )" id="entity-Thing-27bc9527-b992-59fc-a0fb-da83e2ff80bf"><rect height="75" width="100" y="0" x="0" class="er entityBox"/><text style="dominant-baseline: middle; text-anchor: middle; font-size: 12px;" transform="translate(50,37.5)" y="0" x="0" id="text-entity-Thing-27bc9527-b992-59fc-a0fb-da83e2ff80bf" class="er entityLabel">Thing</text></g><g transform="translate(270,291 )" id="entity-Text-426c5d39-acfc-5487-a6d9-ede67887190e"><rect height="75" width="100" y="0" x="0" class="er entityBox"/><text style="dominant-baseline: middle; text-anchor: middle; font-size: 12px;" transform="translate(50,37.5)" y="0" x="0" id="text-entity-Text-426c5d39-acfc-5487-a6d9-ede67887190e" class="er entityLabel">Text</text></g><g transform="translate(470,291 )" id="entity-URL-07f78d3e-fd74-5925-b39b-26c1cc2d6b7c"><rect height="75" width="100" y="0" x="0" class="er entityBox"/><text style="dominant-baseline: middle; text-anchor: middle; font-size: 12px;" transform="translate(50,37.5)" y="0" x="0" id="text-entity-URL-07f78d3e-fd74-5925-b39b-26c1cc2d6b7c" class="er entityLabel">URL</text></g><g transform="translate(670,291 )" id="entity-Action-6cd87d9a-a078-546e-a35b-bee54f477b31"><rect height="75" width="100" y="0" x="0" class="er entityBox"/><text style="dominant-baseline: middle; text-anchor: middle; font-size: 12px;" transform="translate(50,37.5)" y="0" x="0" id="text-entity-Action-6cd87d9a-a078-546e-a35b-bee54f477b31" class="er entityLabel">Action</text></g><rect height="14" width="27.125" y="192.8638153076172" x="152.3144989013672" class="er relationshipLabelBox"/><text style="text-anchor: middle; dominant-baseline: middle; font-size: 12px;" y="199.8638153076172" x="165.8769989013672" id="rel1" class="er relationshipLabel">item</text><rect height="14" width="53.90625" y="98.5000228881836" x="524.3458862304688" class="er relationshipLabelBox"/><text style="text-anchor: middle; dominant-baseline: middle; font-size: 12px;" y="105.5000228881836" x="551.2990112304688" id="rel2" class="er relationshipLabel">nextItem</text><rect height="14" width="78.625" y="98.5" x="615.87548828125" class="er relationshipLabelBox"/><text style="text-anchor: middle; dominant-baseline: middle; font-size: 12px;" y="105.5" x="655.18798828125" id="rel3" class="er relationshipLabel">previousItem</text><rect height="14" width="89.953125" y="218.10580444335938" x="167.0120086669922" class="er relationshipLabelBox"/><text style="text-anchor: middle; dominant-baseline: middle; font-size: 12px;" y="225.10580444335938" x="211.9885711669922" id="rel4" class="er relationshipLabel">alternateName</text><rect height="14" width="161.390625" y="232.1914825439453" x="200.6053466796875" class="er relationshipLabelBox"/><text style="text-anchor: middle; dominant-baseline: middle; font-size: 12px;" y="239.1914825439453" x="281.3006591796875" id="rel5" class="er relationshipLabel">disambiguatingDescription</text><rect height="14" width="34.03125" y="236.4346466064453" x="347.6450500488281" class="er relationshipLabelBox"/><text style="text-anchor: middle; dominant-baseline: middle; font-size: 12px;" y="243.4346466064453" x="364.6606750488281" id="rel6" class="er relationshipLabel">name</text><rect height="14" width="47.140625" y="232.8988494873047" x="444.5059814453125" class="er relationshipLabelBox"/><text style="text-anchor: middle; dominant-baseline: middle; font-size: 12px;" y="239.8988494873047" x="468.0762939453125" id="rel7" class="er relationshipLabel">sameAs</text><rect height="14" width="90.96875" y="189.39498901367188" x="556.1290283203125" class="er relationshipLabelBox"/><text style="text-anchor: middle; dominant-baseline: middle; font-size: 12px;" y="196.39498901367188" x="601.6134033203125" id="rel8" class="er relationshipLabel">potentialAction</text><rect height="14" width="15.875" y="206.45437622070312" x="516.8233642578125" class="er relationshipLabelBox"/><text style="text-anchor: middle; dominant-baseline: middle; font-size: 12px;" y="213.45437622070312" x="524.7608642578125" id="rel9" class="er relationshipLabel">url</text></svg>