<svg aria-roledescription="er" role="graphics-document document" viewBox="0 0 3591.53125 743" style="max-width: 3591.53px; background-color: white;" xmlns:xlink="http://www.w3.org/1999/xlink" xmlns="http://www.w3.org/2000/svg" width="100%" id="my-svg"><style>#my-svg{font-family:"trebuchet ms",verdana,arial,sans-serif;font-size:16px;fill:#333;}#my-svg .error-icon{fill:#552222;}#my-svg .error-text{fill:#552222;stroke:#552222;}#my-svg .edge-thickness-normal{stroke-width:1px;}#my-svg .edge-thickness-thick{stroke-width:3.5px;}#my-svg .edge-pattern-solid{stroke-dasharray:0;}#my-svg .edge-thickness-invisible{stroke-width:0;fill:none;}#my-svg .edge-pattern-dashed{stroke-dasharray:3;}#my-svg .edge-pattern-dotted{stroke-dasharray:2;}#my-svg .marker{fill:#333333;stroke:#333333;}#my-svg .marker.cross{stroke:#333333;}#my-svg svg{font-family:"trebuchet ms",verdana,arial,sans-serif;font-size:16px;}#my-svg p{margin:0;}#my-svg .entityBox{fill:#ECECFF;stroke:#9370DB;}#my-svg .attributeBoxOdd{fill:#ffffff;stroke:#9370DB;}#my-svg .attributeBoxEven{fill:#f2f2f2;stroke:#9370DB;}#my-svg .relationshipLabelBox{fill:hsl(80, 100%, 96.2745098039%);opacity:0.7;background-color:hsl(80, 100%, 96.2745098039%);}#my-svg .relationshipLabelBox rect{opacity:0.5;}#my-svg .relationshipLine{stroke:#333333;}#my-svg .entityTitleText{text-anchor:middle;font-size:18px;fill:#333;}#my-svg #MD_PARENT_START{fill:#f5f5f5!important;stroke:#333333!important;stroke-width:1;}#my-svg #MD_PARENT_END{fill:#f5f5f5!important;stroke:#333333!important;stroke-width:1;}#my-svg :root{--mermaid-font-family:"trebuchet ms",verdana,arial,sans-serif;}</style><g/><defs><marker orient="auto" markerHeight="240" markerWidth="190" refY="7" refX="0" id="MD_PARENT_START"><path d="M 18,7 L9,13 L1,7 L9,1 Z"/></marker></defs><defs><marker orient="auto" markerHeight="28" markerWidth="20" refY="7" refX="19" id="MD_PARENT_END"><path d="M 18,7 L9,13 L1,7 L9,1 Z"/></marker></defs><defs><marker orient="auto" markerHeight="18" markerWidth="18" refY="9" refX="0" id="ONLY_ONE_START"><path d="M9,0 L9,18 M15,0 L15,18" fill="none" stroke="gray"/></marker></defs><defs><marker orient="auto" markerHeight="18" markerWidth="18" refY="9" refX="18" id="ONLY_ONE_END"><path d="M3,0 L3,18 M9,0 L9,18" fill="none" stroke="gray"/></marker></defs><defs><marker orient="auto" markerHeight="18" markerWidth="30" refY="9" refX="0" id="ZERO_OR_ONE_START"><circle r="6" cy="9" cx="21" fill="white" stroke="gray"/><path d="M9,0 L9,18" fill="none" stroke="gray"/></marker></defs><defs><marker orient="auto" markerHeight="18" markerWidth="30" refY="9" refX="30" id="ZERO_OR_ONE_END"><circle r="6" cy="9" cx="9" fill="white" stroke="gray"/><path d="M21,0 L21,18" fill="none" stroke="gray"/></marker></defs><defs><marker orient="auto" markerHeight="36" markerWidth="45" refY="18" refX="18" id="ONE_OR_MORE_START"><path d="M0,18 Q 18,0 36,18 Q 18,36 0,18 M42,9 L42,27" fill="none" stroke="gray"/></marker></defs><defs><marker orient="auto" markerHeight="36" markerWidth="45" refY="18" refX="27" id="ONE_OR_MORE_END"><path d="M3,9 L3,27 M9,18 Q27,0 45,18 Q27,36 9,18" fill="none" stroke="gray"/></marker></defs><defs><marker orient="auto" markerHeight="36" markerWidth="57" refY="18" refX="18" id="ZERO_OR_MORE_START"><circle r="6" cy="18" cx="48" fill="white" stroke="gray"/><path d="M0,18 Q18,0 36,18 Q18,36 0,18" fill="none" stroke="gray"/></marker></defs><defs><marker orient="auto" markerHeight="36" markerWidth="57" refY="18" refX="39" id="ZERO_OR_MORE_END"><circle r="6" cy="18" cx="9" fill="white" stroke="gray"/><path d="M21,18 Q39,0 57,18 Q39,36 21,18" fill="none" stroke="gray"/></marker></defs><path style="stroke: gray; fill: none;" marker-start="url(#ONLY_ONE_START)" marker-end="url(#ZERO_OR_MORE_END)" d="M1518.875,308.427L1280.529,356.689C1042.182,404.951,565.49,501.476,327.143,558.071C88.797,614.667,88.797,631.333,88.797,639.667L88.797,648" class="er relationshipLine"/><path style="stroke: gray; fill: none;" marker-start="url(#ONLY_ONE_START)" marker-end="url(#ZERO_OR_MORE_END)" d="M1518.875,310.11L1297.195,358.092C1075.516,406.074,632.156,502.037,452.143,562.171C272.13,622.306,355.464,646.611,397.13,658.764L438.797,670.917" class="er relationshipLine"/><path style="stroke: gray; fill: none;" marker-start="url(#ONLY_ONE_START)" marker-end="url(#ZERO_OR_MORE_END)" d="M1518.875,334.457L1413.862,378.381C1308.849,422.305,1098.823,510.152,993.81,562.41C888.797,614.667,888.797,631.333,888.797,639.667L888.797,648" class="er relationshipLine"/><path style="stroke: gray; fill: none;" marker-start="url(#ONLY_ONE_START)" marker-end="url(#ZERO_OR_MORE_END)" d="M1518.875,357.857L1453.503,397.881C1388.13,437.904,1257.385,517.952,1192.013,566.309C1126.641,614.667,1126.641,631.333,1126.641,639.667L1126.641,648" class="er relationshipLine"/><path style="stroke: gray; fill: none;" marker-start="url(#ONLY_ONE_START)" marker-end="url(#ZERO_OR_MORE_END)" d="M1518.875,394.13L1481.656,428.108C1444.438,462.087,1370,530.043,1339.345,572.355C1308.69,614.667,1321.818,631.333,1328.382,639.667L1334.946,648" class="er relationshipLine"/><path style="stroke: gray; fill: none;" marker-start="url(#ONLY_ONE_START)" marker-end="url(#ZERO_OR_MORE_END)" d="M1518.875,458.387L1502.779,481.656C1486.682,504.924,1454.49,551.462,1432.887,583.064C1411.285,614.667,1400.273,631.333,1394.767,639.667L1389.261,648" class="er relationshipLine"/><path style="stroke: gray; fill: none;" marker-start="url(#ONLY_ONE_START)" marker-end="url(#ZERO_OR_MORE_END)" d="M1589.568,548L1587.991,556.333C1586.415,564.667,1583.262,581.333,1581.686,598C1580.109,614.667,1580.109,631.333,1580.109,639.667L1580.109,648" class="er relationshipLine"/><path style="stroke: gray; fill: none;" marker-start="url(#ONLY_ONE_START)" marker-end="url(#ZERO_OR_MORE_END)" d="M1722.251,548L1724.863,556.333C1727.475,564.667,1732.698,581.333,1740.816,598C1748.934,614.667,1759.946,631.333,1765.452,639.667L1770.958,648" class="er relationshipLine"/><path style="stroke: gray; fill: none;" marker-start="url(#ONLY_ONE_START)" marker-end="url(#ZERO_OR_MORE_END)" d="M1760.141,386.92L1801.375,422.1C1842.609,457.28,1925.078,527.64,1966.313,571.153C2007.547,614.667,2007.547,631.333,2007.547,639.667L2007.547,648" class="er relationshipLine"/><path style="stroke: gray; fill: none;" marker-start="url(#ONLY_ONE_START)" marker-end="url(#ZERO_OR_MORE_END)" d="M1518.875,312.044L1313.862,359.703C1108.849,407.362,698.823,502.681,518.81,561.278C338.797,619.875,388.797,641.75,413.797,652.688L438.797,663.625" class="er relationshipLine"/><path style="stroke: gray; fill: none;" marker-start="url(#ONLY_ONE_START)" marker-end="url(#ZERO_OR_MORE_END)" d="M1760.141,349.143L1836.947,390.619C1913.753,432.095,2067.365,515.048,2144.171,564.857C2220.977,614.667,2220.977,631.333,2220.977,639.667L2220.977,648" class="er relationshipLine"/><path style="stroke: gray; fill: none;" marker-start="url(#ONLY_ONE_START)" marker-end="url(#ZERO_OR_MORE_END)" d="M1760.141,332.183L1871.06,376.486C1981.979,420.788,2203.818,509.394,2314.737,562.03C2425.656,614.667,2425.656,631.333,2425.656,639.667L2425.656,648" class="er relationshipLine"/><path style="stroke: gray; fill: none;" marker-start="url(#ONLY_ONE_START)" marker-end="url(#ZERO_OR_MORE_END)" d="M1760.141,320.576L1912.638,366.813C2065.135,413.051,2370.13,505.525,2522.628,560.096C2675.125,614.667,2675.125,631.333,2675.125,639.667L2675.125,648" class="er relationshipLine"/><path style="stroke: gray; fill: none;" marker-start="url(#ONLY_ONE_START)" marker-end="url(#ZERO_OR_MORE_END)" d="M1760.141,315.335L1941.505,362.446C2122.87,409.557,2485.599,503.778,2673.935,559.223C2862.272,614.667,2876.215,631.333,2883.187,639.667L2890.158,648" class="er relationshipLine"/><path style="stroke: gray; fill: none;" marker-start="url(#ONLY_ONE_START)" marker-end="url(#ZERO_OR_MORE_END)" d="M1518.875,314.286L1330.529,361.571C1142.182,408.857,765.49,503.429,586.667,559.048C407.844,614.667,426.892,631.333,436.416,639.667L445.94,648" class="er relationshipLine"/><path style="stroke: gray; fill: none;" marker-start="url(#ONLY_ONE_START)" marker-end="url(#ZERO_OR_MORE_END)" d="M1760.141,309.559L1987.039,357.632C2213.938,405.706,2667.734,501.853,2894.633,558.26C3121.531,614.667,3121.531,631.333,3121.531,639.667L3121.531,648" class="er relationshipLine"/><path style="stroke: gray; fill: none;" marker-start="url(#ONLY_ONE_START)" marker-end="url(#ZERO_OR_MORE_END)" d="M1760.141,462.561L1775.391,485.134C1790.641,507.708,1821.141,552.854,1831.066,583.76C1840.992,614.667,1830.343,631.333,1825.019,639.667L1819.694,648" class="er relationshipLine"/><path style="stroke: gray; fill: none;" marker-start="url(#ONLY_ONE_START)" marker-end="url(#ZERO_OR_MORE_END)" d="M1760.141,312.437L1962.039,360.031C2163.938,407.625,2567.734,502.812,2764.871,558.739C2962.007,614.667,2952.484,631.333,2947.722,639.667L2942.96,648" class="er relationshipLine"/><path style="stroke: gray; fill: none;" marker-start="url(#ONLY_ONE_START)" marker-end="url(#ZERO_OR_MORE_END)" d="M1518.875,316.918L1347.195,363.765C1175.516,410.612,832.156,504.306,660.477,559.486C488.797,614.667,488.797,631.333,488.797,639.667L488.797,648" class="er relationshipLine"/><path style="stroke: gray; fill: none;" marker-start="url(#ONLY_ONE_START)" marker-end="url(#ZERO_OR_MORE_END)" d="M1518.875,320.051L1363.862,366.375C1208.849,412.7,898.823,505.35,734.286,560.008C569.749,614.667,550.702,631.333,541.178,639.667L531.654,648" class="er relationshipLine"/><path style="stroke: gray; fill: none;" marker-start="url(#ONLY_ONE_START)" marker-end="url(#ZERO_OR_MORE_END)" d="M1518.875,323.843L1380.529,369.535C1242.182,415.228,965.49,506.614,802.143,563.245C638.797,619.875,588.797,641.75,563.797,652.688L538.797,663.625" class="er relationshipLine"/><path style="stroke: gray; fill: none;" marker-start="url(#ONLY_ONE_START)" marker-end="url(#ZERO_OR_MORE_END)" d="M1518.875,328.526L1397.195,373.438C1275.516,418.351,1032.156,508.175,868.81,565.24C705.464,622.306,622.13,646.611,580.464,658.764L538.797,670.917" class="er relationshipLine"/><path style="stroke: gray; fill: none;" marker-start="url(#ONLY_ONE_START)" marker-end="url(#ZERO_OR_MORE_END)" d="M1760.141,307.21L2012.039,355.675C2263.938,404.14,2767.734,501.07,3024.395,557.868C3281.055,614.667,3290.579,631.333,3295.341,639.667L3300.103,648" class="er relationshipLine"/><path style="stroke: gray; fill: none;" marker-start="url(#ONLY_ONE_START)" marker-end="url(#ZERO_OR_MORE_END)" d="M1760.141,304.127L2053.706,353.105C2347.271,402.084,2934.401,500.042,3227.966,557.354C3521.531,614.667,3521.531,631.333,3521.531,639.667L3521.531,648" class="er relationshipLine"/><path style="stroke: gray; fill: none;" marker-start="url(#ONLY_ONE_START)" marker-end="url(#ZERO_OR_MORE_END)" d="M1760.141,305.87L2028.706,354.558C2297.271,403.246,2834.401,500.623,3098.204,557.645C3362.007,614.667,3352.484,631.333,3347.722,639.667L3342.96,648" class="er relationshipLine"/><g transform="translate(1518.875,20 )" id="entity-LoanOrCredit-6fd2bd5b-fcc9-5994-99bc-45f8ed58b605"><rect height="528" width="241.265625" y="0" x="0" class="er entityBox"/><text style="dominant-baseline: middle; text-anchor: middle; font-size: 12px;" transform="translate(120.6328125,12)" y="0" x="0" id="text-entity-LoanOrCredit-6fd2bd5b-fcc9-5994-99bc-45f8ed58b605" class="er entityLabel">LoanOrCredit</text><rect height="21" width="57.0625" y="24" x="0" class="er attributeBoxOdd"/><text style="dominant-baseline: middle; font-size: 10.2px;" transform="translate(5,34.5)" y="0" x="0" id="text-entity-LoanOrCredit-6fd2bd5b-fcc9-5994-99bc-45f8ed58b605-attr-1-type" class="er entityLabel">stringList</text><rect height="21" width="184.203125" y="24" x="57.0625" class="er attributeBoxOdd"/><text style="dominant-baseline: middle; font-size: 10.2px;" transform="translate(62.0625,34.5)" y="0" x="0" id="text-entity-LoanOrCredit-6fd2bd5b-fcc9-5994-99bc-45f8ed58b605-attr-1-name" class="er entityLabel">amount</text><rect height="21" width="57.0625" y="45" x="0" class="er attributeBoxEven"/><text style="dominant-baseline: middle; font-size: 10.2px;" transform="translate(5,55.5)" y="0" x="0" id="text-entity-LoanOrCredit-6fd2bd5b-fcc9-5994-99bc-45f8ed58b605-attr-2-type" class="er entityLabel">stringList</text><rect height="21" width="184.203125" y="45" x="57.0625" class="er attributeBoxEven"/><text style="dominant-baseline: middle; font-size: 10.2px;" transform="translate(62.0625,55.5)" y="0" x="0" id="text-entity-LoanOrCredit-6fd2bd5b-fcc9-5994-99bc-45f8ed58b605-attr-2-name" class="er entityLabel">loanType</text><rect height="21" width="57.0625" y="66" x="0" class="er attributeBoxOdd"/><text style="dominant-baseline: middle; font-size: 10.2px;" transform="translate(5,76.5)" y="0" x="0" id="text-entity-LoanOrCredit-6fd2bd5b-fcc9-5994-99bc-45f8ed58b605-attr-3-type" class="er entityLabel">stringList</text><rect height="21" width="184.203125" y="66" x="57.0625" class="er attributeBoxOdd"/><text style="dominant-baseline: middle; font-size: 10.2px;" transform="translate(62.0625,76.5)" y="0" x="0" id="text-entity-LoanOrCredit-6fd2bd5b-fcc9-5994-99bc-45f8ed58b605-attr-3-name" class="er entityLabel">requiredCollateral</text><rect height="21" width="57.0625" y="87" x="0" class="er attributeBoxEven"/><text style="dominant-baseline: middle; font-size: 10.2px;" transform="translate(5,97.5)" y="0" x="0" id="text-entity-LoanOrCredit-6fd2bd5b-fcc9-5994-99bc-45f8ed58b605-attr-4-type" class="er entityLabel">stringList</text><rect height="21" width="184.203125" y="87" x="57.0625" class="er attributeBoxEven"/><text style="dominant-baseline: middle; font-size: 10.2px;" transform="translate(62.0625,97.5)" y="0" x="0" id="text-entity-LoanOrCredit-6fd2bd5b-fcc9-5994-99bc-45f8ed58b605-attr-4-name" class="er entityLabel">annualPercentageRate</text><rect height="21" width="57.0625" y="108" x="0" class="er attributeBoxOdd"/><text style="dominant-baseline: middle; font-size: 10.2px;" transform="translate(5,118.5)" y="0" x="0" id="text-entity-LoanOrCredit-6fd2bd5b-fcc9-5994-99bc-45f8ed58b605-attr-5-type" class="er entityLabel">stringList</text><rect height="21" width="184.203125" y="108" x="57.0625" class="er attributeBoxOdd"/><text style="dominant-baseline: middle; font-size: 10.2px;" transform="translate(62.0625,118.5)" y="0" x="0" id="text-entity-LoanOrCredit-6fd2bd5b-fcc9-5994-99bc-45f8ed58b605-attr-5-name" class="er entityLabel">feesAndCommissionsSpecification</text><rect height="21" width="57.0625" y="129" x="0" class="er attributeBoxEven"/><text style="dominant-baseline: middle; font-size: 10.2px;" transform="translate(5,139.5)" y="0" x="0" id="text-entity-LoanOrCredit-6fd2bd5b-fcc9-5994-99bc-45f8ed58b605-attr-6-type" class="er entityLabel">stringList</text><rect height="21" width="184.203125" y="129" x="57.0625" class="er attributeBoxEven"/><text style="dominant-baseline: middle; font-size: 10.2px;" transform="translate(62.0625,139.5)" y="0" x="0" id="text-entity-LoanOrCredit-6fd2bd5b-fcc9-5994-99bc-45f8ed58b605-attr-6-name" class="er entityLabel">interestRate</text><rect height="21" width="57.0625" y="150" x="0" class="er attributeBoxOdd"/><text style="dominant-baseline: middle; font-size: 10.2px;" transform="translate(5,160.5)" y="0" x="0" id="text-entity-LoanOrCredit-6fd2bd5b-fcc9-5994-99bc-45f8ed58b605-attr-7-type" class="er entityLabel">stringList</text><rect height="21" width="184.203125" y="150" x="57.0625" class="er attributeBoxOdd"/><text style="dominant-baseline: middle; font-size: 10.2px;" transform="translate(62.0625,160.5)" y="0" x="0" id="text-entity-LoanOrCredit-6fd2bd5b-fcc9-5994-99bc-45f8ed58b605-attr-7-name" class="er entityLabel">areaServed</text><rect height="21" width="57.0625" y="171" x="0" class="er attributeBoxEven"/><text style="dominant-baseline: middle; font-size: 10.2px;" transform="translate(5,181.5)" y="0" x="0" id="text-entity-LoanOrCredit-6fd2bd5b-fcc9-5994-99bc-45f8ed58b605-attr-8-type" class="er entityLabel">stringList</text><rect height="21" width="184.203125" y="171" x="57.0625" class="er attributeBoxEven"/><text style="dominant-baseline: middle; font-size: 10.2px;" transform="translate(62.0625,181.5)" y="0" x="0" id="text-entity-LoanOrCredit-6fd2bd5b-fcc9-5994-99bc-45f8ed58b605-attr-8-name" class="er entityLabel">category</text><rect height="21" width="57.0625" y="192" x="0" class="er attributeBoxOdd"/><text style="dominant-baseline: middle; font-size: 10.2px;" transform="translate(5,202.5)" y="0" x="0" id="text-entity-LoanOrCredit-6fd2bd5b-fcc9-5994-99bc-45f8ed58b605-attr-9-type" class="er entityLabel">stringList</text><rect height="21" width="184.203125" y="192" x="57.0625" class="er attributeBoxOdd"/><text style="dominant-baseline: middle; font-size: 10.2px;" transform="translate(62.0625,202.5)" y="0" x="0" id="text-entity-LoanOrCredit-6fd2bd5b-fcc9-5994-99bc-45f8ed58b605-attr-9-name" class="er entityLabel">logo</text><rect height="21" width="57.0625" y="213" x="0" class="er attributeBoxEven"/><text style="dominant-baseline: middle; font-size: 10.2px;" transform="translate(5,223.5)" y="0" x="0" id="text-entity-LoanOrCredit-6fd2bd5b-fcc9-5994-99bc-45f8ed58b605-attr-10-type" class="er entityLabel">stringList</text><rect height="21" width="184.203125" y="213" x="57.0625" class="er attributeBoxEven"/><text style="dominant-baseline: middle; font-size: 10.2px;" transform="translate(62.0625,223.5)" y="0" x="0" id="text-entity-LoanOrCredit-6fd2bd5b-fcc9-5994-99bc-45f8ed58b605-attr-10-name" class="er entityLabel">brand</text><rect height="21" width="57.0625" y="234" x="0" class="er attributeBoxOdd"/><text style="dominant-baseline: middle; font-size: 10.2px;" transform="translate(5,244.5)" y="0" x="0" id="text-entity-LoanOrCredit-6fd2bd5b-fcc9-5994-99bc-45f8ed58b605-attr-11-type" class="er entityLabel">stringList</text><rect height="21" width="184.203125" y="234" x="57.0625" class="er attributeBoxOdd"/><text style="dominant-baseline: middle; font-size: 10.2px;" transform="translate(62.0625,244.5)" y="0" x="0" id="text-entity-LoanOrCredit-6fd2bd5b-fcc9-5994-99bc-45f8ed58b605-attr-11-name" class="er entityLabel">broker</text><rect height="21" width="57.0625" y="255" x="0" class="er attributeBoxEven"/><text style="dominant-baseline: middle; font-size: 10.2px;" transform="translate(5,265.5)" y="0" x="0" id="text-entity-LoanOrCredit-6fd2bd5b-fcc9-5994-99bc-45f8ed58b605-attr-12-type" class="er entityLabel">stringList</text><rect height="21" width="184.203125" y="255" x="57.0625" class="er attributeBoxEven"/><text style="dominant-baseline: middle; font-size: 10.2px;" transform="translate(62.0625,265.5)" y="0" x="0" id="text-entity-LoanOrCredit-6fd2bd5b-fcc9-5994-99bc-45f8ed58b605-attr-12-name" class="er entityLabel">isRelatedTo</text><rect height="21" width="57.0625" y="276" x="0" class="er attributeBoxOdd"/><text style="dominant-baseline: middle; font-size: 10.2px;" transform="translate(5,286.5)" y="0" x="0" id="text-entity-LoanOrCredit-6fd2bd5b-fcc9-5994-99bc-45f8ed58b605-attr-13-type" class="er entityLabel">stringList</text><rect height="21" width="184.203125" y="276" x="57.0625" class="er attributeBoxOdd"/><text style="dominant-baseline: middle; font-size: 10.2px;" transform="translate(62.0625,286.5)" y="0" x="0" id="text-entity-LoanOrCredit-6fd2bd5b-fcc9-5994-99bc-45f8ed58b605-attr-13-name" class="er entityLabel">isSimilarTo</text><rect height="21" width="57.0625" y="297" x="0" class="er attributeBoxEven"/><text style="dominant-baseline: middle; font-size: 10.2px;" transform="translate(5,307.5)" y="0" x="0" id="text-entity-LoanOrCredit-6fd2bd5b-fcc9-5994-99bc-45f8ed58b605-attr-14-type" class="er entityLabel">stringList</text><rect height="21" width="184.203125" y="297" x="57.0625" class="er attributeBoxEven"/><text style="dominant-baseline: middle; font-size: 10.2px;" transform="translate(62.0625,307.5)" y="0" x="0" id="text-entity-LoanOrCredit-6fd2bd5b-fcc9-5994-99bc-45f8ed58b605-attr-14-name" class="er entityLabel">offers</text><rect height="21" width="57.0625" y="318" x="0" class="er attributeBoxOdd"/><text style="dominant-baseline: middle; font-size: 10.2px;" transform="translate(5,328.5)" y="0" x="0" id="text-entity-LoanOrCredit-6fd2bd5b-fcc9-5994-99bc-45f8ed58b605-attr-15-type" class="er entityLabel">stringList</text><rect height="21" width="184.203125" y="318" x="57.0625" class="er attributeBoxOdd"/><text style="dominant-baseline: middle; font-size: 10.2px;" transform="translate(62.0625,328.5)" y="0" x="0" id="text-entity-LoanOrCredit-6fd2bd5b-fcc9-5994-99bc-45f8ed58b605-attr-15-name" class="er entityLabel">provider</text><rect height="21" width="57.0625" y="339" x="0" class="er attributeBoxEven"/><text style="dominant-baseline: middle; font-size: 10.2px;" transform="translate(5,349.5)" y="0" x="0" id="text-entity-LoanOrCredit-6fd2bd5b-fcc9-5994-99bc-45f8ed58b605-attr-16-type" class="er entityLabel">stringList</text><rect height="21" width="184.203125" y="339" x="57.0625" class="er attributeBoxEven"/><text style="dominant-baseline: middle; font-size: 10.2px;" transform="translate(62.0625,349.5)" y="0" x="0" id="text-entity-LoanOrCredit-6fd2bd5b-fcc9-5994-99bc-45f8ed58b605-attr-16-name" class="er entityLabel">serviceArea</text><rect height="21" width="57.0625" y="360" x="0" class="er attributeBoxOdd"/><text style="dominant-baseline: middle; font-size: 10.2px;" transform="translate(5,370.5)" y="0" x="0" id="text-entity-LoanOrCredit-6fd2bd5b-fcc9-5994-99bc-45f8ed58b605-attr-17-type" class="er entityLabel">stringList</text><rect height="21" width="184.203125" y="360" x="57.0625" class="er attributeBoxOdd"/><text style="dominant-baseline: middle; font-size: 10.2px;" transform="translate(62.0625,370.5)" y="0" x="0" id="text-entity-LoanOrCredit-6fd2bd5b-fcc9-5994-99bc-45f8ed58b605-attr-17-name" class="er entityLabel">serviceType</text><rect height="21" width="57.0625" y="381" x="0" class="er attributeBoxEven"/><text style="dominant-baseline: middle; font-size: 10.2px;" transform="translate(5,391.5)" y="0" x="0" id="text-entity-LoanOrCredit-6fd2bd5b-fcc9-5994-99bc-45f8ed58b605-attr-18-type" class="er entityLabel">stringList</text><rect height="21" width="184.203125" y="381" x="57.0625" class="er attributeBoxEven"/><text style="dominant-baseline: middle; font-size: 10.2px;" transform="translate(62.0625,391.5)" y="0" x="0" id="text-entity-LoanOrCredit-6fd2bd5b-fcc9-5994-99bc-45f8ed58b605-attr-18-name" class="er entityLabel">termsOfService</text><rect height="21" width="57.0625" y="402" x="0" class="er attributeBoxOdd"/><text style="dominant-baseline: middle; font-size: 10.2px;" transform="translate(5,412.5)" y="0" x="0" id="text-entity-LoanOrCredit-6fd2bd5b-fcc9-5994-99bc-45f8ed58b605-attr-19-type" class="er entityLabel">stringList</text><rect height="21" width="184.203125" y="402" x="57.0625" class="er attributeBoxOdd"/><text style="dominant-baseline: middle; font-size: 10.2px;" transform="translate(62.0625,412.5)" y="0" x="0" id="text-entity-LoanOrCredit-6fd2bd5b-fcc9-5994-99bc-45f8ed58b605-attr-19-name" class="er entityLabel">additionalType</text><rect height="21" width="57.0625" y="423" x="0" class="er attributeBoxEven"/><text style="dominant-baseline: middle; font-size: 10.2px;" transform="translate(5,433.5)" y="0" x="0" id="text-entity-LoanOrCredit-6fd2bd5b-fcc9-5994-99bc-45f8ed58b605-attr-20-type" class="er entityLabel">stringList</text><rect height="21" width="184.203125" y="423" x="57.0625" class="er attributeBoxEven"/><text style="dominant-baseline: middle; font-size: 10.2px;" transform="translate(62.0625,433.5)" y="0" x="0" id="text-entity-LoanOrCredit-6fd2bd5b-fcc9-5994-99bc-45f8ed58b605-attr-20-name" class="er entityLabel">description</text><rect height="21" width="57.0625" y="444" x="0" class="er attributeBoxOdd"/><text style="dominant-baseline: middle; font-size: 10.2px;" transform="translate(5,454.5)" y="0" x="0" id="text-entity-LoanOrCredit-6fd2bd5b-fcc9-5994-99bc-45f8ed58b605-attr-21-type" class="er entityLabel">stringList</text><rect height="21" width="184.203125" y="444" x="57.0625" class="er attributeBoxOdd"/><text style="dominant-baseline: middle; font-size: 10.2px;" transform="translate(62.0625,454.5)" y="0" x="0" id="text-entity-LoanOrCredit-6fd2bd5b-fcc9-5994-99bc-45f8ed58b605-attr-21-name" class="er entityLabel">identifier</text><rect height="21" width="57.0625" y="465" x="0" class="er attributeBoxEven"/><text style="dominant-baseline: middle; font-size: 10.2px;" transform="translate(5,475.5)" y="0" x="0" id="text-entity-LoanOrCredit-6fd2bd5b-fcc9-5994-99bc-45f8ed58b605-attr-22-type" class="er entityLabel">stringList</text><rect height="21" width="184.203125" y="465" x="57.0625" class="er attributeBoxEven"/><text style="dominant-baseline: middle; font-size: 10.2px;" transform="translate(62.0625,475.5)" y="0" x="0" id="text-entity-LoanOrCredit-6fd2bd5b-fcc9-5994-99bc-45f8ed58b605-attr-22-name" class="er entityLabel">image</text><rect height="21" width="57.0625" y="486" x="0" class="er attributeBoxOdd"/><text style="dominant-baseline: middle; font-size: 10.2px;" transform="translate(5,496.5)" y="0" x="0" id="text-entity-LoanOrCredit-6fd2bd5b-fcc9-5994-99bc-45f8ed58b605-attr-23-type" class="er entityLabel">stringList</text><rect height="21" width="184.203125" y="486" x="57.0625" class="er attributeBoxOdd"/><text style="dominant-baseline: middle; font-size: 10.2px;" transform="translate(62.0625,496.5)" y="0" x="0" id="text-entity-LoanOrCredit-6fd2bd5b-fcc9-5994-99bc-45f8ed58b605-attr-23-name" class="er entityLabel">mainEntityOfPage</text><rect height="21" width="57.0625" y="507" x="0" class="er attributeBoxEven"/><text style="dominant-baseline: middle; font-size: 10.2px;" transform="translate(5,517.5)" y="0" x="0" id="text-entity-LoanOrCredit-6fd2bd5b-fcc9-5994-99bc-45f8ed58b605-attr-24-type" class="er entityLabel">stringList</text><rect height="21" width="184.203125" y="507" x="57.0625" class="er attributeBoxEven"/><text style="dominant-baseline: middle; font-size: 10.2px;" transform="translate(62.0625,517.5)" y="0" x="0" id="text-entity-LoanOrCredit-6fd2bd5b-fcc9-5994-99bc-45f8ed58b605-attr-24-name" class="er entityLabel">subjectOf</text></g><g transform="translate(20,648 )" id="entity-QuantitativeValue-3d19db81-2acf-5dcd-99e0-52d6a275eca4"><rect height="75" width="137.59375" y="0" x="0" class="er entityBox"/><text style="dominant-baseline: middle; text-anchor: middle; font-size: 12px;" transform="translate(68.796875,37.5)" y="0" x="0" id="text-entity-QuantitativeValue-3d19db81-2acf-5dcd-99e0-52d6a275eca4" class="er entityLabel">QuantitativeValue</text></g><g transform="translate(438.796875,648 )" id="entity-Text-426c5d39-acfc-5487-a6d9-ede67887190e"><rect height="75" width="100" y="0" x="0" class="er entityBox"/><text style="dominant-baseline: middle; text-anchor: middle; font-size: 12px;" transform="translate(50,37.5)" y="0" x="0" id="text-entity-Text-426c5d39-acfc-5487-a6d9-ede67887190e" class="er entityLabel">Text</text></g><g transform="translate(838.796875,648 )" id="entity-Duration-4925bcef-08f8-5f30-b1af-3959fea9384e"><rect height="75" width="100" y="0" x="0" class="er entityBox"/><text style="dominant-baseline: middle; text-anchor: middle; font-size: 12px;" transform="translate(50,37.5)" y="0" x="0" id="text-entity-Duration-4925bcef-08f8-5f30-b1af-3959fea9384e" class="er entityLabel">Duration</text></g><g transform="translate(1038.796875,648 )" id="entity-RepaymentSpecification-bc966c2b-46a4-5671-9084-3929a80b235c"><rect height="75" width="175.6875" y="0" x="0" class="er entityBox"/><text style="dominant-baseline: middle; text-anchor: middle; font-size: 12px;" transform="translate(87.84375,37.5)" y="0" x="0" id="text-entity-RepaymentSpecification-bc966c2b-46a4-5671-9084-3929a80b235c" class="er entityLabel">RepaymentSpecification</text></g><g transform="translate(1314.484375,648 )" id="entity-Boolean-5b26178e-f873-50aa-bf9a-b8300df1b991"><rect height="75" width="100" y="0" x="0" class="er entityBox"/><text style="dominant-baseline: middle; text-anchor: middle; font-size: 12px;" transform="translate(50,37.5)" y="0" x="0" id="text-entity-Boolean-5b26178e-f873-50aa-bf9a-b8300df1b991" class="er entityLabel">Boolean</text></g><g transform="translate(1514.484375,648 )" id="entity-AggregateRating-aa0a8837-178a-57ab-baa0-94ad30d90eb5"><rect height="75" width="131.25" y="0" x="0" class="er entityBox"/><text style="dominant-baseline: middle; text-anchor: middle; font-size: 12px;" transform="translate(65.625,37.5)" y="0" x="0" id="text-entity-AggregateRating-aa0a8837-178a-57ab-baa0-94ad30d90eb5" class="er entityLabel">AggregateRating</text></g><g transform="translate(1745.734375,648 )" id="entity-Audience-f784d19a-7c58-5869-868f-14b9086fca44"><rect height="75" width="100" y="0" x="0" class="er entityBox"/><text style="dominant-baseline: middle; text-anchor: middle; font-size: 12px;" transform="translate(50,37.5)" y="0" x="0" id="text-entity-Audience-f784d19a-7c58-5869-868f-14b9086fca44" class="er entityLabel">Audience</text></g><g transform="translate(1945.734375,648 )" id="entity-ServiceChannel-5f9e70a6-8dc6-5d0f-a871-3e775d52af1b"><rect height="75" width="123.625" y="0" x="0" class="er entityBox"/><text style="dominant-baseline: middle; text-anchor: middle; font-size: 12px;" transform="translate(61.8125,37.5)" y="0" x="0" id="text-entity-ServiceChannel-5f9e70a6-8dc6-5d0f-a871-3e775d52af1b" class="er entityLabel">ServiceChannel</text></g><g transform="translate(2169.359375,648 )" id="entity-Certification-8b250de0-929b-5806-8c87-f8e7c928ef36"><rect height="75" width="103.234375" y="0" x="0" class="er entityBox"/><text style="dominant-baseline: middle; text-anchor: middle; font-size: 12px;" transform="translate(51.6171875,37.5)" y="0" x="0" id="text-entity-Certification-8b250de0-929b-5806-8c87-f8e7c928ef36" class="er entityLabel">Certification</text></g><g transform="translate(2372.59375,648 )" id="entity-OfferCatalog-e4b8efcd-db96-5dc8-b042-81a3acf3e3fe"><rect height="75" width="106.125" y="0" x="0" class="er entityBox"/><text style="dominant-baseline: middle; text-anchor: middle; font-size: 12px;" transform="translate(53.0625,37.5)" y="0" x="0" id="text-entity-OfferCatalog-e4b8efcd-db96-5dc8-b042-81a3acf3e3fe" class="er entityLabel">OfferCatalog</text></g><g transform="translate(2578.71875,648 )" id="entity-OpeningHoursSpecification-677aa64f-a506-5d18-b5d1-75a0f22f6986"><rect height="75" width="192.8125" y="0" x="0" class="er entityBox"/><text style="dominant-baseline: middle; text-anchor: middle; font-size: 12px;" transform="translate(96.40625,37.5)" y="0" x="0" id="text-entity-OpeningHoursSpecification-677aa64f-a506-5d18-b5d1-75a0f22f6986" class="er entityLabel">OpeningHoursSpecification</text></g><g transform="translate(2871.53125,648 )" id="entity-Thing-27bc9527-b992-59fc-a0fb-da83e2ff80bf"><rect height="75" width="100" y="0" x="0" class="er entityBox"/><text style="dominant-baseline: middle; text-anchor: middle; font-size: 12px;" transform="translate(50,37.5)" y="0" x="0" id="text-entity-Thing-27bc9527-b992-59fc-a0fb-da83e2ff80bf" class="er entityLabel">Thing</text></g><g transform="translate(3071.53125,648 )" id="entity-Review-77c92a79-8cff-50c0-9604-f9135763cccd"><rect height="75" width="100" y="0" x="0" class="er entityBox"/><text style="dominant-baseline: middle; text-anchor: middle; font-size: 12px;" transform="translate(50,37.5)" y="0" x="0" id="text-entity-Review-77c92a79-8cff-50c0-9604-f9135763cccd" class="er entityLabel">Review</text></g><g transform="translate(3271.53125,648 )" id="entity-URL-07f78d3e-fd74-5925-b39b-26c1cc2d6b7c"><rect height="75" width="100" y="0" x="0" class="er entityBox"/><text style="dominant-baseline: middle; text-anchor: middle; font-size: 12px;" transform="translate(50,37.5)" y="0" x="0" id="text-entity-URL-07f78d3e-fd74-5925-b39b-26c1cc2d6b7c" class="er entityLabel">URL</text></g><g transform="translate(3471.53125,648 )" id="entity-Action-6cd87d9a-a078-546e-a35b-bee54f477b31"><rect height="75" width="100" y="0" x="0" class="er entityBox"/><text style="dominant-baseline: middle; text-anchor: middle; font-size: 12px;" transform="translate(50,37.5)" y="0" x="0" id="text-entity-Action-6cd87d9a-a078-546e-a35b-bee54f477b31" class="er entityLabel">Action</text></g><rect height="14" width="54.734375" y="449.5705261230469" x="765.3738403320312" class="er relationshipLabelBox"/><text style="text-anchor: middle; dominant-baseline: middle; font-size: 12px;" y="456.5705261230469" x="792.7410278320312" id="rel1" class="er relationshipLabel">loanTerm</text><rect height="14" width="52.296875" y="447.2951965332031" x="838.401611328125" class="er relationshipLabelBox"/><text style="text-anchor: middle; dominant-baseline: middle; font-size: 12px;" y="454.2951965332031" x="864.550048828125" id="rel2" class="er relationshipLabel">currency</text><rect height="14" width="71.3125" y="466.43463134765625" x="1153.9217529296875" class="er relationshipLabelBox"/><text style="text-anchor: middle; dominant-baseline: middle; font-size: 12px;" y="473.43463134765625" x="1189.5780029296875" id="rel3" class="er relationshipLabel">gracePeriod</text><rect height="14" width="124.5" y="481.64434814453125" x="1245.2958984375" class="er relationshipLabelBox"/><text style="text-anchor: middle; dominant-baseline: middle; font-size: 12px;" y="488.64434814453125" x="1307.5458984375" id="rel4" class="er relationshipLabel">loanRepaymentForm</text><rect height="14" width="80.953125" y="502.58636474609375" x="1354.96337890625" class="er relationshipLabelBox"/><text style="text-anchor: middle; dominant-baseline: middle; font-size: 12px;" y="509.58636474609375" x="1395.43994140625" id="rel5" class="er relationshipLabel">recourseLoan</text><rect height="14" width="104.515625" y="545.87939453125" x="1401.3485107421875" class="er relationshipLabelBox"/><text style="text-anchor: middle; dominant-baseline: middle; font-size: 12px;" y="552.87939453125" x="1453.6063232421875" id="rel6" class="er relationshipLabel">renegotiableLoan</text><rect height="14" width="100.390625" y="590.7054443359375" x="1531.5194091796875" class="er relationshipLabelBox"/><text style="text-anchor: middle; dominant-baseline: middle; font-size: 12px;" y="597.7054443359375" x="1581.7147216796875" id="rel7" class="er relationshipLabel">aggregateRating</text><rect height="14" width="54.890625" y="593.256103515625" x="1714.4871826171875" class="er relationshipLabelBox"/><text style="text-anchor: middle; dominant-baseline: middle; font-size: 12px;" y="600.256103515625" x="1741.9324951171875" id="rel8" class="er relationshipLabel">audience</text><rect height="13.999969482421875" width="103.4375" y="499.8472137451172" x="1847.070556640625" class="er relationshipLabelBox"/><text style="text-anchor: middle; dominant-baseline: middle; font-size: 12px;" y="506.8471984863281" x="1898.789306640625" id="rel9" class="er relationshipLabel">availableChannel</text><rect height="14" width="36.875" y="448.0282897949219" x="894.05517578125" class="er relationshipLabelBox"/><text style="text-anchor: middle; dominant-baseline: middle; font-size: 12px;" y="455.0282897949219" x="912.49267578125" id="rel10" class="er relationshipLabel">award</text><rect height="14" width="94.453125" y="476.0216979980469" x="1958.3492431640625" class="er relationshipLabelBox"/><text style="text-anchor: middle; dominant-baseline: middle; font-size: 12px;" y="483.0216979980469" x="2005.5758056640625" id="rel11" class="er relationshipLabel">hasCertification</text><rect height="14" width="97.328125" y="464.94537353515625" x="2058.3173828125" class="er relationshipLabelBox"/><text style="text-anchor: middle; dominant-baseline: middle; font-size: 12px;" y="471.94537353515625" x="2106.9814453125" id="rel12" class="er relationshipLabel">hasOfferCatalog</text><rect height="14" width="88.0625" y="457.367919921875" x="2186.50732421875" class="er relationshipLabelBox"/><text style="text-anchor: middle; dominant-baseline: middle; font-size: 12px;" y="464.367919921875" x="2230.53857421875" id="rel13" class="er relationshipLabel">hoursAvailable</text><rect height="14" width="55.09375" y="457.8836364746094" x="2304.48046875" class="er relationshipLabelBox"/><text style="text-anchor: middle; dominant-baseline: middle; font-size: 12px;" y="464.8836364746094" x="2332.02734375" id="rel14" class="er relationshipLabel">produces</text><rect height="14" width="97.125" y="450.07220458984375" x="906.8963012695312" class="er relationshipLabelBox"/><text style="text-anchor: middle; dominant-baseline: middle; font-size: 12px;" y="457.07220458984375" x="955.4588012695312" id="rel15" class="er relationshipLabel">providerMobility</text><rect height="14" width="39.87109375" y="450.287109375" x="2432.1923828125" class="er relationshipLabelBox"/><text style="text-anchor: middle; dominant-baseline: middle; font-size: 12px;" y="457.287109375" x="2452.1279296875" id="rel16" class="er relationshipLabel">review</text><rect height="14" width="98.71875" y="543.7257690429688" x="1766.92529296875" class="er relationshipLabelBox"/><text style="text-anchor: middle; dominant-baseline: middle; font-size: 12px;" y="550.7257690429688" x="1816.28466796875" id="rel17" class="er relationshipLabel">serviceAudience</text><rect height="14" width="84.962890625" y="450.2947082519531" x="2326.998046875" class="er relationshipLabelBox"/><text style="text-anchor: middle; dominant-baseline: middle; font-size: 12px;" y="457.2947082519531" x="2369.4794921875" id="rel18" class="er relationshipLabel">serviceOutput</text><rect height="14" width="39.515625" y="454.9987487792969" x="971.6506958007812" class="er relationshipLabelBox"/><text style="text-anchor: middle; dominant-baseline: middle; font-size: 12px;" y="461.9987487792969" x="991.4085083007812" id="rel19" class="er relationshipLabel">slogan</text><rect height="14" width="89.953125" y="463.16998291015625" x="974.5779418945312" class="er relationshipLabelBox"/><text style="text-anchor: middle; dominant-baseline: middle; font-size: 12px;" y="470.16998291015625" x="1019.5545043945312" id="rel20" class="er relationshipLabel">alternateName</text><rect height="14" width="161.390625" y="480.1106872558594" x="945.7467041015625" class="er relationshipLabelBox"/><text style="text-anchor: middle; dominant-baseline: middle; font-size: 12px;" y="487.1106872558594" x="1026.4420166015625" id="rel21" class="er relationshipLabel">disambiguatingDescription</text><rect height="14" width="34.03125" y="500.32611083984375" x="1014.4168701171875" class="er relationshipLabelBox"/><text style="text-anchor: middle; dominant-baseline: middle; font-size: 12px;" y="507.32611083984375" x="1031.4324951171875" id="rel22" class="er relationshipLabel">name</text><rect height="14" width="47.140625" y="450.82440185546875" x="2513.9677734375" class="er relationshipLabelBox"/><text style="text-anchor: middle; dominant-baseline: middle; font-size: 12px;" y="457.82440185546875" x="2537.5380859375" id="rel23" class="er relationshipLabel">sameAs</text><rect height="14" width="90.96875" y="446.8765563964844" x="2605.6416015625" class="er relationshipLabelBox"/><text style="text-anchor: middle; dominant-baseline: middle; font-size: 12px;" y="453.8765563964844" x="2651.1259765625" id="rel24" class="er relationshipLabel">potentialAction</text><rect height="14" width="15.875" y="446.4394226074219" x="2559.77490234375" class="er relationshipLabelBox"/><text style="text-anchor: middle; dominant-baseline: middle; font-size: 12px;" y="453.4394226074219" x="2567.71240234375" id="rel25" class="er relationshipLabel">url</text></svg>