<svg aria-roledescription="er" role="graphics-document document" viewBox="-93.37315368652344 0 1955.1856689453125 575" style="max-width: 1955.19px; background-color: white;" xmlns:xlink="http://www.w3.org/1999/xlink" xmlns="http://www.w3.org/2000/svg" width="100%" id="my-svg"><style>#my-svg{font-family:"trebuchet ms",verdana,arial,sans-serif;font-size:16px;fill:#333;}#my-svg .error-icon{fill:#552222;}#my-svg .error-text{fill:#552222;stroke:#552222;}#my-svg .edge-thickness-normal{stroke-width:1px;}#my-svg .edge-thickness-thick{stroke-width:3.5px;}#my-svg .edge-pattern-solid{stroke-dasharray:0;}#my-svg .edge-thickness-invisible{stroke-width:0;fill:none;}#my-svg .edge-pattern-dashed{stroke-dasharray:3;}#my-svg .edge-pattern-dotted{stroke-dasharray:2;}#my-svg .marker{fill:#333333;stroke:#333333;}#my-svg .marker.cross{stroke:#333333;}#my-svg svg{font-family:"trebuchet ms",verdana,arial,sans-serif;font-size:16px;}#my-svg p{margin:0;}#my-svg .entityBox{fill:#ECECFF;stroke:#9370DB;}#my-svg .attributeBoxOdd{fill:#ffffff;stroke:#9370DB;}#my-svg .attributeBoxEven{fill:#f2f2f2;stroke:#9370DB;}#my-svg .relationshipLabelBox{fill:hsl(80, 100%, 96.2745098039%);opacity:0.7;background-color:hsl(80, 100%, 96.2745098039%);}#my-svg .relationshipLabelBox rect{opacity:0.5;}#my-svg .relationshipLine{stroke:#333333;}#my-svg .entityTitleText{text-anchor:middle;font-size:18px;fill:#333;}#my-svg #MD_PARENT_START{fill:#f5f5f5!important;stroke:#333333!important;stroke-width:1;}#my-svg #MD_PARENT_END{fill:#f5f5f5!important;stroke:#333333!important;stroke-width:1;}#my-svg :root{--mermaid-font-family:"trebuchet ms",verdana,arial,sans-serif;}</style><g/><defs><marker orient="auto" markerHeight="240" markerWidth="190" refY="7" refX="0" id="MD_PARENT_START"><path d="M 18,7 L9,13 L1,7 L9,1 Z"/></marker></defs><defs><marker orient="auto" markerHeight="28" markerWidth="20" refY="7" refX="19" id="MD_PARENT_END"><path d="M 18,7 L9,13 L1,7 L9,1 Z"/></marker></defs><defs><marker orient="auto" markerHeight="18" markerWidth="18" refY="9" refX="0" id="ONLY_ONE_START"><path d="M9,0 L9,18 M15,0 L15,18" fill="none" stroke="gray"/></marker></defs><defs><marker orient="auto" markerHeight="18" markerWidth="18" refY="9" refX="18" id="ONLY_ONE_END"><path d="M3,0 L3,18 M9,0 L9,18" fill="none" stroke="gray"/></marker></defs><defs><marker orient="auto" markerHeight="18" markerWidth="30" refY="9" refX="0" id="ZERO_OR_ONE_START"><circle r="6" cy="9" cx="21" fill="white" stroke="gray"/><path d="M9,0 L9,18" fill="none" stroke="gray"/></marker></defs><defs><marker orient="auto" markerHeight="18" markerWidth="30" refY="9" refX="30" id="ZERO_OR_ONE_END"><circle r="6" cy="9" cx="9" fill="white" stroke="gray"/><path d="M21,0 L21,18" fill="none" stroke="gray"/></marker></defs><defs><marker orient="auto" markerHeight="36" markerWidth="45" refY="18" refX="18" id="ONE_OR_MORE_START"><path d="M0,18 Q 18,0 36,18 Q 18,36 0,18 M42,9 L42,27" fill="none" stroke="gray"/></marker></defs><defs><marker orient="auto" markerHeight="36" markerWidth="45" refY="18" refX="27" id="ONE_OR_MORE_END"><path d="M3,9 L3,27 M9,18 Q27,0 45,18 Q27,36 9,18" fill="none" stroke="gray"/></marker></defs><defs><marker orient="auto" markerHeight="36" markerWidth="57" refY="18" refX="18" id="ZERO_OR_MORE_START"><circle r="6" cy="18" cx="48" fill="white" stroke="gray"/><path d="M0,18 Q18,0 36,18 Q18,36 0,18" fill="none" stroke="gray"/></marker></defs><defs><marker orient="auto" markerHeight="36" markerWidth="57" refY="18" refX="39" id="ZERO_OR_MORE_END"><circle r="6" cy="18" cx="9" fill="white" stroke="gray"/><path d="M21,18 Q39,0 57,18 Q39,36 21,18" fill="none" stroke="gray"/></marker></defs><path style="stroke: gray; fill: none;" marker-start="url(#ONLY_ONE_START)" marker-end="url(#ZERO_OR_MORE_END)" d="M454.438,225.544L348.698,259.62C242.958,293.696,31.479,361.848,-40.927,407.591C-113.333,453.333,-46.667,476.667,-13.333,488.333L20,500" class="er relationshipLine"/><path style="stroke: gray; fill: none;" marker-start="url(#ONLY_ONE_START)" marker-end="url(#ZERO_OR_MORE_END)" d="M454.438,360.339L448.698,371.95C442.958,383.56,431.479,406.78,430.501,426.723C429.524,446.667,439.048,463.333,443.81,471.667L448.571,480" class="er relationshipLine"/><path style="stroke: gray; fill: none;" marker-start="url(#ONLY_ONE_START)" marker-end="url(#ZERO_OR_MORE_END)" d="M533.703,380L533.703,388.333C533.703,396.667,533.703,413.333,527.636,430C521.569,446.667,509.435,463.333,503.368,471.667L497.301,480" class="er relationshipLine"/><path style="stroke: gray; fill: none;" marker-start="url(#ONLY_ONE_START)" marker-end="url(#ZERO_OR_MORE_END)" d="M454.438,229.707L365.365,263.089C276.292,296.471,98.146,363.236,25.74,406.34C-46.667,449.444,-13.333,468.889,3.333,478.611L20,488.333" class="er relationshipLine"/><path style="stroke: gray; fill: none;" marker-start="url(#ONLY_ONE_START)" marker-end="url(#ZERO_OR_MORE_END)" d="M612.969,311.367L627.042,331.139C641.115,350.911,669.26,390.456,683.333,418.561C697.406,446.667,697.406,463.333,697.406,471.667L697.406,480" class="er relationshipLine"/><path style="stroke: gray; fill: none;" marker-start="url(#ONLY_ONE_START)" marker-end="url(#ZERO_OR_MORE_END)" d="M612.969,246.614L664.943,277.178C716.917,307.743,820.865,368.871,872.839,407.769C924.813,446.667,924.813,463.333,924.813,471.667L924.813,480" class="er relationshipLine"/><path style="stroke: gray; fill: none;" marker-start="url(#ONLY_ONE_START)" marker-end="url(#ZERO_OR_MORE_END)" d="M454.438,235.49L382.031,267.908C309.625,300.326,164.813,365.163,97.168,405.915C29.524,446.667,39.048,463.333,43.81,471.667L48.571,480" class="er relationshipLine"/><path style="stroke: gray; fill: none;" marker-start="url(#ONLY_ONE_START)" marker-end="url(#ZERO_OR_MORE_END)" d="M612.969,229.188L703.859,262.657C794.75,296.125,976.531,363.063,1067.422,404.865C1158.313,446.667,1158.313,463.333,1158.313,471.667L1158.313,480" class="er relationshipLine"/><path style="stroke: gray; fill: none;" marker-start="url(#ONLY_ONE_START)" marker-end="url(#ZERO_OR_MORE_END)" d="M612.969,221.246L742.776,256.038C872.583,290.83,1132.198,360.415,1262.005,403.541C1391.813,446.667,1391.813,463.333,1391.813,471.667L1391.813,480" class="er relationshipLine"/><path style="stroke: gray; fill: none;" marker-start="url(#ONLY_ONE_START)" marker-end="url(#ZERO_OR_MORE_END)" d="M454.438,244.068L398.698,275.057C342.958,306.045,231.479,368.023,170.978,407.345C110.476,446.667,100.952,463.333,96.19,471.667L91.429,480" class="er relationshipLine"/><path style="stroke: gray; fill: none;" marker-start="url(#ONLY_ONE_START)" marker-end="url(#ZERO_OR_MORE_END)" d="M454.438,258.116L415.365,286.763C376.292,315.411,298.146,372.705,242.406,411.075C186.667,449.444,153.333,468.889,136.667,478.611L120,488.333" class="er relationshipLine"/><path style="stroke: gray; fill: none;" marker-start="url(#ONLY_ONE_START)" marker-end="url(#ZERO_OR_MORE_END)" d="M454.438,285.31L432.031,309.425C409.625,333.54,364.813,381.77,309.073,417.552C253.333,453.333,186.667,476.667,153.333,488.333L120,500" class="er relationshipLine"/><path style="stroke: gray; fill: none;" marker-start="url(#ONLY_ONE_START)" marker-end="url(#ZERO_OR_MORE_END)" d="M612.969,218.084L767.776,253.404C922.583,288.723,1232.198,359.361,1391.767,403.014C1551.336,446.667,1560.86,463.333,1565.622,471.667L1570.384,480" class="er relationshipLine"/><path style="stroke: gray; fill: none;" marker-start="url(#ONLY_ONE_START)" marker-end="url(#ZERO_OR_MORE_END)" d="M612.969,214.491L809.443,250.409C1005.917,286.327,1398.865,358.164,1595.339,402.415C1791.813,446.667,1791.813,463.333,1791.813,471.667L1791.813,480" class="er relationshipLine"/><path style="stroke: gray; fill: none;" marker-start="url(#ONLY_ONE_START)" marker-end="url(#ZERO_OR_MORE_END)" d="M612.969,216.452L784.443,252.044C955.917,287.635,1298.865,358.817,1465.577,402.742C1632.289,446.667,1622.765,463.333,1618.003,471.667L1613.241,480" class="er relationshipLine"/><g transform="translate(454.4375,20 )" id="entity-LodgingReservation-ecee9133-9cbe-52ed-b644-6cd9c8d3294a"><rect height="360" width="158.53125" y="0" x="0" class="er entityBox"/><text style="dominant-baseline: middle; text-anchor: middle; font-size: 12px;" transform="translate(79.265625,12)" y="0" x="0" id="text-entity-LodgingReservation-ecee9133-9cbe-52ed-b644-6cd9c8d3294a" class="er entityLabel">LodgingReservation</text><rect height="21" width="57.0625" y="24" x="0" class="er attributeBoxOdd"/><text style="dominant-baseline: middle; font-size: 10.2px;" transform="translate(5,34.5)" y="0" x="0" id="text-entity-LodgingReservation-ecee9133-9cbe-52ed-b644-6cd9c8d3294a-attr-1-type" class="er entityLabel">stringList</text><rect height="21" width="101.46875" y="24" x="57.0625" class="er attributeBoxOdd"/><text style="dominant-baseline: middle; font-size: 10.2px;" transform="translate(62.0625,34.5)" y="0" x="0" id="text-entity-LodgingReservation-ecee9133-9cbe-52ed-b644-6cd9c8d3294a-attr-1-name" class="er entityLabel">checkinTime</text><rect height="21" width="57.0625" y="45" x="0" class="er attributeBoxEven"/><text style="dominant-baseline: middle; font-size: 10.2px;" transform="translate(5,55.5)" y="0" x="0" id="text-entity-LodgingReservation-ecee9133-9cbe-52ed-b644-6cd9c8d3294a-attr-2-type" class="er entityLabel">stringList</text><rect height="21" width="101.46875" y="45" x="57.0625" class="er attributeBoxEven"/><text style="dominant-baseline: middle; font-size: 10.2px;" transform="translate(62.0625,55.5)" y="0" x="0" id="text-entity-LodgingReservation-ecee9133-9cbe-52ed-b644-6cd9c8d3294a-attr-2-name" class="er entityLabel">checkoutTime</text><rect height="21" width="57.0625" y="66" x="0" class="er attributeBoxOdd"/><text style="dominant-baseline: middle; font-size: 10.2px;" transform="translate(5,76.5)" y="0" x="0" id="text-entity-LodgingReservation-ecee9133-9cbe-52ed-b644-6cd9c8d3294a-attr-3-type" class="er entityLabel">stringList</text><rect height="21" width="101.46875" y="66" x="57.0625" class="er attributeBoxOdd"/><text style="dominant-baseline: middle; font-size: 10.2px;" transform="translate(62.0625,76.5)" y="0" x="0" id="text-entity-LodgingReservation-ecee9133-9cbe-52ed-b644-6cd9c8d3294a-attr-3-name" class="er entityLabel">lodgingUnitType</text><rect height="21" width="57.0625" y="87" x="0" class="er attributeBoxEven"/><text style="dominant-baseline: middle; font-size: 10.2px;" transform="translate(5,97.5)" y="0" x="0" id="text-entity-LodgingReservation-ecee9133-9cbe-52ed-b644-6cd9c8d3294a-attr-4-type" class="er entityLabel">stringList</text><rect height="21" width="101.46875" y="87" x="57.0625" class="er attributeBoxEven"/><text style="dominant-baseline: middle; font-size: 10.2px;" transform="translate(62.0625,97.5)" y="0" x="0" id="text-entity-LodgingReservation-ecee9133-9cbe-52ed-b644-6cd9c8d3294a-attr-4-name" class="er entityLabel">numAdults</text><rect height="21" width="57.0625" y="108" x="0" class="er attributeBoxOdd"/><text style="dominant-baseline: middle; font-size: 10.2px;" transform="translate(5,118.5)" y="0" x="0" id="text-entity-LodgingReservation-ecee9133-9cbe-52ed-b644-6cd9c8d3294a-attr-5-type" class="er entityLabel">stringList</text><rect height="21" width="101.46875" y="108" x="57.0625" class="er attributeBoxOdd"/><text style="dominant-baseline: middle; font-size: 10.2px;" transform="translate(62.0625,118.5)" y="0" x="0" id="text-entity-LodgingReservation-ecee9133-9cbe-52ed-b644-6cd9c8d3294a-attr-5-name" class="er entityLabel">numChildren</text><rect height="21" width="57.0625" y="129" x="0" class="er attributeBoxEven"/><text style="dominant-baseline: middle; font-size: 10.2px;" transform="translate(5,139.5)" y="0" x="0" id="text-entity-LodgingReservation-ecee9133-9cbe-52ed-b644-6cd9c8d3294a-attr-6-type" class="er entityLabel">stringList</text><rect height="21" width="101.46875" y="129" x="57.0625" class="er attributeBoxEven"/><text style="dominant-baseline: middle; font-size: 10.2px;" transform="translate(62.0625,139.5)" y="0" x="0" id="text-entity-LodgingReservation-ecee9133-9cbe-52ed-b644-6cd9c8d3294a-attr-6-name" class="er entityLabel">bookingAgent</text><rect height="21" width="57.0625" y="150" x="0" class="er attributeBoxOdd"/><text style="dominant-baseline: middle; font-size: 10.2px;" transform="translate(5,160.5)" y="0" x="0" id="text-entity-LodgingReservation-ecee9133-9cbe-52ed-b644-6cd9c8d3294a-attr-7-type" class="er entityLabel">stringList</text><rect height="21" width="101.46875" y="150" x="57.0625" class="er attributeBoxOdd"/><text style="dominant-baseline: middle; font-size: 10.2px;" transform="translate(62.0625,160.5)" y="0" x="0" id="text-entity-LodgingReservation-ecee9133-9cbe-52ed-b644-6cd9c8d3294a-attr-7-name" class="er entityLabel">broker</text><rect height="21" width="57.0625" y="171" x="0" class="er attributeBoxEven"/><text style="dominant-baseline: middle; font-size: 10.2px;" transform="translate(5,181.5)" y="0" x="0" id="text-entity-LodgingReservation-ecee9133-9cbe-52ed-b644-6cd9c8d3294a-attr-8-type" class="er entityLabel">stringList</text><rect height="21" width="101.46875" y="171" x="57.0625" class="er attributeBoxEven"/><text style="dominant-baseline: middle; font-size: 10.2px;" transform="translate(62.0625,181.5)" y="0" x="0" id="text-entity-LodgingReservation-ecee9133-9cbe-52ed-b644-6cd9c8d3294a-attr-8-name" class="er entityLabel">provider</text><rect height="21" width="57.0625" y="192" x="0" class="er attributeBoxOdd"/><text style="dominant-baseline: middle; font-size: 10.2px;" transform="translate(5,202.5)" y="0" x="0" id="text-entity-LodgingReservation-ecee9133-9cbe-52ed-b644-6cd9c8d3294a-attr-9-type" class="er entityLabel">stringList</text><rect height="21" width="101.46875" y="192" x="57.0625" class="er attributeBoxOdd"/><text style="dominant-baseline: middle; font-size: 10.2px;" transform="translate(62.0625,202.5)" y="0" x="0" id="text-entity-LodgingReservation-ecee9133-9cbe-52ed-b644-6cd9c8d3294a-attr-9-name" class="er entityLabel">totalPrice</text><rect height="21" width="57.0625" y="213" x="0" class="er attributeBoxEven"/><text style="dominant-baseline: middle; font-size: 10.2px;" transform="translate(5,223.5)" y="0" x="0" id="text-entity-LodgingReservation-ecee9133-9cbe-52ed-b644-6cd9c8d3294a-attr-10-type" class="er entityLabel">stringList</text><rect height="21" width="101.46875" y="213" x="57.0625" class="er attributeBoxEven"/><text style="dominant-baseline: middle; font-size: 10.2px;" transform="translate(62.0625,223.5)" y="0" x="0" id="text-entity-LodgingReservation-ecee9133-9cbe-52ed-b644-6cd9c8d3294a-attr-10-name" class="er entityLabel">underName</text><rect height="21" width="57.0625" y="234" x="0" class="er attributeBoxOdd"/><text style="dominant-baseline: middle; font-size: 10.2px;" transform="translate(5,244.5)" y="0" x="0" id="text-entity-LodgingReservation-ecee9133-9cbe-52ed-b644-6cd9c8d3294a-attr-11-type" class="er entityLabel">stringList</text><rect height="21" width="101.46875" y="234" x="57.0625" class="er attributeBoxOdd"/><text style="dominant-baseline: middle; font-size: 10.2px;" transform="translate(62.0625,244.5)" y="0" x="0" id="text-entity-LodgingReservation-ecee9133-9cbe-52ed-b644-6cd9c8d3294a-attr-11-name" class="er entityLabel">additionalType</text><rect height="21" width="57.0625" y="255" x="0" class="er attributeBoxEven"/><text style="dominant-baseline: middle; font-size: 10.2px;" transform="translate(5,265.5)" y="0" x="0" id="text-entity-LodgingReservation-ecee9133-9cbe-52ed-b644-6cd9c8d3294a-attr-12-type" class="er entityLabel">stringList</text><rect height="21" width="101.46875" y="255" x="57.0625" class="er attributeBoxEven"/><text style="dominant-baseline: middle; font-size: 10.2px;" transform="translate(62.0625,265.5)" y="0" x="0" id="text-entity-LodgingReservation-ecee9133-9cbe-52ed-b644-6cd9c8d3294a-attr-12-name" class="er entityLabel">description</text><rect height="21" width="57.0625" y="276" x="0" class="er attributeBoxOdd"/><text style="dominant-baseline: middle; font-size: 10.2px;" transform="translate(5,286.5)" y="0" x="0" id="text-entity-LodgingReservation-ecee9133-9cbe-52ed-b644-6cd9c8d3294a-attr-13-type" class="er entityLabel">stringList</text><rect height="21" width="101.46875" y="276" x="57.0625" class="er attributeBoxOdd"/><text style="dominant-baseline: middle; font-size: 10.2px;" transform="translate(62.0625,286.5)" y="0" x="0" id="text-entity-LodgingReservation-ecee9133-9cbe-52ed-b644-6cd9c8d3294a-attr-13-name" class="er entityLabel">identifier</text><rect height="21" width="57.0625" y="297" x="0" class="er attributeBoxEven"/><text style="dominant-baseline: middle; font-size: 10.2px;" transform="translate(5,307.5)" y="0" x="0" id="text-entity-LodgingReservation-ecee9133-9cbe-52ed-b644-6cd9c8d3294a-attr-14-type" class="er entityLabel">stringList</text><rect height="21" width="101.46875" y="297" x="57.0625" class="er attributeBoxEven"/><text style="dominant-baseline: middle; font-size: 10.2px;" transform="translate(62.0625,307.5)" y="0" x="0" id="text-entity-LodgingReservation-ecee9133-9cbe-52ed-b644-6cd9c8d3294a-attr-14-name" class="er entityLabel">image</text><rect height="21" width="57.0625" y="318" x="0" class="er attributeBoxOdd"/><text style="dominant-baseline: middle; font-size: 10.2px;" transform="translate(5,328.5)" y="0" x="0" id="text-entity-LodgingReservation-ecee9133-9cbe-52ed-b644-6cd9c8d3294a-attr-15-type" class="er entityLabel">stringList</text><rect height="21" width="101.46875" y="318" x="57.0625" class="er attributeBoxOdd"/><text style="dominant-baseline: middle; font-size: 10.2px;" transform="translate(62.0625,328.5)" y="0" x="0" id="text-entity-LodgingReservation-ecee9133-9cbe-52ed-b644-6cd9c8d3294a-attr-15-name" class="er entityLabel">mainEntityOfPage</text><rect height="21" width="57.0625" y="339" x="0" class="er attributeBoxEven"/><text style="dominant-baseline: middle; font-size: 10.2px;" transform="translate(5,349.5)" y="0" x="0" id="text-entity-LodgingReservation-ecee9133-9cbe-52ed-b644-6cd9c8d3294a-attr-16-type" class="er entityLabel">stringList</text><rect height="21" width="101.46875" y="339" x="57.0625" class="er attributeBoxEven"/><text style="dominant-baseline: middle; font-size: 10.2px;" transform="translate(62.0625,349.5)" y="0" x="0" id="text-entity-LodgingReservation-ecee9133-9cbe-52ed-b644-6cd9c8d3294a-attr-16-name" class="er entityLabel">subjectOf</text></g><g transform="translate(20,480 )" id="entity-Text-426c5d39-acfc-5487-a6d9-ede67887190e"><rect height="75" width="100" y="0" x="0" class="er entityBox"/><text style="dominant-baseline: middle; text-anchor: middle; font-size: 12px;" transform="translate(50,37.5)" y="0" x="0" id="text-entity-Text-426c5d39-acfc-5487-a6d9-ede67887190e" class="er entityLabel">Text</text></g><g transform="translate(420,480 )" id="entity-DateTime-a943b584-0aab-5531-ae61-1b49be70232b"><rect height="75" width="100" y="0" x="0" class="er entityBox"/><text style="dominant-baseline: middle; text-anchor: middle; font-size: 12px;" transform="translate(50,37.5)" y="0" x="0" id="text-entity-DateTime-a943b584-0aab-5531-ae61-1b49be70232b" class="er entityLabel">DateTime</text></g><g transform="translate(620,480 )" id="entity-ProgramMembership-dc4ad43d-371a-54e9-b020-38f0264dbead"><rect height="75" width="154.8125" y="0" x="0" class="er entityBox"/><text style="dominant-baseline: middle; text-anchor: middle; font-size: 12px;" transform="translate(77.40625,37.5)" y="0" x="0" id="text-entity-ProgramMembership-dc4ad43d-371a-54e9-b020-38f0264dbead" class="er entityLabel">ProgramMembership</text></g><g transform="translate(874.8125,480 )" id="entity-Thing-27bc9527-b992-59fc-a0fb-da83e2ff80bf"><rect height="75" width="100" y="0" x="0" class="er entityBox"/><text style="dominant-baseline: middle; text-anchor: middle; font-size: 12px;" transform="translate(50,37.5)" y="0" x="0" id="text-entity-Thing-27bc9527-b992-59fc-a0fb-da83e2ff80bf" class="er entityLabel">Thing</text></g><g transform="translate(1074.8125,480 )" id="entity-ReservationStatusType-226ac545-7c7e-5fea-8186-370f7e691b71"><rect height="75" width="167" y="0" x="0" class="er entityBox"/><text style="dominant-baseline: middle; text-anchor: middle; font-size: 12px;" transform="translate(83.5,37.5)" y="0" x="0" id="text-entity-ReservationStatusType-226ac545-7c7e-5fea-8186-370f7e691b71" class="er entityLabel">ReservationStatusType</text></g><g transform="translate(1341.8125,480 )" id="entity-Ticket-d7e8b329-0aaa-5985-99a1-9a1fad0790bd"><rect height="75" width="100" y="0" x="0" class="er entityBox"/><text style="dominant-baseline: middle; text-anchor: middle; font-size: 12px;" transform="translate(50,37.5)" y="0" x="0" id="text-entity-Ticket-d7e8b329-0aaa-5985-99a1-9a1fad0790bd" class="er entityLabel">Ticket</text></g><g transform="translate(1541.8125,480 )" id="entity-URL-07f78d3e-fd74-5925-b39b-26c1cc2d6b7c"><rect height="75" width="100" y="0" x="0" class="er entityBox"/><text style="dominant-baseline: middle; text-anchor: middle; font-size: 12px;" transform="translate(50,37.5)" y="0" x="0" id="text-entity-URL-07f78d3e-fd74-5925-b39b-26c1cc2d6b7c" class="er entityLabel">URL</text></g><g transform="translate(1741.8125,480 )" id="entity-Action-6cd87d9a-a078-546e-a35b-bee54f477b31"><rect height="75" width="100" y="0" x="0" class="er entityBox"/><text style="dominant-baseline: middle; text-anchor: middle; font-size: 12px;" transform="translate(50,37.5)" y="0" x="0" id="text-entity-Action-6cd87d9a-a078-546e-a35b-bee54f477b31" class="er entityLabel">Action</text></g><rect height="14" width="137.25" y="327.9745788574219" x="56.91241455078125" class="er relationshipLabelBox"/><text style="text-anchor: middle; dominant-baseline: middle; font-size: 12px;" y="334.9745788574219" x="125.53741455078125" id="rel1" class="er relationshipLabel">lodgingUnitDescription</text><rect height="14" width="77.1875" y="412.81390380859375" x="392.62481689453125" class="er relationshipLabelBox"/><text style="text-anchor: middle; dominant-baseline: middle; font-size: 12px;" y="419.81390380859375" x="431.21856689453125" id="rel2" class="er relationshipLabel">bookingTime</text><rect height="14" width="81.921875" y="426.7330017089844" x="485.21807861328125" class="er relationshipLabelBox"/><text style="text-anchor: middle; dominant-baseline: middle; font-size: 12px;" y="433.7330017089844" x="526.1790161132812" id="rel3" class="er relationshipLabel">modifiedTime</text><rect height="14" width="83.9375" y="327.4952087402344" x="138.91917419433594" class="er relationshipLabelBox"/><text style="text-anchor: middle; dominant-baseline: middle; font-size: 12px;" y="334.4952087402344" x="180.88792419433594" id="rel4" class="er relationshipLabel">priceCurrency</text><rect height="14" width="155.4375" y="383.5616149902344" x="589.622802734375" class="er relationshipLabelBox"/><text style="text-anchor: middle; dominant-baseline: middle; font-size: 12px;" y="390.5616149902344" x="667.341552734375" id="rel5" class="er relationshipLabel">programMembershipUsed</text><rect height="14" width="86.87890625" y="341.92437744140625" x="740.9313354492188" class="er relationshipLabelBox"/><text style="text-anchor: middle; dominant-baseline: middle; font-size: 12px;" y="348.92437744140625" x="784.3707885742188" id="rel6" class="er relationshipLabel">reservationFor</text><rect height="14" width="79.21875" y="331.6183776855469" x="188.0041046142578" class="er relationshipLabelBox"/><text style="text-anchor: middle; dominant-baseline: middle; font-size: 12px;" y="338.6183776855469" x="227.6134796142578" id="rel7" class="er relationshipLabel">reservationId</text><rect height="14" width="106.3125" y="329.110595703125" x="846.7154541015625" class="er relationshipLabelBox"/><text style="text-anchor: middle; dominant-baseline: middle; font-size: 12px;" y="336.110595703125" x="899.8717041015625" id="rel8" class="er relationshipLabel">reservationStatus</text><rect height="14" width="88.51953125" y="323.2581787109375" x="970.9930419921875" class="er relationshipLabelBox"/><text style="text-anchor: middle; dominant-baseline: middle; font-size: 12px;" y="330.2581787109375" x="1015.2528076171875" id="rel9" class="er relationshipLabel">reservedTicket</text><rect height="14" width="89.953125" y="343.93023681640625" x="219.32696533203125" class="er relationshipLabelBox"/><text style="text-anchor: middle; dominant-baseline: middle; font-size: 12px;" y="350.93023681640625" x="264.30352783203125" id="rel10" class="er relationshipLabel">alternateName</text><rect height="14" width="161.390625" y="370.5695495605469" x="209.45745849609375" class="er relationshipLabelBox"/><text style="text-anchor: middle; dominant-baseline: middle; font-size: 12px;" y="377.5695495605469" x="290.15277099609375" id="rel11" class="er relationshipLabel">disambiguatingDescription</text><rect height="14" width="34.03125" y="413.14141845703125" x="287.9698486328125" class="er relationshipLabelBox"/><text style="text-anchor: middle; dominant-baseline: middle; font-size: 12px;" y="420.14141845703125" x="304.9854736328125" id="rel12" class="er relationshipLabel">name</text><rect height="14" width="47.140625" y="323.2392578125" x="1076.22314453125" class="er relationshipLabelBox"/><text style="text-anchor: middle; dominant-baseline: middle; font-size: 12px;" y="330.2392578125" x="1099.79345703125" id="rel13" class="er relationshipLabel">sameAs</text><rect height="14" width="90.96875" y="318.4128112792969" x="1168.0748291015625" class="er relationshipLabelBox"/><text style="text-anchor: middle; dominant-baseline: middle; font-size: 12px;" y="325.4128112792969" x="1213.5592041015625" id="rel14" class="er relationshipLabel">potentialAction</text><rect height="14" width="15.875" y="318.2027893066406" x="1123.162109375" class="er relationshipLabelBox"/><text style="text-anchor: middle; dominant-baseline: middle; font-size: 12px;" y="325.2027893066406" x="1131.099609375" id="rel15" class="er relationshipLabel">url</text></svg>