<svg aria-roledescription="er" role="graphics-document document" viewBox="0 0 2681.34375 533" style="max-width: 2681.34px; background-color: white;" xmlns:xlink="http://www.w3.org/1999/xlink" xmlns="http://www.w3.org/2000/svg" width="100%" id="my-svg"><style>#my-svg{font-family:"trebuchet ms",verdana,arial,sans-serif;font-size:16px;fill:#333;}#my-svg .error-icon{fill:#552222;}#my-svg .error-text{fill:#552222;stroke:#552222;}#my-svg .edge-thickness-normal{stroke-width:1px;}#my-svg .edge-thickness-thick{stroke-width:3.5px;}#my-svg .edge-pattern-solid{stroke-dasharray:0;}#my-svg .edge-thickness-invisible{stroke-width:0;fill:none;}#my-svg .edge-pattern-dashed{stroke-dasharray:3;}#my-svg .edge-pattern-dotted{stroke-dasharray:2;}#my-svg .marker{fill:#333333;stroke:#333333;}#my-svg .marker.cross{stroke:#333333;}#my-svg svg{font-family:"trebuchet ms",verdana,arial,sans-serif;font-size:16px;}#my-svg p{margin:0;}#my-svg .entityBox{fill:#ECECFF;stroke:#9370DB;}#my-svg .attributeBoxOdd{fill:#ffffff;stroke:#9370DB;}#my-svg .attributeBoxEven{fill:#f2f2f2;stroke:#9370DB;}#my-svg .relationshipLabelBox{fill:hsl(80, 100%, 96.2745098039%);opacity:0.7;background-color:hsl(80, 100%, 96.2745098039%);}#my-svg .relationshipLabelBox rect{opacity:0.5;}#my-svg .relationshipLine{stroke:#333333;}#my-svg .entityTitleText{text-anchor:middle;font-size:18px;fill:#333;}#my-svg #MD_PARENT_START{fill:#f5f5f5!important;stroke:#333333!important;stroke-width:1;}#my-svg #MD_PARENT_END{fill:#f5f5f5!important;stroke:#333333!important;stroke-width:1;}#my-svg :root{--mermaid-font-family:"trebuchet ms",verdana,arial,sans-serif;}</style><g/><defs><marker orient="auto" markerHeight="240" markerWidth="190" refY="7" refX="0" id="MD_PARENT_START"><path d="M 18,7 L9,13 L1,7 L9,1 Z"/></marker></defs><defs><marker orient="auto" markerHeight="28" markerWidth="20" refY="7" refX="19" id="MD_PARENT_END"><path d="M 18,7 L9,13 L1,7 L9,1 Z"/></marker></defs><defs><marker orient="auto" markerHeight="18" markerWidth="18" refY="9" refX="0" id="ONLY_ONE_START"><path d="M9,0 L9,18 M15,0 L15,18" fill="none" stroke="gray"/></marker></defs><defs><marker orient="auto" markerHeight="18" markerWidth="18" refY="9" refX="18" id="ONLY_ONE_END"><path d="M3,0 L3,18 M9,0 L9,18" fill="none" stroke="gray"/></marker></defs><defs><marker orient="auto" markerHeight="18" markerWidth="30" refY="9" refX="0" id="ZERO_OR_ONE_START"><circle r="6" cy="9" cx="21" fill="white" stroke="gray"/><path d="M9,0 L9,18" fill="none" stroke="gray"/></marker></defs><defs><marker orient="auto" markerHeight="18" markerWidth="30" refY="9" refX="30" id="ZERO_OR_ONE_END"><circle r="6" cy="9" cx="9" fill="white" stroke="gray"/><path d="M21,0 L21,18" fill="none" stroke="gray"/></marker></defs><defs><marker orient="auto" markerHeight="36" markerWidth="45" refY="18" refX="18" id="ONE_OR_MORE_START"><path d="M0,18 Q 18,0 36,18 Q 18,36 0,18 M42,9 L42,27" fill="none" stroke="gray"/></marker></defs><defs><marker orient="auto" markerHeight="36" markerWidth="45" refY="18" refX="27" id="ONE_OR_MORE_END"><path d="M3,9 L3,27 M9,18 Q27,0 45,18 Q27,36 9,18" fill="none" stroke="gray"/></marker></defs><defs><marker orient="auto" markerHeight="36" markerWidth="57" refY="18" refX="18" id="ZERO_OR_MORE_START"><circle r="6" cy="18" cx="48" fill="white" stroke="gray"/><path d="M0,18 Q18,0 36,18 Q18,36 0,18" fill="none" stroke="gray"/></marker></defs><defs><marker orient="auto" markerHeight="36" markerWidth="57" refY="18" refX="39" id="ZERO_OR_MORE_END"><circle r="6" cy="18" cx="9" fill="white" stroke="gray"/><path d="M21,18 Q39,0 57,18 Q39,36 21,18" fill="none" stroke="gray"/></marker></defs><path style="stroke: gray; fill: none;" marker-start="url(#ONLY_ONE_START)" marker-end="url(#ZERO_OR_MORE_END)" d="M1307.93,195.765L1112.926,227.804C917.922,259.843,527.914,323.922,332.91,364.294C137.906,404.667,137.906,421.333,137.906,429.667L137.906,438" class="er relationshipLine"/><path style="stroke: gray; fill: none;" marker-start="url(#ONLY_ONE_START)" marker-end="url(#ZERO_OR_MORE_END)" d="M1307.93,200.595L1160.348,231.83C1012.766,263.064,717.602,325.532,570.02,365.099C422.438,404.667,422.438,421.333,422.438,429.667L422.438,438" class="er relationshipLine"/><path style="stroke: gray; fill: none;" marker-start="url(#ONLY_ONE_START)" marker-end="url(#ZERO_OR_MORE_END)" d="M1307.93,207.495L1200.199,237.579C1092.469,267.663,877.008,327.832,769.277,366.249C661.547,404.667,661.547,421.333,661.547,429.667L661.547,438" class="er relationshipLine"/><path style="stroke: gray; fill: none;" marker-start="url(#ONLY_ONE_START)" marker-end="url(#ZERO_OR_MORE_END)" d="M1307.93,219.978L1238.198,247.982C1168.466,275.985,1029.003,331.993,959.271,368.33C889.539,404.667,889.539,421.333,889.539,429.667L889.539,438" class="er relationshipLine"/><path style="stroke: gray; fill: none;" marker-start="url(#ONLY_ONE_START)" marker-end="url(#ZERO_OR_MORE_END)" d="M1307.93,247.447L1273.008,270.873C1238.086,294.298,1168.242,341.149,1133.32,372.908C1098.398,404.667,1098.398,421.333,1098.398,429.667L1098.398,438" class="er relationshipLine"/><path style="stroke: gray; fill: none;" marker-start="url(#ONLY_ONE_START)" marker-end="url(#ZERO_OR_MORE_END)" d="M1327.64,338L1323.325,346.333C1319.01,354.667,1310.38,371.333,1306.065,388C1301.75,404.667,1301.75,421.333,1301.75,429.667L1301.75,438" class="er relationshipLine"/><path style="stroke: gray; fill: none;" marker-start="url(#ONLY_ONE_START)" marker-end="url(#ZERO_OR_MORE_END)" d="M1492.298,338L1496.613,346.333C1500.928,354.667,1509.558,371.333,1513.873,388C1518.188,404.667,1518.188,421.333,1518.188,429.667L1518.188,438" class="er relationshipLine"/><path style="stroke: gray; fill: none;" marker-start="url(#ONLY_ONE_START)" marker-end="url(#ZERO_OR_MORE_END)" d="M1512.008,241.939L1551.474,266.283C1590.94,290.626,1669.872,339.313,1709.339,371.99C1748.805,404.667,1748.805,421.333,1748.805,429.667L1748.805,438" class="er relationshipLine"/><path style="stroke: gray; fill: none;" marker-start="url(#ONLY_ONE_START)" marker-end="url(#ZERO_OR_MORE_END)" d="M1512.008,217.331L1587.73,245.775C1663.453,274.22,1814.898,331.11,1890.621,367.888C1966.344,404.667,1966.344,421.333,1966.344,429.667L1966.344,438" class="er relationshipLine"/><path style="stroke: gray; fill: none;" marker-start="url(#ONLY_ONE_START)" marker-end="url(#ZERO_OR_MORE_END)" d="M1512.008,206.509L1624.208,236.758C1736.409,267.006,1960.81,327.503,2073.01,366.085C2185.211,404.667,2185.211,421.333,2185.211,429.667L2185.211,438" class="er relationshipLine"/><path style="stroke: gray; fill: none;" marker-start="url(#ONLY_ONE_START)" marker-end="url(#ZERO_OR_MORE_END)" d="M1512.008,200.41L1661.012,231.675C1810.016,262.94,2108.023,325.47,2257.027,365.068C2406.031,404.667,2406.031,421.333,2406.031,429.667L2406.031,438" class="er relationshipLine"/><path style="stroke: gray; fill: none;" marker-start="url(#ONLY_ONE_START)" marker-end="url(#ZERO_OR_MORE_END)" d="M1512.008,196.751L1695.23,228.626C1878.453,260.501,2244.898,324.25,2428.121,364.459C2611.344,404.667,2611.344,421.333,2611.344,429.667L2611.344,438" class="er relationshipLine"/><g transform="translate(1307.9296875,20 )" id="entity-MedicalObservationalStudy-d6c20599-a10e-5dbf-a6c5-da5e4450326f"><rect height="318" width="204.078125" y="0" x="0" class="er entityBox"/><text style="dominant-baseline: middle; text-anchor: middle; font-size: 12px;" transform="translate(102.0390625,12)" y="0" x="0" id="text-entity-MedicalObservationalStudy-d6c20599-a10e-5dbf-a6c5-da5e4450326f" class="er entityLabel">MedicalObservationalStudy</text><rect height="21" width="57.0625" y="24" x="0" class="er attributeBoxOdd"/><text style="dominant-baseline: middle; font-size: 10.2px;" transform="translate(5,34.5)" y="0" x="0" id="text-entity-MedicalObservationalStudy-d6c20599-a10e-5dbf-a6c5-da5e4450326f-attr-1-type" class="er entityLabel">stringList</text><rect height="21" width="147.015625" y="24" x="57.0625" class="er attributeBoxOdd"/><text style="dominant-baseline: middle; font-size: 10.2px;" transform="translate(62.0625,34.5)" y="0" x="0" id="text-entity-MedicalObservationalStudy-d6c20599-a10e-5dbf-a6c5-da5e4450326f-attr-1-name" class="er entityLabel">sponsor</text><rect height="21" width="57.0625" y="45" x="0" class="er attributeBoxEven"/><text style="dominant-baseline: middle; font-size: 10.2px;" transform="translate(5,55.5)" y="0" x="0" id="text-entity-MedicalObservationalStudy-d6c20599-a10e-5dbf-a6c5-da5e4450326f-attr-2-type" class="er entityLabel">stringList</text><rect height="21" width="147.015625" y="45" x="57.0625" class="er attributeBoxEven"/><text style="dominant-baseline: middle; font-size: 10.2px;" transform="translate(62.0625,55.5)" y="0" x="0" id="text-entity-MedicalObservationalStudy-d6c20599-a10e-5dbf-a6c5-da5e4450326f-attr-2-name" class="er entityLabel">status</text><rect height="21" width="57.0625" y="66" x="0" class="er attributeBoxOdd"/><text style="dominant-baseline: middle; font-size: 10.2px;" transform="translate(5,76.5)" y="0" x="0" id="text-entity-MedicalObservationalStudy-d6c20599-a10e-5dbf-a6c5-da5e4450326f-attr-3-type" class="er entityLabel">stringList</text><rect height="21" width="147.015625" y="66" x="57.0625" class="er attributeBoxOdd"/><text style="dominant-baseline: middle; font-size: 10.2px;" transform="translate(62.0625,76.5)" y="0" x="0" id="text-entity-MedicalObservationalStudy-d6c20599-a10e-5dbf-a6c5-da5e4450326f-attr-3-name" class="er entityLabel">legalStatus</text><rect height="21" width="57.0625" y="87" x="0" class="er attributeBoxEven"/><text style="dominant-baseline: middle; font-size: 10.2px;" transform="translate(5,97.5)" y="0" x="0" id="text-entity-MedicalObservationalStudy-d6c20599-a10e-5dbf-a6c5-da5e4450326f-attr-4-type" class="er entityLabel">stringList</text><rect height="21" width="147.015625" y="87" x="57.0625" class="er attributeBoxEven"/><text style="dominant-baseline: middle; font-size: 10.2px;" transform="translate(62.0625,97.5)" y="0" x="0" id="text-entity-MedicalObservationalStudy-d6c20599-a10e-5dbf-a6c5-da5e4450326f-attr-4-name" class="er entityLabel">additionalType</text><rect height="21" width="57.0625" y="108" x="0" class="er attributeBoxOdd"/><text style="dominant-baseline: middle; font-size: 10.2px;" transform="translate(5,118.5)" y="0" x="0" id="text-entity-MedicalObservationalStudy-d6c20599-a10e-5dbf-a6c5-da5e4450326f-attr-5-type" class="er entityLabel">TextList</text><rect height="21" width="147.015625" y="108" x="57.0625" class="er attributeBoxOdd"/><text style="dominant-baseline: middle; font-size: 10.2px;" transform="translate(62.0625,118.5)" y="0" x="0" id="text-entity-MedicalObservationalStudy-d6c20599-a10e-5dbf-a6c5-da5e4450326f-attr-5-name" class="er entityLabel">alternateName</text><rect height="21" width="57.0625" y="129" x="0" class="er attributeBoxEven"/><text style="dominant-baseline: middle; font-size: 10.2px;" transform="translate(5,139.5)" y="0" x="0" id="text-entity-MedicalObservationalStudy-d6c20599-a10e-5dbf-a6c5-da5e4450326f-attr-6-type" class="er entityLabel">stringList</text><rect height="21" width="147.015625" y="129" x="57.0625" class="er attributeBoxEven"/><text style="dominant-baseline: middle; font-size: 10.2px;" transform="translate(62.0625,139.5)" y="0" x="0" id="text-entity-MedicalObservationalStudy-d6c20599-a10e-5dbf-a6c5-da5e4450326f-attr-6-name" class="er entityLabel">description</text><rect height="21" width="57.0625" y="150" x="0" class="er attributeBoxOdd"/><text style="dominant-baseline: middle; font-size: 10.2px;" transform="translate(5,160.5)" y="0" x="0" id="text-entity-MedicalObservationalStudy-d6c20599-a10e-5dbf-a6c5-da5e4450326f-attr-7-type" class="er entityLabel">TextList</text><rect height="21" width="147.015625" y="150" x="57.0625" class="er attributeBoxOdd"/><text style="dominant-baseline: middle; font-size: 10.2px;" transform="translate(62.0625,160.5)" y="0" x="0" id="text-entity-MedicalObservationalStudy-d6c20599-a10e-5dbf-a6c5-da5e4450326f-attr-7-name" class="er entityLabel">disambiguatingDescription</text><rect height="21" width="57.0625" y="171" x="0" class="er attributeBoxEven"/><text style="dominant-baseline: middle; font-size: 10.2px;" transform="translate(5,181.5)" y="0" x="0" id="text-entity-MedicalObservationalStudy-d6c20599-a10e-5dbf-a6c5-da5e4450326f-attr-8-type" class="er entityLabel">stringList</text><rect height="21" width="147.015625" y="171" x="57.0625" class="er attributeBoxEven"/><text style="dominant-baseline: middle; font-size: 10.2px;" transform="translate(62.0625,181.5)" y="0" x="0" id="text-entity-MedicalObservationalStudy-d6c20599-a10e-5dbf-a6c5-da5e4450326f-attr-8-name" class="er entityLabel">identifier</text><rect height="21" width="57.0625" y="192" x="0" class="er attributeBoxOdd"/><text style="dominant-baseline: middle; font-size: 10.2px;" transform="translate(5,202.5)" y="0" x="0" id="text-entity-MedicalObservationalStudy-d6c20599-a10e-5dbf-a6c5-da5e4450326f-attr-9-type" class="er entityLabel">stringList</text><rect height="21" width="147.015625" y="192" x="57.0625" class="er attributeBoxOdd"/><text style="dominant-baseline: middle; font-size: 10.2px;" transform="translate(62.0625,202.5)" y="0" x="0" id="text-entity-MedicalObservationalStudy-d6c20599-a10e-5dbf-a6c5-da5e4450326f-attr-9-name" class="er entityLabel">image</text><rect height="21" width="57.0625" y="213" x="0" class="er attributeBoxEven"/><text style="dominant-baseline: middle; font-size: 10.2px;" transform="translate(5,223.5)" y="0" x="0" id="text-entity-MedicalObservationalStudy-d6c20599-a10e-5dbf-a6c5-da5e4450326f-attr-10-type" class="er entityLabel">TextList</text><rect height="21" width="147.015625" y="213" x="57.0625" class="er attributeBoxEven"/><text style="dominant-baseline: middle; font-size: 10.2px;" transform="translate(62.0625,223.5)" y="0" x="0" id="text-entity-MedicalObservationalStudy-d6c20599-a10e-5dbf-a6c5-da5e4450326f-attr-10-name" class="er entityLabel">name</text><rect height="21" width="57.0625" y="234" x="0" class="er attributeBoxOdd"/><text style="dominant-baseline: middle; font-size: 10.2px;" transform="translate(5,244.5)" y="0" x="0" id="text-entity-MedicalObservationalStudy-d6c20599-a10e-5dbf-a6c5-da5e4450326f-attr-11-type" class="er entityLabel">URLList</text><rect height="21" width="147.015625" y="234" x="57.0625" class="er attributeBoxOdd"/><text style="dominant-baseline: middle; font-size: 10.2px;" transform="translate(62.0625,244.5)" y="0" x="0" id="text-entity-MedicalObservationalStudy-d6c20599-a10e-5dbf-a6c5-da5e4450326f-attr-11-name" class="er entityLabel">sameAs</text><rect height="21" width="57.0625" y="255" x="0" class="er attributeBoxEven"/><text style="dominant-baseline: middle; font-size: 10.2px;" transform="translate(5,265.5)" y="0" x="0" id="text-entity-MedicalObservationalStudy-d6c20599-a10e-5dbf-a6c5-da5e4450326f-attr-12-type" class="er entityLabel">stringList</text><rect height="21" width="147.015625" y="255" x="57.0625" class="er attributeBoxEven"/><text style="dominant-baseline: middle; font-size: 10.2px;" transform="translate(62.0625,265.5)" y="0" x="0" id="text-entity-MedicalObservationalStudy-d6c20599-a10e-5dbf-a6c5-da5e4450326f-attr-12-name" class="er entityLabel">mainEntityOfPage</text><rect height="21" width="57.0625" y="276" x="0" class="er attributeBoxOdd"/><text style="dominant-baseline: middle; font-size: 10.2px;" transform="translate(5,286.5)" y="0" x="0" id="text-entity-MedicalObservationalStudy-d6c20599-a10e-5dbf-a6c5-da5e4450326f-attr-13-type" class="er entityLabel">stringList</text><rect height="21" width="147.015625" y="276" x="57.0625" class="er attributeBoxOdd"/><text style="dominant-baseline: middle; font-size: 10.2px;" transform="translate(62.0625,286.5)" y="0" x="0" id="text-entity-MedicalObservationalStudy-d6c20599-a10e-5dbf-a6c5-da5e4450326f-attr-13-name" class="er entityLabel">subjectOf</text><rect height="21" width="57.0625" y="297" x="0" class="er attributeBoxEven"/><text style="dominant-baseline: middle; font-size: 10.2px;" transform="translate(5,307.5)" y="0" x="0" id="text-entity-MedicalObservationalStudy-d6c20599-a10e-5dbf-a6c5-da5e4450326f-attr-14-type" class="er entityLabel">URLList</text><rect height="21" width="147.015625" y="297" x="57.0625" class="er attributeBoxEven"/><text style="dominant-baseline: middle; font-size: 10.2px;" transform="translate(62.0625,307.5)" y="0" x="0" id="text-entity-MedicalObservationalStudy-d6c20599-a10e-5dbf-a6c5-da5e4450326f-attr-14-name" class="er entityLabel">url</text></g><g transform="translate(20,438 )" id="entity-MedicalObservationalStudyDesign-b4317c1f-fef3-5d95-8297-23f0c9f3927f"><rect height="75" width="235.8125" y="0" x="0" class="er entityBox"/><text style="dominant-baseline: middle; text-anchor: middle; font-size: 12px;" transform="translate(117.90625,37.5)" y="0" x="0" id="text-entity-MedicalObservationalStudyDesign-b4317c1f-fef3-5d95-8297-23f0c9f3927f" class="er entityLabel">MedicalObservationalStudyDesign</text></g><g transform="translate(355.8125,438 )" id="entity-MedicalCondition-a93e7da7-17aa-5f46-8e3a-8f90076b9104"><rect height="75" width="133.25" y="0" x="0" class="er entityBox"/><text style="dominant-baseline: middle; text-anchor: middle; font-size: 12px;" transform="translate(66.625,37.5)" y="0" x="0" id="text-entity-MedicalCondition-a93e7da7-17aa-5f46-8e3a-8f90076b9104" class="er entityLabel">MedicalCondition</text></g><g transform="translate(589.0625,438 )" id="entity-AdministrativeArea-148f6b29-78f8-5892-bd48-04ae3b68a278"><rect height="75" width="144.96875" y="0" x="0" class="er entityBox"/><text style="dominant-baseline: middle; text-anchor: middle; font-size: 12px;" transform="translate(72.484375,37.5)" y="0" x="0" id="text-entity-AdministrativeArea-148f6b29-78f8-5892-bd48-04ae3b68a278" class="er entityLabel">AdministrativeArea</text></g><g transform="translate(834.03125,438 )" id="entity-MedicalEntity-da7f22f1-1df3-52b4-9ce4-a5e4f6d6add9"><rect height="75" width="111.015625" y="0" x="0" class="er entityBox"/><text style="dominant-baseline: middle; text-anchor: middle; font-size: 12px;" transform="translate(55.5078125,37.5)" y="0" x="0" id="text-entity-MedicalEntity-da7f22f1-1df3-52b4-9ce4-a5e4f6d6add9" class="er entityLabel">MedicalEntity</text></g><g transform="translate(1045.046875,438 )" id="entity-MedicalCode-340ab1f3-b0e0-51ff-b309-32031f623ceb"><rect height="75" width="106.703125" y="0" x="0" class="er entityBox"/><text style="dominant-baseline: middle; text-anchor: middle; font-size: 12px;" transform="translate(53.3515625,37.5)" y="0" x="0" id="text-entity-MedicalCode-340ab1f3-b0e0-51ff-b309-32031f623ceb" class="er entityLabel">MedicalCode</text></g><g transform="translate(1251.75,438 )" id="entity-Grant-291daf2c-8722-576f-890e-1045bc6484c0"><rect height="75" width="100" y="0" x="0" class="er entityBox"/><text style="dominant-baseline: middle; text-anchor: middle; font-size: 12px;" transform="translate(50,37.5)" y="0" x="0" id="text-entity-Grant-291daf2c-8722-576f-890e-1045bc6484c0" class="er entityLabel">Grant</text></g><g transform="translate(1451.75,438 )" id="entity-MedicalGuideline-a05959e1-803b-55cd-8b3c-b530a54fde23"><rect height="75" width="132.875" y="0" x="0" class="er entityBox"/><text style="dominant-baseline: middle; text-anchor: middle; font-size: 12px;" transform="translate(66.4375,37.5)" y="0" x="0" id="text-entity-MedicalGuideline-a05959e1-803b-55cd-8b3c-b530a54fde23" class="er entityLabel">MedicalGuideline</text></g><g transform="translate(1684.625,438 )" id="entity-MedicineSystem-74197b84-67e0-5471-ab59-f3fd7c3c0e72"><rect height="75" width="128.359375" y="0" x="0" class="er entityBox"/><text style="dominant-baseline: middle; text-anchor: middle; font-size: 12px;" transform="translate(64.1796875,37.5)" y="0" x="0" id="text-entity-MedicineSystem-74197b84-67e0-5471-ab59-f3fd7c3c0e72" class="er entityLabel">MedicineSystem</text></g><g transform="translate(1912.984375,438 )" id="entity-Organization-ef1721ab-1f62-5ef5-a525-a6c60c2f6032"><rect height="75" width="106.71875" y="0" x="0" class="er entityBox"/><text style="dominant-baseline: middle; text-anchor: middle; font-size: 12px;" transform="translate(53.359375,37.5)" y="0" x="0" id="text-entity-Organization-ef1721ab-1f62-5ef5-a525-a6c60c2f6032" class="er entityLabel">Organization</text></g><g transform="translate(2119.703125,438 )" id="entity-MedicalSpecialty-0f4a20d3-5a5d-5b81-b412-da395afebba8"><rect height="75" width="131.015625" y="0" x="0" class="er entityBox"/><text style="dominant-baseline: middle; text-anchor: middle; font-size: 12px;" transform="translate(65.5078125,37.5)" y="0" x="0" id="text-entity-MedicalSpecialty-0f4a20d3-5a5d-5b81-b412-da395afebba8" class="er entityLabel">MedicalSpecialty</text></g><g transform="translate(2350.71875,438 )" id="entity-MedicalStudy-22dea251-12b7-5654-af29-afad6ffe12b1"><rect height="75" width="110.625" y="0" x="0" class="er entityBox"/><text style="dominant-baseline: middle; text-anchor: middle; font-size: 12px;" transform="translate(55.3125,37.5)" y="0" x="0" id="text-entity-MedicalStudy-22dea251-12b7-5654-af29-afad6ffe12b1" class="er entityLabel">MedicalStudy</text></g><g transform="translate(2561.34375,438 )" id="entity-Action-6cd87d9a-a078-546e-a35b-bee54f477b31"><rect height="75" width="100" y="0" x="0" class="er entityBox"/><text style="dominant-baseline: middle; text-anchor: middle; font-size: 12px;" transform="translate(50,37.5)" y="0" x="0" id="text-entity-Action-6cd87d9a-a078-546e-a35b-bee54f477b31" class="er entityLabel">Action</text></g><rect height="14" width="74.71875" y="287.8044738769531" x="674.6187744140625" class="er relationshipLabelBox"/><text style="text-anchor: middle; dominant-baseline: middle; font-size: 12px;" y="294.8044738769531" x="711.9781494140625" id="rel1" class="er relationshipLabel">studyDesign</text><rect height="14" width="95.25" y="291.0084533691406" x="805.5184326171875" class="er relationshipLabelBox"/><text style="text-anchor: middle; dominant-baseline: middle; font-size: 12px;" y="298.0084533691406" x="853.1434326171875" id="rel2" class="er relationshipLabel">healthCondition</text><rect height="14" width="84.046875" y="295.6875" x="929.408935546875" class="er relationshipLabelBox"/><text style="text-anchor: middle; dominant-baseline: middle; font-size: 12px;" y="302.6875" x="971.432373046875" id="rel3" class="er relationshipLabel">studyLocation</text><rect height="14" width="78.435546875" y="304.31304931640625" x="1044.68994140625" class="er relationshipLabelBox"/><text style="text-anchor: middle; dominant-baseline: middle; font-size: 12px;" y="311.31304931640625" x="1083.90771484375" id="rel4" class="er relationshipLabel">studySubject</text><rect height="14" width="28.953125" y="323.05841064453125" x="1172.9886474609375" class="er relationshipLabelBox"/><text style="text-anchor: middle; dominant-baseline: middle; font-size: 12px;" y="330.05841064453125" x="1187.4652099609375" id="rel5" class="er relationshipLabel">code</text><rect height="14" width="45.609375" y="378.953369140625" x="1283.81201171875" class="er relationshipLabelBox"/><text style="text-anchor: middle; dominant-baseline: middle; font-size: 12px;" y="385.953369140625" x="1306.61669921875" id="rel6" class="er relationshipLabel">funding</text><rect height="14" width="55.21875" y="378.953369140625" x="1485.7119140625" class="er relationshipLabelBox"/><text style="text-anchor: middle; dominant-baseline: middle; font-size: 12px;" y="385.953369140625" x="1513.3212890625" id="rel7" class="er relationshipLabel">guideline</text><rect height="14" width="99.703125" y="319.3727722167969" x="1596.2799072265625" class="er relationshipLabelBox"/><text style="text-anchor: middle; dominant-baseline: middle; font-size: 12px;" y="326.3727722167969" x="1646.1314697265625" id="rel8" class="er relationshipLabel">medicineSystem</text><rect height="14" width="124.953125" y="302.4772644042969" x="1691.2772216796875" class="er relationshipLabelBox"/><text style="text-anchor: middle; dominant-baseline: middle; font-size: 12px;" y="309.4772644042969" x="1753.7537841796875" id="rel9" class="er relationshipLabel">recognizingAuthority</text><rect height="14" width="104.578125" y="295.013427734375" x="1809.466064453125" class="er relationshipLabelBox"/><text style="text-anchor: middle; dominant-baseline: middle; font-size: 12px;" y="302.013427734375" x="1861.755126953125" id="rel10" class="er relationshipLabel">relevantSpecialty</text><rect height="14" width="33.28125" y="290.884033203125" x="1954.3809814453125" class="er relationshipLabelBox"/><text style="text-anchor: middle; dominant-baseline: middle; font-size: 12px;" y="297.884033203125" x="1971.0216064453125" id="rel11" class="er relationshipLabel">study</text><rect height="14" width="90.96875" y="288.45257568359375" x="2027.3720703125" class="er relationshipLabelBox"/><text style="text-anchor: middle; dominant-baseline: middle; font-size: 12px;" y="295.45257568359375" x="2072.8564453125" id="rel12" class="er relationshipLabel">potentialAction</text></svg>