<svg aria-roledescription="er" role="graphics-document document" viewBox="0 0 3128.6875 428" style="max-width: 3128.69px; background-color: white;" xmlns:xlink="http://www.w3.org/1999/xlink" xmlns="http://www.w3.org/2000/svg" width="100%" id="my-svg"><style>#my-svg{font-family:"trebuchet ms",verdana,arial,sans-serif;font-size:16px;fill:#333;}#my-svg .error-icon{fill:#552222;}#my-svg .error-text{fill:#552222;stroke:#552222;}#my-svg .edge-thickness-normal{stroke-width:1px;}#my-svg .edge-thickness-thick{stroke-width:3.5px;}#my-svg .edge-pattern-solid{stroke-dasharray:0;}#my-svg .edge-thickness-invisible{stroke-width:0;fill:none;}#my-svg .edge-pattern-dashed{stroke-dasharray:3;}#my-svg .edge-pattern-dotted{stroke-dasharray:2;}#my-svg .marker{fill:#333333;stroke:#333333;}#my-svg .marker.cross{stroke:#333333;}#my-svg svg{font-family:"trebuchet ms",verdana,arial,sans-serif;font-size:16px;}#my-svg p{margin:0;}#my-svg .entityBox{fill:#ECECFF;stroke:#9370DB;}#my-svg .attributeBoxOdd{fill:#ffffff;stroke:#9370DB;}#my-svg .attributeBoxEven{fill:#f2f2f2;stroke:#9370DB;}#my-svg .relationshipLabelBox{fill:hsl(80, 100%, 96.2745098039%);opacity:0.7;background-color:hsl(80, 100%, 96.2745098039%);}#my-svg .relationshipLabelBox rect{opacity:0.5;}#my-svg .relationshipLine{stroke:#333333;}#my-svg .entityTitleText{text-anchor:middle;font-size:18px;fill:#333;}#my-svg #MD_PARENT_START{fill:#f5f5f5!important;stroke:#333333!important;stroke-width:1;}#my-svg #MD_PARENT_END{fill:#f5f5f5!important;stroke:#333333!important;stroke-width:1;}#my-svg :root{--mermaid-font-family:"trebuchet ms",verdana,arial,sans-serif;}</style><g/><defs><marker orient="auto" markerHeight="240" markerWidth="190" refY="7" refX="0" id="MD_PARENT_START"><path d="M 18,7 L9,13 L1,7 L9,1 Z"/></marker></defs><defs><marker orient="auto" markerHeight="28" markerWidth="20" refY="7" refX="19" id="MD_PARENT_END"><path d="M 18,7 L9,13 L1,7 L9,1 Z"/></marker></defs><defs><marker orient="auto" markerHeight="18" markerWidth="18" refY="9" refX="0" id="ONLY_ONE_START"><path d="M9,0 L9,18 M15,0 L15,18" fill="none" stroke="gray"/></marker></defs><defs><marker orient="auto" markerHeight="18" markerWidth="18" refY="9" refX="18" id="ONLY_ONE_END"><path d="M3,0 L3,18 M9,0 L9,18" fill="none" stroke="gray"/></marker></defs><defs><marker orient="auto" markerHeight="18" markerWidth="30" refY="9" refX="0" id="ZERO_OR_ONE_START"><circle r="6" cy="9" cx="21" fill="white" stroke="gray"/><path d="M9,0 L9,18" fill="none" stroke="gray"/></marker></defs><defs><marker orient="auto" markerHeight="18" markerWidth="30" refY="9" refX="30" id="ZERO_OR_ONE_END"><circle r="6" cy="9" cx="9" fill="white" stroke="gray"/><path d="M21,0 L21,18" fill="none" stroke="gray"/></marker></defs><defs><marker orient="auto" markerHeight="36" markerWidth="45" refY="18" refX="18" id="ONE_OR_MORE_START"><path d="M0,18 Q 18,0 36,18 Q 18,36 0,18 M42,9 L42,27" fill="none" stroke="gray"/></marker></defs><defs><marker orient="auto" markerHeight="36" markerWidth="45" refY="18" refX="27" id="ONE_OR_MORE_END"><path d="M3,9 L3,27 M9,18 Q27,0 45,18 Q27,36 9,18" fill="none" stroke="gray"/></marker></defs><defs><marker orient="auto" markerHeight="36" markerWidth="57" refY="18" refX="18" id="ZERO_OR_MORE_START"><circle r="6" cy="18" cx="48" fill="white" stroke="gray"/><path d="M0,18 Q18,0 36,18 Q18,36 0,18" fill="none" stroke="gray"/></marker></defs><defs><marker orient="auto" markerHeight="36" markerWidth="57" refY="18" refX="39" id="ZERO_OR_MORE_END"><circle r="6" cy="18" cx="9" fill="white" stroke="gray"/><path d="M21,18 Q39,0 57,18 Q39,36 21,18" fill="none" stroke="gray"/></marker></defs><path style="stroke: gray; fill: none;" marker-start="url(#ONLY_ONE_START)" marker-end="url(#ZERO_OR_MORE_END)" d="M1869.148,134.819L1580.608,159.516C1292.068,184.213,714.987,233.606,426.447,266.637C137.906,299.667,137.906,316.333,137.906,324.667L137.906,333" class="er relationshipLine"/><path style="stroke: gray; fill: none;" marker-start="url(#ONLY_ONE_START)" marker-end="url(#ZERO_OR_MORE_END)" d="M1869.148,136.352L1628.03,160.794C1386.911,185.235,904.674,234.117,663.556,266.892C422.438,299.667,422.438,316.333,422.438,324.667L422.438,333" class="er relationshipLine"/><path style="stroke: gray; fill: none;" marker-start="url(#ONLY_ONE_START)" marker-end="url(#ZERO_OR_MORE_END)" d="M1869.148,138.158L1667.882,162.298C1466.615,186.439,1064.081,234.719,862.814,267.193C661.547,299.667,661.547,316.333,661.547,324.667L661.547,333" class="er relationshipLine"/><path style="stroke: gray; fill: none;" marker-start="url(#ONLY_ONE_START)" marker-end="url(#ZERO_OR_MORE_END)" d="M1869.148,140.626L1705.88,164.355C1542.612,188.084,1216.076,235.542,1052.807,267.604C889.539,299.667,889.539,316.333,889.539,324.667L889.539,333" class="er relationshipLine"/><path style="stroke: gray; fill: none;" marker-start="url(#ONLY_ONE_START)" marker-end="url(#ZERO_OR_MORE_END)" d="M1869.148,144.025L1740.69,167.188C1612.232,190.35,1355.315,236.675,1226.857,268.171C1098.398,299.667,1098.398,316.333,1098.398,324.667L1098.398,333" class="er relationshipLine"/><path style="stroke: gray; fill: none;" marker-start="url(#ONLY_ONE_START)" marker-end="url(#ZERO_OR_MORE_END)" d="M1869.148,149.388L1774.582,171.656C1680.016,193.925,1490.883,238.463,1396.316,269.065C1301.75,299.667,1301.75,316.333,1301.75,324.667L1301.75,333" class="er relationshipLine"/><path style="stroke: gray; fill: none;" marker-start="url(#ONLY_ONE_START)" marker-end="url(#ZERO_OR_MORE_END)" d="M1869.148,160.441L1810.655,180.868C1752.161,201.294,1635.174,242.147,1576.681,270.907C1518.188,299.667,1518.188,316.333,1518.188,324.667L1518.188,333" class="er relationshipLine"/><path style="stroke: gray; fill: none;" marker-start="url(#ONLY_ONE_START)" marker-end="url(#ZERO_OR_MORE_END)" d="M1869.148,196.423L1849.091,210.853C1829.034,225.282,1788.919,254.141,1768.862,276.904C1748.805,299.667,1748.805,316.333,1748.805,324.667L1748.805,333" class="er relationshipLine"/><path style="stroke: gray; fill: none;" marker-start="url(#ONLY_ONE_START)" marker-end="url(#ZERO_OR_MORE_END)" d="M1966.344,233L1966.344,241.333C1966.344,249.667,1966.344,266.333,1966.344,283C1966.344,299.667,1966.344,316.333,1966.344,324.667L1966.344,333" class="er relationshipLine"/><path style="stroke: gray; fill: none;" marker-start="url(#ONLY_ONE_START)" marker-end="url(#ZERO_OR_MORE_END)" d="M2063.539,195.999L2083.818,210.499C2104.096,224.999,2144.654,254,2164.932,276.833C2185.211,299.667,2185.211,316.333,2185.211,324.667L2185.211,333" class="er relationshipLine"/><path style="stroke: gray; fill: none;" marker-start="url(#ONLY_ONE_START)" marker-end="url(#ZERO_OR_MORE_END)" d="M2063.539,161.095L2120.621,181.413C2177.703,201.73,2291.867,242.365,2348.949,271.016C2406.031,299.667,2406.031,316.333,2406.031,324.667L2406.031,333" class="er relationshipLine"/><path style="stroke: gray; fill: none;" marker-start="url(#ONLY_ONE_START)" marker-end="url(#ZERO_OR_MORE_END)" d="M2063.539,154.547L2137.73,175.956C2211.922,197.365,2360.305,240.182,2451.163,271.313C2542.021,302.444,2575.354,321.889,2592.021,331.611L2608.688,341.333" class="er relationshipLine"/><path style="stroke: gray; fill: none;" marker-start="url(#ONLY_ONE_START)" marker-end="url(#ZERO_OR_MORE_END)" d="M2063.539,150.181L2154.397,172.317C2245.255,194.454,2426.971,238.727,2522.591,269.197C2618.211,299.667,2627.735,316.333,2632.497,324.667L2637.259,333" class="er relationshipLine"/><path style="stroke: gray; fill: none;" marker-start="url(#ONLY_ONE_START)" marker-end="url(#ZERO_OR_MORE_END)" d="M2063.539,146.991L2171.064,169.659C2278.589,192.327,2493.638,237.664,2596.401,268.665C2699.164,299.667,2689.64,316.333,2684.878,324.667L2680.116,333" class="er relationshipLine"/><path style="stroke: gray; fill: none;" marker-start="url(#ONLY_ONE_START)" marker-end="url(#ZERO_OR_MORE_END)" d="M2063.539,144.558L2187.73,167.632C2311.922,190.705,2560.305,236.853,2689.258,268.26C2818.211,299.667,2827.735,316.333,2832.497,324.667L2837.259,333" class="er relationshipLine"/><path style="stroke: gray; fill: none;" marker-start="url(#ONLY_ONE_START)" marker-end="url(#ZERO_OR_MORE_END)" d="M2063.539,140.425L2229.397,164.188C2395.255,187.95,2726.971,235.475,2892.829,267.571C3058.688,299.667,3058.688,316.333,3058.688,324.667L3058.688,333" class="er relationshipLine"/><path style="stroke: gray; fill: none;" marker-start="url(#ONLY_ONE_START)" marker-end="url(#ZERO_OR_MORE_END)" d="M2063.539,142.642L2204.397,166.035C2345.255,189.428,2626.971,236.214,2763.068,267.94C2899.164,299.667,2889.64,316.333,2884.878,324.667L2880.116,333" class="er relationshipLine"/><g transform="translate(1869.1484375,20 )" id="entity-MedicalObservationalStudy-d6c20599-a10e-5dbf-a6c5-da5e4450326f"><rect height="213" width="194.390625" y="0" x="0" class="er entityBox"/><text style="dominant-baseline: middle; text-anchor: middle; font-size: 12px;" transform="translate(97.1953125,12)" y="0" x="0" id="text-entity-MedicalObservationalStudy-d6c20599-a10e-5dbf-a6c5-da5e4450326f" class="er entityLabel">MedicalObservationalStudy</text><rect height="21" width="74.9921875" y="24" x="0" class="er attributeBoxOdd"/><text style="dominant-baseline: middle; font-size: 10.2px;" transform="translate(5,34.5)" y="0" x="0" id="text-entity-MedicalObservationalStudy-d6c20599-a10e-5dbf-a6c5-da5e4450326f-attr-1-type" class="er entityLabel">stringList</text><rect height="21" width="119.3984375" y="24" x="74.9921875" class="er attributeBoxOdd"/><text style="dominant-baseline: middle; font-size: 10.2px;" transform="translate(79.9921875,34.5)" y="0" x="0" id="text-entity-MedicalObservationalStudy-d6c20599-a10e-5dbf-a6c5-da5e4450326f-attr-1-name" class="er entityLabel">sponsor</text><rect height="21" width="74.9921875" y="45" x="0" class="er attributeBoxEven"/><text style="dominant-baseline: middle; font-size: 10.2px;" transform="translate(5,55.5)" y="0" x="0" id="text-entity-MedicalObservationalStudy-d6c20599-a10e-5dbf-a6c5-da5e4450326f-attr-2-type" class="er entityLabel">stringList</text><rect height="21" width="119.3984375" y="45" x="74.9921875" class="er attributeBoxEven"/><text style="dominant-baseline: middle; font-size: 10.2px;" transform="translate(79.9921875,55.5)" y="0" x="0" id="text-entity-MedicalObservationalStudy-d6c20599-a10e-5dbf-a6c5-da5e4450326f-attr-2-name" class="er entityLabel">status</text><rect height="21" width="74.9921875" y="66" x="0" class="er attributeBoxOdd"/><text style="dominant-baseline: middle; font-size: 10.2px;" transform="translate(5,76.5)" y="0" x="0" id="text-entity-MedicalObservationalStudy-d6c20599-a10e-5dbf-a6c5-da5e4450326f-attr-3-type" class="er entityLabel">stringList</text><rect height="21" width="119.3984375" y="66" x="74.9921875" class="er attributeBoxOdd"/><text style="dominant-baseline: middle; font-size: 10.2px;" transform="translate(79.9921875,76.5)" y="0" x="0" id="text-entity-MedicalObservationalStudy-d6c20599-a10e-5dbf-a6c5-da5e4450326f-attr-3-name" class="er entityLabel">legalStatus</text><rect height="21" width="74.9921875" y="87" x="0" class="er attributeBoxEven"/><text style="dominant-baseline: middle; font-size: 10.2px;" transform="translate(5,97.5)" y="0" x="0" id="text-entity-MedicalObservationalStudy-d6c20599-a10e-5dbf-a6c5-da5e4450326f-attr-4-type" class="er entityLabel">stringList</text><rect height="21" width="119.3984375" y="87" x="74.9921875" class="er attributeBoxEven"/><text style="dominant-baseline: middle; font-size: 10.2px;" transform="translate(79.9921875,97.5)" y="0" x="0" id="text-entity-MedicalObservationalStudy-d6c20599-a10e-5dbf-a6c5-da5e4450326f-attr-4-name" class="er entityLabel">additionalType</text><rect height="21" width="74.9921875" y="108" x="0" class="er attributeBoxOdd"/><text style="dominant-baseline: middle; font-size: 10.2px;" transform="translate(5,118.5)" y="0" x="0" id="text-entity-MedicalObservationalStudy-d6c20599-a10e-5dbf-a6c5-da5e4450326f-attr-5-type" class="er entityLabel">stringList</text><rect height="21" width="119.3984375" y="108" x="74.9921875" class="er attributeBoxOdd"/><text style="dominant-baseline: middle; font-size: 10.2px;" transform="translate(79.9921875,118.5)" y="0" x="0" id="text-entity-MedicalObservationalStudy-d6c20599-a10e-5dbf-a6c5-da5e4450326f-attr-5-name" class="er entityLabel">description</text><rect height="21" width="74.9921875" y="129" x="0" class="er attributeBoxEven"/><text style="dominant-baseline: middle; font-size: 10.2px;" transform="translate(5,139.5)" y="0" x="0" id="text-entity-MedicalObservationalStudy-d6c20599-a10e-5dbf-a6c5-da5e4450326f-attr-6-type" class="er entityLabel">stringList</text><rect height="21" width="119.3984375" y="129" x="74.9921875" class="er attributeBoxEven"/><text style="dominant-baseline: middle; font-size: 10.2px;" transform="translate(79.9921875,139.5)" y="0" x="0" id="text-entity-MedicalObservationalStudy-d6c20599-a10e-5dbf-a6c5-da5e4450326f-attr-6-name" class="er entityLabel">identifier</text><rect height="21" width="74.9921875" y="150" x="0" class="er attributeBoxOdd"/><text style="dominant-baseline: middle; font-size: 10.2px;" transform="translate(5,160.5)" y="0" x="0" id="text-entity-MedicalObservationalStudy-d6c20599-a10e-5dbf-a6c5-da5e4450326f-attr-7-type" class="er entityLabel">stringList</text><rect height="21" width="119.3984375" y="150" x="74.9921875" class="er attributeBoxOdd"/><text style="dominant-baseline: middle; font-size: 10.2px;" transform="translate(79.9921875,160.5)" y="0" x="0" id="text-entity-MedicalObservationalStudy-d6c20599-a10e-5dbf-a6c5-da5e4450326f-attr-7-name" class="er entityLabel">image</text><rect height="21" width="74.9921875" y="171" x="0" class="er attributeBoxEven"/><text style="dominant-baseline: middle; font-size: 10.2px;" transform="translate(5,181.5)" y="0" x="0" id="text-entity-MedicalObservationalStudy-d6c20599-a10e-5dbf-a6c5-da5e4450326f-attr-8-type" class="er entityLabel">stringList</text><rect height="21" width="119.3984375" y="171" x="74.9921875" class="er attributeBoxEven"/><text style="dominant-baseline: middle; font-size: 10.2px;" transform="translate(79.9921875,181.5)" y="0" x="0" id="text-entity-MedicalObservationalStudy-d6c20599-a10e-5dbf-a6c5-da5e4450326f-attr-8-name" class="er entityLabel">mainEntityOfPage</text><rect height="21" width="74.9921875" y="192" x="0" class="er attributeBoxOdd"/><text style="dominant-baseline: middle; font-size: 10.2px;" transform="translate(5,202.5)" y="0" x="0" id="text-entity-MedicalObservationalStudy-d6c20599-a10e-5dbf-a6c5-da5e4450326f-attr-9-type" class="er entityLabel">stringList</text><rect height="21" width="119.3984375" y="192" x="74.9921875" class="er attributeBoxOdd"/><text style="dominant-baseline: middle; font-size: 10.2px;" transform="translate(79.9921875,202.5)" y="0" x="0" id="text-entity-MedicalObservationalStudy-d6c20599-a10e-5dbf-a6c5-da5e4450326f-attr-9-name" class="er entityLabel">subjectOf</text></g><g transform="translate(20,333 )" id="entity-MedicalObservationalStudyDesign-b4317c1f-fef3-5d95-8297-23f0c9f3927f"><rect height="75" width="235.8125" y="0" x="0" class="er entityBox"/><text style="dominant-baseline: middle; text-anchor: middle; font-size: 12px;" transform="translate(117.90625,37.5)" y="0" x="0" id="text-entity-MedicalObservationalStudyDesign-b4317c1f-fef3-5d95-8297-23f0c9f3927f" class="er entityLabel">MedicalObservationalStudyDesign</text></g><g transform="translate(355.8125,333 )" id="entity-MedicalCondition-a93e7da7-17aa-5f46-8e3a-8f90076b9104"><rect height="75" width="133.25" y="0" x="0" class="er entityBox"/><text style="dominant-baseline: middle; text-anchor: middle; font-size: 12px;" transform="translate(66.625,37.5)" y="0" x="0" id="text-entity-MedicalCondition-a93e7da7-17aa-5f46-8e3a-8f90076b9104" class="er entityLabel">MedicalCondition</text></g><g transform="translate(589.0625,333 )" id="entity-AdministrativeArea-148f6b29-78f8-5892-bd48-04ae3b68a278"><rect height="75" width="144.96875" y="0" x="0" class="er entityBox"/><text style="dominant-baseline: middle; text-anchor: middle; font-size: 12px;" transform="translate(72.484375,37.5)" y="0" x="0" id="text-entity-AdministrativeArea-148f6b29-78f8-5892-bd48-04ae3b68a278" class="er entityLabel">AdministrativeArea</text></g><g transform="translate(834.03125,333 )" id="entity-MedicalEntity-da7f22f1-1df3-52b4-9ce4-a5e4f6d6add9"><rect height="75" width="111.015625" y="0" x="0" class="er entityBox"/><text style="dominant-baseline: middle; text-anchor: middle; font-size: 12px;" transform="translate(55.5078125,37.5)" y="0" x="0" id="text-entity-MedicalEntity-da7f22f1-1df3-52b4-9ce4-a5e4f6d6add9" class="er entityLabel">MedicalEntity</text></g><g transform="translate(1045.046875,333 )" id="entity-MedicalCode-340ab1f3-b0e0-51ff-b309-32031f623ceb"><rect height="75" width="106.703125" y="0" x="0" class="er entityBox"/><text style="dominant-baseline: middle; text-anchor: middle; font-size: 12px;" transform="translate(53.3515625,37.5)" y="0" x="0" id="text-entity-MedicalCode-340ab1f3-b0e0-51ff-b309-32031f623ceb" class="er entityLabel">MedicalCode</text></g><g transform="translate(1251.75,333 )" id="entity-Grant-291daf2c-8722-576f-890e-1045bc6484c0"><rect height="75" width="100" y="0" x="0" class="er entityBox"/><text style="dominant-baseline: middle; text-anchor: middle; font-size: 12px;" transform="translate(50,37.5)" y="0" x="0" id="text-entity-Grant-291daf2c-8722-576f-890e-1045bc6484c0" class="er entityLabel">Grant</text></g><g transform="translate(1451.75,333 )" id="entity-MedicalGuideline-a05959e1-803b-55cd-8b3c-b530a54fde23"><rect height="75" width="132.875" y="0" x="0" class="er entityBox"/><text style="dominant-baseline: middle; text-anchor: middle; font-size: 12px;" transform="translate(66.4375,37.5)" y="0" x="0" id="text-entity-MedicalGuideline-a05959e1-803b-55cd-8b3c-b530a54fde23" class="er entityLabel">MedicalGuideline</text></g><g transform="translate(1684.625,333 )" id="entity-MedicineSystem-74197b84-67e0-5471-ab59-f3fd7c3c0e72"><rect height="75" width="128.359375" y="0" x="0" class="er entityBox"/><text style="dominant-baseline: middle; text-anchor: middle; font-size: 12px;" transform="translate(64.1796875,37.5)" y="0" x="0" id="text-entity-MedicineSystem-74197b84-67e0-5471-ab59-f3fd7c3c0e72" class="er entityLabel">MedicineSystem</text></g><g transform="translate(1912.984375,333 )" id="entity-Organization-ef1721ab-1f62-5ef5-a525-a6c60c2f6032"><rect height="75" width="106.71875" y="0" x="0" class="er entityBox"/><text style="dominant-baseline: middle; text-anchor: middle; font-size: 12px;" transform="translate(53.359375,37.5)" y="0" x="0" id="text-entity-Organization-ef1721ab-1f62-5ef5-a525-a6c60c2f6032" class="er entityLabel">Organization</text></g><g transform="translate(2119.703125,333 )" id="entity-MedicalSpecialty-0f4a20d3-5a5d-5b81-b412-da395afebba8"><rect height="75" width="131.015625" y="0" x="0" class="er entityBox"/><text style="dominant-baseline: middle; text-anchor: middle; font-size: 12px;" transform="translate(65.5078125,37.5)" y="0" x="0" id="text-entity-MedicalSpecialty-0f4a20d3-5a5d-5b81-b412-da395afebba8" class="er entityLabel">MedicalSpecialty</text></g><g transform="translate(2350.71875,333 )" id="entity-MedicalStudy-22dea251-12b7-5654-af29-afad6ffe12b1"><rect height="75" width="110.625" y="0" x="0" class="er entityBox"/><text style="dominant-baseline: middle; text-anchor: middle; font-size: 12px;" transform="translate(55.3125,37.5)" y="0" x="0" id="text-entity-MedicalStudy-22dea251-12b7-5654-af29-afad6ffe12b1" class="er entityLabel">MedicalStudy</text></g><g transform="translate(2608.6875,333 )" id="entity-Text-426c5d39-acfc-5487-a6d9-ede67887190e"><rect height="75" width="100" y="0" x="0" class="er entityBox"/><text style="dominant-baseline: middle; text-anchor: middle; font-size: 12px;" transform="translate(50,37.5)" y="0" x="0" id="text-entity-Text-426c5d39-acfc-5487-a6d9-ede67887190e" class="er entityLabel">Text</text></g><g transform="translate(2808.6875,333 )" id="entity-URL-07f78d3e-fd74-5925-b39b-26c1cc2d6b7c"><rect height="75" width="100" y="0" x="0" class="er entityBox"/><text style="dominant-baseline: middle; text-anchor: middle; font-size: 12px;" transform="translate(50,37.5)" y="0" x="0" id="text-entity-URL-07f78d3e-fd74-5925-b39b-26c1cc2d6b7c" class="er entityLabel">URL</text></g><g transform="translate(3008.6875,333 )" id="entity-Action-6cd87d9a-a078-546e-a35b-bee54f477b31"><rect height="75" width="100" y="0" x="0" class="er entityBox"/><text style="dominant-baseline: middle; text-anchor: middle; font-size: 12px;" transform="translate(50,37.5)" y="0" x="0" id="text-entity-Action-6cd87d9a-a078-546e-a35b-bee54f477b31" class="er entityLabel">Action</text></g><rect height="14" width="74.71875" y="203.77638244628906" x="957.072265625" class="er relationshipLabelBox"/><text style="text-anchor: middle; dominant-baseline: middle; font-size: 12px;" y="210.77638244628906" x="994.431640625" id="rel1" class="er relationshipLabel">studyDesign</text><rect height="14" width="95.25" y="204.7555694580078" x="1088.5130615234375" class="er relationshipLabelBox"/><text style="text-anchor: middle; dominant-baseline: middle; font-size: 12px;" y="211.7555694580078" x="1136.1380615234375" id="rel2" class="er relationshipLabel">healthCondition</text><rect height="14" width="84.046875" y="205.92730712890625" x="1213.058837890625" class="er relationshipLabelBox"/><text style="text-anchor: middle; dominant-baseline: middle; font-size: 12px;" y="212.92730712890625" x="1255.082275390625" id="rel3" class="er relationshipLabel">studyLocation</text><rect height="14" width="78.435546875" y="207.55699157714844" x="1329.099853515625" class="er relationshipLabelBox"/><text style="text-anchor: middle; dominant-baseline: middle; font-size: 12px;" y="214.55699157714844" x="1368.317626953125" id="rel4" class="er relationshipLabel">studySubject</text><rect height="14" width="28.953125" y="209.84722900390625" x="1457.343017578125" class="er relationshipLabelBox"/><text style="text-anchor: middle; dominant-baseline: middle; font-size: 12px;" y="216.84722900390625" x="1471.819580078125" id="rel5" class="er relationshipLabel">code</text><rect height="14" width="45.609375" y="213.5441131591797" x="1549.4696044921875" class="er relationshipLabelBox"/><text style="text-anchor: middle; dominant-baseline: middle; font-size: 12px;" y="220.5441131591797" x="1572.2742919921875" id="rel6" class="er relationshipLabel">funding</text><rect height="14" width="55.21875" y="221.36968994140625" x="1651.1419677734375" class="er relationshipLabelBox"/><text style="text-anchor: middle; dominant-baseline: middle; font-size: 12px;" y="228.36968994140625" x="1678.7513427734375" id="rel7" class="er relationshipLabel">guideline</text><rect height="14.000015258789062" width="99.703125" y="246.6569595336914" x="1743.3419189453125" class="er relationshipLabelBox"/><text style="text-anchor: middle; dominant-baseline: middle; font-size: 12px;" y="253.65696716308594" x="1793.1934814453125" id="rel8" class="er relationshipLabel">medicineSystem</text><rect height="14" width="124.953125" y="276" x="1903.867431640625" class="er relationshipLabelBox"/><text style="text-anchor: middle; dominant-baseline: middle; font-size: 12px;" y="283" x="1966.343994140625" id="rel9" class="er relationshipLabel">recognizingAuthority</text><rect height="14.000015258789062" width="104.578125" y="246.36856842041016" x="2087.887451171875" class="er relationshipLabelBox"/><text style="text-anchor: middle; dominant-baseline: middle; font-size: 12px;" y="253.3685760498047" x="2140.176513671875" id="rel10" class="er relationshipLabel">relevantSpecialty</text><rect height="14" width="33.28125" y="221.83645629882812" x="2233.135986328125" class="er relationshipLabelBox"/><text style="text-anchor: middle; dominant-baseline: middle; font-size: 12px;" y="228.83645629882812" x="2249.776611328125" id="rel11" class="er relationshipLabel">study</text><rect height="14" width="89.953125" y="228.87326049804688" x="2295.69091796875" class="er relationshipLabelBox"/><text style="text-anchor: middle; dominant-baseline: middle; font-size: 12px;" y="235.87326049804688" x="2340.66748046875" id="rel12" class="er relationshipLabel">alternateName</text><rect height="14" width="161.390625" y="216.4154815673828" x="2278.40625" class="er relationshipLabelBox"/><text style="text-anchor: middle; dominant-baseline: middle; font-size: 12px;" y="223.4154815673828" x="2359.1015625" id="rel13" class="er relationshipLabel">disambiguatingDescription</text><rect height="14" width="34.03125" y="210.41287231445312" x="2374.580810546875" class="er relationshipLabelBox"/><text style="text-anchor: middle; dominant-baseline: middle; font-size: 12px;" y="217.41287231445312" x="2391.596435546875" id="rel14" class="er relationshipLabel">name</text><rect height="14" width="47.140625" y="212.09642028808594" x="2434.884765625" class="er relationshipLabelBox"/><text style="text-anchor: middle; dominant-baseline: middle; font-size: 12px;" y="219.09642028808594" x="2458.455078125" id="rel15" class="er relationshipLabel">sameAs</text><rect height="14" width="90.96875" y="207.42330932617188" x="2526.595947265625" class="er relationshipLabelBox"/><text style="text-anchor: middle; dominant-baseline: middle; font-size: 12px;" y="214.42330932617188" x="2572.080322265625" id="rel16" class="er relationshipLabel">potentialAction</text><rect height="14" width="15.875" y="207.6306610107422" x="2481.90380859375" class="er relationshipLabelBox"/><text style="text-anchor: middle; dominant-baseline: middle; font-size: 12px;" y="214.6306610107422" x="2489.84130859375" id="rel17" class="er relationshipLabel">url</text></svg>