<svg aria-roledescription="er" role="graphics-document document" viewBox="0 0 4198.193359375 428" style="max-width: 4198.19px; background-color: white;" xmlns:xlink="http://www.w3.org/1999/xlink" xmlns="http://www.w3.org/2000/svg" width="100%" id="my-svg"><style>#my-svg{font-family:"trebuchet ms",verdana,arial,sans-serif;font-size:16px;fill:#333;}#my-svg .error-icon{fill:#552222;}#my-svg .error-text{fill:#552222;stroke:#552222;}#my-svg .edge-thickness-normal{stroke-width:1px;}#my-svg .edge-thickness-thick{stroke-width:3.5px;}#my-svg .edge-pattern-solid{stroke-dasharray:0;}#my-svg .edge-thickness-invisible{stroke-width:0;fill:none;}#my-svg .edge-pattern-dashed{stroke-dasharray:3;}#my-svg .edge-pattern-dotted{stroke-dasharray:2;}#my-svg .marker{fill:#333333;stroke:#333333;}#my-svg .marker.cross{stroke:#333333;}#my-svg svg{font-family:"trebuchet ms",verdana,arial,sans-serif;font-size:16px;}#my-svg p{margin:0;}#my-svg .entityBox{fill:#ECECFF;stroke:#9370DB;}#my-svg .attributeBoxOdd{fill:#ffffff;stroke:#9370DB;}#my-svg .attributeBoxEven{fill:#f2f2f2;stroke:#9370DB;}#my-svg .relationshipLabelBox{fill:hsl(80, 100%, 96.2745098039%);opacity:0.7;background-color:hsl(80, 100%, 96.2745098039%);}#my-svg .relationshipLabelBox rect{opacity:0.5;}#my-svg .relationshipLine{stroke:#333333;}#my-svg .entityTitleText{text-anchor:middle;font-size:18px;fill:#333;}#my-svg #MD_PARENT_START{fill:#f5f5f5!important;stroke:#333333!important;stroke-width:1;}#my-svg #MD_PARENT_END{fill:#f5f5f5!important;stroke:#333333!important;stroke-width:1;}#my-svg :root{--mermaid-font-family:"trebuchet ms",verdana,arial,sans-serif;}</style><g/><defs><marker orient="auto" markerHeight="240" markerWidth="190" refY="7" refX="0" id="MD_PARENT_START"><path d="M 18,7 L9,13 L1,7 L9,1 Z"/></marker></defs><defs><marker orient="auto" markerHeight="28" markerWidth="20" refY="7" refX="19" id="MD_PARENT_END"><path d="M 18,7 L9,13 L1,7 L9,1 Z"/></marker></defs><defs><marker orient="auto" markerHeight="18" markerWidth="18" refY="9" refX="0" id="ONLY_ONE_START"><path d="M9,0 L9,18 M15,0 L15,18" fill="none" stroke="gray"/></marker></defs><defs><marker orient="auto" markerHeight="18" markerWidth="18" refY="9" refX="18" id="ONLY_ONE_END"><path d="M3,0 L3,18 M9,0 L9,18" fill="none" stroke="gray"/></marker></defs><defs><marker orient="auto" markerHeight="18" markerWidth="30" refY="9" refX="0" id="ZERO_OR_ONE_START"><circle r="6" cy="9" cx="21" fill="white" stroke="gray"/><path d="M9,0 L9,18" fill="none" stroke="gray"/></marker></defs><defs><marker orient="auto" markerHeight="18" markerWidth="30" refY="9" refX="30" id="ZERO_OR_ONE_END"><circle r="6" cy="9" cx="9" fill="white" stroke="gray"/><path d="M21,0 L21,18" fill="none" stroke="gray"/></marker></defs><defs><marker orient="auto" markerHeight="36" markerWidth="45" refY="18" refX="18" id="ONE_OR_MORE_START"><path d="M0,18 Q 18,0 36,18 Q 18,36 0,18 M42,9 L42,27" fill="none" stroke="gray"/></marker></defs><defs><marker orient="auto" markerHeight="36" markerWidth="45" refY="18" refX="27" id="ONE_OR_MORE_END"><path d="M3,9 L3,27 M9,18 Q27,0 45,18 Q27,36 9,18" fill="none" stroke="gray"/></marker></defs><defs><marker orient="auto" markerHeight="36" markerWidth="57" refY="18" refX="18" id="ZERO_OR_MORE_START"><circle r="6" cy="18" cx="48" fill="white" stroke="gray"/><path d="M0,18 Q18,0 36,18 Q18,36 0,18" fill="none" stroke="gray"/></marker></defs><defs><marker orient="auto" markerHeight="36" markerWidth="57" refY="18" refX="39" id="ZERO_OR_MORE_END"><circle r="6" cy="18" cx="9" fill="white" stroke="gray"/><path d="M21,18 Q39,0 57,18 Q39,36 21,18" fill="none" stroke="gray"/></marker></defs><path style="stroke: gray; fill: none;" marker-start="url(#ONLY_ONE_START)" marker-end="url(#ZERO_OR_MORE_END)" d="M1409.438,135.469L1179.973,160.058C950.508,184.646,491.578,233.823,266.875,266.745C42.172,299.667,51.696,316.333,56.458,324.667L61.22,333" class="er relationshipLine"/><path style="stroke: gray; fill: none;" marker-start="url(#ONLY_ONE_START)" marker-end="url(#ZERO_OR_MORE_END)" d="M1409.438,137.863L1231.259,162.053C1053.08,186.242,696.721,234.621,518.542,267.144C340.362,299.667,340.362,316.333,340.362,324.667L340.362,333" class="er relationshipLine"/><path style="stroke: gray; fill: none;" marker-start="url(#ONLY_ONE_START)" marker-end="url(#ZERO_OR_MORE_END)" d="M1409.438,140.289L1265.056,164.074C1120.673,187.859,831.907,235.43,687.524,267.548C543.142,299.667,543.142,316.333,543.142,324.667L543.142,333" class="er relationshipLine"/><path style="stroke: gray; fill: none;" marker-start="url(#ONLY_ONE_START)" marker-end="url(#ZERO_OR_MORE_END)" d="M1409.438,142.052L1283.008,165.544C1156.577,189.035,903.716,236.017,827.286,272.009C750.855,308,850.855,333,900.855,345.5L950.855,358" class="er relationshipLine"/><path style="stroke: gray; fill: none;" marker-start="url(#ONLY_ONE_START)" marker-end="url(#ZERO_OR_MORE_END)" d="M1409.438,144.148L1299.675,167.29C1189.911,190.432,970.383,236.716,893.953,271.525C817.522,306.333,884.189,329.667,917.522,341.333L950.855,353" class="er relationshipLine"/><path style="stroke: gray; fill: none;" marker-start="url(#ONLY_ONE_START)" marker-end="url(#ZERO_OR_MORE_END)" d="M1409.438,146.895L1316.341,169.579C1223.244,192.263,1037.05,237.632,960.619,270.038C884.189,302.444,917.522,321.889,934.189,331.611L950.855,341.333" class="er relationshipLine"/><path style="stroke: gray; fill: none;" marker-start="url(#ONLY_ONE_START)" marker-end="url(#ZERO_OR_MORE_END)" d="M1409.438,150.656L1333.008,172.713C1256.577,194.771,1103.716,238.885,1032.048,269.276C960.379,299.667,969.903,316.333,974.665,324.667L979.427,333" class="er relationshipLine"/><path style="stroke: gray; fill: none;" marker-start="url(#ONLY_ONE_START)" marker-end="url(#ZERO_OR_MORE_END)" d="M1409.438,156.118L1349.675,177.265C1289.911,198.412,1170.383,240.706,1105.857,270.186C1041.332,299.667,1031.808,316.333,1027.046,324.667L1022.284,333" class="er relationshipLine"/><path style="stroke: gray; fill: none;" marker-start="url(#ONLY_ONE_START)" marker-end="url(#ZERO_OR_MORE_END)" d="M1409.438,136.129L1196.64,160.607C983.842,185.086,558.245,234.043,340.685,266.855C123.125,299.667,113.601,316.333,108.839,324.667L104.077,333" class="er relationshipLine"/><path style="stroke: gray; fill: none;" marker-start="url(#ONLY_ONE_START)" marker-end="url(#ZERO_OR_MORE_END)" d="M1464.365,233L1462.114,241.333C1459.862,249.667,1455.359,266.333,1453.107,283C1450.855,299.667,1450.855,316.333,1450.855,324.667L1450.855,333" class="er relationshipLine"/><path style="stroke: gray; fill: none;" marker-start="url(#ONLY_ONE_START)" marker-end="url(#ZERO_OR_MORE_END)" d="M1409.438,136.892L1213.307,161.244C1017.175,185.595,624.912,234.297,414.222,267.141C203.531,299.985,174.414,316.97,159.855,325.463L145.297,333.955" class="er relationshipLine"/><path style="stroke: gray; fill: none;" marker-start="url(#ONLY_ONE_START)" marker-end="url(#ZERO_OR_MORE_END)" d="M1576.845,187.803L1598.508,203.669C1620.172,219.535,1663.499,251.268,1685.163,275.467C1706.826,299.667,1706.826,316.333,1706.826,324.667L1706.826,333" class="er relationshipLine"/><path style="stroke: gray; fill: none;" marker-start="url(#ONLY_ONE_START)" marker-end="url(#ZERO_OR_MORE_END)" d="M1576.845,153.521L1643.693,175.101C1710.542,196.681,1844.239,239.84,1911.087,269.753C1977.936,299.667,1977.936,316.333,1977.936,324.667L1977.936,333" class="er relationshipLine"/><path style="stroke: gray; fill: none;" marker-start="url(#ONLY_ONE_START)" marker-end="url(#ZERO_OR_MORE_END)" d="M1576.845,144.725L1682.687,167.771C1788.529,190.817,2000.213,236.908,2106.055,268.288C2211.896,299.667,2211.896,316.333,2211.896,324.667L2211.896,333" class="er relationshipLine"/><path style="stroke: gray; fill: none;" marker-start="url(#ONLY_ONE_START)" marker-end="url(#ZERO_OR_MORE_END)" d="M1576.845,140.706L1716.579,164.422C1856.313,188.137,2135.78,235.569,2275.514,267.618C2415.248,299.667,2415.248,316.333,2415.248,324.667L2415.248,333" class="er relationshipLine"/><path style="stroke: gray; fill: none;" marker-start="url(#ONLY_ONE_START)" marker-end="url(#ZERO_OR_MORE_END)" d="M1576.845,138.139L1750.471,162.283C1924.096,186.426,2271.348,234.713,2444.974,267.19C2618.6,299.667,2618.6,316.333,2618.6,324.667L2618.6,333" class="er relationshipLine"/><path style="stroke: gray; fill: none;" marker-start="url(#ONLY_ONE_START)" marker-end="url(#ZERO_OR_MORE_END)" d="M1576.845,136.262L1786.543,160.718C1996.242,185.175,2415.64,234.087,2625.338,266.877C2835.037,299.667,2835.037,316.333,2835.037,324.667L2835.037,333" class="er relationshipLine"/><path style="stroke: gray; fill: none;" marker-start="url(#ONLY_ONE_START)" marker-end="url(#ZERO_OR_MORE_END)" d="M1576.845,134.83L1824.98,159.525C2073.115,184.22,2569.384,233.61,2817.519,266.638C3065.654,299.667,3065.654,316.333,3065.654,324.667L3065.654,333" class="er relationshipLine"/><path style="stroke: gray; fill: none;" marker-start="url(#ONLY_ONE_START)" marker-end="url(#ZERO_OR_MORE_END)" d="M1576.845,133.818L1861.236,158.682C2145.628,183.545,2714.41,233.273,2998.802,266.47C3283.193,299.667,3283.193,316.333,3283.193,324.667L3283.193,333" class="er relationshipLine"/><path style="stroke: gray; fill: none;" marker-start="url(#ONLY_ONE_START)" marker-end="url(#ZERO_OR_MORE_END)" d="M1576.845,133.021L1897.714,158.017C2218.583,183.014,2860.322,233.007,3181.191,266.337C3502.061,299.667,3502.061,316.333,3502.061,324.667L3502.061,333" class="er relationshipLine"/><path style="stroke: gray; fill: none;" marker-start="url(#ONLY_ONE_START)" marker-end="url(#ZERO_OR_MORE_END)" d="M1576.845,132.375L1934.517,157.479C2292.19,182.583,3007.535,232.792,3365.208,266.229C3722.881,299.667,3722.881,316.333,3722.881,324.667L3722.881,333" class="er relationshipLine"/><path style="stroke: gray; fill: none;" marker-start="url(#ONLY_ONE_START)" marker-end="url(#ZERO_OR_MORE_END)" d="M1409.438,164.771L1366.341,184.476C1323.244,204.18,1237.05,243.59,1177.286,273.017C1117.522,302.444,1084.189,321.889,1067.522,331.611L1050.855,341.333" class="er relationshipLine"/><path style="stroke: gray; fill: none;" marker-start="url(#ONLY_ONE_START)" marker-end="url(#ZERO_OR_MORE_END)" d="M1409.438,180.566L1383.008,197.639C1356.577,214.711,1303.716,248.855,1243.953,277.594C1184.189,306.333,1117.522,329.667,1084.189,341.333L1050.855,353" class="er relationshipLine"/><path style="stroke: gray; fill: none;" marker-start="url(#ONLY_ONE_START)" marker-end="url(#ZERO_OR_MORE_END)" d="M1409.438,218.565L1399.675,229.304C1389.911,240.043,1370.383,261.522,1310.619,284.761C1250.855,308,1150.855,333,1100.855,345.5L1050.855,358" class="er relationshipLine"/><path style="stroke: gray; fill: none;" marker-start="url(#ONLY_ONE_START)" marker-end="url(#ZERO_OR_MORE_END)" d="M1576.845,131.998L1959.96,157.165C2343.076,182.332,3109.306,232.666,3497.437,266.166C3885.567,299.667,3895.597,316.333,3900.612,324.667L3905.626,333" class="er relationshipLine"/><path style="stroke: gray; fill: none;" marker-start="url(#ONLY_ONE_START)" marker-end="url(#ZERO_OR_MORE_END)" d="M1576.845,131.471L2002.069,156.726C2427.294,181.981,3277.744,232.49,3702.969,266.079C4128.193,299.667,4128.193,316.333,4128.193,324.667L4128.193,333" class="er relationshipLine"/><path style="stroke: gray; fill: none;" marker-start="url(#ONLY_ONE_START)" marker-end="url(#ZERO_OR_MORE_END)" d="M1576.845,131.771L1977.069,156.976C2377.294,182.181,3177.744,232.59,3573.207,266.129C3968.67,299.667,3959.146,316.333,3954.384,324.667L3949.622,333" class="er relationshipLine"/><g transform="translate(1409.4384765625,20 )" id="entity-MedicalSymptom-b6c1e7b5-ffb8-5b77-86a8-70bd7644ad86"><rect height="213" width="167.40625" y="0" x="0" class="er entityBox"/><text style="dominant-baseline: middle; text-anchor: middle; font-size: 12px;" transform="translate(83.703125,12)" y="0" x="0" id="text-entity-MedicalSymptom-b6c1e7b5-ffb8-5b77-86a8-70bd7644ad86" class="er entityLabel">MedicalSymptom</text><rect height="21" width="57.0625" y="24" x="0" class="er attributeBoxOdd"/><text style="dominant-baseline: middle; font-size: 10.2px;" transform="translate(5,34.5)" y="0" x="0" id="text-entity-MedicalSymptom-b6c1e7b5-ffb8-5b77-86a8-70bd7644ad86-attr-1-type" class="er entityLabel">stringList</text><rect height="21" width="110.34375" y="24" x="57.0625" class="er attributeBoxOdd"/><text style="dominant-baseline: middle; font-size: 10.2px;" transform="translate(62.0625,34.5)" y="0" x="0" id="text-entity-MedicalSymptom-b6c1e7b5-ffb8-5b77-86a8-70bd7644ad86-attr-1-name" class="er entityLabel">associatedAnatomy</text><rect height="21" width="57.0625" y="45" x="0" class="er attributeBoxEven"/><text style="dominant-baseline: middle; font-size: 10.2px;" transform="translate(5,55.5)" y="0" x="0" id="text-entity-MedicalSymptom-b6c1e7b5-ffb8-5b77-86a8-70bd7644ad86-attr-2-type" class="er entityLabel">stringList</text><rect height="21" width="110.34375" y="45" x="57.0625" class="er attributeBoxEven"/><text style="dominant-baseline: middle; font-size: 10.2px;" transform="translate(62.0625,55.5)" y="0" x="0" id="text-entity-MedicalSymptom-b6c1e7b5-ffb8-5b77-86a8-70bd7644ad86-attr-2-name" class="er entityLabel">status</text><rect height="21" width="57.0625" y="66" x="0" class="er attributeBoxOdd"/><text style="dominant-baseline: middle; font-size: 10.2px;" transform="translate(5,76.5)" y="0" x="0" id="text-entity-MedicalSymptom-b6c1e7b5-ffb8-5b77-86a8-70bd7644ad86-attr-3-type" class="er entityLabel">stringList</text><rect height="21" width="110.34375" y="66" x="57.0625" class="er attributeBoxOdd"/><text style="dominant-baseline: middle; font-size: 10.2px;" transform="translate(62.0625,76.5)" y="0" x="0" id="text-entity-MedicalSymptom-b6c1e7b5-ffb8-5b77-86a8-70bd7644ad86-attr-3-name" class="er entityLabel">legalStatus</text><rect height="21" width="57.0625" y="87" x="0" class="er attributeBoxEven"/><text style="dominant-baseline: middle; font-size: 10.2px;" transform="translate(5,97.5)" y="0" x="0" id="text-entity-MedicalSymptom-b6c1e7b5-ffb8-5b77-86a8-70bd7644ad86-attr-4-type" class="er entityLabel">stringList</text><rect height="21" width="110.34375" y="87" x="57.0625" class="er attributeBoxEven"/><text style="dominant-baseline: middle; font-size: 10.2px;" transform="translate(62.0625,97.5)" y="0" x="0" id="text-entity-MedicalSymptom-b6c1e7b5-ffb8-5b77-86a8-70bd7644ad86-attr-4-name" class="er entityLabel">additionalType</text><rect height="21" width="57.0625" y="108" x="0" class="er attributeBoxOdd"/><text style="dominant-baseline: middle; font-size: 10.2px;" transform="translate(5,118.5)" y="0" x="0" id="text-entity-MedicalSymptom-b6c1e7b5-ffb8-5b77-86a8-70bd7644ad86-attr-5-type" class="er entityLabel">stringList</text><rect height="21" width="110.34375" y="108" x="57.0625" class="er attributeBoxOdd"/><text style="dominant-baseline: middle; font-size: 10.2px;" transform="translate(62.0625,118.5)" y="0" x="0" id="text-entity-MedicalSymptom-b6c1e7b5-ffb8-5b77-86a8-70bd7644ad86-attr-5-name" class="er entityLabel">description</text><rect height="21" width="57.0625" y="129" x="0" class="er attributeBoxEven"/><text style="dominant-baseline: middle; font-size: 10.2px;" transform="translate(5,139.5)" y="0" x="0" id="text-entity-MedicalSymptom-b6c1e7b5-ffb8-5b77-86a8-70bd7644ad86-attr-6-type" class="er entityLabel">stringList</text><rect height="21" width="110.34375" y="129" x="57.0625" class="er attributeBoxEven"/><text style="dominant-baseline: middle; font-size: 10.2px;" transform="translate(62.0625,139.5)" y="0" x="0" id="text-entity-MedicalSymptom-b6c1e7b5-ffb8-5b77-86a8-70bd7644ad86-attr-6-name" class="er entityLabel">identifier</text><rect height="21" width="57.0625" y="150" x="0" class="er attributeBoxOdd"/><text style="dominant-baseline: middle; font-size: 10.2px;" transform="translate(5,160.5)" y="0" x="0" id="text-entity-MedicalSymptom-b6c1e7b5-ffb8-5b77-86a8-70bd7644ad86-attr-7-type" class="er entityLabel">stringList</text><rect height="21" width="110.34375" y="150" x="57.0625" class="er attributeBoxOdd"/><text style="dominant-baseline: middle; font-size: 10.2px;" transform="translate(62.0625,160.5)" y="0" x="0" id="text-entity-MedicalSymptom-b6c1e7b5-ffb8-5b77-86a8-70bd7644ad86-attr-7-name" class="er entityLabel">image</text><rect height="21" width="57.0625" y="171" x="0" class="er attributeBoxEven"/><text style="dominant-baseline: middle; font-size: 10.2px;" transform="translate(5,181.5)" y="0" x="0" id="text-entity-MedicalSymptom-b6c1e7b5-ffb8-5b77-86a8-70bd7644ad86-attr-8-type" class="er entityLabel">stringList</text><rect height="21" width="110.34375" y="171" x="57.0625" class="er attributeBoxEven"/><text style="dominant-baseline: middle; font-size: 10.2px;" transform="translate(62.0625,181.5)" y="0" x="0" id="text-entity-MedicalSymptom-b6c1e7b5-ffb8-5b77-86a8-70bd7644ad86-attr-8-name" class="er entityLabel">mainEntityOfPage</text><rect height="21" width="57.0625" y="192" x="0" class="er attributeBoxOdd"/><text style="dominant-baseline: middle; font-size: 10.2px;" transform="translate(5,202.5)" y="0" x="0" id="text-entity-MedicalSymptom-b6c1e7b5-ffb8-5b77-86a8-70bd7644ad86-attr-9-type" class="er entityLabel">stringList</text><rect height="21" width="110.34375" y="192" x="57.0625" class="er attributeBoxOdd"/><text style="dominant-baseline: middle; font-size: 10.2px;" transform="translate(62.0625,202.5)" y="0" x="0" id="text-entity-MedicalSymptom-b6c1e7b5-ffb8-5b77-86a8-70bd7644ad86-attr-9-name" class="er entityLabel">subjectOf</text></g><g transform="translate(20,333 )" id="entity-MedicalTherapy-cb945121-be61-5f08-b66d-584ab4170081"><rect height="75" width="125.296875" y="0" x="0" class="er entityBox"/><text style="dominant-baseline: middle; text-anchor: middle; font-size: 12px;" transform="translate(62.6484375,37.5)" y="0" x="0" id="text-entity-MedicalTherapy-cb945121-be61-5f08-b66d-584ab4170081" class="er entityLabel">MedicalTherapy</text></g><g transform="translate(287.5830078125,333 )" id="entity-DDxElement-3cbb71e7-0dfc-5923-b27d-7677e1f3851a"><rect height="75" width="105.55859375" y="0" x="0" class="er entityBox"/><text style="dominant-baseline: middle; text-anchor: middle; font-size: 12px;" transform="translate(52.779296875,37.5)" y="0" x="0" id="text-entity-DDxElement-3cbb71e7-0dfc-5923-b27d-7677e1f3851a" class="er entityLabel">DDxElement</text></g><g transform="translate(493.1416015625,333 )" id="entity-Drug-eafa91c0-1824-5f2e-9826-905b73217603"><rect height="75" width="100" y="0" x="0" class="er entityBox"/><text style="dominant-baseline: middle; text-anchor: middle; font-size: 12px;" transform="translate(50,37.5)" y="0" x="0" id="text-entity-Drug-eafa91c0-1824-5f2e-9826-905b73217603" class="er entityLabel">Drug</text></g><g transform="translate(950.85546875,333 )" id="entity-Text-426c5d39-acfc-5487-a6d9-ede67887190e"><rect height="75" width="100" y="0" x="0" class="er entityBox"/><text style="dominant-baseline: middle; text-anchor: middle; font-size: 12px;" transform="translate(50,37.5)" y="0" x="0" id="text-entity-Text-426c5d39-acfc-5487-a6d9-ede67887190e" class="er entityLabel">Text</text></g><g transform="translate(1382.033203125,333 )" id="entity-MedicalRiskFactor-a0fcf94a-518e-5a2d-a2b5-5e4de626f72d"><rect height="75" width="137.64453125" y="0" x="0" class="er entityBox"/><text style="dominant-baseline: middle; text-anchor: middle; font-size: 12px;" transform="translate(68.822265625,37.5)" y="0" x="0" id="text-entity-MedicalRiskFactor-a0fcf94a-518e-5a2d-a2b5-5e4de626f72d" class="er entityLabel">MedicalRiskFactor</text></g><g transform="translate(1619.677734375,333 )" id="entity-MedicalSignOrSymptom-acd8acd3-b1ff-541e-9ff9-cfca0e720334"><rect height="75" width="174.296875" y="0" x="0" class="er entityBox"/><text style="dominant-baseline: middle; text-anchor: middle; font-size: 12px;" transform="translate(87.1484375,37.5)" y="0" x="0" id="text-entity-MedicalSignOrSymptom-acd8acd3-b1ff-541e-9ff9-cfca0e720334" class="er entityLabel">MedicalSignOrSymptom</text></g><g transform="translate(1893.974609375,333 )" id="entity-MedicalConditionStage-4bb70cfa-d8c6-5b13-accf-0114ca92b5dd"><rect height="75" width="167.921875" y="0" x="0" class="er entityBox"/><text style="dominant-baseline: middle; text-anchor: middle; font-size: 12px;" transform="translate(83.9609375,37.5)" y="0" x="0" id="text-entity-MedicalConditionStage-4bb70cfa-d8c6-5b13-accf-0114ca92b5dd" class="er entityLabel">MedicalConditionStage</text></g><g transform="translate(2161.896484375,333 )" id="entity-MedicalTest-32c87613-6e49-5cc6-bb3d-56fed2dad080"><rect height="75" width="100" y="0" x="0" class="er entityBox"/><text style="dominant-baseline: middle; text-anchor: middle; font-size: 12px;" transform="translate(50,37.5)" y="0" x="0" id="text-entity-MedicalTest-32c87613-6e49-5cc6-bb3d-56fed2dad080" class="er entityLabel">MedicalTest</text></g><g transform="translate(2361.896484375,333 )" id="entity-MedicalCode-340ab1f3-b0e0-51ff-b309-32031f623ceb"><rect height="75" width="106.703125" y="0" x="0" class="er entityBox"/><text style="dominant-baseline: middle; text-anchor: middle; font-size: 12px;" transform="translate(53.3515625,37.5)" y="0" x="0" id="text-entity-MedicalCode-340ab1f3-b0e0-51ff-b309-32031f623ceb" class="er entityLabel">MedicalCode</text></g><g transform="translate(2568.599609375,333 )" id="entity-Grant-291daf2c-8722-576f-890e-1045bc6484c0"><rect height="75" width="100" y="0" x="0" class="er entityBox"/><text style="dominant-baseline: middle; text-anchor: middle; font-size: 12px;" transform="translate(50,37.5)" y="0" x="0" id="text-entity-Grant-291daf2c-8722-576f-890e-1045bc6484c0" class="er entityLabel">Grant</text></g><g transform="translate(2768.599609375,333 )" id="entity-MedicalGuideline-a05959e1-803b-55cd-8b3c-b530a54fde23"><rect height="75" width="132.875" y="0" x="0" class="er entityBox"/><text style="dominant-baseline: middle; text-anchor: middle; font-size: 12px;" transform="translate(66.4375,37.5)" y="0" x="0" id="text-entity-MedicalGuideline-a05959e1-803b-55cd-8b3c-b530a54fde23" class="er entityLabel">MedicalGuideline</text></g><g transform="translate(3001.474609375,333 )" id="entity-MedicineSystem-74197b84-67e0-5471-ab59-f3fd7c3c0e72"><rect height="75" width="128.359375" y="0" x="0" class="er entityBox"/><text style="dominant-baseline: middle; text-anchor: middle; font-size: 12px;" transform="translate(64.1796875,37.5)" y="0" x="0" id="text-entity-MedicineSystem-74197b84-67e0-5471-ab59-f3fd7c3c0e72" class="er entityLabel">MedicineSystem</text></g><g transform="translate(3229.833984375,333 )" id="entity-Organization-ef1721ab-1f62-5ef5-a525-a6c60c2f6032"><rect height="75" width="106.71875" y="0" x="0" class="er entityBox"/><text style="dominant-baseline: middle; text-anchor: middle; font-size: 12px;" transform="translate(53.359375,37.5)" y="0" x="0" id="text-entity-Organization-ef1721ab-1f62-5ef5-a525-a6c60c2f6032" class="er entityLabel">Organization</text></g><g transform="translate(3436.552734375,333 )" id="entity-MedicalSpecialty-0f4a20d3-5a5d-5b81-b412-da395afebba8"><rect height="75" width="131.015625" y="0" x="0" class="er entityBox"/><text style="dominant-baseline: middle; text-anchor: middle; font-size: 12px;" transform="translate(65.5078125,37.5)" y="0" x="0" id="text-entity-MedicalSpecialty-0f4a20d3-5a5d-5b81-b412-da395afebba8" class="er entityLabel">MedicalSpecialty</text></g><g transform="translate(3667.568359375,333 )" id="entity-MedicalStudy-22dea251-12b7-5654-af29-afad6ffe12b1"><rect height="75" width="110.625" y="0" x="0" class="er entityBox"/><text style="dominant-baseline: middle; text-anchor: middle; font-size: 12px;" transform="translate(55.3125,37.5)" y="0" x="0" id="text-entity-MedicalStudy-22dea251-12b7-5654-af29-afad6ffe12b1" class="er entityLabel">MedicalStudy</text></g><g transform="translate(3878.193359375,333 )" id="entity-URL-07f78d3e-fd74-5925-b39b-26c1cc2d6b7c"><rect height="75" width="100" y="0" x="0" class="er entityBox"/><text style="dominant-baseline: middle; text-anchor: middle; font-size: 12px;" transform="translate(50,37.5)" y="0" x="0" id="text-entity-URL-07f78d3e-fd74-5925-b39b-26c1cc2d6b7c" class="er entityLabel">URL</text></g><g transform="translate(4078.193359375,333 )" id="entity-Action-6cd87d9a-a078-546e-a35b-bee54f477b31"><rect height="75" width="100" y="0" x="0" class="er entityBox"/><text style="dominant-baseline: middle; text-anchor: middle; font-size: 12px;" transform="translate(50,37.5)" y="0" x="0" id="text-entity-Action-6cd87d9a-a078-546e-a35b-bee54f477b31" class="er entityLabel">Action</text></g><rect height="14" width="110.486328125" y="203.4577178955078" x="664.8034057617188" class="er relationshipLabelBox"/><text style="text-anchor: middle; dominant-baseline: middle; font-size: 12px;" y="210.4577178955078" x="720.0465698242188" id="rel1" class="er relationshipLabel">possibleTreatment</text><rect height="14" width="123.328125" y="206.01805114746094" x="802.5126953125" class="er relationshipLabelBox"/><text style="text-anchor: middle; dominant-baseline: middle; font-size: 12px;" y="213.01805114746094" x="864.1767578125" id="rel2" class="er relationshipLabel">differentialDiagnosis</text><rect height="14" width="27.78125" y="207.7025909423828" x="950.8749389648438" class="er relationshipLabelBox"/><text style="text-anchor: middle; dominant-baseline: middle; font-size: 12px;" y="214.7025909423828" x="964.7655639648438" id="rel3" class="er relationshipLabel">drug</text><rect height="14" width="81.09375" y="211.89511108398438" x="973.952880859375" class="er relationshipLabelBox"/><text style="text-anchor: middle; dominant-baseline: middle; font-size: 12px;" y="218.89511108398438" x="1014.499755859375" id="rel4" class="er relationshipLabel">epidemiology</text><rect height="14" width="113.015625" y="210.87237548828125" x="1016.0950927734375" class="er relationshipLabelBox"/><text style="text-anchor: middle; dominant-baseline: middle; font-size: 12px;" y="217.87237548828125" x="1072.6029052734375" id="rel5" class="er relationshipLabel">expectedPrognosis</text><rect height="14" width="112.390625" y="210.58749389648438" x="1070.756591796875" class="er relationshipLabelBox"/><text style="text-anchor: middle; dominant-baseline: middle; font-size: 12px;" y="217.58749389648438" x="1126.951904296875" id="rel6" class="er relationshipLabel">naturalProgression</text><rect height="14" width="99.28125" y="213.51486206054688" x="1122.6009521484375" class="er relationshipLabelBox"/><text style="text-anchor: middle; dominant-baseline: middle; font-size: 12px;" y="220.51486206054688" x="1172.2415771484375" id="rel7" class="er relationshipLabel">pathophysiology</text><rect height="14" width="127.765625" y="222.2093963623047" x="1142.743896484375" class="er relationshipLabelBox"/><text style="text-anchor: middle; dominant-baseline: middle; font-size: 12px;" y="229.2093963623047" x="1206.626708984375" id="rel8" class="er relationshipLabel">possibleComplication</text><rect height="14" width="111.125" y="206.09750366210938" x="694.3797607421875" class="er relationshipLabelBox"/><text style="text-anchor: middle; dominant-baseline: middle; font-size: 12px;" y="213.09750366210938" x="749.9422607421875" id="rel9" class="er relationshipLabel">primaryPrevention</text><rect height="14" width="58.267578125" y="275.4064025878906" x="1424.0546875" class="er relationshipLabelBox"/><text style="text-anchor: middle; dominant-baseline: middle; font-size: 12px;" y="282.4064025878906" x="1453.1884765625" id="rel10" class="er relationshipLabel">riskFactor</text><rect height="14" width="126.34375" y="210.0053253173828" x="710.0640258789062" class="er relationshipLabelBox"/><text style="text-anchor: middle; dominant-baseline: middle; font-size: 12px;" y="217.0053253173828" x="773.2359008789062" id="rel11" class="er relationshipLabel">secondaryPrevention</text><rect height="14" width="96.953125" y="242.34280395507812" x="1609.0745849609375" class="er relationshipLabelBox"/><text style="text-anchor: middle; dominant-baseline: middle; font-size: 12px;" y="249.34280395507812" x="1657.5511474609375" id="rel12" class="er relationshipLabel">signOrSymptom</text><rect height="14" width="33.3125" y="217.32781982421875" x="1775.2625732421875" class="er relationshipLabelBox"/><text style="text-anchor: middle; dominant-baseline: middle; font-size: 12px;" y="224.32781982421875" x="1791.9188232421875" id="rel13" class="er relationshipLabel">stage</text><rect height="14" width="63.96875" y="210.86227416992188" x="1875.153076171875" class="er relationshipLabelBox"/><text style="text-anchor: middle; dominant-baseline: middle; font-size: 12px;" y="217.86227416992188" x="1907.137451171875" id="rel14" class="er relationshipLabel">typicalTest</text><rect height="14" width="28.953125" y="207.99575805664062" x="1993.2227783203125" class="er relationshipLabelBox"/><text style="text-anchor: middle; dominant-baseline: middle; font-size: 12px;" y="214.99575805664062" x="2007.6993408203125" id="rel15" class="er relationshipLabel">code</text><rect height="14" width="45.609375" y="206.2078857421875" x="2085.737060546875" class="er relationshipLabelBox"/><text style="text-anchor: middle; dominant-baseline: middle; font-size: 12px;" y="213.2078857421875" x="2108.541748046875" id="rel16" class="er relationshipLabel">funding</text><rect height="14" width="55.21875" y="204.92666625976562" x="2188.47119140625" class="er relationshipLabelBox"/><text style="text-anchor: middle; dominant-baseline: middle; font-size: 12px;" y="211.92666625976562" x="2216.08056640625" id="rel17" class="er relationshipLabel">guideline</text><rect height="14" width="99.703125" y="203.96664428710938" x="2280.973388671875" class="er relationshipLabelBox"/><text style="text-anchor: middle; dominant-baseline: middle; font-size: 12px;" y="210.96664428710938" x="2330.824951171875" id="rel18" class="er relationshipLabel">medicineSystem</text><rect height="14" width="124.953125" y="203.2982177734375" x="2376.69189453125" class="er relationshipLabelBox"/><text style="text-anchor: middle; dominant-baseline: middle; font-size: 12px;" y="210.2982177734375" x="2439.16845703125" id="rel19" class="er relationshipLabel">recognizingAuthority</text><rect height="14" width="104.578125" y="202.78042602539062" x="2495.959228515625" class="er relationshipLabelBox"/><text style="text-anchor: middle; dominant-baseline: middle; font-size: 12px;" y="209.78042602539062" x="2548.248291015625" id="rel20" class="er relationshipLabel">relevantSpecialty</text><rect height="14" width="33.28125" y="202.36285400390625" x="2641.718505859375" class="er relationshipLabelBox"/><text style="text-anchor: middle; dominant-baseline: middle; font-size: 12px;" y="209.36285400390625" x="2658.359130859375" id="rel21" class="er relationshipLabel">study</text><rect height="14" width="89.953125" y="241.61993408203125" x="1182.941650390625" class="er relationshipLabelBox"/><text style="text-anchor: middle; dominant-baseline: middle; font-size: 12px;" y="248.61993408203125" x="1227.918212890625" id="rel22" class="er relationshipLabel">alternateName</text><rect height="14" width="161.390625" y="273.90679931640625" x="1156.285400390625" class="er relationshipLabelBox"/><text style="text-anchor: middle; dominant-baseline: middle; font-size: 12px;" y="280.90679931640625" x="1236.980712890625" id="rel23" class="er relationshipLabel">disambiguatingDescription</text><rect height="14" width="34.03125" y="301.3902587890625" x="1222.6531982421875" class="er relationshipLabelBox"/><text style="text-anchor: middle; dominant-baseline: middle; font-size: 12px;" y="308.3902587890625" x="1239.6688232421875" id="rel24" class="er relationshipLabel">name</text><rect height="14" width="47.140625" y="202.9208984375" x="2723.139892578125" class="er relationshipLabelBox"/><text style="text-anchor: middle; dominant-baseline: middle; font-size: 12px;" y="209.9208984375" x="2746.710205078125" id="rel25" class="er relationshipLabel">sameAs</text><rect height="14" width="90.96875" y="201.785400390625" x="2815.089111328125" class="er relationshipLabelBox"/><text style="text-anchor: middle; dominant-baseline: middle; font-size: 12px;" y="208.785400390625" x="2860.573486328125" id="rel26" class="er relationshipLabel">potentialAction</text><rect height="14" width="15.875" y="201.3738555908203" x="2768.181884765625" class="er relationshipLabelBox"/><text style="text-anchor: middle; dominant-baseline: middle; font-size: 12px;" y="208.3738555908203" x="2776.119384765625" id="rel27" class="er relationshipLabel">url</text></svg>