<svg aria-roledescription="er" role="graphics-document document" viewBox="0 0 855.8125 617" style="max-width: 855.812px; background-color: white;" xmlns:xlink="http://www.w3.org/1999/xlink" xmlns="http://www.w3.org/2000/svg" width="100%" id="my-svg"><style>#my-svg{font-family:"trebuchet ms",verdana,arial,sans-serif;font-size:16px;fill:#333;}#my-svg .error-icon{fill:#552222;}#my-svg .error-text{fill:#552222;stroke:#552222;}#my-svg .edge-thickness-normal{stroke-width:1px;}#my-svg .edge-thickness-thick{stroke-width:3.5px;}#my-svg .edge-pattern-solid{stroke-dasharray:0;}#my-svg .edge-thickness-invisible{stroke-width:0;fill:none;}#my-svg .edge-pattern-dashed{stroke-dasharray:3;}#my-svg .edge-pattern-dotted{stroke-dasharray:2;}#my-svg .marker{fill:#333333;stroke:#333333;}#my-svg .marker.cross{stroke:#333333;}#my-svg svg{font-family:"trebuchet ms",verdana,arial,sans-serif;font-size:16px;}#my-svg p{margin:0;}#my-svg .entityBox{fill:#ECECFF;stroke:#9370DB;}#my-svg .attributeBoxOdd{fill:#ffffff;stroke:#9370DB;}#my-svg .attributeBoxEven{fill:#f2f2f2;stroke:#9370DB;}#my-svg .relationshipLabelBox{fill:hsl(80, 100%, 96.2745098039%);opacity:0.7;background-color:hsl(80, 100%, 96.2745098039%);}#my-svg .relationshipLabelBox rect{opacity:0.5;}#my-svg .relationshipLine{stroke:#333333;}#my-svg .entityTitleText{text-anchor:middle;font-size:18px;fill:#333;}#my-svg #MD_PARENT_START{fill:#f5f5f5!important;stroke:#333333!important;stroke-width:1;}#my-svg #MD_PARENT_END{fill:#f5f5f5!important;stroke:#333333!important;stroke-width:1;}#my-svg :root{--mermaid-font-family:"trebuchet ms",verdana,arial,sans-serif;}</style><g/><defs><marker orient="auto" markerHeight="240" markerWidth="190" refY="7" refX="0" id="MD_PARENT_START"><path d="M 18,7 L9,13 L1,7 L9,1 Z"/></marker></defs><defs><marker orient="auto" markerHeight="28" markerWidth="20" refY="7" refX="19" id="MD_PARENT_END"><path d="M 18,7 L9,13 L1,7 L9,1 Z"/></marker></defs><defs><marker orient="auto" markerHeight="18" markerWidth="18" refY="9" refX="0" id="ONLY_ONE_START"><path d="M9,0 L9,18 M15,0 L15,18" fill="none" stroke="gray"/></marker></defs><defs><marker orient="auto" markerHeight="18" markerWidth="18" refY="9" refX="18" id="ONLY_ONE_END"><path d="M3,0 L3,18 M9,0 L9,18" fill="none" stroke="gray"/></marker></defs><defs><marker orient="auto" markerHeight="18" markerWidth="30" refY="9" refX="0" id="ZERO_OR_ONE_START"><circle r="6" cy="9" cx="21" fill="white" stroke="gray"/><path d="M9,0 L9,18" fill="none" stroke="gray"/></marker></defs><defs><marker orient="auto" markerHeight="18" markerWidth="30" refY="9" refX="30" id="ZERO_OR_ONE_END"><circle r="6" cy="9" cx="9" fill="white" stroke="gray"/><path d="M21,0 L21,18" fill="none" stroke="gray"/></marker></defs><defs><marker orient="auto" markerHeight="36" markerWidth="45" refY="18" refX="18" id="ONE_OR_MORE_START"><path d="M0,18 Q 18,0 36,18 Q 18,36 0,18 M42,9 L42,27" fill="none" stroke="gray"/></marker></defs><defs><marker orient="auto" markerHeight="36" markerWidth="45" refY="18" refX="27" id="ONE_OR_MORE_END"><path d="M3,9 L3,27 M9,18 Q27,0 45,18 Q27,36 9,18" fill="none" stroke="gray"/></marker></defs><defs><marker orient="auto" markerHeight="36" markerWidth="57" refY="18" refX="18" id="ZERO_OR_MORE_START"><circle r="6" cy="18" cx="48" fill="white" stroke="gray"/><path d="M0,18 Q18,0 36,18 Q18,36 0,18" fill="none" stroke="gray"/></marker></defs><defs><marker orient="auto" markerHeight="36" markerWidth="57" refY="18" refX="39" id="ZERO_OR_MORE_END"><circle r="6" cy="18" cx="9" fill="white" stroke="gray"/><path d="M21,18 Q39,0 57,18 Q39,36 21,18" fill="none" stroke="gray"/></marker></defs><path style="stroke: gray; fill: none;" marker-start="url(#ONLY_ONE_START)" marker-end="url(#ZERO_OR_MORE_END)" d="M391.428,287.558L341.604,318.298C291.78,349.039,192.132,410.519,142.308,449.593C92.484,488.667,92.484,505.333,92.484,513.667L92.484,522" class="er relationshipLine"/><path style="stroke: gray; fill: none;" marker-start="url(#ONLY_ONE_START)" marker-end="url(#ZERO_OR_MORE_END)" d="M391.428,382.451L381.456,397.376C371.483,412.301,351.538,442.15,341.566,465.408C331.594,488.667,331.594,505.333,331.594,513.667L331.594,522" class="er relationshipLine"/><path style="stroke: gray; fill: none;" marker-start="url(#ONLY_ONE_START)" marker-end="url(#ZERO_OR_MORE_END)" d="M499.305,422L499.305,430.333C499.305,438.667,499.305,455.333,505.753,472C512.202,488.667,525.099,505.333,531.548,513.667L537.997,522" class="er relationshipLine"/><path style="stroke: gray; fill: none;" marker-start="url(#ONLY_ONE_START)" marker-end="url(#ZERO_OR_MORE_END)" d="M601.093,422L605.314,430.333C609.534,438.667,617.974,455.333,616.537,472C615.1,488.667,603.786,505.333,598.129,513.667L592.472,522" class="er relationshipLine"/><path style="stroke: gray; fill: none;" marker-start="url(#ONLY_ONE_START)" marker-end="url(#ZERO_OR_MORE_END)" d="M607.181,315.507L636.953,341.589C666.725,367.672,726.269,419.836,756.041,454.251C785.813,488.667,785.813,505.333,785.813,513.667L785.813,522" class="er relationshipLine"/><g transform="translate(391.42791748046875,20 )" id="entity-MedicalAudience-0b5d0000-86f2-587a-950f-987cf6c3af83"><rect height="402" width="215.7535400390625" y="0" x="0" class="er entityBox"/><text style="dominant-baseline: middle; text-anchor: middle; font-size: 12px;" transform="translate(107.87677001953125,12)" y="0" x="0" id="text-entity-MedicalAudience-0b5d0000-86f2-587a-950f-987cf6c3af83" class="er entityLabel">MedicalAudience</text><rect height="21" width="68.7379150390625" y="24" x="0" class="er attributeBoxOdd"/><text style="dominant-baseline: middle; font-size: 10.2px;" transform="translate(5,34.5)" y="0" x="0" id="text-entity-MedicalAudience-0b5d0000-86f2-587a-950f-987cf6c3af83-attr-1-type" class="er entityLabel">TextList</text><rect height="21" width="147.015625" y="24" x="68.7379150390625" class="er attributeBoxOdd"/><text style="dominant-baseline: middle; font-size: 10.2px;" transform="translate(73.7379150390625,34.5)" y="0" x="0" id="text-entity-MedicalAudience-0b5d0000-86f2-587a-950f-987cf6c3af83-attr-1-name" class="er entityLabel">audienceType</text><rect height="21" width="68.7379150390625" y="45" x="0" class="er attributeBoxEven"/><text style="dominant-baseline: middle; font-size: 10.2px;" transform="translate(5,55.5)" y="0" x="0" id="text-entity-MedicalAudience-0b5d0000-86f2-587a-950f-987cf6c3af83-attr-2-type" class="er entityLabel">TextList</text><rect height="21" width="147.015625" y="45" x="68.7379150390625" class="er attributeBoxEven"/><text style="dominant-baseline: middle; font-size: 10.2px;" transform="translate(73.7379150390625,55.5)" y="0" x="0" id="text-entity-MedicalAudience-0b5d0000-86f2-587a-950f-987cf6c3af83-attr-2-name" class="er entityLabel">requiredGender</text><rect height="21" width="68.7379150390625" y="66" x="0" class="er attributeBoxOdd"/><text style="dominant-baseline: middle; font-size: 10.2px;" transform="translate(5,76.5)" y="0" x="0" id="text-entity-MedicalAudience-0b5d0000-86f2-587a-950f-987cf6c3af83-attr-3-type" class="er entityLabel">IntegerList</text><rect height="21" width="147.015625" y="66" x="68.7379150390625" class="er attributeBoxOdd"/><text style="dominant-baseline: middle; font-size: 10.2px;" transform="translate(73.7379150390625,76.5)" y="0" x="0" id="text-entity-MedicalAudience-0b5d0000-86f2-587a-950f-987cf6c3af83-attr-3-name" class="er entityLabel">requiredMaxAge</text><rect height="21" width="68.7379150390625" y="87" x="0" class="er attributeBoxEven"/><text style="dominant-baseline: middle; font-size: 10.2px;" transform="translate(5,97.5)" y="0" x="0" id="text-entity-MedicalAudience-0b5d0000-86f2-587a-950f-987cf6c3af83-attr-4-type" class="er entityLabel">IntegerList</text><rect height="21" width="147.015625" y="87" x="68.7379150390625" class="er attributeBoxEven"/><text style="dominant-baseline: middle; font-size: 10.2px;" transform="translate(73.7379150390625,97.5)" y="0" x="0" id="text-entity-MedicalAudience-0b5d0000-86f2-587a-950f-987cf6c3af83-attr-4-name" class="er entityLabel">requiredMinAge</text><rect height="21" width="68.7379150390625" y="108" x="0" class="er attributeBoxOdd"/><text style="dominant-baseline: middle; font-size: 10.2px;" transform="translate(5,118.5)" y="0" x="0" id="text-entity-MedicalAudience-0b5d0000-86f2-587a-950f-987cf6c3af83-attr-5-type" class="er entityLabel">stringList</text><rect height="21" width="147.015625" y="108" x="68.7379150390625" class="er attributeBoxOdd"/><text style="dominant-baseline: middle; font-size: 10.2px;" transform="translate(73.7379150390625,118.5)" y="0" x="0" id="text-entity-MedicalAudience-0b5d0000-86f2-587a-950f-987cf6c3af83-attr-5-name" class="er entityLabel">suggestedGender</text><rect height="21" width="68.7379150390625" y="129" x="0" class="er attributeBoxEven"/><text style="dominant-baseline: middle; font-size: 10.2px;" transform="translate(5,139.5)" y="0" x="0" id="text-entity-MedicalAudience-0b5d0000-86f2-587a-950f-987cf6c3af83-attr-6-type" class="er entityLabel">NumberList</text><rect height="21" width="147.015625" y="129" x="68.7379150390625" class="er attributeBoxEven"/><text style="dominant-baseline: middle; font-size: 10.2px;" transform="translate(73.7379150390625,139.5)" y="0" x="0" id="text-entity-MedicalAudience-0b5d0000-86f2-587a-950f-987cf6c3af83-attr-6-name" class="er entityLabel">suggestedMaxAge</text><rect height="21" width="68.7379150390625" y="150" x="0" class="er attributeBoxOdd"/><text style="dominant-baseline: middle; font-size: 10.2px;" transform="translate(5,160.5)" y="0" x="0" id="text-entity-MedicalAudience-0b5d0000-86f2-587a-950f-987cf6c3af83-attr-7-type" class="er entityLabel">NumberList</text><rect height="21" width="147.015625" y="150" x="68.7379150390625" class="er attributeBoxOdd"/><text style="dominant-baseline: middle; font-size: 10.2px;" transform="translate(73.7379150390625,160.5)" y="0" x="0" id="text-entity-MedicalAudience-0b5d0000-86f2-587a-950f-987cf6c3af83-attr-7-name" class="er entityLabel">suggestedMinAge</text><rect height="21" width="68.7379150390625" y="171" x="0" class="er attributeBoxEven"/><text style="dominant-baseline: middle; font-size: 10.2px;" transform="translate(5,181.5)" y="0" x="0" id="text-entity-MedicalAudience-0b5d0000-86f2-587a-950f-987cf6c3af83-attr-8-type" class="er entityLabel">stringList</text><rect height="21" width="147.015625" y="171" x="68.7379150390625" class="er attributeBoxEven"/><text style="dominant-baseline: middle; font-size: 10.2px;" transform="translate(73.7379150390625,181.5)" y="0" x="0" id="text-entity-MedicalAudience-0b5d0000-86f2-587a-950f-987cf6c3af83-attr-8-name" class="er entityLabel">additionalType</text><rect height="21" width="68.7379150390625" y="192" x="0" class="er attributeBoxOdd"/><text style="dominant-baseline: middle; font-size: 10.2px;" transform="translate(5,202.5)" y="0" x="0" id="text-entity-MedicalAudience-0b5d0000-86f2-587a-950f-987cf6c3af83-attr-9-type" class="er entityLabel">TextList</text><rect height="21" width="147.015625" y="192" x="68.7379150390625" class="er attributeBoxOdd"/><text style="dominant-baseline: middle; font-size: 10.2px;" transform="translate(73.7379150390625,202.5)" y="0" x="0" id="text-entity-MedicalAudience-0b5d0000-86f2-587a-950f-987cf6c3af83-attr-9-name" class="er entityLabel">alternateName</text><rect height="21" width="68.7379150390625" y="213" x="0" class="er attributeBoxEven"/><text style="dominant-baseline: middle; font-size: 10.2px;" transform="translate(5,223.5)" y="0" x="0" id="text-entity-MedicalAudience-0b5d0000-86f2-587a-950f-987cf6c3af83-attr-10-type" class="er entityLabel">stringList</text><rect height="21" width="147.015625" y="213" x="68.7379150390625" class="er attributeBoxEven"/><text style="dominant-baseline: middle; font-size: 10.2px;" transform="translate(73.7379150390625,223.5)" y="0" x="0" id="text-entity-MedicalAudience-0b5d0000-86f2-587a-950f-987cf6c3af83-attr-10-name" class="er entityLabel">description</text><rect height="21" width="68.7379150390625" y="234" x="0" class="er attributeBoxOdd"/><text style="dominant-baseline: middle; font-size: 10.2px;" transform="translate(5,244.5)" y="0" x="0" id="text-entity-MedicalAudience-0b5d0000-86f2-587a-950f-987cf6c3af83-attr-11-type" class="er entityLabel">TextList</text><rect height="21" width="147.015625" y="234" x="68.7379150390625" class="er attributeBoxOdd"/><text style="dominant-baseline: middle; font-size: 10.2px;" transform="translate(73.7379150390625,244.5)" y="0" x="0" id="text-entity-MedicalAudience-0b5d0000-86f2-587a-950f-987cf6c3af83-attr-11-name" class="er entityLabel">disambiguatingDescription</text><rect height="21" width="68.7379150390625" y="255" x="0" class="er attributeBoxEven"/><text style="dominant-baseline: middle; font-size: 10.2px;" transform="translate(5,265.5)" y="0" x="0" id="text-entity-MedicalAudience-0b5d0000-86f2-587a-950f-987cf6c3af83-attr-12-type" class="er entityLabel">stringList</text><rect height="21" width="147.015625" y="255" x="68.7379150390625" class="er attributeBoxEven"/><text style="dominant-baseline: middle; font-size: 10.2px;" transform="translate(73.7379150390625,265.5)" y="0" x="0" id="text-entity-MedicalAudience-0b5d0000-86f2-587a-950f-987cf6c3af83-attr-12-name" class="er entityLabel">identifier</text><rect height="21" width="68.7379150390625" y="276" x="0" class="er attributeBoxOdd"/><text style="dominant-baseline: middle; font-size: 10.2px;" transform="translate(5,286.5)" y="0" x="0" id="text-entity-MedicalAudience-0b5d0000-86f2-587a-950f-987cf6c3af83-attr-13-type" class="er entityLabel">stringList</text><rect height="21" width="147.015625" y="276" x="68.7379150390625" class="er attributeBoxOdd"/><text style="dominant-baseline: middle; font-size: 10.2px;" transform="translate(73.7379150390625,286.5)" y="0" x="0" id="text-entity-MedicalAudience-0b5d0000-86f2-587a-950f-987cf6c3af83-attr-13-name" class="er entityLabel">image</text><rect height="21" width="68.7379150390625" y="297" x="0" class="er attributeBoxEven"/><text style="dominant-baseline: middle; font-size: 10.2px;" transform="translate(5,307.5)" y="0" x="0" id="text-entity-MedicalAudience-0b5d0000-86f2-587a-950f-987cf6c3af83-attr-14-type" class="er entityLabel">TextList</text><rect height="21" width="147.015625" y="297" x="68.7379150390625" class="er attributeBoxEven"/><text style="dominant-baseline: middle; font-size: 10.2px;" transform="translate(73.7379150390625,307.5)" y="0" x="0" id="text-entity-MedicalAudience-0b5d0000-86f2-587a-950f-987cf6c3af83-attr-14-name" class="er entityLabel">name</text><rect height="21" width="68.7379150390625" y="318" x="0" class="er attributeBoxOdd"/><text style="dominant-baseline: middle; font-size: 10.2px;" transform="translate(5,328.5)" y="0" x="0" id="text-entity-MedicalAudience-0b5d0000-86f2-587a-950f-987cf6c3af83-attr-15-type" class="er entityLabel">URLList</text><rect height="21" width="147.015625" y="318" x="68.7379150390625" class="er attributeBoxOdd"/><text style="dominant-baseline: middle; font-size: 10.2px;" transform="translate(73.7379150390625,328.5)" y="0" x="0" id="text-entity-MedicalAudience-0b5d0000-86f2-587a-950f-987cf6c3af83-attr-15-name" class="er entityLabel">sameAs</text><rect height="21" width="68.7379150390625" y="339" x="0" class="er attributeBoxEven"/><text style="dominant-baseline: middle; font-size: 10.2px;" transform="translate(5,349.5)" y="0" x="0" id="text-entity-MedicalAudience-0b5d0000-86f2-587a-950f-987cf6c3af83-attr-16-type" class="er entityLabel">stringList</text><rect height="21" width="147.015625" y="339" x="68.7379150390625" class="er attributeBoxEven"/><text style="dominant-baseline: middle; font-size: 10.2px;" transform="translate(73.7379150390625,349.5)" y="0" x="0" id="text-entity-MedicalAudience-0b5d0000-86f2-587a-950f-987cf6c3af83-attr-16-name" class="er entityLabel">mainEntityOfPage</text><rect height="21" width="68.7379150390625" y="360" x="0" class="er attributeBoxOdd"/><text style="dominant-baseline: middle; font-size: 10.2px;" transform="translate(5,370.5)" y="0" x="0" id="text-entity-MedicalAudience-0b5d0000-86f2-587a-950f-987cf6c3af83-attr-17-type" class="er entityLabel">stringList</text><rect height="21" width="147.015625" y="360" x="68.7379150390625" class="er attributeBoxOdd"/><text style="dominant-baseline: middle; font-size: 10.2px;" transform="translate(73.7379150390625,370.5)" y="0" x="0" id="text-entity-MedicalAudience-0b5d0000-86f2-587a-950f-987cf6c3af83-attr-17-name" class="er entityLabel">subjectOf</text><rect height="21" width="68.7379150390625" y="381" x="0" class="er attributeBoxEven"/><text style="dominant-baseline: middle; font-size: 10.2px;" transform="translate(5,391.5)" y="0" x="0" id="text-entity-MedicalAudience-0b5d0000-86f2-587a-950f-987cf6c3af83-attr-18-type" class="er entityLabel">URLList</text><rect height="21" width="147.015625" y="381" x="68.7379150390625" class="er attributeBoxEven"/><text style="dominant-baseline: middle; font-size: 10.2px;" transform="translate(73.7379150390625,391.5)" y="0" x="0" id="text-entity-MedicalAudience-0b5d0000-86f2-587a-950f-987cf6c3af83-attr-18-name" class="er entityLabel">url</text></g><g transform="translate(20,522 )" id="entity-AdministrativeArea-148f6b29-78f8-5892-bd48-04ae3b68a278"><rect height="75" width="144.96875" y="0" x="0" class="er entityBox"/><text style="dominant-baseline: middle; text-anchor: middle; font-size: 12px;" transform="translate(72.484375,37.5)" y="0" x="0" id="text-entity-AdministrativeArea-148f6b29-78f8-5892-bd48-04ae3b68a278" class="er entityLabel">AdministrativeArea</text></g><g transform="translate(264.96875,522 )" id="entity-MedicalCondition-a93e7da7-17aa-5f46-8e3a-8f90076b9104"><rect height="75" width="133.25" y="0" x="0" class="er entityBox"/><text style="dominant-baseline: middle; text-anchor: middle; font-size: 12px;" transform="translate(66.625,37.5)" y="0" x="0" id="text-entity-MedicalCondition-a93e7da7-17aa-5f46-8e3a-8f90076b9104" class="er entityLabel">MedicalCondition</text></g><g transform="translate(498.21875,522 )" id="entity-QuantitativeValue-3d19db81-2acf-5dcd-99e0-52d6a275eca4"><rect height="75" width="137.59375" y="0" x="0" class="er entityBox"/><text style="dominant-baseline: middle; text-anchor: middle; font-size: 12px;" transform="translate(68.796875,37.5)" y="0" x="0" id="text-entity-QuantitativeValue-3d19db81-2acf-5dcd-99e0-52d6a275eca4" class="er entityLabel">QuantitativeValue</text></g><g transform="translate(735.8125,522 )" id="entity-Action-6cd87d9a-a078-546e-a35b-bee54f477b31"><rect height="75" width="100" y="0" x="0" class="er entityBox"/><text style="dominant-baseline: middle; text-anchor: middle; font-size: 12px;" transform="translate(50,37.5)" y="0" x="0" id="text-entity-Action-6cd87d9a-a078-546e-a35b-bee54f477b31" class="er entityLabel">Action</text></g><rect height="14" width="95.015625" y="383.8752746582031" x="178.9561004638672" class="er relationshipLabelBox"/><text style="text-anchor: middle; dominant-baseline: middle; font-size: 12px;" y="390.8752746582031" x="226.4639129638672" id="rel1" class="er relationshipLabel">geographicArea</text><rect height="14" width="95.25" y="440.9393310546875" x="302.5050354003906" class="er relationshipLabelBox"/><text style="text-anchor: middle; dominant-baseline: middle; font-size: 12px;" y="447.9393310546875" x="350.1300354003906" id="rel2" class="er relationshipLabel">healthCondition</text><rect height="14" width="85.640625" y="469.132568359375" x="464.658935546875" class="er relationshipLabelBox"/><text style="text-anchor: middle; dominant-baseline: middle; font-size: 12px;" y="476.132568359375" x="507.479248046875" id="rel3" class="er relationshipLabel">suggestedAge</text><rect height="14" width="145.109375" y="466.51763916015625" x="543.8243408203125" class="er relationshipLabelBox"/><text style="text-anchor: middle; dominant-baseline: middle; font-size: 12px;" y="473.51763916015625" x="616.3790283203125" id="rel4" class="er relationshipLabel">suggestedMeasurement</text><rect height="14" width="90.96875" y="401.79608154296875" x="665.9967041015625" class="er relationshipLabelBox"/><text style="text-anchor: middle; dominant-baseline: middle; font-size: 12px;" y="408.79608154296875" x="711.4810791015625" id="rel5" class="er relationshipLabel">potentialAction</text></svg>