<svg aria-roledescription="er" role="graphics-document document" viewBox="0 0 3034.8125 428" style="max-width: 3034.81px; background-color: white;" xmlns:xlink="http://www.w3.org/1999/xlink" xmlns="http://www.w3.org/2000/svg" width="100%" id="my-svg"><style>#my-svg{font-family:"trebuchet ms",verdana,arial,sans-serif;font-size:16px;fill:#333;}#my-svg .error-icon{fill:#552222;}#my-svg .error-text{fill:#552222;stroke:#552222;}#my-svg .edge-thickness-normal{stroke-width:1px;}#my-svg .edge-thickness-thick{stroke-width:3.5px;}#my-svg .edge-pattern-solid{stroke-dasharray:0;}#my-svg .edge-thickness-invisible{stroke-width:0;fill:none;}#my-svg .edge-pattern-dashed{stroke-dasharray:3;}#my-svg .edge-pattern-dotted{stroke-dasharray:2;}#my-svg .marker{fill:#333333;stroke:#333333;}#my-svg .marker.cross{stroke:#333333;}#my-svg svg{font-family:"trebuchet ms",verdana,arial,sans-serif;font-size:16px;}#my-svg p{margin:0;}#my-svg .entityBox{fill:#ECECFF;stroke:#9370DB;}#my-svg .attributeBoxOdd{fill:#ffffff;stroke:#9370DB;}#my-svg .attributeBoxEven{fill:#f2f2f2;stroke:#9370DB;}#my-svg .relationshipLabelBox{fill:hsl(80, 100%, 96.2745098039%);opacity:0.7;background-color:hsl(80, 100%, 96.2745098039%);}#my-svg .relationshipLabelBox rect{opacity:0.5;}#my-svg .relationshipLine{stroke:#333333;}#my-svg .entityTitleText{text-anchor:middle;font-size:18px;fill:#333;}#my-svg #MD_PARENT_START{fill:#f5f5f5!important;stroke:#333333!important;stroke-width:1;}#my-svg #MD_PARENT_END{fill:#f5f5f5!important;stroke:#333333!important;stroke-width:1;}#my-svg :root{--mermaid-font-family:"trebuchet ms",verdana,arial,sans-serif;}</style><g/><defs><marker orient="auto" markerHeight="240" markerWidth="190" refY="7" refX="0" id="MD_PARENT_START"><path d="M 18,7 L9,13 L1,7 L9,1 Z"/></marker></defs><defs><marker orient="auto" markerHeight="28" markerWidth="20" refY="7" refX="19" id="MD_PARENT_END"><path d="M 18,7 L9,13 L1,7 L9,1 Z"/></marker></defs><defs><marker orient="auto" markerHeight="18" markerWidth="18" refY="9" refX="0" id="ONLY_ONE_START"><path d="M9,0 L9,18 M15,0 L15,18" fill="none" stroke="gray"/></marker></defs><defs><marker orient="auto" markerHeight="18" markerWidth="18" refY="9" refX="18" id="ONLY_ONE_END"><path d="M3,0 L3,18 M9,0 L9,18" fill="none" stroke="gray"/></marker></defs><defs><marker orient="auto" markerHeight="18" markerWidth="30" refY="9" refX="0" id="ZERO_OR_ONE_START"><circle r="6" cy="9" cx="21" fill="white" stroke="gray"/><path d="M9,0 L9,18" fill="none" stroke="gray"/></marker></defs><defs><marker orient="auto" markerHeight="18" markerWidth="30" refY="9" refX="30" id="ZERO_OR_ONE_END"><circle r="6" cy="9" cx="9" fill="white" stroke="gray"/><path d="M21,0 L21,18" fill="none" stroke="gray"/></marker></defs><defs><marker orient="auto" markerHeight="36" markerWidth="45" refY="18" refX="18" id="ONE_OR_MORE_START"><path d="M0,18 Q 18,0 36,18 Q 18,36 0,18 M42,9 L42,27" fill="none" stroke="gray"/></marker></defs><defs><marker orient="auto" markerHeight="36" markerWidth="45" refY="18" refX="27" id="ONE_OR_MORE_END"><path d="M3,9 L3,27 M9,18 Q27,0 45,18 Q27,36 9,18" fill="none" stroke="gray"/></marker></defs><defs><marker orient="auto" markerHeight="36" markerWidth="57" refY="18" refX="18" id="ZERO_OR_MORE_START"><circle r="6" cy="18" cx="48" fill="white" stroke="gray"/><path d="M0,18 Q18,0 36,18 Q18,36 0,18" fill="none" stroke="gray"/></marker></defs><defs><marker orient="auto" markerHeight="36" markerWidth="57" refY="18" refX="39" id="ZERO_OR_MORE_END"><circle r="6" cy="18" cx="9" fill="white" stroke="gray"/><path d="M21,18 Q39,0 57,18 Q39,36 21,18" fill="none" stroke="gray"/></marker></defs><path style="stroke: gray; fill: none;" marker-start="url(#ONLY_ONE_START)" marker-end="url(#ZERO_OR_MORE_END)" d="M1793.203,133.463L1509.497,158.386C1225.792,183.309,658.38,233.154,374.674,266.411C90.969,299.667,90.969,316.333,90.969,324.667L90.969,333" class="er relationshipLine"/><path style="stroke: gray; fill: none;" marker-start="url(#ONLY_ONE_START)" marker-end="url(#ZERO_OR_MORE_END)" d="M1793.203,134.535L1549.096,159.279C1304.99,184.023,816.776,233.512,572.669,266.589C328.563,299.667,328.563,316.333,328.563,324.667L328.563,333" class="er relationshipLine"/><path style="stroke: gray; fill: none;" marker-start="url(#ONLY_ONE_START)" marker-end="url(#ZERO_OR_MORE_END)" d="M1793.203,136.007L1588.948,160.506C1384.693,185.005,976.182,234.002,771.927,266.835C567.672,299.667,567.672,316.333,567.672,324.667L567.672,333" class="er relationshipLine"/><path style="stroke: gray; fill: none;" marker-start="url(#ONLY_ONE_START)" marker-end="url(#ZERO_OR_MORE_END)" d="M1793.203,138.02L1626.947,162.184C1460.69,186.347,1128.177,234.673,961.921,267.17C795.664,299.667,795.664,316.333,795.664,324.667L795.664,333" class="er relationshipLine"/><path style="stroke: gray; fill: none;" marker-start="url(#ONLY_ONE_START)" marker-end="url(#ZERO_OR_MORE_END)" d="M1793.203,140.792L1661.757,164.494C1530.31,188.195,1267.417,235.597,1135.97,267.632C1004.523,299.667,1004.523,316.333,1004.523,324.667L1004.523,333" class="er relationshipLine"/><path style="stroke: gray; fill: none;" marker-start="url(#ONLY_ONE_START)" marker-end="url(#ZERO_OR_MORE_END)" d="M1793.203,145.166L1695.648,168.138C1598.094,191.11,1402.984,237.055,1305.43,268.361C1207.875,299.667,1207.875,316.333,1207.875,324.667L1207.875,333" class="er relationshipLine"/><path style="stroke: gray; fill: none;" marker-start="url(#ONLY_ONE_START)" marker-end="url(#ZERO_OR_MORE_END)" d="M1793.203,154.18L1731.721,175.65C1670.24,197.12,1547.276,240.06,1485.794,269.863C1424.313,299.667,1424.313,316.333,1424.313,324.667L1424.313,333" class="er relationshipLine"/><path style="stroke: gray; fill: none;" marker-start="url(#ONLY_ONE_START)" marker-end="url(#ZERO_OR_MORE_END)" d="M1793.203,183.525L1770.158,200.104C1747.112,216.683,1701.021,249.842,1677.975,274.754C1654.93,299.667,1654.93,316.333,1654.93,324.667L1654.93,333" class="er relationshipLine"/><path style="stroke: gray; fill: none;" marker-start="url(#ONLY_ONE_START)" marker-end="url(#ZERO_OR_MORE_END)" d="M1872.469,233L1872.469,241.333C1872.469,249.667,1872.469,266.333,1872.469,283C1872.469,299.667,1872.469,316.333,1872.469,324.667L1872.469,333" class="er relationshipLine"/><path style="stroke: gray; fill: none;" marker-start="url(#ONLY_ONE_START)" marker-end="url(#ZERO_OR_MORE_END)" d="M1951.734,183.179L1975.001,199.815C1998.268,216.452,2044.802,249.726,2068.069,274.696C2091.336,299.667,2091.336,316.333,2091.336,324.667L2091.336,333" class="er relationshipLine"/><path style="stroke: gray; fill: none;" marker-start="url(#ONLY_ONE_START)" marker-end="url(#ZERO_OR_MORE_END)" d="M1951.734,154.713L2011.805,176.094C2071.875,197.476,2192.016,240.238,2252.086,269.952C2312.156,299.667,2312.156,316.333,2312.156,324.667L2312.156,333" class="er relationshipLine"/><path style="stroke: gray; fill: none;" marker-start="url(#ONLY_ONE_START)" marker-end="url(#ZERO_OR_MORE_END)" d="M1951.734,149.373L2028.914,171.644C2106.094,193.915,2260.453,238.458,2354.299,270.451C2448.146,302.444,2481.479,321.889,2498.146,331.611L2514.813,341.333" class="er relationshipLine"/><path style="stroke: gray; fill: none;" marker-start="url(#ONLY_ONE_START)" marker-end="url(#ZERO_OR_MORE_END)" d="M1951.734,145.812L2045.581,168.677C2139.427,191.541,2327.12,237.271,2425.728,268.469C2524.336,299.667,2533.86,316.333,2538.622,324.667L2543.384,333" class="er relationshipLine"/><path style="stroke: gray; fill: none;" marker-start="url(#ONLY_ONE_START)" marker-end="url(#ZERO_OR_MORE_END)" d="M1951.734,143.211L2062.247,166.509C2172.76,189.807,2393.786,236.404,2499.538,268.035C2605.289,299.667,2595.765,316.333,2591.003,324.667L2586.241,333" class="er relationshipLine"/><path style="stroke: gray; fill: none;" marker-start="url(#ONLY_ONE_START)" marker-end="url(#ZERO_OR_MORE_END)" d="M1951.734,141.227L2078.914,164.856C2206.094,188.485,2460.453,235.742,2592.395,267.704C2724.336,299.667,2733.86,316.333,2738.622,324.667L2743.384,333" class="er relationshipLine"/><path style="stroke: gray; fill: none;" marker-start="url(#ONLY_ONE_START)" marker-end="url(#ZERO_OR_MORE_END)" d="M1951.734,137.856L2120.581,162.047C2289.427,186.238,2627.12,234.619,2795.966,267.143C2964.813,299.667,2964.813,316.333,2964.813,324.667L2964.813,333" class="er relationshipLine"/><path style="stroke: gray; fill: none;" marker-start="url(#ONLY_ONE_START)" marker-end="url(#ZERO_OR_MORE_END)" d="M1951.734,139.664L2095.581,163.553C2239.427,187.443,2527.12,235.221,2666.204,267.444C2805.289,299.667,2795.765,316.333,2791.003,324.667L2786.241,333" class="er relationshipLine"/><g transform="translate(1793.203125,20 )" id="entity-MedicalTrial-7722ce7e-db7c-57d3-80fe-2d4aef8d4526"><rect height="213" width="158.53125" y="0" x="0" class="er entityBox"/><text style="dominant-baseline: middle; text-anchor: middle; font-size: 12px;" transform="translate(79.265625,12)" y="0" x="0" id="text-entity-MedicalTrial-7722ce7e-db7c-57d3-80fe-2d4aef8d4526" class="er entityLabel">MedicalTrial</text><rect height="21" width="57.0625" y="24" x="0" class="er attributeBoxOdd"/><text style="dominant-baseline: middle; font-size: 10.2px;" transform="translate(5,34.5)" y="0" x="0" id="text-entity-MedicalTrial-7722ce7e-db7c-57d3-80fe-2d4aef8d4526-attr-1-type" class="er entityLabel">stringList</text><rect height="21" width="101.46875" y="24" x="57.0625" class="er attributeBoxOdd"/><text style="dominant-baseline: middle; font-size: 10.2px;" transform="translate(62.0625,34.5)" y="0" x="0" id="text-entity-MedicalTrial-7722ce7e-db7c-57d3-80fe-2d4aef8d4526-attr-1-name" class="er entityLabel">sponsor</text><rect height="21" width="57.0625" y="45" x="0" class="er attributeBoxEven"/><text style="dominant-baseline: middle; font-size: 10.2px;" transform="translate(5,55.5)" y="0" x="0" id="text-entity-MedicalTrial-7722ce7e-db7c-57d3-80fe-2d4aef8d4526-attr-2-type" class="er entityLabel">stringList</text><rect height="21" width="101.46875" y="45" x="57.0625" class="er attributeBoxEven"/><text style="dominant-baseline: middle; font-size: 10.2px;" transform="translate(62.0625,55.5)" y="0" x="0" id="text-entity-MedicalTrial-7722ce7e-db7c-57d3-80fe-2d4aef8d4526-attr-2-name" class="er entityLabel">status</text><rect height="21" width="57.0625" y="66" x="0" class="er attributeBoxOdd"/><text style="dominant-baseline: middle; font-size: 10.2px;" transform="translate(5,76.5)" y="0" x="0" id="text-entity-MedicalTrial-7722ce7e-db7c-57d3-80fe-2d4aef8d4526-attr-3-type" class="er entityLabel">stringList</text><rect height="21" width="101.46875" y="66" x="57.0625" class="er attributeBoxOdd"/><text style="dominant-baseline: middle; font-size: 10.2px;" transform="translate(62.0625,76.5)" y="0" x="0" id="text-entity-MedicalTrial-7722ce7e-db7c-57d3-80fe-2d4aef8d4526-attr-3-name" class="er entityLabel">legalStatus</text><rect height="21" width="57.0625" y="87" x="0" class="er attributeBoxEven"/><text style="dominant-baseline: middle; font-size: 10.2px;" transform="translate(5,97.5)" y="0" x="0" id="text-entity-MedicalTrial-7722ce7e-db7c-57d3-80fe-2d4aef8d4526-attr-4-type" class="er entityLabel">stringList</text><rect height="21" width="101.46875" y="87" x="57.0625" class="er attributeBoxEven"/><text style="dominant-baseline: middle; font-size: 10.2px;" transform="translate(62.0625,97.5)" y="0" x="0" id="text-entity-MedicalTrial-7722ce7e-db7c-57d3-80fe-2d4aef8d4526-attr-4-name" class="er entityLabel">additionalType</text><rect height="21" width="57.0625" y="108" x="0" class="er attributeBoxOdd"/><text style="dominant-baseline: middle; font-size: 10.2px;" transform="translate(5,118.5)" y="0" x="0" id="text-entity-MedicalTrial-7722ce7e-db7c-57d3-80fe-2d4aef8d4526-attr-5-type" class="er entityLabel">stringList</text><rect height="21" width="101.46875" y="108" x="57.0625" class="er attributeBoxOdd"/><text style="dominant-baseline: middle; font-size: 10.2px;" transform="translate(62.0625,118.5)" y="0" x="0" id="text-entity-MedicalTrial-7722ce7e-db7c-57d3-80fe-2d4aef8d4526-attr-5-name" class="er entityLabel">description</text><rect height="21" width="57.0625" y="129" x="0" class="er attributeBoxEven"/><text style="dominant-baseline: middle; font-size: 10.2px;" transform="translate(5,139.5)" y="0" x="0" id="text-entity-MedicalTrial-7722ce7e-db7c-57d3-80fe-2d4aef8d4526-attr-6-type" class="er entityLabel">stringList</text><rect height="21" width="101.46875" y="129" x="57.0625" class="er attributeBoxEven"/><text style="dominant-baseline: middle; font-size: 10.2px;" transform="translate(62.0625,139.5)" y="0" x="0" id="text-entity-MedicalTrial-7722ce7e-db7c-57d3-80fe-2d4aef8d4526-attr-6-name" class="er entityLabel">identifier</text><rect height="21" width="57.0625" y="150" x="0" class="er attributeBoxOdd"/><text style="dominant-baseline: middle; font-size: 10.2px;" transform="translate(5,160.5)" y="0" x="0" id="text-entity-MedicalTrial-7722ce7e-db7c-57d3-80fe-2d4aef8d4526-attr-7-type" class="er entityLabel">stringList</text><rect height="21" width="101.46875" y="150" x="57.0625" class="er attributeBoxOdd"/><text style="dominant-baseline: middle; font-size: 10.2px;" transform="translate(62.0625,160.5)" y="0" x="0" id="text-entity-MedicalTrial-7722ce7e-db7c-57d3-80fe-2d4aef8d4526-attr-7-name" class="er entityLabel">image</text><rect height="21" width="57.0625" y="171" x="0" class="er attributeBoxEven"/><text style="dominant-baseline: middle; font-size: 10.2px;" transform="translate(5,181.5)" y="0" x="0" id="text-entity-MedicalTrial-7722ce7e-db7c-57d3-80fe-2d4aef8d4526-attr-8-type" class="er entityLabel">stringList</text><rect height="21" width="101.46875" y="171" x="57.0625" class="er attributeBoxEven"/><text style="dominant-baseline: middle; font-size: 10.2px;" transform="translate(62.0625,181.5)" y="0" x="0" id="text-entity-MedicalTrial-7722ce7e-db7c-57d3-80fe-2d4aef8d4526-attr-8-name" class="er entityLabel">mainEntityOfPage</text><rect height="21" width="57.0625" y="192" x="0" class="er attributeBoxOdd"/><text style="dominant-baseline: middle; font-size: 10.2px;" transform="translate(5,202.5)" y="0" x="0" id="text-entity-MedicalTrial-7722ce7e-db7c-57d3-80fe-2d4aef8d4526-attr-9-type" class="er entityLabel">stringList</text><rect height="21" width="101.46875" y="192" x="57.0625" class="er attributeBoxOdd"/><text style="dominant-baseline: middle; font-size: 10.2px;" transform="translate(62.0625,202.5)" y="0" x="0" id="text-entity-MedicalTrial-7722ce7e-db7c-57d3-80fe-2d4aef8d4526-attr-9-name" class="er entityLabel">subjectOf</text></g><g transform="translate(20,333 )" id="entity-MedicalTrialDesign-71610ed9-7387-5292-88cf-bd79fa42f33a"><rect height="75" width="141.9375" y="0" x="0" class="er entityBox"/><text style="dominant-baseline: middle; text-anchor: middle; font-size: 12px;" transform="translate(70.96875,37.5)" y="0" x="0" id="text-entity-MedicalTrialDesign-71610ed9-7387-5292-88cf-bd79fa42f33a" class="er entityLabel">MedicalTrialDesign</text></g><g transform="translate(261.9375,333 )" id="entity-MedicalCondition-a93e7da7-17aa-5f46-8e3a-8f90076b9104"><rect height="75" width="133.25" y="0" x="0" class="er entityBox"/><text style="dominant-baseline: middle; text-anchor: middle; font-size: 12px;" transform="translate(66.625,37.5)" y="0" x="0" id="text-entity-MedicalCondition-a93e7da7-17aa-5f46-8e3a-8f90076b9104" class="er entityLabel">MedicalCondition</text></g><g transform="translate(495.1875,333 )" id="entity-AdministrativeArea-148f6b29-78f8-5892-bd48-04ae3b68a278"><rect height="75" width="144.96875" y="0" x="0" class="er entityBox"/><text style="dominant-baseline: middle; text-anchor: middle; font-size: 12px;" transform="translate(72.484375,37.5)" y="0" x="0" id="text-entity-AdministrativeArea-148f6b29-78f8-5892-bd48-04ae3b68a278" class="er entityLabel">AdministrativeArea</text></g><g transform="translate(740.15625,333 )" id="entity-MedicalEntity-da7f22f1-1df3-52b4-9ce4-a5e4f6d6add9"><rect height="75" width="111.015625" y="0" x="0" class="er entityBox"/><text style="dominant-baseline: middle; text-anchor: middle; font-size: 12px;" transform="translate(55.5078125,37.5)" y="0" x="0" id="text-entity-MedicalEntity-da7f22f1-1df3-52b4-9ce4-a5e4f6d6add9" class="er entityLabel">MedicalEntity</text></g><g transform="translate(951.171875,333 )" id="entity-MedicalCode-340ab1f3-b0e0-51ff-b309-32031f623ceb"><rect height="75" width="106.703125" y="0" x="0" class="er entityBox"/><text style="dominant-baseline: middle; text-anchor: middle; font-size: 12px;" transform="translate(53.3515625,37.5)" y="0" x="0" id="text-entity-MedicalCode-340ab1f3-b0e0-51ff-b309-32031f623ceb" class="er entityLabel">MedicalCode</text></g><g transform="translate(1157.875,333 )" id="entity-Grant-291daf2c-8722-576f-890e-1045bc6484c0"><rect height="75" width="100" y="0" x="0" class="er entityBox"/><text style="dominant-baseline: middle; text-anchor: middle; font-size: 12px;" transform="translate(50,37.5)" y="0" x="0" id="text-entity-Grant-291daf2c-8722-576f-890e-1045bc6484c0" class="er entityLabel">Grant</text></g><g transform="translate(1357.875,333 )" id="entity-MedicalGuideline-a05959e1-803b-55cd-8b3c-b530a54fde23"><rect height="75" width="132.875" y="0" x="0" class="er entityBox"/><text style="dominant-baseline: middle; text-anchor: middle; font-size: 12px;" transform="translate(66.4375,37.5)" y="0" x="0" id="text-entity-MedicalGuideline-a05959e1-803b-55cd-8b3c-b530a54fde23" class="er entityLabel">MedicalGuideline</text></g><g transform="translate(1590.75,333 )" id="entity-MedicineSystem-74197b84-67e0-5471-ab59-f3fd7c3c0e72"><rect height="75" width="128.359375" y="0" x="0" class="er entityBox"/><text style="dominant-baseline: middle; text-anchor: middle; font-size: 12px;" transform="translate(64.1796875,37.5)" y="0" x="0" id="text-entity-MedicineSystem-74197b84-67e0-5471-ab59-f3fd7c3c0e72" class="er entityLabel">MedicineSystem</text></g><g transform="translate(1819.109375,333 )" id="entity-Organization-ef1721ab-1f62-5ef5-a525-a6c60c2f6032"><rect height="75" width="106.71875" y="0" x="0" class="er entityBox"/><text style="dominant-baseline: middle; text-anchor: middle; font-size: 12px;" transform="translate(53.359375,37.5)" y="0" x="0" id="text-entity-Organization-ef1721ab-1f62-5ef5-a525-a6c60c2f6032" class="er entityLabel">Organization</text></g><g transform="translate(2025.828125,333 )" id="entity-MedicalSpecialty-0f4a20d3-5a5d-5b81-b412-da395afebba8"><rect height="75" width="131.015625" y="0" x="0" class="er entityBox"/><text style="dominant-baseline: middle; text-anchor: middle; font-size: 12px;" transform="translate(65.5078125,37.5)" y="0" x="0" id="text-entity-MedicalSpecialty-0f4a20d3-5a5d-5b81-b412-da395afebba8" class="er entityLabel">MedicalSpecialty</text></g><g transform="translate(2256.84375,333 )" id="entity-MedicalStudy-22dea251-12b7-5654-af29-afad6ffe12b1"><rect height="75" width="110.625" y="0" x="0" class="er entityBox"/><text style="dominant-baseline: middle; text-anchor: middle; font-size: 12px;" transform="translate(55.3125,37.5)" y="0" x="0" id="text-entity-MedicalStudy-22dea251-12b7-5654-af29-afad6ffe12b1" class="er entityLabel">MedicalStudy</text></g><g transform="translate(2514.8125,333 )" id="entity-Text-426c5d39-acfc-5487-a6d9-ede67887190e"><rect height="75" width="100" y="0" x="0" class="er entityBox"/><text style="dominant-baseline: middle; text-anchor: middle; font-size: 12px;" transform="translate(50,37.5)" y="0" x="0" id="text-entity-Text-426c5d39-acfc-5487-a6d9-ede67887190e" class="er entityLabel">Text</text></g><g transform="translate(2714.8125,333 )" id="entity-URL-07f78d3e-fd74-5925-b39b-26c1cc2d6b7c"><rect height="75" width="100" y="0" x="0" class="er entityBox"/><text style="dominant-baseline: middle; text-anchor: middle; font-size: 12px;" transform="translate(50,37.5)" y="0" x="0" id="text-entity-URL-07f78d3e-fd74-5925-b39b-26c1cc2d6b7c" class="er entityLabel">URL</text></g><g transform="translate(2914.8125,333 )" id="entity-Action-6cd87d9a-a078-546e-a35b-bee54f477b31"><rect height="75" width="100" y="0" x="0" class="er entityBox"/><text style="dominant-baseline: middle; text-anchor: middle; font-size: 12px;" transform="translate(50,37.5)" y="0" x="0" id="text-entity-Action-6cd87d9a-a078-546e-a35b-bee54f477b31" class="er entityLabel">Action</text></g><rect height="14" width="65.09375" y="203.12564086914062" x="900.379150390625" class="er relationshipLabelBox"/><text style="text-anchor: middle; dominant-baseline: middle; font-size: 12px;" y="210.12564086914062" x="932.926025390625" id="rel1" class="er relationshipLabel">trialDesign</text><rect height="14" width="95.25" y="203.84388732910156" x="1003.6251220703125" class="er relationshipLabelBox"/><text style="text-anchor: middle; dominant-baseline: middle; font-size: 12px;" y="210.84388732910156" x="1051.2501220703125" id="rel2" class="er relationshipLabel">healthCondition</text><rect height="14" width="84.046875" y="204.84722900390625" x="1128.1767578125" class="er relationshipLabelBox"/><text style="text-anchor: middle; dominant-baseline: middle; font-size: 12px;" y="211.84722900390625" x="1170.2001953125" id="rel3" class="er relationshipLabel">studyLocation</text><rect height="14" width="78.435546875" y="206.24671936035156" x="1244.225830078125" class="er relationshipLabelBox"/><text style="text-anchor: middle; dominant-baseline: middle; font-size: 12px;" y="213.24671936035156" x="1283.443603515625" id="rel4" class="er relationshipLabel">studySubject</text><rect height="14" width="28.953125" y="208.218505859375" x="1372.4803466796875" class="er relationshipLabelBox"/><text style="text-anchor: middle; dominant-baseline: middle; font-size: 12px;" y="215.218505859375" x="1386.9569091796875" id="rel5" class="er relationshipLabel">code</text><rect height="14" width="45.609375" y="211.4101104736328" x="1464.624267578125" class="er relationshipLabelBox"/><text style="text-anchor: middle; dominant-baseline: middle; font-size: 12px;" y="218.4101104736328" x="1487.428955078125" id="rel6" class="er relationshipLabel">funding</text><rect height="14" width="55.21875" y="218.18360900878906" x="1566.3245849609375" class="er relationshipLabelBox"/><text style="text-anchor: middle; dominant-baseline: middle; font-size: 12px;" y="225.18360900878906" x="1593.9339599609375" id="rel7" class="er relationshipLabel">guideline</text><rect height="14" width="99.703125" y="239.9252166748047" x="1658.457763671875" class="er relationshipLabelBox"/><text style="text-anchor: middle; dominant-baseline: middle; font-size: 12px;" y="246.9252166748047" x="1708.309326171875" id="rel8" class="er relationshipLabel">medicineSystem</text><rect height="14" width="124.953125" y="276" x="1809.992431640625" class="er relationshipLabelBox"/><text style="text-anchor: middle; dominant-baseline: middle; font-size: 12px;" y="283" x="1872.468994140625" id="rel9" class="er relationshipLabel">recognizingAuthority</text><rect height="14" width="104.578125" y="239.67999267578125" x="1985.0185546875" class="er relationshipLabelBox"/><text style="text-anchor: middle; dominant-baseline: middle; font-size: 12px;" y="246.67999267578125" x="2037.3076171875" id="rel10" class="er relationshipLabel">relevantSpecialty</text><rect height="14" width="33.28125" y="218.5877227783203" x="2130.201904296875" class="er relationshipLabelBox"/><text style="text-anchor: middle; dominant-baseline: middle; font-size: 12px;" y="225.5877227783203" x="2146.842529296875" id="rel11" class="er relationshipLabel">study</text><rect height="14" width="89.953125" y="226.2527313232422" x="2192.851318359375" class="er relationshipLabelBox"/><text style="text-anchor: middle; dominant-baseline: middle; font-size: 12px;" y="233.2527313232422" x="2237.827880859375" id="rel12" class="er relationshipLabel">alternateName</text><rect height="14" width="161.390625" y="214.21176147460938" x="2175.534912109375" class="er relationshipLabelBox"/><text style="text-anchor: middle; dominant-baseline: middle; font-size: 12px;" y="221.21176147460938" x="2256.230224609375" id="rel13" class="er relationshipLabel">disambiguatingDescription</text><rect height="14" width="34.03125" y="208.4956512451172" x="2271.631103515625" class="er relationshipLabelBox"/><text style="text-anchor: middle; dominant-baseline: middle; font-size: 12px;" y="215.4956512451172" x="2288.646728515625" id="rel14" class="er relationshipLabel">name</text><rect height="14" width="47.140625" y="210.41964721679688" x="2332.01904296875" class="er relationshipLabelBox"/><text style="text-anchor: middle; dominant-baseline: middle; font-size: 12px;" y="217.41964721679688" x="2355.58935546875" id="rel15" class="er relationshipLabel">sameAs</text><rect height="14" width="90.96875" y="206.1319580078125" x="2423.720458984375" class="er relationshipLabelBox"/><text style="text-anchor: middle; dominant-baseline: middle; font-size: 12px;" y="213.1319580078125" x="2469.204833984375" id="rel16" class="er relationshipLabel">potentialAction</text><rect height="14" width="15.875" y="206.12649536132812" x="2378.98486328125" class="er relationshipLabelBox"/><text style="text-anchor: middle; dominant-baseline: middle; font-size: 12px;" y="213.12649536132812" x="2386.92236328125" id="rel17" class="er relationshipLabel">url</text></svg>