<svg aria-roledescription="er" role="graphics-document document" viewBox="0 0 3035.0048828125 638" style="max-width: 3035px; background-color: white;" xmlns:xlink="http://www.w3.org/1999/xlink" xmlns="http://www.w3.org/2000/svg" width="100%" id="my-svg"><style>#my-svg{font-family:"trebuchet ms",verdana,arial,sans-serif;font-size:16px;fill:#333;}#my-svg .error-icon{fill:#552222;}#my-svg .error-text{fill:#552222;stroke:#552222;}#my-svg .edge-thickness-normal{stroke-width:1px;}#my-svg .edge-thickness-thick{stroke-width:3.5px;}#my-svg .edge-pattern-solid{stroke-dasharray:0;}#my-svg .edge-thickness-invisible{stroke-width:0;fill:none;}#my-svg .edge-pattern-dashed{stroke-dasharray:3;}#my-svg .edge-pattern-dotted{stroke-dasharray:2;}#my-svg .marker{fill:#333333;stroke:#333333;}#my-svg .marker.cross{stroke:#333333;}#my-svg svg{font-family:"trebuchet ms",verdana,arial,sans-serif;font-size:16px;}#my-svg p{margin:0;}#my-svg .entityBox{fill:#ECECFF;stroke:#9370DB;}#my-svg .attributeBoxOdd{fill:#ffffff;stroke:#9370DB;}#my-svg .attributeBoxEven{fill:#f2f2f2;stroke:#9370DB;}#my-svg .relationshipLabelBox{fill:hsl(80, 100%, 96.2745098039%);opacity:0.7;background-color:hsl(80, 100%, 96.2745098039%);}#my-svg .relationshipLabelBox rect{opacity:0.5;}#my-svg .relationshipLine{stroke:#333333;}#my-svg .entityTitleText{text-anchor:middle;font-size:18px;fill:#333;}#my-svg #MD_PARENT_START{fill:#f5f5f5!important;stroke:#333333!important;stroke-width:1;}#my-svg #MD_PARENT_END{fill:#f5f5f5!important;stroke:#333333!important;stroke-width:1;}#my-svg :root{--mermaid-font-family:"trebuchet ms",verdana,arial,sans-serif;}</style><g/><defs><marker orient="auto" markerHeight="240" markerWidth="190" refY="7" refX="0" id="MD_PARENT_START"><path d="M 18,7 L9,13 L1,7 L9,1 Z"/></marker></defs><defs><marker orient="auto" markerHeight="28" markerWidth="20" refY="7" refX="19" id="MD_PARENT_END"><path d="M 18,7 L9,13 L1,7 L9,1 Z"/></marker></defs><defs><marker orient="auto" markerHeight="18" markerWidth="18" refY="9" refX="0" id="ONLY_ONE_START"><path d="M9,0 L9,18 M15,0 L15,18" fill="none" stroke="gray"/></marker></defs><defs><marker orient="auto" markerHeight="18" markerWidth="18" refY="9" refX="18" id="ONLY_ONE_END"><path d="M3,0 L3,18 M9,0 L9,18" fill="none" stroke="gray"/></marker></defs><defs><marker orient="auto" markerHeight="18" markerWidth="30" refY="9" refX="0" id="ZERO_OR_ONE_START"><circle r="6" cy="9" cx="21" fill="white" stroke="gray"/><path d="M9,0 L9,18" fill="none" stroke="gray"/></marker></defs><defs><marker orient="auto" markerHeight="18" markerWidth="30" refY="9" refX="30" id="ZERO_OR_ONE_END"><circle r="6" cy="9" cx="9" fill="white" stroke="gray"/><path d="M21,0 L21,18" fill="none" stroke="gray"/></marker></defs><defs><marker orient="auto" markerHeight="36" markerWidth="45" refY="18" refX="18" id="ONE_OR_MORE_START"><path d="M0,18 Q 18,0 36,18 Q 18,36 0,18 M42,9 L42,27" fill="none" stroke="gray"/></marker></defs><defs><marker orient="auto" markerHeight="36" markerWidth="45" refY="18" refX="27" id="ONE_OR_MORE_END"><path d="M3,9 L3,27 M9,18 Q27,0 45,18 Q27,36 9,18" fill="none" stroke="gray"/></marker></defs><defs><marker orient="auto" markerHeight="36" markerWidth="57" refY="18" refX="18" id="ZERO_OR_MORE_START"><circle r="6" cy="18" cx="48" fill="white" stroke="gray"/><path d="M0,18 Q18,0 36,18 Q18,36 0,18" fill="none" stroke="gray"/></marker></defs><defs><marker orient="auto" markerHeight="36" markerWidth="57" refY="18" refX="39" id="ZERO_OR_MORE_END"><circle r="6" cy="18" cx="9" fill="white" stroke="gray"/><path d="M21,18 Q39,0 57,18 Q39,36 21,18" fill="none" stroke="gray"/></marker></defs><path style="stroke: gray; fill: none;" marker-start="url(#ONLY_ONE_START)" marker-end="url(#ZERO_OR_MORE_END)" d="M1248.345,251.009L1037.395,291.341C826.446,331.673,404.547,412.336,203.122,461.002C1.696,509.667,20.744,526.333,30.267,534.667L39.791,543" class="er relationshipLine"/><path style="stroke: gray; fill: none;" marker-start="url(#ONLY_ONE_START)" marker-end="url(#ZERO_OR_MORE_END)" d="M1248.345,257.918L1097.014,297.099C945.684,336.279,643.023,414.639,491.693,462.153C340.362,509.667,340.362,526.333,340.362,534.667L340.362,543" class="er relationshipLine"/><path style="stroke: gray; fill: none;" marker-start="url(#ONLY_ONE_START)" marker-end="url(#ZERO_OR_MORE_END)" d="M1248.345,264.555L1130.811,302.629C1013.277,340.703,778.209,416.852,660.675,463.259C543.142,509.667,543.142,526.333,543.142,534.667L543.142,543" class="er relationshipLine"/><path style="stroke: gray; fill: none;" marker-start="url(#ONLY_ONE_START)" marker-end="url(#ZERO_OR_MORE_END)" d="M1248.345,252.548L1054.062,292.623C859.779,332.699,471.214,412.849,276.931,461.258C82.648,509.667,82.648,526.333,82.648,534.667L82.648,543" class="er relationshipLine"/><path style="stroke: gray; fill: none;" marker-start="url(#ONLY_ONE_START)" marker-end="url(#ZERO_OR_MORE_END)" d="M1248.345,276.847L1167.281,312.873C1086.218,348.898,924.091,420.949,843.027,465.308C761.964,509.667,761.964,526.333,761.964,534.667L761.964,543" class="er relationshipLine"/><path style="stroke: gray; fill: none;" marker-start="url(#ONLY_ONE_START)" marker-end="url(#ZERO_OR_MORE_END)" d="M1248.345,254.35L1070.729,294.125C893.113,333.9,537.881,413.45,350.741,461.558C163.601,509.667,144.553,526.333,135.029,534.667L125.506,543" class="er relationshipLine"/><path style="stroke: gray; fill: none;" marker-start="url(#ONLY_ONE_START)" marker-end="url(#ZERO_OR_MORE_END)" d="M1452.423,106.056L1464.09,91.713C1475.756,77.371,1499.09,48.685,1513.673,34.343C1528.256,20,1534.09,20,1539.923,55.25C1545.756,90.5,1551.59,161,1551.59,231.5C1551.59,302,1545.756,372.5,1539.923,407.75C1534.09,443,1528.256,443,1513.673,428.657C1499.09,414.315,1475.756,385.629,1464.09,371.287L1452.423,356.944" class="er relationshipLine"/><path style="stroke: gray; fill: none;" marker-start="url(#ONLY_ONE_START)" marker-end="url(#ZERO_OR_MORE_END)" d="M1248.345,311L1209.412,341.334C1170.479,371.667,1092.613,432.333,1053.68,471C1014.747,509.667,1014.747,526.333,1014.747,534.667L1014.747,543" class="er relationshipLine"/><path style="stroke: gray; fill: none;" marker-start="url(#ONLY_ONE_START)" marker-end="url(#ZERO_OR_MORE_END)" d="M1268.149,443L1264.909,451.333C1261.669,459.667,1255.188,476.333,1251.948,493C1248.708,509.667,1248.708,526.333,1248.708,534.667L1248.708,543" class="er relationshipLine"/><path style="stroke: gray; fill: none;" marker-start="url(#ONLY_ONE_START)" marker-end="url(#ZERO_OR_MORE_END)" d="M1432.619,443L1435.859,451.333C1439.099,459.667,1445.579,476.333,1448.819,493C1452.06,509.667,1452.06,526.333,1452.06,534.667L1452.06,543" class="er relationshipLine"/><path style="stroke: gray; fill: none;" marker-start="url(#ONLY_ONE_START)" marker-end="url(#ZERO_OR_MORE_END)" d="M1452.423,318.978L1486.254,347.982C1520.086,376.985,1587.748,434.993,1621.58,472.33C1655.411,509.667,1655.411,526.333,1655.411,534.667L1655.411,543" class="er relationshipLine"/><path style="stroke: gray; fill: none;" marker-start="url(#ONLY_ONE_START)" marker-end="url(#ZERO_OR_MORE_END)" d="M1452.423,282.67L1522.327,317.725C1592.231,352.78,1732.04,422.89,1801.944,466.278C1871.849,509.667,1871.849,526.333,1871.849,534.667L1871.849,543" class="er relationshipLine"/><path style="stroke: gray; fill: none;" marker-start="url(#ONLY_ONE_START)" marker-end="url(#ZERO_OR_MORE_END)" d="M1452.423,266.979L1560.763,304.649C1669.104,342.319,1885.785,417.66,1994.125,463.663C2102.466,509.667,2102.466,526.333,2102.466,534.667L2102.466,543" class="er relationshipLine"/><path style="stroke: gray; fill: none;" marker-start="url(#ONLY_ONE_START)" marker-end="url(#ZERO_OR_MORE_END)" d="M1452.423,259.019L1597.02,298.016C1741.617,337.013,2030.811,415.006,2175.408,462.337C2320.005,509.667,2320.005,526.333,2320.005,534.667L2320.005,543" class="er relationshipLine"/><path style="stroke: gray; fill: none;" marker-start="url(#ONLY_ONE_START)" marker-end="url(#ZERO_OR_MORE_END)" d="M1452.423,253.951L1633.498,293.793C1814.573,333.634,2176.722,413.317,2357.797,461.492C2538.872,509.667,2538.872,526.333,2538.872,534.667L2538.872,543" class="er relationshipLine"/><path style="stroke: gray; fill: none;" marker-start="url(#ONLY_ONE_START)" marker-end="url(#ZERO_OR_MORE_END)" d="M1452.423,250.434L1670.301,290.861C1888.179,331.289,2323.936,412.145,2541.814,460.906C2759.692,509.667,2759.692,526.333,2759.692,534.667L2759.692,543" class="er relationshipLine"/><path style="stroke: gray; fill: none;" marker-start="url(#ONLY_ONE_START)" marker-end="url(#ZERO_OR_MORE_END)" d="M1452.423,248.026L1704.52,288.855C1956.617,329.684,2460.811,411.342,2712.908,460.504C2965.005,509.667,2965.005,526.333,2965.005,534.667L2965.005,543" class="er relationshipLine"/><g transform="translate(1248.3447265625,20 )" id="entity-MedicalSignOrSymptom-acd8acd3-b1ff-541e-9ff9-cfca0e720334"><rect height="423" width="204.078125" y="0" x="0" class="er entityBox"/><text style="dominant-baseline: middle; text-anchor: middle; font-size: 12px;" transform="translate(102.0390625,12)" y="0" x="0" id="text-entity-MedicalSignOrSymptom-acd8acd3-b1ff-541e-9ff9-cfca0e720334" class="er entityLabel">MedicalSignOrSymptom</text><rect height="21" width="57.0625" y="24" x="0" class="er attributeBoxOdd"/><text style="dominant-baseline: middle; font-size: 10.2px;" transform="translate(5,34.5)" y="0" x="0" id="text-entity-MedicalSignOrSymptom-acd8acd3-b1ff-541e-9ff9-cfca0e720334-attr-1-type" class="er entityLabel">stringList</text><rect height="21" width="147.015625" y="24" x="57.0625" class="er attributeBoxOdd"/><text style="dominant-baseline: middle; font-size: 10.2px;" transform="translate(62.0625,34.5)" y="0" x="0" id="text-entity-MedicalSignOrSymptom-acd8acd3-b1ff-541e-9ff9-cfca0e720334-attr-1-name" class="er entityLabel">associatedAnatomy</text><rect height="21" width="57.0625" y="45" x="0" class="er attributeBoxEven"/><text style="dominant-baseline: middle; font-size: 10.2px;" transform="translate(5,55.5)" y="0" x="0" id="text-entity-MedicalSignOrSymptom-acd8acd3-b1ff-541e-9ff9-cfca0e720334-attr-2-type" class="er entityLabel">TextList</text><rect height="21" width="147.015625" y="45" x="57.0625" class="er attributeBoxEven"/><text style="dominant-baseline: middle; font-size: 10.2px;" transform="translate(62.0625,55.5)" y="0" x="0" id="text-entity-MedicalSignOrSymptom-acd8acd3-b1ff-541e-9ff9-cfca0e720334-attr-2-name" class="er entityLabel">epidemiology</text><rect height="21" width="57.0625" y="66" x="0" class="er attributeBoxOdd"/><text style="dominant-baseline: middle; font-size: 10.2px;" transform="translate(5,76.5)" y="0" x="0" id="text-entity-MedicalSignOrSymptom-acd8acd3-b1ff-541e-9ff9-cfca0e720334-attr-3-type" class="er entityLabel">TextList</text><rect height="21" width="147.015625" y="66" x="57.0625" class="er attributeBoxOdd"/><text style="dominant-baseline: middle; font-size: 10.2px;" transform="translate(62.0625,76.5)" y="0" x="0" id="text-entity-MedicalSignOrSymptom-acd8acd3-b1ff-541e-9ff9-cfca0e720334-attr-3-name" class="er entityLabel">expectedPrognosis</text><rect height="21" width="57.0625" y="87" x="0" class="er attributeBoxEven"/><text style="dominant-baseline: middle; font-size: 10.2px;" transform="translate(5,97.5)" y="0" x="0" id="text-entity-MedicalSignOrSymptom-acd8acd3-b1ff-541e-9ff9-cfca0e720334-attr-4-type" class="er entityLabel">TextList</text><rect height="21" width="147.015625" y="87" x="57.0625" class="er attributeBoxEven"/><text style="dominant-baseline: middle; font-size: 10.2px;" transform="translate(62.0625,97.5)" y="0" x="0" id="text-entity-MedicalSignOrSymptom-acd8acd3-b1ff-541e-9ff9-cfca0e720334-attr-4-name" class="er entityLabel">naturalProgression</text><rect height="21" width="57.0625" y="108" x="0" class="er attributeBoxOdd"/><text style="dominant-baseline: middle; font-size: 10.2px;" transform="translate(5,118.5)" y="0" x="0" id="text-entity-MedicalSignOrSymptom-acd8acd3-b1ff-541e-9ff9-cfca0e720334-attr-5-type" class="er entityLabel">TextList</text><rect height="21" width="147.015625" y="108" x="57.0625" class="er attributeBoxOdd"/><text style="dominant-baseline: middle; font-size: 10.2px;" transform="translate(62.0625,118.5)" y="0" x="0" id="text-entity-MedicalSignOrSymptom-acd8acd3-b1ff-541e-9ff9-cfca0e720334-attr-5-name" class="er entityLabel">pathophysiology</text><rect height="21" width="57.0625" y="129" x="0" class="er attributeBoxEven"/><text style="dominant-baseline: middle; font-size: 10.2px;" transform="translate(5,139.5)" y="0" x="0" id="text-entity-MedicalSignOrSymptom-acd8acd3-b1ff-541e-9ff9-cfca0e720334-attr-6-type" class="er entityLabel">TextList</text><rect height="21" width="147.015625" y="129" x="57.0625" class="er attributeBoxEven"/><text style="dominant-baseline: middle; font-size: 10.2px;" transform="translate(62.0625,139.5)" y="0" x="0" id="text-entity-MedicalSignOrSymptom-acd8acd3-b1ff-541e-9ff9-cfca0e720334-attr-6-name" class="er entityLabel">possibleComplication</text><rect height="21" width="57.0625" y="150" x="0" class="er attributeBoxOdd"/><text style="dominant-baseline: middle; font-size: 10.2px;" transform="translate(5,160.5)" y="0" x="0" id="text-entity-MedicalSignOrSymptom-acd8acd3-b1ff-541e-9ff9-cfca0e720334-attr-7-type" class="er entityLabel">stringList</text><rect height="21" width="147.015625" y="150" x="57.0625" class="er attributeBoxOdd"/><text style="dominant-baseline: middle; font-size: 10.2px;" transform="translate(62.0625,160.5)" y="0" x="0" id="text-entity-MedicalSignOrSymptom-acd8acd3-b1ff-541e-9ff9-cfca0e720334-attr-7-name" class="er entityLabel">status</text><rect height="21" width="57.0625" y="171" x="0" class="er attributeBoxEven"/><text style="dominant-baseline: middle; font-size: 10.2px;" transform="translate(5,181.5)" y="0" x="0" id="text-entity-MedicalSignOrSymptom-acd8acd3-b1ff-541e-9ff9-cfca0e720334-attr-8-type" class="er entityLabel">stringList</text><rect height="21" width="147.015625" y="171" x="57.0625" class="er attributeBoxEven"/><text style="dominant-baseline: middle; font-size: 10.2px;" transform="translate(62.0625,181.5)" y="0" x="0" id="text-entity-MedicalSignOrSymptom-acd8acd3-b1ff-541e-9ff9-cfca0e720334-attr-8-name" class="er entityLabel">legalStatus</text><rect height="21" width="57.0625" y="192" x="0" class="er attributeBoxOdd"/><text style="dominant-baseline: middle; font-size: 10.2px;" transform="translate(5,202.5)" y="0" x="0" id="text-entity-MedicalSignOrSymptom-acd8acd3-b1ff-541e-9ff9-cfca0e720334-attr-9-type" class="er entityLabel">stringList</text><rect height="21" width="147.015625" y="192" x="57.0625" class="er attributeBoxOdd"/><text style="dominant-baseline: middle; font-size: 10.2px;" transform="translate(62.0625,202.5)" y="0" x="0" id="text-entity-MedicalSignOrSymptom-acd8acd3-b1ff-541e-9ff9-cfca0e720334-attr-9-name" class="er entityLabel">additionalType</text><rect height="21" width="57.0625" y="213" x="0" class="er attributeBoxEven"/><text style="dominant-baseline: middle; font-size: 10.2px;" transform="translate(5,223.5)" y="0" x="0" id="text-entity-MedicalSignOrSymptom-acd8acd3-b1ff-541e-9ff9-cfca0e720334-attr-10-type" class="er entityLabel">TextList</text><rect height="21" width="147.015625" y="213" x="57.0625" class="er attributeBoxEven"/><text style="dominant-baseline: middle; font-size: 10.2px;" transform="translate(62.0625,223.5)" y="0" x="0" id="text-entity-MedicalSignOrSymptom-acd8acd3-b1ff-541e-9ff9-cfca0e720334-attr-10-name" class="er entityLabel">alternateName</text><rect height="21" width="57.0625" y="234" x="0" class="er attributeBoxOdd"/><text style="dominant-baseline: middle; font-size: 10.2px;" transform="translate(5,244.5)" y="0" x="0" id="text-entity-MedicalSignOrSymptom-acd8acd3-b1ff-541e-9ff9-cfca0e720334-attr-11-type" class="er entityLabel">stringList</text><rect height="21" width="147.015625" y="234" x="57.0625" class="er attributeBoxOdd"/><text style="dominant-baseline: middle; font-size: 10.2px;" transform="translate(62.0625,244.5)" y="0" x="0" id="text-entity-MedicalSignOrSymptom-acd8acd3-b1ff-541e-9ff9-cfca0e720334-attr-11-name" class="er entityLabel">description</text><rect height="21" width="57.0625" y="255" x="0" class="er attributeBoxEven"/><text style="dominant-baseline: middle; font-size: 10.2px;" transform="translate(5,265.5)" y="0" x="0" id="text-entity-MedicalSignOrSymptom-acd8acd3-b1ff-541e-9ff9-cfca0e720334-attr-12-type" class="er entityLabel">TextList</text><rect height="21" width="147.015625" y="255" x="57.0625" class="er attributeBoxEven"/><text style="dominant-baseline: middle; font-size: 10.2px;" transform="translate(62.0625,265.5)" y="0" x="0" id="text-entity-MedicalSignOrSymptom-acd8acd3-b1ff-541e-9ff9-cfca0e720334-attr-12-name" class="er entityLabel">disambiguatingDescription</text><rect height="21" width="57.0625" y="276" x="0" class="er attributeBoxOdd"/><text style="dominant-baseline: middle; font-size: 10.2px;" transform="translate(5,286.5)" y="0" x="0" id="text-entity-MedicalSignOrSymptom-acd8acd3-b1ff-541e-9ff9-cfca0e720334-attr-13-type" class="er entityLabel">stringList</text><rect height="21" width="147.015625" y="276" x="57.0625" class="er attributeBoxOdd"/><text style="dominant-baseline: middle; font-size: 10.2px;" transform="translate(62.0625,286.5)" y="0" x="0" id="text-entity-MedicalSignOrSymptom-acd8acd3-b1ff-541e-9ff9-cfca0e720334-attr-13-name" class="er entityLabel">identifier</text><rect height="21" width="57.0625" y="297" x="0" class="er attributeBoxEven"/><text style="dominant-baseline: middle; font-size: 10.2px;" transform="translate(5,307.5)" y="0" x="0" id="text-entity-MedicalSignOrSymptom-acd8acd3-b1ff-541e-9ff9-cfca0e720334-attr-14-type" class="er entityLabel">stringList</text><rect height="21" width="147.015625" y="297" x="57.0625" class="er attributeBoxEven"/><text style="dominant-baseline: middle; font-size: 10.2px;" transform="translate(62.0625,307.5)" y="0" x="0" id="text-entity-MedicalSignOrSymptom-acd8acd3-b1ff-541e-9ff9-cfca0e720334-attr-14-name" class="er entityLabel">image</text><rect height="21" width="57.0625" y="318" x="0" class="er attributeBoxOdd"/><text style="dominant-baseline: middle; font-size: 10.2px;" transform="translate(5,328.5)" y="0" x="0" id="text-entity-MedicalSignOrSymptom-acd8acd3-b1ff-541e-9ff9-cfca0e720334-attr-15-type" class="er entityLabel">TextList</text><rect height="21" width="147.015625" y="318" x="57.0625" class="er attributeBoxOdd"/><text style="dominant-baseline: middle; font-size: 10.2px;" transform="translate(62.0625,328.5)" y="0" x="0" id="text-entity-MedicalSignOrSymptom-acd8acd3-b1ff-541e-9ff9-cfca0e720334-attr-15-name" class="er entityLabel">name</text><rect height="21" width="57.0625" y="339" x="0" class="er attributeBoxEven"/><text style="dominant-baseline: middle; font-size: 10.2px;" transform="translate(5,349.5)" y="0" x="0" id="text-entity-MedicalSignOrSymptom-acd8acd3-b1ff-541e-9ff9-cfca0e720334-attr-16-type" class="er entityLabel">URLList</text><rect height="21" width="147.015625" y="339" x="57.0625" class="er attributeBoxEven"/><text style="dominant-baseline: middle; font-size: 10.2px;" transform="translate(62.0625,349.5)" y="0" x="0" id="text-entity-MedicalSignOrSymptom-acd8acd3-b1ff-541e-9ff9-cfca0e720334-attr-16-name" class="er entityLabel">sameAs</text><rect height="21" width="57.0625" y="360" x="0" class="er attributeBoxOdd"/><text style="dominant-baseline: middle; font-size: 10.2px;" transform="translate(5,370.5)" y="0" x="0" id="text-entity-MedicalSignOrSymptom-acd8acd3-b1ff-541e-9ff9-cfca0e720334-attr-17-type" class="er entityLabel">stringList</text><rect height="21" width="147.015625" y="360" x="57.0625" class="er attributeBoxOdd"/><text style="dominant-baseline: middle; font-size: 10.2px;" transform="translate(62.0625,370.5)" y="0" x="0" id="text-entity-MedicalSignOrSymptom-acd8acd3-b1ff-541e-9ff9-cfca0e720334-attr-17-name" class="er entityLabel">mainEntityOfPage</text><rect height="21" width="57.0625" y="381" x="0" class="er attributeBoxEven"/><text style="dominant-baseline: middle; font-size: 10.2px;" transform="translate(5,391.5)" y="0" x="0" id="text-entity-MedicalSignOrSymptom-acd8acd3-b1ff-541e-9ff9-cfca0e720334-attr-18-type" class="er entityLabel">stringList</text><rect height="21" width="147.015625" y="381" x="57.0625" class="er attributeBoxEven"/><text style="dominant-baseline: middle; font-size: 10.2px;" transform="translate(62.0625,391.5)" y="0" x="0" id="text-entity-MedicalSignOrSymptom-acd8acd3-b1ff-541e-9ff9-cfca0e720334-attr-18-name" class="er entityLabel">subjectOf</text><rect height="21" width="57.0625" y="402" x="0" class="er attributeBoxOdd"/><text style="dominant-baseline: middle; font-size: 10.2px;" transform="translate(5,412.5)" y="0" x="0" id="text-entity-MedicalSignOrSymptom-acd8acd3-b1ff-541e-9ff9-cfca0e720334-attr-19-type" class="er entityLabel">URLList</text><rect height="21" width="147.015625" y="402" x="57.0625" class="er attributeBoxOdd"/><text style="dominant-baseline: middle; font-size: 10.2px;" transform="translate(62.0625,412.5)" y="0" x="0" id="text-entity-MedicalSignOrSymptom-acd8acd3-b1ff-541e-9ff9-cfca0e720334-attr-19-name" class="er entityLabel">url</text></g><g transform="translate(20,543 )" id="entity-MedicalTherapy-cb945121-be61-5f08-b66d-584ab4170081"><rect height="75" width="125.296875" y="0" x="0" class="er entityBox"/><text style="dominant-baseline: middle; text-anchor: middle; font-size: 12px;" transform="translate(62.6484375,37.5)" y="0" x="0" id="text-entity-MedicalTherapy-cb945121-be61-5f08-b66d-584ab4170081" class="er entityLabel">MedicalTherapy</text></g><g transform="translate(287.5830078125,543 )" id="entity-DDxElement-3cbb71e7-0dfc-5923-b27d-7677e1f3851a"><rect height="75" width="105.55859375" y="0" x="0" class="er entityBox"/><text style="dominant-baseline: middle; text-anchor: middle; font-size: 12px;" transform="translate(52.779296875,37.5)" y="0" x="0" id="text-entity-DDxElement-3cbb71e7-0dfc-5923-b27d-7677e1f3851a" class="er entityLabel">DDxElement</text></g><g transform="translate(493.1416015625,543 )" id="entity-Drug-eafa91c0-1824-5f2e-9826-905b73217603"><rect height="75" width="100" y="0" x="0" class="er entityBox"/><text style="dominant-baseline: middle; text-anchor: middle; font-size: 12px;" transform="translate(50,37.5)" y="0" x="0" id="text-entity-Drug-eafa91c0-1824-5f2e-9826-905b73217603" class="er entityLabel">Drug</text></g><g transform="translate(693.1416015625,543 )" id="entity-MedicalRiskFactor-a0fcf94a-518e-5a2d-a2b5-5e4de626f72d"><rect height="75" width="137.64453125" y="0" x="0" class="er entityBox"/><text style="dominant-baseline: middle; text-anchor: middle; font-size: 12px;" transform="translate(68.822265625,37.5)" y="0" x="0" id="text-entity-MedicalRiskFactor-a0fcf94a-518e-5a2d-a2b5-5e4de626f72d" class="er entityLabel">MedicalRiskFactor</text></g><g transform="translate(930.7861328125,543 )" id="entity-MedicalConditionStage-4bb70cfa-d8c6-5b13-accf-0114ca92b5dd"><rect height="75" width="167.921875" y="0" x="0" class="er entityBox"/><text style="dominant-baseline: middle; text-anchor: middle; font-size: 12px;" transform="translate(83.9609375,37.5)" y="0" x="0" id="text-entity-MedicalConditionStage-4bb70cfa-d8c6-5b13-accf-0114ca92b5dd" class="er entityLabel">MedicalConditionStage</text></g><g transform="translate(1198.7080078125,543 )" id="entity-MedicalTest-32c87613-6e49-5cc6-bb3d-56fed2dad080"><rect height="75" width="100" y="0" x="0" class="er entityBox"/><text style="dominant-baseline: middle; text-anchor: middle; font-size: 12px;" transform="translate(50,37.5)" y="0" x="0" id="text-entity-MedicalTest-32c87613-6e49-5cc6-bb3d-56fed2dad080" class="er entityLabel">MedicalTest</text></g><g transform="translate(1398.7080078125,543 )" id="entity-MedicalCode-340ab1f3-b0e0-51ff-b309-32031f623ceb"><rect height="75" width="106.703125" y="0" x="0" class="er entityBox"/><text style="dominant-baseline: middle; text-anchor: middle; font-size: 12px;" transform="translate(53.3515625,37.5)" y="0" x="0" id="text-entity-MedicalCode-340ab1f3-b0e0-51ff-b309-32031f623ceb" class="er entityLabel">MedicalCode</text></g><g transform="translate(1605.4111328125,543 )" id="entity-Grant-291daf2c-8722-576f-890e-1045bc6484c0"><rect height="75" width="100" y="0" x="0" class="er entityBox"/><text style="dominant-baseline: middle; text-anchor: middle; font-size: 12px;" transform="translate(50,37.5)" y="0" x="0" id="text-entity-Grant-291daf2c-8722-576f-890e-1045bc6484c0" class="er entityLabel">Grant</text></g><g transform="translate(1805.4111328125,543 )" id="entity-MedicalGuideline-a05959e1-803b-55cd-8b3c-b530a54fde23"><rect height="75" width="132.875" y="0" x="0" class="er entityBox"/><text style="dominant-baseline: middle; text-anchor: middle; font-size: 12px;" transform="translate(66.4375,37.5)" y="0" x="0" id="text-entity-MedicalGuideline-a05959e1-803b-55cd-8b3c-b530a54fde23" class="er entityLabel">MedicalGuideline</text></g><g transform="translate(2038.2861328125,543 )" id="entity-MedicineSystem-74197b84-67e0-5471-ab59-f3fd7c3c0e72"><rect height="75" width="128.359375" y="0" x="0" class="er entityBox"/><text style="dominant-baseline: middle; text-anchor: middle; font-size: 12px;" transform="translate(64.1796875,37.5)" y="0" x="0" id="text-entity-MedicineSystem-74197b84-67e0-5471-ab59-f3fd7c3c0e72" class="er entityLabel">MedicineSystem</text></g><g transform="translate(2266.6455078125,543 )" id="entity-Organization-ef1721ab-1f62-5ef5-a525-a6c60c2f6032"><rect height="75" width="106.71875" y="0" x="0" class="er entityBox"/><text style="dominant-baseline: middle; text-anchor: middle; font-size: 12px;" transform="translate(53.359375,37.5)" y="0" x="0" id="text-entity-Organization-ef1721ab-1f62-5ef5-a525-a6c60c2f6032" class="er entityLabel">Organization</text></g><g transform="translate(2473.3642578125,543 )" id="entity-MedicalSpecialty-0f4a20d3-5a5d-5b81-b412-da395afebba8"><rect height="75" width="131.015625" y="0" x="0" class="er entityBox"/><text style="dominant-baseline: middle; text-anchor: middle; font-size: 12px;" transform="translate(65.5078125,37.5)" y="0" x="0" id="text-entity-MedicalSpecialty-0f4a20d3-5a5d-5b81-b412-da395afebba8" class="er entityLabel">MedicalSpecialty</text></g><g transform="translate(2704.3798828125,543 )" id="entity-MedicalStudy-22dea251-12b7-5654-af29-afad6ffe12b1"><rect height="75" width="110.625" y="0" x="0" class="er entityBox"/><text style="dominant-baseline: middle; text-anchor: middle; font-size: 12px;" transform="translate(55.3125,37.5)" y="0" x="0" id="text-entity-MedicalStudy-22dea251-12b7-5654-af29-afad6ffe12b1" class="er entityLabel">MedicalStudy</text></g><g transform="translate(2915.0048828125,543 )" id="entity-Action-6cd87d9a-a078-546e-a35b-bee54f477b31"><rect height="75" width="100" y="0" x="0" class="er entityBox"/><text style="dominant-baseline: middle; text-anchor: middle; font-size: 12px;" transform="translate(50,37.5)" y="0" x="0" id="text-entity-Action-6cd87d9a-a078-546e-a35b-bee54f477b31" class="er entityLabel">Action</text></g><rect height="14" width="110.486328125" y="365.593017578125" x="563.7240600585938" class="er relationshipLabelBox"/><text style="text-anchor: middle; dominant-baseline: middle; font-size: 12px;" y="372.593017578125" x="618.9672241210938" id="rel1" class="er relationshipLabel">possibleTreatment</text><rect height="14" width="123.328125" y="372.8592529296875" x="720.1890258789062" class="er relationshipLabelBox"/><text style="text-anchor: middle; dominant-baseline: middle; font-size: 12px;" y="379.8592529296875" x="781.8530883789062" id="rel2" class="er relationshipLabel">differentialDiagnosis</text><rect height="14" width="27.78125" y="377.36468505859375" x="868.3447875976562" class="er relationshipLabelBox"/><text style="text-anchor: middle; dominant-baseline: middle; font-size: 12px;" y="384.36468505859375" x="882.2354125976562" id="rel3" class="er relationshipLabel">drug</text><rect height="14" width="111.125" y="369.2712097167969" x="598.452880859375" class="er relationshipLabelBox"/><text style="text-anchor: middle; dominant-baseline: middle; font-size: 12px;" y="376.2712097167969" x="654.015380859375" id="rel4" class="er relationshipLabel">primaryPrevention</text><rect height="14" width="58.267578125" y="385.7939758300781" x="961.2774047851562" class="er relationshipLabelBox"/><text style="text-anchor: middle; dominant-baseline: middle; font-size: 12px;" y="392.7939758300781" x="990.4111938476562" id="rel5" class="er relationshipLabel">riskFactor</text><rect height="14" width="126.34375" y="375.3262939453125" x="618.0857543945312" class="er relationshipLabelBox"/><text style="text-anchor: middle; dominant-baseline: middle; font-size: 12px;" y="382.3262939453125" x="681.2576293945312" id="rel6" class="er relationshipLabel">secondaryPrevention</text><rect height="14" width="96.953125" y="224.49996948242188" x="1503.1134033203125" class="er relationshipLabelBox"/><text style="text-anchor: middle; dominant-baseline: middle; font-size: 12px;" y="231.49996948242188" x="1551.5899658203125" id="rel7" class="er relationshipLabel">signOrSymptom</text><rect height="14" width="33.3125" y="408.5832214355469" x="1099.624755859375" class="er relationshipLabelBox"/><text style="text-anchor: middle; dominant-baseline: middle; font-size: 12px;" y="415.5832214355469" x="1116.281005859375" id="rel8" class="er relationshipLabel">stage</text><rect height="14" width="63.96875" y="484.80181884765625" x="1220.20263671875" class="er relationshipLabelBox"/><text style="text-anchor: middle; dominant-baseline: middle; font-size: 12px;" y="491.80181884765625" x="1252.18701171875" id="rel9" class="er relationshipLabel">typicalTest</text><rect height="14" width="28.953125" y="484.8020324707031" x="1434.103515625" class="er relationshipLabelBox"/><text style="text-anchor: middle; dominant-baseline: middle; font-size: 12px;" y="491.8020324707031" x="1448.580078125" id="rel10" class="er relationshipLabel">code</text><rect height="14" width="45.609375" y="413.660888671875" x="1546.1334228515625" class="er relationshipLabelBox"/><text style="text-anchor: middle; dominant-baseline: middle; font-size: 12px;" y="420.660888671875" x="1568.9381103515625" id="rel11" class="er relationshipLabel">funding</text><rect height="14" width="55.21875" y="389.7763671875" x="1649.614501953125" class="er relationshipLabelBox"/><text style="text-anchor: middle; dominant-baseline: middle; font-size: 12px;" y="396.7763671875" x="1677.223876953125" id="rel12" class="er relationshipLabel">guideline</text><rect height="14" width="99.703125" y="379.0224609375" x="1741.4058837890625" class="er relationshipLabelBox"/><text style="text-anchor: middle; dominant-baseline: middle; font-size: 12px;" y="386.0224609375" x="1791.2574462890625" id="rel13" class="er relationshipLabel">medicineSystem</text><rect height="14" width="124.953125" y="373.602294921875" x="1836.42333984375" class="er relationshipLabelBox"/><text style="text-anchor: middle; dominant-baseline: middle; font-size: 12px;" y="380.602294921875" x="1898.89990234375" id="rel14" class="er relationshipLabel">recognizingAuthority</text><rect height="14" width="104.578125" y="370.2022399902344" x="1955.125" class="er relationshipLabelBox"/><text style="text-anchor: middle; dominant-baseline: middle; font-size: 12px;" y="377.2022399902344" x="2007.4140625" id="rel15" class="er relationshipLabel">relevantSpecialty</text><rect height="14" width="33.28125" y="367.8789978027344" x="2100.44140625" class="er relationshipLabelBox"/><text style="text-anchor: middle; dominant-baseline: middle; font-size: 12px;" y="374.8789978027344" x="2117.08203125" id="rel16" class="er relationshipLabel">study</text><rect height="14" width="90.96875" y="366.3106689453125" x="2173.693115234375" class="er relationshipLabelBox"/><text style="text-anchor: middle; dominant-baseline: middle; font-size: 12px;" y="373.3106689453125" x="2219.177490234375" id="rel17" class="er relationshipLabel">potentialAction</text></svg>