<svg aria-roledescription="er" role="graphics-document document" viewBox="0 0 2129.578125 554" style="max-width: 2129.58px; background-color: white;" xmlns:xlink="http://www.w3.org/1999/xlink" xmlns="http://www.w3.org/2000/svg" width="100%" id="my-svg"><style>#my-svg{font-family:"trebuchet ms",verdana,arial,sans-serif;font-size:16px;fill:#333;}#my-svg .error-icon{fill:#552222;}#my-svg .error-text{fill:#552222;stroke:#552222;}#my-svg .edge-thickness-normal{stroke-width:1px;}#my-svg .edge-thickness-thick{stroke-width:3.5px;}#my-svg .edge-pattern-solid{stroke-dasharray:0;}#my-svg .edge-thickness-invisible{stroke-width:0;fill:none;}#my-svg .edge-pattern-dashed{stroke-dasharray:3;}#my-svg .edge-pattern-dotted{stroke-dasharray:2;}#my-svg .marker{fill:#333333;stroke:#333333;}#my-svg .marker.cross{stroke:#333333;}#my-svg svg{font-family:"trebuchet ms",verdana,arial,sans-serif;font-size:16px;}#my-svg p{margin:0;}#my-svg .entityBox{fill:#ECECFF;stroke:#9370DB;}#my-svg .attributeBoxOdd{fill:#ffffff;stroke:#9370DB;}#my-svg .attributeBoxEven{fill:#f2f2f2;stroke:#9370DB;}#my-svg .relationshipLabelBox{fill:hsl(80, 100%, 96.2745098039%);opacity:0.7;background-color:hsl(80, 100%, 96.2745098039%);}#my-svg .relationshipLabelBox rect{opacity:0.5;}#my-svg .relationshipLine{stroke:#333333;}#my-svg .entityTitleText{text-anchor:middle;font-size:18px;fill:#333;}#my-svg #MD_PARENT_START{fill:#f5f5f5!important;stroke:#333333!important;stroke-width:1;}#my-svg #MD_PARENT_END{fill:#f5f5f5!important;stroke:#333333!important;stroke-width:1;}#my-svg :root{--mermaid-font-family:"trebuchet ms",verdana,arial,sans-serif;}</style><g/><defs><marker orient="auto" markerHeight="240" markerWidth="190" refY="7" refX="0" id="MD_PARENT_START"><path d="M 18,7 L9,13 L1,7 L9,1 Z"/></marker></defs><defs><marker orient="auto" markerHeight="28" markerWidth="20" refY="7" refX="19" id="MD_PARENT_END"><path d="M 18,7 L9,13 L1,7 L9,1 Z"/></marker></defs><defs><marker orient="auto" markerHeight="18" markerWidth="18" refY="9" refX="0" id="ONLY_ONE_START"><path d="M9,0 L9,18 M15,0 L15,18" fill="none" stroke="gray"/></marker></defs><defs><marker orient="auto" markerHeight="18" markerWidth="18" refY="9" refX="18" id="ONLY_ONE_END"><path d="M3,0 L3,18 M9,0 L9,18" fill="none" stroke="gray"/></marker></defs><defs><marker orient="auto" markerHeight="18" markerWidth="30" refY="9" refX="0" id="ZERO_OR_ONE_START"><circle r="6" cy="9" cx="21" fill="white" stroke="gray"/><path d="M9,0 L9,18" fill="none" stroke="gray"/></marker></defs><defs><marker orient="auto" markerHeight="18" markerWidth="30" refY="9" refX="30" id="ZERO_OR_ONE_END"><circle r="6" cy="9" cx="9" fill="white" stroke="gray"/><path d="M21,0 L21,18" fill="none" stroke="gray"/></marker></defs><defs><marker orient="auto" markerHeight="36" markerWidth="45" refY="18" refX="18" id="ONE_OR_MORE_START"><path d="M0,18 Q 18,0 36,18 Q 18,36 0,18 M42,9 L42,27" fill="none" stroke="gray"/></marker></defs><defs><marker orient="auto" markerHeight="36" markerWidth="45" refY="18" refX="27" id="ONE_OR_MORE_END"><path d="M3,9 L3,27 M9,18 Q27,0 45,18 Q27,36 9,18" fill="none" stroke="gray"/></marker></defs><defs><marker orient="auto" markerHeight="36" markerWidth="57" refY="18" refX="18" id="ZERO_OR_MORE_START"><circle r="6" cy="18" cx="48" fill="white" stroke="gray"/><path d="M0,18 Q18,0 36,18 Q18,36 0,18" fill="none" stroke="gray"/></marker></defs><defs><marker orient="auto" markerHeight="36" markerWidth="57" refY="18" refX="39" id="ZERO_OR_MORE_END"><circle r="6" cy="18" cx="9" fill="white" stroke="gray"/><path d="M21,18 Q39,0 57,18 Q39,36 21,18" fill="none" stroke="gray"/></marker></defs><path style="stroke: gray; fill: none;" marker-start="url(#ONLY_ONE_START)" marker-end="url(#ZERO_OR_MORE_END)" d="M962.574,216.172L819.001,248.31C675.427,280.448,388.28,344.724,244.706,385.195C101.133,425.667,101.133,442.333,101.133,450.667L101.133,459" class="er relationshipLine"/><path style="stroke: gray; fill: none;" marker-start="url(#ONLY_ONE_START)" marker-end="url(#ZERO_OR_MORE_END)" d="M962.574,224.656L858.441,255.38C754.307,286.104,546.04,347.552,441.907,386.609C337.773,425.667,337.773,442.333,337.773,450.667L337.773,459" class="er relationshipLine"/><path style="stroke: gray; fill: none;" marker-start="url(#ONLY_ONE_START)" marker-end="url(#ZERO_OR_MORE_END)" d="M962.574,238.379L893.251,266.815C823.927,295.252,685.28,352.126,615.956,388.896C546.633,425.667,546.633,442.333,546.633,450.667L546.633,459" class="er relationshipLine"/><path style="stroke: gray; fill: none;" marker-start="url(#ONLY_ONE_START)" marker-end="url(#ZERO_OR_MORE_END)" d="M962.574,268.34L927.143,291.783C891.711,315.227,820.848,362.113,785.416,393.89C749.984,425.667,749.984,442.333,749.984,450.667L749.984,459" class="er relationshipLine"/><path style="stroke: gray; fill: none;" marker-start="url(#ONLY_ONE_START)" marker-end="url(#ZERO_OR_MORE_END)" d="M992.688,359L988.31,367.333C983.933,375.667,975.177,392.333,970.8,409C966.422,425.667,966.422,442.333,966.422,450.667L966.422,459" class="er relationshipLine"/><path style="stroke: gray; fill: none;" marker-start="url(#ONLY_ONE_START)" marker-end="url(#ZERO_OR_MORE_END)" d="M1170.773,359L1175.151,367.333C1179.528,375.667,1188.284,392.333,1192.661,409C1197.039,425.667,1197.039,442.333,1197.039,450.667L1197.039,459" class="er relationshipLine"/><path style="stroke: gray; fill: none;" marker-start="url(#ONLY_ONE_START)" marker-end="url(#ZERO_OR_MORE_END)" d="M1200.887,268.079L1236.502,291.566C1272.117,315.053,1343.348,362.026,1378.963,393.846C1414.578,425.667,1414.578,442.333,1414.578,450.667L1414.578,459" class="er relationshipLine"/><path style="stroke: gray; fill: none;" marker-start="url(#ONLY_ONE_START)" marker-end="url(#ZERO_OR_MORE_END)" d="M1200.887,236.906L1272.98,265.589C1345.073,294.271,1489.259,351.635,1561.352,388.651C1633.445,425.667,1633.445,442.333,1633.445,450.667L1633.445,459" class="er relationshipLine"/><path style="stroke: gray; fill: none;" marker-start="url(#ONLY_ONE_START)" marker-end="url(#ZERO_OR_MORE_END)" d="M1200.887,223.356L1309.783,254.297C1418.68,285.237,1636.473,347.119,1745.369,386.393C1854.266,425.667,1854.266,442.333,1854.266,450.667L1854.266,459" class="er relationshipLine"/><path style="stroke: gray; fill: none;" marker-start="url(#ONLY_ONE_START)" marker-end="url(#ZERO_OR_MORE_END)" d="M1200.887,216.247L1344.002,248.373C1487.117,280.498,1773.348,344.749,1916.463,385.208C2059.578,425.667,2059.578,442.333,2059.578,450.667L2059.578,459" class="er relationshipLine"/><g transform="translate(962.57421875,20 )" id="entity-MedicalGuidelineRecommendation-157a16cd-307c-57d2-8f88-d1836fdd6efc"><rect height="339" width="238.3125" y="0" x="0" class="er entityBox"/><text style="dominant-baseline: middle; text-anchor: middle; font-size: 12px;" transform="translate(119.15625,12)" y="0" x="0" id="text-entity-MedicalGuidelineRecommendation-157a16cd-307c-57d2-8f88-d1836fdd6efc" class="er entityLabel">MedicalGuidelineRecommendation</text><rect height="21" width="74.1796875" y="24" x="0" class="er attributeBoxOdd"/><text style="dominant-baseline: middle; font-size: 10.2px;" transform="translate(5,34.5)" y="0" x="0" id="text-entity-MedicalGuidelineRecommendation-157a16cd-307c-57d2-8f88-d1836fdd6efc-attr-1-type" class="er entityLabel">TextList</text><rect height="21" width="164.1328125" y="24" x="74.1796875" class="er attributeBoxOdd"/><text style="dominant-baseline: middle; font-size: 10.2px;" transform="translate(79.1796875,34.5)" y="0" x="0" id="text-entity-MedicalGuidelineRecommendation-157a16cd-307c-57d2-8f88-d1836fdd6efc-attr-1-name" class="er entityLabel">recommendationStrength</text><rect height="21" width="74.1796875" y="45" x="0" class="er attributeBoxEven"/><text style="dominant-baseline: middle; font-size: 10.2px;" transform="translate(5,55.5)" y="0" x="0" id="text-entity-MedicalGuidelineRecommendation-157a16cd-307c-57d2-8f88-d1836fdd6efc-attr-2-type" class="er entityLabel">TextList</text><rect height="21" width="164.1328125" y="45" x="74.1796875" class="er attributeBoxEven"/><text style="dominant-baseline: middle; font-size: 10.2px;" transform="translate(79.1796875,55.5)" y="0" x="0" id="text-entity-MedicalGuidelineRecommendation-157a16cd-307c-57d2-8f88-d1836fdd6efc-attr-2-name" class="er entityLabel">evidenceOrigin</text><rect height="21" width="74.1796875" y="66" x="0" class="er attributeBoxOdd"/><text style="dominant-baseline: middle; font-size: 10.2px;" transform="translate(5,76.5)" y="0" x="0" id="text-entity-MedicalGuidelineRecommendation-157a16cd-307c-57d2-8f88-d1836fdd6efc-attr-3-type" class="er entityLabel">DateList</text><rect height="21" width="164.1328125" y="66" x="74.1796875" class="er attributeBoxOdd"/><text style="dominant-baseline: middle; font-size: 10.2px;" transform="translate(79.1796875,76.5)" y="0" x="0" id="text-entity-MedicalGuidelineRecommendation-157a16cd-307c-57d2-8f88-d1836fdd6efc-attr-3-name" class="er entityLabel">guidelineDate</text><rect height="21" width="74.1796875" y="87" x="0" class="er attributeBoxEven"/><text style="dominant-baseline: middle; font-size: 10.2px;" transform="translate(5,97.5)" y="0" x="0" id="text-entity-MedicalGuidelineRecommendation-157a16cd-307c-57d2-8f88-d1836fdd6efc-attr-4-type" class="er entityLabel">stringList</text><rect height="21" width="164.1328125" y="87" x="74.1796875" class="er attributeBoxEven"/><text style="dominant-baseline: middle; font-size: 10.2px;" transform="translate(79.1796875,97.5)" y="0" x="0" id="text-entity-MedicalGuidelineRecommendation-157a16cd-307c-57d2-8f88-d1836fdd6efc-attr-4-name" class="er entityLabel">legalStatus</text><rect height="21" width="74.1796875" y="108" x="0" class="er attributeBoxOdd"/><text style="dominant-baseline: middle; font-size: 10.2px;" transform="translate(5,118.5)" y="0" x="0" id="text-entity-MedicalGuidelineRecommendation-157a16cd-307c-57d2-8f88-d1836fdd6efc-attr-5-type" class="er entityLabel">stringList</text><rect height="21" width="164.1328125" y="108" x="74.1796875" class="er attributeBoxOdd"/><text style="dominant-baseline: middle; font-size: 10.2px;" transform="translate(79.1796875,118.5)" y="0" x="0" id="text-entity-MedicalGuidelineRecommendation-157a16cd-307c-57d2-8f88-d1836fdd6efc-attr-5-name" class="er entityLabel">additionalType</text><rect height="21" width="74.1796875" y="129" x="0" class="er attributeBoxEven"/><text style="dominant-baseline: middle; font-size: 10.2px;" transform="translate(5,139.5)" y="0" x="0" id="text-entity-MedicalGuidelineRecommendation-157a16cd-307c-57d2-8f88-d1836fdd6efc-attr-6-type" class="er entityLabel">TextList</text><rect height="21" width="164.1328125" y="129" x="74.1796875" class="er attributeBoxEven"/><text style="dominant-baseline: middle; font-size: 10.2px;" transform="translate(79.1796875,139.5)" y="0" x="0" id="text-entity-MedicalGuidelineRecommendation-157a16cd-307c-57d2-8f88-d1836fdd6efc-attr-6-name" class="er entityLabel">alternateName</text><rect height="21" width="74.1796875" y="150" x="0" class="er attributeBoxOdd"/><text style="dominant-baseline: middle; font-size: 10.2px;" transform="translate(5,160.5)" y="0" x="0" id="text-entity-MedicalGuidelineRecommendation-157a16cd-307c-57d2-8f88-d1836fdd6efc-attr-7-type" class="er entityLabel">stringList</text><rect height="21" width="164.1328125" y="150" x="74.1796875" class="er attributeBoxOdd"/><text style="dominant-baseline: middle; font-size: 10.2px;" transform="translate(79.1796875,160.5)" y="0" x="0" id="text-entity-MedicalGuidelineRecommendation-157a16cd-307c-57d2-8f88-d1836fdd6efc-attr-7-name" class="er entityLabel">description</text><rect height="21" width="74.1796875" y="171" x="0" class="er attributeBoxEven"/><text style="dominant-baseline: middle; font-size: 10.2px;" transform="translate(5,181.5)" y="0" x="0" id="text-entity-MedicalGuidelineRecommendation-157a16cd-307c-57d2-8f88-d1836fdd6efc-attr-8-type" class="er entityLabel">TextList</text><rect height="21" width="164.1328125" y="171" x="74.1796875" class="er attributeBoxEven"/><text style="dominant-baseline: middle; font-size: 10.2px;" transform="translate(79.1796875,181.5)" y="0" x="0" id="text-entity-MedicalGuidelineRecommendation-157a16cd-307c-57d2-8f88-d1836fdd6efc-attr-8-name" class="er entityLabel">disambiguatingDescription</text><rect height="21" width="74.1796875" y="192" x="0" class="er attributeBoxOdd"/><text style="dominant-baseline: middle; font-size: 10.2px;" transform="translate(5,202.5)" y="0" x="0" id="text-entity-MedicalGuidelineRecommendation-157a16cd-307c-57d2-8f88-d1836fdd6efc-attr-9-type" class="er entityLabel">stringList</text><rect height="21" width="164.1328125" y="192" x="74.1796875" class="er attributeBoxOdd"/><text style="dominant-baseline: middle; font-size: 10.2px;" transform="translate(79.1796875,202.5)" y="0" x="0" id="text-entity-MedicalGuidelineRecommendation-157a16cd-307c-57d2-8f88-d1836fdd6efc-attr-9-name" class="er entityLabel">identifier</text><rect height="21" width="74.1796875" y="213" x="0" class="er attributeBoxEven"/><text style="dominant-baseline: middle; font-size: 10.2px;" transform="translate(5,223.5)" y="0" x="0" id="text-entity-MedicalGuidelineRecommendation-157a16cd-307c-57d2-8f88-d1836fdd6efc-attr-10-type" class="er entityLabel">stringList</text><rect height="21" width="164.1328125" y="213" x="74.1796875" class="er attributeBoxEven"/><text style="dominant-baseline: middle; font-size: 10.2px;" transform="translate(79.1796875,223.5)" y="0" x="0" id="text-entity-MedicalGuidelineRecommendation-157a16cd-307c-57d2-8f88-d1836fdd6efc-attr-10-name" class="er entityLabel">image</text><rect height="21" width="74.1796875" y="234" x="0" class="er attributeBoxOdd"/><text style="dominant-baseline: middle; font-size: 10.2px;" transform="translate(5,244.5)" y="0" x="0" id="text-entity-MedicalGuidelineRecommendation-157a16cd-307c-57d2-8f88-d1836fdd6efc-attr-11-type" class="er entityLabel">TextList</text><rect height="21" width="164.1328125" y="234" x="74.1796875" class="er attributeBoxOdd"/><text style="dominant-baseline: middle; font-size: 10.2px;" transform="translate(79.1796875,244.5)" y="0" x="0" id="text-entity-MedicalGuidelineRecommendation-157a16cd-307c-57d2-8f88-d1836fdd6efc-attr-11-name" class="er entityLabel">name</text><rect height="21" width="74.1796875" y="255" x="0" class="er attributeBoxEven"/><text style="dominant-baseline: middle; font-size: 10.2px;" transform="translate(5,265.5)" y="0" x="0" id="text-entity-MedicalGuidelineRecommendation-157a16cd-307c-57d2-8f88-d1836fdd6efc-attr-12-type" class="er entityLabel">URLList</text><rect height="21" width="164.1328125" y="255" x="74.1796875" class="er attributeBoxEven"/><text style="dominant-baseline: middle; font-size: 10.2px;" transform="translate(79.1796875,265.5)" y="0" x="0" id="text-entity-MedicalGuidelineRecommendation-157a16cd-307c-57d2-8f88-d1836fdd6efc-attr-12-name" class="er entityLabel">sameAs</text><rect height="21" width="74.1796875" y="276" x="0" class="er attributeBoxOdd"/><text style="dominant-baseline: middle; font-size: 10.2px;" transform="translate(5,286.5)" y="0" x="0" id="text-entity-MedicalGuidelineRecommendation-157a16cd-307c-57d2-8f88-d1836fdd6efc-attr-13-type" class="er entityLabel">stringList</text><rect height="21" width="164.1328125" y="276" x="74.1796875" class="er attributeBoxOdd"/><text style="dominant-baseline: middle; font-size: 10.2px;" transform="translate(79.1796875,286.5)" y="0" x="0" id="text-entity-MedicalGuidelineRecommendation-157a16cd-307c-57d2-8f88-d1836fdd6efc-attr-13-name" class="er entityLabel">mainEntityOfPage</text><rect height="21" width="74.1796875" y="297" x="0" class="er attributeBoxEven"/><text style="dominant-baseline: middle; font-size: 10.2px;" transform="translate(5,307.5)" y="0" x="0" id="text-entity-MedicalGuidelineRecommendation-157a16cd-307c-57d2-8f88-d1836fdd6efc-attr-14-type" class="er entityLabel">stringList</text><rect height="21" width="164.1328125" y="297" x="74.1796875" class="er attributeBoxEven"/><text style="dominant-baseline: middle; font-size: 10.2px;" transform="translate(79.1796875,307.5)" y="0" x="0" id="text-entity-MedicalGuidelineRecommendation-157a16cd-307c-57d2-8f88-d1836fdd6efc-attr-14-name" class="er entityLabel">subjectOf</text><rect height="21" width="74.1796875" y="318" x="0" class="er attributeBoxOdd"/><text style="dominant-baseline: middle; font-size: 10.2px;" transform="translate(5,328.5)" y="0" x="0" id="text-entity-MedicalGuidelineRecommendation-157a16cd-307c-57d2-8f88-d1836fdd6efc-attr-15-type" class="er entityLabel">URLList</text><rect height="21" width="164.1328125" y="318" x="74.1796875" class="er attributeBoxOdd"/><text style="dominant-baseline: middle; font-size: 10.2px;" transform="translate(79.1796875,328.5)" y="0" x="0" id="text-entity-MedicalGuidelineRecommendation-157a16cd-307c-57d2-8f88-d1836fdd6efc-attr-15-name" class="er entityLabel">url</text></g><g transform="translate(20,459 )" id="entity-MedicalEvidenceLevel-9bbbe60c-e498-583b-b223-27210b7f4216"><rect height="75" width="162.265625" y="0" x="0" class="er entityBox"/><text style="dominant-baseline: middle; text-anchor: middle; font-size: 12px;" transform="translate(81.1328125,37.5)" y="0" x="0" id="text-entity-MedicalEvidenceLevel-9bbbe60c-e498-583b-b223-27210b7f4216" class="er entityLabel">MedicalEvidenceLevel</text></g><g transform="translate(282.265625,459 )" id="entity-MedicalEntity-da7f22f1-1df3-52b4-9ce4-a5e4f6d6add9"><rect height="75" width="111.015625" y="0" x="0" class="er entityBox"/><text style="dominant-baseline: middle; text-anchor: middle; font-size: 12px;" transform="translate(55.5078125,37.5)" y="0" x="0" id="text-entity-MedicalEntity-da7f22f1-1df3-52b4-9ce4-a5e4f6d6add9" class="er entityLabel">MedicalEntity</text></g><g transform="translate(493.28125,459 )" id="entity-MedicalCode-340ab1f3-b0e0-51ff-b309-32031f623ceb"><rect height="75" width="106.703125" y="0" x="0" class="er entityBox"/><text style="dominant-baseline: middle; text-anchor: middle; font-size: 12px;" transform="translate(53.3515625,37.5)" y="0" x="0" id="text-entity-MedicalCode-340ab1f3-b0e0-51ff-b309-32031f623ceb" class="er entityLabel">MedicalCode</text></g><g transform="translate(699.984375,459 )" id="entity-Grant-291daf2c-8722-576f-890e-1045bc6484c0"><rect height="75" width="100" y="0" x="0" class="er entityBox"/><text style="dominant-baseline: middle; text-anchor: middle; font-size: 12px;" transform="translate(50,37.5)" y="0" x="0" id="text-entity-Grant-291daf2c-8722-576f-890e-1045bc6484c0" class="er entityLabel">Grant</text></g><g transform="translate(899.984375,459 )" id="entity-MedicalGuideline-a05959e1-803b-55cd-8b3c-b530a54fde23"><rect height="75" width="132.875" y="0" x="0" class="er entityBox"/><text style="dominant-baseline: middle; text-anchor: middle; font-size: 12px;" transform="translate(66.4375,37.5)" y="0" x="0" id="text-entity-MedicalGuideline-a05959e1-803b-55cd-8b3c-b530a54fde23" class="er entityLabel">MedicalGuideline</text></g><g transform="translate(1132.859375,459 )" id="entity-MedicineSystem-74197b84-67e0-5471-ab59-f3fd7c3c0e72"><rect height="75" width="128.359375" y="0" x="0" class="er entityBox"/><text style="dominant-baseline: middle; text-anchor: middle; font-size: 12px;" transform="translate(64.1796875,37.5)" y="0" x="0" id="text-entity-MedicineSystem-74197b84-67e0-5471-ab59-f3fd7c3c0e72" class="er entityLabel">MedicineSystem</text></g><g transform="translate(1361.21875,459 )" id="entity-Organization-ef1721ab-1f62-5ef5-a525-a6c60c2f6032"><rect height="75" width="106.71875" y="0" x="0" class="er entityBox"/><text style="dominant-baseline: middle; text-anchor: middle; font-size: 12px;" transform="translate(53.359375,37.5)" y="0" x="0" id="text-entity-Organization-ef1721ab-1f62-5ef5-a525-a6c60c2f6032" class="er entityLabel">Organization</text></g><g transform="translate(1567.9375,459 )" id="entity-MedicalSpecialty-0f4a20d3-5a5d-5b81-b412-da395afebba8"><rect height="75" width="131.015625" y="0" x="0" class="er entityBox"/><text style="dominant-baseline: middle; text-anchor: middle; font-size: 12px;" transform="translate(65.5078125,37.5)" y="0" x="0" id="text-entity-MedicalSpecialty-0f4a20d3-5a5d-5b81-b412-da395afebba8" class="er entityLabel">MedicalSpecialty</text></g><g transform="translate(1798.953125,459 )" id="entity-MedicalStudy-22dea251-12b7-5654-af29-afad6ffe12b1"><rect height="75" width="110.625" y="0" x="0" class="er entityBox"/><text style="dominant-baseline: middle; text-anchor: middle; font-size: 12px;" transform="translate(55.3125,37.5)" y="0" x="0" id="text-entity-MedicalStudy-22dea251-12b7-5654-af29-afad6ffe12b1" class="er entityLabel">MedicalStudy</text></g><g transform="translate(2009.578125,459 )" id="entity-Action-6cd87d9a-a078-546e-a35b-bee54f477b31"><rect height="75" width="100" y="0" x="0" class="er entityBox"/><text style="dominant-baseline: middle; text-anchor: middle; font-size: 12px;" transform="translate(50,37.5)" y="0" x="0" id="text-entity-Action-6cd87d9a-a078-546e-a35b-bee54f477b31" class="er entityLabel">Action</text></g><rect height="14" width="86.09375" y="309.4883117675781" x="476.57794189453125" class="er relationshipLabelBox"/><text style="text-anchor: middle; dominant-baseline: middle; font-size: 12px;" y="316.4883117675781" x="519.6248168945312" id="rel1" class="er relationshipLabel">evidenceLevel</text><rect height="14" width="100.3671875" y="315.0436706542969" x="586.490478515625" class="er relationshipLabelBox"/><text style="text-anchor: middle; dominant-baseline: middle; font-size: 12px;" y="322.0436706542969" x="636.674072265625" id="rel2" class="er relationshipLabel">guidelineSubject</text><rect height="14" width="28.953125" y="324.15814208984375" x="725.2571411132812" class="er relationshipLabelBox"/><text style="text-anchor: middle; dominant-baseline: middle; font-size: 12px;" y="331.15814208984375" x="739.7337036132812" id="rel3" class="er relationshipLabel">code</text><rect height="14" width="45.609375" y="343.85882568359375" x="817.7609252929688" class="er relationshipLabelBox"/><text style="text-anchor: middle; dominant-baseline: middle; font-size: 12px;" y="350.85882568359375" x="840.5656127929688" id="rel4" class="er relationshipLabel">funding</text><rect height="14" width="55.21875" y="399.8988342285156" x="943.765869140625" class="er relationshipLabelBox"/><text style="text-anchor: middle; dominant-baseline: middle; font-size: 12px;" y="406.8988342285156" x="971.375244140625" id="rel5" class="er relationshipLabel">guideline</text><rect height="14" width="99.703125" y="399.8987731933594" x="1142.2342529296875" class="er relationshipLabelBox"/><text style="text-anchor: middle; dominant-baseline: middle; font-size: 12px;" y="406.8987731933594" x="1192.0858154296875" id="rel6" class="er relationshipLabel">medicineSystem</text><rect height="14" width="124.953125" y="343.6903991699219" x="1260.9715576171875" class="er relationshipLabelBox"/><text style="text-anchor: middle; dominant-baseline: middle; font-size: 12px;" y="350.6903991699219" x="1323.4481201171875" id="rel7" class="er relationshipLabel">recognizingAuthority</text><rect height="14" width="104.578125" y="323.1806335449219" x="1379.6343994140625" class="er relationshipLabelBox"/><text style="text-anchor: middle; dominant-baseline: middle; font-size: 12px;" y="330.1806335449219" x="1431.9234619140625" id="rel8" class="er relationshipLabel">relevantSpecialty</text><rect height="14" width="33.28125" y="314.18731689453125" x="1524.2630615234375" class="er relationshipLabelBox"/><text style="text-anchor: middle; dominant-baseline: middle; font-size: 12px;" y="321.18731689453125" x="1540.9036865234375" id="rel9" class="er relationshipLabel">study</text><rect height="14" width="90.96875" y="309.5394287109375" x="1596.989013671875" class="er relationshipLabelBox"/><text style="text-anchor: middle; dominant-baseline: middle; font-size: 12px;" y="316.5394287109375" x="1642.473388671875" id="rel10" class="er relationshipLabel">potentialAction</text></svg>