<svg aria-roledescription="er" role="graphics-document document" viewBox="0 0 1962.04638671875 449" style="max-width: 1962.05px; background-color: white;" xmlns:xlink="http://www.w3.org/1999/xlink" xmlns="http://www.w3.org/2000/svg" width="100%" id="my-svg"><style>#my-svg{font-family:"trebuchet ms",verdana,arial,sans-serif;font-size:16px;fill:#333;}#my-svg .error-icon{fill:#552222;}#my-svg .error-text{fill:#552222;stroke:#552222;}#my-svg .edge-thickness-normal{stroke-width:1px;}#my-svg .edge-thickness-thick{stroke-width:3.5px;}#my-svg .edge-pattern-solid{stroke-dasharray:0;}#my-svg .edge-thickness-invisible{stroke-width:0;fill:none;}#my-svg .edge-pattern-dashed{stroke-dasharray:3;}#my-svg .edge-pattern-dotted{stroke-dasharray:2;}#my-svg .marker{fill:#333333;stroke:#333333;}#my-svg .marker.cross{stroke:#333333;}#my-svg svg{font-family:"trebuchet ms",verdana,arial,sans-serif;font-size:16px;}#my-svg p{margin:0;}#my-svg .entityBox{fill:#ECECFF;stroke:#9370DB;}#my-svg .attributeBoxOdd{fill:#ffffff;stroke:#9370DB;}#my-svg .attributeBoxEven{fill:#f2f2f2;stroke:#9370DB;}#my-svg .relationshipLabelBox{fill:hsl(80, 100%, 96.2745098039%);opacity:0.7;background-color:hsl(80, 100%, 96.2745098039%);}#my-svg .relationshipLabelBox rect{opacity:0.5;}#my-svg .relationshipLine{stroke:#333333;}#my-svg .entityTitleText{text-anchor:middle;font-size:18px;fill:#333;}#my-svg #MD_PARENT_START{fill:#f5f5f5!important;stroke:#333333!important;stroke-width:1;}#my-svg #MD_PARENT_END{fill:#f5f5f5!important;stroke:#333333!important;stroke-width:1;}#my-svg :root{--mermaid-font-family:"trebuchet ms",verdana,arial,sans-serif;}</style><g/><defs><marker orient="auto" markerHeight="240" markerWidth="190" refY="7" refX="0" id="MD_PARENT_START"><path d="M 18,7 L9,13 L1,7 L9,1 Z"/></marker></defs><defs><marker orient="auto" markerHeight="28" markerWidth="20" refY="7" refX="19" id="MD_PARENT_END"><path d="M 18,7 L9,13 L1,7 L9,1 Z"/></marker></defs><defs><marker orient="auto" markerHeight="18" markerWidth="18" refY="9" refX="0" id="ONLY_ONE_START"><path d="M9,0 L9,18 M15,0 L15,18" fill="none" stroke="gray"/></marker></defs><defs><marker orient="auto" markerHeight="18" markerWidth="18" refY="9" refX="18" id="ONLY_ONE_END"><path d="M3,0 L3,18 M9,0 L9,18" fill="none" stroke="gray"/></marker></defs><defs><marker orient="auto" markerHeight="18" markerWidth="30" refY="9" refX="0" id="ZERO_OR_ONE_START"><circle r="6" cy="9" cx="21" fill="white" stroke="gray"/><path d="M9,0 L9,18" fill="none" stroke="gray"/></marker></defs><defs><marker orient="auto" markerHeight="18" markerWidth="30" refY="9" refX="30" id="ZERO_OR_ONE_END"><circle r="6" cy="9" cx="9" fill="white" stroke="gray"/><path d="M21,0 L21,18" fill="none" stroke="gray"/></marker></defs><defs><marker orient="auto" markerHeight="36" markerWidth="45" refY="18" refX="18" id="ONE_OR_MORE_START"><path d="M0,18 Q 18,0 36,18 Q 18,36 0,18 M42,9 L42,27" fill="none" stroke="gray"/></marker></defs><defs><marker orient="auto" markerHeight="36" markerWidth="45" refY="18" refX="27" id="ONE_OR_MORE_END"><path d="M3,9 L3,27 M9,18 Q27,0 45,18 Q27,36 9,18" fill="none" stroke="gray"/></marker></defs><defs><marker orient="auto" markerHeight="36" markerWidth="57" refY="18" refX="18" id="ZERO_OR_MORE_START"><circle r="6" cy="18" cx="48" fill="white" stroke="gray"/><path d="M0,18 Q18,0 36,18 Q18,36 0,18" fill="none" stroke="gray"/></marker></defs><defs><marker orient="auto" markerHeight="36" markerWidth="57" refY="18" refX="39" id="ZERO_OR_MORE_END"><circle r="6" cy="18" cx="9" fill="white" stroke="gray"/><path d="M21,18 Q39,0 57,18 Q39,36 21,18" fill="none" stroke="gray"/></marker></defs><path style="stroke: gray; fill: none;" marker-start="url(#ONLY_ONE_START)" marker-end="url(#ZERO_OR_MORE_END)" d="M1258.656,154.355L1066.958,179.296C875.26,204.237,491.864,254.118,300.167,287.392C108.469,320.667,108.469,337.333,108.469,345.667L108.469,354" class="er relationshipLine"/><path style="stroke: gray; fill: none;" marker-start="url(#ONLY_ONE_START)" marker-end="url(#ZERO_OR_MORE_END)" d="M1258.656,159.1L1112.889,183.25C967.122,207.4,675.588,255.7,529.822,288.183C384.055,320.667,384.055,337.333,384.055,345.667L384.055,354" class="er relationshipLine"/><path style="stroke: gray; fill: none;" marker-start="url(#ONLY_ONE_START)" marker-end="url(#ZERO_OR_MORE_END)" d="M1258.656,167.73L1160.073,190.442C1061.489,213.154,864.323,258.577,765.74,289.622C667.156,320.667,667.156,337.333,667.156,345.667L667.156,354" class="er relationshipLine"/><path style="stroke: gray; fill: none;" marker-start="url(#ONLY_ONE_START)" marker-end="url(#ZERO_OR_MORE_END)" d="M1258.656,189.134L1209.673,208.278C1160.69,227.423,1062.724,265.711,1013.741,293.189C964.758,320.667,964.758,337.333,964.758,345.667L964.758,354" class="er relationshipLine"/><path style="stroke: gray; fill: none;" marker-start="url(#ONLY_ONE_START)" marker-end="url(#ZERO_OR_MORE_END)" d="M1280.961,254L1273.049,262.333C1265.137,270.667,1249.313,287.333,1241.401,304C1233.489,320.667,1233.489,337.333,1233.489,345.667L1233.489,354" class="er relationshipLine"/><path style="stroke: gray; fill: none;" marker-start="url(#ONLY_ONE_START)" marker-end="url(#ZERO_OR_MORE_END)" d="M1357.016,254L1354.521,262.333C1352.026,270.667,1347.036,287.333,1361.208,305.389C1375.38,323.444,1408.713,342.889,1425.38,352.611L1442.046,362.333" class="er relationshipLine"/><path style="stroke: gray; fill: none;" marker-start="url(#ONLY_ONE_START)" marker-end="url(#ZERO_OR_MORE_END)" d="M1427.076,254L1429.571,262.333C1432.066,270.667,1437.056,287.333,1444.313,304C1451.57,320.667,1461.094,337.333,1465.856,345.667L1470.618,354" class="er relationshipLine"/><path style="stroke: gray; fill: none;" marker-start="url(#ONLY_ONE_START)" marker-end="url(#ZERO_OR_MORE_END)" d="M1497.136,254L1504.621,262.333C1512.106,270.667,1527.076,287.333,1529.799,304C1532.523,320.667,1522.999,337.333,1518.237,345.667L1513.475,354" class="er relationshipLine"/><path style="stroke: gray; fill: none;" marker-start="url(#ONLY_ONE_START)" marker-end="url(#ZERO_OR_MORE_END)" d="M1525.437,226.105L1544.872,239.087C1564.307,252.07,1603.177,278.035,1627.373,299.351C1651.57,320.667,1661.094,337.333,1665.856,345.667L1670.618,354" class="er relationshipLine"/><path style="stroke: gray; fill: none;" marker-start="url(#ONLY_ONE_START)" marker-end="url(#ZERO_OR_MORE_END)" d="M1525.437,181.552L1586.539,201.96C1647.64,222.368,1769.843,263.184,1830.945,291.925C1892.046,320.667,1892.046,337.333,1892.046,345.667L1892.046,354" class="er relationshipLine"/><path style="stroke: gray; fill: none;" marker-start="url(#ONLY_ONE_START)" marker-end="url(#ZERO_OR_MORE_END)" d="M1525.437,200.646L1561.539,217.872C1597.64,235.098,1669.843,269.549,1701.183,295.108C1732.523,320.667,1722.999,337.333,1718.237,345.667L1713.475,354" class="er relationshipLine"/><g transform="translate(1258.65576171875,20 )" id="entity-MerchantReturnPolicySeasonalOverride-23423f74-fb11-51e6-9989-744d9105cf73"><rect height="234" width="266.78125" y="0" x="0" class="er entityBox"/><text style="dominant-baseline: middle; text-anchor: middle; font-size: 12px;" transform="translate(133.390625,12)" y="0" x="0" id="text-entity-MerchantReturnPolicySeasonalOverride-23423f74-fb11-51e6-9989-744d9105cf73" class="er entityLabel">MerchantReturnPolicySeasonalOverride</text><rect height="21" width="102.8515625" y="24" x="0" class="er attributeBoxOdd"/><text style="dominant-baseline: middle; font-size: 10.2px;" transform="translate(5,34.5)" y="0" x="0" id="text-entity-MerchantReturnPolicySeasonalOverride-23423f74-fb11-51e6-9989-744d9105cf73-attr-1-type" class="er entityLabel">stringList</text><rect height="21" width="163.9296875" y="24" x="102.8515625" class="er attributeBoxOdd"/><text style="dominant-baseline: middle; font-size: 10.2px;" transform="translate(107.8515625,34.5)" y="0" x="0" id="text-entity-MerchantReturnPolicySeasonalOverride-23423f74-fb11-51e6-9989-744d9105cf73-attr-1-name" class="er entityLabel">endDate</text><rect height="21" width="102.8515625" y="45" x="0" class="er attributeBoxEven"/><text style="dominant-baseline: middle; font-size: 10.2px;" transform="translate(5,55.5)" y="0" x="0" id="text-entity-MerchantReturnPolicySeasonalOverride-23423f74-fb11-51e6-9989-744d9105cf73-attr-2-type" class="er entityLabel">stringList</text><rect height="21" width="163.9296875" y="45" x="102.8515625" class="er attributeBoxEven"/><text style="dominant-baseline: middle; font-size: 10.2px;" transform="translate(107.8515625,55.5)" y="0" x="0" id="text-entity-MerchantReturnPolicySeasonalOverride-23423f74-fb11-51e6-9989-744d9105cf73-attr-2-name" class="er entityLabel">merchantReturnDays</text><rect height="21" width="102.8515625" y="66" x="0" class="er attributeBoxOdd"/><text style="dominant-baseline: middle; font-size: 10.2px;" transform="translate(5,76.5)" y="0" x="0" id="text-entity-MerchantReturnPolicySeasonalOverride-23423f74-fb11-51e6-9989-744d9105cf73-attr-3-type" class="er entityLabel">stringList</text><rect height="21" width="163.9296875" y="66" x="102.8515625" class="er attributeBoxOdd"/><text style="dominant-baseline: middle; font-size: 10.2px;" transform="translate(107.8515625,76.5)" y="0" x="0" id="text-entity-MerchantReturnPolicySeasonalOverride-23423f74-fb11-51e6-9989-744d9105cf73-attr-3-name" class="er entityLabel">restockingFee</text><rect height="21" width="102.8515625" y="87" x="0" class="er attributeBoxEven"/><text style="dominant-baseline: middle; font-size: 10.2px;" transform="translate(5,97.5)" y="0" x="0" id="text-entity-MerchantReturnPolicySeasonalOverride-23423f74-fb11-51e6-9989-744d9105cf73-attr-4-type" class="er entityLabel">stringList</text><rect height="21" width="163.9296875" y="87" x="102.8515625" class="er attributeBoxEven"/><text style="dominant-baseline: middle; font-size: 10.2px;" transform="translate(107.8515625,97.5)" y="0" x="0" id="text-entity-MerchantReturnPolicySeasonalOverride-23423f74-fb11-51e6-9989-744d9105cf73-attr-4-name" class="er entityLabel">startDate</text><rect height="21" width="102.8515625" y="108" x="0" class="er attributeBoxOdd"/><text style="dominant-baseline: middle; font-size: 10.2px;" transform="translate(5,118.5)" y="0" x="0" id="text-entity-MerchantReturnPolicySeasonalOverride-23423f74-fb11-51e6-9989-744d9105cf73-attr-5-type" class="er entityLabel">stringList</text><rect height="21" width="163.9296875" y="108" x="102.8515625" class="er attributeBoxOdd"/><text style="dominant-baseline: middle; font-size: 10.2px;" transform="translate(107.8515625,118.5)" y="0" x="0" id="text-entity-MerchantReturnPolicySeasonalOverride-23423f74-fb11-51e6-9989-744d9105cf73-attr-5-name" class="er entityLabel">additionalType</text><rect height="21" width="102.8515625" y="129" x="0" class="er attributeBoxEven"/><text style="dominant-baseline: middle; font-size: 10.2px;" transform="translate(5,139.5)" y="0" x="0" id="text-entity-MerchantReturnPolicySeasonalOverride-23423f74-fb11-51e6-9989-744d9105cf73-attr-6-type" class="er entityLabel">stringList</text><rect height="21" width="163.9296875" y="129" x="102.8515625" class="er attributeBoxEven"/><text style="dominant-baseline: middle; font-size: 10.2px;" transform="translate(107.8515625,139.5)" y="0" x="0" id="text-entity-MerchantReturnPolicySeasonalOverride-23423f74-fb11-51e6-9989-744d9105cf73-attr-6-name" class="er entityLabel">description</text><rect height="21" width="102.8515625" y="150" x="0" class="er attributeBoxOdd"/><text style="dominant-baseline: middle; font-size: 10.2px;" transform="translate(5,160.5)" y="0" x="0" id="text-entity-MerchantReturnPolicySeasonalOverride-23423f74-fb11-51e6-9989-744d9105cf73-attr-7-type" class="er entityLabel">stringList</text><rect height="21" width="163.9296875" y="150" x="102.8515625" class="er attributeBoxOdd"/><text style="dominant-baseline: middle; font-size: 10.2px;" transform="translate(107.8515625,160.5)" y="0" x="0" id="text-entity-MerchantReturnPolicySeasonalOverride-23423f74-fb11-51e6-9989-744d9105cf73-attr-7-name" class="er entityLabel">identifier</text><rect height="21" width="102.8515625" y="171" x="0" class="er attributeBoxEven"/><text style="dominant-baseline: middle; font-size: 10.2px;" transform="translate(5,181.5)" y="0" x="0" id="text-entity-MerchantReturnPolicySeasonalOverride-23423f74-fb11-51e6-9989-744d9105cf73-attr-8-type" class="er entityLabel">stringList</text><rect height="21" width="163.9296875" y="171" x="102.8515625" class="er attributeBoxEven"/><text style="dominant-baseline: middle; font-size: 10.2px;" transform="translate(107.8515625,181.5)" y="0" x="0" id="text-entity-MerchantReturnPolicySeasonalOverride-23423f74-fb11-51e6-9989-744d9105cf73-attr-8-name" class="er entityLabel">image</text><rect height="21" width="102.8515625" y="192" x="0" class="er attributeBoxOdd"/><text style="dominant-baseline: middle; font-size: 10.2px;" transform="translate(5,202.5)" y="0" x="0" id="text-entity-MerchantReturnPolicySeasonalOverride-23423f74-fb11-51e6-9989-744d9105cf73-attr-9-type" class="er entityLabel">stringList</text><rect height="21" width="163.9296875" y="192" x="102.8515625" class="er attributeBoxOdd"/><text style="dominant-baseline: middle; font-size: 10.2px;" transform="translate(107.8515625,202.5)" y="0" x="0" id="text-entity-MerchantReturnPolicySeasonalOverride-23423f74-fb11-51e6-9989-744d9105cf73-attr-9-name" class="er entityLabel">mainEntityOfPage</text><rect height="21" width="102.8515625" y="213" x="0" class="er attributeBoxEven"/><text style="dominant-baseline: middle; font-size: 10.2px;" transform="translate(5,223.5)" y="0" x="0" id="text-entity-MerchantReturnPolicySeasonalOverride-23423f74-fb11-51e6-9989-744d9105cf73-attr-10-type" class="er entityLabel">stringList</text><rect height="21" width="163.9296875" y="213" x="102.8515625" class="er attributeBoxEven"/><text style="dominant-baseline: middle; font-size: 10.2px;" transform="translate(107.8515625,223.5)" y="0" x="0" id="text-entity-MerchantReturnPolicySeasonalOverride-23423f74-fb11-51e6-9989-744d9105cf73-attr-10-name" class="er entityLabel">subjectOf</text></g><g transform="translate(20,354 )" id="entity-RefundTypeEnumeration-24824a45-9685-5c45-bdd9-eba81ae99c2e"><rect height="75" width="176.9375" y="0" x="0" class="er entityBox"/><text style="dominant-baseline: middle; text-anchor: middle; font-size: 12px;" transform="translate(88.46875,37.5)" y="0" x="0" id="text-entity-RefundTypeEnumeration-24824a45-9685-5c45-bdd9-eba81ae99c2e" class="er entityLabel">RefundTypeEnumeration</text></g><g transform="translate(296.9375,354 )" id="entity-ReturnFeesEnumeration-32026089-59ce-54b8-a0fe-9e99a6eaa344"><rect height="75" width="174.234375" y="0" x="0" class="er entityBox"/><text style="dominant-baseline: middle; text-anchor: middle; font-size: 12px;" transform="translate(87.1171875,37.5)" y="0" x="0" id="text-entity-ReturnFeesEnumeration-32026089-59ce-54b8-a0fe-9e99a6eaa344" class="er entityLabel">ReturnFeesEnumeration</text></g><g transform="translate(571.171875,354 )" id="entity-ReturnMethodEnumeration-54adeef1-c072-5aa6-a4fa-744132084e98"><rect height="75" width="191.96875" y="0" x="0" class="er entityBox"/><text style="dominant-baseline: middle; text-anchor: middle; font-size: 12px;" transform="translate(95.984375,37.5)" y="0" x="0" id="text-entity-ReturnMethodEnumeration-54adeef1-c072-5aa6-a4fa-744132084e98" class="er entityLabel">ReturnMethodEnumeration</text></g><g transform="translate(863.140625,354 )" id="entity-MerchantReturnEnumeration-9f642697-1318-514e-99a9-dfb1a527577b"><rect height="75" width="203.234375" y="0" x="0" class="er entityBox"/><text style="dominant-baseline: middle; text-anchor: middle; font-size: 12px;" transform="translate(101.6171875,37.5)" y="0" x="0" id="text-entity-MerchantReturnEnumeration-9f642697-1318-514e-99a9-dfb1a527577b" class="er entityLabel">MerchantReturnEnumeration</text></g><g transform="translate(1166.375,354 )" id="entity-MonetaryAmount-99d98e1d-dae3-555c-a0b3-eeec7bd13c3e"><rect height="75" width="134.228515625" y="0" x="0" class="er entityBox"/><text style="dominant-baseline: middle; text-anchor: middle; font-size: 12px;" transform="translate(67.1142578125,37.5)" y="0" x="0" id="text-entity-MonetaryAmount-99d98e1d-dae3-555c-a0b3-eeec7bd13c3e" class="er entityLabel">MonetaryAmount</text></g><g transform="translate(1442.04638671875,354 )" id="entity-Text-426c5d39-acfc-5487-a6d9-ede67887190e"><rect height="75" width="100" y="0" x="0" class="er entityBox"/><text style="dominant-baseline: middle; text-anchor: middle; font-size: 12px;" transform="translate(50,37.5)" y="0" x="0" id="text-entity-Text-426c5d39-acfc-5487-a6d9-ede67887190e" class="er entityLabel">Text</text></g><g transform="translate(1642.04638671875,354 )" id="entity-URL-07f78d3e-fd74-5925-b39b-26c1cc2d6b7c"><rect height="75" width="100" y="0" x="0" class="er entityBox"/><text style="dominant-baseline: middle; text-anchor: middle; font-size: 12px;" transform="translate(50,37.5)" y="0" x="0" id="text-entity-URL-07f78d3e-fd74-5925-b39b-26c1cc2d6b7c" class="er entityLabel">URL</text></g><g transform="translate(1842.04638671875,354 )" id="entity-Action-6cd87d9a-a078-546e-a35b-bee54f477b31"><rect height="75" width="100" y="0" x="0" class="er entityBox"/><text style="dominant-baseline: middle; text-anchor: middle; font-size: 12px;" transform="translate(50,37.5)" y="0" x="0" id="text-entity-Action-6cd87d9a-a078-546e-a35b-bee54f477b31" class="er entityLabel">Action</text></g><rect height="14" width="66.671875" y="224.6665496826172" x="639.7235107421875" class="er relationshipLabelBox"/><text style="text-anchor: middle; dominant-baseline: middle; font-size: 12px;" y="231.6665496826172" x="673.0594482421875" id="rel1" class="er relationshipLabel">refundType</text><rect height="14" width="63.96875" y="227.6163787841797" x="777.854248046875" class="er relationshipLabelBox"/><text style="text-anchor: middle; dominant-baseline: middle; font-size: 12px;" y="234.6163787841797" x="809.838623046875" id="rel2" class="er relationshipLabel">returnFees</text><rect height="14" width="81.703125" y="233.10670471191406" x="909.0149536132812" class="er relationshipLabelBox"/><text style="text-anchor: middle; dominant-baseline: middle; font-size: 12px;" y="240.10670471191406" x="949.8665161132812" id="rel3" class="er relationshipLabel">returnMethod</text><rect height="14.000015258789062" width="126.03125" y="247.1253433227539" x="1033.302734375" class="er relationshipLabelBox"/><text style="text-anchor: middle; dominant-baseline: middle; font-size: 12px;" y="254.12535095214844" x="1096.318359375" id="rel4" class="er relationshipLabel">returnPolicyCategory</text><rect height="14" width="163.75390625" y="291.2925109863281" x="1162.52734375" class="er relationshipLabelBox"/><text style="text-anchor: middle; dominant-baseline: middle; font-size: 12px;" y="298.2925109863281" x="1244.404296875" id="rel5" class="er relationshipLabel">returnShippingFeesAmount</text><rect height="14" width="89.953125" y="314.0418701171875" x="1332.3564453125" class="er relationshipLabelBox"/><text style="text-anchor: middle; dominant-baseline: middle; font-size: 12px;" y="321.0418701171875" x="1377.3330078125" id="rel6" class="er relationshipLabel">alternateName</text><rect height="14" width="161.390625" y="298.6492004394531" x="1364.3433837890625" class="er relationshipLabelBox"/><text style="text-anchor: middle; dominant-baseline: middle; font-size: 12px;" y="305.6492004394531" x="1445.0386962890625" id="rel7" class="er relationshipLabel">disambiguatingDescription</text><rect height="14" width="34.03125" y="293.6722717285156" x="1512.0814208984375" class="er relationshipLabelBox"/><text style="text-anchor: middle; dominant-baseline: middle; font-size: 12px;" y="300.6722717285156" x="1529.0970458984375" id="rel8" class="er relationshipLabel">name</text><rect height="14" width="47.140625" y="274.87176513671875" x="1582.264892578125" class="er relationshipLabelBox"/><text style="text-anchor: middle; dominant-baseline: middle; font-size: 12px;" y="281.87176513671875" x="1605.835205078125" id="rel9" class="er relationshipLabel">sameAs</text><rect height="14" width="90.96875" y="242.1239776611328" x="1678.018310546875" class="er relationshipLabelBox"/><text style="text-anchor: middle; dominant-baseline: middle; font-size: 12px;" y="249.1239776611328" x="1723.502685546875" id="rel10" class="er relationshipLabel">potentialAction</text><rect height="14" width="15.875" y="253.22772216796875" x="1638.0067138671875" class="er relationshipLabelBox"/><text style="text-anchor: middle; dominant-baseline: middle; font-size: 12px;" y="260.22772216796875" x="1645.9442138671875" id="rel11" class="er relationshipLabel">url</text></svg>