<svg aria-roledescription="er" role="graphics-document document" viewBox="0 0 3544.1650390625 449" style="max-width: 3544.17px; background-color: white;" xmlns:xlink="http://www.w3.org/1999/xlink" xmlns="http://www.w3.org/2000/svg" width="100%" id="my-svg"><style>#my-svg{font-family:"trebuchet ms",verdana,arial,sans-serif;font-size:16px;fill:#333;}#my-svg .error-icon{fill:#552222;}#my-svg .error-text{fill:#552222;stroke:#552222;}#my-svg .edge-thickness-normal{stroke-width:1px;}#my-svg .edge-thickness-thick{stroke-width:3.5px;}#my-svg .edge-pattern-solid{stroke-dasharray:0;}#my-svg .edge-thickness-invisible{stroke-width:0;fill:none;}#my-svg .edge-pattern-dashed{stroke-dasharray:3;}#my-svg .edge-pattern-dotted{stroke-dasharray:2;}#my-svg .marker{fill:#333333;stroke:#333333;}#my-svg .marker.cross{stroke:#333333;}#my-svg svg{font-family:"trebuchet ms",verdana,arial,sans-serif;font-size:16px;}#my-svg p{margin:0;}#my-svg .entityBox{fill:#ECECFF;stroke:#9370DB;}#my-svg .attributeBoxOdd{fill:#ffffff;stroke:#9370DB;}#my-svg .attributeBoxEven{fill:#f2f2f2;stroke:#9370DB;}#my-svg .relationshipLabelBox{fill:hsl(80, 100%, 96.2745098039%);opacity:0.7;background-color:hsl(80, 100%, 96.2745098039%);}#my-svg .relationshipLabelBox rect{opacity:0.5;}#my-svg .relationshipLine{stroke:#333333;}#my-svg .entityTitleText{text-anchor:middle;font-size:18px;fill:#333;}#my-svg #MD_PARENT_START{fill:#f5f5f5!important;stroke:#333333!important;stroke-width:1;}#my-svg #MD_PARENT_END{fill:#f5f5f5!important;stroke:#333333!important;stroke-width:1;}#my-svg :root{--mermaid-font-family:"trebuchet ms",verdana,arial,sans-serif;}</style><g/><defs><marker orient="auto" markerHeight="240" markerWidth="190" refY="7" refX="0" id="MD_PARENT_START"><path d="M 18,7 L9,13 L1,7 L9,1 Z"/></marker></defs><defs><marker orient="auto" markerHeight="28" markerWidth="20" refY="7" refX="19" id="MD_PARENT_END"><path d="M 18,7 L9,13 L1,7 L9,1 Z"/></marker></defs><defs><marker orient="auto" markerHeight="18" markerWidth="18" refY="9" refX="0" id="ONLY_ONE_START"><path d="M9,0 L9,18 M15,0 L15,18" fill="none" stroke="gray"/></marker></defs><defs><marker orient="auto" markerHeight="18" markerWidth="18" refY="9" refX="18" id="ONLY_ONE_END"><path d="M3,0 L3,18 M9,0 L9,18" fill="none" stroke="gray"/></marker></defs><defs><marker orient="auto" markerHeight="18" markerWidth="30" refY="9" refX="0" id="ZERO_OR_ONE_START"><circle r="6" cy="9" cx="21" fill="white" stroke="gray"/><path d="M9,0 L9,18" fill="none" stroke="gray"/></marker></defs><defs><marker orient="auto" markerHeight="18" markerWidth="30" refY="9" refX="30" id="ZERO_OR_ONE_END"><circle r="6" cy="9" cx="9" fill="white" stroke="gray"/><path d="M21,0 L21,18" fill="none" stroke="gray"/></marker></defs><defs><marker orient="auto" markerHeight="36" markerWidth="45" refY="18" refX="18" id="ONE_OR_MORE_START"><path d="M0,18 Q 18,0 36,18 Q 18,36 0,18 M42,9 L42,27" fill="none" stroke="gray"/></marker></defs><defs><marker orient="auto" markerHeight="36" markerWidth="45" refY="18" refX="27" id="ONE_OR_MORE_END"><path d="M3,9 L3,27 M9,18 Q27,0 45,18 Q27,36 9,18" fill="none" stroke="gray"/></marker></defs><defs><marker orient="auto" markerHeight="36" markerWidth="57" refY="18" refX="18" id="ZERO_OR_MORE_START"><circle r="6" cy="18" cx="48" fill="white" stroke="gray"/><path d="M0,18 Q18,0 36,18 Q18,36 0,18" fill="none" stroke="gray"/></marker></defs><defs><marker orient="auto" markerHeight="36" markerWidth="57" refY="18" refX="39" id="ZERO_OR_MORE_END"><circle r="6" cy="18" cx="9" fill="white" stroke="gray"/><path d="M21,18 Q39,0 57,18 Q39,36 21,18" fill="none" stroke="gray"/></marker></defs><path style="stroke: gray; fill: none;" marker-start="url(#ONLY_ONE_START)" marker-end="url(#ZERO_OR_MORE_END)" d="M1288.431,148.261L1086.504,174.217C884.576,200.174,480.722,252.087,278.795,286.377C76.867,320.667,76.867,337.333,76.867,345.667L76.867,354" class="er relationshipLine"/><path style="stroke: gray; fill: none;" marker-start="url(#ONLY_ONE_START)" marker-end="url(#ZERO_OR_MORE_END)" d="M1288.431,149.428L1106.836,175.19C925.241,200.952,562.05,252.476,392.073,286.571C222.096,320.667,245.333,337.333,256.951,345.667L268.569,354" class="er relationshipLine"/><path style="stroke: gray; fill: none;" marker-start="url(#ONLY_ONE_START)" marker-end="url(#ZERO_OR_MORE_END)" d="M1288.431,154.107L1160.501,179.089C1032.571,204.071,776.711,254.036,658.305,287.351C539.899,320.667,558.947,337.333,568.471,345.667L577.994,354" class="er relationshipLine"/><path style="stroke: gray; fill: none;" marker-start="url(#ONLY_ONE_START)" marker-end="url(#ZERO_OR_MORE_END)" d="M1288.431,163.351L1210.501,186.792C1132.571,210.234,976.711,257.117,908.305,288.892C839.899,320.667,858.947,337.333,868.471,345.667L877.994,354" class="er relationshipLine"/><path style="stroke: gray; fill: none;" marker-start="url(#ONLY_ONE_START)" marker-end="url(#ZERO_OR_MORE_END)" d="M1288.431,198.451L1263.354,216.043C1238.276,233.634,1188.121,268.817,1163.043,294.742C1137.966,320.667,1137.966,337.333,1137.966,345.667L1137.966,354" class="er relationshipLine"/><path style="stroke: gray; fill: none;" marker-start="url(#ONLY_ONE_START)" marker-end="url(#ZERO_OR_MORE_END)" d="M1364.99,254L1364.203,262.333C1363.417,270.667,1361.844,287.333,1361.057,304C1360.271,320.667,1360.271,337.333,1360.271,345.667L1360.271,354" class="er relationshipLine"/><path style="stroke: gray; fill: none;" marker-start="url(#ONLY_ONE_START)" marker-end="url(#ZERO_OR_MORE_END)" d="M1288.431,150.864L1127.168,176.387C965.905,201.91,643.378,252.955,482.115,286.811C320.852,320.667,320.852,337.333,320.852,345.667L320.852,354" class="er relationshipLine"/><path style="stroke: gray; fill: none;" marker-start="url(#ONLY_ONE_START)" marker-end="url(#ZERO_OR_MORE_END)" d="M1288.431,156.372L1177.168,180.977C1065.905,205.581,843.378,254.791,732.115,287.729C620.852,320.667,620.852,337.333,620.852,345.667L620.852,354" class="er relationshipLine"/><path style="stroke: gray; fill: none;" marker-start="url(#ONLY_ONE_START)" marker-end="url(#ZERO_OR_MORE_END)" d="M1288.431,169.14L1227.168,191.617C1165.905,214.093,1043.378,259.047,982.115,289.857C920.852,320.667,920.852,337.333,920.852,345.667L920.852,354" class="er relationshipLine"/><path style="stroke: gray; fill: none;" marker-start="url(#ONLY_ONE_START)" marker-end="url(#ZERO_OR_MORE_END)" d="M1442.863,254L1447.623,262.333C1452.383,270.667,1461.903,287.333,1477.249,304C1492.595,320.667,1513.767,337.333,1524.353,345.667L1534.938,354" class="er relationshipLine"/><path style="stroke: gray; fill: none;" marker-start="url(#ONLY_ONE_START)" marker-end="url(#ZERO_OR_MORE_END)" d="M1463.634,169.874L1523.203,192.229C1582.771,214.583,1701.907,259.291,1761.476,289.979C1821.044,320.667,1821.044,337.333,1821.044,345.667L1821.044,354" class="er relationshipLine"/><path style="stroke: gray; fill: none;" marker-start="url(#ONLY_ONE_START)" marker-end="url(#ZERO_OR_MORE_END)" d="M1288.431,152.316L1143.835,177.597C999.238,202.877,710.045,253.439,555.924,287.053C401.804,320.667,382.756,337.333,373.233,345.667L363.709,354" class="er relationshipLine"/><path style="stroke: gray; fill: none;" marker-start="url(#ONLY_ONE_START)" marker-end="url(#ZERO_OR_MORE_END)" d="M1288.431,159.329L1193.835,183.441C1099.238,207.553,910.045,255.776,805.924,288.221C701.804,320.667,682.756,337.333,673.233,345.667L663.709,354" class="er relationshipLine"/><path style="stroke: gray; fill: none;" marker-start="url(#ONLY_ONE_START)" marker-end="url(#ZERO_OR_MORE_END)" d="M1463.634,157.055L1570.611,181.546C1677.589,206.037,1891.543,255.018,1998.52,287.843C2105.497,320.667,2105.497,337.333,2105.497,345.667L2105.497,354" class="er relationshipLine"/><path style="stroke: gray; fill: none;" marker-start="url(#ONLY_ONE_START)" marker-end="url(#ZERO_OR_MORE_END)" d="M1463.634,151.244L1620.212,176.703C1776.789,202.163,2089.944,253.081,2246.521,286.874C2403.099,320.667,2403.099,337.333,2403.099,345.667L2403.099,354" class="er relationshipLine"/><path style="stroke: gray; fill: none;" marker-start="url(#ONLY_ONE_START)" marker-end="url(#ZERO_OR_MORE_END)" d="M1463.634,147.741L1676.046,173.784C1888.458,199.827,2313.282,251.914,2525.694,286.29C2738.106,320.667,2738.106,337.333,2738.106,345.667L2738.106,354" class="er relationshipLine"/><path style="stroke: gray; fill: none;" marker-start="url(#ONLY_ONE_START)" marker-end="url(#ZERO_OR_MORE_END)" d="M1288.431,179.206L1245.261,200.005C1202.09,220.804,1115.75,262.402,1062.24,291.534C1008.731,320.667,988.054,337.333,977.715,345.667L967.376,354" class="er relationshipLine"/><path style="stroke: gray; fill: none;" marker-start="url(#ONLY_ONE_START)" marker-end="url(#ZERO_OR_MORE_END)" d="M1463.634,145.751L1727.667,172.126C1991.7,198.5,2519.765,251.25,2783.798,285.958C3047.831,320.667,3047.831,337.333,3047.831,345.667L3047.831,354" class="er relationshipLine"/><path style="stroke: gray; fill: none;" marker-start="url(#ONLY_ONE_START)" marker-end="url(#ZERO_OR_MORE_END)" d="M1463.634,145.196L1746.528,171.663C2029.422,198.131,2595.21,251.065,2888.882,285.866C3182.554,320.667,3204.109,337.333,3214.887,345.667L3225.665,354" class="er relationshipLine"/><path style="stroke: gray; fill: none;" marker-start="url(#ONLY_ONE_START)" marker-end="url(#ZERO_OR_MORE_END)" d="M1463.634,144.707L1765.389,171.256C2067.145,197.805,2670.655,250.902,2972.41,285.785C3274.165,320.667,3274.165,337.333,3274.165,345.667L3274.165,354" class="er relationshipLine"/><path style="stroke: gray; fill: none;" marker-start="url(#ONLY_ONE_START)" marker-end="url(#ZERO_OR_MORE_END)" d="M1463.634,144.322L1782.056,170.935C2100.478,197.548,2737.321,250.774,3046.219,285.72C3355.117,320.667,3336.07,337.333,3326.546,345.667L3317.022,354" class="er relationshipLine"/><path style="stroke: gray; fill: none;" marker-start="url(#ONLY_ONE_START)" marker-end="url(#ZERO_OR_MORE_END)" d="M1463.634,207.83L1483.458,223.859C1503.281,239.887,1542.928,271.943,1562.752,296.305C1582.575,320.667,1582.575,337.333,1582.575,345.667L1582.575,354" class="er relationshipLine"/><path style="stroke: gray; fill: none;" marker-start="url(#ONLY_ONE_START)" marker-end="url(#ZERO_OR_MORE_END)" d="M1463.634,143.973L1798.723,170.644C2133.811,197.315,2803.988,250.658,3139.077,285.662C3474.165,320.667,3474.165,337.333,3474.165,345.667L3474.165,354" class="er relationshipLine"/><path style="stroke: gray; fill: none;" marker-start="url(#ONLY_ONE_START)" marker-end="url(#ZERO_OR_MORE_END)" d="M1463.634,181.906L1503.33,202.255C1543.026,222.604,1622.418,263.302,1650.575,292.119C1678.731,320.936,1655.653,337.872,1644.114,346.34L1632.575,354.808" class="er relationshipLine"/><g transform="translate(1288.43115234375,20 )" id="entity-MerchantReturnPolicy-b8248ace-148a-532b-ba1b-c87590c7f706"><rect height="234" width="175.203125" y="0" x="0" class="er entityBox"/><text style="dominant-baseline: middle; text-anchor: middle; font-size: 12px;" transform="translate(87.6015625,12)" y="0" x="0" id="text-entity-MerchantReturnPolicy-b8248ace-148a-532b-ba1b-c87590c7f706" class="er entityLabel">MerchantReturnPolicy</text><rect height="21" width="57.0625" y="24" x="0" class="er attributeBoxOdd"/><text style="dominant-baseline: middle; font-size: 10.2px;" transform="translate(5,34.5)" y="0" x="0" id="text-entity-MerchantReturnPolicy-b8248ace-148a-532b-ba1b-c87590c7f706-attr-1-type" class="er entityLabel">stringList</text><rect height="21" width="118.140625" y="24" x="57.0625" class="er attributeBoxOdd"/><text style="dominant-baseline: middle; font-size: 10.2px;" transform="translate(62.0625,34.5)" y="0" x="0" id="text-entity-MerchantReturnPolicy-b8248ace-148a-532b-ba1b-c87590c7f706-attr-1-name" class="er entityLabel">applicableCountry</text><rect height="21" width="57.0625" y="45" x="0" class="er attributeBoxEven"/><text style="dominant-baseline: middle; font-size: 10.2px;" transform="translate(5,55.5)" y="0" x="0" id="text-entity-MerchantReturnPolicy-b8248ace-148a-532b-ba1b-c87590c7f706-attr-2-type" class="er entityLabel">stringList</text><rect height="21" width="118.140625" y="45" x="57.0625" class="er attributeBoxEven"/><text style="dominant-baseline: middle; font-size: 10.2px;" transform="translate(62.0625,55.5)" y="0" x="0" id="text-entity-MerchantReturnPolicy-b8248ace-148a-532b-ba1b-c87590c7f706-attr-2-name" class="er entityLabel">merchantReturnDays</text><rect height="21" width="57.0625" y="66" x="0" class="er attributeBoxOdd"/><text style="dominant-baseline: middle; font-size: 10.2px;" transform="translate(5,76.5)" y="0" x="0" id="text-entity-MerchantReturnPolicy-b8248ace-148a-532b-ba1b-c87590c7f706-attr-3-type" class="er entityLabel">stringList</text><rect height="21" width="118.140625" y="66" x="57.0625" class="er attributeBoxOdd"/><text style="dominant-baseline: middle; font-size: 10.2px;" transform="translate(62.0625,76.5)" y="0" x="0" id="text-entity-MerchantReturnPolicy-b8248ace-148a-532b-ba1b-c87590c7f706-attr-3-name" class="er entityLabel">restockingFee</text><rect height="21" width="57.0625" y="87" x="0" class="er attributeBoxEven"/><text style="dominant-baseline: middle; font-size: 10.2px;" transform="translate(5,97.5)" y="0" x="0" id="text-entity-MerchantReturnPolicy-b8248ace-148a-532b-ba1b-c87590c7f706-attr-4-type" class="er entityLabel">stringList</text><rect height="21" width="118.140625" y="87" x="57.0625" class="er attributeBoxEven"/><text style="dominant-baseline: middle; font-size: 10.2px;" transform="translate(62.0625,97.5)" y="0" x="0" id="text-entity-MerchantReturnPolicy-b8248ace-148a-532b-ba1b-c87590c7f706-attr-4-name" class="er entityLabel">returnPolicyCountry</text><rect height="21" width="57.0625" y="108" x="0" class="er attributeBoxOdd"/><text style="dominant-baseline: middle; font-size: 10.2px;" transform="translate(5,118.5)" y="0" x="0" id="text-entity-MerchantReturnPolicy-b8248ace-148a-532b-ba1b-c87590c7f706-attr-5-type" class="er entityLabel">stringList</text><rect height="21" width="118.140625" y="108" x="57.0625" class="er attributeBoxOdd"/><text style="dominant-baseline: middle; font-size: 10.2px;" transform="translate(62.0625,118.5)" y="0" x="0" id="text-entity-MerchantReturnPolicy-b8248ace-148a-532b-ba1b-c87590c7f706-attr-5-name" class="er entityLabel">additionalType</text><rect height="21" width="57.0625" y="129" x="0" class="er attributeBoxEven"/><text style="dominant-baseline: middle; font-size: 10.2px;" transform="translate(5,139.5)" y="0" x="0" id="text-entity-MerchantReturnPolicy-b8248ace-148a-532b-ba1b-c87590c7f706-attr-6-type" class="er entityLabel">stringList</text><rect height="21" width="118.140625" y="129" x="57.0625" class="er attributeBoxEven"/><text style="dominant-baseline: middle; font-size: 10.2px;" transform="translate(62.0625,139.5)" y="0" x="0" id="text-entity-MerchantReturnPolicy-b8248ace-148a-532b-ba1b-c87590c7f706-attr-6-name" class="er entityLabel">description</text><rect height="21" width="57.0625" y="150" x="0" class="er attributeBoxOdd"/><text style="dominant-baseline: middle; font-size: 10.2px;" transform="translate(5,160.5)" y="0" x="0" id="text-entity-MerchantReturnPolicy-b8248ace-148a-532b-ba1b-c87590c7f706-attr-7-type" class="er entityLabel">stringList</text><rect height="21" width="118.140625" y="150" x="57.0625" class="er attributeBoxOdd"/><text style="dominant-baseline: middle; font-size: 10.2px;" transform="translate(62.0625,160.5)" y="0" x="0" id="text-entity-MerchantReturnPolicy-b8248ace-148a-532b-ba1b-c87590c7f706-attr-7-name" class="er entityLabel">identifier</text><rect height="21" width="57.0625" y="171" x="0" class="er attributeBoxEven"/><text style="dominant-baseline: middle; font-size: 10.2px;" transform="translate(5,181.5)" y="0" x="0" id="text-entity-MerchantReturnPolicy-b8248ace-148a-532b-ba1b-c87590c7f706-attr-8-type" class="er entityLabel">stringList</text><rect height="21" width="118.140625" y="171" x="57.0625" class="er attributeBoxEven"/><text style="dominant-baseline: middle; font-size: 10.2px;" transform="translate(62.0625,181.5)" y="0" x="0" id="text-entity-MerchantReturnPolicy-b8248ace-148a-532b-ba1b-c87590c7f706-attr-8-name" class="er entityLabel">image</text><rect height="21" width="57.0625" y="192" x="0" class="er attributeBoxOdd"/><text style="dominant-baseline: middle; font-size: 10.2px;" transform="translate(5,202.5)" y="0" x="0" id="text-entity-MerchantReturnPolicy-b8248ace-148a-532b-ba1b-c87590c7f706-attr-9-type" class="er entityLabel">stringList</text><rect height="21" width="118.140625" y="192" x="57.0625" class="er attributeBoxOdd"/><text style="dominant-baseline: middle; font-size: 10.2px;" transform="translate(62.0625,202.5)" y="0" x="0" id="text-entity-MerchantReturnPolicy-b8248ace-148a-532b-ba1b-c87590c7f706-attr-9-name" class="er entityLabel">mainEntityOfPage</text><rect height="21" width="57.0625" y="213" x="0" class="er attributeBoxEven"/><text style="dominant-baseline: middle; font-size: 10.2px;" transform="translate(5,223.5)" y="0" x="0" id="text-entity-MerchantReturnPolicy-b8248ace-148a-532b-ba1b-c87590c7f706-attr-10-type" class="er entityLabel">stringList</text><rect height="21" width="118.140625" y="213" x="57.0625" class="er attributeBoxEven"/><text style="dominant-baseline: middle; font-size: 10.2px;" transform="translate(62.0625,223.5)" y="0" x="0" id="text-entity-MerchantReturnPolicy-b8248ace-148a-532b-ba1b-c87590c7f706-attr-10-name" class="er entityLabel">subjectOf</text></g><g transform="translate(20,354 )" id="entity-PropertyValue-0e208f6c-77f8-5d2e-b4a4-9a09101a021a"><rect height="75" width="113.734375" y="0" x="0" class="er entityBox"/><text style="dominant-baseline: middle; text-anchor: middle; font-size: 12px;" transform="translate(56.8671875,37.5)" y="0" x="0" id="text-entity-PropertyValue-0e208f6c-77f8-5d2e-b4a4-9a09101a021a" class="er entityLabel">PropertyValue</text></g><g transform="translate(233.734375,354 )" id="entity-ReturnFeesEnumeration-32026089-59ce-54b8-a0fe-9e99a6eaa344"><rect height="75" width="174.234375" y="0" x="0" class="er entityBox"/><text style="dominant-baseline: middle; text-anchor: middle; font-size: 12px;" transform="translate(87.1171875,37.5)" y="0" x="0" id="text-entity-ReturnFeesEnumeration-32026089-59ce-54b8-a0fe-9e99a6eaa344" class="er entityLabel">ReturnFeesEnumeration</text></g><g transform="translate(510.578125,354 )" id="entity-ReturnLabelSourceEnumeration-752b4647-ed71-561a-8726-865d933ad51b"><rect height="75" width="220.546875" y="0" x="0" class="er entityBox"/><text style="dominant-baseline: middle; text-anchor: middle; font-size: 12px;" transform="translate(110.2734375,37.5)" y="0" x="0" id="text-entity-ReturnLabelSourceEnumeration-752b4647-ed71-561a-8726-865d933ad51b" class="er entityLabel">ReturnLabelSourceEnumeration</text></g><g transform="translate(853.7373046875,354 )" id="entity-MonetaryAmount-99d98e1d-dae3-555c-a0b3-eeec7bd13c3e"><rect height="75" width="134.228515625" y="0" x="0" class="er entityBox"/><text style="dominant-baseline: middle; text-anchor: middle; font-size: 12px;" transform="translate(67.1142578125,37.5)" y="0" x="0" id="text-entity-MonetaryAmount-99d98e1d-dae3-555c-a0b3-eeec7bd13c3e" class="er entityLabel">MonetaryAmount</text></g><g transform="translate(1087.9658203125,354 )" id="entity-Boolean-5b26178e-f873-50aa-bf9a-b8300df1b991"><rect height="75" width="100" y="0" x="0" class="er entityBox"/><text style="dominant-baseline: middle; text-anchor: middle; font-size: 12px;" transform="translate(50,37.5)" y="0" x="0" id="text-entity-Boolean-5b26178e-f873-50aa-bf9a-b8300df1b991" class="er entityLabel">Boolean</text></g><g transform="translate(1287.9658203125,354 )" id="entity-OfferItemCondition-b15f9ed6-c6bf-5567-8eed-b8f51d970322"><rect height="75" width="144.609375" y="0" x="0" class="er entityBox"/><text style="dominant-baseline: middle; text-anchor: middle; font-size: 12px;" transform="translate(72.3046875,37.5)" y="0" x="0" id="text-entity-OfferItemCondition-b15f9ed6-c6bf-5567-8eed-b8f51d970322" class="er entityLabel">OfferItemCondition</text></g><g transform="translate(1532.5751953125,354 )" id="entity-URL-07f78d3e-fd74-5925-b39b-26c1cc2d6b7c"><rect height="75" width="100" y="0" x="0" class="er entityBox"/><text style="dominant-baseline: middle; text-anchor: middle; font-size: 12px;" transform="translate(50,37.5)" y="0" x="0" id="text-entity-URL-07f78d3e-fd74-5925-b39b-26c1cc2d6b7c" class="er entityLabel">URL</text></g><g transform="translate(1732.5751953125,354 )" id="entity-RefundTypeEnumeration-24824a45-9685-5c45-bdd9-eba81ae99c2e"><rect height="75" width="176.9375" y="0" x="0" class="er entityBox"/><text style="dominant-baseline: middle; text-anchor: middle; font-size: 12px;" transform="translate(88.46875,37.5)" y="0" x="0" id="text-entity-RefundTypeEnumeration-24824a45-9685-5c45-bdd9-eba81ae99c2e" class="er entityLabel">RefundTypeEnumeration</text></g><g transform="translate(2009.5126953125,354 )" id="entity-ReturnMethodEnumeration-54adeef1-c072-5aa6-a4fa-744132084e98"><rect height="75" width="191.96875" y="0" x="0" class="er entityBox"/><text style="dominant-baseline: middle; text-anchor: middle; font-size: 12px;" transform="translate(95.984375,37.5)" y="0" x="0" id="text-entity-ReturnMethodEnumeration-54adeef1-c072-5aa6-a4fa-744132084e98" class="er entityLabel">ReturnMethodEnumeration</text></g><g transform="translate(2301.4814453125,354 )" id="entity-MerchantReturnEnumeration-9f642697-1318-514e-99a9-dfb1a527577b"><rect height="75" width="203.234375" y="0" x="0" class="er entityBox"/><text style="dominant-baseline: middle; text-anchor: middle; font-size: 12px;" transform="translate(101.6171875,37.5)" y="0" x="0" id="text-entity-MerchantReturnEnumeration-9f642697-1318-514e-99a9-dfb1a527577b" class="er entityLabel">MerchantReturnEnumeration</text></g><g transform="translate(2604.7158203125,354 )" id="entity-MerchantReturnPolicySeasonalOverride-23423f74-fb11-51e6-9989-744d9105cf73"><rect height="75" width="266.78125" y="0" x="0" class="er entityBox"/><text style="dominant-baseline: middle; text-anchor: middle; font-size: 12px;" transform="translate(133.390625,37.5)" y="0" x="0" id="text-entity-MerchantReturnPolicySeasonalOverride-23423f74-fb11-51e6-9989-744d9105cf73" class="er entityLabel">MerchantReturnPolicySeasonalOverride</text></g><g transform="translate(2971.4970703125,354 )" id="entity-MemberProgramTier-9007dd70-1421-5b4f-9029-fd44084bd9e1"><rect height="75" width="152.66796875" y="0" x="0" class="er entityBox"/><text style="dominant-baseline: middle; text-anchor: middle; font-size: 12px;" transform="translate(76.333984375,37.5)" y="0" x="0" id="text-entity-MemberProgramTier-9007dd70-1421-5b4f-9029-fd44084bd9e1" class="er entityLabel">MemberProgramTier</text></g><g transform="translate(3224.1650390625,354 )" id="entity-Text-426c5d39-acfc-5487-a6d9-ede67887190e"><rect height="75" width="100" y="0" x="0" class="er entityBox"/><text style="dominant-baseline: middle; text-anchor: middle; font-size: 12px;" transform="translate(50,37.5)" y="0" x="0" id="text-entity-Text-426c5d39-acfc-5487-a6d9-ede67887190e" class="er entityLabel">Text</text></g><g transform="translate(3424.1650390625,354 )" id="entity-Action-6cd87d9a-a078-546e-a35b-bee54f477b31"><rect height="75" width="100" y="0" x="0" class="er entityBox"/><text style="dominant-baseline: middle; text-anchor: middle; font-size: 12px;" transform="translate(50,37.5)" y="0" x="0" id="text-entity-Action-6cd87d9a-a078-546e-a35b-bee54f477b31" class="er entityLabel">Action</text></g><rect height="14" width="110.375" y="221.58273315429688" x="617.0791015625" class="er relationshipLabelBox"/><text style="text-anchor: middle; dominant-baseline: middle; font-size: 12px;" y="228.58273315429688" x="672.2666015625" id="rel1" class="er relationshipLabel">additionalProperty</text><rect height="14" width="176.375" y="220.1029052734375" x="661.24560546875" class="er relationshipLabelBox"/><text style="text-anchor: middle; dominant-baseline: middle; font-size: 12px;" y="227.1029052734375" x="749.43310546875" id="rel2" class="er relationshipLabel">customerRemorseReturnFees</text><rect height="14" width="222.703125" y="223.25576782226562" x="793.7135009765625" class="er relationshipLabelBox"/><text style="text-anchor: middle; dominant-baseline: middle; font-size: 12px;" y="230.25576782226562" x="905.0650634765625" id="rel3" class="er relationshipLabel">customerRemorseReturnLabelSource</text><rect height="14" width="276.171875" y="229.6837158203125" x="911.7171630859375" class="er relationshipLabelBox"/><text style="text-anchor: middle; dominant-baseline: middle; font-size: 12px;" y="236.6837158203125" x="1049.8031005859375" id="rel4" class="er relationshipLabel">customerRemorseReturnShippingFeesAmount</text><rect height="14" width="133.5" y="257.5061950683594" x="1130.6490478515625" class="er relationshipLabelBox"/><text style="text-anchor: middle; dominant-baseline: middle; font-size: 12px;" y="264.5061950683594" x="1197.3990478515625" id="rel5" class="er relationshipLabel">inStoreReturnsOffered</text><rect height="14" width="84.375" y="296.92596435546875" x="1318.8731689453125" class="er relationshipLabelBox"/><text style="text-anchor: middle; dominant-baseline: middle; font-size: 12px;" y="303.92596435546875" x="1361.0606689453125" id="rel6" class="er relationshipLabel">itemCondition</text><rect height="14" width="133.734375" y="223.352783203125" x="726.5538940429688" class="er relationshipLabelBox"/><text style="text-anchor: middle; dominant-baseline: middle; font-size: 12px;" y="230.352783203125" x="793.4210815429688" id="rel7" class="er relationshipLabel">itemDefectReturnFees</text><rect height="14" width="180.0625" y="227.20458984375" x="851.9117431640625" class="er relationshipLabelBox"/><text style="text-anchor: middle; dominant-baseline: middle; font-size: 12px;" y="234.20458984375" x="941.9429931640625" id="rel8" class="er relationshipLabel">itemDefectReturnLabelSource</text><rect height="14" width="233.52734375" y="236.4594268798828" x="972.9677734375" class="er relationshipLabelBox"/><text style="text-anchor: middle; dominant-baseline: middle; font-size: 12px;" y="243.4594268798828" x="1089.7314453125" id="rel9" class="er relationshipLabel">itemDefectReturnShippingFeesAmount</text><rect height="14" width="122.0546875" y="302.62646484375" x="1421.612548828125" class="er relationshipLabelBox"/><text style="text-anchor: middle; dominant-baseline: middle; font-size: 12px;" y="309.62646484375" x="1482.639892578125" id="rel10" class="er relationshipLabel">merchantReturnLink</text><rect height="14" width="66.671875" y="236.99851989746094" x="1623.9969482421875" class="er relationshipLabelBox"/><text style="text-anchor: middle; dominant-baseline: middle; font-size: 12px;" y="243.99851989746094" x="1657.3328857421875" id="rel11" class="er relationshipLabel">refundType</text><rect height="14" width="63.96875" y="228.25189208984375" x="788.4501342773438" class="er relationshipLabelBox"/><text style="text-anchor: middle; dominant-baseline: middle; font-size: 12px;" y="235.25189208984375" x="820.4345092773438" id="rel12" class="er relationshipLabel">returnFees</text><rect height="14" width="110.28125" y="234.6009063720703" x="914.978515625" class="er relationshipLabelBox"/><text style="text-anchor: middle; dominant-baseline: middle; font-size: 12px;" y="241.6009063720703" x="970.119140625" id="rel13" class="er relationshipLabel">returnLabelSource</text><rect height="14" width="81.703125" y="227.69027709960938" x="1756.5711669921875" class="er relationshipLabelBox"/><text style="text-anchor: middle; dominant-baseline: middle; font-size: 12px;" y="234.69027709960938" x="1797.4227294921875" id="rel14" class="er relationshipLabel">returnMethod</text><rect height="14" width="126.03125" y="223.6136474609375" x="1881.685546875" class="er relationshipLabelBox"/><text style="text-anchor: middle; dominant-baseline: middle; font-size: 12px;" y="230.6136474609375" x="1944.701171875" id="rel15" class="er relationshipLabel">returnPolicyCategory</text><rect height="14" width="177.375" y="221.23403930664062" x="2022.38525390625" class="er relationshipLabelBox"/><text style="text-anchor: middle; dominant-baseline: middle; font-size: 12px;" y="228.23403930664062" x="2111.07275390625" id="rel16" class="er relationshipLabel">returnPolicySeasonalOverride</text><rect height="14" width="163.75390625" y="252.52108764648438" x="1041.920654296875" class="er relationshipLabelBox"/><text style="text-anchor: middle; dominant-baseline: middle; font-size: 12px;" y="259.5210876464844" x="1123.797607421875" id="rel17" class="er relationshipLabel">returnShippingFeesAmount</text><rect height="14" width="119.52734375" y="219.91598510742188" x="2205.44091796875" class="er relationshipLabelBox"/><text style="text-anchor: middle; dominant-baseline: middle; font-size: 12px;" y="226.91598510742188" x="2265.20458984375" id="rel18" class="er relationshipLabel">validForMemberTier</text><rect height="14" width="89.953125" y="222.10804748535156" x="2304.03466796875" class="er relationshipLabelBox"/><text style="text-anchor: middle; dominant-baseline: middle; font-size: 12px;" y="229.10804748535156" x="2349.01123046875" id="rel19" class="er relationshipLabel">alternateName</text><rect height="14" width="161.390625" y="219.23655700683594" x="2297.262939453125" class="er relationshipLabelBox"/><text style="text-anchor: middle; dominant-baseline: middle; font-size: 12px;" y="226.23655700683594" x="2377.958251953125" id="rel20" class="er relationshipLabel">disambiguatingDescription</text><rect height="14" width="34.03125" y="217.61923217773438" x="2394.04931640625" class="er relationshipLabelBox"/><text style="text-anchor: middle; dominant-baseline: middle; font-size: 12px;" y="224.61923217773438" x="2411.06494140625" id="rel21" class="er relationshipLabel">name</text><rect height="14" width="47.140625" y="263.8976135253906" x="1514.8992919921875" class="er relationshipLabelBox"/><text style="text-anchor: middle; dominant-baseline: middle; font-size: 12px;" y="270.8976135253906" x="1538.4696044921875" id="rel22" class="er relationshipLabel">sameAs</text><rect height="14" width="90.96875" y="218.7635040283203" x="2432.168701171875" class="er relationshipLabelBox"/><text style="text-anchor: middle; dominant-baseline: middle; font-size: 12px;" y="225.7635040283203" x="2477.653076171875" id="rel23" class="er relationshipLabel">potentialAction</text><rect height="14" width="15.875" y="245.0577392578125" x="1587.0269775390625" class="er relationshipLabelBox"/><text style="text-anchor: middle; dominant-baseline: middle; font-size: 12px;" y="252.0577392578125" x="1594.9644775390625" id="rel24" class="er relationshipLabel">url</text></svg>