<svg aria-roledescription="er" role="graphics-document document" viewBox="0 0 340 596" style="max-width: 340px; background-color: white;" xmlns:xlink="http://www.w3.org/1999/xlink" xmlns="http://www.w3.org/2000/svg" width="100%" id="my-svg"><style>#my-svg{font-family:"trebuchet ms",verdana,arial,sans-serif;font-size:16px;fill:#333;}#my-svg .error-icon{fill:#552222;}#my-svg .error-text{fill:#552222;stroke:#552222;}#my-svg .edge-thickness-normal{stroke-width:1px;}#my-svg .edge-thickness-thick{stroke-width:3.5px;}#my-svg .edge-pattern-solid{stroke-dasharray:0;}#my-svg .edge-thickness-invisible{stroke-width:0;fill:none;}#my-svg .edge-pattern-dashed{stroke-dasharray:3;}#my-svg .edge-pattern-dotted{stroke-dasharray:2;}#my-svg .marker{fill:#333333;stroke:#333333;}#my-svg .marker.cross{stroke:#333333;}#my-svg svg{font-family:"trebuchet ms",verdana,arial,sans-serif;font-size:16px;}#my-svg p{margin:0;}#my-svg .entityBox{fill:#ECECFF;stroke:#9370DB;}#my-svg .attributeBoxOdd{fill:#ffffff;stroke:#9370DB;}#my-svg .attributeBoxEven{fill:#f2f2f2;stroke:#9370DB;}#my-svg .relationshipLabelBox{fill:hsl(80, 100%, 96.2745098039%);opacity:0.7;background-color:hsl(80, 100%, 96.2745098039%);}#my-svg .relationshipLabelBox rect{opacity:0.5;}#my-svg .relationshipLine{stroke:#333333;}#my-svg .entityTitleText{text-anchor:middle;font-size:18px;fill:#333;}#my-svg #MD_PARENT_START{fill:#f5f5f5!important;stroke:#333333!important;stroke-width:1;}#my-svg #MD_PARENT_END{fill:#f5f5f5!important;stroke:#333333!important;stroke-width:1;}#my-svg :root{--mermaid-font-family:"trebuchet ms",verdana,arial,sans-serif;}</style><g/><defs><marker orient="auto" markerHeight="240" markerWidth="190" refY="7" refX="0" id="MD_PARENT_START"><path d="M 18,7 L9,13 L1,7 L9,1 Z"/></marker></defs><defs><marker orient="auto" markerHeight="28" markerWidth="20" refY="7" refX="19" id="MD_PARENT_END"><path d="M 18,7 L9,13 L1,7 L9,1 Z"/></marker></defs><defs><marker orient="auto" markerHeight="18" markerWidth="18" refY="9" refX="0" id="ONLY_ONE_START"><path d="M9,0 L9,18 M15,0 L15,18" fill="none" stroke="gray"/></marker></defs><defs><marker orient="auto" markerHeight="18" markerWidth="18" refY="9" refX="18" id="ONLY_ONE_END"><path d="M3,0 L3,18 M9,0 L9,18" fill="none" stroke="gray"/></marker></defs><defs><marker orient="auto" markerHeight="18" markerWidth="30" refY="9" refX="0" id="ZERO_OR_ONE_START"><circle r="6" cy="9" cx="21" fill="white" stroke="gray"/><path d="M9,0 L9,18" fill="none" stroke="gray"/></marker></defs><defs><marker orient="auto" markerHeight="18" markerWidth="30" refY="9" refX="30" id="ZERO_OR_ONE_END"><circle r="6" cy="9" cx="9" fill="white" stroke="gray"/><path d="M21,0 L21,18" fill="none" stroke="gray"/></marker></defs><defs><marker orient="auto" markerHeight="36" markerWidth="45" refY="18" refX="18" id="ONE_OR_MORE_START"><path d="M0,18 Q 18,0 36,18 Q 18,36 0,18 M42,9 L42,27" fill="none" stroke="gray"/></marker></defs><defs><marker orient="auto" markerHeight="36" markerWidth="45" refY="18" refX="27" id="ONE_OR_MORE_END"><path d="M3,9 L3,27 M9,18 Q27,0 45,18 Q27,36 9,18" fill="none" stroke="gray"/></marker></defs><defs><marker orient="auto" markerHeight="36" markerWidth="57" refY="18" refX="18" id="ZERO_OR_MORE_START"><circle r="6" cy="18" cx="48" fill="white" stroke="gray"/><path d="M0,18 Q18,0 36,18 Q18,36 0,18" fill="none" stroke="gray"/></marker></defs><defs><marker orient="auto" markerHeight="36" markerWidth="57" refY="18" refX="39" id="ZERO_OR_MORE_END"><circle r="6" cy="18" cx="9" fill="white" stroke="gray"/><path d="M21,18 Q39,0 57,18 Q39,36 21,18" fill="none" stroke="gray"/></marker></defs><path style="stroke: gray; fill: none;" marker-start="url(#ONLY_ONE_START)" marker-end="url(#ZERO_OR_MORE_END)" d="M90.79,401L87.325,409.333C83.86,417.667,76.93,434.333,73.465,451C70,467.667,70,484.333,70,492.667L70,501" class="er relationshipLine"/><path style="stroke: gray; fill: none;" marker-start="url(#ONLY_ONE_START)" marker-end="url(#ZERO_OR_MORE_END)" d="M249.21,401L252.675,409.333C256.14,417.667,263.07,434.333,266.535,451C270,467.667,270,484.333,270,492.667L270,501" class="er relationshipLine"/><g transform="translate(62.12322998046875,20 )" id="entity-MonetaryAmountDistribution-3ca5e3da-fa82-5009-a087-5a854b9dacdf"><rect height="381" width="215.7535400390625" y="0" x="0" class="er entityBox"/><text style="dominant-baseline: middle; text-anchor: middle; font-size: 12px;" transform="translate(107.87677001953125,12)" y="0" x="0" id="text-entity-MonetaryAmountDistribution-3ca5e3da-fa82-5009-a087-5a854b9dacdf" class="er entityLabel">MonetaryAmountDistribution</text><rect height="21" width="68.7379150390625" y="24" x="0" class="er attributeBoxOdd"/><text style="dominant-baseline: middle; font-size: 10.2px;" transform="translate(5,34.5)" y="0" x="0" id="text-entity-MonetaryAmountDistribution-3ca5e3da-fa82-5009-a087-5a854b9dacdf-attr-1-type" class="er entityLabel">TextList</text><rect height="21" width="147.015625" y="24" x="68.7379150390625" class="er attributeBoxOdd"/><text style="dominant-baseline: middle; font-size: 10.2px;" transform="translate(73.7379150390625,34.5)" y="0" x="0" id="text-entity-MonetaryAmountDistribution-3ca5e3da-fa82-5009-a087-5a854b9dacdf-attr-1-name" class="er entityLabel">currency</text><rect height="21" width="68.7379150390625" y="45" x="0" class="er attributeBoxEven"/><text style="dominant-baseline: middle; font-size: 10.2px;" transform="translate(5,55.5)" y="0" x="0" id="text-entity-MonetaryAmountDistribution-3ca5e3da-fa82-5009-a087-5a854b9dacdf-attr-2-type" class="er entityLabel">NumberList</text><rect height="21" width="147.015625" y="45" x="68.7379150390625" class="er attributeBoxEven"/><text style="dominant-baseline: middle; font-size: 10.2px;" transform="translate(73.7379150390625,55.5)" y="0" x="0" id="text-entity-MonetaryAmountDistribution-3ca5e3da-fa82-5009-a087-5a854b9dacdf-attr-2-name" class="er entityLabel">median</text><rect height="21" width="68.7379150390625" y="66" x="0" class="er attributeBoxOdd"/><text style="dominant-baseline: middle; font-size: 10.2px;" transform="translate(5,76.5)" y="0" x="0" id="text-entity-MonetaryAmountDistribution-3ca5e3da-fa82-5009-a087-5a854b9dacdf-attr-3-type" class="er entityLabel">NumberList</text><rect height="21" width="147.015625" y="66" x="68.7379150390625" class="er attributeBoxOdd"/><text style="dominant-baseline: middle; font-size: 10.2px;" transform="translate(73.7379150390625,76.5)" y="0" x="0" id="text-entity-MonetaryAmountDistribution-3ca5e3da-fa82-5009-a087-5a854b9dacdf-attr-3-name" class="er entityLabel">percentile10</text><rect height="21" width="68.7379150390625" y="87" x="0" class="er attributeBoxEven"/><text style="dominant-baseline: middle; font-size: 10.2px;" transform="translate(5,97.5)" y="0" x="0" id="text-entity-MonetaryAmountDistribution-3ca5e3da-fa82-5009-a087-5a854b9dacdf-attr-4-type" class="er entityLabel">NumberList</text><rect height="21" width="147.015625" y="87" x="68.7379150390625" class="er attributeBoxEven"/><text style="dominant-baseline: middle; font-size: 10.2px;" transform="translate(73.7379150390625,97.5)" y="0" x="0" id="text-entity-MonetaryAmountDistribution-3ca5e3da-fa82-5009-a087-5a854b9dacdf-attr-4-name" class="er entityLabel">percentile25</text><rect height="21" width="68.7379150390625" y="108" x="0" class="er attributeBoxOdd"/><text style="dominant-baseline: middle; font-size: 10.2px;" transform="translate(5,118.5)" y="0" x="0" id="text-entity-MonetaryAmountDistribution-3ca5e3da-fa82-5009-a087-5a854b9dacdf-attr-5-type" class="er entityLabel">NumberList</text><rect height="21" width="147.015625" y="108" x="68.7379150390625" class="er attributeBoxOdd"/><text style="dominant-baseline: middle; font-size: 10.2px;" transform="translate(73.7379150390625,118.5)" y="0" x="0" id="text-entity-MonetaryAmountDistribution-3ca5e3da-fa82-5009-a087-5a854b9dacdf-attr-5-name" class="er entityLabel">percentile75</text><rect height="21" width="68.7379150390625" y="129" x="0" class="er attributeBoxEven"/><text style="dominant-baseline: middle; font-size: 10.2px;" transform="translate(5,139.5)" y="0" x="0" id="text-entity-MonetaryAmountDistribution-3ca5e3da-fa82-5009-a087-5a854b9dacdf-attr-6-type" class="er entityLabel">NumberList</text><rect height="21" width="147.015625" y="129" x="68.7379150390625" class="er attributeBoxEven"/><text style="dominant-baseline: middle; font-size: 10.2px;" transform="translate(73.7379150390625,139.5)" y="0" x="0" id="text-entity-MonetaryAmountDistribution-3ca5e3da-fa82-5009-a087-5a854b9dacdf-attr-6-name" class="er entityLabel">percentile90</text><rect height="21" width="68.7379150390625" y="150" x="0" class="er attributeBoxOdd"/><text style="dominant-baseline: middle; font-size: 10.2px;" transform="translate(5,160.5)" y="0" x="0" id="text-entity-MonetaryAmountDistribution-3ca5e3da-fa82-5009-a087-5a854b9dacdf-attr-7-type" class="er entityLabel">stringList</text><rect height="21" width="147.015625" y="150" x="68.7379150390625" class="er attributeBoxOdd"/><text style="dominant-baseline: middle; font-size: 10.2px;" transform="translate(73.7379150390625,160.5)" y="0" x="0" id="text-entity-MonetaryAmountDistribution-3ca5e3da-fa82-5009-a087-5a854b9dacdf-attr-7-name" class="er entityLabel">additionalType</text><rect height="21" width="68.7379150390625" y="171" x="0" class="er attributeBoxEven"/><text style="dominant-baseline: middle; font-size: 10.2px;" transform="translate(5,181.5)" y="0" x="0" id="text-entity-MonetaryAmountDistribution-3ca5e3da-fa82-5009-a087-5a854b9dacdf-attr-8-type" class="er entityLabel">TextList</text><rect height="21" width="147.015625" y="171" x="68.7379150390625" class="er attributeBoxEven"/><text style="dominant-baseline: middle; font-size: 10.2px;" transform="translate(73.7379150390625,181.5)" y="0" x="0" id="text-entity-MonetaryAmountDistribution-3ca5e3da-fa82-5009-a087-5a854b9dacdf-attr-8-name" class="er entityLabel">alternateName</text><rect height="21" width="68.7379150390625" y="192" x="0" class="er attributeBoxOdd"/><text style="dominant-baseline: middle; font-size: 10.2px;" transform="translate(5,202.5)" y="0" x="0" id="text-entity-MonetaryAmountDistribution-3ca5e3da-fa82-5009-a087-5a854b9dacdf-attr-9-type" class="er entityLabel">stringList</text><rect height="21" width="147.015625" y="192" x="68.7379150390625" class="er attributeBoxOdd"/><text style="dominant-baseline: middle; font-size: 10.2px;" transform="translate(73.7379150390625,202.5)" y="0" x="0" id="text-entity-MonetaryAmountDistribution-3ca5e3da-fa82-5009-a087-5a854b9dacdf-attr-9-name" class="er entityLabel">description</text><rect height="21" width="68.7379150390625" y="213" x="0" class="er attributeBoxEven"/><text style="dominant-baseline: middle; font-size: 10.2px;" transform="translate(5,223.5)" y="0" x="0" id="text-entity-MonetaryAmountDistribution-3ca5e3da-fa82-5009-a087-5a854b9dacdf-attr-10-type" class="er entityLabel">TextList</text><rect height="21" width="147.015625" y="213" x="68.7379150390625" class="er attributeBoxEven"/><text style="dominant-baseline: middle; font-size: 10.2px;" transform="translate(73.7379150390625,223.5)" y="0" x="0" id="text-entity-MonetaryAmountDistribution-3ca5e3da-fa82-5009-a087-5a854b9dacdf-attr-10-name" class="er entityLabel">disambiguatingDescription</text><rect height="21" width="68.7379150390625" y="234" x="0" class="er attributeBoxOdd"/><text style="dominant-baseline: middle; font-size: 10.2px;" transform="translate(5,244.5)" y="0" x="0" id="text-entity-MonetaryAmountDistribution-3ca5e3da-fa82-5009-a087-5a854b9dacdf-attr-11-type" class="er entityLabel">stringList</text><rect height="21" width="147.015625" y="234" x="68.7379150390625" class="er attributeBoxOdd"/><text style="dominant-baseline: middle; font-size: 10.2px;" transform="translate(73.7379150390625,244.5)" y="0" x="0" id="text-entity-MonetaryAmountDistribution-3ca5e3da-fa82-5009-a087-5a854b9dacdf-attr-11-name" class="er entityLabel">identifier</text><rect height="21" width="68.7379150390625" y="255" x="0" class="er attributeBoxEven"/><text style="dominant-baseline: middle; font-size: 10.2px;" transform="translate(5,265.5)" y="0" x="0" id="text-entity-MonetaryAmountDistribution-3ca5e3da-fa82-5009-a087-5a854b9dacdf-attr-12-type" class="er entityLabel">stringList</text><rect height="21" width="147.015625" y="255" x="68.7379150390625" class="er attributeBoxEven"/><text style="dominant-baseline: middle; font-size: 10.2px;" transform="translate(73.7379150390625,265.5)" y="0" x="0" id="text-entity-MonetaryAmountDistribution-3ca5e3da-fa82-5009-a087-5a854b9dacdf-attr-12-name" class="er entityLabel">image</text><rect height="21" width="68.7379150390625" y="276" x="0" class="er attributeBoxOdd"/><text style="dominant-baseline: middle; font-size: 10.2px;" transform="translate(5,286.5)" y="0" x="0" id="text-entity-MonetaryAmountDistribution-3ca5e3da-fa82-5009-a087-5a854b9dacdf-attr-13-type" class="er entityLabel">TextList</text><rect height="21" width="147.015625" y="276" x="68.7379150390625" class="er attributeBoxOdd"/><text style="dominant-baseline: middle; font-size: 10.2px;" transform="translate(73.7379150390625,286.5)" y="0" x="0" id="text-entity-MonetaryAmountDistribution-3ca5e3da-fa82-5009-a087-5a854b9dacdf-attr-13-name" class="er entityLabel">name</text><rect height="21" width="68.7379150390625" y="297" x="0" class="er attributeBoxEven"/><text style="dominant-baseline: middle; font-size: 10.2px;" transform="translate(5,307.5)" y="0" x="0" id="text-entity-MonetaryAmountDistribution-3ca5e3da-fa82-5009-a087-5a854b9dacdf-attr-14-type" class="er entityLabel">URLList</text><rect height="21" width="147.015625" y="297" x="68.7379150390625" class="er attributeBoxEven"/><text style="dominant-baseline: middle; font-size: 10.2px;" transform="translate(73.7379150390625,307.5)" y="0" x="0" id="text-entity-MonetaryAmountDistribution-3ca5e3da-fa82-5009-a087-5a854b9dacdf-attr-14-name" class="er entityLabel">sameAs</text><rect height="21" width="68.7379150390625" y="318" x="0" class="er attributeBoxOdd"/><text style="dominant-baseline: middle; font-size: 10.2px;" transform="translate(5,328.5)" y="0" x="0" id="text-entity-MonetaryAmountDistribution-3ca5e3da-fa82-5009-a087-5a854b9dacdf-attr-15-type" class="er entityLabel">stringList</text><rect height="21" width="147.015625" y="318" x="68.7379150390625" class="er attributeBoxOdd"/><text style="dominant-baseline: middle; font-size: 10.2px;" transform="translate(73.7379150390625,328.5)" y="0" x="0" id="text-entity-MonetaryAmountDistribution-3ca5e3da-fa82-5009-a087-5a854b9dacdf-attr-15-name" class="er entityLabel">mainEntityOfPage</text><rect height="21" width="68.7379150390625" y="339" x="0" class="er attributeBoxEven"/><text style="dominant-baseline: middle; font-size: 10.2px;" transform="translate(5,349.5)" y="0" x="0" id="text-entity-MonetaryAmountDistribution-3ca5e3da-fa82-5009-a087-5a854b9dacdf-attr-16-type" class="er entityLabel">stringList</text><rect height="21" width="147.015625" y="339" x="68.7379150390625" class="er attributeBoxEven"/><text style="dominant-baseline: middle; font-size: 10.2px;" transform="translate(73.7379150390625,349.5)" y="0" x="0" id="text-entity-MonetaryAmountDistribution-3ca5e3da-fa82-5009-a087-5a854b9dacdf-attr-16-name" class="er entityLabel">subjectOf</text><rect height="21" width="68.7379150390625" y="360" x="0" class="er attributeBoxOdd"/><text style="dominant-baseline: middle; font-size: 10.2px;" transform="translate(5,370.5)" y="0" x="0" id="text-entity-MonetaryAmountDistribution-3ca5e3da-fa82-5009-a087-5a854b9dacdf-attr-17-type" class="er entityLabel">URLList</text><rect height="21" width="147.015625" y="360" x="68.7379150390625" class="er attributeBoxOdd"/><text style="dominant-baseline: middle; font-size: 10.2px;" transform="translate(73.7379150390625,370.5)" y="0" x="0" id="text-entity-MonetaryAmountDistribution-3ca5e3da-fa82-5009-a087-5a854b9dacdf-attr-17-name" class="er entityLabel">url</text></g><g transform="translate(20,501 )" id="entity-Duration-4925bcef-08f8-5f30-b1af-3959fea9384e"><rect height="75" width="100" y="0" x="0" class="er entityBox"/><text style="dominant-baseline: middle; text-anchor: middle; font-size: 12px;" transform="translate(50,37.5)" y="0" x="0" id="text-entity-Duration-4925bcef-08f8-5f30-b1af-3959fea9384e" class="er entityLabel">Duration</text></g><g transform="translate(220,501 )" id="entity-Action-6cd87d9a-a078-546e-a35b-bee54f477b31"><rect height="75" width="100" y="0" x="0" class="er entityBox"/><text style="dominant-baseline: middle; text-anchor: middle; font-size: 12px;" transform="translate(50,37.5)" y="0" x="0" id="text-entity-Action-6cd87d9a-a078-546e-a35b-bee54f477b31" class="er entityLabel">Action</text></g><rect height="14" width="50.5" y="442.63934326171875" x="48.50560760498047" class="er relationshipLabelBox"/><text style="text-anchor: middle; dominant-baseline: middle; font-size: 12px;" y="449.63934326171875" x="73.75560760498047" id="rel1" class="er relationshipLabel">duration</text><rect height="14" width="90.96875" y="442.639404296875" x="220.75967407226562" class="er relationshipLabelBox"/><text style="text-anchor: middle; dominant-baseline: middle; font-size: 12px;" y="449.639404296875" x="266.2440490722656" id="rel2" class="er relationshipLabel">potentialAction</text></svg>