<svg aria-roledescription="er" role="graphics-document document" viewBox="0 0 4027.423828125 386" style="max-width: 4027.42px; background-color: white;" xmlns:xlink="http://www.w3.org/1999/xlink" xmlns="http://www.w3.org/2000/svg" width="100%" id="my-svg"><style>#my-svg{font-family:"trebuchet ms",verdana,arial,sans-serif;font-size:16px;fill:#333;}#my-svg .error-icon{fill:#552222;}#my-svg .error-text{fill:#552222;stroke:#552222;}#my-svg .edge-thickness-normal{stroke-width:1px;}#my-svg .edge-thickness-thick{stroke-width:3.5px;}#my-svg .edge-pattern-solid{stroke-dasharray:0;}#my-svg .edge-thickness-invisible{stroke-width:0;fill:none;}#my-svg .edge-pattern-dashed{stroke-dasharray:3;}#my-svg .edge-pattern-dotted{stroke-dasharray:2;}#my-svg .marker{fill:#333333;stroke:#333333;}#my-svg .marker.cross{stroke:#333333;}#my-svg svg{font-family:"trebuchet ms",verdana,arial,sans-serif;font-size:16px;}#my-svg p{margin:0;}#my-svg .entityBox{fill:#ECECFF;stroke:#9370DB;}#my-svg .attributeBoxOdd{fill:#ffffff;stroke:#9370DB;}#my-svg .attributeBoxEven{fill:#f2f2f2;stroke:#9370DB;}#my-svg .relationshipLabelBox{fill:hsl(80, 100%, 96.2745098039%);opacity:0.7;background-color:hsl(80, 100%, 96.2745098039%);}#my-svg .relationshipLabelBox rect{opacity:0.5;}#my-svg .relationshipLine{stroke:#333333;}#my-svg .entityTitleText{text-anchor:middle;font-size:18px;fill:#333;}#my-svg #MD_PARENT_START{fill:#f5f5f5!important;stroke:#333333!important;stroke-width:1;}#my-svg #MD_PARENT_END{fill:#f5f5f5!important;stroke:#333333!important;stroke-width:1;}#my-svg :root{--mermaid-font-family:"trebuchet ms",verdana,arial,sans-serif;}</style><g/><defs><marker orient="auto" markerHeight="240" markerWidth="190" refY="7" refX="0" id="MD_PARENT_START"><path d="M 18,7 L9,13 L1,7 L9,1 Z"/></marker></defs><defs><marker orient="auto" markerHeight="28" markerWidth="20" refY="7" refX="19" id="MD_PARENT_END"><path d="M 18,7 L9,13 L1,7 L9,1 Z"/></marker></defs><defs><marker orient="auto" markerHeight="18" markerWidth="18" refY="9" refX="0" id="ONLY_ONE_START"><path d="M9,0 L9,18 M15,0 L15,18" fill="none" stroke="gray"/></marker></defs><defs><marker orient="auto" markerHeight="18" markerWidth="18" refY="9" refX="18" id="ONLY_ONE_END"><path d="M3,0 L3,18 M9,0 L9,18" fill="none" stroke="gray"/></marker></defs><defs><marker orient="auto" markerHeight="18" markerWidth="30" refY="9" refX="0" id="ZERO_OR_ONE_START"><circle r="6" cy="9" cx="21" fill="white" stroke="gray"/><path d="M9,0 L9,18" fill="none" stroke="gray"/></marker></defs><defs><marker orient="auto" markerHeight="18" markerWidth="30" refY="9" refX="30" id="ZERO_OR_ONE_END"><circle r="6" cy="9" cx="9" fill="white" stroke="gray"/><path d="M21,0 L21,18" fill="none" stroke="gray"/></marker></defs><defs><marker orient="auto" markerHeight="36" markerWidth="45" refY="18" refX="18" id="ONE_OR_MORE_START"><path d="M0,18 Q 18,0 36,18 Q 18,36 0,18 M42,9 L42,27" fill="none" stroke="gray"/></marker></defs><defs><marker orient="auto" markerHeight="36" markerWidth="45" refY="18" refX="27" id="ONE_OR_MORE_END"><path d="M3,9 L3,27 M9,18 Q27,0 45,18 Q27,36 9,18" fill="none" stroke="gray"/></marker></defs><defs><marker orient="auto" markerHeight="36" markerWidth="57" refY="18" refX="18" id="ZERO_OR_MORE_START"><circle r="6" cy="18" cx="48" fill="white" stroke="gray"/><path d="M0,18 Q18,0 36,18 Q18,36 0,18" fill="none" stroke="gray"/></marker></defs><defs><marker orient="auto" markerHeight="36" markerWidth="57" refY="18" refX="39" id="ZERO_OR_MORE_END"><circle r="6" cy="18" cx="9" fill="white" stroke="gray"/><path d="M21,18 Q39,0 57,18 Q39,36 21,18" fill="none" stroke="gray"/></marker></defs><path style="stroke: gray; fill: none;" marker-start="url(#ONLY_ONE_START)" marker-end="url(#ZERO_OR_MORE_END)" d="M1690.705,60.096L1702.372,53.414C1714.038,46.731,1737.372,33.365,1751.955,26.683C1766.538,20,1772.372,20,1778.205,34.25C1784.038,48.5,1789.872,77,1789.872,105.5C1789.872,134,1784.038,162.5,1778.205,176.75C1772.372,191,1766.538,191,1751.955,184.317C1737.372,177.635,1714.038,164.269,1702.372,157.586L1690.705,150.904" class="er relationshipLine"/><path style="stroke: gray; fill: none;" marker-start="url(#ONLY_ONE_START)" marker-end="url(#ZERO_OR_MORE_END)" d="M1532.174,112.468L1288.478,133.89C1044.783,155.312,557.391,198.156,313.696,227.911C70,257.667,70,274.333,70,282.667L70,291" class="er relationshipLine"/><path style="stroke: gray; fill: none;" marker-start="url(#ONLY_ONE_START)" marker-end="url(#ZERO_OR_MORE_END)" d="M1532.174,113.021L1307.368,134.351C1082.563,155.681,632.951,198.34,422.431,228.003C211.911,257.667,240.483,274.333,254.768,282.667L269.054,291" class="er relationshipLine"/><path style="stroke: gray; fill: none;" marker-start="url(#ONLY_ONE_START)" marker-end="url(#ZERO_OR_MORE_END)" d="M1532.174,115.021L1357.368,136.017C1182.563,157.014,832.951,199.007,684.457,231.079C535.962,263.151,588.585,285.302,614.896,296.377L641.207,307.453" class="er relationshipLine"/><path style="stroke: gray; fill: none;" marker-start="url(#ONLY_ONE_START)" marker-end="url(#ZERO_OR_MORE_END)" d="M1532.174,127.965L1465.701,146.804C1399.229,165.643,1266.285,203.322,1199.812,230.494C1133.34,257.667,1133.34,274.333,1133.34,282.667L1133.34,291" class="er relationshipLine"/><path style="stroke: gray; fill: none;" marker-start="url(#ONLY_ONE_START)" marker-end="url(#ZERO_OR_MORE_END)" d="M1532.174,115.947L1374.035,136.789C1215.896,157.631,899.618,199.316,751.752,228.491C603.886,257.667,624.432,274.333,634.705,282.667L644.978,291" class="er relationshipLine"/><path style="stroke: gray; fill: none;" marker-start="url(#ONLY_ONE_START)" marker-end="url(#ZERO_OR_MORE_END)" d="M1532.174,117.073L1390.701,137.727C1249.229,158.382,966.285,199.691,825.561,228.679C684.838,257.667,686.337,274.333,687.086,282.667L687.835,291" class="er relationshipLine"/><path style="stroke: gray; fill: none;" marker-start="url(#ONLY_ONE_START)" marker-end="url(#ZERO_OR_MORE_END)" d="M1532.174,113.587L1324.035,134.823C1115.896,156.058,699.618,198.529,496.241,228.098C292.864,257.667,302.387,274.333,307.149,282.667L311.911,291" class="er relationshipLine"/><path style="stroke: gray; fill: none;" marker-start="url(#ONLY_ONE_START)" marker-end="url(#ZERO_OR_MORE_END)" d="M1532.174,144.61L1499.615,160.675C1467.056,176.74,1401.938,208.87,1369.378,233.268C1336.819,257.667,1336.819,274.333,1336.819,282.667L1336.819,291" class="er relationshipLine"/><path style="stroke: gray; fill: none;" marker-start="url(#ONLY_ONE_START)" marker-end="url(#ZERO_OR_MORE_END)" d="M1579.89,191L1576.815,199.333C1573.74,207.667,1567.59,224.333,1564.514,241C1561.439,257.667,1561.439,274.333,1561.439,282.667L1561.439,291" class="er relationshipLine"/><path style="stroke: gray; fill: none;" marker-start="url(#ONLY_ONE_START)" marker-end="url(#ZERO_OR_MORE_END)" d="M1690.705,162.702L1708.788,175.751C1726.872,188.801,1763.038,214.901,1781.122,236.284C1799.205,257.667,1799.205,274.333,1799.205,282.667L1799.205,291" class="er relationshipLine"/><path style="stroke: gray; fill: none;" marker-start="url(#ONLY_ONE_START)" marker-end="url(#ZERO_OR_MORE_END)" d="M1690.705,131.254L1747.001,149.545C1803.296,167.836,1915.887,204.418,1972.183,231.042C2028.479,257.667,2028.479,274.333,2028.479,282.667L2028.479,291" class="er relationshipLine"/><path style="stroke: gray; fill: none;" marker-start="url(#ONLY_ONE_START)" marker-end="url(#ZERO_OR_MORE_END)" d="M1532.174,114.246L1340.701,135.371C1149.229,156.497,766.285,198.749,570.05,228.208C373.816,257.667,364.292,274.333,359.53,282.667L354.768,291" class="er relationshipLine"/><path style="stroke: gray; fill: none;" marker-start="url(#ONLY_ONE_START)" marker-end="url(#ZERO_OR_MORE_END)" d="M1690.705,122.467L1783.001,142.222C1875.296,161.978,2059.887,201.489,2152.183,229.578C2244.479,257.667,2244.479,274.333,2244.479,282.667L2244.479,291" class="er relationshipLine"/><path style="stroke: gray; fill: none;" marker-start="url(#ONLY_ONE_START)" marker-end="url(#ZERO_OR_MORE_END)" d="M1690.705,118.341L1816.893,138.785C1943.08,159.228,2195.455,200.114,2321.643,228.89C2447.83,257.667,2447.83,274.333,2447.83,282.667L2447.83,291" class="er relationshipLine"/><path style="stroke: gray; fill: none;" marker-start="url(#ONLY_ONE_START)" marker-end="url(#ZERO_OR_MORE_END)" d="M1690.705,115.702L1852.965,136.585C2015.226,157.468,2339.747,199.234,2502.007,228.45C2664.268,257.667,2664.268,274.333,2664.268,282.667L2664.268,291" class="er relationshipLine"/><path style="stroke: gray; fill: none;" marker-start="url(#ONLY_ONE_START)" marker-end="url(#ZERO_OR_MORE_END)" d="M1690.705,113.868L1891.402,135.057C2092.098,156.246,2493.492,198.623,2694.188,228.145C2894.885,257.667,2894.885,274.333,2894.885,282.667L2894.885,291" class="er relationshipLine"/><path style="stroke: gray; fill: none;" marker-start="url(#ONLY_ONE_START)" marker-end="url(#ZERO_OR_MORE_END)" d="M1690.705,112.656L1927.658,134.046C2164.611,155.437,2638.518,198.219,2875.471,227.943C3112.424,257.667,3112.424,274.333,3112.424,282.667L3112.424,291" class="er relationshipLine"/><path style="stroke: gray; fill: none;" marker-start="url(#ONLY_ONE_START)" marker-end="url(#ZERO_OR_MORE_END)" d="M1690.705,111.745L1964.136,133.288C2237.567,154.83,2784.429,197.915,3057.86,227.791C3331.291,257.667,3331.291,274.333,3331.291,282.667L3331.291,291" class="er relationshipLine"/><path style="stroke: gray; fill: none;" marker-start="url(#ONLY_ONE_START)" marker-end="url(#ZERO_OR_MORE_END)" d="M1690.705,111.034L2000.939,132.695C2311.174,154.356,2931.643,197.678,3241.877,227.672C3552.111,257.667,3552.111,274.333,3552.111,282.667L3552.111,291" class="er relationshipLine"/><path style="stroke: gray; fill: none;" marker-start="url(#ONLY_ONE_START)" marker-end="url(#ZERO_OR_MORE_END)" d="M1532.174,118.47L1407.368,138.892C1282.563,159.313,1032.951,200.157,899.371,228.912C765.791,257.667,748.242,274.333,739.467,282.667L730.693,291" class="er relationshipLine"/><path style="stroke: gray; fill: none;" marker-start="url(#ONLY_ONE_START)" marker-end="url(#ZERO_OR_MORE_END)" d="M1532.174,120.251L1424.035,140.376C1315.896,160.501,1099.618,200.75,967.79,231.663C835.962,262.576,788.585,284.153,764.896,294.941L741.207,305.729" class="er relationshipLine"/><path style="stroke: gray; fill: none;" marker-start="url(#ONLY_ONE_START)" marker-end="url(#ZERO_OR_MORE_END)" d="M1532.174,122.6L1440.701,142.333C1349.229,162.067,1166.285,201.533,1034.457,233.354C902.629,265.175,821.918,289.349,781.563,301.437L741.207,313.524" class="er relationshipLine"/><path style="stroke: gray; fill: none;" marker-start="url(#ONLY_ONE_START)" marker-end="url(#ZERO_OR_MORE_END)" d="M1690.705,110.631L2026.382,132.359C2362.059,154.087,3033.413,197.544,3374.105,227.605C3714.797,257.667,3724.827,274.333,3729.842,282.667L3734.857,291" class="er relationshipLine"/><path style="stroke: gray; fill: none;" marker-start="url(#ONLY_ONE_START)" marker-end="url(#ZERO_OR_MORE_END)" d="M1690.705,110.078L2068.492,131.899C2446.278,153.719,3201.851,197.359,3579.637,227.513C3957.424,257.667,3957.424,274.333,3957.424,282.667L3957.424,291" class="er relationshipLine"/><path style="stroke: gray; fill: none;" marker-start="url(#ONLY_ONE_START)" marker-end="url(#ZERO_OR_MORE_END)" d="M1690.705,110.391L2043.492,132.159C2396.278,153.927,3101.851,197.464,3449.875,227.565C3797.9,257.667,3788.376,274.333,3783.614,282.667L3778.852,291" class="er relationshipLine"/><g transform="translate(1532.173828125,20 )" id="entity-Muscle-93e0684e-7b06-53ae-969a-45ee7d7207d0"><rect height="171" width="158.53125" y="0" x="0" class="er entityBox"/><text style="dominant-baseline: middle; text-anchor: middle; font-size: 12px;" transform="translate(79.265625,12)" y="0" x="0" id="text-entity-Muscle-93e0684e-7b06-53ae-969a-45ee7d7207d0" class="er entityLabel">Muscle</text><rect height="21" width="57.0625" y="24" x="0" class="er attributeBoxOdd"/><text style="dominant-baseline: middle; font-size: 10.2px;" transform="translate(5,34.5)" y="0" x="0" id="text-entity-Muscle-93e0684e-7b06-53ae-969a-45ee7d7207d0-attr-1-type" class="er entityLabel">stringList</text><rect height="21" width="101.46875" y="24" x="57.0625" class="er attributeBoxOdd"/><text style="dominant-baseline: middle; font-size: 10.2px;" transform="translate(62.0625,34.5)" y="0" x="0" id="text-entity-Muscle-93e0684e-7b06-53ae-969a-45ee7d7207d0-attr-1-name" class="er entityLabel">legalStatus</text><rect height="21" width="57.0625" y="45" x="0" class="er attributeBoxEven"/><text style="dominant-baseline: middle; font-size: 10.2px;" transform="translate(5,55.5)" y="0" x="0" id="text-entity-Muscle-93e0684e-7b06-53ae-969a-45ee7d7207d0-attr-2-type" class="er entityLabel">stringList</text><rect height="21" width="101.46875" y="45" x="57.0625" class="er attributeBoxEven"/><text style="dominant-baseline: middle; font-size: 10.2px;" transform="translate(62.0625,55.5)" y="0" x="0" id="text-entity-Muscle-93e0684e-7b06-53ae-969a-45ee7d7207d0-attr-2-name" class="er entityLabel">additionalType</text><rect height="21" width="57.0625" y="66" x="0" class="er attributeBoxOdd"/><text style="dominant-baseline: middle; font-size: 10.2px;" transform="translate(5,76.5)" y="0" x="0" id="text-entity-Muscle-93e0684e-7b06-53ae-969a-45ee7d7207d0-attr-3-type" class="er entityLabel">stringList</text><rect height="21" width="101.46875" y="66" x="57.0625" class="er attributeBoxOdd"/><text style="dominant-baseline: middle; font-size: 10.2px;" transform="translate(62.0625,76.5)" y="0" x="0" id="text-entity-Muscle-93e0684e-7b06-53ae-969a-45ee7d7207d0-attr-3-name" class="er entityLabel">description</text><rect height="21" width="57.0625" y="87" x="0" class="er attributeBoxEven"/><text style="dominant-baseline: middle; font-size: 10.2px;" transform="translate(5,97.5)" y="0" x="0" id="text-entity-Muscle-93e0684e-7b06-53ae-969a-45ee7d7207d0-attr-4-type" class="er entityLabel">stringList</text><rect height="21" width="101.46875" y="87" x="57.0625" class="er attributeBoxEven"/><text style="dominant-baseline: middle; font-size: 10.2px;" transform="translate(62.0625,97.5)" y="0" x="0" id="text-entity-Muscle-93e0684e-7b06-53ae-969a-45ee7d7207d0-attr-4-name" class="er entityLabel">identifier</text><rect height="21" width="57.0625" y="108" x="0" class="er attributeBoxOdd"/><text style="dominant-baseline: middle; font-size: 10.2px;" transform="translate(5,118.5)" y="0" x="0" id="text-entity-Muscle-93e0684e-7b06-53ae-969a-45ee7d7207d0-attr-5-type" class="er entityLabel">stringList</text><rect height="21" width="101.46875" y="108" x="57.0625" class="er attributeBoxOdd"/><text style="dominant-baseline: middle; font-size: 10.2px;" transform="translate(62.0625,118.5)" y="0" x="0" id="text-entity-Muscle-93e0684e-7b06-53ae-969a-45ee7d7207d0-attr-5-name" class="er entityLabel">image</text><rect height="21" width="57.0625" y="129" x="0" class="er attributeBoxEven"/><text style="dominant-baseline: middle; font-size: 10.2px;" transform="translate(5,139.5)" y="0" x="0" id="text-entity-Muscle-93e0684e-7b06-53ae-969a-45ee7d7207d0-attr-6-type" class="er entityLabel">stringList</text><rect height="21" width="101.46875" y="129" x="57.0625" class="er attributeBoxEven"/><text style="dominant-baseline: middle; font-size: 10.2px;" transform="translate(62.0625,139.5)" y="0" x="0" id="text-entity-Muscle-93e0684e-7b06-53ae-969a-45ee7d7207d0-attr-6-name" class="er entityLabel">mainEntityOfPage</text><rect height="21" width="57.0625" y="150" x="0" class="er attributeBoxOdd"/><text style="dominant-baseline: middle; font-size: 10.2px;" transform="translate(5,160.5)" y="0" x="0" id="text-entity-Muscle-93e0684e-7b06-53ae-969a-45ee7d7207d0-attr-7-type" class="er entityLabel">stringList</text><rect height="21" width="101.46875" y="150" x="57.0625" class="er attributeBoxOdd"/><text style="dominant-baseline: middle; font-size: 10.2px;" transform="translate(62.0625,160.5)" y="0" x="0" id="text-entity-Muscle-93e0684e-7b06-53ae-969a-45ee7d7207d0-attr-7-name" class="er entityLabel">subjectOf</text></g><g transform="translate(20,291 )" id="entity-Vessel-4df51686-6cea-564a-ab70-0ca246d13ff3"><rect height="75" width="100" y="0" x="0" class="er entityBox"/><text style="dominant-baseline: middle; text-anchor: middle; font-size: 12px;" transform="translate(50,37.5)" y="0" x="0" id="text-entity-Vessel-4df51686-6cea-564a-ab70-0ca246d13ff3" class="er entityLabel">Vessel</text></g><g transform="translate(256.66015625,291 )" id="entity-AnatomicalStructure-3c5e0f00-f4ad-5ab6-89b3-e0fa067e5e05"><rect height="75" width="153.359375" y="0" x="0" class="er entityBox"/><text style="dominant-baseline: middle; text-anchor: middle; font-size: 12px;" transform="translate(76.6796875,37.5)" y="0" x="0" id="text-entity-AnatomicalStructure-3c5e0f00-f4ad-5ab6-89b3-e0fa067e5e05" class="er entityLabel">AnatomicalStructure</text></g><g transform="translate(641.20703125,291 )" id="entity-Text-426c5d39-acfc-5487-a6d9-ede67887190e"><rect height="75" width="100" y="0" x="0" class="er entityBox"/><text style="dominant-baseline: middle; text-anchor: middle; font-size: 12px;" transform="translate(50,37.5)" y="0" x="0" id="text-entity-Text-426c5d39-acfc-5487-a6d9-ede67887190e" class="er entityLabel">Text</text></g><g transform="translate(1083.33984375,291 )" id="entity-Nerve-c3d7b2c1-4c60-51f6-aac3-9f133f23c781"><rect height="75" width="100" y="0" x="0" class="er entityBox"/><text style="dominant-baseline: middle; text-anchor: middle; font-size: 12px;" transform="translate(50,37.5)" y="0" x="0" id="text-entity-Nerve-c3d7b2c1-4c60-51f6-aac3-9f133f23c781" class="er entityLabel">Nerve</text></g><g transform="translate(1283.33984375,291 )" id="entity-ImageObject-2a761300-e471-57b1-9256-83c78b6eba94"><rect height="75" width="106.958984375" y="0" x="0" class="er entityBox"/><text style="dominant-baseline: middle; text-anchor: middle; font-size: 12px;" transform="translate(53.4794921875,37.5)" y="0" x="0" id="text-entity-ImageObject-2a761300-e471-57b1-9256-83c78b6eba94" class="er entityLabel">ImageObject</text></g><g transform="translate(1490.298828125,291 )" id="entity-AnatomicalSystem-95715edd-482f-5376-b264-8ac2a8b4904d"><rect height="75" width="142.28125" y="0" x="0" class="er entityBox"/><text style="dominant-baseline: middle; text-anchor: middle; font-size: 12px;" transform="translate(71.140625,37.5)" y="0" x="0" id="text-entity-AnatomicalSystem-95715edd-482f-5376-b264-8ac2a8b4904d" class="er entityLabel">AnatomicalSystem</text></g><g transform="translate(1732.580078125,291 )" id="entity-MedicalCondition-a93e7da7-17aa-5f46-8e3a-8f90076b9104"><rect height="75" width="133.25" y="0" x="0" class="er entityBox"/><text style="dominant-baseline: middle; text-anchor: middle; font-size: 12px;" transform="translate(66.625,37.5)" y="0" x="0" id="text-entity-MedicalCondition-a93e7da7-17aa-5f46-8e3a-8f90076b9104" class="er entityLabel">MedicalCondition</text></g><g transform="translate(1965.830078125,291 )" id="entity-MedicalTherapy-cb945121-be61-5f08-b66d-584ab4170081"><rect height="75" width="125.296875" y="0" x="0" class="er entityBox"/><text style="dominant-baseline: middle; text-anchor: middle; font-size: 12px;" transform="translate(62.6484375,37.5)" y="0" x="0" id="text-entity-MedicalTherapy-cb945121-be61-5f08-b66d-584ab4170081" class="er entityLabel">MedicalTherapy</text></g><g transform="translate(2191.126953125,291 )" id="entity-MedicalCode-340ab1f3-b0e0-51ff-b309-32031f623ceb"><rect height="75" width="106.703125" y="0" x="0" class="er entityBox"/><text style="dominant-baseline: middle; text-anchor: middle; font-size: 12px;" transform="translate(53.3515625,37.5)" y="0" x="0" id="text-entity-MedicalCode-340ab1f3-b0e0-51ff-b309-32031f623ceb" class="er entityLabel">MedicalCode</text></g><g transform="translate(2397.830078125,291 )" id="entity-Grant-291daf2c-8722-576f-890e-1045bc6484c0"><rect height="75" width="100" y="0" x="0" class="er entityBox"/><text style="dominant-baseline: middle; text-anchor: middle; font-size: 12px;" transform="translate(50,37.5)" y="0" x="0" id="text-entity-Grant-291daf2c-8722-576f-890e-1045bc6484c0" class="er entityLabel">Grant</text></g><g transform="translate(2597.830078125,291 )" id="entity-MedicalGuideline-a05959e1-803b-55cd-8b3c-b530a54fde23"><rect height="75" width="132.875" y="0" x="0" class="er entityBox"/><text style="dominant-baseline: middle; text-anchor: middle; font-size: 12px;" transform="translate(66.4375,37.5)" y="0" x="0" id="text-entity-MedicalGuideline-a05959e1-803b-55cd-8b3c-b530a54fde23" class="er entityLabel">MedicalGuideline</text></g><g transform="translate(2830.705078125,291 )" id="entity-MedicineSystem-74197b84-67e0-5471-ab59-f3fd7c3c0e72"><rect height="75" width="128.359375" y="0" x="0" class="er entityBox"/><text style="dominant-baseline: middle; text-anchor: middle; font-size: 12px;" transform="translate(64.1796875,37.5)" y="0" x="0" id="text-entity-MedicineSystem-74197b84-67e0-5471-ab59-f3fd7c3c0e72" class="er entityLabel">MedicineSystem</text></g><g transform="translate(3059.064453125,291 )" id="entity-Organization-ef1721ab-1f62-5ef5-a525-a6c60c2f6032"><rect height="75" width="106.71875" y="0" x="0" class="er entityBox"/><text style="dominant-baseline: middle; text-anchor: middle; font-size: 12px;" transform="translate(53.359375,37.5)" y="0" x="0" id="text-entity-Organization-ef1721ab-1f62-5ef5-a525-a6c60c2f6032" class="er entityLabel">Organization</text></g><g transform="translate(3265.783203125,291 )" id="entity-MedicalSpecialty-0f4a20d3-5a5d-5b81-b412-da395afebba8"><rect height="75" width="131.015625" y="0" x="0" class="er entityBox"/><text style="dominant-baseline: middle; text-anchor: middle; font-size: 12px;" transform="translate(65.5078125,37.5)" y="0" x="0" id="text-entity-MedicalSpecialty-0f4a20d3-5a5d-5b81-b412-da395afebba8" class="er entityLabel">MedicalSpecialty</text></g><g transform="translate(3496.798828125,291 )" id="entity-MedicalStudy-22dea251-12b7-5654-af29-afad6ffe12b1"><rect height="75" width="110.625" y="0" x="0" class="er entityBox"/><text style="dominant-baseline: middle; text-anchor: middle; font-size: 12px;" transform="translate(55.3125,37.5)" y="0" x="0" id="text-entity-MedicalStudy-22dea251-12b7-5654-af29-afad6ffe12b1" class="er entityLabel">MedicalStudy</text></g><g transform="translate(3707.423828125,291 )" id="entity-URL-07f78d3e-fd74-5925-b39b-26c1cc2d6b7c"><rect height="75" width="100" y="0" x="0" class="er entityBox"/><text style="dominant-baseline: middle; text-anchor: middle; font-size: 12px;" transform="translate(50,37.5)" y="0" x="0" id="text-entity-URL-07f78d3e-fd74-5925-b39b-26c1cc2d6b7c" class="er entityLabel">URL</text></g><g transform="translate(3907.423828125,291 )" id="entity-Action-6cd87d9a-a078-546e-a35b-bee54f477b31"><rect height="75" width="100" y="0" x="0" class="er entityBox"/><text style="dominant-baseline: middle; text-anchor: middle; font-size: 12px;" transform="translate(50,37.5)" y="0" x="0" id="text-entity-Action-6cd87d9a-a078-546e-a35b-bee54f477b31" class="er entityLabel">Action</text></g><rect height="14" width="64.16796875" y="98.49998474121094" x="1757.7879638671875" class="er relationshipLabelBox"/><text style="text-anchor: middle; dominant-baseline: middle; font-size: 12px;" y="105.49998474121094" x="1789.8719482421875" id="rel1" class="er relationshipLabel">antagonist</text><rect height="14" width="74.15625" y="171.66160583496094" x="754.5806274414062" class="er relationshipLabelBox"/><text style="text-anchor: middle; dominant-baseline: middle; font-size: 12px;" y="178.66160583496094" x="791.6587524414062" id="rel2" class="er relationshipLabel">bloodSupply</text><rect height="14" width="52.5" y="170.11351013183594" x="842.5224609375" class="er relationshipLabelBox"/><text style="text-anchor: middle; dominant-baseline: middle; font-size: 12px;" y="177.11351013183594" x="868.7724609375" id="rel3" class="er relationshipLabel">insertion</text><rect height="14" width="80.453125" y="171.53822326660156" x="977.2520751953125" class="er relationshipLabelBox"/><text style="text-anchor: middle; dominant-baseline: middle; font-size: 12px;" y="178.53822326660156" x="1017.4786376953125" id="rel4" class="er relationshipLabel">muscleAction</text><rect height="14" width="34.40625" y="182.9073486328125" x="1301.2593994140625" class="er relationshipLabelBox"/><text style="text-anchor: middle; dominant-baseline: middle; font-size: 12px;" y="189.9073486328125" x="1318.4625244140625" id="rel5" class="er relationshipLabel">nerve</text><rect height="14" width="162.546875" y="172.1593475341797" x="980.2822265625" class="er relationshipLabelBox"/><text style="text-anchor: middle; dominant-baseline: middle; font-size: 12px;" y="179.1593475341797" x="1061.5556640625" id="rel6" class="er relationshipLabel">associatedPathophysiology</text><rect height="14" width="80.4375" y="174.6419677734375" x="1057.6451416015625" class="er relationshipLabelBox"/><text style="text-anchor: middle; dominant-baseline: middle; font-size: 12px;" y="181.6419677734375" x="1097.8638916015625" id="rel7" class="er relationshipLabel">bodyLocation</text><rect height="14" width="75.46875" y="171.5340576171875" x="868.8035888671875" class="er relationshipLabelBox"/><text style="text-anchor: middle; dominant-baseline: middle; font-size: 12px;" y="178.5340576171875" x="906.5379638671875" id="rel8" class="er relationshipLabel">connectedTo</text><rect height="14" width="49.90625" y="195.64776611328125" x="1393.43896484375" class="er relationshipLabelBox"/><text style="text-anchor: middle; dominant-baseline: middle; font-size: 12px;" y="202.64776611328125" x="1418.39208984375" id="rel9" class="er relationshipLabel">diagram</text><rect height="14" width="83.03125" y="232.91546630859375" x="1523.203369140625" class="er relationshipLabelBox"/><text style="text-anchor: middle; dominant-baseline: middle; font-size: 12px;" y="239.91546630859375" x="1564.718994140625" id="rel10" class="er relationshipLabel">partOfSystem</text><rect height="14" width="99.71875" y="209.05685424804688" x="1710.865478515625" class="er relationshipLabelBox"/><text style="text-anchor: middle; dominant-baseline: middle; font-size: 12px;" y="216.05685424804688" x="1760.724853515625" id="rel11" class="er relationshipLabel">relatedCondition</text><rect height="14" width="91.78125" y="185.41529846191406" x="1828.5751953125" class="er relationshipLabelBox"/><text style="text-anchor: middle; dominant-baseline: middle; font-size: 12px;" y="192.41529846191406" x="1874.4658203125" id="rel12" class="er relationshipLabel">relatedTherapy</text><rect height="14" width="77.296875" y="174.08253479003906" x="897.9412841796875" class="er relationshipLabelBox"/><text style="text-anchor: middle; dominant-baseline: middle; font-size: 12px;" y="181.08253479003906" x="936.5897216796875" id="rel13" class="er relationshipLabel">subStructure</text><rect height="14" width="28.953125" y="178.77101135253906" x="1966.1368408203125" class="er relationshipLabelBox"/><text style="text-anchor: middle; dominant-baseline: middle; font-size: 12px;" y="185.77101135253906" x="1980.6134033203125" id="rel14" class="er relationshipLabel">code</text><rect height="14" width="45.609375" y="175.75755310058594" x="2058.234375" class="er relationshipLabelBox"/><text style="text-anchor: middle; dominant-baseline: middle; font-size: 12px;" y="182.75755310058594" x="2081.0390625" id="rel15" class="er relationshipLabel">funding</text><rect height="14" width="55.21875" y="173.88284301757812" x="2160.6904296875" class="er relationshipLabelBox"/><text style="text-anchor: middle; dominant-baseline: middle; font-size: 12px;" y="180.88284301757812" x="2188.2998046875" id="rel16" class="er relationshipLabel">guideline</text><rect height="14" width="99.703125" y="172.61239624023438" x="2253.004150390625" class="er relationshipLabelBox"/><text style="text-anchor: middle; dominant-baseline: middle; font-size: 12px;" y="179.61239624023438" x="2302.855712890625" id="rel17" class="er relationshipLabel">medicineSystem</text><rect height="14" width="124.953125" y="171.7880859375" x="2348.604248046875" class="er relationshipLabelBox"/><text style="text-anchor: middle; dominant-baseline: middle; font-size: 12px;" y="178.7880859375" x="2411.080810546875" id="rel18" class="er relationshipLabel">recognizingAuthority</text><rect height="14" width="104.578125" y="171.1786651611328" x="2467.78857421875" class="er relationshipLabelBox"/><text style="text-anchor: middle; dominant-baseline: middle; font-size: 12px;" y="178.1786651611328" x="2520.07763671875" id="rel19" class="er relationshipLabel">relevantSpecialty</text><rect height="14" width="33.28125" y="170.70892333984375" x="2613.48681640625" class="er relationshipLabelBox"/><text style="text-anchor: middle; dominant-baseline: middle; font-size: 12px;" y="177.70892333984375" x="2630.12744140625" id="rel20" class="er relationshipLabel">study</text><rect height="14" width="89.953125" y="179.1974334716797" x="1080.5008544921875" class="er relationshipLabelBox"/><text style="text-anchor: middle; dominant-baseline: middle; font-size: 12px;" y="186.1974334716797" x="1125.4774169921875" id="rel21" class="er relationshipLabel">alternateName</text><rect height="14" width="161.390625" y="189.38136291503906" x="1051.5499267578125" class="er relationshipLabelBox"/><text style="text-anchor: middle; dominant-baseline: middle; font-size: 12px;" y="196.38136291503906" x="1132.2452392578125" id="rel22" class="er relationshipLabel">disambiguatingDescription</text><rect height="14" width="34.03125" y="202.86280822753906" x="1117.6448974609375" class="er relationshipLabelBox"/><text style="text-anchor: middle; dominant-baseline: middle; font-size: 12px;" y="209.86280822753906" x="1134.6605224609375" id="rel23" class="er relationshipLabel">name</text><rect height="14" width="47.140625" y="171.24203491210938" x="2694.800048828125" class="er relationshipLabelBox"/><text style="text-anchor: middle; dominant-baseline: middle; font-size: 12px;" y="178.24203491210938" x="2718.370361328125" id="rel24" class="er relationshipLabel">sameAs</text><rect height="14" width="90.96875" y="170.08668518066406" x="2786.78369140625" class="er relationshipLabelBox"/><text style="text-anchor: middle; dominant-baseline: middle; font-size: 12px;" y="177.08668518066406" x="2832.26806640625" id="rel25" class="er relationshipLabel">potentialAction</text><rect height="14" width="15.875" y="169.70379638671875" x="2740.021240234375" class="er relationshipLabelBox"/><text style="text-anchor: middle; dominant-baseline: middle; font-size: 12px;" y="176.70379638671875" x="2747.958740234375" id="rel26" class="er relationshipLabel">url</text></svg>