<svg aria-roledescription="er" role="graphics-document document" viewBox="0 0 3254.103515625 554" style="max-width: 3254.1px; background-color: white;" xmlns:xlink="http://www.w3.org/1999/xlink" xmlns="http://www.w3.org/2000/svg" width="100%" id="my-svg"><style>#my-svg{font-family:"trebuchet ms",verdana,arial,sans-serif;font-size:16px;fill:#333;}#my-svg .error-icon{fill:#552222;}#my-svg .error-text{fill:#552222;stroke:#552222;}#my-svg .edge-thickness-normal{stroke-width:1px;}#my-svg .edge-thickness-thick{stroke-width:3.5px;}#my-svg .edge-pattern-solid{stroke-dasharray:0;}#my-svg .edge-thickness-invisible{stroke-width:0;fill:none;}#my-svg .edge-pattern-dashed{stroke-dasharray:3;}#my-svg .edge-pattern-dotted{stroke-dasharray:2;}#my-svg .marker{fill:#333333;stroke:#333333;}#my-svg .marker.cross{stroke:#333333;}#my-svg svg{font-family:"trebuchet ms",verdana,arial,sans-serif;font-size:16px;}#my-svg p{margin:0;}#my-svg .entityBox{fill:#ECECFF;stroke:#9370DB;}#my-svg .attributeBoxOdd{fill:#ffffff;stroke:#9370DB;}#my-svg .attributeBoxEven{fill:#f2f2f2;stroke:#9370DB;}#my-svg .relationshipLabelBox{fill:hsl(80, 100%, 96.2745098039%);opacity:0.7;background-color:hsl(80, 100%, 96.2745098039%);}#my-svg .relationshipLabelBox rect{opacity:0.5;}#my-svg .relationshipLine{stroke:#333333;}#my-svg .entityTitleText{text-anchor:middle;font-size:18px;fill:#333;}#my-svg #MD_PARENT_START{fill:#f5f5f5!important;stroke:#333333!important;stroke-width:1;}#my-svg #MD_PARENT_END{fill:#f5f5f5!important;stroke:#333333!important;stroke-width:1;}#my-svg :root{--mermaid-font-family:"trebuchet ms",verdana,arial,sans-serif;}</style><g/><defs><marker orient="auto" markerHeight="240" markerWidth="190" refY="7" refX="0" id="MD_PARENT_START"><path d="M 18,7 L9,13 L1,7 L9,1 Z"/></marker></defs><defs><marker orient="auto" markerHeight="28" markerWidth="20" refY="7" refX="19" id="MD_PARENT_END"><path d="M 18,7 L9,13 L1,7 L9,1 Z"/></marker></defs><defs><marker orient="auto" markerHeight="18" markerWidth="18" refY="9" refX="0" id="ONLY_ONE_START"><path d="M9,0 L9,18 M15,0 L15,18" fill="none" stroke="gray"/></marker></defs><defs><marker orient="auto" markerHeight="18" markerWidth="18" refY="9" refX="18" id="ONLY_ONE_END"><path d="M3,0 L3,18 M9,0 L9,18" fill="none" stroke="gray"/></marker></defs><defs><marker orient="auto" markerHeight="18" markerWidth="30" refY="9" refX="0" id="ZERO_OR_ONE_START"><circle r="6" cy="9" cx="21" fill="white" stroke="gray"/><path d="M9,0 L9,18" fill="none" stroke="gray"/></marker></defs><defs><marker orient="auto" markerHeight="18" markerWidth="30" refY="9" refX="30" id="ZERO_OR_ONE_END"><circle r="6" cy="9" cx="9" fill="white" stroke="gray"/><path d="M21,0 L21,18" fill="none" stroke="gray"/></marker></defs><defs><marker orient="auto" markerHeight="36" markerWidth="45" refY="18" refX="18" id="ONE_OR_MORE_START"><path d="M0,18 Q 18,0 36,18 Q 18,36 0,18 M42,9 L42,27" fill="none" stroke="gray"/></marker></defs><defs><marker orient="auto" markerHeight="36" markerWidth="45" refY="18" refX="27" id="ONE_OR_MORE_END"><path d="M3,9 L3,27 M9,18 Q27,0 45,18 Q27,36 9,18" fill="none" stroke="gray"/></marker></defs><defs><marker orient="auto" markerHeight="36" markerWidth="57" refY="18" refX="18" id="ZERO_OR_MORE_START"><circle r="6" cy="18" cx="48" fill="white" stroke="gray"/><path d="M0,18 Q18,0 36,18 Q18,36 0,18" fill="none" stroke="gray"/></marker></defs><defs><marker orient="auto" markerHeight="36" markerWidth="57" refY="18" refX="39" id="ZERO_OR_MORE_END"><circle r="6" cy="18" cx="9" fill="white" stroke="gray"/><path d="M21,18 Q39,0 57,18 Q39,36 21,18" fill="none" stroke="gray"/></marker></defs><path style="stroke: gray; fill: none;" marker-start="url(#ONLY_ONE_START)" marker-end="url(#ZERO_OR_MORE_END)" d="M1594.35,88.77L1606.016,77.308C1617.683,65.847,1641.016,42.923,1655.6,31.462C1670.183,20,1676.016,20,1681.85,48.25C1687.683,76.5,1693.516,133,1693.516,189.5C1693.516,246,1687.683,302.5,1681.85,330.75C1676.016,359,1670.183,359,1655.6,347.538C1641.016,336.077,1617.683,313.153,1606.016,301.692L1594.35,290.23" class="er relationshipLine"/><path style="stroke: gray; fill: none;" marker-start="url(#ONLY_ONE_START)" marker-end="url(#ZERO_OR_MORE_END)" d="M1389.287,205.329L1169.406,239.274C949.525,273.219,509.762,341.11,289.881,383.388C70,425.667,70,442.333,70,450.667L70,459" class="er relationshipLine"/><path style="stroke: gray; fill: none;" marker-start="url(#ONLY_ONE_START)" marker-end="url(#ZERO_OR_MORE_END)" d="M1389.287,206.7L1188.296,240.417C987.305,274.133,585.322,341.567,398.617,383.617C211.911,425.667,240.483,442.333,254.768,450.667L269.054,459" class="er relationshipLine"/><path style="stroke: gray; fill: none;" marker-start="url(#ONLY_ONE_START)" marker-end="url(#ZERO_OR_MORE_END)" d="M1389.287,213.653L1251.076,246.211C1112.865,278.769,836.442,343.884,698.231,384.775C560.02,425.667,560.02,442.333,560.02,450.667L560.02,459" class="er relationshipLine"/><path style="stroke: gray; fill: none;" marker-start="url(#ONLY_ONE_START)" marker-end="url(#ZERO_OR_MORE_END)" d="M1389.287,208.123L1204.963,241.603C1020.638,275.082,651.989,342.041,472.426,383.854C292.864,425.667,302.387,442.333,307.149,450.667L311.911,459" class="er relationshipLine"/><path style="stroke: gray; fill: none;" marker-start="url(#ONLY_ONE_START)" marker-end="url(#ZERO_OR_MORE_END)" d="M1389.287,220.401L1284.989,251.834C1180.691,283.267,972.095,346.134,867.797,385.9C763.499,425.667,763.499,442.333,763.499,450.667L763.499,459" class="er relationshipLine"/><path style="stroke: gray; fill: none;" marker-start="url(#ONLY_ONE_START)" marker-end="url(#ZERO_OR_MORE_END)" d="M1389.287,234.181L1322.426,263.317C1255.564,292.454,1121.842,350.727,1054.98,388.197C988.119,425.667,988.119,442.333,988.119,450.667L988.119,459" class="er relationshipLine"/><path style="stroke: gray; fill: none;" marker-start="url(#ONLY_ONE_START)" marker-end="url(#ZERO_OR_MORE_END)" d="M1389.287,274.129L1362.053,296.607C1334.82,319.086,1280.352,364.043,1253.118,394.855C1225.885,425.667,1225.885,442.333,1225.885,450.667L1225.885,459" class="er relationshipLine"/><path style="stroke: gray; fill: none;" marker-start="url(#ONLY_ONE_START)" marker-end="url(#ZERO_OR_MORE_END)" d="M1463.509,359L1462.117,367.333C1460.725,375.667,1457.942,392.333,1456.55,409C1455.158,425.667,1455.158,442.333,1455.158,450.667L1455.158,459" class="er relationshipLine"/><path style="stroke: gray; fill: none;" marker-start="url(#ONLY_ONE_START)" marker-end="url(#ZERO_OR_MORE_END)" d="M1389.287,210.05L1223.853,243.209C1058.418,276.367,727.549,342.683,556.082,384.175C384.615,425.667,372.55,442.333,366.518,450.667L360.485,459" class="er relationshipLine"/><path style="stroke: gray; fill: none;" marker-start="url(#ONLY_ONE_START)" marker-end="url(#ZERO_OR_MORE_END)" d="M1594.35,314.991L1607.151,330.66C1619.952,346.328,1645.555,377.664,1658.357,401.665C1671.158,425.667,1671.158,442.333,1671.158,450.667L1671.158,459" class="er relationshipLine"/><path style="stroke: gray; fill: none;" marker-start="url(#ONLY_ONE_START)" marker-end="url(#ZERO_OR_MORE_END)" d="M1594.35,248.309L1641.043,275.091C1687.736,301.873,1781.123,355.436,1827.816,390.551C1874.51,425.667,1874.51,442.333,1874.51,450.667L1874.51,459" class="er relationshipLine"/><path style="stroke: gray; fill: none;" marker-start="url(#ONLY_ONE_START)" marker-end="url(#ZERO_OR_MORE_END)" d="M1594.35,227.064L1677.116,257.387C1759.882,287.709,1925.415,348.355,2008.181,387.011C2090.947,425.667,2090.947,442.333,2090.947,450.667L2090.947,459" class="er relationshipLine"/><path style="stroke: gray; fill: none;" marker-start="url(#ONLY_ONE_START)" marker-end="url(#ZERO_OR_MORE_END)" d="M1594.35,216.623L1715.552,248.686C1836.755,280.749,2079.16,344.874,2200.362,385.271C2321.564,425.667,2321.564,442.333,2321.564,450.667L2321.564,459" class="er relationshipLine"/><path style="stroke: gray; fill: none;" marker-start="url(#ONLY_ONE_START)" marker-end="url(#ZERO_OR_MORE_END)" d="M1594.35,210.989L1751.809,243.991C1909.268,276.993,2224.186,342.996,2381.645,384.332C2539.104,425.667,2539.104,442.333,2539.104,450.667L2539.104,459" class="er relationshipLine"/><path style="stroke: gray; fill: none;" marker-start="url(#ONLY_ONE_START)" marker-end="url(#ZERO_OR_MORE_END)" d="M1594.35,207.275L1788.286,240.896C1982.223,274.517,2370.097,341.758,2564.034,383.712C2757.971,425.667,2757.971,442.333,2757.971,450.667L2757.971,459" class="er relationshipLine"/><path style="stroke: gray; fill: none;" marker-start="url(#ONLY_ONE_START)" marker-end="url(#ZERO_OR_MORE_END)" d="M1594.35,204.635L1825.09,238.696C2055.83,272.757,2517.311,340.878,2748.051,383.273C2978.791,425.667,2978.791,442.333,2978.791,450.667L2978.791,459" class="er relationshipLine"/><path style="stroke: gray; fill: none;" marker-start="url(#ONLY_ONE_START)" marker-end="url(#ZERO_OR_MORE_END)" d="M1594.35,202.799L1859.309,237.166C2124.268,271.533,2654.186,340.266,2919.145,382.966C3184.104,425.667,3184.104,442.333,3184.104,450.667L3184.104,459" class="er relationshipLine"/><g transform="translate(1389.287109375,20 )" id="entity-Muscle-93e0684e-7b06-53ae-969a-45ee7d7207d0"><rect height="339" width="205.0625" y="0" x="0" class="er entityBox"/><text style="dominant-baseline: middle; text-anchor: middle; font-size: 12px;" transform="translate(102.53125,12)" y="0" x="0" id="text-entity-Muscle-93e0684e-7b06-53ae-969a-45ee7d7207d0" class="er entityLabel">Muscle</text><rect height="21" width="57.0625" y="24" x="0" class="er attributeBoxOdd"/><text style="dominant-baseline: middle; font-size: 10.2px;" transform="translate(5,34.5)" y="0" x="0" id="text-entity-Muscle-93e0684e-7b06-53ae-969a-45ee7d7207d0-attr-1-type" class="er entityLabel">TextList</text><rect height="21" width="148" y="24" x="57.0625" class="er attributeBoxOdd"/><text style="dominant-baseline: middle; font-size: 10.2px;" transform="translate(62.0625,34.5)" y="0" x="0" id="text-entity-Muscle-93e0684e-7b06-53ae-969a-45ee7d7207d0-attr-1-name" class="er entityLabel">muscleAction</text><rect height="21" width="57.0625" y="45" x="0" class="er attributeBoxEven"/><text style="dominant-baseline: middle; font-size: 10.2px;" transform="translate(5,55.5)" y="0" x="0" id="text-entity-Muscle-93e0684e-7b06-53ae-969a-45ee7d7207d0-attr-2-type" class="er entityLabel">TextList</text><rect height="21" width="148" y="45" x="57.0625" class="er attributeBoxEven"/><text style="dominant-baseline: middle; font-size: 10.2px;" transform="translate(62.0625,55.5)" y="0" x="0" id="text-entity-Muscle-93e0684e-7b06-53ae-969a-45ee7d7207d0-attr-2-name" class="er entityLabel">associatedPathophysiology</text><rect height="21" width="57.0625" y="66" x="0" class="er attributeBoxOdd"/><text style="dominant-baseline: middle; font-size: 10.2px;" transform="translate(5,76.5)" y="0" x="0" id="text-entity-Muscle-93e0684e-7b06-53ae-969a-45ee7d7207d0-attr-3-type" class="er entityLabel">TextList</text><rect height="21" width="148" y="66" x="57.0625" class="er attributeBoxOdd"/><text style="dominant-baseline: middle; font-size: 10.2px;" transform="translate(62.0625,76.5)" y="0" x="0" id="text-entity-Muscle-93e0684e-7b06-53ae-969a-45ee7d7207d0-attr-3-name" class="er entityLabel">bodyLocation</text><rect height="21" width="57.0625" y="87" x="0" class="er attributeBoxEven"/><text style="dominant-baseline: middle; font-size: 10.2px;" transform="translate(5,97.5)" y="0" x="0" id="text-entity-Muscle-93e0684e-7b06-53ae-969a-45ee7d7207d0-attr-4-type" class="er entityLabel">stringList</text><rect height="21" width="148" y="87" x="57.0625" class="er attributeBoxEven"/><text style="dominant-baseline: middle; font-size: 10.2px;" transform="translate(62.0625,97.5)" y="0" x="0" id="text-entity-Muscle-93e0684e-7b06-53ae-969a-45ee7d7207d0-attr-4-name" class="er entityLabel">legalStatus</text><rect height="21" width="57.0625" y="108" x="0" class="er attributeBoxOdd"/><text style="dominant-baseline: middle; font-size: 10.2px;" transform="translate(5,118.5)" y="0" x="0" id="text-entity-Muscle-93e0684e-7b06-53ae-969a-45ee7d7207d0-attr-5-type" class="er entityLabel">stringList</text><rect height="21" width="148" y="108" x="57.0625" class="er attributeBoxOdd"/><text style="dominant-baseline: middle; font-size: 10.2px;" transform="translate(62.0625,118.5)" y="0" x="0" id="text-entity-Muscle-93e0684e-7b06-53ae-969a-45ee7d7207d0-attr-5-name" class="er entityLabel">additionalType</text><rect height="21" width="57.0625" y="129" x="0" class="er attributeBoxEven"/><text style="dominant-baseline: middle; font-size: 10.2px;" transform="translate(5,139.5)" y="0" x="0" id="text-entity-Muscle-93e0684e-7b06-53ae-969a-45ee7d7207d0-attr-6-type" class="er entityLabel">TextList</text><rect height="21" width="148" y="129" x="57.0625" class="er attributeBoxEven"/><text style="dominant-baseline: middle; font-size: 10.2px;" transform="translate(62.0625,139.5)" y="0" x="0" id="text-entity-Muscle-93e0684e-7b06-53ae-969a-45ee7d7207d0-attr-6-name" class="er entityLabel">alternateName</text><rect height="21" width="57.0625" y="150" x="0" class="er attributeBoxOdd"/><text style="dominant-baseline: middle; font-size: 10.2px;" transform="translate(5,160.5)" y="0" x="0" id="text-entity-Muscle-93e0684e-7b06-53ae-969a-45ee7d7207d0-attr-7-type" class="er entityLabel">stringList</text><rect height="21" width="148" y="150" x="57.0625" class="er attributeBoxOdd"/><text style="dominant-baseline: middle; font-size: 10.2px;" transform="translate(62.0625,160.5)" y="0" x="0" id="text-entity-Muscle-93e0684e-7b06-53ae-969a-45ee7d7207d0-attr-7-name" class="er entityLabel">description</text><rect height="21" width="57.0625" y="171" x="0" class="er attributeBoxEven"/><text style="dominant-baseline: middle; font-size: 10.2px;" transform="translate(5,181.5)" y="0" x="0" id="text-entity-Muscle-93e0684e-7b06-53ae-969a-45ee7d7207d0-attr-8-type" class="er entityLabel">TextList</text><rect height="21" width="148" y="171" x="57.0625" class="er attributeBoxEven"/><text style="dominant-baseline: middle; font-size: 10.2px;" transform="translate(62.0625,181.5)" y="0" x="0" id="text-entity-Muscle-93e0684e-7b06-53ae-969a-45ee7d7207d0-attr-8-name" class="er entityLabel">disambiguatingDescription</text><rect height="21" width="57.0625" y="192" x="0" class="er attributeBoxOdd"/><text style="dominant-baseline: middle; font-size: 10.2px;" transform="translate(5,202.5)" y="0" x="0" id="text-entity-Muscle-93e0684e-7b06-53ae-969a-45ee7d7207d0-attr-9-type" class="er entityLabel">stringList</text><rect height="21" width="148" y="192" x="57.0625" class="er attributeBoxOdd"/><text style="dominant-baseline: middle; font-size: 10.2px;" transform="translate(62.0625,202.5)" y="0" x="0" id="text-entity-Muscle-93e0684e-7b06-53ae-969a-45ee7d7207d0-attr-9-name" class="er entityLabel">identifier</text><rect height="21" width="57.0625" y="213" x="0" class="er attributeBoxEven"/><text style="dominant-baseline: middle; font-size: 10.2px;" transform="translate(5,223.5)" y="0" x="0" id="text-entity-Muscle-93e0684e-7b06-53ae-969a-45ee7d7207d0-attr-10-type" class="er entityLabel">stringList</text><rect height="21" width="148" y="213" x="57.0625" class="er attributeBoxEven"/><text style="dominant-baseline: middle; font-size: 10.2px;" transform="translate(62.0625,223.5)" y="0" x="0" id="text-entity-Muscle-93e0684e-7b06-53ae-969a-45ee7d7207d0-attr-10-name" class="er entityLabel">image</text><rect height="21" width="57.0625" y="234" x="0" class="er attributeBoxOdd"/><text style="dominant-baseline: middle; font-size: 10.2px;" transform="translate(5,244.5)" y="0" x="0" id="text-entity-Muscle-93e0684e-7b06-53ae-969a-45ee7d7207d0-attr-11-type" class="er entityLabel">TextList</text><rect height="21" width="148" y="234" x="57.0625" class="er attributeBoxOdd"/><text style="dominant-baseline: middle; font-size: 10.2px;" transform="translate(62.0625,244.5)" y="0" x="0" id="text-entity-Muscle-93e0684e-7b06-53ae-969a-45ee7d7207d0-attr-11-name" class="er entityLabel">name</text><rect height="21" width="57.0625" y="255" x="0" class="er attributeBoxEven"/><text style="dominant-baseline: middle; font-size: 10.2px;" transform="translate(5,265.5)" y="0" x="0" id="text-entity-Muscle-93e0684e-7b06-53ae-969a-45ee7d7207d0-attr-12-type" class="er entityLabel">URLList</text><rect height="21" width="148" y="255" x="57.0625" class="er attributeBoxEven"/><text style="dominant-baseline: middle; font-size: 10.2px;" transform="translate(62.0625,265.5)" y="0" x="0" id="text-entity-Muscle-93e0684e-7b06-53ae-969a-45ee7d7207d0-attr-12-name" class="er entityLabel">sameAs</text><rect height="21" width="57.0625" y="276" x="0" class="er attributeBoxOdd"/><text style="dominant-baseline: middle; font-size: 10.2px;" transform="translate(5,286.5)" y="0" x="0" id="text-entity-Muscle-93e0684e-7b06-53ae-969a-45ee7d7207d0-attr-13-type" class="er entityLabel">stringList</text><rect height="21" width="148" y="276" x="57.0625" class="er attributeBoxOdd"/><text style="dominant-baseline: middle; font-size: 10.2px;" transform="translate(62.0625,286.5)" y="0" x="0" id="text-entity-Muscle-93e0684e-7b06-53ae-969a-45ee7d7207d0-attr-13-name" class="er entityLabel">mainEntityOfPage</text><rect height="21" width="57.0625" y="297" x="0" class="er attributeBoxEven"/><text style="dominant-baseline: middle; font-size: 10.2px;" transform="translate(5,307.5)" y="0" x="0" id="text-entity-Muscle-93e0684e-7b06-53ae-969a-45ee7d7207d0-attr-14-type" class="er entityLabel">stringList</text><rect height="21" width="148" y="297" x="57.0625" class="er attributeBoxEven"/><text style="dominant-baseline: middle; font-size: 10.2px;" transform="translate(62.0625,307.5)" y="0" x="0" id="text-entity-Muscle-93e0684e-7b06-53ae-969a-45ee7d7207d0-attr-14-name" class="er entityLabel">subjectOf</text><rect height="21" width="57.0625" y="318" x="0" class="er attributeBoxOdd"/><text style="dominant-baseline: middle; font-size: 10.2px;" transform="translate(5,328.5)" y="0" x="0" id="text-entity-Muscle-93e0684e-7b06-53ae-969a-45ee7d7207d0-attr-15-type" class="er entityLabel">URLList</text><rect height="21" width="148" y="318" x="57.0625" class="er attributeBoxOdd"/><text style="dominant-baseline: middle; font-size: 10.2px;" transform="translate(62.0625,328.5)" y="0" x="0" id="text-entity-Muscle-93e0684e-7b06-53ae-969a-45ee7d7207d0-attr-15-name" class="er entityLabel">url</text></g><g transform="translate(20,459 )" id="entity-Vessel-4df51686-6cea-564a-ab70-0ca246d13ff3"><rect height="75" width="100" y="0" x="0" class="er entityBox"/><text style="dominant-baseline: middle; text-anchor: middle; font-size: 12px;" transform="translate(50,37.5)" y="0" x="0" id="text-entity-Vessel-4df51686-6cea-564a-ab70-0ca246d13ff3" class="er entityLabel">Vessel</text></g><g transform="translate(256.66015625,459 )" id="entity-AnatomicalStructure-3c5e0f00-f4ad-5ab6-89b3-e0fa067e5e05"><rect height="75" width="153.359375" y="0" x="0" class="er entityBox"/><text style="dominant-baseline: middle; text-anchor: middle; font-size: 12px;" transform="translate(76.6796875,37.5)" y="0" x="0" id="text-entity-AnatomicalStructure-3c5e0f00-f4ad-5ab6-89b3-e0fa067e5e05" class="er entityLabel">AnatomicalStructure</text></g><g transform="translate(510.01953125,459 )" id="entity-Nerve-c3d7b2c1-4c60-51f6-aac3-9f133f23c781"><rect height="75" width="100" y="0" x="0" class="er entityBox"/><text style="dominant-baseline: middle; text-anchor: middle; font-size: 12px;" transform="translate(50,37.5)" y="0" x="0" id="text-entity-Nerve-c3d7b2c1-4c60-51f6-aac3-9f133f23c781" class="er entityLabel">Nerve</text></g><g transform="translate(710.01953125,459 )" id="entity-ImageObject-2a761300-e471-57b1-9256-83c78b6eba94"><rect height="75" width="106.958984375" y="0" x="0" class="er entityBox"/><text style="dominant-baseline: middle; text-anchor: middle; font-size: 12px;" transform="translate(53.4794921875,37.5)" y="0" x="0" id="text-entity-ImageObject-2a761300-e471-57b1-9256-83c78b6eba94" class="er entityLabel">ImageObject</text></g><g transform="translate(916.978515625,459 )" id="entity-AnatomicalSystem-95715edd-482f-5376-b264-8ac2a8b4904d"><rect height="75" width="142.28125" y="0" x="0" class="er entityBox"/><text style="dominant-baseline: middle; text-anchor: middle; font-size: 12px;" transform="translate(71.140625,37.5)" y="0" x="0" id="text-entity-AnatomicalSystem-95715edd-482f-5376-b264-8ac2a8b4904d" class="er entityLabel">AnatomicalSystem</text></g><g transform="translate(1159.259765625,459 )" id="entity-MedicalCondition-a93e7da7-17aa-5f46-8e3a-8f90076b9104"><rect height="75" width="133.25" y="0" x="0" class="er entityBox"/><text style="dominant-baseline: middle; text-anchor: middle; font-size: 12px;" transform="translate(66.625,37.5)" y="0" x="0" id="text-entity-MedicalCondition-a93e7da7-17aa-5f46-8e3a-8f90076b9104" class="er entityLabel">MedicalCondition</text></g><g transform="translate(1392.509765625,459 )" id="entity-MedicalTherapy-cb945121-be61-5f08-b66d-584ab4170081"><rect height="75" width="125.296875" y="0" x="0" class="er entityBox"/><text style="dominant-baseline: middle; text-anchor: middle; font-size: 12px;" transform="translate(62.6484375,37.5)" y="0" x="0" id="text-entity-MedicalTherapy-cb945121-be61-5f08-b66d-584ab4170081" class="er entityLabel">MedicalTherapy</text></g><g transform="translate(1617.806640625,459 )" id="entity-MedicalCode-340ab1f3-b0e0-51ff-b309-32031f623ceb"><rect height="75" width="106.703125" y="0" x="0" class="er entityBox"/><text style="dominant-baseline: middle; text-anchor: middle; font-size: 12px;" transform="translate(53.3515625,37.5)" y="0" x="0" id="text-entity-MedicalCode-340ab1f3-b0e0-51ff-b309-32031f623ceb" class="er entityLabel">MedicalCode</text></g><g transform="translate(1824.509765625,459 )" id="entity-Grant-291daf2c-8722-576f-890e-1045bc6484c0"><rect height="75" width="100" y="0" x="0" class="er entityBox"/><text style="dominant-baseline: middle; text-anchor: middle; font-size: 12px;" transform="translate(50,37.5)" y="0" x="0" id="text-entity-Grant-291daf2c-8722-576f-890e-1045bc6484c0" class="er entityLabel">Grant</text></g><g transform="translate(2024.509765625,459 )" id="entity-MedicalGuideline-a05959e1-803b-55cd-8b3c-b530a54fde23"><rect height="75" width="132.875" y="0" x="0" class="er entityBox"/><text style="dominant-baseline: middle; text-anchor: middle; font-size: 12px;" transform="translate(66.4375,37.5)" y="0" x="0" id="text-entity-MedicalGuideline-a05959e1-803b-55cd-8b3c-b530a54fde23" class="er entityLabel">MedicalGuideline</text></g><g transform="translate(2257.384765625,459 )" id="entity-MedicineSystem-74197b84-67e0-5471-ab59-f3fd7c3c0e72"><rect height="75" width="128.359375" y="0" x="0" class="er entityBox"/><text style="dominant-baseline: middle; text-anchor: middle; font-size: 12px;" transform="translate(64.1796875,37.5)" y="0" x="0" id="text-entity-MedicineSystem-74197b84-67e0-5471-ab59-f3fd7c3c0e72" class="er entityLabel">MedicineSystem</text></g><g transform="translate(2485.744140625,459 )" id="entity-Organization-ef1721ab-1f62-5ef5-a525-a6c60c2f6032"><rect height="75" width="106.71875" y="0" x="0" class="er entityBox"/><text style="dominant-baseline: middle; text-anchor: middle; font-size: 12px;" transform="translate(53.359375,37.5)" y="0" x="0" id="text-entity-Organization-ef1721ab-1f62-5ef5-a525-a6c60c2f6032" class="er entityLabel">Organization</text></g><g transform="translate(2692.462890625,459 )" id="entity-MedicalSpecialty-0f4a20d3-5a5d-5b81-b412-da395afebba8"><rect height="75" width="131.015625" y="0" x="0" class="er entityBox"/><text style="dominant-baseline: middle; text-anchor: middle; font-size: 12px;" transform="translate(65.5078125,37.5)" y="0" x="0" id="text-entity-MedicalSpecialty-0f4a20d3-5a5d-5b81-b412-da395afebba8" class="er entityLabel">MedicalSpecialty</text></g><g transform="translate(2923.478515625,459 )" id="entity-MedicalStudy-22dea251-12b7-5654-af29-afad6ffe12b1"><rect height="75" width="110.625" y="0" x="0" class="er entityBox"/><text style="dominant-baseline: middle; text-anchor: middle; font-size: 12px;" transform="translate(55.3125,37.5)" y="0" x="0" id="text-entity-MedicalStudy-22dea251-12b7-5654-af29-afad6ffe12b1" class="er entityLabel">MedicalStudy</text></g><g transform="translate(3134.103515625,459 )" id="entity-Action-6cd87d9a-a078-546e-a35b-bee54f477b31"><rect height="75" width="100" y="0" x="0" class="er entityBox"/><text style="dominant-baseline: middle; text-anchor: middle; font-size: 12px;" transform="translate(50,37.5)" y="0" x="0" id="text-entity-Action-6cd87d9a-a078-546e-a35b-bee54f477b31" class="er entityLabel">Action</text></g><rect height="14" width="64.16796875" y="182.5" x="1661.4320068359375" class="er relationshipLabelBox"/><text style="text-anchor: middle; dominant-baseline: middle; font-size: 12px;" y="189.5" x="1693.5159912109375" id="rel1" class="er relationshipLabel">antagonist</text><rect height="14" width="74.15625" y="302.91229248046875" x="681.9747314453125" class="er relationshipLabelBox"/><text style="text-anchor: middle; dominant-baseline: middle; font-size: 12px;" y="309.91229248046875" x="719.0528564453125" id="rel2" class="er relationshipLabel">bloodSupply</text><rect height="14" width="52.5" y="300.7488098144531" x="768.3356323242188" class="er relationshipLabelBox"/><text style="text-anchor: middle; dominant-baseline: middle; font-size: 12px;" y="307.7488098144531" x="794.5856323242188" id="rel3" class="er relationshipLabel">insertion</text><rect height="14" width="34.40625" y="308.4277648925781" x="945.0258178710938" class="er relationshipLabelBox"/><text style="text-anchor: middle; dominant-baseline: middle; font-size: 12px;" y="315.4277648925781" x="962.2289428710938" id="rel4" class="er relationshipLabel">nerve</text><rect height="14" width="75.46875" y="303.2947692871094" x="795.544921875" class="er relationshipLabelBox"/><text style="text-anchor: middle; dominant-baseline: middle; font-size: 12px;" y="310.2947692871094" x="833.279296875" id="rel5" class="er relationshipLabel">connectedTo</text><rect height="14" width="49.90625" y="313.0166931152344" x="1037.8936767578125" class="er relationshipLabelBox"/><text style="text-anchor: middle; dominant-baseline: middle; font-size: 12px;" y="320.0166931152344" x="1062.8468017578125" id="rel6" class="er relationshipLabel">diagram</text><rect height="14" width="83.03125" y="322.5199890136719" x="1132.17919921875" class="er relationshipLabelBox"/><text style="text-anchor: middle; dominant-baseline: middle; font-size: 12px;" y="329.5199890136719" x="1173.69482421875" id="rel7" class="er relationshipLabel">partOfSystem</text><rect height="14" width="99.71875" y="349.18316650390625" x="1242.4833984375" class="er relationshipLabelBox"/><text style="text-anchor: middle; dominant-baseline: middle; font-size: 12px;" y="356.18316650390625" x="1292.3427734375" id="rel8" class="er relationshipLabel">relatedCondition</text><rect height="14" width="91.78125" y="401.769775390625" x="1410.67919921875" class="er relationshipLabelBox"/><text style="text-anchor: middle; dominant-baseline: middle; font-size: 12px;" y="408.769775390625" x="1456.56982421875" id="rel9" class="er relationshipLabel">relatedTherapy</text><rect height="14" width="77.296875" y="308.6654052734375" x="829.0758666992188" class="er relationshipLabelBox"/><text style="text-anchor: middle; dominant-baseline: middle; font-size: 12px;" y="315.6654052734375" x="867.7243041992188" id="rel10" class="er relationshipLabel">subStructure</text><rect height="14" width="28.953125" y="374.0858154296875" x="1631.2232666015625" class="er relationshipLabelBox"/><text style="text-anchor: middle; dominant-baseline: middle; font-size: 12px;" y="381.0858154296875" x="1645.6998291015625" id="rel11" class="er relationshipLabel">code</text><rect height="14" width="45.609375" y="332.1921691894531" x="1727.236328125" class="er relationshipLabelBox"/><text style="text-anchor: middle; dominant-baseline: middle; font-size: 12px;" y="339.1921691894531" x="1750.041015625" id="rel12" class="er relationshipLabel">funding</text><rect height="14" width="55.21875" y="317.6048278808594" x="1829.418212890625" class="er relationshipLabelBox"/><text style="text-anchor: middle; dominant-baseline: middle; font-size: 12px;" y="324.6048278808594" x="1857.027587890625" id="rel13" class="er relationshipLabel">guideline</text><rect height="14" width="99.703125" y="310.43829345703125" x="1921.0606689453125" class="er relationshipLabelBox"/><text style="text-anchor: middle; dominant-baseline: middle; font-size: 12px;" y="317.43829345703125" x="1970.9122314453125" id="rel14" class="er relationshipLabel">medicineSystem</text><rect height="14" width="124.953125" y="306.6412048339844" x="2016.146484375" class="er relationshipLabelBox"/><text style="text-anchor: middle; dominant-baseline: middle; font-size: 12px;" y="313.6412048339844" x="2078.623046875" id="rel15" class="er relationshipLabel">recognizingAuthority</text><rect height="14" width="104.578125" y="304.1824951171875" x="2134.940673828125" class="er relationshipLabelBox"/><text style="text-anchor: middle; dominant-baseline: middle; font-size: 12px;" y="311.1824951171875" x="2187.229736328125" id="rel16" class="er relationshipLabel">relevantSpecialty</text><rect height="14" width="33.28125" y="302.46295166015625" x="2280.342041015625" class="er relationshipLabelBox"/><text style="text-anchor: middle; dominant-baseline: middle; font-size: 12px;" y="309.46295166015625" x="2296.982666015625" id="rel17" class="er relationshipLabel">study</text><rect height="14" width="90.96875" y="301.2828063964844" x="2353.66015625" class="er relationshipLabelBox"/><text style="text-anchor: middle; dominant-baseline: middle; font-size: 12px;" y="308.2828063964844" x="2399.14453125" id="rel18" class="er relationshipLabel">potentialAction</text></svg>