<svg aria-roledescription="er" role="graphics-document document" viewBox="0 0 3872.6044921875 407" style="max-width: 3872.6px; background-color: white;" xmlns:xlink="http://www.w3.org/1999/xlink" xmlns="http://www.w3.org/2000/svg" width="100%" id="my-svg"><style>#my-svg{font-family:"trebuchet ms",verdana,arial,sans-serif;font-size:16px;fill:#333;}#my-svg .error-icon{fill:#552222;}#my-svg .error-text{fill:#552222;stroke:#552222;}#my-svg .edge-thickness-normal{stroke-width:1px;}#my-svg .edge-thickness-thick{stroke-width:3.5px;}#my-svg .edge-pattern-solid{stroke-dasharray:0;}#my-svg .edge-thickness-invisible{stroke-width:0;fill:none;}#my-svg .edge-pattern-dashed{stroke-dasharray:3;}#my-svg .edge-pattern-dotted{stroke-dasharray:2;}#my-svg .marker{fill:#333333;stroke:#333333;}#my-svg .marker.cross{stroke:#333333;}#my-svg svg{font-family:"trebuchet ms",verdana,arial,sans-serif;font-size:16px;}#my-svg p{margin:0;}#my-svg .entityBox{fill:#ECECFF;stroke:#9370DB;}#my-svg .attributeBoxOdd{fill:#ffffff;stroke:#9370DB;}#my-svg .attributeBoxEven{fill:#f2f2f2;stroke:#9370DB;}#my-svg .relationshipLabelBox{fill:hsl(80, 100%, 96.2745098039%);opacity:0.7;background-color:hsl(80, 100%, 96.2745098039%);}#my-svg .relationshipLabelBox rect{opacity:0.5;}#my-svg .relationshipLine{stroke:#333333;}#my-svg .entityTitleText{text-anchor:middle;font-size:18px;fill:#333;}#my-svg #MD_PARENT_START{fill:#f5f5f5!important;stroke:#333333!important;stroke-width:1;}#my-svg #MD_PARENT_END{fill:#f5f5f5!important;stroke:#333333!important;stroke-width:1;}#my-svg :root{--mermaid-font-family:"trebuchet ms",verdana,arial,sans-serif;}</style><g/><defs><marker orient="auto" markerHeight="240" markerWidth="190" refY="7" refX="0" id="MD_PARENT_START"><path d="M 18,7 L9,13 L1,7 L9,1 Z"/></marker></defs><defs><marker orient="auto" markerHeight="28" markerWidth="20" refY="7" refX="19" id="MD_PARENT_END"><path d="M 18,7 L9,13 L1,7 L9,1 Z"/></marker></defs><defs><marker orient="auto" markerHeight="18" markerWidth="18" refY="9" refX="0" id="ONLY_ONE_START"><path d="M9,0 L9,18 M15,0 L15,18" fill="none" stroke="gray"/></marker></defs><defs><marker orient="auto" markerHeight="18" markerWidth="18" refY="9" refX="18" id="ONLY_ONE_END"><path d="M3,0 L3,18 M9,0 L9,18" fill="none" stroke="gray"/></marker></defs><defs><marker orient="auto" markerHeight="18" markerWidth="30" refY="9" refX="0" id="ZERO_OR_ONE_START"><circle r="6" cy="9" cx="21" fill="white" stroke="gray"/><path d="M9,0 L9,18" fill="none" stroke="gray"/></marker></defs><defs><marker orient="auto" markerHeight="18" markerWidth="30" refY="9" refX="30" id="ZERO_OR_ONE_END"><circle r="6" cy="9" cx="9" fill="white" stroke="gray"/><path d="M21,0 L21,18" fill="none" stroke="gray"/></marker></defs><defs><marker orient="auto" markerHeight="36" markerWidth="45" refY="18" refX="18" id="ONE_OR_MORE_START"><path d="M0,18 Q 18,0 36,18 Q 18,36 0,18 M42,9 L42,27" fill="none" stroke="gray"/></marker></defs><defs><marker orient="auto" markerHeight="36" markerWidth="45" refY="18" refX="27" id="ONE_OR_MORE_END"><path d="M3,9 L3,27 M9,18 Q27,0 45,18 Q27,36 9,18" fill="none" stroke="gray"/></marker></defs><defs><marker orient="auto" markerHeight="36" markerWidth="57" refY="18" refX="18" id="ZERO_OR_MORE_START"><circle r="6" cy="18" cx="48" fill="white" stroke="gray"/><path d="M0,18 Q18,0 36,18 Q18,36 0,18" fill="none" stroke="gray"/></marker></defs><defs><marker orient="auto" markerHeight="36" markerWidth="57" refY="18" refX="39" id="ZERO_OR_MORE_END"><circle r="6" cy="18" cx="9" fill="white" stroke="gray"/><path d="M21,18 Q39,0 57,18 Q39,36 21,18" fill="none" stroke="gray"/></marker></defs><path style="stroke: gray; fill: none;" marker-start="url(#ONLY_ONE_START)" marker-end="url(#ZERO_OR_MORE_END)" d="M1487.218,123.615L1247.128,146.679C1007.038,169.743,526.859,215.872,291.531,247.269C56.203,278.667,65.727,295.333,70.489,303.667L75.251,312" class="er relationshipLine"/><path style="stroke: gray; fill: none;" marker-start="url(#ONLY_ONE_START)" marker-end="url(#ZERO_OR_MORE_END)" d="M1487.218,125.592L1299.351,148.327C1111.485,171.062,735.752,216.531,547.886,247.599C360.02,278.667,360.02,295.333,360.02,303.667L360.02,312" class="er relationshipLine"/><path style="stroke: gray; fill: none;" marker-start="url(#ONLY_ONE_START)" marker-end="url(#ZERO_OR_MORE_END)" d="M1487.218,127.598L1334.125,149.998C1181.032,172.399,874.846,217.199,721.753,247.933C568.66,278.667,568.66,295.333,568.66,303.667L568.66,312" class="er relationshipLine"/><path style="stroke: gray; fill: none;" marker-start="url(#ONLY_ONE_START)" marker-end="url(#ZERO_OR_MORE_END)" d="M1487.218,129.084L1353.015,151.237C1218.812,173.389,950.406,217.695,841.203,250.785C732,283.875,782,305.75,807,316.688L832,327.625" class="er relationshipLine"/><path style="stroke: gray; fill: none;" marker-start="url(#ONLY_ONE_START)" marker-end="url(#ZERO_OR_MORE_END)" d="M1487.218,130.752L1369.681,152.627C1252.145,174.501,1017.073,218.251,909.06,248.459C801.048,278.667,820.095,295.333,829.619,303.667L839.143,312" class="er relationshipLine"/><path style="stroke: gray; fill: none;" marker-start="url(#ONLY_ONE_START)" marker-end="url(#ZERO_OR_MORE_END)" d="M1487.218,124.151L1263.795,147.126C1040.372,170.101,593.526,216.05,365.341,247.358C137.156,278.667,127.632,295.333,122.87,303.667L118.108,312" class="er relationshipLine"/><path style="stroke: gray; fill: none;" marker-start="url(#ONLY_ONE_START)" marker-end="url(#ZERO_OR_MORE_END)" d="M1487.218,146.1L1436.348,165.416C1385.479,184.733,1283.739,223.367,1232.87,251.017C1182,278.667,1182,295.333,1182,303.667L1182,312" class="er relationshipLine"/><path style="stroke: gray; fill: none;" marker-start="url(#ONLY_ONE_START)" marker-end="url(#ZERO_OR_MORE_END)" d="M1487.218,188.392L1473.785,200.66C1460.352,212.928,1433.486,237.464,1420.053,258.065C1406.62,278.667,1406.62,295.333,1406.62,303.667L1406.62,312" class="er relationshipLine"/><path style="stroke: gray; fill: none;" marker-start="url(#ONLY_ONE_START)" marker-end="url(#ZERO_OR_MORE_END)" d="M1617.707,212L1622.153,220.333C1626.6,228.667,1635.493,245.333,1639.939,262C1644.386,278.667,1644.386,295.333,1644.386,303.667L1644.386,312" class="er relationshipLine"/><path style="stroke: gray; fill: none;" marker-start="url(#ONLY_ONE_START)" marker-end="url(#ZERO_OR_MORE_END)" d="M1645.749,153.675L1683.734,171.729C1721.719,189.783,1797.689,225.892,1835.674,252.279C1873.659,278.667,1873.659,295.333,1873.659,303.667L1873.659,312" class="er relationshipLine"/><path style="stroke: gray; fill: none;" marker-start="url(#ONLY_ONE_START)" marker-end="url(#ZERO_OR_MORE_END)" d="M1487.218,124.769L1280.461,147.64C1073.705,170.512,660.192,216.256,439.15,247.461C218.108,278.667,189.537,295.333,175.251,303.667L160.965,312" class="er relationshipLine"/><path style="stroke: gray; fill: none;" marker-start="url(#ONLY_ONE_START)" marker-end="url(#ZERO_OR_MORE_END)" d="M1645.749,138.12L1719.734,158.767C1793.719,179.414,1941.689,220.707,2015.674,249.687C2089.659,278.667,2089.659,295.333,2089.659,303.667L2089.659,312" class="er relationshipLine"/><path style="stroke: gray; fill: none;" marker-start="url(#ONLY_ONE_START)" marker-end="url(#ZERO_OR_MORE_END)" d="M1645.749,131.929L1753.626,153.607C1861.503,175.286,2077.257,218.643,2185.134,248.655C2293.011,278.667,2293.011,295.333,2293.011,303.667L2293.011,312" class="er relationshipLine"/><path style="stroke: gray; fill: none;" marker-start="url(#ONLY_ONE_START)" marker-end="url(#ZERO_OR_MORE_END)" d="M1645.749,128.273L1789.699,150.561C1933.649,172.849,2221.549,217.424,2365.498,248.045C2509.448,278.667,2509.448,295.333,2509.448,303.667L2509.448,312" class="er relationshipLine"/><path style="stroke: gray; fill: none;" marker-start="url(#ONLY_ONE_START)" marker-end="url(#ZERO_OR_MORE_END)" d="M1645.749,125.861L1828.135,148.551C2010.521,171.241,2375.293,216.62,2557.679,247.644C2740.065,278.667,2740.065,295.333,2740.065,303.667L2740.065,312" class="er relationshipLine"/><path style="stroke: gray; fill: none;" marker-start="url(#ONLY_ONE_START)" marker-end="url(#ZERO_OR_MORE_END)" d="M1645.749,124.319L1864.392,147.266C2083.034,170.213,2520.319,216.106,2738.962,247.387C2957.604,278.667,2957.604,295.333,2957.604,303.667L2957.604,312" class="er relationshipLine"/><path style="stroke: gray; fill: none;" marker-start="url(#ONLY_ONE_START)" marker-end="url(#ZERO_OR_MORE_END)" d="M1645.749,123.188L1900.869,146.323C2155.99,169.459,2666.231,215.729,2921.351,247.198C3176.472,278.667,3176.472,295.333,3176.472,303.667L3176.472,312" class="er relationshipLine"/><path style="stroke: gray; fill: none;" marker-start="url(#ONLY_ONE_START)" marker-end="url(#ZERO_OR_MORE_END)" d="M1645.749,122.321L1937.673,145.601C2229.597,168.881,2813.444,215.44,3105.368,247.054C3397.292,278.667,3397.292,295.333,3397.292,303.667L3397.292,312" class="er relationshipLine"/><path style="stroke: gray; fill: none;" marker-start="url(#ONLY_ONE_START)" marker-end="url(#ZERO_OR_MORE_END)" d="M1487.218,132.907L1386.348,154.423C1285.479,175.938,1083.739,218.969,982.87,248.818C882,278.667,882,295.333,882,303.667L882,312" class="er relationshipLine"/><path style="stroke: gray; fill: none;" marker-start="url(#ONLY_ONE_START)" marker-end="url(#ZERO_OR_MORE_END)" d="M1487.218,135.8L1403.015,156.833C1318.812,177.867,1150.406,219.933,1056.679,249.3C962.952,278.667,943.905,295.333,934.381,303.667L924.857,312" class="er relationshipLine"/><path style="stroke: gray; fill: none;" marker-start="url(#ONLY_ONE_START)" marker-end="url(#ZERO_OR_MORE_END)" d="M1487.218,139.887L1419.681,160.239C1352.145,180.591,1217.073,221.296,1124.536,252.585C1032,283.875,982,305.75,957,316.688L932,327.625" class="er relationshipLine"/><path style="stroke: gray; fill: none;" marker-start="url(#ONLY_ONE_START)" marker-end="url(#ZERO_OR_MORE_END)" d="M1645.749,121.835L1963.116,145.196C2280.482,168.556,2915.215,215.278,3237.597,246.972C3559.978,278.667,3570.008,295.333,3575.023,303.667L3580.038,312" class="er relationshipLine"/><path style="stroke: gray; fill: none;" marker-start="url(#ONLY_ONE_START)" marker-end="url(#ZERO_OR_MORE_END)" d="M1645.749,121.175L2005.225,144.646C2364.701,168.117,3083.653,215.058,3443.129,246.863C3802.604,278.667,3802.604,295.333,3802.604,303.667L3802.604,312" class="er relationshipLine"/><path style="stroke: gray; fill: none;" marker-start="url(#ONLY_ONE_START)" marker-end="url(#ZERO_OR_MORE_END)" d="M1645.749,121.548L1980.225,144.956C2314.701,168.365,2983.653,215.183,3313.367,246.925C3643.081,278.667,3633.557,295.333,3628.795,303.667L3624.033,312" class="er relationshipLine"/><g transform="translate(1487.2177734375,20 )" id="entity-Nerve-c3d7b2c1-4c60-51f6-aac3-9f133f23c781"><rect height="192" width="158.53125" y="0" x="0" class="er entityBox"/><text style="dominant-baseline: middle; text-anchor: middle; font-size: 12px;" transform="translate(79.265625,12)" y="0" x="0" id="text-entity-Nerve-c3d7b2c1-4c60-51f6-aac3-9f133f23c781" class="er entityLabel">Nerve</text><rect height="21" width="57.0625" y="24" x="0" class="er attributeBoxOdd"/><text style="dominant-baseline: middle; font-size: 10.2px;" transform="translate(5,34.5)" y="0" x="0" id="text-entity-Nerve-c3d7b2c1-4c60-51f6-aac3-9f133f23c781-attr-1-type" class="er entityLabel">stringList</text><rect height="21" width="101.46875" y="24" x="57.0625" class="er attributeBoxOdd"/><text style="dominant-baseline: middle; font-size: 10.2px;" transform="translate(62.0625,34.5)" y="0" x="0" id="text-entity-Nerve-c3d7b2c1-4c60-51f6-aac3-9f133f23c781-attr-1-name" class="er entityLabel">sensoryUnit</text><rect height="21" width="57.0625" y="45" x="0" class="er attributeBoxEven"/><text style="dominant-baseline: middle; font-size: 10.2px;" transform="translate(5,55.5)" y="0" x="0" id="text-entity-Nerve-c3d7b2c1-4c60-51f6-aac3-9f133f23c781-attr-2-type" class="er entityLabel">stringList</text><rect height="21" width="101.46875" y="45" x="57.0625" class="er attributeBoxEven"/><text style="dominant-baseline: middle; font-size: 10.2px;" transform="translate(62.0625,55.5)" y="0" x="0" id="text-entity-Nerve-c3d7b2c1-4c60-51f6-aac3-9f133f23c781-attr-2-name" class="er entityLabel">legalStatus</text><rect height="21" width="57.0625" y="66" x="0" class="er attributeBoxOdd"/><text style="dominant-baseline: middle; font-size: 10.2px;" transform="translate(5,76.5)" y="0" x="0" id="text-entity-Nerve-c3d7b2c1-4c60-51f6-aac3-9f133f23c781-attr-3-type" class="er entityLabel">stringList</text><rect height="21" width="101.46875" y="66" x="57.0625" class="er attributeBoxOdd"/><text style="dominant-baseline: middle; font-size: 10.2px;" transform="translate(62.0625,76.5)" y="0" x="0" id="text-entity-Nerve-c3d7b2c1-4c60-51f6-aac3-9f133f23c781-attr-3-name" class="er entityLabel">additionalType</text><rect height="21" width="57.0625" y="87" x="0" class="er attributeBoxEven"/><text style="dominant-baseline: middle; font-size: 10.2px;" transform="translate(5,97.5)" y="0" x="0" id="text-entity-Nerve-c3d7b2c1-4c60-51f6-aac3-9f133f23c781-attr-4-type" class="er entityLabel">stringList</text><rect height="21" width="101.46875" y="87" x="57.0625" class="er attributeBoxEven"/><text style="dominant-baseline: middle; font-size: 10.2px;" transform="translate(62.0625,97.5)" y="0" x="0" id="text-entity-Nerve-c3d7b2c1-4c60-51f6-aac3-9f133f23c781-attr-4-name" class="er entityLabel">description</text><rect height="21" width="57.0625" y="108" x="0" class="er attributeBoxOdd"/><text style="dominant-baseline: middle; font-size: 10.2px;" transform="translate(5,118.5)" y="0" x="0" id="text-entity-Nerve-c3d7b2c1-4c60-51f6-aac3-9f133f23c781-attr-5-type" class="er entityLabel">stringList</text><rect height="21" width="101.46875" y="108" x="57.0625" class="er attributeBoxOdd"/><text style="dominant-baseline: middle; font-size: 10.2px;" transform="translate(62.0625,118.5)" y="0" x="0" id="text-entity-Nerve-c3d7b2c1-4c60-51f6-aac3-9f133f23c781-attr-5-name" class="er entityLabel">identifier</text><rect height="21" width="57.0625" y="129" x="0" class="er attributeBoxEven"/><text style="dominant-baseline: middle; font-size: 10.2px;" transform="translate(5,139.5)" y="0" x="0" id="text-entity-Nerve-c3d7b2c1-4c60-51f6-aac3-9f133f23c781-attr-6-type" class="er entityLabel">stringList</text><rect height="21" width="101.46875" y="129" x="57.0625" class="er attributeBoxEven"/><text style="dominant-baseline: middle; font-size: 10.2px;" transform="translate(62.0625,139.5)" y="0" x="0" id="text-entity-Nerve-c3d7b2c1-4c60-51f6-aac3-9f133f23c781-attr-6-name" class="er entityLabel">image</text><rect height="21" width="57.0625" y="150" x="0" class="er attributeBoxOdd"/><text style="dominant-baseline: middle; font-size: 10.2px;" transform="translate(5,160.5)" y="0" x="0" id="text-entity-Nerve-c3d7b2c1-4c60-51f6-aac3-9f133f23c781-attr-7-type" class="er entityLabel">stringList</text><rect height="21" width="101.46875" y="150" x="57.0625" class="er attributeBoxOdd"/><text style="dominant-baseline: middle; font-size: 10.2px;" transform="translate(62.0625,160.5)" y="0" x="0" id="text-entity-Nerve-c3d7b2c1-4c60-51f6-aac3-9f133f23c781-attr-7-name" class="er entityLabel">mainEntityOfPage</text><rect height="21" width="57.0625" y="171" x="0" class="er attributeBoxEven"/><text style="dominant-baseline: middle; font-size: 10.2px;" transform="translate(5,181.5)" y="0" x="0" id="text-entity-Nerve-c3d7b2c1-4c60-51f6-aac3-9f133f23c781-attr-8-type" class="er entityLabel">stringList</text><rect height="21" width="101.46875" y="171" x="57.0625" class="er attributeBoxEven"/><text style="dominant-baseline: middle; font-size: 10.2px;" transform="translate(62.0625,181.5)" y="0" x="0" id="text-entity-Nerve-c3d7b2c1-4c60-51f6-aac3-9f133f23c781-attr-8-name" class="er entityLabel">subjectOf</text></g><g transform="translate(20,312 )" id="entity-AnatomicalStructure-3c5e0f00-f4ad-5ab6-89b3-e0fa067e5e05"><rect height="75" width="153.359375" y="0" x="0" class="er entityBox"/><text style="dominant-baseline: middle; text-anchor: middle; font-size: 12px;" transform="translate(76.6796875,37.5)" y="0" x="0" id="text-entity-AnatomicalStructure-3c5e0f00-f4ad-5ab6-89b3-e0fa067e5e05" class="er entityLabel">AnatomicalStructure</text></g><g transform="translate(310.01953125,312 )" id="entity-Muscle-93e0684e-7b06-53ae-969a-45ee7d7207d0"><rect height="75" width="100" y="0" x="0" class="er entityBox"/><text style="dominant-baseline: middle; text-anchor: middle; font-size: 12px;" transform="translate(50,37.5)" y="0" x="0" id="text-entity-Muscle-93e0684e-7b06-53ae-969a-45ee7d7207d0" class="er entityLabel">Muscle</text></g><g transform="translate(510.01953125,312 )" id="entity-BrainStructure-ee20b100-14f7-584c-8787-9e4fb6a2eed5"><rect height="75" width="117.28125" y="0" x="0" class="er entityBox"/><text style="dominant-baseline: middle; text-anchor: middle; font-size: 12px;" transform="translate(58.640625,37.5)" y="0" x="0" id="text-entity-BrainStructure-ee20b100-14f7-584c-8787-9e4fb6a2eed5" class="er entityLabel">BrainStructure</text></g><g transform="translate(832,312 )" id="entity-Text-426c5d39-acfc-5487-a6d9-ede67887190e"><rect height="75" width="100" y="0" x="0" class="er entityBox"/><text style="dominant-baseline: middle; text-anchor: middle; font-size: 12px;" transform="translate(50,37.5)" y="0" x="0" id="text-entity-Text-426c5d39-acfc-5487-a6d9-ede67887190e" class="er entityLabel">Text</text></g><g transform="translate(1128.5205078125,312 )" id="entity-ImageObject-2a761300-e471-57b1-9256-83c78b6eba94"><rect height="75" width="106.958984375" y="0" x="0" class="er entityBox"/><text style="dominant-baseline: middle; text-anchor: middle; font-size: 12px;" transform="translate(53.4794921875,37.5)" y="0" x="0" id="text-entity-ImageObject-2a761300-e471-57b1-9256-83c78b6eba94" class="er entityLabel">ImageObject</text></g><g transform="translate(1335.4794921875,312 )" id="entity-AnatomicalSystem-95715edd-482f-5376-b264-8ac2a8b4904d"><rect height="75" width="142.28125" y="0" x="0" class="er entityBox"/><text style="dominant-baseline: middle; text-anchor: middle; font-size: 12px;" transform="translate(71.140625,37.5)" y="0" x="0" id="text-entity-AnatomicalSystem-95715edd-482f-5376-b264-8ac2a8b4904d" class="er entityLabel">AnatomicalSystem</text></g><g transform="translate(1577.7607421875,312 )" id="entity-MedicalCondition-a93e7da7-17aa-5f46-8e3a-8f90076b9104"><rect height="75" width="133.25" y="0" x="0" class="er entityBox"/><text style="dominant-baseline: middle; text-anchor: middle; font-size: 12px;" transform="translate(66.625,37.5)" y="0" x="0" id="text-entity-MedicalCondition-a93e7da7-17aa-5f46-8e3a-8f90076b9104" class="er entityLabel">MedicalCondition</text></g><g transform="translate(1811.0107421875,312 )" id="entity-MedicalTherapy-cb945121-be61-5f08-b66d-584ab4170081"><rect height="75" width="125.296875" y="0" x="0" class="er entityBox"/><text style="dominant-baseline: middle; text-anchor: middle; font-size: 12px;" transform="translate(62.6484375,37.5)" y="0" x="0" id="text-entity-MedicalTherapy-cb945121-be61-5f08-b66d-584ab4170081" class="er entityLabel">MedicalTherapy</text></g><g transform="translate(2036.3076171875,312 )" id="entity-MedicalCode-340ab1f3-b0e0-51ff-b309-32031f623ceb"><rect height="75" width="106.703125" y="0" x="0" class="er entityBox"/><text style="dominant-baseline: middle; text-anchor: middle; font-size: 12px;" transform="translate(53.3515625,37.5)" y="0" x="0" id="text-entity-MedicalCode-340ab1f3-b0e0-51ff-b309-32031f623ceb" class="er entityLabel">MedicalCode</text></g><g transform="translate(2243.0107421875,312 )" id="entity-Grant-291daf2c-8722-576f-890e-1045bc6484c0"><rect height="75" width="100" y="0" x="0" class="er entityBox"/><text style="dominant-baseline: middle; text-anchor: middle; font-size: 12px;" transform="translate(50,37.5)" y="0" x="0" id="text-entity-Grant-291daf2c-8722-576f-890e-1045bc6484c0" class="er entityLabel">Grant</text></g><g transform="translate(2443.0107421875,312 )" id="entity-MedicalGuideline-a05959e1-803b-55cd-8b3c-b530a54fde23"><rect height="75" width="132.875" y="0" x="0" class="er entityBox"/><text style="dominant-baseline: middle; text-anchor: middle; font-size: 12px;" transform="translate(66.4375,37.5)" y="0" x="0" id="text-entity-MedicalGuideline-a05959e1-803b-55cd-8b3c-b530a54fde23" class="er entityLabel">MedicalGuideline</text></g><g transform="translate(2675.8857421875,312 )" id="entity-MedicineSystem-74197b84-67e0-5471-ab59-f3fd7c3c0e72"><rect height="75" width="128.359375" y="0" x="0" class="er entityBox"/><text style="dominant-baseline: middle; text-anchor: middle; font-size: 12px;" transform="translate(64.1796875,37.5)" y="0" x="0" id="text-entity-MedicineSystem-74197b84-67e0-5471-ab59-f3fd7c3c0e72" class="er entityLabel">MedicineSystem</text></g><g transform="translate(2904.2451171875,312 )" id="entity-Organization-ef1721ab-1f62-5ef5-a525-a6c60c2f6032"><rect height="75" width="106.71875" y="0" x="0" class="er entityBox"/><text style="dominant-baseline: middle; text-anchor: middle; font-size: 12px;" transform="translate(53.359375,37.5)" y="0" x="0" id="text-entity-Organization-ef1721ab-1f62-5ef5-a525-a6c60c2f6032" class="er entityLabel">Organization</text></g><g transform="translate(3110.9638671875,312 )" id="entity-MedicalSpecialty-0f4a20d3-5a5d-5b81-b412-da395afebba8"><rect height="75" width="131.015625" y="0" x="0" class="er entityBox"/><text style="dominant-baseline: middle; text-anchor: middle; font-size: 12px;" transform="translate(65.5078125,37.5)" y="0" x="0" id="text-entity-MedicalSpecialty-0f4a20d3-5a5d-5b81-b412-da395afebba8" class="er entityLabel">MedicalSpecialty</text></g><g transform="translate(3341.9794921875,312 )" id="entity-MedicalStudy-22dea251-12b7-5654-af29-afad6ffe12b1"><rect height="75" width="110.625" y="0" x="0" class="er entityBox"/><text style="dominant-baseline: middle; text-anchor: middle; font-size: 12px;" transform="translate(55.3125,37.5)" y="0" x="0" id="text-entity-MedicalStudy-22dea251-12b7-5654-af29-afad6ffe12b1" class="er entityLabel">MedicalStudy</text></g><g transform="translate(3552.6044921875,312 )" id="entity-URL-07f78d3e-fd74-5925-b39b-26c1cc2d6b7c"><rect height="75" width="100" y="0" x="0" class="er entityBox"/><text style="dominant-baseline: middle; text-anchor: middle; font-size: 12px;" transform="translate(50,37.5)" y="0" x="0" id="text-entity-URL-07f78d3e-fd74-5925-b39b-26c1cc2d6b7c" class="er entityLabel">URL</text></g><g transform="translate(3752.6044921875,312 )" id="entity-Action-6cd87d9a-a078-546e-a35b-bee54f477b31"><rect height="75" width="100" y="0" x="0" class="er entityBox"/><text style="dominant-baseline: middle; text-anchor: middle; font-size: 12px;" transform="translate(50,37.5)" y="0" x="0" id="text-entity-Action-6cd87d9a-a078-546e-a35b-bee54f477b31" class="er entityLabel">Action</text></g><rect height="14" width="41.71875" y="186.9767303466797" x="745.4404296875" class="er relationshipLabelBox"/><text style="text-anchor: middle; dominant-baseline: middle; font-size: 12px;" y="193.9767303466797" x="766.2998046875" id="rel1" class="er relationshipLabel">branch</text><rect height="14" width="69.1484375" y="189.18014526367188" x="878.6317138671875" class="er relationshipLabelBox"/><text style="text-anchor: middle; dominant-baseline: middle; font-size: 12px;" y="196.18014526367188" x="913.2059326171875" id="rel2" class="er relationshipLabel">nerveMotor</text><rect height="14" width="77.203125" y="190.58265686035156" x="978.168701171875" class="er relationshipLabelBox"/><text style="text-anchor: middle; dominant-baseline: middle; font-size: 12px;" y="197.58265686035156" x="1016.770263671875" id="rel3" class="er relationshipLabel">sourcedFrom</text><rect height="14" width="162.546875" y="189.9533233642578" x="1006.222412109375" class="er relationshipLabelBox"/><text style="text-anchor: middle; dominant-baseline: middle; font-size: 12px;" y="196.9533233642578" x="1087.495849609375" id="rel4" class="er relationshipLabel">associatedPathophysiology</text><rect height="14" width="80.4375" y="190.6510009765625" x="1094.4234619140625" class="er relationshipLabelBox"/><text style="text-anchor: middle; dominant-baseline: middle; font-size: 12px;" y="197.6510009765625" x="1134.6422119140625" id="rel5" class="er relationshipLabel">bodyLocation</text><rect height="14" width="75.46875" y="189.3318328857422" x="758.3073120117188" class="er relationshipLabelBox"/><text style="text-anchor: middle; dominant-baseline: middle; font-size: 12px;" y="196.3318328857422" x="796.0416870117188" id="rel6" class="er relationshipLabel">connectedTo</text><rect height="14" width="49.90625" y="204.37486267089844" x="1294.3670654296875" class="er relationshipLabelBox"/><text style="text-anchor: middle; dominant-baseline: middle; font-size: 12px;" y="211.37486267089844" x="1319.3201904296875" id="rel7" class="er relationshipLabel">diagram</text><rect height="14" width="83.03125" y="235.03981018066406" x="1390.7884521484375" class="er relationshipLabelBox"/><text style="text-anchor: middle; dominant-baseline: middle; font-size: 12px;" y="242.03981018066406" x="1432.3040771484375" id="rel8" class="er relationshipLabel">partOfSystem</text><rect height="14" width="99.71875" y="252.83819580078125" x="1589.47802734375" class="er relationshipLabelBox"/><text style="text-anchor: middle; dominant-baseline: middle; font-size: 12px;" y="259.83819580078125" x="1639.33740234375" id="rel9" class="er relationshipLabel">relatedCondition</text><rect height="14" width="91.78125" y="210.14016723632812" x="1729.721435546875" class="er relationshipLabelBox"/><text style="text-anchor: middle; dominant-baseline: middle; font-size: 12px;" y="217.14016723632812" x="1775.612060546875" id="rel10" class="er relationshipLabel">relatedTherapy</text><rect height="14" width="77.296875" y="192.6761474609375" x="781.482421875" class="er relationshipLabelBox"/><text style="text-anchor: middle; dominant-baseline: middle; font-size: 12px;" y="199.6761474609375" x="820.130859375" id="rel11" class="er relationshipLabel">subStructure</text><rect height="14" width="28.953125" y="198.31097412109375" x="1867.2706298828125" class="er relationshipLabelBox"/><text style="text-anchor: middle; dominant-baseline: middle; font-size: 12px;" y="205.31097412109375" x="1881.7471923828125" id="rel12" class="er relationshipLabel">code</text><rect height="14" width="45.609375" y="193.7004852294922" x="1959.127197265625" class="er relationshipLabelBox"/><text style="text-anchor: middle; dominant-baseline: middle; font-size: 12px;" y="200.7004852294922" x="1981.931884765625" id="rel13" class="er relationshipLabel">funding</text><rect height="14" width="55.21875" y="191.0610809326172" x="2061.39453125" class="er relationshipLabelBox"/><text style="text-anchor: middle; dominant-baseline: middle; font-size: 12px;" y="198.0610809326172" x="2089.00390625" id="rel14" class="er relationshipLabel">guideline</text><rect height="14" width="99.703125" y="189.36619567871094" x="2153.57470703125" class="er relationshipLabelBox"/><text style="text-anchor: middle; dominant-baseline: middle; font-size: 12px;" y="196.36619567871094" x="2203.42626953125" id="rel15" class="er relationshipLabel">medicineSystem</text><rect height="14" width="124.953125" y="188.305908203125" x="2249.088623046875" class="er relationshipLabelBox"/><text style="text-anchor: middle; dominant-baseline: middle; font-size: 12px;" y="195.305908203125" x="2311.565185546875" id="rel16" class="er relationshipLabel">recognizingAuthority</text><rect height="14" width="104.578125" y="187.54150390625" x="2368.2109375" class="er relationshipLabelBox"/><text style="text-anchor: middle; dominant-baseline: middle; font-size: 12px;" y="194.54150390625" x="2420.5" id="rel17" class="er relationshipLabel">relevantSpecialty</text><rect height="14" width="33.28125" y="186.96401977539062" x="2513.8623046875" class="er relationshipLabelBox"/><text style="text-anchor: middle; dominant-baseline: middle; font-size: 12px;" y="193.96401977539062" x="2530.5029296875" id="rel18" class="er relationshipLabel">study</text><rect height="14" width="89.953125" y="194.4182891845703" x="1126.8094482421875" class="er relationshipLabelBox"/><text style="text-anchor: middle; dominant-baseline: middle; font-size: 12px;" y="201.4182891845703" x="1171.7860107421875" id="rel19" class="er relationshipLabel">alternateName</text><rect height="14" width="161.390625" y="201.7390899658203" x="1119.3399658203125" class="er relationshipLabelBox"/><text style="text-anchor: middle; dominant-baseline: middle; font-size: 12px;" y="208.7390899658203" x="1200.0352783203125" id="rel20" class="er relationshipLabel">disambiguatingDescription</text><rect height="14" width="34.03125" y="218.71588134765625" x="1189.779296875" class="er relationshipLabelBox"/><text style="text-anchor: middle; dominant-baseline: middle; font-size: 12px;" y="225.71588134765625" x="1206.794921875" id="rel21" class="er relationshipLabel">name</text><rect height="14" width="47.140625" y="187.53419494628906" x="2595.09130859375" class="er relationshipLabelBox"/><text style="text-anchor: middle; dominant-baseline: middle; font-size: 12px;" y="194.53419494628906" x="2618.66162109375" id="rel22" class="er relationshipLabel">sameAs</text><rect height="14" width="90.96875" y="186.21485900878906" x="2687.0986328125" class="er relationshipLabelBox"/><text style="text-anchor: middle; dominant-baseline: middle; font-size: 12px;" y="193.21485900878906" x="2732.5830078125" id="rel23" class="er relationshipLabel">potentialAction</text><rect height="14" width="15.875" y="185.8001251220703" x="2640.43408203125" class="er relationshipLabelBox"/><text style="text-anchor: middle; dominant-baseline: middle; font-size: 12px;" y="192.8001251220703" x="2648.37158203125" id="rel24" class="er relationshipLabel">url</text></svg>