<svg aria-roledescription="er" role="graphics-document document" viewBox="0 0 1236.359375 722" style="max-width: 1236.36px; background-color: white;" xmlns:xlink="http://www.w3.org/1999/xlink" xmlns="http://www.w3.org/2000/svg" width="100%" id="my-svg"><style>#my-svg{font-family:"trebuchet ms",verdana,arial,sans-serif;font-size:16px;fill:#333;}#my-svg .error-icon{fill:#552222;}#my-svg .error-text{fill:#552222;stroke:#552222;}#my-svg .edge-thickness-normal{stroke-width:1px;}#my-svg .edge-thickness-thick{stroke-width:3.5px;}#my-svg .edge-pattern-solid{stroke-dasharray:0;}#my-svg .edge-thickness-invisible{stroke-width:0;fill:none;}#my-svg .edge-pattern-dashed{stroke-dasharray:3;}#my-svg .edge-pattern-dotted{stroke-dasharray:2;}#my-svg .marker{fill:#333333;stroke:#333333;}#my-svg .marker.cross{stroke:#333333;}#my-svg svg{font-family:"trebuchet ms",verdana,arial,sans-serif;font-size:16px;}#my-svg p{margin:0;}#my-svg .entityBox{fill:#ECECFF;stroke:#9370DB;}#my-svg .attributeBoxOdd{fill:#ffffff;stroke:#9370DB;}#my-svg .attributeBoxEven{fill:#f2f2f2;stroke:#9370DB;}#my-svg .relationshipLabelBox{fill:hsl(80, 100%, 96.2745098039%);opacity:0.7;background-color:hsl(80, 100%, 96.2745098039%);}#my-svg .relationshipLabelBox rect{opacity:0.5;}#my-svg .relationshipLine{stroke:#333333;}#my-svg .entityTitleText{text-anchor:middle;font-size:18px;fill:#333;}#my-svg #MD_PARENT_START{fill:#f5f5f5!important;stroke:#333333!important;stroke-width:1;}#my-svg #MD_PARENT_END{fill:#f5f5f5!important;stroke:#333333!important;stroke-width:1;}#my-svg :root{--mermaid-font-family:"trebuchet ms",verdana,arial,sans-serif;}</style><g/><defs><marker orient="auto" markerHeight="240" markerWidth="190" refY="7" refX="0" id="MD_PARENT_START"><path d="M 18,7 L9,13 L1,7 L9,1 Z"/></marker></defs><defs><marker orient="auto" markerHeight="28" markerWidth="20" refY="7" refX="19" id="MD_PARENT_END"><path d="M 18,7 L9,13 L1,7 L9,1 Z"/></marker></defs><defs><marker orient="auto" markerHeight="18" markerWidth="18" refY="9" refX="0" id="ONLY_ONE_START"><path d="M9,0 L9,18 M15,0 L15,18" fill="none" stroke="gray"/></marker></defs><defs><marker orient="auto" markerHeight="18" markerWidth="18" refY="9" refX="18" id="ONLY_ONE_END"><path d="M3,0 L3,18 M9,0 L9,18" fill="none" stroke="gray"/></marker></defs><defs><marker orient="auto" markerHeight="18" markerWidth="30" refY="9" refX="0" id="ZERO_OR_ONE_START"><circle r="6" cy="9" cx="21" fill="white" stroke="gray"/><path d="M9,0 L9,18" fill="none" stroke="gray"/></marker></defs><defs><marker orient="auto" markerHeight="18" markerWidth="30" refY="9" refX="30" id="ZERO_OR_ONE_END"><circle r="6" cy="9" cx="9" fill="white" stroke="gray"/><path d="M21,0 L21,18" fill="none" stroke="gray"/></marker></defs><defs><marker orient="auto" markerHeight="36" markerWidth="45" refY="18" refX="18" id="ONE_OR_MORE_START"><path d="M0,18 Q 18,0 36,18 Q 18,36 0,18 M42,9 L42,27" fill="none" stroke="gray"/></marker></defs><defs><marker orient="auto" markerHeight="36" markerWidth="45" refY="18" refX="27" id="ONE_OR_MORE_END"><path d="M3,9 L3,27 M9,18 Q27,0 45,18 Q27,36 9,18" fill="none" stroke="gray"/></marker></defs><defs><marker orient="auto" markerHeight="36" markerWidth="57" refY="18" refX="18" id="ZERO_OR_MORE_START"><circle r="6" cy="18" cx="48" fill="white" stroke="gray"/><path d="M0,18 Q18,0 36,18 Q18,36 0,18" fill="none" stroke="gray"/></marker></defs><defs><marker orient="auto" markerHeight="36" markerWidth="57" refY="18" refX="39" id="ZERO_OR_MORE_END"><circle r="6" cy="18" cx="9" fill="white" stroke="gray"/><path d="M21,18 Q39,0 57,18 Q39,36 21,18" fill="none" stroke="gray"/></marker></defs><path style="stroke: gray; fill: none;" marker-start="url(#ONLY_ONE_START)" marker-end="url(#ZERO_OR_MORE_END)" d="M525.742,335.447L452.918,375.706C380.094,415.964,234.445,496.482,161.621,545.074C88.797,593.667,88.797,610.333,88.797,618.667L88.797,627" class="er relationshipLine"/><path style="stroke: gray; fill: none;" marker-start="url(#ONLY_ONE_START)" marker-end="url(#ZERO_OR_MORE_END)" d="M525.742,376.493L489.384,409.911C453.026,443.329,380.31,510.164,343.952,551.916C307.594,593.667,307.594,610.333,307.594,618.667L307.594,627" class="er relationshipLine"/><path style="stroke: gray; fill: none;" marker-start="url(#ONLY_ONE_START)" marker-end="url(#ZERO_OR_MORE_END)" d="M544.868,527L541.813,535.333C538.758,543.667,532.649,560.333,529.594,577C526.539,593.667,526.539,610.333,526.539,618.667L526.539,627" class="er relationshipLine"/><path style="stroke: gray; fill: none;" marker-start="url(#ONLY_ONE_START)" marker-end="url(#ZERO_OR_MORE_END)" d="M730.726,527L733.78,535.333C736.835,543.667,742.945,560.333,746,577C749.055,593.667,749.055,610.333,749.055,618.667L749.055,627" class="er relationshipLine"/><path style="stroke: gray; fill: none;" marker-start="url(#ONLY_ONE_START)" marker-end="url(#ZERO_OR_MORE_END)" d="M749.852,379.217L784.792,412.181C819.732,445.145,889.612,511.072,924.552,552.37C959.492,593.667,959.492,610.333,959.492,618.667L959.492,627" class="er relationshipLine"/><path style="stroke: gray; fill: none;" marker-start="url(#ONLY_ONE_START)" marker-end="url(#ZERO_OR_MORE_END)" d="M749.852,337.842L819.27,377.702C888.688,417.561,1027.524,497.281,1096.941,545.474C1166.359,593.667,1166.359,610.333,1166.359,618.667L1166.359,627" class="er relationshipLine"/><g transform="translate(525.741828918457,20 )" id="entity-Observation-e952f20c-7a72-5c21-9adf-e7a51e8e6e38"><rect height="507" width="224.11009216308594" y="0" x="0" class="er entityBox"/><text style="dominant-baseline: middle; text-anchor: middle; font-size: 12px;" transform="translate(112.05504608154297,12)" y="0" x="0" id="text-entity-Observation-e952f20c-7a72-5c21-9adf-e7a51e8e6e38" class="er entityLabel">Observation</text><rect height="21" width="77.09446716308594" y="24" x="0" class="er attributeBoxOdd"/><text style="dominant-baseline: middle; font-size: 10.2px;" transform="translate(5,34.5)" y="0" x="0" id="text-entity-Observation-e952f20c-7a72-5c21-9adf-e7a51e8e6e38-attr-1-type" class="er entityLabel">stringList</text><rect height="21" width="147.015625" y="24" x="77.09446716308594" class="er attributeBoxOdd"/><text style="dominant-baseline: middle; font-size: 10.2px;" transform="translate(82.09446716308594,34.5)" y="0" x="0" id="text-entity-Observation-e952f20c-7a72-5c21-9adf-e7a51e8e6e38-attr-1-name" class="er entityLabel">measurementMethod</text><rect height="21" width="77.09446716308594" y="45" x="0" class="er attributeBoxEven"/><text style="dominant-baseline: middle; font-size: 10.2px;" transform="translate(5,55.5)" y="0" x="0" id="text-entity-Observation-e952f20c-7a72-5c21-9adf-e7a51e8e6e38-attr-2-type" class="er entityLabel">stringList</text><rect height="21" width="147.015625" y="45" x="77.09446716308594" class="er attributeBoxEven"/><text style="dominant-baseline: middle; font-size: 10.2px;" transform="translate(82.09446716308594,55.5)" y="0" x="0" id="text-entity-Observation-e952f20c-7a72-5c21-9adf-e7a51e8e6e38-attr-2-name" class="er entityLabel">measurementTechnique</text><rect height="21" width="77.09446716308594" y="66" x="0" class="er attributeBoxOdd"/><text style="dominant-baseline: middle; font-size: 10.2px;" transform="translate(5,76.5)" y="0" x="0" id="text-entity-Observation-e952f20c-7a72-5c21-9adf-e7a51e8e6e38-attr-3-type" class="er entityLabel">stringList</text><rect height="21" width="147.015625" y="66" x="77.09446716308594" class="er attributeBoxOdd"/><text style="dominant-baseline: middle; font-size: 10.2px;" transform="translate(82.09446716308594,76.5)" y="0" x="0" id="text-entity-Observation-e952f20c-7a72-5c21-9adf-e7a51e8e6e38-attr-3-name" class="er entityLabel">observationAbout</text><rect height="21" width="77.09446716308594" y="87" x="0" class="er attributeBoxEven"/><text style="dominant-baseline: middle; font-size: 10.2px;" transform="translate(5,97.5)" y="0" x="0" id="text-entity-Observation-e952f20c-7a72-5c21-9adf-e7a51e8e6e38-attr-4-type" class="er entityLabel">DateTimeList</text><rect height="21" width="147.015625" y="87" x="77.09446716308594" class="er attributeBoxEven"/><text style="dominant-baseline: middle; font-size: 10.2px;" transform="translate(82.09446716308594,97.5)" y="0" x="0" id="text-entity-Observation-e952f20c-7a72-5c21-9adf-e7a51e8e6e38-attr-4-name" class="er entityLabel">observationDate</text><rect height="21" width="77.09446716308594" y="108" x="0" class="er attributeBoxOdd"/><text style="dominant-baseline: middle; font-size: 10.2px;" transform="translate(5,118.5)" y="0" x="0" id="text-entity-Observation-e952f20c-7a72-5c21-9adf-e7a51e8e6e38-attr-5-type" class="er entityLabel">TextList</text><rect height="21" width="147.015625" y="108" x="77.09446716308594" class="er attributeBoxOdd"/><text style="dominant-baseline: middle; font-size: 10.2px;" transform="translate(82.09446716308594,118.5)" y="0" x="0" id="text-entity-Observation-e952f20c-7a72-5c21-9adf-e7a51e8e6e38-attr-5-name" class="er entityLabel">observationPeriod</text><rect height="21" width="77.09446716308594" y="129" x="0" class="er attributeBoxEven"/><text style="dominant-baseline: middle; font-size: 10.2px;" transform="translate(5,139.5)" y="0" x="0" id="text-entity-Observation-e952f20c-7a72-5c21-9adf-e7a51e8e6e38-attr-6-type" class="er entityLabel">stringList</text><rect height="21" width="147.015625" y="129" x="77.09446716308594" class="er attributeBoxEven"/><text style="dominant-baseline: middle; font-size: 10.2px;" transform="translate(82.09446716308594,139.5)" y="0" x="0" id="text-entity-Observation-e952f20c-7a72-5c21-9adf-e7a51e8e6e38-attr-6-name" class="er entityLabel">variableMeasured</text><rect height="21" width="77.09446716308594" y="150" x="0" class="er attributeBoxOdd"/><text style="dominant-baseline: middle; font-size: 10.2px;" transform="translate(5,160.5)" y="0" x="0" id="text-entity-Observation-e952f20c-7a72-5c21-9adf-e7a51e8e6e38-attr-7-type" class="er entityLabel">NumberList</text><rect height="21" width="147.015625" y="150" x="77.09446716308594" class="er attributeBoxOdd"/><text style="dominant-baseline: middle; font-size: 10.2px;" transform="translate(82.09446716308594,160.5)" y="0" x="0" id="text-entity-Observation-e952f20c-7a72-5c21-9adf-e7a51e8e6e38-attr-7-name" class="er entityLabel">maxValue</text><rect height="21" width="77.09446716308594" y="171" x="0" class="er attributeBoxEven"/><text style="dominant-baseline: middle; font-size: 10.2px;" transform="translate(5,181.5)" y="0" x="0" id="text-entity-Observation-e952f20c-7a72-5c21-9adf-e7a51e8e6e38-attr-8-type" class="er entityLabel">NumberList</text><rect height="21" width="147.015625" y="171" x="77.09446716308594" class="er attributeBoxEven"/><text style="dominant-baseline: middle; font-size: 10.2px;" transform="translate(82.09446716308594,181.5)" y="0" x="0" id="text-entity-Observation-e952f20c-7a72-5c21-9adf-e7a51e8e6e38-attr-8-name" class="er entityLabel">minValue</text><rect height="21" width="77.09446716308594" y="192" x="0" class="er attributeBoxOdd"/><text style="dominant-baseline: middle; font-size: 10.2px;" transform="translate(5,202.5)" y="0" x="0" id="text-entity-Observation-e952f20c-7a72-5c21-9adf-e7a51e8e6e38-attr-9-type" class="er entityLabel">stringList</text><rect height="21" width="147.015625" y="192" x="77.09446716308594" class="er attributeBoxOdd"/><text style="dominant-baseline: middle; font-size: 10.2px;" transform="translate(82.09446716308594,202.5)" y="0" x="0" id="text-entity-Observation-e952f20c-7a72-5c21-9adf-e7a51e8e6e38-attr-9-name" class="er entityLabel">unitCode</text><rect height="21" width="77.09446716308594" y="213" x="0" class="er attributeBoxEven"/><text style="dominant-baseline: middle; font-size: 10.2px;" transform="translate(5,223.5)" y="0" x="0" id="text-entity-Observation-e952f20c-7a72-5c21-9adf-e7a51e8e6e38-attr-10-type" class="er entityLabel">TextList</text><rect height="21" width="147.015625" y="213" x="77.09446716308594" class="er attributeBoxEven"/><text style="dominant-baseline: middle; font-size: 10.2px;" transform="translate(82.09446716308594,223.5)" y="0" x="0" id="text-entity-Observation-e952f20c-7a72-5c21-9adf-e7a51e8e6e38-attr-10-name" class="er entityLabel">unitText</text><rect height="21" width="77.09446716308594" y="234" x="0" class="er attributeBoxOdd"/><text style="dominant-baseline: middle; font-size: 10.2px;" transform="translate(5,244.5)" y="0" x="0" id="text-entity-Observation-e952f20c-7a72-5c21-9adf-e7a51e8e6e38-attr-11-type" class="er entityLabel">stringList</text><rect height="21" width="147.015625" y="234" x="77.09446716308594" class="er attributeBoxOdd"/><text style="dominant-baseline: middle; font-size: 10.2px;" transform="translate(82.09446716308594,244.5)" y="0" x="0" id="text-entity-Observation-e952f20c-7a72-5c21-9adf-e7a51e8e6e38-attr-11-name" class="er entityLabel">value</text><rect height="21" width="77.09446716308594" y="255" x="0" class="er attributeBoxEven"/><text style="dominant-baseline: middle; font-size: 10.2px;" transform="translate(5,265.5)" y="0" x="0" id="text-entity-Observation-e952f20c-7a72-5c21-9adf-e7a51e8e6e38-attr-12-type" class="er entityLabel">stringList</text><rect height="21" width="147.015625" y="255" x="77.09446716308594" class="er attributeBoxEven"/><text style="dominant-baseline: middle; font-size: 10.2px;" transform="translate(82.09446716308594,265.5)" y="0" x="0" id="text-entity-Observation-e952f20c-7a72-5c21-9adf-e7a51e8e6e38-attr-12-name" class="er entityLabel">valueReference</text><rect height="21" width="77.09446716308594" y="276" x="0" class="er attributeBoxOdd"/><text style="dominant-baseline: middle; font-size: 10.2px;" transform="translate(5,286.5)" y="0" x="0" id="text-entity-Observation-e952f20c-7a72-5c21-9adf-e7a51e8e6e38-attr-13-type" class="er entityLabel">stringList</text><rect height="21" width="147.015625" y="276" x="77.09446716308594" class="er attributeBoxOdd"/><text style="dominant-baseline: middle; font-size: 10.2px;" transform="translate(82.09446716308594,286.5)" y="0" x="0" id="text-entity-Observation-e952f20c-7a72-5c21-9adf-e7a51e8e6e38-attr-13-name" class="er entityLabel">additionalType</text><rect height="21" width="77.09446716308594" y="297" x="0" class="er attributeBoxEven"/><text style="dominant-baseline: middle; font-size: 10.2px;" transform="translate(5,307.5)" y="0" x="0" id="text-entity-Observation-e952f20c-7a72-5c21-9adf-e7a51e8e6e38-attr-14-type" class="er entityLabel">TextList</text><rect height="21" width="147.015625" y="297" x="77.09446716308594" class="er attributeBoxEven"/><text style="dominant-baseline: middle; font-size: 10.2px;" transform="translate(82.09446716308594,307.5)" y="0" x="0" id="text-entity-Observation-e952f20c-7a72-5c21-9adf-e7a51e8e6e38-attr-14-name" class="er entityLabel">alternateName</text><rect height="21" width="77.09446716308594" y="318" x="0" class="er attributeBoxOdd"/><text style="dominant-baseline: middle; font-size: 10.2px;" transform="translate(5,328.5)" y="0" x="0" id="text-entity-Observation-e952f20c-7a72-5c21-9adf-e7a51e8e6e38-attr-15-type" class="er entityLabel">stringList</text><rect height="21" width="147.015625" y="318" x="77.09446716308594" class="er attributeBoxOdd"/><text style="dominant-baseline: middle; font-size: 10.2px;" transform="translate(82.09446716308594,328.5)" y="0" x="0" id="text-entity-Observation-e952f20c-7a72-5c21-9adf-e7a51e8e6e38-attr-15-name" class="er entityLabel">description</text><rect height="21" width="77.09446716308594" y="339" x="0" class="er attributeBoxEven"/><text style="dominant-baseline: middle; font-size: 10.2px;" transform="translate(5,349.5)" y="0" x="0" id="text-entity-Observation-e952f20c-7a72-5c21-9adf-e7a51e8e6e38-attr-16-type" class="er entityLabel">TextList</text><rect height="21" width="147.015625" y="339" x="77.09446716308594" class="er attributeBoxEven"/><text style="dominant-baseline: middle; font-size: 10.2px;" transform="translate(82.09446716308594,349.5)" y="0" x="0" id="text-entity-Observation-e952f20c-7a72-5c21-9adf-e7a51e8e6e38-attr-16-name" class="er entityLabel">disambiguatingDescription</text><rect height="21" width="77.09446716308594" y="360" x="0" class="er attributeBoxOdd"/><text style="dominant-baseline: middle; font-size: 10.2px;" transform="translate(5,370.5)" y="0" x="0" id="text-entity-Observation-e952f20c-7a72-5c21-9adf-e7a51e8e6e38-attr-17-type" class="er entityLabel">stringList</text><rect height="21" width="147.015625" y="360" x="77.09446716308594" class="er attributeBoxOdd"/><text style="dominant-baseline: middle; font-size: 10.2px;" transform="translate(82.09446716308594,370.5)" y="0" x="0" id="text-entity-Observation-e952f20c-7a72-5c21-9adf-e7a51e8e6e38-attr-17-name" class="er entityLabel">identifier</text><rect height="21" width="77.09446716308594" y="381" x="0" class="er attributeBoxEven"/><text style="dominant-baseline: middle; font-size: 10.2px;" transform="translate(5,391.5)" y="0" x="0" id="text-entity-Observation-e952f20c-7a72-5c21-9adf-e7a51e8e6e38-attr-18-type" class="er entityLabel">stringList</text><rect height="21" width="147.015625" y="381" x="77.09446716308594" class="er attributeBoxEven"/><text style="dominant-baseline: middle; font-size: 10.2px;" transform="translate(82.09446716308594,391.5)" y="0" x="0" id="text-entity-Observation-e952f20c-7a72-5c21-9adf-e7a51e8e6e38-attr-18-name" class="er entityLabel">image</text><rect height="21" width="77.09446716308594" y="402" x="0" class="er attributeBoxOdd"/><text style="dominant-baseline: middle; font-size: 10.2px;" transform="translate(5,412.5)" y="0" x="0" id="text-entity-Observation-e952f20c-7a72-5c21-9adf-e7a51e8e6e38-attr-19-type" class="er entityLabel">TextList</text><rect height="21" width="147.015625" y="402" x="77.09446716308594" class="er attributeBoxOdd"/><text style="dominant-baseline: middle; font-size: 10.2px;" transform="translate(82.09446716308594,412.5)" y="0" x="0" id="text-entity-Observation-e952f20c-7a72-5c21-9adf-e7a51e8e6e38-attr-19-name" class="er entityLabel">name</text><rect height="21" width="77.09446716308594" y="423" x="0" class="er attributeBoxEven"/><text style="dominant-baseline: middle; font-size: 10.2px;" transform="translate(5,433.5)" y="0" x="0" id="text-entity-Observation-e952f20c-7a72-5c21-9adf-e7a51e8e6e38-attr-20-type" class="er entityLabel">URLList</text><rect height="21" width="147.015625" y="423" x="77.09446716308594" class="er attributeBoxEven"/><text style="dominant-baseline: middle; font-size: 10.2px;" transform="translate(82.09446716308594,433.5)" y="0" x="0" id="text-entity-Observation-e952f20c-7a72-5c21-9adf-e7a51e8e6e38-attr-20-name" class="er entityLabel">sameAs</text><rect height="21" width="77.09446716308594" y="444" x="0" class="er attributeBoxOdd"/><text style="dominant-baseline: middle; font-size: 10.2px;" transform="translate(5,454.5)" y="0" x="0" id="text-entity-Observation-e952f20c-7a72-5c21-9adf-e7a51e8e6e38-attr-21-type" class="er entityLabel">stringList</text><rect height="21" width="147.015625" y="444" x="77.09446716308594" class="er attributeBoxOdd"/><text style="dominant-baseline: middle; font-size: 10.2px;" transform="translate(82.09446716308594,454.5)" y="0" x="0" id="text-entity-Observation-e952f20c-7a72-5c21-9adf-e7a51e8e6e38-attr-21-name" class="er entityLabel">mainEntityOfPage</text><rect height="21" width="77.09446716308594" y="465" x="0" class="er attributeBoxEven"/><text style="dominant-baseline: middle; font-size: 10.2px;" transform="translate(5,475.5)" y="0" x="0" id="text-entity-Observation-e952f20c-7a72-5c21-9adf-e7a51e8e6e38-attr-22-type" class="er entityLabel">stringList</text><rect height="21" width="147.015625" y="465" x="77.09446716308594" class="er attributeBoxEven"/><text style="dominant-baseline: middle; font-size: 10.2px;" transform="translate(82.09446716308594,475.5)" y="0" x="0" id="text-entity-Observation-e952f20c-7a72-5c21-9adf-e7a51e8e6e38-attr-22-name" class="er entityLabel">subjectOf</text><rect height="21" width="77.09446716308594" y="486" x="0" class="er attributeBoxOdd"/><text style="dominant-baseline: middle; font-size: 10.2px;" transform="translate(5,496.5)" y="0" x="0" id="text-entity-Observation-e952f20c-7a72-5c21-9adf-e7a51e8e6e38-attr-23-type" class="er entityLabel">URLList</text><rect height="21" width="147.015625" y="486" x="77.09446716308594" class="er attributeBoxOdd"/><text style="dominant-baseline: middle; font-size: 10.2px;" transform="translate(82.09446716308594,496.5)" y="0" x="0" id="text-entity-Observation-e952f20c-7a72-5c21-9adf-e7a51e8e6e38-attr-23-name" class="er entityLabel">url</text></g><g transform="translate(20,627 )" id="entity-QuantitativeValue-3d19db81-2acf-5dcd-99e0-52d6a275eca4"><rect height="75" width="137.59375" y="0" x="0" class="er entityBox"/><text style="dominant-baseline: middle; text-anchor: middle; font-size: 12px;" transform="translate(68.796875,37.5)" y="0" x="0" id="text-entity-QuantitativeValue-3d19db81-2acf-5dcd-99e0-52d6a275eca4" class="er entityLabel">QuantitativeValue</text></g><g transform="translate(257.59375,627 )" id="entity-Property-bffc1bdb-1548-5319-88e4-c0d0344b3229"><rect height="75" width="100" y="0" x="0" class="er entityBox"/><text style="dominant-baseline: middle; text-anchor: middle; font-size: 12px;" transform="translate(50,37.5)" y="0" x="0" id="text-entity-Property-bffc1bdb-1548-5319-88e4-c0d0344b3229" class="er entityLabel">Property</text></g><g transform="translate(457.59375,627 )" id="entity-StatisticalVariable-e190569f-609c-5950-b73b-88c42a037062"><rect height="75" width="137.890625" y="0" x="0" class="er entityBox"/><text style="dominant-baseline: middle; text-anchor: middle; font-size: 12px;" transform="translate(68.9453125,37.5)" y="0" x="0" id="text-entity-StatisticalVariable-e190569f-609c-5950-b73b-88c42a037062" class="er entityLabel">StatisticalVariable</text></g><g transform="translate(695.484375,627 )" id="entity-Enumeration-f9f59bb4-2616-549b-89c9-bf7c68943800"><rect height="75" width="107.140625" y="0" x="0" class="er entityBox"/><text style="dominant-baseline: middle; text-anchor: middle; font-size: 12px;" transform="translate(53.5703125,37.5)" y="0" x="0" id="text-entity-Enumeration-f9f59bb4-2616-549b-89c9-bf7c68943800" class="er entityLabel">Enumeration</text></g><g transform="translate(902.625,627 )" id="entity-PropertyValue-0e208f6c-77f8-5d2e-b4a4-9a09101a021a"><rect height="75" width="113.734375" y="0" x="0" class="er entityBox"/><text style="dominant-baseline: middle; text-anchor: middle; font-size: 12px;" transform="translate(56.8671875,37.5)" y="0" x="0" id="text-entity-PropertyValue-0e208f6c-77f8-5d2e-b4a4-9a09101a021a" class="er entityLabel">PropertyValue</text></g><g transform="translate(1116.359375,627 )" id="entity-Action-6cd87d9a-a078-546e-a35b-bee54f477b31"><rect height="75" width="100" y="0" x="0" class="er entityBox"/><text style="dominant-baseline: middle; text-anchor: middle; font-size: 12px;" transform="translate(50,37.5)" y="0" x="0" id="text-entity-Action-6cd87d9a-a078-546e-a35b-bee54f477b31" class="er entityLabel">Action</text></g><rect height="14" width="85.30859375" y="458.9242858886719" x="249.52188110351562" class="er relationshipLabelBox"/><text style="text-anchor: middle; dominant-baseline: middle; font-size: 12px;" y="465.9242858886719" x="292.1761779785156" id="rel1" class="er relationshipLabel">marginOfError</text><rect height="14" width="110.734375" y="484.99029541015625" x="346.58154296875" class="er relationshipLabelBox"/><text style="text-anchor: middle; dominant-baseline: middle; font-size: 12px;" y="491.99029541015625" x="401.94873046875" id="rel2" class="er relationshipLabel">measuredProperty</text><rect height="14" width="162.318359375" y="568.92919921875" x="448.6357421875" class="er relationshipLabelBox"/><text style="text-anchor: middle; dominant-baseline: middle; font-size: 12px;" y="575.92919921875" x="529.794921875" id="rel3" class="er relationshipLabel">measurementDenominator</text><rect height="14" width="134.732421875" y="568.92919921875" x="678.432861328125" class="er relationshipLabelBox"/><text style="text-anchor: middle; dominant-baseline: middle; font-size: 12px;" y="575.92919921875" x="745.799072265625" id="rel4" class="er relationshipLabel">measurementQualifier</text><rect height="14" width="110.375" y="486.64471435546875" x="814.1066284179688" class="er relationshipLabelBox"/><text style="text-anchor: middle; dominant-baseline: middle; font-size: 12px;" y="493.64471435546875" x="869.2941284179688" id="rel5" class="er relationshipLabel">additionalProperty</text><rect height="14" width="90.96875" y="460.50250244140625" x="927.777099609375" class="er relationshipLabelBox"/><text style="text-anchor: middle; dominant-baseline: middle; font-size: 12px;" y="467.50250244140625" x="973.261474609375" id="rel6" class="er relationshipLabel">potentialAction</text></svg>