<svg aria-roledescription="er" role="graphics-document document" viewBox="0 0 2229.4921875 512" style="max-width: 2229.49px; background-color: white;" xmlns:xlink="http://www.w3.org/1999/xlink" xmlns="http://www.w3.org/2000/svg" width="100%" id="my-svg"><style>#my-svg{font-family:"trebuchet ms",verdana,arial,sans-serif;font-size:16px;fill:#333;}#my-svg .error-icon{fill:#552222;}#my-svg .error-text{fill:#552222;stroke:#552222;}#my-svg .edge-thickness-normal{stroke-width:1px;}#my-svg .edge-thickness-thick{stroke-width:3.5px;}#my-svg .edge-pattern-solid{stroke-dasharray:0;}#my-svg .edge-thickness-invisible{stroke-width:0;fill:none;}#my-svg .edge-pattern-dashed{stroke-dasharray:3;}#my-svg .edge-pattern-dotted{stroke-dasharray:2;}#my-svg .marker{fill:#333333;stroke:#333333;}#my-svg .marker.cross{stroke:#333333;}#my-svg svg{font-family:"trebuchet ms",verdana,arial,sans-serif;font-size:16px;}#my-svg p{margin:0;}#my-svg .entityBox{fill:#ECECFF;stroke:#9370DB;}#my-svg .attributeBoxOdd{fill:#ffffff;stroke:#9370DB;}#my-svg .attributeBoxEven{fill:#f2f2f2;stroke:#9370DB;}#my-svg .relationshipLabelBox{fill:hsl(80, 100%, 96.2745098039%);opacity:0.7;background-color:hsl(80, 100%, 96.2745098039%);}#my-svg .relationshipLabelBox rect{opacity:0.5;}#my-svg .relationshipLine{stroke:#333333;}#my-svg .entityTitleText{text-anchor:middle;font-size:18px;fill:#333;}#my-svg #MD_PARENT_START{fill:#f5f5f5!important;stroke:#333333!important;stroke-width:1;}#my-svg #MD_PARENT_END{fill:#f5f5f5!important;stroke:#333333!important;stroke-width:1;}#my-svg :root{--mermaid-font-family:"trebuchet ms",verdana,arial,sans-serif;}</style><g/><defs><marker orient="auto" markerHeight="240" markerWidth="190" refY="7" refX="0" id="MD_PARENT_START"><path d="M 18,7 L9,13 L1,7 L9,1 Z"/></marker></defs><defs><marker orient="auto" markerHeight="28" markerWidth="20" refY="7" refX="19" id="MD_PARENT_END"><path d="M 18,7 L9,13 L1,7 L9,1 Z"/></marker></defs><defs><marker orient="auto" markerHeight="18" markerWidth="18" refY="9" refX="0" id="ONLY_ONE_START"><path d="M9,0 L9,18 M15,0 L15,18" fill="none" stroke="gray"/></marker></defs><defs><marker orient="auto" markerHeight="18" markerWidth="18" refY="9" refX="18" id="ONLY_ONE_END"><path d="M3,0 L3,18 M9,0 L9,18" fill="none" stroke="gray"/></marker></defs><defs><marker orient="auto" markerHeight="18" markerWidth="30" refY="9" refX="0" id="ZERO_OR_ONE_START"><circle r="6" cy="9" cx="21" fill="white" stroke="gray"/><path d="M9,0 L9,18" fill="none" stroke="gray"/></marker></defs><defs><marker orient="auto" markerHeight="18" markerWidth="30" refY="9" refX="30" id="ZERO_OR_ONE_END"><circle r="6" cy="9" cx="9" fill="white" stroke="gray"/><path d="M21,0 L21,18" fill="none" stroke="gray"/></marker></defs><defs><marker orient="auto" markerHeight="36" markerWidth="45" refY="18" refX="18" id="ONE_OR_MORE_START"><path d="M0,18 Q 18,0 36,18 Q 18,36 0,18 M42,9 L42,27" fill="none" stroke="gray"/></marker></defs><defs><marker orient="auto" markerHeight="36" markerWidth="45" refY="18" refX="27" id="ONE_OR_MORE_END"><path d="M3,9 L3,27 M9,18 Q27,0 45,18 Q27,36 9,18" fill="none" stroke="gray"/></marker></defs><defs><marker orient="auto" markerHeight="36" markerWidth="57" refY="18" refX="18" id="ZERO_OR_MORE_START"><circle r="6" cy="18" cx="48" fill="white" stroke="gray"/><path d="M0,18 Q18,0 36,18 Q18,36 0,18" fill="none" stroke="gray"/></marker></defs><defs><marker orient="auto" markerHeight="36" markerWidth="57" refY="18" refX="39" id="ZERO_OR_MORE_END"><circle r="6" cy="18" cx="9" fill="white" stroke="gray"/><path d="M21,18 Q39,0 57,18 Q39,36 21,18" fill="none" stroke="gray"/></marker></defs><path style="stroke: gray; fill: none;" marker-start="url(#ONLY_ONE_START)" marker-end="url(#ZERO_OR_MORE_END)" d="M1204.473,184.034L1018.527,214.528C832.581,245.022,460.689,306.011,274.743,344.839C88.797,383.667,88.797,400.333,88.797,408.667L88.797,417" class="er relationshipLine"/><path style="stroke: gray; fill: none;" marker-start="url(#ONLY_ONE_START)" marker-end="url(#ZERO_OR_MORE_END)" d="M1204.473,187.461L1054.993,217.384C905.513,247.307,606.553,307.154,457.074,345.41C307.594,383.667,307.594,400.333,307.594,408.667L307.594,417" class="er relationshipLine"/><path style="stroke: gray; fill: none;" marker-start="url(#ONLY_ONE_START)" marker-end="url(#ZERO_OR_MORE_END)" d="M1204.473,192.834L1091.484,221.862C978.495,250.889,752.517,308.945,639.528,346.306C526.539,383.667,526.539,400.333,526.539,408.667L526.539,417" class="er relationshipLine"/><path style="stroke: gray; fill: none;" marker-start="url(#ONLY_ONE_START)" marker-end="url(#ZERO_OR_MORE_END)" d="M1204.473,202.676L1128.57,230.064C1052.667,257.451,900.861,312.225,824.958,347.946C749.055,383.667,749.055,400.333,749.055,408.667L749.055,417" class="er relationshipLine"/><path style="stroke: gray; fill: none;" marker-start="url(#ONLY_ONE_START)" marker-end="url(#ZERO_OR_MORE_END)" d="M1204.473,222.751L1162.498,246.793C1120.523,270.834,1036.574,318.917,994.6,351.292C952.625,383.667,952.625,400.333,952.625,408.667L952.625,417" class="er relationshipLine"/><path style="stroke: gray; fill: none;" marker-start="url(#ONLY_ONE_START)" marker-end="url(#ZERO_OR_MORE_END)" d="M1204.473,244.754L1179.165,265.128C1153.857,285.503,1103.241,326.251,1102.933,357.563C1102.625,388.875,1152.625,410.75,1177.625,421.688L1202.625,432.625" class="er relationshipLine"/><path style="stroke: gray; fill: none;" marker-start="url(#ONLY_ONE_START)" marker-end="url(#ZERO_OR_MORE_END)" d="M1393.91,242.688L1420.363,263.406C1446.815,284.125,1499.72,325.563,1526.173,354.615C1552.625,383.667,1552.625,400.333,1552.625,408.667L1552.625,417" class="er relationshipLine"/><path style="stroke: gray; fill: none;" marker-start="url(#ONLY_ONE_START)" marker-end="url(#ZERO_OR_MORE_END)" d="M1393.91,214.711L1445.935,240.092C1497.96,265.474,1602.009,316.237,1659.123,349.952C1716.236,383.667,1726.414,400.333,1731.503,408.667L1736.592,417" class="er relationshipLine"/><path style="stroke: gray; fill: none;" marker-start="url(#ONLY_ONE_START)" marker-end="url(#ZERO_OR_MORE_END)" d="M1393.91,205.344L1463.174,232.287C1532.438,259.23,1670.965,313.115,1735.467,348.391C1799.968,383.667,1790.445,400.333,1785.683,408.667L1780.921,417" class="er relationshipLine"/><path style="stroke: gray; fill: none;" marker-start="url(#ONLY_ONE_START)" marker-end="url(#ZERO_OR_MORE_END)" d="M1204.473,296.781L1195.831,308.484C1187.19,320.187,1169.908,343.594,1170.79,363.63C1171.673,383.667,1190.72,400.333,1200.244,408.667L1209.768,417" class="er relationshipLine"/><path style="stroke: gray; fill: none;" marker-start="url(#ONLY_ONE_START)" marker-end="url(#ZERO_OR_MORE_END)" d="M1264.355,317L1262.4,325.333C1260.445,333.667,1256.535,350.333,1254.58,367C1252.625,383.667,1252.625,400.333,1252.625,408.667L1252.625,417" class="er relationshipLine"/><path style="stroke: gray; fill: none;" marker-start="url(#ONLY_ONE_START)" marker-end="url(#ZERO_OR_MORE_END)" d="M1339.166,317L1341.409,325.333C1343.652,333.667,1348.139,350.333,1340.858,367C1333.577,383.667,1314.53,400.333,1305.006,408.667L1295.482,417" class="er relationshipLine"/><path style="stroke: gray; fill: none;" marker-start="url(#ONLY_ONE_START)" marker-end="url(#ZERO_OR_MORE_END)" d="M1393.91,291.039L1403.696,303.7C1413.482,316.36,1433.053,341.68,1417.839,365.277C1402.625,388.875,1352.625,410.75,1327.625,421.688L1302.625,432.625" class="er relationshipLine"/><path style="stroke: gray; fill: none;" marker-start="url(#ONLY_ONE_START)" marker-end="url(#ZERO_OR_MORE_END)" d="M1393.91,199.307L1479.84,227.256C1565.771,255.205,1737.632,311.102,1828.324,347.385C1919.016,383.667,1928.54,400.333,1933.302,408.667L1938.064,417" class="er relationshipLine"/><path style="stroke: gray; fill: none;" marker-start="url(#ONLY_ONE_START)" marker-end="url(#ZERO_OR_MORE_END)" d="M1393.91,190.355L1521.507,219.796C1649.104,249.237,1904.298,308.118,2031.895,345.892C2159.492,383.667,2159.492,400.333,2159.492,408.667L2159.492,417" class="er relationshipLine"/><path style="stroke: gray; fill: none;" marker-start="url(#ONLY_ONE_START)" marker-end="url(#ZERO_OR_MORE_END)" d="M1393.91,194.97L1496.507,223.642C1599.104,252.313,1804.298,309.657,1902.133,346.662C1999.968,383.667,1990.445,400.333,1985.683,408.667L1980.921,417" class="er relationshipLine"/><g transform="translate(1204.47265625,20 )" id="entity-Observation-e952f20c-7a72-5c21-9adf-e7a51e8e6e38"><rect height="297" width="189.4375" y="0" x="0" class="er entityBox"/><text style="dominant-baseline: middle; text-anchor: middle; font-size: 12px;" transform="translate(94.71875,12)" y="0" x="0" id="text-entity-Observation-e952f20c-7a72-5c21-9adf-e7a51e8e6e38" class="er entityLabel">Observation</text><rect height="21" width="57.0625" y="24" x="0" class="er attributeBoxOdd"/><text style="dominant-baseline: middle; font-size: 10.2px;" transform="translate(5,34.5)" y="0" x="0" id="text-entity-Observation-e952f20c-7a72-5c21-9adf-e7a51e8e6e38-attr-1-type" class="er entityLabel">stringList</text><rect height="21" width="132.375" y="24" x="57.0625" class="er attributeBoxOdd"/><text style="dominant-baseline: middle; font-size: 10.2px;" transform="translate(62.0625,34.5)" y="0" x="0" id="text-entity-Observation-e952f20c-7a72-5c21-9adf-e7a51e8e6e38-attr-1-name" class="er entityLabel">measurementMethod</text><rect height="21" width="57.0625" y="45" x="0" class="er attributeBoxEven"/><text style="dominant-baseline: middle; font-size: 10.2px;" transform="translate(5,55.5)" y="0" x="0" id="text-entity-Observation-e952f20c-7a72-5c21-9adf-e7a51e8e6e38-attr-2-type" class="er entityLabel">stringList</text><rect height="21" width="132.375" y="45" x="57.0625" class="er attributeBoxEven"/><text style="dominant-baseline: middle; font-size: 10.2px;" transform="translate(62.0625,55.5)" y="0" x="0" id="text-entity-Observation-e952f20c-7a72-5c21-9adf-e7a51e8e6e38-attr-2-name" class="er entityLabel">measurementTechnique</text><rect height="21" width="57.0625" y="66" x="0" class="er attributeBoxOdd"/><text style="dominant-baseline: middle; font-size: 10.2px;" transform="translate(5,76.5)" y="0" x="0" id="text-entity-Observation-e952f20c-7a72-5c21-9adf-e7a51e8e6e38-attr-3-type" class="er entityLabel">stringList</text><rect height="21" width="132.375" y="66" x="57.0625" class="er attributeBoxOdd"/><text style="dominant-baseline: middle; font-size: 10.2px;" transform="translate(62.0625,76.5)" y="0" x="0" id="text-entity-Observation-e952f20c-7a72-5c21-9adf-e7a51e8e6e38-attr-3-name" class="er entityLabel">observationAbout</text><rect height="21" width="57.0625" y="87" x="0" class="er attributeBoxEven"/><text style="dominant-baseline: middle; font-size: 10.2px;" transform="translate(5,97.5)" y="0" x="0" id="text-entity-Observation-e952f20c-7a72-5c21-9adf-e7a51e8e6e38-attr-4-type" class="er entityLabel">stringList</text><rect height="21" width="132.375" y="87" x="57.0625" class="er attributeBoxEven"/><text style="dominant-baseline: middle; font-size: 10.2px;" transform="translate(62.0625,97.5)" y="0" x="0" id="text-entity-Observation-e952f20c-7a72-5c21-9adf-e7a51e8e6e38-attr-4-name" class="er entityLabel">variableMeasured</text><rect height="21" width="57.0625" y="108" x="0" class="er attributeBoxOdd"/><text style="dominant-baseline: middle; font-size: 10.2px;" transform="translate(5,118.5)" y="0" x="0" id="text-entity-Observation-e952f20c-7a72-5c21-9adf-e7a51e8e6e38-attr-5-type" class="er entityLabel">stringList</text><rect height="21" width="132.375" y="108" x="57.0625" class="er attributeBoxOdd"/><text style="dominant-baseline: middle; font-size: 10.2px;" transform="translate(62.0625,118.5)" y="0" x="0" id="text-entity-Observation-e952f20c-7a72-5c21-9adf-e7a51e8e6e38-attr-5-name" class="er entityLabel">unitCode</text><rect height="21" width="57.0625" y="129" x="0" class="er attributeBoxEven"/><text style="dominant-baseline: middle; font-size: 10.2px;" transform="translate(5,139.5)" y="0" x="0" id="text-entity-Observation-e952f20c-7a72-5c21-9adf-e7a51e8e6e38-attr-6-type" class="er entityLabel">stringList</text><rect height="21" width="132.375" y="129" x="57.0625" class="er attributeBoxEven"/><text style="dominant-baseline: middle; font-size: 10.2px;" transform="translate(62.0625,139.5)" y="0" x="0" id="text-entity-Observation-e952f20c-7a72-5c21-9adf-e7a51e8e6e38-attr-6-name" class="er entityLabel">value</text><rect height="21" width="57.0625" y="150" x="0" class="er attributeBoxOdd"/><text style="dominant-baseline: middle; font-size: 10.2px;" transform="translate(5,160.5)" y="0" x="0" id="text-entity-Observation-e952f20c-7a72-5c21-9adf-e7a51e8e6e38-attr-7-type" class="er entityLabel">stringList</text><rect height="21" width="132.375" y="150" x="57.0625" class="er attributeBoxOdd"/><text style="dominant-baseline: middle; font-size: 10.2px;" transform="translate(62.0625,160.5)" y="0" x="0" id="text-entity-Observation-e952f20c-7a72-5c21-9adf-e7a51e8e6e38-attr-7-name" class="er entityLabel">valueReference</text><rect height="21" width="57.0625" y="171" x="0" class="er attributeBoxEven"/><text style="dominant-baseline: middle; font-size: 10.2px;" transform="translate(5,181.5)" y="0" x="0" id="text-entity-Observation-e952f20c-7a72-5c21-9adf-e7a51e8e6e38-attr-8-type" class="er entityLabel">stringList</text><rect height="21" width="132.375" y="171" x="57.0625" class="er attributeBoxEven"/><text style="dominant-baseline: middle; font-size: 10.2px;" transform="translate(62.0625,181.5)" y="0" x="0" id="text-entity-Observation-e952f20c-7a72-5c21-9adf-e7a51e8e6e38-attr-8-name" class="er entityLabel">additionalType</text><rect height="21" width="57.0625" y="192" x="0" class="er attributeBoxOdd"/><text style="dominant-baseline: middle; font-size: 10.2px;" transform="translate(5,202.5)" y="0" x="0" id="text-entity-Observation-e952f20c-7a72-5c21-9adf-e7a51e8e6e38-attr-9-type" class="er entityLabel">stringList</text><rect height="21" width="132.375" y="192" x="57.0625" class="er attributeBoxOdd"/><text style="dominant-baseline: middle; font-size: 10.2px;" transform="translate(62.0625,202.5)" y="0" x="0" id="text-entity-Observation-e952f20c-7a72-5c21-9adf-e7a51e8e6e38-attr-9-name" class="er entityLabel">description</text><rect height="21" width="57.0625" y="213" x="0" class="er attributeBoxEven"/><text style="dominant-baseline: middle; font-size: 10.2px;" transform="translate(5,223.5)" y="0" x="0" id="text-entity-Observation-e952f20c-7a72-5c21-9adf-e7a51e8e6e38-attr-10-type" class="er entityLabel">stringList</text><rect height="21" width="132.375" y="213" x="57.0625" class="er attributeBoxEven"/><text style="dominant-baseline: middle; font-size: 10.2px;" transform="translate(62.0625,223.5)" y="0" x="0" id="text-entity-Observation-e952f20c-7a72-5c21-9adf-e7a51e8e6e38-attr-10-name" class="er entityLabel">identifier</text><rect height="21" width="57.0625" y="234" x="0" class="er attributeBoxOdd"/><text style="dominant-baseline: middle; font-size: 10.2px;" transform="translate(5,244.5)" y="0" x="0" id="text-entity-Observation-e952f20c-7a72-5c21-9adf-e7a51e8e6e38-attr-11-type" class="er entityLabel">stringList</text><rect height="21" width="132.375" y="234" x="57.0625" class="er attributeBoxOdd"/><text style="dominant-baseline: middle; font-size: 10.2px;" transform="translate(62.0625,244.5)" y="0" x="0" id="text-entity-Observation-e952f20c-7a72-5c21-9adf-e7a51e8e6e38-attr-11-name" class="er entityLabel">image</text><rect height="21" width="57.0625" y="255" x="0" class="er attributeBoxEven"/><text style="dominant-baseline: middle; font-size: 10.2px;" transform="translate(5,265.5)" y="0" x="0" id="text-entity-Observation-e952f20c-7a72-5c21-9adf-e7a51e8e6e38-attr-12-type" class="er entityLabel">stringList</text><rect height="21" width="132.375" y="255" x="57.0625" class="er attributeBoxEven"/><text style="dominant-baseline: middle; font-size: 10.2px;" transform="translate(62.0625,265.5)" y="0" x="0" id="text-entity-Observation-e952f20c-7a72-5c21-9adf-e7a51e8e6e38-attr-12-name" class="er entityLabel">mainEntityOfPage</text><rect height="21" width="57.0625" y="276" x="0" class="er attributeBoxOdd"/><text style="dominant-baseline: middle; font-size: 10.2px;" transform="translate(5,286.5)" y="0" x="0" id="text-entity-Observation-e952f20c-7a72-5c21-9adf-e7a51e8e6e38-attr-13-type" class="er entityLabel">stringList</text><rect height="21" width="132.375" y="276" x="57.0625" class="er attributeBoxOdd"/><text style="dominant-baseline: middle; font-size: 10.2px;" transform="translate(62.0625,286.5)" y="0" x="0" id="text-entity-Observation-e952f20c-7a72-5c21-9adf-e7a51e8e6e38-attr-13-name" class="er entityLabel">subjectOf</text></g><g transform="translate(20,417 )" id="entity-QuantitativeValue-3d19db81-2acf-5dcd-99e0-52d6a275eca4"><rect height="75" width="137.59375" y="0" x="0" class="er entityBox"/><text style="dominant-baseline: middle; text-anchor: middle; font-size: 12px;" transform="translate(68.796875,37.5)" y="0" x="0" id="text-entity-QuantitativeValue-3d19db81-2acf-5dcd-99e0-52d6a275eca4" class="er entityLabel">QuantitativeValue</text></g><g transform="translate(257.59375,417 )" id="entity-Property-bffc1bdb-1548-5319-88e4-c0d0344b3229"><rect height="75" width="100" y="0" x="0" class="er entityBox"/><text style="dominant-baseline: middle; text-anchor: middle; font-size: 12px;" transform="translate(50,37.5)" y="0" x="0" id="text-entity-Property-bffc1bdb-1548-5319-88e4-c0d0344b3229" class="er entityLabel">Property</text></g><g transform="translate(457.59375,417 )" id="entity-StatisticalVariable-e190569f-609c-5950-b73b-88c42a037062"><rect height="75" width="137.890625" y="0" x="0" class="er entityBox"/><text style="dominant-baseline: middle; text-anchor: middle; font-size: 12px;" transform="translate(68.9453125,37.5)" y="0" x="0" id="text-entity-StatisticalVariable-e190569f-609c-5950-b73b-88c42a037062" class="er entityLabel">StatisticalVariable</text></g><g transform="translate(695.484375,417 )" id="entity-Enumeration-f9f59bb4-2616-549b-89c9-bf7c68943800"><rect height="75" width="107.140625" y="0" x="0" class="er entityBox"/><text style="dominant-baseline: middle; text-anchor: middle; font-size: 12px;" transform="translate(53.5703125,37.5)" y="0" x="0" id="text-entity-Enumeration-f9f59bb4-2616-549b-89c9-bf7c68943800" class="er entityLabel">Enumeration</text></g><g transform="translate(902.625,417 )" id="entity-DateTime-a943b584-0aab-5531-ae61-1b49be70232b"><rect height="75" width="100" y="0" x="0" class="er entityBox"/><text style="dominant-baseline: middle; text-anchor: middle; font-size: 12px;" transform="translate(50,37.5)" y="0" x="0" id="text-entity-DateTime-a943b584-0aab-5531-ae61-1b49be70232b" class="er entityLabel">DateTime</text></g><g transform="translate(1202.625,417 )" id="entity-Text-426c5d39-acfc-5487-a6d9-ede67887190e"><rect height="75" width="100" y="0" x="0" class="er entityBox"/><text style="dominant-baseline: middle; text-anchor: middle; font-size: 12px;" transform="translate(50,37.5)" y="0" x="0" id="text-entity-Text-426c5d39-acfc-5487-a6d9-ede67887190e" class="er entityLabel">Text</text></g><g transform="translate(1495.7578125,417 )" id="entity-PropertyValue-0e208f6c-77f8-5d2e-b4a4-9a09101a021a"><rect height="75" width="113.734375" y="0" x="0" class="er entityBox"/><text style="dominant-baseline: middle; text-anchor: middle; font-size: 12px;" transform="translate(56.8671875,37.5)" y="0" x="0" id="text-entity-PropertyValue-0e208f6c-77f8-5d2e-b4a4-9a09101a021a" class="er entityLabel">PropertyValue</text></g><g transform="translate(1709.4921875,417 )" id="entity-Number-03723608-6bf1-5294-8c7e-b493e3224412"><rect height="75" width="100" y="0" x="0" class="er entityBox"/><text style="dominant-baseline: middle; text-anchor: middle; font-size: 12px;" transform="translate(50,37.5)" y="0" x="0" id="text-entity-Number-03723608-6bf1-5294-8c7e-b493e3224412" class="er entityLabel">Number</text></g><g transform="translate(1909.4921875,417 )" id="entity-URL-07f78d3e-fd74-5925-b39b-26c1cc2d6b7c"><rect height="75" width="100" y="0" x="0" class="er entityBox"/><text style="dominant-baseline: middle; text-anchor: middle; font-size: 12px;" transform="translate(50,37.5)" y="0" x="0" id="text-entity-URL-07f78d3e-fd74-5925-b39b-26c1cc2d6b7c" class="er entityLabel">URL</text></g><g transform="translate(2109.4921875,417 )" id="entity-Action-6cd87d9a-a078-546e-a35b-bee54f477b31"><rect height="75" width="100" y="0" x="0" class="er entityBox"/><text style="dominant-baseline: middle; text-anchor: middle; font-size: 12px;" transform="translate(50,37.5)" y="0" x="0" id="text-entity-Action-6cd87d9a-a078-546e-a35b-bee54f477b31" class="er entityLabel">Action</text></g><rect height="14" width="85.30859375" y="271.45361328125" x="592.95751953125" class="er relationshipLabelBox"/><text style="text-anchor: middle; dominant-baseline: middle; font-size: 12px;" y="278.45361328125" x="635.61181640625" id="rel1" class="er relationshipLabel">marginOfError</text><rect height="14" width="110.734375" y="273.7686462402344" x="688.7816772460938" class="er relationshipLabelBox"/><text style="text-anchor: middle; dominant-baseline: middle; font-size: 12px;" y="280.7686462402344" x="744.1488647460938" id="rel2" class="er relationshipLabel">measuredProperty</text><rect height="14" width="162.318359375" y="277.47320556640625" x="771.3298950195312" class="er relationshipLabelBox"/><text style="text-anchor: middle; dominant-baseline: middle; font-size: 12px;" y="284.47320556640625" x="852.4890747070312" id="rel3" class="er relationshipLabel">measurementDenominator</text><rect height="14" width="134.732421875" y="284.4035949707031" x="894.8975830078125" class="er relationshipLabelBox"/><text style="text-anchor: middle; dominant-baseline: middle; font-size: 12px;" y="291.4035949707031" x="962.2637939453125" id="rel4" class="er relationshipLabel">measurementQualifier</text><rect height="14" width="99.65625" y="298.5430603027344" x="1012.9886474609375" class="er relationshipLabelBox"/><text style="text-anchor: middle; dominant-baseline: middle; font-size: 12px;" y="305.5430603027344" x="1062.8167724609375" id="rel5" class="er relationshipLabel">observationDate</text><rect height="14" width="108.390625" y="338.57342529296875" x="1051.0162353515625" class="er relationshipLabelBox"/><text style="text-anchor: middle; dominant-baseline: middle; font-size: 12px;" y="345.57342529296875" x="1105.2115478515625" id="rel6" class="er relationshipLabel">observationPeriod</text><rect height="14" width="110.375" y="312.0282897949219" x="1433.519287109375" class="er relationshipLabelBox"/><text style="text-anchor: middle; dominant-baseline: middle; font-size: 12px;" y="319.0282897949219" x="1488.706787109375" id="rel7" class="er relationshipLabel">additionalProperty</text><rect height="14" width="59.109375" y="296.7608337402344" x="1544.3175048828125" class="er relationshipLabelBox"/><text style="text-anchor: middle; dominant-baseline: middle; font-size: 12px;" y="303.7608337402344" x="1573.8721923828125" id="rel8" class="er relationshipLabel">maxValue</text><rect height="14" width="55.59375" y="284.32513427734375" x="1583.203857421875" class="er relationshipLabelBox"/><text style="text-anchor: middle; dominant-baseline: middle; font-size: 12px;" y="291.32513427734375" x="1611.000732421875" id="rel9" class="er relationshipLabel">minValue</text><rect height="14" width="47.814453125" y="352.513916015625" x="1146.946044921875" class="er relationshipLabelBox"/><text style="text-anchor: middle; dominant-baseline: middle; font-size: 12px;" y="359.513916015625" x="1170.853271484375" id="rel10" class="er relationshipLabel">unitText</text><rect height="14" width="89.953125" y="359.5498962402344" x="1209.6578369140625" class="er relationshipLabelBox"/><text style="text-anchor: middle; dominant-baseline: middle; font-size: 12px;" y="366.5498962402344" x="1254.6343994140625" id="rel11" class="er relationshipLabel">alternateName</text><rect height="14" width="161.390625" y="367.4252624511719" x="1256.19287109375" class="er relationshipLabelBox"/><text style="text-anchor: middle; dominant-baseline: middle; font-size: 12px;" y="374.4252624511719" x="1336.88818359375" id="rel12" class="er relationshipLabel">disambiguatingDescription</text><rect height="14" width="34.03125" y="376.2103271484375" x="1382.90087890625" class="er relationshipLabelBox"/><text style="text-anchor: middle; dominant-baseline: middle; font-size: 12px;" y="383.2103271484375" x="1399.91650390625" id="rel13" class="er relationshipLabel">name</text><rect height="14" width="47.140625" y="284.89678955078125" x="1651.3828125" class="er relationshipLabelBox"/><text style="text-anchor: middle; dominant-baseline: middle; font-size: 12px;" y="291.89678955078125" x="1674.953125" id="rel14" class="er relationshipLabel">sameAs</text><rect height="14" width="90.96875" y="275.7543029785156" x="1743.7423095703125" class="er relationshipLabelBox"/><text style="text-anchor: middle; dominant-baseline: middle; font-size: 12px;" y="282.7543029785156" x="1789.2266845703125" id="rel15" class="er relationshipLabel">potentialAction</text><rect height="14" width="15.875" y="277.16522216796875" x="1700.38525390625" class="er relationshipLabelBox"/><text style="text-anchor: middle; dominant-baseline: middle; font-size: 12px;" y="284.16522216796875" x="1708.32275390625" id="rel16" class="er relationshipLabel">url</text></svg>