<svg aria-roledescription="er" role="graphics-document document" viewBox="0 0 3484.375 449" style="max-width: 3484.38px; background-color: white;" xmlns:xlink="http://www.w3.org/1999/xlink" xmlns="http://www.w3.org/2000/svg" width="100%" id="my-svg"><style>#my-svg{font-family:"trebuchet ms",verdana,arial,sans-serif;font-size:16px;fill:#333;}#my-svg .error-icon{fill:#552222;}#my-svg .error-text{fill:#552222;stroke:#552222;}#my-svg .edge-thickness-normal{stroke-width:1px;}#my-svg .edge-thickness-thick{stroke-width:3.5px;}#my-svg .edge-pattern-solid{stroke-dasharray:0;}#my-svg .edge-thickness-invisible{stroke-width:0;fill:none;}#my-svg .edge-pattern-dashed{stroke-dasharray:3;}#my-svg .edge-pattern-dotted{stroke-dasharray:2;}#my-svg .marker{fill:#333333;stroke:#333333;}#my-svg .marker.cross{stroke:#333333;}#my-svg svg{font-family:"trebuchet ms",verdana,arial,sans-serif;font-size:16px;}#my-svg p{margin:0;}#my-svg .entityBox{fill:#ECECFF;stroke:#9370DB;}#my-svg .attributeBoxOdd{fill:#ffffff;stroke:#9370DB;}#my-svg .attributeBoxEven{fill:#f2f2f2;stroke:#9370DB;}#my-svg .relationshipLabelBox{fill:hsl(80, 100%, 96.2745098039%);opacity:0.7;background-color:hsl(80, 100%, 96.2745098039%);}#my-svg .relationshipLabelBox rect{opacity:0.5;}#my-svg .relationshipLine{stroke:#333333;}#my-svg .entityTitleText{text-anchor:middle;font-size:18px;fill:#333;}#my-svg #MD_PARENT_START{fill:#f5f5f5!important;stroke:#333333!important;stroke-width:1;}#my-svg #MD_PARENT_END{fill:#f5f5f5!important;stroke:#333333!important;stroke-width:1;}#my-svg :root{--mermaid-font-family:"trebuchet ms",verdana,arial,sans-serif;}</style><g/><defs><marker orient="auto" markerHeight="240" markerWidth="190" refY="7" refX="0" id="MD_PARENT_START"><path d="M 18,7 L9,13 L1,7 L9,1 Z"/></marker></defs><defs><marker orient="auto" markerHeight="28" markerWidth="20" refY="7" refX="19" id="MD_PARENT_END"><path d="M 18,7 L9,13 L1,7 L9,1 Z"/></marker></defs><defs><marker orient="auto" markerHeight="18" markerWidth="18" refY="9" refX="0" id="ONLY_ONE_START"><path d="M9,0 L9,18 M15,0 L15,18" fill="none" stroke="gray"/></marker></defs><defs><marker orient="auto" markerHeight="18" markerWidth="18" refY="9" refX="18" id="ONLY_ONE_END"><path d="M3,0 L3,18 M9,0 L9,18" fill="none" stroke="gray"/></marker></defs><defs><marker orient="auto" markerHeight="18" markerWidth="30" refY="9" refX="0" id="ZERO_OR_ONE_START"><circle r="6" cy="9" cx="21" fill="white" stroke="gray"/><path d="M9,0 L9,18" fill="none" stroke="gray"/></marker></defs><defs><marker orient="auto" markerHeight="18" markerWidth="30" refY="9" refX="30" id="ZERO_OR_ONE_END"><circle r="6" cy="9" cx="9" fill="white" stroke="gray"/><path d="M21,0 L21,18" fill="none" stroke="gray"/></marker></defs><defs><marker orient="auto" markerHeight="36" markerWidth="45" refY="18" refX="18" id="ONE_OR_MORE_START"><path d="M0,18 Q 18,0 36,18 Q 18,36 0,18 M42,9 L42,27" fill="none" stroke="gray"/></marker></defs><defs><marker orient="auto" markerHeight="36" markerWidth="45" refY="18" refX="27" id="ONE_OR_MORE_END"><path d="M3,9 L3,27 M9,18 Q27,0 45,18 Q27,36 9,18" fill="none" stroke="gray"/></marker></defs><defs><marker orient="auto" markerHeight="36" markerWidth="57" refY="18" refX="18" id="ZERO_OR_MORE_START"><circle r="6" cy="18" cx="48" fill="white" stroke="gray"/><path d="M0,18 Q18,0 36,18 Q18,36 0,18" fill="none" stroke="gray"/></marker></defs><defs><marker orient="auto" markerHeight="36" markerWidth="57" refY="18" refX="39" id="ZERO_OR_MORE_END"><circle r="6" cy="18" cx="9" fill="white" stroke="gray"/><path d="M21,18 Q39,0 57,18 Q39,36 21,18" fill="none" stroke="gray"/></marker></defs><path style="stroke: gray; fill: none;" marker-start="url(#ONLY_ONE_START)" marker-end="url(#ZERO_OR_MORE_END)" d="M1311.234,147.121L1106.47,173.268C901.706,199.414,492.177,251.707,287.413,286.187C82.648,320.667,82.648,337.333,82.648,345.667L82.648,354" class="er relationshipLine"/><path style="stroke: gray; fill: none;" marker-start="url(#ONLY_ONE_START)" marker-end="url(#ZERO_OR_MORE_END)" d="M1311.234,148.523L1132.983,174.436C954.732,200.349,598.229,252.174,425.604,286.421C252.98,320.667,264.233,337.333,269.859,345.667L275.485,354" class="er relationshipLine"/><path style="stroke: gray; fill: none;" marker-start="url(#ONLY_ONE_START)" marker-end="url(#ZERO_OR_MORE_END)" d="M1311.234,151.087L1167.829,176.572C1024.424,202.058,737.615,253.029,627.543,290.181C517.471,327.333,584.138,350.667,617.471,362.333L650.805,374" class="er relationshipLine"/><path style="stroke: gray; fill: none;" marker-start="url(#ONLY_ONE_START)" marker-end="url(#ZERO_OR_MORE_END)" d="M1311.234,152.764L1184.496,177.97C1057.758,203.176,804.281,253.588,694.21,288.516C584.138,323.444,617.471,342.889,634.138,352.611L650.805,362.333" class="er relationshipLine"/><path style="stroke: gray; fill: none;" marker-start="url(#ONLY_ONE_START)" marker-end="url(#ZERO_OR_MORE_END)" d="M1311.234,154.896L1201.163,179.746C1091.091,204.597,870.948,254.299,765.638,287.483C660.328,320.667,669.852,337.333,674.614,345.667L679.376,354" class="er relationshipLine"/><path style="stroke: gray; fill: none;" marker-start="url(#ONLY_ONE_START)" marker-end="url(#ZERO_OR_MORE_END)" d="M1311.234,175.968L1267.829,197.307C1224.424,218.646,1137.615,261.323,1094.21,290.995C1050.805,320.667,1050.805,337.333,1050.805,345.667L1050.805,354" class="er relationshipLine"/><path style="stroke: gray; fill: none;" marker-start="url(#ONLY_ONE_START)" marker-end="url(#ZERO_OR_MORE_END)" d="M1317.337,254L1312.126,262.333C1306.915,270.667,1296.492,287.333,1291.281,304C1286.07,320.667,1286.07,337.333,1286.07,345.667L1286.07,354" class="er relationshipLine"/><path style="stroke: gray; fill: none;" marker-start="url(#ONLY_ONE_START)" marker-end="url(#ZERO_OR_MORE_END)" d="M1459.805,254L1464.741,262.333C1469.677,270.667,1479.549,287.333,1484.486,304C1489.422,320.667,1489.422,337.333,1489.422,345.667L1489.422,354" class="er relationshipLine"/><path style="stroke: gray; fill: none;" marker-start="url(#ONLY_ONE_START)" marker-end="url(#ZERO_OR_MORE_END)" d="M1469.766,178.975L1509.115,199.813C1548.464,220.65,1627.161,262.325,1666.51,291.496C1705.859,320.667,1705.859,337.333,1705.859,345.667L1705.859,354" class="er relationshipLine"/><path style="stroke: gray; fill: none;" marker-start="url(#ONLY_ONE_START)" marker-end="url(#ZERO_OR_MORE_END)" d="M1469.766,161.245L1547.551,185.038C1625.336,208.83,1780.906,256.415,1858.691,288.541C1936.477,320.667,1936.477,337.333,1936.477,345.667L1936.477,354" class="er relationshipLine"/><path style="stroke: gray; fill: none;" marker-start="url(#ONLY_ONE_START)" marker-end="url(#ZERO_OR_MORE_END)" d="M1469.766,154.337L1583.807,179.281C1697.849,204.225,1925.932,254.112,2039.974,287.39C2154.016,320.667,2154.016,337.333,2154.016,345.667L2154.016,354" class="er relationshipLine"/><path style="stroke: gray; fill: none;" marker-start="url(#ONLY_ONE_START)" marker-end="url(#ZERO_OR_MORE_END)" d="M1469.766,150.475L1620.285,176.062C1770.805,201.65,2071.844,252.825,2222.363,286.746C2372.883,320.667,2372.883,337.333,2372.883,345.667L2372.883,354" class="er relationshipLine"/><path style="stroke: gray; fill: none;" marker-start="url(#ONLY_ONE_START)" marker-end="url(#ZERO_OR_MORE_END)" d="M1469.766,148.002L1657.089,174.001C1844.411,200.001,2219.057,252.001,2406.38,286.334C2593.703,320.667,2593.703,337.333,2593.703,345.667L2593.703,354" class="er relationshipLine"/><path style="stroke: gray; fill: none;" marker-start="url(#ONLY_ONE_START)" marker-end="url(#ZERO_OR_MORE_END)" d="M1311.234,157.693L1217.829,182.078C1124.424,206.462,937.615,255.231,839.448,287.949C741.281,320.667,731.757,337.333,726.995,345.667L722.233,354" class="er relationshipLine"/><path style="stroke: gray; fill: none;" marker-start="url(#ONLY_ONE_START)" marker-end="url(#ZERO_OR_MORE_END)" d="M1311.234,161.527L1234.496,185.273C1157.758,209.018,1004.281,256.509,910.876,289.977C817.471,323.444,784.138,342.889,767.471,352.611L750.805,362.333" class="er relationshipLine"/><path style="stroke: gray; fill: none;" marker-start="url(#ONLY_ONE_START)" marker-end="url(#ZERO_OR_MORE_END)" d="M1311.234,167.106L1251.163,189.921C1191.091,212.737,1070.948,258.369,977.543,292.851C884.138,327.333,817.471,350.667,784.138,362.333L750.805,374" class="er relationshipLine"/><path style="stroke: gray; fill: none;" marker-start="url(#ONLY_ONE_START)" marker-end="url(#ZERO_OR_MORE_END)" d="M1469.766,146.763L1682.531,172.969C1895.297,199.175,2320.828,251.588,2538.609,286.127C2756.389,320.667,2766.419,337.333,2771.434,345.667L2776.449,354" class="er relationshipLine"/><path style="stroke: gray; fill: none;" marker-start="url(#ONLY_ONE_START)" marker-end="url(#ZERO_OR_MORE_END)" d="M1469.766,145.23L1724.641,171.691C1979.516,198.153,2489.266,251.077,2744.141,285.872C2999.016,320.667,2999.016,337.333,2999.016,345.667L2999.016,354" class="er relationshipLine"/><path style="stroke: gray; fill: none;" marker-start="url(#ONLY_ONE_START)" marker-end="url(#ZERO_OR_MORE_END)" d="M1469.766,146.076L1699.641,172.397C1929.516,198.717,2389.266,251.359,2614.379,286.013C2839.492,320.667,2829.968,337.333,2825.206,345.667L2820.444,354" class="er relationshipLine"/><path style="stroke: gray; fill: none;" marker-start="url(#ONLY_ONE_START)" marker-end="url(#ZERO_OR_MORE_END)" d="M1311.234,149.732L1151.163,175.443C991.091,201.155,670.948,252.577,506.114,286.622C341.281,320.667,331.757,337.333,326.995,345.667L322.233,354" class="er relationshipLine"/><path style="stroke: gray; fill: none;" marker-start="url(#ONLY_ONE_START)" marker-end="url(#ZERO_OR_MORE_END)" d="M1469.766,144.289L1759.254,170.907C2048.742,197.526,2627.719,250.763,2917.207,285.715C3206.695,320.667,3206.695,337.333,3206.695,345.667L3206.695,354" class="er relationshipLine"/><path style="stroke: gray; fill: none;" marker-start="url(#ONLY_ONE_START)" marker-end="url(#ZERO_OR_MORE_END)" d="M1469.766,143.541L1793.867,170.284C2117.969,197.027,2766.172,250.514,3090.273,285.59C3414.375,320.667,3414.375,337.333,3414.375,345.667L3414.375,354" class="er relationshipLine"/><g transform="translate(1311.234375,20 )" id="entity-PalliativeProcedure-c08d8d96-6548-57f6-a4b2-12ebc523a4c1"><rect height="234" width="158.53125" y="0" x="0" class="er entityBox"/><text style="dominant-baseline: middle; text-anchor: middle; font-size: 12px;" transform="translate(79.265625,12)" y="0" x="0" id="text-entity-PalliativeProcedure-c08d8d96-6548-57f6-a4b2-12ebc523a4c1" class="er entityLabel">PalliativeProcedure</text><rect height="21" width="57.0625" y="24" x="0" class="er attributeBoxOdd"/><text style="dominant-baseline: middle; font-size: 10.2px;" transform="translate(5,34.5)" y="0" x="0" id="text-entity-PalliativeProcedure-c08d8d96-6548-57f6-a4b2-12ebc523a4c1-attr-1-type" class="er entityLabel">stringList</text><rect height="21" width="101.46875" y="24" x="57.0625" class="er attributeBoxOdd"/><text style="dominant-baseline: middle; font-size: 10.2px;" transform="translate(62.0625,34.5)" y="0" x="0" id="text-entity-PalliativeProcedure-c08d8d96-6548-57f6-a4b2-12ebc523a4c1-attr-1-name" class="er entityLabel">contraindication</text><rect height="21" width="57.0625" y="45" x="0" class="er attributeBoxEven"/><text style="dominant-baseline: middle; font-size: 10.2px;" transform="translate(5,55.5)" y="0" x="0" id="text-entity-PalliativeProcedure-c08d8d96-6548-57f6-a4b2-12ebc523a4c1-attr-2-type" class="er entityLabel">stringList</text><rect height="21" width="101.46875" y="45" x="57.0625" class="er attributeBoxEven"/><text style="dominant-baseline: middle; font-size: 10.2px;" transform="translate(62.0625,55.5)" y="0" x="0" id="text-entity-PalliativeProcedure-c08d8d96-6548-57f6-a4b2-12ebc523a4c1-attr-2-name" class="er entityLabel">preparation</text><rect height="21" width="57.0625" y="66" x="0" class="er attributeBoxOdd"/><text style="dominant-baseline: middle; font-size: 10.2px;" transform="translate(5,76.5)" y="0" x="0" id="text-entity-PalliativeProcedure-c08d8d96-6548-57f6-a4b2-12ebc523a4c1-attr-3-type" class="er entityLabel">stringList</text><rect height="21" width="101.46875" y="66" x="57.0625" class="er attributeBoxOdd"/><text style="dominant-baseline: middle; font-size: 10.2px;" transform="translate(62.0625,76.5)" y="0" x="0" id="text-entity-PalliativeProcedure-c08d8d96-6548-57f6-a4b2-12ebc523a4c1-attr-3-name" class="er entityLabel">status</text><rect height="21" width="57.0625" y="87" x="0" class="er attributeBoxEven"/><text style="dominant-baseline: middle; font-size: 10.2px;" transform="translate(5,97.5)" y="0" x="0" id="text-entity-PalliativeProcedure-c08d8d96-6548-57f6-a4b2-12ebc523a4c1-attr-4-type" class="er entityLabel">stringList</text><rect height="21" width="101.46875" y="87" x="57.0625" class="er attributeBoxEven"/><text style="dominant-baseline: middle; font-size: 10.2px;" transform="translate(62.0625,97.5)" y="0" x="0" id="text-entity-PalliativeProcedure-c08d8d96-6548-57f6-a4b2-12ebc523a4c1-attr-4-name" class="er entityLabel">legalStatus</text><rect height="21" width="57.0625" y="108" x="0" class="er attributeBoxOdd"/><text style="dominant-baseline: middle; font-size: 10.2px;" transform="translate(5,118.5)" y="0" x="0" id="text-entity-PalliativeProcedure-c08d8d96-6548-57f6-a4b2-12ebc523a4c1-attr-5-type" class="er entityLabel">stringList</text><rect height="21" width="101.46875" y="108" x="57.0625" class="er attributeBoxOdd"/><text style="dominant-baseline: middle; font-size: 10.2px;" transform="translate(62.0625,118.5)" y="0" x="0" id="text-entity-PalliativeProcedure-c08d8d96-6548-57f6-a4b2-12ebc523a4c1-attr-5-name" class="er entityLabel">additionalType</text><rect height="21" width="57.0625" y="129" x="0" class="er attributeBoxEven"/><text style="dominant-baseline: middle; font-size: 10.2px;" transform="translate(5,139.5)" y="0" x="0" id="text-entity-PalliativeProcedure-c08d8d96-6548-57f6-a4b2-12ebc523a4c1-attr-6-type" class="er entityLabel">stringList</text><rect height="21" width="101.46875" y="129" x="57.0625" class="er attributeBoxEven"/><text style="dominant-baseline: middle; font-size: 10.2px;" transform="translate(62.0625,139.5)" y="0" x="0" id="text-entity-PalliativeProcedure-c08d8d96-6548-57f6-a4b2-12ebc523a4c1-attr-6-name" class="er entityLabel">description</text><rect height="21" width="57.0625" y="150" x="0" class="er attributeBoxOdd"/><text style="dominant-baseline: middle; font-size: 10.2px;" transform="translate(5,160.5)" y="0" x="0" id="text-entity-PalliativeProcedure-c08d8d96-6548-57f6-a4b2-12ebc523a4c1-attr-7-type" class="er entityLabel">stringList</text><rect height="21" width="101.46875" y="150" x="57.0625" class="er attributeBoxOdd"/><text style="dominant-baseline: middle; font-size: 10.2px;" transform="translate(62.0625,160.5)" y="0" x="0" id="text-entity-PalliativeProcedure-c08d8d96-6548-57f6-a4b2-12ebc523a4c1-attr-7-name" class="er entityLabel">identifier</text><rect height="21" width="57.0625" y="171" x="0" class="er attributeBoxEven"/><text style="dominant-baseline: middle; font-size: 10.2px;" transform="translate(5,181.5)" y="0" x="0" id="text-entity-PalliativeProcedure-c08d8d96-6548-57f6-a4b2-12ebc523a4c1-attr-8-type" class="er entityLabel">stringList</text><rect height="21" width="101.46875" y="171" x="57.0625" class="er attributeBoxEven"/><text style="dominant-baseline: middle; font-size: 10.2px;" transform="translate(62.0625,181.5)" y="0" x="0" id="text-entity-PalliativeProcedure-c08d8d96-6548-57f6-a4b2-12ebc523a4c1-attr-8-name" class="er entityLabel">image</text><rect height="21" width="57.0625" y="192" x="0" class="er attributeBoxOdd"/><text style="dominant-baseline: middle; font-size: 10.2px;" transform="translate(5,202.5)" y="0" x="0" id="text-entity-PalliativeProcedure-c08d8d96-6548-57f6-a4b2-12ebc523a4c1-attr-9-type" class="er entityLabel">stringList</text><rect height="21" width="101.46875" y="192" x="57.0625" class="er attributeBoxOdd"/><text style="dominant-baseline: middle; font-size: 10.2px;" transform="translate(62.0625,202.5)" y="0" x="0" id="text-entity-PalliativeProcedure-c08d8d96-6548-57f6-a4b2-12ebc523a4c1-attr-9-name" class="er entityLabel">mainEntityOfPage</text><rect height="21" width="57.0625" y="213" x="0" class="er attributeBoxEven"/><text style="dominant-baseline: middle; font-size: 10.2px;" transform="translate(5,223.5)" y="0" x="0" id="text-entity-PalliativeProcedure-c08d8d96-6548-57f6-a4b2-12ebc523a4c1-attr-10-type" class="er entityLabel">stringList</text><rect height="21" width="101.46875" y="213" x="57.0625" class="er attributeBoxEven"/><text style="dominant-baseline: middle; font-size: 10.2px;" transform="translate(62.0625,223.5)" y="0" x="0" id="text-entity-PalliativeProcedure-c08d8d96-6548-57f6-a4b2-12ebc523a4c1-attr-10-name" class="er entityLabel">subjectOf</text></g><g transform="translate(20,354 )" id="entity-MedicalTherapy-cb945121-be61-5f08-b66d-584ab4170081"><rect height="75" width="125.296875" y="0" x="0" class="er entityBox"/><text style="dominant-baseline: middle; text-anchor: middle; font-size: 12px;" transform="translate(62.6484375,37.5)" y="0" x="0" id="text-entity-MedicalTherapy-cb945121-be61-5f08-b66d-584ab4170081" class="er entityLabel">MedicalTherapy</text></g><g transform="translate(245.296875,354 )" id="entity-MedicalEntity-da7f22f1-1df3-52b4-9ce4-a5e4f6d6add9"><rect height="75" width="111.015625" y="0" x="0" class="er entityBox"/><text style="dominant-baseline: middle; text-anchor: middle; font-size: 12px;" transform="translate(55.5078125,37.5)" y="0" x="0" id="text-entity-MedicalEntity-da7f22f1-1df3-52b4-9ce4-a5e4f6d6add9" class="er entityLabel">MedicalEntity</text></g><g transform="translate(650.8046875,354 )" id="entity-Text-426c5d39-acfc-5487-a6d9-ede67887190e"><rect height="75" width="100" y="0" x="0" class="er entityBox"/><text style="dominant-baseline: middle; text-anchor: middle; font-size: 12px;" transform="translate(50,37.5)" y="0" x="0" id="text-entity-Text-426c5d39-acfc-5487-a6d9-ede67887190e" class="er entityLabel">Text</text></g><g transform="translate(968.890625,354 )" id="entity-MedicalProcedureType-77110f20-1241-5df8-967e-11a2ad8f2859"><rect height="75" width="163.828125" y="0" x="0" class="er entityBox"/><text style="dominant-baseline: middle; text-anchor: middle; font-size: 12px;" transform="translate(81.9140625,37.5)" y="0" x="0" id="text-entity-MedicalProcedureType-77110f20-1241-5df8-967e-11a2ad8f2859" class="er entityLabel">MedicalProcedureType</text></g><g transform="translate(1232.71875,354 )" id="entity-MedicalCode-340ab1f3-b0e0-51ff-b309-32031f623ceb"><rect height="75" width="106.703125" y="0" x="0" class="er entityBox"/><text style="dominant-baseline: middle; text-anchor: middle; font-size: 12px;" transform="translate(53.3515625,37.5)" y="0" x="0" id="text-entity-MedicalCode-340ab1f3-b0e0-51ff-b309-32031f623ceb" class="er entityLabel">MedicalCode</text></g><g transform="translate(1439.421875,354 )" id="entity-Grant-291daf2c-8722-576f-890e-1045bc6484c0"><rect height="75" width="100" y="0" x="0" class="er entityBox"/><text style="dominant-baseline: middle; text-anchor: middle; font-size: 12px;" transform="translate(50,37.5)" y="0" x="0" id="text-entity-Grant-291daf2c-8722-576f-890e-1045bc6484c0" class="er entityLabel">Grant</text></g><g transform="translate(1639.421875,354 )" id="entity-MedicalGuideline-a05959e1-803b-55cd-8b3c-b530a54fde23"><rect height="75" width="132.875" y="0" x="0" class="er entityBox"/><text style="dominant-baseline: middle; text-anchor: middle; font-size: 12px;" transform="translate(66.4375,37.5)" y="0" x="0" id="text-entity-MedicalGuideline-a05959e1-803b-55cd-8b3c-b530a54fde23" class="er entityLabel">MedicalGuideline</text></g><g transform="translate(1872.296875,354 )" id="entity-MedicineSystem-74197b84-67e0-5471-ab59-f3fd7c3c0e72"><rect height="75" width="128.359375" y="0" x="0" class="er entityBox"/><text style="dominant-baseline: middle; text-anchor: middle; font-size: 12px;" transform="translate(64.1796875,37.5)" y="0" x="0" id="text-entity-MedicineSystem-74197b84-67e0-5471-ab59-f3fd7c3c0e72" class="er entityLabel">MedicineSystem</text></g><g transform="translate(2100.65625,354 )" id="entity-Organization-ef1721ab-1f62-5ef5-a525-a6c60c2f6032"><rect height="75" width="106.71875" y="0" x="0" class="er entityBox"/><text style="dominant-baseline: middle; text-anchor: middle; font-size: 12px;" transform="translate(53.359375,37.5)" y="0" x="0" id="text-entity-Organization-ef1721ab-1f62-5ef5-a525-a6c60c2f6032" class="er entityLabel">Organization</text></g><g transform="translate(2307.375,354 )" id="entity-MedicalSpecialty-0f4a20d3-5a5d-5b81-b412-da395afebba8"><rect height="75" width="131.015625" y="0" x="0" class="er entityBox"/><text style="dominant-baseline: middle; text-anchor: middle; font-size: 12px;" transform="translate(65.5078125,37.5)" y="0" x="0" id="text-entity-MedicalSpecialty-0f4a20d3-5a5d-5b81-b412-da395afebba8" class="er entityLabel">MedicalSpecialty</text></g><g transform="translate(2538.390625,354 )" id="entity-MedicalStudy-22dea251-12b7-5654-af29-afad6ffe12b1"><rect height="75" width="110.625" y="0" x="0" class="er entityBox"/><text style="dominant-baseline: middle; text-anchor: middle; font-size: 12px;" transform="translate(55.3125,37.5)" y="0" x="0" id="text-entity-MedicalStudy-22dea251-12b7-5654-af29-afad6ffe12b1" class="er entityLabel">MedicalStudy</text></g><g transform="translate(2749.015625,354 )" id="entity-URL-07f78d3e-fd74-5925-b39b-26c1cc2d6b7c"><rect height="75" width="100" y="0" x="0" class="er entityBox"/><text style="dominant-baseline: middle; text-anchor: middle; font-size: 12px;" transform="translate(50,37.5)" y="0" x="0" id="text-entity-URL-07f78d3e-fd74-5925-b39b-26c1cc2d6b7c" class="er entityLabel">URL</text></g><g transform="translate(2949.015625,354 )" id="entity-Action-6cd87d9a-a078-546e-a35b-bee54f477b31"><rect height="75" width="100" y="0" x="0" class="er entityBox"/><text style="dominant-baseline: middle; text-anchor: middle; font-size: 12px;" transform="translate(50,37.5)" y="0" x="0" id="text-entity-Action-6cd87d9a-a078-546e-a35b-bee54f477b31" class="er entityLabel">Action</text></g><g transform="translate(3149.015625,354 )" id="entity-DoseSchedule-12668bf5-601b-5226-977d-b7cea32e7cf4"><rect height="75" width="115.359375" y="0" x="0" class="er entityBox"/><text style="dominant-baseline: middle; text-anchor: middle; font-size: 12px;" transform="translate(57.6796875,37.5)" y="0" x="0" id="text-entity-DoseSchedule-12668bf5-601b-5226-977d-b7cea32e7cf4" class="er entityLabel">DoseSchedule</text></g><g transform="translate(3364.375,354 )" id="entity-Drug-eafa91c0-1824-5f2e-9826-905b73217603"><rect height="75" width="100" y="0" x="0" class="er entityBox"/><text style="dominant-baseline: middle; text-anchor: middle; font-size: 12px;" transform="translate(50,37.5)" y="0" x="0" id="text-entity-Drug-eafa91c0-1824-5f2e-9826-905b73217603" class="er entityLabel">Drug</text></g><rect height="14" width="104.875" y="220.9978485107422" x="634.1593627929688" class="er relationshipLabelBox"/><text style="text-anchor: middle; dominant-baseline: middle; font-size: 12px;" y="227.9978485107422" x="686.5968627929688" id="rel1" class="er relationshipLabel">duplicateTherapy</text><rect height="14" width="146.546875" y="220.60873413085938" x="701.9334106445312" class="er relationshipLabelBox"/><text style="text-anchor: middle; dominant-baseline: middle; font-size: 12px;" y="227.60873413085938" x="775.2068481445312" id="rel2" class="er relationshipLabel">seriousAdverseOutcome</text><rect height="14" width="80.4375" y="222.55030822753906" x="842.2202758789062" class="er relationshipLabelBox"/><text style="text-anchor: middle; dominant-baseline: middle; font-size: 12px;" y="229.55030822753906" x="882.4390258789062" id="rel3" class="er relationshipLabel">bodyLocation</text><rect height="14" width="50.625" y="222.63949584960938" x="907.5956420898438" class="er relationshipLabelBox"/><text style="text-anchor: middle; dominant-baseline: middle; font-size: 12px;" y="229.63949584960938" x="932.9081420898438" id="rel4" class="er relationshipLabel">followup</text><rect height="14" width="86.875" y="224.9851837158203" x="931.972900390625" class="er relationshipLabelBox"/><text style="text-anchor: middle; dominant-baseline: middle; font-size: 12px;" y="231.9851837158203" x="975.410400390625" id="rel5" class="er relationshipLabel">howPerformed</text><rect height="14" width="88.453125" y="242.35025024414062" x="1121.0635986328125" class="er relationshipLabelBox"/><text style="text-anchor: middle; dominant-baseline: middle; font-size: 12px;" y="249.35025024414062" x="1165.2901611328125" id="rel6" class="er relationshipLabel">procedureType</text><rect height="14" width="28.953125" y="294.12744140625" x="1277.7535400390625" class="er relationshipLabelBox"/><text style="text-anchor: middle; dominant-baseline: middle; font-size: 12px;" y="301.12744140625" x="1292.2301025390625" id="rel7" class="er relationshipLabel">code</text><rect height="14" width="45.609375" y="294.39044189453125" x="1460.8682861328125" class="er relationshipLabelBox"/><text style="text-anchor: middle; dominant-baseline: middle; font-size: 12px;" y="301.39044189453125" x="1483.6729736328125" id="rel8" class="er relationshipLabel">funding</text><rect height="14" width="55.21875" y="244.59048461914062" x="1576.05078125" class="er relationshipLabelBox"/><text style="text-anchor: middle; dominant-baseline: middle; font-size: 12px;" y="251.59048461914062" x="1603.66015625" id="rel9" class="er relationshipLabel">guideline</text><rect height="14" width="99.703125" y="231.26278686523438" x="1667.400390625" class="er relationshipLabelBox"/><text style="text-anchor: middle; dominant-baseline: middle; font-size: 12px;" y="238.26278686523438" x="1717.251953125" id="rel10" class="er relationshipLabel">medicineSystem</text><rect height="14" width="124.953125" y="226.13507080078125" x="1762.0379638671875" class="er relationshipLabelBox"/><text style="text-anchor: middle; dominant-baseline: middle; font-size: 12px;" y="233.13507080078125" x="1824.5145263671875" id="rel11" class="er relationshipLabel">recognizingAuthority</text><rect height="14" width="104.578125" y="223.34817504882812" x="1880.5419921875" class="er relationshipLabelBox"/><text style="text-anchor: middle; dominant-baseline: middle; font-size: 12px;" y="230.34817504882812" x="1932.8310546875" id="rel12" class="er relationshipLabel">relevantSpecialty</text><rect height="14" width="33.28125" y="221.60768127441406" x="2025.7625732421875" class="er relationshipLabelBox"/><text style="text-anchor: middle; dominant-baseline: middle; font-size: 12px;" y="228.60768127441406" x="2042.4031982421875" id="rel13" class="er relationshipLabel">study</text><rect height="14" width="89.953125" y="231.059814453125" x="963.0135498046875" class="er relationshipLabelBox"/><text style="text-anchor: middle; dominant-baseline: middle; font-size: 12px;" y="238.059814453125" x="1007.9901123046875" id="rel14" class="er relationshipLabel">alternateName</text><rect height="14" width="161.390625" y="243.81283569335938" x="945.9736328125" class="er relationshipLabelBox"/><text style="text-anchor: middle; dominant-baseline: middle; font-size: 12px;" y="250.81283569335938" x="1026.6689453125" id="rel15" class="er relationshipLabel">disambiguatingDescription</text><rect height="14" width="34.03125" y="265.69781494140625" x="1014.7921142578125" class="er relationshipLabelBox"/><text style="text-anchor: middle; dominant-baseline: middle; font-size: 12px;" y="272.69781494140625" x="1031.8077392578125" id="rel16" class="er relationshipLabel">name</text><rect height="14" width="47.140625" y="222.1699676513672" x="2106.318115234375" class="er relationshipLabelBox"/><text style="text-anchor: middle; dominant-baseline: middle; font-size: 12px;" y="229.1699676513672" x="2129.888427734375" id="rel17" class="er relationshipLabel">sameAs</text><rect height="14" width="90.96875" y="219.7083282470703" x="2198.500732421875" class="er relationshipLabelBox"/><text style="text-anchor: middle; dominant-baseline: middle; font-size: 12px;" y="226.7083282470703" x="2243.985107421875" id="rel18" class="er relationshipLabel">potentialAction</text><rect height="14" width="15.875" y="219.28866577148438" x="2152.579833984375" class="er relationshipLabelBox"/><text style="text-anchor: middle; dominant-baseline: middle; font-size: 12px;" y="226.28866577148438" x="2160.517333984375" id="rel19" class="er relationshipLabel">url</text><rect height="14" width="102.796875" y="224.5019073486328" x="757.7536010742188" class="er relationshipLabelBox"/><text style="text-anchor: middle; dominant-baseline: middle; font-size: 12px;" y="231.5019073486328" x="809.1520385742188" id="rel20" class="er relationshipLabel">adverseOutcome</text><rect height="14" width="83.75" y="219.0781707763672" x="2305.546630859375" class="er relationshipLabelBox"/><text style="text-anchor: middle; dominant-baseline: middle; font-size: 12px;" y="226.0781707763672" x="2347.421630859375" id="rel21" class="er relationshipLabel">doseSchedule</text><rect height="14" width="27.78125" y="218.58314514160156" x="2437.0341796875" class="er relationshipLabelBox"/><text style="text-anchor: middle; dominant-baseline: middle; font-size: 12px;" y="225.58314514160156" x="2450.9248046875" id="rel22" class="er relationshipLabel">drug</text></svg>