<svg aria-roledescription="er" role="graphics-document document" viewBox="0 0 855.8125 659" style="max-width: 855.812px; background-color: white;" xmlns:xlink="http://www.w3.org/1999/xlink" xmlns="http://www.w3.org/2000/svg" width="100%" id="my-svg"><style>#my-svg{font-family:"trebuchet ms",verdana,arial,sans-serif;font-size:16px;fill:#333;}#my-svg .error-icon{fill:#552222;}#my-svg .error-text{fill:#552222;stroke:#552222;}#my-svg .edge-thickness-normal{stroke-width:1px;}#my-svg .edge-thickness-thick{stroke-width:3.5px;}#my-svg .edge-pattern-solid{stroke-dasharray:0;}#my-svg .edge-thickness-invisible{stroke-width:0;fill:none;}#my-svg .edge-pattern-dashed{stroke-dasharray:3;}#my-svg .edge-pattern-dotted{stroke-dasharray:2;}#my-svg .marker{fill:#333333;stroke:#333333;}#my-svg .marker.cross{stroke:#333333;}#my-svg svg{font-family:"trebuchet ms",verdana,arial,sans-serif;font-size:16px;}#my-svg p{margin:0;}#my-svg .entityBox{fill:#ECECFF;stroke:#9370DB;}#my-svg .attributeBoxOdd{fill:#ffffff;stroke:#9370DB;}#my-svg .attributeBoxEven{fill:#f2f2f2;stroke:#9370DB;}#my-svg .relationshipLabelBox{fill:hsl(80, 100%, 96.2745098039%);opacity:0.7;background-color:hsl(80, 100%, 96.2745098039%);}#my-svg .relationshipLabelBox rect{opacity:0.5;}#my-svg .relationshipLine{stroke:#333333;}#my-svg .entityTitleText{text-anchor:middle;font-size:18px;fill:#333;}#my-svg #MD_PARENT_START{fill:#f5f5f5!important;stroke:#333333!important;stroke-width:1;}#my-svg #MD_PARENT_END{fill:#f5f5f5!important;stroke:#333333!important;stroke-width:1;}#my-svg :root{--mermaid-font-family:"trebuchet ms",verdana,arial,sans-serif;}</style><g/><defs><marker orient="auto" markerHeight="240" markerWidth="190" refY="7" refX="0" id="MD_PARENT_START"><path d="M 18,7 L9,13 L1,7 L9,1 Z"/></marker></defs><defs><marker orient="auto" markerHeight="28" markerWidth="20" refY="7" refX="19" id="MD_PARENT_END"><path d="M 18,7 L9,13 L1,7 L9,1 Z"/></marker></defs><defs><marker orient="auto" markerHeight="18" markerWidth="18" refY="9" refX="0" id="ONLY_ONE_START"><path d="M9,0 L9,18 M15,0 L15,18" fill="none" stroke="gray"/></marker></defs><defs><marker orient="auto" markerHeight="18" markerWidth="18" refY="9" refX="18" id="ONLY_ONE_END"><path d="M3,0 L3,18 M9,0 L9,18" fill="none" stroke="gray"/></marker></defs><defs><marker orient="auto" markerHeight="18" markerWidth="30" refY="9" refX="0" id="ZERO_OR_ONE_START"><circle r="6" cy="9" cx="21" fill="white" stroke="gray"/><path d="M9,0 L9,18" fill="none" stroke="gray"/></marker></defs><defs><marker orient="auto" markerHeight="18" markerWidth="30" refY="9" refX="30" id="ZERO_OR_ONE_END"><circle r="6" cy="9" cx="9" fill="white" stroke="gray"/><path d="M21,0 L21,18" fill="none" stroke="gray"/></marker></defs><defs><marker orient="auto" markerHeight="36" markerWidth="45" refY="18" refX="18" id="ONE_OR_MORE_START"><path d="M0,18 Q 18,0 36,18 Q 18,36 0,18 M42,9 L42,27" fill="none" stroke="gray"/></marker></defs><defs><marker orient="auto" markerHeight="36" markerWidth="45" refY="18" refX="27" id="ONE_OR_MORE_END"><path d="M3,9 L3,27 M9,18 Q27,0 45,18 Q27,36 9,18" fill="none" stroke="gray"/></marker></defs><defs><marker orient="auto" markerHeight="36" markerWidth="57" refY="18" refX="18" id="ZERO_OR_MORE_START"><circle r="6" cy="18" cx="48" fill="white" stroke="gray"/><path d="M0,18 Q18,0 36,18 Q18,36 0,18" fill="none" stroke="gray"/></marker></defs><defs><marker orient="auto" markerHeight="36" markerWidth="57" refY="18" refX="39" id="ZERO_OR_MORE_END"><circle r="6" cy="18" cx="9" fill="white" stroke="gray"/><path d="M21,18 Q39,0 57,18 Q39,36 21,18" fill="none" stroke="gray"/></marker></defs><path style="stroke: gray; fill: none;" marker-start="url(#ONLY_ONE_START)" marker-end="url(#ZERO_OR_MORE_END)" d="M284.811,337.871L251.78,367.226C218.749,396.581,152.687,455.29,119.656,492.978C86.625,530.667,86.625,547.333,86.625,555.667L86.625,564" class="er relationshipLine"/><path style="stroke: gray; fill: none;" marker-start="url(#ONLY_ONE_START)" marker-end="url(#ZERO_OR_MORE_END)" d="M284.811,454.086L279.732,464.072C274.652,474.058,264.494,494.029,265.864,512.348C267.233,530.667,280.131,547.333,286.579,555.667L293.028,564" class="er relationshipLine"/><path style="stroke: gray; fill: none;" marker-start="url(#ONLY_ONE_START)" marker-end="url(#ZERO_OR_MORE_END)" d="M392.688,464L392.688,472.333C392.688,480.667,392.688,497.333,385.96,514C379.232,530.667,365.777,547.333,359.049,555.667L352.321,564" class="er relationshipLine"/><path style="stroke: gray; fill: none;" marker-start="url(#ONLY_ONE_START)" marker-end="url(#ZERO_OR_MORE_END)" d="M500.564,413.955L511.025,430.629C521.486,447.303,542.407,480.652,552.867,505.659C563.328,530.667,563.328,547.333,563.328,555.667L563.328,564" class="er relationshipLine"/><path style="stroke: gray; fill: none;" marker-start="url(#ONLY_ONE_START)" marker-end="url(#ZERO_OR_MORE_END)" d="M500.564,316.639L548.106,349.533C595.647,382.426,690.73,448.213,738.271,489.44C785.813,530.667,785.813,547.333,785.813,555.667L785.813,564" class="er relationshipLine"/><g transform="translate(284.81072998046875,20 )" id="entity-ParentAudience-8b2d5770-a28e-5479-b4f1-8d0bdefd6c77"><rect height="444" width="215.7535400390625" y="0" x="0" class="er entityBox"/><text style="dominant-baseline: middle; text-anchor: middle; font-size: 12px;" transform="translate(107.87677001953125,12)" y="0" x="0" id="text-entity-ParentAudience-8b2d5770-a28e-5479-b4f1-8d0bdefd6c77" class="er entityLabel">ParentAudience</text><rect height="21" width="68.7379150390625" y="24" x="0" class="er attributeBoxOdd"/><text style="dominant-baseline: middle; font-size: 10.2px;" transform="translate(5,34.5)" y="0" x="0" id="text-entity-ParentAudience-8b2d5770-a28e-5479-b4f1-8d0bdefd6c77-attr-1-type" class="er entityLabel">NumberList</text><rect height="21" width="147.015625" y="24" x="68.7379150390625" class="er attributeBoxOdd"/><text style="dominant-baseline: middle; font-size: 10.2px;" transform="translate(73.7379150390625,34.5)" y="0" x="0" id="text-entity-ParentAudience-8b2d5770-a28e-5479-b4f1-8d0bdefd6c77-attr-1-name" class="er entityLabel">childMaxAge</text><rect height="21" width="68.7379150390625" y="45" x="0" class="er attributeBoxEven"/><text style="dominant-baseline: middle; font-size: 10.2px;" transform="translate(5,55.5)" y="0" x="0" id="text-entity-ParentAudience-8b2d5770-a28e-5479-b4f1-8d0bdefd6c77-attr-2-type" class="er entityLabel">NumberList</text><rect height="21" width="147.015625" y="45" x="68.7379150390625" class="er attributeBoxEven"/><text style="dominant-baseline: middle; font-size: 10.2px;" transform="translate(73.7379150390625,55.5)" y="0" x="0" id="text-entity-ParentAudience-8b2d5770-a28e-5479-b4f1-8d0bdefd6c77-attr-2-name" class="er entityLabel">childMinAge</text><rect height="21" width="68.7379150390625" y="66" x="0" class="er attributeBoxOdd"/><text style="dominant-baseline: middle; font-size: 10.2px;" transform="translate(5,76.5)" y="0" x="0" id="text-entity-ParentAudience-8b2d5770-a28e-5479-b4f1-8d0bdefd6c77-attr-3-type" class="er entityLabel">TextList</text><rect height="21" width="147.015625" y="66" x="68.7379150390625" class="er attributeBoxOdd"/><text style="dominant-baseline: middle; font-size: 10.2px;" transform="translate(73.7379150390625,76.5)" y="0" x="0" id="text-entity-ParentAudience-8b2d5770-a28e-5479-b4f1-8d0bdefd6c77-attr-3-name" class="er entityLabel">requiredGender</text><rect height="21" width="68.7379150390625" y="87" x="0" class="er attributeBoxEven"/><text style="dominant-baseline: middle; font-size: 10.2px;" transform="translate(5,97.5)" y="0" x="0" id="text-entity-ParentAudience-8b2d5770-a28e-5479-b4f1-8d0bdefd6c77-attr-4-type" class="er entityLabel">IntegerList</text><rect height="21" width="147.015625" y="87" x="68.7379150390625" class="er attributeBoxEven"/><text style="dominant-baseline: middle; font-size: 10.2px;" transform="translate(73.7379150390625,97.5)" y="0" x="0" id="text-entity-ParentAudience-8b2d5770-a28e-5479-b4f1-8d0bdefd6c77-attr-4-name" class="er entityLabel">requiredMaxAge</text><rect height="21" width="68.7379150390625" y="108" x="0" class="er attributeBoxOdd"/><text style="dominant-baseline: middle; font-size: 10.2px;" transform="translate(5,118.5)" y="0" x="0" id="text-entity-ParentAudience-8b2d5770-a28e-5479-b4f1-8d0bdefd6c77-attr-5-type" class="er entityLabel">IntegerList</text><rect height="21" width="147.015625" y="108" x="68.7379150390625" class="er attributeBoxOdd"/><text style="dominant-baseline: middle; font-size: 10.2px;" transform="translate(73.7379150390625,118.5)" y="0" x="0" id="text-entity-ParentAudience-8b2d5770-a28e-5479-b4f1-8d0bdefd6c77-attr-5-name" class="er entityLabel">requiredMinAge</text><rect height="21" width="68.7379150390625" y="129" x="0" class="er attributeBoxEven"/><text style="dominant-baseline: middle; font-size: 10.2px;" transform="translate(5,139.5)" y="0" x="0" id="text-entity-ParentAudience-8b2d5770-a28e-5479-b4f1-8d0bdefd6c77-attr-6-type" class="er entityLabel">stringList</text><rect height="21" width="147.015625" y="129" x="68.7379150390625" class="er attributeBoxEven"/><text style="dominant-baseline: middle; font-size: 10.2px;" transform="translate(73.7379150390625,139.5)" y="0" x="0" id="text-entity-ParentAudience-8b2d5770-a28e-5479-b4f1-8d0bdefd6c77-attr-6-name" class="er entityLabel">suggestedGender</text><rect height="21" width="68.7379150390625" y="150" x="0" class="er attributeBoxOdd"/><text style="dominant-baseline: middle; font-size: 10.2px;" transform="translate(5,160.5)" y="0" x="0" id="text-entity-ParentAudience-8b2d5770-a28e-5479-b4f1-8d0bdefd6c77-attr-7-type" class="er entityLabel">NumberList</text><rect height="21" width="147.015625" y="150" x="68.7379150390625" class="er attributeBoxOdd"/><text style="dominant-baseline: middle; font-size: 10.2px;" transform="translate(73.7379150390625,160.5)" y="0" x="0" id="text-entity-ParentAudience-8b2d5770-a28e-5479-b4f1-8d0bdefd6c77-attr-7-name" class="er entityLabel">suggestedMaxAge</text><rect height="21" width="68.7379150390625" y="171" x="0" class="er attributeBoxEven"/><text style="dominant-baseline: middle; font-size: 10.2px;" transform="translate(5,181.5)" y="0" x="0" id="text-entity-ParentAudience-8b2d5770-a28e-5479-b4f1-8d0bdefd6c77-attr-8-type" class="er entityLabel">NumberList</text><rect height="21" width="147.015625" y="171" x="68.7379150390625" class="er attributeBoxEven"/><text style="dominant-baseline: middle; font-size: 10.2px;" transform="translate(73.7379150390625,181.5)" y="0" x="0" id="text-entity-ParentAudience-8b2d5770-a28e-5479-b4f1-8d0bdefd6c77-attr-8-name" class="er entityLabel">suggestedMinAge</text><rect height="21" width="68.7379150390625" y="192" x="0" class="er attributeBoxOdd"/><text style="dominant-baseline: middle; font-size: 10.2px;" transform="translate(5,202.5)" y="0" x="0" id="text-entity-ParentAudience-8b2d5770-a28e-5479-b4f1-8d0bdefd6c77-attr-9-type" class="er entityLabel">TextList</text><rect height="21" width="147.015625" y="192" x="68.7379150390625" class="er attributeBoxOdd"/><text style="dominant-baseline: middle; font-size: 10.2px;" transform="translate(73.7379150390625,202.5)" y="0" x="0" id="text-entity-ParentAudience-8b2d5770-a28e-5479-b4f1-8d0bdefd6c77-attr-9-name" class="er entityLabel">audienceType</text><rect height="21" width="68.7379150390625" y="213" x="0" class="er attributeBoxEven"/><text style="dominant-baseline: middle; font-size: 10.2px;" transform="translate(5,223.5)" y="0" x="0" id="text-entity-ParentAudience-8b2d5770-a28e-5479-b4f1-8d0bdefd6c77-attr-10-type" class="er entityLabel">stringList</text><rect height="21" width="147.015625" y="213" x="68.7379150390625" class="er attributeBoxEven"/><text style="dominant-baseline: middle; font-size: 10.2px;" transform="translate(73.7379150390625,223.5)" y="0" x="0" id="text-entity-ParentAudience-8b2d5770-a28e-5479-b4f1-8d0bdefd6c77-attr-10-name" class="er entityLabel">additionalType</text><rect height="21" width="68.7379150390625" y="234" x="0" class="er attributeBoxOdd"/><text style="dominant-baseline: middle; font-size: 10.2px;" transform="translate(5,244.5)" y="0" x="0" id="text-entity-ParentAudience-8b2d5770-a28e-5479-b4f1-8d0bdefd6c77-attr-11-type" class="er entityLabel">TextList</text><rect height="21" width="147.015625" y="234" x="68.7379150390625" class="er attributeBoxOdd"/><text style="dominant-baseline: middle; font-size: 10.2px;" transform="translate(73.7379150390625,244.5)" y="0" x="0" id="text-entity-ParentAudience-8b2d5770-a28e-5479-b4f1-8d0bdefd6c77-attr-11-name" class="er entityLabel">alternateName</text><rect height="21" width="68.7379150390625" y="255" x="0" class="er attributeBoxEven"/><text style="dominant-baseline: middle; font-size: 10.2px;" transform="translate(5,265.5)" y="0" x="0" id="text-entity-ParentAudience-8b2d5770-a28e-5479-b4f1-8d0bdefd6c77-attr-12-type" class="er entityLabel">stringList</text><rect height="21" width="147.015625" y="255" x="68.7379150390625" class="er attributeBoxEven"/><text style="dominant-baseline: middle; font-size: 10.2px;" transform="translate(73.7379150390625,265.5)" y="0" x="0" id="text-entity-ParentAudience-8b2d5770-a28e-5479-b4f1-8d0bdefd6c77-attr-12-name" class="er entityLabel">description</text><rect height="21" width="68.7379150390625" y="276" x="0" class="er attributeBoxOdd"/><text style="dominant-baseline: middle; font-size: 10.2px;" transform="translate(5,286.5)" y="0" x="0" id="text-entity-ParentAudience-8b2d5770-a28e-5479-b4f1-8d0bdefd6c77-attr-13-type" class="er entityLabel">TextList</text><rect height="21" width="147.015625" y="276" x="68.7379150390625" class="er attributeBoxOdd"/><text style="dominant-baseline: middle; font-size: 10.2px;" transform="translate(73.7379150390625,286.5)" y="0" x="0" id="text-entity-ParentAudience-8b2d5770-a28e-5479-b4f1-8d0bdefd6c77-attr-13-name" class="er entityLabel">disambiguatingDescription</text><rect height="21" width="68.7379150390625" y="297" x="0" class="er attributeBoxEven"/><text style="dominant-baseline: middle; font-size: 10.2px;" transform="translate(5,307.5)" y="0" x="0" id="text-entity-ParentAudience-8b2d5770-a28e-5479-b4f1-8d0bdefd6c77-attr-14-type" class="er entityLabel">stringList</text><rect height="21" width="147.015625" y="297" x="68.7379150390625" class="er attributeBoxEven"/><text style="dominant-baseline: middle; font-size: 10.2px;" transform="translate(73.7379150390625,307.5)" y="0" x="0" id="text-entity-ParentAudience-8b2d5770-a28e-5479-b4f1-8d0bdefd6c77-attr-14-name" class="er entityLabel">identifier</text><rect height="21" width="68.7379150390625" y="318" x="0" class="er attributeBoxOdd"/><text style="dominant-baseline: middle; font-size: 10.2px;" transform="translate(5,328.5)" y="0" x="0" id="text-entity-ParentAudience-8b2d5770-a28e-5479-b4f1-8d0bdefd6c77-attr-15-type" class="er entityLabel">stringList</text><rect height="21" width="147.015625" y="318" x="68.7379150390625" class="er attributeBoxOdd"/><text style="dominant-baseline: middle; font-size: 10.2px;" transform="translate(73.7379150390625,328.5)" y="0" x="0" id="text-entity-ParentAudience-8b2d5770-a28e-5479-b4f1-8d0bdefd6c77-attr-15-name" class="er entityLabel">image</text><rect height="21" width="68.7379150390625" y="339" x="0" class="er attributeBoxEven"/><text style="dominant-baseline: middle; font-size: 10.2px;" transform="translate(5,349.5)" y="0" x="0" id="text-entity-ParentAudience-8b2d5770-a28e-5479-b4f1-8d0bdefd6c77-attr-16-type" class="er entityLabel">TextList</text><rect height="21" width="147.015625" y="339" x="68.7379150390625" class="er attributeBoxEven"/><text style="dominant-baseline: middle; font-size: 10.2px;" transform="translate(73.7379150390625,349.5)" y="0" x="0" id="text-entity-ParentAudience-8b2d5770-a28e-5479-b4f1-8d0bdefd6c77-attr-16-name" class="er entityLabel">name</text><rect height="21" width="68.7379150390625" y="360" x="0" class="er attributeBoxOdd"/><text style="dominant-baseline: middle; font-size: 10.2px;" transform="translate(5,370.5)" y="0" x="0" id="text-entity-ParentAudience-8b2d5770-a28e-5479-b4f1-8d0bdefd6c77-attr-17-type" class="er entityLabel">URLList</text><rect height="21" width="147.015625" y="360" x="68.7379150390625" class="er attributeBoxOdd"/><text style="dominant-baseline: middle; font-size: 10.2px;" transform="translate(73.7379150390625,370.5)" y="0" x="0" id="text-entity-ParentAudience-8b2d5770-a28e-5479-b4f1-8d0bdefd6c77-attr-17-name" class="er entityLabel">sameAs</text><rect height="21" width="68.7379150390625" y="381" x="0" class="er attributeBoxEven"/><text style="dominant-baseline: middle; font-size: 10.2px;" transform="translate(5,391.5)" y="0" x="0" id="text-entity-ParentAudience-8b2d5770-a28e-5479-b4f1-8d0bdefd6c77-attr-18-type" class="er entityLabel">stringList</text><rect height="21" width="147.015625" y="381" x="68.7379150390625" class="er attributeBoxEven"/><text style="dominant-baseline: middle; font-size: 10.2px;" transform="translate(73.7379150390625,391.5)" y="0" x="0" id="text-entity-ParentAudience-8b2d5770-a28e-5479-b4f1-8d0bdefd6c77-attr-18-name" class="er entityLabel">mainEntityOfPage</text><rect height="21" width="68.7379150390625" y="402" x="0" class="er attributeBoxOdd"/><text style="dominant-baseline: middle; font-size: 10.2px;" transform="translate(5,412.5)" y="0" x="0" id="text-entity-ParentAudience-8b2d5770-a28e-5479-b4f1-8d0bdefd6c77-attr-19-type" class="er entityLabel">stringList</text><rect height="21" width="147.015625" y="402" x="68.7379150390625" class="er attributeBoxOdd"/><text style="dominant-baseline: middle; font-size: 10.2px;" transform="translate(73.7379150390625,412.5)" y="0" x="0" id="text-entity-ParentAudience-8b2d5770-a28e-5479-b4f1-8d0bdefd6c77-attr-19-name" class="er entityLabel">subjectOf</text><rect height="21" width="68.7379150390625" y="423" x="0" class="er attributeBoxEven"/><text style="dominant-baseline: middle; font-size: 10.2px;" transform="translate(5,433.5)" y="0" x="0" id="text-entity-ParentAudience-8b2d5770-a28e-5479-b4f1-8d0bdefd6c77-attr-20-type" class="er entityLabel">URLList</text><rect height="21" width="147.015625" y="423" x="68.7379150390625" class="er attributeBoxEven"/><text style="dominant-baseline: middle; font-size: 10.2px;" transform="translate(73.7379150390625,433.5)" y="0" x="0" id="text-entity-ParentAudience-8b2d5770-a28e-5479-b4f1-8d0bdefd6c77-attr-20-name" class="er entityLabel">url</text></g><g transform="translate(20,564 )" id="entity-MedicalCondition-a93e7da7-17aa-5f46-8e3a-8f90076b9104"><rect height="75" width="133.25" y="0" x="0" class="er entityBox"/><text style="dominant-baseline: middle; text-anchor: middle; font-size: 12px;" transform="translate(66.625,37.5)" y="0" x="0" id="text-entity-MedicalCondition-a93e7da7-17aa-5f46-8e3a-8f90076b9104" class="er entityLabel">MedicalCondition</text></g><g transform="translate(253.25,564 )" id="entity-QuantitativeValue-3d19db81-2acf-5dcd-99e0-52d6a275eca4"><rect height="75" width="137.59375" y="0" x="0" class="er entityBox"/><text style="dominant-baseline: middle; text-anchor: middle; font-size: 12px;" transform="translate(68.796875,37.5)" y="0" x="0" id="text-entity-QuantitativeValue-3d19db81-2acf-5dcd-99e0-52d6a275eca4" class="er entityLabel">QuantitativeValue</text></g><g transform="translate(490.84375,564 )" id="entity-AdministrativeArea-148f6b29-78f8-5892-bd48-04ae3b68a278"><rect height="75" width="144.96875" y="0" x="0" class="er entityBox"/><text style="dominant-baseline: middle; text-anchor: middle; font-size: 12px;" transform="translate(72.484375,37.5)" y="0" x="0" id="text-entity-AdministrativeArea-148f6b29-78f8-5892-bd48-04ae3b68a278" class="er entityLabel">AdministrativeArea</text></g><g transform="translate(735.8125,564 )" id="entity-Action-6cd87d9a-a078-546e-a35b-bee54f477b31"><rect height="75" width="100" y="0" x="0" class="er entityBox"/><text style="dominant-baseline: middle; text-anchor: middle; font-size: 12px;" transform="translate(50,37.5)" y="0" x="0" id="text-entity-Action-6cd87d9a-a078-546e-a35b-bee54f477b31" class="er entityLabel">Action</text></g><rect height="14" width="95.25" y="433.9764404296875" x="123.20123291015625" class="er relationshipLabelBox"/><text style="text-anchor: middle; dominant-baseline: middle; font-size: 12px;" y="440.9764404296875" x="170.82623291015625" id="rel1" class="er relationshipLabel">healthCondition</text><rect height="14" width="85.640625" y="503.9521484375" x="222.96160888671875" class="er relationshipLabelBox"/><text style="text-anchor: middle; dominant-baseline: middle; font-size: 12px;" y="510.9521484375" x="265.78192138671875" id="rel2" class="er relationshipLabel">suggestedAge</text><rect height="14" width="145.109375" y="511.42877197265625" x="311.46563720703125" class="er relationshipLabelBox"/><text style="text-anchor: middle; dominant-baseline: middle; font-size: 12px;" y="518.4287719726562" x="384.02032470703125" id="rel3" class="er relationshipLabel">suggestedMeasurement</text><rect height="14" width="95.015625" y="477.96435546875" x="495.47882080078125" class="er relationshipLabelBox"/><text style="text-anchor: middle; dominant-baseline: middle; font-size: 12px;" y="484.96435546875" x="542.9866333007812" id="rel4" class="er relationshipLabel">geographicArea</text><rect height="14" width="90.96875" y="420.52880859375" x="613.09375" class="er relationshipLabelBox"/><text style="text-anchor: middle; dominant-baseline: middle; font-size: 12px;" y="427.52880859375" x="658.578125" id="rel5" class="er relationshipLabel">potentialAction</text></svg>