<svg aria-roledescription="er" role="graphics-document document" viewBox="-29.7662353515625 0 2988.48486328125 407" style="max-width: 2988.48px; background-color: white;" xmlns:xlink="http://www.w3.org/1999/xlink" xmlns="http://www.w3.org/2000/svg" width="100%" id="my-svg"><style>#my-svg{font-family:"trebuchet ms",verdana,arial,sans-serif;font-size:16px;fill:#333;}#my-svg .error-icon{fill:#552222;}#my-svg .error-text{fill:#552222;stroke:#552222;}#my-svg .edge-thickness-normal{stroke-width:1px;}#my-svg .edge-thickness-thick{stroke-width:3.5px;}#my-svg .edge-pattern-solid{stroke-dasharray:0;}#my-svg .edge-thickness-invisible{stroke-width:0;fill:none;}#my-svg .edge-pattern-dashed{stroke-dasharray:3;}#my-svg .edge-pattern-dotted{stroke-dasharray:2;}#my-svg .marker{fill:#333333;stroke:#333333;}#my-svg .marker.cross{stroke:#333333;}#my-svg svg{font-family:"trebuchet ms",verdana,arial,sans-serif;font-size:16px;}#my-svg p{margin:0;}#my-svg .entityBox{fill:#ECECFF;stroke:#9370DB;}#my-svg .attributeBoxOdd{fill:#ffffff;stroke:#9370DB;}#my-svg .attributeBoxEven{fill:#f2f2f2;stroke:#9370DB;}#my-svg .relationshipLabelBox{fill:hsl(80, 100%, 96.2745098039%);opacity:0.7;background-color:hsl(80, 100%, 96.2745098039%);}#my-svg .relationshipLabelBox rect{opacity:0.5;}#my-svg .relationshipLine{stroke:#333333;}#my-svg .entityTitleText{text-anchor:middle;font-size:18px;fill:#333;}#my-svg #MD_PARENT_START{fill:#f5f5f5!important;stroke:#333333!important;stroke-width:1;}#my-svg #MD_PARENT_END{fill:#f5f5f5!important;stroke:#333333!important;stroke-width:1;}#my-svg :root{--mermaid-font-family:"trebuchet ms",verdana,arial,sans-serif;}</style><g/><defs><marker orient="auto" markerHeight="240" markerWidth="190" refY="7" refX="0" id="MD_PARENT_START"><path d="M 18,7 L9,13 L1,7 L9,1 Z"/></marker></defs><defs><marker orient="auto" markerHeight="28" markerWidth="20" refY="7" refX="19" id="MD_PARENT_END"><path d="M 18,7 L9,13 L1,7 L9,1 Z"/></marker></defs><defs><marker orient="auto" markerHeight="18" markerWidth="18" refY="9" refX="0" id="ONLY_ONE_START"><path d="M9,0 L9,18 M15,0 L15,18" fill="none" stroke="gray"/></marker></defs><defs><marker orient="auto" markerHeight="18" markerWidth="18" refY="9" refX="18" id="ONLY_ONE_END"><path d="M3,0 L3,18 M9,0 L9,18" fill="none" stroke="gray"/></marker></defs><defs><marker orient="auto" markerHeight="18" markerWidth="30" refY="9" refX="0" id="ZERO_OR_ONE_START"><circle r="6" cy="9" cx="21" fill="white" stroke="gray"/><path d="M9,0 L9,18" fill="none" stroke="gray"/></marker></defs><defs><marker orient="auto" markerHeight="18" markerWidth="30" refY="9" refX="30" id="ZERO_OR_ONE_END"><circle r="6" cy="9" cx="9" fill="white" stroke="gray"/><path d="M21,0 L21,18" fill="none" stroke="gray"/></marker></defs><defs><marker orient="auto" markerHeight="36" markerWidth="45" refY="18" refX="18" id="ONE_OR_MORE_START"><path d="M0,18 Q 18,0 36,18 Q 18,36 0,18 M42,9 L42,27" fill="none" stroke="gray"/></marker></defs><defs><marker orient="auto" markerHeight="36" markerWidth="45" refY="18" refX="27" id="ONE_OR_MORE_END"><path d="M3,9 L3,27 M9,18 Q27,0 45,18 Q27,36 9,18" fill="none" stroke="gray"/></marker></defs><defs><marker orient="auto" markerHeight="36" markerWidth="57" refY="18" refX="18" id="ZERO_OR_MORE_START"><circle r="6" cy="18" cx="48" fill="white" stroke="gray"/><path d="M0,18 Q18,0 36,18 Q18,36 0,18" fill="none" stroke="gray"/></marker></defs><defs><marker orient="auto" markerHeight="36" markerWidth="57" refY="18" refX="39" id="ZERO_OR_MORE_END"><circle r="6" cy="18" cx="9" fill="white" stroke="gray"/><path d="M21,18 Q39,0 57,18 Q39,36 21,18" fill="none" stroke="gray"/></marker></defs><path style="stroke: gray; fill: none;" marker-start="url(#ONLY_ONE_START)" marker-end="url(#ZERO_OR_MORE_END)" d="M1198.184,124.525L985.153,147.438C772.122,170.35,346.061,216.175,149.697,248.81C-46.667,281.444,-13.333,300.889,3.333,310.611L20,320.333" class="er relationshipLine"/><path style="stroke: gray; fill: none;" marker-start="url(#ONLY_ONE_START)" marker-end="url(#ZERO_OR_MORE_END)" d="M1198.184,128.087L1051.82,150.406C905.456,172.725,612.728,217.362,466.364,248.015C320,278.667,320,295.333,320,303.667L320,312" class="er relationshipLine"/><path style="stroke: gray; fill: none;" marker-start="url(#ONLY_ONE_START)" marker-end="url(#ZERO_OR_MORE_END)" d="M1198.184,131.3L1085.333,153.084C972.482,174.867,746.78,218.433,633.929,248.55C521.078,278.667,521.078,295.333,521.078,303.667L521.078,312" class="er relationshipLine"/><path style="stroke: gray; fill: none;" marker-start="url(#ONLY_ONE_START)" marker-end="url(#ZERO_OR_MORE_END)" d="M1198.184,137.484L1121.617,158.237C1045.049,178.989,891.915,220.495,815.348,249.581C738.781,278.667,738.781,295.333,738.781,303.667L738.781,312" class="er relationshipLine"/><path style="stroke: gray; fill: none;" marker-start="url(#ONLY_ONE_START)" marker-end="url(#ZERO_OR_MORE_END)" d="M1198.184,152.911L1159.139,171.092C1120.094,189.274,1042.004,225.637,1002.959,252.152C963.914,278.667,963.914,295.333,963.914,303.667L963.914,312" class="er relationshipLine"/><path style="stroke: gray; fill: none;" marker-start="url(#ONLY_ONE_START)" marker-end="url(#ZERO_OR_MORE_END)" d="M1210.594,212L1204.79,220.333C1198.987,228.667,1187.38,245.333,1181.577,262C1175.773,278.667,1175.773,295.333,1175.773,303.667L1175.773,312" class="er relationshipLine"/><path style="stroke: gray; fill: none;" marker-start="url(#ONLY_ONE_START)" marker-end="url(#ZERO_OR_MORE_END)" d="M1344.305,212L1350.108,220.333C1355.911,228.667,1367.518,245.333,1373.322,262C1379.125,278.667,1379.125,295.333,1379.125,303.667L1379.125,312" class="er relationshipLine"/><path style="stroke: gray; fill: none;" marker-start="url(#ONLY_ONE_START)" marker-end="url(#ZERO_OR_MORE_END)" d="M1356.715,152.379L1396.523,170.65C1436.331,188.92,1515.947,225.46,1555.755,252.063C1595.563,278.667,1595.563,295.333,1595.563,303.667L1595.563,312" class="er relationshipLine"/><path style="stroke: gray; fill: none;" marker-start="url(#ONLY_ONE_START)" marker-end="url(#ZERO_OR_MORE_END)" d="M1356.715,137.09L1434.959,157.908C1513.203,178.727,1669.691,220.363,1747.936,249.515C1826.18,278.667,1826.18,295.333,1826.18,303.667L1826.18,312" class="er relationshipLine"/><path style="stroke: gray; fill: none;" marker-start="url(#ONLY_ONE_START)" marker-end="url(#ZERO_OR_MORE_END)" d="M1356.715,131.103L1471.215,152.919C1585.716,174.735,1814.717,218.368,1929.218,248.517C2043.719,278.667,2043.719,295.333,2043.719,303.667L2043.719,312" class="er relationshipLine"/><path style="stroke: gray; fill: none;" marker-start="url(#ONLY_ONE_START)" marker-end="url(#ZERO_OR_MORE_END)" d="M1356.715,127.747L1507.693,150.123C1658.672,172.498,1960.629,217.249,2111.607,247.958C2262.586,278.667,2262.586,295.333,2262.586,303.667L2262.586,312" class="er relationshipLine"/><path style="stroke: gray; fill: none;" marker-start="url(#ONLY_ONE_START)" marker-end="url(#ZERO_OR_MORE_END)" d="M1356.715,125.596L1544.497,148.33C1732.279,171.064,2107.842,216.532,2295.624,247.599C2483.406,278.667,2483.406,295.333,2483.406,303.667L2483.406,312" class="er relationshipLine"/><path style="stroke: gray; fill: none;" marker-start="url(#ONLY_ONE_START)" marker-end="url(#ZERO_OR_MORE_END)" d="M1198.184,125.203L1001.82,148.003C805.456,170.802,412.728,216.401,221.126,247.534C29.524,278.667,39.048,295.333,43.81,303.667L48.571,312" class="er relationshipLine"/><path style="stroke: gray; fill: none;" marker-start="url(#ONLY_ONE_START)" marker-end="url(#ZERO_OR_MORE_END)" d="M1198.184,125.999L1018.486,148.665C838.789,171.332,479.395,216.666,294.935,247.666C110.476,278.667,100.952,295.333,96.19,303.667L91.429,312" class="er relationshipLine"/><path style="stroke: gray; fill: none;" marker-start="url(#ONLY_ONE_START)" marker-end="url(#ZERO_OR_MORE_END)" d="M1198.184,126.944L1035.153,149.453C872.122,171.963,546.061,216.981,366.364,249.213C186.667,281.444,153.333,300.889,136.667,310.611L120,320.333" class="er relationshipLine"/><path style="stroke: gray; fill: none;" marker-start="url(#ONLY_ONE_START)" marker-end="url(#ZERO_OR_MORE_END)" d="M1356.715,124.518L1569.939,147.432C1783.164,170.345,2209.613,216.173,2427.853,247.42C2646.092,278.667,2656.122,295.333,2661.137,303.667L2666.152,312" class="er relationshipLine"/><path style="stroke: gray; fill: none;" marker-start="url(#ONLY_ONE_START)" marker-end="url(#ZERO_OR_MORE_END)" d="M1356.715,123.182L1612.049,146.319C1867.383,169.455,2378.051,215.727,2633.385,247.197C2888.719,278.667,2888.719,295.333,2888.719,303.667L2888.719,312" class="er relationshipLine"/><path style="stroke: gray; fill: none;" marker-start="url(#ONLY_ONE_START)" marker-end="url(#ZERO_OR_MORE_END)" d="M1356.715,123.92L1587.049,146.933C1817.383,169.946,2278.051,215.973,2503.623,247.32C2729.195,278.667,2719.671,295.333,2714.909,303.667L2710.147,312" class="er relationshipLine"/><g transform="translate(1198.18359375,20 )" id="entity-PathologyTest-c2bb89c4-3699-5d3f-bd0e-df4407416e01"><rect height="192" width="158.53125" y="0" x="0" class="er entityBox"/><text style="dominant-baseline: middle; text-anchor: middle; font-size: 12px;" transform="translate(79.265625,12)" y="0" x="0" id="text-entity-PathologyTest-c2bb89c4-3699-5d3f-bd0e-df4407416e01" class="er entityLabel">PathologyTest</text><rect height="21" width="57.0625" y="24" x="0" class="er attributeBoxOdd"/><text style="dominant-baseline: middle; font-size: 10.2px;" transform="translate(5,34.5)" y="0" x="0" id="text-entity-PathologyTest-c2bb89c4-3699-5d3f-bd0e-df4407416e01-attr-1-type" class="er entityLabel">stringList</text><rect height="21" width="101.46875" y="24" x="57.0625" class="er attributeBoxOdd"/><text style="dominant-baseline: middle; font-size: 10.2px;" transform="translate(62.0625,34.5)" y="0" x="0" id="text-entity-PathologyTest-c2bb89c4-3699-5d3f-bd0e-df4407416e01-attr-1-name" class="er entityLabel">normalRange</text><rect height="21" width="57.0625" y="45" x="0" class="er attributeBoxEven"/><text style="dominant-baseline: middle; font-size: 10.2px;" transform="translate(5,55.5)" y="0" x="0" id="text-entity-PathologyTest-c2bb89c4-3699-5d3f-bd0e-df4407416e01-attr-2-type" class="er entityLabel">stringList</text><rect height="21" width="101.46875" y="45" x="57.0625" class="er attributeBoxEven"/><text style="dominant-baseline: middle; font-size: 10.2px;" transform="translate(62.0625,55.5)" y="0" x="0" id="text-entity-PathologyTest-c2bb89c4-3699-5d3f-bd0e-df4407416e01-attr-2-name" class="er entityLabel">legalStatus</text><rect height="21" width="57.0625" y="66" x="0" class="er attributeBoxOdd"/><text style="dominant-baseline: middle; font-size: 10.2px;" transform="translate(5,76.5)" y="0" x="0" id="text-entity-PathologyTest-c2bb89c4-3699-5d3f-bd0e-df4407416e01-attr-3-type" class="er entityLabel">stringList</text><rect height="21" width="101.46875" y="66" x="57.0625" class="er attributeBoxOdd"/><text style="dominant-baseline: middle; font-size: 10.2px;" transform="translate(62.0625,76.5)" y="0" x="0" id="text-entity-PathologyTest-c2bb89c4-3699-5d3f-bd0e-df4407416e01-attr-3-name" class="er entityLabel">additionalType</text><rect height="21" width="57.0625" y="87" x="0" class="er attributeBoxEven"/><text style="dominant-baseline: middle; font-size: 10.2px;" transform="translate(5,97.5)" y="0" x="0" id="text-entity-PathologyTest-c2bb89c4-3699-5d3f-bd0e-df4407416e01-attr-4-type" class="er entityLabel">stringList</text><rect height="21" width="101.46875" y="87" x="57.0625" class="er attributeBoxEven"/><text style="dominant-baseline: middle; font-size: 10.2px;" transform="translate(62.0625,97.5)" y="0" x="0" id="text-entity-PathologyTest-c2bb89c4-3699-5d3f-bd0e-df4407416e01-attr-4-name" class="er entityLabel">description</text><rect height="21" width="57.0625" y="108" x="0" class="er attributeBoxOdd"/><text style="dominant-baseline: middle; font-size: 10.2px;" transform="translate(5,118.5)" y="0" x="0" id="text-entity-PathologyTest-c2bb89c4-3699-5d3f-bd0e-df4407416e01-attr-5-type" class="er entityLabel">stringList</text><rect height="21" width="101.46875" y="108" x="57.0625" class="er attributeBoxOdd"/><text style="dominant-baseline: middle; font-size: 10.2px;" transform="translate(62.0625,118.5)" y="0" x="0" id="text-entity-PathologyTest-c2bb89c4-3699-5d3f-bd0e-df4407416e01-attr-5-name" class="er entityLabel">identifier</text><rect height="21" width="57.0625" y="129" x="0" class="er attributeBoxEven"/><text style="dominant-baseline: middle; font-size: 10.2px;" transform="translate(5,139.5)" y="0" x="0" id="text-entity-PathologyTest-c2bb89c4-3699-5d3f-bd0e-df4407416e01-attr-6-type" class="er entityLabel">stringList</text><rect height="21" width="101.46875" y="129" x="57.0625" class="er attributeBoxEven"/><text style="dominant-baseline: middle; font-size: 10.2px;" transform="translate(62.0625,139.5)" y="0" x="0" id="text-entity-PathologyTest-c2bb89c4-3699-5d3f-bd0e-df4407416e01-attr-6-name" class="er entityLabel">image</text><rect height="21" width="57.0625" y="150" x="0" class="er attributeBoxOdd"/><text style="dominant-baseline: middle; font-size: 10.2px;" transform="translate(5,160.5)" y="0" x="0" id="text-entity-PathologyTest-c2bb89c4-3699-5d3f-bd0e-df4407416e01-attr-7-type" class="er entityLabel">stringList</text><rect height="21" width="101.46875" y="150" x="57.0625" class="er attributeBoxOdd"/><text style="dominant-baseline: middle; font-size: 10.2px;" transform="translate(62.0625,160.5)" y="0" x="0" id="text-entity-PathologyTest-c2bb89c4-3699-5d3f-bd0e-df4407416e01-attr-7-name" class="er entityLabel">mainEntityOfPage</text><rect height="21" width="57.0625" y="171" x="0" class="er attributeBoxEven"/><text style="dominant-baseline: middle; font-size: 10.2px;" transform="translate(5,181.5)" y="0" x="0" id="text-entity-PathologyTest-c2bb89c4-3699-5d3f-bd0e-df4407416e01-attr-8-type" class="er entityLabel">stringList</text><rect height="21" width="101.46875" y="171" x="57.0625" class="er attributeBoxEven"/><text style="dominant-baseline: middle; font-size: 10.2px;" transform="translate(62.0625,181.5)" y="0" x="0" id="text-entity-PathologyTest-c2bb89c4-3699-5d3f-bd0e-df4407416e01-attr-8-name" class="er entityLabel">subjectOf</text></g><g transform="translate(20,312 )" id="entity-Text-426c5d39-acfc-5487-a6d9-ede67887190e"><rect height="75" width="100" y="0" x="0" class="er entityBox"/><text style="dominant-baseline: middle; text-anchor: middle; font-size: 12px;" transform="translate(50,37.5)" y="0" x="0" id="text-entity-Text-426c5d39-acfc-5487-a6d9-ede67887190e" class="er entityLabel">Text</text></g><g transform="translate(270,312 )" id="entity-Drug-eafa91c0-1824-5f2e-9826-905b73217603"><rect height="75" width="100" y="0" x="0" class="er entityBox"/><text style="dominant-baseline: middle; text-anchor: middle; font-size: 12px;" transform="translate(50,37.5)" y="0" x="0" id="text-entity-Drug-eafa91c0-1824-5f2e-9826-905b73217603" class="er entityLabel">Drug</text></g><g transform="translate(470,312 )" id="entity-MedicalSign-32f5b091-3010-5cae-8dbe-0b34bb5eb9aa"><rect height="75" width="102.15625" y="0" x="0" class="er entityBox"/><text style="dominant-baseline: middle; text-anchor: middle; font-size: 12px;" transform="translate(51.078125,37.5)" y="0" x="0" id="text-entity-MedicalSign-32f5b091-3010-5cae-8dbe-0b34bb5eb9aa" class="er entityLabel">MedicalSign</text></g><g transform="translate(672.15625,312 )" id="entity-MedicalCondition-a93e7da7-17aa-5f46-8e3a-8f90076b9104"><rect height="75" width="133.25" y="0" x="0" class="er entityBox"/><text style="dominant-baseline: middle; text-anchor: middle; font-size: 12px;" transform="translate(66.625,37.5)" y="0" x="0" id="text-entity-MedicalCondition-a93e7da7-17aa-5f46-8e3a-8f90076b9104" class="er entityLabel">MedicalCondition</text></g><g transform="translate(905.40625,312 )" id="entity-MedicalDevice-5f6f3c8c-4266-59d7-8529-6d2f742c8c82"><rect height="75" width="117.015625" y="0" x="0" class="er entityBox"/><text style="dominant-baseline: middle; text-anchor: middle; font-size: 12px;" transform="translate(58.5078125,37.5)" y="0" x="0" id="text-entity-MedicalDevice-5f6f3c8c-4266-59d7-8529-6d2f742c8c82" class="er entityLabel">MedicalDevice</text></g><g transform="translate(1122.421875,312 )" id="entity-MedicalCode-340ab1f3-b0e0-51ff-b309-32031f623ceb"><rect height="75" width="106.703125" y="0" x="0" class="er entityBox"/><text style="dominant-baseline: middle; text-anchor: middle; font-size: 12px;" transform="translate(53.3515625,37.5)" y="0" x="0" id="text-entity-MedicalCode-340ab1f3-b0e0-51ff-b309-32031f623ceb" class="er entityLabel">MedicalCode</text></g><g transform="translate(1329.125,312 )" id="entity-Grant-291daf2c-8722-576f-890e-1045bc6484c0"><rect height="75" width="100" y="0" x="0" class="er entityBox"/><text style="dominant-baseline: middle; text-anchor: middle; font-size: 12px;" transform="translate(50,37.5)" y="0" x="0" id="text-entity-Grant-291daf2c-8722-576f-890e-1045bc6484c0" class="er entityLabel">Grant</text></g><g transform="translate(1529.125,312 )" id="entity-MedicalGuideline-a05959e1-803b-55cd-8b3c-b530a54fde23"><rect height="75" width="132.875" y="0" x="0" class="er entityBox"/><text style="dominant-baseline: middle; text-anchor: middle; font-size: 12px;" transform="translate(66.4375,37.5)" y="0" x="0" id="text-entity-MedicalGuideline-a05959e1-803b-55cd-8b3c-b530a54fde23" class="er entityLabel">MedicalGuideline</text></g><g transform="translate(1762,312 )" id="entity-MedicineSystem-74197b84-67e0-5471-ab59-f3fd7c3c0e72"><rect height="75" width="128.359375" y="0" x="0" class="er entityBox"/><text style="dominant-baseline: middle; text-anchor: middle; font-size: 12px;" transform="translate(64.1796875,37.5)" y="0" x="0" id="text-entity-MedicineSystem-74197b84-67e0-5471-ab59-f3fd7c3c0e72" class="er entityLabel">MedicineSystem</text></g><g transform="translate(1990.359375,312 )" id="entity-Organization-ef1721ab-1f62-5ef5-a525-a6c60c2f6032"><rect height="75" width="106.71875" y="0" x="0" class="er entityBox"/><text style="dominant-baseline: middle; text-anchor: middle; font-size: 12px;" transform="translate(53.359375,37.5)" y="0" x="0" id="text-entity-Organization-ef1721ab-1f62-5ef5-a525-a6c60c2f6032" class="er entityLabel">Organization</text></g><g transform="translate(2197.078125,312 )" id="entity-MedicalSpecialty-0f4a20d3-5a5d-5b81-b412-da395afebba8"><rect height="75" width="131.015625" y="0" x="0" class="er entityBox"/><text style="dominant-baseline: middle; text-anchor: middle; font-size: 12px;" transform="translate(65.5078125,37.5)" y="0" x="0" id="text-entity-MedicalSpecialty-0f4a20d3-5a5d-5b81-b412-da395afebba8" class="er entityLabel">MedicalSpecialty</text></g><g transform="translate(2428.09375,312 )" id="entity-MedicalStudy-22dea251-12b7-5654-af29-afad6ffe12b1"><rect height="75" width="110.625" y="0" x="0" class="er entityBox"/><text style="dominant-baseline: middle; text-anchor: middle; font-size: 12px;" transform="translate(55.3125,37.5)" y="0" x="0" id="text-entity-MedicalStudy-22dea251-12b7-5654-af29-afad6ffe12b1" class="er entityLabel">MedicalStudy</text></g><g transform="translate(2638.71875,312 )" id="entity-URL-07f78d3e-fd74-5925-b39b-26c1cc2d6b7c"><rect height="75" width="100" y="0" x="0" class="er entityBox"/><text style="dominant-baseline: middle; text-anchor: middle; font-size: 12px;" transform="translate(50,37.5)" y="0" x="0" id="text-entity-URL-07f78d3e-fd74-5925-b39b-26c1cc2d6b7c" class="er entityLabel">URL</text></g><g transform="translate(2838.71875,312 )" id="entity-Action-6cd87d9a-a078-546e-a35b-bee54f477b31"><rect height="75" width="100" y="0" x="0" class="er entityBox"/><text style="dominant-baseline: middle; text-anchor: middle; font-size: 12px;" transform="translate(50,37.5)" y="0" x="0" id="text-entity-Action-6cd87d9a-a078-546e-a35b-bee54f477b31" class="er entityLabel">Action</text></g><rect height="14" width="80.53125" y="186.5110321044922" x="529.2354125976562" class="er relationshipLabelBox"/><text style="text-anchor: middle; dominant-baseline: middle; font-size: 12px;" y="193.5110321044922" x="569.5010375976562" id="rel1" class="er relationshipLabel">tissueSample</text><rect height="14" width="64.640625" y="190.92916870117188" x="715.4306640625" class="er relationshipLabelBox"/><text style="text-anchor: middle; dominant-baseline: middle; font-size: 12px;" y="197.92916870117188" x="747.7509765625" id="rel2" class="er relationshipLabel">affectedBy</text><rect height="14" width="79.828125" y="193.24148559570312" x="807.3468627929688" class="er relationshipLabelBox"/><text style="text-anchor: middle; dominant-baseline: middle; font-size: 12px;" y="200.24148559570312" x="847.2609252929688" id="rel3" class="er relationshipLabel">signDetected</text><rect height="14" width="97.625" y="197.8291778564453" x="905.756103515625" class="er relationshipLabelBox"/><text style="text-anchor: middle; dominant-baseline: middle; font-size: 12px;" y="204.8291778564453" x="954.568603515625" id="rel4" class="er relationshipLabel">usedToDiagnose</text><rect height="14" width="68.53125" y="209.56150817871094" x="1030.9168701171875" class="er relationshipLabelBox"/><text style="text-anchor: middle; dominant-baseline: middle; font-size: 12px;" y="216.56150817871094" x="1065.1824951171875" id="rel5" class="er relationshipLabel">usesDevice</text><rect height="14" width="28.953125" y="251.53811645507812" x="1168.387451171875" class="er relationshipLabelBox"/><text style="text-anchor: middle; dominant-baseline: middle; font-size: 12px;" y="258.5381164550781" x="1182.864013671875" id="rel6" class="er relationshipLabel">code</text><rect height="14" width="45.609375" y="251.53817749023438" x="1349.22998046875" class="er relationshipLabelBox"/><text style="text-anchor: middle; dominant-baseline: middle; font-size: 12px;" y="258.5381774902344" x="1372.03466796875" id="rel7" class="er relationshipLabel">funding</text><rect height="14" width="55.21875" y="209.1584930419922" x="1464.3646240234375" class="er relationshipLabelBox"/><text style="text-anchor: middle; dominant-baseline: middle; font-size: 12px;" y="216.1584930419922" x="1491.9739990234375" id="rel8" class="er relationshipLabel">guideline</text><rect height="14" width="99.703125" y="197.53468322753906" x="1555.42626953125" class="er relationshipLabelBox"/><text style="text-anchor: middle; dominant-baseline: middle; font-size: 12px;" y="204.53468322753906" x="1605.27783203125" id="rel9" class="er relationshipLabel">medicineSystem</text><rect height="14" width="124.953125" y="193.09796142578125" x="1650.0521240234375" class="er relationshipLabelBox"/><text style="text-anchor: middle; dominant-baseline: middle; font-size: 12px;" y="200.09796142578125" x="1712.5286865234375" id="rel10" class="er relationshipLabel">recognizingAuthority</text><rect height="14" width="104.578125" y="190.68824768066406" x="1768.583251953125" class="er relationshipLabelBox"/><text style="text-anchor: middle; dominant-baseline: middle; font-size: 12px;" y="197.68824768066406" x="1820.872314453125" id="rel11" class="er relationshipLabel">relevantSpecialty</text><rect height="14" width="33.28125" y="189.18247985839844" x="1913.834716796875" class="er relationshipLabelBox"/><text style="text-anchor: middle; dominant-baseline: middle; font-size: 12px;" y="196.18247985839844" x="1930.475341796875" id="rel12" class="er relationshipLabel">study</text><rect height="14" width="89.953125" y="187.92453002929688" x="562.4454345703125" class="er relationshipLabelBox"/><text style="text-anchor: middle; dominant-baseline: middle; font-size: 12px;" y="194.92453002929688" x="607.4219970703125" id="rel13" class="er relationshipLabel">alternateName</text><rect height="14" width="161.390625" y="190.82420349121094" x="556.9873046875" class="er relationshipLabelBox"/><text style="text-anchor: middle; dominant-baseline: middle; font-size: 12px;" y="197.82420349121094" x="637.6826171875" id="rel14" class="er relationshipLabel">disambiguatingDescription</text><rect height="14" width="34.03125" y="196.43954467773438" x="637.1405029296875" class="er relationshipLabelBox"/><text style="text-anchor: middle; dominant-baseline: middle; font-size: 12px;" y="203.43954467773438" x="654.1561279296875" id="rel15" class="er relationshipLabel">name</text><rect height="14" width="47.140625" y="189.69577026367188" x="1994.46875" class="er relationshipLabelBox"/><text style="text-anchor: middle; dominant-baseline: middle; font-size: 12px;" y="196.69577026367188" x="2018.0390625" id="rel16" class="er relationshipLabel">sameAs</text><rect height="14" width="90.96875" y="187.53762817382812" x="2086.619384765625" class="er relationshipLabelBox"/><text style="text-anchor: middle; dominant-baseline: middle; font-size: 12px;" y="194.53762817382812" x="2132.103759765625" id="rel17" class="er relationshipLabel">potentialAction</text><rect height="14" width="15.875" y="187.15557861328125" x="2040.63037109375" class="er relationshipLabelBox"/><text style="text-anchor: middle; dominant-baseline: middle; font-size: 12px;" y="194.15557861328125" x="2048.56787109375" id="rel18" class="er relationshipLabel">url</text></svg>