<svg aria-roledescription="er" role="graphics-document document" viewBox="0 0 2386.384765625 911" style="max-width: 2386.38px; background-color: white;" xmlns:xlink="http://www.w3.org/1999/xlink" xmlns="http://www.w3.org/2000/svg" width="100%" id="my-svg"><style>#my-svg{font-family:"trebuchet ms",verdana,arial,sans-serif;font-size:16px;fill:#333;}#my-svg .error-icon{fill:#552222;}#my-svg .error-text{fill:#552222;stroke:#552222;}#my-svg .edge-thickness-normal{stroke-width:1px;}#my-svg .edge-thickness-thick{stroke-width:3.5px;}#my-svg .edge-pattern-solid{stroke-dasharray:0;}#my-svg .edge-thickness-invisible{stroke-width:0;fill:none;}#my-svg .edge-pattern-dashed{stroke-dasharray:3;}#my-svg .edge-pattern-dotted{stroke-dasharray:2;}#my-svg .marker{fill:#333333;stroke:#333333;}#my-svg .marker.cross{stroke:#333333;}#my-svg svg{font-family:"trebuchet ms",verdana,arial,sans-serif;font-size:16px;}#my-svg p{margin:0;}#my-svg .entityBox{fill:#ECECFF;stroke:#9370DB;}#my-svg .attributeBoxOdd{fill:#ffffff;stroke:#9370DB;}#my-svg .attributeBoxEven{fill:#f2f2f2;stroke:#9370DB;}#my-svg .relationshipLabelBox{fill:hsl(80, 100%, 96.2745098039%);opacity:0.7;background-color:hsl(80, 100%, 96.2745098039%);}#my-svg .relationshipLabelBox rect{opacity:0.5;}#my-svg .relationshipLine{stroke:#333333;}#my-svg .entityTitleText{text-anchor:middle;font-size:18px;fill:#333;}#my-svg #MD_PARENT_START{fill:#f5f5f5!important;stroke:#333333!important;stroke-width:1;}#my-svg #MD_PARENT_END{fill:#f5f5f5!important;stroke:#333333!important;stroke-width:1;}#my-svg :root{--mermaid-font-family:"trebuchet ms",verdana,arial,sans-serif;}</style><g/><defs><marker orient="auto" markerHeight="240" markerWidth="190" refY="7" refX="0" id="MD_PARENT_START"><path d="M 18,7 L9,13 L1,7 L9,1 Z"/></marker></defs><defs><marker orient="auto" markerHeight="28" markerWidth="20" refY="7" refX="19" id="MD_PARENT_END"><path d="M 18,7 L9,13 L1,7 L9,1 Z"/></marker></defs><defs><marker orient="auto" markerHeight="18" markerWidth="18" refY="9" refX="0" id="ONLY_ONE_START"><path d="M9,0 L9,18 M15,0 L15,18" fill="none" stroke="gray"/></marker></defs><defs><marker orient="auto" markerHeight="18" markerWidth="18" refY="9" refX="18" id="ONLY_ONE_END"><path d="M3,0 L3,18 M9,0 L9,18" fill="none" stroke="gray"/></marker></defs><defs><marker orient="auto" markerHeight="18" markerWidth="30" refY="9" refX="0" id="ZERO_OR_ONE_START"><circle r="6" cy="9" cx="21" fill="white" stroke="gray"/><path d="M9,0 L9,18" fill="none" stroke="gray"/></marker></defs><defs><marker orient="auto" markerHeight="18" markerWidth="30" refY="9" refX="30" id="ZERO_OR_ONE_END"><circle r="6" cy="9" cx="9" fill="white" stroke="gray"/><path d="M21,0 L21,18" fill="none" stroke="gray"/></marker></defs><defs><marker orient="auto" markerHeight="36" markerWidth="45" refY="18" refX="18" id="ONE_OR_MORE_START"><path d="M0,18 Q 18,0 36,18 Q 18,36 0,18 M42,9 L42,27" fill="none" stroke="gray"/></marker></defs><defs><marker orient="auto" markerHeight="36" markerWidth="45" refY="18" refX="27" id="ONE_OR_MORE_END"><path d="M3,9 L3,27 M9,18 Q27,0 45,18 Q27,36 9,18" fill="none" stroke="gray"/></marker></defs><defs><marker orient="auto" markerHeight="36" markerWidth="57" refY="18" refX="18" id="ZERO_OR_MORE_START"><circle r="6" cy="18" cx="48" fill="white" stroke="gray"/><path d="M0,18 Q18,0 36,18 Q18,36 0,18" fill="none" stroke="gray"/></marker></defs><defs><marker orient="auto" markerHeight="36" markerWidth="57" refY="18" refX="39" id="ZERO_OR_MORE_END"><circle r="6" cy="18" cx="9" fill="white" stroke="gray"/><path d="M21,18 Q39,0 57,18 Q39,36 21,18" fill="none" stroke="gray"/></marker></defs><path style="stroke: gray; fill: none;" marker-start="url(#ONLY_ONE_START)" marker-end="url(#ZERO_OR_MORE_END)" d="M1069.141,415.555L905.47,473.962C741.799,532.37,414.456,649.185,250.785,715.926C87.114,782.667,87.114,799.333,87.114,807.667L87.114,816" class="er relationshipLine"/><path style="stroke: gray; fill: none;" marker-start="url(#ONLY_ONE_START)" marker-end="url(#ZERO_OR_MORE_END)" d="M1069.141,428.919L946.248,485.099C823.355,541.28,577.569,653.64,454.676,718.153C331.783,782.667,331.783,799.333,331.783,807.667L331.783,816" class="er relationshipLine"/><path style="stroke: gray; fill: none;" marker-start="url(#ONLY_ONE_START)" marker-end="url(#ZERO_OR_MORE_END)" d="M1069.141,450.476L984.174,503.063C899.206,555.651,729.272,660.825,644.305,721.746C559.338,782.667,559.338,799.333,559.338,807.667L559.338,816" class="er relationshipLine"/><path style="stroke: gray; fill: none;" marker-start="url(#ONLY_ONE_START)" marker-end="url(#ZERO_OR_MORE_END)" d="M1069.141,492.082L1020.111,537.735C971.081,583.388,873.022,674.694,823.993,728.68C774.963,782.667,774.963,799.333,774.963,807.667L774.963,816" class="er relationshipLine"/><path style="stroke: gray; fill: none;" marker-start="url(#ONLY_ONE_START)" marker-end="url(#ZERO_OR_MORE_END)" d="M1069.141,564.708L1046.413,598.257C1023.686,631.805,978.23,698.903,961.009,740.785C943.787,782.667,954.799,799.333,960.305,807.667L965.811,816" class="er relationshipLine"/><path style="stroke: gray; fill: none;" marker-start="url(#ONLY_ONE_START)" marker-end="url(#ZERO_OR_MORE_END)" d="M1202.4,716L1202.4,724.333C1202.4,732.667,1202.4,749.333,1202.4,766C1202.4,782.667,1202.4,799.333,1202.4,807.667L1202.4,816" class="er relationshipLine"/><path style="stroke: gray; fill: none;" marker-start="url(#ONLY_ONE_START)" marker-end="url(#ZERO_OR_MORE_END)" d="M1335.66,616.5L1349.022,641.417C1362.383,666.334,1389.107,716.167,1402.468,749.417C1415.83,782.667,1415.83,799.333,1415.83,807.667L1415.83,816" class="er relationshipLine"/><path style="stroke: gray; fill: none;" marker-start="url(#ONLY_ONE_START)" marker-end="url(#ZERO_OR_MORE_END)" d="M1335.66,494.85L1383.135,540.042C1430.61,585.234,1525.56,675.617,1573.035,729.142C1620.51,782.667,1620.51,799.333,1620.51,807.667L1620.51,816" class="er relationshipLine"/><path style="stroke: gray; fill: none;" marker-start="url(#ONLY_ONE_START)" marker-end="url(#ZERO_OR_MORE_END)" d="M1335.66,447.447L1424.713,500.54C1513.766,553.632,1691.872,659.816,1780.925,721.241C1869.979,782.667,1869.979,799.333,1869.979,807.667L1869.979,816" class="er relationshipLine"/><path style="stroke: gray; fill: none;" marker-start="url(#ONLY_ONE_START)" marker-end="url(#ZERO_OR_MORE_END)" d="M1335.66,431.081L1453.58,486.901C1571.501,542.721,1807.341,654.36,1932.233,718.514C2057.125,782.667,2071.069,799.333,2078.04,807.667L2085.012,816" class="er relationshipLine"/><path style="stroke: gray; fill: none;" marker-start="url(#ONLY_ONE_START)" marker-end="url(#ZERO_OR_MORE_END)" d="M1335.66,415.61L1499.114,474.009C1662.568,532.407,1989.477,649.203,2152.931,715.935C2316.385,782.667,2316.385,799.333,2316.385,807.667L2316.385,816" class="er relationshipLine"/><path style="stroke: gray; fill: none;" marker-start="url(#ONLY_ONE_START)" marker-end="url(#ZERO_OR_MORE_END)" d="M1069.141,708.187L1065.366,717.823C1061.592,727.458,1054.043,746.729,1044.944,764.698C1035.845,782.667,1025.197,799.333,1019.872,807.667L1014.548,816" class="er relationshipLine"/><path style="stroke: gray; fill: none;" marker-start="url(#ONLY_ONE_START)" marker-end="url(#ZERO_OR_MORE_END)" d="M1335.66,423.019L1474.114,480.182C1612.568,537.346,1889.477,651.673,2023.169,717.17C2156.861,782.667,2147.337,799.333,2142.575,807.667L2137.813,816" class="er relationshipLine"/><g transform="translate(1069.1407165527344,20 )" id="entity-PaymentCard-904ebc17-c368-5fea-8f61-f27ff9a58958"><rect height="696" width="266.51934814453125" y="0" x="0" class="er entityBox"/><text style="dominant-baseline: middle; text-anchor: middle; font-size: 12px;" transform="translate(133.25967407226562,12)" y="0" x="0" id="text-entity-PaymentCard-904ebc17-c368-5fea-8f61-f27ff9a58958" class="er entityLabel">PaymentCard</text><rect height="21" width="69.06622314453125" y="24" x="0" class="er attributeBoxOdd"/><text style="dominant-baseline: middle; font-size: 10.2px;" transform="translate(5,34.5)" y="0" x="0" id="text-entity-PaymentCard-904ebc17-c368-5fea-8f61-f27ff9a58958-attr-1-type" class="er entityLabel">stringList</text><rect height="21" width="197.453125" y="24" x="69.06622314453125" class="er attributeBoxOdd"/><text style="dominant-baseline: middle; font-size: 10.2px;" transform="translate(74.06622314453125,34.5)" y="0" x="0" id="text-entity-PaymentCard-904ebc17-c368-5fea-8f61-f27ff9a58958-attr-1-name" class="er entityLabel">cashBack</text><rect height="21" width="69.06622314453125" y="45" x="0" class="er attributeBoxEven"/><text style="dominant-baseline: middle; font-size: 10.2px;" transform="translate(5,55.5)" y="0" x="0" id="text-entity-PaymentCard-904ebc17-c368-5fea-8f61-f27ff9a58958-attr-2-type" class="er entityLabel">BooleanList</text><rect height="21" width="197.453125" y="45" x="69.06622314453125" class="er attributeBoxEven"/><text style="dominant-baseline: middle; font-size: 10.2px;" transform="translate(74.06622314453125,55.5)" y="0" x="0" id="text-entity-PaymentCard-904ebc17-c368-5fea-8f61-f27ff9a58958-attr-2-name" class="er entityLabel">contactlessPayment</text><rect height="21" width="69.06622314453125" y="66" x="0" class="er attributeBoxOdd"/><text style="dominant-baseline: middle; font-size: 10.2px;" transform="translate(5,76.5)" y="0" x="0" id="text-entity-PaymentCard-904ebc17-c368-5fea-8f61-f27ff9a58958-attr-3-type" class="er entityLabel">stringList</text><rect height="21" width="197.453125" y="66" x="69.06622314453125" class="er attributeBoxOdd"/><text style="dominant-baseline: middle; font-size: 10.2px;" transform="translate(74.06622314453125,76.5)" y="0" x="0" id="text-entity-PaymentCard-904ebc17-c368-5fea-8f61-f27ff9a58958-attr-3-name" class="er entityLabel">monthlyMinimumRepaymentAmount</text><rect height="21" width="69.06622314453125" y="87" x="0" class="er attributeBoxEven"/><text style="dominant-baseline: middle; font-size: 10.2px;" transform="translate(5,97.5)" y="0" x="0" id="text-entity-PaymentCard-904ebc17-c368-5fea-8f61-f27ff9a58958-attr-4-type" class="er entityLabel">stringList</text><rect height="21" width="197.453125" y="87" x="69.06622314453125" class="er attributeBoxEven"/><text style="dominant-baseline: middle; font-size: 10.2px;" transform="translate(74.06622314453125,97.5)" y="0" x="0" id="text-entity-PaymentCard-904ebc17-c368-5fea-8f61-f27ff9a58958-attr-4-name" class="er entityLabel">annualPercentageRate</text><rect height="21" width="69.06622314453125" y="108" x="0" class="er attributeBoxOdd"/><text style="dominant-baseline: middle; font-size: 10.2px;" transform="translate(5,118.5)" y="0" x="0" id="text-entity-PaymentCard-904ebc17-c368-5fea-8f61-f27ff9a58958-attr-5-type" class="er entityLabel">stringList</text><rect height="21" width="197.453125" y="108" x="69.06622314453125" class="er attributeBoxOdd"/><text style="dominant-baseline: middle; font-size: 10.2px;" transform="translate(74.06622314453125,118.5)" y="0" x="0" id="text-entity-PaymentCard-904ebc17-c368-5fea-8f61-f27ff9a58958-attr-5-name" class="er entityLabel">feesAndCommissionsSpecification</text><rect height="21" width="69.06622314453125" y="129" x="0" class="er attributeBoxEven"/><text style="dominant-baseline: middle; font-size: 10.2px;" transform="translate(5,139.5)" y="0" x="0" id="text-entity-PaymentCard-904ebc17-c368-5fea-8f61-f27ff9a58958-attr-6-type" class="er entityLabel">stringList</text><rect height="21" width="197.453125" y="129" x="69.06622314453125" class="er attributeBoxEven"/><text style="dominant-baseline: middle; font-size: 10.2px;" transform="translate(74.06622314453125,139.5)" y="0" x="0" id="text-entity-PaymentCard-904ebc17-c368-5fea-8f61-f27ff9a58958-attr-6-name" class="er entityLabel">interestRate</text><rect height="21" width="69.06622314453125" y="150" x="0" class="er attributeBoxOdd"/><text style="dominant-baseline: middle; font-size: 10.2px;" transform="translate(5,160.5)" y="0" x="0" id="text-entity-PaymentCard-904ebc17-c368-5fea-8f61-f27ff9a58958-attr-7-type" class="er entityLabel">stringList</text><rect height="21" width="197.453125" y="150" x="69.06622314453125" class="er attributeBoxOdd"/><text style="dominant-baseline: middle; font-size: 10.2px;" transform="translate(74.06622314453125,160.5)" y="0" x="0" id="text-entity-PaymentCard-904ebc17-c368-5fea-8f61-f27ff9a58958-attr-7-name" class="er entityLabel">additionalType</text><rect height="21" width="69.06622314453125" y="171" x="0" class="er attributeBoxEven"/><text style="dominant-baseline: middle; font-size: 10.2px;" transform="translate(5,181.5)" y="0" x="0" id="text-entity-PaymentCard-904ebc17-c368-5fea-8f61-f27ff9a58958-attr-8-type" class="er entityLabel">TextList</text><rect height="21" width="197.453125" y="171" x="69.06622314453125" class="er attributeBoxEven"/><text style="dominant-baseline: middle; font-size: 10.2px;" transform="translate(74.06622314453125,181.5)" y="0" x="0" id="text-entity-PaymentCard-904ebc17-c368-5fea-8f61-f27ff9a58958-attr-8-name" class="er entityLabel">alternateName</text><rect height="21" width="69.06622314453125" y="192" x="0" class="er attributeBoxOdd"/><text style="dominant-baseline: middle; font-size: 10.2px;" transform="translate(5,202.5)" y="0" x="0" id="text-entity-PaymentCard-904ebc17-c368-5fea-8f61-f27ff9a58958-attr-9-type" class="er entityLabel">stringList</text><rect height="21" width="197.453125" y="192" x="69.06622314453125" class="er attributeBoxOdd"/><text style="dominant-baseline: middle; font-size: 10.2px;" transform="translate(74.06622314453125,202.5)" y="0" x="0" id="text-entity-PaymentCard-904ebc17-c368-5fea-8f61-f27ff9a58958-attr-9-name" class="er entityLabel">description</text><rect height="21" width="69.06622314453125" y="213" x="0" class="er attributeBoxEven"/><text style="dominant-baseline: middle; font-size: 10.2px;" transform="translate(5,223.5)" y="0" x="0" id="text-entity-PaymentCard-904ebc17-c368-5fea-8f61-f27ff9a58958-attr-10-type" class="er entityLabel">TextList</text><rect height="21" width="197.453125" y="213" x="69.06622314453125" class="er attributeBoxEven"/><text style="dominant-baseline: middle; font-size: 10.2px;" transform="translate(74.06622314453125,223.5)" y="0" x="0" id="text-entity-PaymentCard-904ebc17-c368-5fea-8f61-f27ff9a58958-attr-10-name" class="er entityLabel">disambiguatingDescription</text><rect height="21" width="69.06622314453125" y="234" x="0" class="er attributeBoxOdd"/><text style="dominant-baseline: middle; font-size: 10.2px;" transform="translate(5,244.5)" y="0" x="0" id="text-entity-PaymentCard-904ebc17-c368-5fea-8f61-f27ff9a58958-attr-11-type" class="er entityLabel">stringList</text><rect height="21" width="197.453125" y="234" x="69.06622314453125" class="er attributeBoxOdd"/><text style="dominant-baseline: middle; font-size: 10.2px;" transform="translate(74.06622314453125,244.5)" y="0" x="0" id="text-entity-PaymentCard-904ebc17-c368-5fea-8f61-f27ff9a58958-attr-11-name" class="er entityLabel">identifier</text><rect height="21" width="69.06622314453125" y="255" x="0" class="er attributeBoxEven"/><text style="dominant-baseline: middle; font-size: 10.2px;" transform="translate(5,265.5)" y="0" x="0" id="text-entity-PaymentCard-904ebc17-c368-5fea-8f61-f27ff9a58958-attr-12-type" class="er entityLabel">stringList</text><rect height="21" width="197.453125" y="255" x="69.06622314453125" class="er attributeBoxEven"/><text style="dominant-baseline: middle; font-size: 10.2px;" transform="translate(74.06622314453125,265.5)" y="0" x="0" id="text-entity-PaymentCard-904ebc17-c368-5fea-8f61-f27ff9a58958-attr-12-name" class="er entityLabel">image</text><rect height="21" width="69.06622314453125" y="276" x="0" class="er attributeBoxOdd"/><text style="dominant-baseline: middle; font-size: 10.2px;" transform="translate(5,286.5)" y="0" x="0" id="text-entity-PaymentCard-904ebc17-c368-5fea-8f61-f27ff9a58958-attr-13-type" class="er entityLabel">TextList</text><rect height="21" width="197.453125" y="276" x="69.06622314453125" class="er attributeBoxOdd"/><text style="dominant-baseline: middle; font-size: 10.2px;" transform="translate(74.06622314453125,286.5)" y="0" x="0" id="text-entity-PaymentCard-904ebc17-c368-5fea-8f61-f27ff9a58958-attr-13-name" class="er entityLabel">name</text><rect height="21" width="69.06622314453125" y="297" x="0" class="er attributeBoxEven"/><text style="dominant-baseline: middle; font-size: 10.2px;" transform="translate(5,307.5)" y="0" x="0" id="text-entity-PaymentCard-904ebc17-c368-5fea-8f61-f27ff9a58958-attr-14-type" class="er entityLabel">URLList</text><rect height="21" width="197.453125" y="297" x="69.06622314453125" class="er attributeBoxEven"/><text style="dominant-baseline: middle; font-size: 10.2px;" transform="translate(74.06622314453125,307.5)" y="0" x="0" id="text-entity-PaymentCard-904ebc17-c368-5fea-8f61-f27ff9a58958-attr-14-name" class="er entityLabel">sameAs</text><rect height="21" width="69.06622314453125" y="318" x="0" class="er attributeBoxOdd"/><text style="dominant-baseline: middle; font-size: 10.2px;" transform="translate(5,328.5)" y="0" x="0" id="text-entity-PaymentCard-904ebc17-c368-5fea-8f61-f27ff9a58958-attr-15-type" class="er entityLabel">stringList</text><rect height="21" width="197.453125" y="318" x="69.06622314453125" class="er attributeBoxOdd"/><text style="dominant-baseline: middle; font-size: 10.2px;" transform="translate(74.06622314453125,328.5)" y="0" x="0" id="text-entity-PaymentCard-904ebc17-c368-5fea-8f61-f27ff9a58958-attr-15-name" class="er entityLabel">mainEntityOfPage</text><rect height="21" width="69.06622314453125" y="339" x="0" class="er attributeBoxEven"/><text style="dominant-baseline: middle; font-size: 10.2px;" transform="translate(5,349.5)" y="0" x="0" id="text-entity-PaymentCard-904ebc17-c368-5fea-8f61-f27ff9a58958-attr-16-type" class="er entityLabel">stringList</text><rect height="21" width="197.453125" y="339" x="69.06622314453125" class="er attributeBoxEven"/><text style="dominant-baseline: middle; font-size: 10.2px;" transform="translate(74.06622314453125,349.5)" y="0" x="0" id="text-entity-PaymentCard-904ebc17-c368-5fea-8f61-f27ff9a58958-attr-16-name" class="er entityLabel">subjectOf</text><rect height="21" width="69.06622314453125" y="360" x="0" class="er attributeBoxOdd"/><text style="dominant-baseline: middle; font-size: 10.2px;" transform="translate(5,370.5)" y="0" x="0" id="text-entity-PaymentCard-904ebc17-c368-5fea-8f61-f27ff9a58958-attr-17-type" class="er entityLabel">URLList</text><rect height="21" width="197.453125" y="360" x="69.06622314453125" class="er attributeBoxOdd"/><text style="dominant-baseline: middle; font-size: 10.2px;" transform="translate(74.06622314453125,370.5)" y="0" x="0" id="text-entity-PaymentCard-904ebc17-c368-5fea-8f61-f27ff9a58958-attr-17-name" class="er entityLabel">url</text><rect height="21" width="69.06622314453125" y="381" x="0" class="er attributeBoxEven"/><text style="dominant-baseline: middle; font-size: 10.2px;" transform="translate(5,391.5)" y="0" x="0" id="text-entity-PaymentCard-904ebc17-c368-5fea-8f61-f27ff9a58958-attr-18-type" class="er entityLabel">stringList</text><rect height="21" width="197.453125" y="381" x="69.06622314453125" class="er attributeBoxEven"/><text style="dominant-baseline: middle; font-size: 10.2px;" transform="translate(74.06622314453125,391.5)" y="0" x="0" id="text-entity-PaymentCard-904ebc17-c368-5fea-8f61-f27ff9a58958-attr-18-name" class="er entityLabel">areaServed</text><rect height="21" width="69.06622314453125" y="402" x="0" class="er attributeBoxOdd"/><text style="dominant-baseline: middle; font-size: 10.2px;" transform="translate(5,412.5)" y="0" x="0" id="text-entity-PaymentCard-904ebc17-c368-5fea-8f61-f27ff9a58958-attr-19-type" class="er entityLabel">stringList</text><rect height="21" width="197.453125" y="402" x="69.06622314453125" class="er attributeBoxOdd"/><text style="dominant-baseline: middle; font-size: 10.2px;" transform="translate(74.06622314453125,412.5)" y="0" x="0" id="text-entity-PaymentCard-904ebc17-c368-5fea-8f61-f27ff9a58958-attr-19-name" class="er entityLabel">category</text><rect height="21" width="69.06622314453125" y="423" x="0" class="er attributeBoxEven"/><text style="dominant-baseline: middle; font-size: 10.2px;" transform="translate(5,433.5)" y="0" x="0" id="text-entity-PaymentCard-904ebc17-c368-5fea-8f61-f27ff9a58958-attr-20-type" class="er entityLabel">stringList</text><rect height="21" width="197.453125" y="423" x="69.06622314453125" class="er attributeBoxEven"/><text style="dominant-baseline: middle; font-size: 10.2px;" transform="translate(74.06622314453125,433.5)" y="0" x="0" id="text-entity-PaymentCard-904ebc17-c368-5fea-8f61-f27ff9a58958-attr-20-name" class="er entityLabel">logo</text><rect height="21" width="69.06622314453125" y="444" x="0" class="er attributeBoxOdd"/><text style="dominant-baseline: middle; font-size: 10.2px;" transform="translate(5,454.5)" y="0" x="0" id="text-entity-PaymentCard-904ebc17-c368-5fea-8f61-f27ff9a58958-attr-21-type" class="er entityLabel">TextList</text><rect height="21" width="197.453125" y="444" x="69.06622314453125" class="er attributeBoxOdd"/><text style="dominant-baseline: middle; font-size: 10.2px;" transform="translate(74.06622314453125,454.5)" y="0" x="0" id="text-entity-PaymentCard-904ebc17-c368-5fea-8f61-f27ff9a58958-attr-21-name" class="er entityLabel">award</text><rect height="21" width="69.06622314453125" y="465" x="0" class="er attributeBoxEven"/><text style="dominant-baseline: middle; font-size: 10.2px;" transform="translate(5,475.5)" y="0" x="0" id="text-entity-PaymentCard-904ebc17-c368-5fea-8f61-f27ff9a58958-attr-22-type" class="er entityLabel">stringList</text><rect height="21" width="197.453125" y="465" x="69.06622314453125" class="er attributeBoxEven"/><text style="dominant-baseline: middle; font-size: 10.2px;" transform="translate(74.06622314453125,475.5)" y="0" x="0" id="text-entity-PaymentCard-904ebc17-c368-5fea-8f61-f27ff9a58958-attr-22-name" class="er entityLabel">brand</text><rect height="21" width="69.06622314453125" y="486" x="0" class="er attributeBoxOdd"/><text style="dominant-baseline: middle; font-size: 10.2px;" transform="translate(5,496.5)" y="0" x="0" id="text-entity-PaymentCard-904ebc17-c368-5fea-8f61-f27ff9a58958-attr-23-type" class="er entityLabel">stringList</text><rect height="21" width="197.453125" y="486" x="69.06622314453125" class="er attributeBoxOdd"/><text style="dominant-baseline: middle; font-size: 10.2px;" transform="translate(74.06622314453125,496.5)" y="0" x="0" id="text-entity-PaymentCard-904ebc17-c368-5fea-8f61-f27ff9a58958-attr-23-name" class="er entityLabel">broker</text><rect height="21" width="69.06622314453125" y="507" x="0" class="er attributeBoxEven"/><text style="dominant-baseline: middle; font-size: 10.2px;" transform="translate(5,517.5)" y="0" x="0" id="text-entity-PaymentCard-904ebc17-c368-5fea-8f61-f27ff9a58958-attr-24-type" class="er entityLabel">stringList</text><rect height="21" width="197.453125" y="507" x="69.06622314453125" class="er attributeBoxEven"/><text style="dominant-baseline: middle; font-size: 10.2px;" transform="translate(74.06622314453125,517.5)" y="0" x="0" id="text-entity-PaymentCard-904ebc17-c368-5fea-8f61-f27ff9a58958-attr-24-name" class="er entityLabel">isRelatedTo</text><rect height="21" width="69.06622314453125" y="528" x="0" class="er attributeBoxOdd"/><text style="dominant-baseline: middle; font-size: 10.2px;" transform="translate(5,538.5)" y="0" x="0" id="text-entity-PaymentCard-904ebc17-c368-5fea-8f61-f27ff9a58958-attr-25-type" class="er entityLabel">stringList</text><rect height="21" width="197.453125" y="528" x="69.06622314453125" class="er attributeBoxOdd"/><text style="dominant-baseline: middle; font-size: 10.2px;" transform="translate(74.06622314453125,538.5)" y="0" x="0" id="text-entity-PaymentCard-904ebc17-c368-5fea-8f61-f27ff9a58958-attr-25-name" class="er entityLabel">isSimilarTo</text><rect height="21" width="69.06622314453125" y="549" x="0" class="er attributeBoxEven"/><text style="dominant-baseline: middle; font-size: 10.2px;" transform="translate(5,559.5)" y="0" x="0" id="text-entity-PaymentCard-904ebc17-c368-5fea-8f61-f27ff9a58958-attr-26-type" class="er entityLabel">stringList</text><rect height="21" width="197.453125" y="549" x="69.06622314453125" class="er attributeBoxEven"/><text style="dominant-baseline: middle; font-size: 10.2px;" transform="translate(74.06622314453125,559.5)" y="0" x="0" id="text-entity-PaymentCard-904ebc17-c368-5fea-8f61-f27ff9a58958-attr-26-name" class="er entityLabel">offers</text><rect height="21" width="69.06622314453125" y="570" x="0" class="er attributeBoxOdd"/><text style="dominant-baseline: middle; font-size: 10.2px;" transform="translate(5,580.5)" y="0" x="0" id="text-entity-PaymentCard-904ebc17-c368-5fea-8f61-f27ff9a58958-attr-27-type" class="er entityLabel">stringList</text><rect height="21" width="197.453125" y="570" x="69.06622314453125" class="er attributeBoxOdd"/><text style="dominant-baseline: middle; font-size: 10.2px;" transform="translate(74.06622314453125,580.5)" y="0" x="0" id="text-entity-PaymentCard-904ebc17-c368-5fea-8f61-f27ff9a58958-attr-27-name" class="er entityLabel">provider</text><rect height="21" width="69.06622314453125" y="591" x="0" class="er attributeBoxEven"/><text style="dominant-baseline: middle; font-size: 10.2px;" transform="translate(5,601.5)" y="0" x="0" id="text-entity-PaymentCard-904ebc17-c368-5fea-8f61-f27ff9a58958-attr-28-type" class="er entityLabel">TextList</text><rect height="21" width="197.453125" y="591" x="69.06622314453125" class="er attributeBoxEven"/><text style="dominant-baseline: middle; font-size: 10.2px;" transform="translate(74.06622314453125,601.5)" y="0" x="0" id="text-entity-PaymentCard-904ebc17-c368-5fea-8f61-f27ff9a58958-attr-28-name" class="er entityLabel">providerMobility</text><rect height="21" width="69.06622314453125" y="612" x="0" class="er attributeBoxOdd"/><text style="dominant-baseline: middle; font-size: 10.2px;" transform="translate(5,622.5)" y="0" x="0" id="text-entity-PaymentCard-904ebc17-c368-5fea-8f61-f27ff9a58958-attr-29-type" class="er entityLabel">stringList</text><rect height="21" width="197.453125" y="612" x="69.06622314453125" class="er attributeBoxOdd"/><text style="dominant-baseline: middle; font-size: 10.2px;" transform="translate(74.06622314453125,622.5)" y="0" x="0" id="text-entity-PaymentCard-904ebc17-c368-5fea-8f61-f27ff9a58958-attr-29-name" class="er entityLabel">serviceArea</text><rect height="21" width="69.06622314453125" y="633" x="0" class="er attributeBoxEven"/><text style="dominant-baseline: middle; font-size: 10.2px;" transform="translate(5,643.5)" y="0" x="0" id="text-entity-PaymentCard-904ebc17-c368-5fea-8f61-f27ff9a58958-attr-30-type" class="er entityLabel">stringList</text><rect height="21" width="197.453125" y="633" x="69.06622314453125" class="er attributeBoxEven"/><text style="dominant-baseline: middle; font-size: 10.2px;" transform="translate(74.06622314453125,643.5)" y="0" x="0" id="text-entity-PaymentCard-904ebc17-c368-5fea-8f61-f27ff9a58958-attr-30-name" class="er entityLabel">serviceType</text><rect height="21" width="69.06622314453125" y="654" x="0" class="er attributeBoxOdd"/><text style="dominant-baseline: middle; font-size: 10.2px;" transform="translate(5,664.5)" y="0" x="0" id="text-entity-PaymentCard-904ebc17-c368-5fea-8f61-f27ff9a58958-attr-31-type" class="er entityLabel">TextList</text><rect height="21" width="197.453125" y="654" x="69.06622314453125" class="er attributeBoxOdd"/><text style="dominant-baseline: middle; font-size: 10.2px;" transform="translate(74.06622314453125,664.5)" y="0" x="0" id="text-entity-PaymentCard-904ebc17-c368-5fea-8f61-f27ff9a58958-attr-31-name" class="er entityLabel">slogan</text><rect height="21" width="69.06622314453125" y="675" x="0" class="er attributeBoxEven"/><text style="dominant-baseline: middle; font-size: 10.2px;" transform="translate(5,685.5)" y="0" x="0" id="text-entity-PaymentCard-904ebc17-c368-5fea-8f61-f27ff9a58958-attr-32-type" class="er entityLabel">stringList</text><rect height="21" width="197.453125" y="675" x="69.06622314453125" class="er attributeBoxEven"/><text style="dominant-baseline: middle; font-size: 10.2px;" transform="translate(74.06622314453125,685.5)" y="0" x="0" id="text-entity-PaymentCard-904ebc17-c368-5fea-8f61-f27ff9a58958-attr-32-name" class="er entityLabel">termsOfService</text></g><g transform="translate(20,816 )" id="entity-MonetaryAmount-99d98e1d-dae3-555c-a0b3-eeec7bd13c3e"><rect height="75" width="134.228515625" y="0" x="0" class="er entityBox"/><text style="dominant-baseline: middle; text-anchor: middle; font-size: 12px;" transform="translate(67.1142578125,37.5)" y="0" x="0" id="text-entity-MonetaryAmount-99d98e1d-dae3-555c-a0b3-eeec7bd13c3e" class="er entityLabel">MonetaryAmount</text></g><g transform="translate(254.228515625,816 )" id="entity-PaymentMethodType-d208bc60-309a-55de-b7b3-2349600a8439"><rect height="75" width="155.109375" y="0" x="0" class="er entityBox"/><text style="dominant-baseline: middle; text-anchor: middle; font-size: 12px;" transform="translate(77.5546875,37.5)" y="0" x="0" id="text-entity-PaymentMethodType-d208bc60-309a-55de-b7b3-2349600a8439" class="er entityLabel">PaymentMethodType</text></g><g transform="translate(509.337890625,816 )" id="entity-Action-6cd87d9a-a078-546e-a35b-bee54f477b31"><rect height="75" width="100" y="0" x="0" class="er entityBox"/><text style="dominant-baseline: middle; text-anchor: middle; font-size: 12px;" transform="translate(50,37.5)" y="0" x="0" id="text-entity-Action-6cd87d9a-a078-546e-a35b-bee54f477b31" class="er entityLabel">Action</text></g><g transform="translate(709.337890625,816 )" id="entity-AggregateRating-aa0a8837-178a-57ab-baa0-94ad30d90eb5"><rect height="75" width="131.25" y="0" x="0" class="er entityBox"/><text style="dominant-baseline: middle; text-anchor: middle; font-size: 12px;" transform="translate(65.625,37.5)" y="0" x="0" id="text-entity-AggregateRating-aa0a8837-178a-57ab-baa0-94ad30d90eb5" class="er entityLabel">AggregateRating</text></g><g transform="translate(940.587890625,816 )" id="entity-Audience-f784d19a-7c58-5869-868f-14b9086fca44"><rect height="75" width="100" y="0" x="0" class="er entityBox"/><text style="dominant-baseline: middle; text-anchor: middle; font-size: 12px;" transform="translate(50,37.5)" y="0" x="0" id="text-entity-Audience-f784d19a-7c58-5869-868f-14b9086fca44" class="er entityLabel">Audience</text></g><g transform="translate(1140.587890625,816 )" id="entity-ServiceChannel-5f9e70a6-8dc6-5d0f-a871-3e775d52af1b"><rect height="75" width="123.625" y="0" x="0" class="er entityBox"/><text style="dominant-baseline: middle; text-anchor: middle; font-size: 12px;" transform="translate(61.8125,37.5)" y="0" x="0" id="text-entity-ServiceChannel-5f9e70a6-8dc6-5d0f-a871-3e775d52af1b" class="er entityLabel">ServiceChannel</text></g><g transform="translate(1364.212890625,816 )" id="entity-Certification-8b250de0-929b-5806-8c87-f8e7c928ef36"><rect height="75" width="103.234375" y="0" x="0" class="er entityBox"/><text style="dominant-baseline: middle; text-anchor: middle; font-size: 12px;" transform="translate(51.6171875,37.5)" y="0" x="0" id="text-entity-Certification-8b250de0-929b-5806-8c87-f8e7c928ef36" class="er entityLabel">Certification</text></g><g transform="translate(1567.447265625,816 )" id="entity-OfferCatalog-e4b8efcd-db96-5dc8-b042-81a3acf3e3fe"><rect height="75" width="106.125" y="0" x="0" class="er entityBox"/><text style="dominant-baseline: middle; text-anchor: middle; font-size: 12px;" transform="translate(53.0625,37.5)" y="0" x="0" id="text-entity-OfferCatalog-e4b8efcd-db96-5dc8-b042-81a3acf3e3fe" class="er entityLabel">OfferCatalog</text></g><g transform="translate(1773.572265625,816 )" id="entity-OpeningHoursSpecification-677aa64f-a506-5d18-b5d1-75a0f22f6986"><rect height="75" width="192.8125" y="0" x="0" class="er entityBox"/><text style="dominant-baseline: middle; text-anchor: middle; font-size: 12px;" transform="translate(96.40625,37.5)" y="0" x="0" id="text-entity-OpeningHoursSpecification-677aa64f-a506-5d18-b5d1-75a0f22f6986" class="er entityLabel">OpeningHoursSpecification</text></g><g transform="translate(2066.384765625,816 )" id="entity-Thing-27bc9527-b992-59fc-a0fb-da83e2ff80bf"><rect height="75" width="100" y="0" x="0" class="er entityBox"/><text style="dominant-baseline: middle; text-anchor: middle; font-size: 12px;" transform="translate(50,37.5)" y="0" x="0" id="text-entity-Thing-27bc9527-b992-59fc-a0fb-da83e2ff80bf" class="er entityLabel">Thing</text></g><g transform="translate(2266.384765625,816 )" id="entity-Review-77c92a79-8cff-50c0-9604-f9135763cccd"><rect height="75" width="100" y="0" x="0" class="er entityBox"/><text style="dominant-baseline: middle; text-anchor: middle; font-size: 12px;" transform="translate(50,37.5)" y="0" x="0" id="text-entity-Review-77c92a79-8cff-50c0-9604-f9135763cccd" class="er entityLabel">Review</text></g><rect height="14" width="57.21875" y="589.6612548828125" x="536.2841796875" class="er relationshipLabelBox"/><text style="text-anchor: middle; dominant-baseline: middle; font-size: 12px;" y="596.6612548828125" x="564.8935546875" id="rel1" class="er relationshipLabel">floorLimit</text><rect height="14" width="126.03125" y="598.1671752929688" x="623.2388916015625" class="er relationshipLabelBox"/><text style="text-anchor: middle; dominant-baseline: middle; font-size: 12px;" y="605.1671752929688" x="686.2545166015625" id="rel2" class="er relationshipLabel">paymentMethodType</text><rect height="14" width="90.96875" y="611.7901611328125" x="753.8189086914062" class="er relationshipLabelBox"/><text style="text-anchor: middle; dominant-baseline: middle; font-size: 12px;" y="618.7901611328125" x="799.3032836914062" id="rel3" class="er relationshipLabel">potentialAction</text><rect height="14" width="100.390625" y="637.0932006835938" x="857.3153686523438" class="er relationshipLabelBox"/><text style="text-anchor: middle; dominant-baseline: middle; font-size: 12px;" y="644.0932006835938" x="907.5106811523438" id="rel4" class="er relationshipLabel">aggregateRating</text><rect height="14" width="54.890625" y="677.649169921875" x="963.0441284179688" class="er relationshipLabelBox"/><text style="text-anchor: middle; dominant-baseline: middle; font-size: 12px;" y="684.649169921875" x="990.4894409179688" id="rel5" class="er relationshipLabel">audience</text><rect height="14" width="103.4375" y="759" x="1150.6812744140625" class="er relationshipLabelBox"/><text style="text-anchor: middle; dominant-baseline: middle; font-size: 12px;" y="766" x="1202.4000244140625" id="rel6" class="er relationshipLabel">availableChannel</text><rect height="14" width="94.453125" y="705.8114013671875" x="1338.72216796875" class="er relationshipLabelBox"/><text style="text-anchor: middle; dominant-baseline: middle; font-size: 12px;" y="712.8114013671875" x="1385.94873046875" id="rel7" class="er relationshipLabel">hasCertification</text><rect height="14" width="97.328125" y="638.7241821289062" x="1443.887451171875" class="er relationshipLabelBox"/><text style="text-anchor: middle; dominant-baseline: middle; font-size: 12px;" y="645.7241821289062" x="1492.551513671875" id="rel8" class="er relationshipLabel">hasOfferCatalog</text><rect height="14" width="88.0625" y="609.8923950195312" x="1573.673583984375" class="er relationshipLabelBox"/><text style="text-anchor: middle; dominant-baseline: middle; font-size: 12px;" y="616.8923950195312" x="1617.704833984375" id="rel9" class="er relationshipLabel">hoursAvailable</text><rect height="14" width="55.09375" y="605.4639892578125" x="1689.508056640625" class="er relationshipLabelBox"/><text style="text-anchor: middle; dominant-baseline: middle; font-size: 12px;" y="612.4639892578125" x="1717.054931640625" id="rel10" class="er relationshipLabel">produces</text><rect height="14" width="39.87109375" y="589.6964721679688" x="1819.3260498046875" class="er relationshipLabelBox"/><text style="text-anchor: middle; dominant-baseline: middle; font-size: 12px;" y="596.6964721679688" x="1839.2615966796875" id="rel11" class="er relationshipLabel">review</text><rect height="14" width="98.71875" y="756.875732421875" x="995.997802734375" class="er relationshipLabelBox"/><text style="text-anchor: middle; dominant-baseline: middle; font-size: 12px;" y="763.875732421875" x="1045.357177734375" id="rel12" class="er relationshipLabel">serviceAudience</text><rect height="14" width="84.962890625" y="591.8738403320312" x="1715.742919921875" class="er relationshipLabelBox"/><text style="text-anchor: middle; dominant-baseline: middle; font-size: 12px;" y="598.8738403320312" x="1758.224365234375" id="rel13" class="er relationshipLabel">serviceOutput</text></svg>