<svg aria-roledescription="er" role="graphics-document document" viewBox="0 0 2874.6015625 680" style="max-width: 2874.6px; background-color: white;" xmlns:xlink="http://www.w3.org/1999/xlink" xmlns="http://www.w3.org/2000/svg" width="100%" id="my-svg"><style>#my-svg{font-family:"trebuchet ms",verdana,arial,sans-serif;font-size:16px;fill:#333;}#my-svg .error-icon{fill:#552222;}#my-svg .error-text{fill:#552222;stroke:#552222;}#my-svg .edge-thickness-normal{stroke-width:1px;}#my-svg .edge-thickness-thick{stroke-width:3.5px;}#my-svg .edge-pattern-solid{stroke-dasharray:0;}#my-svg .edge-thickness-invisible{stroke-width:0;fill:none;}#my-svg .edge-pattern-dashed{stroke-dasharray:3;}#my-svg .edge-pattern-dotted{stroke-dasharray:2;}#my-svg .marker{fill:#333333;stroke:#333333;}#my-svg .marker.cross{stroke:#333333;}#my-svg svg{font-family:"trebuchet ms",verdana,arial,sans-serif;font-size:16px;}#my-svg p{margin:0;}#my-svg .entityBox{fill:#ECECFF;stroke:#9370DB;}#my-svg .attributeBoxOdd{fill:#ffffff;stroke:#9370DB;}#my-svg .attributeBoxEven{fill:#f2f2f2;stroke:#9370DB;}#my-svg .relationshipLabelBox{fill:hsl(80, 100%, 96.2745098039%);opacity:0.7;background-color:hsl(80, 100%, 96.2745098039%);}#my-svg .relationshipLabelBox rect{opacity:0.5;}#my-svg .relationshipLine{stroke:#333333;}#my-svg .entityTitleText{text-anchor:middle;font-size:18px;fill:#333;}#my-svg #MD_PARENT_START{fill:#f5f5f5!important;stroke:#333333!important;stroke-width:1;}#my-svg #MD_PARENT_END{fill:#f5f5f5!important;stroke:#333333!important;stroke-width:1;}#my-svg :root{--mermaid-font-family:"trebuchet ms",verdana,arial,sans-serif;}</style><g/><defs><marker orient="auto" markerHeight="240" markerWidth="190" refY="7" refX="0" id="MD_PARENT_START"><path d="M 18,7 L9,13 L1,7 L9,1 Z"/></marker></defs><defs><marker orient="auto" markerHeight="28" markerWidth="20" refY="7" refX="19" id="MD_PARENT_END"><path d="M 18,7 L9,13 L1,7 L9,1 Z"/></marker></defs><defs><marker orient="auto" markerHeight="18" markerWidth="18" refY="9" refX="0" id="ONLY_ONE_START"><path d="M9,0 L9,18 M15,0 L15,18" fill="none" stroke="gray"/></marker></defs><defs><marker orient="auto" markerHeight="18" markerWidth="18" refY="9" refX="18" id="ONLY_ONE_END"><path d="M3,0 L3,18 M9,0 L9,18" fill="none" stroke="gray"/></marker></defs><defs><marker orient="auto" markerHeight="18" markerWidth="30" refY="9" refX="0" id="ZERO_OR_ONE_START"><circle r="6" cy="9" cx="21" fill="white" stroke="gray"/><path d="M9,0 L9,18" fill="none" stroke="gray"/></marker></defs><defs><marker orient="auto" markerHeight="18" markerWidth="30" refY="9" refX="30" id="ZERO_OR_ONE_END"><circle r="6" cy="9" cx="9" fill="white" stroke="gray"/><path d="M21,0 L21,18" fill="none" stroke="gray"/></marker></defs><defs><marker orient="auto" markerHeight="36" markerWidth="45" refY="18" refX="18" id="ONE_OR_MORE_START"><path d="M0,18 Q 18,0 36,18 Q 18,36 0,18 M42,9 L42,27" fill="none" stroke="gray"/></marker></defs><defs><marker orient="auto" markerHeight="36" markerWidth="45" refY="18" refX="27" id="ONE_OR_MORE_END"><path d="M3,9 L3,27 M9,18 Q27,0 45,18 Q27,36 9,18" fill="none" stroke="gray"/></marker></defs><defs><marker orient="auto" markerHeight="36" markerWidth="57" refY="18" refX="18" id="ZERO_OR_MORE_START"><circle r="6" cy="18" cx="48" fill="white" stroke="gray"/><path d="M0,18 Q18,0 36,18 Q18,36 0,18" fill="none" stroke="gray"/></marker></defs><defs><marker orient="auto" markerHeight="36" markerWidth="57" refY="18" refX="39" id="ZERO_OR_MORE_END"><circle r="6" cy="18" cx="9" fill="white" stroke="gray"/><path d="M21,18 Q39,0 57,18 Q39,36 21,18" fill="none" stroke="gray"/></marker></defs><path style="stroke: gray; fill: none;" marker-start="url(#ONLY_ONE_START)" marker-end="url(#ZERO_OR_MORE_END)" d="M1098.512,282.884L931.686,324.904C764.859,366.923,431.207,450.961,264.381,501.314C97.555,551.667,97.555,568.333,97.555,576.667L97.555,585" class="er relationshipLine"/><path style="stroke: gray; fill: none;" marker-start="url(#ONLY_ONE_START)" marker-end="url(#ZERO_OR_MORE_END)" d="M1098.512,285.859L948.352,327.382C798.193,368.906,497.874,451.953,381.048,505.143C264.221,558.333,330.888,581.667,364.221,593.333L397.555,605" class="er relationshipLine"/><path style="stroke: gray; fill: none;" marker-start="url(#ONLY_ONE_START)" marker-end="url(#ZERO_OR_MORE_END)" d="M1098.512,289.478L965.019,330.399C831.526,371.319,564.54,453.159,447.714,503.802C330.888,554.444,364.221,573.889,380.888,583.611L397.555,593.333" class="er relationshipLine"/><path style="stroke: gray; fill: none;" marker-start="url(#ONLY_ONE_START)" marker-end="url(#ZERO_OR_MORE_END)" d="M1098.512,293.979L981.686,334.149C864.859,374.319,631.207,454.66,519.143,503.163C407.078,551.667,416.602,568.333,421.364,576.667L426.126,585" class="er relationshipLine"/><path style="stroke: gray; fill: none;" marker-start="url(#ONLY_ONE_START)" marker-end="url(#ZERO_OR_MORE_END)" d="M1098.512,333.334L1048.352,366.945C998.193,400.556,897.874,467.778,852.476,509.722C807.078,551.667,816.602,568.333,821.364,576.667L826.126,585" class="er relationshipLine"/><path style="stroke: gray; fill: none;" marker-start="url(#ONLY_ONE_START)" marker-end="url(#ZERO_OR_MORE_END)" d="M1098.512,451.106L1090.019,465.088C1081.526,479.071,1064.54,507.035,1056.048,529.351C1047.555,551.667,1047.555,568.333,1047.555,576.667L1047.555,585" class="er relationshipLine"/><path style="stroke: gray; fill: none;" marker-start="url(#ONLY_ONE_START)" marker-end="url(#ZERO_OR_MORE_END)" d="M1098.512,358.47L1065.019,387.891C1031.526,417.313,964.54,476.157,926.286,513.912C888.031,551.667,878.507,568.333,873.745,576.667L868.983,585" class="er relationshipLine"/><path style="stroke: gray; fill: none;" marker-start="url(#ONLY_ONE_START)" marker-end="url(#ZERO_OR_MORE_END)" d="M1255.386,485L1256.685,493.333C1257.984,501.667,1260.582,518.333,1261.881,535C1263.18,551.667,1263.18,568.333,1263.18,576.667L1263.18,585" class="er relationshipLine"/><path style="stroke: gray; fill: none;" marker-start="url(#ONLY_ONE_START)" marker-end="url(#ZERO_OR_MORE_END)" d="M1339.777,421.334L1353.313,440.278C1366.849,459.223,1393.921,497.111,1412.962,524.389C1432.004,551.667,1443.016,568.333,1448.522,576.667L1454.028,585" class="er relationshipLine"/><path style="stroke: gray; fill: none;" marker-start="url(#ONLY_ONE_START)" marker-end="url(#ZERO_OR_MORE_END)" d="M1339.777,324.782L1398.251,359.818C1456.724,394.854,1573.671,464.927,1632.144,508.297C1690.617,551.667,1690.617,568.333,1690.617,576.667L1690.617,585" class="er relationshipLine"/><path style="stroke: gray; fill: none;" marker-start="url(#ONLY_ONE_START)" marker-end="url(#ZERO_OR_MORE_END)" d="M1098.512,299.727L998.352,338.939C898.193,378.152,697.874,456.576,592.952,504.121C488.031,551.667,478.507,568.333,473.745,576.667L468.983,585" class="er relationshipLine"/><path style="stroke: gray; fill: none;" marker-start="url(#ONLY_ONE_START)" marker-end="url(#ZERO_OR_MORE_END)" d="M1339.777,302.257L1433.822,341.048C1527.867,379.838,1715.957,457.419,1810.002,504.543C1904.047,551.667,1904.047,568.333,1904.047,576.667L1904.047,585" class="er relationshipLine"/><path style="stroke: gray; fill: none;" marker-start="url(#ONLY_ONE_START)" marker-end="url(#ZERO_OR_MORE_END)" d="M1339.777,290.809L1467.936,331.507C1596.094,372.206,1852.41,453.603,1980.568,502.635C2108.727,551.667,2108.727,568.333,2108.727,576.667L2108.727,585" class="er relationshipLine"/><path style="stroke: gray; fill: none;" marker-start="url(#ONLY_ONE_START)" marker-end="url(#ZERO_OR_MORE_END)" d="M1339.777,282.419L1509.514,324.515C1679.25,366.612,2018.723,450.806,2188.459,501.236C2358.195,551.667,2358.195,568.333,2358.195,576.667L2358.195,585" class="er relationshipLine"/><path style="stroke: gray; fill: none;" marker-start="url(#ONLY_ONE_START)" marker-end="url(#ZERO_OR_MORE_END)" d="M1339.777,278.47L1538.381,321.225C1736.984,363.98,2134.191,449.49,2339.767,500.578C2545.342,551.667,2559.285,568.333,2566.257,576.667L2573.229,585" class="er relationshipLine"/><path style="stroke: gray; fill: none;" marker-start="url(#ONLY_ONE_START)" marker-end="url(#ZERO_OR_MORE_END)" d="M1098.512,307.325L1015.019,345.271C931.526,383.217,764.54,459.108,664.381,506.776C564.221,554.444,530.888,573.889,514.221,583.611L497.555,593.333" class="er relationshipLine"/><path style="stroke: gray; fill: none;" marker-start="url(#ONLY_ONE_START)" marker-end="url(#ZERO_OR_MORE_END)" d="M1339.777,273.995L1583.915,317.496C1828.052,360.996,2316.327,447.998,2560.464,499.832C2804.602,551.667,2804.602,568.333,2804.602,576.667L2804.602,585" class="er relationshipLine"/><path style="stroke: gray; fill: none;" marker-start="url(#ONLY_ONE_START)" marker-end="url(#ZERO_OR_MORE_END)" d="M1339.777,360.492L1372.266,389.577C1404.755,418.662,1469.733,476.831,1496.898,514.249C1524.062,551.667,1513.413,568.333,1508.089,576.667L1502.765,585" class="er relationshipLine"/><path style="stroke: gray; fill: none;" marker-start="url(#ONLY_ONE_START)" marker-end="url(#ZERO_OR_MORE_END)" d="M1339.777,276.241L1558.915,319.367C1778.052,362.494,2216.327,448.747,2430.702,500.207C2645.078,551.667,2635.554,568.333,2630.792,576.667L2626.03,585" class="er relationshipLine"/><path style="stroke: gray; fill: none;" marker-start="url(#ONLY_ONE_START)" marker-end="url(#ZERO_OR_MORE_END)" d="M1098.512,317.836L1031.686,354.03C964.859,390.224,831.207,462.612,731.048,510.473C630.888,558.333,564.221,581.667,530.888,593.333L497.555,605" class="er relationshipLine"/><g transform="translate(1098.51171875,20 )" id="entity-PaymentService-66744209-fb58-5e3a-a2a0-969cafc48514"><rect height="465" width="241.265625" y="0" x="0" class="er entityBox"/><text style="dominant-baseline: middle; text-anchor: middle; font-size: 12px;" transform="translate(120.6328125,12)" y="0" x="0" id="text-entity-PaymentService-66744209-fb58-5e3a-a2a0-969cafc48514" class="er entityLabel">PaymentService</text><rect height="21" width="57.0625" y="24" x="0" class="er attributeBoxOdd"/><text style="dominant-baseline: middle; font-size: 10.2px;" transform="translate(5,34.5)" y="0" x="0" id="text-entity-PaymentService-66744209-fb58-5e3a-a2a0-969cafc48514-attr-1-type" class="er entityLabel">stringList</text><rect height="21" width="184.203125" y="24" x="57.0625" class="er attributeBoxOdd"/><text style="dominant-baseline: middle; font-size: 10.2px;" transform="translate(62.0625,34.5)" y="0" x="0" id="text-entity-PaymentService-66744209-fb58-5e3a-a2a0-969cafc48514-attr-1-name" class="er entityLabel">annualPercentageRate</text><rect height="21" width="57.0625" y="45" x="0" class="er attributeBoxEven"/><text style="dominant-baseline: middle; font-size: 10.2px;" transform="translate(5,55.5)" y="0" x="0" id="text-entity-PaymentService-66744209-fb58-5e3a-a2a0-969cafc48514-attr-2-type" class="er entityLabel">stringList</text><rect height="21" width="184.203125" y="45" x="57.0625" class="er attributeBoxEven"/><text style="dominant-baseline: middle; font-size: 10.2px;" transform="translate(62.0625,55.5)" y="0" x="0" id="text-entity-PaymentService-66744209-fb58-5e3a-a2a0-969cafc48514-attr-2-name" class="er entityLabel">feesAndCommissionsSpecification</text><rect height="21" width="57.0625" y="66" x="0" class="er attributeBoxOdd"/><text style="dominant-baseline: middle; font-size: 10.2px;" transform="translate(5,76.5)" y="0" x="0" id="text-entity-PaymentService-66744209-fb58-5e3a-a2a0-969cafc48514-attr-3-type" class="er entityLabel">stringList</text><rect height="21" width="184.203125" y="66" x="57.0625" class="er attributeBoxOdd"/><text style="dominant-baseline: middle; font-size: 10.2px;" transform="translate(62.0625,76.5)" y="0" x="0" id="text-entity-PaymentService-66744209-fb58-5e3a-a2a0-969cafc48514-attr-3-name" class="er entityLabel">interestRate</text><rect height="21" width="57.0625" y="87" x="0" class="er attributeBoxEven"/><text style="dominant-baseline: middle; font-size: 10.2px;" transform="translate(5,97.5)" y="0" x="0" id="text-entity-PaymentService-66744209-fb58-5e3a-a2a0-969cafc48514-attr-4-type" class="er entityLabel">stringList</text><rect height="21" width="184.203125" y="87" x="57.0625" class="er attributeBoxEven"/><text style="dominant-baseline: middle; font-size: 10.2px;" transform="translate(62.0625,97.5)" y="0" x="0" id="text-entity-PaymentService-66744209-fb58-5e3a-a2a0-969cafc48514-attr-4-name" class="er entityLabel">additionalType</text><rect height="21" width="57.0625" y="108" x="0" class="er attributeBoxOdd"/><text style="dominant-baseline: middle; font-size: 10.2px;" transform="translate(5,118.5)" y="0" x="0" id="text-entity-PaymentService-66744209-fb58-5e3a-a2a0-969cafc48514-attr-5-type" class="er entityLabel">stringList</text><rect height="21" width="184.203125" y="108" x="57.0625" class="er attributeBoxOdd"/><text style="dominant-baseline: middle; font-size: 10.2px;" transform="translate(62.0625,118.5)" y="0" x="0" id="text-entity-PaymentService-66744209-fb58-5e3a-a2a0-969cafc48514-attr-5-name" class="er entityLabel">description</text><rect height="21" width="57.0625" y="129" x="0" class="er attributeBoxEven"/><text style="dominant-baseline: middle; font-size: 10.2px;" transform="translate(5,139.5)" y="0" x="0" id="text-entity-PaymentService-66744209-fb58-5e3a-a2a0-969cafc48514-attr-6-type" class="er entityLabel">stringList</text><rect height="21" width="184.203125" y="129" x="57.0625" class="er attributeBoxEven"/><text style="dominant-baseline: middle; font-size: 10.2px;" transform="translate(62.0625,139.5)" y="0" x="0" id="text-entity-PaymentService-66744209-fb58-5e3a-a2a0-969cafc48514-attr-6-name" class="er entityLabel">identifier</text><rect height="21" width="57.0625" y="150" x="0" class="er attributeBoxOdd"/><text style="dominant-baseline: middle; font-size: 10.2px;" transform="translate(5,160.5)" y="0" x="0" id="text-entity-PaymentService-66744209-fb58-5e3a-a2a0-969cafc48514-attr-7-type" class="er entityLabel">stringList</text><rect height="21" width="184.203125" y="150" x="57.0625" class="er attributeBoxOdd"/><text style="dominant-baseline: middle; font-size: 10.2px;" transform="translate(62.0625,160.5)" y="0" x="0" id="text-entity-PaymentService-66744209-fb58-5e3a-a2a0-969cafc48514-attr-7-name" class="er entityLabel">image</text><rect height="21" width="57.0625" y="171" x="0" class="er attributeBoxEven"/><text style="dominant-baseline: middle; font-size: 10.2px;" transform="translate(5,181.5)" y="0" x="0" id="text-entity-PaymentService-66744209-fb58-5e3a-a2a0-969cafc48514-attr-8-type" class="er entityLabel">stringList</text><rect height="21" width="184.203125" y="171" x="57.0625" class="er attributeBoxEven"/><text style="dominant-baseline: middle; font-size: 10.2px;" transform="translate(62.0625,181.5)" y="0" x="0" id="text-entity-PaymentService-66744209-fb58-5e3a-a2a0-969cafc48514-attr-8-name" class="er entityLabel">mainEntityOfPage</text><rect height="21" width="57.0625" y="192" x="0" class="er attributeBoxOdd"/><text style="dominant-baseline: middle; font-size: 10.2px;" transform="translate(5,202.5)" y="0" x="0" id="text-entity-PaymentService-66744209-fb58-5e3a-a2a0-969cafc48514-attr-9-type" class="er entityLabel">stringList</text><rect height="21" width="184.203125" y="192" x="57.0625" class="er attributeBoxOdd"/><text style="dominant-baseline: middle; font-size: 10.2px;" transform="translate(62.0625,202.5)" y="0" x="0" id="text-entity-PaymentService-66744209-fb58-5e3a-a2a0-969cafc48514-attr-9-name" class="er entityLabel">subjectOf</text><rect height="21" width="57.0625" y="213" x="0" class="er attributeBoxEven"/><text style="dominant-baseline: middle; font-size: 10.2px;" transform="translate(5,223.5)" y="0" x="0" id="text-entity-PaymentService-66744209-fb58-5e3a-a2a0-969cafc48514-attr-10-type" class="er entityLabel">stringList</text><rect height="21" width="184.203125" y="213" x="57.0625" class="er attributeBoxEven"/><text style="dominant-baseline: middle; font-size: 10.2px;" transform="translate(62.0625,223.5)" y="0" x="0" id="text-entity-PaymentService-66744209-fb58-5e3a-a2a0-969cafc48514-attr-10-name" class="er entityLabel">areaServed</text><rect height="21" width="57.0625" y="234" x="0" class="er attributeBoxOdd"/><text style="dominant-baseline: middle; font-size: 10.2px;" transform="translate(5,244.5)" y="0" x="0" id="text-entity-PaymentService-66744209-fb58-5e3a-a2a0-969cafc48514-attr-11-type" class="er entityLabel">stringList</text><rect height="21" width="184.203125" y="234" x="57.0625" class="er attributeBoxOdd"/><text style="dominant-baseline: middle; font-size: 10.2px;" transform="translate(62.0625,244.5)" y="0" x="0" id="text-entity-PaymentService-66744209-fb58-5e3a-a2a0-969cafc48514-attr-11-name" class="er entityLabel">category</text><rect height="21" width="57.0625" y="255" x="0" class="er attributeBoxEven"/><text style="dominant-baseline: middle; font-size: 10.2px;" transform="translate(5,265.5)" y="0" x="0" id="text-entity-PaymentService-66744209-fb58-5e3a-a2a0-969cafc48514-attr-12-type" class="er entityLabel">stringList</text><rect height="21" width="184.203125" y="255" x="57.0625" class="er attributeBoxEven"/><text style="dominant-baseline: middle; font-size: 10.2px;" transform="translate(62.0625,265.5)" y="0" x="0" id="text-entity-PaymentService-66744209-fb58-5e3a-a2a0-969cafc48514-attr-12-name" class="er entityLabel">logo</text><rect height="21" width="57.0625" y="276" x="0" class="er attributeBoxOdd"/><text style="dominant-baseline: middle; font-size: 10.2px;" transform="translate(5,286.5)" y="0" x="0" id="text-entity-PaymentService-66744209-fb58-5e3a-a2a0-969cafc48514-attr-13-type" class="er entityLabel">stringList</text><rect height="21" width="184.203125" y="276" x="57.0625" class="er attributeBoxOdd"/><text style="dominant-baseline: middle; font-size: 10.2px;" transform="translate(62.0625,286.5)" y="0" x="0" id="text-entity-PaymentService-66744209-fb58-5e3a-a2a0-969cafc48514-attr-13-name" class="er entityLabel">brand</text><rect height="21" width="57.0625" y="297" x="0" class="er attributeBoxEven"/><text style="dominant-baseline: middle; font-size: 10.2px;" transform="translate(5,307.5)" y="0" x="0" id="text-entity-PaymentService-66744209-fb58-5e3a-a2a0-969cafc48514-attr-14-type" class="er entityLabel">stringList</text><rect height="21" width="184.203125" y="297" x="57.0625" class="er attributeBoxEven"/><text style="dominant-baseline: middle; font-size: 10.2px;" transform="translate(62.0625,307.5)" y="0" x="0" id="text-entity-PaymentService-66744209-fb58-5e3a-a2a0-969cafc48514-attr-14-name" class="er entityLabel">broker</text><rect height="21" width="57.0625" y="318" x="0" class="er attributeBoxOdd"/><text style="dominant-baseline: middle; font-size: 10.2px;" transform="translate(5,328.5)" y="0" x="0" id="text-entity-PaymentService-66744209-fb58-5e3a-a2a0-969cafc48514-attr-15-type" class="er entityLabel">stringList</text><rect height="21" width="184.203125" y="318" x="57.0625" class="er attributeBoxOdd"/><text style="dominant-baseline: middle; font-size: 10.2px;" transform="translate(62.0625,328.5)" y="0" x="0" id="text-entity-PaymentService-66744209-fb58-5e3a-a2a0-969cafc48514-attr-15-name" class="er entityLabel">isRelatedTo</text><rect height="21" width="57.0625" y="339" x="0" class="er attributeBoxEven"/><text style="dominant-baseline: middle; font-size: 10.2px;" transform="translate(5,349.5)" y="0" x="0" id="text-entity-PaymentService-66744209-fb58-5e3a-a2a0-969cafc48514-attr-16-type" class="er entityLabel">stringList</text><rect height="21" width="184.203125" y="339" x="57.0625" class="er attributeBoxEven"/><text style="dominant-baseline: middle; font-size: 10.2px;" transform="translate(62.0625,349.5)" y="0" x="0" id="text-entity-PaymentService-66744209-fb58-5e3a-a2a0-969cafc48514-attr-16-name" class="er entityLabel">isSimilarTo</text><rect height="21" width="57.0625" y="360" x="0" class="er attributeBoxOdd"/><text style="dominant-baseline: middle; font-size: 10.2px;" transform="translate(5,370.5)" y="0" x="0" id="text-entity-PaymentService-66744209-fb58-5e3a-a2a0-969cafc48514-attr-17-type" class="er entityLabel">stringList</text><rect height="21" width="184.203125" y="360" x="57.0625" class="er attributeBoxOdd"/><text style="dominant-baseline: middle; font-size: 10.2px;" transform="translate(62.0625,370.5)" y="0" x="0" id="text-entity-PaymentService-66744209-fb58-5e3a-a2a0-969cafc48514-attr-17-name" class="er entityLabel">offers</text><rect height="21" width="57.0625" y="381" x="0" class="er attributeBoxEven"/><text style="dominant-baseline: middle; font-size: 10.2px;" transform="translate(5,391.5)" y="0" x="0" id="text-entity-PaymentService-66744209-fb58-5e3a-a2a0-969cafc48514-attr-18-type" class="er entityLabel">stringList</text><rect height="21" width="184.203125" y="381" x="57.0625" class="er attributeBoxEven"/><text style="dominant-baseline: middle; font-size: 10.2px;" transform="translate(62.0625,391.5)" y="0" x="0" id="text-entity-PaymentService-66744209-fb58-5e3a-a2a0-969cafc48514-attr-18-name" class="er entityLabel">provider</text><rect height="21" width="57.0625" y="402" x="0" class="er attributeBoxOdd"/><text style="dominant-baseline: middle; font-size: 10.2px;" transform="translate(5,412.5)" y="0" x="0" id="text-entity-PaymentService-66744209-fb58-5e3a-a2a0-969cafc48514-attr-19-type" class="er entityLabel">stringList</text><rect height="21" width="184.203125" y="402" x="57.0625" class="er attributeBoxOdd"/><text style="dominant-baseline: middle; font-size: 10.2px;" transform="translate(62.0625,412.5)" y="0" x="0" id="text-entity-PaymentService-66744209-fb58-5e3a-a2a0-969cafc48514-attr-19-name" class="er entityLabel">serviceArea</text><rect height="21" width="57.0625" y="423" x="0" class="er attributeBoxEven"/><text style="dominant-baseline: middle; font-size: 10.2px;" transform="translate(5,433.5)" y="0" x="0" id="text-entity-PaymentService-66744209-fb58-5e3a-a2a0-969cafc48514-attr-20-type" class="er entityLabel">stringList</text><rect height="21" width="184.203125" y="423" x="57.0625" class="er attributeBoxEven"/><text style="dominant-baseline: middle; font-size: 10.2px;" transform="translate(62.0625,433.5)" y="0" x="0" id="text-entity-PaymentService-66744209-fb58-5e3a-a2a0-969cafc48514-attr-20-name" class="er entityLabel">serviceType</text><rect height="21" width="57.0625" y="444" x="0" class="er attributeBoxOdd"/><text style="dominant-baseline: middle; font-size: 10.2px;" transform="translate(5,454.5)" y="0" x="0" id="text-entity-PaymentService-66744209-fb58-5e3a-a2a0-969cafc48514-attr-21-type" class="er entityLabel">stringList</text><rect height="21" width="184.203125" y="444" x="57.0625" class="er attributeBoxOdd"/><text style="dominant-baseline: middle; font-size: 10.2px;" transform="translate(62.0625,454.5)" y="0" x="0" id="text-entity-PaymentService-66744209-fb58-5e3a-a2a0-969cafc48514-attr-21-name" class="er entityLabel">termsOfService</text></g><g transform="translate(20,585 )" id="entity-PaymentMethodType-d208bc60-309a-55de-b7b3-2349600a8439"><rect height="75" width="155.109375" y="0" x="0" class="er entityBox"/><text style="dominant-baseline: middle; text-anchor: middle; font-size: 12px;" transform="translate(77.5546875,37.5)" y="0" x="0" id="text-entity-PaymentMethodType-d208bc60-309a-55de-b7b3-2349600a8439" class="er entityLabel">PaymentMethodType</text></g><g transform="translate(397.5546875,585 )" id="entity-Text-426c5d39-acfc-5487-a6d9-ede67887190e"><rect height="75" width="100" y="0" x="0" class="er entityBox"/><text style="dominant-baseline: middle; text-anchor: middle; font-size: 12px;" transform="translate(50,37.5)" y="0" x="0" id="text-entity-Text-426c5d39-acfc-5487-a6d9-ede67887190e" class="er entityLabel">Text</text></g><g transform="translate(797.5546875,585 )" id="entity-URL-07f78d3e-fd74-5925-b39b-26c1cc2d6b7c"><rect height="75" width="100" y="0" x="0" class="er entityBox"/><text style="dominant-baseline: middle; text-anchor: middle; font-size: 12px;" transform="translate(50,37.5)" y="0" x="0" id="text-entity-URL-07f78d3e-fd74-5925-b39b-26c1cc2d6b7c" class="er entityLabel">URL</text></g><g transform="translate(997.5546875,585 )" id="entity-Action-6cd87d9a-a078-546e-a35b-bee54f477b31"><rect height="75" width="100" y="0" x="0" class="er entityBox"/><text style="dominant-baseline: middle; text-anchor: middle; font-size: 12px;" transform="translate(50,37.5)" y="0" x="0" id="text-entity-Action-6cd87d9a-a078-546e-a35b-bee54f477b31" class="er entityLabel">Action</text></g><g transform="translate(1197.5546875,585 )" id="entity-AggregateRating-aa0a8837-178a-57ab-baa0-94ad30d90eb5"><rect height="75" width="131.25" y="0" x="0" class="er entityBox"/><text style="dominant-baseline: middle; text-anchor: middle; font-size: 12px;" transform="translate(65.625,37.5)" y="0" x="0" id="text-entity-AggregateRating-aa0a8837-178a-57ab-baa0-94ad30d90eb5" class="er entityLabel">AggregateRating</text></g><g transform="translate(1428.8046875,585 )" id="entity-Audience-f784d19a-7c58-5869-868f-14b9086fca44"><rect height="75" width="100" y="0" x="0" class="er entityBox"/><text style="dominant-baseline: middle; text-anchor: middle; font-size: 12px;" transform="translate(50,37.5)" y="0" x="0" id="text-entity-Audience-f784d19a-7c58-5869-868f-14b9086fca44" class="er entityLabel">Audience</text></g><g transform="translate(1628.8046875,585 )" id="entity-ServiceChannel-5f9e70a6-8dc6-5d0f-a871-3e775d52af1b"><rect height="75" width="123.625" y="0" x="0" class="er entityBox"/><text style="dominant-baseline: middle; text-anchor: middle; font-size: 12px;" transform="translate(61.8125,37.5)" y="0" x="0" id="text-entity-ServiceChannel-5f9e70a6-8dc6-5d0f-a871-3e775d52af1b" class="er entityLabel">ServiceChannel</text></g><g transform="translate(1852.4296875,585 )" id="entity-Certification-8b250de0-929b-5806-8c87-f8e7c928ef36"><rect height="75" width="103.234375" y="0" x="0" class="er entityBox"/><text style="dominant-baseline: middle; text-anchor: middle; font-size: 12px;" transform="translate(51.6171875,37.5)" y="0" x="0" id="text-entity-Certification-8b250de0-929b-5806-8c87-f8e7c928ef36" class="er entityLabel">Certification</text></g><g transform="translate(2055.6640625,585 )" id="entity-OfferCatalog-e4b8efcd-db96-5dc8-b042-81a3acf3e3fe"><rect height="75" width="106.125" y="0" x="0" class="er entityBox"/><text style="dominant-baseline: middle; text-anchor: middle; font-size: 12px;" transform="translate(53.0625,37.5)" y="0" x="0" id="text-entity-OfferCatalog-e4b8efcd-db96-5dc8-b042-81a3acf3e3fe" class="er entityLabel">OfferCatalog</text></g><g transform="translate(2261.7890625,585 )" id="entity-OpeningHoursSpecification-677aa64f-a506-5d18-b5d1-75a0f22f6986"><rect height="75" width="192.8125" y="0" x="0" class="er entityBox"/><text style="dominant-baseline: middle; text-anchor: middle; font-size: 12px;" transform="translate(96.40625,37.5)" y="0" x="0" id="text-entity-OpeningHoursSpecification-677aa64f-a506-5d18-b5d1-75a0f22f6986" class="er entityLabel">OpeningHoursSpecification</text></g><g transform="translate(2554.6015625,585 )" id="entity-Thing-27bc9527-b992-59fc-a0fb-da83e2ff80bf"><rect height="75" width="100" y="0" x="0" class="er entityBox"/><text style="dominant-baseline: middle; text-anchor: middle; font-size: 12px;" transform="translate(50,37.5)" y="0" x="0" id="text-entity-Thing-27bc9527-b992-59fc-a0fb-da83e2ff80bf" class="er entityLabel">Thing</text></g><g transform="translate(2754.6015625,585 )" id="entity-Review-77c92a79-8cff-50c0-9604-f9135763cccd"><rect height="75" width="100" y="0" x="0" class="er entityBox"/><text style="dominant-baseline: middle; text-anchor: middle; font-size: 12px;" transform="translate(50,37.5)" y="0" x="0" id="text-entity-Review-77c92a79-8cff-50c0-9604-f9135763cccd" class="er entityLabel">Review</text></g><rect height="14" width="126.03125" y="406.1802673339844" x="522.7578735351562" class="er relationshipLabelBox"/><text style="text-anchor: middle; dominant-baseline: middle; font-size: 12px;" y="413.1802673339844" x="585.7734985351562" id="rel1" class="er relationshipLabel">paymentMethodType</text><rect height="14" width="89.953125" y="406.36749267578125" x="602.3139038085938" class="er relationshipLabelBox"/><text style="text-anchor: middle; dominant-baseline: middle; font-size: 12px;" y="413.36749267578125" x="647.2904663085938" id="rel2" class="er relationshipLabel">alternateName</text><rect height="14" width="161.390625" y="407.17413330078125" x="617.2135620117188" class="er relationshipLabelBox"/><text style="text-anchor: middle; dominant-baseline: middle; font-size: 12px;" y="414.17413330078125" x="697.9088745117188" id="rel3" class="er relationshipLabel">disambiguatingDescription</text><rect height="14" width="34.03125" y="411.2430419921875" x="724.060791015625" class="er relationshipLabelBox"/><text style="text-anchor: middle; dominant-baseline: middle; font-size: 12px;" y="418.2430419921875" x="741.076416015625" id="rel4" class="er relationshipLabel">name</text><rect height="14" width="47.140625" y="436.9267883300781" x="912.842529296875" class="er relationshipLabelBox"/><text style="text-anchor: middle; dominant-baseline: middle; font-size: 12px;" y="443.9267883300781" x="936.412841796875" id="rel5" class="er relationshipLabel">sameAs</text><rect height="14" width="90.96875" y="507.46929931640625" x="1017.0029296875" class="er relationshipLabelBox"/><text style="text-anchor: middle; dominant-baseline: middle; font-size: 12px;" y="514.4692993164062" x="1062.4873046875" id="rel6" class="er relationshipLabel">potentialAction</text><rect height="14" width="15.875" y="458.87615966796875" x="969.4874267578125" class="er relationshipLabelBox"/><text style="text-anchor: middle; dominant-baseline: middle; font-size: 12px;" y="465.87615966796875" x="977.4249267578125" id="rel7" class="er relationshipLabel">url</text><rect height="14" width="100.390625" y="527.7991943359375" x="1211.6695556640625" class="er relationshipLabelBox"/><text style="text-anchor: middle; dominant-baseline: middle; font-size: 12px;" y="534.7991943359375" x="1261.8648681640625" id="rel8" class="er relationshipLabel">aggregateRating</text><rect height="14" width="54.890625" y="495.6318054199219" x="1370.228515625" class="er relationshipLabelBox"/><text style="text-anchor: middle; dominant-baseline: middle; font-size: 12px;" y="502.6318054199219" x="1397.673828125" id="rel9" class="er relationshipLabel">audience</text><rect height="14" width="103.4375" y="433.5351867675781" x="1478.8197021484375" class="er relationshipLabelBox"/><text style="text-anchor: middle; dominant-baseline: middle; font-size: 12px;" y="440.5351867675781" x="1530.5384521484375" id="rel10" class="er relationshipLabel">availableChannel</text><rect height="14" width="36.875" y="420.5127258300781" x="756.4239501953125" class="er relationshipLabelBox"/><text style="text-anchor: middle; dominant-baseline: middle; font-size: 12px;" y="427.5127258300781" x="774.8614501953125" id="rel11" class="er relationshipLabel">award</text><rect height="14" width="94.453125" y="418.8372497558594" x="1589.08251953125" class="er relationshipLabelBox"/><text style="text-anchor: middle; dominant-baseline: middle; font-size: 12px;" y="425.8372497558594" x="1636.30908203125" id="rel12" class="er relationshipLabel">hasCertification</text><rect height="14" width="97.328125" y="411.32733154296875" x="1688.9007568359375" class="er relationshipLabelBox"/><text style="text-anchor: middle; dominant-baseline: middle; font-size: 12px;" y="418.32733154296875" x="1737.5648193359375" id="rel13" class="er relationshipLabel">hasOfferCatalog</text><rect height="14" width="88.0625" y="405.8798522949219" x="1817.14453125" class="er relationshipLabelBox"/><text style="text-anchor: middle; dominant-baseline: middle; font-size: 12px;" y="412.8798522949219" x="1861.17578125" id="rel14" class="er relationshipLabel">hoursAvailable</text><rect height="14" width="55.09375" y="406.6851806640625" x="1935.6063232421875" class="er relationshipLabelBox"/><text style="text-anchor: middle; dominant-baseline: middle; font-size: 12px;" y="413.6851806640625" x="1963.1531982421875" id="rel15" class="er relationshipLabel">produces</text><rect height="14" width="97.125" y="438.502685546875" x="747.0928344726562" class="er relationshipLabelBox"/><text style="text-anchor: middle; dominant-baseline: middle; font-size: 12px;" y="445.502685546875" x="795.6553344726562" id="rel16" class="er relationshipLabel">providerMobility</text><rect height="14" width="39.87109375" y="400.5171203613281" x="2062.9921875" class="er relationshipLabelBox"/><text style="text-anchor: middle; dominant-baseline: middle; font-size: 12px;" y="407.5171203613281" x="2082.927734375" id="rel17" class="er relationshipLabel">review</text><rect height="14" width="98.71875" y="454.4045715332031" x="1400.1123046875" class="er relationshipLabelBox"/><text style="text-anchor: middle; dominant-baseline: middle; font-size: 12px;" y="461.4045715332031" x="1449.4716796875" id="rel18" class="er relationshipLabel">serviceAudience</text><rect height="14" width="84.962890625" y="400.34405517578125" x="1957.4501953125" class="er relationshipLabelBox"/><text style="text-anchor: middle; dominant-baseline: middle; font-size: 12px;" y="407.34405517578125" x="1999.931640625" id="rel19" class="er relationshipLabel">serviceOutput</text><rect height="14" width="39.515625" y="467.3953552246094" x="784.2955322265625" class="er relationshipLabelBox"/><text style="text-anchor: middle; dominant-baseline: middle; font-size: 12px;" y="474.3953552246094" x="804.0533447265625" id="rel20" class="er relationshipLabel">slogan</text></svg>