<svg aria-roledescription="er" role="graphics-document document" viewBox="-80.90718841552734 0 2519.1181640625 449" style="max-width: 2519.12px; background-color: white;" xmlns:xlink="http://www.w3.org/1999/xlink" xmlns="http://www.w3.org/2000/svg" width="100%" id="my-svg"><style>#my-svg{font-family:"trebuchet ms",verdana,arial,sans-serif;font-size:16px;fill:#333;}#my-svg .error-icon{fill:#552222;}#my-svg .error-text{fill:#552222;stroke:#552222;}#my-svg .edge-thickness-normal{stroke-width:1px;}#my-svg .edge-thickness-thick{stroke-width:3.5px;}#my-svg .edge-pattern-solid{stroke-dasharray:0;}#my-svg .edge-thickness-invisible{stroke-width:0;fill:none;}#my-svg .edge-pattern-dashed{stroke-dasharray:3;}#my-svg .edge-pattern-dotted{stroke-dasharray:2;}#my-svg .marker{fill:#333333;stroke:#333333;}#my-svg .marker.cross{stroke:#333333;}#my-svg svg{font-family:"trebuchet ms",verdana,arial,sans-serif;font-size:16px;}#my-svg p{margin:0;}#my-svg .entityBox{fill:#ECECFF;stroke:#9370DB;}#my-svg .attributeBoxOdd{fill:#ffffff;stroke:#9370DB;}#my-svg .attributeBoxEven{fill:#f2f2f2;stroke:#9370DB;}#my-svg .relationshipLabelBox{fill:hsl(80, 100%, 96.2745098039%);opacity:0.7;background-color:hsl(80, 100%, 96.2745098039%);}#my-svg .relationshipLabelBox rect{opacity:0.5;}#my-svg .relationshipLine{stroke:#333333;}#my-svg .entityTitleText{text-anchor:middle;font-size:18px;fill:#333;}#my-svg #MD_PARENT_START{fill:#f5f5f5!important;stroke:#333333!important;stroke-width:1;}#my-svg #MD_PARENT_END{fill:#f5f5f5!important;stroke:#333333!important;stroke-width:1;}#my-svg :root{--mermaid-font-family:"trebuchet ms",verdana,arial,sans-serif;}</style><g/><defs><marker orient="auto" markerHeight="240" markerWidth="190" refY="7" refX="0" id="MD_PARENT_START"><path d="M 18,7 L9,13 L1,7 L9,1 Z"/></marker></defs><defs><marker orient="auto" markerHeight="28" markerWidth="20" refY="7" refX="19" id="MD_PARENT_END"><path d="M 18,7 L9,13 L1,7 L9,1 Z"/></marker></defs><defs><marker orient="auto" markerHeight="18" markerWidth="18" refY="9" refX="0" id="ONLY_ONE_START"><path d="M9,0 L9,18 M15,0 L15,18" fill="none" stroke="gray"/></marker></defs><defs><marker orient="auto" markerHeight="18" markerWidth="18" refY="9" refX="18" id="ONLY_ONE_END"><path d="M3,0 L3,18 M9,0 L9,18" fill="none" stroke="gray"/></marker></defs><defs><marker orient="auto" markerHeight="18" markerWidth="30" refY="9" refX="0" id="ZERO_OR_ONE_START"><circle r="6" cy="9" cx="21" fill="white" stroke="gray"/><path d="M9,0 L9,18" fill="none" stroke="gray"/></marker></defs><defs><marker orient="auto" markerHeight="18" markerWidth="30" refY="9" refX="30" id="ZERO_OR_ONE_END"><circle r="6" cy="9" cx="9" fill="white" stroke="gray"/><path d="M21,0 L21,18" fill="none" stroke="gray"/></marker></defs><defs><marker orient="auto" markerHeight="36" markerWidth="45" refY="18" refX="18" id="ONE_OR_MORE_START"><path d="M0,18 Q 18,0 36,18 Q 18,36 0,18 M42,9 L42,27" fill="none" stroke="gray"/></marker></defs><defs><marker orient="auto" markerHeight="36" markerWidth="45" refY="18" refX="27" id="ONE_OR_MORE_END"><path d="M3,9 L3,27 M9,18 Q27,0 45,18 Q27,36 9,18" fill="none" stroke="gray"/></marker></defs><defs><marker orient="auto" markerHeight="36" markerWidth="57" refY="18" refX="18" id="ZERO_OR_MORE_START"><circle r="6" cy="18" cx="48" fill="white" stroke="gray"/><path d="M0,18 Q18,0 36,18 Q18,36 0,18" fill="none" stroke="gray"/></marker></defs><defs><marker orient="auto" markerHeight="36" markerWidth="57" refY="18" refX="39" id="ZERO_OR_MORE_END"><circle r="6" cy="18" cx="9" fill="white" stroke="gray"/><path d="M21,18 Q39,0 57,18 Q39,36 21,18" fill="none" stroke="gray"/></marker></defs><path style="stroke: gray; fill: none;" marker-start="url(#ONLY_ONE_START)" marker-end="url(#ZERO_OR_MORE_END)" d="M779.352,149.745L619.46,175.454C459.568,201.163,139.784,252.582,13.225,289.958C-113.333,327.333,-46.667,350.667,-13.333,362.333L20,374" class="er relationshipLine"/><path style="stroke: gray; fill: none;" marker-start="url(#ONLY_ONE_START)" marker-end="url(#ZERO_OR_MORE_END)" d="M779.352,151.103L636.126,176.586C492.901,202.069,206.451,253.034,79.892,288.239C-46.667,323.444,-13.333,342.889,3.333,352.611L20,362.333" class="er relationshipLine"/><path style="stroke: gray; fill: none;" marker-start="url(#ONLY_ONE_START)" marker-end="url(#ZERO_OR_MORE_END)" d="M779.352,152.785L652.793,177.987C526.234,203.19,273.117,253.595,151.32,287.131C29.524,320.667,39.048,337.333,43.81,345.667L48.571,354" class="er relationshipLine"/><path style="stroke: gray; fill: none;" marker-start="url(#ONLY_ONE_START)" marker-end="url(#ZERO_OR_MORE_END)" d="M779.352,167.18L719.46,189.983C659.568,212.787,539.784,258.393,479.892,289.53C420,320.667,420,337.333,420,345.667L420,354" class="er relationshipLine"/><path style="stroke: gray; fill: none;" marker-start="url(#ONLY_ONE_START)" marker-end="url(#ZERO_OR_MORE_END)" d="M779.352,202.096L758.671,219.08C737.99,236.064,696.628,270.032,675.947,295.349C655.266,320.667,655.266,337.333,655.266,345.667L655.266,354" class="er relationshipLine"/><path style="stroke: gray; fill: none;" marker-start="url(#ONLY_ONE_START)" marker-end="url(#ZERO_OR_MORE_END)" d="M858.617,254L858.617,262.333C858.617,270.667,858.617,287.333,858.617,304C858.617,320.667,858.617,337.333,858.617,345.667L858.617,354" class="er relationshipLine"/><path style="stroke: gray; fill: none;" marker-start="url(#ONLY_ONE_START)" marker-end="url(#ZERO_OR_MORE_END)" d="M937.883,198.16L960.745,215.8C983.607,233.44,1029.331,268.72,1052.193,294.693C1075.055,320.667,1075.055,337.333,1075.055,345.667L1075.055,354" class="er relationshipLine"/><path style="stroke: gray; fill: none;" marker-start="url(#ONLY_ONE_START)" marker-end="url(#ZERO_OR_MORE_END)" d="M937.883,166.61L999.181,189.508C1060.479,212.407,1183.076,258.203,1244.374,289.435C1305.672,320.667,1305.672,337.333,1305.672,345.667L1305.672,354" class="er relationshipLine"/><path style="stroke: gray; fill: none;" marker-start="url(#ONLY_ONE_START)" marker-end="url(#ZERO_OR_MORE_END)" d="M937.883,156.918L1035.438,181.432C1132.992,205.945,1328.102,254.973,1425.656,287.82C1523.211,320.667,1523.211,337.333,1523.211,345.667L1523.211,354" class="er relationshipLine"/><path style="stroke: gray; fill: none;" marker-start="url(#ONLY_ONE_START)" marker-end="url(#ZERO_OR_MORE_END)" d="M937.883,151.984L1071.915,177.32C1205.948,202.656,1474.013,253.328,1608.046,286.997C1742.078,320.667,1742.078,337.333,1742.078,345.667L1742.078,354" class="er relationshipLine"/><path style="stroke: gray; fill: none;" marker-start="url(#ONLY_ONE_START)" marker-end="url(#ZERO_OR_MORE_END)" d="M937.883,148.987L1108.719,174.823C1279.555,200.658,1621.227,252.329,1792.063,286.498C1962.898,320.667,1962.898,337.333,1962.898,345.667L1962.898,354" class="er relationshipLine"/><path style="stroke: gray; fill: none;" marker-start="url(#ONLY_ONE_START)" marker-end="url(#ZERO_OR_MORE_END)" d="M779.352,154.922L669.46,179.768C559.568,204.615,339.784,254.307,225.13,287.487C110.476,320.667,100.952,337.333,96.19,345.667L91.429,354" class="er relationshipLine"/><path style="stroke: gray; fill: none;" marker-start="url(#ONLY_ONE_START)" marker-end="url(#ZERO_OR_MORE_END)" d="M779.352,157.728L686.126,182.107C592.901,206.485,406.451,255.243,296.559,289.344C186.667,323.444,153.333,342.889,136.667,352.611L120,362.333" class="er relationshipLine"/><path style="stroke: gray; fill: none;" marker-start="url(#ONLY_ONE_START)" marker-end="url(#ZERO_OR_MORE_END)" d="M779.352,161.577L702.793,185.314C626.234,209.051,473.117,256.526,363.225,291.929C253.333,327.333,186.667,350.667,153.333,362.333L120,374" class="er relationshipLine"/><path style="stroke: gray; fill: none;" marker-start="url(#ONLY_ONE_START)" marker-end="url(#ZERO_OR_MORE_END)" d="M937.883,147.531L1134.161,173.61C1330.44,199.688,1722.997,251.844,1924.291,286.255C2125.584,320.667,2135.614,337.333,2140.629,345.667L2145.644,354" class="er relationshipLine"/><path style="stroke: gray; fill: none;" marker-start="url(#ONLY_ONE_START)" marker-end="url(#ZERO_OR_MORE_END)" d="M937.883,145.769L1176.271,172.141C1414.659,198.513,1891.435,251.256,2129.823,285.961C2368.211,320.667,2368.211,337.333,2368.211,345.667L2368.211,354" class="er relationshipLine"/><path style="stroke: gray; fill: none;" marker-start="url(#ONLY_ONE_START)" marker-end="url(#ZERO_OR_MORE_END)" d="M937.883,146.736L1151.271,172.947C1364.659,199.158,1791.435,251.579,2000.061,286.123C2208.687,320.667,2199.163,337.333,2194.401,345.667L2189.64,354" class="er relationshipLine"/><g transform="translate(779.3515625,20 )" id="entity-PhysicalExam-87cad3d2-a7de-54c7-8d02-67c13035e16e"><rect height="234" width="158.53125" y="0" x="0" class="er entityBox"/><text style="dominant-baseline: middle; text-anchor: middle; font-size: 12px;" transform="translate(79.265625,12)" y="0" x="0" id="text-entity-PhysicalExam-87cad3d2-a7de-54c7-8d02-67c13035e16e" class="er entityLabel">PhysicalExam</text><rect height="21" width="57.0625" y="24" x="0" class="er attributeBoxOdd"/><text style="dominant-baseline: middle; font-size: 10.2px;" transform="translate(5,34.5)" y="0" x="0" id="text-entity-PhysicalExam-87cad3d2-a7de-54c7-8d02-67c13035e16e-attr-1-type" class="er entityLabel">stringList</text><rect height="21" width="101.46875" y="24" x="57.0625" class="er attributeBoxOdd"/><text style="dominant-baseline: middle; font-size: 10.2px;" transform="translate(62.0625,34.5)" y="0" x="0" id="text-entity-PhysicalExam-87cad3d2-a7de-54c7-8d02-67c13035e16e-attr-1-name" class="er entityLabel">preparation</text><rect height="21" width="57.0625" y="45" x="0" class="er attributeBoxEven"/><text style="dominant-baseline: middle; font-size: 10.2px;" transform="translate(5,55.5)" y="0" x="0" id="text-entity-PhysicalExam-87cad3d2-a7de-54c7-8d02-67c13035e16e-attr-2-type" class="er entityLabel">stringList</text><rect height="21" width="101.46875" y="45" x="57.0625" class="er attributeBoxEven"/><text style="dominant-baseline: middle; font-size: 10.2px;" transform="translate(62.0625,55.5)" y="0" x="0" id="text-entity-PhysicalExam-87cad3d2-a7de-54c7-8d02-67c13035e16e-attr-2-name" class="er entityLabel">status</text><rect height="21" width="57.0625" y="66" x="0" class="er attributeBoxOdd"/><text style="dominant-baseline: middle; font-size: 10.2px;" transform="translate(5,76.5)" y="0" x="0" id="text-entity-PhysicalExam-87cad3d2-a7de-54c7-8d02-67c13035e16e-attr-3-type" class="er entityLabel">stringList</text><rect height="21" width="101.46875" y="66" x="57.0625" class="er attributeBoxOdd"/><text style="dominant-baseline: middle; font-size: 10.2px;" transform="translate(62.0625,76.5)" y="0" x="0" id="text-entity-PhysicalExam-87cad3d2-a7de-54c7-8d02-67c13035e16e-attr-3-name" class="er entityLabel">legalStatus</text><rect height="21" width="57.0625" y="87" x="0" class="er attributeBoxEven"/><text style="dominant-baseline: middle; font-size: 10.2px;" transform="translate(5,97.5)" y="0" x="0" id="text-entity-PhysicalExam-87cad3d2-a7de-54c7-8d02-67c13035e16e-attr-4-type" class="er entityLabel">stringList</text><rect height="21" width="101.46875" y="87" x="57.0625" class="er attributeBoxEven"/><text style="dominant-baseline: middle; font-size: 10.2px;" transform="translate(62.0625,97.5)" y="0" x="0" id="text-entity-PhysicalExam-87cad3d2-a7de-54c7-8d02-67c13035e16e-attr-4-name" class="er entityLabel">additionalType</text><rect height="21" width="57.0625" y="108" x="0" class="er attributeBoxOdd"/><text style="dominant-baseline: middle; font-size: 10.2px;" transform="translate(5,118.5)" y="0" x="0" id="text-entity-PhysicalExam-87cad3d2-a7de-54c7-8d02-67c13035e16e-attr-5-type" class="er entityLabel">stringList</text><rect height="21" width="101.46875" y="108" x="57.0625" class="er attributeBoxOdd"/><text style="dominant-baseline: middle; font-size: 10.2px;" transform="translate(62.0625,118.5)" y="0" x="0" id="text-entity-PhysicalExam-87cad3d2-a7de-54c7-8d02-67c13035e16e-attr-5-name" class="er entityLabel">description</text><rect height="21" width="57.0625" y="129" x="0" class="er attributeBoxEven"/><text style="dominant-baseline: middle; font-size: 10.2px;" transform="translate(5,139.5)" y="0" x="0" id="text-entity-PhysicalExam-87cad3d2-a7de-54c7-8d02-67c13035e16e-attr-6-type" class="er entityLabel">stringList</text><rect height="21" width="101.46875" y="129" x="57.0625" class="er attributeBoxEven"/><text style="dominant-baseline: middle; font-size: 10.2px;" transform="translate(62.0625,139.5)" y="0" x="0" id="text-entity-PhysicalExam-87cad3d2-a7de-54c7-8d02-67c13035e16e-attr-6-name" class="er entityLabel">identifier</text><rect height="21" width="57.0625" y="150" x="0" class="er attributeBoxOdd"/><text style="dominant-baseline: middle; font-size: 10.2px;" transform="translate(5,160.5)" y="0" x="0" id="text-entity-PhysicalExam-87cad3d2-a7de-54c7-8d02-67c13035e16e-attr-7-type" class="er entityLabel">stringList</text><rect height="21" width="101.46875" y="150" x="57.0625" class="er attributeBoxOdd"/><text style="dominant-baseline: middle; font-size: 10.2px;" transform="translate(62.0625,160.5)" y="0" x="0" id="text-entity-PhysicalExam-87cad3d2-a7de-54c7-8d02-67c13035e16e-attr-7-name" class="er entityLabel">image</text><rect height="21" width="57.0625" y="171" x="0" class="er attributeBoxEven"/><text style="dominant-baseline: middle; font-size: 10.2px;" transform="translate(5,181.5)" y="0" x="0" id="text-entity-PhysicalExam-87cad3d2-a7de-54c7-8d02-67c13035e16e-attr-8-type" class="er entityLabel">stringList</text><rect height="21" width="101.46875" y="171" x="57.0625" class="er attributeBoxEven"/><text style="dominant-baseline: middle; font-size: 10.2px;" transform="translate(62.0625,181.5)" y="0" x="0" id="text-entity-PhysicalExam-87cad3d2-a7de-54c7-8d02-67c13035e16e-attr-8-name" class="er entityLabel">mainEntityOfPage</text><rect height="21" width="57.0625" y="192" x="0" class="er attributeBoxOdd"/><text style="dominant-baseline: middle; font-size: 10.2px;" transform="translate(5,202.5)" y="0" x="0" id="text-entity-PhysicalExam-87cad3d2-a7de-54c7-8d02-67c13035e16e-attr-9-type" class="er entityLabel">stringList</text><rect height="21" width="101.46875" y="192" x="57.0625" class="er attributeBoxOdd"/><text style="dominant-baseline: middle; font-size: 10.2px;" transform="translate(62.0625,202.5)" y="0" x="0" id="text-entity-PhysicalExam-87cad3d2-a7de-54c7-8d02-67c13035e16e-attr-9-name" class="er entityLabel">subjectOf</text><rect height="21" width="57.0625" y="213" x="0" class="er attributeBoxEven"/><text style="dominant-baseline: middle; font-size: 10.2px;" transform="translate(5,223.5)" y="0" x="0" id="text-entity-PhysicalExam-87cad3d2-a7de-54c7-8d02-67c13035e16e-attr-10-type" class="er entityLabel">stringList</text><rect height="21" width="101.46875" y="213" x="57.0625" class="er attributeBoxEven"/><text style="dominant-baseline: middle; font-size: 10.2px;" transform="translate(62.0625,223.5)" y="0" x="0" id="text-entity-PhysicalExam-87cad3d2-a7de-54c7-8d02-67c13035e16e-attr-10-name" class="er entityLabel">supersededBy</text></g><g transform="translate(20,354 )" id="entity-Text-426c5d39-acfc-5487-a6d9-ede67887190e"><rect height="75" width="100" y="0" x="0" class="er entityBox"/><text style="dominant-baseline: middle; text-anchor: middle; font-size: 12px;" transform="translate(50,37.5)" y="0" x="0" id="text-entity-Text-426c5d39-acfc-5487-a6d9-ede67887190e" class="er entityLabel">Text</text></g><g transform="translate(338.0859375,354 )" id="entity-MedicalProcedureType-77110f20-1241-5df8-967e-11a2ad8f2859"><rect height="75" width="163.828125" y="0" x="0" class="er entityBox"/><text style="dominant-baseline: middle; text-anchor: middle; font-size: 12px;" transform="translate(81.9140625,37.5)" y="0" x="0" id="text-entity-MedicalProcedureType-77110f20-1241-5df8-967e-11a2ad8f2859" class="er entityLabel">MedicalProcedureType</text></g><g transform="translate(601.9140625,354 )" id="entity-MedicalCode-340ab1f3-b0e0-51ff-b309-32031f623ceb"><rect height="75" width="106.703125" y="0" x="0" class="er entityBox"/><text style="dominant-baseline: middle; text-anchor: middle; font-size: 12px;" transform="translate(53.3515625,37.5)" y="0" x="0" id="text-entity-MedicalCode-340ab1f3-b0e0-51ff-b309-32031f623ceb" class="er entityLabel">MedicalCode</text></g><g transform="translate(808.6171875,354 )" id="entity-Grant-291daf2c-8722-576f-890e-1045bc6484c0"><rect height="75" width="100" y="0" x="0" class="er entityBox"/><text style="dominant-baseline: middle; text-anchor: middle; font-size: 12px;" transform="translate(50,37.5)" y="0" x="0" id="text-entity-Grant-291daf2c-8722-576f-890e-1045bc6484c0" class="er entityLabel">Grant</text></g><g transform="translate(1008.6171875,354 )" id="entity-MedicalGuideline-a05959e1-803b-55cd-8b3c-b530a54fde23"><rect height="75" width="132.875" y="0" x="0" class="er entityBox"/><text style="dominant-baseline: middle; text-anchor: middle; font-size: 12px;" transform="translate(66.4375,37.5)" y="0" x="0" id="text-entity-MedicalGuideline-a05959e1-803b-55cd-8b3c-b530a54fde23" class="er entityLabel">MedicalGuideline</text></g><g transform="translate(1241.4921875,354 )" id="entity-MedicineSystem-74197b84-67e0-5471-ab59-f3fd7c3c0e72"><rect height="75" width="128.359375" y="0" x="0" class="er entityBox"/><text style="dominant-baseline: middle; text-anchor: middle; font-size: 12px;" transform="translate(64.1796875,37.5)" y="0" x="0" id="text-entity-MedicineSystem-74197b84-67e0-5471-ab59-f3fd7c3c0e72" class="er entityLabel">MedicineSystem</text></g><g transform="translate(1469.8515625,354 )" id="entity-Organization-ef1721ab-1f62-5ef5-a525-a6c60c2f6032"><rect height="75" width="106.71875" y="0" x="0" class="er entityBox"/><text style="dominant-baseline: middle; text-anchor: middle; font-size: 12px;" transform="translate(53.359375,37.5)" y="0" x="0" id="text-entity-Organization-ef1721ab-1f62-5ef5-a525-a6c60c2f6032" class="er entityLabel">Organization</text></g><g transform="translate(1676.5703125,354 )" id="entity-MedicalSpecialty-0f4a20d3-5a5d-5b81-b412-da395afebba8"><rect height="75" width="131.015625" y="0" x="0" class="er entityBox"/><text style="dominant-baseline: middle; text-anchor: middle; font-size: 12px;" transform="translate(65.5078125,37.5)" y="0" x="0" id="text-entity-MedicalSpecialty-0f4a20d3-5a5d-5b81-b412-da395afebba8" class="er entityLabel">MedicalSpecialty</text></g><g transform="translate(1907.5859375,354 )" id="entity-MedicalStudy-22dea251-12b7-5654-af29-afad6ffe12b1"><rect height="75" width="110.625" y="0" x="0" class="er entityBox"/><text style="dominant-baseline: middle; text-anchor: middle; font-size: 12px;" transform="translate(55.3125,37.5)" y="0" x="0" id="text-entity-MedicalStudy-22dea251-12b7-5654-af29-afad6ffe12b1" class="er entityLabel">MedicalStudy</text></g><g transform="translate(2118.2109375,354 )" id="entity-URL-07f78d3e-fd74-5925-b39b-26c1cc2d6b7c"><rect height="75" width="100" y="0" x="0" class="er entityBox"/><text style="dominant-baseline: middle; text-anchor: middle; font-size: 12px;" transform="translate(50,37.5)" y="0" x="0" id="text-entity-URL-07f78d3e-fd74-5925-b39b-26c1cc2d6b7c" class="er entityLabel">URL</text></g><g transform="translate(2318.2109375,354 )" id="entity-Action-6cd87d9a-a078-546e-a35b-bee54f477b31"><rect height="75" width="100" y="0" x="0" class="er entityBox"/><text style="dominant-baseline: middle; text-anchor: middle; font-size: 12px;" transform="translate(50,37.5)" y="0" x="0" id="text-entity-Action-6cd87d9a-a078-546e-a35b-bee54f477b31" class="er entityLabel">Action</text></g><rect height="14" width="80.4375" y="221.1576385498047" x="264.59393310546875" class="er relationshipLabelBox"/><text style="text-anchor: middle; dominant-baseline: middle; font-size: 12px;" y="228.1576385498047" x="304.81268310546875" id="rel1" class="er relationshipLabel">bodyLocation</text><rect height="14" width="50.625" y="221.4080047607422" x="328.31036376953125" class="er relationshipLabelBox"/><text style="text-anchor: middle; dominant-baseline: middle; font-size: 12px;" y="228.4080047607422" x="353.62286376953125" id="rel2" class="er relationshipLabel">followup</text><rect height="14" width="86.875" y="223.54849243164062" x="351.5726013183594" class="er relationshipLabelBox"/><text style="text-anchor: middle; dominant-baseline: middle; font-size: 12px;" y="230.54849243164062" x="395.0101013183594" id="rel3" class="er relationshipLabel">howPerformed</text><rect height="14" width="88.453125" y="235.73464965820312" x="540.4434204101562" class="er relationshipLabelBox"/><text style="text-anchor: middle; dominant-baseline: middle; font-size: 12px;" y="242.73464965820312" x="584.6699829101562" id="rel4" class="er relationshipLabel">procedureType</text><rect height="14" width="28.953125" y="261.08538818359375" x="687.52734375" class="er relationshipLabelBox"/><text style="text-anchor: middle; dominant-baseline: middle; font-size: 12px;" y="268.08538818359375" x="702.00390625" id="rel5" class="er relationshipLabel">code</text><rect height="14" width="45.609375" y="297" x="835.8123168945312" class="er relationshipLabelBox"/><text style="text-anchor: middle; dominant-baseline: middle; font-size: 12px;" y="304" x="858.6170043945312" id="rel6" class="er relationshipLabel">funding</text><rect height="14" width="55.21875" y="258.3794250488281" x="994.390380859375" class="er relationshipLabelBox"/><text style="text-anchor: middle; dominant-baseline: middle; font-size: 12px;" y="265.3794250488281" x="1021.999755859375" id="rel7" class="er relationshipLabel">guideline</text><rect height="14" width="99.703125" y="235.30575561523438" x="1086.8621826171875" class="er relationshipLabelBox"/><text style="text-anchor: middle; dominant-baseline: middle; font-size: 12px;" y="242.30575561523438" x="1136.7137451171875" id="rel8" class="er relationshipLabel">medicineSystem</text><rect height="14" width="124.953125" y="228.03240966796875" x="1181.3255615234375" class="er relationshipLabelBox"/><text style="text-anchor: middle; dominant-baseline: middle; font-size: 12px;" y="235.03240966796875" x="1243.8021240234375" id="rel9" class="er relationshipLabel">recognizingAuthority</text><rect height="14" width="104.578125" y="224.42811584472656" x="1299.660400390625" class="er relationshipLabelBox"/><text style="text-anchor: middle; dominant-baseline: middle; font-size: 12px;" y="231.42811584472656" x="1351.949462890625" id="rel10" class="er relationshipLabel">relevantSpecialty</text><rect height="14" width="33.28125" y="222.29624938964844" x="1444.764892578125" class="er relationshipLabelBox"/><text style="text-anchor: middle; dominant-baseline: middle; font-size: 12px;" y="229.29624938964844" x="1461.405517578125" id="rel11" class="er relationshipLabel">study</text><rect height="14" width="89.953125" y="228.76904296875" x="381.98046875" class="er relationshipLabelBox"/><text style="text-anchor: middle; dominant-baseline: middle; font-size: 12px;" y="235.76904296875" x="426.95703125" id="rel12" class="er relationshipLabel">alternateName</text><rect height="14" width="161.390625" y="239.47764587402344" x="364.208984375" class="er relationshipLabelBox"/><text style="text-anchor: middle; dominant-baseline: middle; font-size: 12px;" y="246.47764587402344" x="444.904296875" id="rel13" class="er relationshipLabel">disambiguatingDescription</text><rect height="14" width="34.03125" y="257.68896484375" x="431.65240478515625" class="er relationshipLabelBox"/><text style="text-anchor: middle; dominant-baseline: middle; font-size: 12px;" y="264.68896484375" x="448.66802978515625" id="rel14" class="er relationshipLabel">name</text><rect height="14" width="47.140625" y="222.79635620117188" x="1525.159912109375" class="er relationshipLabelBox"/><text style="text-anchor: middle; dominant-baseline: middle; font-size: 12px;" y="229.79635620117188" x="1548.730224609375" id="rel15" class="er relationshipLabel">sameAs</text><rect height="14" width="90.96875" y="220.07281494140625" x="1617.3782958984375" class="er relationshipLabelBox"/><text style="text-anchor: middle; dominant-baseline: middle; font-size: 12px;" y="227.07281494140625" x="1662.8626708984375" id="rel16" class="er relationshipLabel">potentialAction</text><rect height="14" width="15.875" y="219.68516540527344" x="1571.6256103515625" class="er relationshipLabelBox"/><text style="text-anchor: middle; dominant-baseline: middle; font-size: 12px;" y="226.68516540527344" x="1579.5631103515625" id="rel17" class="er relationshipLabel">url</text></svg>