<svg aria-roledescription="er" role="graphics-document document" viewBox="0 0 1784.1875 1184" style="max-width: 1784.19px; background-color: white;" xmlns:xlink="http://www.w3.org/1999/xlink" xmlns="http://www.w3.org/2000/svg" width="100%" id="my-svg"><style>#my-svg{font-family:"trebuchet ms",verdana,arial,sans-serif;font-size:16px;fill:#333;}#my-svg .error-icon{fill:#552222;}#my-svg .error-text{fill:#552222;stroke:#552222;}#my-svg .edge-thickness-normal{stroke-width:1px;}#my-svg .edge-thickness-thick{stroke-width:3.5px;}#my-svg .edge-pattern-solid{stroke-dasharray:0;}#my-svg .edge-thickness-invisible{stroke-width:0;fill:none;}#my-svg .edge-pattern-dashed{stroke-dasharray:3;}#my-svg .edge-pattern-dotted{stroke-dasharray:2;}#my-svg .marker{fill:#333333;stroke:#333333;}#my-svg .marker.cross{stroke:#333333;}#my-svg svg{font-family:"trebuchet ms",verdana,arial,sans-serif;font-size:16px;}#my-svg p{margin:0;}#my-svg .entityBox{fill:#ECECFF;stroke:#9370DB;}#my-svg .attributeBoxOdd{fill:#ffffff;stroke:#9370DB;}#my-svg .attributeBoxEven{fill:#f2f2f2;stroke:#9370DB;}#my-svg .relationshipLabelBox{fill:hsl(80, 100%, 96.2745098039%);opacity:0.7;background-color:hsl(80, 100%, 96.2745098039%);}#my-svg .relationshipLabelBox rect{opacity:0.5;}#my-svg .relationshipLine{stroke:#333333;}#my-svg .entityTitleText{text-anchor:middle;font-size:18px;fill:#333;}#my-svg #MD_PARENT_START{fill:#f5f5f5!important;stroke:#333333!important;stroke-width:1;}#my-svg #MD_PARENT_END{fill:#f5f5f5!important;stroke:#333333!important;stroke-width:1;}#my-svg :root{--mermaid-font-family:"trebuchet ms",verdana,arial,sans-serif;}</style><g/><defs><marker orient="auto" markerHeight="240" markerWidth="190" refY="7" refX="0" id="MD_PARENT_START"><path d="M 18,7 L9,13 L1,7 L9,1 Z"/></marker></defs><defs><marker orient="auto" markerHeight="28" markerWidth="20" refY="7" refX="19" id="MD_PARENT_END"><path d="M 18,7 L9,13 L1,7 L9,1 Z"/></marker></defs><defs><marker orient="auto" markerHeight="18" markerWidth="18" refY="9" refX="0" id="ONLY_ONE_START"><path d="M9,0 L9,18 M15,0 L15,18" fill="none" stroke="gray"/></marker></defs><defs><marker orient="auto" markerHeight="18" markerWidth="18" refY="9" refX="18" id="ONLY_ONE_END"><path d="M3,0 L3,18 M9,0 L9,18" fill="none" stroke="gray"/></marker></defs><defs><marker orient="auto" markerHeight="18" markerWidth="30" refY="9" refX="0" id="ZERO_OR_ONE_START"><circle r="6" cy="9" cx="21" fill="white" stroke="gray"/><path d="M9,0 L9,18" fill="none" stroke="gray"/></marker></defs><defs><marker orient="auto" markerHeight="18" markerWidth="30" refY="9" refX="30" id="ZERO_OR_ONE_END"><circle r="6" cy="9" cx="9" fill="white" stroke="gray"/><path d="M21,0 L21,18" fill="none" stroke="gray"/></marker></defs><defs><marker orient="auto" markerHeight="36" markerWidth="45" refY="18" refX="18" id="ONE_OR_MORE_START"><path d="M0,18 Q 18,0 36,18 Q 18,36 0,18 M42,9 L42,27" fill="none" stroke="gray"/></marker></defs><defs><marker orient="auto" markerHeight="36" markerWidth="45" refY="18" refX="27" id="ONE_OR_MORE_END"><path d="M3,9 L3,27 M9,18 Q27,0 45,18 Q27,36 9,18" fill="none" stroke="gray"/></marker></defs><defs><marker orient="auto" markerHeight="36" markerWidth="57" refY="18" refX="18" id="ZERO_OR_MORE_START"><circle r="6" cy="18" cx="48" fill="white" stroke="gray"/><path d="M0,18 Q18,0 36,18 Q18,36 0,18" fill="none" stroke="gray"/></marker></defs><defs><marker orient="auto" markerHeight="36" markerWidth="57" refY="18" refX="39" id="ZERO_OR_MORE_END"><circle r="6" cy="18" cx="9" fill="white" stroke="gray"/><path d="M21,18 Q39,0 57,18 Q39,36 21,18" fill="none" stroke="gray"/></marker></defs><path style="stroke: gray; fill: none;" marker-start="url(#ONLY_ONE_START)" marker-end="url(#ZERO_OR_MORE_END)" d="M909.045,567.26L770.349,645.883C631.652,724.507,354.26,881.753,215.563,968.71C76.867,1055.667,76.867,1072.333,76.867,1080.667L76.867,1089" class="er relationshipLine"/><path style="stroke: gray; fill: none;" marker-start="url(#ONLY_ONE_START)" marker-end="url(#ZERO_OR_MORE_END)" d="M909.045,586.643L807.431,662.036C705.816,737.429,502.588,888.214,400.974,971.941C299.359,1055.667,299.359,1072.333,299.359,1080.667L299.359,1089" class="er relationshipLine"/><path style="stroke: gray; fill: none;" marker-start="url(#ONLY_ONE_START)" marker-end="url(#ZERO_OR_MORE_END)" d="M909.045,635.075L851.965,702.396C794.884,769.717,680.723,904.358,623.643,980.013C566.563,1055.667,566.563,1072.333,566.563,1080.667L566.563,1089" class="er relationshipLine"/><path style="stroke: gray; fill: none;" marker-start="url(#ONLY_ONE_START)" marker-end="url(#ZERO_OR_MORE_END)" d="M1130.471,207.673L1142.137,176.395C1153.804,145.116,1177.137,82.558,1191.721,51.279C1206.304,20,1212.137,20,1217.971,100.75C1223.804,181.5,1229.637,343,1229.637,504.5C1229.637,666,1223.804,827.5,1217.971,908.25C1212.137,989,1206.304,989,1191.721,957.721C1177.137,926.442,1153.804,863.884,1142.137,832.605L1130.471,801.327" class="er relationshipLine"/><path style="stroke: gray; fill: none;" marker-start="url(#ONLY_ONE_START)" marker-end="url(#ZERO_OR_MORE_END)" d="M1130.471,293.356L1154.36,247.797C1178.248,202.237,1226.026,111.119,1255.887,65.559C1285.748,20,1297.693,20,1309.637,100.75C1321.582,181.5,1333.526,343,1333.526,504.5C1333.526,666,1321.582,827.5,1309.637,908.25C1297.693,989,1285.748,989,1255.887,943.441C1226.026,897.881,1178.248,806.763,1154.36,761.203L1130.471,715.644" class="er relationshipLine"/><path style="stroke: gray; fill: none;" marker-start="url(#ONLY_ONE_START)" marker-end="url(#ZERO_OR_MORE_END)" d="M1130.471,340.652L1166.582,287.21C1202.693,233.768,1274.915,126.884,1320.054,73.442C1365.193,20,1383.248,20,1401.304,100.75C1419.36,181.5,1437.415,343,1437.415,504.5C1437.415,666,1419.36,827.5,1401.304,908.25C1383.248,989,1365.193,989,1320.054,935.558C1274.915,882.116,1202.693,775.232,1166.582,721.79L1130.471,668.348" class="er relationshipLine"/><path style="stroke: gray; fill: none;" marker-start="url(#ONLY_ONE_START)" marker-end="url(#ZERO_OR_MORE_END)" d="M909.045,717.819L881.263,771.349C853.481,824.879,797.916,931.94,777.352,993.803C756.788,1055.667,771.224,1072.333,778.442,1080.667L785.66,1089" class="er relationshipLine"/><path style="stroke: gray; fill: none;" marker-start="url(#ONLY_ONE_START)" marker-end="url(#ZERO_OR_MORE_END)" d="M909.045,896.891L902.362,920.576C895.68,944.261,882.314,991.63,870.793,1023.649C859.271,1055.667,849.594,1072.333,844.755,1080.667L839.916,1089" class="er relationshipLine"/><path style="stroke: gray; fill: none;" marker-start="url(#ONLY_ONE_START)" marker-end="url(#ZERO_OR_MORE_END)" d="M1019.758,989L1019.758,997.333C1019.758,1005.667,1019.758,1022.333,1019.758,1039C1019.758,1055.667,1019.758,1072.333,1019.758,1080.667L1019.758,1089" class="er relationshipLine"/><path style="stroke: gray; fill: none;" marker-start="url(#ONLY_ONE_START)" marker-end="url(#ZERO_OR_MORE_END)" d="M1130.471,844.569L1141.02,876.974C1151.57,909.379,1172.67,974.19,1190.268,1014.928C1207.867,1055.667,1221.964,1072.333,1229.013,1080.667L1236.062,1089" class="er relationshipLine"/><path style="stroke: gray; fill: none;" marker-start="url(#ONLY_ONE_START)" marker-end="url(#ZERO_OR_MORE_END)" d="M1130.471,644.985L1182.223,710.654C1233.975,776.323,1337.48,907.662,1396.204,981.664C1454.928,1055.667,1468.871,1072.333,1475.843,1080.667L1482.815,1089" class="er relationshipLine"/><path style="stroke: gray; fill: none;" marker-start="url(#ONLY_ONE_START)" marker-end="url(#ZERO_OR_MORE_END)" d="M1130.471,613.194L1202.757,684.161C1275.043,755.129,1419.615,897.065,1487.139,976.366C1554.664,1055.667,1545.14,1072.333,1540.378,1080.667L1535.616,1089" class="er relationshipLine"/><path style="stroke: gray; fill: none;" marker-start="url(#ONLY_ONE_START)" marker-end="url(#ZERO_OR_MORE_END)" d="M1130.471,688.719L1165.556,747.099C1200.642,805.479,1270.813,922.24,1298.927,988.953C1327.041,1055.667,1313.097,1072.333,1306.126,1080.667L1299.154,1089" class="er relationshipLine"/><path style="stroke: gray; fill: none;" marker-start="url(#ONLY_ONE_START)" marker-end="url(#ZERO_OR_MORE_END)" d="M1130.471,589.715L1227.757,664.596C1325.043,739.477,1519.615,889.238,1616.901,972.453C1714.188,1055.667,1714.188,1072.333,1714.188,1080.667L1714.188,1089" class="er relationshipLine"/><g transform="translate(909.0450134277344,20 )" id="entity-Place-18cedc50-4c85-52d4-b2dd-111465382dcf"><rect height="969" width="221.42559814453125" y="0" x="0" class="er entityBox"/><text style="dominant-baseline: middle; text-anchor: middle; font-size: 12px;" transform="translate(110.71279907226562,12)" y="0" x="0" id="text-entity-Place-18cedc50-4c85-52d4-b2dd-111465382dcf" class="er entityLabel">Place</text><rect height="21" width="69.06622314453125" y="24" x="0" class="er attributeBoxOdd"/><text style="dominant-baseline: middle; font-size: 10.2px;" transform="translate(5,34.5)" y="0" x="0" id="text-entity-Place-18cedc50-4c85-52d4-b2dd-111465382dcf-attr-1-type" class="er entityLabel">TextList</text><rect height="21" width="152.359375" y="24" x="69.06622314453125" class="er attributeBoxOdd"/><text style="dominant-baseline: middle; font-size: 10.2px;" transform="translate(74.06622314453125,34.5)" y="0" x="0" id="text-entity-Place-18cedc50-4c85-52d4-b2dd-111465382dcf-attr-1-name" class="er entityLabel">globalLocationNumber</text><rect height="21" width="69.06622314453125" y="45" x="0" class="er attributeBoxEven"/><text style="dominant-baseline: middle; font-size: 10.2px;" transform="translate(5,55.5)" y="0" x="0" id="text-entity-Place-18cedc50-4c85-52d4-b2dd-111465382dcf-attr-2-type" class="er entityLabel">URLList</text><rect height="21" width="152.359375" y="45" x="69.06622314453125" class="er attributeBoxEven"/><text style="dominant-baseline: middle; font-size: 10.2px;" transform="translate(74.06622314453125,55.5)" y="0" x="0" id="text-entity-Place-18cedc50-4c85-52d4-b2dd-111465382dcf-attr-2-name" class="er entityLabel">hasGS1DigitalLink</text><rect height="21" width="69.06622314453125" y="66" x="0" class="er attributeBoxOdd"/><text style="dominant-baseline: middle; font-size: 10.2px;" transform="translate(5,76.5)" y="0" x="0" id="text-entity-Place-18cedc50-4c85-52d4-b2dd-111465382dcf-attr-3-type" class="er entityLabel">stringList</text><rect height="21" width="152.359375" y="66" x="69.06622314453125" class="er attributeBoxOdd"/><text style="dominant-baseline: middle; font-size: 10.2px;" transform="translate(74.06622314453125,76.5)" y="0" x="0" id="text-entity-Place-18cedc50-4c85-52d4-b2dd-111465382dcf-attr-3-name" class="er entityLabel">logo</text><rect height="21" width="69.06622314453125" y="87" x="0" class="er attributeBoxEven"/><text style="dominant-baseline: middle; font-size: 10.2px;" transform="translate(5,97.5)" y="0" x="0" id="text-entity-Place-18cedc50-4c85-52d4-b2dd-111465382dcf-attr-4-type" class="er entityLabel">stringList</text><rect height="21" width="152.359375" y="87" x="69.06622314453125" class="er attributeBoxEven"/><text style="dominant-baseline: middle; font-size: 10.2px;" transform="translate(74.06622314453125,97.5)" y="0" x="0" id="text-entity-Place-18cedc50-4c85-52d4-b2dd-111465382dcf-attr-4-name" class="er entityLabel">photo</text><rect height="21" width="69.06622314453125" y="108" x="0" class="er attributeBoxOdd"/><text style="dominant-baseline: middle; font-size: 10.2px;" transform="translate(5,118.5)" y="0" x="0" id="text-entity-Place-18cedc50-4c85-52d4-b2dd-111465382dcf-attr-5-type" class="er entityLabel">stringList</text><rect height="21" width="152.359375" y="108" x="69.06622314453125" class="er attributeBoxOdd"/><text style="dominant-baseline: middle; font-size: 10.2px;" transform="translate(74.06622314453125,118.5)" y="0" x="0" id="text-entity-Place-18cedc50-4c85-52d4-b2dd-111465382dcf-attr-5-name" class="er entityLabel">address</text><rect height="21" width="69.06622314453125" y="129" x="0" class="er attributeBoxEven"/><text style="dominant-baseline: middle; font-size: 10.2px;" transform="translate(5,139.5)" y="0" x="0" id="text-entity-Place-18cedc50-4c85-52d4-b2dd-111465382dcf-attr-6-type" class="er entityLabel">TextList</text><rect height="21" width="152.359375" y="129" x="69.06622314453125" class="er attributeBoxEven"/><text style="dominant-baseline: middle; font-size: 10.2px;" transform="translate(74.06622314453125,139.5)" y="0" x="0" id="text-entity-Place-18cedc50-4c85-52d4-b2dd-111465382dcf-attr-6-name" class="er entityLabel">branchCode</text><rect height="21" width="69.06622314453125" y="150" x="0" class="er attributeBoxOdd"/><text style="dominant-baseline: middle; font-size: 10.2px;" transform="translate(5,160.5)" y="0" x="0" id="text-entity-Place-18cedc50-4c85-52d4-b2dd-111465382dcf-attr-7-type" class="er entityLabel">TextList</text><rect height="21" width="152.359375" y="150" x="69.06622314453125" class="er attributeBoxOdd"/><text style="dominant-baseline: middle; font-size: 10.2px;" transform="translate(74.06622314453125,160.5)" y="0" x="0" id="text-entity-Place-18cedc50-4c85-52d4-b2dd-111465382dcf-attr-7-name" class="er entityLabel">faxNumber</text><rect height="21" width="69.06622314453125" y="171" x="0" class="er attributeBoxEven"/><text style="dominant-baseline: middle; font-size: 10.2px;" transform="translate(5,181.5)" y="0" x="0" id="text-entity-Place-18cedc50-4c85-52d4-b2dd-111465382dcf-attr-8-type" class="er entityLabel">stringList</text><rect height="21" width="152.359375" y="171" x="69.06622314453125" class="er attributeBoxEven"/><text style="dominant-baseline: middle; font-size: 10.2px;" transform="translate(74.06622314453125,181.5)" y="0" x="0" id="text-entity-Place-18cedc50-4c85-52d4-b2dd-111465382dcf-attr-8-name" class="er entityLabel">geo</text><rect height="21" width="69.06622314453125" y="192" x="0" class="er attributeBoxOdd"/><text style="dominant-baseline: middle; font-size: 10.2px;" transform="translate(5,202.5)" y="0" x="0" id="text-entity-Place-18cedc50-4c85-52d4-b2dd-111465382dcf-attr-9-type" class="er entityLabel">stringList</text><rect height="21" width="152.359375" y="192" x="69.06622314453125" class="er attributeBoxOdd"/><text style="dominant-baseline: middle; font-size: 10.2px;" transform="translate(74.06622314453125,202.5)" y="0" x="0" id="text-entity-Place-18cedc50-4c85-52d4-b2dd-111465382dcf-attr-9-name" class="er entityLabel">geoContains</text><rect height="21" width="69.06622314453125" y="213" x="0" class="er attributeBoxEven"/><text style="dominant-baseline: middle; font-size: 10.2px;" transform="translate(5,223.5)" y="0" x="0" id="text-entity-Place-18cedc50-4c85-52d4-b2dd-111465382dcf-attr-10-type" class="er entityLabel">stringList</text><rect height="21" width="152.359375" y="213" x="69.06622314453125" class="er attributeBoxEven"/><text style="dominant-baseline: middle; font-size: 10.2px;" transform="translate(74.06622314453125,223.5)" y="0" x="0" id="text-entity-Place-18cedc50-4c85-52d4-b2dd-111465382dcf-attr-10-name" class="er entityLabel">geoCoveredBy</text><rect height="21" width="69.06622314453125" y="234" x="0" class="er attributeBoxOdd"/><text style="dominant-baseline: middle; font-size: 10.2px;" transform="translate(5,244.5)" y="0" x="0" id="text-entity-Place-18cedc50-4c85-52d4-b2dd-111465382dcf-attr-11-type" class="er entityLabel">stringList</text><rect height="21" width="152.359375" y="234" x="69.06622314453125" class="er attributeBoxOdd"/><text style="dominant-baseline: middle; font-size: 10.2px;" transform="translate(74.06622314453125,244.5)" y="0" x="0" id="text-entity-Place-18cedc50-4c85-52d4-b2dd-111465382dcf-attr-11-name" class="er entityLabel">geoCovers</text><rect height="21" width="69.06622314453125" y="255" x="0" class="er attributeBoxEven"/><text style="dominant-baseline: middle; font-size: 10.2px;" transform="translate(5,265.5)" y="0" x="0" id="text-entity-Place-18cedc50-4c85-52d4-b2dd-111465382dcf-attr-12-type" class="er entityLabel">stringList</text><rect height="21" width="152.359375" y="255" x="69.06622314453125" class="er attributeBoxEven"/><text style="dominant-baseline: middle; font-size: 10.2px;" transform="translate(74.06622314453125,265.5)" y="0" x="0" id="text-entity-Place-18cedc50-4c85-52d4-b2dd-111465382dcf-attr-12-name" class="er entityLabel">geoCrosses</text><rect height="21" width="69.06622314453125" y="276" x="0" class="er attributeBoxOdd"/><text style="dominant-baseline: middle; font-size: 10.2px;" transform="translate(5,286.5)" y="0" x="0" id="text-entity-Place-18cedc50-4c85-52d4-b2dd-111465382dcf-attr-13-type" class="er entityLabel">stringList</text><rect height="21" width="152.359375" y="276" x="69.06622314453125" class="er attributeBoxOdd"/><text style="dominant-baseline: middle; font-size: 10.2px;" transform="translate(74.06622314453125,286.5)" y="0" x="0" id="text-entity-Place-18cedc50-4c85-52d4-b2dd-111465382dcf-attr-13-name" class="er entityLabel">geoDisjoint</text><rect height="21" width="69.06622314453125" y="297" x="0" class="er attributeBoxEven"/><text style="dominant-baseline: middle; font-size: 10.2px;" transform="translate(5,307.5)" y="0" x="0" id="text-entity-Place-18cedc50-4c85-52d4-b2dd-111465382dcf-attr-14-type" class="er entityLabel">stringList</text><rect height="21" width="152.359375" y="297" x="69.06622314453125" class="er attributeBoxEven"/><text style="dominant-baseline: middle; font-size: 10.2px;" transform="translate(74.06622314453125,307.5)" y="0" x="0" id="text-entity-Place-18cedc50-4c85-52d4-b2dd-111465382dcf-attr-14-name" class="er entityLabel">geoEquals</text><rect height="21" width="69.06622314453125" y="318" x="0" class="er attributeBoxOdd"/><text style="dominant-baseline: middle; font-size: 10.2px;" transform="translate(5,328.5)" y="0" x="0" id="text-entity-Place-18cedc50-4c85-52d4-b2dd-111465382dcf-attr-15-type" class="er entityLabel">stringList</text><rect height="21" width="152.359375" y="318" x="69.06622314453125" class="er attributeBoxOdd"/><text style="dominant-baseline: middle; font-size: 10.2px;" transform="translate(74.06622314453125,328.5)" y="0" x="0" id="text-entity-Place-18cedc50-4c85-52d4-b2dd-111465382dcf-attr-15-name" class="er entityLabel">geoIntersects</text><rect height="21" width="69.06622314453125" y="339" x="0" class="er attributeBoxEven"/><text style="dominant-baseline: middle; font-size: 10.2px;" transform="translate(5,349.5)" y="0" x="0" id="text-entity-Place-18cedc50-4c85-52d4-b2dd-111465382dcf-attr-16-type" class="er entityLabel">stringList</text><rect height="21" width="152.359375" y="339" x="69.06622314453125" class="er attributeBoxEven"/><text style="dominant-baseline: middle; font-size: 10.2px;" transform="translate(74.06622314453125,349.5)" y="0" x="0" id="text-entity-Place-18cedc50-4c85-52d4-b2dd-111465382dcf-attr-16-name" class="er entityLabel">geoOverlaps</text><rect height="21" width="69.06622314453125" y="360" x="0" class="er attributeBoxOdd"/><text style="dominant-baseline: middle; font-size: 10.2px;" transform="translate(5,370.5)" y="0" x="0" id="text-entity-Place-18cedc50-4c85-52d4-b2dd-111465382dcf-attr-17-type" class="er entityLabel">stringList</text><rect height="21" width="152.359375" y="360" x="69.06622314453125" class="er attributeBoxOdd"/><text style="dominant-baseline: middle; font-size: 10.2px;" transform="translate(74.06622314453125,370.5)" y="0" x="0" id="text-entity-Place-18cedc50-4c85-52d4-b2dd-111465382dcf-attr-17-name" class="er entityLabel">geoTouches</text><rect height="21" width="69.06622314453125" y="381" x="0" class="er attributeBoxEven"/><text style="dominant-baseline: middle; font-size: 10.2px;" transform="translate(5,391.5)" y="0" x="0" id="text-entity-Place-18cedc50-4c85-52d4-b2dd-111465382dcf-attr-18-type" class="er entityLabel">stringList</text><rect height="21" width="152.359375" y="381" x="69.06622314453125" class="er attributeBoxEven"/><text style="dominant-baseline: middle; font-size: 10.2px;" transform="translate(74.06622314453125,391.5)" y="0" x="0" id="text-entity-Place-18cedc50-4c85-52d4-b2dd-111465382dcf-attr-18-name" class="er entityLabel">geoWithin</text><rect height="21" width="69.06622314453125" y="402" x="0" class="er attributeBoxOdd"/><text style="dominant-baseline: middle; font-size: 10.2px;" transform="translate(5,412.5)" y="0" x="0" id="text-entity-Place-18cedc50-4c85-52d4-b2dd-111465382dcf-attr-19-type" class="er entityLabel">BooleanList</text><rect height="21" width="152.359375" y="402" x="69.06622314453125" class="er attributeBoxOdd"/><text style="dominant-baseline: middle; font-size: 10.2px;" transform="translate(74.06622314453125,412.5)" y="0" x="0" id="text-entity-Place-18cedc50-4c85-52d4-b2dd-111465382dcf-attr-19-name" class="er entityLabel">hasDriveThroughService</text><rect height="21" width="69.06622314453125" y="423" x="0" class="er attributeBoxEven"/><text style="dominant-baseline: middle; font-size: 10.2px;" transform="translate(5,433.5)" y="0" x="0" id="text-entity-Place-18cedc50-4c85-52d4-b2dd-111465382dcf-attr-20-type" class="er entityLabel">stringList</text><rect height="21" width="152.359375" y="423" x="69.06622314453125" class="er attributeBoxEven"/><text style="dominant-baseline: middle; font-size: 10.2px;" transform="translate(74.06622314453125,433.5)" y="0" x="0" id="text-entity-Place-18cedc50-4c85-52d4-b2dd-111465382dcf-attr-20-name" class="er entityLabel">hasMap</text><rect height="21" width="69.06622314453125" y="444" x="0" class="er attributeBoxOdd"/><text style="dominant-baseline: middle; font-size: 10.2px;" transform="translate(5,454.5)" y="0" x="0" id="text-entity-Place-18cedc50-4c85-52d4-b2dd-111465382dcf-attr-21-type" class="er entityLabel">BooleanList</text><rect height="21" width="152.359375" y="444" x="69.06622314453125" class="er attributeBoxOdd"/><text style="dominant-baseline: middle; font-size: 10.2px;" transform="translate(74.06622314453125,454.5)" y="0" x="0" id="text-entity-Place-18cedc50-4c85-52d4-b2dd-111465382dcf-attr-21-name" class="er entityLabel">isAccessibleForFree</text><rect height="21" width="69.06622314453125" y="465" x="0" class="er attributeBoxEven"/><text style="dominant-baseline: middle; font-size: 10.2px;" transform="translate(5,475.5)" y="0" x="0" id="text-entity-Place-18cedc50-4c85-52d4-b2dd-111465382dcf-attr-22-type" class="er entityLabel">TextList</text><rect height="21" width="152.359375" y="465" x="69.06622314453125" class="er attributeBoxEven"/><text style="dominant-baseline: middle; font-size: 10.2px;" transform="translate(74.06622314453125,475.5)" y="0" x="0" id="text-entity-Place-18cedc50-4c85-52d4-b2dd-111465382dcf-attr-22-name" class="er entityLabel">isicV4</text><rect height="21" width="69.06622314453125" y="486" x="0" class="er attributeBoxOdd"/><text style="dominant-baseline: middle; font-size: 10.2px;" transform="translate(5,496.5)" y="0" x="0" id="text-entity-Place-18cedc50-4c85-52d4-b2dd-111465382dcf-attr-23-type" class="er entityLabel">stringList</text><rect height="21" width="152.359375" y="486" x="69.06622314453125" class="er attributeBoxOdd"/><text style="dominant-baseline: middle; font-size: 10.2px;" transform="translate(74.06622314453125,496.5)" y="0" x="0" id="text-entity-Place-18cedc50-4c85-52d4-b2dd-111465382dcf-attr-23-name" class="er entityLabel">keywords</text><rect height="21" width="69.06622314453125" y="507" x="0" class="er attributeBoxEven"/><text style="dominant-baseline: middle; font-size: 10.2px;" transform="translate(5,517.5)" y="0" x="0" id="text-entity-Place-18cedc50-4c85-52d4-b2dd-111465382dcf-attr-24-type" class="er entityLabel">stringList</text><rect height="21" width="152.359375" y="507" x="69.06622314453125" class="er attributeBoxEven"/><text style="dominant-baseline: middle; font-size: 10.2px;" transform="translate(74.06622314453125,517.5)" y="0" x="0" id="text-entity-Place-18cedc50-4c85-52d4-b2dd-111465382dcf-attr-24-name" class="er entityLabel">latitude</text><rect height="21" width="69.06622314453125" y="528" x="0" class="er attributeBoxOdd"/><text style="dominant-baseline: middle; font-size: 10.2px;" transform="translate(5,538.5)" y="0" x="0" id="text-entity-Place-18cedc50-4c85-52d4-b2dd-111465382dcf-attr-25-type" class="er entityLabel">stringList</text><rect height="21" width="152.359375" y="528" x="69.06622314453125" class="er attributeBoxOdd"/><text style="dominant-baseline: middle; font-size: 10.2px;" transform="translate(74.06622314453125,538.5)" y="0" x="0" id="text-entity-Place-18cedc50-4c85-52d4-b2dd-111465382dcf-attr-25-name" class="er entityLabel">longitude</text><rect height="21" width="69.06622314453125" y="549" x="0" class="er attributeBoxEven"/><text style="dominant-baseline: middle; font-size: 10.2px;" transform="translate(5,559.5)" y="0" x="0" id="text-entity-Place-18cedc50-4c85-52d4-b2dd-111465382dcf-attr-26-type" class="er entityLabel">URLList</text><rect height="21" width="152.359375" y="549" x="69.06622314453125" class="er attributeBoxEven"/><text style="dominant-baseline: middle; font-size: 10.2px;" transform="translate(74.06622314453125,559.5)" y="0" x="0" id="text-entity-Place-18cedc50-4c85-52d4-b2dd-111465382dcf-attr-26-name" class="er entityLabel">map</text><rect height="21" width="69.06622314453125" y="570" x="0" class="er attributeBoxOdd"/><text style="dominant-baseline: middle; font-size: 10.2px;" transform="translate(5,580.5)" y="0" x="0" id="text-entity-Place-18cedc50-4c85-52d4-b2dd-111465382dcf-attr-27-type" class="er entityLabel">URLList</text><rect height="21" width="152.359375" y="570" x="69.06622314453125" class="er attributeBoxOdd"/><text style="dominant-baseline: middle; font-size: 10.2px;" transform="translate(74.06622314453125,580.5)" y="0" x="0" id="text-entity-Place-18cedc50-4c85-52d4-b2dd-111465382dcf-attr-27-name" class="er entityLabel">maps</text><rect height="21" width="69.06622314453125" y="591" x="0" class="er attributeBoxEven"/><text style="dominant-baseline: middle; font-size: 10.2px;" transform="translate(5,601.5)" y="0" x="0" id="text-entity-Place-18cedc50-4c85-52d4-b2dd-111465382dcf-attr-28-type" class="er entityLabel">IntegerList</text><rect height="21" width="152.359375" y="591" x="69.06622314453125" class="er attributeBoxEven"/><text style="dominant-baseline: middle; font-size: 10.2px;" transform="translate(74.06622314453125,601.5)" y="0" x="0" id="text-entity-Place-18cedc50-4c85-52d4-b2dd-111465382dcf-attr-28-name" class="er entityLabel">maximumAttendeeCapacity</text><rect height="21" width="69.06622314453125" y="612" x="0" class="er attributeBoxOdd"/><text style="dominant-baseline: middle; font-size: 10.2px;" transform="translate(5,622.5)" y="0" x="0" id="text-entity-Place-18cedc50-4c85-52d4-b2dd-111465382dcf-attr-29-type" class="er entityLabel">stringList</text><rect height="21" width="152.359375" y="612" x="69.06622314453125" class="er attributeBoxOdd"/><text style="dominant-baseline: middle; font-size: 10.2px;" transform="translate(74.06622314453125,622.5)" y="0" x="0" id="text-entity-Place-18cedc50-4c85-52d4-b2dd-111465382dcf-attr-29-name" class="er entityLabel">photos</text><rect height="21" width="69.06622314453125" y="633" x="0" class="er attributeBoxEven"/><text style="dominant-baseline: middle; font-size: 10.2px;" transform="translate(5,643.5)" y="0" x="0" id="text-entity-Place-18cedc50-4c85-52d4-b2dd-111465382dcf-attr-30-type" class="er entityLabel">BooleanList</text><rect height="21" width="152.359375" y="633" x="69.06622314453125" class="er attributeBoxEven"/><text style="dominant-baseline: middle; font-size: 10.2px;" transform="translate(74.06622314453125,643.5)" y="0" x="0" id="text-entity-Place-18cedc50-4c85-52d4-b2dd-111465382dcf-attr-30-name" class="er entityLabel">publicAccess</text><rect height="21" width="69.06622314453125" y="654" x="0" class="er attributeBoxOdd"/><text style="dominant-baseline: middle; font-size: 10.2px;" transform="translate(5,664.5)" y="0" x="0" id="text-entity-Place-18cedc50-4c85-52d4-b2dd-111465382dcf-attr-31-type" class="er entityLabel">TextList</text><rect height="21" width="152.359375" y="654" x="69.06622314453125" class="er attributeBoxOdd"/><text style="dominant-baseline: middle; font-size: 10.2px;" transform="translate(74.06622314453125,664.5)" y="0" x="0" id="text-entity-Place-18cedc50-4c85-52d4-b2dd-111465382dcf-attr-31-name" class="er entityLabel">slogan</text><rect height="21" width="69.06622314453125" y="675" x="0" class="er attributeBoxEven"/><text style="dominant-baseline: middle; font-size: 10.2px;" transform="translate(5,685.5)" y="0" x="0" id="text-entity-Place-18cedc50-4c85-52d4-b2dd-111465382dcf-attr-32-type" class="er entityLabel">BooleanList</text><rect height="21" width="152.359375" y="675" x="69.06622314453125" class="er attributeBoxEven"/><text style="dominant-baseline: middle; font-size: 10.2px;" transform="translate(74.06622314453125,685.5)" y="0" x="0" id="text-entity-Place-18cedc50-4c85-52d4-b2dd-111465382dcf-attr-32-name" class="er entityLabel">smokingAllowed</text><rect height="21" width="69.06622314453125" y="696" x="0" class="er attributeBoxOdd"/><text style="dominant-baseline: middle; font-size: 10.2px;" transform="translate(5,706.5)" y="0" x="0" id="text-entity-Place-18cedc50-4c85-52d4-b2dd-111465382dcf-attr-33-type" class="er entityLabel">TextList</text><rect height="21" width="152.359375" y="696" x="69.06622314453125" class="er attributeBoxOdd"/><text style="dominant-baseline: middle; font-size: 10.2px;" transform="translate(74.06622314453125,706.5)" y="0" x="0" id="text-entity-Place-18cedc50-4c85-52d4-b2dd-111465382dcf-attr-33-name" class="er entityLabel">telephone</text><rect height="21" width="69.06622314453125" y="717" x="0" class="er attributeBoxEven"/><text style="dominant-baseline: middle; font-size: 10.2px;" transform="translate(5,727.5)" y="0" x="0" id="text-entity-Place-18cedc50-4c85-52d4-b2dd-111465382dcf-attr-34-type" class="er entityLabel">URLList</text><rect height="21" width="152.359375" y="717" x="69.06622314453125" class="er attributeBoxEven"/><text style="dominant-baseline: middle; font-size: 10.2px;" transform="translate(74.06622314453125,727.5)" y="0" x="0" id="text-entity-Place-18cedc50-4c85-52d4-b2dd-111465382dcf-attr-34-name" class="er entityLabel">tourBookingPage</text><rect height="21" width="69.06622314453125" y="738" x="0" class="er attributeBoxOdd"/><text style="dominant-baseline: middle; font-size: 10.2px;" transform="translate(5,748.5)" y="0" x="0" id="text-entity-Place-18cedc50-4c85-52d4-b2dd-111465382dcf-attr-35-type" class="er entityLabel">stringList</text><rect height="21" width="152.359375" y="738" x="69.06622314453125" class="er attributeBoxOdd"/><text style="dominant-baseline: middle; font-size: 10.2px;" transform="translate(74.06622314453125,748.5)" y="0" x="0" id="text-entity-Place-18cedc50-4c85-52d4-b2dd-111465382dcf-attr-35-name" class="er entityLabel">additionalType</text><rect height="21" width="69.06622314453125" y="759" x="0" class="er attributeBoxEven"/><text style="dominant-baseline: middle; font-size: 10.2px;" transform="translate(5,769.5)" y="0" x="0" id="text-entity-Place-18cedc50-4c85-52d4-b2dd-111465382dcf-attr-36-type" class="er entityLabel">TextList</text><rect height="21" width="152.359375" y="759" x="69.06622314453125" class="er attributeBoxEven"/><text style="dominant-baseline: middle; font-size: 10.2px;" transform="translate(74.06622314453125,769.5)" y="0" x="0" id="text-entity-Place-18cedc50-4c85-52d4-b2dd-111465382dcf-attr-36-name" class="er entityLabel">alternateName</text><rect height="21" width="69.06622314453125" y="780" x="0" class="er attributeBoxOdd"/><text style="dominant-baseline: middle; font-size: 10.2px;" transform="translate(5,790.5)" y="0" x="0" id="text-entity-Place-18cedc50-4c85-52d4-b2dd-111465382dcf-attr-37-type" class="er entityLabel">stringList</text><rect height="21" width="152.359375" y="780" x="69.06622314453125" class="er attributeBoxOdd"/><text style="dominant-baseline: middle; font-size: 10.2px;" transform="translate(74.06622314453125,790.5)" y="0" x="0" id="text-entity-Place-18cedc50-4c85-52d4-b2dd-111465382dcf-attr-37-name" class="er entityLabel">description</text><rect height="21" width="69.06622314453125" y="801" x="0" class="er attributeBoxEven"/><text style="dominant-baseline: middle; font-size: 10.2px;" transform="translate(5,811.5)" y="0" x="0" id="text-entity-Place-18cedc50-4c85-52d4-b2dd-111465382dcf-attr-38-type" class="er entityLabel">TextList</text><rect height="21" width="152.359375" y="801" x="69.06622314453125" class="er attributeBoxEven"/><text style="dominant-baseline: middle; font-size: 10.2px;" transform="translate(74.06622314453125,811.5)" y="0" x="0" id="text-entity-Place-18cedc50-4c85-52d4-b2dd-111465382dcf-attr-38-name" class="er entityLabel">disambiguatingDescription</text><rect height="21" width="69.06622314453125" y="822" x="0" class="er attributeBoxOdd"/><text style="dominant-baseline: middle; font-size: 10.2px;" transform="translate(5,832.5)" y="0" x="0" id="text-entity-Place-18cedc50-4c85-52d4-b2dd-111465382dcf-attr-39-type" class="er entityLabel">stringList</text><rect height="21" width="152.359375" y="822" x="69.06622314453125" class="er attributeBoxOdd"/><text style="dominant-baseline: middle; font-size: 10.2px;" transform="translate(74.06622314453125,832.5)" y="0" x="0" id="text-entity-Place-18cedc50-4c85-52d4-b2dd-111465382dcf-attr-39-name" class="er entityLabel">identifier</text><rect height="21" width="69.06622314453125" y="843" x="0" class="er attributeBoxEven"/><text style="dominant-baseline: middle; font-size: 10.2px;" transform="translate(5,853.5)" y="0" x="0" id="text-entity-Place-18cedc50-4c85-52d4-b2dd-111465382dcf-attr-40-type" class="er entityLabel">stringList</text><rect height="21" width="152.359375" y="843" x="69.06622314453125" class="er attributeBoxEven"/><text style="dominant-baseline: middle; font-size: 10.2px;" transform="translate(74.06622314453125,853.5)" y="0" x="0" id="text-entity-Place-18cedc50-4c85-52d4-b2dd-111465382dcf-attr-40-name" class="er entityLabel">image</text><rect height="21" width="69.06622314453125" y="864" x="0" class="er attributeBoxOdd"/><text style="dominant-baseline: middle; font-size: 10.2px;" transform="translate(5,874.5)" y="0" x="0" id="text-entity-Place-18cedc50-4c85-52d4-b2dd-111465382dcf-attr-41-type" class="er entityLabel">TextList</text><rect height="21" width="152.359375" y="864" x="69.06622314453125" class="er attributeBoxOdd"/><text style="dominant-baseline: middle; font-size: 10.2px;" transform="translate(74.06622314453125,874.5)" y="0" x="0" id="text-entity-Place-18cedc50-4c85-52d4-b2dd-111465382dcf-attr-41-name" class="er entityLabel">name</text><rect height="21" width="69.06622314453125" y="885" x="0" class="er attributeBoxEven"/><text style="dominant-baseline: middle; font-size: 10.2px;" transform="translate(5,895.5)" y="0" x="0" id="text-entity-Place-18cedc50-4c85-52d4-b2dd-111465382dcf-attr-42-type" class="er entityLabel">URLList</text><rect height="21" width="152.359375" y="885" x="69.06622314453125" class="er attributeBoxEven"/><text style="dominant-baseline: middle; font-size: 10.2px;" transform="translate(74.06622314453125,895.5)" y="0" x="0" id="text-entity-Place-18cedc50-4c85-52d4-b2dd-111465382dcf-attr-42-name" class="er entityLabel">sameAs</text><rect height="21" width="69.06622314453125" y="906" x="0" class="er attributeBoxOdd"/><text style="dominant-baseline: middle; font-size: 10.2px;" transform="translate(5,916.5)" y="0" x="0" id="text-entity-Place-18cedc50-4c85-52d4-b2dd-111465382dcf-attr-43-type" class="er entityLabel">stringList</text><rect height="21" width="152.359375" y="906" x="69.06622314453125" class="er attributeBoxOdd"/><text style="dominant-baseline: middle; font-size: 10.2px;" transform="translate(74.06622314453125,916.5)" y="0" x="0" id="text-entity-Place-18cedc50-4c85-52d4-b2dd-111465382dcf-attr-43-name" class="er entityLabel">mainEntityOfPage</text><rect height="21" width="69.06622314453125" y="927" x="0" class="er attributeBoxEven"/><text style="dominant-baseline: middle; font-size: 10.2px;" transform="translate(5,937.5)" y="0" x="0" id="text-entity-Place-18cedc50-4c85-52d4-b2dd-111465382dcf-attr-44-type" class="er entityLabel">stringList</text><rect height="21" width="152.359375" y="927" x="69.06622314453125" class="er attributeBoxEven"/><text style="dominant-baseline: middle; font-size: 10.2px;" transform="translate(74.06622314453125,937.5)" y="0" x="0" id="text-entity-Place-18cedc50-4c85-52d4-b2dd-111465382dcf-attr-44-name" class="er entityLabel">subjectOf</text><rect height="21" width="69.06622314453125" y="948" x="0" class="er attributeBoxOdd"/><text style="dominant-baseline: middle; font-size: 10.2px;" transform="translate(5,958.5)" y="0" x="0" id="text-entity-Place-18cedc50-4c85-52d4-b2dd-111465382dcf-attr-45-type" class="er entityLabel">URLList</text><rect height="21" width="152.359375" y="948" x="69.06622314453125" class="er attributeBoxOdd"/><text style="dominant-baseline: middle; font-size: 10.2px;" transform="translate(74.06622314453125,958.5)" y="0" x="0" id="text-entity-Place-18cedc50-4c85-52d4-b2dd-111465382dcf-attr-45-name" class="er entityLabel">url</text></g><g transform="translate(20,1089 )" id="entity-PropertyValue-0e208f6c-77f8-5d2e-b4a4-9a09101a021a"><rect height="75" width="113.734375" y="0" x="0" class="er entityBox"/><text style="dominant-baseline: middle; text-anchor: middle; font-size: 12px;" transform="translate(56.8671875,37.5)" y="0" x="0" id="text-entity-PropertyValue-0e208f6c-77f8-5d2e-b4a4-9a09101a021a" class="er entityLabel">PropertyValue</text></g><g transform="translate(233.734375,1089 )" id="entity-AggregateRating-aa0a8837-178a-57ab-baa0-94ad30d90eb5"><rect height="75" width="131.25" y="0" x="0" class="er entityBox"/><text style="dominant-baseline: middle; text-anchor: middle; font-size: 12px;" transform="translate(65.625,37.5)" y="0" x="0" id="text-entity-AggregateRating-aa0a8837-178a-57ab-baa0-94ad30d90eb5" class="er entityLabel">AggregateRating</text></g><g transform="translate(464.984375,1089 )" id="entity-LocationFeatureSpecification-dbe29f9c-e3d0-5bc9-80cd-10146568b0ab"><rect height="75" width="203.15625" y="0" x="0" class="er entityBox"/><text style="dominant-baseline: middle; text-anchor: middle; font-size: 12px;" transform="translate(101.578125,37.5)" y="0" x="0" id="text-entity-LocationFeatureSpecification-dbe29f9c-e3d0-5bc9-80cd-10146568b0ab" class="er entityLabel">LocationFeatureSpecification</text></g><g transform="translate(768.140625,1089 )" id="entity-Event-5fcfcec5-0af7-59ba-bebb-bb0a822c8afa"><rect height="75" width="100" y="0" x="0" class="er entityBox"/><text style="dominant-baseline: middle; text-anchor: middle; font-size: 12px;" transform="translate(50,37.5)" y="0" x="0" id="text-entity-Event-5fcfcec5-0af7-59ba-bebb-bb0a822c8afa" class="er entityLabel">Event</text></g><g transform="translate(968.140625,1089 )" id="entity-Certification-8b250de0-929b-5806-8c87-f8e7c928ef36"><rect height="75" width="103.234375" y="0" x="0" class="er entityBox"/><text style="dominant-baseline: middle; text-anchor: middle; font-size: 12px;" transform="translate(51.6171875,37.5)" y="0" x="0" id="text-entity-Certification-8b250de0-929b-5806-8c87-f8e7c928ef36" class="er entityLabel">Certification</text></g><g transform="translate(1171.375,1089 )" id="entity-OpeningHoursSpecification-677aa64f-a506-5d18-b5d1-75a0f22f6986"><rect height="75" width="192.8125" y="0" x="0" class="er entityBox"/><text style="dominant-baseline: middle; text-anchor: middle; font-size: 12px;" transform="translate(96.40625,37.5)" y="0" x="0" id="text-entity-OpeningHoursSpecification-677aa64f-a506-5d18-b5d1-75a0f22f6986" class="er entityLabel">OpeningHoursSpecification</text></g><g transform="translate(1464.1875,1089 )" id="entity-Review-77c92a79-8cff-50c0-9604-f9135763cccd"><rect height="75" width="100" y="0" x="0" class="er entityBox"/><text style="dominant-baseline: middle; text-anchor: middle; font-size: 12px;" transform="translate(50,37.5)" y="0" x="0" id="text-entity-Review-77c92a79-8cff-50c0-9604-f9135763cccd" class="er entityLabel">Review</text></g><g transform="translate(1664.1875,1089 )" id="entity-Action-6cd87d9a-a078-546e-a35b-bee54f477b31"><rect height="75" width="100" y="0" x="0" class="er entityBox"/><text style="dominant-baseline: middle; text-anchor: middle; font-size: 12px;" transform="translate(50,37.5)" y="0" x="0" id="text-entity-Action-6cd87d9a-a078-546e-a35b-bee54f477b31" class="er entityLabel">Action</text></g><rect height="14" width="110.375" y="805.481201171875" x="423.3804626464844" class="er relationshipLabelBox"/><text style="text-anchor: middle; dominant-baseline: middle; font-size: 12px;" y="812.481201171875" x="478.5679626464844" id="rel1" class="er relationshipLabel">additionalProperty</text><rect height="14" width="100.390625" y="817.9575805664062" x="539.3424682617188" class="er relationshipLabelBox"/><text style="text-anchor: middle; dominant-baseline: middle; font-size: 12px;" y="824.9575805664062" x="589.5377807617188" id="rel2" class="er relationshipLabel">aggregateRating</text><rect height="14" width="94.53125" y="847.2262573242188" x="677.1559448242188" class="er relationshipLabelBox"/><text style="text-anchor: middle; dominant-baseline: middle; font-size: 12px;" y="854.2262573242188" x="724.4215698242188" id="rel3" class="er relationshipLabel">amenityFeature</text><rect height="14" width="70.6875" y="497.49993896484375" x="1194.293212890625" class="er relationshipLabelBox"/><text style="text-anchor: middle; dominant-baseline: middle; font-size: 12px;" y="504.49993896484375" x="1229.636962890625" id="rel4" class="er relationshipLabel">containedIn</text><rect height="14" width="102.59375" y="497.5" x="1282.2291259765625" class="er relationshipLabelBox"/><text style="text-anchor: middle; dominant-baseline: middle; font-size: 12px;" y="504.5" x="1333.5260009765625" id="rel5" class="er relationshipLabel">containedInPlace</text><rect height="14" width="82.703125" y="497.5001220703125" x="1396.0634765625" class="er relationshipLabelBox"/><text style="text-anchor: middle; dominant-baseline: middle; font-size: 12px;" y="504.5001220703125" x="1437.4150390625" id="rel6" class="er relationshipLabel">containsPlace</text><rect height="14" width="34.47265625" y="892.8338012695312" x="799.6237182617188" class="er relationshipLabelBox"/><text style="text-anchor: middle; dominant-baseline: middle; font-size: 12px;" y="899.8338012695312" x="816.8600463867188" id="rel7" class="er relationshipLabel">event</text><rect height="14" width="40.4375" y="988.2001953125" x="860.1166381835938" class="er relationshipLabelBox"/><text style="text-anchor: middle; dominant-baseline: middle; font-size: 12px;" y="995.2001953125" x="880.3353881835938" id="rel8" class="er relationshipLabel">events</text><rect height="14" width="94.453125" y="1032" x="972.5314331054688" class="er relationshipLabelBox"/><text style="text-anchor: middle; dominant-baseline: middle; font-size: 12px;" y="1039" x="1019.7579956054688" id="rel9" class="er relationshipLabel">hasCertification</text><rect height="14" width="160.71875" y="964.6156005859375" x="1092.8900146484375" class="er relationshipLabelBox"/><text style="text-anchor: middle; dominant-baseline: middle; font-size: 12px;" y="971.6156005859375" x="1173.2493896484375" id="rel10" class="er relationshipLabel">openingHoursSpecification</text><rect height="14" width="39.87109375" y="860.548095703125" x="1286.013671875" class="er relationshipLabelBox"/><text style="text-anchor: middle; dominant-baseline: middle; font-size: 12px;" y="867.548095703125" x="1305.94921875" id="rel11" class="er relationshipLabel">review</text><rect height="14" width="45.9375" y="831.753173828125" x="1335.212646484375" class="er relationshipLabelBox"/><text style="text-anchor: middle; dominant-baseline: middle; font-size: 12px;" y="838.753173828125" x="1358.181396484375" id="rel12" class="er relationshipLabel">reviews</text><rect height="14" width="204.6875" y="876.3909912109375" x="1142.917724609375" class="er relationshipLabelBox"/><text style="text-anchor: middle; dominant-baseline: middle; font-size: 12px;" y="883.3909912109375" x="1245.261474609375" id="rel13" class="er relationshipLabel">specialOpeningHoursSpecification</text><rect height="14" width="90.96875" y="819.89697265625" x="1391.490966796875" class="er relationshipLabelBox"/><text style="text-anchor: middle; dominant-baseline: middle; font-size: 12px;" y="826.89697265625" x="1436.975341796875" id="rel14" class="er relationshipLabel">potentialAction</text></svg>