<svg aria-roledescription="er" role="graphics-document document" viewBox="-309.9623718261719 0 1816.04052734375 470" style="max-width: 1816.04px; background-color: white;" xmlns:xlink="http://www.w3.org/1999/xlink" xmlns="http://www.w3.org/2000/svg" width="100%" id="my-svg"><style>#my-svg{font-family:"trebuchet ms",verdana,arial,sans-serif;font-size:16px;fill:#333;}#my-svg .error-icon{fill:#552222;}#my-svg .error-text{fill:#552222;stroke:#552222;}#my-svg .edge-thickness-normal{stroke-width:1px;}#my-svg .edge-thickness-thick{stroke-width:3.5px;}#my-svg .edge-pattern-solid{stroke-dasharray:0;}#my-svg .edge-thickness-invisible{stroke-width:0;fill:none;}#my-svg .edge-pattern-dashed{stroke-dasharray:3;}#my-svg .edge-pattern-dotted{stroke-dasharray:2;}#my-svg .marker{fill:#333333;stroke:#333333;}#my-svg .marker.cross{stroke:#333333;}#my-svg svg{font-family:"trebuchet ms",verdana,arial,sans-serif;font-size:16px;}#my-svg p{margin:0;}#my-svg .entityBox{fill:#ECECFF;stroke:#9370DB;}#my-svg .attributeBoxOdd{fill:#ffffff;stroke:#9370DB;}#my-svg .attributeBoxEven{fill:#f2f2f2;stroke:#9370DB;}#my-svg .relationshipLabelBox{fill:hsl(80, 100%, 96.2745098039%);opacity:0.7;background-color:hsl(80, 100%, 96.2745098039%);}#my-svg .relationshipLabelBox rect{opacity:0.5;}#my-svg .relationshipLine{stroke:#333333;}#my-svg .entityTitleText{text-anchor:middle;font-size:18px;fill:#333;}#my-svg #MD_PARENT_START{fill:#f5f5f5!important;stroke:#333333!important;stroke-width:1;}#my-svg #MD_PARENT_END{fill:#f5f5f5!important;stroke:#333333!important;stroke-width:1;}#my-svg :root{--mermaid-font-family:"trebuchet ms",verdana,arial,sans-serif;}</style><g/><defs><marker orient="auto" markerHeight="240" markerWidth="190" refY="7" refX="0" id="MD_PARENT_START"><path d="M 18,7 L9,13 L1,7 L9,1 Z"/></marker></defs><defs><marker orient="auto" markerHeight="28" markerWidth="20" refY="7" refX="19" id="MD_PARENT_END"><path d="M 18,7 L9,13 L1,7 L9,1 Z"/></marker></defs><defs><marker orient="auto" markerHeight="18" markerWidth="18" refY="9" refX="0" id="ONLY_ONE_START"><path d="M9,0 L9,18 M15,0 L15,18" fill="none" stroke="gray"/></marker></defs><defs><marker orient="auto" markerHeight="18" markerWidth="18" refY="9" refX="18" id="ONLY_ONE_END"><path d="M3,0 L3,18 M9,0 L9,18" fill="none" stroke="gray"/></marker></defs><defs><marker orient="auto" markerHeight="18" markerWidth="30" refY="9" refX="0" id="ZERO_OR_ONE_START"><circle r="6" cy="9" cx="21" fill="white" stroke="gray"/><path d="M9,0 L9,18" fill="none" stroke="gray"/></marker></defs><defs><marker orient="auto" markerHeight="18" markerWidth="30" refY="9" refX="30" id="ZERO_OR_ONE_END"><circle r="6" cy="9" cx="9" fill="white" stroke="gray"/><path d="M21,0 L21,18" fill="none" stroke="gray"/></marker></defs><defs><marker orient="auto" markerHeight="36" markerWidth="45" refY="18" refX="18" id="ONE_OR_MORE_START"><path d="M0,18 Q 18,0 36,18 Q 18,36 0,18 M42,9 L42,27" fill="none" stroke="gray"/></marker></defs><defs><marker orient="auto" markerHeight="36" markerWidth="45" refY="18" refX="27" id="ONE_OR_MORE_END"><path d="M3,9 L3,27 M9,18 Q27,0 45,18 Q27,36 9,18" fill="none" stroke="gray"/></marker></defs><defs><marker orient="auto" markerHeight="36" markerWidth="57" refY="18" refX="18" id="ZERO_OR_MORE_START"><circle r="6" cy="18" cx="48" fill="white" stroke="gray"/><path d="M0,18 Q18,0 36,18 Q18,36 0,18" fill="none" stroke="gray"/></marker></defs><defs><marker orient="auto" markerHeight="36" markerWidth="57" refY="18" refX="39" id="ZERO_OR_MORE_END"><circle r="6" cy="18" cx="9" fill="white" stroke="gray"/><path d="M21,18 Q39,0 57,18 Q39,36 21,18" fill="none" stroke="gray"/></marker></defs><path style="stroke: gray; fill: none;" marker-start="url(#ONLY_ONE_START)" marker-end="url(#ZERO_OR_MORE_END)" d="M176.703,167.132L67.253,193.443C-42.198,219.754,-261.099,272.377,-287.216,311.946C-313.333,351.515,-146.667,378.03,-63.333,391.288L20,404.545" class="er relationshipLine"/><path style="stroke: gray; fill: none;" marker-start="url(#ONLY_ONE_START)" marker-end="url(#ZERO_OR_MORE_END)" d="M176.703,170.207L83.919,196.006C-8.865,221.805,-194.432,273.402,-220.549,312.164C-246.667,350.926,-113.333,376.852,-46.667,389.815L20,402.778" class="er relationshipLine"/><path style="stroke: gray; fill: none;" marker-start="url(#ONLY_ONE_START)" marker-end="url(#ZERO_OR_MORE_END)" d="M176.703,174.425L100.586,199.521C24.469,224.616,-127.766,274.808,-153.883,312.404C-180,350,-80,375,-30,387.5L20,400" class="er relationshipLine"/><path style="stroke: gray; fill: none;" marker-start="url(#ONLY_ONE_START)" marker-end="url(#ZERO_OR_MORE_END)" d="M176.703,180.567L117.253,204.639C57.802,228.711,-61.099,276.856,-87.216,312.594C-113.333,348.333,-46.667,371.667,-13.333,383.333L20,395" class="er relationshipLine"/><path style="stroke: gray; fill: none;" marker-start="url(#ONLY_ONE_START)" marker-end="url(#ZERO_OR_MORE_END)" d="M176.703,190.339L133.919,212.783C91.135,235.226,5.568,280.113,-20.549,312.279C-46.667,344.444,-13.333,363.889,3.333,373.611L20,383.333" class="er relationshipLine"/><path style="stroke: gray; fill: none;" marker-start="url(#ONLY_ONE_START)" marker-end="url(#ZERO_OR_MORE_END)" d="M340.031,178.9L403.359,203.25C466.688,227.6,593.344,276.3,656.672,308.983C720,341.667,720,358.333,720,366.667L720,375" class="er relationshipLine"/><path style="stroke: gray; fill: none;" marker-start="url(#ONLY_ONE_START)" marker-end="url(#ZERO_OR_MORE_END)" d="M176.703,208.311L150.586,227.759C124.469,247.207,72.234,286.104,50.879,313.885C29.524,341.667,39.048,358.333,43.81,366.667L48.571,375" class="er relationshipLine"/><path style="stroke: gray; fill: none;" marker-start="url(#ONLY_ONE_START)" marker-end="url(#ZERO_OR_MORE_END)" d="M176.703,252.26L167.253,264.383C157.802,276.507,138.901,300.753,124.689,321.21C110.476,341.667,100.952,358.333,96.19,366.667L91.429,375" class="er relationshipLine"/><path style="stroke: gray; fill: none;" marker-start="url(#ONLY_ONE_START)" marker-end="url(#ZERO_OR_MORE_END)" d="M230.808,275L229.006,283.333C227.205,291.667,223.603,308.333,205.135,326.389C186.667,344.444,153.333,363.889,136.667,373.611L120,383.333" class="er relationshipLine"/><path style="stroke: gray; fill: none;" marker-start="url(#ONLY_ONE_START)" marker-end="url(#ZERO_OR_MORE_END)" d="M340.031,167.321L448.305,193.601C556.578,219.881,773.125,272.44,881.398,307.054C989.672,341.667,989.672,358.333,989.672,366.667L989.672,375" class="er relationshipLine"/><path style="stroke: gray; fill: none;" marker-start="url(#ONLY_ONE_START)" marker-end="url(#ZERO_OR_MORE_END)" d="M302.639,275L305.532,283.333C308.426,291.667,314.213,308.333,283.773,328.333C253.333,348.333,186.667,371.667,153.333,383.333L120,395" class="er relationshipLine"/><path style="stroke: gray; fill: none;" marker-start="url(#ONLY_ONE_START)" marker-end="url(#ZERO_OR_MORE_END)" d="M340.031,237.181L353.359,251.817C366.688,266.454,393.344,295.727,356.672,322.863C320,350,220,375,170,387.5L120,400" class="er relationshipLine"/><path style="stroke: gray; fill: none;" marker-start="url(#ONLY_ONE_START)" marker-end="url(#ZERO_OR_MORE_END)" d="M340.031,202.903L370.026,223.253C400.021,243.602,460.01,284.301,423.339,317.614C386.667,350.926,253.333,376.852,186.667,389.815L120,402.778" class="er relationshipLine"/><path style="stroke: gray; fill: none;" marker-start="url(#ONLY_ONE_START)" marker-end="url(#ZERO_OR_MORE_END)" d="M340.031,187.583L386.693,210.486C433.354,233.389,526.677,279.194,490.005,315.355C453.333,351.515,286.667,378.03,203.333,391.288L120,404.545" class="er relationshipLine"/><path style="stroke: gray; fill: none;" marker-start="url(#ONLY_ONE_START)" marker-end="url(#ZERO_OR_MORE_END)" d="M340.031,163.526L477.172,190.438C614.313,217.35,888.594,271.175,1032.706,306.421C1176.818,341.667,1190.762,358.333,1197.734,366.667L1204.705,375" class="er relationshipLine"/><path style="stroke: gray; fill: none;" marker-start="url(#ONLY_ONE_START)" marker-end="url(#ZERO_OR_MORE_END)" d="M340.031,159.808L522.706,187.34C705.38,214.872,1070.729,269.936,1253.404,305.801C1436.078,341.667,1436.078,358.333,1436.078,366.667L1436.078,375" class="er relationshipLine"/><path style="stroke: gray; fill: none;" marker-start="url(#ONLY_ONE_START)" marker-end="url(#ZERO_OR_MORE_END)" d="M340.031,161.605L497.706,188.837C655.38,216.07,970.729,270.535,1123.642,306.101C1276.554,341.667,1267.031,358.333,1262.269,366.667L1257.507,375" class="er relationshipLine"/><g transform="translate(176.703125,20 )" id="entity-PostalAddress-978daf92-13a2-54f9-8f4b-8d173e946304"><rect height="255" width="163.328125" y="0" x="0" class="er entityBox"/><text style="dominant-baseline: middle; text-anchor: middle; font-size: 12px;" transform="translate(81.6640625,12)" y="0" x="0" id="text-entity-PostalAddress-978daf92-13a2-54f9-8f4b-8d173e946304" class="er entityLabel">PostalAddress</text><rect height="21" width="57.0625" y="24" x="0" class="er attributeBoxOdd"/><text style="dominant-baseline: middle; font-size: 10.2px;" transform="translate(5,34.5)" y="0" x="0" id="text-entity-PostalAddress-978daf92-13a2-54f9-8f4b-8d173e946304-attr-1-type" class="er entityLabel">stringList</text><rect height="21" width="106.265625" y="24" x="57.0625" class="er attributeBoxOdd"/><text style="dominant-baseline: middle; font-size: 10.2px;" transform="translate(62.0625,34.5)" y="0" x="0" id="text-entity-PostalAddress-978daf92-13a2-54f9-8f4b-8d173e946304-attr-1-name" class="er entityLabel">addressCountry</text><rect height="21" width="57.0625" y="45" x="0" class="er attributeBoxEven"/><text style="dominant-baseline: middle; font-size: 10.2px;" transform="translate(5,55.5)" y="0" x="0" id="text-entity-PostalAddress-978daf92-13a2-54f9-8f4b-8d173e946304-attr-2-type" class="er entityLabel">stringList</text><rect height="21" width="106.265625" y="45" x="57.0625" class="er attributeBoxEven"/><text style="dominant-baseline: middle; font-size: 10.2px;" transform="translate(62.0625,55.5)" y="0" x="0" id="text-entity-PostalAddress-978daf92-13a2-54f9-8f4b-8d173e946304-attr-2-name" class="er entityLabel">areaServed</text><rect height="21" width="57.0625" y="66" x="0" class="er attributeBoxOdd"/><text style="dominant-baseline: middle; font-size: 10.2px;" transform="translate(5,76.5)" y="0" x="0" id="text-entity-PostalAddress-978daf92-13a2-54f9-8f4b-8d173e946304-attr-3-type" class="er entityLabel">stringList</text><rect height="21" width="106.265625" y="66" x="57.0625" class="er attributeBoxOdd"/><text style="dominant-baseline: middle; font-size: 10.2px;" transform="translate(62.0625,76.5)" y="0" x="0" id="text-entity-PostalAddress-978daf92-13a2-54f9-8f4b-8d173e946304-attr-3-name" class="er entityLabel">availableLanguage</text><rect height="21" width="57.0625" y="87" x="0" class="er attributeBoxEven"/><text style="dominant-baseline: middle; font-size: 10.2px;" transform="translate(5,97.5)" y="0" x="0" id="text-entity-PostalAddress-978daf92-13a2-54f9-8f4b-8d173e946304-attr-4-type" class="er entityLabel">stringList</text><rect height="21" width="106.265625" y="87" x="57.0625" class="er attributeBoxEven"/><text style="dominant-baseline: middle; font-size: 10.2px;" transform="translate(62.0625,97.5)" y="0" x="0" id="text-entity-PostalAddress-978daf92-13a2-54f9-8f4b-8d173e946304-attr-4-name" class="er entityLabel">productSupported</text><rect height="21" width="57.0625" y="108" x="0" class="er attributeBoxOdd"/><text style="dominant-baseline: middle; font-size: 10.2px;" transform="translate(5,118.5)" y="0" x="0" id="text-entity-PostalAddress-978daf92-13a2-54f9-8f4b-8d173e946304-attr-5-type" class="er entityLabel">stringList</text><rect height="21" width="106.265625" y="108" x="57.0625" class="er attributeBoxOdd"/><text style="dominant-baseline: middle; font-size: 10.2px;" transform="translate(62.0625,118.5)" y="0" x="0" id="text-entity-PostalAddress-978daf92-13a2-54f9-8f4b-8d173e946304-attr-5-name" class="er entityLabel">serviceArea</text><rect height="21" width="57.0625" y="129" x="0" class="er attributeBoxEven"/><text style="dominant-baseline: middle; font-size: 10.2px;" transform="translate(5,139.5)" y="0" x="0" id="text-entity-PostalAddress-978daf92-13a2-54f9-8f4b-8d173e946304-attr-6-type" class="er entityLabel">stringList</text><rect height="21" width="106.265625" y="129" x="57.0625" class="er attributeBoxEven"/><text style="dominant-baseline: middle; font-size: 10.2px;" transform="translate(62.0625,139.5)" y="0" x="0" id="text-entity-PostalAddress-978daf92-13a2-54f9-8f4b-8d173e946304-attr-6-name" class="er entityLabel">additionalType</text><rect height="21" width="57.0625" y="150" x="0" class="er attributeBoxOdd"/><text style="dominant-baseline: middle; font-size: 10.2px;" transform="translate(5,160.5)" y="0" x="0" id="text-entity-PostalAddress-978daf92-13a2-54f9-8f4b-8d173e946304-attr-7-type" class="er entityLabel">stringList</text><rect height="21" width="106.265625" y="150" x="57.0625" class="er attributeBoxOdd"/><text style="dominant-baseline: middle; font-size: 10.2px;" transform="translate(62.0625,160.5)" y="0" x="0" id="text-entity-PostalAddress-978daf92-13a2-54f9-8f4b-8d173e946304-attr-7-name" class="er entityLabel">description</text><rect height="21" width="57.0625" y="171" x="0" class="er attributeBoxEven"/><text style="dominant-baseline: middle; font-size: 10.2px;" transform="translate(5,181.5)" y="0" x="0" id="text-entity-PostalAddress-978daf92-13a2-54f9-8f4b-8d173e946304-attr-8-type" class="er entityLabel">stringList</text><rect height="21" width="106.265625" y="171" x="57.0625" class="er attributeBoxEven"/><text style="dominant-baseline: middle; font-size: 10.2px;" transform="translate(62.0625,181.5)" y="0" x="0" id="text-entity-PostalAddress-978daf92-13a2-54f9-8f4b-8d173e946304-attr-8-name" class="er entityLabel">identifier</text><rect height="21" width="57.0625" y="192" x="0" class="er attributeBoxOdd"/><text style="dominant-baseline: middle; font-size: 10.2px;" transform="translate(5,202.5)" y="0" x="0" id="text-entity-PostalAddress-978daf92-13a2-54f9-8f4b-8d173e946304-attr-9-type" class="er entityLabel">stringList</text><rect height="21" width="106.265625" y="192" x="57.0625" class="er attributeBoxOdd"/><text style="dominant-baseline: middle; font-size: 10.2px;" transform="translate(62.0625,202.5)" y="0" x="0" id="text-entity-PostalAddress-978daf92-13a2-54f9-8f4b-8d173e946304-attr-9-name" class="er entityLabel">image</text><rect height="21" width="57.0625" y="213" x="0" class="er attributeBoxEven"/><text style="dominant-baseline: middle; font-size: 10.2px;" transform="translate(5,223.5)" y="0" x="0" id="text-entity-PostalAddress-978daf92-13a2-54f9-8f4b-8d173e946304-attr-10-type" class="er entityLabel">stringList</text><rect height="21" width="106.265625" y="213" x="57.0625" class="er attributeBoxEven"/><text style="dominant-baseline: middle; font-size: 10.2px;" transform="translate(62.0625,223.5)" y="0" x="0" id="text-entity-PostalAddress-978daf92-13a2-54f9-8f4b-8d173e946304-attr-10-name" class="er entityLabel">mainEntityOfPage</text><rect height="21" width="57.0625" y="234" x="0" class="er attributeBoxOdd"/><text style="dominant-baseline: middle; font-size: 10.2px;" transform="translate(5,244.5)" y="0" x="0" id="text-entity-PostalAddress-978daf92-13a2-54f9-8f4b-8d173e946304-attr-11-type" class="er entityLabel">stringList</text><rect height="21" width="106.265625" y="234" x="57.0625" class="er attributeBoxOdd"/><text style="dominant-baseline: middle; font-size: 10.2px;" transform="translate(62.0625,244.5)" y="0" x="0" id="text-entity-PostalAddress-978daf92-13a2-54f9-8f4b-8d173e946304-attr-11-name" class="er entityLabel">subjectOf</text></g><g transform="translate(20,375 )" id="entity-Text-426c5d39-acfc-5487-a6d9-ede67887190e"><rect height="75" width="100" y="0" x="0" class="er entityBox"/><text style="dominant-baseline: middle; text-anchor: middle; font-size: 12px;" transform="translate(50,37.5)" y="0" x="0" id="text-entity-Text-426c5d39-acfc-5487-a6d9-ede67887190e" class="er entityLabel">Text</text></g><g transform="translate(646.734375,375 )" id="entity-ContactPointOption-260b39e4-2889-5600-9440-34f3a8c36692"><rect height="75" width="146.53125" y="0" x="0" class="er entityBox"/><text style="dominant-baseline: middle; text-anchor: middle; font-size: 12px;" transform="translate(73.265625,37.5)" y="0" x="0" id="text-entity-ContactPointOption-260b39e4-2889-5600-9440-34f3a8c36692" class="er entityLabel">ContactPointOption</text></g><g transform="translate(893.265625,375 )" id="entity-OpeningHoursSpecification-677aa64f-a506-5d18-b5d1-75a0f22f6986"><rect height="75" width="192.8125" y="0" x="0" class="er entityBox"/><text style="dominant-baseline: middle; text-anchor: middle; font-size: 12px;" transform="translate(96.40625,37.5)" y="0" x="0" id="text-entity-OpeningHoursSpecification-677aa64f-a506-5d18-b5d1-75a0f22f6986" class="er entityLabel">OpeningHoursSpecification</text></g><g transform="translate(1186.078125,375 )" id="entity-URL-07f78d3e-fd74-5925-b39b-26c1cc2d6b7c"><rect height="75" width="100" y="0" x="0" class="er entityBox"/><text style="dominant-baseline: middle; text-anchor: middle; font-size: 12px;" transform="translate(50,37.5)" y="0" x="0" id="text-entity-URL-07f78d3e-fd74-5925-b39b-26c1cc2d6b7c" class="er entityLabel">URL</text></g><g transform="translate(1386.078125,375 )" id="entity-Action-6cd87d9a-a078-546e-a35b-bee54f477b31"><rect height="75" width="100" y="0" x="0" class="er entityBox"/><text style="dominant-baseline: middle; text-anchor: middle; font-size: 12px;" transform="translate(50,37.5)" y="0" x="0" id="text-entity-Action-6cd87d9a-a078-546e-a35b-bee54f477b31" class="er entityLabel">Action</text></g><rect height="14" width="93.390625" y="267.7088928222656" x="-268.68775939941406" class="er relationshipLabelBox"/><text style="text-anchor: middle; dominant-baseline: middle; font-size: 12px;" y="274.7088928222656" x="-221.99244689941406" id="rel1" class="er relationshipLabel">addressLocality</text><rect height="14" width="88.234375" y="266.3066711425781" x="-201.3135528564453" class="er relationshipLabelBox"/><text style="text-anchor: middle; dominant-baseline: middle; font-size: 12px;" y="273.3066711425781" x="-157.1963653564453" id="rel2" class="er relationshipLabel">addressRegion</text><rect height="14" width="131.521484375" y="264.9250183105469" x="-158.80828094482422" class="er relationshipLabelBox"/><text style="text-anchor: middle; dominant-baseline: middle; font-size: 12px;" y="271.9250183105469" x="-93.04753875732422" id="rel3" class="er relationshipLabel">postOfficeBoxNumber</text><rect height="14" width="67.328125" y="263.796875" x="-63.558101654052734" class="er relationshipLabelBox"/><text style="text-anchor: middle; dominant-baseline: middle; font-size: 12px;" y="270.796875" x="-29.894039154052734" id="rel4" class="er relationshipLabel">postalCode</text><rect height="14" width="82.890625" y="263.36566162109375" x="-9.503549575805664" class="er relationshipLabelBox"/><text style="text-anchor: middle; dominant-baseline: middle; font-size: 12px;" y="270.36566162109375" x="31.941762924194336" id="rel5" class="er relationshipLabel">streetAddress</text><rect height="14" width="84.96875" y="252.09390258789062" x="502.45513916015625" class="er relationshipLabelBox"/><text style="text-anchor: middle; dominant-baseline: middle; font-size: 12px;" y="259.0939025878906" x="544.9395141601562" id="rel6" class="er relationshipLabel">contactOption</text><rect height="14" width="72.46875" y="272.2519836425781" x="49.03752136230469" class="er relationshipLabelBox"/><text style="text-anchor: middle; dominant-baseline: middle; font-size: 12px;" y="279.2519836425781" x="85.27189636230469" id="rel7" class="er relationshipLabel">contactType</text><rect height="14" width="33.09375" y="304.78076171875" x="114.82209777832031" class="er relationshipLabelBox"/><text style="text-anchor: middle; dominant-baseline: middle; font-size: 12px;" y="311.78076171875" x="131.3689727783203" id="rel8" class="er relationshipLabel">email</text><rect height="14" width="66.951171875" y="333.5594177246094" x="154.7922821044922" class="er relationshipLabelBox"/><text style="text-anchor: middle; dominant-baseline: middle; font-size: 12px;" y="340.5594177246094" x="188.2678680419922" id="rel9" class="er relationshipLabel">faxNumber</text><rect height="13.999984741210938" width="88.0625" y="243.5256576538086" x="633.7872924804688" class="er relationshipLabelBox"/><text style="text-anchor: middle; dominant-baseline: middle; font-size: 12px;" y="250.52565002441406" x="677.8185424804688" id="rel10" class="er relationshipLabel">hoursAvailable</text><rect height="14" width="60.359375" y="346.50360107421875" x="202.86082458496094" class="er relationshipLabelBox"/><text style="text-anchor: middle; dominant-baseline: middle; font-size: 12px;" y="353.50360107421875" x="233.04051208496094" id="rel11" class="er relationshipLabel">telephone</text><rect height="14" width="89.953125" y="346.3408203125" x="245.69711303710938" class="er relationshipLabelBox"/><text style="text-anchor: middle; dominant-baseline: middle; font-size: 12px;" y="353.3408203125" x="290.6736755371094" id="rel12" class="er relationshipLabel">alternateName</text><rect height="14" width="161.390625" y="343.4572448730469" x="273.08087158203125" class="er relationshipLabelBox"/><text style="text-anchor: middle; dominant-baseline: middle; font-size: 12px;" y="350.4572448730469" x="353.77618408203125" id="rel13" class="er relationshipLabel">disambiguatingDescription</text><rect height="14" width="34.03125" y="341.89208984375" x="398.4005432128906" class="er relationshipLabelBox"/><text style="text-anchor: middle; dominant-baseline: middle; font-size: 12px;" y="348.89208984375" x="415.4161682128906" id="rel14" class="er relationshipLabel">name</text><rect height="14" width="47.140625" y="243.82354736328125" x="755.615234375" class="er relationshipLabelBox"/><text style="text-anchor: middle; dominant-baseline: middle; font-size: 12px;" y="250.82354736328125" x="779.185546875" id="rel15" class="er relationshipLabel">sameAs</text><rect height="14" width="90.96875" y="238.17332458496094" x="853.4495239257812" class="er relationshipLabelBox"/><text style="text-anchor: middle; dominant-baseline: middle; font-size: 12px;" y="245.17332458496094" x="898.9338989257812" id="rel16" class="er relationshipLabel">potentialAction</text><rect height="14" width="15.875" y="238.079833984375" x="808.5407104492188" class="er relationshipLabelBox"/><text style="text-anchor: middle; dominant-baseline: middle; font-size: 12px;" y="245.079833984375" x="816.4782104492188" id="rel17" class="er relationshipLabel">url</text></svg>