<svg aria-roledescription="er" role="graphics-document document" viewBox="0 0 1158.359375 428" style="max-width: 1158.36px; background-color: white;" xmlns:xlink="http://www.w3.org/1999/xlink" xmlns="http://www.w3.org/2000/svg" width="100%" id="my-svg"><style>#my-svg{font-family:"trebuchet ms",verdana,arial,sans-serif;font-size:16px;fill:#333;}#my-svg .error-icon{fill:#552222;}#my-svg .error-text{fill:#552222;stroke:#552222;}#my-svg .edge-thickness-normal{stroke-width:1px;}#my-svg .edge-thickness-thick{stroke-width:3.5px;}#my-svg .edge-pattern-solid{stroke-dasharray:0;}#my-svg .edge-thickness-invisible{stroke-width:0;fill:none;}#my-svg .edge-pattern-dashed{stroke-dasharray:3;}#my-svg .edge-pattern-dotted{stroke-dasharray:2;}#my-svg .marker{fill:#333333;stroke:#333333;}#my-svg .marker.cross{stroke:#333333;}#my-svg svg{font-family:"trebuchet ms",verdana,arial,sans-serif;font-size:16px;}#my-svg p{margin:0;}#my-svg .entityBox{fill:#ECECFF;stroke:#9370DB;}#my-svg .attributeBoxOdd{fill:#ffffff;stroke:#9370DB;}#my-svg .attributeBoxEven{fill:#f2f2f2;stroke:#9370DB;}#my-svg .relationshipLabelBox{fill:hsl(80, 100%, 96.2745098039%);opacity:0.7;background-color:hsl(80, 100%, 96.2745098039%);}#my-svg .relationshipLabelBox rect{opacity:0.5;}#my-svg .relationshipLine{stroke:#333333;}#my-svg .entityTitleText{text-anchor:middle;font-size:18px;fill:#333;}#my-svg #MD_PARENT_START{fill:#f5f5f5!important;stroke:#333333!important;stroke-width:1;}#my-svg #MD_PARENT_END{fill:#f5f5f5!important;stroke:#333333!important;stroke-width:1;}#my-svg :root{--mermaid-font-family:"trebuchet ms",verdana,arial,sans-serif;}</style><g/><defs><marker orient="auto" markerHeight="240" markerWidth="190" refY="7" refX="0" id="MD_PARENT_START"><path d="M 18,7 L9,13 L1,7 L9,1 Z"/></marker></defs><defs><marker orient="auto" markerHeight="28" markerWidth="20" refY="7" refX="19" id="MD_PARENT_END"><path d="M 18,7 L9,13 L1,7 L9,1 Z"/></marker></defs><defs><marker orient="auto" markerHeight="18" markerWidth="18" refY="9" refX="0" id="ONLY_ONE_START"><path d="M9,0 L9,18 M15,0 L15,18" fill="none" stroke="gray"/></marker></defs><defs><marker orient="auto" markerHeight="18" markerWidth="18" refY="9" refX="18" id="ONLY_ONE_END"><path d="M3,0 L3,18 M9,0 L9,18" fill="none" stroke="gray"/></marker></defs><defs><marker orient="auto" markerHeight="18" markerWidth="30" refY="9" refX="0" id="ZERO_OR_ONE_START"><circle r="6" cy="9" cx="21" fill="white" stroke="gray"/><path d="M9,0 L9,18" fill="none" stroke="gray"/></marker></defs><defs><marker orient="auto" markerHeight="18" markerWidth="30" refY="9" refX="30" id="ZERO_OR_ONE_END"><circle r="6" cy="9" cx="9" fill="white" stroke="gray"/><path d="M21,0 L21,18" fill="none" stroke="gray"/></marker></defs><defs><marker orient="auto" markerHeight="36" markerWidth="45" refY="18" refX="18" id="ONE_OR_MORE_START"><path d="M0,18 Q 18,0 36,18 Q 18,36 0,18 M42,9 L42,27" fill="none" stroke="gray"/></marker></defs><defs><marker orient="auto" markerHeight="36" markerWidth="45" refY="18" refX="27" id="ONE_OR_MORE_END"><path d="M3,9 L3,27 M9,18 Q27,0 45,18 Q27,36 9,18" fill="none" stroke="gray"/></marker></defs><defs><marker orient="auto" markerHeight="36" markerWidth="57" refY="18" refX="18" id="ZERO_OR_MORE_START"><circle r="6" cy="18" cx="48" fill="white" stroke="gray"/><path d="M0,18 Q18,0 36,18 Q18,36 0,18" fill="none" stroke="gray"/></marker></defs><defs><marker orient="auto" markerHeight="36" markerWidth="57" refY="18" refX="39" id="ZERO_OR_MORE_END"><circle r="6" cy="18" cx="9" fill="white" stroke="gray"/><path d="M21,18 Q39,0 57,18 Q39,36 21,18" fill="none" stroke="gray"/></marker></defs><path style="stroke: gray; fill: none;" marker-start="url(#ONLY_ONE_START)" marker-end="url(#ZERO_OR_MORE_END)" d="M418.711,161.321L361.152,181.6C303.594,201.88,188.477,242.44,130.918,271.053C73.359,299.667,73.359,316.333,73.359,324.667L73.359,333" class="er relationshipLine"/><path style="stroke: gray; fill: none;" marker-start="url(#ONLY_ONE_START)" marker-end="url(#ZERO_OR_MORE_END)" d="M418.711,171.438L377.819,190.031C336.927,208.625,255.143,245.813,239.251,275.344C223.359,304.875,273.359,326.75,298.359,337.688L323.359,348.625" class="er relationshipLine"/><path style="stroke: gray; fill: none;" marker-start="url(#ONLY_ONE_START)" marker-end="url(#ZERO_OR_MORE_END)" d="M616.367,225.759L625.866,235.299C635.365,244.839,654.362,263.92,663.861,281.793C673.359,299.667,673.359,316.333,673.359,324.667L673.359,333" class="er relationshipLine"/><path style="stroke: gray; fill: none;" marker-start="url(#ONLY_ONE_START)" marker-end="url(#ZERO_OR_MORE_END)" d="M418.711,189.841L394.486,205.368C370.26,220.894,321.81,251.947,307.108,275.807C292.407,299.667,311.455,316.333,320.978,324.667L330.502,333" class="er relationshipLine"/><path style="stroke: gray; fill: none;" marker-start="url(#ONLY_ONE_START)" marker-end="url(#ZERO_OR_MORE_END)" d="M419.423,233L411.746,241.333C404.069,249.667,388.714,266.333,381.037,283C373.359,299.667,373.359,316.333,373.359,324.667L373.359,333" class="er relationshipLine"/><path style="stroke: gray; fill: none;" marker-start="url(#ONLY_ONE_START)" marker-end="url(#ZERO_OR_MORE_END)" d="M487.474,233L485.122,241.333C482.769,249.667,478.064,266.333,466.188,283C454.312,299.667,435.264,316.333,425.74,324.667L416.217,333" class="er relationshipLine"/><path style="stroke: gray; fill: none;" marker-start="url(#ONLY_ONE_START)" marker-end="url(#ZERO_OR_MORE_END)" d="M555.525,233L558.498,241.333C561.47,249.667,567.415,266.333,545.387,285.604C523.359,304.875,473.359,326.75,448.359,337.688L423.359,348.625" class="er relationshipLine"/><path style="stroke: gray; fill: none;" marker-start="url(#ONLY_ONE_START)" marker-end="url(#ZERO_OR_MORE_END)" d="M616.367,175.864L652.116,193.72C687.865,211.576,759.362,247.288,800.587,273.477C841.812,299.667,852.764,316.333,858.24,324.667L863.717,333" class="er relationshipLine"/><path style="stroke: gray; fill: none;" marker-start="url(#ONLY_ONE_START)" marker-end="url(#ZERO_OR_MORE_END)" d="M616.367,153.595L695.033,175.163C773.698,196.73,931.029,239.865,1009.694,269.766C1088.359,299.667,1088.359,316.333,1088.359,324.667L1088.359,333" class="er relationshipLine"/><path style="stroke: gray; fill: none;" marker-start="url(#ONLY_ONE_START)" marker-end="url(#ZERO_OR_MORE_END)" d="M616.367,163.253L670.033,183.211C723.698,203.169,831.029,243.084,879.932,271.376C928.836,299.667,919.312,316.333,914.55,324.667L909.788,333" class="er relationshipLine"/><g transform="translate(418.7109375,20 )" id="entity-ProgramMembership-dc4ad43d-371a-54e9-b020-38f0264dbead"><rect height="213" width="197.65625" y="0" x="0" class="er entityBox"/><text style="dominant-baseline: middle; text-anchor: middle; font-size: 12px;" transform="translate(98.828125,12)" y="0" x="0" id="text-entity-ProgramMembership-dc4ad43d-371a-54e9-b020-38f0264dbead" class="er entityLabel">ProgramMembership</text><rect height="21" width="57.0625" y="24" x="0" class="er attributeBoxOdd"/><text style="dominant-baseline: middle; font-size: 10.2px;" transform="translate(5,34.5)" y="0" x="0" id="text-entity-ProgramMembership-dc4ad43d-371a-54e9-b020-38f0264dbead-attr-1-type" class="er entityLabel">stringList</text><rect height="21" width="140.59375" y="24" x="57.0625" class="er attributeBoxOdd"/><text style="dominant-baseline: middle; font-size: 10.2px;" transform="translate(62.0625,34.5)" y="0" x="0" id="text-entity-ProgramMembership-dc4ad43d-371a-54e9-b020-38f0264dbead-attr-1-name" class="er entityLabel">member</text><rect height="21" width="57.0625" y="45" x="0" class="er attributeBoxEven"/><text style="dominant-baseline: middle; font-size: 10.2px;" transform="translate(5,55.5)" y="0" x="0" id="text-entity-ProgramMembership-dc4ad43d-371a-54e9-b020-38f0264dbead-attr-2-type" class="er entityLabel">stringList</text><rect height="21" width="140.59375" y="45" x="57.0625" class="er attributeBoxEven"/><text style="dominant-baseline: middle; font-size: 10.2px;" transform="translate(62.0625,55.5)" y="0" x="0" id="text-entity-ProgramMembership-dc4ad43d-371a-54e9-b020-38f0264dbead-attr-2-name" class="er entityLabel">members</text><rect height="21" width="57.0625" y="66" x="0" class="er attributeBoxOdd"/><text style="dominant-baseline: middle; font-size: 10.2px;" transform="translate(5,76.5)" y="0" x="0" id="text-entity-ProgramMembership-dc4ad43d-371a-54e9-b020-38f0264dbead-attr-3-type" class="er entityLabel">stringList</text><rect height="21" width="140.59375" y="66" x="57.0625" class="er attributeBoxOdd"/><text style="dominant-baseline: middle; font-size: 10.2px;" transform="translate(62.0625,76.5)" y="0" x="0" id="text-entity-ProgramMembership-dc4ad43d-371a-54e9-b020-38f0264dbead-attr-3-name" class="er entityLabel">membershipPointsEarned</text><rect height="21" width="57.0625" y="87" x="0" class="er attributeBoxEven"/><text style="dominant-baseline: middle; font-size: 10.2px;" transform="translate(5,97.5)" y="0" x="0" id="text-entity-ProgramMembership-dc4ad43d-371a-54e9-b020-38f0264dbead-attr-4-type" class="er entityLabel">stringList</text><rect height="21" width="140.59375" y="87" x="57.0625" class="er attributeBoxEven"/><text style="dominant-baseline: middle; font-size: 10.2px;" transform="translate(62.0625,97.5)" y="0" x="0" id="text-entity-ProgramMembership-dc4ad43d-371a-54e9-b020-38f0264dbead-attr-4-name" class="er entityLabel">additionalType</text><rect height="21" width="57.0625" y="108" x="0" class="er attributeBoxOdd"/><text style="dominant-baseline: middle; font-size: 10.2px;" transform="translate(5,118.5)" y="0" x="0" id="text-entity-ProgramMembership-dc4ad43d-371a-54e9-b020-38f0264dbead-attr-5-type" class="er entityLabel">stringList</text><rect height="21" width="140.59375" y="108" x="57.0625" class="er attributeBoxOdd"/><text style="dominant-baseline: middle; font-size: 10.2px;" transform="translate(62.0625,118.5)" y="0" x="0" id="text-entity-ProgramMembership-dc4ad43d-371a-54e9-b020-38f0264dbead-attr-5-name" class="er entityLabel">description</text><rect height="21" width="57.0625" y="129" x="0" class="er attributeBoxEven"/><text style="dominant-baseline: middle; font-size: 10.2px;" transform="translate(5,139.5)" y="0" x="0" id="text-entity-ProgramMembership-dc4ad43d-371a-54e9-b020-38f0264dbead-attr-6-type" class="er entityLabel">stringList</text><rect height="21" width="140.59375" y="129" x="57.0625" class="er attributeBoxEven"/><text style="dominant-baseline: middle; font-size: 10.2px;" transform="translate(62.0625,139.5)" y="0" x="0" id="text-entity-ProgramMembership-dc4ad43d-371a-54e9-b020-38f0264dbead-attr-6-name" class="er entityLabel">identifier</text><rect height="21" width="57.0625" y="150" x="0" class="er attributeBoxOdd"/><text style="dominant-baseline: middle; font-size: 10.2px;" transform="translate(5,160.5)" y="0" x="0" id="text-entity-ProgramMembership-dc4ad43d-371a-54e9-b020-38f0264dbead-attr-7-type" class="er entityLabel">stringList</text><rect height="21" width="140.59375" y="150" x="57.0625" class="er attributeBoxOdd"/><text style="dominant-baseline: middle; font-size: 10.2px;" transform="translate(62.0625,160.5)" y="0" x="0" id="text-entity-ProgramMembership-dc4ad43d-371a-54e9-b020-38f0264dbead-attr-7-name" class="er entityLabel">image</text><rect height="21" width="57.0625" y="171" x="0" class="er attributeBoxEven"/><text style="dominant-baseline: middle; font-size: 10.2px;" transform="translate(5,181.5)" y="0" x="0" id="text-entity-ProgramMembership-dc4ad43d-371a-54e9-b020-38f0264dbead-attr-8-type" class="er entityLabel">stringList</text><rect height="21" width="140.59375" y="171" x="57.0625" class="er attributeBoxEven"/><text style="dominant-baseline: middle; font-size: 10.2px;" transform="translate(62.0625,181.5)" y="0" x="0" id="text-entity-ProgramMembership-dc4ad43d-371a-54e9-b020-38f0264dbead-attr-8-name" class="er entityLabel">mainEntityOfPage</text><rect height="21" width="57.0625" y="192" x="0" class="er attributeBoxOdd"/><text style="dominant-baseline: middle; font-size: 10.2px;" transform="translate(5,202.5)" y="0" x="0" id="text-entity-ProgramMembership-dc4ad43d-371a-54e9-b020-38f0264dbead-attr-9-type" class="er entityLabel">stringList</text><rect height="21" width="140.59375" y="192" x="57.0625" class="er attributeBoxOdd"/><text style="dominant-baseline: middle; font-size: 10.2px;" transform="translate(62.0625,202.5)" y="0" x="0" id="text-entity-ProgramMembership-dc4ad43d-371a-54e9-b020-38f0264dbead-attr-9-name" class="er entityLabel">subjectOf</text></g><g transform="translate(20,333 )" id="entity-Organization-ef1721ab-1f62-5ef5-a525-a6c60c2f6032"><rect height="75" width="106.71875" y="0" x="0" class="er entityBox"/><text style="dominant-baseline: middle; text-anchor: middle; font-size: 12px;" transform="translate(53.359375,37.5)" y="0" x="0" id="text-entity-Organization-ef1721ab-1f62-5ef5-a525-a6c60c2f6032" class="er entityLabel">Organization</text></g><g transform="translate(323.359375,333 )" id="entity-Text-426c5d39-acfc-5487-a6d9-ede67887190e"><rect height="75" width="100" y="0" x="0" class="er entityBox"/><text style="dominant-baseline: middle; text-anchor: middle; font-size: 12px;" transform="translate(50,37.5)" y="0" x="0" id="text-entity-Text-426c5d39-acfc-5487-a6d9-ede67887190e" class="er entityLabel">Text</text></g><g transform="translate(608.359375,333 )" id="entity-MemberProgram-8ae064a4-c82a-55e4-89b3-2b64b01220af"><rect height="75" width="130" y="0" x="0" class="er entityBox"/><text style="dominant-baseline: middle; text-anchor: middle; font-size: 12px;" transform="translate(65,37.5)" y="0" x="0" id="text-entity-MemberProgram-8ae064a4-c82a-55e4-89b3-2b64b01220af" class="er entityLabel">MemberProgram</text></g><g transform="translate(838.359375,333 )" id="entity-URL-07f78d3e-fd74-5925-b39b-26c1cc2d6b7c"><rect height="75" width="100" y="0" x="0" class="er entityBox"/><text style="dominant-baseline: middle; text-anchor: middle; font-size: 12px;" transform="translate(50,37.5)" y="0" x="0" id="text-entity-URL-07f78d3e-fd74-5925-b39b-26c1cc2d6b7c" class="er entityLabel">URL</text></g><g transform="translate(1038.359375,333 )" id="entity-Action-6cd87d9a-a078-546e-a35b-bee54f477b31"><rect height="75" width="100" y="0" x="0" class="er entityBox"/><text style="dominant-baseline: middle; text-anchor: middle; font-size: 12px;" transform="translate(50,37.5)" y="0" x="0" id="text-entity-Action-6cd87d9a-a078-546e-a35b-bee54f477b31" class="er entityLabel">Action</text></g><rect height="14" width="121.1875" y="221.87875366210938" x="170.48040771484375" class="er relationshipLabelBox"/><text style="text-anchor: middle; dominant-baseline: middle; font-size: 12px;" y="228.87875366210938" x="231.07415771484375" id="rel1" class="er relationshipLabel">hostingOrganization</text><rect height="14" width="123.775390625" y="239.1267547607422" x="208.43984985351562" class="er relationshipLabelBox"/><text style="text-anchor: middle; dominant-baseline: middle; font-size: 12px;" y="246.1267547607422" x="270.3275451660156" id="rel2" class="er relationshipLabel">membershipNumber</text><rect height="14" width="51.234375" y="265.8295593261719" x="632.8067016601562" class="er relationshipLabelBox"/><text style="text-anchor: middle; dominant-baseline: middle; font-size: 12px;" y="272.8295593261719" x="658.4238891601562" id="rel3" class="er relationshipLabel">program</text><rect height="14" width="86.625" y="242.55770874023438" x="288.5854797363281" class="er relationshipLabelBox"/><text style="text-anchor: middle; dominant-baseline: middle; font-size: 12px;" y="249.55770874023438" x="331.8979797363281" id="rel4" class="er relationshipLabel">programName</text><rect height="14" width="89.953125" y="270.5470886230469" x="338.8321533203125" class="er relationshipLabelBox"/><text style="text-anchor: middle; dominant-baseline: middle; font-size: 12px;" y="277.5470886230469" x="383.8087158203125" id="rel5" class="er relationshipLabel">alternateName</text><rect height="14" width="161.390625" y="282.4250183105469" x="380.5800476074219" class="er relationshipLabelBox"/><text style="text-anchor: middle; dominant-baseline: middle; font-size: 12px;" y="289.4250183105469" x="461.2753601074219" id="rel6" class="er relationshipLabel">disambiguatingDescription</text><rect height="14" width="34.03125" y="300.23583984375" x="495.3765869140625" class="er relationshipLabelBox"/><text style="text-anchor: middle; dominant-baseline: middle; font-size: 12px;" y="307.23583984375" x="512.3922119140625" id="rel7" class="er relationshipLabel">name</text><rect height="14" width="47.140625" y="236.2484893798828" x="724.6901245117188" class="er relationshipLabelBox"/><text style="text-anchor: middle; dominant-baseline: middle; font-size: 12px;" y="243.2484893798828" x="748.2604370117188" id="rel8" class="er relationshipLabel">sameAs</text><rect height="14" width="90.96875" y="216.41099548339844" x="820.7608032226562" class="er relationshipLabelBox"/><text style="text-anchor: middle; dominant-baseline: middle; font-size: 12px;" y="223.41099548339844" x="866.2451782226562" id="rel9" class="er relationshipLabel">potentialAction</text><rect height="14" width="15.875" y="221.53924560546875" x="779.57470703125" class="er relationshipLabelBox"/><text style="text-anchor: middle; dominant-baseline: middle; font-size: 12px;" y="228.53924560546875" x="787.51220703125" id="rel10" class="er relationshipLabel">url</text></svg>