<svg aria-roledescription="er" role="graphics-document document" viewBox="0 0 1290 365" style="max-width: 1290px; background-color: white;" xmlns:xlink="http://www.w3.org/1999/xlink" xmlns="http://www.w3.org/2000/svg" width="100%" id="my-svg"><style>#my-svg{font-family:"trebuchet ms",verdana,arial,sans-serif;font-size:16px;fill:#333;}#my-svg .error-icon{fill:#552222;}#my-svg .error-text{fill:#552222;stroke:#552222;}#my-svg .edge-thickness-normal{stroke-width:1px;}#my-svg .edge-thickness-thick{stroke-width:3.5px;}#my-svg .edge-pattern-solid{stroke-dasharray:0;}#my-svg .edge-thickness-invisible{stroke-width:0;fill:none;}#my-svg .edge-pattern-dashed{stroke-dasharray:3;}#my-svg .edge-pattern-dotted{stroke-dasharray:2;}#my-svg .marker{fill:#333333;stroke:#333333;}#my-svg .marker.cross{stroke:#333333;}#my-svg svg{font-family:"trebuchet ms",verdana,arial,sans-serif;font-size:16px;}#my-svg p{margin:0;}#my-svg .entityBox{fill:#ECECFF;stroke:#9370DB;}#my-svg .attributeBoxOdd{fill:#ffffff;stroke:#9370DB;}#my-svg .attributeBoxEven{fill:#f2f2f2;stroke:#9370DB;}#my-svg .relationshipLabelBox{fill:hsl(80, 100%, 96.2745098039%);opacity:0.7;background-color:hsl(80, 100%, 96.2745098039%);}#my-svg .relationshipLabelBox rect{opacity:0.5;}#my-svg .relationshipLine{stroke:#333333;}#my-svg .entityTitleText{text-anchor:middle;font-size:18px;fill:#333;}#my-svg #MD_PARENT_START{fill:#f5f5f5!important;stroke:#333333!important;stroke-width:1;}#my-svg #MD_PARENT_END{fill:#f5f5f5!important;stroke:#333333!important;stroke-width:1;}#my-svg :root{--mermaid-font-family:"trebuchet ms",verdana,arial,sans-serif;}</style><g/><defs><marker orient="auto" markerHeight="240" markerWidth="190" refY="7" refX="0" id="MD_PARENT_START"><path d="M 18,7 L9,13 L1,7 L9,1 Z"/></marker></defs><defs><marker orient="auto" markerHeight="28" markerWidth="20" refY="7" refX="19" id="MD_PARENT_END"><path d="M 18,7 L9,13 L1,7 L9,1 Z"/></marker></defs><defs><marker orient="auto" markerHeight="18" markerWidth="18" refY="9" refX="0" id="ONLY_ONE_START"><path d="M9,0 L9,18 M15,0 L15,18" fill="none" stroke="gray"/></marker></defs><defs><marker orient="auto" markerHeight="18" markerWidth="18" refY="9" refX="18" id="ONLY_ONE_END"><path d="M3,0 L3,18 M9,0 L9,18" fill="none" stroke="gray"/></marker></defs><defs><marker orient="auto" markerHeight="18" markerWidth="30" refY="9" refX="0" id="ZERO_OR_ONE_START"><circle r="6" cy="9" cx="21" fill="white" stroke="gray"/><path d="M9,0 L9,18" fill="none" stroke="gray"/></marker></defs><defs><marker orient="auto" markerHeight="18" markerWidth="30" refY="9" refX="30" id="ZERO_OR_ONE_END"><circle r="6" cy="9" cx="9" fill="white" stroke="gray"/><path d="M21,0 L21,18" fill="none" stroke="gray"/></marker></defs><defs><marker orient="auto" markerHeight="36" markerWidth="45" refY="18" refX="18" id="ONE_OR_MORE_START"><path d="M0,18 Q 18,0 36,18 Q 18,36 0,18 M42,9 L42,27" fill="none" stroke="gray"/></marker></defs><defs><marker orient="auto" markerHeight="36" markerWidth="45" refY="18" refX="27" id="ONE_OR_MORE_END"><path d="M3,9 L3,27 M9,18 Q27,0 45,18 Q27,36 9,18" fill="none" stroke="gray"/></marker></defs><defs><marker orient="auto" markerHeight="36" markerWidth="57" refY="18" refX="18" id="ZERO_OR_MORE_START"><circle r="6" cy="18" cx="48" fill="white" stroke="gray"/><path d="M0,18 Q18,0 36,18 Q18,36 0,18" fill="none" stroke="gray"/></marker></defs><defs><marker orient="auto" markerHeight="36" markerWidth="57" refY="18" refX="39" id="ZERO_OR_MORE_END"><circle r="6" cy="18" cx="9" fill="white" stroke="gray"/><path d="M21,18 Q39,0 57,18 Q39,36 21,18" fill="none" stroke="gray"/></marker></defs><path style="stroke: gray; fill: none;" marker-start="url(#ONLY_ONE_START)" marker-end="url(#ZERO_OR_MORE_END)" d="M566.203,116.624L483.503,133.854C400.802,151.083,235.401,185.541,152.701,211.104C70,236.667,70,253.333,70,261.667L70,270" class="er relationshipLine"/><path style="stroke: gray; fill: none;" marker-start="url(#ONLY_ONE_START)" marker-end="url(#ZERO_OR_MORE_END)" d="M566.203,120.949L500.169,137.458C434.135,153.966,302.068,186.983,261.034,214.429C220,241.875,270,263.75,295,274.688L320,285.625" class="er relationshipLine"/><path style="stroke: gray; fill: none;" marker-start="url(#ONLY_ONE_START)" marker-end="url(#ZERO_OR_MORE_END)" d="M566.203,127.437L516.836,142.864C467.469,158.291,368.734,189.146,328.891,212.906C289.048,236.667,308.095,253.333,317.619,261.667L327.143,270" class="er relationshipLine"/><path style="stroke: gray; fill: none;" marker-start="url(#ONLY_ONE_START)" marker-end="url(#ZERO_OR_MORE_END)" d="M566.203,138.249L533.503,151.874C500.802,165.499,435.401,192.75,402.701,214.708C370,236.667,370,253.333,370,261.667L370,270" class="er relationshipLine"/><path style="stroke: gray; fill: none;" marker-start="url(#ONLY_ONE_START)" marker-end="url(#ZERO_OR_MORE_END)" d="M566.203,159.873L550.169,169.894C534.135,179.915,502.068,199.958,476.51,218.312C450.952,236.667,431.905,253.333,422.381,261.667L412.857,270" class="er relationshipLine"/><path style="stroke: gray; fill: none;" marker-start="url(#ONLY_ONE_START)" marker-end="url(#ZERO_OR_MORE_END)" d="M610,170L603.333,178.333C596.667,186.667,583.333,203.333,551.667,222.604C520,241.875,470,263.75,445,274.688L420,285.625" class="er relationshipLine"/><path style="stroke: gray; fill: none;" marker-start="url(#ONLY_ONE_START)" marker-end="url(#ZERO_OR_MORE_END)" d="M670,170L670,178.333C670,186.667,670,203.333,686.667,221.389C703.333,239.444,736.667,258.889,753.333,268.611L770,278.333" class="er relationshipLine"/><path style="stroke: gray; fill: none;" marker-start="url(#ONLY_ONE_START)" marker-end="url(#ZERO_OR_MORE_END)" d="M730,170L736.667,178.333C743.333,186.667,756.667,203.333,768.095,220C779.524,236.667,789.048,253.333,793.81,261.667L798.571,270" class="er relationshipLine"/><path style="stroke: gray; fill: none;" marker-start="url(#ONLY_ONE_START)" marker-end="url(#ZERO_OR_MORE_END)" d="M773.797,159.873L789.831,169.894C805.865,179.915,837.932,199.958,849.204,218.312C860.476,236.667,850.952,253.333,846.19,261.667L841.429,270" class="er relationshipLine"/><path style="stroke: gray; fill: none;" marker-start="url(#ONLY_ONE_START)" marker-end="url(#ZERO_OR_MORE_END)" d="M773.797,138.249L806.497,151.874C839.198,165.499,904.599,192.75,942.061,214.708C979.524,236.667,989.048,253.333,993.81,261.667L998.571,270" class="er relationshipLine"/><path style="stroke: gray; fill: none;" marker-start="url(#ONLY_ONE_START)" marker-end="url(#ZERO_OR_MORE_END)" d="M773.797,118.59L848.164,135.492C922.531,152.393,1071.266,186.197,1145.633,211.432C1220,236.667,1220,253.333,1220,261.667L1220,270" class="er relationshipLine"/><path style="stroke: gray; fill: none;" marker-start="url(#ONLY_ONE_START)" marker-end="url(#ZERO_OR_MORE_END)" d="M773.797,127.437L823.164,142.864C872.531,158.291,971.266,189.146,1015.871,212.906C1060.476,236.667,1050.952,253.333,1046.19,261.667L1041.429,270" class="er relationshipLine"/><g transform="translate(566.203125,20 )" id="entity-QuantitativeValueDistribution-6522622a-3f6b-5782-acd0-e997023a60e9"><rect height="150" width="207.59375" y="0" x="0" class="er entityBox"/><text style="dominant-baseline: middle; text-anchor: middle; font-size: 12px;" transform="translate(103.796875,12)" y="0" x="0" id="text-entity-QuantitativeValueDistribution-6522622a-3f6b-5782-acd0-e997023a60e9" class="er entityLabel">QuantitativeValueDistribution</text><rect height="21" width="81.59375" y="24" x="0" class="er attributeBoxOdd"/><text style="dominant-baseline: middle; font-size: 10.2px;" transform="translate(5,34.5)" y="0" x="0" id="text-entity-QuantitativeValueDistribution-6522622a-3f6b-5782-acd0-e997023a60e9-attr-1-type" class="er entityLabel">stringList</text><rect height="21" width="126" y="24" x="81.59375" class="er attributeBoxOdd"/><text style="dominant-baseline: middle; font-size: 10.2px;" transform="translate(86.59375,34.5)" y="0" x="0" id="text-entity-QuantitativeValueDistribution-6522622a-3f6b-5782-acd0-e997023a60e9-attr-1-name" class="er entityLabel">additionalType</text><rect height="21" width="81.59375" y="45" x="0" class="er attributeBoxEven"/><text style="dominant-baseline: middle; font-size: 10.2px;" transform="translate(5,55.5)" y="0" x="0" id="text-entity-QuantitativeValueDistribution-6522622a-3f6b-5782-acd0-e997023a60e9-attr-2-type" class="er entityLabel">stringList</text><rect height="21" width="126" y="45" x="81.59375" class="er attributeBoxEven"/><text style="dominant-baseline: middle; font-size: 10.2px;" transform="translate(86.59375,55.5)" y="0" x="0" id="text-entity-QuantitativeValueDistribution-6522622a-3f6b-5782-acd0-e997023a60e9-attr-2-name" class="er entityLabel">description</text><rect height="21" width="81.59375" y="66" x="0" class="er attributeBoxOdd"/><text style="dominant-baseline: middle; font-size: 10.2px;" transform="translate(5,76.5)" y="0" x="0" id="text-entity-QuantitativeValueDistribution-6522622a-3f6b-5782-acd0-e997023a60e9-attr-3-type" class="er entityLabel">stringList</text><rect height="21" width="126" y="66" x="81.59375" class="er attributeBoxOdd"/><text style="dominant-baseline: middle; font-size: 10.2px;" transform="translate(86.59375,76.5)" y="0" x="0" id="text-entity-QuantitativeValueDistribution-6522622a-3f6b-5782-acd0-e997023a60e9-attr-3-name" class="er entityLabel">identifier</text><rect height="21" width="81.59375" y="87" x="0" class="er attributeBoxEven"/><text style="dominant-baseline: middle; font-size: 10.2px;" transform="translate(5,97.5)" y="0" x="0" id="text-entity-QuantitativeValueDistribution-6522622a-3f6b-5782-acd0-e997023a60e9-attr-4-type" class="er entityLabel">stringList</text><rect height="21" width="126" y="87" x="81.59375" class="er attributeBoxEven"/><text style="dominant-baseline: middle; font-size: 10.2px;" transform="translate(86.59375,97.5)" y="0" x="0" id="text-entity-QuantitativeValueDistribution-6522622a-3f6b-5782-acd0-e997023a60e9-attr-4-name" class="er entityLabel">image</text><rect height="21" width="81.59375" y="108" x="0" class="er attributeBoxOdd"/><text style="dominant-baseline: middle; font-size: 10.2px;" transform="translate(5,118.5)" y="0" x="0" id="text-entity-QuantitativeValueDistribution-6522622a-3f6b-5782-acd0-e997023a60e9-attr-5-type" class="er entityLabel">stringList</text><rect height="21" width="126" y="108" x="81.59375" class="er attributeBoxOdd"/><text style="dominant-baseline: middle; font-size: 10.2px;" transform="translate(86.59375,118.5)" y="0" x="0" id="text-entity-QuantitativeValueDistribution-6522622a-3f6b-5782-acd0-e997023a60e9-attr-5-name" class="er entityLabel">mainEntityOfPage</text><rect height="21" width="81.59375" y="129" x="0" class="er attributeBoxEven"/><text style="dominant-baseline: middle; font-size: 10.2px;" transform="translate(5,139.5)" y="0" x="0" id="text-entity-QuantitativeValueDistribution-6522622a-3f6b-5782-acd0-e997023a60e9-attr-6-type" class="er entityLabel">stringList</text><rect height="21" width="126" y="129" x="81.59375" class="er attributeBoxEven"/><text style="dominant-baseline: middle; font-size: 10.2px;" transform="translate(86.59375,139.5)" y="0" x="0" id="text-entity-QuantitativeValueDistribution-6522622a-3f6b-5782-acd0-e997023a60e9-attr-6-name" class="er entityLabel">subjectOf</text></g><g transform="translate(20,270 )" id="entity-Duration-4925bcef-08f8-5f30-b1af-3959fea9384e"><rect height="75" width="100" y="0" x="0" class="er entityBox"/><text style="dominant-baseline: middle; text-anchor: middle; font-size: 12px;" transform="translate(50,37.5)" y="0" x="0" id="text-entity-Duration-4925bcef-08f8-5f30-b1af-3959fea9384e" class="er entityLabel">Duration</text></g><g transform="translate(320,270 )" id="entity-Number-03723608-6bf1-5294-8c7e-b493e3224412"><rect height="75" width="100" y="0" x="0" class="er entityBox"/><text style="dominant-baseline: middle; text-anchor: middle; font-size: 12px;" transform="translate(50,37.5)" y="0" x="0" id="text-entity-Number-03723608-6bf1-5294-8c7e-b493e3224412" class="er entityLabel">Number</text></g><g transform="translate(770,270 )" id="entity-Text-426c5d39-acfc-5487-a6d9-ede67887190e"><rect height="75" width="100" y="0" x="0" class="er entityBox"/><text style="dominant-baseline: middle; text-anchor: middle; font-size: 12px;" transform="translate(50,37.5)" y="0" x="0" id="text-entity-Text-426c5d39-acfc-5487-a6d9-ede67887190e" class="er entityLabel">Text</text></g><g transform="translate(970,270 )" id="entity-URL-07f78d3e-fd74-5925-b39b-26c1cc2d6b7c"><rect height="75" width="100" y="0" x="0" class="er entityBox"/><text style="dominant-baseline: middle; text-anchor: middle; font-size: 12px;" transform="translate(50,37.5)" y="0" x="0" id="text-entity-URL-07f78d3e-fd74-5925-b39b-26c1cc2d6b7c" class="er entityLabel">URL</text></g><g transform="translate(1170,270 )" id="entity-Action-6cd87d9a-a078-546e-a35b-bee54f477b31"><rect height="75" width="100" y="0" x="0" class="er entityBox"/><text style="dominant-baseline: middle; text-anchor: middle; font-size: 12px;" transform="translate(50,37.5)" y="0" x="0" id="text-entity-Action-6cd87d9a-a078-546e-a35b-bee54f477b31" class="er entityLabel">Action</text></g><rect height="14" width="50.5" y="165.34422302246094" x="279.6431884765625" class="er relationshipLabelBox"/><text style="text-anchor: middle; dominant-baseline: middle; font-size: 12px;" y="172.34422302246094" x="304.8931884765625" id="rel1" class="er relationshipLabel">duration</text><rect height="14" width="44.984375" y="170.27719116210938" x="330.80816650390625" class="er relationshipLabelBox"/><text style="text-anchor: middle; dominant-baseline: middle; font-size: 12px;" y="177.27719116210938" x="353.30035400390625" id="rel2" class="er relationshipLabel">median</text><rect height="14" width="75.28125" y="171.1789093017578" x="372.04327392578125" class="er relationshipLabelBox"/><text style="text-anchor: middle; dominant-baseline: middle; font-size: 12px;" y="178.1789093017578" x="409.68389892578125" id="rel3" class="er relationshipLabel">percentile10</text><rect height="14" width="75.28125" y="180.72291564941406" x="414.3643493652344" class="er relationshipLabelBox"/><text style="text-anchor: middle; dominant-baseline: middle; font-size: 12px;" y="187.72291564941406" x="452.0049743652344" id="rel4" class="er relationshipLabel">percentile25</text><rect height="14" width="75.28125" y="204.1043243408203" x="449.1031494140625" class="er relationshipLabelBox"/><text style="text-anchor: middle; dominant-baseline: middle; font-size: 12px;" y="211.1043243408203" x="486.7437744140625" id="rel5" class="er relationshipLabel">percentile75</text><rect height="14" width="75.28125" y="231.77561950683594" x="484.7120361328125" class="er relationshipLabelBox"/><text style="text-anchor: middle; dominant-baseline: middle; font-size: 12px;" y="238.77561950683594" x="522.3526611328125" id="rel6" class="er relationshipLabel">percentile90</text><rect height="14" width="89.953125" y="229.47647094726562" x="658.6685791015625" class="er relationshipLabelBox"/><text style="text-anchor: middle; dominant-baseline: middle; font-size: 12px;" y="236.47647094726562" x="703.6451416015625" id="rel7" class="er relationshipLabel">alternateName</text><rect height="14" width="161.390625" y="211.23052978515625" x="686.1787719726562" class="er relationshipLabelBox"/><text style="text-anchor: middle; dominant-baseline: middle; font-size: 12px;" y="218.23052978515625" x="766.8740844726562" id="rel8" class="er relationshipLabel">disambiguatingDescription</text><rect height="14" width="34.03125" y="196.07162475585938" x="818.9816284179688" class="er relationshipLabelBox"/><text style="text-anchor: middle; dominant-baseline: middle; font-size: 12px;" y="203.07162475585938" x="835.9972534179688" id="rel9" class="er relationshipLabel">name</text><rect height="14" width="47.140625" y="183.76495361328125" x="872.010986328125" class="er relationshipLabelBox"/><text style="text-anchor: middle; dominant-baseline: middle; font-size: 12px;" y="190.76495361328125" x="895.581298828125" id="rel10" class="er relationshipLabel">sameAs</text><rect height="14" width="90.96875" y="166.7088623046875" x="965.0339965820312" class="er relationshipLabelBox"/><text style="text-anchor: middle; dominant-baseline: middle; font-size: 12px;" y="173.7088623046875" x="1010.5183715820312" id="rel11" class="er relationshipLabel">potentialAction</text><rect height="14" width="15.875" y="171.46981811523438" x="923.9732055664062" class="er relationshipLabelBox"/><text style="text-anchor: middle; dominant-baseline: middle; font-size: 12px;" y="178.46981811523438" x="931.9107055664062" id="rel12" class="er relationshipLabel">url</text></svg>