<svg aria-roledescription="er" role="graphics-document document" viewBox="0 0 2771.796875 617" style="max-width: 2771.8px; background-color: white;" xmlns:xlink="http://www.w3.org/1999/xlink" xmlns="http://www.w3.org/2000/svg" width="100%" id="my-svg"><style>#my-svg{font-family:"trebuchet ms",verdana,arial,sans-serif;font-size:16px;fill:#333;}#my-svg .error-icon{fill:#552222;}#my-svg .error-text{fill:#552222;stroke:#552222;}#my-svg .edge-thickness-normal{stroke-width:1px;}#my-svg .edge-thickness-thick{stroke-width:3.5px;}#my-svg .edge-pattern-solid{stroke-dasharray:0;}#my-svg .edge-thickness-invisible{stroke-width:0;fill:none;}#my-svg .edge-pattern-dashed{stroke-dasharray:3;}#my-svg .edge-pattern-dotted{stroke-dasharray:2;}#my-svg .marker{fill:#333333;stroke:#333333;}#my-svg .marker.cross{stroke:#333333;}#my-svg svg{font-family:"trebuchet ms",verdana,arial,sans-serif;font-size:16px;}#my-svg p{margin:0;}#my-svg .entityBox{fill:#ECECFF;stroke:#9370DB;}#my-svg .attributeBoxOdd{fill:#ffffff;stroke:#9370DB;}#my-svg .attributeBoxEven{fill:#f2f2f2;stroke:#9370DB;}#my-svg .relationshipLabelBox{fill:hsl(80, 100%, 96.2745098039%);opacity:0.7;background-color:hsl(80, 100%, 96.2745098039%);}#my-svg .relationshipLabelBox rect{opacity:0.5;}#my-svg .relationshipLine{stroke:#333333;}#my-svg .entityTitleText{text-anchor:middle;font-size:18px;fill:#333;}#my-svg #MD_PARENT_START{fill:#f5f5f5!important;stroke:#333333!important;stroke-width:1;}#my-svg #MD_PARENT_END{fill:#f5f5f5!important;stroke:#333333!important;stroke-width:1;}#my-svg :root{--mermaid-font-family:"trebuchet ms",verdana,arial,sans-serif;}</style><g/><defs><marker orient="auto" markerHeight="240" markerWidth="190" refY="7" refX="0" id="MD_PARENT_START"><path d="M 18,7 L9,13 L1,7 L9,1 Z"/></marker></defs><defs><marker orient="auto" markerHeight="28" markerWidth="20" refY="7" refX="19" id="MD_PARENT_END"><path d="M 18,7 L9,13 L1,7 L9,1 Z"/></marker></defs><defs><marker orient="auto" markerHeight="18" markerWidth="18" refY="9" refX="0" id="ONLY_ONE_START"><path d="M9,0 L9,18 M15,0 L15,18" fill="none" stroke="gray"/></marker></defs><defs><marker orient="auto" markerHeight="18" markerWidth="18" refY="9" refX="18" id="ONLY_ONE_END"><path d="M3,0 L3,18 M9,0 L9,18" fill="none" stroke="gray"/></marker></defs><defs><marker orient="auto" markerHeight="18" markerWidth="30" refY="9" refX="0" id="ZERO_OR_ONE_START"><circle r="6" cy="9" cx="21" fill="white" stroke="gray"/><path d="M9,0 L9,18" fill="none" stroke="gray"/></marker></defs><defs><marker orient="auto" markerHeight="18" markerWidth="30" refY="9" refX="30" id="ZERO_OR_ONE_END"><circle r="6" cy="9" cx="9" fill="white" stroke="gray"/><path d="M21,0 L21,18" fill="none" stroke="gray"/></marker></defs><defs><marker orient="auto" markerHeight="36" markerWidth="45" refY="18" refX="18" id="ONE_OR_MORE_START"><path d="M0,18 Q 18,0 36,18 Q 18,36 0,18 M42,9 L42,27" fill="none" stroke="gray"/></marker></defs><defs><marker orient="auto" markerHeight="36" markerWidth="45" refY="18" refX="27" id="ONE_OR_MORE_END"><path d="M3,9 L3,27 M9,18 Q27,0 45,18 Q27,36 9,18" fill="none" stroke="gray"/></marker></defs><defs><marker orient="auto" markerHeight="36" markerWidth="57" refY="18" refX="18" id="ZERO_OR_MORE_START"><circle r="6" cy="18" cx="48" fill="white" stroke="gray"/><path d="M0,18 Q18,0 36,18 Q18,36 0,18" fill="none" stroke="gray"/></marker></defs><defs><marker orient="auto" markerHeight="36" markerWidth="57" refY="18" refX="39" id="ZERO_OR_MORE_END"><circle r="6" cy="18" cx="9" fill="white" stroke="gray"/><path d="M21,18 Q39,0 57,18 Q39,36 21,18" fill="none" stroke="gray"/></marker></defs><path style="stroke: gray; fill: none;" marker-start="url(#ONLY_ONE_START)" marker-end="url(#ZERO_OR_MORE_END)" d="M1188.488,242.204L1004.182,280.503C819.875,318.803,451.262,395.401,266.955,442.034C82.648,488.667,82.648,505.333,82.648,513.667L82.648,522" class="er relationshipLine"/><path style="stroke: gray; fill: none;" marker-start="url(#ONLY_ONE_START)" marker-end="url(#ZERO_OR_MORE_END)" d="M1188.488,245.42L1030.695,283.183C872.901,320.947,557.314,396.473,405.147,442.57C252.98,488.667,264.233,505.333,269.859,513.667L275.485,522" class="er relationshipLine"/><path style="stroke: gray; fill: none;" marker-start="url(#ONLY_ONE_START)" marker-end="url(#ZERO_OR_MORE_END)" d="M1188.488,248.447L1049.973,285.706C911.458,322.965,634.428,397.482,490.524,443.075C346.619,488.667,335.839,505.333,330.449,513.667L325.059,522" class="er relationshipLine"/><path style="stroke: gray; fill: none;" marker-start="url(#ONLY_ONE_START)" marker-end="url(#ZERO_OR_MORE_END)" d="M1188.488,253.982L1076.072,290.318C963.656,326.655,738.824,399.327,626.408,443.997C513.992,488.667,513.992,505.333,513.992,513.667L513.992,522" class="er relationshipLine"/><path style="stroke: gray; fill: none;" marker-start="url(#ONLY_ONE_START)" marker-end="url(#ZERO_OR_MORE_END)" d="M1188.488,266.023L1110.686,300.353C1032.883,334.682,877.277,403.341,799.475,446.004C721.672,488.667,721.672,505.333,721.672,513.667L721.672,522" class="er relationshipLine"/><path style="stroke: gray; fill: none;" marker-start="url(#ONLY_ONE_START)" marker-end="url(#ZERO_OR_MORE_END)" d="M1188.488,297.013L1149.338,326.177C1110.188,355.342,1031.887,413.671,992.736,451.169C953.586,488.667,953.586,505.333,953.586,513.667L953.586,522" class="er relationshipLine"/><path style="stroke: gray; fill: none;" marker-start="url(#ONLY_ONE_START)" marker-end="url(#ZERO_OR_MORE_END)" d="M1209.106,422L1205.73,430.333C1202.354,438.667,1195.603,455.333,1192.227,472C1188.852,488.667,1188.852,505.333,1188.852,513.667L1188.852,522" class="er relationshipLine"/><path style="stroke: gray; fill: none;" marker-start="url(#ONLY_ONE_START)" marker-end="url(#ZERO_OR_MORE_END)" d="M1371.949,422L1375.325,430.333C1378.7,438.667,1385.452,455.333,1388.827,472C1392.203,488.667,1392.203,505.333,1392.203,513.667L1392.203,522" class="er relationshipLine"/><path style="stroke: gray; fill: none;" marker-start="url(#ONLY_ONE_START)" marker-end="url(#ZERO_OR_MORE_END)" d="M1392.566,301.512L1428.579,329.926C1464.591,358.341,1536.616,415.171,1572.628,451.919C1608.641,488.667,1608.641,505.333,1608.641,513.667L1608.641,522" class="er relationshipLine"/><path style="stroke: gray; fill: none;" marker-start="url(#ONLY_ONE_START)" marker-end="url(#ZERO_OR_MORE_END)" d="M1392.566,267.675L1467.015,301.729C1541.464,335.783,1690.361,403.892,1764.809,446.279C1839.258,488.667,1839.258,505.333,1839.258,513.667L1839.258,522" class="er relationshipLine"/><path style="stroke: gray; fill: none;" marker-start="url(#ONLY_ONE_START)" marker-end="url(#ZERO_OR_MORE_END)" d="M1392.566,254.424L1503.271,290.687C1613.977,326.949,1835.387,399.475,1946.092,444.071C2056.797,488.667,2056.797,505.333,2056.797,513.667L2056.797,522" class="er relationshipLine"/><path style="stroke: gray; fill: none;" marker-start="url(#ONLY_ONE_START)" marker-end="url(#ZERO_OR_MORE_END)" d="M1392.566,246.998L1539.749,284.499C1686.932,321.999,1981.298,396.999,2128.481,442.833C2275.664,488.667,2275.664,505.333,2275.664,513.667L2275.664,522" class="er relationshipLine"/><path style="stroke: gray; fill: none;" marker-start="url(#ONLY_ONE_START)" marker-end="url(#ZERO_OR_MORE_END)" d="M1392.566,242.238L1576.553,280.531C1760.539,318.825,2128.512,395.413,2312.498,442.04C2496.484,488.667,2496.484,505.333,2496.484,513.667L2496.484,522" class="er relationshipLine"/><path style="stroke: gray; fill: none;" marker-start="url(#ONLY_ONE_START)" marker-end="url(#ZERO_OR_MORE_END)" d="M1392.566,239.148L1610.771,277.957C1828.977,316.765,2265.387,394.383,2483.592,441.525C2701.797,488.667,2701.797,505.333,2701.797,513.667L2701.797,522" class="er relationshipLine"/><g transform="translate(1188.48828125,20 )" id="entity-RadiationTherapy-61c36274-30a2-5781-a5a3-aa848ff13e76"><rect height="402" width="204.078125" y="0" x="0" class="er entityBox"/><text style="dominant-baseline: middle; text-anchor: middle; font-size: 12px;" transform="translate(102.0390625,12)" y="0" x="0" id="text-entity-RadiationTherapy-61c36274-30a2-5781-a5a3-aa848ff13e76" class="er entityLabel">RadiationTherapy</text><rect height="21" width="57.0625" y="24" x="0" class="er attributeBoxOdd"/><text style="dominant-baseline: middle; font-size: 10.2px;" transform="translate(5,34.5)" y="0" x="0" id="text-entity-RadiationTherapy-61c36274-30a2-5781-a5a3-aa848ff13e76-attr-1-type" class="er entityLabel">stringList</text><rect height="21" width="147.015625" y="24" x="57.0625" class="er attributeBoxOdd"/><text style="dominant-baseline: middle; font-size: 10.2px;" transform="translate(62.0625,34.5)" y="0" x="0" id="text-entity-RadiationTherapy-61c36274-30a2-5781-a5a3-aa848ff13e76-attr-1-name" class="er entityLabel">contraindication</text><rect height="21" width="57.0625" y="45" x="0" class="er attributeBoxEven"/><text style="dominant-baseline: middle; font-size: 10.2px;" transform="translate(5,55.5)" y="0" x="0" id="text-entity-RadiationTherapy-61c36274-30a2-5781-a5a3-aa848ff13e76-attr-2-type" class="er entityLabel">TextList</text><rect height="21" width="147.015625" y="45" x="57.0625" class="er attributeBoxEven"/><text style="dominant-baseline: middle; font-size: 10.2px;" transform="translate(62.0625,55.5)" y="0" x="0" id="text-entity-RadiationTherapy-61c36274-30a2-5781-a5a3-aa848ff13e76-attr-2-name" class="er entityLabel">bodyLocation</text><rect height="21" width="57.0625" y="66" x="0" class="er attributeBoxOdd"/><text style="dominant-baseline: middle; font-size: 10.2px;" transform="translate(5,76.5)" y="0" x="0" id="text-entity-RadiationTherapy-61c36274-30a2-5781-a5a3-aa848ff13e76-attr-3-type" class="er entityLabel">TextList</text><rect height="21" width="147.015625" y="66" x="57.0625" class="er attributeBoxOdd"/><text style="dominant-baseline: middle; font-size: 10.2px;" transform="translate(62.0625,76.5)" y="0" x="0" id="text-entity-RadiationTherapy-61c36274-30a2-5781-a5a3-aa848ff13e76-attr-3-name" class="er entityLabel">followup</text><rect height="21" width="57.0625" y="87" x="0" class="er attributeBoxEven"/><text style="dominant-baseline: middle; font-size: 10.2px;" transform="translate(5,97.5)" y="0" x="0" id="text-entity-RadiationTherapy-61c36274-30a2-5781-a5a3-aa848ff13e76-attr-4-type" class="er entityLabel">TextList</text><rect height="21" width="147.015625" y="87" x="57.0625" class="er attributeBoxEven"/><text style="dominant-baseline: middle; font-size: 10.2px;" transform="translate(62.0625,97.5)" y="0" x="0" id="text-entity-RadiationTherapy-61c36274-30a2-5781-a5a3-aa848ff13e76-attr-4-name" class="er entityLabel">howPerformed</text><rect height="21" width="57.0625" y="108" x="0" class="er attributeBoxOdd"/><text style="dominant-baseline: middle; font-size: 10.2px;" transform="translate(5,118.5)" y="0" x="0" id="text-entity-RadiationTherapy-61c36274-30a2-5781-a5a3-aa848ff13e76-attr-5-type" class="er entityLabel">stringList</text><rect height="21" width="147.015625" y="108" x="57.0625" class="er attributeBoxOdd"/><text style="dominant-baseline: middle; font-size: 10.2px;" transform="translate(62.0625,118.5)" y="0" x="0" id="text-entity-RadiationTherapy-61c36274-30a2-5781-a5a3-aa848ff13e76-attr-5-name" class="er entityLabel">preparation</text><rect height="21" width="57.0625" y="129" x="0" class="er attributeBoxEven"/><text style="dominant-baseline: middle; font-size: 10.2px;" transform="translate(5,139.5)" y="0" x="0" id="text-entity-RadiationTherapy-61c36274-30a2-5781-a5a3-aa848ff13e76-attr-6-type" class="er entityLabel">stringList</text><rect height="21" width="147.015625" y="129" x="57.0625" class="er attributeBoxEven"/><text style="dominant-baseline: middle; font-size: 10.2px;" transform="translate(62.0625,139.5)" y="0" x="0" id="text-entity-RadiationTherapy-61c36274-30a2-5781-a5a3-aa848ff13e76-attr-6-name" class="er entityLabel">status</text><rect height="21" width="57.0625" y="150" x="0" class="er attributeBoxOdd"/><text style="dominant-baseline: middle; font-size: 10.2px;" transform="translate(5,160.5)" y="0" x="0" id="text-entity-RadiationTherapy-61c36274-30a2-5781-a5a3-aa848ff13e76-attr-7-type" class="er entityLabel">stringList</text><rect height="21" width="147.015625" y="150" x="57.0625" class="er attributeBoxOdd"/><text style="dominant-baseline: middle; font-size: 10.2px;" transform="translate(62.0625,160.5)" y="0" x="0" id="text-entity-RadiationTherapy-61c36274-30a2-5781-a5a3-aa848ff13e76-attr-7-name" class="er entityLabel">legalStatus</text><rect height="21" width="57.0625" y="171" x="0" class="er attributeBoxEven"/><text style="dominant-baseline: middle; font-size: 10.2px;" transform="translate(5,181.5)" y="0" x="0" id="text-entity-RadiationTherapy-61c36274-30a2-5781-a5a3-aa848ff13e76-attr-8-type" class="er entityLabel">stringList</text><rect height="21" width="147.015625" y="171" x="57.0625" class="er attributeBoxEven"/><text style="dominant-baseline: middle; font-size: 10.2px;" transform="translate(62.0625,181.5)" y="0" x="0" id="text-entity-RadiationTherapy-61c36274-30a2-5781-a5a3-aa848ff13e76-attr-8-name" class="er entityLabel">additionalType</text><rect height="21" width="57.0625" y="192" x="0" class="er attributeBoxOdd"/><text style="dominant-baseline: middle; font-size: 10.2px;" transform="translate(5,202.5)" y="0" x="0" id="text-entity-RadiationTherapy-61c36274-30a2-5781-a5a3-aa848ff13e76-attr-9-type" class="er entityLabel">TextList</text><rect height="21" width="147.015625" y="192" x="57.0625" class="er attributeBoxOdd"/><text style="dominant-baseline: middle; font-size: 10.2px;" transform="translate(62.0625,202.5)" y="0" x="0" id="text-entity-RadiationTherapy-61c36274-30a2-5781-a5a3-aa848ff13e76-attr-9-name" class="er entityLabel">alternateName</text><rect height="21" width="57.0625" y="213" x="0" class="er attributeBoxEven"/><text style="dominant-baseline: middle; font-size: 10.2px;" transform="translate(5,223.5)" y="0" x="0" id="text-entity-RadiationTherapy-61c36274-30a2-5781-a5a3-aa848ff13e76-attr-10-type" class="er entityLabel">stringList</text><rect height="21" width="147.015625" y="213" x="57.0625" class="er attributeBoxEven"/><text style="dominant-baseline: middle; font-size: 10.2px;" transform="translate(62.0625,223.5)" y="0" x="0" id="text-entity-RadiationTherapy-61c36274-30a2-5781-a5a3-aa848ff13e76-attr-10-name" class="er entityLabel">description</text><rect height="21" width="57.0625" y="234" x="0" class="er attributeBoxOdd"/><text style="dominant-baseline: middle; font-size: 10.2px;" transform="translate(5,244.5)" y="0" x="0" id="text-entity-RadiationTherapy-61c36274-30a2-5781-a5a3-aa848ff13e76-attr-11-type" class="er entityLabel">TextList</text><rect height="21" width="147.015625" y="234" x="57.0625" class="er attributeBoxOdd"/><text style="dominant-baseline: middle; font-size: 10.2px;" transform="translate(62.0625,244.5)" y="0" x="0" id="text-entity-RadiationTherapy-61c36274-30a2-5781-a5a3-aa848ff13e76-attr-11-name" class="er entityLabel">disambiguatingDescription</text><rect height="21" width="57.0625" y="255" x="0" class="er attributeBoxEven"/><text style="dominant-baseline: middle; font-size: 10.2px;" transform="translate(5,265.5)" y="0" x="0" id="text-entity-RadiationTherapy-61c36274-30a2-5781-a5a3-aa848ff13e76-attr-12-type" class="er entityLabel">stringList</text><rect height="21" width="147.015625" y="255" x="57.0625" class="er attributeBoxEven"/><text style="dominant-baseline: middle; font-size: 10.2px;" transform="translate(62.0625,265.5)" y="0" x="0" id="text-entity-RadiationTherapy-61c36274-30a2-5781-a5a3-aa848ff13e76-attr-12-name" class="er entityLabel">identifier</text><rect height="21" width="57.0625" y="276" x="0" class="er attributeBoxOdd"/><text style="dominant-baseline: middle; font-size: 10.2px;" transform="translate(5,286.5)" y="0" x="0" id="text-entity-RadiationTherapy-61c36274-30a2-5781-a5a3-aa848ff13e76-attr-13-type" class="er entityLabel">stringList</text><rect height="21" width="147.015625" y="276" x="57.0625" class="er attributeBoxOdd"/><text style="dominant-baseline: middle; font-size: 10.2px;" transform="translate(62.0625,286.5)" y="0" x="0" id="text-entity-RadiationTherapy-61c36274-30a2-5781-a5a3-aa848ff13e76-attr-13-name" class="er entityLabel">image</text><rect height="21" width="57.0625" y="297" x="0" class="er attributeBoxEven"/><text style="dominant-baseline: middle; font-size: 10.2px;" transform="translate(5,307.5)" y="0" x="0" id="text-entity-RadiationTherapy-61c36274-30a2-5781-a5a3-aa848ff13e76-attr-14-type" class="er entityLabel">TextList</text><rect height="21" width="147.015625" y="297" x="57.0625" class="er attributeBoxEven"/><text style="dominant-baseline: middle; font-size: 10.2px;" transform="translate(62.0625,307.5)" y="0" x="0" id="text-entity-RadiationTherapy-61c36274-30a2-5781-a5a3-aa848ff13e76-attr-14-name" class="er entityLabel">name</text><rect height="21" width="57.0625" y="318" x="0" class="er attributeBoxOdd"/><text style="dominant-baseline: middle; font-size: 10.2px;" transform="translate(5,328.5)" y="0" x="0" id="text-entity-RadiationTherapy-61c36274-30a2-5781-a5a3-aa848ff13e76-attr-15-type" class="er entityLabel">URLList</text><rect height="21" width="147.015625" y="318" x="57.0625" class="er attributeBoxOdd"/><text style="dominant-baseline: middle; font-size: 10.2px;" transform="translate(62.0625,328.5)" y="0" x="0" id="text-entity-RadiationTherapy-61c36274-30a2-5781-a5a3-aa848ff13e76-attr-15-name" class="er entityLabel">sameAs</text><rect height="21" width="57.0625" y="339" x="0" class="er attributeBoxEven"/><text style="dominant-baseline: middle; font-size: 10.2px;" transform="translate(5,349.5)" y="0" x="0" id="text-entity-RadiationTherapy-61c36274-30a2-5781-a5a3-aa848ff13e76-attr-16-type" class="er entityLabel">stringList</text><rect height="21" width="147.015625" y="339" x="57.0625" class="er attributeBoxEven"/><text style="dominant-baseline: middle; font-size: 10.2px;" transform="translate(62.0625,349.5)" y="0" x="0" id="text-entity-RadiationTherapy-61c36274-30a2-5781-a5a3-aa848ff13e76-attr-16-name" class="er entityLabel">mainEntityOfPage</text><rect height="21" width="57.0625" y="360" x="0" class="er attributeBoxOdd"/><text style="dominant-baseline: middle; font-size: 10.2px;" transform="translate(5,370.5)" y="0" x="0" id="text-entity-RadiationTherapy-61c36274-30a2-5781-a5a3-aa848ff13e76-attr-17-type" class="er entityLabel">stringList</text><rect height="21" width="147.015625" y="360" x="57.0625" class="er attributeBoxOdd"/><text style="dominant-baseline: middle; font-size: 10.2px;" transform="translate(62.0625,370.5)" y="0" x="0" id="text-entity-RadiationTherapy-61c36274-30a2-5781-a5a3-aa848ff13e76-attr-17-name" class="er entityLabel">subjectOf</text><rect height="21" width="57.0625" y="381" x="0" class="er attributeBoxEven"/><text style="dominant-baseline: middle; font-size: 10.2px;" transform="translate(5,391.5)" y="0" x="0" id="text-entity-RadiationTherapy-61c36274-30a2-5781-a5a3-aa848ff13e76-attr-18-type" class="er entityLabel">URLList</text><rect height="21" width="147.015625" y="381" x="57.0625" class="er attributeBoxEven"/><text style="dominant-baseline: middle; font-size: 10.2px;" transform="translate(62.0625,391.5)" y="0" x="0" id="text-entity-RadiationTherapy-61c36274-30a2-5781-a5a3-aa848ff13e76-attr-18-name" class="er entityLabel">url</text></g><g transform="translate(20,522 )" id="entity-MedicalTherapy-cb945121-be61-5f08-b66d-584ab4170081"><rect height="75" width="125.296875" y="0" x="0" class="er entityBox"/><text style="dominant-baseline: middle; text-anchor: middle; font-size: 12px;" transform="translate(62.6484375,37.5)" y="0" x="0" id="text-entity-MedicalTherapy-cb945121-be61-5f08-b66d-584ab4170081" class="er entityLabel">MedicalTherapy</text></g><g transform="translate(245.296875,522 )" id="entity-MedicalEntity-da7f22f1-1df3-52b4-9ce4-a5e4f6d6add9"><rect height="75" width="111.015625" y="0" x="0" class="er entityBox"/><text style="dominant-baseline: middle; text-anchor: middle; font-size: 12px;" transform="translate(55.5078125,37.5)" y="0" x="0" id="text-entity-MedicalEntity-da7f22f1-1df3-52b4-9ce4-a5e4f6d6add9" class="er entityLabel">MedicalEntity</text></g><g transform="translate(456.3125,522 )" id="entity-DoseSchedule-12668bf5-601b-5226-977d-b7cea32e7cf4"><rect height="75" width="115.359375" y="0" x="0" class="er entityBox"/><text style="dominant-baseline: middle; text-anchor: middle; font-size: 12px;" transform="translate(57.6796875,37.5)" y="0" x="0" id="text-entity-DoseSchedule-12668bf5-601b-5226-977d-b7cea32e7cf4" class="er entityLabel">DoseSchedule</text></g><g transform="translate(671.671875,522 )" id="entity-Drug-eafa91c0-1824-5f2e-9826-905b73217603"><rect height="75" width="100" y="0" x="0" class="er entityBox"/><text style="dominant-baseline: middle; text-anchor: middle; font-size: 12px;" transform="translate(50,37.5)" y="0" x="0" id="text-entity-Drug-eafa91c0-1824-5f2e-9826-905b73217603" class="er entityLabel">Drug</text></g><g transform="translate(871.671875,522 )" id="entity-MedicalProcedureType-77110f20-1241-5df8-967e-11a2ad8f2859"><rect height="75" width="163.828125" y="0" x="0" class="er entityBox"/><text style="dominant-baseline: middle; text-anchor: middle; font-size: 12px;" transform="translate(81.9140625,37.5)" y="0" x="0" id="text-entity-MedicalProcedureType-77110f20-1241-5df8-967e-11a2ad8f2859" class="er entityLabel">MedicalProcedureType</text></g><g transform="translate(1135.5,522 )" id="entity-MedicalCode-340ab1f3-b0e0-51ff-b309-32031f623ceb"><rect height="75" width="106.703125" y="0" x="0" class="er entityBox"/><text style="dominant-baseline: middle; text-anchor: middle; font-size: 12px;" transform="translate(53.3515625,37.5)" y="0" x="0" id="text-entity-MedicalCode-340ab1f3-b0e0-51ff-b309-32031f623ceb" class="er entityLabel">MedicalCode</text></g><g transform="translate(1342.203125,522 )" id="entity-Grant-291daf2c-8722-576f-890e-1045bc6484c0"><rect height="75" width="100" y="0" x="0" class="er entityBox"/><text style="dominant-baseline: middle; text-anchor: middle; font-size: 12px;" transform="translate(50,37.5)" y="0" x="0" id="text-entity-Grant-291daf2c-8722-576f-890e-1045bc6484c0" class="er entityLabel">Grant</text></g><g transform="translate(1542.203125,522 )" id="entity-MedicalGuideline-a05959e1-803b-55cd-8b3c-b530a54fde23"><rect height="75" width="132.875" y="0" x="0" class="er entityBox"/><text style="dominant-baseline: middle; text-anchor: middle; font-size: 12px;" transform="translate(66.4375,37.5)" y="0" x="0" id="text-entity-MedicalGuideline-a05959e1-803b-55cd-8b3c-b530a54fde23" class="er entityLabel">MedicalGuideline</text></g><g transform="translate(1775.078125,522 )" id="entity-MedicineSystem-74197b84-67e0-5471-ab59-f3fd7c3c0e72"><rect height="75" width="128.359375" y="0" x="0" class="er entityBox"/><text style="dominant-baseline: middle; text-anchor: middle; font-size: 12px;" transform="translate(64.1796875,37.5)" y="0" x="0" id="text-entity-MedicineSystem-74197b84-67e0-5471-ab59-f3fd7c3c0e72" class="er entityLabel">MedicineSystem</text></g><g transform="translate(2003.4375,522 )" id="entity-Organization-ef1721ab-1f62-5ef5-a525-a6c60c2f6032"><rect height="75" width="106.71875" y="0" x="0" class="er entityBox"/><text style="dominant-baseline: middle; text-anchor: middle; font-size: 12px;" transform="translate(53.359375,37.5)" y="0" x="0" id="text-entity-Organization-ef1721ab-1f62-5ef5-a525-a6c60c2f6032" class="er entityLabel">Organization</text></g><g transform="translate(2210.15625,522 )" id="entity-MedicalSpecialty-0f4a20d3-5a5d-5b81-b412-da395afebba8"><rect height="75" width="131.015625" y="0" x="0" class="er entityBox"/><text style="dominant-baseline: middle; text-anchor: middle; font-size: 12px;" transform="translate(65.5078125,37.5)" y="0" x="0" id="text-entity-MedicalSpecialty-0f4a20d3-5a5d-5b81-b412-da395afebba8" class="er entityLabel">MedicalSpecialty</text></g><g transform="translate(2441.171875,522 )" id="entity-MedicalStudy-22dea251-12b7-5654-af29-afad6ffe12b1"><rect height="75" width="110.625" y="0" x="0" class="er entityBox"/><text style="dominant-baseline: middle; text-anchor: middle; font-size: 12px;" transform="translate(55.3125,37.5)" y="0" x="0" id="text-entity-MedicalStudy-22dea251-12b7-5654-af29-afad6ffe12b1" class="er entityLabel">MedicalStudy</text></g><g transform="translate(2651.796875,522 )" id="entity-Action-6cd87d9a-a078-546e-a35b-bee54f477b31"><rect height="75" width="100" y="0" x="0" class="er entityBox"/><text style="dominant-baseline: middle; text-anchor: middle; font-size: 12px;" transform="translate(50,37.5)" y="0" x="0" id="text-entity-Action-6cd87d9a-a078-546e-a35b-bee54f477b31" class="er entityLabel">Action</text></g><rect height="14" width="104.875" y="353.64532470703125" x="571.5394287109375" class="er relationshipLabelBox"/><text style="text-anchor: middle; dominant-baseline: middle; font-size: 12px;" y="360.64532470703125" x="623.9769287109375" id="rel1" class="er relationshipLabel">duplicateTherapy</text><rect height="14" width="146.546875" y="353.7692565917969" x="638.4713745117188" class="er relationshipLabelBox"/><text style="text-anchor: middle; dominant-baseline: middle; font-size: 12px;" y="360.7692565917969" x="711.7448120117188" id="rel2" class="er relationshipLabel">seriousAdverseOutcome</text><rect height="14" width="102.796875" y="360.7970886230469" x="697.368896484375" class="er relationshipLabelBox"/><text style="text-anchor: middle; dominant-baseline: middle; font-size: 12px;" y="367.7970886230469" x="748.767333984375" id="rel3" class="er relationshipLabel">adverseOutcome</text><rect height="14" width="83.75" y="361.6003112792969" x="795.7860107421875" class="er relationshipLabelBox"/><text style="text-anchor: middle; dominant-baseline: middle; font-size: 12px;" y="368.6003112792969" x="837.6610107421875" id="rel4" class="er relationshipLabel">doseSchedule</text><rect height="14" width="27.78125" y="369.8713684082031" x="926.3953857421875" class="er relationshipLabelBox"/><text style="text-anchor: middle; dominant-baseline: middle; font-size: 12px;" y="376.8713684082031" x="940.2860107421875" id="rel5" class="er relationshipLabel">drug</text><rect height="14" width="88.453125" y="390.6567687988281" x="1011.4287109375" class="er relationshipLabelBox"/><text style="text-anchor: middle; dominant-baseline: middle; font-size: 12px;" y="397.6567687988281" x="1055.6552734375" id="rel6" class="er relationshipLabel">procedureType</text><rect height="14" width="28.953125" y="463.7048645019531" x="1178.02001953125" class="er relationshipLabelBox"/><text style="text-anchor: middle; dominant-baseline: middle; font-size: 12px;" y="470.7048645019531" x="1192.49658203125" id="rel7" class="er relationshipLabel">code</text><rect height="14" width="45.609375" y="463.7050476074219" x="1365.7528076171875" class="er relationshipLabelBox"/><text style="text-anchor: middle; dominant-baseline: middle; font-size: 12px;" y="470.7050476074219" x="1388.5574951171875" id="rel8" class="er relationshipLabel">funding</text><rect height="14" width="55.21875" y="393.5594482421875" x="1488.267578125" class="er relationshipLabelBox"/><text style="text-anchor: middle; dominant-baseline: middle; font-size: 12px;" y="400.5594482421875" x="1515.876953125" id="rel9" class="er relationshipLabel">guideline</text><rect height="14" width="99.703125" y="371.0049743652344" x="1580.9674072265625" class="er relationshipLabelBox"/><text style="text-anchor: middle; dominant-baseline: middle; font-size: 12px;" y="378.0049743652344" x="1630.8189697265625" id="rel10" class="er relationshipLabel">medicineSystem</text><rect height="14" width="124.953125" y="361.9027099609375" x="1675.842041015625" class="er relationshipLabelBox"/><text style="text-anchor: middle; dominant-baseline: middle; font-size: 12px;" y="368.9027099609375" x="1738.318603515625" id="rel11" class="er relationshipLabel">recognizingAuthority</text><rect height="14" width="104.578125" y="356.8532409667969" x="1794.3338623046875" class="er relationshipLabelBox"/><text style="text-anchor: middle; dominant-baseline: middle; font-size: 12px;" y="363.8532409667969" x="1846.6229248046875" id="rel12" class="er relationshipLabel">relevantSpecialty</text><rect height="14" width="33.28125" y="353.6677551269531" x="1939.482666015625" class="er relationshipLabelBox"/><text style="text-anchor: middle; dominant-baseline: middle; font-size: 12px;" y="360.6677551269531" x="1956.123291015625" id="rel13" class="er relationshipLabel">study</text><rect height="14" width="90.96875" y="351.632080078125" x="2012.618408203125" class="er relationshipLabelBox"/><text style="text-anchor: middle; dominant-baseline: middle; font-size: 12px;" y="358.632080078125" x="2058.102783203125" id="rel14" class="er relationshipLabel">potentialAction</text></svg>