<svg aria-roledescription="er" role="graphics-document document" viewBox="0 0 2777.640625 911" style="max-width: 2777.64px; background-color: white;" xmlns:xlink="http://www.w3.org/1999/xlink" xmlns="http://www.w3.org/2000/svg" width="100%" id="my-svg"><style>#my-svg{font-family:"trebuchet ms",verdana,arial,sans-serif;font-size:16px;fill:#333;}#my-svg .error-icon{fill:#552222;}#my-svg .error-text{fill:#552222;stroke:#552222;}#my-svg .edge-thickness-normal{stroke-width:1px;}#my-svg .edge-thickness-thick{stroke-width:3.5px;}#my-svg .edge-pattern-solid{stroke-dasharray:0;}#my-svg .edge-thickness-invisible{stroke-width:0;fill:none;}#my-svg .edge-pattern-dashed{stroke-dasharray:3;}#my-svg .edge-pattern-dotted{stroke-dasharray:2;}#my-svg .marker{fill:#333333;stroke:#333333;}#my-svg .marker.cross{stroke:#333333;}#my-svg svg{font-family:"trebuchet ms",verdana,arial,sans-serif;font-size:16px;}#my-svg p{margin:0;}#my-svg .entityBox{fill:#ECECFF;stroke:#9370DB;}#my-svg .attributeBoxOdd{fill:#ffffff;stroke:#9370DB;}#my-svg .attributeBoxEven{fill:#f2f2f2;stroke:#9370DB;}#my-svg .relationshipLabelBox{fill:hsl(80, 100%, 96.2745098039%);opacity:0.7;background-color:hsl(80, 100%, 96.2745098039%);}#my-svg .relationshipLabelBox rect{opacity:0.5;}#my-svg .relationshipLine{stroke:#333333;}#my-svg .entityTitleText{text-anchor:middle;font-size:18px;fill:#333;}#my-svg #MD_PARENT_START{fill:#f5f5f5!important;stroke:#333333!important;stroke-width:1;}#my-svg #MD_PARENT_END{fill:#f5f5f5!important;stroke:#333333!important;stroke-width:1;}#my-svg :root{--mermaid-font-family:"trebuchet ms",verdana,arial,sans-serif;}</style><g/><defs><marker orient="auto" markerHeight="240" markerWidth="190" refY="7" refX="0" id="MD_PARENT_START"><path d="M 18,7 L9,13 L1,7 L9,1 Z"/></marker></defs><defs><marker orient="auto" markerHeight="28" markerWidth="20" refY="7" refX="19" id="MD_PARENT_END"><path d="M 18,7 L9,13 L1,7 L9,1 Z"/></marker></defs><defs><marker orient="auto" markerHeight="18" markerWidth="18" refY="9" refX="0" id="ONLY_ONE_START"><path d="M9,0 L9,18 M15,0 L15,18" fill="none" stroke="gray"/></marker></defs><defs><marker orient="auto" markerHeight="18" markerWidth="18" refY="9" refX="18" id="ONLY_ONE_END"><path d="M3,0 L3,18 M9,0 L9,18" fill="none" stroke="gray"/></marker></defs><defs><marker orient="auto" markerHeight="18" markerWidth="30" refY="9" refX="0" id="ZERO_OR_ONE_START"><circle r="6" cy="9" cx="21" fill="white" stroke="gray"/><path d="M9,0 L9,18" fill="none" stroke="gray"/></marker></defs><defs><marker orient="auto" markerHeight="18" markerWidth="30" refY="9" refX="30" id="ZERO_OR_ONE_END"><circle r="6" cy="9" cx="9" fill="white" stroke="gray"/><path d="M21,0 L21,18" fill="none" stroke="gray"/></marker></defs><defs><marker orient="auto" markerHeight="36" markerWidth="45" refY="18" refX="18" id="ONE_OR_MORE_START"><path d="M0,18 Q 18,0 36,18 Q 18,36 0,18 M42,9 L42,27" fill="none" stroke="gray"/></marker></defs><defs><marker orient="auto" markerHeight="36" markerWidth="45" refY="18" refX="27" id="ONE_OR_MORE_END"><path d="M3,9 L3,27 M9,18 Q27,0 45,18 Q27,36 9,18" fill="none" stroke="gray"/></marker></defs><defs><marker orient="auto" markerHeight="36" markerWidth="57" refY="18" refX="18" id="ZERO_OR_MORE_START"><circle r="6" cy="18" cx="48" fill="white" stroke="gray"/><path d="M0,18 Q18,0 36,18 Q18,36 0,18" fill="none" stroke="gray"/></marker></defs><defs><marker orient="auto" markerHeight="36" markerWidth="57" refY="18" refX="39" id="ZERO_OR_MORE_END"><circle r="6" cy="18" cx="9" fill="white" stroke="gray"/><path d="M21,18 Q39,0 57,18 Q39,36 21,18" fill="none" stroke="gray"/></marker></defs><path style="stroke: gray; fill: none;" marker-start="url(#ONLY_ONE_START)" marker-end="url(#ZERO_OR_MORE_END)" d="M1241.617,399.886L1046.348,460.905C851.078,521.924,460.539,643.962,265.27,713.314C70,782.667,70,799.333,70,807.667L70,816" class="er relationshipLine"/><path style="stroke: gray; fill: none;" marker-start="url(#ONLY_ONE_START)" marker-end="url(#ZERO_OR_MORE_END)" d="M1241.617,404.196L1071.628,464.497C901.638,524.798,561.659,645.399,396.591,714.033C231.523,782.667,241.367,799.333,246.289,807.667L251.211,816" class="er relationshipLine"/><path style="stroke: gray; fill: none;" marker-start="url(#ONLY_ONE_START)" marker-end="url(#ZERO_OR_MORE_END)" d="M1241.617,408.258L1090.495,467.882C939.374,527.506,637.13,646.753,480.149,714.71C323.167,782.667,311.448,799.333,305.588,807.667L299.728,816" class="er relationshipLine"/><path style="stroke: gray; fill: none;" marker-start="url(#ONLY_ONE_START)" marker-end="url(#ZERO_OR_MORE_END)" d="M1241.617,415.934L1117.417,474.278C993.216,532.623,744.815,649.311,620.615,715.989C496.414,782.667,496.414,799.333,496.414,807.667L496.414,816" class="er relationshipLine"/><path style="stroke: gray; fill: none;" marker-start="url(#ONLY_ONE_START)" marker-end="url(#ZERO_OR_MORE_END)" d="M1241.617,434.543L1156.906,489.786C1072.195,545.029,902.773,655.514,818.063,719.091C733.352,782.667,733.352,799.333,733.352,807.667L733.352,816" class="er relationshipLine"/><path style="stroke: gray; fill: none;" marker-start="url(#ONLY_ONE_START)" marker-end="url(#ZERO_OR_MORE_END)" d="M1241.617,475.598L1195.717,523.998C1149.818,572.399,1058.018,669.199,1012.118,725.933C966.219,782.667,966.219,799.333,966.219,807.667L966.219,816" class="er relationshipLine"/><path style="stroke: gray; fill: none;" marker-start="url(#ONLY_ONE_START)" marker-end="url(#ZERO_OR_MORE_END)" d="M1241.617,552.913L1222.02,588.428C1202.422,623.942,1163.227,694.971,1149.135,738.819C1135.043,782.667,1146.055,799.333,1151.561,807.667L1157.067,816" class="er relationshipLine"/><path style="stroke: gray; fill: none;" marker-start="url(#ONLY_ONE_START)" marker-end="url(#ZERO_OR_MORE_END)" d="M1387.375,716L1388.422,724.333C1389.469,732.667,1391.562,749.333,1392.609,766C1393.656,782.667,1393.656,799.333,1393.656,807.667L1393.656,816" class="er relationshipLine"/><path style="stroke: gray; fill: none;" marker-start="url(#ONLY_ONE_START)" marker-end="url(#ZERO_OR_MORE_END)" d="M1445.695,522.165L1472.594,562.804C1499.492,603.443,1553.289,684.722,1580.188,733.694C1607.086,782.667,1607.086,799.333,1607.086,807.667L1607.086,816" class="er relationshipLine"/><path style="stroke: gray; fill: none;" marker-start="url(#ONLY_ONE_START)" marker-end="url(#ZERO_OR_MORE_END)" d="M1445.695,454.757L1506.707,506.63C1567.719,558.504,1689.742,662.252,1750.754,722.459C1811.766,782.667,1811.766,799.333,1811.766,807.667L1811.766,816" class="er relationshipLine"/><path style="stroke: gray; fill: none;" marker-start="url(#ONLY_ONE_START)" marker-end="url(#ZERO_OR_MORE_END)" d="M1445.695,424.595L1548.285,481.496C1650.875,538.397,1856.055,652.198,1958.645,717.433C2061.234,782.667,2061.234,799.333,2061.234,807.667L2061.234,816" class="er relationshipLine"/><path style="stroke: gray; fill: none;" marker-start="url(#ONLY_ONE_START)" marker-end="url(#ZERO_OR_MORE_END)" d="M1445.695,413.591L1577.152,472.326C1708.609,531.061,1971.523,648.53,2109.952,715.598C2248.381,782.667,2262.324,799.333,2269.296,807.667L2276.268,816" class="er relationshipLine"/><path style="stroke: gray; fill: none;" marker-start="url(#ONLY_ONE_START)" marker-end="url(#ZERO_OR_MORE_END)" d="M1445.695,402.89L1622.686,463.408C1799.677,523.927,2153.659,644.963,2330.65,713.815C2507.641,782.667,2507.641,799.333,2507.641,807.667L2507.641,816" class="er relationshipLine"/><path style="stroke: gray; fill: none;" marker-start="url(#ONLY_ONE_START)" marker-end="url(#ZERO_OR_MORE_END)" d="M1251.055,716L1248.837,724.333C1246.62,732.667,1242.185,749.333,1234.643,766C1227.101,782.667,1216.452,799.333,1211.128,807.667L1205.804,816" class="er relationshipLine"/><path style="stroke: gray; fill: none;" marker-start="url(#ONLY_ONE_START)" marker-end="url(#ZERO_OR_MORE_END)" d="M1445.695,408.051L1597.686,467.71C1749.677,527.368,2053.659,646.684,2200.888,714.675C2348.117,782.667,2338.593,799.333,2333.831,807.667L2329.069,816" class="er relationshipLine"/><path style="stroke: gray; fill: none;" marker-start="url(#ONLY_ONE_START)" marker-end="url(#ZERO_OR_MORE_END)" d="M1445.695,397.774L1656.02,459.145C1866.344,520.516,2286.992,643.258,2497.316,712.962C2707.641,782.667,2707.641,799.333,2707.641,807.667L2707.641,816" class="er relationshipLine"/><g transform="translate(1241.6171875,20 )" id="entity-RadioBroadcastService-fd882fad-b2fd-5666-b88f-5822a7b5985f"><rect height="696" width="204.078125" y="0" x="0" class="er entityBox"/><text style="dominant-baseline: middle; text-anchor: middle; font-size: 12px;" transform="translate(102.0390625,12)" y="0" x="0" id="text-entity-RadioBroadcastService-fd882fad-b2fd-5666-b88f-5822a7b5985f" class="er entityLabel">RadioBroadcastService</text><rect height="21" width="57.0625" y="24" x="0" class="er attributeBoxOdd"/><text style="dominant-baseline: middle; font-size: 10.2px;" transform="translate(5,34.5)" y="0" x="0" id="text-entity-RadioBroadcastService-fd882fad-b2fd-5666-b88f-5822a7b5985f-attr-1-type" class="er entityLabel">TextList</text><rect height="21" width="147.015625" y="24" x="57.0625" class="er attributeBoxOdd"/><text style="dominant-baseline: middle; font-size: 10.2px;" transform="translate(62.0625,34.5)" y="0" x="0" id="text-entity-RadioBroadcastService-fd882fad-b2fd-5666-b88f-5822a7b5985f-attr-1-name" class="er entityLabel">callSign</text><rect height="21" width="57.0625" y="45" x="0" class="er attributeBoxEven"/><text style="dominant-baseline: middle; font-size: 10.2px;" transform="translate(5,55.5)" y="0" x="0" id="text-entity-RadioBroadcastService-fd882fad-b2fd-5666-b88f-5822a7b5985f-attr-2-type" class="er entityLabel">TextList</text><rect height="21" width="147.015625" y="45" x="57.0625" class="er attributeBoxEven"/><text style="dominant-baseline: middle; font-size: 10.2px;" transform="translate(62.0625,55.5)" y="0" x="0" id="text-entity-RadioBroadcastService-fd882fad-b2fd-5666-b88f-5822a7b5985f-attr-2-name" class="er entityLabel">broadcastDisplayName</text><rect height="21" width="57.0625" y="66" x="0" class="er attributeBoxOdd"/><text style="dominant-baseline: middle; font-size: 10.2px;" transform="translate(5,76.5)" y="0" x="0" id="text-entity-RadioBroadcastService-fd882fad-b2fd-5666-b88f-5822a7b5985f-attr-3-type" class="er entityLabel">stringList</text><rect height="21" width="147.015625" y="66" x="57.0625" class="er attributeBoxOdd"/><text style="dominant-baseline: middle; font-size: 10.2px;" transform="translate(62.0625,76.5)" y="0" x="0" id="text-entity-RadioBroadcastService-fd882fad-b2fd-5666-b88f-5822a7b5985f-attr-3-name" class="er entityLabel">broadcastFrequency</text><rect height="21" width="57.0625" y="87" x="0" class="er attributeBoxEven"/><text style="dominant-baseline: middle; font-size: 10.2px;" transform="translate(5,97.5)" y="0" x="0" id="text-entity-RadioBroadcastService-fd882fad-b2fd-5666-b88f-5822a7b5985f-attr-4-type" class="er entityLabel">TextList</text><rect height="21" width="147.015625" y="87" x="57.0625" class="er attributeBoxEven"/><text style="dominant-baseline: middle; font-size: 10.2px;" transform="translate(62.0625,97.5)" y="0" x="0" id="text-entity-RadioBroadcastService-fd882fad-b2fd-5666-b88f-5822a7b5985f-attr-4-name" class="er entityLabel">broadcastTimezone</text><rect height="21" width="57.0625" y="108" x="0" class="er attributeBoxOdd"/><text style="dominant-baseline: middle; font-size: 10.2px;" transform="translate(5,118.5)" y="0" x="0" id="text-entity-RadioBroadcastService-fd882fad-b2fd-5666-b88f-5822a7b5985f-attr-5-type" class="er entityLabel">stringList</text><rect height="21" width="147.015625" y="108" x="57.0625" class="er attributeBoxOdd"/><text style="dominant-baseline: middle; font-size: 10.2px;" transform="translate(62.0625,118.5)" y="0" x="0" id="text-entity-RadioBroadcastService-fd882fad-b2fd-5666-b88f-5822a7b5985f-attr-5-name" class="er entityLabel">inLanguage</text><rect height="21" width="57.0625" y="129" x="0" class="er attributeBoxEven"/><text style="dominant-baseline: middle; font-size: 10.2px;" transform="translate(5,139.5)" y="0" x="0" id="text-entity-RadioBroadcastService-fd882fad-b2fd-5666-b88f-5822a7b5985f-attr-6-type" class="er entityLabel">TextList</text><rect height="21" width="147.015625" y="129" x="57.0625" class="er attributeBoxEven"/><text style="dominant-baseline: middle; font-size: 10.2px;" transform="translate(62.0625,139.5)" y="0" x="0" id="text-entity-RadioBroadcastService-fd882fad-b2fd-5666-b88f-5822a7b5985f-attr-6-name" class="er entityLabel">videoFormat</text><rect height="21" width="57.0625" y="150" x="0" class="er attributeBoxOdd"/><text style="dominant-baseline: middle; font-size: 10.2px;" transform="translate(5,160.5)" y="0" x="0" id="text-entity-RadioBroadcastService-fd882fad-b2fd-5666-b88f-5822a7b5985f-attr-7-type" class="er entityLabel">stringList</text><rect height="21" width="147.015625" y="150" x="57.0625" class="er attributeBoxOdd"/><text style="dominant-baseline: middle; font-size: 10.2px;" transform="translate(62.0625,160.5)" y="0" x="0" id="text-entity-RadioBroadcastService-fd882fad-b2fd-5666-b88f-5822a7b5985f-attr-7-name" class="er entityLabel">areaServed</text><rect height="21" width="57.0625" y="171" x="0" class="er attributeBoxEven"/><text style="dominant-baseline: middle; font-size: 10.2px;" transform="translate(5,181.5)" y="0" x="0" id="text-entity-RadioBroadcastService-fd882fad-b2fd-5666-b88f-5822a7b5985f-attr-8-type" class="er entityLabel">stringList</text><rect height="21" width="147.015625" y="171" x="57.0625" class="er attributeBoxEven"/><text style="dominant-baseline: middle; font-size: 10.2px;" transform="translate(62.0625,181.5)" y="0" x="0" id="text-entity-RadioBroadcastService-fd882fad-b2fd-5666-b88f-5822a7b5985f-attr-8-name" class="er entityLabel">category</text><rect height="21" width="57.0625" y="192" x="0" class="er attributeBoxOdd"/><text style="dominant-baseline: middle; font-size: 10.2px;" transform="translate(5,202.5)" y="0" x="0" id="text-entity-RadioBroadcastService-fd882fad-b2fd-5666-b88f-5822a7b5985f-attr-9-type" class="er entityLabel">stringList</text><rect height="21" width="147.015625" y="192" x="57.0625" class="er attributeBoxOdd"/><text style="dominant-baseline: middle; font-size: 10.2px;" transform="translate(62.0625,202.5)" y="0" x="0" id="text-entity-RadioBroadcastService-fd882fad-b2fd-5666-b88f-5822a7b5985f-attr-9-name" class="er entityLabel">logo</text><rect height="21" width="57.0625" y="213" x="0" class="er attributeBoxEven"/><text style="dominant-baseline: middle; font-size: 10.2px;" transform="translate(5,223.5)" y="0" x="0" id="text-entity-RadioBroadcastService-fd882fad-b2fd-5666-b88f-5822a7b5985f-attr-10-type" class="er entityLabel">TextList</text><rect height="21" width="147.015625" y="213" x="57.0625" class="er attributeBoxEven"/><text style="dominant-baseline: middle; font-size: 10.2px;" transform="translate(62.0625,223.5)" y="0" x="0" id="text-entity-RadioBroadcastService-fd882fad-b2fd-5666-b88f-5822a7b5985f-attr-10-name" class="er entityLabel">award</text><rect height="21" width="57.0625" y="234" x="0" class="er attributeBoxOdd"/><text style="dominant-baseline: middle; font-size: 10.2px;" transform="translate(5,244.5)" y="0" x="0" id="text-entity-RadioBroadcastService-fd882fad-b2fd-5666-b88f-5822a7b5985f-attr-11-type" class="er entityLabel">stringList</text><rect height="21" width="147.015625" y="234" x="57.0625" class="er attributeBoxOdd"/><text style="dominant-baseline: middle; font-size: 10.2px;" transform="translate(62.0625,244.5)" y="0" x="0" id="text-entity-RadioBroadcastService-fd882fad-b2fd-5666-b88f-5822a7b5985f-attr-11-name" class="er entityLabel">brand</text><rect height="21" width="57.0625" y="255" x="0" class="er attributeBoxEven"/><text style="dominant-baseline: middle; font-size: 10.2px;" transform="translate(5,265.5)" y="0" x="0" id="text-entity-RadioBroadcastService-fd882fad-b2fd-5666-b88f-5822a7b5985f-attr-12-type" class="er entityLabel">stringList</text><rect height="21" width="147.015625" y="255" x="57.0625" class="er attributeBoxEven"/><text style="dominant-baseline: middle; font-size: 10.2px;" transform="translate(62.0625,265.5)" y="0" x="0" id="text-entity-RadioBroadcastService-fd882fad-b2fd-5666-b88f-5822a7b5985f-attr-12-name" class="er entityLabel">broker</text><rect height="21" width="57.0625" y="276" x="0" class="er attributeBoxOdd"/><text style="dominant-baseline: middle; font-size: 10.2px;" transform="translate(5,286.5)" y="0" x="0" id="text-entity-RadioBroadcastService-fd882fad-b2fd-5666-b88f-5822a7b5985f-attr-13-type" class="er entityLabel">stringList</text><rect height="21" width="147.015625" y="276" x="57.0625" class="er attributeBoxOdd"/><text style="dominant-baseline: middle; font-size: 10.2px;" transform="translate(62.0625,286.5)" y="0" x="0" id="text-entity-RadioBroadcastService-fd882fad-b2fd-5666-b88f-5822a7b5985f-attr-13-name" class="er entityLabel">isRelatedTo</text><rect height="21" width="57.0625" y="297" x="0" class="er attributeBoxEven"/><text style="dominant-baseline: middle; font-size: 10.2px;" transform="translate(5,307.5)" y="0" x="0" id="text-entity-RadioBroadcastService-fd882fad-b2fd-5666-b88f-5822a7b5985f-attr-14-type" class="er entityLabel">stringList</text><rect height="21" width="147.015625" y="297" x="57.0625" class="er attributeBoxEven"/><text style="dominant-baseline: middle; font-size: 10.2px;" transform="translate(62.0625,307.5)" y="0" x="0" id="text-entity-RadioBroadcastService-fd882fad-b2fd-5666-b88f-5822a7b5985f-attr-14-name" class="er entityLabel">isSimilarTo</text><rect height="21" width="57.0625" y="318" x="0" class="er attributeBoxOdd"/><text style="dominant-baseline: middle; font-size: 10.2px;" transform="translate(5,328.5)" y="0" x="0" id="text-entity-RadioBroadcastService-fd882fad-b2fd-5666-b88f-5822a7b5985f-attr-15-type" class="er entityLabel">stringList</text><rect height="21" width="147.015625" y="318" x="57.0625" class="er attributeBoxOdd"/><text style="dominant-baseline: middle; font-size: 10.2px;" transform="translate(62.0625,328.5)" y="0" x="0" id="text-entity-RadioBroadcastService-fd882fad-b2fd-5666-b88f-5822a7b5985f-attr-15-name" class="er entityLabel">offers</text><rect height="21" width="57.0625" y="339" x="0" class="er attributeBoxEven"/><text style="dominant-baseline: middle; font-size: 10.2px;" transform="translate(5,349.5)" y="0" x="0" id="text-entity-RadioBroadcastService-fd882fad-b2fd-5666-b88f-5822a7b5985f-attr-16-type" class="er entityLabel">stringList</text><rect height="21" width="147.015625" y="339" x="57.0625" class="er attributeBoxEven"/><text style="dominant-baseline: middle; font-size: 10.2px;" transform="translate(62.0625,349.5)" y="0" x="0" id="text-entity-RadioBroadcastService-fd882fad-b2fd-5666-b88f-5822a7b5985f-attr-16-name" class="er entityLabel">provider</text><rect height="21" width="57.0625" y="360" x="0" class="er attributeBoxOdd"/><text style="dominant-baseline: middle; font-size: 10.2px;" transform="translate(5,370.5)" y="0" x="0" id="text-entity-RadioBroadcastService-fd882fad-b2fd-5666-b88f-5822a7b5985f-attr-17-type" class="er entityLabel">TextList</text><rect height="21" width="147.015625" y="360" x="57.0625" class="er attributeBoxOdd"/><text style="dominant-baseline: middle; font-size: 10.2px;" transform="translate(62.0625,370.5)" y="0" x="0" id="text-entity-RadioBroadcastService-fd882fad-b2fd-5666-b88f-5822a7b5985f-attr-17-name" class="er entityLabel">providerMobility</text><rect height="21" width="57.0625" y="381" x="0" class="er attributeBoxEven"/><text style="dominant-baseline: middle; font-size: 10.2px;" transform="translate(5,391.5)" y="0" x="0" id="text-entity-RadioBroadcastService-fd882fad-b2fd-5666-b88f-5822a7b5985f-attr-18-type" class="er entityLabel">stringList</text><rect height="21" width="147.015625" y="381" x="57.0625" class="er attributeBoxEven"/><text style="dominant-baseline: middle; font-size: 10.2px;" transform="translate(62.0625,391.5)" y="0" x="0" id="text-entity-RadioBroadcastService-fd882fad-b2fd-5666-b88f-5822a7b5985f-attr-18-name" class="er entityLabel">serviceArea</text><rect height="21" width="57.0625" y="402" x="0" class="er attributeBoxOdd"/><text style="dominant-baseline: middle; font-size: 10.2px;" transform="translate(5,412.5)" y="0" x="0" id="text-entity-RadioBroadcastService-fd882fad-b2fd-5666-b88f-5822a7b5985f-attr-19-type" class="er entityLabel">stringList</text><rect height="21" width="147.015625" y="402" x="57.0625" class="er attributeBoxOdd"/><text style="dominant-baseline: middle; font-size: 10.2px;" transform="translate(62.0625,412.5)" y="0" x="0" id="text-entity-RadioBroadcastService-fd882fad-b2fd-5666-b88f-5822a7b5985f-attr-19-name" class="er entityLabel">serviceType</text><rect height="21" width="57.0625" y="423" x="0" class="er attributeBoxEven"/><text style="dominant-baseline: middle; font-size: 10.2px;" transform="translate(5,433.5)" y="0" x="0" id="text-entity-RadioBroadcastService-fd882fad-b2fd-5666-b88f-5822a7b5985f-attr-20-type" class="er entityLabel">TextList</text><rect height="21" width="147.015625" y="423" x="57.0625" class="er attributeBoxEven"/><text style="dominant-baseline: middle; font-size: 10.2px;" transform="translate(62.0625,433.5)" y="0" x="0" id="text-entity-RadioBroadcastService-fd882fad-b2fd-5666-b88f-5822a7b5985f-attr-20-name" class="er entityLabel">slogan</text><rect height="21" width="57.0625" y="444" x="0" class="er attributeBoxOdd"/><text style="dominant-baseline: middle; font-size: 10.2px;" transform="translate(5,454.5)" y="0" x="0" id="text-entity-RadioBroadcastService-fd882fad-b2fd-5666-b88f-5822a7b5985f-attr-21-type" class="er entityLabel">stringList</text><rect height="21" width="147.015625" y="444" x="57.0625" class="er attributeBoxOdd"/><text style="dominant-baseline: middle; font-size: 10.2px;" transform="translate(62.0625,454.5)" y="0" x="0" id="text-entity-RadioBroadcastService-fd882fad-b2fd-5666-b88f-5822a7b5985f-attr-21-name" class="er entityLabel">termsOfService</text><rect height="21" width="57.0625" y="465" x="0" class="er attributeBoxEven"/><text style="dominant-baseline: middle; font-size: 10.2px;" transform="translate(5,475.5)" y="0" x="0" id="text-entity-RadioBroadcastService-fd882fad-b2fd-5666-b88f-5822a7b5985f-attr-22-type" class="er entityLabel">stringList</text><rect height="21" width="147.015625" y="465" x="57.0625" class="er attributeBoxEven"/><text style="dominant-baseline: middle; font-size: 10.2px;" transform="translate(62.0625,475.5)" y="0" x="0" id="text-entity-RadioBroadcastService-fd882fad-b2fd-5666-b88f-5822a7b5985f-attr-22-name" class="er entityLabel">additionalType</text><rect height="21" width="57.0625" y="486" x="0" class="er attributeBoxOdd"/><text style="dominant-baseline: middle; font-size: 10.2px;" transform="translate(5,496.5)" y="0" x="0" id="text-entity-RadioBroadcastService-fd882fad-b2fd-5666-b88f-5822a7b5985f-attr-23-type" class="er entityLabel">TextList</text><rect height="21" width="147.015625" y="486" x="57.0625" class="er attributeBoxOdd"/><text style="dominant-baseline: middle; font-size: 10.2px;" transform="translate(62.0625,496.5)" y="0" x="0" id="text-entity-RadioBroadcastService-fd882fad-b2fd-5666-b88f-5822a7b5985f-attr-23-name" class="er entityLabel">alternateName</text><rect height="21" width="57.0625" y="507" x="0" class="er attributeBoxEven"/><text style="dominant-baseline: middle; font-size: 10.2px;" transform="translate(5,517.5)" y="0" x="0" id="text-entity-RadioBroadcastService-fd882fad-b2fd-5666-b88f-5822a7b5985f-attr-24-type" class="er entityLabel">stringList</text><rect height="21" width="147.015625" y="507" x="57.0625" class="er attributeBoxEven"/><text style="dominant-baseline: middle; font-size: 10.2px;" transform="translate(62.0625,517.5)" y="0" x="0" id="text-entity-RadioBroadcastService-fd882fad-b2fd-5666-b88f-5822a7b5985f-attr-24-name" class="er entityLabel">description</text><rect height="21" width="57.0625" y="528" x="0" class="er attributeBoxOdd"/><text style="dominant-baseline: middle; font-size: 10.2px;" transform="translate(5,538.5)" y="0" x="0" id="text-entity-RadioBroadcastService-fd882fad-b2fd-5666-b88f-5822a7b5985f-attr-25-type" class="er entityLabel">TextList</text><rect height="21" width="147.015625" y="528" x="57.0625" class="er attributeBoxOdd"/><text style="dominant-baseline: middle; font-size: 10.2px;" transform="translate(62.0625,538.5)" y="0" x="0" id="text-entity-RadioBroadcastService-fd882fad-b2fd-5666-b88f-5822a7b5985f-attr-25-name" class="er entityLabel">disambiguatingDescription</text><rect height="21" width="57.0625" y="549" x="0" class="er attributeBoxEven"/><text style="dominant-baseline: middle; font-size: 10.2px;" transform="translate(5,559.5)" y="0" x="0" id="text-entity-RadioBroadcastService-fd882fad-b2fd-5666-b88f-5822a7b5985f-attr-26-type" class="er entityLabel">stringList</text><rect height="21" width="147.015625" y="549" x="57.0625" class="er attributeBoxEven"/><text style="dominant-baseline: middle; font-size: 10.2px;" transform="translate(62.0625,559.5)" y="0" x="0" id="text-entity-RadioBroadcastService-fd882fad-b2fd-5666-b88f-5822a7b5985f-attr-26-name" class="er entityLabel">identifier</text><rect height="21" width="57.0625" y="570" x="0" class="er attributeBoxOdd"/><text style="dominant-baseline: middle; font-size: 10.2px;" transform="translate(5,580.5)" y="0" x="0" id="text-entity-RadioBroadcastService-fd882fad-b2fd-5666-b88f-5822a7b5985f-attr-27-type" class="er entityLabel">stringList</text><rect height="21" width="147.015625" y="570" x="57.0625" class="er attributeBoxOdd"/><text style="dominant-baseline: middle; font-size: 10.2px;" transform="translate(62.0625,580.5)" y="0" x="0" id="text-entity-RadioBroadcastService-fd882fad-b2fd-5666-b88f-5822a7b5985f-attr-27-name" class="er entityLabel">image</text><rect height="21" width="57.0625" y="591" x="0" class="er attributeBoxEven"/><text style="dominant-baseline: middle; font-size: 10.2px;" transform="translate(5,601.5)" y="0" x="0" id="text-entity-RadioBroadcastService-fd882fad-b2fd-5666-b88f-5822a7b5985f-attr-28-type" class="er entityLabel">TextList</text><rect height="21" width="147.015625" y="591" x="57.0625" class="er attributeBoxEven"/><text style="dominant-baseline: middle; font-size: 10.2px;" transform="translate(62.0625,601.5)" y="0" x="0" id="text-entity-RadioBroadcastService-fd882fad-b2fd-5666-b88f-5822a7b5985f-attr-28-name" class="er entityLabel">name</text><rect height="21" width="57.0625" y="612" x="0" class="er attributeBoxOdd"/><text style="dominant-baseline: middle; font-size: 10.2px;" transform="translate(5,622.5)" y="0" x="0" id="text-entity-RadioBroadcastService-fd882fad-b2fd-5666-b88f-5822a7b5985f-attr-29-type" class="er entityLabel">URLList</text><rect height="21" width="147.015625" y="612" x="57.0625" class="er attributeBoxOdd"/><text style="dominant-baseline: middle; font-size: 10.2px;" transform="translate(62.0625,622.5)" y="0" x="0" id="text-entity-RadioBroadcastService-fd882fad-b2fd-5666-b88f-5822a7b5985f-attr-29-name" class="er entityLabel">sameAs</text><rect height="21" width="57.0625" y="633" x="0" class="er attributeBoxEven"/><text style="dominant-baseline: middle; font-size: 10.2px;" transform="translate(5,643.5)" y="0" x="0" id="text-entity-RadioBroadcastService-fd882fad-b2fd-5666-b88f-5822a7b5985f-attr-30-type" class="er entityLabel">stringList</text><rect height="21" width="147.015625" y="633" x="57.0625" class="er attributeBoxEven"/><text style="dominant-baseline: middle; font-size: 10.2px;" transform="translate(62.0625,643.5)" y="0" x="0" id="text-entity-RadioBroadcastService-fd882fad-b2fd-5666-b88f-5822a7b5985f-attr-30-name" class="er entityLabel">mainEntityOfPage</text><rect height="21" width="57.0625" y="654" x="0" class="er attributeBoxOdd"/><text style="dominant-baseline: middle; font-size: 10.2px;" transform="translate(5,664.5)" y="0" x="0" id="text-entity-RadioBroadcastService-fd882fad-b2fd-5666-b88f-5822a7b5985f-attr-31-type" class="er entityLabel">stringList</text><rect height="21" width="147.015625" y="654" x="57.0625" class="er attributeBoxOdd"/><text style="dominant-baseline: middle; font-size: 10.2px;" transform="translate(62.0625,664.5)" y="0" x="0" id="text-entity-RadioBroadcastService-fd882fad-b2fd-5666-b88f-5822a7b5985f-attr-31-name" class="er entityLabel">subjectOf</text><rect height="21" width="57.0625" y="675" x="0" class="er attributeBoxEven"/><text style="dominant-baseline: middle; font-size: 10.2px;" transform="translate(5,685.5)" y="0" x="0" id="text-entity-RadioBroadcastService-fd882fad-b2fd-5666-b88f-5822a7b5985f-attr-32-type" class="er entityLabel">URLList</text><rect height="21" width="147.015625" y="675" x="57.0625" class="er attributeBoxEven"/><text style="dominant-baseline: middle; font-size: 10.2px;" transform="translate(62.0625,685.5)" y="0" x="0" id="text-entity-RadioBroadcastService-fd882fad-b2fd-5666-b88f-5822a7b5985f-attr-32-name" class="er entityLabel">url</text></g><g transform="translate(20,816 )" id="entity-Place-18cedc50-4c85-52d4-b2dd-111465382dcf"><rect height="75" width="100" y="0" x="0" class="er entityBox"/><text style="dominant-baseline: middle; text-anchor: middle; font-size: 12px;" transform="translate(50,37.5)" y="0" x="0" id="text-entity-Place-18cedc50-4c85-52d4-b2dd-111465382dcf" class="er entityLabel">Place</text></g><g transform="translate(220,816 )" id="entity-Organization-ef1721ab-1f62-5ef5-a525-a6c60c2f6032"><rect height="75" width="106.71875" y="0" x="0" class="er entityBox"/><text style="dominant-baseline: middle; text-anchor: middle; font-size: 12px;" transform="translate(53.359375,37.5)" y="0" x="0" id="text-entity-Organization-ef1721ab-1f62-5ef5-a525-a6c60c2f6032" class="er entityLabel">Organization</text></g><g transform="translate(426.71875,816 )" id="entity-BroadcastChannel-be917b90-1374-5b68-9ee5-e665c9d35d73"><rect height="75" width="139.390625" y="0" x="0" class="er entityBox"/><text style="dominant-baseline: middle; text-anchor: middle; font-size: 12px;" transform="translate(69.6953125,37.5)" y="0" x="0" id="text-entity-BroadcastChannel-be917b90-1374-5b68-9ee5-e665c9d35d73" class="er entityLabel">BroadcastChannel</text></g><g transform="translate(666.109375,816 )" id="entity-BroadcastService-ce01e69d-1fd7-5b86-b226-ddea4e4569fe"><rect height="75" width="134.484375" y="0" x="0" class="er entityBox"/><text style="dominant-baseline: middle; text-anchor: middle; font-size: 12px;" transform="translate(67.2421875,37.5)" y="0" x="0" id="text-entity-BroadcastService-ce01e69d-1fd7-5b86-b226-ddea4e4569fe" class="er entityLabel">BroadcastService</text></g><g transform="translate(900.59375,816 )" id="entity-AggregateRating-aa0a8837-178a-57ab-baa0-94ad30d90eb5"><rect height="75" width="131.25" y="0" x="0" class="er entityBox"/><text style="dominant-baseline: middle; text-anchor: middle; font-size: 12px;" transform="translate(65.625,37.5)" y="0" x="0" id="text-entity-AggregateRating-aa0a8837-178a-57ab-baa0-94ad30d90eb5" class="er entityLabel">AggregateRating</text></g><g transform="translate(1131.84375,816 )" id="entity-Audience-f784d19a-7c58-5869-868f-14b9086fca44"><rect height="75" width="100" y="0" x="0" class="er entityBox"/><text style="dominant-baseline: middle; text-anchor: middle; font-size: 12px;" transform="translate(50,37.5)" y="0" x="0" id="text-entity-Audience-f784d19a-7c58-5869-868f-14b9086fca44" class="er entityLabel">Audience</text></g><g transform="translate(1331.84375,816 )" id="entity-ServiceChannel-5f9e70a6-8dc6-5d0f-a871-3e775d52af1b"><rect height="75" width="123.625" y="0" x="0" class="er entityBox"/><text style="dominant-baseline: middle; text-anchor: middle; font-size: 12px;" transform="translate(61.8125,37.5)" y="0" x="0" id="text-entity-ServiceChannel-5f9e70a6-8dc6-5d0f-a871-3e775d52af1b" class="er entityLabel">ServiceChannel</text></g><g transform="translate(1555.46875,816 )" id="entity-Certification-8b250de0-929b-5806-8c87-f8e7c928ef36"><rect height="75" width="103.234375" y="0" x="0" class="er entityBox"/><text style="dominant-baseline: middle; text-anchor: middle; font-size: 12px;" transform="translate(51.6171875,37.5)" y="0" x="0" id="text-entity-Certification-8b250de0-929b-5806-8c87-f8e7c928ef36" class="er entityLabel">Certification</text></g><g transform="translate(1758.703125,816 )" id="entity-OfferCatalog-e4b8efcd-db96-5dc8-b042-81a3acf3e3fe"><rect height="75" width="106.125" y="0" x="0" class="er entityBox"/><text style="dominant-baseline: middle; text-anchor: middle; font-size: 12px;" transform="translate(53.0625,37.5)" y="0" x="0" id="text-entity-OfferCatalog-e4b8efcd-db96-5dc8-b042-81a3acf3e3fe" class="er entityLabel">OfferCatalog</text></g><g transform="translate(1964.828125,816 )" id="entity-OpeningHoursSpecification-677aa64f-a506-5d18-b5d1-75a0f22f6986"><rect height="75" width="192.8125" y="0" x="0" class="er entityBox"/><text style="dominant-baseline: middle; text-anchor: middle; font-size: 12px;" transform="translate(96.40625,37.5)" y="0" x="0" id="text-entity-OpeningHoursSpecification-677aa64f-a506-5d18-b5d1-75a0f22f6986" class="er entityLabel">OpeningHoursSpecification</text></g><g transform="translate(2257.640625,816 )" id="entity-Thing-27bc9527-b992-59fc-a0fb-da83e2ff80bf"><rect height="75" width="100" y="0" x="0" class="er entityBox"/><text style="dominant-baseline: middle; text-anchor: middle; font-size: 12px;" transform="translate(50,37.5)" y="0" x="0" id="text-entity-Thing-27bc9527-b992-59fc-a0fb-da83e2ff80bf" class="er entityLabel">Thing</text></g><g transform="translate(2457.640625,816 )" id="entity-Review-77c92a79-8cff-50c0-9604-f9135763cccd"><rect height="75" width="100" y="0" x="0" class="er entityBox"/><text style="dominant-baseline: middle; text-anchor: middle; font-size: 12px;" transform="translate(50,37.5)" y="0" x="0" id="text-entity-Review-77c92a79-8cff-50c0-9604-f9135763cccd" class="er entityLabel">Review</text></g><g transform="translate(2657.640625,816 )" id="entity-Action-6cd87d9a-a078-546e-a35b-bee54f477b31"><rect height="75" width="100" y="0" x="0" class="er entityBox"/><text style="dominant-baseline: middle; text-anchor: middle; font-size: 12px;" transform="translate(50,37.5)" y="0" x="0" id="text-entity-Action-6cd87d9a-a078-546e-a35b-bee54f477b31" class="er entityLabel">Action</text></g><rect height="14" width="26.765625" y="581.0198364257812" x="629.8179321289062" class="er relationshipLabelBox"/><text style="text-anchor: middle; dominant-baseline: middle; font-size: 12px;" y="588.0198364257812" x="643.2007446289062" id="rel1" class="er relationshipLabel">area</text><rect height="14" width="119.873046875" y="581.4483642578125" x="666.008544921875" class="er relationshipLabelBox"/><text style="text-anchor: middle; dominant-baseline: middle; font-size: 12px;" y="588.4483642578125" x="725.945068359375" id="rel2" class="er relationshipLabel">broadcastAffiliateOf</text><rect height="14" width="71.890625" y="591.060791015625" x="726.9533081054688" class="er relationshipLabelBox"/><text style="text-anchor: middle; dominant-baseline: middle; font-size: 12px;" y="598.060791015625" x="762.8986206054688" id="rel3" class="er relationshipLabel">broadcaster</text><rect height="14" width="130.609375" y="591.8692016601562" x="789.4672241210938" class="er relationshipLabelBox"/><text style="text-anchor: middle; dominant-baseline: middle; font-size: 12px;" y="598.8692016601562" x="854.7719116210938" id="rel4" class="er relationshipLabel">hasBroadcastChannel</text><rect height="14" width="83.6875" y="604.312744140625" x="930.7164306640625" class="er relationshipLabelBox"/><text style="text-anchor: middle; dominant-baseline: middle; font-size: 12px;" y="611.312744140625" x="972.5601806640625" id="rel5" class="er relationshipLabel">parentService</text><rect height="14" width="100.390625" y="630.1117553710938" x="1039.7027587890625" class="er relationshipLabelBox"/><text style="text-anchor: middle; dominant-baseline: middle; font-size: 12px;" y="637.1117553710938" x="1089.8980712890625" id="rel6" class="er relationshipLabel">aggregateRating</text><rect height="14" width="54.890625" y="673.6029052734375" x="1146.126708984375" class="er relationshipLabelBox"/><text style="text-anchor: middle; dominant-baseline: middle; font-size: 12px;" y="680.6029052734375" x="1173.572021484375" id="rel7" class="er relationshipLabel">audience</text><rect height="14" width="103.4375" y="758.8692016601562" x="1340.8818359375" class="er relationshipLabelBox"/><text style="text-anchor: middle; dominant-baseline: middle; font-size: 12px;" y="765.8692016601562" x="1392.6005859375" id="rel8" class="er relationshipLabel">availableChannel</text><rect height="14" width="94.453125" y="656.853759765625" x="1491.0650634765625" class="er relationshipLabelBox"/><text style="text-anchor: middle; dominant-baseline: middle; font-size: 12px;" y="663.853759765625" x="1538.2916259765625" id="rel9" class="er relationshipLabel">hasCertification</text><rect height="14" width="97.328125" y="617.3241577148438" x="1594.8017578125" class="er relationshipLabelBox"/><text style="text-anchor: middle; dominant-baseline: middle; font-size: 12px;" y="624.3241577148438" x="1643.4658203125" id="rel10" class="er relationshipLabel">hasOfferCatalog</text><rect height="14" width="88.0625" y="597.701416015625" x="1724.1279296875" class="er relationshipLabelBox"/><text style="text-anchor: middle; dominant-baseline: middle; font-size: 12px;" y="604.701416015625" x="1768.1591796875" id="rel11" class="er relationshipLabel">hoursAvailable</text><rect height="14" width="55.09375" y="596.0394897460938" x="1840.2552490234375" class="er relationshipLabelBox"/><text style="text-anchor: middle; dominant-baseline: middle; font-size: 12px;" y="603.0394897460938" x="1867.8021240234375" id="rel12" class="er relationshipLabel">produces</text><rect height="14" width="39.87109375" y="583.0419311523438" x="1969.7373046875" class="er relationshipLabelBox"/><text style="text-anchor: middle; dominant-baseline: middle; font-size: 12px;" y="590.0419311523438" x="1989.6728515625" id="rel13" class="er relationshipLabel">review</text><rect height="14" width="98.71875" y="761.3069458007812" x="1184.2200927734375" class="er relationshipLabelBox"/><text style="text-anchor: middle; dominant-baseline: middle; font-size: 12px;" y="768.3069458007812" x="1233.5794677734375" id="rel14" class="er relationshipLabel">serviceAudience</text><rect height="14" width="84.962890625" y="584.017578125" x="1865.884521484375" class="er relationshipLabelBox"/><text style="text-anchor: middle; dominant-baseline: middle; font-size: 12px;" y="591.017578125" x="1908.365966796875" id="rel15" class="er relationshipLabel">serviceOutput</text><rect height="14" width="90.96875" y="579.6044921875" x="2043.48486328125" class="er relationshipLabelBox"/><text style="text-anchor: middle; dominant-baseline: middle; font-size: 12px;" y="586.6044921875" x="2088.96923828125" id="rel16" class="er relationshipLabel">potentialAction</text></svg>