<svg aria-roledescription="er" role="graphics-document document" viewBox="0 0 1798.21875 533" style="max-width: 1798.22px; background-color: white;" xmlns:xlink="http://www.w3.org/1999/xlink" xmlns="http://www.w3.org/2000/svg" width="100%" id="my-svg"><style>#my-svg{font-family:"trebuchet ms",verdana,arial,sans-serif;font-size:16px;fill:#333;}#my-svg .error-icon{fill:#552222;}#my-svg .error-text{fill:#552222;stroke:#552222;}#my-svg .edge-thickness-normal{stroke-width:1px;}#my-svg .edge-thickness-thick{stroke-width:3.5px;}#my-svg .edge-pattern-solid{stroke-dasharray:0;}#my-svg .edge-thickness-invisible{stroke-width:0;fill:none;}#my-svg .edge-pattern-dashed{stroke-dasharray:3;}#my-svg .edge-pattern-dotted{stroke-dasharray:2;}#my-svg .marker{fill:#333333;stroke:#333333;}#my-svg .marker.cross{stroke:#333333;}#my-svg svg{font-family:"trebuchet ms",verdana,arial,sans-serif;font-size:16px;}#my-svg p{margin:0;}#my-svg .entityBox{fill:#ECECFF;stroke:#9370DB;}#my-svg .attributeBoxOdd{fill:#ffffff;stroke:#9370DB;}#my-svg .attributeBoxEven{fill:#f2f2f2;stroke:#9370DB;}#my-svg .relationshipLabelBox{fill:hsl(80, 100%, 96.2745098039%);opacity:0.7;background-color:hsl(80, 100%, 96.2745098039%);}#my-svg .relationshipLabelBox rect{opacity:0.5;}#my-svg .relationshipLine{stroke:#333333;}#my-svg .entityTitleText{text-anchor:middle;font-size:18px;fill:#333;}#my-svg #MD_PARENT_START{fill:#f5f5f5!important;stroke:#333333!important;stroke-width:1;}#my-svg #MD_PARENT_END{fill:#f5f5f5!important;stroke:#333333!important;stroke-width:1;}#my-svg :root{--mermaid-font-family:"trebuchet ms",verdana,arial,sans-serif;}</style><g/><defs><marker orient="auto" markerHeight="240" markerWidth="190" refY="7" refX="0" id="MD_PARENT_START"><path d="M 18,7 L9,13 L1,7 L9,1 Z"/></marker></defs><defs><marker orient="auto" markerHeight="28" markerWidth="20" refY="7" refX="19" id="MD_PARENT_END"><path d="M 18,7 L9,13 L1,7 L9,1 Z"/></marker></defs><defs><marker orient="auto" markerHeight="18" markerWidth="18" refY="9" refX="0" id="ONLY_ONE_START"><path d="M9,0 L9,18 M15,0 L15,18" fill="none" stroke="gray"/></marker></defs><defs><marker orient="auto" markerHeight="18" markerWidth="18" refY="9" refX="18" id="ONLY_ONE_END"><path d="M3,0 L3,18 M9,0 L9,18" fill="none" stroke="gray"/></marker></defs><defs><marker orient="auto" markerHeight="18" markerWidth="30" refY="9" refX="0" id="ZERO_OR_ONE_START"><circle r="6" cy="9" cx="21" fill="white" stroke="gray"/><path d="M9,0 L9,18" fill="none" stroke="gray"/></marker></defs><defs><marker orient="auto" markerHeight="18" markerWidth="30" refY="9" refX="30" id="ZERO_OR_ONE_END"><circle r="6" cy="9" cx="9" fill="white" stroke="gray"/><path d="M21,0 L21,18" fill="none" stroke="gray"/></marker></defs><defs><marker orient="auto" markerHeight="36" markerWidth="45" refY="18" refX="18" id="ONE_OR_MORE_START"><path d="M0,18 Q 18,0 36,18 Q 18,36 0,18 M42,9 L42,27" fill="none" stroke="gray"/></marker></defs><defs><marker orient="auto" markerHeight="36" markerWidth="45" refY="18" refX="27" id="ONE_OR_MORE_END"><path d="M3,9 L3,27 M9,18 Q27,0 45,18 Q27,36 9,18" fill="none" stroke="gray"/></marker></defs><defs><marker orient="auto" markerHeight="36" markerWidth="57" refY="18" refX="18" id="ZERO_OR_MORE_START"><circle r="6" cy="18" cx="48" fill="white" stroke="gray"/><path d="M0,18 Q18,0 36,18 Q18,36 0,18" fill="none" stroke="gray"/></marker></defs><defs><marker orient="auto" markerHeight="36" markerWidth="57" refY="18" refX="39" id="ZERO_OR_MORE_END"><circle r="6" cy="18" cx="9" fill="white" stroke="gray"/><path d="M21,18 Q39,0 57,18 Q39,36 21,18" fill="none" stroke="gray"/></marker></defs><path style="stroke: gray; fill: none;" marker-start="url(#ONLY_ONE_START)" marker-end="url(#ZERO_OR_MORE_END)" d="M773.91,200.494L658.661,231.745C543.411,262.996,312.913,325.498,197.663,365.082C82.414,404.667,82.414,421.333,82.414,429.667L82.414,438" class="er relationshipLine"/><path style="stroke: gray; fill: none;" marker-start="url(#ONLY_ONE_START)" marker-end="url(#ZERO_OR_MORE_END)" d="M773.91,205.957L684.695,236.297C595.48,266.638,417.051,327.319,333.189,365.993C249.327,404.667,260.033,421.333,265.386,429.667L270.739,438" class="er relationshipLine"/><path style="stroke: gray; fill: none;" marker-start="url(#ONLY_ONE_START)" marker-end="url(#ZERO_OR_MORE_END)" d="M773.91,211.589L702.396,240.991C630.883,270.393,487.855,329.196,411.58,366.931C335.304,404.667,325.781,421.333,321.019,429.667L316.257,438" class="er relationshipLine"/><path style="stroke: gray; fill: none;" marker-start="url(#ONLY_ONE_START)" marker-end="url(#ZERO_OR_MORE_END)" d="M773.91,219.57L719.063,247.641C664.216,275.713,554.522,331.857,516.342,369.65C478.161,407.444,511.495,426.889,528.161,436.611L544.828,446.333" class="er relationshipLine"/><path style="stroke: gray; fill: none;" marker-start="url(#ONLY_ONE_START)" marker-end="url(#ZERO_OR_MORE_END)" d="M773.91,232.727L735.73,258.606C697.549,284.484,621.189,336.242,587.77,370.454C554.352,404.667,563.876,421.333,568.638,429.667L573.4,438" class="er relationshipLine"/><path style="stroke: gray; fill: none;" marker-start="url(#ONLY_ONE_START)" marker-end="url(#ZERO_OR_MORE_END)" d="M773.91,258.514L752.396,280.095C730.883,301.676,687.855,344.838,661.58,374.752C635.304,404.667,625.781,421.333,621.019,429.667L616.257,438" class="er relationshipLine"/><path style="stroke: gray; fill: none;" marker-start="url(#ONLY_ONE_START)" marker-end="url(#ZERO_OR_MORE_END)" d="M853.176,338L853.176,346.333C853.176,354.667,853.176,371.333,853.176,388C853.176,404.667,853.176,421.333,853.176,429.667L853.176,438" class="er relationshipLine"/><path style="stroke: gray; fill: none;" marker-start="url(#ONLY_ONE_START)" marker-end="url(#ZERO_OR_MORE_END)" d="M932.441,255.451L955.346,277.542C978.251,299.634,1024.061,343.817,1046.966,374.242C1069.871,404.667,1069.871,421.333,1069.871,429.667L1069.871,438" class="er relationshipLine"/><path style="stroke: gray; fill: none;" marker-start="url(#ONLY_ONE_START)" marker-end="url(#ZERO_OR_MORE_END)" d="M773.91,331.901L769.063,341.251C764.216,350.601,754.522,369.3,733.008,388.372C711.495,407.444,678.161,426.889,661.495,436.611L644.828,446.333" class="er relationshipLine"/><path style="stroke: gray; fill: none;" marker-start="url(#ONLY_ONE_START)" marker-end="url(#ZERO_OR_MORE_END)" d="M932.441,229.967L973.404,256.306C1014.367,282.645,1096.293,335.322,1153.923,371.383C1211.552,407.444,1244.885,426.889,1261.552,436.611L1278.219,446.333" class="er relationshipLine"/><path style="stroke: gray; fill: none;" marker-start="url(#ONLY_ONE_START)" marker-end="url(#ZERO_OR_MORE_END)" d="M932.441,217.976L990.071,246.313C1047.701,274.651,1162.96,331.325,1225.351,367.996C1287.743,404.667,1297.266,421.333,1302.028,429.667L1306.79,438" class="er relationshipLine"/><path style="stroke: gray; fill: none;" marker-start="url(#ONLY_ONE_START)" marker-end="url(#ZERO_OR_MORE_END)" d="M932.441,210.553L1006.738,240.127C1081.034,269.702,1229.626,328.851,1299.161,366.759C1368.695,404.667,1359.171,421.333,1354.409,429.667L1349.647,438" class="er relationshipLine"/><path style="stroke: gray; fill: none;" marker-start="url(#ONLY_ONE_START)" marker-end="url(#ZERO_OR_MORE_END)" d="M932.441,205.505L1023.404,235.921C1114.367,266.336,1296.293,327.168,1392.018,365.917C1487.743,404.667,1497.266,421.333,1502.028,429.667L1506.79,438" class="er relationshipLine"/><path style="stroke: gray; fill: none;" marker-start="url(#ONLY_ONE_START)" marker-end="url(#ZERO_OR_MORE_END)" d="M932.441,197.932L1065.071,229.61C1197.701,261.288,1462.96,324.644,1595.589,364.655C1728.219,404.667,1728.219,421.333,1728.219,429.667L1728.219,438" class="er relationshipLine"/><path style="stroke: gray; fill: none;" marker-start="url(#ONLY_ONE_START)" marker-end="url(#ZERO_OR_MORE_END)" d="M932.441,201.849L1040.071,232.874C1147.701,263.899,1362.96,325.95,1465.827,365.308C1568.695,404.667,1559.171,421.333,1554.409,429.667L1549.647,438" class="er relationshipLine"/><g transform="translate(773.91015625,20 )" id="entity-ReceiveAction-f258782d-6195-5cfe-9d78-c641519dafa4"><rect height="318" width="158.53125" y="0" x="0" class="er entityBox"/><text style="dominant-baseline: middle; text-anchor: middle; font-size: 12px;" transform="translate(79.265625,12)" y="0" x="0" id="text-entity-ReceiveAction-f258782d-6195-5cfe-9d78-c641519dafa4" class="er entityLabel">ReceiveAction</text><rect height="21" width="57.0625" y="24" x="0" class="er attributeBoxOdd"/><text style="dominant-baseline: middle; font-size: 10.2px;" transform="translate(5,34.5)" y="0" x="0" id="text-entity-ReceiveAction-f258782d-6195-5cfe-9d78-c641519dafa4-attr-1-type" class="er entityLabel">stringList</text><rect height="21" width="101.46875" y="24" x="57.0625" class="er attributeBoxOdd"/><text style="dominant-baseline: middle; font-size: 10.2px;" transform="translate(62.0625,34.5)" y="0" x="0" id="text-entity-ReceiveAction-f258782d-6195-5cfe-9d78-c641519dafa4-attr-1-name" class="er entityLabel">sender</text><rect height="21" width="57.0625" y="45" x="0" class="er attributeBoxEven"/><text style="dominant-baseline: middle; font-size: 10.2px;" transform="translate(5,55.5)" y="0" x="0" id="text-entity-ReceiveAction-f258782d-6195-5cfe-9d78-c641519dafa4-attr-2-type" class="er entityLabel">stringList</text><rect height="21" width="101.46875" y="45" x="57.0625" class="er attributeBoxEven"/><text style="dominant-baseline: middle; font-size: 10.2px;" transform="translate(62.0625,55.5)" y="0" x="0" id="text-entity-ReceiveAction-f258782d-6195-5cfe-9d78-c641519dafa4-attr-2-name" class="er entityLabel">location</text><rect height="21" width="57.0625" y="66" x="0" class="er attributeBoxOdd"/><text style="dominant-baseline: middle; font-size: 10.2px;" transform="translate(5,76.5)" y="0" x="0" id="text-entity-ReceiveAction-f258782d-6195-5cfe-9d78-c641519dafa4-attr-3-type" class="er entityLabel">stringList</text><rect height="21" width="101.46875" y="66" x="57.0625" class="er attributeBoxOdd"/><text style="dominant-baseline: middle; font-size: 10.2px;" transform="translate(62.0625,76.5)" y="0" x="0" id="text-entity-ReceiveAction-f258782d-6195-5cfe-9d78-c641519dafa4-attr-3-name" class="er entityLabel">participant</text><rect height="21" width="57.0625" y="87" x="0" class="er attributeBoxEven"/><text style="dominant-baseline: middle; font-size: 10.2px;" transform="translate(5,97.5)" y="0" x="0" id="text-entity-ReceiveAction-f258782d-6195-5cfe-9d78-c641519dafa4-attr-4-type" class="er entityLabel">stringList</text><rect height="21" width="101.46875" y="87" x="57.0625" class="er attributeBoxEven"/><text style="dominant-baseline: middle; font-size: 10.2px;" transform="translate(62.0625,97.5)" y="0" x="0" id="text-entity-ReceiveAction-f258782d-6195-5cfe-9d78-c641519dafa4-attr-4-name" class="er entityLabel">agent</text><rect height="21" width="57.0625" y="108" x="0" class="er attributeBoxOdd"/><text style="dominant-baseline: middle; font-size: 10.2px;" transform="translate(5,118.5)" y="0" x="0" id="text-entity-ReceiveAction-f258782d-6195-5cfe-9d78-c641519dafa4-attr-5-type" class="er entityLabel">stringList</text><rect height="21" width="101.46875" y="108" x="57.0625" class="er attributeBoxOdd"/><text style="dominant-baseline: middle; font-size: 10.2px;" transform="translate(62.0625,118.5)" y="0" x="0" id="text-entity-ReceiveAction-f258782d-6195-5cfe-9d78-c641519dafa4-attr-5-name" class="er entityLabel">endTime</text><rect height="21" width="57.0625" y="129" x="0" class="er attributeBoxEven"/><text style="dominant-baseline: middle; font-size: 10.2px;" transform="translate(5,139.5)" y="0" x="0" id="text-entity-ReceiveAction-f258782d-6195-5cfe-9d78-c641519dafa4-attr-6-type" class="er entityLabel">stringList</text><rect height="21" width="101.46875" y="129" x="57.0625" class="er attributeBoxEven"/><text style="dominant-baseline: middle; font-size: 10.2px;" transform="translate(62.0625,139.5)" y="0" x="0" id="text-entity-ReceiveAction-f258782d-6195-5cfe-9d78-c641519dafa4-attr-6-name" class="er entityLabel">provider</text><rect height="21" width="57.0625" y="150" x="0" class="er attributeBoxOdd"/><text style="dominant-baseline: middle; font-size: 10.2px;" transform="translate(5,160.5)" y="0" x="0" id="text-entity-ReceiveAction-f258782d-6195-5cfe-9d78-c641519dafa4-attr-7-type" class="er entityLabel">stringList</text><rect height="21" width="101.46875" y="150" x="57.0625" class="er attributeBoxOdd"/><text style="dominant-baseline: middle; font-size: 10.2px;" transform="translate(62.0625,160.5)" y="0" x="0" id="text-entity-ReceiveAction-f258782d-6195-5cfe-9d78-c641519dafa4-attr-7-name" class="er entityLabel">startTime</text><rect height="21" width="57.0625" y="171" x="0" class="er attributeBoxEven"/><text style="dominant-baseline: middle; font-size: 10.2px;" transform="translate(5,181.5)" y="0" x="0" id="text-entity-ReceiveAction-f258782d-6195-5cfe-9d78-c641519dafa4-attr-8-type" class="er entityLabel">stringList</text><rect height="21" width="101.46875" y="171" x="57.0625" class="er attributeBoxEven"/><text style="dominant-baseline: middle; font-size: 10.2px;" transform="translate(62.0625,181.5)" y="0" x="0" id="text-entity-ReceiveAction-f258782d-6195-5cfe-9d78-c641519dafa4-attr-8-name" class="er entityLabel">target</text><rect height="21" width="57.0625" y="192" x="0" class="er attributeBoxOdd"/><text style="dominant-baseline: middle; font-size: 10.2px;" transform="translate(5,202.5)" y="0" x="0" id="text-entity-ReceiveAction-f258782d-6195-5cfe-9d78-c641519dafa4-attr-9-type" class="er entityLabel">stringList</text><rect height="21" width="101.46875" y="192" x="57.0625" class="er attributeBoxOdd"/><text style="dominant-baseline: middle; font-size: 10.2px;" transform="translate(62.0625,202.5)" y="0" x="0" id="text-entity-ReceiveAction-f258782d-6195-5cfe-9d78-c641519dafa4-attr-9-name" class="er entityLabel">additionalType</text><rect height="21" width="57.0625" y="213" x="0" class="er attributeBoxEven"/><text style="dominant-baseline: middle; font-size: 10.2px;" transform="translate(5,223.5)" y="0" x="0" id="text-entity-ReceiveAction-f258782d-6195-5cfe-9d78-c641519dafa4-attr-10-type" class="er entityLabel">stringList</text><rect height="21" width="101.46875" y="213" x="57.0625" class="er attributeBoxEven"/><text style="dominant-baseline: middle; font-size: 10.2px;" transform="translate(62.0625,223.5)" y="0" x="0" id="text-entity-ReceiveAction-f258782d-6195-5cfe-9d78-c641519dafa4-attr-10-name" class="er entityLabel">description</text><rect height="21" width="57.0625" y="234" x="0" class="er attributeBoxOdd"/><text style="dominant-baseline: middle; font-size: 10.2px;" transform="translate(5,244.5)" y="0" x="0" id="text-entity-ReceiveAction-f258782d-6195-5cfe-9d78-c641519dafa4-attr-11-type" class="er entityLabel">stringList</text><rect height="21" width="101.46875" y="234" x="57.0625" class="er attributeBoxOdd"/><text style="dominant-baseline: middle; font-size: 10.2px;" transform="translate(62.0625,244.5)" y="0" x="0" id="text-entity-ReceiveAction-f258782d-6195-5cfe-9d78-c641519dafa4-attr-11-name" class="er entityLabel">identifier</text><rect height="21" width="57.0625" y="255" x="0" class="er attributeBoxEven"/><text style="dominant-baseline: middle; font-size: 10.2px;" transform="translate(5,265.5)" y="0" x="0" id="text-entity-ReceiveAction-f258782d-6195-5cfe-9d78-c641519dafa4-attr-12-type" class="er entityLabel">stringList</text><rect height="21" width="101.46875" y="255" x="57.0625" class="er attributeBoxEven"/><text style="dominant-baseline: middle; font-size: 10.2px;" transform="translate(62.0625,265.5)" y="0" x="0" id="text-entity-ReceiveAction-f258782d-6195-5cfe-9d78-c641519dafa4-attr-12-name" class="er entityLabel">image</text><rect height="21" width="57.0625" y="276" x="0" class="er attributeBoxOdd"/><text style="dominant-baseline: middle; font-size: 10.2px;" transform="translate(5,286.5)" y="0" x="0" id="text-entity-ReceiveAction-f258782d-6195-5cfe-9d78-c641519dafa4-attr-13-type" class="er entityLabel">stringList</text><rect height="21" width="101.46875" y="276" x="57.0625" class="er attributeBoxOdd"/><text style="dominant-baseline: middle; font-size: 10.2px;" transform="translate(62.0625,286.5)" y="0" x="0" id="text-entity-ReceiveAction-f258782d-6195-5cfe-9d78-c641519dafa4-attr-13-name" class="er entityLabel">mainEntityOfPage</text><rect height="21" width="57.0625" y="297" x="0" class="er attributeBoxEven"/><text style="dominant-baseline: middle; font-size: 10.2px;" transform="translate(5,307.5)" y="0" x="0" id="text-entity-ReceiveAction-f258782d-6195-5cfe-9d78-c641519dafa4-attr-14-type" class="er entityLabel">stringList</text><rect height="21" width="101.46875" y="297" x="57.0625" class="er attributeBoxEven"/><text style="dominant-baseline: middle; font-size: 10.2px;" transform="translate(62.0625,307.5)" y="0" x="0" id="text-entity-ReceiveAction-f258782d-6195-5cfe-9d78-c641519dafa4-attr-14-name" class="er entityLabel">subjectOf</text></g><g transform="translate(20,438 )" id="entity-DeliveryMethod-e577a7f1-5177-5a6a-88c8-ea80527e051e"><rect height="75" width="124.828125" y="0" x="0" class="er entityBox"/><text style="dominant-baseline: middle; text-anchor: middle; font-size: 12px;" transform="translate(62.4140625,37.5)" y="0" x="0" id="text-entity-DeliveryMethod-e577a7f1-5177-5a6a-88c8-ea80527e051e" class="er entityLabel">DeliveryMethod</text></g><g transform="translate(244.828125,438 )" id="entity-Place-18cedc50-4c85-52d4-b2dd-111465382dcf"><rect height="75" width="100" y="0" x="0" class="er entityBox"/><text style="dominant-baseline: middle; text-anchor: middle; font-size: 12px;" transform="translate(50,37.5)" y="0" x="0" id="text-entity-Place-18cedc50-4c85-52d4-b2dd-111465382dcf" class="er entityLabel">Place</text></g><g transform="translate(544.828125,438 )" id="entity-Thing-27bc9527-b992-59fc-a0fb-da83e2ff80bf"><rect height="75" width="100" y="0" x="0" class="er entityBox"/><text style="dominant-baseline: middle; text-anchor: middle; font-size: 12px;" transform="translate(50,37.5)" y="0" x="0" id="text-entity-Thing-27bc9527-b992-59fc-a0fb-da83e2ff80bf" class="er entityLabel">Thing</text></g><g transform="translate(803.17578125,438 )" id="entity-HowTo-6f9e6b0e-89c2-59a9-964a-8696b3aa66a4"><rect height="75" width="100" y="0" x="0" class="er entityBox"/><text style="dominant-baseline: middle; text-anchor: middle; font-size: 12px;" transform="translate(50,37.5)" y="0" x="0" id="text-entity-HowTo-6f9e6b0e-89c2-59a9-964a-8696b3aa66a4" class="er entityLabel">HowTo</text></g><g transform="translate(1003.17578125,438 )" id="entity-ActionStatusType-935590f3-1b2a-599d-8a3e-9af222825f06"><rect height="75" width="133.390625" y="0" x="0" class="er entityBox"/><text style="dominant-baseline: middle; text-anchor: middle; font-size: 12px;" transform="translate(66.6953125,37.5)" y="0" x="0" id="text-entity-ActionStatusType-935590f3-1b2a-599d-8a3e-9af222825f06" class="er entityLabel">ActionStatusType</text></g><g transform="translate(1278.21875,438 )" id="entity-Text-426c5d39-acfc-5487-a6d9-ede67887190e"><rect height="75" width="100" y="0" x="0" class="er entityBox"/><text style="dominant-baseline: middle; text-anchor: middle; font-size: 12px;" transform="translate(50,37.5)" y="0" x="0" id="text-entity-Text-426c5d39-acfc-5487-a6d9-ede67887190e" class="er entityLabel">Text</text></g><g transform="translate(1478.21875,438 )" id="entity-URL-07f78d3e-fd74-5925-b39b-26c1cc2d6b7c"><rect height="75" width="100" y="0" x="0" class="er entityBox"/><text style="dominant-baseline: middle; text-anchor: middle; font-size: 12px;" transform="translate(50,37.5)" y="0" x="0" id="text-entity-URL-07f78d3e-fd74-5925-b39b-26c1cc2d6b7c" class="er entityLabel">URL</text></g><g transform="translate(1678.21875,438 )" id="entity-Action-6cd87d9a-a078-546e-a35b-bee54f477b31"><rect height="75" width="100" y="0" x="0" class="er entityBox"/><text style="dominant-baseline: middle; text-anchor: middle; font-size: 12px;" transform="translate(50,37.5)" y="0" x="0" id="text-entity-Action-6cd87d9a-a078-546e-a35b-bee54f477b31" class="er entityLabel">Action</text></g><rect height="14" width="93.203125" y="292.0103759765625" x="368.4508361816406" class="er relationshipLabelBox"/><text style="text-anchor: middle; dominant-baseline: middle; font-size: 12px;" y="299.0103759765625" x="415.0523986816406" id="rel1" class="er relationshipLabel">deliveryMethod</text><rect height="14" width="78.6875" y="293.8953552246094" x="459.6072692871094" class="er relationshipLabelBox"/><text style="text-anchor: middle; dominant-baseline: middle; font-size: 12px;" y="300.8953552246094" x="498.9510192871094" id="rel2" class="er relationshipLabel">fromLocation</text><rect height="14" width="62.8125" y="303.57464599609375" x="504.61822509765625" class="er relationshipLabelBox"/><text style="text-anchor: middle; dominant-baseline: middle; font-size: 12px;" y="310.57464599609375" x="536.0244750976562" id="rel3" class="er relationshipLabel">toLocation</text><rect height="14" width="66.11328125" y="307.12786865234375" x="562.6371459960938" class="er relationshipLabelBox"/><text style="text-anchor: middle; dominant-baseline: middle; font-size: 12px;" y="314.12786865234375" x="595.6937866210938" id="rel4" class="er relationshipLabel">instrument</text><rect height="14" width="37.2734375" y="313.93963623046875" x="628.4095458984375" class="er relationshipLabelBox"/><text style="text-anchor: middle; dominant-baseline: middle; font-size: 12px;" y="320.93963623046875" x="647.0462646484375" id="rel5" class="er relationshipLabel">object</text><rect height="14" width="34.244140625" y="336.9527893066406" x="672.7709350585938" class="er relationshipLabelBox"/><text style="text-anchor: middle; dominant-baseline: middle; font-size: 12px;" y="343.9527893066406" x="689.8930053710938" id="rel6" class="er relationshipLabel">result</text><rect height="14" width="82.46875" y="381" x="811.941650390625" class="er relationshipLabelBox"/><text style="text-anchor: middle; dominant-baseline: middle; font-size: 12px;" y="388" x="853.176025390625" id="rel7" class="er relationshipLabel">actionProcess</text><rect height="14" width="75.1875" y="331.011474609375" x="978.1519775390625" class="er relationshipLabelBox"/><text style="text-anchor: middle; dominant-baseline: middle; font-size: 12px;" y="338.011474609375" x="1015.7457275390625" id="rel8" class="er relationshipLabel">actionStatus</text><rect height="14" width="29.1171875" y="392.529052734375" x="704.6826171875" class="er relationshipLabelBox"/><text style="text-anchor: middle; dominant-baseline: middle; font-size: 12px;" y="399.529052734375" x="719.2412109375" id="rel9" class="er relationshipLabel">error</text><rect height="14" width="89.953125" y="332.9988098144531" x="1059.2061767578125" class="er relationshipLabelBox"/><text style="text-anchor: middle; dominant-baseline: middle; font-size: 12px;" y="339.9988098144531" x="1104.1827392578125" id="rel10" class="er relationshipLabel">alternateName</text><rect height="14" width="161.390625" y="308.60650634765625" x="1047.8404541015625" class="er relationshipLabelBox"/><text style="text-anchor: middle; dominant-baseline: middle; font-size: 12px;" y="315.60650634765625" x="1128.5357666015625" id="rel11" class="er relationshipLabel">disambiguatingDescription</text><rect height="14" width="34.03125" y="297.4247131347656" x="1147.4329833984375" class="er relationshipLabelBox"/><text style="text-anchor: middle; dominant-baseline: middle; font-size: 12px;" y="304.4247131347656" x="1164.4486083984375" id="rel12" class="er relationshipLabel">name</text><rect height="14" width="47.140625" y="298.66949462890625" x="1204.9793701171875" class="er relationshipLabelBox"/><text style="text-anchor: middle; dominant-baseline: middle; font-size: 12px;" y="305.66949462890625" x="1228.5496826171875" id="rel13" class="er relationshipLabel">sameAs</text><rect height="14" width="90.96875" y="290.1413269042969" x="1297.38134765625" class="er relationshipLabelBox"/><text style="text-anchor: middle; dominant-baseline: middle; font-size: 12px;" y="297.1413269042969" x="1342.86572265625" id="rel14" class="er relationshipLabel">potentialAction</text><rect height="14" width="15.875" y="291.142578125" x="1253.947998046875" class="er relationshipLabelBox"/><text style="text-anchor: middle; dominant-baseline: middle; font-size: 12px;" y="298.142578125" x="1261.885498046875" id="rel15" class="er relationshipLabel">url</text></svg>