<svg aria-roledescription="er" role="graphics-document document" viewBox="0 0 1821.21875 554" style="max-width: 1821.22px; background-color: white;" xmlns:xlink="http://www.w3.org/1999/xlink" xmlns="http://www.w3.org/2000/svg" width="100%" id="my-svg"><style>#my-svg{font-family:"trebuchet ms",verdana,arial,sans-serif;font-size:16px;fill:#333;}#my-svg .error-icon{fill:#552222;}#my-svg .error-text{fill:#552222;stroke:#552222;}#my-svg .edge-thickness-normal{stroke-width:1px;}#my-svg .edge-thickness-thick{stroke-width:3.5px;}#my-svg .edge-pattern-solid{stroke-dasharray:0;}#my-svg .edge-thickness-invisible{stroke-width:0;fill:none;}#my-svg .edge-pattern-dashed{stroke-dasharray:3;}#my-svg .edge-pattern-dotted{stroke-dasharray:2;}#my-svg .marker{fill:#333333;stroke:#333333;}#my-svg .marker.cross{stroke:#333333;}#my-svg svg{font-family:"trebuchet ms",verdana,arial,sans-serif;font-size:16px;}#my-svg p{margin:0;}#my-svg .entityBox{fill:#ECECFF;stroke:#9370DB;}#my-svg .attributeBoxOdd{fill:#ffffff;stroke:#9370DB;}#my-svg .attributeBoxEven{fill:#f2f2f2;stroke:#9370DB;}#my-svg .relationshipLabelBox{fill:hsl(80, 100%, 96.2745098039%);opacity:0.7;background-color:hsl(80, 100%, 96.2745098039%);}#my-svg .relationshipLabelBox rect{opacity:0.5;}#my-svg .relationshipLine{stroke:#333333;}#my-svg .entityTitleText{text-anchor:middle;font-size:18px;fill:#333;}#my-svg #MD_PARENT_START{fill:#f5f5f5!important;stroke:#333333!important;stroke-width:1;}#my-svg #MD_PARENT_END{fill:#f5f5f5!important;stroke:#333333!important;stroke-width:1;}#my-svg :root{--mermaid-font-family:"trebuchet ms",verdana,arial,sans-serif;}</style><g/><defs><marker orient="auto" markerHeight="240" markerWidth="190" refY="7" refX="0" id="MD_PARENT_START"><path d="M 18,7 L9,13 L1,7 L9,1 Z"/></marker></defs><defs><marker orient="auto" markerHeight="28" markerWidth="20" refY="7" refX="19" id="MD_PARENT_END"><path d="M 18,7 L9,13 L1,7 L9,1 Z"/></marker></defs><defs><marker orient="auto" markerHeight="18" markerWidth="18" refY="9" refX="0" id="ONLY_ONE_START"><path d="M9,0 L9,18 M15,0 L15,18" fill="none" stroke="gray"/></marker></defs><defs><marker orient="auto" markerHeight="18" markerWidth="18" refY="9" refX="18" id="ONLY_ONE_END"><path d="M3,0 L3,18 M9,0 L9,18" fill="none" stroke="gray"/></marker></defs><defs><marker orient="auto" markerHeight="18" markerWidth="30" refY="9" refX="0" id="ZERO_OR_ONE_START"><circle r="6" cy="9" cx="21" fill="white" stroke="gray"/><path d="M9,0 L9,18" fill="none" stroke="gray"/></marker></defs><defs><marker orient="auto" markerHeight="18" markerWidth="30" refY="9" refX="30" id="ZERO_OR_ONE_END"><circle r="6" cy="9" cx="9" fill="white" stroke="gray"/><path d="M21,0 L21,18" fill="none" stroke="gray"/></marker></defs><defs><marker orient="auto" markerHeight="36" markerWidth="45" refY="18" refX="18" id="ONE_OR_MORE_START"><path d="M0,18 Q 18,0 36,18 Q 18,36 0,18 M42,9 L42,27" fill="none" stroke="gray"/></marker></defs><defs><marker orient="auto" markerHeight="36" markerWidth="45" refY="18" refX="27" id="ONE_OR_MORE_END"><path d="M3,9 L3,27 M9,18 Q27,0 45,18 Q27,36 9,18" fill="none" stroke="gray"/></marker></defs><defs><marker orient="auto" markerHeight="36" markerWidth="57" refY="18" refX="18" id="ZERO_OR_MORE_START"><circle r="6" cy="18" cx="48" fill="white" stroke="gray"/><path d="M0,18 Q18,0 36,18 Q18,36 0,18" fill="none" stroke="gray"/></marker></defs><defs><marker orient="auto" markerHeight="36" markerWidth="57" refY="18" refX="39" id="ZERO_OR_MORE_END"><circle r="6" cy="18" cx="9" fill="white" stroke="gray"/><path d="M21,18 Q39,0 57,18 Q39,36 21,18" fill="none" stroke="gray"/></marker></defs><path style="stroke: gray; fill: none;" marker-start="url(#ONLY_ONE_START)" marker-end="url(#ZERO_OR_MORE_END)" d="M788.563,211.721L671.274,244.601C553.986,277.481,319.409,343.24,202.12,384.453C84.832,425.667,84.832,442.333,84.832,450.667L84.832,459" class="er relationshipLine"/><path style="stroke: gray; fill: none;" marker-start="url(#ONLY_ONE_START)" marker-end="url(#ZERO_OR_MORE_END)" d="M788.563,215.54L690.413,247.783C592.263,280.026,395.964,344.513,307.338,385.09C218.712,425.667,237.759,442.333,247.283,450.667L256.807,459" class="er relationshipLine"/><path style="stroke: gray; fill: none;" marker-start="url(#ONLY_ONE_START)" marker-end="url(#ZERO_OR_MORE_END)" d="M788.563,256.656L758.593,282.046C728.624,307.437,668.685,358.219,638.715,391.943C608.746,425.667,608.746,442.333,608.746,450.667L608.746,459" class="er relationshipLine"/><path style="stroke: gray; fill: none;" marker-start="url(#ONLY_ONE_START)" marker-end="url(#ZERO_OR_MORE_END)" d="M788.563,305.492L776.773,322.743C764.984,339.995,741.406,374.497,754.617,402.686C767.828,430.875,817.828,452.75,842.828,463.688L867.828,474.625" class="er relationshipLine"/><path style="stroke: gray; fill: none;" marker-start="url(#ONLY_ONE_START)" marker-end="url(#ZERO_OR_MORE_END)" d="M829.218,359L827.319,367.333C825.421,375.667,821.625,392.333,829.25,409C836.876,425.667,855.923,442.333,865.447,450.667L874.971,459" class="er relationshipLine"/><path style="stroke: gray; fill: none;" marker-start="url(#ONLY_ONE_START)" marker-end="url(#ZERO_OR_MORE_END)" d="M906.439,359L908.337,367.333C910.235,375.667,914.032,392.333,915.93,409C917.828,425.667,917.828,442.333,917.828,450.667L917.828,459" class="er relationshipLine"/><path style="stroke: gray; fill: none;" marker-start="url(#ONLY_ONE_START)" marker-end="url(#ZERO_OR_MORE_END)" d="M947.094,259.095L975.549,284.079C1004.005,309.063,1060.917,359.032,1089.372,392.349C1117.828,425.667,1117.828,442.333,1117.828,450.667L1117.828,459" class="er relationshipLine"/><path style="stroke: gray; fill: none;" marker-start="url(#ONLY_ONE_START)" marker-end="url(#ZERO_OR_MORE_END)" d="M947.094,226.781L1011.665,257.151C1076.237,287.521,1205.38,348.26,1269.952,386.963C1334.523,425.667,1334.523,442.333,1334.523,450.667L1334.523,459" class="er relationshipLine"/><path style="stroke: gray; fill: none;" marker-start="url(#ONLY_ONE_START)" marker-end="url(#ZERO_OR_MORE_END)" d="M947.094,305.492L958.883,322.743C970.672,339.995,994.25,374.497,996.515,400.082C998.781,425.667,979.733,442.333,970.209,450.667L960.685,459" class="er relationshipLine"/><path style="stroke: gray; fill: none;" marker-start="url(#ONLY_ONE_START)" marker-end="url(#ZERO_OR_MORE_END)" d="M788.563,220.123L707.079,251.602C625.596,283.082,462.63,346.041,381.147,385.854C299.664,425.667,299.664,442.333,299.664,450.667L299.664,459" class="er relationshipLine"/><path style="stroke: gray; fill: none;" marker-start="url(#ONLY_ONE_START)" marker-end="url(#ZERO_OR_MORE_END)" d="M788.563,226.664L723.746,257.053C658.93,287.443,529.297,348.221,454.957,386.944C380.616,425.667,361.569,442.333,352.045,450.667L342.521,459" class="er relationshipLine"/><path style="stroke: gray; fill: none;" marker-start="url(#ONLY_ONE_START)" marker-end="url(#ZERO_OR_MORE_END)" d="M788.563,236.758L740.413,265.465C692.263,294.172,595.964,351.586,522.814,391.231C449.664,430.875,399.664,452.75,374.664,463.688L349.664,474.625" class="er relationshipLine"/><path style="stroke: gray; fill: none;" marker-start="url(#ONLY_ONE_START)" marker-end="url(#ZERO_OR_MORE_END)" d="M947.094,217.336L1038.057,249.28C1129.02,281.224,1310.945,345.112,1407.465,385.389C1503.985,425.667,1515.099,442.333,1520.656,450.667L1526.213,459" class="er relationshipLine"/><path style="stroke: gray; fill: none;" marker-start="url(#ONLY_ONE_START)" marker-end="url(#ZERO_OR_MORE_END)" d="M947.094,209.195L1081.115,242.496C1215.135,275.797,1483.177,342.398,1617.198,384.033C1751.219,425.667,1751.219,442.333,1751.219,450.667L1751.219,459" class="er relationshipLine"/><path style="stroke: gray; fill: none;" marker-start="url(#ONLY_ONE_START)" marker-end="url(#ZERO_OR_MORE_END)" d="M947.094,213.224L1056.115,245.853C1165.135,278.483,1383.177,343.741,1487.436,384.704C1591.695,425.667,1582.171,442.333,1577.409,450.667L1572.647,459" class="er relationshipLine"/><g transform="translate(788.5625,20 )" id="entity-RentAction-8fb6757f-b735-586a-88a7-2190573bda76"><rect height="339" width="158.53125" y="0" x="0" class="er entityBox"/><text style="dominant-baseline: middle; text-anchor: middle; font-size: 12px;" transform="translate(79.265625,12)" y="0" x="0" id="text-entity-RentAction-8fb6757f-b735-586a-88a7-2190573bda76" class="er entityLabel">RentAction</text><rect height="21" width="57.0625" y="24" x="0" class="er attributeBoxOdd"/><text style="dominant-baseline: middle; font-size: 10.2px;" transform="translate(5,34.5)" y="0" x="0" id="text-entity-RentAction-8fb6757f-b735-586a-88a7-2190573bda76-attr-1-type" class="er entityLabel">stringList</text><rect height="21" width="101.46875" y="24" x="57.0625" class="er attributeBoxOdd"/><text style="dominant-baseline: middle; font-size: 10.2px;" transform="translate(62.0625,34.5)" y="0" x="0" id="text-entity-RentAction-8fb6757f-b735-586a-88a7-2190573bda76-attr-1-name" class="er entityLabel">landlord</text><rect height="21" width="57.0625" y="45" x="0" class="er attributeBoxEven"/><text style="dominant-baseline: middle; font-size: 10.2px;" transform="translate(5,55.5)" y="0" x="0" id="text-entity-RentAction-8fb6757f-b735-586a-88a7-2190573bda76-attr-2-type" class="er entityLabel">stringList</text><rect height="21" width="101.46875" y="45" x="57.0625" class="er attributeBoxEven"/><text style="dominant-baseline: middle; font-size: 10.2px;" transform="translate(62.0625,55.5)" y="0" x="0" id="text-entity-RentAction-8fb6757f-b735-586a-88a7-2190573bda76-attr-2-name" class="er entityLabel">price</text><rect height="21" width="57.0625" y="66" x="0" class="er attributeBoxOdd"/><text style="dominant-baseline: middle; font-size: 10.2px;" transform="translate(5,76.5)" y="0" x="0" id="text-entity-RentAction-8fb6757f-b735-586a-88a7-2190573bda76-attr-3-type" class="er entityLabel">stringList</text><rect height="21" width="101.46875" y="66" x="57.0625" class="er attributeBoxOdd"/><text style="dominant-baseline: middle; font-size: 10.2px;" transform="translate(62.0625,76.5)" y="0" x="0" id="text-entity-RentAction-8fb6757f-b735-586a-88a7-2190573bda76-attr-3-name" class="er entityLabel">location</text><rect height="21" width="57.0625" y="87" x="0" class="er attributeBoxEven"/><text style="dominant-baseline: middle; font-size: 10.2px;" transform="translate(5,97.5)" y="0" x="0" id="text-entity-RentAction-8fb6757f-b735-586a-88a7-2190573bda76-attr-4-type" class="er entityLabel">stringList</text><rect height="21" width="101.46875" y="87" x="57.0625" class="er attributeBoxEven"/><text style="dominant-baseline: middle; font-size: 10.2px;" transform="translate(62.0625,97.5)" y="0" x="0" id="text-entity-RentAction-8fb6757f-b735-586a-88a7-2190573bda76-attr-4-name" class="er entityLabel">participant</text><rect height="21" width="57.0625" y="108" x="0" class="er attributeBoxOdd"/><text style="dominant-baseline: middle; font-size: 10.2px;" transform="translate(5,118.5)" y="0" x="0" id="text-entity-RentAction-8fb6757f-b735-586a-88a7-2190573bda76-attr-5-type" class="er entityLabel">stringList</text><rect height="21" width="101.46875" y="108" x="57.0625" class="er attributeBoxOdd"/><text style="dominant-baseline: middle; font-size: 10.2px;" transform="translate(62.0625,118.5)" y="0" x="0" id="text-entity-RentAction-8fb6757f-b735-586a-88a7-2190573bda76-attr-5-name" class="er entityLabel">agent</text><rect height="21" width="57.0625" y="129" x="0" class="er attributeBoxEven"/><text style="dominant-baseline: middle; font-size: 10.2px;" transform="translate(5,139.5)" y="0" x="0" id="text-entity-RentAction-8fb6757f-b735-586a-88a7-2190573bda76-attr-6-type" class="er entityLabel">stringList</text><rect height="21" width="101.46875" y="129" x="57.0625" class="er attributeBoxEven"/><text style="dominant-baseline: middle; font-size: 10.2px;" transform="translate(62.0625,139.5)" y="0" x="0" id="text-entity-RentAction-8fb6757f-b735-586a-88a7-2190573bda76-attr-6-name" class="er entityLabel">endTime</text><rect height="21" width="57.0625" y="150" x="0" class="er attributeBoxOdd"/><text style="dominant-baseline: middle; font-size: 10.2px;" transform="translate(5,160.5)" y="0" x="0" id="text-entity-RentAction-8fb6757f-b735-586a-88a7-2190573bda76-attr-7-type" class="er entityLabel">stringList</text><rect height="21" width="101.46875" y="150" x="57.0625" class="er attributeBoxOdd"/><text style="dominant-baseline: middle; font-size: 10.2px;" transform="translate(62.0625,160.5)" y="0" x="0" id="text-entity-RentAction-8fb6757f-b735-586a-88a7-2190573bda76-attr-7-name" class="er entityLabel">provider</text><rect height="21" width="57.0625" y="171" x="0" class="er attributeBoxEven"/><text style="dominant-baseline: middle; font-size: 10.2px;" transform="translate(5,181.5)" y="0" x="0" id="text-entity-RentAction-8fb6757f-b735-586a-88a7-2190573bda76-attr-8-type" class="er entityLabel">stringList</text><rect height="21" width="101.46875" y="171" x="57.0625" class="er attributeBoxEven"/><text style="dominant-baseline: middle; font-size: 10.2px;" transform="translate(62.0625,181.5)" y="0" x="0" id="text-entity-RentAction-8fb6757f-b735-586a-88a7-2190573bda76-attr-8-name" class="er entityLabel">startTime</text><rect height="21" width="57.0625" y="192" x="0" class="er attributeBoxOdd"/><text style="dominant-baseline: middle; font-size: 10.2px;" transform="translate(5,202.5)" y="0" x="0" id="text-entity-RentAction-8fb6757f-b735-586a-88a7-2190573bda76-attr-9-type" class="er entityLabel">stringList</text><rect height="21" width="101.46875" y="192" x="57.0625" class="er attributeBoxOdd"/><text style="dominant-baseline: middle; font-size: 10.2px;" transform="translate(62.0625,202.5)" y="0" x="0" id="text-entity-RentAction-8fb6757f-b735-586a-88a7-2190573bda76-attr-9-name" class="er entityLabel">target</text><rect height="21" width="57.0625" y="213" x="0" class="er attributeBoxEven"/><text style="dominant-baseline: middle; font-size: 10.2px;" transform="translate(5,223.5)" y="0" x="0" id="text-entity-RentAction-8fb6757f-b735-586a-88a7-2190573bda76-attr-10-type" class="er entityLabel">stringList</text><rect height="21" width="101.46875" y="213" x="57.0625" class="er attributeBoxEven"/><text style="dominant-baseline: middle; font-size: 10.2px;" transform="translate(62.0625,223.5)" y="0" x="0" id="text-entity-RentAction-8fb6757f-b735-586a-88a7-2190573bda76-attr-10-name" class="er entityLabel">additionalType</text><rect height="21" width="57.0625" y="234" x="0" class="er attributeBoxOdd"/><text style="dominant-baseline: middle; font-size: 10.2px;" transform="translate(5,244.5)" y="0" x="0" id="text-entity-RentAction-8fb6757f-b735-586a-88a7-2190573bda76-attr-11-type" class="er entityLabel">stringList</text><rect height="21" width="101.46875" y="234" x="57.0625" class="er attributeBoxOdd"/><text style="dominant-baseline: middle; font-size: 10.2px;" transform="translate(62.0625,244.5)" y="0" x="0" id="text-entity-RentAction-8fb6757f-b735-586a-88a7-2190573bda76-attr-11-name" class="er entityLabel">description</text><rect height="21" width="57.0625" y="255" x="0" class="er attributeBoxEven"/><text style="dominant-baseline: middle; font-size: 10.2px;" transform="translate(5,265.5)" y="0" x="0" id="text-entity-RentAction-8fb6757f-b735-586a-88a7-2190573bda76-attr-12-type" class="er entityLabel">stringList</text><rect height="21" width="101.46875" y="255" x="57.0625" class="er attributeBoxEven"/><text style="dominant-baseline: middle; font-size: 10.2px;" transform="translate(62.0625,265.5)" y="0" x="0" id="text-entity-RentAction-8fb6757f-b735-586a-88a7-2190573bda76-attr-12-name" class="er entityLabel">identifier</text><rect height="21" width="57.0625" y="276" x="0" class="er attributeBoxOdd"/><text style="dominant-baseline: middle; font-size: 10.2px;" transform="translate(5,286.5)" y="0" x="0" id="text-entity-RentAction-8fb6757f-b735-586a-88a7-2190573bda76-attr-13-type" class="er entityLabel">stringList</text><rect height="21" width="101.46875" y="276" x="57.0625" class="er attributeBoxOdd"/><text style="dominant-baseline: middle; font-size: 10.2px;" transform="translate(62.0625,286.5)" y="0" x="0" id="text-entity-RentAction-8fb6757f-b735-586a-88a7-2190573bda76-attr-13-name" class="er entityLabel">image</text><rect height="21" width="57.0625" y="297" x="0" class="er attributeBoxEven"/><text style="dominant-baseline: middle; font-size: 10.2px;" transform="translate(5,307.5)" y="0" x="0" id="text-entity-RentAction-8fb6757f-b735-586a-88a7-2190573bda76-attr-14-type" class="er entityLabel">stringList</text><rect height="21" width="101.46875" y="297" x="57.0625" class="er attributeBoxEven"/><text style="dominant-baseline: middle; font-size: 10.2px;" transform="translate(62.0625,307.5)" y="0" x="0" id="text-entity-RentAction-8fb6757f-b735-586a-88a7-2190573bda76-attr-14-name" class="er entityLabel">mainEntityOfPage</text><rect height="21" width="57.0625" y="318" x="0" class="er attributeBoxOdd"/><text style="dominant-baseline: middle; font-size: 10.2px;" transform="translate(5,328.5)" y="0" x="0" id="text-entity-RentAction-8fb6757f-b735-586a-88a7-2190573bda76-attr-15-type" class="er entityLabel">stringList</text><rect height="21" width="101.46875" y="318" x="57.0625" class="er attributeBoxOdd"/><text style="dominant-baseline: middle; font-size: 10.2px;" transform="translate(62.0625,328.5)" y="0" x="0" id="text-entity-RentAction-8fb6757f-b735-586a-88a7-2190573bda76-attr-15-name" class="er entityLabel">subjectOf</text></g><g transform="translate(20,459 )" id="entity-RealEstateAgent-3ae30b8e-fa73-5650-879e-108e724bbc03"><rect height="75" width="129.6640625" y="0" x="0" class="er entityBox"/><text style="dominant-baseline: middle; text-anchor: middle; font-size: 12px;" transform="translate(64.83203125,37.5)" y="0" x="0" id="text-entity-RealEstateAgent-3ae30b8e-fa73-5650-879e-108e724bbc03" class="er entityLabel">RealEstateAgent</text></g><g transform="translate(249.6640625,459 )" id="entity-Text-426c5d39-acfc-5487-a6d9-ede67887190e"><rect height="75" width="100" y="0" x="0" class="er entityBox"/><text style="dominant-baseline: middle; text-anchor: middle; font-size: 12px;" transform="translate(50,37.5)" y="0" x="0" id="text-entity-Text-426c5d39-acfc-5487-a6d9-ede67887190e" class="er entityLabel">Text</text></g><g transform="translate(540.58203125,459 )" id="entity-PriceSpecification-06171b48-9437-5ab1-a607-7f40e6a6fc9e"><rect height="75" width="136.328125" y="0" x="0" class="er entityBox"/><text style="dominant-baseline: middle; text-anchor: middle; font-size: 12px;" transform="translate(68.1640625,37.5)" y="0" x="0" id="text-entity-PriceSpecification-06171b48-9437-5ab1-a607-7f40e6a6fc9e" class="er entityLabel">PriceSpecification</text></g><g transform="translate(867.828125,459 )" id="entity-Thing-27bc9527-b992-59fc-a0fb-da83e2ff80bf"><rect height="75" width="100" y="0" x="0" class="er entityBox"/><text style="dominant-baseline: middle; text-anchor: middle; font-size: 12px;" transform="translate(50,37.5)" y="0" x="0" id="text-entity-Thing-27bc9527-b992-59fc-a0fb-da83e2ff80bf" class="er entityLabel">Thing</text></g><g transform="translate(1067.828125,459 )" id="entity-HowTo-6f9e6b0e-89c2-59a9-964a-8696b3aa66a4"><rect height="75" width="100" y="0" x="0" class="er entityBox"/><text style="dominant-baseline: middle; text-anchor: middle; font-size: 12px;" transform="translate(50,37.5)" y="0" x="0" id="text-entity-HowTo-6f9e6b0e-89c2-59a9-964a-8696b3aa66a4" class="er entityLabel">HowTo</text></g><g transform="translate(1267.828125,459 )" id="entity-ActionStatusType-935590f3-1b2a-599d-8a3e-9af222825f06"><rect height="75" width="133.390625" y="0" x="0" class="er entityBox"/><text style="dominant-baseline: middle; text-anchor: middle; font-size: 12px;" transform="translate(66.6953125,37.5)" y="0" x="0" id="text-entity-ActionStatusType-935590f3-1b2a-599d-8a3e-9af222825f06" class="er entityLabel">ActionStatusType</text></g><g transform="translate(1501.21875,459 )" id="entity-URL-07f78d3e-fd74-5925-b39b-26c1cc2d6b7c"><rect height="75" width="100" y="0" x="0" class="er entityBox"/><text style="dominant-baseline: middle; text-anchor: middle; font-size: 12px;" transform="translate(50,37.5)" y="0" x="0" id="text-entity-URL-07f78d3e-fd74-5925-b39b-26c1cc2d6b7c" class="er entityLabel">URL</text></g><g transform="translate(1701.21875,459 )" id="entity-Action-6cd87d9a-a078-546e-a35b-bee54f477b31"><rect height="75" width="100" y="0" x="0" class="er entityBox"/><text style="dominant-baseline: middle; text-anchor: middle; font-size: 12px;" transform="translate(50,37.5)" y="0" x="0" id="text-entity-Action-6cd87d9a-a078-546e-a35b-bee54f477b31" class="er entityLabel">Action</text></g><rect height="14" width="96.53515625" y="308.2552795410156" x="375.2717590332031" class="er relationshipLabelBox"/><text style="text-anchor: middle; dominant-baseline: middle; font-size: 12px;" y="315.2552795410156" x="423.5393371582031" id="rel1" class="er relationshipLabel">realEstateAgent</text><rect height="14" width="83.9375" y="308.0091247558594" x="448.469482421875" class="er relationshipLabelBox"/><text style="text-anchor: middle; dominant-baseline: middle; font-size: 12px;" y="315.0091247558594" x="490.438232421875" id="rel2" class="er relationshipLabel">priceCurrency</text><rect height="14" width="106.921875" y="340.5495300292969" x="630.0803833007812" class="er relationshipLabelBox"/><text style="text-anchor: middle; dominant-baseline: middle; font-size: 12px;" y="347.5495300292969" x="683.5413208007812" id="rel3" class="er relationshipLabel">priceSpecification</text><rect height="14" width="66.11328125" y="407.62103271484375" x="729.5130615234375" class="er relationshipLabelBox"/><text style="text-anchor: middle; dominant-baseline: middle; font-size: 12px;" y="414.62103271484375" x="762.5697021484375" id="rel4" class="er relationshipLabel">instrument</text><rect height="14" width="37.2734375" y="409.49566650390625" x="814.7607421875" class="er relationshipLabelBox"/><text style="text-anchor: middle; dominant-baseline: middle; font-size: 12px;" y="416.49566650390625" x="833.3974609375" id="rel5" class="er relationshipLabel">object</text><rect height="14" width="34.244140625" y="401.57513427734375" x="898.7587890625" class="er relationshipLabelBox"/><text style="text-anchor: middle; dominant-baseline: middle; font-size: 12px;" y="408.57513427734375" x="915.880859375" id="rel6" class="er relationshipLabel">result</text><rect height="14" width="82.46875" y="342.1728515625" x="1006.2147216796875" class="er relationshipLabelBox"/><text style="text-anchor: middle; dominant-baseline: middle; font-size: 12px;" y="349.1728515625" x="1047.4490966796875" id="rel7" class="er relationshipLabel">actionProcess</text><rect height="14" width="75.1875" y="319.4190673828125" x="1118.3587646484375" class="er relationshipLabelBox"/><text style="text-anchor: middle; dominant-baseline: middle; font-size: 12px;" y="326.4190673828125" x="1155.9525146484375" id="rel8" class="er relationshipLabel">actionStatus</text><rect height="14" width="29.1171875" y="375.7899169921875" x="977.9337768554688" class="er relationshipLabelBox"/><text style="text-anchor: middle; dominant-baseline: middle; font-size: 12px;" y="382.7899169921875" x="992.4923706054688" id="rel9" class="er relationshipLabel">error</text><rect height="14" width="89.953125" y="314.47528076171875" x="484.63140869140625" class="er relationshipLabelBox"/><text style="text-anchor: middle; dominant-baseline: middle; font-size: 12px;" y="321.47528076171875" x="529.6079711914062" id="rel10" class="er relationshipLabel">alternateName</text><rect height="14" width="161.390625" y="327.372802734375" x="479.99505615234375" class="er relationshipLabelBox"/><text style="text-anchor: middle; dominant-baseline: middle; font-size: 12px;" y="334.372802734375" x="560.6903686523438" id="rel11" class="er relationshipLabel">disambiguatingDescription</text><rect height="14" width="34.03125" y="356.28887939453125" x="556.1332397460938" class="er relationshipLabelBox"/><text style="text-anchor: middle; dominant-baseline: middle; font-size: 12px;" y="363.28887939453125" x="573.1488647460938" id="rel12" class="er relationshipLabel">name</text><rect height="14" width="47.140625" y="316.0513610839844" x="1221.3829345703125" class="er relationshipLabelBox"/><text style="text-anchor: middle; dominant-baseline: middle; font-size: 12px;" y="323.0513610839844" x="1244.9532470703125" id="rel13" class="er relationshipLabel">sameAs</text><rect height="14" width="90.96875" y="306.4126281738281" x="1316.285888671875" class="er relationshipLabelBox"/><text style="text-anchor: middle; dominant-baseline: middle; font-size: 12px;" y="313.4126281738281" x="1361.770263671875" id="rel14" class="er relationshipLabel">potentialAction</text><rect height="14" width="15.875" y="307.438232421875" x="1272.8692626953125" class="er relationshipLabelBox"/><text style="text-anchor: middle; dominant-baseline: middle; font-size: 12px;" y="314.438232421875" x="1280.8067626953125" id="rel15" class="er relationshipLabel">url</text></svg>