<svg aria-roledescription="er" role="graphics-document document" viewBox="0 0 1074.228515625 386" style="max-width: 1074.23px; background-color: white;" xmlns:xlink="http://www.w3.org/1999/xlink" xmlns="http://www.w3.org/2000/svg" width="100%" id="my-svg"><style>#my-svg{font-family:"trebuchet ms",verdana,arial,sans-serif;font-size:16px;fill:#333;}#my-svg .error-icon{fill:#552222;}#my-svg .error-text{fill:#552222;stroke:#552222;}#my-svg .edge-thickness-normal{stroke-width:1px;}#my-svg .edge-thickness-thick{stroke-width:3.5px;}#my-svg .edge-pattern-solid{stroke-dasharray:0;}#my-svg .edge-thickness-invisible{stroke-width:0;fill:none;}#my-svg .edge-pattern-dashed{stroke-dasharray:3;}#my-svg .edge-pattern-dotted{stroke-dasharray:2;}#my-svg .marker{fill:#333333;stroke:#333333;}#my-svg .marker.cross{stroke:#333333;}#my-svg svg{font-family:"trebuchet ms",verdana,arial,sans-serif;font-size:16px;}#my-svg p{margin:0;}#my-svg .entityBox{fill:#ECECFF;stroke:#9370DB;}#my-svg .attributeBoxOdd{fill:#ffffff;stroke:#9370DB;}#my-svg .attributeBoxEven{fill:#f2f2f2;stroke:#9370DB;}#my-svg .relationshipLabelBox{fill:hsl(80, 100%, 96.2745098039%);opacity:0.7;background-color:hsl(80, 100%, 96.2745098039%);}#my-svg .relationshipLabelBox rect{opacity:0.5;}#my-svg .relationshipLine{stroke:#333333;}#my-svg .entityTitleText{text-anchor:middle;font-size:18px;fill:#333;}#my-svg #MD_PARENT_START{fill:#f5f5f5!important;stroke:#333333!important;stroke-width:1;}#my-svg #MD_PARENT_END{fill:#f5f5f5!important;stroke:#333333!important;stroke-width:1;}#my-svg :root{--mermaid-font-family:"trebuchet ms",verdana,arial,sans-serif;}</style><g/><defs><marker orient="auto" markerHeight="240" markerWidth="190" refY="7" refX="0" id="MD_PARENT_START"><path d="M 18,7 L9,13 L1,7 L9,1 Z"/></marker></defs><defs><marker orient="auto" markerHeight="28" markerWidth="20" refY="7" refX="19" id="MD_PARENT_END"><path d="M 18,7 L9,13 L1,7 L9,1 Z"/></marker></defs><defs><marker orient="auto" markerHeight="18" markerWidth="18" refY="9" refX="0" id="ONLY_ONE_START"><path d="M9,0 L9,18 M15,0 L15,18" fill="none" stroke="gray"/></marker></defs><defs><marker orient="auto" markerHeight="18" markerWidth="18" refY="9" refX="18" id="ONLY_ONE_END"><path d="M3,0 L3,18 M9,0 L9,18" fill="none" stroke="gray"/></marker></defs><defs><marker orient="auto" markerHeight="18" markerWidth="30" refY="9" refX="0" id="ZERO_OR_ONE_START"><circle r="6" cy="9" cx="21" fill="white" stroke="gray"/><path d="M9,0 L9,18" fill="none" stroke="gray"/></marker></defs><defs><marker orient="auto" markerHeight="18" markerWidth="30" refY="9" refX="30" id="ZERO_OR_ONE_END"><circle r="6" cy="9" cx="9" fill="white" stroke="gray"/><path d="M21,0 L21,18" fill="none" stroke="gray"/></marker></defs><defs><marker orient="auto" markerHeight="36" markerWidth="45" refY="18" refX="18" id="ONE_OR_MORE_START"><path d="M0,18 Q 18,0 36,18 Q 18,36 0,18 M42,9 L42,27" fill="none" stroke="gray"/></marker></defs><defs><marker orient="auto" markerHeight="36" markerWidth="45" refY="18" refX="27" id="ONE_OR_MORE_END"><path d="M3,9 L3,27 M9,18 Q27,0 45,18 Q27,36 9,18" fill="none" stroke="gray"/></marker></defs><defs><marker orient="auto" markerHeight="36" markerWidth="57" refY="18" refX="18" id="ZERO_OR_MORE_START"><circle r="6" cy="18" cx="48" fill="white" stroke="gray"/><path d="M0,18 Q18,0 36,18 Q18,36 0,18" fill="none" stroke="gray"/></marker></defs><defs><marker orient="auto" markerHeight="36" markerWidth="57" refY="18" refX="39" id="ZERO_OR_MORE_END"><circle r="6" cy="18" cx="9" fill="white" stroke="gray"/><path d="M21,18 Q39,0 57,18 Q39,36 21,18" fill="none" stroke="gray"/></marker></defs><path style="stroke: gray; fill: none;" marker-start="url(#ONLY_ONE_START)" marker-end="url(#ZERO_OR_MORE_END)" d="M416.385,130.982L353.173,149.318C289.961,167.654,163.538,204.327,105.088,230.997C46.638,257.667,56.162,274.333,60.924,282.667L65.686,291" class="er relationshipLine"/><path style="stroke: gray; fill: none;" marker-start="url(#ONLY_ONE_START)" marker-end="url(#ZERO_OR_MORE_END)" d="M416.385,138.696L371.266,155.747C326.147,172.798,235.909,206.899,185.213,232.283C134.518,257.667,123.364,274.333,117.787,282.667L112.21,291" class="er relationshipLine"/><path style="stroke: gray; fill: none;" marker-start="url(#ONLY_ONE_START)" marker-end="url(#ZERO_OR_MORE_END)" d="M416.385,151.536L387.933,166.446C359.48,181.357,302.576,211.179,279.7,234.423C256.825,257.667,267.979,274.333,273.556,282.667L279.133,291" class="er relationshipLine"/><path style="stroke: gray; fill: none;" marker-start="url(#ONLY_ONE_START)" marker-end="url(#ZERO_OR_MORE_END)" d="M416.385,184.852L406.025,194.21C395.666,203.568,374.947,222.284,359.826,239.975C344.705,257.667,335.181,274.333,330.419,282.667L325.657,291" class="er relationshipLine"/><path style="stroke: gray; fill: none;" marker-start="url(#ONLY_ONE_START)" marker-end="url(#ZERO_OR_MORE_END)" d="M472.679,191L469.604,199.333C466.529,207.667,460.379,224.333,466.827,241C473.276,257.667,492.324,274.333,501.848,282.667L511.371,291" class="er relationshipLine"/><path style="stroke: gray; fill: none;" marker-start="url(#ONLY_ONE_START)" marker-end="url(#ZERO_OR_MORE_END)" d="M535.778,191L538.853,199.333C541.928,207.667,548.078,224.333,551.153,241C554.229,257.667,554.229,274.333,554.229,282.667L554.229,291" class="er relationshipLine"/><path style="stroke: gray; fill: none;" marker-start="url(#ONLY_ONE_START)" marker-end="url(#ZERO_OR_MORE_END)" d="M592.072,184.852L602.432,194.21C612.791,203.568,633.51,222.284,634.345,239.975C635.181,257.667,616.133,274.333,606.609,282.667L597.086,291" class="er relationshipLine"/><path style="stroke: gray; fill: none;" marker-start="url(#ONLY_ONE_START)" marker-end="url(#ZERO_OR_MORE_END)" d="M592.072,153.111L619.098,167.759C646.124,182.408,700.176,211.704,731.964,234.685C763.752,257.667,773.276,274.333,778.038,282.667L782.8,291" class="er relationshipLine"/><path style="stroke: gray; fill: none;" marker-start="url(#ONLY_ONE_START)" marker-end="url(#ZERO_OR_MORE_END)" d="M592.072,129.306L660.765,147.921C729.458,166.537,866.843,203.769,935.536,230.718C1004.229,257.667,1004.229,274.333,1004.229,282.667L1004.229,291" class="er relationshipLine"/><path style="stroke: gray; fill: none;" marker-start="url(#ONLY_ONE_START)" marker-end="url(#ZERO_OR_MORE_END)" d="M592.072,139.508L635.765,156.423C679.458,173.339,766.843,207.169,805.774,232.418C844.705,257.667,835.181,274.333,830.419,282.667L825.657,291" class="er relationshipLine"/><g transform="translate(416.384765625,20 )" id="entity-RepaymentSpecification-bc966c2b-46a4-5671-9084-3929a80b235c"><rect height="171" width="175.6875" y="0" x="0" class="er entityBox"/><text style="dominant-baseline: middle; text-anchor: middle; font-size: 12px;" transform="translate(87.84375,12)" y="0" x="0" id="text-entity-RepaymentSpecification-bc966c2b-46a4-5671-9084-3929a80b235c" class="er entityLabel">RepaymentSpecification</text><rect height="21" width="65.640625" y="24" x="0" class="er attributeBoxOdd"/><text style="dominant-baseline: middle; font-size: 10.2px;" transform="translate(5,34.5)" y="0" x="0" id="text-entity-RepaymentSpecification-bc966c2b-46a4-5671-9084-3929a80b235c-attr-1-type" class="er entityLabel">stringList</text><rect height="21" width="110.046875" y="24" x="65.640625" class="er attributeBoxOdd"/><text style="dominant-baseline: middle; font-size: 10.2px;" transform="translate(70.640625,34.5)" y="0" x="0" id="text-entity-RepaymentSpecification-bc966c2b-46a4-5671-9084-3929a80b235c-attr-1-name" class="er entityLabel">downPayment</text><rect height="21" width="65.640625" y="45" x="0" class="er attributeBoxEven"/><text style="dominant-baseline: middle; font-size: 10.2px;" transform="translate(5,55.5)" y="0" x="0" id="text-entity-RepaymentSpecification-bc966c2b-46a4-5671-9084-3929a80b235c-attr-2-type" class="er entityLabel">stringList</text><rect height="21" width="110.046875" y="45" x="65.640625" class="er attributeBoxEven"/><text style="dominant-baseline: middle; font-size: 10.2px;" transform="translate(70.640625,55.5)" y="0" x="0" id="text-entity-RepaymentSpecification-bc966c2b-46a4-5671-9084-3929a80b235c-attr-2-name" class="er entityLabel">additionalType</text><rect height="21" width="65.640625" y="66" x="0" class="er attributeBoxOdd"/><text style="dominant-baseline: middle; font-size: 10.2px;" transform="translate(5,76.5)" y="0" x="0" id="text-entity-RepaymentSpecification-bc966c2b-46a4-5671-9084-3929a80b235c-attr-3-type" class="er entityLabel">stringList</text><rect height="21" width="110.046875" y="66" x="65.640625" class="er attributeBoxOdd"/><text style="dominant-baseline: middle; font-size: 10.2px;" transform="translate(70.640625,76.5)" y="0" x="0" id="text-entity-RepaymentSpecification-bc966c2b-46a4-5671-9084-3929a80b235c-attr-3-name" class="er entityLabel">description</text><rect height="21" width="65.640625" y="87" x="0" class="er attributeBoxEven"/><text style="dominant-baseline: middle; font-size: 10.2px;" transform="translate(5,97.5)" y="0" x="0" id="text-entity-RepaymentSpecification-bc966c2b-46a4-5671-9084-3929a80b235c-attr-4-type" class="er entityLabel">stringList</text><rect height="21" width="110.046875" y="87" x="65.640625" class="er attributeBoxEven"/><text style="dominant-baseline: middle; font-size: 10.2px;" transform="translate(70.640625,97.5)" y="0" x="0" id="text-entity-RepaymentSpecification-bc966c2b-46a4-5671-9084-3929a80b235c-attr-4-name" class="er entityLabel">identifier</text><rect height="21" width="65.640625" y="108" x="0" class="er attributeBoxOdd"/><text style="dominant-baseline: middle; font-size: 10.2px;" transform="translate(5,118.5)" y="0" x="0" id="text-entity-RepaymentSpecification-bc966c2b-46a4-5671-9084-3929a80b235c-attr-5-type" class="er entityLabel">stringList</text><rect height="21" width="110.046875" y="108" x="65.640625" class="er attributeBoxOdd"/><text style="dominant-baseline: middle; font-size: 10.2px;" transform="translate(70.640625,118.5)" y="0" x="0" id="text-entity-RepaymentSpecification-bc966c2b-46a4-5671-9084-3929a80b235c-attr-5-name" class="er entityLabel">image</text><rect height="21" width="65.640625" y="129" x="0" class="er attributeBoxEven"/><text style="dominant-baseline: middle; font-size: 10.2px;" transform="translate(5,139.5)" y="0" x="0" id="text-entity-RepaymentSpecification-bc966c2b-46a4-5671-9084-3929a80b235c-attr-6-type" class="er entityLabel">stringList</text><rect height="21" width="110.046875" y="129" x="65.640625" class="er attributeBoxEven"/><text style="dominant-baseline: middle; font-size: 10.2px;" transform="translate(70.640625,139.5)" y="0" x="0" id="text-entity-RepaymentSpecification-bc966c2b-46a4-5671-9084-3929a80b235c-attr-6-name" class="er entityLabel">mainEntityOfPage</text><rect height="21" width="65.640625" y="150" x="0" class="er attributeBoxOdd"/><text style="dominant-baseline: middle; font-size: 10.2px;" transform="translate(5,160.5)" y="0" x="0" id="text-entity-RepaymentSpecification-bc966c2b-46a4-5671-9084-3929a80b235c-attr-7-type" class="er entityLabel">stringList</text><rect height="21" width="110.046875" y="150" x="65.640625" class="er attributeBoxOdd"/><text style="dominant-baseline: middle; font-size: 10.2px;" transform="translate(70.640625,160.5)" y="0" x="0" id="text-entity-RepaymentSpecification-bc966c2b-46a4-5671-9084-3929a80b235c-attr-7-name" class="er entityLabel">subjectOf</text></g><g transform="translate(20,291 )" id="entity-MonetaryAmount-99d98e1d-dae3-555c-a0b3-eeec7bd13c3e"><rect height="75" width="134.228515625" y="0" x="0" class="er entityBox"/><text style="dominant-baseline: middle; text-anchor: middle; font-size: 12px;" transform="translate(67.1142578125,37.5)" y="0" x="0" id="text-entity-MonetaryAmount-99d98e1d-dae3-555c-a0b3-eeec7bd13c3e" class="er entityLabel">MonetaryAmount</text></g><g transform="translate(254.228515625,291 )" id="entity-Number-03723608-6bf1-5294-8c7e-b493e3224412"><rect height="75" width="100" y="0" x="0" class="er entityBox"/><text style="dominant-baseline: middle; text-anchor: middle; font-size: 12px;" transform="translate(50,37.5)" y="0" x="0" id="text-entity-Number-03723608-6bf1-5294-8c7e-b493e3224412" class="er entityLabel">Number</text></g><g transform="translate(504.228515625,291 )" id="entity-Text-426c5d39-acfc-5487-a6d9-ede67887190e"><rect height="75" width="100" y="0" x="0" class="er entityBox"/><text style="dominant-baseline: middle; text-anchor: middle; font-size: 12px;" transform="translate(50,37.5)" y="0" x="0" id="text-entity-Text-426c5d39-acfc-5487-a6d9-ede67887190e" class="er entityLabel">Text</text></g><g transform="translate(754.228515625,291 )" id="entity-URL-07f78d3e-fd74-5925-b39b-26c1cc2d6b7c"><rect height="75" width="100" y="0" x="0" class="er entityBox"/><text style="dominant-baseline: middle; text-anchor: middle; font-size: 12px;" transform="translate(50,37.5)" y="0" x="0" id="text-entity-URL-07f78d3e-fd74-5925-b39b-26c1cc2d6b7c" class="er entityLabel">URL</text></g><g transform="translate(954.228515625,291 )" id="entity-Action-6cd87d9a-a078-546e-a35b-bee54f477b31"><rect height="75" width="100" y="0" x="0" class="er entityBox"/><text style="dominant-baseline: middle; text-anchor: middle; font-size: 12px;" transform="translate(50,37.5)" y="0" x="0" id="text-entity-Action-6cd87d9a-a078-546e-a35b-bee54f477b31" class="er entityLabel">Action</text></g><rect height="14" width="146.9375" y="182.9939727783203" x="144.55850219726562" class="er relationshipLabelBox"/><text style="text-anchor: middle; dominant-baseline: middle; font-size: 12px;" y="189.9939727783203" x="218.02725219726562" id="rel1" class="er relationshipLabel">earlyPrepaymentPenalty</text><rect height="14" width="125.62109375" y="193.89797973632812" x="192.887451171875" class="er relationshipLabelBox"/><text style="text-anchor: middle; dominant-baseline: middle; font-size: 12px;" y="200.89797973632812" x="255.697998046875" id="rel2" class="er relationshipLabel">loanPaymentAmount</text><rect height="14" width="140.171875" y="198.60787963867188" x="248.02987670898438" class="er relationshipLabelBox"/><text style="text-anchor: middle; dominant-baseline: middle; font-size: 12px;" y="205.60787963867188" x="318.1158142089844" id="rel3" class="er relationshipLabel">loanPaymentFrequency</text><rect height="14" width="148.078125" y="226.4194793701172" x="291.5915832519531" class="er relationshipLabelBox"/><text style="text-anchor: middle; dominant-baseline: middle; font-size: 12px;" y="233.4194793701172" x="365.6306457519531" id="rel4" class="er relationshipLabel">numberOfLoanPayments</text><rect height="14" width="89.953125" y="241.14842224121094" x="425.33892822265625" class="er relationshipLabelBox"/><text style="text-anchor: middle; dominant-baseline: middle; font-size: 12px;" y="248.14842224121094" x="470.31549072265625" id="rel5" class="er relationshipLabel">alternateName</text><rect height="14" width="161.390625" y="232.9156494140625" x="470.2528076171875" class="er relationshipLabelBox"/><text style="text-anchor: middle; dominant-baseline: middle; font-size: 12px;" y="239.9156494140625" x="550.9481201171875" id="rel6" class="er relationshipLabel">disambiguatingDescription</text><rect height="14" width="34.03125" y="230.07960510253906" x="617.021240234375" class="er relationshipLabelBox"/><text style="text-anchor: middle; dominant-baseline: middle; font-size: 12px;" y="237.07960510253906" x="634.036865234375" id="rel7" class="er relationshipLabel">name</text><rect height="14" width="47.140625" y="204.3719482421875" x="672.6544799804688" class="er relationshipLabelBox"/><text style="text-anchor: middle; dominant-baseline: middle; font-size: 12px;" y="211.3719482421875" x="696.2247924804688" id="rel8" class="er relationshipLabel">sameAs</text><rect height="14" width="90.96875" y="183.33999633789062" x="766.80615234375" class="er relationshipLabelBox"/><text style="text-anchor: middle; dominant-baseline: middle; font-size: 12px;" y="190.33999633789062" x="812.29052734375" id="rel9" class="er relationshipLabel">potentialAction</text><rect height="14" width="15.875" y="189.3367156982422" x="726.289794921875" class="er relationshipLabelBox"/><text style="text-anchor: middle; dominant-baseline: middle; font-size: 12px;" y="196.3367156982422" x="734.227294921875" id="rel10" class="er relationshipLabel">url</text></svg>