<svg aria-roledescription="er" role="graphics-document document" viewBox="-157.11370849609375 0 1630.50439453125 512" style="max-width: 1630.5px; background-color: white;" xmlns:xlink="http://www.w3.org/1999/xlink" xmlns="http://www.w3.org/2000/svg" width="100%" id="my-svg"><style>#my-svg{font-family:"trebuchet ms",verdana,arial,sans-serif;font-size:16px;fill:#333;}#my-svg .error-icon{fill:#552222;}#my-svg .error-text{fill:#552222;stroke:#552222;}#my-svg .edge-thickness-normal{stroke-width:1px;}#my-svg .edge-thickness-thick{stroke-width:3.5px;}#my-svg .edge-pattern-solid{stroke-dasharray:0;}#my-svg .edge-thickness-invisible{stroke-width:0;fill:none;}#my-svg .edge-pattern-dashed{stroke-dasharray:3;}#my-svg .edge-pattern-dotted{stroke-dasharray:2;}#my-svg .marker{fill:#333333;stroke:#333333;}#my-svg .marker.cross{stroke:#333333;}#my-svg svg{font-family:"trebuchet ms",verdana,arial,sans-serif;font-size:16px;}#my-svg p{margin:0;}#my-svg .entityBox{fill:#ECECFF;stroke:#9370DB;}#my-svg .attributeBoxOdd{fill:#ffffff;stroke:#9370DB;}#my-svg .attributeBoxEven{fill:#f2f2f2;stroke:#9370DB;}#my-svg .relationshipLabelBox{fill:hsl(80, 100%, 96.2745098039%);opacity:0.7;background-color:hsl(80, 100%, 96.2745098039%);}#my-svg .relationshipLabelBox rect{opacity:0.5;}#my-svg .relationshipLine{stroke:#333333;}#my-svg .entityTitleText{text-anchor:middle;font-size:18px;fill:#333;}#my-svg #MD_PARENT_START{fill:#f5f5f5!important;stroke:#333333!important;stroke-width:1;}#my-svg #MD_PARENT_END{fill:#f5f5f5!important;stroke:#333333!important;stroke-width:1;}#my-svg :root{--mermaid-font-family:"trebuchet ms",verdana,arial,sans-serif;}</style><g/><defs><marker orient="auto" markerHeight="240" markerWidth="190" refY="7" refX="0" id="MD_PARENT_START"><path d="M 18,7 L9,13 L1,7 L9,1 Z"/></marker></defs><defs><marker orient="auto" markerHeight="28" markerWidth="20" refY="7" refX="19" id="MD_PARENT_END"><path d="M 18,7 L9,13 L1,7 L9,1 Z"/></marker></defs><defs><marker orient="auto" markerHeight="18" markerWidth="18" refY="9" refX="0" id="ONLY_ONE_START"><path d="M9,0 L9,18 M15,0 L15,18" fill="none" stroke="gray"/></marker></defs><defs><marker orient="auto" markerHeight="18" markerWidth="18" refY="9" refX="18" id="ONLY_ONE_END"><path d="M3,0 L3,18 M9,0 L9,18" fill="none" stroke="gray"/></marker></defs><defs><marker orient="auto" markerHeight="18" markerWidth="30" refY="9" refX="0" id="ZERO_OR_ONE_START"><circle r="6" cy="9" cx="21" fill="white" stroke="gray"/><path d="M9,0 L9,18" fill="none" stroke="gray"/></marker></defs><defs><marker orient="auto" markerHeight="18" markerWidth="30" refY="9" refX="30" id="ZERO_OR_ONE_END"><circle r="6" cy="9" cx="9" fill="white" stroke="gray"/><path d="M21,0 L21,18" fill="none" stroke="gray"/></marker></defs><defs><marker orient="auto" markerHeight="36" markerWidth="45" refY="18" refX="18" id="ONE_OR_MORE_START"><path d="M0,18 Q 18,0 36,18 Q 18,36 0,18 M42,9 L42,27" fill="none" stroke="gray"/></marker></defs><defs><marker orient="auto" markerHeight="36" markerWidth="45" refY="18" refX="27" id="ONE_OR_MORE_END"><path d="M3,9 L3,27 M9,18 Q27,0 45,18 Q27,36 9,18" fill="none" stroke="gray"/></marker></defs><defs><marker orient="auto" markerHeight="36" markerWidth="57" refY="18" refX="18" id="ZERO_OR_MORE_START"><circle r="6" cy="18" cx="48" fill="white" stroke="gray"/><path d="M0,18 Q18,0 36,18 Q18,36 0,18" fill="none" stroke="gray"/></marker></defs><defs><marker orient="auto" markerHeight="36" markerWidth="57" refY="18" refX="39" id="ZERO_OR_MORE_END"><circle r="6" cy="18" cx="9" fill="white" stroke="gray"/><path d="M21,18 Q39,0 57,18 Q39,36 21,18" fill="none" stroke="gray"/></marker></defs><path style="stroke: gray; fill: none;" marker-start="url(#ONLY_ONE_START)" marker-end="url(#ZERO_OR_MORE_END)" d="M399.082,189.248L285.902,218.873C172.721,248.499,-53.639,307.749,-116.82,349.875C-180,392,-80,417,-30,429.5L20,442" class="er relationshipLine"/><path style="stroke: gray; fill: none;" marker-start="url(#ONLY_ONE_START)" marker-end="url(#ZERO_OR_MORE_END)" d="M399.082,192.4L302.568,221.5C206.055,250.6,13.027,308.8,-50.153,349.567C-113.333,390.333,-46.667,413.667,-13.333,425.333L20,437" class="er relationshipLine"/><path style="stroke: gray; fill: none;" marker-start="url(#ONLY_ONE_START)" marker-end="url(#ZERO_OR_MORE_END)" d="M399.082,196.68L319.235,225.067C239.388,253.453,79.694,310.227,16.514,348.336C-46.667,386.444,-13.333,405.889,3.333,415.611L20,425.333" class="er relationshipLine"/><path style="stroke: gray; fill: none;" marker-start="url(#ONLY_ONE_START)" marker-end="url(#ZERO_OR_MORE_END)" d="M399.082,202.828L335.902,230.19C272.721,257.552,146.361,312.276,87.942,347.971C29.524,383.667,39.048,400.333,43.81,408.667L48.571,417" class="er relationshipLine"/><path style="stroke: gray; fill: none;" marker-start="url(#ONLY_ONE_START)" marker-end="url(#ZERO_OR_MORE_END)" d="M399.082,212.408L352.568,238.173C306.055,263.938,213.027,315.469,161.752,349.568C110.476,383.667,100.952,400.333,96.19,408.667L91.429,417" class="er relationshipLine"/><path style="stroke: gray; fill: none;" marker-start="url(#ONLY_ONE_START)" marker-end="url(#ZERO_OR_MORE_END)" d="M399.082,229.403L369.235,252.336C339.388,275.269,279.694,321.134,233.18,353.789C186.667,386.444,153.333,405.889,136.667,415.611L120,425.333" class="er relationshipLine"/><path style="stroke: gray; fill: none;" marker-start="url(#ONLY_ONE_START)" marker-end="url(#ZERO_OR_MORE_END)" d="M399.082,267.865L385.902,284.388C372.721,300.91,346.361,333.955,299.847,362.144C253.333,390.333,186.667,413.667,153.333,425.333L120,437" class="er relationshipLine"/><path style="stroke: gray; fill: none;" marker-start="url(#ONLY_ONE_START)" marker-end="url(#ZERO_OR_MORE_END)" d="M515.753,317L517.852,325.333C519.951,333.667,524.15,350.333,526.249,367C528.348,383.667,528.348,400.333,528.348,408.667L528.348,417" class="er relationshipLine"/><path style="stroke: gray; fill: none;" marker-start="url(#ONLY_ONE_START)" marker-end="url(#ZERO_OR_MORE_END)" d="M557.613,227.497L588.852,250.748C620.09,273.998,682.566,320.499,713.805,352.083C745.043,383.667,745.043,400.333,745.043,408.667L745.043,417" class="er relationshipLine"/><path style="stroke: gray; fill: none;" marker-start="url(#ONLY_ONE_START)" marker-end="url(#ZERO_OR_MORE_END)" d="M434.697,317L432.248,325.333C429.798,333.667,424.899,350.333,372.45,371.167C320,392,220,417,170,429.5L120,442" class="er relationshipLine"/><path style="stroke: gray; fill: none;" marker-start="url(#ONLY_ONE_START)" marker-end="url(#ZERO_OR_MORE_END)" d="M557.613,210.453L606.91,236.544C656.206,262.635,754.798,314.818,820.761,350.631C886.724,386.444,920.057,405.889,936.724,415.611L953.391,425.333" class="er relationshipLine"/><path style="stroke: gray; fill: none;" marker-start="url(#ONLY_ONE_START)" marker-end="url(#ZERO_OR_MORE_END)" d="M557.613,201.622L623.576,229.185C689.539,256.748,821.465,311.874,892.19,347.77C962.914,383.667,972.438,400.333,977.2,408.667L981.962,417" class="er relationshipLine"/><path style="stroke: gray; fill: none;" marker-start="url(#ONLY_ONE_START)" marker-end="url(#ZERO_OR_MORE_END)" d="M557.613,195.862L640.243,224.385C722.872,252.908,888.132,309.954,965.999,346.81C1043.867,383.667,1034.343,400.333,1029.581,408.667L1024.819,417" class="er relationshipLine"/><path style="stroke: gray; fill: none;" marker-start="url(#ONLY_ONE_START)" marker-end="url(#ZERO_OR_MORE_END)" d="M557.613,191.808L656.91,221.007C756.206,250.206,954.798,308.603,1058.856,346.135C1162.914,383.667,1172.438,400.333,1177.2,408.667L1181.962,417" class="er relationshipLine"/><path style="stroke: gray; fill: none;" marker-start="url(#ONLY_ONE_START)" marker-end="url(#ZERO_OR_MORE_END)" d="M557.613,185.509L698.576,215.758C839.539,246.006,1121.465,306.503,1262.428,345.085C1403.391,383.667,1403.391,400.333,1403.391,408.667L1403.391,417" class="er relationshipLine"/><path style="stroke: gray; fill: none;" marker-start="url(#ONLY_ONE_START)" marker-end="url(#ZERO_OR_MORE_END)" d="M557.613,188.801L673.576,218.501C789.539,248.201,1021.465,307.6,1132.666,345.634C1243.867,383.667,1234.343,400.333,1229.581,408.667L1224.819,417" class="er relationshipLine"/><g transform="translate(399.08203125,20 )" id="entity-ReplaceAction-a456dfec-a944-584f-953e-f0ac86eae95c"><rect height="297" width="158.53125" y="0" x="0" class="er entityBox"/><text style="dominant-baseline: middle; text-anchor: middle; font-size: 12px;" transform="translate(79.265625,12)" y="0" x="0" id="text-entity-ReplaceAction-a456dfec-a944-584f-953e-f0ac86eae95c" class="er entityLabel">ReplaceAction</text><rect height="21" width="57.0625" y="24" x="0" class="er attributeBoxOdd"/><text style="dominant-baseline: middle; font-size: 10.2px;" transform="translate(5,34.5)" y="0" x="0" id="text-entity-ReplaceAction-a456dfec-a944-584f-953e-f0ac86eae95c-attr-1-type" class="er entityLabel">stringList</text><rect height="21" width="101.46875" y="24" x="57.0625" class="er attributeBoxOdd"/><text style="dominant-baseline: middle; font-size: 10.2px;" transform="translate(62.0625,34.5)" y="0" x="0" id="text-entity-ReplaceAction-a456dfec-a944-584f-953e-f0ac86eae95c-attr-1-name" class="er entityLabel">location</text><rect height="21" width="57.0625" y="45" x="0" class="er attributeBoxEven"/><text style="dominant-baseline: middle; font-size: 10.2px;" transform="translate(5,55.5)" y="0" x="0" id="text-entity-ReplaceAction-a456dfec-a944-584f-953e-f0ac86eae95c-attr-2-type" class="er entityLabel">stringList</text><rect height="21" width="101.46875" y="45" x="57.0625" class="er attributeBoxEven"/><text style="dominant-baseline: middle; font-size: 10.2px;" transform="translate(62.0625,55.5)" y="0" x="0" id="text-entity-ReplaceAction-a456dfec-a944-584f-953e-f0ac86eae95c-attr-2-name" class="er entityLabel">participant</text><rect height="21" width="57.0625" y="66" x="0" class="er attributeBoxOdd"/><text style="dominant-baseline: middle; font-size: 10.2px;" transform="translate(5,76.5)" y="0" x="0" id="text-entity-ReplaceAction-a456dfec-a944-584f-953e-f0ac86eae95c-attr-3-type" class="er entityLabel">stringList</text><rect height="21" width="101.46875" y="66" x="57.0625" class="er attributeBoxOdd"/><text style="dominant-baseline: middle; font-size: 10.2px;" transform="translate(62.0625,76.5)" y="0" x="0" id="text-entity-ReplaceAction-a456dfec-a944-584f-953e-f0ac86eae95c-attr-3-name" class="er entityLabel">agent</text><rect height="21" width="57.0625" y="87" x="0" class="er attributeBoxEven"/><text style="dominant-baseline: middle; font-size: 10.2px;" transform="translate(5,97.5)" y="0" x="0" id="text-entity-ReplaceAction-a456dfec-a944-584f-953e-f0ac86eae95c-attr-4-type" class="er entityLabel">stringList</text><rect height="21" width="101.46875" y="87" x="57.0625" class="er attributeBoxEven"/><text style="dominant-baseline: middle; font-size: 10.2px;" transform="translate(62.0625,97.5)" y="0" x="0" id="text-entity-ReplaceAction-a456dfec-a944-584f-953e-f0ac86eae95c-attr-4-name" class="er entityLabel">endTime</text><rect height="21" width="57.0625" y="108" x="0" class="er attributeBoxOdd"/><text style="dominant-baseline: middle; font-size: 10.2px;" transform="translate(5,118.5)" y="0" x="0" id="text-entity-ReplaceAction-a456dfec-a944-584f-953e-f0ac86eae95c-attr-5-type" class="er entityLabel">stringList</text><rect height="21" width="101.46875" y="108" x="57.0625" class="er attributeBoxOdd"/><text style="dominant-baseline: middle; font-size: 10.2px;" transform="translate(62.0625,118.5)" y="0" x="0" id="text-entity-ReplaceAction-a456dfec-a944-584f-953e-f0ac86eae95c-attr-5-name" class="er entityLabel">provider</text><rect height="21" width="57.0625" y="129" x="0" class="er attributeBoxEven"/><text style="dominant-baseline: middle; font-size: 10.2px;" transform="translate(5,139.5)" y="0" x="0" id="text-entity-ReplaceAction-a456dfec-a944-584f-953e-f0ac86eae95c-attr-6-type" class="er entityLabel">stringList</text><rect height="21" width="101.46875" y="129" x="57.0625" class="er attributeBoxEven"/><text style="dominant-baseline: middle; font-size: 10.2px;" transform="translate(62.0625,139.5)" y="0" x="0" id="text-entity-ReplaceAction-a456dfec-a944-584f-953e-f0ac86eae95c-attr-6-name" class="er entityLabel">startTime</text><rect height="21" width="57.0625" y="150" x="0" class="er attributeBoxOdd"/><text style="dominant-baseline: middle; font-size: 10.2px;" transform="translate(5,160.5)" y="0" x="0" id="text-entity-ReplaceAction-a456dfec-a944-584f-953e-f0ac86eae95c-attr-7-type" class="er entityLabel">stringList</text><rect height="21" width="101.46875" y="150" x="57.0625" class="er attributeBoxOdd"/><text style="dominant-baseline: middle; font-size: 10.2px;" transform="translate(62.0625,160.5)" y="0" x="0" id="text-entity-ReplaceAction-a456dfec-a944-584f-953e-f0ac86eae95c-attr-7-name" class="er entityLabel">target</text><rect height="21" width="57.0625" y="171" x="0" class="er attributeBoxEven"/><text style="dominant-baseline: middle; font-size: 10.2px;" transform="translate(5,181.5)" y="0" x="0" id="text-entity-ReplaceAction-a456dfec-a944-584f-953e-f0ac86eae95c-attr-8-type" class="er entityLabel">stringList</text><rect height="21" width="101.46875" y="171" x="57.0625" class="er attributeBoxEven"/><text style="dominant-baseline: middle; font-size: 10.2px;" transform="translate(62.0625,181.5)" y="0" x="0" id="text-entity-ReplaceAction-a456dfec-a944-584f-953e-f0ac86eae95c-attr-8-name" class="er entityLabel">additionalType</text><rect height="21" width="57.0625" y="192" x="0" class="er attributeBoxOdd"/><text style="dominant-baseline: middle; font-size: 10.2px;" transform="translate(5,202.5)" y="0" x="0" id="text-entity-ReplaceAction-a456dfec-a944-584f-953e-f0ac86eae95c-attr-9-type" class="er entityLabel">stringList</text><rect height="21" width="101.46875" y="192" x="57.0625" class="er attributeBoxOdd"/><text style="dominant-baseline: middle; font-size: 10.2px;" transform="translate(62.0625,202.5)" y="0" x="0" id="text-entity-ReplaceAction-a456dfec-a944-584f-953e-f0ac86eae95c-attr-9-name" class="er entityLabel">description</text><rect height="21" width="57.0625" y="213" x="0" class="er attributeBoxEven"/><text style="dominant-baseline: middle; font-size: 10.2px;" transform="translate(5,223.5)" y="0" x="0" id="text-entity-ReplaceAction-a456dfec-a944-584f-953e-f0ac86eae95c-attr-10-type" class="er entityLabel">stringList</text><rect height="21" width="101.46875" y="213" x="57.0625" class="er attributeBoxEven"/><text style="dominant-baseline: middle; font-size: 10.2px;" transform="translate(62.0625,223.5)" y="0" x="0" id="text-entity-ReplaceAction-a456dfec-a944-584f-953e-f0ac86eae95c-attr-10-name" class="er entityLabel">identifier</text><rect height="21" width="57.0625" y="234" x="0" class="er attributeBoxOdd"/><text style="dominant-baseline: middle; font-size: 10.2px;" transform="translate(5,244.5)" y="0" x="0" id="text-entity-ReplaceAction-a456dfec-a944-584f-953e-f0ac86eae95c-attr-11-type" class="er entityLabel">stringList</text><rect height="21" width="101.46875" y="234" x="57.0625" class="er attributeBoxOdd"/><text style="dominant-baseline: middle; font-size: 10.2px;" transform="translate(62.0625,244.5)" y="0" x="0" id="text-entity-ReplaceAction-a456dfec-a944-584f-953e-f0ac86eae95c-attr-11-name" class="er entityLabel">image</text><rect height="21" width="57.0625" y="255" x="0" class="er attributeBoxEven"/><text style="dominant-baseline: middle; font-size: 10.2px;" transform="translate(5,265.5)" y="0" x="0" id="text-entity-ReplaceAction-a456dfec-a944-584f-953e-f0ac86eae95c-attr-12-type" class="er entityLabel">stringList</text><rect height="21" width="101.46875" y="255" x="57.0625" class="er attributeBoxEven"/><text style="dominant-baseline: middle; font-size: 10.2px;" transform="translate(62.0625,265.5)" y="0" x="0" id="text-entity-ReplaceAction-a456dfec-a944-584f-953e-f0ac86eae95c-attr-12-name" class="er entityLabel">mainEntityOfPage</text><rect height="21" width="57.0625" y="276" x="0" class="er attributeBoxOdd"/><text style="dominant-baseline: middle; font-size: 10.2px;" transform="translate(5,286.5)" y="0" x="0" id="text-entity-ReplaceAction-a456dfec-a944-584f-953e-f0ac86eae95c-attr-13-type" class="er entityLabel">stringList</text><rect height="21" width="101.46875" y="276" x="57.0625" class="er attributeBoxOdd"/><text style="dominant-baseline: middle; font-size: 10.2px;" transform="translate(62.0625,286.5)" y="0" x="0" id="text-entity-ReplaceAction-a456dfec-a944-584f-953e-f0ac86eae95c-attr-13-name" class="er entityLabel">subjectOf</text></g><g transform="translate(20,417 )" id="entity-Thing-27bc9527-b992-59fc-a0fb-da83e2ff80bf"><rect height="75" width="100" y="0" x="0" class="er entityBox"/><text style="dominant-baseline: middle; text-anchor: middle; font-size: 12px;" transform="translate(50,37.5)" y="0" x="0" id="text-entity-Thing-27bc9527-b992-59fc-a0fb-da83e2ff80bf" class="er entityLabel">Thing</text></g><g transform="translate(478.34765625,417 )" id="entity-HowTo-6f9e6b0e-89c2-59a9-964a-8696b3aa66a4"><rect height="75" width="100" y="0" x="0" class="er entityBox"/><text style="dominant-baseline: middle; text-anchor: middle; font-size: 12px;" transform="translate(50,37.5)" y="0" x="0" id="text-entity-HowTo-6f9e6b0e-89c2-59a9-964a-8696b3aa66a4" class="er entityLabel">HowTo</text></g><g transform="translate(678.34765625,417 )" id="entity-ActionStatusType-935590f3-1b2a-599d-8a3e-9af222825f06"><rect height="75" width="133.390625" y="0" x="0" class="er entityBox"/><text style="dominant-baseline: middle; text-anchor: middle; font-size: 12px;" transform="translate(66.6953125,37.5)" y="0" x="0" id="text-entity-ActionStatusType-935590f3-1b2a-599d-8a3e-9af222825f06" class="er entityLabel">ActionStatusType</text></g><g transform="translate(953.390625,417 )" id="entity-Text-426c5d39-acfc-5487-a6d9-ede67887190e"><rect height="75" width="100" y="0" x="0" class="er entityBox"/><text style="dominant-baseline: middle; text-anchor: middle; font-size: 12px;" transform="translate(50,37.5)" y="0" x="0" id="text-entity-Text-426c5d39-acfc-5487-a6d9-ede67887190e" class="er entityLabel">Text</text></g><g transform="translate(1153.390625,417 )" id="entity-URL-07f78d3e-fd74-5925-b39b-26c1cc2d6b7c"><rect height="75" width="100" y="0" x="0" class="er entityBox"/><text style="dominant-baseline: middle; text-anchor: middle; font-size: 12px;" transform="translate(50,37.5)" y="0" x="0" id="text-entity-URL-07f78d3e-fd74-5925-b39b-26c1cc2d6b7c" class="er entityLabel">URL</text></g><g transform="translate(1353.390625,417 )" id="entity-Action-6cd87d9a-a078-546e-a35b-bee54f477b31"><rect height="75" width="100" y="0" x="0" class="er entityBox"/><text style="dominant-baseline: middle; text-anchor: middle; font-size: 12px;" transform="translate(50,37.5)" y="0" x="0" id="text-entity-Action-6cd87d9a-a078-546e-a35b-bee54f477b31" class="er entityLabel">Action</text></g><rect height="14" width="51.734375" y="281.7559509277344" x="10.512237548828125" class="er relationshipLabelBox"/><text style="text-anchor: middle; dominant-baseline: middle; font-size: 12px;" y="288.7559509277344" x="36.379425048828125" id="rel1" class="er relationshipLabel">replacee</text><rect height="14" width="49.337890625" y="280.34259033203125" x="71.12519073486328" class="er relationshipLabelBox"/><text style="text-anchor: middle; dominant-baseline: middle; font-size: 12px;" y="287.34259033203125" x="95.79413604736328" id="rel2" class="er relationshipLabel">replacer</text><rect height="14" width="57.578125" y="279.7523193359375" x="123.38893127441406" class="er relationshipLabelBox"/><text style="text-anchor: middle; dominant-baseline: middle; font-size: 12px;" y="286.7523193359375" x="152.17799377441406" id="rel3" class="er relationshipLabel">collection</text><rect height="14" width="95.84375" y="283.8528137207031" x="151.64056396484375" class="er relationshipLabelBox"/><text style="text-anchor: middle; dominant-baseline: middle; font-size: 12px;" y="290.8528137207031" x="199.56243896484375" id="rel4" class="er relationshipLabel">targetCollection</text><rect height="14" width="66.11328125" y="296.6890869140625" x="203.51686096191406" class="er relationshipLabelBox"/><text style="text-anchor: middle; dominant-baseline: middle; font-size: 12px;" y="303.6890869140625" x="236.57350158691406" id="rel5" class="er relationshipLabel">instrument</text><rect height="14" width="37.2734375" y="325.3982238769531" x="244.37689208984375" class="er relationshipLabelBox"/><text style="text-anchor: middle; dominant-baseline: middle; font-size: 12px;" y="332.3982238769531" x="263.01361083984375" id="rel6" class="er relationshipLabel">object</text><rect height="14" width="34.244140625" y="369.0111389160156" x="257.6253662109375" class="er relationshipLabelBox"/><text style="text-anchor: middle; dominant-baseline: middle; font-size: 12px;" y="376.0111389160156" x="274.7474365234375" id="rel7" class="er relationshipLabel">result</text><rect height="14" width="82.46875" y="359.48236083984375" x="484.94842529296875" class="er relationshipLabelBox"/><text style="text-anchor: middle; dominant-baseline: middle; font-size: 12px;" y="366.48236083984375" x="526.1828002929688" id="rel8" class="er relationshipLabel">actionProcess</text><rect height="14" width="75.1875" y="303.7046203613281" x="629.2584228515625" class="er relationshipLabelBox"/><text style="text-anchor: middle; dominant-baseline: middle; font-size: 12px;" y="310.7046203613281" x="666.8521728515625" id="rel9" class="er relationshipLabel">actionStatus</text><rect height="14" width="29.1171875" y="391.2547302246094" x="274.330322265625" class="er relationshipLabelBox"/><text style="text-anchor: middle; dominant-baseline: middle; font-size: 12px;" y="398.2547302246094" x="288.888916015625" id="rel10" class="er relationshipLabel">error</text><rect height="14" width="89.953125" y="309.0466003417969" x="711.53759765625" class="er relationshipLabelBox"/><text style="text-anchor: middle; dominant-baseline: middle; font-size: 12px;" y="316.0466003417969" x="756.51416015625" id="rel11" class="er relationshipLabel">alternateName</text><rect height="14" width="161.390625" y="288.29248046875" x="698.1815185546875" class="er relationshipLabelBox"/><text style="text-anchor: middle; dominant-baseline: middle; font-size: 12px;" y="295.29248046875" x="778.8768310546875" id="rel12" class="er relationshipLabel">disambiguatingDescription</text><rect height="14" width="34.03125" y="278.7041320800781" x="796.7054443359375" class="er relationshipLabelBox"/><text style="text-anchor: middle; dominant-baseline: middle; font-size: 12px;" y="285.7041320800781" x="813.7210693359375" id="rel13" class="er relationshipLabel">name</text><rect height="14" width="47.140625" y="280.3463439941406" x="855.0090942382812" class="er relationshipLabelBox"/><text style="text-anchor: middle; dominant-baseline: middle; font-size: 12px;" y="287.3463439941406" x="878.5794067382812" id="rel14" class="er relationshipLabel">sameAs</text><rect height="14" width="90.96875" y="273.0332946777344" x="947.178466796875" class="er relationshipLabelBox"/><text style="text-anchor: middle; dominant-baseline: middle; font-size: 12px;" y="280.0332946777344" x="992.662841796875" id="rel15" class="er relationshipLabel">potentialAction</text><rect height="14" width="15.875" y="273.6856384277344" x="903.4064331054688" class="er relationshipLabelBox"/><text style="text-anchor: middle; dominant-baseline: middle; font-size: 12px;" y="280.6856384277344" x="911.3439331054688" id="rel16" class="er relationshipLabel">url</text></svg>