<svg aria-roledescription="er" role="graphics-document document" viewBox="-85.17988586425781 0 2288.125244140625 407" style="max-width: 2288.13px; background-color: white;" xmlns:xlink="http://www.w3.org/1999/xlink" xmlns="http://www.w3.org/2000/svg" width="100%" id="my-svg"><style>#my-svg{font-family:"trebuchet ms",verdana,arial,sans-serif;font-size:16px;fill:#333;}#my-svg .error-icon{fill:#552222;}#my-svg .error-text{fill:#552222;stroke:#552222;}#my-svg .edge-thickness-normal{stroke-width:1px;}#my-svg .edge-thickness-thick{stroke-width:3.5px;}#my-svg .edge-pattern-solid{stroke-dasharray:0;}#my-svg .edge-thickness-invisible{stroke-width:0;fill:none;}#my-svg .edge-pattern-dashed{stroke-dasharray:3;}#my-svg .edge-pattern-dotted{stroke-dasharray:2;}#my-svg .marker{fill:#333333;stroke:#333333;}#my-svg .marker.cross{stroke:#333333;}#my-svg svg{font-family:"trebuchet ms",verdana,arial,sans-serif;font-size:16px;}#my-svg p{margin:0;}#my-svg .entityBox{fill:#ECECFF;stroke:#9370DB;}#my-svg .attributeBoxOdd{fill:#ffffff;stroke:#9370DB;}#my-svg .attributeBoxEven{fill:#f2f2f2;stroke:#9370DB;}#my-svg .relationshipLabelBox{fill:hsl(80, 100%, 96.2745098039%);opacity:0.7;background-color:hsl(80, 100%, 96.2745098039%);}#my-svg .relationshipLabelBox rect{opacity:0.5;}#my-svg .relationshipLine{stroke:#333333;}#my-svg .entityTitleText{text-anchor:middle;font-size:18px;fill:#333;}#my-svg #MD_PARENT_START{fill:#f5f5f5!important;stroke:#333333!important;stroke-width:1;}#my-svg #MD_PARENT_END{fill:#f5f5f5!important;stroke:#333333!important;stroke-width:1;}#my-svg :root{--mermaid-font-family:"trebuchet ms",verdana,arial,sans-serif;}</style><g/><defs><marker orient="auto" markerHeight="240" markerWidth="190" refY="7" refX="0" id="MD_PARENT_START"><path d="M 18,7 L9,13 L1,7 L9,1 Z"/></marker></defs><defs><marker orient="auto" markerHeight="28" markerWidth="20" refY="7" refX="19" id="MD_PARENT_END"><path d="M 18,7 L9,13 L1,7 L9,1 Z"/></marker></defs><defs><marker orient="auto" markerHeight="18" markerWidth="18" refY="9" refX="0" id="ONLY_ONE_START"><path d="M9,0 L9,18 M15,0 L15,18" fill="none" stroke="gray"/></marker></defs><defs><marker orient="auto" markerHeight="18" markerWidth="18" refY="9" refX="18" id="ONLY_ONE_END"><path d="M3,0 L3,18 M9,0 L9,18" fill="none" stroke="gray"/></marker></defs><defs><marker orient="auto" markerHeight="18" markerWidth="30" refY="9" refX="0" id="ZERO_OR_ONE_START"><circle r="6" cy="9" cx="21" fill="white" stroke="gray"/><path d="M9,0 L9,18" fill="none" stroke="gray"/></marker></defs><defs><marker orient="auto" markerHeight="18" markerWidth="30" refY="9" refX="30" id="ZERO_OR_ONE_END"><circle r="6" cy="9" cx="9" fill="white" stroke="gray"/><path d="M21,0 L21,18" fill="none" stroke="gray"/></marker></defs><defs><marker orient="auto" markerHeight="36" markerWidth="45" refY="18" refX="18" id="ONE_OR_MORE_START"><path d="M0,18 Q 18,0 36,18 Q 18,36 0,18 M42,9 L42,27" fill="none" stroke="gray"/></marker></defs><defs><marker orient="auto" markerHeight="36" markerWidth="45" refY="18" refX="27" id="ONE_OR_MORE_END"><path d="M3,9 L3,27 M9,18 Q27,0 45,18 Q27,36 9,18" fill="none" stroke="gray"/></marker></defs><defs><marker orient="auto" markerHeight="36" markerWidth="57" refY="18" refX="18" id="ZERO_OR_MORE_START"><circle r="6" cy="18" cx="48" fill="white" stroke="gray"/><path d="M0,18 Q18,0 36,18 Q18,36 0,18" fill="none" stroke="gray"/></marker></defs><defs><marker orient="auto" markerHeight="36" markerWidth="57" refY="18" refX="39" id="ZERO_OR_MORE_END"><circle r="6" cy="18" cx="9" fill="white" stroke="gray"/><path d="M21,18 Q39,0 57,18 Q39,36 21,18" fill="none" stroke="gray"/></marker></defs><path style="stroke: gray; fill: none;" marker-start="url(#ONLY_ONE_START)" marker-end="url(#ZERO_OR_MORE_END)" d="M646.5,129.625L508.75,151.688C371,173.75,95.5,217.875,-8.917,251.604C-113.333,285.333,-46.667,308.667,-13.333,320.333L20,332" class="er relationshipLine"/><path style="stroke: gray; fill: none;" marker-start="url(#ONLY_ONE_START)" marker-end="url(#ZERO_OR_MORE_END)" d="M646.5,131.304L525.417,153.087C404.333,174.869,162.167,218.435,57.75,249.94C-46.667,281.444,-13.333,300.889,3.333,310.611L20,320.333" class="er relationshipLine"/><path style="stroke: gray; fill: none;" marker-start="url(#ONLY_ONE_START)" marker-end="url(#ZERO_OR_MORE_END)" d="M646.5,133.455L542.083,154.879C437.667,176.303,228.833,219.152,129.179,248.909C29.524,278.667,39.048,295.333,43.81,303.667L48.571,312" class="er relationshipLine"/><path style="stroke: gray; fill: none;" marker-start="url(#ONLY_ONE_START)" marker-end="url(#ZERO_OR_MORE_END)" d="M646.5,155.863L608.75,173.553C571,191.242,495.5,226.621,457.75,252.644C420,278.667,420,295.333,420,303.667L420,312" class="er relationshipLine"/><path style="stroke: gray; fill: none;" marker-start="url(#ONLY_ONE_START)" marker-end="url(#ZERO_OR_MORE_END)" d="M660.413,212L654.236,220.333C648.059,228.667,635.705,245.333,629.528,262C623.352,278.667,623.352,295.333,623.352,303.667L623.352,312" class="er relationshipLine"/><path style="stroke: gray; fill: none;" marker-start="url(#ONLY_ONE_START)" marker-end="url(#ZERO_OR_MORE_END)" d="M802.728,212L808.905,220.333C815.082,228.667,827.435,245.333,833.612,262C839.789,278.667,839.789,295.333,839.789,303.667L839.789,312" class="er relationshipLine"/><path style="stroke: gray; fill: none;" marker-start="url(#ONLY_ONE_START)" marker-end="url(#ZERO_OR_MORE_END)" d="M816.641,152.656L858.935,170.88C901.229,189.104,985.818,225.552,1028.112,252.109C1070.406,278.667,1070.406,295.333,1070.406,303.667L1070.406,312" class="er relationshipLine"/><path style="stroke: gray; fill: none;" marker-start="url(#ONLY_ONE_START)" marker-end="url(#ZERO_OR_MORE_END)" d="M816.641,138.324L895.191,158.936C973.742,179.549,1130.844,220.775,1209.395,249.721C1287.945,278.667,1287.945,295.333,1287.945,303.667L1287.945,312" class="er relationshipLine"/><path style="stroke: gray; fill: none;" marker-start="url(#ONLY_ONE_START)" marker-end="url(#ZERO_OR_MORE_END)" d="M816.641,132.021L931.669,153.684C1046.698,175.347,1276.755,218.674,1391.784,248.67C1506.813,278.667,1506.813,295.333,1506.813,303.667L1506.813,312" class="er relationshipLine"/><path style="stroke: gray; fill: none;" marker-start="url(#ONLY_ONE_START)" marker-end="url(#ZERO_OR_MORE_END)" d="M816.641,128.469L968.473,150.724C1120.305,172.98,1423.969,217.49,1575.801,248.078C1727.633,278.667,1727.633,295.333,1727.633,303.667L1727.633,312" class="er relationshipLine"/><path style="stroke: gray; fill: none;" marker-start="url(#ONLY_ONE_START)" marker-end="url(#ZERO_OR_MORE_END)" d="M646.5,136.309L558.75,157.257C471,178.206,295.5,220.103,202.988,249.385C110.476,278.667,100.952,295.333,96.19,303.667L91.429,312" class="er relationshipLine"/><path style="stroke: gray; fill: none;" marker-start="url(#ONLY_ONE_START)" marker-end="url(#ZERO_OR_MORE_END)" d="M646.5,140.279L575.417,160.566C504.333,180.852,362.167,221.426,274.417,251.435C186.667,281.444,153.333,300.889,136.667,310.611L120,320.333" class="er relationshipLine"/><path style="stroke: gray; fill: none;" marker-start="url(#ONLY_ONE_START)" marker-end="url(#ZERO_OR_MORE_END)" d="M646.5,146.178L592.083,165.481C537.667,184.785,428.833,223.393,341.083,254.363C253.333,285.333,186.667,308.667,153.333,320.333L120,332" class="er relationshipLine"/><path style="stroke: gray; fill: none;" marker-start="url(#ONLY_ONE_START)" marker-end="url(#ZERO_OR_MORE_END)" d="M816.641,126.812L993.915,149.344C1171.19,171.875,1525.74,216.937,1708.029,247.802C1890.319,278.667,1900.349,295.333,1905.363,303.667L1910.378,312" class="er relationshipLine"/><path style="stroke: gray; fill: none;" marker-start="url(#ONLY_ONE_START)" marker-end="url(#ZERO_OR_MORE_END)" d="M816.641,124.863L1036.025,147.719C1255.409,170.575,1694.177,216.288,1913.561,247.477C2132.945,278.667,2132.945,295.333,2132.945,303.667L2132.945,312" class="er relationshipLine"/><path style="stroke: gray; fill: none;" marker-start="url(#ONLY_ONE_START)" marker-end="url(#ZERO_OR_MORE_END)" d="M816.641,125.925L1011.025,148.604C1205.409,171.284,1594.177,216.642,1783.799,247.654C1973.422,278.667,1963.898,295.333,1959.136,303.667L1954.374,312" class="er relationshipLine"/><g transform="translate(646.5,20 )" id="entity-ReportedDoseSchedule-365280ec-96c6-5522-a39b-7120138e7596"><rect height="192" width="170.140625" y="0" x="0" class="er entityBox"/><text style="dominant-baseline: middle; text-anchor: middle; font-size: 12px;" transform="translate(85.0703125,12)" y="0" x="0" id="text-entity-ReportedDoseSchedule-365280ec-96c6-5522-a39b-7120138e7596" class="er entityLabel">ReportedDoseSchedule</text><rect height="21" width="62.8671875" y="24" x="0" class="er attributeBoxOdd"/><text style="dominant-baseline: middle; font-size: 10.2px;" transform="translate(5,34.5)" y="0" x="0" id="text-entity-ReportedDoseSchedule-365280ec-96c6-5522-a39b-7120138e7596-attr-1-type" class="er entityLabel">stringList</text><rect height="21" width="107.2734375" y="24" x="62.8671875" class="er attributeBoxOdd"/><text style="dominant-baseline: middle; font-size: 10.2px;" transform="translate(67.8671875,34.5)" y="0" x="0" id="text-entity-ReportedDoseSchedule-365280ec-96c6-5522-a39b-7120138e7596-attr-1-name" class="er entityLabel">doseValue</text><rect height="21" width="62.8671875" y="45" x="0" class="er attributeBoxEven"/><text style="dominant-baseline: middle; font-size: 10.2px;" transform="translate(5,55.5)" y="0" x="0" id="text-entity-ReportedDoseSchedule-365280ec-96c6-5522-a39b-7120138e7596-attr-2-type" class="er entityLabel">stringList</text><rect height="21" width="107.2734375" y="45" x="62.8671875" class="er attributeBoxEven"/><text style="dominant-baseline: middle; font-size: 10.2px;" transform="translate(67.8671875,55.5)" y="0" x="0" id="text-entity-ReportedDoseSchedule-365280ec-96c6-5522-a39b-7120138e7596-attr-2-name" class="er entityLabel">legalStatus</text><rect height="21" width="62.8671875" y="66" x="0" class="er attributeBoxOdd"/><text style="dominant-baseline: middle; font-size: 10.2px;" transform="translate(5,76.5)" y="0" x="0" id="text-entity-ReportedDoseSchedule-365280ec-96c6-5522-a39b-7120138e7596-attr-3-type" class="er entityLabel">stringList</text><rect height="21" width="107.2734375" y="66" x="62.8671875" class="er attributeBoxOdd"/><text style="dominant-baseline: middle; font-size: 10.2px;" transform="translate(67.8671875,76.5)" y="0" x="0" id="text-entity-ReportedDoseSchedule-365280ec-96c6-5522-a39b-7120138e7596-attr-3-name" class="er entityLabel">additionalType</text><rect height="21" width="62.8671875" y="87" x="0" class="er attributeBoxEven"/><text style="dominant-baseline: middle; font-size: 10.2px;" transform="translate(5,97.5)" y="0" x="0" id="text-entity-ReportedDoseSchedule-365280ec-96c6-5522-a39b-7120138e7596-attr-4-type" class="er entityLabel">stringList</text><rect height="21" width="107.2734375" y="87" x="62.8671875" class="er attributeBoxEven"/><text style="dominant-baseline: middle; font-size: 10.2px;" transform="translate(67.8671875,97.5)" y="0" x="0" id="text-entity-ReportedDoseSchedule-365280ec-96c6-5522-a39b-7120138e7596-attr-4-name" class="er entityLabel">description</text><rect height="21" width="62.8671875" y="108" x="0" class="er attributeBoxOdd"/><text style="dominant-baseline: middle; font-size: 10.2px;" transform="translate(5,118.5)" y="0" x="0" id="text-entity-ReportedDoseSchedule-365280ec-96c6-5522-a39b-7120138e7596-attr-5-type" class="er entityLabel">stringList</text><rect height="21" width="107.2734375" y="108" x="62.8671875" class="er attributeBoxOdd"/><text style="dominant-baseline: middle; font-size: 10.2px;" transform="translate(67.8671875,118.5)" y="0" x="0" id="text-entity-ReportedDoseSchedule-365280ec-96c6-5522-a39b-7120138e7596-attr-5-name" class="er entityLabel">identifier</text><rect height="21" width="62.8671875" y="129" x="0" class="er attributeBoxEven"/><text style="dominant-baseline: middle; font-size: 10.2px;" transform="translate(5,139.5)" y="0" x="0" id="text-entity-ReportedDoseSchedule-365280ec-96c6-5522-a39b-7120138e7596-attr-6-type" class="er entityLabel">stringList</text><rect height="21" width="107.2734375" y="129" x="62.8671875" class="er attributeBoxEven"/><text style="dominant-baseline: middle; font-size: 10.2px;" transform="translate(67.8671875,139.5)" y="0" x="0" id="text-entity-ReportedDoseSchedule-365280ec-96c6-5522-a39b-7120138e7596-attr-6-name" class="er entityLabel">image</text><rect height="21" width="62.8671875" y="150" x="0" class="er attributeBoxOdd"/><text style="dominant-baseline: middle; font-size: 10.2px;" transform="translate(5,160.5)" y="0" x="0" id="text-entity-ReportedDoseSchedule-365280ec-96c6-5522-a39b-7120138e7596-attr-7-type" class="er entityLabel">stringList</text><rect height="21" width="107.2734375" y="150" x="62.8671875" class="er attributeBoxOdd"/><text style="dominant-baseline: middle; font-size: 10.2px;" transform="translate(67.8671875,160.5)" y="0" x="0" id="text-entity-ReportedDoseSchedule-365280ec-96c6-5522-a39b-7120138e7596-attr-7-name" class="er entityLabel">mainEntityOfPage</text><rect height="21" width="62.8671875" y="171" x="0" class="er attributeBoxEven"/><text style="dominant-baseline: middle; font-size: 10.2px;" transform="translate(5,181.5)" y="0" x="0" id="text-entity-ReportedDoseSchedule-365280ec-96c6-5522-a39b-7120138e7596-attr-8-type" class="er entityLabel">stringList</text><rect height="21" width="107.2734375" y="171" x="62.8671875" class="er attributeBoxEven"/><text style="dominant-baseline: middle; font-size: 10.2px;" transform="translate(67.8671875,181.5)" y="0" x="0" id="text-entity-ReportedDoseSchedule-365280ec-96c6-5522-a39b-7120138e7596-attr-8-name" class="er entityLabel">subjectOf</text></g><g transform="translate(20,312 )" id="entity-Text-426c5d39-acfc-5487-a6d9-ede67887190e"><rect height="75" width="100" y="0" x="0" class="er entityBox"/><text style="dominant-baseline: middle; text-anchor: middle; font-size: 12px;" transform="translate(50,37.5)" y="0" x="0" id="text-entity-Text-426c5d39-acfc-5487-a6d9-ede67887190e" class="er entityLabel">Text</text></g><g transform="translate(366.6484375,312 )" id="entity-MedicalCode-340ab1f3-b0e0-51ff-b309-32031f623ceb"><rect height="75" width="106.703125" y="0" x="0" class="er entityBox"/><text style="dominant-baseline: middle; text-anchor: middle; font-size: 12px;" transform="translate(53.3515625,37.5)" y="0" x="0" id="text-entity-MedicalCode-340ab1f3-b0e0-51ff-b309-32031f623ceb" class="er entityLabel">MedicalCode</text></g><g transform="translate(573.3515625,312 )" id="entity-Grant-291daf2c-8722-576f-890e-1045bc6484c0"><rect height="75" width="100" y="0" x="0" class="er entityBox"/><text style="dominant-baseline: middle; text-anchor: middle; font-size: 12px;" transform="translate(50,37.5)" y="0" x="0" id="text-entity-Grant-291daf2c-8722-576f-890e-1045bc6484c0" class="er entityLabel">Grant</text></g><g transform="translate(773.3515625,312 )" id="entity-MedicalGuideline-a05959e1-803b-55cd-8b3c-b530a54fde23"><rect height="75" width="132.875" y="0" x="0" class="er entityBox"/><text style="dominant-baseline: middle; text-anchor: middle; font-size: 12px;" transform="translate(66.4375,37.5)" y="0" x="0" id="text-entity-MedicalGuideline-a05959e1-803b-55cd-8b3c-b530a54fde23" class="er entityLabel">MedicalGuideline</text></g><g transform="translate(1006.2265625,312 )" id="entity-MedicineSystem-74197b84-67e0-5471-ab59-f3fd7c3c0e72"><rect height="75" width="128.359375" y="0" x="0" class="er entityBox"/><text style="dominant-baseline: middle; text-anchor: middle; font-size: 12px;" transform="translate(64.1796875,37.5)" y="0" x="0" id="text-entity-MedicineSystem-74197b84-67e0-5471-ab59-f3fd7c3c0e72" class="er entityLabel">MedicineSystem</text></g><g transform="translate(1234.5859375,312 )" id="entity-Organization-ef1721ab-1f62-5ef5-a525-a6c60c2f6032"><rect height="75" width="106.71875" y="0" x="0" class="er entityBox"/><text style="dominant-baseline: middle; text-anchor: middle; font-size: 12px;" transform="translate(53.359375,37.5)" y="0" x="0" id="text-entity-Organization-ef1721ab-1f62-5ef5-a525-a6c60c2f6032" class="er entityLabel">Organization</text></g><g transform="translate(1441.3046875,312 )" id="entity-MedicalSpecialty-0f4a20d3-5a5d-5b81-b412-da395afebba8"><rect height="75" width="131.015625" y="0" x="0" class="er entityBox"/><text style="dominant-baseline: middle; text-anchor: middle; font-size: 12px;" transform="translate(65.5078125,37.5)" y="0" x="0" id="text-entity-MedicalSpecialty-0f4a20d3-5a5d-5b81-b412-da395afebba8" class="er entityLabel">MedicalSpecialty</text></g><g transform="translate(1672.3203125,312 )" id="entity-MedicalStudy-22dea251-12b7-5654-af29-afad6ffe12b1"><rect height="75" width="110.625" y="0" x="0" class="er entityBox"/><text style="dominant-baseline: middle; text-anchor: middle; font-size: 12px;" transform="translate(55.3125,37.5)" y="0" x="0" id="text-entity-MedicalStudy-22dea251-12b7-5654-af29-afad6ffe12b1" class="er entityLabel">MedicalStudy</text></g><g transform="translate(1882.9453125,312 )" id="entity-URL-07f78d3e-fd74-5925-b39b-26c1cc2d6b7c"><rect height="75" width="100" y="0" x="0" class="er entityBox"/><text style="dominant-baseline: middle; text-anchor: middle; font-size: 12px;" transform="translate(50,37.5)" y="0" x="0" id="text-entity-URL-07f78d3e-fd74-5925-b39b-26c1cc2d6b7c" class="er entityLabel">URL</text></g><g transform="translate(2082.9453125,312 )" id="entity-Action-6cd87d9a-a078-546e-a35b-bee54f477b31"><rect height="75" width="100" y="0" x="0" class="er entityBox"/><text style="dominant-baseline: middle; text-anchor: middle; font-size: 12px;" transform="translate(50,37.5)" y="0" x="0" id="text-entity-Action-6cd87d9a-a078-546e-a35b-bee54f477b31" class="er entityLabel">Action</text></g><rect height="14" width="60.1875" y="190.8711700439453" x="204.0301971435547" class="er relationshipLabelBox"/><text style="text-anchor: middle; dominant-baseline: middle; font-size: 12px;" y="197.8711700439453" x="234.1239471435547" id="rel1" class="er relationshipLabel">frequency</text><rect height="14" width="53.31640625" y="190.92562866210938" x="258.38153076171875" class="er relationshipLabelBox"/><text style="text-anchor: middle; dominant-baseline: middle; font-size: 12px;" y="197.92562866210938" x="285.03973388671875" id="rel2" class="er relationshipLabel">doseUnit</text><rect height="14" width="99.546875" y="193.11807250976562" x="277.9578552246094" class="er relationshipLabelBox"/><text style="text-anchor: middle; dominant-baseline: middle; font-size: 12px;" y="200.11807250976562" x="327.7312927246094" id="rel3" class="er relationshipLabel">targetPopulation</text><rect height="14" width="28.953125" y="211.13644409179688" x="502.8583984375" class="er relationshipLabelBox"/><text style="text-anchor: middle; dominant-baseline: middle; font-size: 12px;" y="218.13644409179688" x="517.3349609375" id="rel4" class="er relationshipLabel">code</text><rect height="14" width="45.609375" y="251.15255737304688" x="608.2550659179688" class="er relationshipLabelBox"/><text style="text-anchor: middle; dominant-baseline: middle; font-size: 12px;" y="258.1525573730469" x="631.0597534179688" id="rel5" class="er relationshipLabel">funding</text><rect height="14" width="55.21875" y="251.15292358398438" x="804.4710083007812" class="er relationshipLabelBox"/><text style="text-anchor: middle; dominant-baseline: middle; font-size: 12px;" y="258.1529235839844" x="832.0803833007812" id="rel6" class="er relationshipLabel">guideline</text><rect height="14" width="99.703125" y="208.75003051757812" x="909.3873291015625" class="er relationshipLabelBox"/><text style="text-anchor: middle; dominant-baseline: middle; font-size: 12px;" y="215.75003051757812" x="959.2388916015625" id="rel7" class="er relationshipLabel">medicineSystem</text><rect height="14" width="124.953125" y="198.08778381347656" x="1003.6103515625" class="er relationshipLabelBox"/><text style="text-anchor: middle; dominant-baseline: middle; font-size: 12px;" y="205.08778381347656" x="1066.0869140625" id="rel8" class="er relationshipLabel">recognizingAuthority</text><rect height="14" width="104.578125" y="193.52210998535156" x="1121.715087890625" class="er relationshipLabelBox"/><text style="text-anchor: middle; dominant-baseline: middle; font-size: 12px;" y="200.52210998535156" x="1174.004150390625" id="rel9" class="er relationshipLabel">relevantSpecialty</text><rect height="14" width="33.28125" y="191.02548217773438" x="1266.6854248046875" class="er relationshipLabelBox"/><text style="text-anchor: middle; dominant-baseline: middle; font-size: 12px;" y="198.02548217773438" x="1283.3260498046875" id="rel10" class="er relationshipLabel">study</text><rect height="14" width="89.953125" y="198.8851776123047" x="315.2710266113281" class="er relationshipLabelBox"/><text style="text-anchor: middle; dominant-baseline: middle; font-size: 12px;" y="205.8851776123047" x="360.2475891113281" id="rel11" class="er relationshipLabel">alternateName</text><rect height="14" width="161.390625" y="211.12869262695312" x="297.9725341796875" class="er relationshipLabelBox"/><text style="text-anchor: middle; dominant-baseline: middle; font-size: 12px;" y="218.12869262695312" x="378.6678466796875" id="rel12" class="er relationshipLabel">disambiguatingDescription</text><rect height="14" width="34.03125" y="232.42459106445312" x="366.352783203125" class="er relationshipLabelBox"/><text style="text-anchor: middle; dominant-baseline: middle; font-size: 12px;" y="239.42459106445312" x="383.368408203125" id="rel13" class="er relationshipLabel">name</text><rect height="14" width="47.140625" y="191.33645629882812" x="1346.9573974609375" class="er relationshipLabelBox"/><text style="text-anchor: middle; dominant-baseline: middle; font-size: 12px;" y="198.33645629882812" x="1370.5277099609375" id="rel14" class="er relationshipLabel">sameAs</text><rect height="14" width="90.96875" y="188.56800842285156" x="1439.179443359375" class="er relationshipLabelBox"/><text style="text-anchor: middle; dominant-baseline: middle; font-size: 12px;" y="195.56800842285156" x="1484.663818359375" id="rel15" class="er relationshipLabel">potentialAction</text><rect height="14" width="15.875" y="188.2929229736328" x="1393.5709228515625" class="er relationshipLabelBox"/><text style="text-anchor: middle; dominant-baseline: middle; font-size: 12px;" y="195.2929229736328" x="1401.5084228515625" id="rel16" class="er relationshipLabel">url</text></svg>