<svg aria-roledescription="er" role="graphics-document document" viewBox="0 0 2085.609375 470" style="max-width: 2085.61px; background-color: white;" xmlns:xlink="http://www.w3.org/1999/xlink" xmlns="http://www.w3.org/2000/svg" width="100%" id="my-svg"><style>#my-svg{font-family:"trebuchet ms",verdana,arial,sans-serif;font-size:16px;fill:#333;}#my-svg .error-icon{fill:#552222;}#my-svg .error-text{fill:#552222;stroke:#552222;}#my-svg .edge-thickness-normal{stroke-width:1px;}#my-svg .edge-thickness-thick{stroke-width:3.5px;}#my-svg .edge-pattern-solid{stroke-dasharray:0;}#my-svg .edge-thickness-invisible{stroke-width:0;fill:none;}#my-svg .edge-pattern-dashed{stroke-dasharray:3;}#my-svg .edge-pattern-dotted{stroke-dasharray:2;}#my-svg .marker{fill:#333333;stroke:#333333;}#my-svg .marker.cross{stroke:#333333;}#my-svg svg{font-family:"trebuchet ms",verdana,arial,sans-serif;font-size:16px;}#my-svg p{margin:0;}#my-svg .entityBox{fill:#ECECFF;stroke:#9370DB;}#my-svg .attributeBoxOdd{fill:#ffffff;stroke:#9370DB;}#my-svg .attributeBoxEven{fill:#f2f2f2;stroke:#9370DB;}#my-svg .relationshipLabelBox{fill:hsl(80, 100%, 96.2745098039%);opacity:0.7;background-color:hsl(80, 100%, 96.2745098039%);}#my-svg .relationshipLabelBox rect{opacity:0.5;}#my-svg .relationshipLine{stroke:#333333;}#my-svg .entityTitleText{text-anchor:middle;font-size:18px;fill:#333;}#my-svg #MD_PARENT_START{fill:#f5f5f5!important;stroke:#333333!important;stroke-width:1;}#my-svg #MD_PARENT_END{fill:#f5f5f5!important;stroke:#333333!important;stroke-width:1;}#my-svg :root{--mermaid-font-family:"trebuchet ms",verdana,arial,sans-serif;}</style><g/><defs><marker orient="auto" markerHeight="240" markerWidth="190" refY="7" refX="0" id="MD_PARENT_START"><path d="M 18,7 L9,13 L1,7 L9,1 Z"/></marker></defs><defs><marker orient="auto" markerHeight="28" markerWidth="20" refY="7" refX="19" id="MD_PARENT_END"><path d="M 18,7 L9,13 L1,7 L9,1 Z"/></marker></defs><defs><marker orient="auto" markerHeight="18" markerWidth="18" refY="9" refX="0" id="ONLY_ONE_START"><path d="M9,0 L9,18 M15,0 L15,18" fill="none" stroke="gray"/></marker></defs><defs><marker orient="auto" markerHeight="18" markerWidth="18" refY="9" refX="18" id="ONLY_ONE_END"><path d="M3,0 L3,18 M9,0 L9,18" fill="none" stroke="gray"/></marker></defs><defs><marker orient="auto" markerHeight="18" markerWidth="30" refY="9" refX="0" id="ZERO_OR_ONE_START"><circle r="6" cy="9" cx="21" fill="white" stroke="gray"/><path d="M9,0 L9,18" fill="none" stroke="gray"/></marker></defs><defs><marker orient="auto" markerHeight="18" markerWidth="30" refY="9" refX="30" id="ZERO_OR_ONE_END"><circle r="6" cy="9" cx="9" fill="white" stroke="gray"/><path d="M21,0 L21,18" fill="none" stroke="gray"/></marker></defs><defs><marker orient="auto" markerHeight="36" markerWidth="45" refY="18" refX="18" id="ONE_OR_MORE_START"><path d="M0,18 Q 18,0 36,18 Q 18,36 0,18 M42,9 L42,27" fill="none" stroke="gray"/></marker></defs><defs><marker orient="auto" markerHeight="36" markerWidth="45" refY="18" refX="27" id="ONE_OR_MORE_END"><path d="M3,9 L3,27 M9,18 Q27,0 45,18 Q27,36 9,18" fill="none" stroke="gray"/></marker></defs><defs><marker orient="auto" markerHeight="36" markerWidth="57" refY="18" refX="18" id="ZERO_OR_MORE_START"><circle r="6" cy="18" cx="48" fill="white" stroke="gray"/><path d="M0,18 Q18,0 36,18 Q18,36 0,18" fill="none" stroke="gray"/></marker></defs><defs><marker orient="auto" markerHeight="36" markerWidth="57" refY="18" refX="39" id="ZERO_OR_MORE_END"><circle r="6" cy="18" cx="9" fill="white" stroke="gray"/><path d="M21,18 Q39,0 57,18 Q39,36 21,18" fill="none" stroke="gray"/></marker></defs><path style="stroke: gray; fill: none;" marker-start="url(#ONLY_ONE_START)" marker-end="url(#ZERO_OR_MORE_END)" d="M678.234,167.983L576.962,194.152C475.69,220.322,273.146,272.661,171.874,307.164C70.602,341.667,70.602,358.333,70.602,366.667L70.602,375" class="er relationshipLine"/><path style="stroke: gray; fill: none;" marker-start="url(#ONLY_ONE_START)" marker-end="url(#ZERO_OR_MORE_END)" d="M678.234,173.72L602.012,198.933C525.79,224.147,373.346,274.573,301.915,308.12C230.483,341.667,240.065,358.333,244.855,366.667L249.646,375" class="er relationshipLine"/><path style="stroke: gray; fill: none;" marker-start="url(#ONLY_ONE_START)" marker-end="url(#ZERO_OR_MORE_END)" d="M678.234,179.748L618.729,203.957C559.224,228.165,440.214,276.583,375.946,309.125C311.679,341.667,302.156,358.333,297.394,366.667L292.632,375" class="er relationshipLine"/><path style="stroke: gray; fill: none;" marker-start="url(#ONLY_ONE_START)" marker-end="url(#ZERO_OR_MORE_END)" d="M678.234,189.337L635.396,211.947C592.557,234.558,506.88,279.779,486.758,313.059C466.635,346.339,512.068,367.677,534.784,378.347L557.5,389.016" class="er relationshipLine"/><path style="stroke: gray; fill: none;" marker-start="url(#ONLY_ONE_START)" marker-end="url(#ZERO_OR_MORE_END)" d="M836.766,233.446L850.839,248.705C864.911,263.964,893.057,294.482,907.13,318.074C921.203,341.667,921.203,358.333,921.203,366.667L921.203,375" class="er relationshipLine"/><path style="stroke: gray; fill: none;" marker-start="url(#ONLY_ONE_START)" marker-end="url(#ZERO_OR_MORE_END)" d="M836.766,183.474L888.74,207.061C940.714,230.649,1044.661,277.825,1096.635,309.746C1148.609,341.667,1148.609,358.333,1148.609,366.667L1148.609,375" class="er relationshipLine"/><path style="stroke: gray; fill: none;" marker-start="url(#ONLY_ONE_START)" marker-end="url(#ZERO_OR_MORE_END)" d="M678.234,207.042L652.063,226.702C625.891,246.362,573.547,285.681,555.594,313.674C537.641,341.667,554.078,358.333,562.297,366.667L570.516,375" class="er relationshipLine"/><path style="stroke: gray; fill: none;" marker-start="url(#ONLY_ONE_START)" marker-end="url(#ZERO_OR_MORE_END)" d="M836.766,170.026L927.656,195.855C1018.547,221.684,1200.328,273.342,1291.219,307.504C1382.109,341.667,1382.109,358.333,1382.109,366.667L1382.109,375" class="er relationshipLine"/><path style="stroke: gray; fill: none;" marker-start="url(#ONLY_ONE_START)" marker-end="url(#ZERO_OR_MORE_END)" d="M836.766,163.896L966.573,190.747C1096.38,217.597,1355.995,271.299,1485.802,306.483C1615.609,341.667,1615.609,358.333,1615.609,366.667L1615.609,375" class="er relationshipLine"/><path style="stroke: gray; fill: none;" marker-start="url(#ONLY_ONE_START)" marker-end="url(#ZERO_OR_MORE_END)" d="M678.234,250.728L668.729,263.107C659.224,275.485,640.214,300.243,629.403,320.955C618.593,341.667,615.983,358.333,614.678,366.667L613.373,375" class="er relationshipLine"/><path style="stroke: gray; fill: none;" marker-start="url(#ONLY_ONE_START)" marker-end="url(#ZERO_OR_MORE_END)" d="M731.428,275L729.724,283.333C728.019,291.667,724.611,308.333,712.078,325C699.545,341.667,677.888,358.333,667.059,366.667L656.23,375" class="er relationshipLine"/><path style="stroke: gray; fill: none;" marker-start="url(#ONLY_ONE_START)" marker-end="url(#ZERO_OR_MORE_END)" d="M803.259,275L806.249,283.333C809.24,291.667,815.222,308.333,790.929,327.838C766.635,347.343,712.068,369.685,684.784,380.856L657.5,392.028" class="er relationshipLine"/><path style="stroke: gray; fill: none;" marker-start="url(#ONLY_ONE_START)" marker-end="url(#ZERO_OR_MORE_END)" d="M836.766,161.456L991.573,188.714C1146.38,215.971,1455.995,270.485,1615.564,306.076C1775.133,341.667,1784.657,358.333,1789.419,366.667L1794.181,375" class="er relationshipLine"/><path style="stroke: gray; fill: none;" marker-start="url(#ONLY_ONE_START)" marker-end="url(#ZERO_OR_MORE_END)" d="M836.766,158.683L1033.24,186.403C1229.714,214.122,1622.661,269.561,1819.135,305.614C2015.609,341.667,2015.609,358.333,2015.609,366.667L2015.609,375" class="er relationshipLine"/><path style="stroke: gray; fill: none;" marker-start="url(#ONLY_ONE_START)" marker-end="url(#ZERO_OR_MORE_END)" d="M836.766,160.197L1008.24,187.664C1179.714,215.131,1522.661,270.066,1689.374,305.866C1856.086,341.667,1846.562,358.333,1841.8,366.667L1837.038,375" class="er relationshipLine"/><g transform="translate(678.234375,20 )" id="entity-ReservationPackage-7dc1e998-97f3-5ab4-965f-77e413cdff44"><rect height="255" width="158.53125" y="0" x="0" class="er entityBox"/><text style="dominant-baseline: middle; text-anchor: middle; font-size: 12px;" transform="translate(79.265625,12)" y="0" x="0" id="text-entity-ReservationPackage-7dc1e998-97f3-5ab4-965f-77e413cdff44" class="er entityLabel">ReservationPackage</text><rect height="21" width="57.0625" y="24" x="0" class="er attributeBoxOdd"/><text style="dominant-baseline: middle; font-size: 10.2px;" transform="translate(5,34.5)" y="0" x="0" id="text-entity-ReservationPackage-7dc1e998-97f3-5ab4-965f-77e413cdff44-attr-1-type" class="er entityLabel">stringList</text><rect height="21" width="101.46875" y="24" x="57.0625" class="er attributeBoxOdd"/><text style="dominant-baseline: middle; font-size: 10.2px;" transform="translate(62.0625,34.5)" y="0" x="0" id="text-entity-ReservationPackage-7dc1e998-97f3-5ab4-965f-77e413cdff44-attr-1-name" class="er entityLabel">bookingAgent</text><rect height="21" width="57.0625" y="45" x="0" class="er attributeBoxEven"/><text style="dominant-baseline: middle; font-size: 10.2px;" transform="translate(5,55.5)" y="0" x="0" id="text-entity-ReservationPackage-7dc1e998-97f3-5ab4-965f-77e413cdff44-attr-2-type" class="er entityLabel">stringList</text><rect height="21" width="101.46875" y="45" x="57.0625" class="er attributeBoxEven"/><text style="dominant-baseline: middle; font-size: 10.2px;" transform="translate(62.0625,55.5)" y="0" x="0" id="text-entity-ReservationPackage-7dc1e998-97f3-5ab4-965f-77e413cdff44-attr-2-name" class="er entityLabel">broker</text><rect height="21" width="57.0625" y="66" x="0" class="er attributeBoxOdd"/><text style="dominant-baseline: middle; font-size: 10.2px;" transform="translate(5,76.5)" y="0" x="0" id="text-entity-ReservationPackage-7dc1e998-97f3-5ab4-965f-77e413cdff44-attr-3-type" class="er entityLabel">stringList</text><rect height="21" width="101.46875" y="66" x="57.0625" class="er attributeBoxOdd"/><text style="dominant-baseline: middle; font-size: 10.2px;" transform="translate(62.0625,76.5)" y="0" x="0" id="text-entity-ReservationPackage-7dc1e998-97f3-5ab4-965f-77e413cdff44-attr-3-name" class="er entityLabel">provider</text><rect height="21" width="57.0625" y="87" x="0" class="er attributeBoxEven"/><text style="dominant-baseline: middle; font-size: 10.2px;" transform="translate(5,97.5)" y="0" x="0" id="text-entity-ReservationPackage-7dc1e998-97f3-5ab4-965f-77e413cdff44-attr-4-type" class="er entityLabel">stringList</text><rect height="21" width="101.46875" y="87" x="57.0625" class="er attributeBoxEven"/><text style="dominant-baseline: middle; font-size: 10.2px;" transform="translate(62.0625,97.5)" y="0" x="0" id="text-entity-ReservationPackage-7dc1e998-97f3-5ab4-965f-77e413cdff44-attr-4-name" class="er entityLabel">totalPrice</text><rect height="21" width="57.0625" y="108" x="0" class="er attributeBoxOdd"/><text style="dominant-baseline: middle; font-size: 10.2px;" transform="translate(5,118.5)" y="0" x="0" id="text-entity-ReservationPackage-7dc1e998-97f3-5ab4-965f-77e413cdff44-attr-5-type" class="er entityLabel">stringList</text><rect height="21" width="101.46875" y="108" x="57.0625" class="er attributeBoxOdd"/><text style="dominant-baseline: middle; font-size: 10.2px;" transform="translate(62.0625,118.5)" y="0" x="0" id="text-entity-ReservationPackage-7dc1e998-97f3-5ab4-965f-77e413cdff44-attr-5-name" class="er entityLabel">underName</text><rect height="21" width="57.0625" y="129" x="0" class="er attributeBoxEven"/><text style="dominant-baseline: middle; font-size: 10.2px;" transform="translate(5,139.5)" y="0" x="0" id="text-entity-ReservationPackage-7dc1e998-97f3-5ab4-965f-77e413cdff44-attr-6-type" class="er entityLabel">stringList</text><rect height="21" width="101.46875" y="129" x="57.0625" class="er attributeBoxEven"/><text style="dominant-baseline: middle; font-size: 10.2px;" transform="translate(62.0625,139.5)" y="0" x="0" id="text-entity-ReservationPackage-7dc1e998-97f3-5ab4-965f-77e413cdff44-attr-6-name" class="er entityLabel">additionalType</text><rect height="21" width="57.0625" y="150" x="0" class="er attributeBoxOdd"/><text style="dominant-baseline: middle; font-size: 10.2px;" transform="translate(5,160.5)" y="0" x="0" id="text-entity-ReservationPackage-7dc1e998-97f3-5ab4-965f-77e413cdff44-attr-7-type" class="er entityLabel">stringList</text><rect height="21" width="101.46875" y="150" x="57.0625" class="er attributeBoxOdd"/><text style="dominant-baseline: middle; font-size: 10.2px;" transform="translate(62.0625,160.5)" y="0" x="0" id="text-entity-ReservationPackage-7dc1e998-97f3-5ab4-965f-77e413cdff44-attr-7-name" class="er entityLabel">description</text><rect height="21" width="57.0625" y="171" x="0" class="er attributeBoxEven"/><text style="dominant-baseline: middle; font-size: 10.2px;" transform="translate(5,181.5)" y="0" x="0" id="text-entity-ReservationPackage-7dc1e998-97f3-5ab4-965f-77e413cdff44-attr-8-type" class="er entityLabel">stringList</text><rect height="21" width="101.46875" y="171" x="57.0625" class="er attributeBoxEven"/><text style="dominant-baseline: middle; font-size: 10.2px;" transform="translate(62.0625,181.5)" y="0" x="0" id="text-entity-ReservationPackage-7dc1e998-97f3-5ab4-965f-77e413cdff44-attr-8-name" class="er entityLabel">identifier</text><rect height="21" width="57.0625" y="192" x="0" class="er attributeBoxOdd"/><text style="dominant-baseline: middle; font-size: 10.2px;" transform="translate(5,202.5)" y="0" x="0" id="text-entity-ReservationPackage-7dc1e998-97f3-5ab4-965f-77e413cdff44-attr-9-type" class="er entityLabel">stringList</text><rect height="21" width="101.46875" y="192" x="57.0625" class="er attributeBoxOdd"/><text style="dominant-baseline: middle; font-size: 10.2px;" transform="translate(62.0625,202.5)" y="0" x="0" id="text-entity-ReservationPackage-7dc1e998-97f3-5ab4-965f-77e413cdff44-attr-9-name" class="er entityLabel">image</text><rect height="21" width="57.0625" y="213" x="0" class="er attributeBoxEven"/><text style="dominant-baseline: middle; font-size: 10.2px;" transform="translate(5,223.5)" y="0" x="0" id="text-entity-ReservationPackage-7dc1e998-97f3-5ab4-965f-77e413cdff44-attr-10-type" class="er entityLabel">stringList</text><rect height="21" width="101.46875" y="213" x="57.0625" class="er attributeBoxEven"/><text style="dominant-baseline: middle; font-size: 10.2px;" transform="translate(62.0625,223.5)" y="0" x="0" id="text-entity-ReservationPackage-7dc1e998-97f3-5ab4-965f-77e413cdff44-attr-10-name" class="er entityLabel">mainEntityOfPage</text><rect height="21" width="57.0625" y="234" x="0" class="er attributeBoxOdd"/><text style="dominant-baseline: middle; font-size: 10.2px;" transform="translate(5,244.5)" y="0" x="0" id="text-entity-ReservationPackage-7dc1e998-97f3-5ab4-965f-77e413cdff44-attr-11-type" class="er entityLabel">stringList</text><rect height="21" width="101.46875" y="234" x="57.0625" class="er attributeBoxOdd"/><text style="dominant-baseline: middle; font-size: 10.2px;" transform="translate(62.0625,244.5)" y="0" x="0" id="text-entity-ReservationPackage-7dc1e998-97f3-5ab4-965f-77e413cdff44-attr-11-name" class="er entityLabel">subjectOf</text></g><g transform="translate(20,375 )" id="entity-Reservation-70007923-3dac-5120-988e-1bc40ae9999e"><rect height="75" width="101.203125" y="0" x="0" class="er entityBox"/><text style="dominant-baseline: middle; text-anchor: middle; font-size: 12px;" transform="translate(50.6015625,37.5)" y="0" x="0" id="text-entity-Reservation-70007923-3dac-5120-988e-1bc40ae9999e" class="er entityLabel">Reservation</text></g><g transform="translate(221.203125,375 )" id="entity-DateTime-a943b584-0aab-5531-ae61-1b49be70232b"><rect height="75" width="100" y="0" x="0" class="er entityBox"/><text style="dominant-baseline: middle; text-anchor: middle; font-size: 12px;" transform="translate(50,37.5)" y="0" x="0" id="text-entity-DateTime-a943b584-0aab-5531-ae61-1b49be70232b" class="er entityLabel">DateTime</text></g><g transform="translate(557.5,375 )" id="entity-Text-426c5d39-acfc-5487-a6d9-ede67887190e"><rect height="75" width="100" y="0" x="0" class="er entityBox"/><text style="dominant-baseline: middle; text-anchor: middle; font-size: 12px;" transform="translate(50,37.5)" y="0" x="0" id="text-entity-Text-426c5d39-acfc-5487-a6d9-ede67887190e" class="er entityLabel">Text</text></g><g transform="translate(843.796875,375 )" id="entity-ProgramMembership-dc4ad43d-371a-54e9-b020-38f0264dbead"><rect height="75" width="154.8125" y="0" x="0" class="er entityBox"/><text style="dominant-baseline: middle; text-anchor: middle; font-size: 12px;" transform="translate(77.40625,37.5)" y="0" x="0" id="text-entity-ProgramMembership-dc4ad43d-371a-54e9-b020-38f0264dbead" class="er entityLabel">ProgramMembership</text></g><g transform="translate(1098.609375,375 )" id="entity-Thing-27bc9527-b992-59fc-a0fb-da83e2ff80bf"><rect height="75" width="100" y="0" x="0" class="er entityBox"/><text style="dominant-baseline: middle; text-anchor: middle; font-size: 12px;" transform="translate(50,37.5)" y="0" x="0" id="text-entity-Thing-27bc9527-b992-59fc-a0fb-da83e2ff80bf" class="er entityLabel">Thing</text></g><g transform="translate(1298.609375,375 )" id="entity-ReservationStatusType-226ac545-7c7e-5fea-8186-370f7e691b71"><rect height="75" width="167" y="0" x="0" class="er entityBox"/><text style="dominant-baseline: middle; text-anchor: middle; font-size: 12px;" transform="translate(83.5,37.5)" y="0" x="0" id="text-entity-ReservationStatusType-226ac545-7c7e-5fea-8186-370f7e691b71" class="er entityLabel">ReservationStatusType</text></g><g transform="translate(1565.609375,375 )" id="entity-Ticket-d7e8b329-0aaa-5985-99a1-9a1fad0790bd"><rect height="75" width="100" y="0" x="0" class="er entityBox"/><text style="dominant-baseline: middle; text-anchor: middle; font-size: 12px;" transform="translate(50,37.5)" y="0" x="0" id="text-entity-Ticket-d7e8b329-0aaa-5985-99a1-9a1fad0790bd" class="er entityLabel">Ticket</text></g><g transform="translate(1765.609375,375 )" id="entity-URL-07f78d3e-fd74-5925-b39b-26c1cc2d6b7c"><rect height="75" width="100" y="0" x="0" class="er entityBox"/><text style="dominant-baseline: middle; text-anchor: middle; font-size: 12px;" transform="translate(50,37.5)" y="0" x="0" id="text-entity-URL-07f78d3e-fd74-5925-b39b-26c1cc2d6b7c" class="er entityLabel">URL</text></g><g transform="translate(1965.609375,375 )" id="entity-Action-6cd87d9a-a078-546e-a35b-bee54f477b31"><rect height="75" width="100" y="0" x="0" class="er entityBox"/><text style="dominant-baseline: middle; text-anchor: middle; font-size: 12px;" transform="translate(50,37.5)" y="0" x="0" id="text-entity-Action-6cd87d9a-a078-546e-a35b-bee54f477b31" class="er entityLabel">Action</text></g><rect height="13.999984741210938" width="92.671875" y="244.14839935302734" x="314.8379821777344" class="er relationshipLabelBox"/><text style="text-anchor: middle; dominant-baseline: middle; font-size: 12px;" y="251.1483917236328" x="361.1739196777344" id="rel1" class="er relationshipLabel">subReservation</text><rect height="14" width="77.1875" y="246.57073974609375" x="402.6206970214844" class="er relationshipLabelBox"/><text style="text-anchor: middle; dominant-baseline: middle; font-size: 12px;" y="253.57073974609375" x="441.2144470214844" id="rel2" class="er relationshipLabel">bookingTime</text><rect height="14" width="81.921875" y="256.19232177734375" x="435.3047180175781" class="er relationshipLabelBox"/><text style="text-anchor: middle; dominant-baseline: middle; font-size: 12px;" y="263.19232177734375" x="476.2656555175781" id="rel3" class="er relationshipLabel">modifiedTime</text><rect height="14" width="83.9375" y="268.28277587890625" x="485.2572021484375" class="er relationshipLabelBox"/><text style="text-anchor: middle; dominant-baseline: middle; font-size: 12px;" y="275.28277587890625" x="527.2259521484375" id="rel4" class="er relationshipLabel">priceCurrency</text><rect height="14" width="155.4375" y="290.275390625" x="815.0204467773438" class="er relationshipLabelBox"/><text style="text-anchor: middle; dominant-baseline: middle; font-size: 12px;" y="297.275390625" x="892.7391967773438" id="rel5" class="er relationshipLabel">programMembershipUsed</text><rect height="14" width="86.87890625" y="255.75460815429688" x="964.6828002929688" class="er relationshipLabelBox"/><text style="text-anchor: middle; dominant-baseline: middle; font-size: 12px;" y="262.7546081542969" x="1008.1222534179688" id="rel6" class="er relationshipLabel">reservationFor</text><rect height="14" width="79.21875" y="272.5845031738281" x="546.8987426757812" class="er relationshipLabelBox"/><text style="text-anchor: middle; dominant-baseline: middle; font-size: 12px;" y="279.5845031738281" x="586.5081176757812" id="rel7" class="er relationshipLabel">reservationId</text><rect height="14.000015258789062" width="106.3125" y="245.6639175415039" x="1069.95263671875" class="er relationshipLabelBox"/><text style="text-anchor: middle; dominant-baseline: middle; font-size: 12px;" y="252.66392517089844" x="1123.10888671875" id="rel8" class="er relationshipLabel">reservationStatus</text><rect height="14" width="88.51953125" y="241.16006469726562" x="1194.1634521484375" class="er relationshipLabelBox"/><text style="text-anchor: middle; dominant-baseline: middle; font-size: 12px;" y="248.16006469726562" x="1238.4232177734375" id="rel9" class="er relationshipLabel">reservedTicket</text><rect height="14" width="89.953125" y="301.4000549316406" x="591.6163940429688" class="er relationshipLabelBox"/><text style="text-anchor: middle; dominant-baseline: middle; font-size: 12px;" y="308.4000549316406" x="636.5929565429688" id="rel10" class="er relationshipLabel">alternateName</text><rect height="14" width="161.390625" y="326.0671691894531" x="624.6556396484375" class="er relationshipLabelBox"/><text style="text-anchor: middle; dominant-baseline: middle; font-size: 12px;" y="333.0671691894531" x="705.3509521484375" id="rel11" class="er relationshipLabel">disambiguatingDescription</text><rect height="14" width="34.03125" y="343.61981201171875" x="736.0894775390625" class="er relationshipLabelBox"/><text style="text-anchor: middle; dominant-baseline: middle; font-size: 12px;" y="350.61981201171875" x="753.1051025390625" id="rel12" class="er relationshipLabel">name</text><rect height="14" width="47.140625" y="241.22744750976562" x="1299.6505126953125" class="er relationshipLabelBox"/><text style="text-anchor: middle; dominant-baseline: middle; font-size: 12px;" y="248.22744750976562" x="1323.2208251953125" id="rel13" class="er relationshipLabel">sameAs</text><rect height="14" width="90.96875" y="237.46002197265625" x="1391.3133544921875" class="er relationshipLabelBox"/><text style="text-anchor: middle; dominant-baseline: middle; font-size: 12px;" y="244.46002197265625" x="1436.7977294921875" id="rel14" class="er relationshipLabel">potentialAction</text><rect height="14" width="15.875" y="237.23553466796875" x="1346.1646728515625" class="er relationshipLabelBox"/><text style="text-anchor: middle; dominant-baseline: middle; font-size: 12px;" y="244.23553466796875" x="1354.1021728515625" id="rel15" class="er relationshipLabel">url</text></svg>