<svg aria-roledescription="er" role="graphics-document document" viewBox="0 0 4126.51171875 764" style="max-width: 4126.51px; background-color: white;" xmlns:xlink="http://www.w3.org/1999/xlink" xmlns="http://www.w3.org/2000/svg" width="100%" id="my-svg"><style>#my-svg{font-family:"trebuchet ms",verdana,arial,sans-serif;font-size:16px;fill:#333;}#my-svg .error-icon{fill:#552222;}#my-svg .error-text{fill:#552222;stroke:#552222;}#my-svg .edge-thickness-normal{stroke-width:1px;}#my-svg .edge-thickness-thick{stroke-width:3.5px;}#my-svg .edge-pattern-solid{stroke-dasharray:0;}#my-svg .edge-thickness-invisible{stroke-width:0;fill:none;}#my-svg .edge-pattern-dashed{stroke-dasharray:3;}#my-svg .edge-pattern-dotted{stroke-dasharray:2;}#my-svg .marker{fill:#333333;stroke:#333333;}#my-svg .marker.cross{stroke:#333333;}#my-svg svg{font-family:"trebuchet ms",verdana,arial,sans-serif;font-size:16px;}#my-svg p{margin:0;}#my-svg .entityBox{fill:#ECECFF;stroke:#9370DB;}#my-svg .attributeBoxOdd{fill:#ffffff;stroke:#9370DB;}#my-svg .attributeBoxEven{fill:#f2f2f2;stroke:#9370DB;}#my-svg .relationshipLabelBox{fill:hsl(80, 100%, 96.2745098039%);opacity:0.7;background-color:hsl(80, 100%, 96.2745098039%);}#my-svg .relationshipLabelBox rect{opacity:0.5;}#my-svg .relationshipLine{stroke:#333333;}#my-svg .entityTitleText{text-anchor:middle;font-size:18px;fill:#333;}#my-svg #MD_PARENT_START{fill:#f5f5f5!important;stroke:#333333!important;stroke-width:1;}#my-svg #MD_PARENT_END{fill:#f5f5f5!important;stroke:#333333!important;stroke-width:1;}#my-svg :root{--mermaid-font-family:"trebuchet ms",verdana,arial,sans-serif;}</style><g/><defs><marker orient="auto" markerHeight="240" markerWidth="190" refY="7" refX="0" id="MD_PARENT_START"><path d="M 18,7 L9,13 L1,7 L9,1 Z"/></marker></defs><defs><marker orient="auto" markerHeight="28" markerWidth="20" refY="7" refX="19" id="MD_PARENT_END"><path d="M 18,7 L9,13 L1,7 L9,1 Z"/></marker></defs><defs><marker orient="auto" markerHeight="18" markerWidth="18" refY="9" refX="0" id="ONLY_ONE_START"><path d="M9,0 L9,18 M15,0 L15,18" fill="none" stroke="gray"/></marker></defs><defs><marker orient="auto" markerHeight="18" markerWidth="18" refY="9" refX="18" id="ONLY_ONE_END"><path d="M3,0 L3,18 M9,0 L9,18" fill="none" stroke="gray"/></marker></defs><defs><marker orient="auto" markerHeight="18" markerWidth="30" refY="9" refX="0" id="ZERO_OR_ONE_START"><circle r="6" cy="9" cx="21" fill="white" stroke="gray"/><path d="M9,0 L9,18" fill="none" stroke="gray"/></marker></defs><defs><marker orient="auto" markerHeight="18" markerWidth="30" refY="9" refX="30" id="ZERO_OR_ONE_END"><circle r="6" cy="9" cx="9" fill="white" stroke="gray"/><path d="M21,0 L21,18" fill="none" stroke="gray"/></marker></defs><defs><marker orient="auto" markerHeight="36" markerWidth="45" refY="18" refX="18" id="ONE_OR_MORE_START"><path d="M0,18 Q 18,0 36,18 Q 18,36 0,18 M42,9 L42,27" fill="none" stroke="gray"/></marker></defs><defs><marker orient="auto" markerHeight="36" markerWidth="45" refY="18" refX="27" id="ONE_OR_MORE_END"><path d="M3,9 L3,27 M9,18 Q27,0 45,18 Q27,36 9,18" fill="none" stroke="gray"/></marker></defs><defs><marker orient="auto" markerHeight="36" markerWidth="57" refY="18" refX="18" id="ZERO_OR_MORE_START"><circle r="6" cy="18" cx="48" fill="white" stroke="gray"/><path d="M0,18 Q18,0 36,18 Q18,36 0,18" fill="none" stroke="gray"/></marker></defs><defs><marker orient="auto" markerHeight="36" markerWidth="57" refY="18" refX="39" id="ZERO_OR_MORE_END"><circle r="6" cy="18" cx="9" fill="white" stroke="gray"/><path d="M21,18 Q39,0 57,18 Q39,36 21,18" fill="none" stroke="gray"/></marker></defs><path style="stroke: gray; fill: none;" marker-start="url(#ONLY_ONE_START)" marker-end="url(#ZERO_OR_MORE_END)" d="M1839.016,308.417L1544.18,360.18C1249.344,411.944,659.672,515.472,364.836,575.569C70,635.667,70,652.333,70,660.667L70,669" class="er relationshipLine"/><path style="stroke: gray; fill: none;" marker-start="url(#ONLY_ONE_START)" marker-end="url(#ZERO_OR_MORE_END)" d="M1839.016,309.213L1560.846,360.844C1282.677,412.475,726.339,515.738,506.503,580.129C286.667,644.521,403.333,670.042,461.667,682.802L520,695.563" class="er relationshipLine"/><path style="stroke: gray; fill: none;" marker-start="url(#ONLY_ONE_START)" marker-end="url(#ZERO_OR_MORE_END)" d="M1839.016,324.822L1710.846,373.852C1582.677,422.881,1326.339,520.941,1231.503,581.637C1136.667,642.333,1203.333,665.667,1236.667,677.333L1270,689" class="er relationshipLine"/><path style="stroke: gray; fill: none;" marker-start="url(#ONLY_ONE_START)" marker-end="url(#ZERO_OR_MORE_END)" d="M1839.016,398.099L1810.846,434.916C1782.677,471.733,1726.339,545.366,1698.169,590.517C1670,635.667,1670,652.333,1670,660.667L1670,669" class="er relationshipLine"/><path style="stroke: gray; fill: none;" marker-start="url(#ONLY_ONE_START)" marker-end="url(#ZERO_OR_MORE_END)" d="M1896.466,569L1895.804,577.333C1895.141,585.667,1893.817,602.333,1893.154,619C1892.492,635.667,1892.492,652.333,1892.492,660.667L1892.492,669" class="er relationshipLine"/><path style="stroke: gray; fill: none;" marker-start="url(#ONLY_ONE_START)" marker-end="url(#ZERO_OR_MORE_END)" d="M1997.547,401.046L2024.572,437.372C2051.596,473.697,2105.646,546.349,2132.671,591.008C2159.695,635.667,2159.695,652.333,2159.695,660.667L2159.695,669" class="er relationshipLine"/><path style="stroke: gray; fill: none;" marker-start="url(#ONLY_ONE_START)" marker-end="url(#ZERO_OR_MORE_END)" d="M1839.016,310.105L1577.513,361.588C1316.01,413.07,793.005,516.035,573.169,579.67C353.333,643.306,436.667,667.611,478.333,679.764L520,691.917" class="er relationshipLine"/><path style="stroke: gray; fill: none;" marker-start="url(#ONLY_ONE_START)" marker-end="url(#ZERO_OR_MORE_END)" d="M1997.547,364.548L2045.536,406.956C2093.526,449.365,2189.505,534.183,2250.126,585.378C2310.747,636.573,2336.01,654.146,2348.642,662.933L2361.273,671.72" class="er relationshipLine"/><path style="stroke: gray; fill: none;" marker-start="url(#ONLY_ONE_START)" marker-end="url(#ZERO_OR_MORE_END)" d="M1997.547,346.675L2066.501,392.062C2135.456,437.45,2273.365,528.225,2342.319,581.946C2411.273,635.667,2411.273,652.333,2411.273,660.667L2411.273,669" class="er relationshipLine"/><path style="stroke: gray; fill: none;" marker-start="url(#ONLY_ONE_START)" marker-end="url(#ZERO_OR_MORE_END)" d="M1997.547,337.876L2083.168,384.73C2168.789,431.584,2340.031,525.292,2416.129,580.479C2492.226,635.667,2473.178,652.333,2463.654,660.667L2454.131,669" class="er relationshipLine"/><path style="stroke: gray; fill: none;" marker-start="url(#ONLY_ONE_START)" marker-end="url(#ZERO_OR_MORE_END)" d="M1997.547,331.617L2099.835,379.514C2202.122,427.411,2406.698,523.206,2513.748,579.436C2620.797,635.667,2630.321,652.333,2635.083,660.667L2639.845,669" class="er relationshipLine"/><path style="stroke: gray; fill: none;" marker-start="url(#ONLY_ONE_START)" marker-end="url(#ZERO_OR_MORE_END)" d="M1997.547,326.903L2116.636,375.586C2235.725,424.269,2473.904,521.634,2588.154,578.651C2702.404,635.667,2692.726,652.333,2687.887,660.667L2683.049,669" class="er relationshipLine"/><path style="stroke: gray; fill: none;" marker-start="url(#ONLY_ONE_START)" marker-end="url(#ZERO_OR_MORE_END)" d="M1839.016,311.113L1594.18,362.428C1349.344,413.742,859.672,516.371,639.836,578.623C420,640.875,470,662.75,495,673.688L520,684.625" class="er relationshipLine"/><path style="stroke: gray; fill: none;" marker-start="url(#ONLY_ONE_START)" marker-end="url(#ZERO_OR_MORE_END)" d="M1997.547,321.73L2141.771,371.275C2285.995,420.82,2574.443,519.91,2718.667,577.788C2862.891,635.667,2862.891,652.333,2862.891,660.667L2862.891,669" class="er relationshipLine"/><path style="stroke: gray; fill: none;" marker-start="url(#ONLY_ONE_START)" marker-end="url(#ZERO_OR_MORE_END)" d="M1997.547,319.104L2158.572,369.087C2319.598,419.069,2641.648,519.035,2827.674,579.955C3013.699,640.875,3063.699,662.75,3088.699,673.688L3113.699,684.625" class="er relationshipLine"/><path style="stroke: gray; fill: none;" marker-start="url(#ONLY_ONE_START)" marker-end="url(#ZERO_OR_MORE_END)" d="M1997.547,316.956L2175.239,367.297C2352.931,417.637,2708.315,518.319,2895.531,576.993C3082.747,635.667,3101.794,652.333,3111.318,660.667L3120.842,669" class="er relationshipLine"/><path style="stroke: gray; fill: none;" marker-start="url(#ONLY_ONE_START)" marker-end="url(#ZERO_OR_MORE_END)" d="M1839.016,312.26L1610.846,363.383C1382.677,414.507,926.339,516.753,707.693,576.21C489.048,635.667,508.095,652.333,517.619,660.667L527.143,669" class="er relationshipLine"/><path style="stroke: gray; fill: none;" marker-start="url(#ONLY_ONE_START)" marker-end="url(#ZERO_OR_MORE_END)" d="M1839.016,328.874L1727.513,377.229C1616.01,425.583,1393.005,522.291,1298.169,580.368C1203.333,638.444,1236.667,657.889,1253.333,667.611L1270,677.333" class="er relationshipLine"/><path style="stroke: gray; fill: none;" marker-start="url(#ONLY_ONE_START)" marker-end="url(#ZERO_OR_MORE_END)" d="M1839.016,334.177L1744.18,381.647C1649.344,429.118,1459.672,524.059,1369.598,579.863C1279.524,635.667,1289.048,652.333,1293.81,660.667L1298.571,669" class="er relationshipLine"/><path style="stroke: gray; fill: none;" marker-start="url(#ONLY_ONE_START)" marker-end="url(#ZERO_OR_MORE_END)" d="M1997.547,312.295L2225.239,363.413C2452.931,414.53,2908.315,516.765,3136.007,576.216C3363.699,635.667,3363.699,652.333,3363.699,660.667L3363.699,669" class="er relationshipLine"/><path style="stroke: gray; fill: none;" marker-start="url(#ONLY_ONE_START)" marker-end="url(#ZERO_OR_MORE_END)" d="M1997.547,310.391L2254.106,361.826C2510.665,413.261,3023.784,516.13,3287.315,575.899C3550.846,635.667,3564.789,652.333,3571.761,660.667L3578.733,669" class="er relationshipLine"/><path style="stroke: gray; fill: none;" marker-start="url(#ONLY_ONE_START)" marker-end="url(#ZERO_OR_MORE_END)" d="M1997.547,315.153L2191.906,365.794C2386.264,416.435,2774.982,517.718,2969.34,576.692C3163.699,635.667,3163.699,652.333,3163.699,660.667L3163.699,669" class="er relationshipLine"/><path style="stroke: gray; fill: none;" marker-start="url(#ONLY_ONE_START)" marker-end="url(#ZERO_OR_MORE_END)" d="M1997.547,308.292L2295.174,360.076C2592.801,411.861,3188.055,515.431,3492.653,575.549C3797.252,635.667,3811.195,652.333,3818.167,660.667L3825.139,669" class="er relationshipLine"/><path style="stroke: gray; fill: none;" marker-start="url(#ONLY_ONE_START)" marker-end="url(#ZERO_OR_MORE_END)" d="M1997.547,307.437L2315.708,359.364C2633.868,411.291,3270.19,515.146,3583.589,575.406C3896.988,635.667,3887.464,652.333,3882.702,660.667L3877.94,669" class="er relationshipLine"/><path style="stroke: gray; fill: none;" marker-start="url(#ONLY_ONE_START)" marker-end="url(#ZERO_OR_MORE_END)" d="M1839.016,313.577L1627.513,364.481C1416.01,415.385,993.005,517.192,781.503,576.43C570,635.667,570,652.333,570,660.667L570,669" class="er relationshipLine"/><path style="stroke: gray; fill: none;" marker-start="url(#ONLY_ONE_START)" marker-end="url(#ZERO_OR_MORE_END)" d="M1997.547,313.618L2208.572,364.515C2419.598,415.412,2841.648,517.206,3043.15,576.436C3244.652,635.667,3225.604,652.333,3216.08,660.667L3206.556,669" class="er relationshipLine"/><path style="stroke: gray; fill: none;" marker-start="url(#ONLY_ONE_START)" marker-end="url(#ZERO_OR_MORE_END)" d="M1997.547,309.073L2278.507,360.727C2559.467,412.382,3121.388,515.691,3395.377,575.679C3669.365,635.667,3655.422,652.333,3648.45,660.667L3641.478,669" class="er relationshipLine"/><path style="stroke: gray; fill: none;" marker-start="url(#ONLY_ONE_START)" marker-end="url(#ZERO_OR_MORE_END)" d="M1839.016,315.106L1644.18,365.755C1449.344,416.404,1059.672,517.702,855.312,576.684C650.952,635.667,631.905,652.333,622.381,660.667L612.857,669" class="er relationshipLine"/><path style="stroke: gray; fill: none;" marker-start="url(#ONLY_ONE_START)" marker-end="url(#ZERO_OR_MORE_END)" d="M1839.016,341.413L1760.846,387.678C1682.677,433.942,1526.339,526.471,1443.407,581.069C1360.476,635.667,1350.952,652.333,1346.19,660.667L1341.429,669" class="er relationshipLine"/><path style="stroke: gray; fill: none;" marker-start="url(#ONLY_ONE_START)" marker-end="url(#ZERO_OR_MORE_END)" d="M1839.016,316.9L1660.846,367.25C1482.677,417.6,1126.339,518.3,923.169,579.588C720,640.875,670,662.75,645,673.688L620,684.625" class="er relationshipLine"/><path style="stroke: gray; fill: none;" marker-start="url(#ONLY_ONE_START)" marker-end="url(#ZERO_OR_MORE_END)" d="M1839.016,319.037L1677.513,369.031C1516.01,419.025,1193.005,519.012,989.836,581.159C786.667,643.306,703.333,667.611,661.667,679.764L620,691.917" class="er relationshipLine"/><path style="stroke: gray; fill: none;" marker-start="url(#ONLY_ONE_START)" marker-end="url(#ZERO_OR_MORE_END)" d="M1839.016,321.625L1694.18,371.187C1549.344,420.75,1259.672,519.875,1056.503,582.198C853.333,644.521,736.667,670.042,678.333,682.802L620,695.563" class="er relationshipLine"/><path style="stroke: gray; fill: none;" marker-start="url(#ONLY_ONE_START)" marker-end="url(#ZERO_OR_MORE_END)" d="M1839.016,351.878L1777.513,396.399C1716.01,440.919,1593.005,529.959,1514.836,584.202C1436.667,638.444,1403.333,657.889,1386.667,667.611L1370,677.333" class="er relationshipLine"/><path style="stroke: gray; fill: none;" marker-start="url(#ONLY_ONE_START)" marker-end="url(#ZERO_OR_MORE_END)" d="M1997.547,306.529L2340.708,358.608C2683.868,410.686,3370.19,514.843,3713.351,575.255C4056.512,635.667,4056.512,652.333,4056.512,660.667L4056.512,669" class="er relationshipLine"/><path style="stroke: gray; fill: none;" marker-start="url(#ONLY_ONE_START)" marker-end="url(#ZERO_OR_MORE_END)" d="M1839.016,368.353L1794.18,410.128C1749.344,451.902,1659.672,535.451,1581.503,588.892C1503.333,642.333,1436.667,665.667,1403.333,677.333L1370,689" class="er relationshipLine"/><g transform="translate(1839.015625,20 )" id="entity-Residence-b527651d-e493-5320-a67e-656ee62d0e58"><rect height="549" width="158.53125" y="0" x="0" class="er entityBox"/><text style="dominant-baseline: middle; text-anchor: middle; font-size: 12px;" transform="translate(79.265625,12)" y="0" x="0" id="text-entity-Residence-b527651d-e493-5320-a67e-656ee62d0e58" class="er entityLabel">Residence</text><rect height="21" width="57.0625" y="24" x="0" class="er attributeBoxOdd"/><text style="dominant-baseline: middle; font-size: 10.2px;" transform="translate(5,34.5)" y="0" x="0" id="text-entity-Residence-b527651d-e493-5320-a67e-656ee62d0e58-attr-1-type" class="er entityLabel">stringList</text><rect height="21" width="101.46875" y="24" x="57.0625" class="er attributeBoxOdd"/><text style="dominant-baseline: middle; font-size: 10.2px;" transform="translate(62.0625,34.5)" y="0" x="0" id="text-entity-Residence-b527651d-e493-5320-a67e-656ee62d0e58-attr-1-name" class="er entityLabel">logo</text><rect height="21" width="57.0625" y="45" x="0" class="er attributeBoxEven"/><text style="dominant-baseline: middle; font-size: 10.2px;" transform="translate(5,55.5)" y="0" x="0" id="text-entity-Residence-b527651d-e493-5320-a67e-656ee62d0e58-attr-2-type" class="er entityLabel">stringList</text><rect height="21" width="101.46875" y="45" x="57.0625" class="er attributeBoxEven"/><text style="dominant-baseline: middle; font-size: 10.2px;" transform="translate(62.0625,55.5)" y="0" x="0" id="text-entity-Residence-b527651d-e493-5320-a67e-656ee62d0e58-attr-2-name" class="er entityLabel">photo</text><rect height="21" width="57.0625" y="66" x="0" class="er attributeBoxOdd"/><text style="dominant-baseline: middle; font-size: 10.2px;" transform="translate(5,76.5)" y="0" x="0" id="text-entity-Residence-b527651d-e493-5320-a67e-656ee62d0e58-attr-3-type" class="er entityLabel">stringList</text><rect height="21" width="101.46875" y="66" x="57.0625" class="er attributeBoxOdd"/><text style="dominant-baseline: middle; font-size: 10.2px;" transform="translate(62.0625,76.5)" y="0" x="0" id="text-entity-Residence-b527651d-e493-5320-a67e-656ee62d0e58-attr-3-name" class="er entityLabel">address</text><rect height="21" width="57.0625" y="87" x="0" class="er attributeBoxEven"/><text style="dominant-baseline: middle; font-size: 10.2px;" transform="translate(5,97.5)" y="0" x="0" id="text-entity-Residence-b527651d-e493-5320-a67e-656ee62d0e58-attr-4-type" class="er entityLabel">stringList</text><rect height="21" width="101.46875" y="87" x="57.0625" class="er attributeBoxEven"/><text style="dominant-baseline: middle; font-size: 10.2px;" transform="translate(62.0625,97.5)" y="0" x="0" id="text-entity-Residence-b527651d-e493-5320-a67e-656ee62d0e58-attr-4-name" class="er entityLabel">geo</text><rect height="21" width="57.0625" y="108" x="0" class="er attributeBoxOdd"/><text style="dominant-baseline: middle; font-size: 10.2px;" transform="translate(5,118.5)" y="0" x="0" id="text-entity-Residence-b527651d-e493-5320-a67e-656ee62d0e58-attr-5-type" class="er entityLabel">stringList</text><rect height="21" width="101.46875" y="108" x="57.0625" class="er attributeBoxOdd"/><text style="dominant-baseline: middle; font-size: 10.2px;" transform="translate(62.0625,118.5)" y="0" x="0" id="text-entity-Residence-b527651d-e493-5320-a67e-656ee62d0e58-attr-5-name" class="er entityLabel">geoContains</text><rect height="21" width="57.0625" y="129" x="0" class="er attributeBoxEven"/><text style="dominant-baseline: middle; font-size: 10.2px;" transform="translate(5,139.5)" y="0" x="0" id="text-entity-Residence-b527651d-e493-5320-a67e-656ee62d0e58-attr-6-type" class="er entityLabel">stringList</text><rect height="21" width="101.46875" y="129" x="57.0625" class="er attributeBoxEven"/><text style="dominant-baseline: middle; font-size: 10.2px;" transform="translate(62.0625,139.5)" y="0" x="0" id="text-entity-Residence-b527651d-e493-5320-a67e-656ee62d0e58-attr-6-name" class="er entityLabel">geoCoveredBy</text><rect height="21" width="57.0625" y="150" x="0" class="er attributeBoxOdd"/><text style="dominant-baseline: middle; font-size: 10.2px;" transform="translate(5,160.5)" y="0" x="0" id="text-entity-Residence-b527651d-e493-5320-a67e-656ee62d0e58-attr-7-type" class="er entityLabel">stringList</text><rect height="21" width="101.46875" y="150" x="57.0625" class="er attributeBoxOdd"/><text style="dominant-baseline: middle; font-size: 10.2px;" transform="translate(62.0625,160.5)" y="0" x="0" id="text-entity-Residence-b527651d-e493-5320-a67e-656ee62d0e58-attr-7-name" class="er entityLabel">geoCovers</text><rect height="21" width="57.0625" y="171" x="0" class="er attributeBoxEven"/><text style="dominant-baseline: middle; font-size: 10.2px;" transform="translate(5,181.5)" y="0" x="0" id="text-entity-Residence-b527651d-e493-5320-a67e-656ee62d0e58-attr-8-type" class="er entityLabel">stringList</text><rect height="21" width="101.46875" y="171" x="57.0625" class="er attributeBoxEven"/><text style="dominant-baseline: middle; font-size: 10.2px;" transform="translate(62.0625,181.5)" y="0" x="0" id="text-entity-Residence-b527651d-e493-5320-a67e-656ee62d0e58-attr-8-name" class="er entityLabel">geoCrosses</text><rect height="21" width="57.0625" y="192" x="0" class="er attributeBoxOdd"/><text style="dominant-baseline: middle; font-size: 10.2px;" transform="translate(5,202.5)" y="0" x="0" id="text-entity-Residence-b527651d-e493-5320-a67e-656ee62d0e58-attr-9-type" class="er entityLabel">stringList</text><rect height="21" width="101.46875" y="192" x="57.0625" class="er attributeBoxOdd"/><text style="dominant-baseline: middle; font-size: 10.2px;" transform="translate(62.0625,202.5)" y="0" x="0" id="text-entity-Residence-b527651d-e493-5320-a67e-656ee62d0e58-attr-9-name" class="er entityLabel">geoDisjoint</text><rect height="21" width="57.0625" y="213" x="0" class="er attributeBoxEven"/><text style="dominant-baseline: middle; font-size: 10.2px;" transform="translate(5,223.5)" y="0" x="0" id="text-entity-Residence-b527651d-e493-5320-a67e-656ee62d0e58-attr-10-type" class="er entityLabel">stringList</text><rect height="21" width="101.46875" y="213" x="57.0625" class="er attributeBoxEven"/><text style="dominant-baseline: middle; font-size: 10.2px;" transform="translate(62.0625,223.5)" y="0" x="0" id="text-entity-Residence-b527651d-e493-5320-a67e-656ee62d0e58-attr-10-name" class="er entityLabel">geoEquals</text><rect height="21" width="57.0625" y="234" x="0" class="er attributeBoxOdd"/><text style="dominant-baseline: middle; font-size: 10.2px;" transform="translate(5,244.5)" y="0" x="0" id="text-entity-Residence-b527651d-e493-5320-a67e-656ee62d0e58-attr-11-type" class="er entityLabel">stringList</text><rect height="21" width="101.46875" y="234" x="57.0625" class="er attributeBoxOdd"/><text style="dominant-baseline: middle; font-size: 10.2px;" transform="translate(62.0625,244.5)" y="0" x="0" id="text-entity-Residence-b527651d-e493-5320-a67e-656ee62d0e58-attr-11-name" class="er entityLabel">geoIntersects</text><rect height="21" width="57.0625" y="255" x="0" class="er attributeBoxEven"/><text style="dominant-baseline: middle; font-size: 10.2px;" transform="translate(5,265.5)" y="0" x="0" id="text-entity-Residence-b527651d-e493-5320-a67e-656ee62d0e58-attr-12-type" class="er entityLabel">stringList</text><rect height="21" width="101.46875" y="255" x="57.0625" class="er attributeBoxEven"/><text style="dominant-baseline: middle; font-size: 10.2px;" transform="translate(62.0625,265.5)" y="0" x="0" id="text-entity-Residence-b527651d-e493-5320-a67e-656ee62d0e58-attr-12-name" class="er entityLabel">geoOverlaps</text><rect height="21" width="57.0625" y="276" x="0" class="er attributeBoxOdd"/><text style="dominant-baseline: middle; font-size: 10.2px;" transform="translate(5,286.5)" y="0" x="0" id="text-entity-Residence-b527651d-e493-5320-a67e-656ee62d0e58-attr-13-type" class="er entityLabel">stringList</text><rect height="21" width="101.46875" y="276" x="57.0625" class="er attributeBoxOdd"/><text style="dominant-baseline: middle; font-size: 10.2px;" transform="translate(62.0625,286.5)" y="0" x="0" id="text-entity-Residence-b527651d-e493-5320-a67e-656ee62d0e58-attr-13-name" class="er entityLabel">geoTouches</text><rect height="21" width="57.0625" y="297" x="0" class="er attributeBoxEven"/><text style="dominant-baseline: middle; font-size: 10.2px;" transform="translate(5,307.5)" y="0" x="0" id="text-entity-Residence-b527651d-e493-5320-a67e-656ee62d0e58-attr-14-type" class="er entityLabel">stringList</text><rect height="21" width="101.46875" y="297" x="57.0625" class="er attributeBoxEven"/><text style="dominant-baseline: middle; font-size: 10.2px;" transform="translate(62.0625,307.5)" y="0" x="0" id="text-entity-Residence-b527651d-e493-5320-a67e-656ee62d0e58-attr-14-name" class="er entityLabel">geoWithin</text><rect height="21" width="57.0625" y="318" x="0" class="er attributeBoxOdd"/><text style="dominant-baseline: middle; font-size: 10.2px;" transform="translate(5,328.5)" y="0" x="0" id="text-entity-Residence-b527651d-e493-5320-a67e-656ee62d0e58-attr-15-type" class="er entityLabel">stringList</text><rect height="21" width="101.46875" y="318" x="57.0625" class="er attributeBoxOdd"/><text style="dominant-baseline: middle; font-size: 10.2px;" transform="translate(62.0625,328.5)" y="0" x="0" id="text-entity-Residence-b527651d-e493-5320-a67e-656ee62d0e58-attr-15-name" class="er entityLabel">hasMap</text><rect height="21" width="57.0625" y="339" x="0" class="er attributeBoxEven"/><text style="dominant-baseline: middle; font-size: 10.2px;" transform="translate(5,349.5)" y="0" x="0" id="text-entity-Residence-b527651d-e493-5320-a67e-656ee62d0e58-attr-16-type" class="er entityLabel">stringList</text><rect height="21" width="101.46875" y="339" x="57.0625" class="er attributeBoxEven"/><text style="dominant-baseline: middle; font-size: 10.2px;" transform="translate(62.0625,349.5)" y="0" x="0" id="text-entity-Residence-b527651d-e493-5320-a67e-656ee62d0e58-attr-16-name" class="er entityLabel">keywords</text><rect height="21" width="57.0625" y="360" x="0" class="er attributeBoxOdd"/><text style="dominant-baseline: middle; font-size: 10.2px;" transform="translate(5,370.5)" y="0" x="0" id="text-entity-Residence-b527651d-e493-5320-a67e-656ee62d0e58-attr-17-type" class="er entityLabel">stringList</text><rect height="21" width="101.46875" y="360" x="57.0625" class="er attributeBoxOdd"/><text style="dominant-baseline: middle; font-size: 10.2px;" transform="translate(62.0625,370.5)" y="0" x="0" id="text-entity-Residence-b527651d-e493-5320-a67e-656ee62d0e58-attr-17-name" class="er entityLabel">latitude</text><rect height="21" width="57.0625" y="381" x="0" class="er attributeBoxEven"/><text style="dominant-baseline: middle; font-size: 10.2px;" transform="translate(5,391.5)" y="0" x="0" id="text-entity-Residence-b527651d-e493-5320-a67e-656ee62d0e58-attr-18-type" class="er entityLabel">stringList</text><rect height="21" width="101.46875" y="381" x="57.0625" class="er attributeBoxEven"/><text style="dominant-baseline: middle; font-size: 10.2px;" transform="translate(62.0625,391.5)" y="0" x="0" id="text-entity-Residence-b527651d-e493-5320-a67e-656ee62d0e58-attr-18-name" class="er entityLabel">longitude</text><rect height="21" width="57.0625" y="402" x="0" class="er attributeBoxOdd"/><text style="dominant-baseline: middle; font-size: 10.2px;" transform="translate(5,412.5)" y="0" x="0" id="text-entity-Residence-b527651d-e493-5320-a67e-656ee62d0e58-attr-19-type" class="er entityLabel">stringList</text><rect height="21" width="101.46875" y="402" x="57.0625" class="er attributeBoxOdd"/><text style="dominant-baseline: middle; font-size: 10.2px;" transform="translate(62.0625,412.5)" y="0" x="0" id="text-entity-Residence-b527651d-e493-5320-a67e-656ee62d0e58-attr-19-name" class="er entityLabel">photos</text><rect height="21" width="57.0625" y="423" x="0" class="er attributeBoxEven"/><text style="dominant-baseline: middle; font-size: 10.2px;" transform="translate(5,433.5)" y="0" x="0" id="text-entity-Residence-b527651d-e493-5320-a67e-656ee62d0e58-attr-20-type" class="er entityLabel">stringList</text><rect height="21" width="101.46875" y="423" x="57.0625" class="er attributeBoxEven"/><text style="dominant-baseline: middle; font-size: 10.2px;" transform="translate(62.0625,433.5)" y="0" x="0" id="text-entity-Residence-b527651d-e493-5320-a67e-656ee62d0e58-attr-20-name" class="er entityLabel">additionalType</text><rect height="21" width="57.0625" y="444" x="0" class="er attributeBoxOdd"/><text style="dominant-baseline: middle; font-size: 10.2px;" transform="translate(5,454.5)" y="0" x="0" id="text-entity-Residence-b527651d-e493-5320-a67e-656ee62d0e58-attr-21-type" class="er entityLabel">stringList</text><rect height="21" width="101.46875" y="444" x="57.0625" class="er attributeBoxOdd"/><text style="dominant-baseline: middle; font-size: 10.2px;" transform="translate(62.0625,454.5)" y="0" x="0" id="text-entity-Residence-b527651d-e493-5320-a67e-656ee62d0e58-attr-21-name" class="er entityLabel">description</text><rect height="21" width="57.0625" y="465" x="0" class="er attributeBoxEven"/><text style="dominant-baseline: middle; font-size: 10.2px;" transform="translate(5,475.5)" y="0" x="0" id="text-entity-Residence-b527651d-e493-5320-a67e-656ee62d0e58-attr-22-type" class="er entityLabel">stringList</text><rect height="21" width="101.46875" y="465" x="57.0625" class="er attributeBoxEven"/><text style="dominant-baseline: middle; font-size: 10.2px;" transform="translate(62.0625,475.5)" y="0" x="0" id="text-entity-Residence-b527651d-e493-5320-a67e-656ee62d0e58-attr-22-name" class="er entityLabel">identifier</text><rect height="21" width="57.0625" y="486" x="0" class="er attributeBoxOdd"/><text style="dominant-baseline: middle; font-size: 10.2px;" transform="translate(5,496.5)" y="0" x="0" id="text-entity-Residence-b527651d-e493-5320-a67e-656ee62d0e58-attr-23-type" class="er entityLabel">stringList</text><rect height="21" width="101.46875" y="486" x="57.0625" class="er attributeBoxOdd"/><text style="dominant-baseline: middle; font-size: 10.2px;" transform="translate(62.0625,496.5)" y="0" x="0" id="text-entity-Residence-b527651d-e493-5320-a67e-656ee62d0e58-attr-23-name" class="er entityLabel">image</text><rect height="21" width="57.0625" y="507" x="0" class="er attributeBoxEven"/><text style="dominant-baseline: middle; font-size: 10.2px;" transform="translate(5,517.5)" y="0" x="0" id="text-entity-Residence-b527651d-e493-5320-a67e-656ee62d0e58-attr-24-type" class="er entityLabel">stringList</text><rect height="21" width="101.46875" y="507" x="57.0625" class="er attributeBoxEven"/><text style="dominant-baseline: middle; font-size: 10.2px;" transform="translate(62.0625,517.5)" y="0" x="0" id="text-entity-Residence-b527651d-e493-5320-a67e-656ee62d0e58-attr-24-name" class="er entityLabel">mainEntityOfPage</text><rect height="21" width="57.0625" y="528" x="0" class="er attributeBoxOdd"/><text style="dominant-baseline: middle; font-size: 10.2px;" transform="translate(5,538.5)" y="0" x="0" id="text-entity-Residence-b527651d-e493-5320-a67e-656ee62d0e58-attr-25-type" class="er entityLabel">stringList</text><rect height="21" width="101.46875" y="528" x="57.0625" class="er attributeBoxOdd"/><text style="dominant-baseline: middle; font-size: 10.2px;" transform="translate(62.0625,538.5)" y="0" x="0" id="text-entity-Residence-b527651d-e493-5320-a67e-656ee62d0e58-attr-25-name" class="er entityLabel">subjectOf</text></g><g transform="translate(20,669 )" id="entity-FloorPlan-c68fc71d-a919-5aeb-b8e8-2bb700970f75"><rect height="75" width="100" y="0" x="0" class="er entityBox"/><text style="dominant-baseline: middle; text-anchor: middle; font-size: 12px;" transform="translate(50,37.5)" y="0" x="0" id="text-entity-FloorPlan-c68fc71d-a919-5aeb-b8e8-2bb700970f75" class="er entityLabel">FloorPlan</text></g><g transform="translate(520,669 )" id="entity-Text-426c5d39-acfc-5487-a6d9-ede67887190e"><rect height="75" width="100" y="0" x="0" class="er entityBox"/><text style="dominant-baseline: middle; text-anchor: middle; font-size: 12px;" transform="translate(50,37.5)" y="0" x="0" id="text-entity-Text-426c5d39-acfc-5487-a6d9-ede67887190e" class="er entityLabel">Text</text></g><g transform="translate(1270,669 )" id="entity-URL-07f78d3e-fd74-5925-b39b-26c1cc2d6b7c"><rect height="75" width="100" y="0" x="0" class="er entityBox"/><text style="dominant-baseline: middle; text-anchor: middle; font-size: 12px;" transform="translate(50,37.5)" y="0" x="0" id="text-entity-URL-07f78d3e-fd74-5925-b39b-26c1cc2d6b7c" class="er entityLabel">URL</text></g><g transform="translate(1613.1328125,669 )" id="entity-PropertyValue-0e208f6c-77f8-5d2e-b4a4-9a09101a021a"><rect height="75" width="113.734375" y="0" x="0" class="er entityBox"/><text style="dominant-baseline: middle; text-anchor: middle; font-size: 12px;" transform="translate(56.8671875,37.5)" y="0" x="0" id="text-entity-PropertyValue-0e208f6c-77f8-5d2e-b4a4-9a09101a021a" class="er entityLabel">PropertyValue</text></g><g transform="translate(1826.8671875,669 )" id="entity-AggregateRating-aa0a8837-178a-57ab-baa0-94ad30d90eb5"><rect height="75" width="131.25" y="0" x="0" class="er entityBox"/><text style="dominant-baseline: middle; text-anchor: middle; font-size: 12px;" transform="translate(65.625,37.5)" y="0" x="0" id="text-entity-AggregateRating-aa0a8837-178a-57ab-baa0-94ad30d90eb5" class="er entityLabel">AggregateRating</text></g><g transform="translate(2058.1171875,669 )" id="entity-LocationFeatureSpecification-dbe29f9c-e3d0-5bc9-80cd-10146568b0ab"><rect height="75" width="203.15625" y="0" x="0" class="er entityBox"/><text style="dominant-baseline: middle; text-anchor: middle; font-size: 12px;" transform="translate(101.578125,37.5)" y="0" x="0" id="text-entity-LocationFeatureSpecification-dbe29f9c-e3d0-5bc9-80cd-10146568b0ab" class="er entityLabel">LocationFeatureSpecification</text></g><g transform="translate(2361.2734375,669 )" id="entity-Place-18cedc50-4c85-52d4-b2dd-111465382dcf"><rect height="75" width="100" y="0" x="0" class="er entityBox"/><text style="dominant-baseline: middle; text-anchor: middle; font-size: 12px;" transform="translate(50,37.5)" y="0" x="0" id="text-entity-Place-18cedc50-4c85-52d4-b2dd-111465382dcf" class="er entityLabel">Place</text></g><g transform="translate(2611.2734375,669 )" id="entity-Event-5fcfcec5-0af7-59ba-bebb-bb0a822c8afa"><rect height="75" width="100" y="0" x="0" class="er entityBox"/><text style="dominant-baseline: middle; text-anchor: middle; font-size: 12px;" transform="translate(50,37.5)" y="0" x="0" id="text-entity-Event-5fcfcec5-0af7-59ba-bebb-bb0a822c8afa" class="er entityLabel">Event</text></g><g transform="translate(2811.2734375,669 )" id="entity-Certification-8b250de0-929b-5806-8c87-f8e7c928ef36"><rect height="75" width="103.234375" y="0" x="0" class="er entityBox"/><text style="dominant-baseline: middle; text-anchor: middle; font-size: 12px;" transform="translate(51.6171875,37.5)" y="0" x="0" id="text-entity-Certification-8b250de0-929b-5806-8c87-f8e7c928ef36" class="er entityLabel">Certification</text></g><g transform="translate(3113.69921875,669 )" id="entity-Boolean-5b26178e-f873-50aa-bf9a-b8300df1b991"><rect height="75" width="100" y="0" x="0" class="er entityBox"/><text style="dominant-baseline: middle; text-anchor: middle; font-size: 12px;" transform="translate(50,37.5)" y="0" x="0" id="text-entity-Boolean-5b26178e-f873-50aa-bf9a-b8300df1b991" class="er entityLabel">Boolean</text></g><g transform="translate(3313.69921875,669 )" id="entity-Integer-fc94dbf2-2dc2-55cd-ac16-6d1e48f8bef9"><rect height="75" width="100" y="0" x="0" class="er entityBox"/><text style="dominant-baseline: middle; text-anchor: middle; font-size: 12px;" transform="translate(50,37.5)" y="0" x="0" id="text-entity-Integer-fc94dbf2-2dc2-55cd-ac16-6d1e48f8bef9" class="er entityLabel">Integer</text></g><g transform="translate(3513.69921875,669 )" id="entity-OpeningHoursSpecification-677aa64f-a506-5d18-b5d1-75a0f22f6986"><rect height="75" width="192.8125" y="0" x="0" class="er entityBox"/><text style="dominant-baseline: middle; text-anchor: middle; font-size: 12px;" transform="translate(96.40625,37.5)" y="0" x="0" id="text-entity-OpeningHoursSpecification-677aa64f-a506-5d18-b5d1-75a0f22f6986" class="er entityLabel">OpeningHoursSpecification</text></g><g transform="translate(3806.51171875,669 )" id="entity-Review-77c92a79-8cff-50c0-9604-f9135763cccd"><rect height="75" width="100" y="0" x="0" class="er entityBox"/><text style="dominant-baseline: middle; text-anchor: middle; font-size: 12px;" transform="translate(50,37.5)" y="0" x="0" id="text-entity-Review-77c92a79-8cff-50c0-9604-f9135763cccd" class="er entityLabel">Review</text></g><g transform="translate(4006.51171875,669 )" id="entity-Action-6cd87d9a-a078-546e-a35b-bee54f477b31"><rect height="75" width="100" y="0" x="0" class="er entityBox"/><text style="dominant-baseline: middle; text-anchor: middle; font-size: 12px;" transform="translate(50,37.5)" y="0" x="0" id="text-entity-Action-6cd87d9a-a078-546e-a35b-bee54f477b31" class="er entityLabel">Action</text></g><rect height="14" width="151.953125" y="459.6288146972656" x="868.125244140625" class="er relationshipLabelBox"/><text style="text-anchor: middle; dominant-baseline: middle; font-size: 12px;" y="466.6288146972656" x="944.101806640625" id="rel1" class="er relationshipLabel">accommodationFloorPlan</text><rect height="14" width="135.623046875" y="456.73333740234375" x="953.8392333984375" class="er relationshipLabelBox"/><text style="text-anchor: middle; dominant-baseline: middle; font-size: 12px;" y="463.73333740234375" x="1021.6507568359375" id="rel2" class="er relationshipLabel">globalLocationNumber</text><rect height="14" width="109.3046875" y="471.48138427734375" x="1391.7783203125" class="er relationshipLabelBox"/><text style="text-anchor: middle; dominant-baseline: middle; font-size: 12px;" y="478.48138427734375" x="1446.4306640625" id="rel3" class="er relationshipLabel">hasGS1DigitalLink</text><rect height="14" width="110.375" y="520.1840209960938" x="1686.4559326171875" class="er relationshipLabelBox"/><text style="text-anchor: middle; dominant-baseline: middle; font-size: 12px;" y="527.1840209960938" x="1741.6434326171875" id="rel4" class="er relationshipLabel">additionalProperty</text><rect height="14" width="100.390625" y="611.9474487304688" x="1842.9609375" class="er relationshipLabelBox"/><text style="text-anchor: middle; dominant-baseline: middle; font-size: 12px;" y="618.9474487304688" x="1893.15625" id="rel5" class="er relationshipLabel">aggregateRating</text><rect height="14" width="94.53125" y="521.9159545898438" x="2044.036865234375" class="er relationshipLabelBox"/><text style="text-anchor: middle; dominant-baseline: middle; font-size: 12px;" y="528.9159545898438" x="2091.302490234375" id="rel6" class="er relationshipLabel">amenityFeature</text><rect height="14" width="72.4375" y="456.6200866699219" x="1035.1834716796875" class="er relationshipLabelBox"/><text style="text-anchor: middle; dominant-baseline: middle; font-size: 12px;" y="463.6200866699219" x="1071.4022216796875" id="rel7" class="er relationshipLabel">branchCode</text><rect height="14" width="70.6875" y="514.8922119140625" x="2140.985595703125" class="er relationshipLabelBox"/><text style="text-anchor: middle; dominant-baseline: middle; font-size: 12px;" y="521.8922119140625" x="2176.329345703125" id="rel8" class="er relationshipLabel">containedIn</text><rect height="14" width="102.59375" y="487.1661682128906" x="2168.2275390625" class="er relationshipLabelBox"/><text style="text-anchor: middle; dominant-baseline: middle; font-size: 12px;" y="494.1661682128906" x="2219.5244140625" id="rel9" class="er relationshipLabel">containedInPlace</text><rect height="14" width="82.703125" y="477.2868957519531" x="2220.21630859375" class="er relationshipLabelBox"/><text style="text-anchor: middle; dominant-baseline: middle; font-size: 12px;" y="484.2868957519531" x="2261.56787109375" id="rel10" class="er relationshipLabel">containsPlace</text><rect height="14" width="34.47265625" y="480.1121826171875" x="2310.217041015625" class="er relationshipLabelBox"/><text style="text-anchor: middle; dominant-baseline: middle; font-size: 12px;" y="487.1121826171875" x="2327.453369140625" id="rel11" class="er relationshipLabel">event</text><rect height="14" width="40.4375" y="470.4471435546875" x="2342.132080078125" class="er relationshipLabelBox"/><text style="text-anchor: middle; dominant-baseline: middle; font-size: 12px;" y="477.4471435546875" x="2362.350830078125" id="rel12" class="er relationshipLabel">events</text><rect height="14" width="66.951171875" y="457.37896728515625" x="1083.44775390625" class="er relationshipLabelBox"/><text style="text-anchor: middle; dominant-baseline: middle; font-size: 12px;" y="464.37896728515625" x="1116.92333984375" id="rel13" class="er relationshipLabel">faxNumber</text><rect height="14" width="94.453125" y="469.12005615234375" x="2396.31591796875" class="er relationshipLabelBox"/><text style="text-anchor: middle; dominant-baseline: middle; font-size: 12px;" y="476.12005615234375" x="2443.54248046875" id="rel14" class="er relationshipLabel">hasCertification</text><rect height="14" width="147.328125" y="486.8818054199219" x="2484.71875" class="er relationshipLabelBox"/><text style="text-anchor: middle; dominant-baseline: middle; font-size: 12px;" y="493.8818054199219" x="2558.3828125" id="rel15" class="er relationshipLabel">hasDriveThroughService</text><rect height="14" width="116.5625" y="471.5841064453125" x="2506.600830078125" class="er relationshipLabelBox"/><text style="text-anchor: middle; dominant-baseline: middle; font-size: 12px;" y="478.5841064453125" x="2564.882080078125" id="rel16" class="er relationshipLabel">isAccessibleForFree</text><rect height="14" width="35.375" y="459.2123718261719" x="1139.9964599609375" class="er relationshipLabelBox"/><text style="text-anchor: middle; dominant-baseline: middle; font-size: 12px;" y="466.2123718261719" x="1157.6839599609375" id="rel17" class="er relationshipLabel">isicV4</text><rect height="14" width="26.671875" y="471.3072204589844" x="1486.40380859375" class="er relationshipLabelBox"/><text style="text-anchor: middle; dominant-baseline: middle; font-size: 12px;" y="478.3072204589844" x="1499.73974609375" id="rel18" class="er relationshipLabel">map</text><rect height="14" width="32.921875" y="475.6905517578125" x="1528.9254150390625" class="er relationshipLabelBox"/><text style="text-anchor: middle; dominant-baseline: middle; font-size: 12px;" y="482.6905517578125" x="1545.3863525390625" id="rel19" class="er relationshipLabel">maps</text><rect height="14" width="167.6875" y="462.3319396972656" x="2608.2197265625" class="er relationshipLabelBox"/><text style="text-anchor: middle; dominant-baseline: middle; font-size: 12px;" y="469.3319396972656" x="2692.0634765625" id="rel20" class="er relationshipLabel">maximumAttendeeCapacity</text><rect height="14" width="160.71875" y="464.17279052734375" x="2714.18017578125" class="er relationshipLabelBox"/><text style="text-anchor: middle; dominant-baseline: middle; font-size: 12px;" y="471.17279052734375" x="2794.53955078125" id="rel21" class="er relationshipLabel">openingHoursSpecification</text><rect height="14" width="77.1875" y="464.3684387207031" x="2554.128173828125" class="er relationshipLabelBox"/><text style="text-anchor: middle; dominant-baseline: middle; font-size: 12px;" y="471.3684387207031" x="2592.721923828125" id="rel22" class="er relationshipLabel">publicAccess</text><rect height="14" width="39.87109375" y="462.3505554199219" x="2897.52783203125" class="er relationshipLabelBox"/><text style="text-anchor: middle; dominant-baseline: middle; font-size: 12px;" y="469.3505554199219" x="2917.46337890625" id="rel23" class="er relationshipLabel">review</text><rect height="14" width="45.9375" y="457.5442199707031" x="2930.14990234375" class="er relationshipLabelBox"/><text style="text-anchor: middle; dominant-baseline: middle; font-size: 12px;" y="464.5442199707031" x="2953.11865234375" id="rel24" class="er relationshipLabel">reviews</text><rect height="14" width="39.515625" y="463.2394104003906" x="1173.003662109375" class="er relationshipLabelBox"/><text style="text-anchor: middle; dominant-baseline: middle; font-size: 12px;" y="470.2394104003906" x="1192.761474609375" id="rel25" class="er relationshipLabel">slogan</text><rect height="14" width="97.828125" y="460.0439453125" x="2579.28759765625" class="er relationshipLabelBox"/><text style="text-anchor: middle; dominant-baseline: middle; font-size: 12px;" y="467.0439453125" x="2628.20166015625" id="rel26" class="er relationshipLabel">smokingAllowed</text><rect height="14" width="204.6875" y="457.9433288574219" x="2736.498779296875" class="er relationshipLabelBox"/><text style="text-anchor: middle; dominant-baseline: middle; font-size: 12px;" y="464.9433288574219" x="2838.842529296875" id="rel27" class="er relationshipLabel">specialOpeningHoursSpecification</text><rect height="14" width="60.359375" y="469.86376953125" x="1190.0906982421875" class="er relationshipLabelBox"/><text style="text-anchor: middle; dominant-baseline: middle; font-size: 12px;" y="476.86376953125" x="1220.2703857421875" id="rel28" class="er relationshipLabel">telephone</text><rect height="14" width="102.0625" y="487.5849914550781" x="1530.83740234375" class="er relationshipLabelBox"/><text style="text-anchor: middle; dominant-baseline: middle; font-size: 12px;" y="494.5849914550781" x="1581.86865234375" id="rel29" class="er relationshipLabel">tourBookingPage</text><rect height="14" width="89.953125" y="483.86053466796875" x="1181.320068359375" class="er relationshipLabelBox"/><text style="text-anchor: middle; dominant-baseline: middle; font-size: 12px;" y="490.86053466796875" x="1226.296630859375" id="rel30" class="er relationshipLabel">alternateName</text><rect height="14" width="161.390625" y="500.32318115234375" x="1149.3734130859375" class="er relationshipLabelBox"/><text style="text-anchor: middle; dominant-baseline: middle; font-size: 12px;" y="507.32318115234375" x="1230.0687255859375" id="rel31" class="er relationshipLabel">disambiguatingDescription</text><rect height="14" width="34.03125" y="518.6506958007812" x="1217.53759765625" class="er relationshipLabelBox"/><text style="text-anchor: middle; dominant-baseline: middle; font-size: 12px;" y="525.6506958007812" x="1234.55322265625" id="rel32" class="er relationshipLabel">name</text><rect height="14" width="47.140625" y="511.87841796875" x="1583.8267822265625" class="er relationshipLabelBox"/><text style="text-anchor: middle; dominant-baseline: middle; font-size: 12px;" y="518.87841796875" x="1607.3970947265625" id="rel33" class="er relationshipLabel">sameAs</text><rect height="14" width="90.96875" y="458.3446960449219" x="2991.384765625" class="er relationshipLabelBox"/><text style="text-anchor: middle; dominant-baseline: middle; font-size: 12px;" y="465.3446960449219" x="3036.869140625" id="rel34" class="er relationshipLabel">potentialAction</text><rect height="14" width="15.875" y="551.1258544921875" x="1615.783935546875" class="er relationshipLabelBox"/><text style="text-anchor: middle; dominant-baseline: middle; font-size: 12px;" y="558.1258544921875" x="1623.721435546875" id="rel35" class="er relationshipLabel">url</text></svg>