<svg aria-roledescription="er" role="graphics-document document" viewBox="0 0 1824.1328125 554" style="max-width: 1824.13px; background-color: white;" xmlns:xlink="http://www.w3.org/1999/xlink" xmlns="http://www.w3.org/2000/svg" width="100%" id="my-svg"><style>#my-svg{font-family:"trebuchet ms",verdana,arial,sans-serif;font-size:16px;fill:#333;}#my-svg .error-icon{fill:#552222;}#my-svg .error-text{fill:#552222;stroke:#552222;}#my-svg .edge-thickness-normal{stroke-width:1px;}#my-svg .edge-thickness-thick{stroke-width:3.5px;}#my-svg .edge-pattern-solid{stroke-dasharray:0;}#my-svg .edge-thickness-invisible{stroke-width:0;fill:none;}#my-svg .edge-pattern-dashed{stroke-dasharray:3;}#my-svg .edge-pattern-dotted{stroke-dasharray:2;}#my-svg .marker{fill:#333333;stroke:#333333;}#my-svg .marker.cross{stroke:#333333;}#my-svg svg{font-family:"trebuchet ms",verdana,arial,sans-serif;font-size:16px;}#my-svg p{margin:0;}#my-svg .entityBox{fill:#ECECFF;stroke:#9370DB;}#my-svg .attributeBoxOdd{fill:#ffffff;stroke:#9370DB;}#my-svg .attributeBoxEven{fill:#f2f2f2;stroke:#9370DB;}#my-svg .relationshipLabelBox{fill:hsl(80, 100%, 96.2745098039%);opacity:0.7;background-color:hsl(80, 100%, 96.2745098039%);}#my-svg .relationshipLabelBox rect{opacity:0.5;}#my-svg .relationshipLine{stroke:#333333;}#my-svg .entityTitleText{text-anchor:middle;font-size:18px;fill:#333;}#my-svg #MD_PARENT_START{fill:#f5f5f5!important;stroke:#333333!important;stroke-width:1;}#my-svg #MD_PARENT_END{fill:#f5f5f5!important;stroke:#333333!important;stroke-width:1;}#my-svg :root{--mermaid-font-family:"trebuchet ms",verdana,arial,sans-serif;}</style><g/><defs><marker orient="auto" markerHeight="240" markerWidth="190" refY="7" refX="0" id="MD_PARENT_START"><path d="M 18,7 L9,13 L1,7 L9,1 Z"/></marker></defs><defs><marker orient="auto" markerHeight="28" markerWidth="20" refY="7" refX="19" id="MD_PARENT_END"><path d="M 18,7 L9,13 L1,7 L9,1 Z"/></marker></defs><defs><marker orient="auto" markerHeight="18" markerWidth="18" refY="9" refX="0" id="ONLY_ONE_START"><path d="M9,0 L9,18 M15,0 L15,18" fill="none" stroke="gray"/></marker></defs><defs><marker orient="auto" markerHeight="18" markerWidth="18" refY="9" refX="18" id="ONLY_ONE_END"><path d="M3,0 L3,18 M9,0 L9,18" fill="none" stroke="gray"/></marker></defs><defs><marker orient="auto" markerHeight="18" markerWidth="30" refY="9" refX="0" id="ZERO_OR_ONE_START"><circle r="6" cy="9" cx="21" fill="white" stroke="gray"/><path d="M9,0 L9,18" fill="none" stroke="gray"/></marker></defs><defs><marker orient="auto" markerHeight="18" markerWidth="30" refY="9" refX="30" id="ZERO_OR_ONE_END"><circle r="6" cy="9" cx="9" fill="white" stroke="gray"/><path d="M21,0 L21,18" fill="none" stroke="gray"/></marker></defs><defs><marker orient="auto" markerHeight="36" markerWidth="45" refY="18" refX="18" id="ONE_OR_MORE_START"><path d="M0,18 Q 18,0 36,18 Q 18,36 0,18 M42,9 L42,27" fill="none" stroke="gray"/></marker></defs><defs><marker orient="auto" markerHeight="36" markerWidth="45" refY="18" refX="27" id="ONE_OR_MORE_END"><path d="M3,9 L3,27 M9,18 Q27,0 45,18 Q27,36 9,18" fill="none" stroke="gray"/></marker></defs><defs><marker orient="auto" markerHeight="36" markerWidth="57" refY="18" refX="18" id="ZERO_OR_MORE_START"><circle r="6" cy="18" cx="48" fill="white" stroke="gray"/><path d="M0,18 Q18,0 36,18 Q18,36 0,18" fill="none" stroke="gray"/></marker></defs><defs><marker orient="auto" markerHeight="36" markerWidth="57" refY="18" refX="39" id="ZERO_OR_MORE_END"><circle r="6" cy="18" cx="9" fill="white" stroke="gray"/><path d="M21,18 Q39,0 57,18 Q39,36 21,18" fill="none" stroke="gray"/></marker></defs><path style="stroke: gray; fill: none;" marker-start="url(#ONLY_ONE_START)" marker-end="url(#ZERO_OR_MORE_END)" d="M791.477,211.68L673.945,244.566C556.414,277.453,321.352,343.227,203.82,384.447C86.289,425.667,86.289,442.333,86.289,450.667L86.289,459" class="er relationshipLine"/><path style="stroke: gray; fill: none;" marker-start="url(#ONLY_ONE_START)" marker-end="url(#ZERO_OR_MORE_END)" d="M791.477,215.54L693.327,247.783C595.177,280.026,398.878,344.513,310.252,385.09C221.626,425.667,240.673,442.333,250.197,450.667L259.721,459" class="er relationshipLine"/><path style="stroke: gray; fill: none;" marker-start="url(#ONLY_ONE_START)" marker-end="url(#ZERO_OR_MORE_END)" d="M791.477,256.656L761.507,282.046C731.538,307.437,671.599,358.219,641.63,391.943C611.66,425.667,611.66,442.333,611.66,450.667L611.66,459" class="er relationshipLine"/><path style="stroke: gray; fill: none;" marker-start="url(#ONLY_ONE_START)" marker-end="url(#ZERO_OR_MORE_END)" d="M791.477,305.492L779.688,322.743C767.898,339.995,744.32,374.497,757.531,402.686C770.742,430.875,820.742,452.75,845.742,463.688L870.742,474.625" class="er relationshipLine"/><path style="stroke: gray; fill: none;" marker-start="url(#ONLY_ONE_START)" marker-end="url(#ZERO_OR_MORE_END)" d="M832.132,359L830.233,367.333C828.335,375.667,824.539,392.333,832.164,409C839.79,425.667,858.837,442.333,868.361,450.667L877.885,459" class="er relationshipLine"/><path style="stroke: gray; fill: none;" marker-start="url(#ONLY_ONE_START)" marker-end="url(#ZERO_OR_MORE_END)" d="M909.353,359L911.251,367.333C913.149,375.667,916.946,392.333,918.844,409C920.742,425.667,920.742,442.333,920.742,450.667L920.742,459" class="er relationshipLine"/><path style="stroke: gray; fill: none;" marker-start="url(#ONLY_ONE_START)" marker-end="url(#ZERO_OR_MORE_END)" d="M950.008,259.095L978.464,284.079C1006.919,309.063,1063.831,359.032,1092.286,392.349C1120.742,425.667,1120.742,442.333,1120.742,450.667L1120.742,459" class="er relationshipLine"/><path style="stroke: gray; fill: none;" marker-start="url(#ONLY_ONE_START)" marker-end="url(#ZERO_OR_MORE_END)" d="M950.008,226.781L1014.579,257.151C1079.151,287.521,1208.294,348.26,1272.866,386.963C1337.438,425.667,1337.438,442.333,1337.438,450.667L1337.438,459" class="er relationshipLine"/><path style="stroke: gray; fill: none;" marker-start="url(#ONLY_ONE_START)" marker-end="url(#ZERO_OR_MORE_END)" d="M950.008,305.492L961.797,322.743C973.586,339.995,997.164,374.497,999.429,400.082C1001.695,425.667,982.647,442.333,973.123,450.667L963.599,459" class="er relationshipLine"/><path style="stroke: gray; fill: none;" marker-start="url(#ONLY_ONE_START)" marker-end="url(#ZERO_OR_MORE_END)" d="M791.477,220.123L709.993,251.602C628.51,283.082,465.544,346.041,384.061,385.854C302.578,425.667,302.578,442.333,302.578,450.667L302.578,459" class="er relationshipLine"/><path style="stroke: gray; fill: none;" marker-start="url(#ONLY_ONE_START)" marker-end="url(#ZERO_OR_MORE_END)" d="M791.477,226.664L726.66,257.053C661.844,287.443,532.211,348.221,457.871,386.944C383.531,425.667,364.483,442.333,354.959,450.667L345.435,459" class="er relationshipLine"/><path style="stroke: gray; fill: none;" marker-start="url(#ONLY_ONE_START)" marker-end="url(#ZERO_OR_MORE_END)" d="M791.477,236.758L743.327,265.465C695.177,294.172,598.878,351.586,525.728,391.231C452.578,430.875,402.578,452.75,377.578,463.688L352.578,474.625" class="er relationshipLine"/><path style="stroke: gray; fill: none;" marker-start="url(#ONLY_ONE_START)" marker-end="url(#ZERO_OR_MORE_END)" d="M950.008,217.336L1040.971,249.28C1131.934,281.224,1313.859,345.112,1410.379,385.389C1506.899,425.667,1518.013,442.333,1523.57,450.667L1529.127,459" class="er relationshipLine"/><path style="stroke: gray; fill: none;" marker-start="url(#ONLY_ONE_START)" marker-end="url(#ZERO_OR_MORE_END)" d="M950.008,209.195L1084.029,242.496C1218.049,275.797,1486.091,342.398,1620.112,384.033C1754.133,425.667,1754.133,442.333,1754.133,450.667L1754.133,459" class="er relationshipLine"/><path style="stroke: gray; fill: none;" marker-start="url(#ONLY_ONE_START)" marker-end="url(#ZERO_OR_MORE_END)" d="M950.008,213.224L1059.029,245.853C1168.049,278.483,1386.091,343.741,1490.35,384.704C1594.609,425.667,1585.085,442.333,1580.323,450.667L1575.561,459" class="er relationshipLine"/><g transform="translate(791.4765625,20 )" id="entity-SellAction-8c6e0616-bdd6-562b-bd7f-7f101cffb6ba"><rect height="339" width="158.53125" y="0" x="0" class="er entityBox"/><text style="dominant-baseline: middle; text-anchor: middle; font-size: 12px;" transform="translate(79.265625,12)" y="0" x="0" id="text-entity-SellAction-8c6e0616-bdd6-562b-bd7f-7f101cffb6ba" class="er entityLabel">SellAction</text><rect height="21" width="57.0625" y="24" x="0" class="er attributeBoxOdd"/><text style="dominant-baseline: middle; font-size: 10.2px;" transform="translate(5,34.5)" y="0" x="0" id="text-entity-SellAction-8c6e0616-bdd6-562b-bd7f-7f101cffb6ba-attr-1-type" class="er entityLabel">stringList</text><rect height="21" width="101.46875" y="24" x="57.0625" class="er attributeBoxOdd"/><text style="dominant-baseline: middle; font-size: 10.2px;" transform="translate(62.0625,34.5)" y="0" x="0" id="text-entity-SellAction-8c6e0616-bdd6-562b-bd7f-7f101cffb6ba-attr-1-name" class="er entityLabel">buyer</text><rect height="21" width="57.0625" y="45" x="0" class="er attributeBoxEven"/><text style="dominant-baseline: middle; font-size: 10.2px;" transform="translate(5,55.5)" y="0" x="0" id="text-entity-SellAction-8c6e0616-bdd6-562b-bd7f-7f101cffb6ba-attr-2-type" class="er entityLabel">stringList</text><rect height="21" width="101.46875" y="45" x="57.0625" class="er attributeBoxEven"/><text style="dominant-baseline: middle; font-size: 10.2px;" transform="translate(62.0625,55.5)" y="0" x="0" id="text-entity-SellAction-8c6e0616-bdd6-562b-bd7f-7f101cffb6ba-attr-2-name" class="er entityLabel">price</text><rect height="21" width="57.0625" y="66" x="0" class="er attributeBoxOdd"/><text style="dominant-baseline: middle; font-size: 10.2px;" transform="translate(5,76.5)" y="0" x="0" id="text-entity-SellAction-8c6e0616-bdd6-562b-bd7f-7f101cffb6ba-attr-3-type" class="er entityLabel">stringList</text><rect height="21" width="101.46875" y="66" x="57.0625" class="er attributeBoxOdd"/><text style="dominant-baseline: middle; font-size: 10.2px;" transform="translate(62.0625,76.5)" y="0" x="0" id="text-entity-SellAction-8c6e0616-bdd6-562b-bd7f-7f101cffb6ba-attr-3-name" class="er entityLabel">location</text><rect height="21" width="57.0625" y="87" x="0" class="er attributeBoxEven"/><text style="dominant-baseline: middle; font-size: 10.2px;" transform="translate(5,97.5)" y="0" x="0" id="text-entity-SellAction-8c6e0616-bdd6-562b-bd7f-7f101cffb6ba-attr-4-type" class="er entityLabel">stringList</text><rect height="21" width="101.46875" y="87" x="57.0625" class="er attributeBoxEven"/><text style="dominant-baseline: middle; font-size: 10.2px;" transform="translate(62.0625,97.5)" y="0" x="0" id="text-entity-SellAction-8c6e0616-bdd6-562b-bd7f-7f101cffb6ba-attr-4-name" class="er entityLabel">participant</text><rect height="21" width="57.0625" y="108" x="0" class="er attributeBoxOdd"/><text style="dominant-baseline: middle; font-size: 10.2px;" transform="translate(5,118.5)" y="0" x="0" id="text-entity-SellAction-8c6e0616-bdd6-562b-bd7f-7f101cffb6ba-attr-5-type" class="er entityLabel">stringList</text><rect height="21" width="101.46875" y="108" x="57.0625" class="er attributeBoxOdd"/><text style="dominant-baseline: middle; font-size: 10.2px;" transform="translate(62.0625,118.5)" y="0" x="0" id="text-entity-SellAction-8c6e0616-bdd6-562b-bd7f-7f101cffb6ba-attr-5-name" class="er entityLabel">agent</text><rect height="21" width="57.0625" y="129" x="0" class="er attributeBoxEven"/><text style="dominant-baseline: middle; font-size: 10.2px;" transform="translate(5,139.5)" y="0" x="0" id="text-entity-SellAction-8c6e0616-bdd6-562b-bd7f-7f101cffb6ba-attr-6-type" class="er entityLabel">stringList</text><rect height="21" width="101.46875" y="129" x="57.0625" class="er attributeBoxEven"/><text style="dominant-baseline: middle; font-size: 10.2px;" transform="translate(62.0625,139.5)" y="0" x="0" id="text-entity-SellAction-8c6e0616-bdd6-562b-bd7f-7f101cffb6ba-attr-6-name" class="er entityLabel">endTime</text><rect height="21" width="57.0625" y="150" x="0" class="er attributeBoxOdd"/><text style="dominant-baseline: middle; font-size: 10.2px;" transform="translate(5,160.5)" y="0" x="0" id="text-entity-SellAction-8c6e0616-bdd6-562b-bd7f-7f101cffb6ba-attr-7-type" class="er entityLabel">stringList</text><rect height="21" width="101.46875" y="150" x="57.0625" class="er attributeBoxOdd"/><text style="dominant-baseline: middle; font-size: 10.2px;" transform="translate(62.0625,160.5)" y="0" x="0" id="text-entity-SellAction-8c6e0616-bdd6-562b-bd7f-7f101cffb6ba-attr-7-name" class="er entityLabel">provider</text><rect height="21" width="57.0625" y="171" x="0" class="er attributeBoxEven"/><text style="dominant-baseline: middle; font-size: 10.2px;" transform="translate(5,181.5)" y="0" x="0" id="text-entity-SellAction-8c6e0616-bdd6-562b-bd7f-7f101cffb6ba-attr-8-type" class="er entityLabel">stringList</text><rect height="21" width="101.46875" y="171" x="57.0625" class="er attributeBoxEven"/><text style="dominant-baseline: middle; font-size: 10.2px;" transform="translate(62.0625,181.5)" y="0" x="0" id="text-entity-SellAction-8c6e0616-bdd6-562b-bd7f-7f101cffb6ba-attr-8-name" class="er entityLabel">startTime</text><rect height="21" width="57.0625" y="192" x="0" class="er attributeBoxOdd"/><text style="dominant-baseline: middle; font-size: 10.2px;" transform="translate(5,202.5)" y="0" x="0" id="text-entity-SellAction-8c6e0616-bdd6-562b-bd7f-7f101cffb6ba-attr-9-type" class="er entityLabel">stringList</text><rect height="21" width="101.46875" y="192" x="57.0625" class="er attributeBoxOdd"/><text style="dominant-baseline: middle; font-size: 10.2px;" transform="translate(62.0625,202.5)" y="0" x="0" id="text-entity-SellAction-8c6e0616-bdd6-562b-bd7f-7f101cffb6ba-attr-9-name" class="er entityLabel">target</text><rect height="21" width="57.0625" y="213" x="0" class="er attributeBoxEven"/><text style="dominant-baseline: middle; font-size: 10.2px;" transform="translate(5,223.5)" y="0" x="0" id="text-entity-SellAction-8c6e0616-bdd6-562b-bd7f-7f101cffb6ba-attr-10-type" class="er entityLabel">stringList</text><rect height="21" width="101.46875" y="213" x="57.0625" class="er attributeBoxEven"/><text style="dominant-baseline: middle; font-size: 10.2px;" transform="translate(62.0625,223.5)" y="0" x="0" id="text-entity-SellAction-8c6e0616-bdd6-562b-bd7f-7f101cffb6ba-attr-10-name" class="er entityLabel">additionalType</text><rect height="21" width="57.0625" y="234" x="0" class="er attributeBoxOdd"/><text style="dominant-baseline: middle; font-size: 10.2px;" transform="translate(5,244.5)" y="0" x="0" id="text-entity-SellAction-8c6e0616-bdd6-562b-bd7f-7f101cffb6ba-attr-11-type" class="er entityLabel">stringList</text><rect height="21" width="101.46875" y="234" x="57.0625" class="er attributeBoxOdd"/><text style="dominant-baseline: middle; font-size: 10.2px;" transform="translate(62.0625,244.5)" y="0" x="0" id="text-entity-SellAction-8c6e0616-bdd6-562b-bd7f-7f101cffb6ba-attr-11-name" class="er entityLabel">description</text><rect height="21" width="57.0625" y="255" x="0" class="er attributeBoxEven"/><text style="dominant-baseline: middle; font-size: 10.2px;" transform="translate(5,265.5)" y="0" x="0" id="text-entity-SellAction-8c6e0616-bdd6-562b-bd7f-7f101cffb6ba-attr-12-type" class="er entityLabel">stringList</text><rect height="21" width="101.46875" y="255" x="57.0625" class="er attributeBoxEven"/><text style="dominant-baseline: middle; font-size: 10.2px;" transform="translate(62.0625,265.5)" y="0" x="0" id="text-entity-SellAction-8c6e0616-bdd6-562b-bd7f-7f101cffb6ba-attr-12-name" class="er entityLabel">identifier</text><rect height="21" width="57.0625" y="276" x="0" class="er attributeBoxOdd"/><text style="dominant-baseline: middle; font-size: 10.2px;" transform="translate(5,286.5)" y="0" x="0" id="text-entity-SellAction-8c6e0616-bdd6-562b-bd7f-7f101cffb6ba-attr-13-type" class="er entityLabel">stringList</text><rect height="21" width="101.46875" y="276" x="57.0625" class="er attributeBoxOdd"/><text style="dominant-baseline: middle; font-size: 10.2px;" transform="translate(62.0625,286.5)" y="0" x="0" id="text-entity-SellAction-8c6e0616-bdd6-562b-bd7f-7f101cffb6ba-attr-13-name" class="er entityLabel">image</text><rect height="21" width="57.0625" y="297" x="0" class="er attributeBoxEven"/><text style="dominant-baseline: middle; font-size: 10.2px;" transform="translate(5,307.5)" y="0" x="0" id="text-entity-SellAction-8c6e0616-bdd6-562b-bd7f-7f101cffb6ba-attr-14-type" class="er entityLabel">stringList</text><rect height="21" width="101.46875" y="297" x="57.0625" class="er attributeBoxEven"/><text style="dominant-baseline: middle; font-size: 10.2px;" transform="translate(62.0625,307.5)" y="0" x="0" id="text-entity-SellAction-8c6e0616-bdd6-562b-bd7f-7f101cffb6ba-attr-14-name" class="er entityLabel">mainEntityOfPage</text><rect height="21" width="57.0625" y="318" x="0" class="er attributeBoxOdd"/><text style="dominant-baseline: middle; font-size: 10.2px;" transform="translate(5,328.5)" y="0" x="0" id="text-entity-SellAction-8c6e0616-bdd6-562b-bd7f-7f101cffb6ba-attr-15-type" class="er entityLabel">stringList</text><rect height="21" width="101.46875" y="318" x="57.0625" class="er attributeBoxOdd"/><text style="dominant-baseline: middle; font-size: 10.2px;" transform="translate(62.0625,328.5)" y="0" x="0" id="text-entity-SellAction-8c6e0616-bdd6-562b-bd7f-7f101cffb6ba-attr-15-name" class="er entityLabel">subjectOf</text></g><g transform="translate(20,459 )" id="entity-WarrantyPromise-5d16e61d-0979-5680-a594-8d1167586dd0"><rect height="75" width="132.578125" y="0" x="0" class="er entityBox"/><text style="dominant-baseline: middle; text-anchor: middle; font-size: 12px;" transform="translate(66.2890625,37.5)" y="0" x="0" id="text-entity-WarrantyPromise-5d16e61d-0979-5680-a594-8d1167586dd0" class="er entityLabel">WarrantyPromise</text></g><g transform="translate(252.578125,459 )" id="entity-Text-426c5d39-acfc-5487-a6d9-ede67887190e"><rect height="75" width="100" y="0" x="0" class="er entityBox"/><text style="dominant-baseline: middle; text-anchor: middle; font-size: 12px;" transform="translate(50,37.5)" y="0" x="0" id="text-entity-Text-426c5d39-acfc-5487-a6d9-ede67887190e" class="er entityLabel">Text</text></g><g transform="translate(543.49609375,459 )" id="entity-PriceSpecification-06171b48-9437-5ab1-a607-7f40e6a6fc9e"><rect height="75" width="136.328125" y="0" x="0" class="er entityBox"/><text style="dominant-baseline: middle; text-anchor: middle; font-size: 12px;" transform="translate(68.1640625,37.5)" y="0" x="0" id="text-entity-PriceSpecification-06171b48-9437-5ab1-a607-7f40e6a6fc9e" class="er entityLabel">PriceSpecification</text></g><g transform="translate(870.7421875,459 )" id="entity-Thing-27bc9527-b992-59fc-a0fb-da83e2ff80bf"><rect height="75" width="100" y="0" x="0" class="er entityBox"/><text style="dominant-baseline: middle; text-anchor: middle; font-size: 12px;" transform="translate(50,37.5)" y="0" x="0" id="text-entity-Thing-27bc9527-b992-59fc-a0fb-da83e2ff80bf" class="er entityLabel">Thing</text></g><g transform="translate(1070.7421875,459 )" id="entity-HowTo-6f9e6b0e-89c2-59a9-964a-8696b3aa66a4"><rect height="75" width="100" y="0" x="0" class="er entityBox"/><text style="dominant-baseline: middle; text-anchor: middle; font-size: 12px;" transform="translate(50,37.5)" y="0" x="0" id="text-entity-HowTo-6f9e6b0e-89c2-59a9-964a-8696b3aa66a4" class="er entityLabel">HowTo</text></g><g transform="translate(1270.7421875,459 )" id="entity-ActionStatusType-935590f3-1b2a-599d-8a3e-9af222825f06"><rect height="75" width="133.390625" y="0" x="0" class="er entityBox"/><text style="dominant-baseline: middle; text-anchor: middle; font-size: 12px;" transform="translate(66.6953125,37.5)" y="0" x="0" id="text-entity-ActionStatusType-935590f3-1b2a-599d-8a3e-9af222825f06" class="er entityLabel">ActionStatusType</text></g><g transform="translate(1504.1328125,459 )" id="entity-URL-07f78d3e-fd74-5925-b39b-26c1cc2d6b7c"><rect height="75" width="100" y="0" x="0" class="er entityBox"/><text style="dominant-baseline: middle; text-anchor: middle; font-size: 12px;" transform="translate(50,37.5)" y="0" x="0" id="text-entity-URL-07f78d3e-fd74-5925-b39b-26c1cc2d6b7c" class="er entityLabel">URL</text></g><g transform="translate(1704.1328125,459 )" id="entity-Action-6cd87d9a-a078-546e-a35b-bee54f477b31"><rect height="75" width="100" y="0" x="0" class="er entityBox"/><text style="dominant-baseline: middle; text-anchor: middle; font-size: 12px;" transform="translate(50,37.5)" y="0" x="0" id="text-entity-Action-6cd87d9a-a078-546e-a35b-bee54f477b31" class="er entityLabel">Action</text></g><rect height="14" width="101.296875" y="308.2263488769531" x="375.08514404296875" class="er relationshipLabelBox"/><text style="text-anchor: middle; dominant-baseline: middle; font-size: 12px;" y="315.2263488769531" x="425.73358154296875" id="rel1" class="er relationshipLabel">warrantyPromise</text><rect height="14" width="83.9375" y="308.00909423828125" x="451.3835144042969" class="er relationshipLabelBox"/><text style="text-anchor: middle; dominant-baseline: middle; font-size: 12px;" y="315.00909423828125" x="493.3522644042969" id="rel2" class="er relationshipLabel">priceCurrency</text><rect height="14" width="106.921875" y="340.549560546875" x="632.9945068359375" class="er relationshipLabelBox"/><text style="text-anchor: middle; dominant-baseline: middle; font-size: 12px;" y="347.549560546875" x="686.4554443359375" id="rel3" class="er relationshipLabel">priceSpecification</text><rect height="14" width="66.11328125" y="407.6211242675781" x="732.4270629882812" class="er relationshipLabelBox"/><text style="text-anchor: middle; dominant-baseline: middle; font-size: 12px;" y="414.6211242675781" x="765.4837036132812" id="rel4" class="er relationshipLabel">instrument</text><rect height="14" width="37.2734375" y="409.49566650390625" x="817.6746826171875" class="er relationshipLabelBox"/><text style="text-anchor: middle; dominant-baseline: middle; font-size: 12px;" y="416.49566650390625" x="836.3114013671875" id="rel5" class="er relationshipLabel">object</text><rect height="14" width="34.244140625" y="401.57513427734375" x="901.6727905273438" class="er relationshipLabelBox"/><text style="text-anchor: middle; dominant-baseline: middle; font-size: 12px;" y="408.57513427734375" x="918.7948608398438" id="rel6" class="er relationshipLabel">result</text><rect height="14" width="82.46875" y="342.17279052734375" x="1009.128662109375" class="er relationshipLabelBox"/><text style="text-anchor: middle; dominant-baseline: middle; font-size: 12px;" y="349.17279052734375" x="1050.363037109375" id="rel7" class="er relationshipLabel">actionProcess</text><rect height="14" width="75.1875" y="319.4192810058594" x="1121.27294921875" class="er relationshipLabelBox"/><text style="text-anchor: middle; dominant-baseline: middle; font-size: 12px;" y="326.4192810058594" x="1158.86669921875" id="rel8" class="er relationshipLabel">actionStatus</text><rect height="14" width="29.1171875" y="375.7899169921875" x="980.8478393554688" class="er relationshipLabelBox"/><text style="text-anchor: middle; dominant-baseline: middle; font-size: 12px;" y="382.7899169921875" x="995.4064331054688" id="rel9" class="er relationshipLabel">error</text><rect height="14" width="89.953125" y="314.4752502441406" x="487.54541015625" class="er relationshipLabelBox"/><text style="text-anchor: middle; dominant-baseline: middle; font-size: 12px;" y="321.4752502441406" x="532.52197265625" id="rel10" class="er relationshipLabel">alternateName</text><rect height="14" width="161.390625" y="327.372802734375" x="482.9090576171875" class="er relationshipLabelBox"/><text style="text-anchor: middle; dominant-baseline: middle; font-size: 12px;" y="334.372802734375" x="563.6043701171875" id="rel11" class="er relationshipLabel">disambiguatingDescription</text><rect height="14" width="34.03125" y="356.2888488769531" x="559.0472412109375" class="er relationshipLabelBox"/><text style="text-anchor: middle; dominant-baseline: middle; font-size: 12px;" y="363.2888488769531" x="576.0628662109375" id="rel12" class="er relationshipLabel">name</text><rect height="14" width="47.140625" y="316.0513610839844" x="1224.2969970703125" class="er relationshipLabelBox"/><text style="text-anchor: middle; dominant-baseline: middle; font-size: 12px;" y="323.0513610839844" x="1247.8673095703125" id="rel13" class="er relationshipLabel">sameAs</text><rect height="14" width="90.96875" y="306.4126892089844" x="1319.199951171875" class="er relationshipLabelBox"/><text style="text-anchor: middle; dominant-baseline: middle; font-size: 12px;" y="313.4126892089844" x="1364.684326171875" id="rel14" class="er relationshipLabel">potentialAction</text><rect height="14" width="15.875" y="307.43817138671875" x="1275.783203125" class="er relationshipLabelBox"/><text style="text-anchor: middle; dominant-baseline: middle; font-size: 12px;" y="314.43817138671875" x="1283.720703125" id="rel15" class="er relationshipLabel">url</text></svg>