<svg aria-roledescription="er" role="graphics-document document" viewBox="0 0 1333.21484375 680" style="max-width: 1333.21px; background-color: white;" xmlns:xlink="http://www.w3.org/1999/xlink" xmlns="http://www.w3.org/2000/svg" width="100%" id="my-svg"><style>#my-svg{font-family:"trebuchet ms",verdana,arial,sans-serif;font-size:16px;fill:#333;}#my-svg .error-icon{fill:#552222;}#my-svg .error-text{fill:#552222;stroke:#552222;}#my-svg .edge-thickness-normal{stroke-width:1px;}#my-svg .edge-thickness-thick{stroke-width:3.5px;}#my-svg .edge-pattern-solid{stroke-dasharray:0;}#my-svg .edge-thickness-invisible{stroke-width:0;fill:none;}#my-svg .edge-pattern-dashed{stroke-dasharray:3;}#my-svg .edge-pattern-dotted{stroke-dasharray:2;}#my-svg .marker{fill:#333333;stroke:#333333;}#my-svg .marker.cross{stroke:#333333;}#my-svg svg{font-family:"trebuchet ms",verdana,arial,sans-serif;font-size:16px;}#my-svg p{margin:0;}#my-svg .entityBox{fill:#ECECFF;stroke:#9370DB;}#my-svg .attributeBoxOdd{fill:#ffffff;stroke:#9370DB;}#my-svg .attributeBoxEven{fill:#f2f2f2;stroke:#9370DB;}#my-svg .relationshipLabelBox{fill:hsl(80, 100%, 96.2745098039%);opacity:0.7;background-color:hsl(80, 100%, 96.2745098039%);}#my-svg .relationshipLabelBox rect{opacity:0.5;}#my-svg .relationshipLine{stroke:#333333;}#my-svg .entityTitleText{text-anchor:middle;font-size:18px;fill:#333;}#my-svg #MD_PARENT_START{fill:#f5f5f5!important;stroke:#333333!important;stroke-width:1;}#my-svg #MD_PARENT_END{fill:#f5f5f5!important;stroke:#333333!important;stroke-width:1;}#my-svg :root{--mermaid-font-family:"trebuchet ms",verdana,arial,sans-serif;}</style><g/><defs><marker orient="auto" markerHeight="240" markerWidth="190" refY="7" refX="0" id="MD_PARENT_START"><path d="M 18,7 L9,13 L1,7 L9,1 Z"/></marker></defs><defs><marker orient="auto" markerHeight="28" markerWidth="20" refY="7" refX="19" id="MD_PARENT_END"><path d="M 18,7 L9,13 L1,7 L9,1 Z"/></marker></defs><defs><marker orient="auto" markerHeight="18" markerWidth="18" refY="9" refX="0" id="ONLY_ONE_START"><path d="M9,0 L9,18 M15,0 L15,18" fill="none" stroke="gray"/></marker></defs><defs><marker orient="auto" markerHeight="18" markerWidth="18" refY="9" refX="18" id="ONLY_ONE_END"><path d="M3,0 L3,18 M9,0 L9,18" fill="none" stroke="gray"/></marker></defs><defs><marker orient="auto" markerHeight="18" markerWidth="30" refY="9" refX="0" id="ZERO_OR_ONE_START"><circle r="6" cy="9" cx="21" fill="white" stroke="gray"/><path d="M9,0 L9,18" fill="none" stroke="gray"/></marker></defs><defs><marker orient="auto" markerHeight="18" markerWidth="30" refY="9" refX="30" id="ZERO_OR_ONE_END"><circle r="6" cy="9" cx="9" fill="white" stroke="gray"/><path d="M21,0 L21,18" fill="none" stroke="gray"/></marker></defs><defs><marker orient="auto" markerHeight="36" markerWidth="45" refY="18" refX="18" id="ONE_OR_MORE_START"><path d="M0,18 Q 18,0 36,18 Q 18,36 0,18 M42,9 L42,27" fill="none" stroke="gray"/></marker></defs><defs><marker orient="auto" markerHeight="36" markerWidth="45" refY="18" refX="27" id="ONE_OR_MORE_END"><path d="M3,9 L3,27 M9,18 Q27,0 45,18 Q27,36 9,18" fill="none" stroke="gray"/></marker></defs><defs><marker orient="auto" markerHeight="36" markerWidth="57" refY="18" refX="18" id="ZERO_OR_MORE_START"><circle r="6" cy="18" cx="48" fill="white" stroke="gray"/><path d="M0,18 Q18,0 36,18 Q18,36 0,18" fill="none" stroke="gray"/></marker></defs><defs><marker orient="auto" markerHeight="36" markerWidth="57" refY="18" refX="39" id="ZERO_OR_MORE_END"><circle r="6" cy="18" cx="9" fill="white" stroke="gray"/><path d="M21,18 Q39,0 57,18 Q39,36 21,18" fill="none" stroke="gray"/></marker></defs><path style="stroke: gray; fill: none;" marker-start="url(#ONLY_ONE_START)" marker-end="url(#ZERO_OR_MORE_END)" d="M527.785,305.534L454.202,343.779C380.62,382.023,233.454,458.511,159.872,505.089C86.289,551.667,86.289,568.333,86.289,576.667L86.289,585" class="er relationshipLine"/><path style="stroke: gray; fill: none;" marker-start="url(#ONLY_ONE_START)" marker-end="url(#ZERO_OR_MORE_END)" d="M527.785,345.763L493.278,377.303C458.771,408.842,389.757,471.921,355.249,511.794C320.742,551.667,320.742,568.333,320.742,576.667L320.742,585" class="er relationshipLine"/><path style="stroke: gray; fill: none;" marker-start="url(#ONLY_ONE_START)" marker-end="url(#ZERO_OR_MORE_END)" d="M527.785,396.63L511.458,419.692C495.132,442.753,462.478,488.877,462.818,521.661C463.158,554.444,496.491,573.889,513.158,583.611L529.824,593.333" class="er relationshipLine"/><path style="stroke: gray; fill: none;" marker-start="url(#ONLY_ONE_START)" marker-end="url(#ZERO_OR_MORE_END)" d="M547.523,485L544.573,493.333C541.624,501.667,535.724,518.333,537.536,535C539.348,551.667,548.872,568.333,553.634,576.667L558.396,585" class="er relationshipLine"/><path style="stroke: gray; fill: none;" marker-start="url(#ONLY_ONE_START)" marker-end="url(#ZERO_OR_MORE_END)" d="M629.824,485L629.824,493.333C629.824,501.667,629.824,518.333,625.062,535C620.3,551.667,610.777,568.333,606.015,576.667L601.253,585" class="er relationshipLine"/><path style="stroke: gray; fill: none;" marker-start="url(#ONLY_ONE_START)" marker-end="url(#ZERO_OR_MORE_END)" d="M731.863,396.63L748.19,419.692C764.517,442.753,797.171,488.877,813.497,520.272C829.824,551.667,829.824,568.333,829.824,576.667L829.824,585" class="er relationshipLine"/><path style="stroke: gray; fill: none;" marker-start="url(#ONLY_ONE_START)" marker-end="url(#ZERO_OR_MORE_END)" d="M731.863,321.678L784.306,357.231C836.749,392.785,941.634,463.893,994.077,507.78C1046.52,551.667,1046.52,568.333,1046.52,576.667L1046.52,585" class="er relationshipLine"/><path style="stroke: gray; fill: none;" marker-start="url(#ONLY_ONE_START)" marker-end="url(#ZERO_OR_MORE_END)" d="M712.125,485L715.075,493.333C718.025,501.667,723.925,518.333,710.208,536.389C696.491,554.444,663.158,573.889,646.491,583.611L629.824,593.333" class="er relationshipLine"/><path style="stroke: gray; fill: none;" marker-start="url(#ONLY_ONE_START)" marker-end="url(#ZERO_OR_MORE_END)" d="M731.863,298.011L820.422,337.509C908.98,377.007,1086.098,456.004,1174.656,503.835C1263.215,551.667,1263.215,568.333,1263.215,576.667L1263.215,585" class="er relationshipLine"/><g transform="translate(527.78515625,20 )" id="entity-SellAction-8c6e0616-bdd6-562b-bd7f-7f101cffb6ba"><rect height="465" width="204.078125" y="0" x="0" class="er entityBox"/><text style="dominant-baseline: middle; text-anchor: middle; font-size: 12px;" transform="translate(102.0390625,12)" y="0" x="0" id="text-entity-SellAction-8c6e0616-bdd6-562b-bd7f-7f101cffb6ba" class="er entityLabel">SellAction</text><rect height="21" width="57.0625" y="24" x="0" class="er attributeBoxOdd"/><text style="dominant-baseline: middle; font-size: 10.2px;" transform="translate(5,34.5)" y="0" x="0" id="text-entity-SellAction-8c6e0616-bdd6-562b-bd7f-7f101cffb6ba-attr-1-type" class="er entityLabel">stringList</text><rect height="21" width="147.015625" y="24" x="57.0625" class="er attributeBoxOdd"/><text style="dominant-baseline: middle; font-size: 10.2px;" transform="translate(62.0625,34.5)" y="0" x="0" id="text-entity-SellAction-8c6e0616-bdd6-562b-bd7f-7f101cffb6ba-attr-1-name" class="er entityLabel">buyer</text><rect height="21" width="57.0625" y="45" x="0" class="er attributeBoxEven"/><text style="dominant-baseline: middle; font-size: 10.2px;" transform="translate(5,55.5)" y="0" x="0" id="text-entity-SellAction-8c6e0616-bdd6-562b-bd7f-7f101cffb6ba-attr-2-type" class="er entityLabel">stringList</text><rect height="21" width="147.015625" y="45" x="57.0625" class="er attributeBoxEven"/><text style="dominant-baseline: middle; font-size: 10.2px;" transform="translate(62.0625,55.5)" y="0" x="0" id="text-entity-SellAction-8c6e0616-bdd6-562b-bd7f-7f101cffb6ba-attr-2-name" class="er entityLabel">price</text><rect height="21" width="57.0625" y="66" x="0" class="er attributeBoxOdd"/><text style="dominant-baseline: middle; font-size: 10.2px;" transform="translate(5,76.5)" y="0" x="0" id="text-entity-SellAction-8c6e0616-bdd6-562b-bd7f-7f101cffb6ba-attr-3-type" class="er entityLabel">TextList</text><rect height="21" width="147.015625" y="66" x="57.0625" class="er attributeBoxOdd"/><text style="dominant-baseline: middle; font-size: 10.2px;" transform="translate(62.0625,76.5)" y="0" x="0" id="text-entity-SellAction-8c6e0616-bdd6-562b-bd7f-7f101cffb6ba-attr-3-name" class="er entityLabel">priceCurrency</text><rect height="21" width="57.0625" y="87" x="0" class="er attributeBoxEven"/><text style="dominant-baseline: middle; font-size: 10.2px;" transform="translate(5,97.5)" y="0" x="0" id="text-entity-SellAction-8c6e0616-bdd6-562b-bd7f-7f101cffb6ba-attr-4-type" class="er entityLabel">stringList</text><rect height="21" width="147.015625" y="87" x="57.0625" class="er attributeBoxEven"/><text style="dominant-baseline: middle; font-size: 10.2px;" transform="translate(62.0625,97.5)" y="0" x="0" id="text-entity-SellAction-8c6e0616-bdd6-562b-bd7f-7f101cffb6ba-attr-4-name" class="er entityLabel">location</text><rect height="21" width="57.0625" y="108" x="0" class="er attributeBoxOdd"/><text style="dominant-baseline: middle; font-size: 10.2px;" transform="translate(5,118.5)" y="0" x="0" id="text-entity-SellAction-8c6e0616-bdd6-562b-bd7f-7f101cffb6ba-attr-5-type" class="er entityLabel">stringList</text><rect height="21" width="147.015625" y="108" x="57.0625" class="er attributeBoxOdd"/><text style="dominant-baseline: middle; font-size: 10.2px;" transform="translate(62.0625,118.5)" y="0" x="0" id="text-entity-SellAction-8c6e0616-bdd6-562b-bd7f-7f101cffb6ba-attr-5-name" class="er entityLabel">participant</text><rect height="21" width="57.0625" y="129" x="0" class="er attributeBoxEven"/><text style="dominant-baseline: middle; font-size: 10.2px;" transform="translate(5,139.5)" y="0" x="0" id="text-entity-SellAction-8c6e0616-bdd6-562b-bd7f-7f101cffb6ba-attr-6-type" class="er entityLabel">stringList</text><rect height="21" width="147.015625" y="129" x="57.0625" class="er attributeBoxEven"/><text style="dominant-baseline: middle; font-size: 10.2px;" transform="translate(62.0625,139.5)" y="0" x="0" id="text-entity-SellAction-8c6e0616-bdd6-562b-bd7f-7f101cffb6ba-attr-6-name" class="er entityLabel">agent</text><rect height="21" width="57.0625" y="150" x="0" class="er attributeBoxOdd"/><text style="dominant-baseline: middle; font-size: 10.2px;" transform="translate(5,160.5)" y="0" x="0" id="text-entity-SellAction-8c6e0616-bdd6-562b-bd7f-7f101cffb6ba-attr-7-type" class="er entityLabel">stringList</text><rect height="21" width="147.015625" y="150" x="57.0625" class="er attributeBoxOdd"/><text style="dominant-baseline: middle; font-size: 10.2px;" transform="translate(62.0625,160.5)" y="0" x="0" id="text-entity-SellAction-8c6e0616-bdd6-562b-bd7f-7f101cffb6ba-attr-7-name" class="er entityLabel">endTime</text><rect height="21" width="57.0625" y="171" x="0" class="er attributeBoxEven"/><text style="dominant-baseline: middle; font-size: 10.2px;" transform="translate(5,181.5)" y="0" x="0" id="text-entity-SellAction-8c6e0616-bdd6-562b-bd7f-7f101cffb6ba-attr-8-type" class="er entityLabel">stringList</text><rect height="21" width="147.015625" y="171" x="57.0625" class="er attributeBoxEven"/><text style="dominant-baseline: middle; font-size: 10.2px;" transform="translate(62.0625,181.5)" y="0" x="0" id="text-entity-SellAction-8c6e0616-bdd6-562b-bd7f-7f101cffb6ba-attr-8-name" class="er entityLabel">provider</text><rect height="21" width="57.0625" y="192" x="0" class="er attributeBoxOdd"/><text style="dominant-baseline: middle; font-size: 10.2px;" transform="translate(5,202.5)" y="0" x="0" id="text-entity-SellAction-8c6e0616-bdd6-562b-bd7f-7f101cffb6ba-attr-9-type" class="er entityLabel">stringList</text><rect height="21" width="147.015625" y="192" x="57.0625" class="er attributeBoxOdd"/><text style="dominant-baseline: middle; font-size: 10.2px;" transform="translate(62.0625,202.5)" y="0" x="0" id="text-entity-SellAction-8c6e0616-bdd6-562b-bd7f-7f101cffb6ba-attr-9-name" class="er entityLabel">startTime</text><rect height="21" width="57.0625" y="213" x="0" class="er attributeBoxEven"/><text style="dominant-baseline: middle; font-size: 10.2px;" transform="translate(5,223.5)" y="0" x="0" id="text-entity-SellAction-8c6e0616-bdd6-562b-bd7f-7f101cffb6ba-attr-10-type" class="er entityLabel">stringList</text><rect height="21" width="147.015625" y="213" x="57.0625" class="er attributeBoxEven"/><text style="dominant-baseline: middle; font-size: 10.2px;" transform="translate(62.0625,223.5)" y="0" x="0" id="text-entity-SellAction-8c6e0616-bdd6-562b-bd7f-7f101cffb6ba-attr-10-name" class="er entityLabel">target</text><rect height="21" width="57.0625" y="234" x="0" class="er attributeBoxOdd"/><text style="dominant-baseline: middle; font-size: 10.2px;" transform="translate(5,244.5)" y="0" x="0" id="text-entity-SellAction-8c6e0616-bdd6-562b-bd7f-7f101cffb6ba-attr-11-type" class="er entityLabel">stringList</text><rect height="21" width="147.015625" y="234" x="57.0625" class="er attributeBoxOdd"/><text style="dominant-baseline: middle; font-size: 10.2px;" transform="translate(62.0625,244.5)" y="0" x="0" id="text-entity-SellAction-8c6e0616-bdd6-562b-bd7f-7f101cffb6ba-attr-11-name" class="er entityLabel">additionalType</text><rect height="21" width="57.0625" y="255" x="0" class="er attributeBoxEven"/><text style="dominant-baseline: middle; font-size: 10.2px;" transform="translate(5,265.5)" y="0" x="0" id="text-entity-SellAction-8c6e0616-bdd6-562b-bd7f-7f101cffb6ba-attr-12-type" class="er entityLabel">TextList</text><rect height="21" width="147.015625" y="255" x="57.0625" class="er attributeBoxEven"/><text style="dominant-baseline: middle; font-size: 10.2px;" transform="translate(62.0625,265.5)" y="0" x="0" id="text-entity-SellAction-8c6e0616-bdd6-562b-bd7f-7f101cffb6ba-attr-12-name" class="er entityLabel">alternateName</text><rect height="21" width="57.0625" y="276" x="0" class="er attributeBoxOdd"/><text style="dominant-baseline: middle; font-size: 10.2px;" transform="translate(5,286.5)" y="0" x="0" id="text-entity-SellAction-8c6e0616-bdd6-562b-bd7f-7f101cffb6ba-attr-13-type" class="er entityLabel">stringList</text><rect height="21" width="147.015625" y="276" x="57.0625" class="er attributeBoxOdd"/><text style="dominant-baseline: middle; font-size: 10.2px;" transform="translate(62.0625,286.5)" y="0" x="0" id="text-entity-SellAction-8c6e0616-bdd6-562b-bd7f-7f101cffb6ba-attr-13-name" class="er entityLabel">description</text><rect height="21" width="57.0625" y="297" x="0" class="er attributeBoxEven"/><text style="dominant-baseline: middle; font-size: 10.2px;" transform="translate(5,307.5)" y="0" x="0" id="text-entity-SellAction-8c6e0616-bdd6-562b-bd7f-7f101cffb6ba-attr-14-type" class="er entityLabel">TextList</text><rect height="21" width="147.015625" y="297" x="57.0625" class="er attributeBoxEven"/><text style="dominant-baseline: middle; font-size: 10.2px;" transform="translate(62.0625,307.5)" y="0" x="0" id="text-entity-SellAction-8c6e0616-bdd6-562b-bd7f-7f101cffb6ba-attr-14-name" class="er entityLabel">disambiguatingDescription</text><rect height="21" width="57.0625" y="318" x="0" class="er attributeBoxOdd"/><text style="dominant-baseline: middle; font-size: 10.2px;" transform="translate(5,328.5)" y="0" x="0" id="text-entity-SellAction-8c6e0616-bdd6-562b-bd7f-7f101cffb6ba-attr-15-type" class="er entityLabel">stringList</text><rect height="21" width="147.015625" y="318" x="57.0625" class="er attributeBoxOdd"/><text style="dominant-baseline: middle; font-size: 10.2px;" transform="translate(62.0625,328.5)" y="0" x="0" id="text-entity-SellAction-8c6e0616-bdd6-562b-bd7f-7f101cffb6ba-attr-15-name" class="er entityLabel">identifier</text><rect height="21" width="57.0625" y="339" x="0" class="er attributeBoxEven"/><text style="dominant-baseline: middle; font-size: 10.2px;" transform="translate(5,349.5)" y="0" x="0" id="text-entity-SellAction-8c6e0616-bdd6-562b-bd7f-7f101cffb6ba-attr-16-type" class="er entityLabel">stringList</text><rect height="21" width="147.015625" y="339" x="57.0625" class="er attributeBoxEven"/><text style="dominant-baseline: middle; font-size: 10.2px;" transform="translate(62.0625,349.5)" y="0" x="0" id="text-entity-SellAction-8c6e0616-bdd6-562b-bd7f-7f101cffb6ba-attr-16-name" class="er entityLabel">image</text><rect height="21" width="57.0625" y="360" x="0" class="er attributeBoxOdd"/><text style="dominant-baseline: middle; font-size: 10.2px;" transform="translate(5,370.5)" y="0" x="0" id="text-entity-SellAction-8c6e0616-bdd6-562b-bd7f-7f101cffb6ba-attr-17-type" class="er entityLabel">TextList</text><rect height="21" width="147.015625" y="360" x="57.0625" class="er attributeBoxOdd"/><text style="dominant-baseline: middle; font-size: 10.2px;" transform="translate(62.0625,370.5)" y="0" x="0" id="text-entity-SellAction-8c6e0616-bdd6-562b-bd7f-7f101cffb6ba-attr-17-name" class="er entityLabel">name</text><rect height="21" width="57.0625" y="381" x="0" class="er attributeBoxEven"/><text style="dominant-baseline: middle; font-size: 10.2px;" transform="translate(5,391.5)" y="0" x="0" id="text-entity-SellAction-8c6e0616-bdd6-562b-bd7f-7f101cffb6ba-attr-18-type" class="er entityLabel">URLList</text><rect height="21" width="147.015625" y="381" x="57.0625" class="er attributeBoxEven"/><text style="dominant-baseline: middle; font-size: 10.2px;" transform="translate(62.0625,391.5)" y="0" x="0" id="text-entity-SellAction-8c6e0616-bdd6-562b-bd7f-7f101cffb6ba-attr-18-name" class="er entityLabel">sameAs</text><rect height="21" width="57.0625" y="402" x="0" class="er attributeBoxOdd"/><text style="dominant-baseline: middle; font-size: 10.2px;" transform="translate(5,412.5)" y="0" x="0" id="text-entity-SellAction-8c6e0616-bdd6-562b-bd7f-7f101cffb6ba-attr-19-type" class="er entityLabel">stringList</text><rect height="21" width="147.015625" y="402" x="57.0625" class="er attributeBoxOdd"/><text style="dominant-baseline: middle; font-size: 10.2px;" transform="translate(62.0625,412.5)" y="0" x="0" id="text-entity-SellAction-8c6e0616-bdd6-562b-bd7f-7f101cffb6ba-attr-19-name" class="er entityLabel">mainEntityOfPage</text><rect height="21" width="57.0625" y="423" x="0" class="er attributeBoxEven"/><text style="dominant-baseline: middle; font-size: 10.2px;" transform="translate(5,433.5)" y="0" x="0" id="text-entity-SellAction-8c6e0616-bdd6-562b-bd7f-7f101cffb6ba-attr-20-type" class="er entityLabel">stringList</text><rect height="21" width="147.015625" y="423" x="57.0625" class="er attributeBoxEven"/><text style="dominant-baseline: middle; font-size: 10.2px;" transform="translate(62.0625,433.5)" y="0" x="0" id="text-entity-SellAction-8c6e0616-bdd6-562b-bd7f-7f101cffb6ba-attr-20-name" class="er entityLabel">subjectOf</text><rect height="21" width="57.0625" y="444" x="0" class="er attributeBoxOdd"/><text style="dominant-baseline: middle; font-size: 10.2px;" transform="translate(5,454.5)" y="0" x="0" id="text-entity-SellAction-8c6e0616-bdd6-562b-bd7f-7f101cffb6ba-attr-21-type" class="er entityLabel">URLList</text><rect height="21" width="147.015625" y="444" x="57.0625" class="er attributeBoxOdd"/><text style="dominant-baseline: middle; font-size: 10.2px;" transform="translate(62.0625,454.5)" y="0" x="0" id="text-entity-SellAction-8c6e0616-bdd6-562b-bd7f-7f101cffb6ba-attr-21-name" class="er entityLabel">url</text></g><g transform="translate(20,585 )" id="entity-WarrantyPromise-5d16e61d-0979-5680-a594-8d1167586dd0"><rect height="75" width="132.578125" y="0" x="0" class="er entityBox"/><text style="dominant-baseline: middle; text-anchor: middle; font-size: 12px;" transform="translate(66.2890625,37.5)" y="0" x="0" id="text-entity-WarrantyPromise-5d16e61d-0979-5680-a594-8d1167586dd0" class="er entityLabel">WarrantyPromise</text></g><g transform="translate(252.578125,585 )" id="entity-PriceSpecification-06171b48-9437-5ab1-a607-7f40e6a6fc9e"><rect height="75" width="136.328125" y="0" x="0" class="er entityBox"/><text style="dominant-baseline: middle; text-anchor: middle; font-size: 12px;" transform="translate(68.1640625,37.5)" y="0" x="0" id="text-entity-PriceSpecification-06171b48-9437-5ab1-a607-7f40e6a6fc9e" class="er entityLabel">PriceSpecification</text></g><g transform="translate(529.82421875,585 )" id="entity-Thing-27bc9527-b992-59fc-a0fb-da83e2ff80bf"><rect height="75" width="100" y="0" x="0" class="er entityBox"/><text style="dominant-baseline: middle; text-anchor: middle; font-size: 12px;" transform="translate(50,37.5)" y="0" x="0" id="text-entity-Thing-27bc9527-b992-59fc-a0fb-da83e2ff80bf" class="er entityLabel">Thing</text></g><g transform="translate(779.82421875,585 )" id="entity-HowTo-6f9e6b0e-89c2-59a9-964a-8696b3aa66a4"><rect height="75" width="100" y="0" x="0" class="er entityBox"/><text style="dominant-baseline: middle; text-anchor: middle; font-size: 12px;" transform="translate(50,37.5)" y="0" x="0" id="text-entity-HowTo-6f9e6b0e-89c2-59a9-964a-8696b3aa66a4" class="er entityLabel">HowTo</text></g><g transform="translate(979.82421875,585 )" id="entity-ActionStatusType-935590f3-1b2a-599d-8a3e-9af222825f06"><rect height="75" width="133.390625" y="0" x="0" class="er entityBox"/><text style="dominant-baseline: middle; text-anchor: middle; font-size: 12px;" transform="translate(66.6953125,37.5)" y="0" x="0" id="text-entity-ActionStatusType-935590f3-1b2a-599d-8a3e-9af222825f06" class="er entityLabel">ActionStatusType</text></g><g transform="translate(1213.21484375,585 )" id="entity-Action-6cd87d9a-a078-546e-a35b-bee54f477b31"><rect height="75" width="100" y="0" x="0" class="er entityBox"/><text style="dominant-baseline: middle; text-anchor: middle; font-size: 12px;" transform="translate(50,37.5)" y="0" x="0" id="text-entity-Action-6cd87d9a-a078-546e-a35b-bee54f477b31" class="er entityLabel">Action</text></g><rect height="14" width="101.296875" y="422.441162109375" x="241.3404541015625" class="er relationshipLabelBox"/><text style="text-anchor: middle; dominant-baseline: middle; font-size: 12px;" y="429.441162109375" x="291.9888916015625" id="rel1" class="er relationshipLabel">warrantyPromise</text><rect height="14" width="106.921875" y="448.6335754394531" x="356.0411376953125" class="er relationshipLabelBox"/><text style="text-anchor: middle; dominant-baseline: middle; font-size: 12px;" y="455.6335754394531" x="409.5020751953125" id="rel2" class="er relationshipLabel">priceSpecification</text><rect height="14" width="66.11328125" y="495.0789489746094" x="432.71759033203125" class="er relationshipLabelBox"/><text style="text-anchor: middle; dominant-baseline: middle; font-size: 12px;" y="502.0789489746094" x="465.77423095703125" id="rel3" class="er relationshipLabel">instrument</text><rect height="14" width="37.2734375" y="529.5468139648438" x="519.08935546875" class="er relationshipLabelBox"/><text style="text-anchor: middle; dominant-baseline: middle; font-size: 12px;" y="536.5468139648438" x="537.72607421875" id="rel4" class="er relationshipLabel">object</text><rect height="14" width="34.244140625" y="530.4470825195312" x="607.20703125" class="er relationshipLabelBox"/><text style="text-anchor: middle; dominant-baseline: middle; font-size: 12px;" y="537.4470825195312" x="624.3291015625" id="rel5" class="er relationshipLabel">result</text><rect height="14" width="82.46875" y="478.55633544921875" x="751.823486328125" class="er relationshipLabelBox"/><text style="text-anchor: middle; dominant-baseline: middle; font-size: 12px;" y="485.55633544921875" x="793.057861328125" id="rel6" class="er relationshipLabel">actionProcess</text><rect height="14" width="75.1875" y="433.2406005859375" x="866.9338989257812" class="er relationshipLabelBox"/><text style="text-anchor: middle; dominant-baseline: middle; font-size: 12px;" y="440.2406005859375" x="904.5276489257812" id="rel7" class="er relationshipLabel">actionStatus</text><rect height="14" width="29.1171875" y="545.0509033203125" x="679.8053588867188" class="er relationshipLabelBox"/><text style="text-anchor: middle; dominant-baseline: middle; font-size: 12px;" y="552.0509033203125" x="694.3639526367188" id="rel8" class="er relationshipLabel">error</text><rect height="14" width="90.96875" y="417.31622314453125" x="966.674072265625" class="er relationshipLabelBox"/><text style="text-anchor: middle; dominant-baseline: middle; font-size: 12px;" y="424.31622314453125" x="1012.158447265625" id="rel9" class="er relationshipLabel">potentialAction</text></svg>