<svg aria-roledescription="er" role="graphics-document document" viewBox="0 0 1351.609375 365" style="max-width: 1351.61px; background-color: white;" xmlns:xlink="http://www.w3.org/1999/xlink" xmlns="http://www.w3.org/2000/svg" width="100%" id="my-svg"><style>#my-svg{font-family:"trebuchet ms",verdana,arial,sans-serif;font-size:16px;fill:#333;}#my-svg .error-icon{fill:#552222;}#my-svg .error-text{fill:#552222;stroke:#552222;}#my-svg .edge-thickness-normal{stroke-width:1px;}#my-svg .edge-thickness-thick{stroke-width:3.5px;}#my-svg .edge-pattern-solid{stroke-dasharray:0;}#my-svg .edge-thickness-invisible{stroke-width:0;fill:none;}#my-svg .edge-pattern-dashed{stroke-dasharray:3;}#my-svg .edge-pattern-dotted{stroke-dasharray:2;}#my-svg .marker{fill:#333333;stroke:#333333;}#my-svg .marker.cross{stroke:#333333;}#my-svg svg{font-family:"trebuchet ms",verdana,arial,sans-serif;font-size:16px;}#my-svg p{margin:0;}#my-svg .entityBox{fill:#ECECFF;stroke:#9370DB;}#my-svg .attributeBoxOdd{fill:#ffffff;stroke:#9370DB;}#my-svg .attributeBoxEven{fill:#f2f2f2;stroke:#9370DB;}#my-svg .relationshipLabelBox{fill:hsl(80, 100%, 96.2745098039%);opacity:0.7;background-color:hsl(80, 100%, 96.2745098039%);}#my-svg .relationshipLabelBox rect{opacity:0.5;}#my-svg .relationshipLine{stroke:#333333;}#my-svg .entityTitleText{text-anchor:middle;font-size:18px;fill:#333;}#my-svg #MD_PARENT_START{fill:#f5f5f5!important;stroke:#333333!important;stroke-width:1;}#my-svg #MD_PARENT_END{fill:#f5f5f5!important;stroke:#333333!important;stroke-width:1;}#my-svg :root{--mermaid-font-family:"trebuchet ms",verdana,arial,sans-serif;}</style><g/><defs><marker orient="auto" markerHeight="240" markerWidth="190" refY="7" refX="0" id="MD_PARENT_START"><path d="M 18,7 L9,13 L1,7 L9,1 Z"/></marker></defs><defs><marker orient="auto" markerHeight="28" markerWidth="20" refY="7" refX="19" id="MD_PARENT_END"><path d="M 18,7 L9,13 L1,7 L9,1 Z"/></marker></defs><defs><marker orient="auto" markerHeight="18" markerWidth="18" refY="9" refX="0" id="ONLY_ONE_START"><path d="M9,0 L9,18 M15,0 L15,18" fill="none" stroke="gray"/></marker></defs><defs><marker orient="auto" markerHeight="18" markerWidth="18" refY="9" refX="18" id="ONLY_ONE_END"><path d="M3,0 L3,18 M9,0 L9,18" fill="none" stroke="gray"/></marker></defs><defs><marker orient="auto" markerHeight="18" markerWidth="30" refY="9" refX="0" id="ZERO_OR_ONE_START"><circle r="6" cy="9" cx="21" fill="white" stroke="gray"/><path d="M9,0 L9,18" fill="none" stroke="gray"/></marker></defs><defs><marker orient="auto" markerHeight="18" markerWidth="30" refY="9" refX="30" id="ZERO_OR_ONE_END"><circle r="6" cy="9" cx="9" fill="white" stroke="gray"/><path d="M21,0 L21,18" fill="none" stroke="gray"/></marker></defs><defs><marker orient="auto" markerHeight="36" markerWidth="45" refY="18" refX="18" id="ONE_OR_MORE_START"><path d="M0,18 Q 18,0 36,18 Q 18,36 0,18 M42,9 L42,27" fill="none" stroke="gray"/></marker></defs><defs><marker orient="auto" markerHeight="36" markerWidth="45" refY="18" refX="27" id="ONE_OR_MORE_END"><path d="M3,9 L3,27 M9,18 Q27,0 45,18 Q27,36 9,18" fill="none" stroke="gray"/></marker></defs><defs><marker orient="auto" markerHeight="36" markerWidth="57" refY="18" refX="18" id="ZERO_OR_MORE_START"><circle r="6" cy="18" cx="48" fill="white" stroke="gray"/><path d="M0,18 Q18,0 36,18 Q18,36 0,18" fill="none" stroke="gray"/></marker></defs><defs><marker orient="auto" markerHeight="36" markerWidth="57" refY="18" refX="39" id="ZERO_OR_MORE_END"><circle r="6" cy="18" cx="9" fill="white" stroke="gray"/><path d="M21,18 Q39,0 57,18 Q39,36 21,18" fill="none" stroke="gray"/></marker></defs><path style="stroke: gray; fill: none;" marker-start="url(#ONLY_ONE_START)" marker-end="url(#ZERO_OR_MORE_END)" d="M710.242,109.965L611.27,128.305C512.297,146.644,314.352,183.322,215.379,209.994C116.406,236.667,116.406,253.333,116.406,261.667L116.406,270" class="er relationshipLine"/><path style="stroke: gray; fill: none;" marker-start="url(#ONLY_ONE_START)" marker-end="url(#ZERO_OR_MORE_END)" d="M710.242,118.577L652.337,135.481C594.432,152.385,478.622,186.192,420.717,211.43C362.813,236.667,362.813,253.333,362.813,261.667L362.813,270" class="er relationshipLine"/><path style="stroke: gray; fill: none;" marker-start="url(#ONLY_ONE_START)" marker-end="url(#ZERO_OR_MORE_END)" d="M710.242,132.559L678.904,147.132C647.565,161.706,584.888,190.853,559.206,213.76C533.525,236.667,544.839,253.333,550.496,261.667L556.153,270" class="er relationshipLine"/><path style="stroke: gray; fill: none;" marker-start="url(#ONLY_ONE_START)" marker-end="url(#ZERO_OR_MORE_END)" d="M710.242,158.336L697.137,168.614C684.031,178.891,657.82,199.445,639.953,218.056C622.086,236.667,612.562,253.333,607.8,261.667L603.038,270" class="er relationshipLine"/><path style="stroke: gray; fill: none;" marker-start="url(#ONLY_ONE_START)" marker-end="url(#ZERO_OR_MORE_END)" d="M755.369,170L751.409,178.333C747.449,186.667,739.529,203.333,745.988,220C752.447,236.667,773.285,253.333,783.704,261.667L794.123,270" class="er relationshipLine"/><path style="stroke: gray; fill: none;" marker-start="url(#ONLY_ONE_START)" marker-end="url(#ZERO_OR_MORE_END)" d="M815.369,170L818.076,178.333C820.782,186.667,826.196,203.333,829.798,220C833.4,236.667,835.19,253.333,836.085,261.667L836.98,270" class="er relationshipLine"/><path style="stroke: gray; fill: none;" marker-start="url(#ONLY_ONE_START)" marker-end="url(#ZERO_OR_MORE_END)" d="M871.773,166.804L881.746,175.67C891.719,184.536,911.664,202.268,913.008,219.467C914.352,236.667,897.094,253.333,888.466,261.667L879.837,270" class="er relationshipLine"/><path style="stroke: gray; fill: none;" marker-start="url(#ONLY_ONE_START)" marker-end="url(#ZERO_OR_MORE_END)" d="M871.773,136.96L898.413,150.8C925.052,164.64,978.331,192.32,1009.732,214.493C1041.133,236.667,1050.657,253.333,1055.419,261.667L1060.181,270" class="er relationshipLine"/><path style="stroke: gray; fill: none;" marker-start="url(#ONLY_ONE_START)" marker-end="url(#ZERO_OR_MORE_END)" d="M871.773,115.578L940.079,132.982C1008.385,150.385,1144.997,185.193,1213.303,210.93C1281.609,236.667,1281.609,253.333,1281.609,261.667L1281.609,270" class="er relationshipLine"/><path style="stroke: gray; fill: none;" marker-start="url(#ONLY_ONE_START)" marker-end="url(#ZERO_OR_MORE_END)" d="M871.773,124.641L915.079,140.534C958.385,156.427,1044.997,188.214,1083.541,212.44C1122.086,236.667,1112.562,253.333,1107.8,261.667L1103.038,270" class="er relationshipLine"/><g transform="translate(710.2421875,20 )" id="entity-ShippingDeliveryTime-77f7a3e8-e814-5a0b-875e-5f667d4423a1"><rect height="150" width="161.53125" y="0" x="0" class="er entityBox"/><text style="dominant-baseline: middle; text-anchor: middle; font-size: 12px;" transform="translate(80.765625,12)" y="0" x="0" id="text-entity-ShippingDeliveryTime-77f7a3e8-e814-5a0b-875e-5f667d4423a1" class="er entityLabel">ShippingDeliveryTime</text><rect height="21" width="58.5625" y="24" x="0" class="er attributeBoxOdd"/><text style="dominant-baseline: middle; font-size: 10.2px;" transform="translate(5,34.5)" y="0" x="0" id="text-entity-ShippingDeliveryTime-77f7a3e8-e814-5a0b-875e-5f667d4423a1-attr-1-type" class="er entityLabel">stringList</text><rect height="21" width="102.96875" y="24" x="58.5625" class="er attributeBoxOdd"/><text style="dominant-baseline: middle; font-size: 10.2px;" transform="translate(63.5625,34.5)" y="0" x="0" id="text-entity-ShippingDeliveryTime-77f7a3e8-e814-5a0b-875e-5f667d4423a1-attr-1-name" class="er entityLabel">additionalType</text><rect height="21" width="58.5625" y="45" x="0" class="er attributeBoxEven"/><text style="dominant-baseline: middle; font-size: 10.2px;" transform="translate(5,55.5)" y="0" x="0" id="text-entity-ShippingDeliveryTime-77f7a3e8-e814-5a0b-875e-5f667d4423a1-attr-2-type" class="er entityLabel">stringList</text><rect height="21" width="102.96875" y="45" x="58.5625" class="er attributeBoxEven"/><text style="dominant-baseline: middle; font-size: 10.2px;" transform="translate(63.5625,55.5)" y="0" x="0" id="text-entity-ShippingDeliveryTime-77f7a3e8-e814-5a0b-875e-5f667d4423a1-attr-2-name" class="er entityLabel">description</text><rect height="21" width="58.5625" y="66" x="0" class="er attributeBoxOdd"/><text style="dominant-baseline: middle; font-size: 10.2px;" transform="translate(5,76.5)" y="0" x="0" id="text-entity-ShippingDeliveryTime-77f7a3e8-e814-5a0b-875e-5f667d4423a1-attr-3-type" class="er entityLabel">stringList</text><rect height="21" width="102.96875" y="66" x="58.5625" class="er attributeBoxOdd"/><text style="dominant-baseline: middle; font-size: 10.2px;" transform="translate(63.5625,76.5)" y="0" x="0" id="text-entity-ShippingDeliveryTime-77f7a3e8-e814-5a0b-875e-5f667d4423a1-attr-3-name" class="er entityLabel">identifier</text><rect height="21" width="58.5625" y="87" x="0" class="er attributeBoxEven"/><text style="dominant-baseline: middle; font-size: 10.2px;" transform="translate(5,97.5)" y="0" x="0" id="text-entity-ShippingDeliveryTime-77f7a3e8-e814-5a0b-875e-5f667d4423a1-attr-4-type" class="er entityLabel">stringList</text><rect height="21" width="102.96875" y="87" x="58.5625" class="er attributeBoxEven"/><text style="dominant-baseline: middle; font-size: 10.2px;" transform="translate(63.5625,97.5)" y="0" x="0" id="text-entity-ShippingDeliveryTime-77f7a3e8-e814-5a0b-875e-5f667d4423a1-attr-4-name" class="er entityLabel">image</text><rect height="21" width="58.5625" y="108" x="0" class="er attributeBoxOdd"/><text style="dominant-baseline: middle; font-size: 10.2px;" transform="translate(5,118.5)" y="0" x="0" id="text-entity-ShippingDeliveryTime-77f7a3e8-e814-5a0b-875e-5f667d4423a1-attr-5-type" class="er entityLabel">stringList</text><rect height="21" width="102.96875" y="108" x="58.5625" class="er attributeBoxOdd"/><text style="dominant-baseline: middle; font-size: 10.2px;" transform="translate(63.5625,118.5)" y="0" x="0" id="text-entity-ShippingDeliveryTime-77f7a3e8-e814-5a0b-875e-5f667d4423a1-attr-5-name" class="er entityLabel">mainEntityOfPage</text><rect height="21" width="58.5625" y="129" x="0" class="er attributeBoxEven"/><text style="dominant-baseline: middle; font-size: 10.2px;" transform="translate(5,139.5)" y="0" x="0" id="text-entity-ShippingDeliveryTime-77f7a3e8-e814-5a0b-875e-5f667d4423a1-attr-6-type" class="er entityLabel">stringList</text><rect height="21" width="102.96875" y="129" x="58.5625" class="er attributeBoxEven"/><text style="dominant-baseline: middle; font-size: 10.2px;" transform="translate(63.5625,139.5)" y="0" x="0" id="text-entity-ShippingDeliveryTime-77f7a3e8-e814-5a0b-875e-5f667d4423a1-attr-6-name" class="er entityLabel">subjectOf</text></g><g transform="translate(20,270 )" id="entity-OpeningHoursSpecification-677aa64f-a506-5d18-b5d1-75a0f22f6986"><rect height="75" width="192.8125" y="0" x="0" class="er entityBox"/><text style="dominant-baseline: middle; text-anchor: middle; font-size: 12px;" transform="translate(96.40625,37.5)" y="0" x="0" id="text-entity-OpeningHoursSpecification-677aa64f-a506-5d18-b5d1-75a0f22f6986" class="er entityLabel">OpeningHoursSpecification</text></g><g transform="translate(312.8125,270 )" id="entity-Time-d4794805-7400-5d26-be0f-9da72b06586d"><rect height="75" width="100" y="0" x="0" class="er entityBox"/><text style="dominant-baseline: middle; text-anchor: middle; font-size: 12px;" transform="translate(50,37.5)" y="0" x="0" id="text-entity-Time-d4794805-7400-5d26-be0f-9da72b06586d" class="er entityLabel">Time</text></g><g transform="translate(512.8125,270 )" id="entity-QuantitativeValue-3d19db81-2acf-5dcd-99e0-52d6a275eca4"><rect height="75" width="137.59375" y="0" x="0" class="er entityBox"/><text style="dominant-baseline: middle; text-anchor: middle; font-size: 12px;" transform="translate(68.796875,37.5)" y="0" x="0" id="text-entity-QuantitativeValue-3d19db81-2acf-5dcd-99e0-52d6a275eca4" class="er entityLabel">QuantitativeValue</text></g><g transform="translate(791.0078125,270 )" id="entity-Text-426c5d39-acfc-5487-a6d9-ede67887190e"><rect height="75" width="100" y="0" x="0" class="er entityBox"/><text style="dominant-baseline: middle; text-anchor: middle; font-size: 12px;" transform="translate(50,37.5)" y="0" x="0" id="text-entity-Text-426c5d39-acfc-5487-a6d9-ede67887190e" class="er entityLabel">Text</text></g><g transform="translate(1031.609375,270 )" id="entity-URL-07f78d3e-fd74-5925-b39b-26c1cc2d6b7c"><rect height="75" width="100" y="0" x="0" class="er entityBox"/><text style="dominant-baseline: middle; text-anchor: middle; font-size: 12px;" transform="translate(50,37.5)" y="0" x="0" id="text-entity-URL-07f78d3e-fd74-5925-b39b-26c1cc2d6b7c" class="er entityLabel">URL</text></g><g transform="translate(1231.609375,270 )" id="entity-Action-6cd87d9a-a078-546e-a35b-bee54f477b31"><rect height="75" width="100" y="0" x="0" class="er entityBox"/><text style="dominant-baseline: middle; text-anchor: middle; font-size: 12px;" transform="translate(50,37.5)" y="0" x="0" id="text-entity-Action-6cd87d9a-a078-546e-a35b-bee54f477b31" class="er entityLabel">Action</text></g><rect height="14" width="82.25" y="161.54107666015625" x="359.6285095214844" class="er relationshipLabelBox"/><text style="text-anchor: middle; dominant-baseline: middle; font-size: 12px;" y="168.54107666015625" x="400.7535095214844" id="rel1" class="er relationshipLabel">businessDays</text><rect height="14" width="63.890625" y="167.99600219726562" x="489.946533203125" class="er relationshipLabelBox"/><text style="text-anchor: middle; dominant-baseline: middle; font-size: 12px;" y="174.99600219726562" x="521.891845703125" id="rel2" class="er relationshipLabel">cutoffTime</text><rect height="14" width="81.453125" y="177.39443969726562" x="563.0692749023438" class="er relationshipLabelBox"/><text style="text-anchor: middle; dominant-baseline: middle; font-size: 12px;" y="184.39443969726562" x="603.7958374023438" id="rel3" class="er relationshipLabel">handlingTime</text><rect height="14" width="68.265625" y="201.10125732421875" x="615.9281616210938" class="er relationshipLabelBox"/><text style="text-anchor: middle; dominant-baseline: middle; font-size: 12px;" y="208.10125732421875" x="650.0609741210938" id="rel4" class="er relationshipLabel">transitTime</text><rect height="14" width="89.953125" y="220.8168182373047" x="705.0205078125" class="er relationshipLabelBox"/><text style="text-anchor: middle; dominant-baseline: middle; font-size: 12px;" y="227.8168182373047" x="749.9970703125" id="rel5" class="er relationshipLabel">alternateName</text><rect height="14" width="161.390625" y="212.2549591064453" x="748.9403686523438" class="er relationshipLabelBox"/><text style="text-anchor: middle; dominant-baseline: middle; font-size: 12px;" y="219.2549591064453" x="829.6356811523438" id="rel6" class="er relationshipLabel">disambiguatingDescription</text><rect height="14" width="34.03125" y="209.50466918945312" x="895.5828857421875" class="er relationshipLabelBox"/><text style="text-anchor: middle; dominant-baseline: middle; font-size: 12px;" y="216.50466918945312" x="912.5985107421875" id="rel7" class="er relationshipLabel">name</text><rect height="14" width="47.140625" y="185.40939331054688" x="951.3280029296875" class="er relationshipLabelBox"/><text style="text-anchor: middle; dominant-baseline: middle; font-size: 12px;" y="192.40939331054688" x="974.8983154296875" id="rel8" class="er relationshipLabel">sameAs</text><rect height="14" width="90.96875" y="165.7186737060547" x="1045.238525390625" class="er relationshipLabelBox"/><text style="text-anchor: middle; dominant-baseline: middle; font-size: 12px;" y="172.7186737060547" x="1090.722900390625" id="rel9" class="er relationshipLabel">potentialAction</text><rect height="14" width="15.875" y="171.1300048828125" x="1004.7380981445312" class="er relationshipLabelBox"/><text style="text-anchor: middle; dominant-baseline: middle; font-size: 12px;" y="178.1300048828125" x="1012.6755981445312" id="rel10" class="er relationshipLabel">url</text></svg>