<svg aria-roledescription="er" role="graphics-document document" viewBox="0 0 1684.4609375 470" style="max-width: 1684.46px; background-color: white;" xmlns:xlink="http://www.w3.org/1999/xlink" xmlns="http://www.w3.org/2000/svg" width="100%" id="my-svg"><style>#my-svg{font-family:"trebuchet ms",verdana,arial,sans-serif;font-size:16px;fill:#333;}#my-svg .error-icon{fill:#552222;}#my-svg .error-text{fill:#552222;stroke:#552222;}#my-svg .edge-thickness-normal{stroke-width:1px;}#my-svg .edge-thickness-thick{stroke-width:3.5px;}#my-svg .edge-pattern-solid{stroke-dasharray:0;}#my-svg .edge-thickness-invisible{stroke-width:0;fill:none;}#my-svg .edge-pattern-dashed{stroke-dasharray:3;}#my-svg .edge-pattern-dotted{stroke-dasharray:2;}#my-svg .marker{fill:#333333;stroke:#333333;}#my-svg .marker.cross{stroke:#333333;}#my-svg svg{font-family:"trebuchet ms",verdana,arial,sans-serif;font-size:16px;}#my-svg p{margin:0;}#my-svg .entityBox{fill:#ECECFF;stroke:#9370DB;}#my-svg .attributeBoxOdd{fill:#ffffff;stroke:#9370DB;}#my-svg .attributeBoxEven{fill:#f2f2f2;stroke:#9370DB;}#my-svg .relationshipLabelBox{fill:hsl(80, 100%, 96.2745098039%);opacity:0.7;background-color:hsl(80, 100%, 96.2745098039%);}#my-svg .relationshipLabelBox rect{opacity:0.5;}#my-svg .relationshipLine{stroke:#333333;}#my-svg .entityTitleText{text-anchor:middle;font-size:18px;fill:#333;}#my-svg #MD_PARENT_START{fill:#f5f5f5!important;stroke:#333333!important;stroke-width:1;}#my-svg #MD_PARENT_END{fill:#f5f5f5!important;stroke:#333333!important;stroke-width:1;}#my-svg :root{--mermaid-font-family:"trebuchet ms",verdana,arial,sans-serif;}</style><g/><defs><marker orient="auto" markerHeight="240" markerWidth="190" refY="7" refX="0" id="MD_PARENT_START"><path d="M 18,7 L9,13 L1,7 L9,1 Z"/></marker></defs><defs><marker orient="auto" markerHeight="28" markerWidth="20" refY="7" refX="19" id="MD_PARENT_END"><path d="M 18,7 L9,13 L1,7 L9,1 Z"/></marker></defs><defs><marker orient="auto" markerHeight="18" markerWidth="18" refY="9" refX="0" id="ONLY_ONE_START"><path d="M9,0 L9,18 M15,0 L15,18" fill="none" stroke="gray"/></marker></defs><defs><marker orient="auto" markerHeight="18" markerWidth="18" refY="9" refX="18" id="ONLY_ONE_END"><path d="M3,0 L3,18 M9,0 L9,18" fill="none" stroke="gray"/></marker></defs><defs><marker orient="auto" markerHeight="18" markerWidth="30" refY="9" refX="0" id="ZERO_OR_ONE_START"><circle r="6" cy="9" cx="21" fill="white" stroke="gray"/><path d="M9,0 L9,18" fill="none" stroke="gray"/></marker></defs><defs><marker orient="auto" markerHeight="18" markerWidth="30" refY="9" refX="30" id="ZERO_OR_ONE_END"><circle r="6" cy="9" cx="9" fill="white" stroke="gray"/><path d="M21,0 L21,18" fill="none" stroke="gray"/></marker></defs><defs><marker orient="auto" markerHeight="36" markerWidth="45" refY="18" refX="18" id="ONE_OR_MORE_START"><path d="M0,18 Q 18,0 36,18 Q 18,36 0,18 M42,9 L42,27" fill="none" stroke="gray"/></marker></defs><defs><marker orient="auto" markerHeight="36" markerWidth="45" refY="18" refX="27" id="ONE_OR_MORE_END"><path d="M3,9 L3,27 M9,18 Q27,0 45,18 Q27,36 9,18" fill="none" stroke="gray"/></marker></defs><defs><marker orient="auto" markerHeight="36" markerWidth="57" refY="18" refX="18" id="ZERO_OR_MORE_START"><circle r="6" cy="18" cx="48" fill="white" stroke="gray"/><path d="M0,18 Q18,0 36,18 Q18,36 0,18" fill="none" stroke="gray"/></marker></defs><defs><marker orient="auto" markerHeight="36" markerWidth="57" refY="18" refX="39" id="ZERO_OR_MORE_END"><circle r="6" cy="18" cx="9" fill="white" stroke="gray"/><path d="M21,18 Q39,0 57,18 Q39,36 21,18" fill="none" stroke="gray"/></marker></defs><path style="stroke: gray; fill: none;" marker-start="url(#ONLY_ONE_START)" marker-end="url(#ZERO_OR_MORE_END)" d="M782.949,164.587L658.924,191.322C534.898,218.058,286.848,271.529,167.584,306.598C48.321,341.667,57.844,358.333,62.606,366.667L67.368,375" class="er relationshipLine"/><path style="stroke: gray; fill: none;" marker-start="url(#ONLY_ONE_START)" marker-end="url(#ZERO_OR_MORE_END)" d="M782.949,166.949L675.59,193.291C568.232,219.633,353.514,272.316,241.394,306.991C129.273,341.667,119.749,358.333,114.987,366.667L110.225,375" class="er relationshipLine"/><path style="stroke: gray; fill: none;" marker-start="url(#ONLY_ONE_START)" marker-end="url(#ZERO_OR_MORE_END)" d="M782.949,170.069L692.257,195.89C601.565,221.712,420.181,273.356,315.203,307.511C210.225,341.667,181.654,358.333,167.368,366.667L153.083,375" class="er relationshipLine"/><path style="stroke: gray; fill: none;" marker-start="url(#ONLY_ONE_START)" marker-end="url(#ZERO_OR_MORE_END)" d="M782.949,175.056L711.063,200.047C639.176,225.037,495.402,275.019,423.516,308.343C351.629,341.667,351.629,358.333,351.629,366.667L351.629,375" class="er relationshipLine"/><path style="stroke: gray; fill: none;" marker-start="url(#ONLY_ONE_START)" marker-end="url(#ZERO_OR_MORE_END)" d="M782.949,182.873L729.868,206.561C676.786,230.248,570.624,277.624,548.492,312.144C526.359,346.664,588.258,368.329,619.207,379.161L650.156,389.993" class="er relationshipLine"/><path style="stroke: gray; fill: none;" marker-start="url(#ONLY_ONE_START)" marker-end="url(#ZERO_OR_MORE_END)" d="M782.949,194.753L746.535,216.461C710.12,238.168,637.29,281.584,615.161,311.625C593.032,341.667,621.604,358.333,635.89,366.667L650.175,375" class="er relationshipLine"/><path style="stroke: gray; fill: none;" marker-start="url(#ONLY_ONE_START)" marker-end="url(#ZERO_OR_MORE_END)" d="M782.949,218.647L763.201,236.373C743.453,254.098,703.957,289.549,688.971,315.608C673.985,341.667,683.509,358.333,688.27,366.667L693.032,375" class="er relationshipLine"/><path style="stroke: gray; fill: none;" marker-start="url(#ONLY_ONE_START)" marker-end="url(#ZERO_OR_MORE_END)" d="M791.997,275L787.408,283.333C782.818,291.667,773.64,308.333,764.288,325C754.937,341.667,745.413,358.333,740.651,366.667L735.89,375" class="er relationshipLine"/><path style="stroke: gray; fill: none;" marker-start="url(#ONLY_ONE_START)" marker-end="url(#ZERO_OR_MORE_END)" d="M863.828,275L863.934,283.333C864.039,291.667,864.25,308.333,850.07,325C835.89,341.667,807.318,358.333,793.032,366.667L778.747,375" class="er relationshipLine"/><path style="stroke: gray; fill: none;" marker-start="url(#ONLY_ONE_START)" marker-end="url(#ZERO_OR_MORE_END)" d="M935.659,275L940.46,283.333C945.26,291.667,954.86,308.333,928.711,327.499C902.563,346.664,840.664,368.329,809.715,379.161L778.766,389.993" class="er relationshipLine"/><path style="stroke: gray; fill: none;" marker-start="url(#ONLY_ONE_START)" marker-end="url(#ZERO_OR_MORE_END)" d="M941.48,217.067L961.977,235.056C982.474,253.045,1023.467,289.022,1060.257,316.659C1097.046,344.297,1129.63,363.593,1145.923,373.242L1162.215,382.89" class="er relationshipLine"/><path style="stroke: gray; fill: none;" marker-start="url(#ONLY_ONE_START)" marker-end="url(#ZERO_OR_MORE_END)" d="M941.48,194.05L978.644,215.875C1015.807,237.7,1090.134,281.35,1131.846,311.508C1173.557,341.667,1182.653,358.333,1187.201,366.667L1191.749,375" class="er relationshipLine"/><path style="stroke: gray; fill: none;" marker-start="url(#ONLY_ONE_START)" marker-end="url(#ZERO_OR_MORE_END)" d="M941.48,182.478L995.311,206.231C1049.141,229.985,1156.801,277.493,1205.655,309.58C1254.509,341.667,1244.558,358.333,1239.582,366.667L1234.606,375" class="er relationshipLine"/><path style="stroke: gray; fill: none;" marker-start="url(#ONLY_ONE_START)" marker-end="url(#ZERO_OR_MORE_END)" d="M941.48,175.513L1011.977,200.428C1082.474,225.342,1223.467,275.171,1298.726,308.419C1373.985,341.667,1383.509,358.333,1388.27,366.667L1393.032,375" class="er relationshipLine"/><path style="stroke: gray; fill: none;" marker-start="url(#ONLY_ONE_START)" marker-end="url(#ZERO_OR_MORE_END)" d="M941.48,166.204L1053.644,192.67C1165.807,219.136,1390.134,272.068,1502.298,306.867C1614.461,341.667,1614.461,358.333,1614.461,366.667L1614.461,375" class="er relationshipLine"/><path style="stroke: gray; fill: none;" marker-start="url(#ONLY_ONE_START)" marker-end="url(#ZERO_OR_MORE_END)" d="M941.48,170.862L1028.644,196.552C1115.807,222.241,1290.134,273.621,1372.536,307.644C1454.937,341.667,1445.413,358.333,1440.651,366.667L1435.89,375" class="er relationshipLine"/><g transform="translate(782.94921875,20 )" id="entity-SizeSpecification-5e0f03c8-36d4-56ae-94ba-442e739b8bcc"><rect height="255" width="158.53125" y="0" x="0" class="er entityBox"/><text style="dominant-baseline: middle; text-anchor: middle; font-size: 12px;" transform="translate(79.265625,12)" y="0" x="0" id="text-entity-SizeSpecification-5e0f03c8-36d4-56ae-94ba-442e739b8bcc" class="er entityLabel">SizeSpecification</text><rect height="21" width="57.0625" y="24" x="0" class="er attributeBoxOdd"/><text style="dominant-baseline: middle; font-size: 10.2px;" transform="translate(5,34.5)" y="0" x="0" id="text-entity-SizeSpecification-5e0f03c8-36d4-56ae-94ba-442e739b8bcc-attr-1-type" class="er entityLabel">stringList</text><rect height="21" width="101.46875" y="24" x="57.0625" class="er attributeBoxOdd"/><text style="dominant-baseline: middle; font-size: 10.2px;" transform="translate(62.0625,34.5)" y="0" x="0" id="text-entity-SizeSpecification-5e0f03c8-36d4-56ae-94ba-442e739b8bcc-attr-1-name" class="er entityLabel">sizeGroup</text><rect height="21" width="57.0625" y="45" x="0" class="er attributeBoxEven"/><text style="dominant-baseline: middle; font-size: 10.2px;" transform="translate(5,55.5)" y="0" x="0" id="text-entity-SizeSpecification-5e0f03c8-36d4-56ae-94ba-442e739b8bcc-attr-2-type" class="er entityLabel">stringList</text><rect height="21" width="101.46875" y="45" x="57.0625" class="er attributeBoxEven"/><text style="dominant-baseline: middle; font-size: 10.2px;" transform="translate(62.0625,55.5)" y="0" x="0" id="text-entity-SizeSpecification-5e0f03c8-36d4-56ae-94ba-442e739b8bcc-attr-2-name" class="er entityLabel">sizeSystem</text><rect height="21" width="57.0625" y="66" x="0" class="er attributeBoxOdd"/><text style="dominant-baseline: middle; font-size: 10.2px;" transform="translate(5,76.5)" y="0" x="0" id="text-entity-SizeSpecification-5e0f03c8-36d4-56ae-94ba-442e739b8bcc-attr-3-type" class="er entityLabel">stringList</text><rect height="21" width="101.46875" y="66" x="57.0625" class="er attributeBoxOdd"/><text style="dominant-baseline: middle; font-size: 10.2px;" transform="translate(62.0625,76.5)" y="0" x="0" id="text-entity-SizeSpecification-5e0f03c8-36d4-56ae-94ba-442e739b8bcc-attr-3-name" class="er entityLabel">suggestedGender</text><rect height="21" width="57.0625" y="87" x="0" class="er attributeBoxEven"/><text style="dominant-baseline: middle; font-size: 10.2px;" transform="translate(5,97.5)" y="0" x="0" id="text-entity-SizeSpecification-5e0f03c8-36d4-56ae-94ba-442e739b8bcc-attr-4-type" class="er entityLabel">stringList</text><rect height="21" width="101.46875" y="87" x="57.0625" class="er attributeBoxEven"/><text style="dominant-baseline: middle; font-size: 10.2px;" transform="translate(62.0625,97.5)" y="0" x="0" id="text-entity-SizeSpecification-5e0f03c8-36d4-56ae-94ba-442e739b8bcc-attr-4-name" class="er entityLabel">valueReference</text><rect height="21" width="57.0625" y="108" x="0" class="er attributeBoxOdd"/><text style="dominant-baseline: middle; font-size: 10.2px;" transform="translate(5,118.5)" y="0" x="0" id="text-entity-SizeSpecification-5e0f03c8-36d4-56ae-94ba-442e739b8bcc-attr-5-type" class="er entityLabel">stringList</text><rect height="21" width="101.46875" y="108" x="57.0625" class="er attributeBoxOdd"/><text style="dominant-baseline: middle; font-size: 10.2px;" transform="translate(62.0625,118.5)" y="0" x="0" id="text-entity-SizeSpecification-5e0f03c8-36d4-56ae-94ba-442e739b8bcc-attr-5-name" class="er entityLabel">supersededBy</text><rect height="21" width="57.0625" y="129" x="0" class="er attributeBoxEven"/><text style="dominant-baseline: middle; font-size: 10.2px;" transform="translate(5,139.5)" y="0" x="0" id="text-entity-SizeSpecification-5e0f03c8-36d4-56ae-94ba-442e739b8bcc-attr-6-type" class="er entityLabel">stringList</text><rect height="21" width="101.46875" y="129" x="57.0625" class="er attributeBoxEven"/><text style="dominant-baseline: middle; font-size: 10.2px;" transform="translate(62.0625,139.5)" y="0" x="0" id="text-entity-SizeSpecification-5e0f03c8-36d4-56ae-94ba-442e739b8bcc-attr-6-name" class="er entityLabel">additionalType</text><rect height="21" width="57.0625" y="150" x="0" class="er attributeBoxOdd"/><text style="dominant-baseline: middle; font-size: 10.2px;" transform="translate(5,160.5)" y="0" x="0" id="text-entity-SizeSpecification-5e0f03c8-36d4-56ae-94ba-442e739b8bcc-attr-7-type" class="er entityLabel">stringList</text><rect height="21" width="101.46875" y="150" x="57.0625" class="er attributeBoxOdd"/><text style="dominant-baseline: middle; font-size: 10.2px;" transform="translate(62.0625,160.5)" y="0" x="0" id="text-entity-SizeSpecification-5e0f03c8-36d4-56ae-94ba-442e739b8bcc-attr-7-name" class="er entityLabel">description</text><rect height="21" width="57.0625" y="171" x="0" class="er attributeBoxEven"/><text style="dominant-baseline: middle; font-size: 10.2px;" transform="translate(5,181.5)" y="0" x="0" id="text-entity-SizeSpecification-5e0f03c8-36d4-56ae-94ba-442e739b8bcc-attr-8-type" class="er entityLabel">stringList</text><rect height="21" width="101.46875" y="171" x="57.0625" class="er attributeBoxEven"/><text style="dominant-baseline: middle; font-size: 10.2px;" transform="translate(62.0625,181.5)" y="0" x="0" id="text-entity-SizeSpecification-5e0f03c8-36d4-56ae-94ba-442e739b8bcc-attr-8-name" class="er entityLabel">identifier</text><rect height="21" width="57.0625" y="192" x="0" class="er attributeBoxOdd"/><text style="dominant-baseline: middle; font-size: 10.2px;" transform="translate(5,202.5)" y="0" x="0" id="text-entity-SizeSpecification-5e0f03c8-36d4-56ae-94ba-442e739b8bcc-attr-9-type" class="er entityLabel">stringList</text><rect height="21" width="101.46875" y="192" x="57.0625" class="er attributeBoxOdd"/><text style="dominant-baseline: middle; font-size: 10.2px;" transform="translate(62.0625,202.5)" y="0" x="0" id="text-entity-SizeSpecification-5e0f03c8-36d4-56ae-94ba-442e739b8bcc-attr-9-name" class="er entityLabel">image</text><rect height="21" width="57.0625" y="213" x="0" class="er attributeBoxEven"/><text style="dominant-baseline: middle; font-size: 10.2px;" transform="translate(5,223.5)" y="0" x="0" id="text-entity-SizeSpecification-5e0f03c8-36d4-56ae-94ba-442e739b8bcc-attr-10-type" class="er entityLabel">stringList</text><rect height="21" width="101.46875" y="213" x="57.0625" class="er attributeBoxEven"/><text style="dominant-baseline: middle; font-size: 10.2px;" transform="translate(62.0625,223.5)" y="0" x="0" id="text-entity-SizeSpecification-5e0f03c8-36d4-56ae-94ba-442e739b8bcc-attr-10-name" class="er entityLabel">mainEntityOfPage</text><rect height="21" width="57.0625" y="234" x="0" class="er attributeBoxOdd"/><text style="dominant-baseline: middle; font-size: 10.2px;" transform="translate(5,244.5)" y="0" x="0" id="text-entity-SizeSpecification-5e0f03c8-36d4-56ae-94ba-442e739b8bcc-attr-11-type" class="er entityLabel">stringList</text><rect height="21" width="101.46875" y="234" x="57.0625" class="er attributeBoxOdd"/><text style="dominant-baseline: middle; font-size: 10.2px;" transform="translate(62.0625,244.5)" y="0" x="0" id="text-entity-SizeSpecification-5e0f03c8-36d4-56ae-94ba-442e739b8bcc-attr-11-name" class="er entityLabel">subjectOf</text></g><g transform="translate(20,375 )" id="entity-QuantitativeValue-3d19db81-2acf-5dcd-99e0-52d6a275eca4"><rect height="75" width="137.59375" y="0" x="0" class="er entityBox"/><text style="dominant-baseline: middle; text-anchor: middle; font-size: 12px;" transform="translate(68.796875,37.5)" y="0" x="0" id="text-entity-QuantitativeValue-3d19db81-2acf-5dcd-99e0-52d6a275eca4" class="er entityLabel">QuantitativeValue</text></g><g transform="translate(294.76171875,375 )" id="entity-PropertyValue-0e208f6c-77f8-5d2e-b4a4-9a09101a021a"><rect height="75" width="113.734375" y="0" x="0" class="er entityBox"/><text style="dominant-baseline: middle; text-anchor: middle; font-size: 12px;" transform="translate(56.8671875,37.5)" y="0" x="0" id="text-entity-PropertyValue-0e208f6c-77f8-5d2e-b4a4-9a09101a021a" class="er entityLabel">PropertyValue</text></g><g transform="translate(650.15625,375 )" id="entity-QualitativeValue-33ae9988-fb34-53ed-b9e5-5b5d88f226a2"><rect height="75" width="128.609375" y="0" x="0" class="er entityBox"/><text style="dominant-baseline: middle; text-anchor: middle; font-size: 12px;" transform="translate(64.3046875,37.5)" y="0" x="0" id="text-entity-QualitativeValue-33ae9988-fb34-53ed-b9e5-5b5d88f226a2" class="er entityLabel">QualitativeValue</text></g><g transform="translate(1162.21484375,375 )" id="entity-Text-426c5d39-acfc-5487-a6d9-ede67887190e"><rect height="75" width="100" y="0" x="0" class="er entityBox"/><text style="dominant-baseline: middle; text-anchor: middle; font-size: 12px;" transform="translate(50,37.5)" y="0" x="0" id="text-entity-Text-426c5d39-acfc-5487-a6d9-ede67887190e" class="er entityLabel">Text</text></g><g transform="translate(1364.4609375,375 )" id="entity-URL-07f78d3e-fd74-5925-b39b-26c1cc2d6b7c"><rect height="75" width="100" y="0" x="0" class="er entityBox"/><text style="dominant-baseline: middle; text-anchor: middle; font-size: 12px;" transform="translate(50,37.5)" y="0" x="0" id="text-entity-URL-07f78d3e-fd74-5925-b39b-26c1cc2d6b7c" class="er entityLabel">URL</text></g><g transform="translate(1564.4609375,375 )" id="entity-Action-6cd87d9a-a078-546e-a35b-bee54f477b31"><rect height="75" width="100" y="0" x="0" class="er entityBox"/><text style="dominant-baseline: middle; text-anchor: middle; font-size: 12px;" transform="translate(50,37.5)" y="0" x="0" id="text-entity-Action-6cd87d9a-a078-546e-a35b-bee54f477b31" class="er entityLabel">Action</text></g><rect height="14" width="103.888671875" y="240.1134796142578" x="353.9324035644531" class="er relationshipLabelBox"/><text style="text-anchor: middle; dominant-baseline: middle; font-size: 12px;" y="247.1134796142578" x="405.8767395019531" id="rel1" class="er relationshipLabel">hasMeasurement</text><rect height="14" width="85.640625" y="245.74221801757812" x="395.21624755859375" class="er relationshipLabelBox"/><text style="text-anchor: middle; dominant-baseline: middle; font-size: 12px;" y="252.74221801757812" x="438.03656005859375" id="rel2" class="er relationshipLabel">suggestedAge</text><rect height="14" width="145.109375" y="254.81106567382812" x="391.537353515625" class="er relationshipLabelBox"/><text style="text-anchor: middle; dominant-baseline: middle; font-size: 12px;" y="261.8110656738281" x="464.092041015625" id="rel3" class="er relationshipLabel">suggestedMeasurement</text><rect height="14" width="110.375" y="249.42822265625" x="497.57196044921875" class="er relationshipLabelBox"/><text style="text-anchor: middle; dominant-baseline: middle; font-size: 12px;" y="256.42822265625" x="552.7594604492188" id="rel4" class="er relationshipLabel">additionalProperty</text><rect height="14" width="33.296875" y="265.87420654296875" x="579.8660888671875" class="er relationshipLabelBox"/><text style="text-anchor: middle; dominant-baseline: middle; font-size: 12px;" y="272.87420654296875" x="596.5145263671875" id="rel5" class="er relationshipLabel">equal</text><rect height="14" width="44.111328125" y="265.1364440917969" x="637.40380859375" class="er relationshipLabelBox"/><text style="text-anchor: middle; dominant-baseline: middle; font-size: 12px;" y="272.1364440917969" x="659.45947265625" id="rel6" class="er relationshipLabel">greater</text><rect height="14" width="91.921875" y="280.11553955078125" x="664.8041381835938" class="er relationshipLabelBox"/><text style="text-anchor: middle; dominant-baseline: middle; font-size: 12px;" y="287.11553955078125" x="710.7650756835938" id="rel7" class="er relationshipLabel">greaterOrEqual</text><rect height="14" width="35.603515625" y="318.1469421386719" x="746.4036254882812" class="er relationshipLabelBox"/><text style="text-anchor: middle; dominant-baseline: middle; font-size: 12px;" y="325.1469421386719" x="764.2053833007812" id="rel8" class="er relationshipLabel">lesser</text><rect height="14" width="83.421875" y="329.84356689453125" x="796.1080932617188" class="er relationshipLabelBox"/><text style="text-anchor: middle; dominant-baseline: middle; font-size: 12px;" y="336.84356689453125" x="837.8190307617188" id="rel9" class="er relationshipLabel">lesserOrEqual</text><rect height="14" width="56.046875" y="344.08514404296875" x="855.8570556640625" class="er relationshipLabelBox"/><text style="text-anchor: middle; dominant-baseline: middle; font-size: 12px;" y="351.08514404296875" x="883.8804931640625" id="rel10" class="er relationshipLabel">nonEqual</text><rect height="14" width="89.953125" y="299.500732421875" x="1002.0335693359375" class="er relationshipLabelBox"/><text style="text-anchor: middle; dominant-baseline: middle; font-size: 12px;" y="306.500732421875" x="1047.0101318359375" id="rel11" class="er relationshipLabel">alternateName</text><rect height="14" width="161.390625" y="267.10052490234375" x="994.7012939453125" class="er relationshipLabelBox"/><text style="text-anchor: middle; dominant-baseline: middle; font-size: 12px;" y="274.10052490234375" x="1075.3966064453125" id="rel12" class="er relationshipLabel">disambiguatingDescription</text><rect height="14" width="34.03125" y="253.08273315429688" x="1096.4332275390625" class="er relationshipLabelBox"/><text style="text-anchor: middle; dominant-baseline: middle; font-size: 12px;" y="260.0827331542969" x="1113.4488525390625" id="rel13" class="er relationshipLabel">name</text><rect height="14" width="47.140625" y="252.77099609375" x="1152.8089599609375" class="er relationshipLabelBox"/><text style="text-anchor: middle; dominant-baseline: middle; font-size: 12px;" y="259.77099609375" x="1176.3792724609375" id="rel14" class="er relationshipLabel">sameAs</text><rect height="14" width="90.96875" y="242.84030151367188" x="1245.3173828125" class="er relationshipLabelBox"/><text style="text-anchor: middle; dominant-baseline: middle; font-size: 12px;" y="249.84030151367188" x="1290.8017578125" id="rel15" class="er relationshipLabel">potentialAction</text><rect height="13.999984741210938" width="15.875" y="244.50350189208984" x="1202.4786376953125" class="er relationshipLabelBox"/><text style="text-anchor: middle; dominant-baseline: middle; font-size: 12px;" y="251.5034942626953" x="1210.4161376953125" id="rel16" class="er relationshipLabel">url</text></svg>