<svg aria-roledescription="er" role="graphics-document document" viewBox="0 0 4105.35546875 743" style="max-width: 4105.36px; background-color: white;" xmlns:xlink="http://www.w3.org/1999/xlink" xmlns="http://www.w3.org/2000/svg" width="100%" id="my-svg"><style>#my-svg{font-family:"trebuchet ms",verdana,arial,sans-serif;font-size:16px;fill:#333;}#my-svg .error-icon{fill:#552222;}#my-svg .error-text{fill:#552222;stroke:#552222;}#my-svg .edge-thickness-normal{stroke-width:1px;}#my-svg .edge-thickness-thick{stroke-width:3.5px;}#my-svg .edge-pattern-solid{stroke-dasharray:0;}#my-svg .edge-thickness-invisible{stroke-width:0;fill:none;}#my-svg .edge-pattern-dashed{stroke-dasharray:3;}#my-svg .edge-pattern-dotted{stroke-dasharray:2;}#my-svg .marker{fill:#333333;stroke:#333333;}#my-svg .marker.cross{stroke:#333333;}#my-svg svg{font-family:"trebuchet ms",verdana,arial,sans-serif;font-size:16px;}#my-svg p{margin:0;}#my-svg .entityBox{fill:#ECECFF;stroke:#9370DB;}#my-svg .attributeBoxOdd{fill:#ffffff;stroke:#9370DB;}#my-svg .attributeBoxEven{fill:#f2f2f2;stroke:#9370DB;}#my-svg .relationshipLabelBox{fill:hsl(80, 100%, 96.2745098039%);opacity:0.7;background-color:hsl(80, 100%, 96.2745098039%);}#my-svg .relationshipLabelBox rect{opacity:0.5;}#my-svg .relationshipLine{stroke:#333333;}#my-svg .entityTitleText{text-anchor:middle;font-size:18px;fill:#333;}#my-svg #MD_PARENT_START{fill:#f5f5f5!important;stroke:#333333!important;stroke-width:1;}#my-svg #MD_PARENT_END{fill:#f5f5f5!important;stroke:#333333!important;stroke-width:1;}#my-svg :root{--mermaid-font-family:"trebuchet ms",verdana,arial,sans-serif;}</style><g/><defs><marker orient="auto" markerHeight="240" markerWidth="190" refY="7" refX="0" id="MD_PARENT_START"><path d="M 18,7 L9,13 L1,7 L9,1 Z"/></marker></defs><defs><marker orient="auto" markerHeight="28" markerWidth="20" refY="7" refX="19" id="MD_PARENT_END"><path d="M 18,7 L9,13 L1,7 L9,1 Z"/></marker></defs><defs><marker orient="auto" markerHeight="18" markerWidth="18" refY="9" refX="0" id="ONLY_ONE_START"><path d="M9,0 L9,18 M15,0 L15,18" fill="none" stroke="gray"/></marker></defs><defs><marker orient="auto" markerHeight="18" markerWidth="18" refY="9" refX="18" id="ONLY_ONE_END"><path d="M3,0 L3,18 M9,0 L9,18" fill="none" stroke="gray"/></marker></defs><defs><marker orient="auto" markerHeight="18" markerWidth="30" refY="9" refX="0" id="ZERO_OR_ONE_START"><circle r="6" cy="9" cx="21" fill="white" stroke="gray"/><path d="M9,0 L9,18" fill="none" stroke="gray"/></marker></defs><defs><marker orient="auto" markerHeight="18" markerWidth="30" refY="9" refX="30" id="ZERO_OR_ONE_END"><circle r="6" cy="9" cx="9" fill="white" stroke="gray"/><path d="M21,0 L21,18" fill="none" stroke="gray"/></marker></defs><defs><marker orient="auto" markerHeight="36" markerWidth="45" refY="18" refX="18" id="ONE_OR_MORE_START"><path d="M0,18 Q 18,0 36,18 Q 18,36 0,18 M42,9 L42,27" fill="none" stroke="gray"/></marker></defs><defs><marker orient="auto" markerHeight="36" markerWidth="45" refY="18" refX="27" id="ONE_OR_MORE_END"><path d="M3,9 L3,27 M9,18 Q27,0 45,18 Q27,36 9,18" fill="none" stroke="gray"/></marker></defs><defs><marker orient="auto" markerHeight="36" markerWidth="57" refY="18" refX="18" id="ZERO_OR_MORE_START"><circle r="6" cy="18" cx="48" fill="white" stroke="gray"/><path d="M0,18 Q18,0 36,18 Q18,36 0,18" fill="none" stroke="gray"/></marker></defs><defs><marker orient="auto" markerHeight="36" markerWidth="57" refY="18" refX="39" id="ZERO_OR_MORE_END"><circle r="6" cy="18" cx="9" fill="white" stroke="gray"/><path d="M21,18 Q39,0 57,18 Q39,36 21,18" fill="none" stroke="gray"/></marker></defs><path style="stroke: gray; fill: none;" marker-start="url(#ONLY_ONE_START)" marker-end="url(#ZERO_OR_MORE_END)" d="M2445.591,294.139L2049.659,344.782C1653.727,395.426,861.864,496.713,465.932,555.69C70,614.667,70,631.333,70,639.667L70,648" class="er relationshipLine"/><path style="stroke: gray; fill: none;" marker-start="url(#ONLY_ONE_START)" marker-end="url(#ZERO_OR_MORE_END)" d="M2445.591,295.038L2082.992,345.532C1720.394,396.025,995.197,497.013,632.598,555.84C270,614.667,270,631.333,270,639.667L270,648" class="er relationshipLine"/><path style="stroke: gray; fill: none;" marker-start="url(#ONLY_ONE_START)" marker-end="url(#ZERO_OR_MORE_END)" d="M2445.591,295.565L2100.107,345.971C1754.623,396.377,1063.655,497.188,727.95,555.927C392.246,614.667,411.805,631.333,421.585,639.667L431.365,648" class="er relationshipLine"/><path style="stroke: gray; fill: none;" marker-start="url(#ONLY_ONE_START)" marker-end="url(#ZERO_OR_MORE_END)" d="M2445.591,296.144L2117.221,346.454C1788.852,396.763,1132.112,497.381,803.743,556.024C475.373,614.667,475.373,631.333,475.373,639.667L475.373,648" class="er relationshipLine"/><path style="stroke: gray; fill: none;" marker-start="url(#ONLY_ONE_START)" marker-end="url(#ZERO_OR_MORE_END)" d="M2445.591,297.612L2154.054,347.677C1862.518,397.741,1279.444,497.871,987.908,556.269C696.371,614.667,696.371,631.333,696.371,639.667L696.371,648" class="er relationshipLine"/><path style="stroke: gray; fill: none;" marker-start="url(#ONLY_ONE_START)" marker-end="url(#ZERO_OR_MORE_END)" d="M2445.591,299.432L2189.992,349.193C1934.393,398.955,1423.194,498.477,1167.595,556.572C911.996,614.667,911.996,631.333,911.996,639.667L911.996,648" class="er relationshipLine"/><path style="stroke: gray; fill: none;" marker-start="url(#ONLY_ONE_START)" marker-end="url(#ZERO_OR_MORE_END)" d="M2445.591,301.616L2223.325,351.014C2001.059,400.411,1556.528,499.205,1334.262,556.936C1111.996,614.667,1111.996,631.333,1111.996,639.667L1111.996,648" class="er relationshipLine"/><path style="stroke: gray; fill: none;" marker-start="url(#ONLY_ONE_START)" marker-end="url(#ZERO_OR_MORE_END)" d="M2445.591,305.808L2268.589,354.507C2091.588,403.206,1737.585,500.603,1560.583,557.635C1383.582,614.667,1383.582,631.333,1383.582,639.667L1383.582,648" class="er relationshipLine"/><path style="stroke: gray; fill: none;" marker-start="url(#ONLY_ONE_START)" marker-end="url(#ZERO_OR_MORE_END)" d="M2445.591,312.619L2313.854,360.182C2182.117,407.746,1918.642,502.873,1786.905,558.77C1655.168,614.667,1655.168,631.333,1655.168,639.667L1655.168,648" class="er relationshipLine"/><path style="stroke: gray; fill: none;" marker-start="url(#ONLY_ONE_START)" marker-end="url(#ZERO_OR_MORE_END)" d="M2445.591,322.023L2349.703,368.019C2253.814,414.015,2062.038,506.008,1966.15,560.337C1870.262,614.667,1870.262,631.333,1870.262,639.667L1870.262,648" class="er relationshipLine"/><path style="stroke: gray; fill: none;" marker-start="url(#ONLY_ONE_START)" marker-end="url(#ZERO_OR_MORE_END)" d="M2445.591,340.631L2385.552,383.526C2325.512,426.421,2205.434,512.21,2145.395,563.439C2085.355,614.667,2085.355,631.333,2085.355,639.667L2085.355,648" class="er relationshipLine"/><path style="stroke: gray; fill: none;" marker-start="url(#ONLY_ONE_START)" marker-end="url(#ZERO_OR_MORE_END)" d="M2445.591,387.922L2418.885,422.935C2392.179,457.948,2338.767,527.974,2312.061,571.32C2285.355,614.667,2285.355,631.333,2285.355,639.667L2285.355,648" class="er relationshipLine"/><path style="stroke: gray; fill: none;" marker-start="url(#ONLY_ONE_START)" marker-end="url(#ZERO_OR_MORE_END)" d="M2445.591,462.417L2435.552,485.015C2425.512,507.612,2405.434,552.806,2412.061,585.125C2418.689,617.444,2452.022,636.889,2468.689,646.611L2485.355,656.333" class="er relationshipLine"/><path style="stroke: gray; fill: none;" marker-start="url(#ONLY_ONE_START)" marker-end="url(#ZERO_OR_MORE_END)" d="M2491.645,548L2490.597,556.333C2489.549,564.667,2487.452,581.333,2491.166,598C2494.879,614.667,2504.403,631.333,2509.165,639.667L2513.927,648" class="er relationshipLine"/><path style="stroke: gray; fill: none;" marker-start="url(#ONLY_ONE_START)" marker-end="url(#ZERO_OR_MORE_END)" d="M2575.722,548L2577.327,556.333C2578.933,564.667,2582.144,581.333,2578.988,598C2575.832,614.667,2566.308,631.333,2561.546,639.667L2556.784,648" class="er relationshipLine"/><path style="stroke: gray; fill: none;" marker-start="url(#ONLY_ONE_START)" marker-end="url(#ZERO_OR_MORE_END)" d="M2604.122,379.545L2634.328,415.954C2664.533,452.363,2724.944,525.182,2755.15,569.924C2785.355,614.667,2785.355,631.333,2785.355,639.667L2785.355,648" class="er relationshipLine"/><path style="stroke: gray; fill: none;" marker-start="url(#ONLY_ONE_START)" marker-end="url(#ZERO_OR_MORE_END)" d="M2445.591,296.836L2135.638,347.03C1825.685,397.224,1205.778,497.612,885.301,556.139C564.825,614.667,543.777,631.333,533.253,639.667L522.73,648" class="er relationshipLine"/><path style="stroke: gray; fill: none;" marker-start="url(#ONLY_ONE_START)" marker-end="url(#ZERO_OR_MORE_END)" d="M2604.122,439.075L2617.661,465.563C2631.2,492.05,2658.278,545.025,2655.15,581.235C2652.022,617.444,2618.689,636.889,2602.022,646.611L2585.355,656.333" class="er relationshipLine"/><path style="stroke: gray; fill: none;" marker-start="url(#ONLY_ONE_START)" marker-end="url(#ZERO_OR_MORE_END)" d="M2604.122,338.049L2667.661,381.374C2731.2,424.699,2858.278,511.35,2921.817,563.008C2985.355,614.667,2985.355,631.333,2985.355,639.667L2985.355,648" class="er relationshipLine"/><path style="stroke: gray; fill: none;" marker-start="url(#ONLY_ONE_START)" marker-end="url(#ZERO_OR_MORE_END)" d="M2604.122,328.406L2684.328,373.338C2764.533,418.271,2924.944,508.135,3021.817,562.79C3118.689,617.444,3152.022,636.889,3168.689,646.611L3185.355,656.333" class="er relationshipLine"/><path style="stroke: gray; fill: none;" marker-start="url(#ONLY_ONE_START)" marker-end="url(#ZERO_OR_MORE_END)" d="M2604.122,321.683L2700.994,367.736C2797.867,413.788,2991.611,505.894,3093.245,560.28C3194.879,614.667,3204.403,631.333,3209.165,639.667L3213.927,648" class="er relationshipLine"/><path style="stroke: gray; fill: none;" marker-start="url(#ONLY_ONE_START)" marker-end="url(#ZERO_OR_MORE_END)" d="M2604.122,316.728L2717.661,363.606C2831.2,410.485,3058.278,504.243,3167.055,559.455C3275.832,614.667,3266.308,631.333,3261.546,639.667L3256.784,648" class="er relationshipLine"/><path style="stroke: gray; fill: none;" marker-start="url(#ONLY_ONE_START)" marker-end="url(#ZERO_OR_MORE_END)" d="M2604.122,312.924L2734.328,360.437C2864.533,407.95,3124.944,502.975,3280.15,561.425C3435.355,619.875,3485.355,641.75,3510.355,652.688L3535.355,663.625" class="er relationshipLine"/><path style="stroke: gray; fill: none;" marker-start="url(#ONLY_ONE_START)" marker-end="url(#ZERO_OR_MORE_END)" d="M2604.122,309.913L2750.994,357.927C2897.867,405.942,3191.611,501.971,3348.007,558.319C3504.403,614.667,3523.451,631.333,3532.975,639.667L3542.498,648" class="er relationshipLine"/><path style="stroke: gray; fill: none;" marker-start="url(#ONLY_ONE_START)" marker-end="url(#ZERO_OR_MORE_END)" d="M2604.122,307.47L2767.661,355.891C2931.2,404.313,3258.278,501.157,3421.817,557.912C3585.355,614.667,3585.355,631.333,3585.355,639.667L3585.355,648" class="er relationshipLine"/><path style="stroke: gray; fill: none;" marker-start="url(#ONLY_ONE_START)" marker-end="url(#ZERO_OR_MORE_END)" d="M2604.122,305.447L2784.328,354.206C2964.533,402.965,3324.944,500.482,3495.626,557.575C3666.308,614.667,3647.26,631.333,3637.736,639.667L3628.213,648" class="er relationshipLine"/><path style="stroke: gray; fill: none;" marker-start="url(#ONLY_ONE_START)" marker-end="url(#ZERO_OR_MORE_END)" d="M2604.122,303.746L2800.994,352.788C2997.867,401.83,3391.611,499.915,3593.245,557.291C3794.879,614.667,3804.403,631.333,3809.165,639.667L3813.927,648" class="er relationshipLine"/><path style="stroke: gray; fill: none;" marker-start="url(#ONLY_ONE_START)" marker-end="url(#ZERO_OR_MORE_END)" d="M2604.122,300.478L2842.661,350.065C3081.2,399.652,3558.278,498.826,3796.817,556.746C4035.355,614.667,4035.355,631.333,4035.355,639.667L4035.355,648" class="er relationshipLine"/><path style="stroke: gray; fill: none;" marker-start="url(#ONLY_ONE_START)" marker-end="url(#ZERO_OR_MORE_END)" d="M2604.122,302.294L2817.661,351.579C3031.2,400.863,3458.278,499.431,3667.055,557.049C3875.832,614.667,3866.308,631.333,3861.546,639.667L3856.784,648" class="er relationshipLine"/><g transform="translate(2445.5908203125,20 )" id="entity-SocialEvent-e25a8508-c05e-510a-9488-8b95a8cc964a"><rect height="528" width="158.53125" y="0" x="0" class="er entityBox"/><text style="dominant-baseline: middle; text-anchor: middle; font-size: 12px;" transform="translate(79.265625,12)" y="0" x="0" id="text-entity-SocialEvent-e25a8508-c05e-510a-9488-8b95a8cc964a" class="er entityLabel">SocialEvent</text><rect height="21" width="57.0625" y="24" x="0" class="er attributeBoxOdd"/><text style="dominant-baseline: middle; font-size: 10.2px;" transform="translate(5,34.5)" y="0" x="0" id="text-entity-SocialEvent-e25a8508-c05e-510a-9488-8b95a8cc964a-attr-1-type" class="er entityLabel">stringList</text><rect height="21" width="101.46875" y="24" x="57.0625" class="er attributeBoxOdd"/><text style="dominant-baseline: middle; font-size: 10.2px;" transform="translate(62.0625,34.5)" y="0" x="0" id="text-entity-SocialEvent-e25a8508-c05e-510a-9488-8b95a8cc964a-attr-1-name" class="er entityLabel">actor</text><rect height="21" width="57.0625" y="45" x="0" class="er attributeBoxEven"/><text style="dominant-baseline: middle; font-size: 10.2px;" transform="translate(5,55.5)" y="0" x="0" id="text-entity-SocialEvent-e25a8508-c05e-510a-9488-8b95a8cc964a-attr-2-type" class="er entityLabel">stringList</text><rect height="21" width="101.46875" y="45" x="57.0625" class="er attributeBoxEven"/><text style="dominant-baseline: middle; font-size: 10.2px;" transform="translate(62.0625,55.5)" y="0" x="0" id="text-entity-SocialEvent-e25a8508-c05e-510a-9488-8b95a8cc964a-attr-2-name" class="er entityLabel">contributor</text><rect height="21" width="57.0625" y="66" x="0" class="er attributeBoxOdd"/><text style="dominant-baseline: middle; font-size: 10.2px;" transform="translate(5,76.5)" y="0" x="0" id="text-entity-SocialEvent-e25a8508-c05e-510a-9488-8b95a8cc964a-attr-3-type" class="er entityLabel">stringList</text><rect height="21" width="101.46875" y="66" x="57.0625" class="er attributeBoxOdd"/><text style="dominant-baseline: middle; font-size: 10.2px;" transform="translate(62.0625,76.5)" y="0" x="0" id="text-entity-SocialEvent-e25a8508-c05e-510a-9488-8b95a8cc964a-attr-3-name" class="er entityLabel">funder</text><rect height="21" width="57.0625" y="87" x="0" class="er attributeBoxEven"/><text style="dominant-baseline: middle; font-size: 10.2px;" transform="translate(5,97.5)" y="0" x="0" id="text-entity-SocialEvent-e25a8508-c05e-510a-9488-8b95a8cc964a-attr-4-type" class="er entityLabel">stringList</text><rect height="21" width="101.46875" y="87" x="57.0625" class="er attributeBoxEven"/><text style="dominant-baseline: middle; font-size: 10.2px;" transform="translate(62.0625,97.5)" y="0" x="0" id="text-entity-SocialEvent-e25a8508-c05e-510a-9488-8b95a8cc964a-attr-4-name" class="er entityLabel">location</text><rect height="21" width="57.0625" y="108" x="0" class="er attributeBoxOdd"/><text style="dominant-baseline: middle; font-size: 10.2px;" transform="translate(5,118.5)" y="0" x="0" id="text-entity-SocialEvent-e25a8508-c05e-510a-9488-8b95a8cc964a-attr-5-type" class="er entityLabel">stringList</text><rect height="21" width="101.46875" y="108" x="57.0625" class="er attributeBoxOdd"/><text style="dominant-baseline: middle; font-size: 10.2px;" transform="translate(62.0625,118.5)" y="0" x="0" id="text-entity-SocialEvent-e25a8508-c05e-510a-9488-8b95a8cc964a-attr-5-name" class="er entityLabel">sponsor</text><rect height="21" width="57.0625" y="129" x="0" class="er attributeBoxEven"/><text style="dominant-baseline: middle; font-size: 10.2px;" transform="translate(5,139.5)" y="0" x="0" id="text-entity-SocialEvent-e25a8508-c05e-510a-9488-8b95a8cc964a-attr-6-type" class="er entityLabel">stringList</text><rect height="21" width="101.46875" y="129" x="57.0625" class="er attributeBoxEven"/><text style="dominant-baseline: middle; font-size: 10.2px;" transform="translate(62.0625,139.5)" y="0" x="0" id="text-entity-SocialEvent-e25a8508-c05e-510a-9488-8b95a8cc964a-attr-6-name" class="er entityLabel">attendee</text><rect height="21" width="57.0625" y="150" x="0" class="er attributeBoxOdd"/><text style="dominant-baseline: middle; font-size: 10.2px;" transform="translate(5,160.5)" y="0" x="0" id="text-entity-SocialEvent-e25a8508-c05e-510a-9488-8b95a8cc964a-attr-7-type" class="er entityLabel">stringList</text><rect height="21" width="101.46875" y="150" x="57.0625" class="er attributeBoxOdd"/><text style="dominant-baseline: middle; font-size: 10.2px;" transform="translate(62.0625,160.5)" y="0" x="0" id="text-entity-SocialEvent-e25a8508-c05e-510a-9488-8b95a8cc964a-attr-7-name" class="er entityLabel">attendees</text><rect height="21" width="57.0625" y="171" x="0" class="er attributeBoxEven"/><text style="dominant-baseline: middle; font-size: 10.2px;" transform="translate(5,181.5)" y="0" x="0" id="text-entity-SocialEvent-e25a8508-c05e-510a-9488-8b95a8cc964a-attr-8-type" class="er entityLabel">stringList</text><rect height="21" width="101.46875" y="171" x="57.0625" class="er attributeBoxEven"/><text style="dominant-baseline: middle; font-size: 10.2px;" transform="translate(62.0625,181.5)" y="0" x="0" id="text-entity-SocialEvent-e25a8508-c05e-510a-9488-8b95a8cc964a-attr-8-name" class="er entityLabel">composer</text><rect height="21" width="57.0625" y="192" x="0" class="er attributeBoxOdd"/><text style="dominant-baseline: middle; font-size: 10.2px;" transform="translate(5,202.5)" y="0" x="0" id="text-entity-SocialEvent-e25a8508-c05e-510a-9488-8b95a8cc964a-attr-9-type" class="er entityLabel">stringList</text><rect height="21" width="101.46875" y="192" x="57.0625" class="er attributeBoxOdd"/><text style="dominant-baseline: middle; font-size: 10.2px;" transform="translate(62.0625,202.5)" y="0" x="0" id="text-entity-SocialEvent-e25a8508-c05e-510a-9488-8b95a8cc964a-attr-9-name" class="er entityLabel">doorTime</text><rect height="21" width="57.0625" y="213" x="0" class="er attributeBoxEven"/><text style="dominant-baseline: middle; font-size: 10.2px;" transform="translate(5,223.5)" y="0" x="0" id="text-entity-SocialEvent-e25a8508-c05e-510a-9488-8b95a8cc964a-attr-10-type" class="er entityLabel">stringList</text><rect height="21" width="101.46875" y="213" x="57.0625" class="er attributeBoxEven"/><text style="dominant-baseline: middle; font-size: 10.2px;" transform="translate(62.0625,223.5)" y="0" x="0" id="text-entity-SocialEvent-e25a8508-c05e-510a-9488-8b95a8cc964a-attr-10-name" class="er entityLabel">endDate</text><rect height="21" width="57.0625" y="234" x="0" class="er attributeBoxOdd"/><text style="dominant-baseline: middle; font-size: 10.2px;" transform="translate(5,244.5)" y="0" x="0" id="text-entity-SocialEvent-e25a8508-c05e-510a-9488-8b95a8cc964a-attr-11-type" class="er entityLabel">stringList</text><rect height="21" width="101.46875" y="234" x="57.0625" class="er attributeBoxOdd"/><text style="dominant-baseline: middle; font-size: 10.2px;" transform="translate(62.0625,244.5)" y="0" x="0" id="text-entity-SocialEvent-e25a8508-c05e-510a-9488-8b95a8cc964a-attr-11-name" class="er entityLabel">inLanguage</text><rect height="21" width="57.0625" y="255" x="0" class="er attributeBoxEven"/><text style="dominant-baseline: middle; font-size: 10.2px;" transform="translate(5,265.5)" y="0" x="0" id="text-entity-SocialEvent-e25a8508-c05e-510a-9488-8b95a8cc964a-attr-12-type" class="er entityLabel">stringList</text><rect height="21" width="101.46875" y="255" x="57.0625" class="er attributeBoxEven"/><text style="dominant-baseline: middle; font-size: 10.2px;" transform="translate(62.0625,265.5)" y="0" x="0" id="text-entity-SocialEvent-e25a8508-c05e-510a-9488-8b95a8cc964a-attr-12-name" class="er entityLabel">keywords</text><rect height="21" width="57.0625" y="276" x="0" class="er attributeBoxOdd"/><text style="dominant-baseline: middle; font-size: 10.2px;" transform="translate(5,286.5)" y="0" x="0" id="text-entity-SocialEvent-e25a8508-c05e-510a-9488-8b95a8cc964a-attr-13-type" class="er entityLabel">stringList</text><rect height="21" width="101.46875" y="276" x="57.0625" class="er attributeBoxOdd"/><text style="dominant-baseline: middle; font-size: 10.2px;" transform="translate(62.0625,286.5)" y="0" x="0" id="text-entity-SocialEvent-e25a8508-c05e-510a-9488-8b95a8cc964a-attr-13-name" class="er entityLabel">offers</text><rect height="21" width="57.0625" y="297" x="0" class="er attributeBoxEven"/><text style="dominant-baseline: middle; font-size: 10.2px;" transform="translate(5,307.5)" y="0" x="0" id="text-entity-SocialEvent-e25a8508-c05e-510a-9488-8b95a8cc964a-attr-14-type" class="er entityLabel">stringList</text><rect height="21" width="101.46875" y="297" x="57.0625" class="er attributeBoxEven"/><text style="dominant-baseline: middle; font-size: 10.2px;" transform="translate(62.0625,307.5)" y="0" x="0" id="text-entity-SocialEvent-e25a8508-c05e-510a-9488-8b95a8cc964a-attr-14-name" class="er entityLabel">organizer</text><rect height="21" width="57.0625" y="318" x="0" class="er attributeBoxOdd"/><text style="dominant-baseline: middle; font-size: 10.2px;" transform="translate(5,328.5)" y="0" x="0" id="text-entity-SocialEvent-e25a8508-c05e-510a-9488-8b95a8cc964a-attr-15-type" class="er entityLabel">stringList</text><rect height="21" width="101.46875" y="318" x="57.0625" class="er attributeBoxOdd"/><text style="dominant-baseline: middle; font-size: 10.2px;" transform="translate(62.0625,328.5)" y="0" x="0" id="text-entity-SocialEvent-e25a8508-c05e-510a-9488-8b95a8cc964a-attr-15-name" class="er entityLabel">performer</text><rect height="21" width="57.0625" y="339" x="0" class="er attributeBoxEven"/><text style="dominant-baseline: middle; font-size: 10.2px;" transform="translate(5,349.5)" y="0" x="0" id="text-entity-SocialEvent-e25a8508-c05e-510a-9488-8b95a8cc964a-attr-16-type" class="er entityLabel">stringList</text><rect height="21" width="101.46875" y="339" x="57.0625" class="er attributeBoxEven"/><text style="dominant-baseline: middle; font-size: 10.2px;" transform="translate(62.0625,349.5)" y="0" x="0" id="text-entity-SocialEvent-e25a8508-c05e-510a-9488-8b95a8cc964a-attr-16-name" class="er entityLabel">performers</text><rect height="21" width="57.0625" y="360" x="0" class="er attributeBoxOdd"/><text style="dominant-baseline: middle; font-size: 10.2px;" transform="translate(5,370.5)" y="0" x="0" id="text-entity-SocialEvent-e25a8508-c05e-510a-9488-8b95a8cc964a-attr-17-type" class="er entityLabel">stringList</text><rect height="21" width="101.46875" y="360" x="57.0625" class="er attributeBoxOdd"/><text style="dominant-baseline: middle; font-size: 10.2px;" transform="translate(62.0625,370.5)" y="0" x="0" id="text-entity-SocialEvent-e25a8508-c05e-510a-9488-8b95a8cc964a-attr-17-name" class="er entityLabel">startDate</text><rect height="21" width="57.0625" y="381" x="0" class="er attributeBoxEven"/><text style="dominant-baseline: middle; font-size: 10.2px;" transform="translate(5,391.5)" y="0" x="0" id="text-entity-SocialEvent-e25a8508-c05e-510a-9488-8b95a8cc964a-attr-18-type" class="er entityLabel">stringList</text><rect height="21" width="101.46875" y="381" x="57.0625" class="er attributeBoxEven"/><text style="dominant-baseline: middle; font-size: 10.2px;" transform="translate(62.0625,391.5)" y="0" x="0" id="text-entity-SocialEvent-e25a8508-c05e-510a-9488-8b95a8cc964a-attr-18-name" class="er entityLabel">translator</text><rect height="21" width="57.0625" y="402" x="0" class="er attributeBoxOdd"/><text style="dominant-baseline: middle; font-size: 10.2px;" transform="translate(5,412.5)" y="0" x="0" id="text-entity-SocialEvent-e25a8508-c05e-510a-9488-8b95a8cc964a-attr-19-type" class="er entityLabel">stringList</text><rect height="21" width="101.46875" y="402" x="57.0625" class="er attributeBoxOdd"/><text style="dominant-baseline: middle; font-size: 10.2px;" transform="translate(62.0625,412.5)" y="0" x="0" id="text-entity-SocialEvent-e25a8508-c05e-510a-9488-8b95a8cc964a-attr-19-name" class="er entityLabel">additionalType</text><rect height="21" width="57.0625" y="423" x="0" class="er attributeBoxEven"/><text style="dominant-baseline: middle; font-size: 10.2px;" transform="translate(5,433.5)" y="0" x="0" id="text-entity-SocialEvent-e25a8508-c05e-510a-9488-8b95a8cc964a-attr-20-type" class="er entityLabel">stringList</text><rect height="21" width="101.46875" y="423" x="57.0625" class="er attributeBoxEven"/><text style="dominant-baseline: middle; font-size: 10.2px;" transform="translate(62.0625,433.5)" y="0" x="0" id="text-entity-SocialEvent-e25a8508-c05e-510a-9488-8b95a8cc964a-attr-20-name" class="er entityLabel">description</text><rect height="21" width="57.0625" y="444" x="0" class="er attributeBoxOdd"/><text style="dominant-baseline: middle; font-size: 10.2px;" transform="translate(5,454.5)" y="0" x="0" id="text-entity-SocialEvent-e25a8508-c05e-510a-9488-8b95a8cc964a-attr-21-type" class="er entityLabel">stringList</text><rect height="21" width="101.46875" y="444" x="57.0625" class="er attributeBoxOdd"/><text style="dominant-baseline: middle; font-size: 10.2px;" transform="translate(62.0625,454.5)" y="0" x="0" id="text-entity-SocialEvent-e25a8508-c05e-510a-9488-8b95a8cc964a-attr-21-name" class="er entityLabel">identifier</text><rect height="21" width="57.0625" y="465" x="0" class="er attributeBoxEven"/><text style="dominant-baseline: middle; font-size: 10.2px;" transform="translate(5,475.5)" y="0" x="0" id="text-entity-SocialEvent-e25a8508-c05e-510a-9488-8b95a8cc964a-attr-22-type" class="er entityLabel">stringList</text><rect height="21" width="101.46875" y="465" x="57.0625" class="er attributeBoxEven"/><text style="dominant-baseline: middle; font-size: 10.2px;" transform="translate(62.0625,475.5)" y="0" x="0" id="text-entity-SocialEvent-e25a8508-c05e-510a-9488-8b95a8cc964a-attr-22-name" class="er entityLabel">image</text><rect height="21" width="57.0625" y="486" x="0" class="er attributeBoxOdd"/><text style="dominant-baseline: middle; font-size: 10.2px;" transform="translate(5,496.5)" y="0" x="0" id="text-entity-SocialEvent-e25a8508-c05e-510a-9488-8b95a8cc964a-attr-23-type" class="er entityLabel">stringList</text><rect height="21" width="101.46875" y="486" x="57.0625" class="er attributeBoxOdd"/><text style="dominant-baseline: middle; font-size: 10.2px;" transform="translate(62.0625,496.5)" y="0" x="0" id="text-entity-SocialEvent-e25a8508-c05e-510a-9488-8b95a8cc964a-attr-23-name" class="er entityLabel">mainEntityOfPage</text><rect height="21" width="57.0625" y="507" x="0" class="er attributeBoxEven"/><text style="dominant-baseline: middle; font-size: 10.2px;" transform="translate(5,517.5)" y="0" x="0" id="text-entity-SocialEvent-e25a8508-c05e-510a-9488-8b95a8cc964a-attr-24-type" class="er entityLabel">stringList</text><rect height="21" width="101.46875" y="507" x="57.0625" class="er attributeBoxEven"/><text style="dominant-baseline: middle; font-size: 10.2px;" transform="translate(62.0625,517.5)" y="0" x="0" id="text-entity-SocialEvent-e25a8508-c05e-510a-9488-8b95a8cc964a-attr-24-name" class="er entityLabel">subjectOf</text></g><g transform="translate(20,648 )" id="entity-Thing-27bc9527-b992-59fc-a0fb-da83e2ff80bf"><rect height="75" width="100" y="0" x="0" class="er entityBox"/><text style="dominant-baseline: middle; text-anchor: middle; font-size: 12px;" transform="translate(50,37.5)" y="0" x="0" id="text-entity-Thing-27bc9527-b992-59fc-a0fb-da83e2ff80bf" class="er entityLabel">Thing</text></g><g transform="translate(220,648 )" id="entity-Duration-4925bcef-08f8-5f30-b1af-3959fea9384e"><rect height="75" width="100" y="0" x="0" class="er entityBox"/><text style="dominant-baseline: middle; text-anchor: middle; font-size: 12px;" transform="translate(50,37.5)" y="0" x="0" id="text-entity-Duration-4925bcef-08f8-5f30-b1af-3959fea9384e" class="er entityLabel">Duration</text></g><g transform="translate(420,648 )" id="entity-CreativeWork-0fb2b452-c94e-5c5c-8055-4899a326b448"><rect height="75" width="110.74609375" y="0" x="0" class="er entityBox"/><text style="dominant-baseline: middle; text-anchor: middle; font-size: 12px;" transform="translate(55.373046875,37.5)" y="0" x="0" id="text-entity-CreativeWork-0fb2b452-c94e-5c5c-8055-4899a326b448" class="er entityLabel">CreativeWork</text></g><g transform="translate(630.74609375,648 )" id="entity-AggregateRating-aa0a8837-178a-57ab-baa0-94ad30d90eb5"><rect height="75" width="131.25" y="0" x="0" class="er entityBox"/><text style="dominant-baseline: middle; text-anchor: middle; font-size: 12px;" transform="translate(65.625,37.5)" y="0" x="0" id="text-entity-AggregateRating-aa0a8837-178a-57ab-baa0-94ad30d90eb5" class="er entityLabel">AggregateRating</text></g><g transform="translate(861.99609375,648 )" id="entity-Audience-f784d19a-7c58-5869-868f-14b9086fca44"><rect height="75" width="100" y="0" x="0" class="er entityBox"/><text style="dominant-baseline: middle; text-anchor: middle; font-size: 12px;" transform="translate(50,37.5)" y="0" x="0" id="text-entity-Audience-f784d19a-7c58-5869-868f-14b9086fca44" class="er entityLabel">Audience</text></g><g transform="translate(1061.99609375,648 )" id="entity-Person-84ee9ab5-8d8f-5582-81c6-bfa2c33a578d"><rect height="75" width="100" y="0" x="0" class="er entityBox"/><text style="dominant-baseline: middle; text-anchor: middle; font-size: 12px;" transform="translate(50,37.5)" y="0" x="0" id="text-entity-Person-84ee9ab5-8d8f-5582-81c6-bfa2c33a578d" class="er entityLabel">Person</text></g><g transform="translate(1261.99609375,648 )" id="entity-EventAttendanceModeEnumeration-971de892-719a-5e03-9732-5e861cef1484"><rect height="75" width="243.171875" y="0" x="0" class="er entityBox"/><text style="dominant-baseline: middle; text-anchor: middle; font-size: 12px;" transform="translate(121.5859375,37.5)" y="0" x="0" id="text-entity-EventAttendanceModeEnumeration-971de892-719a-5e03-9732-5e861cef1484" class="er entityLabel">EventAttendanceModeEnumeration</text></g><g transform="translate(1605.16796875,648 )" id="entity-Schedule-c029d133-7a07-519f-a43f-13584954d711"><rect height="75" width="100" y="0" x="0" class="er entityBox"/><text style="dominant-baseline: middle; text-anchor: middle; font-size: 12px;" transform="translate(50,37.5)" y="0" x="0" id="text-entity-Schedule-c029d133-7a07-519f-a43f-13584954d711" class="er entityLabel">Schedule</text></g><g transform="translate(1805.16796875,648 )" id="entity-EventStatusType-0b67c784-dc9d-5fb5-a68e-af51d93e8a2d"><rect height="75" width="130.1875" y="0" x="0" class="er entityBox"/><text style="dominant-baseline: middle; text-anchor: middle; font-size: 12px;" transform="translate(65.09375,37.5)" y="0" x="0" id="text-entity-EventStatusType-0b67c784-dc9d-5fb5-a68e-af51d93e8a2d" class="er entityLabel">EventStatusType</text></g><g transform="translate(2035.35546875,648 )" id="entity-Grant-291daf2c-8722-576f-890e-1045bc6484c0"><rect height="75" width="100" y="0" x="0" class="er entityBox"/><text style="dominant-baseline: middle; text-anchor: middle; font-size: 12px;" transform="translate(50,37.5)" y="0" x="0" id="text-entity-Grant-291daf2c-8722-576f-890e-1045bc6484c0" class="er entityLabel">Grant</text></g><g transform="translate(2235.35546875,648 )" id="entity-Boolean-5b26178e-f873-50aa-bf9a-b8300df1b991"><rect height="75" width="100" y="0" x="0" class="er entityBox"/><text style="dominant-baseline: middle; text-anchor: middle; font-size: 12px;" transform="translate(50,37.5)" y="0" x="0" id="text-entity-Boolean-5b26178e-f873-50aa-bf9a-b8300df1b991" class="er entityLabel">Boolean</text></g><g transform="translate(2485.35546875,648 )" id="entity-Integer-fc94dbf2-2dc2-55cd-ac16-6d1e48f8bef9"><rect height="75" width="100" y="0" x="0" class="er entityBox"/><text style="dominant-baseline: middle; text-anchor: middle; font-size: 12px;" transform="translate(50,37.5)" y="0" x="0" id="text-entity-Integer-fc94dbf2-2dc2-55cd-ac16-6d1e48f8bef9" class="er entityLabel">Integer</text></g><g transform="translate(2735.35546875,648 )" id="entity-Date-7e62fd57-a538-5b88-8dc2-5a8d536e6d1b"><rect height="75" width="100" y="0" x="0" class="er entityBox"/><text style="dominant-baseline: middle; text-anchor: middle; font-size: 12px;" transform="translate(50,37.5)" y="0" x="0" id="text-entity-Date-7e62fd57-a538-5b88-8dc2-5a8d536e6d1b" class="er entityLabel">Date</text></g><g transform="translate(2935.35546875,648 )" id="entity-Review-77c92a79-8cff-50c0-9604-f9135763cccd"><rect height="75" width="100" y="0" x="0" class="er entityBox"/><text style="dominant-baseline: middle; text-anchor: middle; font-size: 12px;" transform="translate(50,37.5)" y="0" x="0" id="text-entity-Review-77c92a79-8cff-50c0-9604-f9135763cccd" class="er entityLabel">Review</text></g><g transform="translate(3185.35546875,648 )" id="entity-Event-5fcfcec5-0af7-59ba-bebb-bb0a822c8afa"><rect height="75" width="100" y="0" x="0" class="er entityBox"/><text style="dominant-baseline: middle; text-anchor: middle; font-size: 12px;" transform="translate(50,37.5)" y="0" x="0" id="text-entity-Event-5fcfcec5-0af7-59ba-bebb-bb0a822c8afa" class="er entityLabel">Event</text></g><g transform="translate(3535.35546875,648 )" id="entity-Text-426c5d39-acfc-5487-a6d9-ede67887190e"><rect height="75" width="100" y="0" x="0" class="er entityBox"/><text style="dominant-baseline: middle; text-anchor: middle; font-size: 12px;" transform="translate(50,37.5)" y="0" x="0" id="text-entity-Text-426c5d39-acfc-5487-a6d9-ede67887190e" class="er entityLabel">Text</text></g><g transform="translate(3785.35546875,648 )" id="entity-URL-07f78d3e-fd74-5925-b39b-26c1cc2d6b7c"><rect height="75" width="100" y="0" x="0" class="er entityBox"/><text style="dominant-baseline: middle; text-anchor: middle; font-size: 12px;" transform="translate(50,37.5)" y="0" x="0" id="text-entity-URL-07f78d3e-fd74-5925-b39b-26c1cc2d6b7c" class="er entityLabel">URL</text></g><g transform="translate(3985.35546875,648 )" id="entity-Action-6cd87d9a-a078-546e-a35b-bee54f477b31"><rect height="75" width="100" y="0" x="0" class="er entityBox"/><text style="dominant-baseline: middle; text-anchor: middle; font-size: 12px;" transform="translate(50,37.5)" y="0" x="0" id="text-entity-Action-6cd87d9a-a078-546e-a35b-bee54f477b31" class="er entityLabel">Action</text></g><rect height="14" width="34.91796875" y="441.33203125" x="1231.062255859375" class="er relationshipLabelBox"/><text style="text-anchor: middle; dominant-baseline: middle; font-size: 12px;" y="448.33203125" x="1248.521240234375" id="rel1" class="er relationshipLabel">about</text><rect height="14" width="50.5" y="441.9353332519531" x="1322.972412109375" class="er relationshipLabelBox"/><text style="text-anchor: middle; dominant-baseline: middle; font-size: 12px;" y="448.9353332519531" x="1348.222412109375" id="rel2" class="er relationshipLabel">duration</text><rect height="14" width="82.015625" y="439.9327697753906" x="1375.2823486328125" class="er relationshipLabelBox"/><text style="text-anchor: middle; dominant-baseline: middle; font-size: 12px;" y="446.9327697753906" x="1416.2901611328125" id="rel3" class="er relationshipLabel">workFeatured</text><rect height="14" width="91.15625" y="442.6819763183594" x="1404.9783935546875" class="er relationshipLabelBox"/><text style="text-anchor: middle; dominant-baseline: middle; font-size: 12px;" y="449.6819763183594" x="1450.5565185546875" id="rel4" class="er relationshipLabel">workPerformed</text><rect height="14" width="100.390625" y="443.684326171875" x="1510.41650390625" class="er relationshipLabelBox"/><text style="text-anchor: middle; dominant-baseline: middle; font-size: 12px;" y="450.684326171875" x="1560.61181640625" id="rel5" class="er relationshipLabel">aggregateRating</text><rect height="14" width="54.890625" y="444.9394836425781" x="1640.4644775390625" class="er relationshipLabelBox"/><text style="text-anchor: middle; dominant-baseline: middle; font-size: 12px;" y="451.9394836425781" x="1667.9097900390625" id="rel6" class="er relationshipLabel">audience</text><rect height="14" width="46.6484375" y="446.4708557128906" x="1744.0179443359375" class="er relationshipLabelBox"/><text style="text-anchor: middle; dominant-baseline: middle; font-size: 12px;" y="453.4708557128906" x="1767.3421630859375" id="rel7" class="er relationshipLabel">director</text><rect height="14" width="135.828125" y="449.4613342285156" x="1834.27197265625" class="er relationshipLabelBox"/><text style="text-anchor: middle; dominant-baseline: middle; font-size: 12px;" y="456.4613342285156" x="1902.18603515625" id="rel8" class="er relationshipLabel">eventAttendanceMode</text><rect height="14" width="89.328125" y="454.40966796875" x="1992.1270751953125" class="er relationshipLabelBox"/><text style="text-anchor: middle; dominant-baseline: middle; font-size: 12px;" y="461.40966796875" x="2036.7911376953125" id="rel9" class="er relationshipLabel">eventSchedule</text><rect height="14" width="72.421875" y="461.291748046875" x="2107.099365234375" class="er relationshipLabelBox"/><text style="text-anchor: middle; dominant-baseline: middle; font-size: 12px;" y="468.291748046875" x="2143.310302734375" id="rel10" class="er relationshipLabel">eventStatus</text><rect height="14" width="45.609375" y="474.5675354003906" x="2227.52880859375" class="er relationshipLabelBox"/><text style="text-anchor: middle; dominant-baseline: middle; font-size: 12px;" y="481.5675354003906" x="2250.33349609375" id="rel11" class="er relationshipLabel">funding</text><rect height="14" width="116.5625" y="504.66796875" x="2294.3505859375" class="er relationshipLabelBox"/><text style="text-anchor: middle; dominant-baseline: middle; font-size: 12px;" y="511.66796875" x="2352.6318359375" id="rel12" class="er relationshipLabel">isAccessibleForFree</text><rect height="14" width="167.6875" y="566.4340209960938" x="2326.93310546875" class="er relationshipLabelBox"/><text style="text-anchor: middle; dominant-baseline: middle; font-size: 12px;" y="573.4340209960938" x="2410.77685546875" id="rel13" class="er relationshipLabel">maximumAttendeeCapacity</text><rect height="14" width="216.5" y="593.368408203125" x="2383.48193359375" class="er relationshipLabelBox"/><text style="text-anchor: middle; dominant-baseline: middle; font-size: 12px;" y="600.368408203125" x="2491.73193359375" id="rel14" class="er relationshipLabel">maximumPhysicalAttendeeCapacity</text><rect height="14" width="206.90625" y="593.2182006835938" x="2475.077880859375" class="er relationshipLabelBox"/><text style="text-anchor: middle; dominant-baseline: middle; font-size: 12px;" y="600.2182006835938" x="2578.531005859375" id="rel15" class="er relationshipLabel">maximumVirtualAttendeeCapacity</text><rect height="14.000030517578125" width="109.3125" y="499.6743927001953" x="2653.447998046875" class="er relationshipLabelBox"/><text style="text-anchor: middle; dominant-baseline: middle; font-size: 12px;" y="506.6744079589844" x="2708.104248046875" id="rel16" class="er relationshipLabel">previousStartDate</text><rect height="14" width="64.484375" y="447.2882080078125" x="1447.05126953125" class="er relationshipLabelBox"/><text style="text-anchor: middle; dominant-baseline: middle; font-size: 12px;" y="454.2882080078125" x="1479.29345703125" id="rel17" class="er relationshipLabel">recordedIn</text><rect height="14" width="167.8125" y="551.5716552734375" x="2569.97021484375" class="er relationshipLabelBox"/><text style="text-anchor: middle; dominant-baseline: middle; font-size: 12px;" y="558.5716552734375" x="2653.87646484375" id="rel18" class="er relationshipLabel">remainingAttendeeCapacity</text><rect height="14" width="39.87109375" y="472.7708435058594" x="2789.9580078125" class="er relationshipLabelBox"/><text style="text-anchor: middle; dominant-baseline: middle; font-size: 12px;" y="479.7708435058594" x="2809.8935546875" id="rel19" class="er relationshipLabel">review</text><rect height="14" width="56.146484375" y="484.57421875" x="2867.116455078125" class="er relationshipLabelBox"/><text style="text-anchor: middle; dominant-baseline: middle; font-size: 12px;" y="491.57421875" x="2895.189697265625" id="rel20" class="er relationshipLabel">subEvent</text><rect height="14" width="62.109375" y="464.82025146484375" x="2886.733154296875" class="er relationshipLabelBox"/><text style="text-anchor: middle; dominant-baseline: middle; font-size: 12px;" y="471.82025146484375" x="2917.787841796875" id="rel21" class="er relationshipLabel">subEvents</text><rect height="14" width="68.462890625" y="455.0126647949219" x="2918.318115234375" class="er relationshipLabelBox"/><text style="text-anchor: middle; dominant-baseline: middle; font-size: 12px;" y="462.0126647949219" x="2952.549560546875" id="rel22" class="er relationshipLabel">superEvent</text><rect height="14" width="101.296875" y="476.88555908203125" x="3020.786376953125" class="er relationshipLabelBox"/><text style="text-anchor: middle; dominant-baseline: middle; font-size: 12px;" y="483.88555908203125" x="3071.434814453125" id="rel23" class="er relationshipLabel">typicalAgeRange</text><rect height="14" width="89.953125" y="459.0152587890625" x="3033.983642578125" class="er relationshipLabelBox"/><text style="text-anchor: middle; dominant-baseline: middle; font-size: 12px;" y="466.0152587890625" x="3078.960205078125" id="rel24" class="er relationshipLabel">alternateName</text><rect height="14" width="161.390625" y="450.66717529296875" x="3026.77001953125" class="er relationshipLabelBox"/><text style="text-anchor: middle; dominant-baseline: middle; font-size: 12px;" y="457.66717529296875" x="3107.46533203125" id="rel25" class="er relationshipLabel">disambiguatingDescription</text><rect height="14" width="34.03125" y="445.820068359375" x="3126.727294921875" class="er relationshipLabelBox"/><text style="text-anchor: middle; dominant-baseline: middle; font-size: 12px;" y="452.820068359375" x="3143.742919921875" id="rel26" class="er relationshipLabel">name</text><rect height="14" width="47.140625" y="450.4737548828125" x="3193.48681640625" class="er relationshipLabelBox"/><text style="text-anchor: middle; dominant-baseline: middle; font-size: 12px;" y="457.4737548828125" x="3217.05712890625" id="rel27" class="er relationshipLabel">sameAs</text><rect height="14" width="90.96875" y="445.6743469238281" x="3285.41552734375" class="er relationshipLabelBox"/><text style="text-anchor: middle; dominant-baseline: middle; font-size: 12px;" y="452.6743469238281" x="3330.89990234375" id="rel28" class="er relationshipLabel">potentialAction</text><rect height="14" width="15.875" y="445.14056396484375" x="3240.194091796875" class="er relationshipLabelBox"/><text style="text-anchor: middle; dominant-baseline: middle; font-size: 12px;" y="452.14056396484375" x="3248.131591796875" id="rel29" class="er relationshipLabel">url</text></svg>