<svg aria-roledescription="er" role="graphics-document document" viewBox="0 0 1017.75 365" style="max-width: 1017.75px; background-color: white;" xmlns:xlink="http://www.w3.org/1999/xlink" xmlns="http://www.w3.org/2000/svg" width="100%" id="my-svg"><style>#my-svg{font-family:"trebuchet ms",verdana,arial,sans-serif;font-size:16px;fill:#333;}#my-svg .error-icon{fill:#552222;}#my-svg .error-text{fill:#552222;stroke:#552222;}#my-svg .edge-thickness-normal{stroke-width:1px;}#my-svg .edge-thickness-thick{stroke-width:3.5px;}#my-svg .edge-pattern-solid{stroke-dasharray:0;}#my-svg .edge-thickness-invisible{stroke-width:0;fill:none;}#my-svg .edge-pattern-dashed{stroke-dasharray:3;}#my-svg .edge-pattern-dotted{stroke-dasharray:2;}#my-svg .marker{fill:#333333;stroke:#333333;}#my-svg .marker.cross{stroke:#333333;}#my-svg svg{font-family:"trebuchet ms",verdana,arial,sans-serif;font-size:16px;}#my-svg p{margin:0;}#my-svg .entityBox{fill:#ECECFF;stroke:#9370DB;}#my-svg .attributeBoxOdd{fill:#ffffff;stroke:#9370DB;}#my-svg .attributeBoxEven{fill:#f2f2f2;stroke:#9370DB;}#my-svg .relationshipLabelBox{fill:hsl(80, 100%, 96.2745098039%);opacity:0.7;background-color:hsl(80, 100%, 96.2745098039%);}#my-svg .relationshipLabelBox rect{opacity:0.5;}#my-svg .relationshipLine{stroke:#333333;}#my-svg .entityTitleText{text-anchor:middle;font-size:18px;fill:#333;}#my-svg #MD_PARENT_START{fill:#f5f5f5!important;stroke:#333333!important;stroke-width:1;}#my-svg #MD_PARENT_END{fill:#f5f5f5!important;stroke:#333333!important;stroke-width:1;}#my-svg :root{--mermaid-font-family:"trebuchet ms",verdana,arial,sans-serif;}</style><g/><defs><marker orient="auto" markerHeight="240" markerWidth="190" refY="7" refX="0" id="MD_PARENT_START"><path d="M 18,7 L9,13 L1,7 L9,1 Z"/></marker></defs><defs><marker orient="auto" markerHeight="28" markerWidth="20" refY="7" refX="19" id="MD_PARENT_END"><path d="M 18,7 L9,13 L1,7 L9,1 Z"/></marker></defs><defs><marker orient="auto" markerHeight="18" markerWidth="18" refY="9" refX="0" id="ONLY_ONE_START"><path d="M9,0 L9,18 M15,0 L15,18" fill="none" stroke="gray"/></marker></defs><defs><marker orient="auto" markerHeight="18" markerWidth="18" refY="9" refX="18" id="ONLY_ONE_END"><path d="M3,0 L3,18 M9,0 L9,18" fill="none" stroke="gray"/></marker></defs><defs><marker orient="auto" markerHeight="18" markerWidth="30" refY="9" refX="0" id="ZERO_OR_ONE_START"><circle r="6" cy="9" cx="21" fill="white" stroke="gray"/><path d="M9,0 L9,18" fill="none" stroke="gray"/></marker></defs><defs><marker orient="auto" markerHeight="18" markerWidth="30" refY="9" refX="30" id="ZERO_OR_ONE_END"><circle r="6" cy="9" cx="9" fill="white" stroke="gray"/><path d="M21,0 L21,18" fill="none" stroke="gray"/></marker></defs><defs><marker orient="auto" markerHeight="36" markerWidth="45" refY="18" refX="18" id="ONE_OR_MORE_START"><path d="M0,18 Q 18,0 36,18 Q 18,36 0,18 M42,9 L42,27" fill="none" stroke="gray"/></marker></defs><defs><marker orient="auto" markerHeight="36" markerWidth="45" refY="18" refX="27" id="ONE_OR_MORE_END"><path d="M3,9 L3,27 M9,18 Q27,0 45,18 Q27,36 9,18" fill="none" stroke="gray"/></marker></defs><defs><marker orient="auto" markerHeight="36" markerWidth="57" refY="18" refX="18" id="ZERO_OR_MORE_START"><circle r="6" cy="18" cx="48" fill="white" stroke="gray"/><path d="M0,18 Q18,0 36,18 Q18,36 0,18" fill="none" stroke="gray"/></marker></defs><defs><marker orient="auto" markerHeight="36" markerWidth="57" refY="18" refX="39" id="ZERO_OR_MORE_END"><circle r="6" cy="18" cx="9" fill="white" stroke="gray"/><path d="M21,18 Q39,0 57,18 Q39,36 21,18" fill="none" stroke="gray"/></marker></defs><path style="stroke: gray; fill: none;" marker-start="url(#ONLY_ONE_START)" marker-end="url(#ZERO_OR_MORE_END)" d="M513.023,115.61L441.499,133.008C369.974,150.406,226.924,185.203,155.4,210.935C83.875,236.667,83.875,253.333,83.875,261.667L83.875,270" class="er relationshipLine"/><path style="stroke: gray; fill: none;" marker-start="url(#ONLY_ONE_START)" marker-end="url(#ZERO_OR_MORE_END)" d="M513.023,130.303L477.145,145.252C441.266,160.202,369.508,190.101,333.629,213.384C297.75,236.667,297.75,253.333,297.75,261.667L297.75,270" class="er relationshipLine"/><path style="stroke: gray; fill: none;" marker-start="url(#ONLY_ONE_START)" marker-end="url(#ZERO_OR_MORE_END)" d="M513.023,147.954L493.811,159.962C474.599,171.969,436.174,195.985,433.629,217.715C431.083,239.444,464.417,258.889,481.083,268.611L497.75,278.333" class="er relationshipLine"/><path style="stroke: gray; fill: none;" marker-start="url(#ONLY_ONE_START)" marker-end="url(#ZERO_OR_MORE_END)" d="M537.75,170L531.083,178.333C524.417,186.667,511.083,203.333,509.179,220C507.274,236.667,516.798,253.333,521.56,261.667L526.321,270" class="er relationshipLine"/><path style="stroke: gray; fill: none;" marker-start="url(#ONLY_ONE_START)" marker-end="url(#ZERO_OR_MORE_END)" d="M597.75,170L597.75,178.333C597.75,186.667,597.75,203.333,592.988,220C588.226,236.667,578.702,253.333,573.94,261.667L569.179,270" class="er relationshipLine"/><path style="stroke: gray; fill: none;" marker-start="url(#ONLY_ONE_START)" marker-end="url(#ZERO_OR_MORE_END)" d="M657.75,170L664.417,178.333C671.083,186.667,684.417,203.333,695.845,220C707.274,236.667,716.798,253.333,721.56,261.667L726.321,270" class="er relationshipLine"/><path style="stroke: gray; fill: none;" marker-start="url(#ONLY_ONE_START)" marker-end="url(#ZERO_OR_MORE_END)" d="M682.477,125.259L726.689,141.05C770.901,156.84,859.326,188.42,903.538,212.543C947.75,236.667,947.75,253.333,947.75,261.667L947.75,270" class="er relationshipLine"/><path style="stroke: gray; fill: none;" marker-start="url(#ONLY_ONE_START)" marker-end="url(#ZERO_OR_MORE_END)" d="M682.477,147.954L701.689,159.962C720.901,171.969,759.326,195.985,773.776,216.326C788.226,236.667,778.702,253.333,773.94,261.667L769.179,270" class="er relationshipLine"/><g transform="translate(513.0234375,20 )" id="entity-SpeakableSpecification-73050bbd-82d8-54c5-b377-9f98f1784dad"><rect height="150" width="169.453125" y="0" x="0" class="er entityBox"/><text style="dominant-baseline: middle; text-anchor: middle; font-size: 12px;" transform="translate(84.7265625,12)" y="0" x="0" id="text-entity-SpeakableSpecification-73050bbd-82d8-54c5-b377-9f98f1784dad" class="er entityLabel">SpeakableSpecification</text><rect height="21" width="62.5234375" y="24" x="0" class="er attributeBoxOdd"/><text style="dominant-baseline: middle; font-size: 10.2px;" transform="translate(5,34.5)" y="0" x="0" id="text-entity-SpeakableSpecification-73050bbd-82d8-54c5-b377-9f98f1784dad-attr-1-type" class="er entityLabel">stringList</text><rect height="21" width="106.9296875" y="24" x="62.5234375" class="er attributeBoxOdd"/><text style="dominant-baseline: middle; font-size: 10.2px;" transform="translate(67.5234375,34.5)" y="0" x="0" id="text-entity-SpeakableSpecification-73050bbd-82d8-54c5-b377-9f98f1784dad-attr-1-name" class="er entityLabel">additionalType</text><rect height="21" width="62.5234375" y="45" x="0" class="er attributeBoxEven"/><text style="dominant-baseline: middle; font-size: 10.2px;" transform="translate(5,55.5)" y="0" x="0" id="text-entity-SpeakableSpecification-73050bbd-82d8-54c5-b377-9f98f1784dad-attr-2-type" class="er entityLabel">stringList</text><rect height="21" width="106.9296875" y="45" x="62.5234375" class="er attributeBoxEven"/><text style="dominant-baseline: middle; font-size: 10.2px;" transform="translate(67.5234375,55.5)" y="0" x="0" id="text-entity-SpeakableSpecification-73050bbd-82d8-54c5-b377-9f98f1784dad-attr-2-name" class="er entityLabel">description</text><rect height="21" width="62.5234375" y="66" x="0" class="er attributeBoxOdd"/><text style="dominant-baseline: middle; font-size: 10.2px;" transform="translate(5,76.5)" y="0" x="0" id="text-entity-SpeakableSpecification-73050bbd-82d8-54c5-b377-9f98f1784dad-attr-3-type" class="er entityLabel">stringList</text><rect height="21" width="106.9296875" y="66" x="62.5234375" class="er attributeBoxOdd"/><text style="dominant-baseline: middle; font-size: 10.2px;" transform="translate(67.5234375,76.5)" y="0" x="0" id="text-entity-SpeakableSpecification-73050bbd-82d8-54c5-b377-9f98f1784dad-attr-3-name" class="er entityLabel">identifier</text><rect height="21" width="62.5234375" y="87" x="0" class="er attributeBoxEven"/><text style="dominant-baseline: middle; font-size: 10.2px;" transform="translate(5,97.5)" y="0" x="0" id="text-entity-SpeakableSpecification-73050bbd-82d8-54c5-b377-9f98f1784dad-attr-4-type" class="er entityLabel">stringList</text><rect height="21" width="106.9296875" y="87" x="62.5234375" class="er attributeBoxEven"/><text style="dominant-baseline: middle; font-size: 10.2px;" transform="translate(67.5234375,97.5)" y="0" x="0" id="text-entity-SpeakableSpecification-73050bbd-82d8-54c5-b377-9f98f1784dad-attr-4-name" class="er entityLabel">image</text><rect height="21" width="62.5234375" y="108" x="0" class="er attributeBoxOdd"/><text style="dominant-baseline: middle; font-size: 10.2px;" transform="translate(5,118.5)" y="0" x="0" id="text-entity-SpeakableSpecification-73050bbd-82d8-54c5-b377-9f98f1784dad-attr-5-type" class="er entityLabel">stringList</text><rect height="21" width="106.9296875" y="108" x="62.5234375" class="er attributeBoxOdd"/><text style="dominant-baseline: middle; font-size: 10.2px;" transform="translate(67.5234375,118.5)" y="0" x="0" id="text-entity-SpeakableSpecification-73050bbd-82d8-54c5-b377-9f98f1784dad-attr-5-name" class="er entityLabel">mainEntityOfPage</text><rect height="21" width="62.5234375" y="129" x="0" class="er attributeBoxEven"/><text style="dominant-baseline: middle; font-size: 10.2px;" transform="translate(5,139.5)" y="0" x="0" id="text-entity-SpeakableSpecification-73050bbd-82d8-54c5-b377-9f98f1784dad-attr-6-type" class="er entityLabel">stringList</text><rect height="21" width="106.9296875" y="129" x="62.5234375" class="er attributeBoxEven"/><text style="dominant-baseline: middle; font-size: 10.2px;" transform="translate(67.5234375,139.5)" y="0" x="0" id="text-entity-SpeakableSpecification-73050bbd-82d8-54c5-b377-9f98f1784dad-attr-6-name" class="er entityLabel">subjectOf</text></g><g transform="translate(20,270 )" id="entity-CssSelectorType-ed47af51-7b64-55ba-80af-100e9fc289aa"><rect height="75" width="127.75" y="0" x="0" class="er entityBox"/><text style="dominant-baseline: middle; text-anchor: middle; font-size: 12px;" transform="translate(63.875,37.5)" y="0" x="0" id="text-entity-CssSelectorType-ed47af51-7b64-55ba-80af-100e9fc289aa" class="er entityLabel">CssSelectorType</text></g><g transform="translate(247.75,270 )" id="entity-XPathType-ac761a93-77ba-59f2-976b-c23ef29eef99"><rect height="75" width="100" y="0" x="0" class="er entityBox"/><text style="dominant-baseline: middle; text-anchor: middle; font-size: 12px;" transform="translate(50,37.5)" y="0" x="0" id="text-entity-XPathType-ac761a93-77ba-59f2-976b-c23ef29eef99" class="er entityLabel">XPathType</text></g><g transform="translate(497.75,270 )" id="entity-Text-426c5d39-acfc-5487-a6d9-ede67887190e"><rect height="75" width="100" y="0" x="0" class="er entityBox"/><text style="dominant-baseline: middle; text-anchor: middle; font-size: 12px;" transform="translate(50,37.5)" y="0" x="0" id="text-entity-Text-426c5d39-acfc-5487-a6d9-ede67887190e" class="er entityLabel">Text</text></g><g transform="translate(697.75,270 )" id="entity-URL-07f78d3e-fd74-5925-b39b-26c1cc2d6b7c"><rect height="75" width="100" y="0" x="0" class="er entityBox"/><text style="dominant-baseline: middle; text-anchor: middle; font-size: 12px;" transform="translate(50,37.5)" y="0" x="0" id="text-entity-URL-07f78d3e-fd74-5925-b39b-26c1cc2d6b7c" class="er entityLabel">URL</text></g><g transform="translate(897.75,270 )" id="entity-Action-6cd87d9a-a078-546e-a35b-bee54f477b31"><rect height="75" width="100" y="0" x="0" class="er entityBox"/><text style="dominant-baseline: middle; text-anchor: middle; font-size: 12px;" transform="translate(50,37.5)" y="0" x="0" id="text-entity-Action-6cd87d9a-a078-546e-a35b-bee54f477b31" class="er entityLabel">Action</text></g><rect height="14" width="68.462890625" y="165.5064239501953" x="250.37704467773438" class="er relationshipLabelBox"/><text style="text-anchor: middle; dominant-baseline: middle; font-size: 12px;" y="172.5064239501953" x="284.6084899902344" id="rel1" class="er relationshipLabel">cssSelector</text><rect height="14" width="34.390625" y="176.59315490722656" x="372.2375793457031" class="er relationshipLabelBox"/><text style="text-anchor: middle; dominant-baseline: middle; font-size: 12px;" y="183.59315490722656" x="389.4328918457031" id="rel2" class="er relationshipLabel">xpath</text><rect height="14" width="89.953125" y="203.14028930664062" x="390.8746032714844" class="er relationshipLabelBox"/><text style="text-anchor: middle; dominant-baseline: middle; font-size: 12px;" y="210.14028930664062" x="435.8511657714844" id="rel3" class="er relationshipLabel">alternateName</text><rect height="14" width="161.390625" y="210.7566680908203" x="428.8076171875" class="er relationshipLabelBox"/><text style="text-anchor: middle; dominant-baseline: middle; font-size: 12px;" y="217.7566680908203" x="509.5029296875" id="rel4" class="er relationshipLabel">disambiguatingDescription</text><rect height="14" width="34.03125" y="215.44708251953125" x="575.2396240234375" class="er relationshipLabelBox"/><text style="text-anchor: middle; dominant-baseline: middle; font-size: 12px;" y="222.44708251953125" x="592.2552490234375" id="rel5" class="er relationshipLabel">name</text><rect height="14" width="47.140625" y="211.23052978515625" x="671.0537719726562" class="er relationshipLabelBox"/><text style="text-anchor: middle; dominant-baseline: middle; font-size: 12px;" y="218.23052978515625" x="694.6240844726562" id="rel6" class="er relationshipLabel">sameAs</text><rect height="14" width="90.96875" y="172.76304626464844" x="785.0971069335938" class="er relationshipLabelBox"/><text style="text-anchor: middle; dominant-baseline: middle; font-size: 12px;" y="179.76304626464844" x="830.5814819335938" id="rel7" class="er relationshipLabel">potentialAction</text><rect height="14" width="15.875" y="189.23126220703125" x="746.0736083984375" class="er relationshipLabelBox"/><text style="text-anchor: middle; dominant-baseline: middle; font-size: 12px;" y="196.23126220703125" x="754.0111083984375" id="rel8" class="er relationshipLabel">url</text></svg>