<svg aria-roledescription="er" role="graphics-document document" viewBox="-139.51780700683594 0 3766.029541015625 764" style="max-width: 3766.03px; background-color: white;" xmlns:xlink="http://www.w3.org/1999/xlink" xmlns="http://www.w3.org/2000/svg" width="100%" id="my-svg"><style>#my-svg{font-family:"trebuchet ms",verdana,arial,sans-serif;font-size:16px;fill:#333;}#my-svg .error-icon{fill:#552222;}#my-svg .error-text{fill:#552222;stroke:#552222;}#my-svg .edge-thickness-normal{stroke-width:1px;}#my-svg .edge-thickness-thick{stroke-width:3.5px;}#my-svg .edge-pattern-solid{stroke-dasharray:0;}#my-svg .edge-thickness-invisible{stroke-width:0;fill:none;}#my-svg .edge-pattern-dashed{stroke-dasharray:3;}#my-svg .edge-pattern-dotted{stroke-dasharray:2;}#my-svg .marker{fill:#333333;stroke:#333333;}#my-svg .marker.cross{stroke:#333333;}#my-svg svg{font-family:"trebuchet ms",verdana,arial,sans-serif;font-size:16px;}#my-svg p{margin:0;}#my-svg .entityBox{fill:#ECECFF;stroke:#9370DB;}#my-svg .attributeBoxOdd{fill:#ffffff;stroke:#9370DB;}#my-svg .attributeBoxEven{fill:#f2f2f2;stroke:#9370DB;}#my-svg .relationshipLabelBox{fill:hsl(80, 100%, 96.2745098039%);opacity:0.7;background-color:hsl(80, 100%, 96.2745098039%);}#my-svg .relationshipLabelBox rect{opacity:0.5;}#my-svg .relationshipLine{stroke:#333333;}#my-svg .entityTitleText{text-anchor:middle;font-size:18px;fill:#333;}#my-svg #MD_PARENT_START{fill:#f5f5f5!important;stroke:#333333!important;stroke-width:1;}#my-svg #MD_PARENT_END{fill:#f5f5f5!important;stroke:#333333!important;stroke-width:1;}#my-svg :root{--mermaid-font-family:"trebuchet ms",verdana,arial,sans-serif;}</style><g/><defs><marker orient="auto" markerHeight="240" markerWidth="190" refY="7" refX="0" id="MD_PARENT_START"><path d="M 18,7 L9,13 L1,7 L9,1 Z"/></marker></defs><defs><marker orient="auto" markerHeight="28" markerWidth="20" refY="7" refX="19" id="MD_PARENT_END"><path d="M 18,7 L9,13 L1,7 L9,1 Z"/></marker></defs><defs><marker orient="auto" markerHeight="18" markerWidth="18" refY="9" refX="0" id="ONLY_ONE_START"><path d="M9,0 L9,18 M15,0 L15,18" fill="none" stroke="gray"/></marker></defs><defs><marker orient="auto" markerHeight="18" markerWidth="18" refY="9" refX="18" id="ONLY_ONE_END"><path d="M3,0 L3,18 M9,0 L9,18" fill="none" stroke="gray"/></marker></defs><defs><marker orient="auto" markerHeight="18" markerWidth="30" refY="9" refX="0" id="ZERO_OR_ONE_START"><circle r="6" cy="9" cx="21" fill="white" stroke="gray"/><path d="M9,0 L9,18" fill="none" stroke="gray"/></marker></defs><defs><marker orient="auto" markerHeight="18" markerWidth="30" refY="9" refX="30" id="ZERO_OR_ONE_END"><circle r="6" cy="9" cx="9" fill="white" stroke="gray"/><path d="M21,0 L21,18" fill="none" stroke="gray"/></marker></defs><defs><marker orient="auto" markerHeight="36" markerWidth="45" refY="18" refX="18" id="ONE_OR_MORE_START"><path d="M0,18 Q 18,0 36,18 Q 18,36 0,18 M42,9 L42,27" fill="none" stroke="gray"/></marker></defs><defs><marker orient="auto" markerHeight="36" markerWidth="45" refY="18" refX="27" id="ONE_OR_MORE_END"><path d="M3,9 L3,27 M9,18 Q27,0 45,18 Q27,36 9,18" fill="none" stroke="gray"/></marker></defs><defs><marker orient="auto" markerHeight="36" markerWidth="57" refY="18" refX="18" id="ZERO_OR_MORE_START"><circle r="6" cy="18" cx="48" fill="white" stroke="gray"/><path d="M0,18 Q18,0 36,18 Q18,36 0,18" fill="none" stroke="gray"/></marker></defs><defs><marker orient="auto" markerHeight="36" markerWidth="57" refY="18" refX="39" id="ZERO_OR_MORE_END"><circle r="6" cy="18" cx="9" fill="white" stroke="gray"/><path d="M21,18 Q39,0 57,18 Q39,36 21,18" fill="none" stroke="gray"/></marker></defs><path style="stroke: gray; fill: none;" marker-start="url(#ONLY_ONE_START)" marker-end="url(#ZERO_OR_MORE_END)" d="M1422.617,308.541L1130.514,360.284C838.411,412.027,254.206,515.514,20.436,580.017C-213.333,644.521,-96.667,670.042,-38.333,682.802L20,695.563" class="er relationshipLine"/><path style="stroke: gray; fill: none;" marker-start="url(#ONLY_ONE_START)" marker-end="url(#ZERO_OR_MORE_END)" d="M1422.617,322.102L1280.514,371.585C1138.411,421.068,854.206,520.034,745.436,581.184C636.667,642.333,703.333,665.667,736.667,677.333L770,689" class="er relationshipLine"/><path style="stroke: gray; fill: none;" marker-start="url(#ONLY_ONE_START)" marker-end="url(#ZERO_OR_MORE_END)" d="M1422.617,372.002L1380.514,413.169C1338.411,454.335,1254.206,536.667,1212.103,586.167C1170,635.667,1170,652.333,1170,660.667L1170,669" class="er relationshipLine"/><path style="stroke: gray; fill: none;" marker-start="url(#ONLY_ONE_START)" marker-end="url(#ZERO_OR_MORE_END)" d="M1422.617,529.636L1417.596,544.53C1412.576,559.424,1402.534,589.212,1397.513,612.439C1392.492,635.667,1392.492,652.333,1392.492,660.667L1392.492,669" class="er relationshipLine"/><path style="stroke: gray; fill: none;" marker-start="url(#ONLY_ONE_START)" marker-end="url(#ZERO_OR_MORE_END)" d="M1581.148,457.489L1594.24,484.407C1607.331,511.326,1633.513,565.163,1646.604,600.415C1659.695,635.667,1659.695,652.333,1659.695,660.667L1659.695,669" class="er relationshipLine"/><path style="stroke: gray; fill: none;" marker-start="url(#ONLY_ONE_START)" marker-end="url(#ZERO_OR_MORE_END)" d="M1422.617,309.352L1147.181,360.96C871.745,412.568,320.872,515.784,87.103,579.545C-146.667,643.306,-63.333,667.611,-21.667,679.764L20,691.917" class="er relationshipLine"/><path style="stroke: gray; fill: none;" marker-start="url(#ONLY_ONE_START)" marker-end="url(#ZERO_OR_MORE_END)" d="M1581.148,385.197L1615.204,424.164C1649.26,463.131,1717.372,541.066,1764.06,588.819C1810.747,636.573,1836.01,654.146,1848.642,662.933L1861.273,671.72" class="er relationshipLine"/><path style="stroke: gray; fill: none;" marker-start="url(#ONLY_ONE_START)" marker-end="url(#ZERO_OR_MORE_END)" d="M1581.148,357.329L1636.169,400.941C1691.19,444.553,1801.232,531.776,1856.253,583.722C1911.273,635.667,1911.273,652.333,1911.273,660.667L1911.273,669" class="er relationshipLine"/><path style="stroke: gray; fill: none;" marker-start="url(#ONLY_ONE_START)" marker-end="url(#ZERO_OR_MORE_END)" d="M1581.148,344.995L1652.836,390.663C1724.523,436.33,1867.898,527.665,1930.062,581.666C1992.226,635.667,1973.178,652.333,1963.654,660.667L1954.131,669" class="er relationshipLine"/><path style="stroke: gray; fill: none;" marker-start="url(#ONLY_ONE_START)" marker-end="url(#ZERO_OR_MORE_END)" d="M1581.148,336.709L1669.503,383.757C1757.857,430.806,1934.565,524.903,2027.681,580.285C2120.797,635.667,2130.321,652.333,2135.083,660.667L2139.845,669" class="er relationshipLine"/><path style="stroke: gray; fill: none;" marker-start="url(#ONLY_ONE_START)" marker-end="url(#ZERO_OR_MORE_END)" d="M1581.148,330.718L1686.304,378.765C1791.46,426.812,2001.771,522.906,2102.088,579.286C2202.404,635.667,2192.726,652.333,2187.887,660.667L2183.049,669" class="er relationshipLine"/><path style="stroke: gray; fill: none;" marker-start="url(#ONLY_ONE_START)" marker-end="url(#ZERO_OR_MORE_END)" d="M1422.617,310.262L1163.848,361.718C905.078,413.175,387.539,516.087,153.77,578.481C-80,640.875,-30,662.75,-5,673.688L20,684.625" class="er relationshipLine"/><path style="stroke: gray; fill: none;" marker-start="url(#ONLY_ONE_START)" marker-end="url(#ZERO_OR_MORE_END)" d="M1581.148,324.374L1711.439,373.478C1841.729,422.583,2102.31,520.791,2232.6,578.229C2362.891,635.667,2362.891,652.333,2362.891,660.667L2362.891,669" class="er relationshipLine"/><path style="stroke: gray; fill: none;" marker-start="url(#ONLY_ONE_START)" marker-end="url(#ZERO_OR_MORE_END)" d="M1581.148,321.243L1728.24,370.869C1875.332,420.495,2169.516,519.748,2341.607,580.311C2513.699,640.875,2563.699,662.75,2588.699,673.688L2613.699,684.625" class="er relationshipLine"/><path style="stroke: gray; fill: none;" marker-start="url(#ONLY_ONE_START)" marker-end="url(#ZERO_OR_MORE_END)" d="M1581.148,318.724L1744.907,368.77C1908.665,418.816,2236.182,518.908,2409.465,577.287C2582.747,635.667,2601.794,652.333,2611.318,660.667L2620.842,669" class="er relationshipLine"/><path style="stroke: gray; fill: none;" marker-start="url(#ONLY_ONE_START)" marker-end="url(#ZERO_OR_MORE_END)" d="M1422.617,311.291L1180.514,362.576C938.411,413.861,454.206,516.43,221.627,576.048C-10.952,635.667,8.095,652.333,17.619,660.667L27.143,669" class="er relationshipLine"/><path style="stroke: gray; fill: none;" marker-start="url(#ONLY_ONE_START)" marker-end="url(#ZERO_OR_MORE_END)" d="M1422.617,325.42L1297.181,374.35C1171.745,423.28,920.872,521.14,812.103,579.792C703.333,638.444,736.667,657.889,753.333,667.611L770,677.333" class="er relationshipLine"/><path style="stroke: gray; fill: none;" marker-start="url(#ONLY_ONE_START)" marker-end="url(#ZERO_OR_MORE_END)" d="M1422.617,329.645L1313.848,377.87C1205.078,426.096,987.539,522.548,883.531,579.107C779.524,635.667,789.048,652.333,793.81,660.667L798.571,669" class="er relationshipLine"/><path style="stroke: gray; fill: none;" marker-start="url(#ONLY_ONE_START)" marker-end="url(#ZERO_OR_MORE_END)" d="M1581.148,313.388L1794.907,364.323C2008.665,415.259,2436.182,517.129,2649.941,576.398C2863.699,635.667,2863.699,652.333,2863.699,660.667L2863.699,669" class="er relationshipLine"/><path style="stroke: gray; fill: none;" marker-start="url(#ONLY_ONE_START)" marker-end="url(#ZERO_OR_MORE_END)" d="M1581.148,311.257L1823.774,362.547C2066.4,413.838,2551.651,516.419,2801.248,576.043C3050.846,635.667,3064.789,652.333,3071.761,660.667L3078.733,669" class="er relationshipLine"/><path style="stroke: gray; fill: none;" marker-start="url(#ONLY_ONE_START)" marker-end="url(#ZERO_OR_MORE_END)" d="M1581.148,316.639L1761.574,367.033C1941.999,417.426,2302.849,518.213,2483.274,576.94C2663.699,635.667,2663.699,652.333,2663.699,660.667L2663.699,669" class="er relationshipLine"/><path style="stroke: gray; fill: none;" marker-start="url(#ONLY_ONE_START)" marker-end="url(#ZERO_OR_MORE_END)" d="M1581.148,308.939L1864.842,360.616C2148.535,412.293,2715.922,515.646,3006.587,575.656C3297.252,635.667,3311.195,652.333,3318.167,660.667L3325.139,669" class="er relationshipLine"/><path style="stroke: gray; fill: none;" marker-start="url(#ONLY_ONE_START)" marker-end="url(#ZERO_OR_MORE_END)" d="M1581.148,308.005L1885.376,359.837C2189.603,411.67,2798.057,515.335,3097.523,575.501C3396.988,635.667,3387.464,652.333,3382.702,660.667L3377.94,669" class="er relationshipLine"/><path style="stroke: gray; fill: none;" marker-start="url(#ONLY_ONE_START)" marker-end="url(#ZERO_OR_MORE_END)" d="M1422.617,312.464L1197.181,363.553C971.745,414.642,520.872,516.821,295.436,576.244C70,635.667,70,652.333,70,660.667L70,669" class="er relationshipLine"/><path style="stroke: gray; fill: none;" marker-start="url(#ONLY_ONE_START)" marker-end="url(#ZERO_OR_MORE_END)" d="M1581.148,314.885L1778.24,365.571C1975.332,416.256,2369.516,517.628,2557.084,576.647C2744.652,635.667,2725.604,652.333,2716.08,660.667L2706.556,669" class="er relationshipLine"/><path style="stroke: gray; fill: none;" marker-start="url(#ONLY_ONE_START)" marker-end="url(#ZERO_OR_MORE_END)" d="M1581.148,309.798L1848.175,361.331C2115.202,412.865,2649.255,515.933,2909.31,575.8C3169.365,635.667,3155.422,652.333,3148.45,660.667L3141.478,669" class="er relationshipLine"/><path style="stroke: gray; fill: none;" marker-start="url(#ONLY_ONE_START)" marker-end="url(#ZERO_OR_MORE_END)" d="M1422.617,313.812L1213.848,364.677C1005.078,415.542,587.539,517.271,369.246,576.469C150.952,635.667,131.905,652.333,122.381,660.667L112.857,669" class="er relationshipLine"/><path style="stroke: gray; fill: none;" marker-start="url(#ONLY_ONE_START)" marker-end="url(#ZERO_OR_MORE_END)" d="M1422.617,335.206L1330.514,382.505C1238.411,429.804,1054.206,524.402,957.341,580.034C860.476,635.667,850.952,652.333,846.19,660.667L841.429,669" class="er relationshipLine"/><path style="stroke: gray; fill: none;" marker-start="url(#ONLY_ONE_START)" marker-end="url(#ZERO_OR_MORE_END)" d="M1422.617,315.38L1230.514,365.983C1038.411,416.587,654.206,517.793,437.103,579.334C220,640.875,170,662.75,145,673.688L120,684.625" class="er relationshipLine"/><path style="stroke: gray; fill: none;" marker-start="url(#ONLY_ONE_START)" marker-end="url(#ZERO_OR_MORE_END)" d="M1422.617,317.225L1247.181,367.521C1071.745,417.816,720.872,518.408,503.77,580.857C286.667,643.306,203.333,667.611,161.667,679.764L120,691.917" class="er relationshipLine"/><path style="stroke: gray; fill: none;" marker-start="url(#ONLY_ONE_START)" marker-end="url(#ZERO_OR_MORE_END)" d="M1422.617,319.427L1263.848,369.356C1105.078,419.285,787.539,519.142,570.436,581.832C353.333,644.521,236.667,670.042,178.333,682.802L120,695.563" class="er relationshipLine"/><path style="stroke: gray; fill: none;" marker-start="url(#ONLY_ONE_START)" marker-end="url(#ZERO_OR_MORE_END)" d="M1422.617,342.86L1347.181,388.883C1271.745,434.906,1120.872,526.953,1028.77,582.699C936.667,638.444,903.333,657.889,886.667,667.611L870,677.333" class="er relationshipLine"/><path style="stroke: gray; fill: none;" marker-start="url(#ONLY_ONE_START)" marker-end="url(#ZERO_OR_MORE_END)" d="M1581.148,307.019L1910.376,359.016C2239.603,411.013,2898.057,515.006,3227.285,575.336C3556.512,635.667,3556.512,652.333,3556.512,660.667L3556.512,669" class="er relationshipLine"/><path style="stroke: gray; fill: none;" marker-start="url(#ONLY_ONE_START)" marker-end="url(#ZERO_OR_MORE_END)" d="M1422.617,354.057L1363.848,398.214C1305.078,442.371,1187.539,530.686,1095.436,586.51C1003.333,642.333,936.667,665.667,903.333,677.333L870,689" class="er relationshipLine"/><g transform="translate(1422.6171875,20 )" id="entity-State-e636616e-94ba-59f9-83d3-4b160ad5ab07"><rect height="549" width="158.53125" y="0" x="0" class="er entityBox"/><text style="dominant-baseline: middle; text-anchor: middle; font-size: 12px;" transform="translate(79.265625,12)" y="0" x="0" id="text-entity-State-e636616e-94ba-59f9-83d3-4b160ad5ab07" class="er entityLabel">State</text><rect height="21" width="57.0625" y="24" x="0" class="er attributeBoxOdd"/><text style="dominant-baseline: middle; font-size: 10.2px;" transform="translate(5,34.5)" y="0" x="0" id="text-entity-State-e636616e-94ba-59f9-83d3-4b160ad5ab07-attr-1-type" class="er entityLabel">stringList</text><rect height="21" width="101.46875" y="24" x="57.0625" class="er attributeBoxOdd"/><text style="dominant-baseline: middle; font-size: 10.2px;" transform="translate(62.0625,34.5)" y="0" x="0" id="text-entity-State-e636616e-94ba-59f9-83d3-4b160ad5ab07-attr-1-name" class="er entityLabel">logo</text><rect height="21" width="57.0625" y="45" x="0" class="er attributeBoxEven"/><text style="dominant-baseline: middle; font-size: 10.2px;" transform="translate(5,55.5)" y="0" x="0" id="text-entity-State-e636616e-94ba-59f9-83d3-4b160ad5ab07-attr-2-type" class="er entityLabel">stringList</text><rect height="21" width="101.46875" y="45" x="57.0625" class="er attributeBoxEven"/><text style="dominant-baseline: middle; font-size: 10.2px;" transform="translate(62.0625,55.5)" y="0" x="0" id="text-entity-State-e636616e-94ba-59f9-83d3-4b160ad5ab07-attr-2-name" class="er entityLabel">photo</text><rect height="21" width="57.0625" y="66" x="0" class="er attributeBoxOdd"/><text style="dominant-baseline: middle; font-size: 10.2px;" transform="translate(5,76.5)" y="0" x="0" id="text-entity-State-e636616e-94ba-59f9-83d3-4b160ad5ab07-attr-3-type" class="er entityLabel">stringList</text><rect height="21" width="101.46875" y="66" x="57.0625" class="er attributeBoxOdd"/><text style="dominant-baseline: middle; font-size: 10.2px;" transform="translate(62.0625,76.5)" y="0" x="0" id="text-entity-State-e636616e-94ba-59f9-83d3-4b160ad5ab07-attr-3-name" class="er entityLabel">address</text><rect height="21" width="57.0625" y="87" x="0" class="er attributeBoxEven"/><text style="dominant-baseline: middle; font-size: 10.2px;" transform="translate(5,97.5)" y="0" x="0" id="text-entity-State-e636616e-94ba-59f9-83d3-4b160ad5ab07-attr-4-type" class="er entityLabel">stringList</text><rect height="21" width="101.46875" y="87" x="57.0625" class="er attributeBoxEven"/><text style="dominant-baseline: middle; font-size: 10.2px;" transform="translate(62.0625,97.5)" y="0" x="0" id="text-entity-State-e636616e-94ba-59f9-83d3-4b160ad5ab07-attr-4-name" class="er entityLabel">geo</text><rect height="21" width="57.0625" y="108" x="0" class="er attributeBoxOdd"/><text style="dominant-baseline: middle; font-size: 10.2px;" transform="translate(5,118.5)" y="0" x="0" id="text-entity-State-e636616e-94ba-59f9-83d3-4b160ad5ab07-attr-5-type" class="er entityLabel">stringList</text><rect height="21" width="101.46875" y="108" x="57.0625" class="er attributeBoxOdd"/><text style="dominant-baseline: middle; font-size: 10.2px;" transform="translate(62.0625,118.5)" y="0" x="0" id="text-entity-State-e636616e-94ba-59f9-83d3-4b160ad5ab07-attr-5-name" class="er entityLabel">geoContains</text><rect height="21" width="57.0625" y="129" x="0" class="er attributeBoxEven"/><text style="dominant-baseline: middle; font-size: 10.2px;" transform="translate(5,139.5)" y="0" x="0" id="text-entity-State-e636616e-94ba-59f9-83d3-4b160ad5ab07-attr-6-type" class="er entityLabel">stringList</text><rect height="21" width="101.46875" y="129" x="57.0625" class="er attributeBoxEven"/><text style="dominant-baseline: middle; font-size: 10.2px;" transform="translate(62.0625,139.5)" y="0" x="0" id="text-entity-State-e636616e-94ba-59f9-83d3-4b160ad5ab07-attr-6-name" class="er entityLabel">geoCoveredBy</text><rect height="21" width="57.0625" y="150" x="0" class="er attributeBoxOdd"/><text style="dominant-baseline: middle; font-size: 10.2px;" transform="translate(5,160.5)" y="0" x="0" id="text-entity-State-e636616e-94ba-59f9-83d3-4b160ad5ab07-attr-7-type" class="er entityLabel">stringList</text><rect height="21" width="101.46875" y="150" x="57.0625" class="er attributeBoxOdd"/><text style="dominant-baseline: middle; font-size: 10.2px;" transform="translate(62.0625,160.5)" y="0" x="0" id="text-entity-State-e636616e-94ba-59f9-83d3-4b160ad5ab07-attr-7-name" class="er entityLabel">geoCovers</text><rect height="21" width="57.0625" y="171" x="0" class="er attributeBoxEven"/><text style="dominant-baseline: middle; font-size: 10.2px;" transform="translate(5,181.5)" y="0" x="0" id="text-entity-State-e636616e-94ba-59f9-83d3-4b160ad5ab07-attr-8-type" class="er entityLabel">stringList</text><rect height="21" width="101.46875" y="171" x="57.0625" class="er attributeBoxEven"/><text style="dominant-baseline: middle; font-size: 10.2px;" transform="translate(62.0625,181.5)" y="0" x="0" id="text-entity-State-e636616e-94ba-59f9-83d3-4b160ad5ab07-attr-8-name" class="er entityLabel">geoCrosses</text><rect height="21" width="57.0625" y="192" x="0" class="er attributeBoxOdd"/><text style="dominant-baseline: middle; font-size: 10.2px;" transform="translate(5,202.5)" y="0" x="0" id="text-entity-State-e636616e-94ba-59f9-83d3-4b160ad5ab07-attr-9-type" class="er entityLabel">stringList</text><rect height="21" width="101.46875" y="192" x="57.0625" class="er attributeBoxOdd"/><text style="dominant-baseline: middle; font-size: 10.2px;" transform="translate(62.0625,202.5)" y="0" x="0" id="text-entity-State-e636616e-94ba-59f9-83d3-4b160ad5ab07-attr-9-name" class="er entityLabel">geoDisjoint</text><rect height="21" width="57.0625" y="213" x="0" class="er attributeBoxEven"/><text style="dominant-baseline: middle; font-size: 10.2px;" transform="translate(5,223.5)" y="0" x="0" id="text-entity-State-e636616e-94ba-59f9-83d3-4b160ad5ab07-attr-10-type" class="er entityLabel">stringList</text><rect height="21" width="101.46875" y="213" x="57.0625" class="er attributeBoxEven"/><text style="dominant-baseline: middle; font-size: 10.2px;" transform="translate(62.0625,223.5)" y="0" x="0" id="text-entity-State-e636616e-94ba-59f9-83d3-4b160ad5ab07-attr-10-name" class="er entityLabel">geoEquals</text><rect height="21" width="57.0625" y="234" x="0" class="er attributeBoxOdd"/><text style="dominant-baseline: middle; font-size: 10.2px;" transform="translate(5,244.5)" y="0" x="0" id="text-entity-State-e636616e-94ba-59f9-83d3-4b160ad5ab07-attr-11-type" class="er entityLabel">stringList</text><rect height="21" width="101.46875" y="234" x="57.0625" class="er attributeBoxOdd"/><text style="dominant-baseline: middle; font-size: 10.2px;" transform="translate(62.0625,244.5)" y="0" x="0" id="text-entity-State-e636616e-94ba-59f9-83d3-4b160ad5ab07-attr-11-name" class="er entityLabel">geoIntersects</text><rect height="21" width="57.0625" y="255" x="0" class="er attributeBoxEven"/><text style="dominant-baseline: middle; font-size: 10.2px;" transform="translate(5,265.5)" y="0" x="0" id="text-entity-State-e636616e-94ba-59f9-83d3-4b160ad5ab07-attr-12-type" class="er entityLabel">stringList</text><rect height="21" width="101.46875" y="255" x="57.0625" class="er attributeBoxEven"/><text style="dominant-baseline: middle; font-size: 10.2px;" transform="translate(62.0625,265.5)" y="0" x="0" id="text-entity-State-e636616e-94ba-59f9-83d3-4b160ad5ab07-attr-12-name" class="er entityLabel">geoOverlaps</text><rect height="21" width="57.0625" y="276" x="0" class="er attributeBoxOdd"/><text style="dominant-baseline: middle; font-size: 10.2px;" transform="translate(5,286.5)" y="0" x="0" id="text-entity-State-e636616e-94ba-59f9-83d3-4b160ad5ab07-attr-13-type" class="er entityLabel">stringList</text><rect height="21" width="101.46875" y="276" x="57.0625" class="er attributeBoxOdd"/><text style="dominant-baseline: middle; font-size: 10.2px;" transform="translate(62.0625,286.5)" y="0" x="0" id="text-entity-State-e636616e-94ba-59f9-83d3-4b160ad5ab07-attr-13-name" class="er entityLabel">geoTouches</text><rect height="21" width="57.0625" y="297" x="0" class="er attributeBoxEven"/><text style="dominant-baseline: middle; font-size: 10.2px;" transform="translate(5,307.5)" y="0" x="0" id="text-entity-State-e636616e-94ba-59f9-83d3-4b160ad5ab07-attr-14-type" class="er entityLabel">stringList</text><rect height="21" width="101.46875" y="297" x="57.0625" class="er attributeBoxEven"/><text style="dominant-baseline: middle; font-size: 10.2px;" transform="translate(62.0625,307.5)" y="0" x="0" id="text-entity-State-e636616e-94ba-59f9-83d3-4b160ad5ab07-attr-14-name" class="er entityLabel">geoWithin</text><rect height="21" width="57.0625" y="318" x="0" class="er attributeBoxOdd"/><text style="dominant-baseline: middle; font-size: 10.2px;" transform="translate(5,328.5)" y="0" x="0" id="text-entity-State-e636616e-94ba-59f9-83d3-4b160ad5ab07-attr-15-type" class="er entityLabel">stringList</text><rect height="21" width="101.46875" y="318" x="57.0625" class="er attributeBoxOdd"/><text style="dominant-baseline: middle; font-size: 10.2px;" transform="translate(62.0625,328.5)" y="0" x="0" id="text-entity-State-e636616e-94ba-59f9-83d3-4b160ad5ab07-attr-15-name" class="er entityLabel">hasMap</text><rect height="21" width="57.0625" y="339" x="0" class="er attributeBoxEven"/><text style="dominant-baseline: middle; font-size: 10.2px;" transform="translate(5,349.5)" y="0" x="0" id="text-entity-State-e636616e-94ba-59f9-83d3-4b160ad5ab07-attr-16-type" class="er entityLabel">stringList</text><rect height="21" width="101.46875" y="339" x="57.0625" class="er attributeBoxEven"/><text style="dominant-baseline: middle; font-size: 10.2px;" transform="translate(62.0625,349.5)" y="0" x="0" id="text-entity-State-e636616e-94ba-59f9-83d3-4b160ad5ab07-attr-16-name" class="er entityLabel">keywords</text><rect height="21" width="57.0625" y="360" x="0" class="er attributeBoxOdd"/><text style="dominant-baseline: middle; font-size: 10.2px;" transform="translate(5,370.5)" y="0" x="0" id="text-entity-State-e636616e-94ba-59f9-83d3-4b160ad5ab07-attr-17-type" class="er entityLabel">stringList</text><rect height="21" width="101.46875" y="360" x="57.0625" class="er attributeBoxOdd"/><text style="dominant-baseline: middle; font-size: 10.2px;" transform="translate(62.0625,370.5)" y="0" x="0" id="text-entity-State-e636616e-94ba-59f9-83d3-4b160ad5ab07-attr-17-name" class="er entityLabel">latitude</text><rect height="21" width="57.0625" y="381" x="0" class="er attributeBoxEven"/><text style="dominant-baseline: middle; font-size: 10.2px;" transform="translate(5,391.5)" y="0" x="0" id="text-entity-State-e636616e-94ba-59f9-83d3-4b160ad5ab07-attr-18-type" class="er entityLabel">stringList</text><rect height="21" width="101.46875" y="381" x="57.0625" class="er attributeBoxEven"/><text style="dominant-baseline: middle; font-size: 10.2px;" transform="translate(62.0625,391.5)" y="0" x="0" id="text-entity-State-e636616e-94ba-59f9-83d3-4b160ad5ab07-attr-18-name" class="er entityLabel">longitude</text><rect height="21" width="57.0625" y="402" x="0" class="er attributeBoxOdd"/><text style="dominant-baseline: middle; font-size: 10.2px;" transform="translate(5,412.5)" y="0" x="0" id="text-entity-State-e636616e-94ba-59f9-83d3-4b160ad5ab07-attr-19-type" class="er entityLabel">stringList</text><rect height="21" width="101.46875" y="402" x="57.0625" class="er attributeBoxOdd"/><text style="dominant-baseline: middle; font-size: 10.2px;" transform="translate(62.0625,412.5)" y="0" x="0" id="text-entity-State-e636616e-94ba-59f9-83d3-4b160ad5ab07-attr-19-name" class="er entityLabel">photos</text><rect height="21" width="57.0625" y="423" x="0" class="er attributeBoxEven"/><text style="dominant-baseline: middle; font-size: 10.2px;" transform="translate(5,433.5)" y="0" x="0" id="text-entity-State-e636616e-94ba-59f9-83d3-4b160ad5ab07-attr-20-type" class="er entityLabel">stringList</text><rect height="21" width="101.46875" y="423" x="57.0625" class="er attributeBoxEven"/><text style="dominant-baseline: middle; font-size: 10.2px;" transform="translate(62.0625,433.5)" y="0" x="0" id="text-entity-State-e636616e-94ba-59f9-83d3-4b160ad5ab07-attr-20-name" class="er entityLabel">additionalType</text><rect height="21" width="57.0625" y="444" x="0" class="er attributeBoxOdd"/><text style="dominant-baseline: middle; font-size: 10.2px;" transform="translate(5,454.5)" y="0" x="0" id="text-entity-State-e636616e-94ba-59f9-83d3-4b160ad5ab07-attr-21-type" class="er entityLabel">stringList</text><rect height="21" width="101.46875" y="444" x="57.0625" class="er attributeBoxOdd"/><text style="dominant-baseline: middle; font-size: 10.2px;" transform="translate(62.0625,454.5)" y="0" x="0" id="text-entity-State-e636616e-94ba-59f9-83d3-4b160ad5ab07-attr-21-name" class="er entityLabel">description</text><rect height="21" width="57.0625" y="465" x="0" class="er attributeBoxEven"/><text style="dominant-baseline: middle; font-size: 10.2px;" transform="translate(5,475.5)" y="0" x="0" id="text-entity-State-e636616e-94ba-59f9-83d3-4b160ad5ab07-attr-22-type" class="er entityLabel">stringList</text><rect height="21" width="101.46875" y="465" x="57.0625" class="er attributeBoxEven"/><text style="dominant-baseline: middle; font-size: 10.2px;" transform="translate(62.0625,475.5)" y="0" x="0" id="text-entity-State-e636616e-94ba-59f9-83d3-4b160ad5ab07-attr-22-name" class="er entityLabel">identifier</text><rect height="21" width="57.0625" y="486" x="0" class="er attributeBoxOdd"/><text style="dominant-baseline: middle; font-size: 10.2px;" transform="translate(5,496.5)" y="0" x="0" id="text-entity-State-e636616e-94ba-59f9-83d3-4b160ad5ab07-attr-23-type" class="er entityLabel">stringList</text><rect height="21" width="101.46875" y="486" x="57.0625" class="er attributeBoxOdd"/><text style="dominant-baseline: middle; font-size: 10.2px;" transform="translate(62.0625,496.5)" y="0" x="0" id="text-entity-State-e636616e-94ba-59f9-83d3-4b160ad5ab07-attr-23-name" class="er entityLabel">image</text><rect height="21" width="57.0625" y="507" x="0" class="er attributeBoxEven"/><text style="dominant-baseline: middle; font-size: 10.2px;" transform="translate(5,517.5)" y="0" x="0" id="text-entity-State-e636616e-94ba-59f9-83d3-4b160ad5ab07-attr-24-type" class="er entityLabel">stringList</text><rect height="21" width="101.46875" y="507" x="57.0625" class="er attributeBoxEven"/><text style="dominant-baseline: middle; font-size: 10.2px;" transform="translate(62.0625,517.5)" y="0" x="0" id="text-entity-State-e636616e-94ba-59f9-83d3-4b160ad5ab07-attr-24-name" class="er entityLabel">mainEntityOfPage</text><rect height="21" width="57.0625" y="528" x="0" class="er attributeBoxOdd"/><text style="dominant-baseline: middle; font-size: 10.2px;" transform="translate(5,538.5)" y="0" x="0" id="text-entity-State-e636616e-94ba-59f9-83d3-4b160ad5ab07-attr-25-type" class="er entityLabel">stringList</text><rect height="21" width="101.46875" y="528" x="57.0625" class="er attributeBoxOdd"/><text style="dominant-baseline: middle; font-size: 10.2px;" transform="translate(62.0625,538.5)" y="0" x="0" id="text-entity-State-e636616e-94ba-59f9-83d3-4b160ad5ab07-attr-25-name" class="er entityLabel">subjectOf</text></g><g transform="translate(20,669 )" id="entity-Text-426c5d39-acfc-5487-a6d9-ede67887190e"><rect height="75" width="100" y="0" x="0" class="er entityBox"/><text style="dominant-baseline: middle; text-anchor: middle; font-size: 12px;" transform="translate(50,37.5)" y="0" x="0" id="text-entity-Text-426c5d39-acfc-5487-a6d9-ede67887190e" class="er entityLabel">Text</text></g><g transform="translate(770,669 )" id="entity-URL-07f78d3e-fd74-5925-b39b-26c1cc2d6b7c"><rect height="75" width="100" y="0" x="0" class="er entityBox"/><text style="dominant-baseline: middle; text-anchor: middle; font-size: 12px;" transform="translate(50,37.5)" y="0" x="0" id="text-entity-URL-07f78d3e-fd74-5925-b39b-26c1cc2d6b7c" class="er entityLabel">URL</text></g><g transform="translate(1113.1328125,669 )" id="entity-PropertyValue-0e208f6c-77f8-5d2e-b4a4-9a09101a021a"><rect height="75" width="113.734375" y="0" x="0" class="er entityBox"/><text style="dominant-baseline: middle; text-anchor: middle; font-size: 12px;" transform="translate(56.8671875,37.5)" y="0" x="0" id="text-entity-PropertyValue-0e208f6c-77f8-5d2e-b4a4-9a09101a021a" class="er entityLabel">PropertyValue</text></g><g transform="translate(1326.8671875,669 )" id="entity-AggregateRating-aa0a8837-178a-57ab-baa0-94ad30d90eb5"><rect height="75" width="131.25" y="0" x="0" class="er entityBox"/><text style="dominant-baseline: middle; text-anchor: middle; font-size: 12px;" transform="translate(65.625,37.5)" y="0" x="0" id="text-entity-AggregateRating-aa0a8837-178a-57ab-baa0-94ad30d90eb5" class="er entityLabel">AggregateRating</text></g><g transform="translate(1558.1171875,669 )" id="entity-LocationFeatureSpecification-dbe29f9c-e3d0-5bc9-80cd-10146568b0ab"><rect height="75" width="203.15625" y="0" x="0" class="er entityBox"/><text style="dominant-baseline: middle; text-anchor: middle; font-size: 12px;" transform="translate(101.578125,37.5)" y="0" x="0" id="text-entity-LocationFeatureSpecification-dbe29f9c-e3d0-5bc9-80cd-10146568b0ab" class="er entityLabel">LocationFeatureSpecification</text></g><g transform="translate(1861.2734375,669 )" id="entity-Place-18cedc50-4c85-52d4-b2dd-111465382dcf"><rect height="75" width="100" y="0" x="0" class="er entityBox"/><text style="dominant-baseline: middle; text-anchor: middle; font-size: 12px;" transform="translate(50,37.5)" y="0" x="0" id="text-entity-Place-18cedc50-4c85-52d4-b2dd-111465382dcf" class="er entityLabel">Place</text></g><g transform="translate(2111.2734375,669 )" id="entity-Event-5fcfcec5-0af7-59ba-bebb-bb0a822c8afa"><rect height="75" width="100" y="0" x="0" class="er entityBox"/><text style="dominant-baseline: middle; text-anchor: middle; font-size: 12px;" transform="translate(50,37.5)" y="0" x="0" id="text-entity-Event-5fcfcec5-0af7-59ba-bebb-bb0a822c8afa" class="er entityLabel">Event</text></g><g transform="translate(2311.2734375,669 )" id="entity-Certification-8b250de0-929b-5806-8c87-f8e7c928ef36"><rect height="75" width="103.234375" y="0" x="0" class="er entityBox"/><text style="dominant-baseline: middle; text-anchor: middle; font-size: 12px;" transform="translate(51.6171875,37.5)" y="0" x="0" id="text-entity-Certification-8b250de0-929b-5806-8c87-f8e7c928ef36" class="er entityLabel">Certification</text></g><g transform="translate(2613.69921875,669 )" id="entity-Boolean-5b26178e-f873-50aa-bf9a-b8300df1b991"><rect height="75" width="100" y="0" x="0" class="er entityBox"/><text style="dominant-baseline: middle; text-anchor: middle; font-size: 12px;" transform="translate(50,37.5)" y="0" x="0" id="text-entity-Boolean-5b26178e-f873-50aa-bf9a-b8300df1b991" class="er entityLabel">Boolean</text></g><g transform="translate(2813.69921875,669 )" id="entity-Integer-fc94dbf2-2dc2-55cd-ac16-6d1e48f8bef9"><rect height="75" width="100" y="0" x="0" class="er entityBox"/><text style="dominant-baseline: middle; text-anchor: middle; font-size: 12px;" transform="translate(50,37.5)" y="0" x="0" id="text-entity-Integer-fc94dbf2-2dc2-55cd-ac16-6d1e48f8bef9" class="er entityLabel">Integer</text></g><g transform="translate(3013.69921875,669 )" id="entity-OpeningHoursSpecification-677aa64f-a506-5d18-b5d1-75a0f22f6986"><rect height="75" width="192.8125" y="0" x="0" class="er entityBox"/><text style="dominant-baseline: middle; text-anchor: middle; font-size: 12px;" transform="translate(96.40625,37.5)" y="0" x="0" id="text-entity-OpeningHoursSpecification-677aa64f-a506-5d18-b5d1-75a0f22f6986" class="er entityLabel">OpeningHoursSpecification</text></g><g transform="translate(3306.51171875,669 )" id="entity-Review-77c92a79-8cff-50c0-9604-f9135763cccd"><rect height="75" width="100" y="0" x="0" class="er entityBox"/><text style="dominant-baseline: middle; text-anchor: middle; font-size: 12px;" transform="translate(50,37.5)" y="0" x="0" id="text-entity-Review-77c92a79-8cff-50c0-9604-f9135763cccd" class="er entityLabel">Review</text></g><g transform="translate(3506.51171875,669 )" id="entity-Action-6cd87d9a-a078-546e-a35b-bee54f477b31"><rect height="75" width="100" y="0" x="0" class="er entityBox"/><text style="dominant-baseline: middle; text-anchor: middle; font-size: 12px;" transform="translate(50,37.5)" y="0" x="0" id="text-entity-Action-6cd87d9a-a078-546e-a35b-bee54f477b31" class="er entityLabel">Action</text></g><rect height="14" width="135.623046875" y="455.9577331542969" x="498.4384765625" class="er relationshipLabelBox"/><text style="text-anchor: middle; dominant-baseline: middle; font-size: 12px;" y="462.9577331542969" x="566.25" id="rel1" class="er relationshipLabel">globalLocationNumber</text><rect height="14" width="109.3046875" y="468.27117919921875" x="937.1837768554688" class="er relationshipLabelBox"/><text style="text-anchor: middle; dominant-baseline: middle; font-size: 12px;" y="475.27117919921875" x="991.8361206054688" id="rel2" class="er relationshipLabel">hasGS1DigitalLink</text><rect height="14.000030517578125" width="110.375" y="504.1775665283203" x="1226.7220458984375" class="er relationshipLabelBox"/><text style="text-anchor: middle; dominant-baseline: middle; font-size: 12px;" y="511.1775817871094" x="1281.9095458984375" id="rel3" class="er relationshipLabel">additionalProperty</text><rect height="14" width="100.390625" y="591.0360717773438" x="1350.814453125" class="er relationshipLabelBox"/><text style="text-anchor: middle; dominant-baseline: middle; font-size: 12px;" y="598.0360717773438" x="1401.009765625" id="rel4" class="er relationshipLabel">aggregateRating</text><rect height="14" width="94.53125" y="553.2811889648438" x="1582.6866455078125" class="er relationshipLabelBox"/><text style="text-anchor: middle; dominant-baseline: middle; font-size: 12px;" y="560.2811889648438" x="1629.9522705078125" id="rel5" class="er relationshipLabel">amenityFeature</text><rect height="14" width="72.4375" y="455.9557189941406" x="579.0385131835938" class="er relationshipLabelBox"/><text style="text-anchor: middle; dominant-baseline: middle; font-size: 12px;" y="462.9557189941406" x="615.2572631835938" id="rel6" class="er relationshipLabel">branchCode</text><rect height="14" width="70.6875" y="528.6819458007812" x="1678.8717041015625" class="er relationshipLabelBox"/><text style="text-anchor: middle; dominant-baseline: middle; font-size: 12px;" y="535.6819458007812" x="1714.2154541015625" id="rel7" class="er relationshipLabel">containedIn</text><rect height="14" width="102.59375" y="494.5178527832031" x="1709.90673828125" class="er relationshipLabelBox"/><text style="text-anchor: middle; dominant-baseline: middle; font-size: 12px;" y="501.5178527832031" x="1761.20361328125" id="rel8" class="er relationshipLabel">containedInPlace</text><rect height="14" width="82.703125" y="482.731201171875" x="1763.603759765625" class="er relationshipLabelBox"/><text style="text-anchor: middle; dominant-baseline: middle; font-size: 12px;" y="489.731201171875" x="1804.955322265625" id="rel9" class="er relationshipLabel">containsPlace</text><rect height="14" width="34.47265625" y="484.0377502441406" x="1851.86181640625" class="er relationshipLabelBox"/><text style="text-anchor: middle; dominant-baseline: middle; font-size: 12px;" y="491.0377502441406" x="1869.09814453125" id="rel10" class="er relationshipLabel">event</text><rect height="14" width="40.4375" y="473.1709289550781" x="1884.784912109375" class="er relationshipLabelBox"/><text style="text-anchor: middle; dominant-baseline: middle; font-size: 12px;" y="480.1709289550781" x="1905.003662109375" id="rel11" class="er relationshipLabel">events</text><rect height="14" width="66.951171875" y="456.7947082519531" x="626.519775390625" class="er relationshipLabelBox"/><text style="text-anchor: middle; dominant-baseline: middle; font-size: 12px;" y="463.7947082519531" x="659.995361328125" id="rel12" class="er relationshipLabel">faxNumber</text><rect height="14" width="94.453125" y="471.0509338378906" x="1938.5020751953125" class="er relationshipLabelBox"/><text style="text-anchor: middle; dominant-baseline: middle; font-size: 12px;" y="478.0509338378906" x="1985.7286376953125" id="rel13" class="er relationshipLabel">hasCertification</text><rect height="14" width="147.328125" y="489.75616455078125" x="2026.020751953125" class="er relationshipLabelBox"/><text style="text-anchor: middle; dominant-baseline: middle; font-size: 12px;" y="496.75616455078125" x="2099.684814453125" id="rel14" class="er relationshipLabel">hasDriveThroughService</text><rect height="14" width="116.5625" y="473.2108459472656" x="2048.391357421875" class="er relationshipLabelBox"/><text style="text-anchor: middle; dominant-baseline: middle; font-size: 12px;" y="480.2108459472656" x="2106.672607421875" id="rel15" class="er relationshipLabel">isAccessibleForFree</text><rect height="14" width="35.375" y="458.6322326660156" x="682.3504028320312" class="er relationshipLabelBox"/><text style="text-anchor: middle; dominant-baseline: middle; font-size: 12px;" y="465.6322326660156" x="700.0379028320312" id="rel16" class="er relationshipLabel">isicV4</text><rect height="14" width="26.671875" y="468.3802795410156" x="1030.3203125" class="er relationshipLabelBox"/><text style="text-anchor: middle; dominant-baseline: middle; font-size: 12px;" y="475.3802795410156" x="1043.65625" id="rel17" class="er relationshipLabel">map</text><rect height="14" width="32.921875" y="472.4316101074219" x="1071.60986328125" class="er relationshipLabelBox"/><text style="text-anchor: middle; dominant-baseline: middle; font-size: 12px;" y="479.4316101074219" x="1088.07080078125" id="rel18" class="er relationshipLabel">maps</text><rect height="14" width="167.6875" y="463.1050720214844" x="2150.2822265625" class="er relationshipLabelBox"/><text style="text-anchor: middle; dominant-baseline: middle; font-size: 12px;" y="470.1050720214844" x="2234.1259765625" id="rel19" class="er relationshipLabel">maximumAttendeeCapacity</text><rect height="14" width="160.71875" y="464.9140319824219" x="2256.081787109375" class="er relationshipLabelBox"/><text style="text-anchor: middle; dominant-baseline: middle; font-size: 12px;" y="471.9140319824219" x="2336.441162109375" id="rel20" class="er relationshipLabel">openingHoursSpecification</text><rect height="14" width="77.1875" y="465.4294128417969" x="2096.2412109375" class="er relationshipLabelBox"/><text style="text-anchor: middle; dominant-baseline: middle; font-size: 12px;" y="472.4294128417969" x="2134.8349609375" id="rel21" class="er relationshipLabel">publicAccess</text><rect height="14" width="39.87109375" y="462.9164123535156" x="2439.419677734375" class="er relationshipLabelBox"/><text style="text-anchor: middle; dominant-baseline: middle; font-size: 12px;" y="469.9164123535156" x="2459.355224609375" id="rel22" class="er relationshipLabel">review</text><rect height="14" width="45.9375" y="457.884521484375" x="2472.199462890625" class="er relationshipLabelBox"/><text style="text-anchor: middle; dominant-baseline: middle; font-size: 12px;" y="464.884521484375" x="2495.168212890625" id="rel23" class="er relationshipLabel">reviews</text><rect height="14" width="39.515625" y="462.4505615234375" x="715.0690307617188" class="er relationshipLabelBox"/><text style="text-anchor: middle; dominant-baseline: middle; font-size: 12px;" y="469.4505615234375" x="734.8268432617188" id="rel24" class="er relationshipLabel">slogan</text><rect height="14" width="97.828125" y="460.837646484375" x="2121.76953125" class="er relationshipLabelBox"/><text style="text-anchor: middle; dominant-baseline: middle; font-size: 12px;" y="467.837646484375" x="2170.68359375" id="rel25" class="er relationshipLabel">smokingAllowed</text><rect height="14" width="204.6875" y="458.3705749511719" x="2278.66064453125" class="er relationshipLabelBox"/><text style="text-anchor: middle; dominant-baseline: middle; font-size: 12px;" y="465.3705749511719" x="2381.00439453125" id="rel26" class="er relationshipLabel">specialOpeningHoursSpecification</text><rect height="14" width="60.359375" y="468.6678771972656" x="731.9312133789062" class="er relationshipLabelBox"/><text style="text-anchor: middle; dominant-baseline: middle; font-size: 12px;" y="475.6678771972656" x="762.1109008789062" id="rel27" class="er relationshipLabel">telephone</text><rect height="14" width="102.0625" y="482.8875427246094" x="1072.330322265625" class="er relationshipLabelBox"/><text style="text-anchor: middle; dominant-baseline: middle; font-size: 12px;" y="489.8875427246094" x="1123.361572265625" id="rel28" class="er relationshipLabel">tourBookingPage</text><rect height="14" width="89.953125" y="481.7431640625" x="722.8500366210938" class="er relationshipLabelBox"/><text style="text-anchor: middle; dominant-baseline: middle; font-size: 12px;" y="488.7431640625" x="767.8265991210938" id="rel29" class="er relationshipLabel">alternateName</text><rect height="14" width="161.390625" y="497.0719299316406" x="690.4692993164062" class="er relationshipLabelBox"/><text style="text-anchor: middle; dominant-baseline: middle; font-size: 12px;" y="504.0719299316406" x="771.1646118164062" id="rel30" class="er relationshipLabel">disambiguatingDescription</text><rect height="14" width="34.03125" y="514.0210571289062" x="758.07421875" class="er relationshipLabelBox"/><text style="text-anchor: middle; dominant-baseline: middle; font-size: 12px;" y="521.0210571289062" x="775.08984375" id="rel31" class="er relationshipLabel">name</text><rect height="14" width="47.140625" y="503.9912109375" x="1123.2764892578125" class="er relationshipLabelBox"/><text style="text-anchor: middle; dominant-baseline: middle; font-size: 12px;" y="510.9912109375" x="1146.8468017578125" id="rel32" class="er relationshipLabel">sameAs</text><rect height="14" width="90.96875" y="458.6767578125" x="2533.33642578125" class="er relationshipLabelBox"/><text style="text-anchor: middle; dominant-baseline: middle; font-size: 12px;" y="465.6767578125" x="2578.82080078125" id="rel33" class="er relationshipLabel">potentialAction</text><rect height="14" width="15.875" y="538.1455688476562" x="1152.0052490234375" class="er relationshipLabelBox"/><text style="text-anchor: middle; dominant-baseline: middle; font-size: 12px;" y="545.1455688476562" x="1159.9427490234375" id="rel34" class="er relationshipLabel">url</text></svg>