<svg aria-roledescription="er" role="graphics-document document" viewBox="0 0 1396.8671875 407" style="max-width: 1396.87px; background-color: white;" xmlns:xlink="http://www.w3.org/1999/xlink" xmlns="http://www.w3.org/2000/svg" width="100%" id="my-svg"><style>#my-svg{font-family:"trebuchet ms",verdana,arial,sans-serif;font-size:16px;fill:#333;}#my-svg .error-icon{fill:#552222;}#my-svg .error-text{fill:#552222;stroke:#552222;}#my-svg .edge-thickness-normal{stroke-width:1px;}#my-svg .edge-thickness-thick{stroke-width:3.5px;}#my-svg .edge-pattern-solid{stroke-dasharray:0;}#my-svg .edge-thickness-invisible{stroke-width:0;fill:none;}#my-svg .edge-pattern-dashed{stroke-dasharray:3;}#my-svg .edge-pattern-dotted{stroke-dasharray:2;}#my-svg .marker{fill:#333333;stroke:#333333;}#my-svg .marker.cross{stroke:#333333;}#my-svg svg{font-family:"trebuchet ms",verdana,arial,sans-serif;font-size:16px;}#my-svg p{margin:0;}#my-svg .entityBox{fill:#ECECFF;stroke:#9370DB;}#my-svg .attributeBoxOdd{fill:#ffffff;stroke:#9370DB;}#my-svg .attributeBoxEven{fill:#f2f2f2;stroke:#9370DB;}#my-svg .relationshipLabelBox{fill:hsl(80, 100%, 96.2745098039%);opacity:0.7;background-color:hsl(80, 100%, 96.2745098039%);}#my-svg .relationshipLabelBox rect{opacity:0.5;}#my-svg .relationshipLine{stroke:#333333;}#my-svg .entityTitleText{text-anchor:middle;font-size:18px;fill:#333;}#my-svg #MD_PARENT_START{fill:#f5f5f5!important;stroke:#333333!important;stroke-width:1;}#my-svg #MD_PARENT_END{fill:#f5f5f5!important;stroke:#333333!important;stroke-width:1;}#my-svg :root{--mermaid-font-family:"trebuchet ms",verdana,arial,sans-serif;}</style><g/><defs><marker orient="auto" markerHeight="240" markerWidth="190" refY="7" refX="0" id="MD_PARENT_START"><path d="M 18,7 L9,13 L1,7 L9,1 Z"/></marker></defs><defs><marker orient="auto" markerHeight="28" markerWidth="20" refY="7" refX="19" id="MD_PARENT_END"><path d="M 18,7 L9,13 L1,7 L9,1 Z"/></marker></defs><defs><marker orient="auto" markerHeight="18" markerWidth="18" refY="9" refX="0" id="ONLY_ONE_START"><path d="M9,0 L9,18 M15,0 L15,18" fill="none" stroke="gray"/></marker></defs><defs><marker orient="auto" markerHeight="18" markerWidth="18" refY="9" refX="18" id="ONLY_ONE_END"><path d="M3,0 L3,18 M9,0 L9,18" fill="none" stroke="gray"/></marker></defs><defs><marker orient="auto" markerHeight="18" markerWidth="30" refY="9" refX="0" id="ZERO_OR_ONE_START"><circle r="6" cy="9" cx="21" fill="white" stroke="gray"/><path d="M9,0 L9,18" fill="none" stroke="gray"/></marker></defs><defs><marker orient="auto" markerHeight="18" markerWidth="30" refY="9" refX="30" id="ZERO_OR_ONE_END"><circle r="6" cy="9" cx="9" fill="white" stroke="gray"/><path d="M21,0 L21,18" fill="none" stroke="gray"/></marker></defs><defs><marker orient="auto" markerHeight="36" markerWidth="45" refY="18" refX="18" id="ONE_OR_MORE_START"><path d="M0,18 Q 18,0 36,18 Q 18,36 0,18 M42,9 L42,27" fill="none" stroke="gray"/></marker></defs><defs><marker orient="auto" markerHeight="36" markerWidth="45" refY="18" refX="27" id="ONE_OR_MORE_END"><path d="M3,9 L3,27 M9,18 Q27,0 45,18 Q27,36 9,18" fill="none" stroke="gray"/></marker></defs><defs><marker orient="auto" markerHeight="36" markerWidth="57" refY="18" refX="18" id="ZERO_OR_MORE_START"><circle r="6" cy="18" cx="48" fill="white" stroke="gray"/><path d="M0,18 Q18,0 36,18 Q18,36 0,18" fill="none" stroke="gray"/></marker></defs><defs><marker orient="auto" markerHeight="36" markerWidth="57" refY="18" refX="39" id="ZERO_OR_MORE_END"><circle r="6" cy="18" cx="9" fill="white" stroke="gray"/><path d="M21,18 Q39,0 57,18 Q39,36 21,18" fill="none" stroke="gray"/></marker></defs><path style="stroke: gray; fill: none;" marker-start="url(#ONLY_ONE_START)" marker-end="url(#ZERO_OR_MORE_END)" d="M657.32,133.711L560.578,155.092C463.836,176.474,270.352,219.237,173.609,248.952C76.867,278.667,76.867,295.333,76.867,303.667L76.867,312" class="er relationshipLine"/><path style="stroke: gray; fill: none;" marker-start="url(#ONLY_ONE_START)" marker-end="url(#ZERO_OR_MORE_END)" d="M657.32,136.87L577.245,157.725C497.169,178.58,337.018,220.29,287.892,251.977C238.766,283.664,300.664,305.329,331.613,316.161L362.563,326.993" class="er relationshipLine"/><path style="stroke: gray; fill: none;" marker-start="url(#ONLY_ONE_START)" marker-end="url(#ZERO_OR_MORE_END)" d="M657.32,141.401L593.911,161.501C530.503,181.601,403.685,221.8,354.562,250.234C305.439,278.667,334.01,295.333,348.296,303.667L362.581,312" class="er relationshipLine"/><path style="stroke: gray; fill: none;" marker-start="url(#ONLY_ONE_START)" marker-end="url(#ZERO_OR_MORE_END)" d="M657.32,148.445L610.578,167.371C563.836,186.297,470.352,224.148,428.371,251.408C386.391,278.667,395.915,295.333,400.677,303.667L405.439,312" class="er relationshipLine"/><path style="stroke: gray; fill: none;" marker-start="url(#ONLY_ONE_START)" marker-end="url(#ZERO_OR_MORE_END)" d="M657.32,160.896L627.245,177.747C597.169,194.598,537.018,228.299,502.181,253.483C467.343,278.667,457.82,295.333,453.058,303.667L448.296,312" class="er relationshipLine"/><path style="stroke: gray; fill: none;" marker-start="url(#ONLY_ONE_START)" marker-end="url(#ZERO_OR_MORE_END)" d="M657.32,188.854L643.911,201.045C630.503,213.236,603.685,237.618,575.99,258.142C548.296,278.667,519.724,295.333,505.439,303.667L491.153,312" class="er relationshipLine"/><path style="stroke: gray; fill: none;" marker-start="url(#ONLY_ONE_START)" marker-end="url(#ZERO_OR_MORE_END)" d="M697.616,212L694.158,220.333C690.7,228.667,683.783,245.333,649.376,264.499C614.969,283.664,553.07,305.329,522.121,316.161L491.172,326.993" class="er relationshipLine"/><path style="stroke: gray; fill: none;" marker-start="url(#ONLY_ONE_START)" marker-end="url(#ZERO_OR_MORE_END)" d="M763.369,212L765.619,220.333C767.869,228.667,772.368,245.333,791.284,263.389C810.201,281.444,843.534,300.889,860.201,310.611L876.867,320.333" class="er relationshipLine"/><path style="stroke: gray; fill: none;" marker-start="url(#ONLY_ONE_START)" marker-end="url(#ZERO_OR_MORE_END)" d="M817.586,199.918L827.466,210.265C837.346,220.612,857.107,241.306,871.749,259.986C886.391,278.667,895.915,295.333,900.677,303.667L905.439,312" class="er relationshipLine"/><path style="stroke: gray; fill: none;" marker-start="url(#ONLY_ONE_START)" marker-end="url(#ZERO_OR_MORE_END)" d="M817.586,164.867L844.133,181.056C870.68,197.245,923.773,229.622,945.558,254.144C967.343,278.667,957.82,295.333,953.058,303.667L948.296,312" class="er relationshipLine"/><path style="stroke: gray; fill: none;" marker-start="url(#ONLY_ONE_START)" marker-end="url(#ZERO_OR_MORE_END)" d="M817.586,150.469L860.799,169.058C904.013,187.646,990.44,224.823,1038.416,251.745C1086.391,278.667,1095.915,295.333,1100.677,303.667L1105.439,312" class="er relationshipLine"/><path style="stroke: gray; fill: none;" marker-start="url(#ONLY_ONE_START)" marker-end="url(#ZERO_OR_MORE_END)" d="M817.586,135.849L902.466,156.874C987.346,177.899,1157.107,219.95,1241.987,249.308C1326.867,278.667,1326.867,295.333,1326.867,303.667L1326.867,312" class="er relationshipLine"/><path style="stroke: gray; fill: none;" marker-start="url(#ONLY_ONE_START)" marker-end="url(#ZERO_OR_MORE_END)" d="M817.586,142.625L877.466,162.521C937.346,182.417,1057.107,222.208,1112.225,250.437C1167.343,278.667,1157.82,295.333,1153.058,303.667L1148.296,312" class="er relationshipLine"/><g transform="translate(657.3203125,20 )" id="entity-SteeringPositionValue-0e0d2caf-0fbe-5b89-8882-5750d6e91707"><rect height="192" width="160.265625" y="0" x="0" class="er entityBox"/><text style="dominant-baseline: middle; text-anchor: middle; font-size: 12px;" transform="translate(80.1328125,12)" y="0" x="0" id="text-entity-SteeringPositionValue-0e0d2caf-0fbe-5b89-8882-5750d6e91707" class="er entityLabel">SteeringPositionValue</text><rect height="21" width="57.9296875" y="24" x="0" class="er attributeBoxOdd"/><text style="dominant-baseline: middle; font-size: 10.2px;" transform="translate(5,34.5)" y="0" x="0" id="text-entity-SteeringPositionValue-0e0d2caf-0fbe-5b89-8882-5750d6e91707-attr-1-type" class="er entityLabel">stringList</text><rect height="21" width="102.3359375" y="24" x="57.9296875" class="er attributeBoxOdd"/><text style="dominant-baseline: middle; font-size: 10.2px;" transform="translate(62.9296875,34.5)" y="0" x="0" id="text-entity-SteeringPositionValue-0e0d2caf-0fbe-5b89-8882-5750d6e91707-attr-1-name" class="er entityLabel">valueReference</text><rect height="21" width="57.9296875" y="45" x="0" class="er attributeBoxEven"/><text style="dominant-baseline: middle; font-size: 10.2px;" transform="translate(5,55.5)" y="0" x="0" id="text-entity-SteeringPositionValue-0e0d2caf-0fbe-5b89-8882-5750d6e91707-attr-2-type" class="er entityLabel">stringList</text><rect height="21" width="102.3359375" y="45" x="57.9296875" class="er attributeBoxEven"/><text style="dominant-baseline: middle; font-size: 10.2px;" transform="translate(62.9296875,55.5)" y="0" x="0" id="text-entity-SteeringPositionValue-0e0d2caf-0fbe-5b89-8882-5750d6e91707-attr-2-name" class="er entityLabel">supersededBy</text><rect height="21" width="57.9296875" y="66" x="0" class="er attributeBoxOdd"/><text style="dominant-baseline: middle; font-size: 10.2px;" transform="translate(5,76.5)" y="0" x="0" id="text-entity-SteeringPositionValue-0e0d2caf-0fbe-5b89-8882-5750d6e91707-attr-3-type" class="er entityLabel">stringList</text><rect height="21" width="102.3359375" y="66" x="57.9296875" class="er attributeBoxOdd"/><text style="dominant-baseline: middle; font-size: 10.2px;" transform="translate(62.9296875,76.5)" y="0" x="0" id="text-entity-SteeringPositionValue-0e0d2caf-0fbe-5b89-8882-5750d6e91707-attr-3-name" class="er entityLabel">additionalType</text><rect height="21" width="57.9296875" y="87" x="0" class="er attributeBoxEven"/><text style="dominant-baseline: middle; font-size: 10.2px;" transform="translate(5,97.5)" y="0" x="0" id="text-entity-SteeringPositionValue-0e0d2caf-0fbe-5b89-8882-5750d6e91707-attr-4-type" class="er entityLabel">stringList</text><rect height="21" width="102.3359375" y="87" x="57.9296875" class="er attributeBoxEven"/><text style="dominant-baseline: middle; font-size: 10.2px;" transform="translate(62.9296875,97.5)" y="0" x="0" id="text-entity-SteeringPositionValue-0e0d2caf-0fbe-5b89-8882-5750d6e91707-attr-4-name" class="er entityLabel">description</text><rect height="21" width="57.9296875" y="108" x="0" class="er attributeBoxOdd"/><text style="dominant-baseline: middle; font-size: 10.2px;" transform="translate(5,118.5)" y="0" x="0" id="text-entity-SteeringPositionValue-0e0d2caf-0fbe-5b89-8882-5750d6e91707-attr-5-type" class="er entityLabel">stringList</text><rect height="21" width="102.3359375" y="108" x="57.9296875" class="er attributeBoxOdd"/><text style="dominant-baseline: middle; font-size: 10.2px;" transform="translate(62.9296875,118.5)" y="0" x="0" id="text-entity-SteeringPositionValue-0e0d2caf-0fbe-5b89-8882-5750d6e91707-attr-5-name" class="er entityLabel">identifier</text><rect height="21" width="57.9296875" y="129" x="0" class="er attributeBoxEven"/><text style="dominant-baseline: middle; font-size: 10.2px;" transform="translate(5,139.5)" y="0" x="0" id="text-entity-SteeringPositionValue-0e0d2caf-0fbe-5b89-8882-5750d6e91707-attr-6-type" class="er entityLabel">stringList</text><rect height="21" width="102.3359375" y="129" x="57.9296875" class="er attributeBoxEven"/><text style="dominant-baseline: middle; font-size: 10.2px;" transform="translate(62.9296875,139.5)" y="0" x="0" id="text-entity-SteeringPositionValue-0e0d2caf-0fbe-5b89-8882-5750d6e91707-attr-6-name" class="er entityLabel">image</text><rect height="21" width="57.9296875" y="150" x="0" class="er attributeBoxOdd"/><text style="dominant-baseline: middle; font-size: 10.2px;" transform="translate(5,160.5)" y="0" x="0" id="text-entity-SteeringPositionValue-0e0d2caf-0fbe-5b89-8882-5750d6e91707-attr-7-type" class="er entityLabel">stringList</text><rect height="21" width="102.3359375" y="150" x="57.9296875" class="er attributeBoxOdd"/><text style="dominant-baseline: middle; font-size: 10.2px;" transform="translate(62.9296875,160.5)" y="0" x="0" id="text-entity-SteeringPositionValue-0e0d2caf-0fbe-5b89-8882-5750d6e91707-attr-7-name" class="er entityLabel">mainEntityOfPage</text><rect height="21" width="57.9296875" y="171" x="0" class="er attributeBoxEven"/><text style="dominant-baseline: middle; font-size: 10.2px;" transform="translate(5,181.5)" y="0" x="0" id="text-entity-SteeringPositionValue-0e0d2caf-0fbe-5b89-8882-5750d6e91707-attr-8-type" class="er entityLabel">stringList</text><rect height="21" width="102.3359375" y="171" x="57.9296875" class="er attributeBoxEven"/><text style="dominant-baseline: middle; font-size: 10.2px;" transform="translate(62.9296875,181.5)" y="0" x="0" id="text-entity-SteeringPositionValue-0e0d2caf-0fbe-5b89-8882-5750d6e91707-attr-8-name" class="er entityLabel">subjectOf</text></g><g transform="translate(20,312 )" id="entity-PropertyValue-0e208f6c-77f8-5d2e-b4a4-9a09101a021a"><rect height="75" width="113.734375" y="0" x="0" class="er entityBox"/><text style="dominant-baseline: middle; text-anchor: middle; font-size: 12px;" transform="translate(56.8671875,37.5)" y="0" x="0" id="text-entity-PropertyValue-0e208f6c-77f8-5d2e-b4a4-9a09101a021a" class="er entityLabel">PropertyValue</text></g><g transform="translate(362.5625,312 )" id="entity-QualitativeValue-33ae9988-fb34-53ed-b9e5-5b5d88f226a2"><rect height="75" width="128.609375" y="0" x="0" class="er entityBox"/><text style="dominant-baseline: middle; text-anchor: middle; font-size: 12px;" transform="translate(64.3046875,37.5)" y="0" x="0" id="text-entity-QualitativeValue-33ae9988-fb34-53ed-b9e5-5b5d88f226a2" class="er entityLabel">QualitativeValue</text></g><g transform="translate(876.8671875,312 )" id="entity-Text-426c5d39-acfc-5487-a6d9-ede67887190e"><rect height="75" width="100" y="0" x="0" class="er entityBox"/><text style="dominant-baseline: middle; text-anchor: middle; font-size: 12px;" transform="translate(50,37.5)" y="0" x="0" id="text-entity-Text-426c5d39-acfc-5487-a6d9-ede67887190e" class="er entityLabel">Text</text></g><g transform="translate(1076.8671875,312 )" id="entity-URL-07f78d3e-fd74-5925-b39b-26c1cc2d6b7c"><rect height="75" width="100" y="0" x="0" class="er entityBox"/><text style="dominant-baseline: middle; text-anchor: middle; font-size: 12px;" transform="translate(50,37.5)" y="0" x="0" id="text-entity-URL-07f78d3e-fd74-5925-b39b-26c1cc2d6b7c" class="er entityLabel">URL</text></g><g transform="translate(1276.8671875,312 )" id="entity-Action-6cd87d9a-a078-546e-a35b-bee54f477b31"><rect height="75" width="100" y="0" x="0" class="er entityBox"/><text style="dominant-baseline: middle; text-anchor: middle; font-size: 12px;" transform="translate(50,37.5)" y="0" x="0" id="text-entity-Action-6cd87d9a-a078-546e-a35b-bee54f477b31" class="er entityLabel">Action</text></g><rect height="14" width="110.375" y="194.96607971191406" x="298.9173889160156" class="er relationshipLabelBox"/><text style="text-anchor: middle; dominant-baseline: middle; font-size: 12px;" y="201.96607971191406" x="354.1048889160156" id="rel1" class="er relationshipLabel">additionalProperty</text><rect height="14" width="33.296875" y="199.57223510742188" x="385.52789306640625" class="er relationshipLabelBox"/><text style="text-anchor: middle; dominant-baseline: middle; font-size: 12px;" y="206.57223510742188" x="402.17633056640625" id="rel2" class="er relationshipLabel">equal</text><rect height="14" width="44.111328125" y="198.71604919433594" x="438.4338073730469" class="er relationshipLabelBox"/><text style="text-anchor: middle; dominant-baseline: middle; font-size: 12px;" y="205.71604919433594" x="460.4894714355469" id="rel3" class="er relationshipLabel">greater</text><rect height="14" width="91.921875" y="204.40797424316406" x="460.2124938964844" class="er relationshipLabelBox"/><text style="text-anchor: middle; dominant-baseline: middle; font-size: 12px;" y="211.40797424316406" x="506.1734313964844" id="rel4" class="er relationshipLabel">greaterOrEqual</text><rect height="14" width="35.603515625" y="218.9581756591797" x="526.3214111328125" class="er relationshipLabelBox"/><text style="text-anchor: middle; dominant-baseline: middle; font-size: 12px;" y="225.9581756591797" x="544.1231689453125" id="rel5" class="er relationshipLabel">lesser</text><rect height="14" width="83.421875" y="249.24496459960938" x="536.8218994140625" class="er relationshipLabelBox"/><text style="text-anchor: middle; dominant-baseline: middle; font-size: 12px;" y="256.2449645996094" x="578.5328369140625" id="rel6" class="er relationshipLabel">lesserOrEqual</text><rect height="14" width="56.046875" y="278.0504455566406" x="577.4297485351562" class="er relationshipLabelBox"/><text style="text-anchor: middle; dominant-baseline: middle; font-size: 12px;" y="285.0504455566406" x="605.4531860351562" id="rel7" class="er relationshipLabel">nonEqual</text><rect height="14" width="89.953125" y="270.2730712890625" x="763.0570068359375" class="er relationshipLabelBox"/><text style="text-anchor: middle; dominant-baseline: middle; font-size: 12px;" y="277.2730712890625" x="808.0335693359375" id="rel8" class="er relationshipLabel">alternateName</text><rect height="14" width="161.390625" y="245.64083862304688" x="785.1287231445312" class="er relationshipLabelBox"/><text style="text-anchor: middle; dominant-baseline: middle; font-size: 12px;" y="252.64083862304688" x="865.8240356445312" id="rel9" class="er relationshipLabel">disambiguatingDescription</text><rect height="14" width="34.03125" y="217.2154998779297" x="893.4696044921875" class="er relationshipLabelBox"/><text style="text-anchor: middle; dominant-baseline: middle; font-size: 12px;" y="224.2154998779297" x="910.4852294921875" id="rel10" class="er relationshipLabel">name</text><rect height="14" width="47.140625" y="210.83099365234375" x="947.1975708007812" class="er relationshipLabelBox"/><text style="text-anchor: middle; dominant-baseline: middle; font-size: 12px;" y="217.83099365234375" x="970.7678833007812" id="rel11" class="er relationshipLabel">sameAs</text><rect height="14" width="90.96875" y="196.55050659179688" x="1040.2523193359375" class="er relationshipLabelBox"/><text style="text-anchor: middle; dominant-baseline: middle; font-size: 12px;" y="203.55050659179688" x="1085.7366943359375" id="rel12" class="er relationshipLabel">potentialAction</text><rect height="14" width="15.875" y="199.96617126464844" x="998.6573486328125" class="er relationshipLabelBox"/><text style="text-anchor: middle; dominant-baseline: middle; font-size: 12px;" y="206.96617126464844" x="1006.5948486328125" id="rel13" class="er relationshipLabel">url</text></svg>