<svg aria-roledescription="er" role="graphics-document document" viewBox="0 0 990 491" style="max-width: 990px; background-color: white;" xmlns:xlink="http://www.w3.org/1999/xlink" xmlns="http://www.w3.org/2000/svg" width="100%" id="my-svg"><style>#my-svg{font-family:"trebuchet ms",verdana,arial,sans-serif;font-size:16px;fill:#333;}#my-svg .error-icon{fill:#552222;}#my-svg .error-text{fill:#552222;stroke:#552222;}#my-svg .edge-thickness-normal{stroke-width:1px;}#my-svg .edge-thickness-thick{stroke-width:3.5px;}#my-svg .edge-pattern-solid{stroke-dasharray:0;}#my-svg .edge-thickness-invisible{stroke-width:0;fill:none;}#my-svg .edge-pattern-dashed{stroke-dasharray:3;}#my-svg .edge-pattern-dotted{stroke-dasharray:2;}#my-svg .marker{fill:#333333;stroke:#333333;}#my-svg .marker.cross{stroke:#333333;}#my-svg svg{font-family:"trebuchet ms",verdana,arial,sans-serif;font-size:16px;}#my-svg p{margin:0;}#my-svg .entityBox{fill:#ECECFF;stroke:#9370DB;}#my-svg .attributeBoxOdd{fill:#ffffff;stroke:#9370DB;}#my-svg .attributeBoxEven{fill:#f2f2f2;stroke:#9370DB;}#my-svg .relationshipLabelBox{fill:hsl(80, 100%, 96.2745098039%);opacity:0.7;background-color:hsl(80, 100%, 96.2745098039%);}#my-svg .relationshipLabelBox rect{opacity:0.5;}#my-svg .relationshipLine{stroke:#333333;}#my-svg .entityTitleText{text-anchor:middle;font-size:18px;fill:#333;}#my-svg #MD_PARENT_START{fill:#f5f5f5!important;stroke:#333333!important;stroke-width:1;}#my-svg #MD_PARENT_END{fill:#f5f5f5!important;stroke:#333333!important;stroke-width:1;}#my-svg :root{--mermaid-font-family:"trebuchet ms",verdana,arial,sans-serif;}</style><g/><defs><marker orient="auto" markerHeight="240" markerWidth="190" refY="7" refX="0" id="MD_PARENT_START"><path d="M 18,7 L9,13 L1,7 L9,1 Z"/></marker></defs><defs><marker orient="auto" markerHeight="28" markerWidth="20" refY="7" refX="19" id="MD_PARENT_END"><path d="M 18,7 L9,13 L1,7 L9,1 Z"/></marker></defs><defs><marker orient="auto" markerHeight="18" markerWidth="18" refY="9" refX="0" id="ONLY_ONE_START"><path d="M9,0 L9,18 M15,0 L15,18" fill="none" stroke="gray"/></marker></defs><defs><marker orient="auto" markerHeight="18" markerWidth="18" refY="9" refX="18" id="ONLY_ONE_END"><path d="M3,0 L3,18 M9,0 L9,18" fill="none" stroke="gray"/></marker></defs><defs><marker orient="auto" markerHeight="18" markerWidth="30" refY="9" refX="0" id="ZERO_OR_ONE_START"><circle r="6" cy="9" cx="21" fill="white" stroke="gray"/><path d="M9,0 L9,18" fill="none" stroke="gray"/></marker></defs><defs><marker orient="auto" markerHeight="18" markerWidth="30" refY="9" refX="30" id="ZERO_OR_ONE_END"><circle r="6" cy="9" cx="9" fill="white" stroke="gray"/><path d="M21,0 L21,18" fill="none" stroke="gray"/></marker></defs><defs><marker orient="auto" markerHeight="36" markerWidth="45" refY="18" refX="18" id="ONE_OR_MORE_START"><path d="M0,18 Q 18,0 36,18 Q 18,36 0,18 M42,9 L42,27" fill="none" stroke="gray"/></marker></defs><defs><marker orient="auto" markerHeight="36" markerWidth="45" refY="18" refX="27" id="ONE_OR_MORE_END"><path d="M3,9 L3,27 M9,18 Q27,0 45,18 Q27,36 9,18" fill="none" stroke="gray"/></marker></defs><defs><marker orient="auto" markerHeight="36" markerWidth="57" refY="18" refX="18" id="ZERO_OR_MORE_START"><circle r="6" cy="18" cx="48" fill="white" stroke="gray"/><path d="M0,18 Q18,0 36,18 Q18,36 0,18" fill="none" stroke="gray"/></marker></defs><defs><marker orient="auto" markerHeight="36" markerWidth="57" refY="18" refX="39" id="ZERO_OR_MORE_END"><circle r="6" cy="18" cx="9" fill="white" stroke="gray"/><path d="M21,18 Q39,0 57,18 Q39,36 21,18" fill="none" stroke="gray"/></marker></defs><path style="stroke: gray; fill: none;" marker-start="url(#ONLY_ONE_START)" marker-end="url(#ZERO_OR_MORE_END)" d="M440.734,187.804L370.612,214.17C300.49,240.536,160.245,293.268,94.884,327.967C29.524,362.667,39.048,379.333,43.81,387.667L48.571,396" class="er relationshipLine"/><path style="stroke: gray; fill: none;" marker-start="url(#ONLY_ONE_START)" marker-end="url(#ZERO_OR_MORE_END)" d="M440.734,195.255L387.279,220.379C333.823,245.503,226.911,295.752,168.694,329.209C110.476,362.667,100.952,379.333,96.19,387.667L91.429,396" class="er relationshipLine"/><path style="stroke: gray; fill: none;" marker-start="url(#ONLY_ONE_START)" marker-end="url(#ZERO_OR_MORE_END)" d="M440.734,217.608L412.279,239.006C383.823,260.405,326.911,303.203,298.456,332.935C270,362.667,270,379.333,270,387.667L270,396" class="er relationshipLine"/><path style="stroke: gray; fill: none;" marker-start="url(#ONLY_ONE_START)" marker-end="url(#ZERO_OR_MORE_END)" d="M440.734,257.346L428.945,272.122C417.156,286.898,393.578,316.449,398.456,340.947C403.333,365.444,436.667,384.889,453.333,394.611L470,404.333" class="er relationshipLine"/><path style="stroke: gray; fill: none;" marker-start="url(#ONLY_ONE_START)" marker-end="url(#ZERO_OR_MORE_END)" d="M483.298,296L481.082,304.333C478.865,312.667,474.433,329.333,476.978,346C479.524,362.667,489.048,379.333,493.81,387.667L498.571,396" class="er relationshipLine"/><path style="stroke: gray; fill: none;" marker-start="url(#ONLY_ONE_START)" marker-end="url(#ZERO_OR_MORE_END)" d="M556.702,296L558.918,304.333C561.135,312.667,565.567,329.333,563.022,346C560.476,362.667,550.952,379.333,546.19,387.667L541.429,396" class="er relationshipLine"/><path style="stroke: gray; fill: none;" marker-start="url(#ONLY_ONE_START)" marker-end="url(#ZERO_OR_MORE_END)" d="M599.266,257.346L611.055,272.122C622.844,286.898,646.422,316.449,662.973,339.558C679.524,362.667,689.048,379.333,693.81,387.667L698.571,396" class="er relationshipLine"/><path style="stroke: gray; fill: none;" marker-start="url(#ONLY_ONE_START)" marker-end="url(#ZERO_OR_MORE_END)" d="M599.266,195.255L652.721,220.379C706.177,245.503,813.089,295.752,866.544,329.209C920,362.667,920,379.333,920,387.667L920,396" class="er relationshipLine"/><path style="stroke: gray; fill: none;" marker-start="url(#ONLY_ONE_START)" marker-end="url(#ZERO_OR_MORE_END)" d="M599.266,217.608L627.721,239.006C656.177,260.405,713.089,303.203,736.782,332.935C760.476,362.667,750.952,379.333,746.19,387.667L741.429,396" class="er relationshipLine"/><g transform="translate(440.734375,20 )" id="entity-TouristTrip-bf30c285-75dc-50b3-a778-243361572a3b"><rect height="276" width="158.53125" y="0" x="0" class="er entityBox"/><text style="dominant-baseline: middle; text-anchor: middle; font-size: 12px;" transform="translate(79.265625,12)" y="0" x="0" id="text-entity-TouristTrip-bf30c285-75dc-50b3-a778-243361572a3b" class="er entityLabel">TouristTrip</text><rect height="21" width="57.0625" y="24" x="0" class="er attributeBoxOdd"/><text style="dominant-baseline: middle; font-size: 10.2px;" transform="translate(5,34.5)" y="0" x="0" id="text-entity-TouristTrip-bf30c285-75dc-50b3-a778-243361572a3b-attr-1-type" class="er entityLabel">stringList</text><rect height="21" width="101.46875" y="24" x="57.0625" class="er attributeBoxOdd"/><text style="dominant-baseline: middle; font-size: 10.2px;" transform="translate(62.0625,34.5)" y="0" x="0" id="text-entity-TouristTrip-bf30c285-75dc-50b3-a778-243361572a3b-attr-1-name" class="er entityLabel">touristType</text><rect height="21" width="57.0625" y="45" x="0" class="er attributeBoxEven"/><text style="dominant-baseline: middle; font-size: 10.2px;" transform="translate(5,55.5)" y="0" x="0" id="text-entity-TouristTrip-bf30c285-75dc-50b3-a778-243361572a3b-attr-2-type" class="er entityLabel">stringList</text><rect height="21" width="101.46875" y="45" x="57.0625" class="er attributeBoxEven"/><text style="dominant-baseline: middle; font-size: 10.2px;" transform="translate(62.0625,55.5)" y="0" x="0" id="text-entity-TouristTrip-bf30c285-75dc-50b3-a778-243361572a3b-attr-2-name" class="er entityLabel">arrivalTime</text><rect height="21" width="57.0625" y="66" x="0" class="er attributeBoxOdd"/><text style="dominant-baseline: middle; font-size: 10.2px;" transform="translate(5,76.5)" y="0" x="0" id="text-entity-TouristTrip-bf30c285-75dc-50b3-a778-243361572a3b-attr-3-type" class="er entityLabel">stringList</text><rect height="21" width="101.46875" y="66" x="57.0625" class="er attributeBoxOdd"/><text style="dominant-baseline: middle; font-size: 10.2px;" transform="translate(62.0625,76.5)" y="0" x="0" id="text-entity-TouristTrip-bf30c285-75dc-50b3-a778-243361572a3b-attr-3-name" class="er entityLabel">departureTime</text><rect height="21" width="57.0625" y="87" x="0" class="er attributeBoxEven"/><text style="dominant-baseline: middle; font-size: 10.2px;" transform="translate(5,97.5)" y="0" x="0" id="text-entity-TouristTrip-bf30c285-75dc-50b3-a778-243361572a3b-attr-4-type" class="er entityLabel">stringList</text><rect height="21" width="101.46875" y="87" x="57.0625" class="er attributeBoxEven"/><text style="dominant-baseline: middle; font-size: 10.2px;" transform="translate(62.0625,97.5)" y="0" x="0" id="text-entity-TouristTrip-bf30c285-75dc-50b3-a778-243361572a3b-attr-4-name" class="er entityLabel">itinerary</text><rect height="21" width="57.0625" y="108" x="0" class="er attributeBoxOdd"/><text style="dominant-baseline: middle; font-size: 10.2px;" transform="translate(5,118.5)" y="0" x="0" id="text-entity-TouristTrip-bf30c285-75dc-50b3-a778-243361572a3b-attr-5-type" class="er entityLabel">stringList</text><rect height="21" width="101.46875" y="108" x="57.0625" class="er attributeBoxOdd"/><text style="dominant-baseline: middle; font-size: 10.2px;" transform="translate(62.0625,118.5)" y="0" x="0" id="text-entity-TouristTrip-bf30c285-75dc-50b3-a778-243361572a3b-attr-5-name" class="er entityLabel">offers</text><rect height="21" width="57.0625" y="129" x="0" class="er attributeBoxEven"/><text style="dominant-baseline: middle; font-size: 10.2px;" transform="translate(5,139.5)" y="0" x="0" id="text-entity-TouristTrip-bf30c285-75dc-50b3-a778-243361572a3b-attr-6-type" class="er entityLabel">stringList</text><rect height="21" width="101.46875" y="129" x="57.0625" class="er attributeBoxEven"/><text style="dominant-baseline: middle; font-size: 10.2px;" transform="translate(62.0625,139.5)" y="0" x="0" id="text-entity-TouristTrip-bf30c285-75dc-50b3-a778-243361572a3b-attr-6-name" class="er entityLabel">provider</text><rect height="21" width="57.0625" y="150" x="0" class="er attributeBoxOdd"/><text style="dominant-baseline: middle; font-size: 10.2px;" transform="translate(5,160.5)" y="0" x="0" id="text-entity-TouristTrip-bf30c285-75dc-50b3-a778-243361572a3b-attr-7-type" class="er entityLabel">stringList</text><rect height="21" width="101.46875" y="150" x="57.0625" class="er attributeBoxOdd"/><text style="dominant-baseline: middle; font-size: 10.2px;" transform="translate(62.0625,160.5)" y="0" x="0" id="text-entity-TouristTrip-bf30c285-75dc-50b3-a778-243361572a3b-attr-7-name" class="er entityLabel">additionalType</text><rect height="21" width="57.0625" y="171" x="0" class="er attributeBoxEven"/><text style="dominant-baseline: middle; font-size: 10.2px;" transform="translate(5,181.5)" y="0" x="0" id="text-entity-TouristTrip-bf30c285-75dc-50b3-a778-243361572a3b-attr-8-type" class="er entityLabel">stringList</text><rect height="21" width="101.46875" y="171" x="57.0625" class="er attributeBoxEven"/><text style="dominant-baseline: middle; font-size: 10.2px;" transform="translate(62.0625,181.5)" y="0" x="0" id="text-entity-TouristTrip-bf30c285-75dc-50b3-a778-243361572a3b-attr-8-name" class="er entityLabel">description</text><rect height="21" width="57.0625" y="192" x="0" class="er attributeBoxOdd"/><text style="dominant-baseline: middle; font-size: 10.2px;" transform="translate(5,202.5)" y="0" x="0" id="text-entity-TouristTrip-bf30c285-75dc-50b3-a778-243361572a3b-attr-9-type" class="er entityLabel">stringList</text><rect height="21" width="101.46875" y="192" x="57.0625" class="er attributeBoxOdd"/><text style="dominant-baseline: middle; font-size: 10.2px;" transform="translate(62.0625,202.5)" y="0" x="0" id="text-entity-TouristTrip-bf30c285-75dc-50b3-a778-243361572a3b-attr-9-name" class="er entityLabel">identifier</text><rect height="21" width="57.0625" y="213" x="0" class="er attributeBoxEven"/><text style="dominant-baseline: middle; font-size: 10.2px;" transform="translate(5,223.5)" y="0" x="0" id="text-entity-TouristTrip-bf30c285-75dc-50b3-a778-243361572a3b-attr-10-type" class="er entityLabel">stringList</text><rect height="21" width="101.46875" y="213" x="57.0625" class="er attributeBoxEven"/><text style="dominant-baseline: middle; font-size: 10.2px;" transform="translate(62.0625,223.5)" y="0" x="0" id="text-entity-TouristTrip-bf30c285-75dc-50b3-a778-243361572a3b-attr-10-name" class="er entityLabel">image</text><rect height="21" width="57.0625" y="234" x="0" class="er attributeBoxOdd"/><text style="dominant-baseline: middle; font-size: 10.2px;" transform="translate(5,244.5)" y="0" x="0" id="text-entity-TouristTrip-bf30c285-75dc-50b3-a778-243361572a3b-attr-11-type" class="er entityLabel">stringList</text><rect height="21" width="101.46875" y="234" x="57.0625" class="er attributeBoxOdd"/><text style="dominant-baseline: middle; font-size: 10.2px;" transform="translate(62.0625,244.5)" y="0" x="0" id="text-entity-TouristTrip-bf30c285-75dc-50b3-a778-243361572a3b-attr-11-name" class="er entityLabel">mainEntityOfPage</text><rect height="21" width="57.0625" y="255" x="0" class="er attributeBoxEven"/><text style="dominant-baseline: middle; font-size: 10.2px;" transform="translate(5,265.5)" y="0" x="0" id="text-entity-TouristTrip-bf30c285-75dc-50b3-a778-243361572a3b-attr-12-type" class="er entityLabel">stringList</text><rect height="21" width="101.46875" y="255" x="57.0625" class="er attributeBoxEven"/><text style="dominant-baseline: middle; font-size: 10.2px;" transform="translate(62.0625,265.5)" y="0" x="0" id="text-entity-TouristTrip-bf30c285-75dc-50b3-a778-243361572a3b-attr-12-name" class="er entityLabel">subjectOf</text></g><g transform="translate(20,396 )" id="entity-Trip-15bfdc92-c22b-56f9-8fb0-ea400e825ad0"><rect height="75" width="100" y="0" x="0" class="er entityBox"/><text style="dominant-baseline: middle; text-anchor: middle; font-size: 12px;" transform="translate(50,37.5)" y="0" x="0" id="text-entity-Trip-15bfdc92-c22b-56f9-8fb0-ea400e825ad0" class="er entityLabel">Trip</text></g><g transform="translate(220,396 )" id="entity-Place-18cedc50-4c85-52d4-b2dd-111465382dcf"><rect height="75" width="100" y="0" x="0" class="er entityBox"/><text style="dominant-baseline: middle; text-anchor: middle; font-size: 12px;" transform="translate(50,37.5)" y="0" x="0" id="text-entity-Place-18cedc50-4c85-52d4-b2dd-111465382dcf" class="er entityLabel">Place</text></g><g transform="translate(470,396 )" id="entity-Text-426c5d39-acfc-5487-a6d9-ede67887190e"><rect height="75" width="100" y="0" x="0" class="er entityBox"/><text style="dominant-baseline: middle; text-anchor: middle; font-size: 12px;" transform="translate(50,37.5)" y="0" x="0" id="text-entity-Text-426c5d39-acfc-5487-a6d9-ede67887190e" class="er entityLabel">Text</text></g><g transform="translate(670,396 )" id="entity-URL-07f78d3e-fd74-5925-b39b-26c1cc2d6b7c"><rect height="75" width="100" y="0" x="0" class="er entityBox"/><text style="dominant-baseline: middle; text-anchor: middle; font-size: 12px;" transform="translate(50,37.5)" y="0" x="0" id="text-entity-URL-07f78d3e-fd74-5925-b39b-26c1cc2d6b7c" class="er entityLabel">URL</text></g><g transform="translate(870,396 )" id="entity-Action-6cd87d9a-a078-546e-a35b-bee54f477b31"><rect height="75" width="100" y="0" x="0" class="er entityBox"/><text style="dominant-baseline: middle; text-anchor: middle; font-size: 12px;" transform="translate(50,37.5)" y="0" x="0" id="text-entity-Action-6cd87d9a-a078-546e-a35b-bee54f477b31" class="er entityLabel">Action</text></g><rect height="14" width="59.734375" y="264.8564453125" x="191.3600616455078" class="er relationshipLabelBox"/><text style="text-anchor: middle; dominant-baseline: middle; font-size: 12px;" y="271.8564453125" x="221.2272491455078" id="rel1" class="er relationshipLabel">partOfTrip</text><rect height="14" width="42.9375" y="275.8594970703125" x="235.57958984375" class="er relationshipLabelBox"/><text style="text-anchor: middle; dominant-baseline: middle; font-size: 12px;" y="282.8594970703125" x="257.04833984375" id="rel2" class="er relationshipLabel">subTrip</text><rect height="14" width="56.859375" y="288.498779296875" x="311.39617919921875" class="er relationshipLabelBox"/><text style="text-anchor: middle; dominant-baseline: middle; font-size: 12px;" y="295.498779296875" x="339.82586669921875" id="rel3" class="er relationshipLabel">tripOrigin</text><rect height="14" width="89.953125" y="334.8070373535156" x="353.6627502441406" class="er relationshipLabelBox"/><text style="text-anchor: middle; dominant-baseline: middle; font-size: 12px;" y="341.8070373535156" x="398.6393127441406" id="rel4" class="er relationshipLabel">alternateName</text><rect height="14" width="161.390625" y="340.9665222167969" x="396.6148986816406" class="er relationshipLabelBox"/><text style="text-anchor: middle; dominant-baseline: middle; font-size: 12px;" y="347.9665222167969" x="477.3102111816406" id="rel5" class="er relationshipLabel">disambiguatingDescription</text><rect height="14" width="34.03125" y="340.9665222167969" x="545.6741333007812" class="er relationshipLabelBox"/><text style="text-anchor: middle; dominant-baseline: middle; font-size: 12px;" y="347.9665222167969" x="562.6897583007812" id="rel6" class="er relationshipLabel">name</text><rect height="14" width="47.140625" y="317.5501708984375" x="628.3740234375" class="er relationshipLabelBox"/><text style="text-anchor: middle; dominant-baseline: middle; font-size: 12px;" y="324.5501708984375" x="651.9443359375" id="rel7" class="er relationshipLabel">sameAs</text><rect height="14" width="90.96875" y="272.37109375" x="729.566650390625" class="er relationshipLabelBox"/><text style="text-anchor: middle; dominant-baseline: middle; font-size: 12px;" y="279.37109375" x="775.051025390625" id="rel8" class="er relationshipLabel">potentialAction</text><rect height="14" width="15.875" y="287.2076110839844" x="689.5971069335938" class="er relationshipLabelBox"/><text style="text-anchor: middle; dominant-baseline: middle; font-size: 12px;" y="294.2076110839844" x="697.5346069335938" id="rel9" class="er relationshipLabel">url</text></svg>