<svg aria-roledescription="er" role="graphics-document document" viewBox="0 0 2032.609375 1226" style="max-width: 2032.61px; background-color: white;" xmlns:xlink="http://www.w3.org/1999/xlink" xmlns="http://www.w3.org/2000/svg" width="100%" id="my-svg"><style>#my-svg{font-family:"trebuchet ms",verdana,arial,sans-serif;font-size:16px;fill:#333;}#my-svg .error-icon{fill:#552222;}#my-svg .error-text{fill:#552222;stroke:#552222;}#my-svg .edge-thickness-normal{stroke-width:1px;}#my-svg .edge-thickness-thick{stroke-width:3.5px;}#my-svg .edge-pattern-solid{stroke-dasharray:0;}#my-svg .edge-thickness-invisible{stroke-width:0;fill:none;}#my-svg .edge-pattern-dashed{stroke-dasharray:3;}#my-svg .edge-pattern-dotted{stroke-dasharray:2;}#my-svg .marker{fill:#333333;stroke:#333333;}#my-svg .marker.cross{stroke:#333333;}#my-svg svg{font-family:"trebuchet ms",verdana,arial,sans-serif;font-size:16px;}#my-svg p{margin:0;}#my-svg .entityBox{fill:#ECECFF;stroke:#9370DB;}#my-svg .attributeBoxOdd{fill:#ffffff;stroke:#9370DB;}#my-svg .attributeBoxEven{fill:#f2f2f2;stroke:#9370DB;}#my-svg .relationshipLabelBox{fill:hsl(80, 100%, 96.2745098039%);opacity:0.7;background-color:hsl(80, 100%, 96.2745098039%);}#my-svg .relationshipLabelBox rect{opacity:0.5;}#my-svg .relationshipLine{stroke:#333333;}#my-svg .entityTitleText{text-anchor:middle;font-size:18px;fill:#333;}#my-svg #MD_PARENT_START{fill:#f5f5f5!important;stroke:#333333!important;stroke-width:1;}#my-svg #MD_PARENT_END{fill:#f5f5f5!important;stroke:#333333!important;stroke-width:1;}#my-svg :root{--mermaid-font-family:"trebuchet ms",verdana,arial,sans-serif;}</style><g/><defs><marker orient="auto" markerHeight="240" markerWidth="190" refY="7" refX="0" id="MD_PARENT_START"><path d="M 18,7 L9,13 L1,7 L9,1 Z"/></marker></defs><defs><marker orient="auto" markerHeight="28" markerWidth="20" refY="7" refX="19" id="MD_PARENT_END"><path d="M 18,7 L9,13 L1,7 L9,1 Z"/></marker></defs><defs><marker orient="auto" markerHeight="18" markerWidth="18" refY="9" refX="0" id="ONLY_ONE_START"><path d="M9,0 L9,18 M15,0 L15,18" fill="none" stroke="gray"/></marker></defs><defs><marker orient="auto" markerHeight="18" markerWidth="18" refY="9" refX="18" id="ONLY_ONE_END"><path d="M3,0 L3,18 M9,0 L9,18" fill="none" stroke="gray"/></marker></defs><defs><marker orient="auto" markerHeight="18" markerWidth="30" refY="9" refX="0" id="ZERO_OR_ONE_START"><circle r="6" cy="9" cx="21" fill="white" stroke="gray"/><path d="M9,0 L9,18" fill="none" stroke="gray"/></marker></defs><defs><marker orient="auto" markerHeight="18" markerWidth="30" refY="9" refX="30" id="ZERO_OR_ONE_END"><circle r="6" cy="9" cx="9" fill="white" stroke="gray"/><path d="M21,0 L21,18" fill="none" stroke="gray"/></marker></defs><defs><marker orient="auto" markerHeight="36" markerWidth="45" refY="18" refX="18" id="ONE_OR_MORE_START"><path d="M0,18 Q 18,0 36,18 Q 18,36 0,18 M42,9 L42,27" fill="none" stroke="gray"/></marker></defs><defs><marker orient="auto" markerHeight="36" markerWidth="45" refY="18" refX="27" id="ONE_OR_MORE_END"><path d="M3,9 L3,27 M9,18 Q27,0 45,18 Q27,36 9,18" fill="none" stroke="gray"/></marker></defs><defs><marker orient="auto" markerHeight="36" markerWidth="57" refY="18" refX="18" id="ZERO_OR_MORE_START"><circle r="6" cy="18" cx="48" fill="white" stroke="gray"/><path d="M0,18 Q18,0 36,18 Q18,36 0,18" fill="none" stroke="gray"/></marker></defs><defs><marker orient="auto" markerHeight="36" markerWidth="57" refY="18" refX="39" id="ZERO_OR_MORE_END"><circle r="6" cy="18" cx="9" fill="white" stroke="gray"/><path d="M21,18 Q39,0 57,18 Q39,36 21,18" fill="none" stroke="gray"/></marker></defs><path style="stroke: gray; fill: none;" marker-start="url(#ONLY_ONE_START)" marker-end="url(#ZERO_OR_MORE_END)" d="M981.639,586.063L830.844,668.553C680.048,751.042,378.458,916.021,227.662,1006.844C76.867,1097.667,76.867,1114.333,76.867,1122.667L76.867,1131" class="er relationshipLine"/><path style="stroke: gray; fill: none;" marker-start="url(#ONLY_ONE_START)" marker-end="url(#ZERO_OR_MORE_END)" d="M981.639,603.056L867.926,682.713C754.212,762.37,526.786,921.685,413.073,1009.676C299.359,1097.667,299.359,1114.333,299.359,1122.667L299.359,1131" class="er relationshipLine"/><path style="stroke: gray; fill: none;" marker-start="url(#ONLY_ONE_START)" marker-end="url(#ZERO_OR_MORE_END)" d="M981.639,642.469L912.459,715.557C843.28,788.646,704.921,934.823,635.742,1016.245C566.563,1097.667,566.563,1114.333,566.563,1122.667L566.563,1131" class="er relationshipLine"/><path style="stroke: gray; fill: none;" marker-start="url(#ONLY_ONE_START)" marker-end="url(#ZERO_OR_MORE_END)" d="M981.639,679.252L933.424,746.21C885.21,813.168,788.781,947.084,753.198,1022.829C717.615,1098.573,742.878,1116.146,755.509,1124.933L768.141,1133.72" class="er relationshipLine"/><path style="stroke: gray; fill: none;" marker-start="url(#ONLY_ONE_START)" marker-end="url(#ZERO_OR_MORE_END)" d="M981.639,730.503L950.091,788.919C918.543,847.335,855.447,964.168,826.356,1030.917C797.264,1097.667,802.176,1114.333,804.632,1122.667L807.088,1131" class="er relationshipLine"/><path style="stroke: gray; fill: none;" marker-start="url(#ONLY_ONE_START)" marker-end="url(#ZERO_OR_MORE_END)" d="M981.639,833.005L966.758,874.337C951.876,915.67,922.114,998.335,900.165,1048.001C878.216,1097.667,864.081,1114.333,857.013,1122.667L849.945,1131" class="er relationshipLine"/><path style="stroke: gray; fill: none;" marker-start="url(#ONLY_ONE_START)" marker-end="url(#ZERO_OR_MORE_END)" d="M1001.352,1031L999.852,1039.333C998.352,1047.667,995.352,1064.333,1000.919,1081C1006.487,1097.667,1020.622,1114.333,1027.69,1122.667L1034.758,1131" class="er relationshipLine"/><path style="stroke: gray; fill: none;" marker-start="url(#ONLY_ONE_START)" marker-end="url(#ZERO_OR_MORE_END)" d="M1093.087,1031L1093.1,1039.333C1093.112,1047.667,1093.136,1064.333,1090.615,1081C1088.094,1097.667,1083.028,1114.333,1080.495,1122.667L1077.961,1131" class="er relationshipLine"/><path style="stroke: gray; fill: none;" marker-start="url(#ONLY_ONE_START)" marker-end="url(#ZERO_OR_MORE_END)" d="M1203.064,875.279L1213.917,909.566C1224.769,943.853,1246.475,1012.426,1257.327,1055.046C1268.18,1097.667,1268.18,1114.333,1268.18,1122.667L1268.18,1131" class="er relationshipLine"/><path style="stroke: gray; fill: none;" marker-start="url(#ONLY_ONE_START)" marker-end="url(#ZERO_OR_MORE_END)" d="M1203.064,714.368L1238.884,775.474C1274.703,836.579,1346.342,958.789,1391.516,1028.228C1436.69,1097.667,1455.399,1114.333,1464.753,1122.667L1474.108,1131" class="er relationshipLine"/><path style="stroke: gray; fill: none;" marker-start="url(#ONLY_ONE_START)" marker-end="url(#ZERO_OR_MORE_END)" d="M1203.064,632.861L1280.086,707.551C1357.108,782.241,1511.152,931.62,1597.451,1014.643C1683.75,1097.667,1702.305,1114.333,1711.583,1122.667L1720.86,1131" class="er relationshipLine"/><path style="stroke: gray; fill: none;" marker-start="url(#ONLY_ONE_START)" marker-end="url(#ZERO_OR_MORE_END)" d="M1203.064,613.857L1300.62,691.715C1398.176,769.572,1593.287,925.286,1688.387,1011.476C1783.486,1097.667,1778.574,1114.333,1776.118,1122.667L1773.662,1131" class="er relationshipLine"/><path style="stroke: gray; fill: none;" marker-start="url(#ONLY_ONE_START)" marker-end="url(#ZERO_OR_MORE_END)" d="M1203.064,655.566L1263.42,726.472C1323.775,797.377,1444.485,939.189,1500.174,1018.428C1555.863,1097.667,1546.532,1114.333,1541.866,1122.667L1537.2,1131" class="er relationshipLine"/><path style="stroke: gray; fill: none;" marker-start="url(#ONLY_ONE_START)" marker-end="url(#ZERO_OR_MORE_END)" d="M1203.064,596.17L1329.655,676.975C1456.246,757.78,1709.428,919.39,1836.019,1008.528C1962.609,1097.667,1962.609,1114.333,1962.609,1122.667L1962.609,1131" class="er relationshipLine"/><g transform="translate(981.6387634277344,20 )" id="entity-TouristAttraction-12496618-199e-5f4f-bb10-424ee209e3a1"><rect height="1011" width="221.42559814453125" y="0" x="0" class="er entityBox"/><text style="dominant-baseline: middle; text-anchor: middle; font-size: 12px;" transform="translate(110.71279907226562,12)" y="0" x="0" id="text-entity-TouristAttraction-12496618-199e-5f4f-bb10-424ee209e3a1" class="er entityLabel">TouristAttraction</text><rect height="21" width="69.06622314453125" y="24" x="0" class="er attributeBoxOdd"/><text style="dominant-baseline: middle; font-size: 10.2px;" transform="translate(5,34.5)" y="0" x="0" id="text-entity-TouristAttraction-12496618-199e-5f4f-bb10-424ee209e3a1-attr-1-type" class="er entityLabel">stringList</text><rect height="21" width="152.359375" y="24" x="69.06622314453125" class="er attributeBoxOdd"/><text style="dominant-baseline: middle; font-size: 10.2px;" transform="translate(74.06622314453125,34.5)" y="0" x="0" id="text-entity-TouristAttraction-12496618-199e-5f4f-bb10-424ee209e3a1-attr-1-name" class="er entityLabel">availableLanguage</text><rect height="21" width="69.06622314453125" y="45" x="0" class="er attributeBoxEven"/><text style="dominant-baseline: middle; font-size: 10.2px;" transform="translate(5,55.5)" y="0" x="0" id="text-entity-TouristAttraction-12496618-199e-5f4f-bb10-424ee209e3a1-attr-2-type" class="er entityLabel">stringList</text><rect height="21" width="152.359375" y="45" x="69.06622314453125" class="er attributeBoxEven"/><text style="dominant-baseline: middle; font-size: 10.2px;" transform="translate(74.06622314453125,55.5)" y="0" x="0" id="text-entity-TouristAttraction-12496618-199e-5f4f-bb10-424ee209e3a1-attr-2-name" class="er entityLabel">touristType</text><rect height="21" width="69.06622314453125" y="66" x="0" class="er attributeBoxOdd"/><text style="dominant-baseline: middle; font-size: 10.2px;" transform="translate(5,76.5)" y="0" x="0" id="text-entity-TouristAttraction-12496618-199e-5f4f-bb10-424ee209e3a1-attr-3-type" class="er entityLabel">TextList</text><rect height="21" width="152.359375" y="66" x="69.06622314453125" class="er attributeBoxOdd"/><text style="dominant-baseline: middle; font-size: 10.2px;" transform="translate(74.06622314453125,76.5)" y="0" x="0" id="text-entity-TouristAttraction-12496618-199e-5f4f-bb10-424ee209e3a1-attr-3-name" class="er entityLabel">globalLocationNumber</text><rect height="21" width="69.06622314453125" y="87" x="0" class="er attributeBoxEven"/><text style="dominant-baseline: middle; font-size: 10.2px;" transform="translate(5,97.5)" y="0" x="0" id="text-entity-TouristAttraction-12496618-199e-5f4f-bb10-424ee209e3a1-attr-4-type" class="er entityLabel">URLList</text><rect height="21" width="152.359375" y="87" x="69.06622314453125" class="er attributeBoxEven"/><text style="dominant-baseline: middle; font-size: 10.2px;" transform="translate(74.06622314453125,97.5)" y="0" x="0" id="text-entity-TouristAttraction-12496618-199e-5f4f-bb10-424ee209e3a1-attr-4-name" class="er entityLabel">hasGS1DigitalLink</text><rect height="21" width="69.06622314453125" y="108" x="0" class="er attributeBoxOdd"/><text style="dominant-baseline: middle; font-size: 10.2px;" transform="translate(5,118.5)" y="0" x="0" id="text-entity-TouristAttraction-12496618-199e-5f4f-bb10-424ee209e3a1-attr-5-type" class="er entityLabel">stringList</text><rect height="21" width="152.359375" y="108" x="69.06622314453125" class="er attributeBoxOdd"/><text style="dominant-baseline: middle; font-size: 10.2px;" transform="translate(74.06622314453125,118.5)" y="0" x="0" id="text-entity-TouristAttraction-12496618-199e-5f4f-bb10-424ee209e3a1-attr-5-name" class="er entityLabel">logo</text><rect height="21" width="69.06622314453125" y="129" x="0" class="er attributeBoxEven"/><text style="dominant-baseline: middle; font-size: 10.2px;" transform="translate(5,139.5)" y="0" x="0" id="text-entity-TouristAttraction-12496618-199e-5f4f-bb10-424ee209e3a1-attr-6-type" class="er entityLabel">stringList</text><rect height="21" width="152.359375" y="129" x="69.06622314453125" class="er attributeBoxEven"/><text style="dominant-baseline: middle; font-size: 10.2px;" transform="translate(74.06622314453125,139.5)" y="0" x="0" id="text-entity-TouristAttraction-12496618-199e-5f4f-bb10-424ee209e3a1-attr-6-name" class="er entityLabel">photo</text><rect height="21" width="69.06622314453125" y="150" x="0" class="er attributeBoxOdd"/><text style="dominant-baseline: middle; font-size: 10.2px;" transform="translate(5,160.5)" y="0" x="0" id="text-entity-TouristAttraction-12496618-199e-5f4f-bb10-424ee209e3a1-attr-7-type" class="er entityLabel">stringList</text><rect height="21" width="152.359375" y="150" x="69.06622314453125" class="er attributeBoxOdd"/><text style="dominant-baseline: middle; font-size: 10.2px;" transform="translate(74.06622314453125,160.5)" y="0" x="0" id="text-entity-TouristAttraction-12496618-199e-5f4f-bb10-424ee209e3a1-attr-7-name" class="er entityLabel">address</text><rect height="21" width="69.06622314453125" y="171" x="0" class="er attributeBoxEven"/><text style="dominant-baseline: middle; font-size: 10.2px;" transform="translate(5,181.5)" y="0" x="0" id="text-entity-TouristAttraction-12496618-199e-5f4f-bb10-424ee209e3a1-attr-8-type" class="er entityLabel">TextList</text><rect height="21" width="152.359375" y="171" x="69.06622314453125" class="er attributeBoxEven"/><text style="dominant-baseline: middle; font-size: 10.2px;" transform="translate(74.06622314453125,181.5)" y="0" x="0" id="text-entity-TouristAttraction-12496618-199e-5f4f-bb10-424ee209e3a1-attr-8-name" class="er entityLabel">branchCode</text><rect height="21" width="69.06622314453125" y="192" x="0" class="er attributeBoxOdd"/><text style="dominant-baseline: middle; font-size: 10.2px;" transform="translate(5,202.5)" y="0" x="0" id="text-entity-TouristAttraction-12496618-199e-5f4f-bb10-424ee209e3a1-attr-9-type" class="er entityLabel">TextList</text><rect height="21" width="152.359375" y="192" x="69.06622314453125" class="er attributeBoxOdd"/><text style="dominant-baseline: middle; font-size: 10.2px;" transform="translate(74.06622314453125,202.5)" y="0" x="0" id="text-entity-TouristAttraction-12496618-199e-5f4f-bb10-424ee209e3a1-attr-9-name" class="er entityLabel">faxNumber</text><rect height="21" width="69.06622314453125" y="213" x="0" class="er attributeBoxEven"/><text style="dominant-baseline: middle; font-size: 10.2px;" transform="translate(5,223.5)" y="0" x="0" id="text-entity-TouristAttraction-12496618-199e-5f4f-bb10-424ee209e3a1-attr-10-type" class="er entityLabel">stringList</text><rect height="21" width="152.359375" y="213" x="69.06622314453125" class="er attributeBoxEven"/><text style="dominant-baseline: middle; font-size: 10.2px;" transform="translate(74.06622314453125,223.5)" y="0" x="0" id="text-entity-TouristAttraction-12496618-199e-5f4f-bb10-424ee209e3a1-attr-10-name" class="er entityLabel">geo</text><rect height="21" width="69.06622314453125" y="234" x="0" class="er attributeBoxOdd"/><text style="dominant-baseline: middle; font-size: 10.2px;" transform="translate(5,244.5)" y="0" x="0" id="text-entity-TouristAttraction-12496618-199e-5f4f-bb10-424ee209e3a1-attr-11-type" class="er entityLabel">stringList</text><rect height="21" width="152.359375" y="234" x="69.06622314453125" class="er attributeBoxOdd"/><text style="dominant-baseline: middle; font-size: 10.2px;" transform="translate(74.06622314453125,244.5)" y="0" x="0" id="text-entity-TouristAttraction-12496618-199e-5f4f-bb10-424ee209e3a1-attr-11-name" class="er entityLabel">geoContains</text><rect height="21" width="69.06622314453125" y="255" x="0" class="er attributeBoxEven"/><text style="dominant-baseline: middle; font-size: 10.2px;" transform="translate(5,265.5)" y="0" x="0" id="text-entity-TouristAttraction-12496618-199e-5f4f-bb10-424ee209e3a1-attr-12-type" class="er entityLabel">stringList</text><rect height="21" width="152.359375" y="255" x="69.06622314453125" class="er attributeBoxEven"/><text style="dominant-baseline: middle; font-size: 10.2px;" transform="translate(74.06622314453125,265.5)" y="0" x="0" id="text-entity-TouristAttraction-12496618-199e-5f4f-bb10-424ee209e3a1-attr-12-name" class="er entityLabel">geoCoveredBy</text><rect height="21" width="69.06622314453125" y="276" x="0" class="er attributeBoxOdd"/><text style="dominant-baseline: middle; font-size: 10.2px;" transform="translate(5,286.5)" y="0" x="0" id="text-entity-TouristAttraction-12496618-199e-5f4f-bb10-424ee209e3a1-attr-13-type" class="er entityLabel">stringList</text><rect height="21" width="152.359375" y="276" x="69.06622314453125" class="er attributeBoxOdd"/><text style="dominant-baseline: middle; font-size: 10.2px;" transform="translate(74.06622314453125,286.5)" y="0" x="0" id="text-entity-TouristAttraction-12496618-199e-5f4f-bb10-424ee209e3a1-attr-13-name" class="er entityLabel">geoCovers</text><rect height="21" width="69.06622314453125" y="297" x="0" class="er attributeBoxEven"/><text style="dominant-baseline: middle; font-size: 10.2px;" transform="translate(5,307.5)" y="0" x="0" id="text-entity-TouristAttraction-12496618-199e-5f4f-bb10-424ee209e3a1-attr-14-type" class="er entityLabel">stringList</text><rect height="21" width="152.359375" y="297" x="69.06622314453125" class="er attributeBoxEven"/><text style="dominant-baseline: middle; font-size: 10.2px;" transform="translate(74.06622314453125,307.5)" y="0" x="0" id="text-entity-TouristAttraction-12496618-199e-5f4f-bb10-424ee209e3a1-attr-14-name" class="er entityLabel">geoCrosses</text><rect height="21" width="69.06622314453125" y="318" x="0" class="er attributeBoxOdd"/><text style="dominant-baseline: middle; font-size: 10.2px;" transform="translate(5,328.5)" y="0" x="0" id="text-entity-TouristAttraction-12496618-199e-5f4f-bb10-424ee209e3a1-attr-15-type" class="er entityLabel">stringList</text><rect height="21" width="152.359375" y="318" x="69.06622314453125" class="er attributeBoxOdd"/><text style="dominant-baseline: middle; font-size: 10.2px;" transform="translate(74.06622314453125,328.5)" y="0" x="0" id="text-entity-TouristAttraction-12496618-199e-5f4f-bb10-424ee209e3a1-attr-15-name" class="er entityLabel">geoDisjoint</text><rect height="21" width="69.06622314453125" y="339" x="0" class="er attributeBoxEven"/><text style="dominant-baseline: middle; font-size: 10.2px;" transform="translate(5,349.5)" y="0" x="0" id="text-entity-TouristAttraction-12496618-199e-5f4f-bb10-424ee209e3a1-attr-16-type" class="er entityLabel">stringList</text><rect height="21" width="152.359375" y="339" x="69.06622314453125" class="er attributeBoxEven"/><text style="dominant-baseline: middle; font-size: 10.2px;" transform="translate(74.06622314453125,349.5)" y="0" x="0" id="text-entity-TouristAttraction-12496618-199e-5f4f-bb10-424ee209e3a1-attr-16-name" class="er entityLabel">geoEquals</text><rect height="21" width="69.06622314453125" y="360" x="0" class="er attributeBoxOdd"/><text style="dominant-baseline: middle; font-size: 10.2px;" transform="translate(5,370.5)" y="0" x="0" id="text-entity-TouristAttraction-12496618-199e-5f4f-bb10-424ee209e3a1-attr-17-type" class="er entityLabel">stringList</text><rect height="21" width="152.359375" y="360" x="69.06622314453125" class="er attributeBoxOdd"/><text style="dominant-baseline: middle; font-size: 10.2px;" transform="translate(74.06622314453125,370.5)" y="0" x="0" id="text-entity-TouristAttraction-12496618-199e-5f4f-bb10-424ee209e3a1-attr-17-name" class="er entityLabel">geoIntersects</text><rect height="21" width="69.06622314453125" y="381" x="0" class="er attributeBoxEven"/><text style="dominant-baseline: middle; font-size: 10.2px;" transform="translate(5,391.5)" y="0" x="0" id="text-entity-TouristAttraction-12496618-199e-5f4f-bb10-424ee209e3a1-attr-18-type" class="er entityLabel">stringList</text><rect height="21" width="152.359375" y="381" x="69.06622314453125" class="er attributeBoxEven"/><text style="dominant-baseline: middle; font-size: 10.2px;" transform="translate(74.06622314453125,391.5)" y="0" x="0" id="text-entity-TouristAttraction-12496618-199e-5f4f-bb10-424ee209e3a1-attr-18-name" class="er entityLabel">geoOverlaps</text><rect height="21" width="69.06622314453125" y="402" x="0" class="er attributeBoxOdd"/><text style="dominant-baseline: middle; font-size: 10.2px;" transform="translate(5,412.5)" y="0" x="0" id="text-entity-TouristAttraction-12496618-199e-5f4f-bb10-424ee209e3a1-attr-19-type" class="er entityLabel">stringList</text><rect height="21" width="152.359375" y="402" x="69.06622314453125" class="er attributeBoxOdd"/><text style="dominant-baseline: middle; font-size: 10.2px;" transform="translate(74.06622314453125,412.5)" y="0" x="0" id="text-entity-TouristAttraction-12496618-199e-5f4f-bb10-424ee209e3a1-attr-19-name" class="er entityLabel">geoTouches</text><rect height="21" width="69.06622314453125" y="423" x="0" class="er attributeBoxEven"/><text style="dominant-baseline: middle; font-size: 10.2px;" transform="translate(5,433.5)" y="0" x="0" id="text-entity-TouristAttraction-12496618-199e-5f4f-bb10-424ee209e3a1-attr-20-type" class="er entityLabel">stringList</text><rect height="21" width="152.359375" y="423" x="69.06622314453125" class="er attributeBoxEven"/><text style="dominant-baseline: middle; font-size: 10.2px;" transform="translate(74.06622314453125,433.5)" y="0" x="0" id="text-entity-TouristAttraction-12496618-199e-5f4f-bb10-424ee209e3a1-attr-20-name" class="er entityLabel">geoWithin</text><rect height="21" width="69.06622314453125" y="444" x="0" class="er attributeBoxOdd"/><text style="dominant-baseline: middle; font-size: 10.2px;" transform="translate(5,454.5)" y="0" x="0" id="text-entity-TouristAttraction-12496618-199e-5f4f-bb10-424ee209e3a1-attr-21-type" class="er entityLabel">BooleanList</text><rect height="21" width="152.359375" y="444" x="69.06622314453125" class="er attributeBoxOdd"/><text style="dominant-baseline: middle; font-size: 10.2px;" transform="translate(74.06622314453125,454.5)" y="0" x="0" id="text-entity-TouristAttraction-12496618-199e-5f4f-bb10-424ee209e3a1-attr-21-name" class="er entityLabel">hasDriveThroughService</text><rect height="21" width="69.06622314453125" y="465" x="0" class="er attributeBoxEven"/><text style="dominant-baseline: middle; font-size: 10.2px;" transform="translate(5,475.5)" y="0" x="0" id="text-entity-TouristAttraction-12496618-199e-5f4f-bb10-424ee209e3a1-attr-22-type" class="er entityLabel">stringList</text><rect height="21" width="152.359375" y="465" x="69.06622314453125" class="er attributeBoxEven"/><text style="dominant-baseline: middle; font-size: 10.2px;" transform="translate(74.06622314453125,475.5)" y="0" x="0" id="text-entity-TouristAttraction-12496618-199e-5f4f-bb10-424ee209e3a1-attr-22-name" class="er entityLabel">hasMap</text><rect height="21" width="69.06622314453125" y="486" x="0" class="er attributeBoxOdd"/><text style="dominant-baseline: middle; font-size: 10.2px;" transform="translate(5,496.5)" y="0" x="0" id="text-entity-TouristAttraction-12496618-199e-5f4f-bb10-424ee209e3a1-attr-23-type" class="er entityLabel">BooleanList</text><rect height="21" width="152.359375" y="486" x="69.06622314453125" class="er attributeBoxOdd"/><text style="dominant-baseline: middle; font-size: 10.2px;" transform="translate(74.06622314453125,496.5)" y="0" x="0" id="text-entity-TouristAttraction-12496618-199e-5f4f-bb10-424ee209e3a1-attr-23-name" class="er entityLabel">isAccessibleForFree</text><rect height="21" width="69.06622314453125" y="507" x="0" class="er attributeBoxEven"/><text style="dominant-baseline: middle; font-size: 10.2px;" transform="translate(5,517.5)" y="0" x="0" id="text-entity-TouristAttraction-12496618-199e-5f4f-bb10-424ee209e3a1-attr-24-type" class="er entityLabel">TextList</text><rect height="21" width="152.359375" y="507" x="69.06622314453125" class="er attributeBoxEven"/><text style="dominant-baseline: middle; font-size: 10.2px;" transform="translate(74.06622314453125,517.5)" y="0" x="0" id="text-entity-TouristAttraction-12496618-199e-5f4f-bb10-424ee209e3a1-attr-24-name" class="er entityLabel">isicV4</text><rect height="21" width="69.06622314453125" y="528" x="0" class="er attributeBoxOdd"/><text style="dominant-baseline: middle; font-size: 10.2px;" transform="translate(5,538.5)" y="0" x="0" id="text-entity-TouristAttraction-12496618-199e-5f4f-bb10-424ee209e3a1-attr-25-type" class="er entityLabel">stringList</text><rect height="21" width="152.359375" y="528" x="69.06622314453125" class="er attributeBoxOdd"/><text style="dominant-baseline: middle; font-size: 10.2px;" transform="translate(74.06622314453125,538.5)" y="0" x="0" id="text-entity-TouristAttraction-12496618-199e-5f4f-bb10-424ee209e3a1-attr-25-name" class="er entityLabel">keywords</text><rect height="21" width="69.06622314453125" y="549" x="0" class="er attributeBoxEven"/><text style="dominant-baseline: middle; font-size: 10.2px;" transform="translate(5,559.5)" y="0" x="0" id="text-entity-TouristAttraction-12496618-199e-5f4f-bb10-424ee209e3a1-attr-26-type" class="er entityLabel">stringList</text><rect height="21" width="152.359375" y="549" x="69.06622314453125" class="er attributeBoxEven"/><text style="dominant-baseline: middle; font-size: 10.2px;" transform="translate(74.06622314453125,559.5)" y="0" x="0" id="text-entity-TouristAttraction-12496618-199e-5f4f-bb10-424ee209e3a1-attr-26-name" class="er entityLabel">latitude</text><rect height="21" width="69.06622314453125" y="570" x="0" class="er attributeBoxOdd"/><text style="dominant-baseline: middle; font-size: 10.2px;" transform="translate(5,580.5)" y="0" x="0" id="text-entity-TouristAttraction-12496618-199e-5f4f-bb10-424ee209e3a1-attr-27-type" class="er entityLabel">stringList</text><rect height="21" width="152.359375" y="570" x="69.06622314453125" class="er attributeBoxOdd"/><text style="dominant-baseline: middle; font-size: 10.2px;" transform="translate(74.06622314453125,580.5)" y="0" x="0" id="text-entity-TouristAttraction-12496618-199e-5f4f-bb10-424ee209e3a1-attr-27-name" class="er entityLabel">longitude</text><rect height="21" width="69.06622314453125" y="591" x="0" class="er attributeBoxEven"/><text style="dominant-baseline: middle; font-size: 10.2px;" transform="translate(5,601.5)" y="0" x="0" id="text-entity-TouristAttraction-12496618-199e-5f4f-bb10-424ee209e3a1-attr-28-type" class="er entityLabel">URLList</text><rect height="21" width="152.359375" y="591" x="69.06622314453125" class="er attributeBoxEven"/><text style="dominant-baseline: middle; font-size: 10.2px;" transform="translate(74.06622314453125,601.5)" y="0" x="0" id="text-entity-TouristAttraction-12496618-199e-5f4f-bb10-424ee209e3a1-attr-28-name" class="er entityLabel">map</text><rect height="21" width="69.06622314453125" y="612" x="0" class="er attributeBoxOdd"/><text style="dominant-baseline: middle; font-size: 10.2px;" transform="translate(5,622.5)" y="0" x="0" id="text-entity-TouristAttraction-12496618-199e-5f4f-bb10-424ee209e3a1-attr-29-type" class="er entityLabel">URLList</text><rect height="21" width="152.359375" y="612" x="69.06622314453125" class="er attributeBoxOdd"/><text style="dominant-baseline: middle; font-size: 10.2px;" transform="translate(74.06622314453125,622.5)" y="0" x="0" id="text-entity-TouristAttraction-12496618-199e-5f4f-bb10-424ee209e3a1-attr-29-name" class="er entityLabel">maps</text><rect height="21" width="69.06622314453125" y="633" x="0" class="er attributeBoxEven"/><text style="dominant-baseline: middle; font-size: 10.2px;" transform="translate(5,643.5)" y="0" x="0" id="text-entity-TouristAttraction-12496618-199e-5f4f-bb10-424ee209e3a1-attr-30-type" class="er entityLabel">IntegerList</text><rect height="21" width="152.359375" y="633" x="69.06622314453125" class="er attributeBoxEven"/><text style="dominant-baseline: middle; font-size: 10.2px;" transform="translate(74.06622314453125,643.5)" y="0" x="0" id="text-entity-TouristAttraction-12496618-199e-5f4f-bb10-424ee209e3a1-attr-30-name" class="er entityLabel">maximumAttendeeCapacity</text><rect height="21" width="69.06622314453125" y="654" x="0" class="er attributeBoxOdd"/><text style="dominant-baseline: middle; font-size: 10.2px;" transform="translate(5,664.5)" y="0" x="0" id="text-entity-TouristAttraction-12496618-199e-5f4f-bb10-424ee209e3a1-attr-31-type" class="er entityLabel">stringList</text><rect height="21" width="152.359375" y="654" x="69.06622314453125" class="er attributeBoxOdd"/><text style="dominant-baseline: middle; font-size: 10.2px;" transform="translate(74.06622314453125,664.5)" y="0" x="0" id="text-entity-TouristAttraction-12496618-199e-5f4f-bb10-424ee209e3a1-attr-31-name" class="er entityLabel">photos</text><rect height="21" width="69.06622314453125" y="675" x="0" class="er attributeBoxEven"/><text style="dominant-baseline: middle; font-size: 10.2px;" transform="translate(5,685.5)" y="0" x="0" id="text-entity-TouristAttraction-12496618-199e-5f4f-bb10-424ee209e3a1-attr-32-type" class="er entityLabel">BooleanList</text><rect height="21" width="152.359375" y="675" x="69.06622314453125" class="er attributeBoxEven"/><text style="dominant-baseline: middle; font-size: 10.2px;" transform="translate(74.06622314453125,685.5)" y="0" x="0" id="text-entity-TouristAttraction-12496618-199e-5f4f-bb10-424ee209e3a1-attr-32-name" class="er entityLabel">publicAccess</text><rect height="21" width="69.06622314453125" y="696" x="0" class="er attributeBoxOdd"/><text style="dominant-baseline: middle; font-size: 10.2px;" transform="translate(5,706.5)" y="0" x="0" id="text-entity-TouristAttraction-12496618-199e-5f4f-bb10-424ee209e3a1-attr-33-type" class="er entityLabel">TextList</text><rect height="21" width="152.359375" y="696" x="69.06622314453125" class="er attributeBoxOdd"/><text style="dominant-baseline: middle; font-size: 10.2px;" transform="translate(74.06622314453125,706.5)" y="0" x="0" id="text-entity-TouristAttraction-12496618-199e-5f4f-bb10-424ee209e3a1-attr-33-name" class="er entityLabel">slogan</text><rect height="21" width="69.06622314453125" y="717" x="0" class="er attributeBoxEven"/><text style="dominant-baseline: middle; font-size: 10.2px;" transform="translate(5,727.5)" y="0" x="0" id="text-entity-TouristAttraction-12496618-199e-5f4f-bb10-424ee209e3a1-attr-34-type" class="er entityLabel">BooleanList</text><rect height="21" width="152.359375" y="717" x="69.06622314453125" class="er attributeBoxEven"/><text style="dominant-baseline: middle; font-size: 10.2px;" transform="translate(74.06622314453125,727.5)" y="0" x="0" id="text-entity-TouristAttraction-12496618-199e-5f4f-bb10-424ee209e3a1-attr-34-name" class="er entityLabel">smokingAllowed</text><rect height="21" width="69.06622314453125" y="738" x="0" class="er attributeBoxOdd"/><text style="dominant-baseline: middle; font-size: 10.2px;" transform="translate(5,748.5)" y="0" x="0" id="text-entity-TouristAttraction-12496618-199e-5f4f-bb10-424ee209e3a1-attr-35-type" class="er entityLabel">TextList</text><rect height="21" width="152.359375" y="738" x="69.06622314453125" class="er attributeBoxOdd"/><text style="dominant-baseline: middle; font-size: 10.2px;" transform="translate(74.06622314453125,748.5)" y="0" x="0" id="text-entity-TouristAttraction-12496618-199e-5f4f-bb10-424ee209e3a1-attr-35-name" class="er entityLabel">telephone</text><rect height="21" width="69.06622314453125" y="759" x="0" class="er attributeBoxEven"/><text style="dominant-baseline: middle; font-size: 10.2px;" transform="translate(5,769.5)" y="0" x="0" id="text-entity-TouristAttraction-12496618-199e-5f4f-bb10-424ee209e3a1-attr-36-type" class="er entityLabel">URLList</text><rect height="21" width="152.359375" y="759" x="69.06622314453125" class="er attributeBoxEven"/><text style="dominant-baseline: middle; font-size: 10.2px;" transform="translate(74.06622314453125,769.5)" y="0" x="0" id="text-entity-TouristAttraction-12496618-199e-5f4f-bb10-424ee209e3a1-attr-36-name" class="er entityLabel">tourBookingPage</text><rect height="21" width="69.06622314453125" y="780" x="0" class="er attributeBoxOdd"/><text style="dominant-baseline: middle; font-size: 10.2px;" transform="translate(5,790.5)" y="0" x="0" id="text-entity-TouristAttraction-12496618-199e-5f4f-bb10-424ee209e3a1-attr-37-type" class="er entityLabel">stringList</text><rect height="21" width="152.359375" y="780" x="69.06622314453125" class="er attributeBoxOdd"/><text style="dominant-baseline: middle; font-size: 10.2px;" transform="translate(74.06622314453125,790.5)" y="0" x="0" id="text-entity-TouristAttraction-12496618-199e-5f4f-bb10-424ee209e3a1-attr-37-name" class="er entityLabel">additionalType</text><rect height="21" width="69.06622314453125" y="801" x="0" class="er attributeBoxEven"/><text style="dominant-baseline: middle; font-size: 10.2px;" transform="translate(5,811.5)" y="0" x="0" id="text-entity-TouristAttraction-12496618-199e-5f4f-bb10-424ee209e3a1-attr-38-type" class="er entityLabel">TextList</text><rect height="21" width="152.359375" y="801" x="69.06622314453125" class="er attributeBoxEven"/><text style="dominant-baseline: middle; font-size: 10.2px;" transform="translate(74.06622314453125,811.5)" y="0" x="0" id="text-entity-TouristAttraction-12496618-199e-5f4f-bb10-424ee209e3a1-attr-38-name" class="er entityLabel">alternateName</text><rect height="21" width="69.06622314453125" y="822" x="0" class="er attributeBoxOdd"/><text style="dominant-baseline: middle; font-size: 10.2px;" transform="translate(5,832.5)" y="0" x="0" id="text-entity-TouristAttraction-12496618-199e-5f4f-bb10-424ee209e3a1-attr-39-type" class="er entityLabel">stringList</text><rect height="21" width="152.359375" y="822" x="69.06622314453125" class="er attributeBoxOdd"/><text style="dominant-baseline: middle; font-size: 10.2px;" transform="translate(74.06622314453125,832.5)" y="0" x="0" id="text-entity-TouristAttraction-12496618-199e-5f4f-bb10-424ee209e3a1-attr-39-name" class="er entityLabel">description</text><rect height="21" width="69.06622314453125" y="843" x="0" class="er attributeBoxEven"/><text style="dominant-baseline: middle; font-size: 10.2px;" transform="translate(5,853.5)" y="0" x="0" id="text-entity-TouristAttraction-12496618-199e-5f4f-bb10-424ee209e3a1-attr-40-type" class="er entityLabel">TextList</text><rect height="21" width="152.359375" y="843" x="69.06622314453125" class="er attributeBoxEven"/><text style="dominant-baseline: middle; font-size: 10.2px;" transform="translate(74.06622314453125,853.5)" y="0" x="0" id="text-entity-TouristAttraction-12496618-199e-5f4f-bb10-424ee209e3a1-attr-40-name" class="er entityLabel">disambiguatingDescription</text><rect height="21" width="69.06622314453125" y="864" x="0" class="er attributeBoxOdd"/><text style="dominant-baseline: middle; font-size: 10.2px;" transform="translate(5,874.5)" y="0" x="0" id="text-entity-TouristAttraction-12496618-199e-5f4f-bb10-424ee209e3a1-attr-41-type" class="er entityLabel">stringList</text><rect height="21" width="152.359375" y="864" x="69.06622314453125" class="er attributeBoxOdd"/><text style="dominant-baseline: middle; font-size: 10.2px;" transform="translate(74.06622314453125,874.5)" y="0" x="0" id="text-entity-TouristAttraction-12496618-199e-5f4f-bb10-424ee209e3a1-attr-41-name" class="er entityLabel">identifier</text><rect height="21" width="69.06622314453125" y="885" x="0" class="er attributeBoxEven"/><text style="dominant-baseline: middle; font-size: 10.2px;" transform="translate(5,895.5)" y="0" x="0" id="text-entity-TouristAttraction-12496618-199e-5f4f-bb10-424ee209e3a1-attr-42-type" class="er entityLabel">stringList</text><rect height="21" width="152.359375" y="885" x="69.06622314453125" class="er attributeBoxEven"/><text style="dominant-baseline: middle; font-size: 10.2px;" transform="translate(74.06622314453125,895.5)" y="0" x="0" id="text-entity-TouristAttraction-12496618-199e-5f4f-bb10-424ee209e3a1-attr-42-name" class="er entityLabel">image</text><rect height="21" width="69.06622314453125" y="906" x="0" class="er attributeBoxOdd"/><text style="dominant-baseline: middle; font-size: 10.2px;" transform="translate(5,916.5)" y="0" x="0" id="text-entity-TouristAttraction-12496618-199e-5f4f-bb10-424ee209e3a1-attr-43-type" class="er entityLabel">TextList</text><rect height="21" width="152.359375" y="906" x="69.06622314453125" class="er attributeBoxOdd"/><text style="dominant-baseline: middle; font-size: 10.2px;" transform="translate(74.06622314453125,916.5)" y="0" x="0" id="text-entity-TouristAttraction-12496618-199e-5f4f-bb10-424ee209e3a1-attr-43-name" class="er entityLabel">name</text><rect height="21" width="69.06622314453125" y="927" x="0" class="er attributeBoxEven"/><text style="dominant-baseline: middle; font-size: 10.2px;" transform="translate(5,937.5)" y="0" x="0" id="text-entity-TouristAttraction-12496618-199e-5f4f-bb10-424ee209e3a1-attr-44-type" class="er entityLabel">URLList</text><rect height="21" width="152.359375" y="927" x="69.06622314453125" class="er attributeBoxEven"/><text style="dominant-baseline: middle; font-size: 10.2px;" transform="translate(74.06622314453125,937.5)" y="0" x="0" id="text-entity-TouristAttraction-12496618-199e-5f4f-bb10-424ee209e3a1-attr-44-name" class="er entityLabel">sameAs</text><rect height="21" width="69.06622314453125" y="948" x="0" class="er attributeBoxOdd"/><text style="dominant-baseline: middle; font-size: 10.2px;" transform="translate(5,958.5)" y="0" x="0" id="text-entity-TouristAttraction-12496618-199e-5f4f-bb10-424ee209e3a1-attr-45-type" class="er entityLabel">stringList</text><rect height="21" width="152.359375" y="948" x="69.06622314453125" class="er attributeBoxOdd"/><text style="dominant-baseline: middle; font-size: 10.2px;" transform="translate(74.06622314453125,958.5)" y="0" x="0" id="text-entity-TouristAttraction-12496618-199e-5f4f-bb10-424ee209e3a1-attr-45-name" class="er entityLabel">mainEntityOfPage</text><rect height="21" width="69.06622314453125" y="969" x="0" class="er attributeBoxEven"/><text style="dominant-baseline: middle; font-size: 10.2px;" transform="translate(5,979.5)" y="0" x="0" id="text-entity-TouristAttraction-12496618-199e-5f4f-bb10-424ee209e3a1-attr-46-type" class="er entityLabel">stringList</text><rect height="21" width="152.359375" y="969" x="69.06622314453125" class="er attributeBoxEven"/><text style="dominant-baseline: middle; font-size: 10.2px;" transform="translate(74.06622314453125,979.5)" y="0" x="0" id="text-entity-TouristAttraction-12496618-199e-5f4f-bb10-424ee209e3a1-attr-46-name" class="er entityLabel">subjectOf</text><rect height="21" width="69.06622314453125" y="990" x="0" class="er attributeBoxOdd"/><text style="dominant-baseline: middle; font-size: 10.2px;" transform="translate(5,1000.5)" y="0" x="0" id="text-entity-TouristAttraction-12496618-199e-5f4f-bb10-424ee209e3a1-attr-47-type" class="er entityLabel">URLList</text><rect height="21" width="152.359375" y="990" x="69.06622314453125" class="er attributeBoxOdd"/><text style="dominant-baseline: middle; font-size: 10.2px;" transform="translate(74.06622314453125,1000.5)" y="0" x="0" id="text-entity-TouristAttraction-12496618-199e-5f4f-bb10-424ee209e3a1-attr-47-name" class="er entityLabel">url</text></g><g transform="translate(20,1131 )" id="entity-PropertyValue-0e208f6c-77f8-5d2e-b4a4-9a09101a021a"><rect height="75" width="113.734375" y="0" x="0" class="er entityBox"/><text style="dominant-baseline: middle; text-anchor: middle; font-size: 12px;" transform="translate(56.8671875,37.5)" y="0" x="0" id="text-entity-PropertyValue-0e208f6c-77f8-5d2e-b4a4-9a09101a021a" class="er entityLabel">PropertyValue</text></g><g transform="translate(233.734375,1131 )" id="entity-AggregateRating-aa0a8837-178a-57ab-baa0-94ad30d90eb5"><rect height="75" width="131.25" y="0" x="0" class="er entityBox"/><text style="dominant-baseline: middle; text-anchor: middle; font-size: 12px;" transform="translate(65.625,37.5)" y="0" x="0" id="text-entity-AggregateRating-aa0a8837-178a-57ab-baa0-94ad30d90eb5" class="er entityLabel">AggregateRating</text></g><g transform="translate(464.984375,1131 )" id="entity-LocationFeatureSpecification-dbe29f9c-e3d0-5bc9-80cd-10146568b0ab"><rect height="75" width="203.15625" y="0" x="0" class="er entityBox"/><text style="dominant-baseline: middle; text-anchor: middle; font-size: 12px;" transform="translate(101.578125,37.5)" y="0" x="0" id="text-entity-LocationFeatureSpecification-dbe29f9c-e3d0-5bc9-80cd-10146568b0ab" class="er entityLabel">LocationFeatureSpecification</text></g><g transform="translate(768.140625,1131 )" id="entity-Place-18cedc50-4c85-52d4-b2dd-111465382dcf"><rect height="75" width="100" y="0" x="0" class="er entityBox"/><text style="dominant-baseline: middle; text-anchor: middle; font-size: 12px;" transform="translate(50,37.5)" y="0" x="0" id="text-entity-Place-18cedc50-4c85-52d4-b2dd-111465382dcf" class="er entityLabel">Place</text></g><g transform="translate(1016.5625,1131 )" id="entity-Event-5fcfcec5-0af7-59ba-bebb-bb0a822c8afa"><rect height="75" width="100" y="0" x="0" class="er entityBox"/><text style="dominant-baseline: middle; text-anchor: middle; font-size: 12px;" transform="translate(50,37.5)" y="0" x="0" id="text-entity-Event-5fcfcec5-0af7-59ba-bebb-bb0a822c8afa" class="er entityLabel">Event</text></g><g transform="translate(1216.5625,1131 )" id="entity-Certification-8b250de0-929b-5806-8c87-f8e7c928ef36"><rect height="75" width="103.234375" y="0" x="0" class="er entityBox"/><text style="dominant-baseline: middle; text-anchor: middle; font-size: 12px;" transform="translate(51.6171875,37.5)" y="0" x="0" id="text-entity-Certification-8b250de0-929b-5806-8c87-f8e7c928ef36" class="er entityLabel">Certification</text></g><g transform="translate(1419.796875,1131 )" id="entity-OpeningHoursSpecification-677aa64f-a506-5d18-b5d1-75a0f22f6986"><rect height="75" width="192.8125" y="0" x="0" class="er entityBox"/><text style="dominant-baseline: middle; text-anchor: middle; font-size: 12px;" transform="translate(96.40625,37.5)" y="0" x="0" id="text-entity-OpeningHoursSpecification-677aa64f-a506-5d18-b5d1-75a0f22f6986" class="er entityLabel">OpeningHoursSpecification</text></g><g transform="translate(1712.609375,1131 )" id="entity-Review-77c92a79-8cff-50c0-9604-f9135763cccd"><rect height="75" width="100" y="0" x="0" class="er entityBox"/><text style="dominant-baseline: middle; text-anchor: middle; font-size: 12px;" transform="translate(50,37.5)" y="0" x="0" id="text-entity-Review-77c92a79-8cff-50c0-9604-f9135763cccd" class="er entityLabel">Review</text></g><g transform="translate(1912.609375,1131 )" id="entity-Action-6cd87d9a-a078-546e-a35b-bee54f477b31"><rect height="75" width="100" y="0" x="0" class="er entityBox"/><text style="dominant-baseline: middle; text-anchor: middle; font-size: 12px;" transform="translate(50,37.5)" y="0" x="0" id="text-entity-Action-6cd87d9a-a078-546e-a35b-bee54f477b31" class="er entityLabel">Action</text></g><rect height="14" width="110.375" y="835.5128784179688" x="459.80682373046875" class="er relationshipLabelBox"/><text style="text-anchor: middle; dominant-baseline: middle; font-size: 12px;" y="842.5128784179688" x="514.9943237304688" id="rel1" class="er relationshipLabel">additionalProperty</text><rect height="14" width="100.390625" y="846.505859375" x="575.6766357421875" class="er relationshipLabelBox"/><text style="text-anchor: middle; dominant-baseline: middle; font-size: 12px;" y="853.505859375" x="625.8719482421875" id="rel2" class="er relationshipLabel">aggregateRating</text><rect height="14" width="94.53125" y="870.7341918945312" x="712.9680786132812" class="er relationshipLabelBox"/><text style="text-anchor: middle; dominant-baseline: middle; font-size: 12px;" y="877.7341918945312" x="760.2337036132812" id="rel3" class="er relationshipLabel">amenityFeature</text><rect height="14" width="70.6875" y="893.2882080078125" x="790.4962768554688" class="er relationshipLabelBox"/><text style="text-anchor: middle; dominant-baseline: middle; font-size: 12px;" y="900.2882080078125" x="825.8400268554688" id="rel4" class="er relationshipLabel">containedIn</text><rect height="14" width="102.59375" y="918.8472900390625" x="826.1408081054688" class="er relationshipLabelBox"/><text style="text-anchor: middle; dominant-baseline: middle; font-size: 12px;" y="925.8472900390625" x="877.4376831054688" id="rel5" class="er relationshipLabel">containedInPlace</text><rect height="14" width="82.703125" y="979.6779174804688" x="883.8471069335938" class="er relationshipLabelBox"/><text style="text-anchor: middle; dominant-baseline: middle; font-size: 12px;" y="986.6779174804688" x="925.1986694335938" id="rel6" class="er relationshipLabel">containsPlace</text><rect height="14" width="34.47265625" y="1078.731201171875" x="985.4833374023438" class="er relationshipLabelBox"/><text style="text-anchor: middle; dominant-baseline: middle; font-size: 12px;" y="1085.731201171875" x="1002.7196655273438" id="rel7" class="er relationshipLabel">event</text><rect height="14" width="40.4375" y="1074.7467041015625" x="1070.2813720703125" class="er relationshipLabelBox"/><text style="text-anchor: middle; dominant-baseline: middle; font-size: 12px;" y="1081.7467041015625" x="1090.5001220703125" id="rel8" class="er relationshipLabel">events</text><rect height="14" width="94.453125" y="994.7012939453125" x="1195.161376953125" class="er relationshipLabelBox"/><text style="text-anchor: middle; dominant-baseline: middle; font-size: 12px;" y="1001.7012939453125" x="1242.387939453125" id="rel9" class="er relationshipLabel">hasCertification</text><rect height="14" width="160.71875" y="921.9464721679688" x="1249.492919921875" class="er relationshipLabelBox"/><text style="text-anchor: middle; dominant-baseline: middle; font-size: 12px;" y="928.9464721679688" x="1329.852294921875" id="rel10" class="er relationshipLabel">openingHoursSpecification</text><rect height="14" width="39.87109375" y="875.8922119140625" x="1441.1124267578125" class="er relationshipLabelBox"/><text style="text-anchor: middle; dominant-baseline: middle; font-size: 12px;" y="882.8922119140625" x="1461.0479736328125" id="rel11" class="er relationshipLabel">review</text><rect height="14" width="45.9375" y="851.5776977539062" x="1484.8284912109375" class="er relationshipLabelBox"/><text style="text-anchor: middle; dominant-baseline: middle; font-size: 12px;" y="858.5776977539062" x="1507.7972412109375" id="rel12" class="er relationshipLabel">reviews</text><rect height="14" width="204.6875" y="876.1548461914062" x="1292.5633544921875" class="er relationshipLabelBox"/><text style="text-anchor: middle; dominant-baseline: middle; font-size: 12px;" y="883.1548461914062" x="1394.9071044921875" id="rel13" class="er relationshipLabel">specialOpeningHoursSpecification</text><rect height="14" width="90.96875" y="842.0853271484375" x="1551.9046630859375" class="er relationshipLabelBox"/><text style="text-anchor: middle; dominant-baseline: middle; font-size: 12px;" y="849.0853271484375" x="1597.3890380859375" id="rel14" class="er relationshipLabel">potentialAction</text></svg>