<svg aria-roledescription="er" role="graphics-document document" viewBox="0 0 2238.1484375 1205" style="max-width: 2238.15px; background-color: white;" xmlns:xlink="http://www.w3.org/1999/xlink" xmlns="http://www.w3.org/2000/svg" width="100%" id="my-svg"><style>#my-svg{font-family:"trebuchet ms",verdana,arial,sans-serif;font-size:16px;fill:#333;}#my-svg .error-icon{fill:#552222;}#my-svg .error-text{fill:#552222;stroke:#552222;}#my-svg .edge-thickness-normal{stroke-width:1px;}#my-svg .edge-thickness-thick{stroke-width:3.5px;}#my-svg .edge-pattern-solid{stroke-dasharray:0;}#my-svg .edge-thickness-invisible{stroke-width:0;fill:none;}#my-svg .edge-pattern-dashed{stroke-dasharray:3;}#my-svg .edge-pattern-dotted{stroke-dasharray:2;}#my-svg .marker{fill:#333333;stroke:#333333;}#my-svg .marker.cross{stroke:#333333;}#my-svg svg{font-family:"trebuchet ms",verdana,arial,sans-serif;font-size:16px;}#my-svg p{margin:0;}#my-svg .entityBox{fill:#ECECFF;stroke:#9370DB;}#my-svg .attributeBoxOdd{fill:#ffffff;stroke:#9370DB;}#my-svg .attributeBoxEven{fill:#f2f2f2;stroke:#9370DB;}#my-svg .relationshipLabelBox{fill:hsl(80, 100%, 96.2745098039%);opacity:0.7;background-color:hsl(80, 100%, 96.2745098039%);}#my-svg .relationshipLabelBox rect{opacity:0.5;}#my-svg .relationshipLine{stroke:#333333;}#my-svg .entityTitleText{text-anchor:middle;font-size:18px;fill:#333;}#my-svg #MD_PARENT_START{fill:#f5f5f5!important;stroke:#333333!important;stroke-width:1;}#my-svg #MD_PARENT_END{fill:#f5f5f5!important;stroke:#333333!important;stroke-width:1;}#my-svg :root{--mermaid-font-family:"trebuchet ms",verdana,arial,sans-serif;}</style><g/><defs><marker orient="auto" markerHeight="240" markerWidth="190" refY="7" refX="0" id="MD_PARENT_START"><path d="M 18,7 L9,13 L1,7 L9,1 Z"/></marker></defs><defs><marker orient="auto" markerHeight="28" markerWidth="20" refY="7" refX="19" id="MD_PARENT_END"><path d="M 18,7 L9,13 L1,7 L9,1 Z"/></marker></defs><defs><marker orient="auto" markerHeight="18" markerWidth="18" refY="9" refX="0" id="ONLY_ONE_START"><path d="M9,0 L9,18 M15,0 L15,18" fill="none" stroke="gray"/></marker></defs><defs><marker orient="auto" markerHeight="18" markerWidth="18" refY="9" refX="18" id="ONLY_ONE_END"><path d="M3,0 L3,18 M9,0 L9,18" fill="none" stroke="gray"/></marker></defs><defs><marker orient="auto" markerHeight="18" markerWidth="30" refY="9" refX="0" id="ZERO_OR_ONE_START"><circle r="6" cy="9" cx="21" fill="white" stroke="gray"/><path d="M9,0 L9,18" fill="none" stroke="gray"/></marker></defs><defs><marker orient="auto" markerHeight="18" markerWidth="30" refY="9" refX="30" id="ZERO_OR_ONE_END"><circle r="6" cy="9" cx="9" fill="white" stroke="gray"/><path d="M21,0 L21,18" fill="none" stroke="gray"/></marker></defs><defs><marker orient="auto" markerHeight="36" markerWidth="45" refY="18" refX="18" id="ONE_OR_MORE_START"><path d="M0,18 Q 18,0 36,18 Q 18,36 0,18 M42,9 L42,27" fill="none" stroke="gray"/></marker></defs><defs><marker orient="auto" markerHeight="36" markerWidth="45" refY="18" refX="27" id="ONE_OR_MORE_END"><path d="M3,9 L3,27 M9,18 Q27,0 45,18 Q27,36 9,18" fill="none" stroke="gray"/></marker></defs><defs><marker orient="auto" markerHeight="36" markerWidth="57" refY="18" refX="18" id="ZERO_OR_MORE_START"><circle r="6" cy="18" cx="48" fill="white" stroke="gray"/><path d="M0,18 Q18,0 36,18 Q18,36 0,18" fill="none" stroke="gray"/></marker></defs><defs><marker orient="auto" markerHeight="36" markerWidth="57" refY="18" refX="39" id="ZERO_OR_MORE_END"><circle r="6" cy="18" cx="9" fill="white" stroke="gray"/><path d="M21,18 Q39,0 57,18 Q39,36 21,18" fill="none" stroke="gray"/></marker></defs><path style="stroke: gray; fill: none;" marker-start="url(#ONLY_ONE_START)" marker-end="url(#ZERO_OR_MORE_END)" d="M1161.389,565.823L981.97,648.186C802.551,730.549,443.713,895.274,264.294,985.971C84.875,1076.667,84.875,1093.333,84.875,1101.667L84.875,1110" class="er relationshipLine"/><path style="stroke: gray; fill: none;" marker-start="url(#ONLY_ONE_START)" marker-end="url(#ZERO_OR_MORE_END)" d="M1161.389,577.496L1018.927,657.913C876.465,738.33,591.541,899.165,449.079,987.916C306.617,1076.667,306.617,1093.333,306.617,1101.667L306.617,1110" class="er relationshipLine"/><path style="stroke: gray; fill: none;" marker-start="url(#ONLY_ONE_START)" marker-end="url(#ZERO_OR_MORE_END)" d="M1161.389,596.21L1056.009,673.508C950.629,750.807,739.869,905.403,634.489,991.035C529.109,1076.667,529.109,1093.333,529.109,1101.667L529.109,1110" class="er relationshipLine"/><path style="stroke: gray; fill: none;" marker-start="url(#ONLY_ONE_START)" marker-end="url(#ZERO_OR_MORE_END)" d="M1161.389,641.818L1100.543,711.515C1039.697,781.212,918.005,920.606,857.159,998.636C796.313,1076.667,796.313,1093.333,796.313,1101.667L796.313,1110" class="er relationshipLine"/><path style="stroke: gray; fill: none;" marker-start="url(#ONLY_ONE_START)" marker-end="url(#ZERO_OR_MORE_END)" d="M1161.389,687.396L1121.508,749.496C1081.626,811.597,1001.864,935.799,978.649,1007.621C955.435,1079.444,988.768,1098.889,1005.435,1108.611L1022.102,1118.333" class="er relationshipLine"/><path style="stroke: gray; fill: none;" marker-start="url(#ONLY_ONE_START)" marker-end="url(#ZERO_OR_MORE_END)" d="M1161.389,756.354L1138.174,806.962C1114.96,857.569,1068.531,958.785,1050.078,1017.726C1031.625,1076.667,1041.149,1093.333,1045.911,1101.667L1050.673,1110" class="er relationshipLine"/><path style="stroke: gray; fill: none;" marker-start="url(#ONLY_ONE_START)" marker-end="url(#ZERO_OR_MORE_END)" d="M1161.389,917.257L1154.841,941.047C1148.293,964.838,1135.197,1012.419,1123.888,1044.543C1112.578,1076.667,1103.054,1093.333,1098.292,1101.667L1093.53,1110" class="er relationshipLine"/><path style="stroke: gray; fill: none;" marker-start="url(#ONLY_ONE_START)" marker-end="url(#ZERO_OR_MORE_END)" d="M1226.689,1010L1225.924,1018.333C1225.16,1026.667,1223.631,1043.333,1227.628,1060C1231.625,1076.667,1241.149,1093.333,1245.911,1101.667L1250.673,1110" class="er relationshipLine"/><path style="stroke: gray; fill: none;" marker-start="url(#ONLY_ONE_START)" marker-end="url(#ZERO_OR_MORE_END)" d="M1318.249,1010L1319.026,1018.333C1319.803,1026.667,1321.356,1043.333,1317.294,1060C1313.232,1076.667,1303.555,1093.333,1298.716,1101.667L1293.877,1110" class="er relationshipLine"/><path style="stroke: gray; fill: none;" marker-start="url(#ONLY_ONE_START)" marker-end="url(#ZERO_OR_MORE_END)" d="M1382.814,814.272L1397.965,855.227C1413.116,896.182,1443.417,978.091,1458.568,1027.379C1473.719,1076.667,1473.719,1093.333,1473.719,1101.667L1473.719,1110" class="er relationshipLine"/><path style="stroke: gray; fill: none;" marker-start="url(#ONLY_ONE_START)" marker-end="url(#ZERO_OR_MORE_END)" d="M1382.814,675.633L1426.967,739.694C1471.12,803.755,1559.425,931.878,1610.627,1004.272C1661.828,1076.667,1675.925,1093.333,1682.974,1101.667L1690.023,1110" class="er relationshipLine"/><path style="stroke: gray; fill: none;" marker-start="url(#ONLY_ONE_START)" marker-end="url(#ZERO_OR_MORE_END)" d="M1382.814,611.876L1468.17,686.563C1553.525,761.251,1724.235,910.625,1816.562,993.646C1908.889,1076.667,1922.832,1093.333,1929.804,1101.667L1936.776,1110" class="er relationshipLine"/><path style="stroke: gray; fill: none;" marker-start="url(#ONLY_ONE_START)" marker-end="url(#ZERO_OR_MORE_END)" d="M1382.814,595.878L1488.703,673.231C1594.592,750.585,1806.37,905.293,1907.498,990.98C2008.625,1076.667,1999.101,1093.333,1994.339,1101.667L1989.577,1110" class="er relationshipLine"/><path style="stroke: gray; fill: none;" marker-start="url(#ONLY_ONE_START)" marker-end="url(#ZERO_OR_MORE_END)" d="M1382.814,630.404L1451.503,702.004C1520.191,773.603,1657.568,916.801,1719.285,996.734C1781.002,1076.667,1767.058,1093.333,1760.087,1101.667L1753.115,1110" class="er relationshipLine"/><path style="stroke: gray; fill: none;" marker-start="url(#ONLY_ONE_START)" marker-end="url(#ZERO_OR_MORE_END)" d="M1382.814,582.339L1513.703,661.949C1644.592,741.559,1906.37,900.78,2037.259,988.723C2168.148,1076.667,2168.148,1093.333,2168.148,1101.667L2168.148,1110" class="er relationshipLine"/><g transform="translate(1161.3887634277344,20 )" id="entity-TouristDestination-fa555fd7-f270-5852-8664-faa8e17b3b42"><rect height="990" width="221.42559814453125" y="0" x="0" class="er entityBox"/><text style="dominant-baseline: middle; text-anchor: middle; font-size: 12px;" transform="translate(110.71279907226562,12)" y="0" x="0" id="text-entity-TouristDestination-fa555fd7-f270-5852-8664-faa8e17b3b42" class="er entityLabel">TouristDestination</text><rect height="21" width="69.06622314453125" y="24" x="0" class="er attributeBoxOdd"/><text style="dominant-baseline: middle; font-size: 10.2px;" transform="translate(5,34.5)" y="0" x="0" id="text-entity-TouristDestination-fa555fd7-f270-5852-8664-faa8e17b3b42-attr-1-type" class="er entityLabel">stringList</text><rect height="21" width="152.359375" y="24" x="69.06622314453125" class="er attributeBoxOdd"/><text style="dominant-baseline: middle; font-size: 10.2px;" transform="translate(74.06622314453125,34.5)" y="0" x="0" id="text-entity-TouristDestination-fa555fd7-f270-5852-8664-faa8e17b3b42-attr-1-name" class="er entityLabel">touristType</text><rect height="21" width="69.06622314453125" y="45" x="0" class="er attributeBoxEven"/><text style="dominant-baseline: middle; font-size: 10.2px;" transform="translate(5,55.5)" y="0" x="0" id="text-entity-TouristDestination-fa555fd7-f270-5852-8664-faa8e17b3b42-attr-2-type" class="er entityLabel">TextList</text><rect height="21" width="152.359375" y="45" x="69.06622314453125" class="er attributeBoxEven"/><text style="dominant-baseline: middle; font-size: 10.2px;" transform="translate(74.06622314453125,55.5)" y="0" x="0" id="text-entity-TouristDestination-fa555fd7-f270-5852-8664-faa8e17b3b42-attr-2-name" class="er entityLabel">globalLocationNumber</text><rect height="21" width="69.06622314453125" y="66" x="0" class="er attributeBoxOdd"/><text style="dominant-baseline: middle; font-size: 10.2px;" transform="translate(5,76.5)" y="0" x="0" id="text-entity-TouristDestination-fa555fd7-f270-5852-8664-faa8e17b3b42-attr-3-type" class="er entityLabel">URLList</text><rect height="21" width="152.359375" y="66" x="69.06622314453125" class="er attributeBoxOdd"/><text style="dominant-baseline: middle; font-size: 10.2px;" transform="translate(74.06622314453125,76.5)" y="0" x="0" id="text-entity-TouristDestination-fa555fd7-f270-5852-8664-faa8e17b3b42-attr-3-name" class="er entityLabel">hasGS1DigitalLink</text><rect height="21" width="69.06622314453125" y="87" x="0" class="er attributeBoxEven"/><text style="dominant-baseline: middle; font-size: 10.2px;" transform="translate(5,97.5)" y="0" x="0" id="text-entity-TouristDestination-fa555fd7-f270-5852-8664-faa8e17b3b42-attr-4-type" class="er entityLabel">stringList</text><rect height="21" width="152.359375" y="87" x="69.06622314453125" class="er attributeBoxEven"/><text style="dominant-baseline: middle; font-size: 10.2px;" transform="translate(74.06622314453125,97.5)" y="0" x="0" id="text-entity-TouristDestination-fa555fd7-f270-5852-8664-faa8e17b3b42-attr-4-name" class="er entityLabel">logo</text><rect height="21" width="69.06622314453125" y="108" x="0" class="er attributeBoxOdd"/><text style="dominant-baseline: middle; font-size: 10.2px;" transform="translate(5,118.5)" y="0" x="0" id="text-entity-TouristDestination-fa555fd7-f270-5852-8664-faa8e17b3b42-attr-5-type" class="er entityLabel">stringList</text><rect height="21" width="152.359375" y="108" x="69.06622314453125" class="er attributeBoxOdd"/><text style="dominant-baseline: middle; font-size: 10.2px;" transform="translate(74.06622314453125,118.5)" y="0" x="0" id="text-entity-TouristDestination-fa555fd7-f270-5852-8664-faa8e17b3b42-attr-5-name" class="er entityLabel">photo</text><rect height="21" width="69.06622314453125" y="129" x="0" class="er attributeBoxEven"/><text style="dominant-baseline: middle; font-size: 10.2px;" transform="translate(5,139.5)" y="0" x="0" id="text-entity-TouristDestination-fa555fd7-f270-5852-8664-faa8e17b3b42-attr-6-type" class="er entityLabel">stringList</text><rect height="21" width="152.359375" y="129" x="69.06622314453125" class="er attributeBoxEven"/><text style="dominant-baseline: middle; font-size: 10.2px;" transform="translate(74.06622314453125,139.5)" y="0" x="0" id="text-entity-TouristDestination-fa555fd7-f270-5852-8664-faa8e17b3b42-attr-6-name" class="er entityLabel">address</text><rect height="21" width="69.06622314453125" y="150" x="0" class="er attributeBoxOdd"/><text style="dominant-baseline: middle; font-size: 10.2px;" transform="translate(5,160.5)" y="0" x="0" id="text-entity-TouristDestination-fa555fd7-f270-5852-8664-faa8e17b3b42-attr-7-type" class="er entityLabel">TextList</text><rect height="21" width="152.359375" y="150" x="69.06622314453125" class="er attributeBoxOdd"/><text style="dominant-baseline: middle; font-size: 10.2px;" transform="translate(74.06622314453125,160.5)" y="0" x="0" id="text-entity-TouristDestination-fa555fd7-f270-5852-8664-faa8e17b3b42-attr-7-name" class="er entityLabel">branchCode</text><rect height="21" width="69.06622314453125" y="171" x="0" class="er attributeBoxEven"/><text style="dominant-baseline: middle; font-size: 10.2px;" transform="translate(5,181.5)" y="0" x="0" id="text-entity-TouristDestination-fa555fd7-f270-5852-8664-faa8e17b3b42-attr-8-type" class="er entityLabel">TextList</text><rect height="21" width="152.359375" y="171" x="69.06622314453125" class="er attributeBoxEven"/><text style="dominant-baseline: middle; font-size: 10.2px;" transform="translate(74.06622314453125,181.5)" y="0" x="0" id="text-entity-TouristDestination-fa555fd7-f270-5852-8664-faa8e17b3b42-attr-8-name" class="er entityLabel">faxNumber</text><rect height="21" width="69.06622314453125" y="192" x="0" class="er attributeBoxOdd"/><text style="dominant-baseline: middle; font-size: 10.2px;" transform="translate(5,202.5)" y="0" x="0" id="text-entity-TouristDestination-fa555fd7-f270-5852-8664-faa8e17b3b42-attr-9-type" class="er entityLabel">stringList</text><rect height="21" width="152.359375" y="192" x="69.06622314453125" class="er attributeBoxOdd"/><text style="dominant-baseline: middle; font-size: 10.2px;" transform="translate(74.06622314453125,202.5)" y="0" x="0" id="text-entity-TouristDestination-fa555fd7-f270-5852-8664-faa8e17b3b42-attr-9-name" class="er entityLabel">geo</text><rect height="21" width="69.06622314453125" y="213" x="0" class="er attributeBoxEven"/><text style="dominant-baseline: middle; font-size: 10.2px;" transform="translate(5,223.5)" y="0" x="0" id="text-entity-TouristDestination-fa555fd7-f270-5852-8664-faa8e17b3b42-attr-10-type" class="er entityLabel">stringList</text><rect height="21" width="152.359375" y="213" x="69.06622314453125" class="er attributeBoxEven"/><text style="dominant-baseline: middle; font-size: 10.2px;" transform="translate(74.06622314453125,223.5)" y="0" x="0" id="text-entity-TouristDestination-fa555fd7-f270-5852-8664-faa8e17b3b42-attr-10-name" class="er entityLabel">geoContains</text><rect height="21" width="69.06622314453125" y="234" x="0" class="er attributeBoxOdd"/><text style="dominant-baseline: middle; font-size: 10.2px;" transform="translate(5,244.5)" y="0" x="0" id="text-entity-TouristDestination-fa555fd7-f270-5852-8664-faa8e17b3b42-attr-11-type" class="er entityLabel">stringList</text><rect height="21" width="152.359375" y="234" x="69.06622314453125" class="er attributeBoxOdd"/><text style="dominant-baseline: middle; font-size: 10.2px;" transform="translate(74.06622314453125,244.5)" y="0" x="0" id="text-entity-TouristDestination-fa555fd7-f270-5852-8664-faa8e17b3b42-attr-11-name" class="er entityLabel">geoCoveredBy</text><rect height="21" width="69.06622314453125" y="255" x="0" class="er attributeBoxEven"/><text style="dominant-baseline: middle; font-size: 10.2px;" transform="translate(5,265.5)" y="0" x="0" id="text-entity-TouristDestination-fa555fd7-f270-5852-8664-faa8e17b3b42-attr-12-type" class="er entityLabel">stringList</text><rect height="21" width="152.359375" y="255" x="69.06622314453125" class="er attributeBoxEven"/><text style="dominant-baseline: middle; font-size: 10.2px;" transform="translate(74.06622314453125,265.5)" y="0" x="0" id="text-entity-TouristDestination-fa555fd7-f270-5852-8664-faa8e17b3b42-attr-12-name" class="er entityLabel">geoCovers</text><rect height="21" width="69.06622314453125" y="276" x="0" class="er attributeBoxOdd"/><text style="dominant-baseline: middle; font-size: 10.2px;" transform="translate(5,286.5)" y="0" x="0" id="text-entity-TouristDestination-fa555fd7-f270-5852-8664-faa8e17b3b42-attr-13-type" class="er entityLabel">stringList</text><rect height="21" width="152.359375" y="276" x="69.06622314453125" class="er attributeBoxOdd"/><text style="dominant-baseline: middle; font-size: 10.2px;" transform="translate(74.06622314453125,286.5)" y="0" x="0" id="text-entity-TouristDestination-fa555fd7-f270-5852-8664-faa8e17b3b42-attr-13-name" class="er entityLabel">geoCrosses</text><rect height="21" width="69.06622314453125" y="297" x="0" class="er attributeBoxEven"/><text style="dominant-baseline: middle; font-size: 10.2px;" transform="translate(5,307.5)" y="0" x="0" id="text-entity-TouristDestination-fa555fd7-f270-5852-8664-faa8e17b3b42-attr-14-type" class="er entityLabel">stringList</text><rect height="21" width="152.359375" y="297" x="69.06622314453125" class="er attributeBoxEven"/><text style="dominant-baseline: middle; font-size: 10.2px;" transform="translate(74.06622314453125,307.5)" y="0" x="0" id="text-entity-TouristDestination-fa555fd7-f270-5852-8664-faa8e17b3b42-attr-14-name" class="er entityLabel">geoDisjoint</text><rect height="21" width="69.06622314453125" y="318" x="0" class="er attributeBoxOdd"/><text style="dominant-baseline: middle; font-size: 10.2px;" transform="translate(5,328.5)" y="0" x="0" id="text-entity-TouristDestination-fa555fd7-f270-5852-8664-faa8e17b3b42-attr-15-type" class="er entityLabel">stringList</text><rect height="21" width="152.359375" y="318" x="69.06622314453125" class="er attributeBoxOdd"/><text style="dominant-baseline: middle; font-size: 10.2px;" transform="translate(74.06622314453125,328.5)" y="0" x="0" id="text-entity-TouristDestination-fa555fd7-f270-5852-8664-faa8e17b3b42-attr-15-name" class="er entityLabel">geoEquals</text><rect height="21" width="69.06622314453125" y="339" x="0" class="er attributeBoxEven"/><text style="dominant-baseline: middle; font-size: 10.2px;" transform="translate(5,349.5)" y="0" x="0" id="text-entity-TouristDestination-fa555fd7-f270-5852-8664-faa8e17b3b42-attr-16-type" class="er entityLabel">stringList</text><rect height="21" width="152.359375" y="339" x="69.06622314453125" class="er attributeBoxEven"/><text style="dominant-baseline: middle; font-size: 10.2px;" transform="translate(74.06622314453125,349.5)" y="0" x="0" id="text-entity-TouristDestination-fa555fd7-f270-5852-8664-faa8e17b3b42-attr-16-name" class="er entityLabel">geoIntersects</text><rect height="21" width="69.06622314453125" y="360" x="0" class="er attributeBoxOdd"/><text style="dominant-baseline: middle; font-size: 10.2px;" transform="translate(5,370.5)" y="0" x="0" id="text-entity-TouristDestination-fa555fd7-f270-5852-8664-faa8e17b3b42-attr-17-type" class="er entityLabel">stringList</text><rect height="21" width="152.359375" y="360" x="69.06622314453125" class="er attributeBoxOdd"/><text style="dominant-baseline: middle; font-size: 10.2px;" transform="translate(74.06622314453125,370.5)" y="0" x="0" id="text-entity-TouristDestination-fa555fd7-f270-5852-8664-faa8e17b3b42-attr-17-name" class="er entityLabel">geoOverlaps</text><rect height="21" width="69.06622314453125" y="381" x="0" class="er attributeBoxEven"/><text style="dominant-baseline: middle; font-size: 10.2px;" transform="translate(5,391.5)" y="0" x="0" id="text-entity-TouristDestination-fa555fd7-f270-5852-8664-faa8e17b3b42-attr-18-type" class="er entityLabel">stringList</text><rect height="21" width="152.359375" y="381" x="69.06622314453125" class="er attributeBoxEven"/><text style="dominant-baseline: middle; font-size: 10.2px;" transform="translate(74.06622314453125,391.5)" y="0" x="0" id="text-entity-TouristDestination-fa555fd7-f270-5852-8664-faa8e17b3b42-attr-18-name" class="er entityLabel">geoTouches</text><rect height="21" width="69.06622314453125" y="402" x="0" class="er attributeBoxOdd"/><text style="dominant-baseline: middle; font-size: 10.2px;" transform="translate(5,412.5)" y="0" x="0" id="text-entity-TouristDestination-fa555fd7-f270-5852-8664-faa8e17b3b42-attr-19-type" class="er entityLabel">stringList</text><rect height="21" width="152.359375" y="402" x="69.06622314453125" class="er attributeBoxOdd"/><text style="dominant-baseline: middle; font-size: 10.2px;" transform="translate(74.06622314453125,412.5)" y="0" x="0" id="text-entity-TouristDestination-fa555fd7-f270-5852-8664-faa8e17b3b42-attr-19-name" class="er entityLabel">geoWithin</text><rect height="21" width="69.06622314453125" y="423" x="0" class="er attributeBoxEven"/><text style="dominant-baseline: middle; font-size: 10.2px;" transform="translate(5,433.5)" y="0" x="0" id="text-entity-TouristDestination-fa555fd7-f270-5852-8664-faa8e17b3b42-attr-20-type" class="er entityLabel">BooleanList</text><rect height="21" width="152.359375" y="423" x="69.06622314453125" class="er attributeBoxEven"/><text style="dominant-baseline: middle; font-size: 10.2px;" transform="translate(74.06622314453125,433.5)" y="0" x="0" id="text-entity-TouristDestination-fa555fd7-f270-5852-8664-faa8e17b3b42-attr-20-name" class="er entityLabel">hasDriveThroughService</text><rect height="21" width="69.06622314453125" y="444" x="0" class="er attributeBoxOdd"/><text style="dominant-baseline: middle; font-size: 10.2px;" transform="translate(5,454.5)" y="0" x="0" id="text-entity-TouristDestination-fa555fd7-f270-5852-8664-faa8e17b3b42-attr-21-type" class="er entityLabel">stringList</text><rect height="21" width="152.359375" y="444" x="69.06622314453125" class="er attributeBoxOdd"/><text style="dominant-baseline: middle; font-size: 10.2px;" transform="translate(74.06622314453125,454.5)" y="0" x="0" id="text-entity-TouristDestination-fa555fd7-f270-5852-8664-faa8e17b3b42-attr-21-name" class="er entityLabel">hasMap</text><rect height="21" width="69.06622314453125" y="465" x="0" class="er attributeBoxEven"/><text style="dominant-baseline: middle; font-size: 10.2px;" transform="translate(5,475.5)" y="0" x="0" id="text-entity-TouristDestination-fa555fd7-f270-5852-8664-faa8e17b3b42-attr-22-type" class="er entityLabel">BooleanList</text><rect height="21" width="152.359375" y="465" x="69.06622314453125" class="er attributeBoxEven"/><text style="dominant-baseline: middle; font-size: 10.2px;" transform="translate(74.06622314453125,475.5)" y="0" x="0" id="text-entity-TouristDestination-fa555fd7-f270-5852-8664-faa8e17b3b42-attr-22-name" class="er entityLabel">isAccessibleForFree</text><rect height="21" width="69.06622314453125" y="486" x="0" class="er attributeBoxOdd"/><text style="dominant-baseline: middle; font-size: 10.2px;" transform="translate(5,496.5)" y="0" x="0" id="text-entity-TouristDestination-fa555fd7-f270-5852-8664-faa8e17b3b42-attr-23-type" class="er entityLabel">TextList</text><rect height="21" width="152.359375" y="486" x="69.06622314453125" class="er attributeBoxOdd"/><text style="dominant-baseline: middle; font-size: 10.2px;" transform="translate(74.06622314453125,496.5)" y="0" x="0" id="text-entity-TouristDestination-fa555fd7-f270-5852-8664-faa8e17b3b42-attr-23-name" class="er entityLabel">isicV4</text><rect height="21" width="69.06622314453125" y="507" x="0" class="er attributeBoxEven"/><text style="dominant-baseline: middle; font-size: 10.2px;" transform="translate(5,517.5)" y="0" x="0" id="text-entity-TouristDestination-fa555fd7-f270-5852-8664-faa8e17b3b42-attr-24-type" class="er entityLabel">stringList</text><rect height="21" width="152.359375" y="507" x="69.06622314453125" class="er attributeBoxEven"/><text style="dominant-baseline: middle; font-size: 10.2px;" transform="translate(74.06622314453125,517.5)" y="0" x="0" id="text-entity-TouristDestination-fa555fd7-f270-5852-8664-faa8e17b3b42-attr-24-name" class="er entityLabel">keywords</text><rect height="21" width="69.06622314453125" y="528" x="0" class="er attributeBoxOdd"/><text style="dominant-baseline: middle; font-size: 10.2px;" transform="translate(5,538.5)" y="0" x="0" id="text-entity-TouristDestination-fa555fd7-f270-5852-8664-faa8e17b3b42-attr-25-type" class="er entityLabel">stringList</text><rect height="21" width="152.359375" y="528" x="69.06622314453125" class="er attributeBoxOdd"/><text style="dominant-baseline: middle; font-size: 10.2px;" transform="translate(74.06622314453125,538.5)" y="0" x="0" id="text-entity-TouristDestination-fa555fd7-f270-5852-8664-faa8e17b3b42-attr-25-name" class="er entityLabel">latitude</text><rect height="21" width="69.06622314453125" y="549" x="0" class="er attributeBoxEven"/><text style="dominant-baseline: middle; font-size: 10.2px;" transform="translate(5,559.5)" y="0" x="0" id="text-entity-TouristDestination-fa555fd7-f270-5852-8664-faa8e17b3b42-attr-26-type" class="er entityLabel">stringList</text><rect height="21" width="152.359375" y="549" x="69.06622314453125" class="er attributeBoxEven"/><text style="dominant-baseline: middle; font-size: 10.2px;" transform="translate(74.06622314453125,559.5)" y="0" x="0" id="text-entity-TouristDestination-fa555fd7-f270-5852-8664-faa8e17b3b42-attr-26-name" class="er entityLabel">longitude</text><rect height="21" width="69.06622314453125" y="570" x="0" class="er attributeBoxOdd"/><text style="dominant-baseline: middle; font-size: 10.2px;" transform="translate(5,580.5)" y="0" x="0" id="text-entity-TouristDestination-fa555fd7-f270-5852-8664-faa8e17b3b42-attr-27-type" class="er entityLabel">URLList</text><rect height="21" width="152.359375" y="570" x="69.06622314453125" class="er attributeBoxOdd"/><text style="dominant-baseline: middle; font-size: 10.2px;" transform="translate(74.06622314453125,580.5)" y="0" x="0" id="text-entity-TouristDestination-fa555fd7-f270-5852-8664-faa8e17b3b42-attr-27-name" class="er entityLabel">map</text><rect height="21" width="69.06622314453125" y="591" x="0" class="er attributeBoxEven"/><text style="dominant-baseline: middle; font-size: 10.2px;" transform="translate(5,601.5)" y="0" x="0" id="text-entity-TouristDestination-fa555fd7-f270-5852-8664-faa8e17b3b42-attr-28-type" class="er entityLabel">URLList</text><rect height="21" width="152.359375" y="591" x="69.06622314453125" class="er attributeBoxEven"/><text style="dominant-baseline: middle; font-size: 10.2px;" transform="translate(74.06622314453125,601.5)" y="0" x="0" id="text-entity-TouristDestination-fa555fd7-f270-5852-8664-faa8e17b3b42-attr-28-name" class="er entityLabel">maps</text><rect height="21" width="69.06622314453125" y="612" x="0" class="er attributeBoxOdd"/><text style="dominant-baseline: middle; font-size: 10.2px;" transform="translate(5,622.5)" y="0" x="0" id="text-entity-TouristDestination-fa555fd7-f270-5852-8664-faa8e17b3b42-attr-29-type" class="er entityLabel">IntegerList</text><rect height="21" width="152.359375" y="612" x="69.06622314453125" class="er attributeBoxOdd"/><text style="dominant-baseline: middle; font-size: 10.2px;" transform="translate(74.06622314453125,622.5)" y="0" x="0" id="text-entity-TouristDestination-fa555fd7-f270-5852-8664-faa8e17b3b42-attr-29-name" class="er entityLabel">maximumAttendeeCapacity</text><rect height="21" width="69.06622314453125" y="633" x="0" class="er attributeBoxEven"/><text style="dominant-baseline: middle; font-size: 10.2px;" transform="translate(5,643.5)" y="0" x="0" id="text-entity-TouristDestination-fa555fd7-f270-5852-8664-faa8e17b3b42-attr-30-type" class="er entityLabel">stringList</text><rect height="21" width="152.359375" y="633" x="69.06622314453125" class="er attributeBoxEven"/><text style="dominant-baseline: middle; font-size: 10.2px;" transform="translate(74.06622314453125,643.5)" y="0" x="0" id="text-entity-TouristDestination-fa555fd7-f270-5852-8664-faa8e17b3b42-attr-30-name" class="er entityLabel">photos</text><rect height="21" width="69.06622314453125" y="654" x="0" class="er attributeBoxOdd"/><text style="dominant-baseline: middle; font-size: 10.2px;" transform="translate(5,664.5)" y="0" x="0" id="text-entity-TouristDestination-fa555fd7-f270-5852-8664-faa8e17b3b42-attr-31-type" class="er entityLabel">BooleanList</text><rect height="21" width="152.359375" y="654" x="69.06622314453125" class="er attributeBoxOdd"/><text style="dominant-baseline: middle; font-size: 10.2px;" transform="translate(74.06622314453125,664.5)" y="0" x="0" id="text-entity-TouristDestination-fa555fd7-f270-5852-8664-faa8e17b3b42-attr-31-name" class="er entityLabel">publicAccess</text><rect height="21" width="69.06622314453125" y="675" x="0" class="er attributeBoxEven"/><text style="dominant-baseline: middle; font-size: 10.2px;" transform="translate(5,685.5)" y="0" x="0" id="text-entity-TouristDestination-fa555fd7-f270-5852-8664-faa8e17b3b42-attr-32-type" class="er entityLabel">TextList</text><rect height="21" width="152.359375" y="675" x="69.06622314453125" class="er attributeBoxEven"/><text style="dominant-baseline: middle; font-size: 10.2px;" transform="translate(74.06622314453125,685.5)" y="0" x="0" id="text-entity-TouristDestination-fa555fd7-f270-5852-8664-faa8e17b3b42-attr-32-name" class="er entityLabel">slogan</text><rect height="21" width="69.06622314453125" y="696" x="0" class="er attributeBoxOdd"/><text style="dominant-baseline: middle; font-size: 10.2px;" transform="translate(5,706.5)" y="0" x="0" id="text-entity-TouristDestination-fa555fd7-f270-5852-8664-faa8e17b3b42-attr-33-type" class="er entityLabel">BooleanList</text><rect height="21" width="152.359375" y="696" x="69.06622314453125" class="er attributeBoxOdd"/><text style="dominant-baseline: middle; font-size: 10.2px;" transform="translate(74.06622314453125,706.5)" y="0" x="0" id="text-entity-TouristDestination-fa555fd7-f270-5852-8664-faa8e17b3b42-attr-33-name" class="er entityLabel">smokingAllowed</text><rect height="21" width="69.06622314453125" y="717" x="0" class="er attributeBoxEven"/><text style="dominant-baseline: middle; font-size: 10.2px;" transform="translate(5,727.5)" y="0" x="0" id="text-entity-TouristDestination-fa555fd7-f270-5852-8664-faa8e17b3b42-attr-34-type" class="er entityLabel">TextList</text><rect height="21" width="152.359375" y="717" x="69.06622314453125" class="er attributeBoxEven"/><text style="dominant-baseline: middle; font-size: 10.2px;" transform="translate(74.06622314453125,727.5)" y="0" x="0" id="text-entity-TouristDestination-fa555fd7-f270-5852-8664-faa8e17b3b42-attr-34-name" class="er entityLabel">telephone</text><rect height="21" width="69.06622314453125" y="738" x="0" class="er attributeBoxOdd"/><text style="dominant-baseline: middle; font-size: 10.2px;" transform="translate(5,748.5)" y="0" x="0" id="text-entity-TouristDestination-fa555fd7-f270-5852-8664-faa8e17b3b42-attr-35-type" class="er entityLabel">URLList</text><rect height="21" width="152.359375" y="738" x="69.06622314453125" class="er attributeBoxOdd"/><text style="dominant-baseline: middle; font-size: 10.2px;" transform="translate(74.06622314453125,748.5)" y="0" x="0" id="text-entity-TouristDestination-fa555fd7-f270-5852-8664-faa8e17b3b42-attr-35-name" class="er entityLabel">tourBookingPage</text><rect height="21" width="69.06622314453125" y="759" x="0" class="er attributeBoxEven"/><text style="dominant-baseline: middle; font-size: 10.2px;" transform="translate(5,769.5)" y="0" x="0" id="text-entity-TouristDestination-fa555fd7-f270-5852-8664-faa8e17b3b42-attr-36-type" class="er entityLabel">stringList</text><rect height="21" width="152.359375" y="759" x="69.06622314453125" class="er attributeBoxEven"/><text style="dominant-baseline: middle; font-size: 10.2px;" transform="translate(74.06622314453125,769.5)" y="0" x="0" id="text-entity-TouristDestination-fa555fd7-f270-5852-8664-faa8e17b3b42-attr-36-name" class="er entityLabel">additionalType</text><rect height="21" width="69.06622314453125" y="780" x="0" class="er attributeBoxOdd"/><text style="dominant-baseline: middle; font-size: 10.2px;" transform="translate(5,790.5)" y="0" x="0" id="text-entity-TouristDestination-fa555fd7-f270-5852-8664-faa8e17b3b42-attr-37-type" class="er entityLabel">TextList</text><rect height="21" width="152.359375" y="780" x="69.06622314453125" class="er attributeBoxOdd"/><text style="dominant-baseline: middle; font-size: 10.2px;" transform="translate(74.06622314453125,790.5)" y="0" x="0" id="text-entity-TouristDestination-fa555fd7-f270-5852-8664-faa8e17b3b42-attr-37-name" class="er entityLabel">alternateName</text><rect height="21" width="69.06622314453125" y="801" x="0" class="er attributeBoxEven"/><text style="dominant-baseline: middle; font-size: 10.2px;" transform="translate(5,811.5)" y="0" x="0" id="text-entity-TouristDestination-fa555fd7-f270-5852-8664-faa8e17b3b42-attr-38-type" class="er entityLabel">stringList</text><rect height="21" width="152.359375" y="801" x="69.06622314453125" class="er attributeBoxEven"/><text style="dominant-baseline: middle; font-size: 10.2px;" transform="translate(74.06622314453125,811.5)" y="0" x="0" id="text-entity-TouristDestination-fa555fd7-f270-5852-8664-faa8e17b3b42-attr-38-name" class="er entityLabel">description</text><rect height="21" width="69.06622314453125" y="822" x="0" class="er attributeBoxOdd"/><text style="dominant-baseline: middle; font-size: 10.2px;" transform="translate(5,832.5)" y="0" x="0" id="text-entity-TouristDestination-fa555fd7-f270-5852-8664-faa8e17b3b42-attr-39-type" class="er entityLabel">TextList</text><rect height="21" width="152.359375" y="822" x="69.06622314453125" class="er attributeBoxOdd"/><text style="dominant-baseline: middle; font-size: 10.2px;" transform="translate(74.06622314453125,832.5)" y="0" x="0" id="text-entity-TouristDestination-fa555fd7-f270-5852-8664-faa8e17b3b42-attr-39-name" class="er entityLabel">disambiguatingDescription</text><rect height="21" width="69.06622314453125" y="843" x="0" class="er attributeBoxEven"/><text style="dominant-baseline: middle; font-size: 10.2px;" transform="translate(5,853.5)" y="0" x="0" id="text-entity-TouristDestination-fa555fd7-f270-5852-8664-faa8e17b3b42-attr-40-type" class="er entityLabel">stringList</text><rect height="21" width="152.359375" y="843" x="69.06622314453125" class="er attributeBoxEven"/><text style="dominant-baseline: middle; font-size: 10.2px;" transform="translate(74.06622314453125,853.5)" y="0" x="0" id="text-entity-TouristDestination-fa555fd7-f270-5852-8664-faa8e17b3b42-attr-40-name" class="er entityLabel">identifier</text><rect height="21" width="69.06622314453125" y="864" x="0" class="er attributeBoxOdd"/><text style="dominant-baseline: middle; font-size: 10.2px;" transform="translate(5,874.5)" y="0" x="0" id="text-entity-TouristDestination-fa555fd7-f270-5852-8664-faa8e17b3b42-attr-41-type" class="er entityLabel">stringList</text><rect height="21" width="152.359375" y="864" x="69.06622314453125" class="er attributeBoxOdd"/><text style="dominant-baseline: middle; font-size: 10.2px;" transform="translate(74.06622314453125,874.5)" y="0" x="0" id="text-entity-TouristDestination-fa555fd7-f270-5852-8664-faa8e17b3b42-attr-41-name" class="er entityLabel">image</text><rect height="21" width="69.06622314453125" y="885" x="0" class="er attributeBoxEven"/><text style="dominant-baseline: middle; font-size: 10.2px;" transform="translate(5,895.5)" y="0" x="0" id="text-entity-TouristDestination-fa555fd7-f270-5852-8664-faa8e17b3b42-attr-42-type" class="er entityLabel">TextList</text><rect height="21" width="152.359375" y="885" x="69.06622314453125" class="er attributeBoxEven"/><text style="dominant-baseline: middle; font-size: 10.2px;" transform="translate(74.06622314453125,895.5)" y="0" x="0" id="text-entity-TouristDestination-fa555fd7-f270-5852-8664-faa8e17b3b42-attr-42-name" class="er entityLabel">name</text><rect height="21" width="69.06622314453125" y="906" x="0" class="er attributeBoxOdd"/><text style="dominant-baseline: middle; font-size: 10.2px;" transform="translate(5,916.5)" y="0" x="0" id="text-entity-TouristDestination-fa555fd7-f270-5852-8664-faa8e17b3b42-attr-43-type" class="er entityLabel">URLList</text><rect height="21" width="152.359375" y="906" x="69.06622314453125" class="er attributeBoxOdd"/><text style="dominant-baseline: middle; font-size: 10.2px;" transform="translate(74.06622314453125,916.5)" y="0" x="0" id="text-entity-TouristDestination-fa555fd7-f270-5852-8664-faa8e17b3b42-attr-43-name" class="er entityLabel">sameAs</text><rect height="21" width="69.06622314453125" y="927" x="0" class="er attributeBoxEven"/><text style="dominant-baseline: middle; font-size: 10.2px;" transform="translate(5,937.5)" y="0" x="0" id="text-entity-TouristDestination-fa555fd7-f270-5852-8664-faa8e17b3b42-attr-44-type" class="er entityLabel">stringList</text><rect height="21" width="152.359375" y="927" x="69.06622314453125" class="er attributeBoxEven"/><text style="dominant-baseline: middle; font-size: 10.2px;" transform="translate(74.06622314453125,937.5)" y="0" x="0" id="text-entity-TouristDestination-fa555fd7-f270-5852-8664-faa8e17b3b42-attr-44-name" class="er entityLabel">mainEntityOfPage</text><rect height="21" width="69.06622314453125" y="948" x="0" class="er attributeBoxOdd"/><text style="dominant-baseline: middle; font-size: 10.2px;" transform="translate(5,958.5)" y="0" x="0" id="text-entity-TouristDestination-fa555fd7-f270-5852-8664-faa8e17b3b42-attr-45-type" class="er entityLabel">stringList</text><rect height="21" width="152.359375" y="948" x="69.06622314453125" class="er attributeBoxOdd"/><text style="dominant-baseline: middle; font-size: 10.2px;" transform="translate(74.06622314453125,958.5)" y="0" x="0" id="text-entity-TouristDestination-fa555fd7-f270-5852-8664-faa8e17b3b42-attr-45-name" class="er entityLabel">subjectOf</text><rect height="21" width="69.06622314453125" y="969" x="0" class="er attributeBoxEven"/><text style="dominant-baseline: middle; font-size: 10.2px;" transform="translate(5,979.5)" y="0" x="0" id="text-entity-TouristDestination-fa555fd7-f270-5852-8664-faa8e17b3b42-attr-46-type" class="er entityLabel">URLList</text><rect height="21" width="152.359375" y="969" x="69.06622314453125" class="er attributeBoxEven"/><text style="dominant-baseline: middle; font-size: 10.2px;" transform="translate(74.06622314453125,979.5)" y="0" x="0" id="text-entity-TouristDestination-fa555fd7-f270-5852-8664-faa8e17b3b42-attr-46-name" class="er entityLabel">url</text></g><g transform="translate(20,1110 )" id="entity-TouristAttraction-12496618-199e-5f4f-bb10-424ee209e3a1"><rect height="75" width="129.75" y="0" x="0" class="er entityBox"/><text style="dominant-baseline: middle; text-anchor: middle; font-size: 12px;" transform="translate(64.875,37.5)" y="0" x="0" id="text-entity-TouristAttraction-12496618-199e-5f4f-bb10-424ee209e3a1" class="er entityLabel">TouristAttraction</text></g><g transform="translate(249.75,1110 )" id="entity-PropertyValue-0e208f6c-77f8-5d2e-b4a4-9a09101a021a"><rect height="75" width="113.734375" y="0" x="0" class="er entityBox"/><text style="dominant-baseline: middle; text-anchor: middle; font-size: 12px;" transform="translate(56.8671875,37.5)" y="0" x="0" id="text-entity-PropertyValue-0e208f6c-77f8-5d2e-b4a4-9a09101a021a" class="er entityLabel">PropertyValue</text></g><g transform="translate(463.484375,1110 )" id="entity-AggregateRating-aa0a8837-178a-57ab-baa0-94ad30d90eb5"><rect height="75" width="131.25" y="0" x="0" class="er entityBox"/><text style="dominant-baseline: middle; text-anchor: middle; font-size: 12px;" transform="translate(65.625,37.5)" y="0" x="0" id="text-entity-AggregateRating-aa0a8837-178a-57ab-baa0-94ad30d90eb5" class="er entityLabel">AggregateRating</text></g><g transform="translate(694.734375,1110 )" id="entity-LocationFeatureSpecification-dbe29f9c-e3d0-5bc9-80cd-10146568b0ab"><rect height="75" width="203.15625" y="0" x="0" class="er entityBox"/><text style="dominant-baseline: middle; text-anchor: middle; font-size: 12px;" transform="translate(101.578125,37.5)" y="0" x="0" id="text-entity-LocationFeatureSpecification-dbe29f9c-e3d0-5bc9-80cd-10146568b0ab" class="er entityLabel">LocationFeatureSpecification</text></g><g transform="translate(1022.1015625,1110 )" id="entity-Place-18cedc50-4c85-52d4-b2dd-111465382dcf"><rect height="75" width="100" y="0" x="0" class="er entityBox"/><text style="dominant-baseline: middle; text-anchor: middle; font-size: 12px;" transform="translate(50,37.5)" y="0" x="0" id="text-entity-Place-18cedc50-4c85-52d4-b2dd-111465382dcf" class="er entityLabel">Place</text></g><g transform="translate(1222.1015625,1110 )" id="entity-Event-5fcfcec5-0af7-59ba-bebb-bb0a822c8afa"><rect height="75" width="100" y="0" x="0" class="er entityBox"/><text style="dominant-baseline: middle; text-anchor: middle; font-size: 12px;" transform="translate(50,37.5)" y="0" x="0" id="text-entity-Event-5fcfcec5-0af7-59ba-bebb-bb0a822c8afa" class="er entityLabel">Event</text></g><g transform="translate(1422.1015625,1110 )" id="entity-Certification-8b250de0-929b-5806-8c87-f8e7c928ef36"><rect height="75" width="103.234375" y="0" x="0" class="er entityBox"/><text style="dominant-baseline: middle; text-anchor: middle; font-size: 12px;" transform="translate(51.6171875,37.5)" y="0" x="0" id="text-entity-Certification-8b250de0-929b-5806-8c87-f8e7c928ef36" class="er entityLabel">Certification</text></g><g transform="translate(1625.3359375,1110 )" id="entity-OpeningHoursSpecification-677aa64f-a506-5d18-b5d1-75a0f22f6986"><rect height="75" width="192.8125" y="0" x="0" class="er entityBox"/><text style="dominant-baseline: middle; text-anchor: middle; font-size: 12px;" transform="translate(96.40625,37.5)" y="0" x="0" id="text-entity-OpeningHoursSpecification-677aa64f-a506-5d18-b5d1-75a0f22f6986" class="er entityLabel">OpeningHoursSpecification</text></g><g transform="translate(1918.1484375,1110 )" id="entity-Review-77c92a79-8cff-50c0-9604-f9135763cccd"><rect height="75" width="100" y="0" x="0" class="er entityBox"/><text style="dominant-baseline: middle; text-anchor: middle; font-size: 12px;" transform="translate(50,37.5)" y="0" x="0" id="text-entity-Review-77c92a79-8cff-50c0-9604-f9135763cccd" class="er entityLabel">Review</text></g><g transform="translate(2118.1484375,1110 )" id="entity-Action-6cd87d9a-a078-546e-a35b-bee54f477b31"><rect height="75" width="100" y="0" x="0" class="er entityBox"/><text style="dominant-baseline: middle; text-anchor: middle; font-size: 12px;" transform="translate(50,37.5)" y="0" x="0" id="text-entity-Action-6cd87d9a-a078-546e-a35b-bee54f477b31" class="er entityLabel">Action</text></g><rect height="14" width="109.015625" y="813.3762817382812" x="554.8788452148438" class="er relationshipLabelBox"/><text style="text-anchor: middle; dominant-baseline: middle; font-size: 12px;" y="820.3762817382812" x="609.3866577148438" id="rel1" class="er relationshipLabel">includesAttraction</text><rect height="14" width="110.375" y="821.0419311523438" x="664.45947265625" class="er relationshipLabelBox"/><text style="text-anchor: middle; dominant-baseline: middle; font-size: 12px;" y="828.0419311523438" x="719.64697265625" id="rel2" class="er relationshipLabel">additionalProperty</text><rect height="14" width="100.390625" y="833.0977783203125" x="780.4041748046875" class="er relationshipLabelBox"/><text style="text-anchor: middle; dominant-baseline: middle; font-size: 12px;" y="840.0977783203125" x="830.5994873046875" id="rel3" class="er relationshipLabel">aggregateRating</text><rect height="14" width="94.53125" y="860.7799072265625" x="918.06640625" class="er relationshipLabelBox"/><text style="text-anchor: middle; dominant-baseline: middle; font-size: 12px;" y="867.7799072265625" x="965.33203125" id="rel4" class="er relationshipLabel">amenityFeature</text><rect height="14" width="70.6875" y="894.6665649414062" x="993.221923828125" class="er relationshipLabelBox"/><text style="text-anchor: middle; dominant-baseline: middle; font-size: 12px;" y="901.6665649414062" x="1028.565673828125" id="rel5" class="er relationshipLabel">containedIn</text><rect height="14" width="102.59375" y="922.7942504882812" x="1032.2767333984375" class="er relationshipLabelBox"/><text style="text-anchor: middle; dominant-baseline: middle; font-size: 12px;" y="929.7942504882812" x="1083.5736083984375" id="rel6" class="er relationshipLabel">containedInPlace</text><rect height="14" width="82.703125" y="1008.8319702148438" x="1091.9478759765625" class="er relationshipLabelBox"/><text style="text-anchor: middle; dominant-baseline: middle; font-size: 12px;" y="1015.8319702148438" x="1133.2994384765625" id="rel7" class="er relationshipLabel">containsPlace</text><rect height="14" width="34.47265625" y="1055.415771484375" x="1211.0091552734375" class="er relationshipLabelBox"/><text style="text-anchor: middle; dominant-baseline: middle; font-size: 12px;" y="1062.415771484375" x="1228.2454833984375" id="rel8" class="er relationshipLabel">event</text><rect height="14" width="40.4375" y="1055.487060546875" x="1296.427734375" class="er relationshipLabelBox"/><text style="text-anchor: middle; dominant-baseline: middle; font-size: 12px;" y="1062.487060546875" x="1316.646484375" id="rel9" class="er relationshipLabel">events</text><rect height="14" width="94.453125" y="953.1611328125" x="1388.8389892578125" class="er relationshipLabelBox"/><text style="text-anchor: middle; dominant-baseline: middle; font-size: 12px;" y="960.1611328125" x="1436.0655517578125" id="rel10" class="er relationshipLabel">hasCertification</text><rect height="14" width="160.71875" y="887.5859985351562" x="1453.6353759765625" class="er relationshipLabelBox"/><text style="text-anchor: middle; dominant-baseline: middle; font-size: 12px;" y="894.5859985351562" x="1533.9947509765625" id="rel11" class="er relationshipLabel">openingHoursSpecification</text><rect height="14" width="39.87109375" y="850.4862060546875" x="1643.1220703125" class="er relationshipLabelBox"/><text style="text-anchor: middle; dominant-baseline: middle; font-size: 12px;" y="857.4862060546875" x="1663.0576171875" id="rel12" class="er relationshipLabel">review</text><rect height="14" width="45.9375" y="829.9134521484375" x="1687.48779296875" class="er relationshipLabelBox"/><text style="text-anchor: middle; dominant-baseline: middle; font-size: 12px;" y="836.9134521484375" x="1710.45654296875" id="rel13" class="er relationshipLabel">reviews</text><rect height="14" width="204.6875" y="851.1958618164062" x="1496.6888427734375" class="er relationshipLabelBox"/><text style="text-anchor: middle; dominant-baseline: middle; font-size: 12px;" y="858.1958618164062" x="1599.0325927734375" id="rel14" class="er relationshipLabel">specialOpeningHoursSpecification</text><rect height="14" width="90.96875" y="824.1958618164062" x="1744.4991455078125" class="er relationshipLabelBox"/><text style="text-anchor: middle; dominant-baseline: middle; font-size: 12px;" y="831.1958618164062" x="1789.9835205078125" id="rel15" class="er relationshipLabel">potentialAction</text></svg>