<svg aria-roledescription="er" role="graphics-document document" viewBox="0 0 1542.01171875 512" style="max-width: 1542.01px; background-color: white;" xmlns:xlink="http://www.w3.org/1999/xlink" xmlns="http://www.w3.org/2000/svg" width="100%" id="my-svg"><style>#my-svg{font-family:"trebuchet ms",verdana,arial,sans-serif;font-size:16px;fill:#333;}#my-svg .error-icon{fill:#552222;}#my-svg .error-text{fill:#552222;stroke:#552222;}#my-svg .edge-thickness-normal{stroke-width:1px;}#my-svg .edge-thickness-thick{stroke-width:3.5px;}#my-svg .edge-pattern-solid{stroke-dasharray:0;}#my-svg .edge-thickness-invisible{stroke-width:0;fill:none;}#my-svg .edge-pattern-dashed{stroke-dasharray:3;}#my-svg .edge-pattern-dotted{stroke-dasharray:2;}#my-svg .marker{fill:#333333;stroke:#333333;}#my-svg .marker.cross{stroke:#333333;}#my-svg svg{font-family:"trebuchet ms",verdana,arial,sans-serif;font-size:16px;}#my-svg p{margin:0;}#my-svg .entityBox{fill:#ECECFF;stroke:#9370DB;}#my-svg .attributeBoxOdd{fill:#ffffff;stroke:#9370DB;}#my-svg .attributeBoxEven{fill:#f2f2f2;stroke:#9370DB;}#my-svg .relationshipLabelBox{fill:hsl(80, 100%, 96.2745098039%);opacity:0.7;background-color:hsl(80, 100%, 96.2745098039%);}#my-svg .relationshipLabelBox rect{opacity:0.5;}#my-svg .relationshipLine{stroke:#333333;}#my-svg .entityTitleText{text-anchor:middle;font-size:18px;fill:#333;}#my-svg #MD_PARENT_START{fill:#f5f5f5!important;stroke:#333333!important;stroke-width:1;}#my-svg #MD_PARENT_END{fill:#f5f5f5!important;stroke:#333333!important;stroke-width:1;}#my-svg :root{--mermaid-font-family:"trebuchet ms",verdana,arial,sans-serif;}</style><g/><defs><marker orient="auto" markerHeight="240" markerWidth="190" refY="7" refX="0" id="MD_PARENT_START"><path d="M 18,7 L9,13 L1,7 L9,1 Z"/></marker></defs><defs><marker orient="auto" markerHeight="28" markerWidth="20" refY="7" refX="19" id="MD_PARENT_END"><path d="M 18,7 L9,13 L1,7 L9,1 Z"/></marker></defs><defs><marker orient="auto" markerHeight="18" markerWidth="18" refY="9" refX="0" id="ONLY_ONE_START"><path d="M9,0 L9,18 M15,0 L15,18" fill="none" stroke="gray"/></marker></defs><defs><marker orient="auto" markerHeight="18" markerWidth="18" refY="9" refX="18" id="ONLY_ONE_END"><path d="M3,0 L3,18 M9,0 L9,18" fill="none" stroke="gray"/></marker></defs><defs><marker orient="auto" markerHeight="18" markerWidth="30" refY="9" refX="0" id="ZERO_OR_ONE_START"><circle r="6" cy="9" cx="21" fill="white" stroke="gray"/><path d="M9,0 L9,18" fill="none" stroke="gray"/></marker></defs><defs><marker orient="auto" markerHeight="18" markerWidth="30" refY="9" refX="30" id="ZERO_OR_ONE_END"><circle r="6" cy="9" cx="9" fill="white" stroke="gray"/><path d="M21,0 L21,18" fill="none" stroke="gray"/></marker></defs><defs><marker orient="auto" markerHeight="36" markerWidth="45" refY="18" refX="18" id="ONE_OR_MORE_START"><path d="M0,18 Q 18,0 36,18 Q 18,36 0,18 M42,9 L42,27" fill="none" stroke="gray"/></marker></defs><defs><marker orient="auto" markerHeight="36" markerWidth="45" refY="18" refX="27" id="ONE_OR_MORE_END"><path d="M3,9 L3,27 M9,18 Q27,0 45,18 Q27,36 9,18" fill="none" stroke="gray"/></marker></defs><defs><marker orient="auto" markerHeight="36" markerWidth="57" refY="18" refX="18" id="ZERO_OR_MORE_START"><circle r="6" cy="18" cx="48" fill="white" stroke="gray"/><path d="M0,18 Q18,0 36,18 Q18,36 0,18" fill="none" stroke="gray"/></marker></defs><defs><marker orient="auto" markerHeight="36" markerWidth="57" refY="18" refX="39" id="ZERO_OR_MORE_END"><circle r="6" cy="18" cx="9" fill="white" stroke="gray"/><path d="M21,18 Q39,0 57,18 Q39,36 21,18" fill="none" stroke="gray"/></marker></defs><path style="stroke: gray; fill: none;" marker-start="url(#ONLY_ONE_START)" marker-end="url(#ZERO_OR_MORE_END)" d="M784.398,188.64L667.401,218.367C550.404,248.093,316.409,307.547,199.411,345.607C82.414,383.667,82.414,400.333,82.414,408.667L82.414,417" class="er relationshipLine"/><path style="stroke: gray; fill: none;" marker-start="url(#ONLY_ONE_START)" marker-end="url(#ZERO_OR_MORE_END)" d="M784.398,191.808L685.102,221.007C585.806,250.206,387.214,308.603,304.584,347.524C221.954,386.444,255.288,405.889,271.954,415.611L288.621,425.333" class="er relationshipLine"/><path style="stroke: gray; fill: none;" marker-start="url(#ONLY_ONE_START)" marker-end="url(#ZERO_OR_MORE_END)" d="M784.398,195.862L701.769,224.385C619.139,252.908,453.88,309.954,376.013,346.81C298.145,383.667,307.669,400.333,312.431,408.667L317.193,417" class="er relationshipLine"/><path style="stroke: gray; fill: none;" marker-start="url(#ONLY_ONE_START)" marker-end="url(#ZERO_OR_MORE_END)" d="M784.398,201.622L718.436,229.185C652.473,256.748,520.547,311.874,449.822,347.77C379.097,383.667,369.573,400.333,364.812,408.667L360.05,417" class="er relationshipLine"/><path style="stroke: gray; fill: none;" marker-start="url(#ONLY_ONE_START)" marker-end="url(#ZERO_OR_MORE_END)" d="M784.398,227.497L753.16,250.748C721.922,273.998,659.445,320.499,628.207,352.083C596.969,383.667,596.969,400.333,596.969,408.667L596.969,417" class="er relationshipLine"/><path style="stroke: gray; fill: none;" marker-start="url(#ONLY_ONE_START)" marker-end="url(#ZERO_OR_MORE_END)" d="M826.259,317L824.159,325.333C822.06,333.667,817.862,350.333,815.763,367C813.664,383.667,813.664,400.333,813.664,408.667L813.664,417" class="er relationshipLine"/><path style="stroke: gray; fill: none;" marker-start="url(#ONLY_ONE_START)" marker-end="url(#ZERO_OR_MORE_END)" d="M784.398,210.453L735.102,236.544C685.806,262.635,587.214,314.818,521.251,350.631C455.288,386.444,421.954,405.889,405.288,415.611L388.621,425.333" class="er relationshipLine"/><path style="stroke: gray; fill: none;" marker-start="url(#ONLY_ONE_START)" marker-end="url(#ZERO_OR_MORE_END)" d="M907.315,317L909.764,325.333C912.214,333.667,917.113,350.333,936.229,368.389C955.345,386.444,988.678,405.889,1005.345,415.611L1022.012,425.333" class="er relationshipLine"/><path style="stroke: gray; fill: none;" marker-start="url(#ONLY_ONE_START)" marker-end="url(#ZERO_OR_MORE_END)" d="M942.93,267.865L956.11,284.388C969.29,300.91,995.651,333.955,1013.593,358.811C1031.536,383.667,1041.059,400.333,1045.821,408.667L1050.583,417" class="er relationshipLine"/><path style="stroke: gray; fill: none;" marker-start="url(#ONLY_ONE_START)" marker-end="url(#ZERO_OR_MORE_END)" d="M942.93,229.403L972.777,252.336C1002.624,275.269,1062.318,321.134,1087.403,352.401C1112.488,383.667,1102.964,400.333,1098.202,408.667L1093.44,417" class="er relationshipLine"/><path style="stroke: gray; fill: none;" marker-start="url(#ONLY_ONE_START)" marker-end="url(#ZERO_OR_MORE_END)" d="M942.93,212.408L989.443,238.173C1035.957,263.938,1128.984,315.469,1180.26,349.568C1231.536,383.667,1241.059,400.333,1245.821,408.667L1250.583,417" class="er relationshipLine"/><path style="stroke: gray; fill: none;" marker-start="url(#ONLY_ONE_START)" marker-end="url(#ZERO_OR_MORE_END)" d="M942.93,194.364L1031.11,223.137C1119.29,251.909,1295.651,309.455,1383.831,346.561C1472.012,383.667,1472.012,400.333,1472.012,408.667L1472.012,417" class="er relationshipLine"/><path style="stroke: gray; fill: none;" marker-start="url(#ONLY_ONE_START)" marker-end="url(#ZERO_OR_MORE_END)" d="M942.93,202.828L1006.11,230.19C1069.29,257.552,1195.651,312.276,1254.069,347.971C1312.488,383.667,1302.964,400.333,1298.202,408.667L1293.44,417" class="er relationshipLine"/><g transform="translate(784.3984375,20 )" id="entity-TrackAction-886b5751-2356-5971-a887-3e52dcb86c30"><rect height="297" width="158.53125" y="0" x="0" class="er entityBox"/><text style="dominant-baseline: middle; text-anchor: middle; font-size: 12px;" transform="translate(79.265625,12)" y="0" x="0" id="text-entity-TrackAction-886b5751-2356-5971-a887-3e52dcb86c30" class="er entityLabel">TrackAction</text><rect height="21" width="57.0625" y="24" x="0" class="er attributeBoxOdd"/><text style="dominant-baseline: middle; font-size: 10.2px;" transform="translate(5,34.5)" y="0" x="0" id="text-entity-TrackAction-886b5751-2356-5971-a887-3e52dcb86c30-attr-1-type" class="er entityLabel">stringList</text><rect height="21" width="101.46875" y="24" x="57.0625" class="er attributeBoxOdd"/><text style="dominant-baseline: middle; font-size: 10.2px;" transform="translate(62.0625,34.5)" y="0" x="0" id="text-entity-TrackAction-886b5751-2356-5971-a887-3e52dcb86c30-attr-1-name" class="er entityLabel">location</text><rect height="21" width="57.0625" y="45" x="0" class="er attributeBoxEven"/><text style="dominant-baseline: middle; font-size: 10.2px;" transform="translate(5,55.5)" y="0" x="0" id="text-entity-TrackAction-886b5751-2356-5971-a887-3e52dcb86c30-attr-2-type" class="er entityLabel">stringList</text><rect height="21" width="101.46875" y="45" x="57.0625" class="er attributeBoxEven"/><text style="dominant-baseline: middle; font-size: 10.2px;" transform="translate(62.0625,55.5)" y="0" x="0" id="text-entity-TrackAction-886b5751-2356-5971-a887-3e52dcb86c30-attr-2-name" class="er entityLabel">participant</text><rect height="21" width="57.0625" y="66" x="0" class="er attributeBoxOdd"/><text style="dominant-baseline: middle; font-size: 10.2px;" transform="translate(5,76.5)" y="0" x="0" id="text-entity-TrackAction-886b5751-2356-5971-a887-3e52dcb86c30-attr-3-type" class="er entityLabel">stringList</text><rect height="21" width="101.46875" y="66" x="57.0625" class="er attributeBoxOdd"/><text style="dominant-baseline: middle; font-size: 10.2px;" transform="translate(62.0625,76.5)" y="0" x="0" id="text-entity-TrackAction-886b5751-2356-5971-a887-3e52dcb86c30-attr-3-name" class="er entityLabel">agent</text><rect height="21" width="57.0625" y="87" x="0" class="er attributeBoxEven"/><text style="dominant-baseline: middle; font-size: 10.2px;" transform="translate(5,97.5)" y="0" x="0" id="text-entity-TrackAction-886b5751-2356-5971-a887-3e52dcb86c30-attr-4-type" class="er entityLabel">stringList</text><rect height="21" width="101.46875" y="87" x="57.0625" class="er attributeBoxEven"/><text style="dominant-baseline: middle; font-size: 10.2px;" transform="translate(62.0625,97.5)" y="0" x="0" id="text-entity-TrackAction-886b5751-2356-5971-a887-3e52dcb86c30-attr-4-name" class="er entityLabel">endTime</text><rect height="21" width="57.0625" y="108" x="0" class="er attributeBoxOdd"/><text style="dominant-baseline: middle; font-size: 10.2px;" transform="translate(5,118.5)" y="0" x="0" id="text-entity-TrackAction-886b5751-2356-5971-a887-3e52dcb86c30-attr-5-type" class="er entityLabel">stringList</text><rect height="21" width="101.46875" y="108" x="57.0625" class="er attributeBoxOdd"/><text style="dominant-baseline: middle; font-size: 10.2px;" transform="translate(62.0625,118.5)" y="0" x="0" id="text-entity-TrackAction-886b5751-2356-5971-a887-3e52dcb86c30-attr-5-name" class="er entityLabel">provider</text><rect height="21" width="57.0625" y="129" x="0" class="er attributeBoxEven"/><text style="dominant-baseline: middle; font-size: 10.2px;" transform="translate(5,139.5)" y="0" x="0" id="text-entity-TrackAction-886b5751-2356-5971-a887-3e52dcb86c30-attr-6-type" class="er entityLabel">stringList</text><rect height="21" width="101.46875" y="129" x="57.0625" class="er attributeBoxEven"/><text style="dominant-baseline: middle; font-size: 10.2px;" transform="translate(62.0625,139.5)" y="0" x="0" id="text-entity-TrackAction-886b5751-2356-5971-a887-3e52dcb86c30-attr-6-name" class="er entityLabel">startTime</text><rect height="21" width="57.0625" y="150" x="0" class="er attributeBoxOdd"/><text style="dominant-baseline: middle; font-size: 10.2px;" transform="translate(5,160.5)" y="0" x="0" id="text-entity-TrackAction-886b5751-2356-5971-a887-3e52dcb86c30-attr-7-type" class="er entityLabel">stringList</text><rect height="21" width="101.46875" y="150" x="57.0625" class="er attributeBoxOdd"/><text style="dominant-baseline: middle; font-size: 10.2px;" transform="translate(62.0625,160.5)" y="0" x="0" id="text-entity-TrackAction-886b5751-2356-5971-a887-3e52dcb86c30-attr-7-name" class="er entityLabel">target</text><rect height="21" width="57.0625" y="171" x="0" class="er attributeBoxEven"/><text style="dominant-baseline: middle; font-size: 10.2px;" transform="translate(5,181.5)" y="0" x="0" id="text-entity-TrackAction-886b5751-2356-5971-a887-3e52dcb86c30-attr-8-type" class="er entityLabel">stringList</text><rect height="21" width="101.46875" y="171" x="57.0625" class="er attributeBoxEven"/><text style="dominant-baseline: middle; font-size: 10.2px;" transform="translate(62.0625,181.5)" y="0" x="0" id="text-entity-TrackAction-886b5751-2356-5971-a887-3e52dcb86c30-attr-8-name" class="er entityLabel">additionalType</text><rect height="21" width="57.0625" y="192" x="0" class="er attributeBoxOdd"/><text style="dominant-baseline: middle; font-size: 10.2px;" transform="translate(5,202.5)" y="0" x="0" id="text-entity-TrackAction-886b5751-2356-5971-a887-3e52dcb86c30-attr-9-type" class="er entityLabel">stringList</text><rect height="21" width="101.46875" y="192" x="57.0625" class="er attributeBoxOdd"/><text style="dominant-baseline: middle; font-size: 10.2px;" transform="translate(62.0625,202.5)" y="0" x="0" id="text-entity-TrackAction-886b5751-2356-5971-a887-3e52dcb86c30-attr-9-name" class="er entityLabel">description</text><rect height="21" width="57.0625" y="213" x="0" class="er attributeBoxEven"/><text style="dominant-baseline: middle; font-size: 10.2px;" transform="translate(5,223.5)" y="0" x="0" id="text-entity-TrackAction-886b5751-2356-5971-a887-3e52dcb86c30-attr-10-type" class="er entityLabel">stringList</text><rect height="21" width="101.46875" y="213" x="57.0625" class="er attributeBoxEven"/><text style="dominant-baseline: middle; font-size: 10.2px;" transform="translate(62.0625,223.5)" y="0" x="0" id="text-entity-TrackAction-886b5751-2356-5971-a887-3e52dcb86c30-attr-10-name" class="er entityLabel">identifier</text><rect height="21" width="57.0625" y="234" x="0" class="er attributeBoxOdd"/><text style="dominant-baseline: middle; font-size: 10.2px;" transform="translate(5,244.5)" y="0" x="0" id="text-entity-TrackAction-886b5751-2356-5971-a887-3e52dcb86c30-attr-11-type" class="er entityLabel">stringList</text><rect height="21" width="101.46875" y="234" x="57.0625" class="er attributeBoxOdd"/><text style="dominant-baseline: middle; font-size: 10.2px;" transform="translate(62.0625,244.5)" y="0" x="0" id="text-entity-TrackAction-886b5751-2356-5971-a887-3e52dcb86c30-attr-11-name" class="er entityLabel">image</text><rect height="21" width="57.0625" y="255" x="0" class="er attributeBoxEven"/><text style="dominant-baseline: middle; font-size: 10.2px;" transform="translate(5,265.5)" y="0" x="0" id="text-entity-TrackAction-886b5751-2356-5971-a887-3e52dcb86c30-attr-12-type" class="er entityLabel">stringList</text><rect height="21" width="101.46875" y="255" x="57.0625" class="er attributeBoxEven"/><text style="dominant-baseline: middle; font-size: 10.2px;" transform="translate(62.0625,265.5)" y="0" x="0" id="text-entity-TrackAction-886b5751-2356-5971-a887-3e52dcb86c30-attr-12-name" class="er entityLabel">mainEntityOfPage</text><rect height="21" width="57.0625" y="276" x="0" class="er attributeBoxOdd"/><text style="dominant-baseline: middle; font-size: 10.2px;" transform="translate(5,286.5)" y="0" x="0" id="text-entity-TrackAction-886b5751-2356-5971-a887-3e52dcb86c30-attr-13-type" class="er entityLabel">stringList</text><rect height="21" width="101.46875" y="276" x="57.0625" class="er attributeBoxOdd"/><text style="dominant-baseline: middle; font-size: 10.2px;" transform="translate(62.0625,286.5)" y="0" x="0" id="text-entity-TrackAction-886b5751-2356-5971-a887-3e52dcb86c30-attr-13-name" class="er entityLabel">subjectOf</text></g><g transform="translate(20,417 )" id="entity-DeliveryMethod-e577a7f1-5177-5a6a-88c8-ea80527e051e"><rect height="75" width="124.828125" y="0" x="0" class="er entityBox"/><text style="dominant-baseline: middle; text-anchor: middle; font-size: 12px;" transform="translate(62.4140625,37.5)" y="0" x="0" id="text-entity-DeliveryMethod-e577a7f1-5177-5a6a-88c8-ea80527e051e" class="er entityLabel">DeliveryMethod</text></g><g transform="translate(288.62109375,417 )" id="entity-Thing-27bc9527-b992-59fc-a0fb-da83e2ff80bf"><rect height="75" width="100" y="0" x="0" class="er entityBox"/><text style="dominant-baseline: middle; text-anchor: middle; font-size: 12px;" transform="translate(50,37.5)" y="0" x="0" id="text-entity-Thing-27bc9527-b992-59fc-a0fb-da83e2ff80bf" class="er entityLabel">Thing</text></g><g transform="translate(546.96875,417 )" id="entity-HowTo-6f9e6b0e-89c2-59a9-964a-8696b3aa66a4"><rect height="75" width="100" y="0" x="0" class="er entityBox"/><text style="dominant-baseline: middle; text-anchor: middle; font-size: 12px;" transform="translate(50,37.5)" y="0" x="0" id="text-entity-HowTo-6f9e6b0e-89c2-59a9-964a-8696b3aa66a4" class="er entityLabel">HowTo</text></g><g transform="translate(746.96875,417 )" id="entity-ActionStatusType-935590f3-1b2a-599d-8a3e-9af222825f06"><rect height="75" width="133.390625" y="0" x="0" class="er entityBox"/><text style="dominant-baseline: middle; text-anchor: middle; font-size: 12px;" transform="translate(66.6953125,37.5)" y="0" x="0" id="text-entity-ActionStatusType-935590f3-1b2a-599d-8a3e-9af222825f06" class="er entityLabel">ActionStatusType</text></g><g transform="translate(1022.01171875,417 )" id="entity-Text-426c5d39-acfc-5487-a6d9-ede67887190e"><rect height="75" width="100" y="0" x="0" class="er entityBox"/><text style="dominant-baseline: middle; text-anchor: middle; font-size: 12px;" transform="translate(50,37.5)" y="0" x="0" id="text-entity-Text-426c5d39-acfc-5487-a6d9-ede67887190e" class="er entityLabel">Text</text></g><g transform="translate(1222.01171875,417 )" id="entity-URL-07f78d3e-fd74-5925-b39b-26c1cc2d6b7c"><rect height="75" width="100" y="0" x="0" class="er entityBox"/><text style="dominant-baseline: middle; text-anchor: middle; font-size: 12px;" transform="translate(50,37.5)" y="0" x="0" id="text-entity-URL-07f78d3e-fd74-5925-b39b-26c1cc2d6b7c" class="er entityLabel">URL</text></g><g transform="translate(1422.01171875,417 )" id="entity-Action-6cd87d9a-a078-546e-a35b-bee54f477b31"><rect height="75" width="100" y="0" x="0" class="er entityBox"/><text style="dominant-baseline: middle; text-anchor: middle; font-size: 12px;" transform="translate(50,37.5)" y="0" x="0" id="text-entity-Action-6cd87d9a-a078-546e-a35b-bee54f477b31" class="er entityLabel">Action</text></g><rect height="14" width="93.203125" y="275.3075256347656" x="373.8804626464844" class="er relationshipLabelBox"/><text style="text-anchor: middle; dominant-baseline: middle; font-size: 12px;" y="282.3075256347656" x="420.4820251464844" id="rel1" class="er relationshipLabel">deliveryMethod</text><rect height="14" width="66.11328125" y="275.3851623535156" x="450.02203369140625" class="er relationshipLabelBox"/><text style="text-anchor: middle; dominant-baseline: middle; font-size: 12px;" y="282.3851623535156" x="483.07867431640625" id="rel2" class="er relationshipLabel">instrument</text><rect height="14" width="37.2734375" y="278.7041931152344" x="509.65374755859375" class="er relationshipLabelBox"/><text style="text-anchor: middle; dominant-baseline: middle; font-size: 12px;" y="285.7041931152344" x="528.2904663085938" id="rel3" class="er relationshipLabel">object</text><rect height="14" width="34.244140625" y="288.2927551269531" x="546.0125122070312" class="er relationshipLabelBox"/><text style="text-anchor: middle; dominant-baseline: middle; font-size: 12px;" y="295.2927551269531" x="563.1345825195312" id="rel4" class="er relationshipLabel">result</text><rect height="14" width="82.46875" y="303.7046813964844" x="633.9249877929688" class="er relationshipLabelBox"/><text style="text-anchor: middle; dominant-baseline: middle; font-size: 12px;" y="310.7046813964844" x="675.1593627929688" id="rel5" class="er relationshipLabel">actionProcess</text><rect height="14" width="75.1875" y="359.48236083984375" x="778.2354736328125" class="er relationshipLabelBox"/><text style="text-anchor: middle; dominant-baseline: middle; font-size: 12px;" y="366.48236083984375" x="815.8292236328125" id="rel6" class="er relationshipLabel">actionStatus</text><rect height="14" width="29.1171875" y="309.04681396484375" x="570.9388427734375" class="er relationshipLabelBox"/><text style="text-anchor: middle; dominant-baseline: middle; font-size: 12px;" y="316.04681396484375" x="585.4974365234375" id="rel7" class="er relationshipLabel">error</text><rect height="14" width="89.953125" y="375.1396789550781" x="907.9381713867188" class="er relationshipLabelBox"/><text style="text-anchor: middle; dominant-baseline: middle; font-size: 12px;" y="382.1396789550781" x="952.9147338867188" id="rel8" class="er relationshipLabel">alternateName</text><rect height="14" width="161.390625" y="333.26220703125" x="919.1410522460938" class="er relationshipLabelBox"/><text style="text-anchor: middle; dominant-baseline: middle; font-size: 12px;" y="340.26220703125" x="999.8363647460938" id="rel9" class="er relationshipLabel">disambiguatingDescription</text><rect height="14" width="34.03125" y="303.6540222167969" x="1028.2313232421875" class="er relationshipLabelBox"/><text style="text-anchor: middle; dominant-baseline: middle; font-size: 12px;" y="310.6540222167969" x="1045.2469482421875" id="rel10" class="er relationshipLabel">name</text><rect height="14" width="47.140625" y="296.6907958984375" x="1081.8670654296875" class="er relationshipLabelBox"/><text style="text-anchor: middle; dominant-baseline: middle; font-size: 12px;" y="303.6907958984375" x="1105.4373779296875" id="rel11" class="er relationshipLabel">sameAs</text><rect height="14" width="90.96875" y="279.5406799316406" x="1176.01708984375" class="er relationshipLabelBox"/><text style="text-anchor: middle; dominant-baseline: middle; font-size: 12px;" y="286.5406799316406" x="1221.50146484375" id="rel12" class="er relationshipLabel">potentialAction</text><rect height="14" width="15.875" y="283.85302734375" x="1134.5120849609375" class="er relationshipLabelBox"/><text style="text-anchor: middle; dominant-baseline: middle; font-size: 12px;" y="290.85302734375" x="1142.4495849609375" id="rel13" class="er relationshipLabel">url</text></svg>