<svg aria-roledescription="er" role="graphics-document document" viewBox="0 0 790 470" style="max-width: 790px; background-color: white;" xmlns:xlink="http://www.w3.org/1999/xlink" xmlns="http://www.w3.org/2000/svg" width="100%" id="my-svg"><style>#my-svg{font-family:"trebuchet ms",verdana,arial,sans-serif;font-size:16px;fill:#333;}#my-svg .error-icon{fill:#552222;}#my-svg .error-text{fill:#552222;stroke:#552222;}#my-svg .edge-thickness-normal{stroke-width:1px;}#my-svg .edge-thickness-thick{stroke-width:3.5px;}#my-svg .edge-pattern-solid{stroke-dasharray:0;}#my-svg .edge-thickness-invisible{stroke-width:0;fill:none;}#my-svg .edge-pattern-dashed{stroke-dasharray:3;}#my-svg .edge-pattern-dotted{stroke-dasharray:2;}#my-svg .marker{fill:#333333;stroke:#333333;}#my-svg .marker.cross{stroke:#333333;}#my-svg svg{font-family:"trebuchet ms",verdana,arial,sans-serif;font-size:16px;}#my-svg p{margin:0;}#my-svg .entityBox{fill:#ECECFF;stroke:#9370DB;}#my-svg .attributeBoxOdd{fill:#ffffff;stroke:#9370DB;}#my-svg .attributeBoxEven{fill:#f2f2f2;stroke:#9370DB;}#my-svg .relationshipLabelBox{fill:hsl(80, 100%, 96.2745098039%);opacity:0.7;background-color:hsl(80, 100%, 96.2745098039%);}#my-svg .relationshipLabelBox rect{opacity:0.5;}#my-svg .relationshipLine{stroke:#333333;}#my-svg .entityTitleText{text-anchor:middle;font-size:18px;fill:#333;}#my-svg #MD_PARENT_START{fill:#f5f5f5!important;stroke:#333333!important;stroke-width:1;}#my-svg #MD_PARENT_END{fill:#f5f5f5!important;stroke:#333333!important;stroke-width:1;}#my-svg :root{--mermaid-font-family:"trebuchet ms",verdana,arial,sans-serif;}</style><g/><defs><marker orient="auto" markerHeight="240" markerWidth="190" refY="7" refX="0" id="MD_PARENT_START"><path d="M 18,7 L9,13 L1,7 L9,1 Z"/></marker></defs><defs><marker orient="auto" markerHeight="28" markerWidth="20" refY="7" refX="19" id="MD_PARENT_END"><path d="M 18,7 L9,13 L1,7 L9,1 Z"/></marker></defs><defs><marker orient="auto" markerHeight="18" markerWidth="18" refY="9" refX="0" id="ONLY_ONE_START"><path d="M9,0 L9,18 M15,0 L15,18" fill="none" stroke="gray"/></marker></defs><defs><marker orient="auto" markerHeight="18" markerWidth="18" refY="9" refX="18" id="ONLY_ONE_END"><path d="M3,0 L3,18 M9,0 L9,18" fill="none" stroke="gray"/></marker></defs><defs><marker orient="auto" markerHeight="18" markerWidth="30" refY="9" refX="0" id="ZERO_OR_ONE_START"><circle r="6" cy="9" cx="21" fill="white" stroke="gray"/><path d="M9,0 L9,18" fill="none" stroke="gray"/></marker></defs><defs><marker orient="auto" markerHeight="18" markerWidth="30" refY="9" refX="30" id="ZERO_OR_ONE_END"><circle r="6" cy="9" cx="9" fill="white" stroke="gray"/><path d="M21,0 L21,18" fill="none" stroke="gray"/></marker></defs><defs><marker orient="auto" markerHeight="36" markerWidth="45" refY="18" refX="18" id="ONE_OR_MORE_START"><path d="M0,18 Q 18,0 36,18 Q 18,36 0,18 M42,9 L42,27" fill="none" stroke="gray"/></marker></defs><defs><marker orient="auto" markerHeight="36" markerWidth="45" refY="18" refX="27" id="ONE_OR_MORE_END"><path d="M3,9 L3,27 M9,18 Q27,0 45,18 Q27,36 9,18" fill="none" stroke="gray"/></marker></defs><defs><marker orient="auto" markerHeight="36" markerWidth="57" refY="18" refX="18" id="ZERO_OR_MORE_START"><circle r="6" cy="18" cx="48" fill="white" stroke="gray"/><path d="M0,18 Q18,0 36,18 Q18,36 0,18" fill="none" stroke="gray"/></marker></defs><defs><marker orient="auto" markerHeight="36" markerWidth="57" refY="18" refX="39" id="ZERO_OR_MORE_END"><circle r="6" cy="18" cx="9" fill="white" stroke="gray"/><path d="M21,18 Q39,0 57,18 Q39,36 21,18" fill="none" stroke="gray"/></marker></defs><path style="stroke: gray; fill: none;" marker-start="url(#ONLY_ONE_START)" marker-end="url(#ZERO_OR_MORE_END)" d="M452.133,79.793L463.799,69.827C475.466,59.862,498.799,39.931,513.383,29.965C527.966,20,533.799,20,539.633,41.25C545.466,62.5,551.299,105,551.299,147.5C551.299,190,545.466,232.5,539.633,253.75C533.799,275,527.966,275,513.383,265.035C498.799,255.069,475.466,235.138,463.799,225.173L452.133,215.207" class="er relationshipLine"/><path style="stroke: gray; fill: none;" marker-start="url(#ONLY_ONE_START)" marker-end="url(#ZERO_OR_MORE_END)" d="M452.133,102.098L476.022,88.415C499.911,74.732,547.688,47.366,577.549,33.683C607.411,20,619.355,20,631.299,41.25C643.244,62.5,655.188,105,655.188,147.5C655.188,190,643.244,232.5,631.299,253.75C619.355,275,607.411,275,577.549,261.317C547.688,247.634,499.911,220.268,476.022,206.585L452.133,192.902" class="er relationshipLine"/><path style="stroke: gray; fill: none;" marker-start="url(#ONLY_ONE_START)" marker-end="url(#ZERO_OR_MORE_END)" d="M293.602,193.955L256.335,215.796C219.068,237.637,144.534,281.318,107.267,311.492C70,341.667,70,358.333,70,366.667L70,375" class="er relationshipLine"/><path style="stroke: gray; fill: none;" marker-start="url(#ONLY_ONE_START)" marker-end="url(#ZERO_OR_MORE_END)" d="M293.602,216.854L273.001,234.878C252.401,252.903,211.201,288.951,207.267,316.698C203.333,344.444,236.667,363.889,253.333,373.611L270,383.333" class="er relationshipLine"/><path style="stroke: gray; fill: none;" marker-start="url(#ONLY_ONE_START)" marker-end="url(#ZERO_OR_MORE_END)" d="M298.977,275L294.147,283.333C289.318,291.667,279.659,308.333,279.591,325C279.524,341.667,289.048,358.333,293.81,366.667L298.571,375" class="er relationshipLine"/><path style="stroke: gray; fill: none;" marker-start="url(#ONLY_ONE_START)" marker-end="url(#ZERO_OR_MORE_END)" d="M370.808,275L370.673,283.333C370.538,291.667,370.269,308.333,365.373,325C360.476,341.667,350.952,358.333,346.19,366.667L341.429,375" class="er relationshipLine"/><path style="stroke: gray; fill: none;" marker-start="url(#ONLY_ONE_START)" marker-end="url(#ZERO_OR_MORE_END)" d="M442.639,275L447.199,283.333C451.759,291.667,460.88,308.333,470.202,325C479.524,341.667,489.048,358.333,493.81,366.667L498.571,375" class="er relationshipLine"/><path style="stroke: gray; fill: none;" marker-start="url(#ONLY_ONE_START)" marker-end="url(#ZERO_OR_MORE_END)" d="M452.133,188.031L496.777,210.859C541.422,233.687,630.711,279.344,675.355,310.505C720,341.667,720,358.333,720,366.667L720,375" class="er relationshipLine"/><path style="stroke: gray; fill: none;" marker-start="url(#ONLY_ONE_START)" marker-end="url(#ZERO_OR_MORE_END)" d="M452.133,218.871L471.777,236.56C491.422,254.248,530.711,289.624,545.594,315.645C560.476,341.667,550.952,358.333,546.19,366.667L541.429,375" class="er relationshipLine"/><g transform="translate(293.6015625,20 )" id="entity-Trip-15bfdc92-c22b-56f9-8fb0-ea400e825ad0"><rect height="255" width="158.53125" y="0" x="0" class="er entityBox"/><text style="dominant-baseline: middle; text-anchor: middle; font-size: 12px;" transform="translate(79.265625,12)" y="0" x="0" id="text-entity-Trip-15bfdc92-c22b-56f9-8fb0-ea400e825ad0" class="er entityLabel">Trip</text><rect height="21" width="57.0625" y="24" x="0" class="er attributeBoxOdd"/><text style="dominant-baseline: middle; font-size: 10.2px;" transform="translate(5,34.5)" y="0" x="0" id="text-entity-Trip-15bfdc92-c22b-56f9-8fb0-ea400e825ad0-attr-1-type" class="er entityLabel">stringList</text><rect height="21" width="101.46875" y="24" x="57.0625" class="er attributeBoxOdd"/><text style="dominant-baseline: middle; font-size: 10.2px;" transform="translate(62.0625,34.5)" y="0" x="0" id="text-entity-Trip-15bfdc92-c22b-56f9-8fb0-ea400e825ad0-attr-1-name" class="er entityLabel">arrivalTime</text><rect height="21" width="57.0625" y="45" x="0" class="er attributeBoxEven"/><text style="dominant-baseline: middle; font-size: 10.2px;" transform="translate(5,55.5)" y="0" x="0" id="text-entity-Trip-15bfdc92-c22b-56f9-8fb0-ea400e825ad0-attr-2-type" class="er entityLabel">stringList</text><rect height="21" width="101.46875" y="45" x="57.0625" class="er attributeBoxEven"/><text style="dominant-baseline: middle; font-size: 10.2px;" transform="translate(62.0625,55.5)" y="0" x="0" id="text-entity-Trip-15bfdc92-c22b-56f9-8fb0-ea400e825ad0-attr-2-name" class="er entityLabel">departureTime</text><rect height="21" width="57.0625" y="66" x="0" class="er attributeBoxOdd"/><text style="dominant-baseline: middle; font-size: 10.2px;" transform="translate(5,76.5)" y="0" x="0" id="text-entity-Trip-15bfdc92-c22b-56f9-8fb0-ea400e825ad0-attr-3-type" class="er entityLabel">stringList</text><rect height="21" width="101.46875" y="66" x="57.0625" class="er attributeBoxOdd"/><text style="dominant-baseline: middle; font-size: 10.2px;" transform="translate(62.0625,76.5)" y="0" x="0" id="text-entity-Trip-15bfdc92-c22b-56f9-8fb0-ea400e825ad0-attr-3-name" class="er entityLabel">itinerary</text><rect height="21" width="57.0625" y="87" x="0" class="er attributeBoxEven"/><text style="dominant-baseline: middle; font-size: 10.2px;" transform="translate(5,97.5)" y="0" x="0" id="text-entity-Trip-15bfdc92-c22b-56f9-8fb0-ea400e825ad0-attr-4-type" class="er entityLabel">stringList</text><rect height="21" width="101.46875" y="87" x="57.0625" class="er attributeBoxEven"/><text style="dominant-baseline: middle; font-size: 10.2px;" transform="translate(62.0625,97.5)" y="0" x="0" id="text-entity-Trip-15bfdc92-c22b-56f9-8fb0-ea400e825ad0-attr-4-name" class="er entityLabel">offers</text><rect height="21" width="57.0625" y="108" x="0" class="er attributeBoxOdd"/><text style="dominant-baseline: middle; font-size: 10.2px;" transform="translate(5,118.5)" y="0" x="0" id="text-entity-Trip-15bfdc92-c22b-56f9-8fb0-ea400e825ad0-attr-5-type" class="er entityLabel">stringList</text><rect height="21" width="101.46875" y="108" x="57.0625" class="er attributeBoxOdd"/><text style="dominant-baseline: middle; font-size: 10.2px;" transform="translate(62.0625,118.5)" y="0" x="0" id="text-entity-Trip-15bfdc92-c22b-56f9-8fb0-ea400e825ad0-attr-5-name" class="er entityLabel">provider</text><rect height="21" width="57.0625" y="129" x="0" class="er attributeBoxEven"/><text style="dominant-baseline: middle; font-size: 10.2px;" transform="translate(5,139.5)" y="0" x="0" id="text-entity-Trip-15bfdc92-c22b-56f9-8fb0-ea400e825ad0-attr-6-type" class="er entityLabel">stringList</text><rect height="21" width="101.46875" y="129" x="57.0625" class="er attributeBoxEven"/><text style="dominant-baseline: middle; font-size: 10.2px;" transform="translate(62.0625,139.5)" y="0" x="0" id="text-entity-Trip-15bfdc92-c22b-56f9-8fb0-ea400e825ad0-attr-6-name" class="er entityLabel">additionalType</text><rect height="21" width="57.0625" y="150" x="0" class="er attributeBoxOdd"/><text style="dominant-baseline: middle; font-size: 10.2px;" transform="translate(5,160.5)" y="0" x="0" id="text-entity-Trip-15bfdc92-c22b-56f9-8fb0-ea400e825ad0-attr-7-type" class="er entityLabel">stringList</text><rect height="21" width="101.46875" y="150" x="57.0625" class="er attributeBoxOdd"/><text style="dominant-baseline: middle; font-size: 10.2px;" transform="translate(62.0625,160.5)" y="0" x="0" id="text-entity-Trip-15bfdc92-c22b-56f9-8fb0-ea400e825ad0-attr-7-name" class="er entityLabel">description</text><rect height="21" width="57.0625" y="171" x="0" class="er attributeBoxEven"/><text style="dominant-baseline: middle; font-size: 10.2px;" transform="translate(5,181.5)" y="0" x="0" id="text-entity-Trip-15bfdc92-c22b-56f9-8fb0-ea400e825ad0-attr-8-type" class="er entityLabel">stringList</text><rect height="21" width="101.46875" y="171" x="57.0625" class="er attributeBoxEven"/><text style="dominant-baseline: middle; font-size: 10.2px;" transform="translate(62.0625,181.5)" y="0" x="0" id="text-entity-Trip-15bfdc92-c22b-56f9-8fb0-ea400e825ad0-attr-8-name" class="er entityLabel">identifier</text><rect height="21" width="57.0625" y="192" x="0" class="er attributeBoxOdd"/><text style="dominant-baseline: middle; font-size: 10.2px;" transform="translate(5,202.5)" y="0" x="0" id="text-entity-Trip-15bfdc92-c22b-56f9-8fb0-ea400e825ad0-attr-9-type" class="er entityLabel">stringList</text><rect height="21" width="101.46875" y="192" x="57.0625" class="er attributeBoxOdd"/><text style="dominant-baseline: middle; font-size: 10.2px;" transform="translate(62.0625,202.5)" y="0" x="0" id="text-entity-Trip-15bfdc92-c22b-56f9-8fb0-ea400e825ad0-attr-9-name" class="er entityLabel">image</text><rect height="21" width="57.0625" y="213" x="0" class="er attributeBoxEven"/><text style="dominant-baseline: middle; font-size: 10.2px;" transform="translate(5,223.5)" y="0" x="0" id="text-entity-Trip-15bfdc92-c22b-56f9-8fb0-ea400e825ad0-attr-10-type" class="er entityLabel">stringList</text><rect height="21" width="101.46875" y="213" x="57.0625" class="er attributeBoxEven"/><text style="dominant-baseline: middle; font-size: 10.2px;" transform="translate(62.0625,223.5)" y="0" x="0" id="text-entity-Trip-15bfdc92-c22b-56f9-8fb0-ea400e825ad0-attr-10-name" class="er entityLabel">mainEntityOfPage</text><rect height="21" width="57.0625" y="234" x="0" class="er attributeBoxOdd"/><text style="dominant-baseline: middle; font-size: 10.2px;" transform="translate(5,244.5)" y="0" x="0" id="text-entity-Trip-15bfdc92-c22b-56f9-8fb0-ea400e825ad0-attr-11-type" class="er entityLabel">stringList</text><rect height="21" width="101.46875" y="234" x="57.0625" class="er attributeBoxOdd"/><text style="dominant-baseline: middle; font-size: 10.2px;" transform="translate(62.0625,244.5)" y="0" x="0" id="text-entity-Trip-15bfdc92-c22b-56f9-8fb0-ea400e825ad0-attr-11-name" class="er entityLabel">subjectOf</text></g><g transform="translate(20,375 )" id="entity-Place-18cedc50-4c85-52d4-b2dd-111465382dcf"><rect height="75" width="100" y="0" x="0" class="er entityBox"/><text style="dominant-baseline: middle; text-anchor: middle; font-size: 12px;" transform="translate(50,37.5)" y="0" x="0" id="text-entity-Place-18cedc50-4c85-52d4-b2dd-111465382dcf" class="er entityLabel">Place</text></g><g transform="translate(270,375 )" id="entity-Text-426c5d39-acfc-5487-a6d9-ede67887190e"><rect height="75" width="100" y="0" x="0" class="er entityBox"/><text style="dominant-baseline: middle; text-anchor: middle; font-size: 12px;" transform="translate(50,37.5)" y="0" x="0" id="text-entity-Text-426c5d39-acfc-5487-a6d9-ede67887190e" class="er entityLabel">Text</text></g><g transform="translate(470,375 )" id="entity-URL-07f78d3e-fd74-5925-b39b-26c1cc2d6b7c"><rect height="75" width="100" y="0" x="0" class="er entityBox"/><text style="dominant-baseline: middle; text-anchor: middle; font-size: 12px;" transform="translate(50,37.5)" y="0" x="0" id="text-entity-URL-07f78d3e-fd74-5925-b39b-26c1cc2d6b7c" class="er entityLabel">URL</text></g><g transform="translate(670,375 )" id="entity-Action-6cd87d9a-a078-546e-a35b-bee54f477b31"><rect height="75" width="100" y="0" x="0" class="er entityBox"/><text style="dominant-baseline: middle; text-anchor: middle; font-size: 12px;" transform="translate(50,37.5)" y="0" x="0" id="text-entity-Action-6cd87d9a-a078-546e-a35b-bee54f477b31" class="er entityLabel">Action</text></g><rect height="14" width="59.734375" y="140.5" x="521.4318237304688" class="er relationshipLabelBox"/><text style="text-anchor: middle; dominant-baseline: middle; font-size: 12px;" y="147.5" x="551.2990112304688" id="rel1" class="er relationshipLabel">partOfTrip</text><rect height="14" width="42.9375" y="140.49996948242188" x="633.71923828125" class="er relationshipLabelBox"/><text style="text-anchor: middle; dominant-baseline: middle; font-size: 12px;" y="147.49996948242188" x="655.18798828125" id="rel2" class="er relationshipLabel">subTrip</text><rect height="14" width="56.859375" y="263.5146484375" x="137.53143310546875" class="er relationshipLabelBox"/><text style="text-anchor: middle; dominant-baseline: middle; font-size: 12px;" y="270.5146484375" x="165.96112060546875" id="rel3" class="er relationshipLabel">tripOrigin</text><rect height="14" width="89.953125" y="292.3918151855469" x="168.58990478515625" class="er relationshipLabelBox"/><text style="text-anchor: middle; dominant-baseline: middle; font-size: 12px;" y="299.3918151855469" x="213.56646728515625" id="rel4" class="er relationshipLabel">alternateName</text><rect height="14" width="161.390625" y="317.9295654296875" x="198.8961181640625" class="er relationshipLabelBox"/><text style="text-anchor: middle; dominant-baseline: middle; font-size: 12px;" y="324.9295654296875" x="279.5914306640625" id="rel5" class="er relationshipLabel">disambiguatingDescription</text><rect height="14" width="34.03125" y="320.43841552734375" x="347.6085510253906" class="er relationshipLabelBox"/><text style="text-anchor: middle; dominant-baseline: middle; font-size: 12px;" y="327.43841552734375" x="364.6241760253906" id="rel6" class="er relationshipLabel">name</text><rect height="14" width="47.140625" y="318.1716003417969" x="446.7279052734375" class="er relationshipLabelBox"/><text style="text-anchor: middle; dominant-baseline: middle; font-size: 12px;" y="325.1716003417969" x="470.2982177734375" id="rel7" class="er relationshipLabel">sameAs</text><rect height="14" width="90.96875" y="259.15313720703125" x="556.277587890625" class="er relationshipLabelBox"/><text style="text-anchor: middle; dominant-baseline: middle; font-size: 12px;" y="266.15313720703125" x="601.761962890625" id="rel8" class="er relationshipLabel">potentialAction</text><rect height="14" width="15.875" y="280.2752685546875" x="516.0612182617188" class="er relationshipLabelBox"/><text style="text-anchor: middle; dominant-baseline: middle; font-size: 12px;" y="287.2752685546875" x="523.9987182617188" id="rel9" class="er relationshipLabel">url</text></svg>