<svg aria-roledescription="er" role="graphics-document document" viewBox="0 0 1115.4765625 407" style="max-width: 1115.48px; background-color: white;" xmlns:xlink="http://www.w3.org/1999/xlink" xmlns="http://www.w3.org/2000/svg" width="100%" id="my-svg"><style>#my-svg{font-family:"trebuchet ms",verdana,arial,sans-serif;font-size:16px;fill:#333;}#my-svg .error-icon{fill:#552222;}#my-svg .error-text{fill:#552222;stroke:#552222;}#my-svg .edge-thickness-normal{stroke-width:1px;}#my-svg .edge-thickness-thick{stroke-width:3.5px;}#my-svg .edge-pattern-solid{stroke-dasharray:0;}#my-svg .edge-thickness-invisible{stroke-width:0;fill:none;}#my-svg .edge-pattern-dashed{stroke-dasharray:3;}#my-svg .edge-pattern-dotted{stroke-dasharray:2;}#my-svg .marker{fill:#333333;stroke:#333333;}#my-svg .marker.cross{stroke:#333333;}#my-svg svg{font-family:"trebuchet ms",verdana,arial,sans-serif;font-size:16px;}#my-svg p{margin:0;}#my-svg .entityBox{fill:#ECECFF;stroke:#9370DB;}#my-svg .attributeBoxOdd{fill:#ffffff;stroke:#9370DB;}#my-svg .attributeBoxEven{fill:#f2f2f2;stroke:#9370DB;}#my-svg .relationshipLabelBox{fill:hsl(80, 100%, 96.2745098039%);opacity:0.7;background-color:hsl(80, 100%, 96.2745098039%);}#my-svg .relationshipLabelBox rect{opacity:0.5;}#my-svg .relationshipLine{stroke:#333333;}#my-svg .entityTitleText{text-anchor:middle;font-size:18px;fill:#333;}#my-svg #MD_PARENT_START{fill:#f5f5f5!important;stroke:#333333!important;stroke-width:1;}#my-svg #MD_PARENT_END{fill:#f5f5f5!important;stroke:#333333!important;stroke-width:1;}#my-svg :root{--mermaid-font-family:"trebuchet ms",verdana,arial,sans-serif;}</style><g/><defs><marker orient="auto" markerHeight="240" markerWidth="190" refY="7" refX="0" id="MD_PARENT_START"><path d="M 18,7 L9,13 L1,7 L9,1 Z"/></marker></defs><defs><marker orient="auto" markerHeight="28" markerWidth="20" refY="7" refX="19" id="MD_PARENT_END"><path d="M 18,7 L9,13 L1,7 L9,1 Z"/></marker></defs><defs><marker orient="auto" markerHeight="18" markerWidth="18" refY="9" refX="0" id="ONLY_ONE_START"><path d="M9,0 L9,18 M15,0 L15,18" fill="none" stroke="gray"/></marker></defs><defs><marker orient="auto" markerHeight="18" markerWidth="18" refY="9" refX="18" id="ONLY_ONE_END"><path d="M3,0 L3,18 M9,0 L9,18" fill="none" stroke="gray"/></marker></defs><defs><marker orient="auto" markerHeight="18" markerWidth="30" refY="9" refX="0" id="ZERO_OR_ONE_START"><circle r="6" cy="9" cx="21" fill="white" stroke="gray"/><path d="M9,0 L9,18" fill="none" stroke="gray"/></marker></defs><defs><marker orient="auto" markerHeight="18" markerWidth="30" refY="9" refX="30" id="ZERO_OR_ONE_END"><circle r="6" cy="9" cx="9" fill="white" stroke="gray"/><path d="M21,0 L21,18" fill="none" stroke="gray"/></marker></defs><defs><marker orient="auto" markerHeight="36" markerWidth="45" refY="18" refX="18" id="ONE_OR_MORE_START"><path d="M0,18 Q 18,0 36,18 Q 18,36 0,18 M42,9 L42,27" fill="none" stroke="gray"/></marker></defs><defs><marker orient="auto" markerHeight="36" markerWidth="45" refY="18" refX="27" id="ONE_OR_MORE_END"><path d="M3,9 L3,27 M9,18 Q27,0 45,18 Q27,36 9,18" fill="none" stroke="gray"/></marker></defs><defs><marker orient="auto" markerHeight="36" markerWidth="57" refY="18" refX="18" id="ZERO_OR_MORE_START"><circle r="6" cy="18" cx="48" fill="white" stroke="gray"/><path d="M0,18 Q18,0 36,18 Q18,36 0,18" fill="none" stroke="gray"/></marker></defs><defs><marker orient="auto" markerHeight="36" markerWidth="57" refY="18" refX="39" id="ZERO_OR_MORE_END"><circle r="6" cy="18" cx="9" fill="white" stroke="gray"/><path d="M21,18 Q39,0 57,18 Q39,36 21,18" fill="none" stroke="gray"/></marker></defs><path style="stroke: gray; fill: none;" marker-start="url(#ONLY_ONE_START)" marker-end="url(#ZERO_OR_MORE_END)" d="M562.891,136.952L480.742,157.794C398.594,178.635,234.297,220.317,152.148,249.492C70,278.667,70,295.333,70,303.667L70,312" class="er relationshipLine"/><path style="stroke: gray; fill: none;" marker-start="url(#ONLY_ONE_START)" marker-end="url(#ZERO_OR_MORE_END)" d="M562.891,149.634L516.906,168.362C470.922,187.089,378.953,224.545,332.969,251.606C286.984,278.667,286.984,295.333,286.984,303.667L286.984,312" class="er relationshipLine"/><path style="stroke: gray; fill: none;" marker-start="url(#ONLY_ONE_START)" marker-end="url(#ZERO_OR_MORE_END)" d="M562.891,164.23L534.988,180.525C507.086,196.82,451.281,229.41,440.046,255.427C428.81,281.444,462.143,300.889,478.81,310.611L495.477,320.333" class="er relationshipLine"/><path style="stroke: gray; fill: none;" marker-start="url(#ONLY_ONE_START)" marker-end="url(#ZERO_OR_MORE_END)" d="M562.891,196.384L551.655,207.32C540.419,218.256,517.948,240.128,511.474,259.397C505,278.667,514.524,295.333,519.286,303.667L524.048,312" class="er relationshipLine"/><path style="stroke: gray; fill: none;" marker-start="url(#ONLY_ONE_START)" marker-end="url(#ZERO_OR_MORE_END)" d="M612.6,212L609.746,220.333C606.892,228.667,601.184,245.333,593.569,262C585.953,278.667,576.429,295.333,571.667,303.667L566.905,312" class="er relationshipLine"/><path style="stroke: gray; fill: none;" marker-start="url(#ONLY_ONE_START)" marker-end="url(#ZERO_OR_MORE_END)" d="M678.353,212L681.207,220.333C684.061,228.667,689.769,245.333,675.956,263.389C662.143,281.444,628.81,300.889,612.143,310.611L595.477,320.333" class="er relationshipLine"/><path style="stroke: gray; fill: none;" marker-start="url(#ONLY_ONE_START)" marker-end="url(#ZERO_OR_MORE_END)" d="M728.063,196.384L739.298,207.32C750.534,218.256,773.005,240.128,789.003,259.397C805,278.667,814.524,295.333,819.286,303.667L824.048,312" class="er relationshipLine"/><path style="stroke: gray; fill: none;" marker-start="url(#ONLY_ONE_START)" marker-end="url(#ZERO_OR_MORE_END)" d="M728.063,146.144L780.965,165.453C833.867,184.763,939.672,223.381,992.574,251.024C1045.477,278.667,1045.477,295.333,1045.477,303.667L1045.477,312" class="er relationshipLine"/><path style="stroke: gray; fill: none;" marker-start="url(#ONLY_ONE_START)" marker-end="url(#ZERO_OR_MORE_END)" d="M728.063,164.23L755.965,180.525C783.867,196.82,839.672,229.41,862.812,254.038C885.953,278.667,876.429,295.333,871.667,303.667L866.905,312" class="er relationshipLine"/><g transform="translate(562.890625,20 )" id="entity-TypeAndQuantityNode-b8191cb8-1d4b-5223-ab1a-a515125d7d9b"><rect height="192" width="165.171875" y="0" x="0" class="er entityBox"/><text style="dominant-baseline: middle; text-anchor: middle; font-size: 12px;" transform="translate(82.5859375,12)" y="0" x="0" id="text-entity-TypeAndQuantityNode-b8191cb8-1d4b-5223-ab1a-a515125d7d9b" class="er entityLabel">TypeAndQuantityNode</text><rect height="21" width="60.3828125" y="24" x="0" class="er attributeBoxOdd"/><text style="dominant-baseline: middle; font-size: 10.2px;" transform="translate(5,34.5)" y="0" x="0" id="text-entity-TypeAndQuantityNode-b8191cb8-1d4b-5223-ab1a-a515125d7d9b-attr-1-type" class="er entityLabel">stringList</text><rect height="21" width="104.7890625" y="24" x="60.3828125" class="er attributeBoxOdd"/><text style="dominant-baseline: middle; font-size: 10.2px;" transform="translate(65.3828125,34.5)" y="0" x="0" id="text-entity-TypeAndQuantityNode-b8191cb8-1d4b-5223-ab1a-a515125d7d9b-attr-1-name" class="er entityLabel">typeOfGood</text><rect height="21" width="60.3828125" y="45" x="0" class="er attributeBoxEven"/><text style="dominant-baseline: middle; font-size: 10.2px;" transform="translate(5,55.5)" y="0" x="0" id="text-entity-TypeAndQuantityNode-b8191cb8-1d4b-5223-ab1a-a515125d7d9b-attr-2-type" class="er entityLabel">stringList</text><rect height="21" width="104.7890625" y="45" x="60.3828125" class="er attributeBoxEven"/><text style="dominant-baseline: middle; font-size: 10.2px;" transform="translate(65.3828125,55.5)" y="0" x="0" id="text-entity-TypeAndQuantityNode-b8191cb8-1d4b-5223-ab1a-a515125d7d9b-attr-2-name" class="er entityLabel">unitCode</text><rect height="21" width="60.3828125" y="66" x="0" class="er attributeBoxOdd"/><text style="dominant-baseline: middle; font-size: 10.2px;" transform="translate(5,76.5)" y="0" x="0" id="text-entity-TypeAndQuantityNode-b8191cb8-1d4b-5223-ab1a-a515125d7d9b-attr-3-type" class="er entityLabel">stringList</text><rect height="21" width="104.7890625" y="66" x="60.3828125" class="er attributeBoxOdd"/><text style="dominant-baseline: middle; font-size: 10.2px;" transform="translate(65.3828125,76.5)" y="0" x="0" id="text-entity-TypeAndQuantityNode-b8191cb8-1d4b-5223-ab1a-a515125d7d9b-attr-3-name" class="er entityLabel">additionalType</text><rect height="21" width="60.3828125" y="87" x="0" class="er attributeBoxEven"/><text style="dominant-baseline: middle; font-size: 10.2px;" transform="translate(5,97.5)" y="0" x="0" id="text-entity-TypeAndQuantityNode-b8191cb8-1d4b-5223-ab1a-a515125d7d9b-attr-4-type" class="er entityLabel">stringList</text><rect height="21" width="104.7890625" y="87" x="60.3828125" class="er attributeBoxEven"/><text style="dominant-baseline: middle; font-size: 10.2px;" transform="translate(65.3828125,97.5)" y="0" x="0" id="text-entity-TypeAndQuantityNode-b8191cb8-1d4b-5223-ab1a-a515125d7d9b-attr-4-name" class="er entityLabel">description</text><rect height="21" width="60.3828125" y="108" x="0" class="er attributeBoxOdd"/><text style="dominant-baseline: middle; font-size: 10.2px;" transform="translate(5,118.5)" y="0" x="0" id="text-entity-TypeAndQuantityNode-b8191cb8-1d4b-5223-ab1a-a515125d7d9b-attr-5-type" class="er entityLabel">stringList</text><rect height="21" width="104.7890625" y="108" x="60.3828125" class="er attributeBoxOdd"/><text style="dominant-baseline: middle; font-size: 10.2px;" transform="translate(65.3828125,118.5)" y="0" x="0" id="text-entity-TypeAndQuantityNode-b8191cb8-1d4b-5223-ab1a-a515125d7d9b-attr-5-name" class="er entityLabel">identifier</text><rect height="21" width="60.3828125" y="129" x="0" class="er attributeBoxEven"/><text style="dominant-baseline: middle; font-size: 10.2px;" transform="translate(5,139.5)" y="0" x="0" id="text-entity-TypeAndQuantityNode-b8191cb8-1d4b-5223-ab1a-a515125d7d9b-attr-6-type" class="er entityLabel">stringList</text><rect height="21" width="104.7890625" y="129" x="60.3828125" class="er attributeBoxEven"/><text style="dominant-baseline: middle; font-size: 10.2px;" transform="translate(65.3828125,139.5)" y="0" x="0" id="text-entity-TypeAndQuantityNode-b8191cb8-1d4b-5223-ab1a-a515125d7d9b-attr-6-name" class="er entityLabel">image</text><rect height="21" width="60.3828125" y="150" x="0" class="er attributeBoxOdd"/><text style="dominant-baseline: middle; font-size: 10.2px;" transform="translate(5,160.5)" y="0" x="0" id="text-entity-TypeAndQuantityNode-b8191cb8-1d4b-5223-ab1a-a515125d7d9b-attr-7-type" class="er entityLabel">stringList</text><rect height="21" width="104.7890625" y="150" x="60.3828125" class="er attributeBoxOdd"/><text style="dominant-baseline: middle; font-size: 10.2px;" transform="translate(65.3828125,160.5)" y="0" x="0" id="text-entity-TypeAndQuantityNode-b8191cb8-1d4b-5223-ab1a-a515125d7d9b-attr-7-name" class="er entityLabel">mainEntityOfPage</text><rect height="21" width="60.3828125" y="171" x="0" class="er attributeBoxEven"/><text style="dominant-baseline: middle; font-size: 10.2px;" transform="translate(5,181.5)" y="0" x="0" id="text-entity-TypeAndQuantityNode-b8191cb8-1d4b-5223-ab1a-a515125d7d9b-attr-8-type" class="er entityLabel">stringList</text><rect height="21" width="104.7890625" y="171" x="60.3828125" class="er attributeBoxEven"/><text style="dominant-baseline: middle; font-size: 10.2px;" transform="translate(65.3828125,181.5)" y="0" x="0" id="text-entity-TypeAndQuantityNode-b8191cb8-1d4b-5223-ab1a-a515125d7d9b-attr-8-name" class="er entityLabel">subjectOf</text></g><g transform="translate(20,312 )" id="entity-Number-03723608-6bf1-5294-8c7e-b493e3224412"><rect height="75" width="100" y="0" x="0" class="er entityBox"/><text style="dominant-baseline: middle; text-anchor: middle; font-size: 12px;" transform="translate(50,37.5)" y="0" x="0" id="text-entity-Number-03723608-6bf1-5294-8c7e-b493e3224412" class="er entityLabel">Number</text></g><g transform="translate(220,312 )" id="entity-BusinessFunction-35de28b4-c5ef-5fb1-8513-8c3a413cdd89"><rect height="75" width="133.96875" y="0" x="0" class="er entityBox"/><text style="dominant-baseline: middle; text-anchor: middle; font-size: 12px;" transform="translate(66.984375,37.5)" y="0" x="0" id="text-entity-BusinessFunction-35de28b4-c5ef-5fb1-8513-8c3a413cdd89" class="er entityLabel">BusinessFunction</text></g><g transform="translate(495.4765625,312 )" id="entity-Text-426c5d39-acfc-5487-a6d9-ede67887190e"><rect height="75" width="100" y="0" x="0" class="er entityBox"/><text style="dominant-baseline: middle; text-anchor: middle; font-size: 12px;" transform="translate(50,37.5)" y="0" x="0" id="text-entity-Text-426c5d39-acfc-5487-a6d9-ede67887190e" class="er entityLabel">Text</text></g><g transform="translate(795.4765625,312 )" id="entity-URL-07f78d3e-fd74-5925-b39b-26c1cc2d6b7c"><rect height="75" width="100" y="0" x="0" class="er entityBox"/><text style="dominant-baseline: middle; text-anchor: middle; font-size: 12px;" transform="translate(50,37.5)" y="0" x="0" id="text-entity-URL-07f78d3e-fd74-5925-b39b-26c1cc2d6b7c" class="er entityLabel">URL</text></g><g transform="translate(995.4765625,312 )" id="entity-Action-6cd87d9a-a078-546e-a35b-bee54f477b31"><rect height="75" width="100" y="0" x="0" class="er entityBox"/><text style="dominant-baseline: middle; text-anchor: middle; font-size: 12px;" transform="translate(50,37.5)" y="0" x="0" id="text-entity-Action-6cd87d9a-a078-546e-a35b-bee54f477b31" class="er entityLabel">Action</text></g><rect height="14" width="116.09375" y="197.2243194580078" x="244.76907348632812" class="er relationshipLabelBox"/><text style="text-anchor: middle; dominant-baseline: middle; font-size: 12px;" y="204.2243194580078" x="302.8159484863281" id="rel1" class="er relationshipLabel">amountOfThisGood</text><rect height="14" width="103.34375" y="206.73191833496094" x="357.7284240722656" class="er relationshipLabelBox"/><text style="text-anchor: middle; dominant-baseline: middle; font-size: 12px;" y="213.73191833496094" x="409.4002990722656" id="rel2" class="er relationshipLabel">businessFunction</text><rect height="14" width="47.814453125" y="224.8163299560547" x="435.25244140625" class="er relationshipLabelBox"/><text style="text-anchor: middle; dominant-baseline: middle; font-size: 12px;" y="231.8163299560547" x="459.15966796875" id="rel3" class="er relationshipLabel">unitText</text><rect height="14" width="89.953125" y="240.70953369140625" x="472.03765869140625" class="er relationshipLabelBox"/><text style="text-anchor: middle; dominant-baseline: middle; font-size: 12px;" y="247.70953369140625" x="517.0142211914062" id="rel4" class="er relationshipLabel">alternateName</text><rect height="14" width="161.390625" y="256.43634033203125" x="512.2124633789062" class="er relationshipLabelBox"/><text style="text-anchor: middle; dominant-baseline: middle; font-size: 12px;" y="263.43634033203125" x="592.9077758789062" id="rel5" class="er relationshipLabel">disambiguatingDescription</text><rect height="14" width="34.03125" y="272.0514221191406" x="643.0343017578125" class="er relationshipLabelBox"/><text style="text-anchor: middle; dominant-baseline: middle; font-size: 12px;" y="279.0514221191406" x="660.0499267578125" id="rel6" class="er relationshipLabel">name</text><rect height="14" width="47.140625" y="243.160400390625" x="757.4688720703125" class="er relationshipLabelBox"/><text style="text-anchor: middle; dominant-baseline: middle; font-size: 12px;" y="250.160400390625" x="781.0391845703125" id="rel7" class="er relationshipLabel">sameAs</text><rect height="14" width="90.96875" y="204.10208129882812" x="856.4528198242188" class="er relationshipLabelBox"/><text style="text-anchor: middle; dominant-baseline: middle; font-size: 12px;" y="211.10208129882812" x="901.9371948242188" id="rel8" class="er relationshipLabel">potentialAction</text><rect height="14" width="15.875" y="216.3665008544922" x="816.9758911132812" class="er relationshipLabelBox"/><text style="text-anchor: middle; dominant-baseline: middle; font-size: 12px;" y="223.3665008544922" x="824.9133911132812" id="rel9" class="er relationshipLabel">url</text></svg>