<svg aria-roledescription="er" role="graphics-document document" viewBox="0 0 1200.24609375 764" style="max-width: 1200.25px; background-color: white;" xmlns:xlink="http://www.w3.org/1999/xlink" xmlns="http://www.w3.org/2000/svg" width="100%" id="my-svg"><style>#my-svg{font-family:"trebuchet ms",verdana,arial,sans-serif;font-size:16px;fill:#333;}#my-svg .error-icon{fill:#552222;}#my-svg .error-text{fill:#552222;stroke:#552222;}#my-svg .edge-thickness-normal{stroke-width:1px;}#my-svg .edge-thickness-thick{stroke-width:3.5px;}#my-svg .edge-pattern-solid{stroke-dasharray:0;}#my-svg .edge-thickness-invisible{stroke-width:0;fill:none;}#my-svg .edge-pattern-dashed{stroke-dasharray:3;}#my-svg .edge-pattern-dotted{stroke-dasharray:2;}#my-svg .marker{fill:#333333;stroke:#333333;}#my-svg .marker.cross{stroke:#333333;}#my-svg svg{font-family:"trebuchet ms",verdana,arial,sans-serif;font-size:16px;}#my-svg p{margin:0;}#my-svg .entityBox{fill:#ECECFF;stroke:#9370DB;}#my-svg .attributeBoxOdd{fill:#ffffff;stroke:#9370DB;}#my-svg .attributeBoxEven{fill:#f2f2f2;stroke:#9370DB;}#my-svg .relationshipLabelBox{fill:hsl(80, 100%, 96.2745098039%);opacity:0.7;background-color:hsl(80, 100%, 96.2745098039%);}#my-svg .relationshipLabelBox rect{opacity:0.5;}#my-svg .relationshipLine{stroke:#333333;}#my-svg .entityTitleText{text-anchor:middle;font-size:18px;fill:#333;}#my-svg #MD_PARENT_START{fill:#f5f5f5!important;stroke:#333333!important;stroke-width:1;}#my-svg #MD_PARENT_END{fill:#f5f5f5!important;stroke:#333333!important;stroke-width:1;}#my-svg :root{--mermaid-font-family:"trebuchet ms",verdana,arial,sans-serif;}</style><g/><defs><marker orient="auto" markerHeight="240" markerWidth="190" refY="7" refX="0" id="MD_PARENT_START"><path d="M 18,7 L9,13 L1,7 L9,1 Z"/></marker></defs><defs><marker orient="auto" markerHeight="28" markerWidth="20" refY="7" refX="19" id="MD_PARENT_END"><path d="M 18,7 L9,13 L1,7 L9,1 Z"/></marker></defs><defs><marker orient="auto" markerHeight="18" markerWidth="18" refY="9" refX="0" id="ONLY_ONE_START"><path d="M9,0 L9,18 M15,0 L15,18" fill="none" stroke="gray"/></marker></defs><defs><marker orient="auto" markerHeight="18" markerWidth="18" refY="9" refX="18" id="ONLY_ONE_END"><path d="M3,0 L3,18 M9,0 L9,18" fill="none" stroke="gray"/></marker></defs><defs><marker orient="auto" markerHeight="18" markerWidth="30" refY="9" refX="0" id="ZERO_OR_ONE_START"><circle r="6" cy="9" cx="21" fill="white" stroke="gray"/><path d="M9,0 L9,18" fill="none" stroke="gray"/></marker></defs><defs><marker orient="auto" markerHeight="18" markerWidth="30" refY="9" refX="30" id="ZERO_OR_ONE_END"><circle r="6" cy="9" cx="9" fill="white" stroke="gray"/><path d="M21,0 L21,18" fill="none" stroke="gray"/></marker></defs><defs><marker orient="auto" markerHeight="36" markerWidth="45" refY="18" refX="18" id="ONE_OR_MORE_START"><path d="M0,18 Q 18,0 36,18 Q 18,36 0,18 M42,9 L42,27" fill="none" stroke="gray"/></marker></defs><defs><marker orient="auto" markerHeight="36" markerWidth="45" refY="18" refX="27" id="ONE_OR_MORE_END"><path d="M3,9 L3,27 M9,18 Q27,0 45,18 Q27,36 9,18" fill="none" stroke="gray"/></marker></defs><defs><marker orient="auto" markerHeight="36" markerWidth="57" refY="18" refX="18" id="ZERO_OR_MORE_START"><circle r="6" cy="18" cx="48" fill="white" stroke="gray"/><path d="M0,18 Q18,0 36,18 Q18,36 0,18" fill="none" stroke="gray"/></marker></defs><defs><marker orient="auto" markerHeight="36" markerWidth="57" refY="18" refX="39" id="ZERO_OR_MORE_END"><circle r="6" cy="18" cx="9" fill="white" stroke="gray"/><path d="M21,18 Q39,0 57,18 Q39,36 21,18" fill="none" stroke="gray"/></marker></defs><path style="stroke: gray; fill: none;" marker-start="url(#ONLY_ONE_START)" marker-end="url(#ZERO_OR_MORE_END)" d="M501.373,368.686L440.616,410.405C379.858,452.124,258.343,535.562,197.586,585.614C136.828,635.667,136.828,652.333,136.828,660.667L136.828,669" class="er relationshipLine"/><path style="stroke: gray; fill: none;" marker-start="url(#ONLY_ONE_START)" marker-end="url(#ZERO_OR_MORE_END)" d="M501.373,419.813L472.751,453.011C444.129,486.209,386.885,552.604,367.102,594.136C347.319,635.667,364.998,652.333,373.837,660.667L382.676,669" class="er relationshipLine"/><path style="stroke: gray; fill: none;" marker-start="url(#ONLY_ONE_START)" marker-end="url(#ZERO_OR_MORE_END)" d="M509.189,569L506.147,577.333C503.104,585.667,497.019,602.333,487.454,619C477.89,635.667,464.846,652.333,458.324,660.667L451.802,669" class="er relationshipLine"/><path style="stroke: gray; fill: none;" marker-start="url(#ONLY_ONE_START)" marker-end="url(#ZERO_OR_MORE_END)" d="M651.71,569L652.994,577.333C654.278,585.667,656.846,602.333,658.13,619C659.414,635.667,659.414,652.333,659.414,660.667L659.414,669" class="er relationshipLine"/><path style="stroke: gray; fill: none;" marker-start="url(#ONLY_ONE_START)" marker-end="url(#ZERO_OR_MORE_END)" d="M717.455,413.548L748.531,447.79C779.607,482.032,841.76,550.516,872.836,593.091C903.912,635.667,903.912,652.333,903.912,660.667L903.912,669" class="er relationshipLine"/><path style="stroke: gray; fill: none;" marker-start="url(#ONLY_ONE_START)" marker-end="url(#ZERO_OR_MORE_END)" d="M717.455,361.814L786.254,404.678C855.052,447.543,992.649,533.271,1061.448,584.469C1130.246,635.667,1130.246,652.333,1130.246,660.667L1130.246,669" class="er relationshipLine"/><g transform="translate(501.3731384277344,20 )" id="entity-UnitPriceSpecification-45b45016-0820-5d33-bffc-3f5784ddc9d3"><rect height="549" width="216.08184814453125" y="0" x="0" class="er entityBox"/><text style="dominant-baseline: middle; text-anchor: middle; font-size: 12px;" transform="translate(108.04092407226562,12)" y="0" x="0" id="text-entity-UnitPriceSpecification-45b45016-0820-5d33-bffc-3f5784ddc9d3" class="er entityLabel">UnitPriceSpecification</text><rect height="21" width="69.06622314453125" y="24" x="0" class="er attributeBoxOdd"/><text style="dominant-baseline: middle; font-size: 10.2px;" transform="translate(5,34.5)" y="0" x="0" id="text-entity-UnitPriceSpecification-45b45016-0820-5d33-bffc-3f5784ddc9d3-attr-1-type" class="er entityLabel">stringList</text><rect height="21" width="147.015625" y="24" x="69.06622314453125" class="er attributeBoxOdd"/><text style="dominant-baseline: middle; font-size: 10.2px;" transform="translate(74.06622314453125,34.5)" y="0" x="0" id="text-entity-UnitPriceSpecification-45b45016-0820-5d33-bffc-3f5784ddc9d3-attr-1-name" class="er entityLabel">billingDuration</text><rect height="21" width="69.06622314453125" y="45" x="0" class="er attributeBoxEven"/><text style="dominant-baseline: middle; font-size: 10.2px;" transform="translate(5,55.5)" y="0" x="0" id="text-entity-UnitPriceSpecification-45b45016-0820-5d33-bffc-3f5784ddc9d3-attr-2-type" class="er entityLabel">NumberList</text><rect height="21" width="147.015625" y="45" x="69.06622314453125" class="er attributeBoxEven"/><text style="dominant-baseline: middle; font-size: 10.2px;" transform="translate(74.06622314453125,55.5)" y="0" x="0" id="text-entity-UnitPriceSpecification-45b45016-0820-5d33-bffc-3f5784ddc9d3-attr-2-name" class="er entityLabel">billingIncrement</text><rect height="21" width="69.06622314453125" y="66" x="0" class="er attributeBoxOdd"/><text style="dominant-baseline: middle; font-size: 10.2px;" transform="translate(5,76.5)" y="0" x="0" id="text-entity-UnitPriceSpecification-45b45016-0820-5d33-bffc-3f5784ddc9d3-attr-3-type" class="er entityLabel">NumberList</text><rect height="21" width="147.015625" y="66" x="69.06622314453125" class="er attributeBoxOdd"/><text style="dominant-baseline: middle; font-size: 10.2px;" transform="translate(74.06622314453125,76.5)" y="0" x="0" id="text-entity-UnitPriceSpecification-45b45016-0820-5d33-bffc-3f5784ddc9d3-attr-3-name" class="er entityLabel">billingStart</text><rect height="21" width="69.06622314453125" y="87" x="0" class="er attributeBoxEven"/><text style="dominant-baseline: middle; font-size: 10.2px;" transform="translate(5,97.5)" y="0" x="0" id="text-entity-UnitPriceSpecification-45b45016-0820-5d33-bffc-3f5784ddc9d3-attr-4-type" class="er entityLabel">stringList</text><rect height="21" width="147.015625" y="87" x="69.06622314453125" class="er attributeBoxEven"/><text style="dominant-baseline: middle; font-size: 10.2px;" transform="translate(74.06622314453125,97.5)" y="0" x="0" id="text-entity-UnitPriceSpecification-45b45016-0820-5d33-bffc-3f5784ddc9d3-attr-4-name" class="er entityLabel">priceType</text><rect height="21" width="69.06622314453125" y="108" x="0" class="er attributeBoxOdd"/><text style="dominant-baseline: middle; font-size: 10.2px;" transform="translate(5,118.5)" y="0" x="0" id="text-entity-UnitPriceSpecification-45b45016-0820-5d33-bffc-3f5784ddc9d3-attr-5-type" class="er entityLabel">stringList</text><rect height="21" width="147.015625" y="108" x="69.06622314453125" class="er attributeBoxOdd"/><text style="dominant-baseline: middle; font-size: 10.2px;" transform="translate(74.06622314453125,118.5)" y="0" x="0" id="text-entity-UnitPriceSpecification-45b45016-0820-5d33-bffc-3f5784ddc9d3-attr-5-name" class="er entityLabel">unitCode</text><rect height="21" width="69.06622314453125" y="129" x="0" class="er attributeBoxEven"/><text style="dominant-baseline: middle; font-size: 10.2px;" transform="translate(5,139.5)" y="0" x="0" id="text-entity-UnitPriceSpecification-45b45016-0820-5d33-bffc-3f5784ddc9d3-attr-6-type" class="er entityLabel">TextList</text><rect height="21" width="147.015625" y="129" x="69.06622314453125" class="er attributeBoxEven"/><text style="dominant-baseline: middle; font-size: 10.2px;" transform="translate(74.06622314453125,139.5)" y="0" x="0" id="text-entity-UnitPriceSpecification-45b45016-0820-5d33-bffc-3f5784ddc9d3-attr-6-name" class="er entityLabel">unitText</text><rect height="21" width="69.06622314453125" y="150" x="0" class="er attributeBoxOdd"/><text style="dominant-baseline: middle; font-size: 10.2px;" transform="translate(5,160.5)" y="0" x="0" id="text-entity-UnitPriceSpecification-45b45016-0820-5d33-bffc-3f5784ddc9d3-attr-7-type" class="er entityLabel">NumberList</text><rect height="21" width="147.015625" y="150" x="69.06622314453125" class="er attributeBoxOdd"/><text style="dominant-baseline: middle; font-size: 10.2px;" transform="translate(74.06622314453125,160.5)" y="0" x="0" id="text-entity-UnitPriceSpecification-45b45016-0820-5d33-bffc-3f5784ddc9d3-attr-7-name" class="er entityLabel">maxPrice</text><rect height="21" width="69.06622314453125" y="171" x="0" class="er attributeBoxEven"/><text style="dominant-baseline: middle; font-size: 10.2px;" transform="translate(5,181.5)" y="0" x="0" id="text-entity-UnitPriceSpecification-45b45016-0820-5d33-bffc-3f5784ddc9d3-attr-8-type" class="er entityLabel">stringList</text><rect height="21" width="147.015625" y="171" x="69.06622314453125" class="er attributeBoxEven"/><text style="dominant-baseline: middle; font-size: 10.2px;" transform="translate(74.06622314453125,181.5)" y="0" x="0" id="text-entity-UnitPriceSpecification-45b45016-0820-5d33-bffc-3f5784ddc9d3-attr-8-name" class="er entityLabel">membershipPointsEarned</text><rect height="21" width="69.06622314453125" y="192" x="0" class="er attributeBoxOdd"/><text style="dominant-baseline: middle; font-size: 10.2px;" transform="translate(5,202.5)" y="0" x="0" id="text-entity-UnitPriceSpecification-45b45016-0820-5d33-bffc-3f5784ddc9d3-attr-9-type" class="er entityLabel">NumberList</text><rect height="21" width="147.015625" y="192" x="69.06622314453125" class="er attributeBoxOdd"/><text style="dominant-baseline: middle; font-size: 10.2px;" transform="translate(74.06622314453125,202.5)" y="0" x="0" id="text-entity-UnitPriceSpecification-45b45016-0820-5d33-bffc-3f5784ddc9d3-attr-9-name" class="er entityLabel">minPrice</text><rect height="21" width="69.06622314453125" y="213" x="0" class="er attributeBoxEven"/><text style="dominant-baseline: middle; font-size: 10.2px;" transform="translate(5,223.5)" y="0" x="0" id="text-entity-UnitPriceSpecification-45b45016-0820-5d33-bffc-3f5784ddc9d3-attr-10-type" class="er entityLabel">stringList</text><rect height="21" width="147.015625" y="213" x="69.06622314453125" class="er attributeBoxEven"/><text style="dominant-baseline: middle; font-size: 10.2px;" transform="translate(74.06622314453125,223.5)" y="0" x="0" id="text-entity-UnitPriceSpecification-45b45016-0820-5d33-bffc-3f5784ddc9d3-attr-10-name" class="er entityLabel">price</text><rect height="21" width="69.06622314453125" y="234" x="0" class="er attributeBoxOdd"/><text style="dominant-baseline: middle; font-size: 10.2px;" transform="translate(5,244.5)" y="0" x="0" id="text-entity-UnitPriceSpecification-45b45016-0820-5d33-bffc-3f5784ddc9d3-attr-11-type" class="er entityLabel">TextList</text><rect height="21" width="147.015625" y="234" x="69.06622314453125" class="er attributeBoxOdd"/><text style="dominant-baseline: middle; font-size: 10.2px;" transform="translate(74.06622314453125,244.5)" y="0" x="0" id="text-entity-UnitPriceSpecification-45b45016-0820-5d33-bffc-3f5784ddc9d3-attr-11-name" class="er entityLabel">priceCurrency</text><rect height="21" width="69.06622314453125" y="255" x="0" class="er attributeBoxEven"/><text style="dominant-baseline: middle; font-size: 10.2px;" transform="translate(5,265.5)" y="0" x="0" id="text-entity-UnitPriceSpecification-45b45016-0820-5d33-bffc-3f5784ddc9d3-attr-12-type" class="er entityLabel">stringList</text><rect height="21" width="147.015625" y="255" x="69.06622314453125" class="er attributeBoxEven"/><text style="dominant-baseline: middle; font-size: 10.2px;" transform="translate(74.06622314453125,265.5)" y="0" x="0" id="text-entity-UnitPriceSpecification-45b45016-0820-5d33-bffc-3f5784ddc9d3-attr-12-name" class="er entityLabel">validFrom</text><rect height="21" width="69.06622314453125" y="276" x="0" class="er attributeBoxOdd"/><text style="dominant-baseline: middle; font-size: 10.2px;" transform="translate(5,286.5)" y="0" x="0" id="text-entity-UnitPriceSpecification-45b45016-0820-5d33-bffc-3f5784ddc9d3-attr-13-type" class="er entityLabel">stringList</text><rect height="21" width="147.015625" y="276" x="69.06622314453125" class="er attributeBoxOdd"/><text style="dominant-baseline: middle; font-size: 10.2px;" transform="translate(74.06622314453125,286.5)" y="0" x="0" id="text-entity-UnitPriceSpecification-45b45016-0820-5d33-bffc-3f5784ddc9d3-attr-13-name" class="er entityLabel">validThrough</text><rect height="21" width="69.06622314453125" y="297" x="0" class="er attributeBoxEven"/><text style="dominant-baseline: middle; font-size: 10.2px;" transform="translate(5,307.5)" y="0" x="0" id="text-entity-UnitPriceSpecification-45b45016-0820-5d33-bffc-3f5784ddc9d3-attr-14-type" class="er entityLabel">BooleanList</text><rect height="21" width="147.015625" y="297" x="69.06622314453125" class="er attributeBoxEven"/><text style="dominant-baseline: middle; font-size: 10.2px;" transform="translate(74.06622314453125,307.5)" y="0" x="0" id="text-entity-UnitPriceSpecification-45b45016-0820-5d33-bffc-3f5784ddc9d3-attr-14-name" class="er entityLabel">valueAddedTaxIncluded</text><rect height="21" width="69.06622314453125" y="318" x="0" class="er attributeBoxOdd"/><text style="dominant-baseline: middle; font-size: 10.2px;" transform="translate(5,328.5)" y="0" x="0" id="text-entity-UnitPriceSpecification-45b45016-0820-5d33-bffc-3f5784ddc9d3-attr-15-type" class="er entityLabel">stringList</text><rect height="21" width="147.015625" y="318" x="69.06622314453125" class="er attributeBoxOdd"/><text style="dominant-baseline: middle; font-size: 10.2px;" transform="translate(74.06622314453125,328.5)" y="0" x="0" id="text-entity-UnitPriceSpecification-45b45016-0820-5d33-bffc-3f5784ddc9d3-attr-15-name" class="er entityLabel">additionalType</text><rect height="21" width="69.06622314453125" y="339" x="0" class="er attributeBoxEven"/><text style="dominant-baseline: middle; font-size: 10.2px;" transform="translate(5,349.5)" y="0" x="0" id="text-entity-UnitPriceSpecification-45b45016-0820-5d33-bffc-3f5784ddc9d3-attr-16-type" class="er entityLabel">TextList</text><rect height="21" width="147.015625" y="339" x="69.06622314453125" class="er attributeBoxEven"/><text style="dominant-baseline: middle; font-size: 10.2px;" transform="translate(74.06622314453125,349.5)" y="0" x="0" id="text-entity-UnitPriceSpecification-45b45016-0820-5d33-bffc-3f5784ddc9d3-attr-16-name" class="er entityLabel">alternateName</text><rect height="21" width="69.06622314453125" y="360" x="0" class="er attributeBoxOdd"/><text style="dominant-baseline: middle; font-size: 10.2px;" transform="translate(5,370.5)" y="0" x="0" id="text-entity-UnitPriceSpecification-45b45016-0820-5d33-bffc-3f5784ddc9d3-attr-17-type" class="er entityLabel">stringList</text><rect height="21" width="147.015625" y="360" x="69.06622314453125" class="er attributeBoxOdd"/><text style="dominant-baseline: middle; font-size: 10.2px;" transform="translate(74.06622314453125,370.5)" y="0" x="0" id="text-entity-UnitPriceSpecification-45b45016-0820-5d33-bffc-3f5784ddc9d3-attr-17-name" class="er entityLabel">description</text><rect height="21" width="69.06622314453125" y="381" x="0" class="er attributeBoxEven"/><text style="dominant-baseline: middle; font-size: 10.2px;" transform="translate(5,391.5)" y="0" x="0" id="text-entity-UnitPriceSpecification-45b45016-0820-5d33-bffc-3f5784ddc9d3-attr-18-type" class="er entityLabel">TextList</text><rect height="21" width="147.015625" y="381" x="69.06622314453125" class="er attributeBoxEven"/><text style="dominant-baseline: middle; font-size: 10.2px;" transform="translate(74.06622314453125,391.5)" y="0" x="0" id="text-entity-UnitPriceSpecification-45b45016-0820-5d33-bffc-3f5784ddc9d3-attr-18-name" class="er entityLabel">disambiguatingDescription</text><rect height="21" width="69.06622314453125" y="402" x="0" class="er attributeBoxOdd"/><text style="dominant-baseline: middle; font-size: 10.2px;" transform="translate(5,412.5)" y="0" x="0" id="text-entity-UnitPriceSpecification-45b45016-0820-5d33-bffc-3f5784ddc9d3-attr-19-type" class="er entityLabel">stringList</text><rect height="21" width="147.015625" y="402" x="69.06622314453125" class="er attributeBoxOdd"/><text style="dominant-baseline: middle; font-size: 10.2px;" transform="translate(74.06622314453125,412.5)" y="0" x="0" id="text-entity-UnitPriceSpecification-45b45016-0820-5d33-bffc-3f5784ddc9d3-attr-19-name" class="er entityLabel">identifier</text><rect height="21" width="69.06622314453125" y="423" x="0" class="er attributeBoxEven"/><text style="dominant-baseline: middle; font-size: 10.2px;" transform="translate(5,433.5)" y="0" x="0" id="text-entity-UnitPriceSpecification-45b45016-0820-5d33-bffc-3f5784ddc9d3-attr-20-type" class="er entityLabel">stringList</text><rect height="21" width="147.015625" y="423" x="69.06622314453125" class="er attributeBoxEven"/><text style="dominant-baseline: middle; font-size: 10.2px;" transform="translate(74.06622314453125,433.5)" y="0" x="0" id="text-entity-UnitPriceSpecification-45b45016-0820-5d33-bffc-3f5784ddc9d3-attr-20-name" class="er entityLabel">image</text><rect height="21" width="69.06622314453125" y="444" x="0" class="er attributeBoxOdd"/><text style="dominant-baseline: middle; font-size: 10.2px;" transform="translate(5,454.5)" y="0" x="0" id="text-entity-UnitPriceSpecification-45b45016-0820-5d33-bffc-3f5784ddc9d3-attr-21-type" class="er entityLabel">TextList</text><rect height="21" width="147.015625" y="444" x="69.06622314453125" class="er attributeBoxOdd"/><text style="dominant-baseline: middle; font-size: 10.2px;" transform="translate(74.06622314453125,454.5)" y="0" x="0" id="text-entity-UnitPriceSpecification-45b45016-0820-5d33-bffc-3f5784ddc9d3-attr-21-name" class="er entityLabel">name</text><rect height="21" width="69.06622314453125" y="465" x="0" class="er attributeBoxEven"/><text style="dominant-baseline: middle; font-size: 10.2px;" transform="translate(5,475.5)" y="0" x="0" id="text-entity-UnitPriceSpecification-45b45016-0820-5d33-bffc-3f5784ddc9d3-attr-22-type" class="er entityLabel">URLList</text><rect height="21" width="147.015625" y="465" x="69.06622314453125" class="er attributeBoxEven"/><text style="dominant-baseline: middle; font-size: 10.2px;" transform="translate(74.06622314453125,475.5)" y="0" x="0" id="text-entity-UnitPriceSpecification-45b45016-0820-5d33-bffc-3f5784ddc9d3-attr-22-name" class="er entityLabel">sameAs</text><rect height="21" width="69.06622314453125" y="486" x="0" class="er attributeBoxOdd"/><text style="dominant-baseline: middle; font-size: 10.2px;" transform="translate(5,496.5)" y="0" x="0" id="text-entity-UnitPriceSpecification-45b45016-0820-5d33-bffc-3f5784ddc9d3-attr-23-type" class="er entityLabel">stringList</text><rect height="21" width="147.015625" y="486" x="69.06622314453125" class="er attributeBoxOdd"/><text style="dominant-baseline: middle; font-size: 10.2px;" transform="translate(74.06622314453125,496.5)" y="0" x="0" id="text-entity-UnitPriceSpecification-45b45016-0820-5d33-bffc-3f5784ddc9d3-attr-23-name" class="er entityLabel">mainEntityOfPage</text><rect height="21" width="69.06622314453125" y="507" x="0" class="er attributeBoxEven"/><text style="dominant-baseline: middle; font-size: 10.2px;" transform="translate(5,517.5)" y="0" x="0" id="text-entity-UnitPriceSpecification-45b45016-0820-5d33-bffc-3f5784ddc9d3-attr-24-type" class="er entityLabel">stringList</text><rect height="21" width="147.015625" y="507" x="69.06622314453125" class="er attributeBoxEven"/><text style="dominant-baseline: middle; font-size: 10.2px;" transform="translate(74.06622314453125,517.5)" y="0" x="0" id="text-entity-UnitPriceSpecification-45b45016-0820-5d33-bffc-3f5784ddc9d3-attr-24-name" class="er entityLabel">subjectOf</text><rect height="21" width="69.06622314453125" y="528" x="0" class="er attributeBoxOdd"/><text style="dominant-baseline: middle; font-size: 10.2px;" transform="translate(5,538.5)" y="0" x="0" id="text-entity-UnitPriceSpecification-45b45016-0820-5d33-bffc-3f5784ddc9d3-attr-25-type" class="er entityLabel">URLList</text><rect height="21" width="147.015625" y="528" x="69.06622314453125" class="er attributeBoxOdd"/><text style="dominant-baseline: middle; font-size: 10.2px;" transform="translate(74.06622314453125,538.5)" y="0" x="0" id="text-entity-UnitPriceSpecification-45b45016-0820-5d33-bffc-3f5784ddc9d3-attr-25-name" class="er entityLabel">url</text></g><g transform="translate(20,669 )" id="entity-PriceComponentTypeEnumeration-64b267ab-a45b-509c-9840-24d7912c9c45"><rect height="75" width="233.65625" y="0" x="0" class="er entityBox"/><text style="dominant-baseline: middle; text-anchor: middle; font-size: 12px;" transform="translate(116.828125,37.5)" y="0" x="0" id="text-entity-PriceComponentTypeEnumeration-64b267ab-a45b-509c-9840-24d7912c9c45" class="er entityLabel">PriceComponentTypeEnumeration</text></g><g transform="translate(353.65625,669 )" id="entity-QuantitativeValue-3d19db81-2acf-5dcd-99e0-52d6a275eca4"><rect height="75" width="137.59375" y="0" x="0" class="er entityBox"/><text style="dominant-baseline: middle; text-anchor: middle; font-size: 12px;" transform="translate(68.796875,37.5)" y="0" x="0" id="text-entity-QuantitativeValue-3d19db81-2acf-5dcd-99e0-52d6a275eca4" class="er entityLabel">QuantitativeValue</text></g><g transform="translate(591.25,669 )" id="entity-PriceSpecification-06171b48-9437-5ab1-a607-7f40e6a6fc9e"><rect height="75" width="136.328125" y="0" x="0" class="er entityBox"/><text style="dominant-baseline: middle; text-anchor: middle; font-size: 12px;" transform="translate(68.1640625,37.5)" y="0" x="0" id="text-entity-PriceSpecification-06171b48-9437-5ab1-a607-7f40e6a6fc9e" class="er entityLabel">PriceSpecification</text></g><g transform="translate(827.578125,669 )" id="entity-MemberProgramTier-9007dd70-1421-5b4f-9029-fd44084bd9e1"><rect height="75" width="152.66796875" y="0" x="0" class="er entityBox"/><text style="dominant-baseline: middle; text-anchor: middle; font-size: 12px;" transform="translate(76.333984375,37.5)" y="0" x="0" id="text-entity-MemberProgramTier-9007dd70-1421-5b4f-9029-fd44084bd9e1" class="er entityLabel">MemberProgramTier</text></g><g transform="translate(1080.24609375,669 )" id="entity-Action-6cd87d9a-a078-546e-a35b-bee54f477b31"><rect height="75" width="100" y="0" x="0" class="er entityBox"/><text style="dominant-baseline: middle; text-anchor: middle; font-size: 12px;" transform="translate(50,37.5)" y="0" x="0" id="text-entity-Action-6cd87d9a-a078-546e-a35b-bee54f477b31" class="er entityLabel">Action</text></g><rect height="14" width="127.109375" y="498.70172119140625" x="240.35845947265625" class="er relationshipLabelBox"/><text style="text-anchor: middle; dominant-baseline: middle; font-size: 12px;" y="505.70172119140625" x="303.91314697265625" id="rel1" class="er relationshipLabel">priceComponentType</text><rect height="14" width="109.15625" y="530.2272338867188" x="349.1546630859375" class="er relationshipLabelBox"/><text style="text-anchor: middle; dominant-baseline: middle; font-size: 12px;" y="537.2272338867188" x="403.7327880859375" id="rel2" class="er relationshipLabel">referenceQuantity</text><rect height="14" width="95.203125" y="614.9625244140625" x="438.116455078125" class="er relationshipLabelBox"/><text style="text-anchor: middle; dominant-baseline: middle; font-size: 12px;" y="621.9625244140625" x="485.718017578125" id="rel3" class="er relationshipLabel">eligibleQuantity</text><rect height="14" width="156.625" y="611.8037719726562" x="579.8019409179688" class="er relationshipLabelBox"/><text style="text-anchor: middle; dominant-baseline: middle; font-size: 12px;" y="618.8037719726562" x="658.1144409179688" id="rel4" class="er relationshipLabel">eligibleTransactionVolume</text><rect height="14" width="119.52734375" y="526.3652954101562" x="764.7992553710938" class="er relationshipLabelBox"/><text style="text-anchor: middle; dominant-baseline: middle; font-size: 12px;" y="533.3652954101562" x="824.5629272460938" id="rel5" class="er relationshipLabel">validForMemberTier</text><rect height="14" width="90.96875" y="494.22869873046875" x="893.5169677734375" class="er relationshipLabelBox"/><text style="text-anchor: middle; dominant-baseline: middle; font-size: 12px;" y="501.22869873046875" x="939.0013427734375" id="rel6" class="er relationshipLabel">potentialAction</text></svg>