<svg aria-roledescription="er" role="graphics-document document" viewBox="0 0 3017.443359375 554" style="max-width: 3017.44px; background-color: white;" xmlns:xlink="http://www.w3.org/1999/xlink" xmlns="http://www.w3.org/2000/svg" width="100%" id="my-svg"><style>#my-svg{font-family:"trebuchet ms",verdana,arial,sans-serif;font-size:16px;fill:#333;}#my-svg .error-icon{fill:#552222;}#my-svg .error-text{fill:#552222;stroke:#552222;}#my-svg .edge-thickness-normal{stroke-width:1px;}#my-svg .edge-thickness-thick{stroke-width:3.5px;}#my-svg .edge-pattern-solid{stroke-dasharray:0;}#my-svg .edge-thickness-invisible{stroke-width:0;fill:none;}#my-svg .edge-pattern-dashed{stroke-dasharray:3;}#my-svg .edge-pattern-dotted{stroke-dasharray:2;}#my-svg .marker{fill:#333333;stroke:#333333;}#my-svg .marker.cross{stroke:#333333;}#my-svg svg{font-family:"trebuchet ms",verdana,arial,sans-serif;font-size:16px;}#my-svg p{margin:0;}#my-svg .entityBox{fill:#ECECFF;stroke:#9370DB;}#my-svg .attributeBoxOdd{fill:#ffffff;stroke:#9370DB;}#my-svg .attributeBoxEven{fill:#f2f2f2;stroke:#9370DB;}#my-svg .relationshipLabelBox{fill:hsl(80, 100%, 96.2745098039%);opacity:0.7;background-color:hsl(80, 100%, 96.2745098039%);}#my-svg .relationshipLabelBox rect{opacity:0.5;}#my-svg .relationshipLine{stroke:#333333;}#my-svg .entityTitleText{text-anchor:middle;font-size:18px;fill:#333;}#my-svg #MD_PARENT_START{fill:#f5f5f5!important;stroke:#333333!important;stroke-width:1;}#my-svg #MD_PARENT_END{fill:#f5f5f5!important;stroke:#333333!important;stroke-width:1;}#my-svg :root{--mermaid-font-family:"trebuchet ms",verdana,arial,sans-serif;}</style><g/><defs><marker orient="auto" markerHeight="240" markerWidth="190" refY="7" refX="0" id="MD_PARENT_START"><path d="M 18,7 L9,13 L1,7 L9,1 Z"/></marker></defs><defs><marker orient="auto" markerHeight="28" markerWidth="20" refY="7" refX="19" id="MD_PARENT_END"><path d="M 18,7 L9,13 L1,7 L9,1 Z"/></marker></defs><defs><marker orient="auto" markerHeight="18" markerWidth="18" refY="9" refX="0" id="ONLY_ONE_START"><path d="M9,0 L9,18 M15,0 L15,18" fill="none" stroke="gray"/></marker></defs><defs><marker orient="auto" markerHeight="18" markerWidth="18" refY="9" refX="18" id="ONLY_ONE_END"><path d="M3,0 L3,18 M9,0 L9,18" fill="none" stroke="gray"/></marker></defs><defs><marker orient="auto" markerHeight="18" markerWidth="30" refY="9" refX="0" id="ZERO_OR_ONE_START"><circle r="6" cy="9" cx="21" fill="white" stroke="gray"/><path d="M9,0 L9,18" fill="none" stroke="gray"/></marker></defs><defs><marker orient="auto" markerHeight="18" markerWidth="30" refY="9" refX="30" id="ZERO_OR_ONE_END"><circle r="6" cy="9" cx="9" fill="white" stroke="gray"/><path d="M21,0 L21,18" fill="none" stroke="gray"/></marker></defs><defs><marker orient="auto" markerHeight="36" markerWidth="45" refY="18" refX="18" id="ONE_OR_MORE_START"><path d="M0,18 Q 18,0 36,18 Q 18,36 0,18 M42,9 L42,27" fill="none" stroke="gray"/></marker></defs><defs><marker orient="auto" markerHeight="36" markerWidth="45" refY="18" refX="27" id="ONE_OR_MORE_END"><path d="M3,9 L3,27 M9,18 Q27,0 45,18 Q27,36 9,18" fill="none" stroke="gray"/></marker></defs><defs><marker orient="auto" markerHeight="36" markerWidth="57" refY="18" refX="18" id="ZERO_OR_MORE_START"><circle r="6" cy="18" cx="48" fill="white" stroke="gray"/><path d="M0,18 Q18,0 36,18 Q18,36 0,18" fill="none" stroke="gray"/></marker></defs><defs><marker orient="auto" markerHeight="36" markerWidth="57" refY="18" refX="39" id="ZERO_OR_MORE_END"><circle r="6" cy="18" cx="9" fill="white" stroke="gray"/><path d="M21,18 Q39,0 57,18 Q39,36 21,18" fill="none" stroke="gray"/></marker></defs><path style="stroke: gray; fill: none;" marker-start="url(#ONLY_ONE_START)" marker-end="url(#ZERO_OR_MORE_END)" d="M1258.887,206.927L1060.739,240.606C862.591,274.285,466.296,341.642,268.148,383.655C70,425.667,70,442.333,70,450.667L70,459" class="er relationshipLine"/><path style="stroke: gray; fill: none;" marker-start="url(#ONLY_ONE_START)" marker-end="url(#ZERO_OR_MORE_END)" d="M1258.887,208.604L1079.629,242.003C900.371,275.402,541.856,342.201,373.392,383.934C204.928,425.667,226.517,442.333,237.311,450.667L248.105,459" class="er relationshipLine"/><path style="stroke: gray; fill: none;" marker-start="url(#ONLY_ONE_START)" marker-end="url(#ZERO_OR_MORE_END)" d="M1258.887,210.637L1098.519,243.698C938.151,276.758,617.416,342.879,457.048,384.273C296.68,425.667,296.68,442.333,296.68,450.667L296.68,459" class="er relationshipLine"/><path style="stroke: gray; fill: none;" marker-start="url(#ONLY_ONE_START)" marker-end="url(#ZERO_OR_MORE_END)" d="M1258.887,216.466L1136.879,248.555C1014.871,280.644,770.855,344.822,648.847,385.244C526.839,425.667,526.839,442.333,526.839,450.667L526.839,459" class="er relationshipLine"/><path style="stroke: gray; fill: none;" marker-start="url(#ONLY_ONE_START)" marker-end="url(#ZERO_OR_MORE_END)" d="M1258.887,226.397L1174.316,256.831C1089.744,287.265,920.602,348.132,836.03,386.899C751.459,425.667,751.459,442.333,751.459,450.667L751.459,459" class="er relationshipLine"/><path style="stroke: gray; fill: none;" marker-start="url(#ONLY_ONE_START)" marker-end="url(#ZERO_OR_MORE_END)" d="M1258.887,249.967L1213.943,276.473C1169,302.978,1079.112,355.989,1034.168,390.828C989.225,425.667,989.225,442.333,989.225,450.667L989.225,459" class="er relationshipLine"/><path style="stroke: gray; fill: none;" marker-start="url(#ONLY_ONE_START)" marker-end="url(#ZERO_OR_MORE_END)" d="M1258.887,346.97L1252.156,357.308C1245.424,367.646,1231.961,388.323,1225.23,406.995C1218.498,425.667,1218.498,442.333,1218.498,450.667L1218.498,459" class="er relationshipLine"/><path style="stroke: gray; fill: none;" marker-start="url(#ONLY_ONE_START)" marker-end="url(#ZERO_OR_MORE_END)" d="M1258.887,213.199L1117.699,245.832C976.511,278.466,694.135,343.733,541.987,384.7C389.839,425.667,367.919,442.333,356.959,450.667L346,459" class="er relationshipLine"/><path style="stroke: gray; fill: none;" marker-start="url(#ONLY_ONE_START)" marker-end="url(#ZERO_OR_MORE_END)" d="M1417.851,359L1420.626,367.333C1423.4,375.667,1428.949,392.333,1431.724,409C1434.498,425.667,1434.498,442.333,1434.498,450.667L1434.498,459" class="er relationshipLine"/><path style="stroke: gray; fill: none;" marker-start="url(#ONLY_ONE_START)" marker-end="url(#ZERO_OR_MORE_END)" d="M1463.95,270.915L1492.933,293.929C1521.916,316.943,1579.883,362.972,1608.866,394.319C1637.85,425.667,1637.85,442.333,1637.85,450.667L1637.85,459" class="er relationshipLine"/><path style="stroke: gray; fill: none;" marker-start="url(#ONLY_ONE_START)" marker-end="url(#ZERO_OR_MORE_END)" d="M1463.95,235.162L1529.006,264.135C1594.062,293.108,1724.175,351.054,1789.231,388.36C1854.287,425.667,1854.287,442.333,1854.287,450.667L1854.287,459" class="er relationshipLine"/><path style="stroke: gray; fill: none;" marker-start="url(#ONLY_ONE_START)" marker-end="url(#ZERO_OR_MORE_END)" d="M1463.95,220.607L1567.442,252.006C1670.935,283.405,1877.919,346.202,1981.412,385.935C2084.904,425.667,2084.904,442.333,2084.904,450.667L2084.904,459" class="er relationshipLine"/><path style="stroke: gray; fill: none;" marker-start="url(#ONLY_ONE_START)" marker-end="url(#ZERO_OR_MORE_END)" d="M1463.95,213.416L1603.699,246.013C1743.448,278.611,2022.945,343.805,2162.694,384.736C2302.443,425.667,2302.443,442.333,2302.443,450.667L2302.443,459" class="er relationshipLine"/><path style="stroke: gray; fill: none;" marker-start="url(#ONLY_ONE_START)" marker-end="url(#ZERO_OR_MORE_END)" d="M1463.95,208.903L1640.177,242.253C1816.403,275.602,2168.857,342.301,2345.084,383.984C2521.311,425.667,2521.311,442.333,2521.311,450.667L2521.311,459" class="er relationshipLine"/><path style="stroke: gray; fill: none;" marker-start="url(#ONLY_ONE_START)" marker-end="url(#ZERO_OR_MORE_END)" d="M1463.95,205.8L1676.98,239.667C1890.01,273.533,2316.07,341.267,2529.101,383.467C2742.131,425.667,2742.131,442.333,2742.131,450.667L2742.131,459" class="er relationshipLine"/><path style="stroke: gray; fill: none;" marker-start="url(#ONLY_ONE_START)" marker-end="url(#ZERO_OR_MORE_END)" d="M1463.95,203.69L1711.199,237.908C1958.448,272.127,2452.945,340.563,2700.194,383.115C2947.443,425.667,2947.443,442.333,2947.443,450.667L2947.443,459" class="er relationshipLine"/><g transform="translate(1258.88720703125,20 )" id="entity-Vein-281deec2-c414-58f8-95d7-124320056469"><rect height="339" width="205.0625" y="0" x="0" class="er entityBox"/><text style="dominant-baseline: middle; text-anchor: middle; font-size: 12px;" transform="translate(102.53125,12)" y="0" x="0" id="text-entity-Vein-281deec2-c414-58f8-95d7-124320056469" class="er entityLabel">Vein</text><rect height="21" width="57.0625" y="24" x="0" class="er attributeBoxOdd"/><text style="dominant-baseline: middle; font-size: 10.2px;" transform="translate(5,34.5)" y="0" x="0" id="text-entity-Vein-281deec2-c414-58f8-95d7-124320056469-attr-1-type" class="er entityLabel">stringList</text><rect height="21" width="148" y="24" x="57.0625" class="er attributeBoxOdd"/><text style="dominant-baseline: middle; font-size: 10.2px;" transform="translate(62.0625,34.5)" y="0" x="0" id="text-entity-Vein-281deec2-c414-58f8-95d7-124320056469-attr-1-name" class="er entityLabel">regionDrained</text><rect height="21" width="57.0625" y="45" x="0" class="er attributeBoxEven"/><text style="dominant-baseline: middle; font-size: 10.2px;" transform="translate(5,55.5)" y="0" x="0" id="text-entity-Vein-281deec2-c414-58f8-95d7-124320056469-attr-2-type" class="er entityLabel">TextList</text><rect height="21" width="148" y="45" x="57.0625" class="er attributeBoxEven"/><text style="dominant-baseline: middle; font-size: 10.2px;" transform="translate(62.0625,55.5)" y="0" x="0" id="text-entity-Vein-281deec2-c414-58f8-95d7-124320056469-attr-2-name" class="er entityLabel">associatedPathophysiology</text><rect height="21" width="57.0625" y="66" x="0" class="er attributeBoxOdd"/><text style="dominant-baseline: middle; font-size: 10.2px;" transform="translate(5,76.5)" y="0" x="0" id="text-entity-Vein-281deec2-c414-58f8-95d7-124320056469-attr-3-type" class="er entityLabel">TextList</text><rect height="21" width="148" y="66" x="57.0625" class="er attributeBoxOdd"/><text style="dominant-baseline: middle; font-size: 10.2px;" transform="translate(62.0625,76.5)" y="0" x="0" id="text-entity-Vein-281deec2-c414-58f8-95d7-124320056469-attr-3-name" class="er entityLabel">bodyLocation</text><rect height="21" width="57.0625" y="87" x="0" class="er attributeBoxEven"/><text style="dominant-baseline: middle; font-size: 10.2px;" transform="translate(5,97.5)" y="0" x="0" id="text-entity-Vein-281deec2-c414-58f8-95d7-124320056469-attr-4-type" class="er entityLabel">stringList</text><rect height="21" width="148" y="87" x="57.0625" class="er attributeBoxEven"/><text style="dominant-baseline: middle; font-size: 10.2px;" transform="translate(62.0625,97.5)" y="0" x="0" id="text-entity-Vein-281deec2-c414-58f8-95d7-124320056469-attr-4-name" class="er entityLabel">legalStatus</text><rect height="21" width="57.0625" y="108" x="0" class="er attributeBoxOdd"/><text style="dominant-baseline: middle; font-size: 10.2px;" transform="translate(5,118.5)" y="0" x="0" id="text-entity-Vein-281deec2-c414-58f8-95d7-124320056469-attr-5-type" class="er entityLabel">stringList</text><rect height="21" width="148" y="108" x="57.0625" class="er attributeBoxOdd"/><text style="dominant-baseline: middle; font-size: 10.2px;" transform="translate(62.0625,118.5)" y="0" x="0" id="text-entity-Vein-281deec2-c414-58f8-95d7-124320056469-attr-5-name" class="er entityLabel">additionalType</text><rect height="21" width="57.0625" y="129" x="0" class="er attributeBoxEven"/><text style="dominant-baseline: middle; font-size: 10.2px;" transform="translate(5,139.5)" y="0" x="0" id="text-entity-Vein-281deec2-c414-58f8-95d7-124320056469-attr-6-type" class="er entityLabel">TextList</text><rect height="21" width="148" y="129" x="57.0625" class="er attributeBoxEven"/><text style="dominant-baseline: middle; font-size: 10.2px;" transform="translate(62.0625,139.5)" y="0" x="0" id="text-entity-Vein-281deec2-c414-58f8-95d7-124320056469-attr-6-name" class="er entityLabel">alternateName</text><rect height="21" width="57.0625" y="150" x="0" class="er attributeBoxOdd"/><text style="dominant-baseline: middle; font-size: 10.2px;" transform="translate(5,160.5)" y="0" x="0" id="text-entity-Vein-281deec2-c414-58f8-95d7-124320056469-attr-7-type" class="er entityLabel">stringList</text><rect height="21" width="148" y="150" x="57.0625" class="er attributeBoxOdd"/><text style="dominant-baseline: middle; font-size: 10.2px;" transform="translate(62.0625,160.5)" y="0" x="0" id="text-entity-Vein-281deec2-c414-58f8-95d7-124320056469-attr-7-name" class="er entityLabel">description</text><rect height="21" width="57.0625" y="171" x="0" class="er attributeBoxEven"/><text style="dominant-baseline: middle; font-size: 10.2px;" transform="translate(5,181.5)" y="0" x="0" id="text-entity-Vein-281deec2-c414-58f8-95d7-124320056469-attr-8-type" class="er entityLabel">TextList</text><rect height="21" width="148" y="171" x="57.0625" class="er attributeBoxEven"/><text style="dominant-baseline: middle; font-size: 10.2px;" transform="translate(62.0625,181.5)" y="0" x="0" id="text-entity-Vein-281deec2-c414-58f8-95d7-124320056469-attr-8-name" class="er entityLabel">disambiguatingDescription</text><rect height="21" width="57.0625" y="192" x="0" class="er attributeBoxOdd"/><text style="dominant-baseline: middle; font-size: 10.2px;" transform="translate(5,202.5)" y="0" x="0" id="text-entity-Vein-281deec2-c414-58f8-95d7-124320056469-attr-9-type" class="er entityLabel">stringList</text><rect height="21" width="148" y="192" x="57.0625" class="er attributeBoxOdd"/><text style="dominant-baseline: middle; font-size: 10.2px;" transform="translate(62.0625,202.5)" y="0" x="0" id="text-entity-Vein-281deec2-c414-58f8-95d7-124320056469-attr-9-name" class="er entityLabel">identifier</text><rect height="21" width="57.0625" y="213" x="0" class="er attributeBoxEven"/><text style="dominant-baseline: middle; font-size: 10.2px;" transform="translate(5,223.5)" y="0" x="0" id="text-entity-Vein-281deec2-c414-58f8-95d7-124320056469-attr-10-type" class="er entityLabel">stringList</text><rect height="21" width="148" y="213" x="57.0625" class="er attributeBoxEven"/><text style="dominant-baseline: middle; font-size: 10.2px;" transform="translate(62.0625,223.5)" y="0" x="0" id="text-entity-Vein-281deec2-c414-58f8-95d7-124320056469-attr-10-name" class="er entityLabel">image</text><rect height="21" width="57.0625" y="234" x="0" class="er attributeBoxOdd"/><text style="dominant-baseline: middle; font-size: 10.2px;" transform="translate(5,244.5)" y="0" x="0" id="text-entity-Vein-281deec2-c414-58f8-95d7-124320056469-attr-11-type" class="er entityLabel">TextList</text><rect height="21" width="148" y="234" x="57.0625" class="er attributeBoxOdd"/><text style="dominant-baseline: middle; font-size: 10.2px;" transform="translate(62.0625,244.5)" y="0" x="0" id="text-entity-Vein-281deec2-c414-58f8-95d7-124320056469-attr-11-name" class="er entityLabel">name</text><rect height="21" width="57.0625" y="255" x="0" class="er attributeBoxEven"/><text style="dominant-baseline: middle; font-size: 10.2px;" transform="translate(5,265.5)" y="0" x="0" id="text-entity-Vein-281deec2-c414-58f8-95d7-124320056469-attr-12-type" class="er entityLabel">URLList</text><rect height="21" width="148" y="255" x="57.0625" class="er attributeBoxEven"/><text style="dominant-baseline: middle; font-size: 10.2px;" transform="translate(62.0625,265.5)" y="0" x="0" id="text-entity-Vein-281deec2-c414-58f8-95d7-124320056469-attr-12-name" class="er entityLabel">sameAs</text><rect height="21" width="57.0625" y="276" x="0" class="er attributeBoxOdd"/><text style="dominant-baseline: middle; font-size: 10.2px;" transform="translate(5,286.5)" y="0" x="0" id="text-entity-Vein-281deec2-c414-58f8-95d7-124320056469-attr-13-type" class="er entityLabel">stringList</text><rect height="21" width="148" y="276" x="57.0625" class="er attributeBoxOdd"/><text style="dominant-baseline: middle; font-size: 10.2px;" transform="translate(62.0625,286.5)" y="0" x="0" id="text-entity-Vein-281deec2-c414-58f8-95d7-124320056469-attr-13-name" class="er entityLabel">mainEntityOfPage</text><rect height="21" width="57.0625" y="297" x="0" class="er attributeBoxEven"/><text style="dominant-baseline: middle; font-size: 10.2px;" transform="translate(5,307.5)" y="0" x="0" id="text-entity-Vein-281deec2-c414-58f8-95d7-124320056469-attr-14-type" class="er entityLabel">stringList</text><rect height="21" width="148" y="297" x="57.0625" class="er attributeBoxEven"/><text style="dominant-baseline: middle; font-size: 10.2px;" transform="translate(62.0625,307.5)" y="0" x="0" id="text-entity-Vein-281deec2-c414-58f8-95d7-124320056469-attr-14-name" class="er entityLabel">subjectOf</text><rect height="21" width="57.0625" y="318" x="0" class="er attributeBoxOdd"/><text style="dominant-baseline: middle; font-size: 10.2px;" transform="translate(5,328.5)" y="0" x="0" id="text-entity-Vein-281deec2-c414-58f8-95d7-124320056469-attr-15-type" class="er entityLabel">URLList</text><rect height="21" width="148" y="318" x="57.0625" class="er attributeBoxOdd"/><text style="dominant-baseline: middle; font-size: 10.2px;" transform="translate(62.0625,328.5)" y="0" x="0" id="text-entity-Vein-281deec2-c414-58f8-95d7-124320056469-attr-15-name" class="er entityLabel">url</text></g><g transform="translate(20,459 )" id="entity-Vessel-4df51686-6cea-564a-ab70-0ca246d13ff3"><rect height="75" width="100" y="0" x="0" class="er entityBox"/><text style="dominant-baseline: middle; text-anchor: middle; font-size: 12px;" transform="translate(50,37.5)" y="0" x="0" id="text-entity-Vessel-4df51686-6cea-564a-ab70-0ca246d13ff3" class="er entityLabel">Vessel</text></g><g transform="translate(220,459 )" id="entity-AnatomicalStructure-3c5e0f00-f4ad-5ab6-89b3-e0fa067e5e05"><rect height="75" width="153.359375" y="0" x="0" class="er entityBox"/><text style="dominant-baseline: middle; text-anchor: middle; font-size: 12px;" transform="translate(76.6796875,37.5)" y="0" x="0" id="text-entity-AnatomicalStructure-3c5e0f00-f4ad-5ab6-89b3-e0fa067e5e05" class="er entityLabel">AnatomicalStructure</text></g><g transform="translate(473.359375,459 )" id="entity-ImageObject-2a761300-e471-57b1-9256-83c78b6eba94"><rect height="75" width="106.958984375" y="0" x="0" class="er entityBox"/><text style="dominant-baseline: middle; text-anchor: middle; font-size: 12px;" transform="translate(53.4794921875,37.5)" y="0" x="0" id="text-entity-ImageObject-2a761300-e471-57b1-9256-83c78b6eba94" class="er entityLabel">ImageObject</text></g><g transform="translate(680.318359375,459 )" id="entity-AnatomicalSystem-95715edd-482f-5376-b264-8ac2a8b4904d"><rect height="75" width="142.28125" y="0" x="0" class="er entityBox"/><text style="dominant-baseline: middle; text-anchor: middle; font-size: 12px;" transform="translate(71.140625,37.5)" y="0" x="0" id="text-entity-AnatomicalSystem-95715edd-482f-5376-b264-8ac2a8b4904d" class="er entityLabel">AnatomicalSystem</text></g><g transform="translate(922.599609375,459 )" id="entity-MedicalCondition-a93e7da7-17aa-5f46-8e3a-8f90076b9104"><rect height="75" width="133.25" y="0" x="0" class="er entityBox"/><text style="dominant-baseline: middle; text-anchor: middle; font-size: 12px;" transform="translate(66.625,37.5)" y="0" x="0" id="text-entity-MedicalCondition-a93e7da7-17aa-5f46-8e3a-8f90076b9104" class="er entityLabel">MedicalCondition</text></g><g transform="translate(1155.849609375,459 )" id="entity-MedicalTherapy-cb945121-be61-5f08-b66d-584ab4170081"><rect height="75" width="125.296875" y="0" x="0" class="er entityBox"/><text style="dominant-baseline: middle; text-anchor: middle; font-size: 12px;" transform="translate(62.6484375,37.5)" y="0" x="0" id="text-entity-MedicalTherapy-cb945121-be61-5f08-b66d-584ab4170081" class="er entityLabel">MedicalTherapy</text></g><g transform="translate(1381.146484375,459 )" id="entity-MedicalCode-340ab1f3-b0e0-51ff-b309-32031f623ceb"><rect height="75" width="106.703125" y="0" x="0" class="er entityBox"/><text style="dominant-baseline: middle; text-anchor: middle; font-size: 12px;" transform="translate(53.3515625,37.5)" y="0" x="0" id="text-entity-MedicalCode-340ab1f3-b0e0-51ff-b309-32031f623ceb" class="er entityLabel">MedicalCode</text></g><g transform="translate(1587.849609375,459 )" id="entity-Grant-291daf2c-8722-576f-890e-1045bc6484c0"><rect height="75" width="100" y="0" x="0" class="er entityBox"/><text style="dominant-baseline: middle; text-anchor: middle; font-size: 12px;" transform="translate(50,37.5)" y="0" x="0" id="text-entity-Grant-291daf2c-8722-576f-890e-1045bc6484c0" class="er entityLabel">Grant</text></g><g transform="translate(1787.849609375,459 )" id="entity-MedicalGuideline-a05959e1-803b-55cd-8b3c-b530a54fde23"><rect height="75" width="132.875" y="0" x="0" class="er entityBox"/><text style="dominant-baseline: middle; text-anchor: middle; font-size: 12px;" transform="translate(66.4375,37.5)" y="0" x="0" id="text-entity-MedicalGuideline-a05959e1-803b-55cd-8b3c-b530a54fde23" class="er entityLabel">MedicalGuideline</text></g><g transform="translate(2020.724609375,459 )" id="entity-MedicineSystem-74197b84-67e0-5471-ab59-f3fd7c3c0e72"><rect height="75" width="128.359375" y="0" x="0" class="er entityBox"/><text style="dominant-baseline: middle; text-anchor: middle; font-size: 12px;" transform="translate(64.1796875,37.5)" y="0" x="0" id="text-entity-MedicineSystem-74197b84-67e0-5471-ab59-f3fd7c3c0e72" class="er entityLabel">MedicineSystem</text></g><g transform="translate(2249.083984375,459 )" id="entity-Organization-ef1721ab-1f62-5ef5-a525-a6c60c2f6032"><rect height="75" width="106.71875" y="0" x="0" class="er entityBox"/><text style="dominant-baseline: middle; text-anchor: middle; font-size: 12px;" transform="translate(53.359375,37.5)" y="0" x="0" id="text-entity-Organization-ef1721ab-1f62-5ef5-a525-a6c60c2f6032" class="er entityLabel">Organization</text></g><g transform="translate(2455.802734375,459 )" id="entity-MedicalSpecialty-0f4a20d3-5a5d-5b81-b412-da395afebba8"><rect height="75" width="131.015625" y="0" x="0" class="er entityBox"/><text style="dominant-baseline: middle; text-anchor: middle; font-size: 12px;" transform="translate(65.5078125,37.5)" y="0" x="0" id="text-entity-MedicalSpecialty-0f4a20d3-5a5d-5b81-b412-da395afebba8" class="er entityLabel">MedicalSpecialty</text></g><g transform="translate(2686.818359375,459 )" id="entity-MedicalStudy-22dea251-12b7-5654-af29-afad6ffe12b1"><rect height="75" width="110.625" y="0" x="0" class="er entityBox"/><text style="dominant-baseline: middle; text-anchor: middle; font-size: 12px;" transform="translate(55.3125,37.5)" y="0" x="0" id="text-entity-MedicalStudy-22dea251-12b7-5654-af29-afad6ffe12b1" class="er entityLabel">MedicalStudy</text></g><g transform="translate(2897.443359375,459 )" id="entity-Action-6cd87d9a-a078-546e-a35b-bee54f477b31"><rect height="75" width="100" y="0" x="0" class="er entityBox"/><text style="dominant-baseline: middle; text-anchor: middle; font-size: 12px;" transform="translate(50,37.5)" y="0" x="0" id="text-entity-Action-6cd87d9a-a078-546e-a35b-bee54f477b31" class="er entityLabel">Action</text></g><rect height="14" width="49.734375" y="303.9544372558594" x="628.5903930664062" class="er relationshipLabelBox"/><text style="text-anchor: middle; dominant-baseline: middle; font-size: 12px;" y="310.9544372558594" x="653.4575805664062" id="rel1" class="er relationshipLabel">drainsTo</text><rect height="14" width="52.296875" y="302.3377685546875" x="698.9007568359375" class="er relationshipLabelBox"/><text style="text-anchor: middle; dominant-baseline: middle; font-size: 12px;" y="309.3377685546875" x="725.0491943359375" id="rel2" class="er relationshipLabel">tributary</text><rect height="14" width="75.46875" y="306.4064025878906" x="728.2268676757812" class="er relationshipLabelBox"/><text style="text-anchor: middle; dominant-baseline: middle; font-size: 12px;" y="313.4064025878906" x="765.9612426757812" id="rel3" class="er relationshipLabel">connectedTo</text><rect height="14" width="49.90625" y="310.33154296875" x="854.9812622070312" class="er relationshipLabelBox"/><text style="text-anchor: middle; dominant-baseline: middle; font-size: 12px;" y="317.33154296875" x="879.9343872070312" id="rel4" class="er relationshipLabel">diagram</text><rect height="14" width="83.03125" y="317.14410400390625" x="949.350341796875" class="er relationshipLabelBox"/><text style="text-anchor: middle; dominant-baseline: middle; font-size: 12px;" y="324.14410400390625" x="990.865966796875" id="rel5" class="er relationshipLabel">partOfSystem</text><rect height="14" width="99.71875" y="333.3108825683594" x="1058.559326171875" class="er relationshipLabelBox"/><text style="text-anchor: middle; dominant-baseline: middle; font-size: 12px;" y="340.3108825683594" x="1108.418701171875" id="rel6" class="er relationshipLabel">relatedCondition</text><rect height="14" width="91.78125" y="392.4720153808594" x="1182.3494873046875" class="er relationshipLabelBox"/><text style="text-anchor: middle; dominant-baseline: middle; font-size: 12px;" y="399.4720153808594" x="1228.2401123046875" id="rel7" class="er relationshipLabel">relatedTherapy</text><rect height="14" width="77.296875" y="313.91265869140625" x="758.5624389648438" class="er relationshipLabelBox"/><text style="text-anchor: middle; dominant-baseline: middle; font-size: 12px;" y="320.91265869140625" x="797.2108764648438" id="rel8" class="er relationshipLabel">subStructure</text><rect height="14" width="28.953125" y="401.1097106933594" x="1417.0963134765625" class="er relationshipLabelBox"/><text style="text-anchor: middle; dominant-baseline: middle; font-size: 12px;" y="408.1097106933594" x="1431.5728759765625" id="rel9" class="er relationshipLabel">code</text><rect height="14" width="45.609375" y="347.1257019042969" x="1543.4534912109375" class="er relationshipLabelBox"/><text style="text-anchor: middle; dominant-baseline: middle; font-size: 12px;" y="354.1257019042969" x="1566.2581787109375" id="rel10" class="er relationshipLabel">funding</text><rect height="14" width="55.21875" y="323.19659423828125" x="1646.5853271484375" class="er relationshipLabelBox"/><text style="text-anchor: middle; dominant-baseline: middle; font-size: 12px;" y="330.19659423828125" x="1674.1947021484375" id="rel11" class="er relationshipLabel">guideline</text><rect height="14" width="99.703125" y="313.1579895019531" x="1738.1514892578125" class="er relationshipLabelBox"/><text style="text-anchor: middle; dominant-baseline: middle; font-size: 12px;" y="320.1579895019531" x="1788.0030517578125" id="rel12" class="er relationshipLabel">medicineSystem</text><rect height="14" width="124.953125" y="308.2682189941406" x="1833.099609375" class="er relationshipLabelBox"/><text style="text-anchor: middle; dominant-baseline: middle; font-size: 12px;" y="315.2682189941406" x="1895.576171875" id="rel13" class="er relationshipLabel">recognizingAuthority</text><rect height="14" width="104.578125" y="305.25518798828125" x="1951.7864990234375" class="er relationshipLabelBox"/><text style="text-anchor: middle; dominant-baseline: middle; font-size: 12px;" y="312.25518798828125" x="2004.0755615234375" id="rel14" class="er relationshipLabel">relevantSpecialty</text><rect height="14" width="33.28125" y="303.21868896484375" x="2097.109375" class="er relationshipLabelBox"/><text style="text-anchor: middle; dominant-baseline: middle; font-size: 12px;" y="310.21868896484375" x="2113.75" id="rel15" class="er relationshipLabel">study</text><rect height="14" width="90.96875" y="301.8537292480469" x="2170.373779296875" class="er relationshipLabelBox"/><text style="text-anchor: middle; dominant-baseline: middle; font-size: 12px;" y="308.8537292480469" x="2215.858154296875" id="rel16" class="er relationshipLabel">potentialAction</text></svg>