<svg aria-roledescription="er" role="graphics-document document" viewBox="0 0 4404.416015625 428" style="max-width: 4404.42px; background-color: white;" xmlns:xlink="http://www.w3.org/1999/xlink" xmlns="http://www.w3.org/2000/svg" width="100%" id="my-svg"><style>#my-svg{font-family:"trebuchet ms",verdana,arial,sans-serif;font-size:16px;fill:#333;}#my-svg .error-icon{fill:#552222;}#my-svg .error-text{fill:#552222;stroke:#552222;}#my-svg .edge-thickness-normal{stroke-width:1px;}#my-svg .edge-thickness-thick{stroke-width:3.5px;}#my-svg .edge-pattern-solid{stroke-dasharray:0;}#my-svg .edge-thickness-invisible{stroke-width:0;fill:none;}#my-svg .edge-pattern-dashed{stroke-dasharray:3;}#my-svg .edge-pattern-dotted{stroke-dasharray:2;}#my-svg .marker{fill:#333333;stroke:#333333;}#my-svg .marker.cross{stroke:#333333;}#my-svg svg{font-family:"trebuchet ms",verdana,arial,sans-serif;font-size:16px;}#my-svg p{margin:0;}#my-svg .entityBox{fill:#ECECFF;stroke:#9370DB;}#my-svg .attributeBoxOdd{fill:#ffffff;stroke:#9370DB;}#my-svg .attributeBoxEven{fill:#f2f2f2;stroke:#9370DB;}#my-svg .relationshipLabelBox{fill:hsl(80, 100%, 96.2745098039%);opacity:0.7;background-color:hsl(80, 100%, 96.2745098039%);}#my-svg .relationshipLabelBox rect{opacity:0.5;}#my-svg .relationshipLine{stroke:#333333;}#my-svg .entityTitleText{text-anchor:middle;font-size:18px;fill:#333;}#my-svg #MD_PARENT_START{fill:#f5f5f5!important;stroke:#333333!important;stroke-width:1;}#my-svg #MD_PARENT_END{fill:#f5f5f5!important;stroke:#333333!important;stroke-width:1;}#my-svg :root{--mermaid-font-family:"trebuchet ms",verdana,arial,sans-serif;}</style><g/><defs><marker orient="auto" markerHeight="240" markerWidth="190" refY="7" refX="0" id="MD_PARENT_START"><path d="M 18,7 L9,13 L1,7 L9,1 Z"/></marker></defs><defs><marker orient="auto" markerHeight="28" markerWidth="20" refY="7" refX="19" id="MD_PARENT_END"><path d="M 18,7 L9,13 L1,7 L9,1 Z"/></marker></defs><defs><marker orient="auto" markerHeight="18" markerWidth="18" refY="9" refX="0" id="ONLY_ONE_START"><path d="M9,0 L9,18 M15,0 L15,18" fill="none" stroke="gray"/></marker></defs><defs><marker orient="auto" markerHeight="18" markerWidth="18" refY="9" refX="18" id="ONLY_ONE_END"><path d="M3,0 L3,18 M9,0 L9,18" fill="none" stroke="gray"/></marker></defs><defs><marker orient="auto" markerHeight="18" markerWidth="30" refY="9" refX="0" id="ZERO_OR_ONE_START"><circle r="6" cy="9" cx="21" fill="white" stroke="gray"/><path d="M9,0 L9,18" fill="none" stroke="gray"/></marker></defs><defs><marker orient="auto" markerHeight="18" markerWidth="30" refY="9" refX="30" id="ZERO_OR_ONE_END"><circle r="6" cy="9" cx="9" fill="white" stroke="gray"/><path d="M21,0 L21,18" fill="none" stroke="gray"/></marker></defs><defs><marker orient="auto" markerHeight="36" markerWidth="45" refY="18" refX="18" id="ONE_OR_MORE_START"><path d="M0,18 Q 18,0 36,18 Q 18,36 0,18 M42,9 L42,27" fill="none" stroke="gray"/></marker></defs><defs><marker orient="auto" markerHeight="36" markerWidth="45" refY="18" refX="27" id="ONE_OR_MORE_END"><path d="M3,9 L3,27 M9,18 Q27,0 45,18 Q27,36 9,18" fill="none" stroke="gray"/></marker></defs><defs><marker orient="auto" markerHeight="36" markerWidth="57" refY="18" refX="18" id="ZERO_OR_MORE_START"><circle r="6" cy="18" cx="48" fill="white" stroke="gray"/><path d="M0,18 Q18,0 36,18 Q18,36 0,18" fill="none" stroke="gray"/></marker></defs><defs><marker orient="auto" markerHeight="36" markerWidth="57" refY="18" refX="39" id="ZERO_OR_MORE_END"><circle r="6" cy="18" cx="9" fill="white" stroke="gray"/><path d="M21,18 Q39,0 57,18 Q39,36 21,18" fill="none" stroke="gray"/></marker></defs><path style="stroke: gray; fill: none;" marker-start="url(#ONLY_ONE_START)" marker-end="url(#ZERO_OR_MORE_END)" d="M1562.574,134.844L1314.857,159.536C1067.141,184.229,571.707,233.615,323.99,266.641C76.273,299.667,76.273,316.333,76.273,324.667L76.273,333" class="er relationshipLine"/><path style="stroke: gray; fill: none;" marker-start="url(#ONLY_ONE_START)" marker-end="url(#ZERO_OR_MORE_END)" d="M1562.574,135.745L1340.38,160.288C1118.186,184.83,673.798,233.915,456.665,266.791C239.531,299.667,249.653,316.333,254.713,324.667L259.774,333" class="er relationshipLine"/><path style="stroke: gray; fill: none;" marker-start="url(#ONLY_ONE_START)" marker-end="url(#ZERO_OR_MORE_END)" d="M1562.574,137.293L1374.236,161.577C1185.898,185.862,809.223,234.431,626.851,267.049C444.48,299.667,456.413,316.333,462.379,324.667L468.346,333" class="er relationshipLine"/><path style="stroke: gray; fill: none;" marker-start="url(#ONLY_ONE_START)" marker-end="url(#ZERO_OR_MORE_END)" d="M1562.574,141.163L1427.63,164.803C1292.686,188.442,1022.798,235.721,887.853,267.694C752.909,299.667,752.909,316.333,752.909,324.667L752.909,333" class="er relationshipLine"/><path style="stroke: gray; fill: none;" marker-start="url(#ONLY_ONE_START)" marker-end="url(#ZERO_OR_MORE_END)" d="M1562.574,145.469L1461.427,168.391C1360.279,191.312,1157.984,237.156,1056.836,268.411C955.688,299.667,955.688,316.333,955.688,324.667L955.688,333" class="er relationshipLine"/><path style="stroke: gray; fill: none;" marker-start="url(#ONLY_ONE_START)" marker-end="url(#ZERO_OR_MORE_END)" d="M1562.574,148.733L1478.325,171.111C1394.076,193.489,1225.577,238.244,1191.327,273.122C1157.078,308,1257.078,333,1307.078,345.5L1357.078,358" class="er relationshipLine"/><path style="stroke: gray; fill: none;" marker-start="url(#ONLY_ONE_START)" marker-end="url(#ZERO_OR_MORE_END)" d="M1562.574,153.278L1494.992,174.898C1427.409,196.518,1292.243,239.759,1257.994,273.046C1223.745,306.333,1290.411,329.667,1323.745,341.333L1357.078,353" class="er relationshipLine"/><path style="stroke: gray; fill: none;" marker-start="url(#ONLY_ONE_START)" marker-end="url(#ZERO_OR_MORE_END)" d="M1562.574,160.158L1511.658,180.631C1460.742,201.105,1358.91,242.053,1324.661,272.249C1290.411,302.444,1323.745,321.889,1340.411,331.611L1357.078,341.333" class="er relationshipLine"/><path style="stroke: gray; fill: none;" marker-start="url(#ONLY_ONE_START)" marker-end="url(#ZERO_OR_MORE_END)" d="M1562.574,171.796L1528.325,190.33C1494.076,208.864,1425.577,245.932,1396.089,272.799C1366.602,299.667,1376.126,316.333,1380.888,324.667L1385.65,333" class="er relationshipLine"/><path style="stroke: gray; fill: none;" marker-start="url(#ONLY_ONE_START)" marker-end="url(#ZERO_OR_MORE_END)" d="M1562.574,195.737L1544.992,210.281C1527.409,224.825,1492.243,253.912,1469.899,276.789C1447.554,299.667,1438.031,316.333,1433.269,324.667L1428.507,333" class="er relationshipLine"/><path style="stroke: gray; fill: none;" marker-start="url(#ONLY_ONE_START)" marker-end="url(#ZERO_OR_MORE_END)" d="M1562.574,138.329L1391.957,162.441C1221.34,186.553,880.105,234.776,705.329,267.222C530.552,299.667,522.233,316.333,518.073,324.667L513.914,333" class="er relationshipLine"/><path style="stroke: gray; fill: none;" marker-start="url(#ONLY_ONE_START)" marker-end="url(#ZERO_OR_MORE_END)" d="M1729.98,188.642L1751.163,204.368C1772.346,220.095,1814.712,251.547,1835.895,275.607C1857.078,299.667,1857.078,316.333,1857.078,324.667L1857.078,333" class="er relationshipLine"/><path style="stroke: gray; fill: none;" marker-start="url(#ONLY_ONE_START)" marker-end="url(#ZERO_OR_MORE_END)" d="M1562.574,139.585L1409.678,163.488C1256.781,187.39,950.988,235.195,783.533,267.59C616.078,299.985,586.961,316.97,572.402,325.463L557.844,333.955" class="er relationshipLine"/><path style="stroke: gray; fill: none;" marker-start="url(#ONLY_ONE_START)" marker-end="url(#ZERO_OR_MORE_END)" d="M1729.98,154.564L1793.825,175.97C1857.67,197.376,1985.359,240.188,2049.204,269.927C2113.049,299.667,2113.049,316.333,2113.049,324.667L2113.049,333" class="er relationshipLine"/><path style="stroke: gray; fill: none;" marker-start="url(#ONLY_ONE_START)" marker-end="url(#ZERO_OR_MORE_END)" d="M1729.98,144.253L1839.01,167.377C1948.04,190.502,2166.099,236.751,2275.129,268.209C2384.158,299.667,2384.158,316.333,2384.158,324.667L2384.158,333" class="er relationshipLine"/><path style="stroke: gray; fill: none;" marker-start="url(#ONLY_ONE_START)" marker-end="url(#ZERO_OR_MORE_END)" d="M1562.574,136.471L1357.57,160.893C1152.565,185.314,742.556,234.157,532.79,266.912C323.023,299.667,313.499,316.333,308.737,324.667L303.975,333" class="er relationshipLine"/><path style="stroke: gray; fill: none;" marker-start="url(#ONLY_ONE_START)" marker-end="url(#ZERO_OR_MORE_END)" d="M1729.98,139.933L1878.562,163.777C2027.144,187.622,2324.307,235.311,2472.889,267.489C2621.471,299.667,2621.471,316.333,2621.471,324.667L2621.471,333" class="er relationshipLine"/><path style="stroke: gray; fill: none;" marker-start="url(#ONLY_ONE_START)" marker-end="url(#ZERO_OR_MORE_END)" d="M1729.98,137.615L1912.454,161.846C2094.928,186.077,2459.875,234.538,2642.349,267.103C2824.822,299.667,2824.822,316.333,2824.822,324.667L2824.822,333" class="er relationshipLine"/><path style="stroke: gray; fill: none;" marker-start="url(#ONLY_ONE_START)" marker-end="url(#ZERO_OR_MORE_END)" d="M1729.98,135.89L1948.527,160.409C2167.074,184.927,2604.167,233.963,2822.713,266.815C3041.26,299.667,3041.26,316.333,3041.26,324.667L3041.26,333" class="er relationshipLine"/><path style="stroke: gray; fill: none;" marker-start="url(#ONLY_ONE_START)" marker-end="url(#ZERO_OR_MORE_END)" d="M1729.98,134.558L1986.963,159.299C2243.946,184.039,2757.911,233.519,3014.894,266.593C3271.877,299.667,3271.877,316.333,3271.877,324.667L3271.877,333" class="er relationshipLine"/><path style="stroke: gray; fill: none;" marker-start="url(#ONLY_ONE_START)" marker-end="url(#ZERO_OR_MORE_END)" d="M1729.98,133.607L2023.22,158.506C2316.459,183.405,2902.938,233.202,3196.177,266.435C3489.416,299.667,3489.416,316.333,3489.416,324.667L3489.416,333" class="er relationshipLine"/><path style="stroke: gray; fill: none;" marker-start="url(#ONLY_ONE_START)" marker-end="url(#ZERO_OR_MORE_END)" d="M1729.98,132.853L2059.698,157.877C2389.415,182.902,3048.849,232.951,3378.566,266.309C3708.283,299.667,3708.283,316.333,3708.283,324.667L3708.283,333" class="er relationshipLine"/><path style="stroke: gray; fill: none;" marker-start="url(#ONLY_ONE_START)" marker-end="url(#ZERO_OR_MORE_END)" d="M1729.98,132.238L2096.501,157.365C2463.021,182.492,3196.063,232.746,3562.583,266.206C3929.104,299.667,3929.104,316.333,3929.104,324.667L3929.104,333" class="er relationshipLine"/><path style="stroke: gray; fill: none;" marker-start="url(#ONLY_ONE_START)" marker-end="url(#ZERO_OR_MORE_END)" d="M1585.576,233L1580.827,241.333C1576.077,249.667,1566.578,266.333,1545.161,284.389C1523.745,302.444,1490.411,321.889,1473.745,331.611L1457.078,341.333" class="er relationshipLine"/><path style="stroke: gray; fill: none;" marker-start="url(#ONLY_ONE_START)" marker-end="url(#ZERO_OR_MORE_END)" d="M1653.627,233L1654.203,241.333C1654.778,249.667,1655.928,266.333,1623.17,286.333C1590.411,306.333,1523.745,329.667,1490.411,341.333L1457.078,353" class="er relationshipLine"/><path style="stroke: gray; fill: none;" marker-start="url(#ONLY_ONE_START)" marker-end="url(#ZERO_OR_MORE_END)" d="M1721.679,233L1727.578,241.333C1733.478,249.667,1745.278,266.333,1701.178,287.167C1657.078,308,1557.078,333,1507.078,345.5L1457.078,358" class="er relationshipLine"/><path style="stroke: gray; fill: none;" marker-start="url(#ONLY_ONE_START)" marker-end="url(#ZERO_OR_MORE_END)" d="M1729.98,131.879L2121.944,157.066C2513.907,182.252,3297.833,232.626,3694.811,266.146C4091.79,299.667,4101.819,316.333,4106.834,324.667L4111.849,333" class="er relationshipLine"/><path style="stroke: gray; fill: none;" marker-start="url(#ONLY_ONE_START)" marker-end="url(#ZERO_OR_MORE_END)" d="M1729.98,131.373L2164.053,156.644C2598.126,181.915,3466.271,232.458,3900.343,266.062C4334.416,299.667,4334.416,316.333,4334.416,324.667L4334.416,333" class="er relationshipLine"/><path style="stroke: gray; fill: none;" marker-start="url(#ONLY_ONE_START)" marker-end="url(#ZERO_OR_MORE_END)" d="M1729.98,131.661L2139.053,156.884C2548.126,182.107,3366.271,232.554,3770.582,266.11C4174.892,299.667,4165.368,316.333,4160.606,324.667L4155.845,333" class="er relationshipLine"/><g transform="translate(1562.57421875,20 )" id="entity-VitalSign-e2c210a2-60ea-54cb-a9f6-34dc56d387b4"><rect height="213" width="167.40625" y="0" x="0" class="er entityBox"/><text style="dominant-baseline: middle; text-anchor: middle; font-size: 12px;" transform="translate(83.703125,12)" y="0" x="0" id="text-entity-VitalSign-e2c210a2-60ea-54cb-a9f6-34dc56d387b4" class="er entityLabel">VitalSign</text><rect height="21" width="57.0625" y="24" x="0" class="er attributeBoxOdd"/><text style="dominant-baseline: middle; font-size: 10.2px;" transform="translate(5,34.5)" y="0" x="0" id="text-entity-VitalSign-e2c210a2-60ea-54cb-a9f6-34dc56d387b4-attr-1-type" class="er entityLabel">stringList</text><rect height="21" width="110.34375" y="24" x="57.0625" class="er attributeBoxOdd"/><text style="dominant-baseline: middle; font-size: 10.2px;" transform="translate(62.0625,34.5)" y="0" x="0" id="text-entity-VitalSign-e2c210a2-60ea-54cb-a9f6-34dc56d387b4-attr-1-name" class="er entityLabel">associatedAnatomy</text><rect height="21" width="57.0625" y="45" x="0" class="er attributeBoxEven"/><text style="dominant-baseline: middle; font-size: 10.2px;" transform="translate(5,55.5)" y="0" x="0" id="text-entity-VitalSign-e2c210a2-60ea-54cb-a9f6-34dc56d387b4-attr-2-type" class="er entityLabel">stringList</text><rect height="21" width="110.34375" y="45" x="57.0625" class="er attributeBoxEven"/><text style="dominant-baseline: middle; font-size: 10.2px;" transform="translate(62.0625,55.5)" y="0" x="0" id="text-entity-VitalSign-e2c210a2-60ea-54cb-a9f6-34dc56d387b4-attr-2-name" class="er entityLabel">status</text><rect height="21" width="57.0625" y="66" x="0" class="er attributeBoxOdd"/><text style="dominant-baseline: middle; font-size: 10.2px;" transform="translate(5,76.5)" y="0" x="0" id="text-entity-VitalSign-e2c210a2-60ea-54cb-a9f6-34dc56d387b4-attr-3-type" class="er entityLabel">stringList</text><rect height="21" width="110.34375" y="66" x="57.0625" class="er attributeBoxOdd"/><text style="dominant-baseline: middle; font-size: 10.2px;" transform="translate(62.0625,76.5)" y="0" x="0" id="text-entity-VitalSign-e2c210a2-60ea-54cb-a9f6-34dc56d387b4-attr-3-name" class="er entityLabel">legalStatus</text><rect height="21" width="57.0625" y="87" x="0" class="er attributeBoxEven"/><text style="dominant-baseline: middle; font-size: 10.2px;" transform="translate(5,97.5)" y="0" x="0" id="text-entity-VitalSign-e2c210a2-60ea-54cb-a9f6-34dc56d387b4-attr-4-type" class="er entityLabel">stringList</text><rect height="21" width="110.34375" y="87" x="57.0625" class="er attributeBoxEven"/><text style="dominant-baseline: middle; font-size: 10.2px;" transform="translate(62.0625,97.5)" y="0" x="0" id="text-entity-VitalSign-e2c210a2-60ea-54cb-a9f6-34dc56d387b4-attr-4-name" class="er entityLabel">additionalType</text><rect height="21" width="57.0625" y="108" x="0" class="er attributeBoxOdd"/><text style="dominant-baseline: middle; font-size: 10.2px;" transform="translate(5,118.5)" y="0" x="0" id="text-entity-VitalSign-e2c210a2-60ea-54cb-a9f6-34dc56d387b4-attr-5-type" class="er entityLabel">stringList</text><rect height="21" width="110.34375" y="108" x="57.0625" class="er attributeBoxOdd"/><text style="dominant-baseline: middle; font-size: 10.2px;" transform="translate(62.0625,118.5)" y="0" x="0" id="text-entity-VitalSign-e2c210a2-60ea-54cb-a9f6-34dc56d387b4-attr-5-name" class="er entityLabel">description</text><rect height="21" width="57.0625" y="129" x="0" class="er attributeBoxEven"/><text style="dominant-baseline: middle; font-size: 10.2px;" transform="translate(5,139.5)" y="0" x="0" id="text-entity-VitalSign-e2c210a2-60ea-54cb-a9f6-34dc56d387b4-attr-6-type" class="er entityLabel">stringList</text><rect height="21" width="110.34375" y="129" x="57.0625" class="er attributeBoxEven"/><text style="dominant-baseline: middle; font-size: 10.2px;" transform="translate(62.0625,139.5)" y="0" x="0" id="text-entity-VitalSign-e2c210a2-60ea-54cb-a9f6-34dc56d387b4-attr-6-name" class="er entityLabel">identifier</text><rect height="21" width="57.0625" y="150" x="0" class="er attributeBoxOdd"/><text style="dominant-baseline: middle; font-size: 10.2px;" transform="translate(5,160.5)" y="0" x="0" id="text-entity-VitalSign-e2c210a2-60ea-54cb-a9f6-34dc56d387b4-attr-7-type" class="er entityLabel">stringList</text><rect height="21" width="110.34375" y="150" x="57.0625" class="er attributeBoxOdd"/><text style="dominant-baseline: middle; font-size: 10.2px;" transform="translate(62.0625,160.5)" y="0" x="0" id="text-entity-VitalSign-e2c210a2-60ea-54cb-a9f6-34dc56d387b4-attr-7-name" class="er entityLabel">image</text><rect height="21" width="57.0625" y="171" x="0" class="er attributeBoxEven"/><text style="dominant-baseline: middle; font-size: 10.2px;" transform="translate(5,181.5)" y="0" x="0" id="text-entity-VitalSign-e2c210a2-60ea-54cb-a9f6-34dc56d387b4-attr-8-type" class="er entityLabel">stringList</text><rect height="21" width="110.34375" y="171" x="57.0625" class="er attributeBoxEven"/><text style="dominant-baseline: middle; font-size: 10.2px;" transform="translate(62.0625,181.5)" y="0" x="0" id="text-entity-VitalSign-e2c210a2-60ea-54cb-a9f6-34dc56d387b4-attr-8-name" class="er entityLabel">mainEntityOfPage</text><rect height="21" width="57.0625" y="192" x="0" class="er attributeBoxOdd"/><text style="dominant-baseline: middle; font-size: 10.2px;" transform="translate(5,202.5)" y="0" x="0" id="text-entity-VitalSign-e2c210a2-60ea-54cb-a9f6-34dc56d387b4-attr-9-type" class="er entityLabel">stringList</text><rect height="21" width="110.34375" y="192" x="57.0625" class="er attributeBoxOdd"/><text style="dominant-baseline: middle; font-size: 10.2px;" transform="translate(62.0625,202.5)" y="0" x="0" id="text-entity-VitalSign-e2c210a2-60ea-54cb-a9f6-34dc56d387b4-attr-9-name" class="er entityLabel">subjectOf</text></g><g transform="translate(20,333 )" id="entity-PhysicalExam-87cad3d2-a7de-54c7-8d02-67c13035e16e"><rect height="75" width="112.546875" y="0" x="0" class="er entityBox"/><text style="dominant-baseline: middle; text-anchor: middle; font-size: 12px;" transform="translate(56.2734375,37.5)" y="0" x="0" id="text-entity-PhysicalExam-87cad3d2-a7de-54c7-8d02-67c13035e16e" class="er entityLabel">PhysicalExam</text></g><g transform="translate(232.546875,333 )" id="entity-MedicalTest-32c87613-6e49-5cc6-bb3d-56fed2dad080"><rect height="75" width="100" y="0" x="0" class="er entityBox"/><text style="dominant-baseline: middle; text-anchor: middle; font-size: 12px;" transform="translate(50,37.5)" y="0" x="0" id="text-entity-MedicalTest-32c87613-6e49-5cc6-bb3d-56fed2dad080" class="er entityLabel">MedicalTest</text></g><g transform="translate(432.546875,333 )" id="entity-MedicalTherapy-cb945121-be61-5f08-b66d-584ab4170081"><rect height="75" width="125.296875" y="0" x="0" class="er entityBox"/><text style="dominant-baseline: middle; text-anchor: middle; font-size: 12px;" transform="translate(62.6484375,37.5)" y="0" x="0" id="text-entity-MedicalTherapy-cb945121-be61-5f08-b66d-584ab4170081" class="er entityLabel">MedicalTherapy</text></g><g transform="translate(700.1298828125,333 )" id="entity-DDxElement-3cbb71e7-0dfc-5923-b27d-7677e1f3851a"><rect height="75" width="105.55859375" y="0" x="0" class="er entityBox"/><text style="dominant-baseline: middle; text-anchor: middle; font-size: 12px;" transform="translate(52.779296875,37.5)" y="0" x="0" id="text-entity-DDxElement-3cbb71e7-0dfc-5923-b27d-7677e1f3851a" class="er entityLabel">DDxElement</text></g><g transform="translate(905.6884765625,333 )" id="entity-Drug-eafa91c0-1824-5f2e-9826-905b73217603"><rect height="75" width="100" y="0" x="0" class="er entityBox"/><text style="dominant-baseline: middle; text-anchor: middle; font-size: 12px;" transform="translate(50,37.5)" y="0" x="0" id="text-entity-Drug-eafa91c0-1824-5f2e-9826-905b73217603" class="er entityLabel">Drug</text></g><g transform="translate(1357.078125,333 )" id="entity-Text-426c5d39-acfc-5487-a6d9-ede67887190e"><rect height="75" width="100" y="0" x="0" class="er entityBox"/><text style="dominant-baseline: middle; text-anchor: middle; font-size: 12px;" transform="translate(50,37.5)" y="0" x="0" id="text-entity-Text-426c5d39-acfc-5487-a6d9-ede67887190e" class="er entityLabel">Text</text></g><g transform="translate(1788.255859375,333 )" id="entity-MedicalRiskFactor-a0fcf94a-518e-5a2d-a2b5-5e4de626f72d"><rect height="75" width="137.64453125" y="0" x="0" class="er entityBox"/><text style="dominant-baseline: middle; text-anchor: middle; font-size: 12px;" transform="translate(68.822265625,37.5)" y="0" x="0" id="text-entity-MedicalRiskFactor-a0fcf94a-518e-5a2d-a2b5-5e4de626f72d" class="er entityLabel">MedicalRiskFactor</text></g><g transform="translate(2025.900390625,333 )" id="entity-MedicalSignOrSymptom-acd8acd3-b1ff-541e-9ff9-cfca0e720334"><rect height="75" width="174.296875" y="0" x="0" class="er entityBox"/><text style="dominant-baseline: middle; text-anchor: middle; font-size: 12px;" transform="translate(87.1484375,37.5)" y="0" x="0" id="text-entity-MedicalSignOrSymptom-acd8acd3-b1ff-541e-9ff9-cfca0e720334" class="er entityLabel">MedicalSignOrSymptom</text></g><g transform="translate(2300.197265625,333 )" id="entity-MedicalConditionStage-4bb70cfa-d8c6-5b13-accf-0114ca92b5dd"><rect height="75" width="167.921875" y="0" x="0" class="er entityBox"/><text style="dominant-baseline: middle; text-anchor: middle; font-size: 12px;" transform="translate(83.9609375,37.5)" y="0" x="0" id="text-entity-MedicalConditionStage-4bb70cfa-d8c6-5b13-accf-0114ca92b5dd" class="er entityLabel">MedicalConditionStage</text></g><g transform="translate(2568.119140625,333 )" id="entity-MedicalCode-340ab1f3-b0e0-51ff-b309-32031f623ceb"><rect height="75" width="106.703125" y="0" x="0" class="er entityBox"/><text style="dominant-baseline: middle; text-anchor: middle; font-size: 12px;" transform="translate(53.3515625,37.5)" y="0" x="0" id="text-entity-MedicalCode-340ab1f3-b0e0-51ff-b309-32031f623ceb" class="er entityLabel">MedicalCode</text></g><g transform="translate(2774.822265625,333 )" id="entity-Grant-291daf2c-8722-576f-890e-1045bc6484c0"><rect height="75" width="100" y="0" x="0" class="er entityBox"/><text style="dominant-baseline: middle; text-anchor: middle; font-size: 12px;" transform="translate(50,37.5)" y="0" x="0" id="text-entity-Grant-291daf2c-8722-576f-890e-1045bc6484c0" class="er entityLabel">Grant</text></g><g transform="translate(2974.822265625,333 )" id="entity-MedicalGuideline-a05959e1-803b-55cd-8b3c-b530a54fde23"><rect height="75" width="132.875" y="0" x="0" class="er entityBox"/><text style="dominant-baseline: middle; text-anchor: middle; font-size: 12px;" transform="translate(66.4375,37.5)" y="0" x="0" id="text-entity-MedicalGuideline-a05959e1-803b-55cd-8b3c-b530a54fde23" class="er entityLabel">MedicalGuideline</text></g><g transform="translate(3207.697265625,333 )" id="entity-MedicineSystem-74197b84-67e0-5471-ab59-f3fd7c3c0e72"><rect height="75" width="128.359375" y="0" x="0" class="er entityBox"/><text style="dominant-baseline: middle; text-anchor: middle; font-size: 12px;" transform="translate(64.1796875,37.5)" y="0" x="0" id="text-entity-MedicineSystem-74197b84-67e0-5471-ab59-f3fd7c3c0e72" class="er entityLabel">MedicineSystem</text></g><g transform="translate(3436.056640625,333 )" id="entity-Organization-ef1721ab-1f62-5ef5-a525-a6c60c2f6032"><rect height="75" width="106.71875" y="0" x="0" class="er entityBox"/><text style="dominant-baseline: middle; text-anchor: middle; font-size: 12px;" transform="translate(53.359375,37.5)" y="0" x="0" id="text-entity-Organization-ef1721ab-1f62-5ef5-a525-a6c60c2f6032" class="er entityLabel">Organization</text></g><g transform="translate(3642.775390625,333 )" id="entity-MedicalSpecialty-0f4a20d3-5a5d-5b81-b412-da395afebba8"><rect height="75" width="131.015625" y="0" x="0" class="er entityBox"/><text style="dominant-baseline: middle; text-anchor: middle; font-size: 12px;" transform="translate(65.5078125,37.5)" y="0" x="0" id="text-entity-MedicalSpecialty-0f4a20d3-5a5d-5b81-b412-da395afebba8" class="er entityLabel">MedicalSpecialty</text></g><g transform="translate(3873.791015625,333 )" id="entity-MedicalStudy-22dea251-12b7-5654-af29-afad6ffe12b1"><rect height="75" width="110.625" y="0" x="0" class="er entityBox"/><text style="dominant-baseline: middle; text-anchor: middle; font-size: 12px;" transform="translate(55.3125,37.5)" y="0" x="0" id="text-entity-MedicalStudy-22dea251-12b7-5654-af29-afad6ffe12b1" class="er entityLabel">MedicalStudy</text></g><g transform="translate(4084.416015625,333 )" id="entity-URL-07f78d3e-fd74-5925-b39b-26c1cc2d6b7c"><rect height="75" width="100" y="0" x="0" class="er entityBox"/><text style="dominant-baseline: middle; text-anchor: middle; font-size: 12px;" transform="translate(50,37.5)" y="0" x="0" id="text-entity-URL-07f78d3e-fd74-5925-b39b-26c1cc2d6b7c" class="er entityLabel">URL</text></g><g transform="translate(4284.416015625,333 )" id="entity-Action-6cd87d9a-a078-546e-a35b-bee54f477b31"><rect height="75" width="100" y="0" x="0" class="er entityBox"/><text style="dominant-baseline: middle; text-anchor: middle; font-size: 12px;" transform="translate(50,37.5)" y="0" x="0" id="text-entity-Action-6cd87d9a-a078-546e-a35b-bee54f477b31" class="er entityLabel">Action</text></g><rect height="14" width="97.390625" y="203.9758758544922" x="761.1473388671875" class="er relationshipLabelBox"/><text style="text-anchor: middle; dominant-baseline: middle; font-size: 12px;" y="210.9758758544922" x="809.8426513671875" id="rel1" class="er relationshipLabel">identifyingExam</text><rect height="14" width="87.576171875" y="203.56930541992188" x="851.517822265625" class="er relationshipLabelBox"/><text style="text-anchor: middle; dominant-baseline: middle; font-size: 12px;" y="210.56930541992188" x="895.305908203125" id="rel2" class="er relationshipLabel">identifyingTest</text><rect height="14" width="110.486328125" y="204.3291473388672" x="942.0379028320312" class="er relationshipLabelBox"/><text style="text-anchor: middle; dominant-baseline: middle; font-size: 12px;" y="211.3291473388672" x="997.2810668945312" id="rel3" class="er relationshipLabel">possibleTreatment</text><rect height="14" width="123.328125" y="208.31796264648438" x="1084.2867431640625" class="er relationshipLabelBox"/><text style="text-anchor: middle; dominant-baseline: middle; font-size: 12px;" y="215.31796264648438" x="1145.9508056640625" id="rel4" class="er relationshipLabel">differentialDiagnosis</text><rect height="14" width="27.78125" y="211.39979553222656" x="1232.2904052734375" class="er relationshipLabelBox"/><text style="text-anchor: middle; dominant-baseline: middle; font-size: 12px;" y="218.39979553222656" x="1246.1810302734375" id="rel5" class="er relationshipLabel">drug</text><rect height="14" width="81.09375" y="225.00827026367188" x="1232.8037109375" class="er relationshipLabelBox"/><text style="text-anchor: middle; dominant-baseline: middle; font-size: 12px;" y="232.00827026367188" x="1273.3505859375" id="rel6" class="er relationshipLabel">epidemiology</text><rect height="14" width="113.015625" y="223.7899169921875" x="1279.16162109375" class="er relationshipLabelBox"/><text style="text-anchor: middle; dominant-baseline: middle; font-size: 12px;" y="230.7899169921875" x="1335.66943359375" id="rel7" class="er relationshipLabel">expectedPrognosis</text><rect height="14" width="112.390625" y="223.1820526123047" x="1339.9490966796875" class="er relationshipLabelBox"/><text style="text-anchor: middle; dominant-baseline: middle; font-size: 12px;" y="230.1820526123047" x="1396.1444091796875" id="rel8" class="er relationshipLabel">naturalProgression</text><rect height="14" width="99.28125" y="229.39224243164062" x="1397.6624755859375" class="er relationshipLabelBox"/><text style="text-anchor: middle; dominant-baseline: middle; font-size: 12px;" y="236.39224243164062" x="1447.3031005859375" id="rel9" class="er relationshipLabel">pathophysiology</text><rect height="14" width="127.765625" y="251.38153076171875" x="1425.15087890625" class="er relationshipLabelBox"/><text style="text-anchor: middle; dominant-baseline: middle; font-size: 12px;" y="258.38153076171875" x="1489.03369140625" id="rel10" class="er relationshipLabel">possibleComplication</text><rect height="14" width="111.125" y="207.63796997070312" x="975.0087890625" class="er relationshipLabelBox"/><text style="text-anchor: middle; dominant-baseline: middle; font-size: 12px;" y="214.63796997070312" x="1030.5712890625" id="rel11" class="er relationshipLabel">primaryPrevention</text><rect height="14" width="58.267578125" y="242.926025390625" x="1780.0697021484375" class="er relationshipLabelBox"/><text style="text-anchor: middle; dominant-baseline: middle; font-size: 12px;" y="249.926025390625" x="1809.2034912109375" id="rel12" class="er relationshipLabel">riskFactor</text><rect height="14" width="126.34375" y="212.92379760742188" x="992.72021484375" class="er relationshipLabelBox"/><text style="text-anchor: middle; dominant-baseline: middle; font-size: 12px;" y="219.92379760742188" x="1055.89208984375" id="rel13" class="er relationshipLabel">secondaryPrevention</text><rect height="14" width="96.953125" y="218.10379028320312" x="1887.7220458984375" class="er relationshipLabelBox"/><text style="text-anchor: middle; dominant-baseline: middle; font-size: 12px;" y="225.10379028320312" x="1936.1986083984375" id="rel14" class="er relationshipLabel">signOrSymptom</text><rect height="14" width="33.3125" y="210.52188110351562" x="2053.059814453125" class="er relationshipLabelBox"/><text style="text-anchor: middle; dominant-baseline: middle; font-size: 12px;" y="217.52188110351562" x="2069.716064453125" id="rel15" class="er relationshipLabel">stage</text><rect height="14" width="63.96875" y="206.36814880371094" x="894.3885498046875" class="er relationshipLabelBox"/><text style="text-anchor: middle; dominant-baseline: middle; font-size: 12px;" y="213.36814880371094" x="926.3729248046875" id="rel16" class="er relationshipLabel">typicalTest</text><rect height="14" width="28.953125" y="207.45315551757812" x="2172.66162109375" class="er relationshipLabelBox"/><text style="text-anchor: middle; dominant-baseline: middle; font-size: 12px;" y="214.45315551757812" x="2187.13818359375" id="rel17" class="er relationshipLabel">code</text><rect height="14" width="45.609375" y="205.8477020263672" x="2265.232177734375" class="er relationshipLabelBox"/><text style="text-anchor: middle; dominant-baseline: middle; font-size: 12px;" y="212.8477020263672" x="2288.036865234375" id="rel18" class="er relationshipLabel">funding</text><rect height="14" width="55.21875" y="204.67591857910156" x="2368.008056640625" class="er relationshipLabelBox"/><text style="text-anchor: middle; dominant-baseline: middle; font-size: 12px;" y="211.67591857910156" x="2395.617431640625" id="rel19" class="er relationshipLabel">guideline</text><rect height="14" width="99.703125" y="203.7862091064453" x="2460.5400390625" class="er relationshipLabelBox"/><text style="text-anchor: middle; dominant-baseline: middle; font-size: 12px;" y="210.7862091064453" x="2510.3916015625" id="rel20" class="er relationshipLabel">medicineSystem</text><rect height="14" width="124.953125" y="203.16281127929688" x="2556.278564453125" class="er relationshipLabelBox"/><text style="text-anchor: middle; dominant-baseline: middle; font-size: 12px;" y="210.16281127929688" x="2618.755126953125" id="rel21" class="er relationshipLabel">recognizingAuthority</text><rect height="14" width="104.578125" y="202.67140197753906" x="2675.561279296875" class="er relationshipLabelBox"/><text style="text-anchor: middle; dominant-baseline: middle; font-size: 12px;" y="209.67140197753906" x="2727.850341796875" id="rel22" class="er relationshipLabel">relevantSpecialty</text><rect height="14" width="33.28125" y="202.27261352539062" x="2821.33251953125" class="er relationshipLabelBox"/><text style="text-anchor: middle; dominant-baseline: middle; font-size: 12px;" y="209.27261352539062" x="2837.97314453125" id="rel23" class="er relationshipLabel">study</text><rect height="14" width="89.953125" y="289.35174560546875" x="1484.6751708984375" class="er relationshipLabelBox"/><text style="text-anchor: middle; dominant-baseline: middle; font-size: 12px;" y="296.35174560546875" x="1529.6517333984375" id="rel24" class="er relationshipLabel">alternateName</text><rect height="14" width="161.390625" y="303.7864685058594" x="1491.6416015625" class="er relationshipLabelBox"/><text style="text-anchor: middle; dominant-baseline: middle; font-size: 12px;" y="310.7864685058594" x="1572.3369140625" id="rel25" class="er relationshipLabel">disambiguatingDescription</text><rect height="14" width="34.03125" y="309.7725524902344" x="1598.7010498046875" class="er relationshipLabelBox"/><text style="text-anchor: middle; dominant-baseline: middle; font-size: 12px;" y="316.7725524902344" x="1615.7166748046875" id="rel26" class="er relationshipLabel">name</text><rect height="14" width="47.140625" y="202.83261108398438" x="2902.7763671875" class="er relationshipLabelBox"/><text style="text-anchor: middle; dominant-baseline: middle; font-size: 12px;" y="209.83261108398438" x="2926.3466796875" id="rel27" class="er relationshipLabel">sameAs</text><rect height="14" width="90.96875" y="201.72314453125" x="2994.71875" class="er relationshipLabelBox"/><text style="text-anchor: middle; dominant-baseline: middle; font-size: 12px;" y="208.72314453125" x="3040.203125" id="rel28" class="er relationshipLabel">potentialAction</text><rect height="14" width="15.875" y="201.31488037109375" x="2947.781982421875" class="er relationshipLabelBox"/><text style="text-anchor: middle; dominant-baseline: middle; font-size: 12px;" y="208.31488037109375" x="2955.719482421875" id="rel29" class="er relationshipLabel">url</text></svg>