<svg aria-roledescription="er" role="graphics-document document" viewBox="0 0 1359.109375 617" style="max-width: 1359.11px; background-color: white;" xmlns:xlink="http://www.w3.org/1999/xlink" xmlns="http://www.w3.org/2000/svg" width="100%" id="my-svg"><style>#my-svg{font-family:"trebuchet ms",verdana,arial,sans-serif;font-size:16px;fill:#333;}#my-svg .error-icon{fill:#552222;}#my-svg .error-text{fill:#552222;stroke:#552222;}#my-svg .edge-thickness-normal{stroke-width:1px;}#my-svg .edge-thickness-thick{stroke-width:3.5px;}#my-svg .edge-pattern-solid{stroke-dasharray:0;}#my-svg .edge-thickness-invisible{stroke-width:0;fill:none;}#my-svg .edge-pattern-dashed{stroke-dasharray:3;}#my-svg .edge-pattern-dotted{stroke-dasharray:2;}#my-svg .marker{fill:#333333;stroke:#333333;}#my-svg .marker.cross{stroke:#333333;}#my-svg svg{font-family:"trebuchet ms",verdana,arial,sans-serif;font-size:16px;}#my-svg p{margin:0;}#my-svg .entityBox{fill:#ECECFF;stroke:#9370DB;}#my-svg .attributeBoxOdd{fill:#ffffff;stroke:#9370DB;}#my-svg .attributeBoxEven{fill:#f2f2f2;stroke:#9370DB;}#my-svg .relationshipLabelBox{fill:hsl(80, 100%, 96.2745098039%);opacity:0.7;background-color:hsl(80, 100%, 96.2745098039%);}#my-svg .relationshipLabelBox rect{opacity:0.5;}#my-svg .relationshipLine{stroke:#333333;}#my-svg .entityTitleText{text-anchor:middle;font-size:18px;fill:#333;}#my-svg #MD_PARENT_START{fill:#f5f5f5!important;stroke:#333333!important;stroke-width:1;}#my-svg #MD_PARENT_END{fill:#f5f5f5!important;stroke:#333333!important;stroke-width:1;}#my-svg :root{--mermaid-font-family:"trebuchet ms",verdana,arial,sans-serif;}</style><g/><defs><marker orient="auto" markerHeight="240" markerWidth="190" refY="7" refX="0" id="MD_PARENT_START"><path d="M 18,7 L9,13 L1,7 L9,1 Z"/></marker></defs><defs><marker orient="auto" markerHeight="28" markerWidth="20" refY="7" refX="19" id="MD_PARENT_END"><path d="M 18,7 L9,13 L1,7 L9,1 Z"/></marker></defs><defs><marker orient="auto" markerHeight="18" markerWidth="18" refY="9" refX="0" id="ONLY_ONE_START"><path d="M9,0 L9,18 M15,0 L15,18" fill="none" stroke="gray"/></marker></defs><defs><marker orient="auto" markerHeight="18" markerWidth="18" refY="9" refX="18" id="ONLY_ONE_END"><path d="M3,0 L3,18 M9,0 L9,18" fill="none" stroke="gray"/></marker></defs><defs><marker orient="auto" markerHeight="18" markerWidth="30" refY="9" refX="0" id="ZERO_OR_ONE_START"><circle r="6" cy="9" cx="21" fill="white" stroke="gray"/><path d="M9,0 L9,18" fill="none" stroke="gray"/></marker></defs><defs><marker orient="auto" markerHeight="18" markerWidth="30" refY="9" refX="30" id="ZERO_OR_ONE_END"><circle r="6" cy="9" cx="9" fill="white" stroke="gray"/><path d="M21,0 L21,18" fill="none" stroke="gray"/></marker></defs><defs><marker orient="auto" markerHeight="36" markerWidth="45" refY="18" refX="18" id="ONE_OR_MORE_START"><path d="M0,18 Q 18,0 36,18 Q 18,36 0,18 M42,9 L42,27" fill="none" stroke="gray"/></marker></defs><defs><marker orient="auto" markerHeight="36" markerWidth="45" refY="18" refX="27" id="ONE_OR_MORE_END"><path d="M3,9 L3,27 M9,18 Q27,0 45,18 Q27,36 9,18" fill="none" stroke="gray"/></marker></defs><defs><marker orient="auto" markerHeight="36" markerWidth="57" refY="18" refX="18" id="ZERO_OR_MORE_START"><circle r="6" cy="18" cx="48" fill="white" stroke="gray"/><path d="M0,18 Q18,0 36,18 Q18,36 0,18" fill="none" stroke="gray"/></marker></defs><defs><marker orient="auto" markerHeight="36" markerWidth="57" refY="18" refX="39" id="ZERO_OR_MORE_END"><circle r="6" cy="18" cx="9" fill="white" stroke="gray"/><path d="M21,18 Q39,0 57,18 Q39,36 21,18" fill="none" stroke="gray"/></marker></defs><path style="stroke: gray; fill: none;" marker-start="url(#ONLY_ONE_START)" marker-end="url(#ZERO_OR_MORE_END)" d="M553.68,268.179L480.21,302.15C406.74,336.12,259.799,404.06,186.329,446.363C112.859,488.667,112.859,505.333,112.859,513.667L112.859,522" class="er relationshipLine"/><path style="stroke: gray; fill: none;" marker-start="url(#ONLY_ONE_START)" marker-end="url(#ZERO_OR_MORE_END)" d="M553.68,306.373L520.686,333.977C487.693,361.582,421.706,416.791,388.712,452.729C355.719,488.667,355.719,505.333,355.719,513.667L355.719,522" class="er relationshipLine"/><path style="stroke: gray; fill: none;" marker-start="url(#ONLY_ONE_START)" marker-end="url(#ZERO_OR_MORE_END)" d="M553.68,349.059L537.353,369.549C521.026,390.039,488.372,431.02,488.712,461.232C489.052,491.444,522.385,510.889,539.052,520.611L555.719,530.333" class="er relationshipLine"/><path style="stroke: gray; fill: none;" marker-start="url(#ONLY_ONE_START)" marker-end="url(#ZERO_OR_MORE_END)" d="M575.639,422L572.319,430.333C568.999,438.667,562.359,455.333,563.801,472C565.243,488.667,574.766,505.333,579.528,513.667L584.29,522" class="er relationshipLine"/><path style="stroke: gray; fill: none;" marker-start="url(#ONLY_ONE_START)" marker-end="url(#ZERO_OR_MORE_END)" d="M655.719,422L655.719,430.333C655.719,438.667,655.719,455.333,650.957,472C646.195,488.667,636.671,505.333,631.909,513.667L627.147,522" class="er relationshipLine"/><path style="stroke: gray; fill: none;" marker-start="url(#ONLY_ONE_START)" marker-end="url(#ZERO_OR_MORE_END)" d="M757.758,349.059L774.085,369.549C790.411,390.039,823.065,431.02,839.392,459.843C855.719,488.667,855.719,505.333,855.719,513.667L855.719,522" class="er relationshipLine"/><path style="stroke: gray; fill: none;" marker-start="url(#ONLY_ONE_START)" marker-end="url(#ZERO_OR_MORE_END)" d="M757.758,282.464L810.201,314.053C862.643,345.643,967.529,408.821,1019.971,448.744C1072.414,488.667,1072.414,505.333,1072.414,513.667L1072.414,522" class="er relationshipLine"/><path style="stroke: gray; fill: none;" marker-start="url(#ONLY_ONE_START)" marker-end="url(#ZERO_OR_MORE_END)" d="M735.798,422L739.118,430.333C742.439,438.667,749.079,455.333,735.732,473.389C722.385,491.444,689.052,510.889,672.385,520.611L655.719,530.333" class="er relationshipLine"/><path style="stroke: gray; fill: none;" marker-start="url(#ONLY_ONE_START)" marker-end="url(#ZERO_OR_MORE_END)" d="M757.758,261.436L846.316,296.53C934.875,331.624,1111.992,401.812,1200.551,445.239C1289.109,488.667,1289.109,505.333,1289.109,513.667L1289.109,522" class="er relationshipLine"/><g transform="translate(553.6796875,20 )" id="entity-WearAction-ecf9e23c-b381-543c-be74-49833572a25b"><rect height="402" width="204.078125" y="0" x="0" class="er entityBox"/><text style="dominant-baseline: middle; text-anchor: middle; font-size: 12px;" transform="translate(102.0390625,12)" y="0" x="0" id="text-entity-WearAction-ecf9e23c-b381-543c-be74-49833572a25b" class="er entityLabel">WearAction</text><rect height="21" width="57.0625" y="24" x="0" class="er attributeBoxOdd"/><text style="dominant-baseline: middle; font-size: 10.2px;" transform="translate(5,34.5)" y="0" x="0" id="text-entity-WearAction-ecf9e23c-b381-543c-be74-49833572a25b-attr-1-type" class="er entityLabel">stringList</text><rect height="21" width="147.015625" y="24" x="57.0625" class="er attributeBoxOdd"/><text style="dominant-baseline: middle; font-size: 10.2px;" transform="translate(62.0625,34.5)" y="0" x="0" id="text-entity-WearAction-ecf9e23c-b381-543c-be74-49833572a25b-attr-1-name" class="er entityLabel">location</text><rect height="21" width="57.0625" y="45" x="0" class="er attributeBoxEven"/><text style="dominant-baseline: middle; font-size: 10.2px;" transform="translate(5,55.5)" y="0" x="0" id="text-entity-WearAction-ecf9e23c-b381-543c-be74-49833572a25b-attr-2-type" class="er entityLabel">stringList</text><rect height="21" width="147.015625" y="45" x="57.0625" class="er attributeBoxEven"/><text style="dominant-baseline: middle; font-size: 10.2px;" transform="translate(62.0625,55.5)" y="0" x="0" id="text-entity-WearAction-ecf9e23c-b381-543c-be74-49833572a25b-attr-2-name" class="er entityLabel">participant</text><rect height="21" width="57.0625" y="66" x="0" class="er attributeBoxOdd"/><text style="dominant-baseline: middle; font-size: 10.2px;" transform="translate(5,76.5)" y="0" x="0" id="text-entity-WearAction-ecf9e23c-b381-543c-be74-49833572a25b-attr-3-type" class="er entityLabel">stringList</text><rect height="21" width="147.015625" y="66" x="57.0625" class="er attributeBoxOdd"/><text style="dominant-baseline: middle; font-size: 10.2px;" transform="translate(62.0625,76.5)" y="0" x="0" id="text-entity-WearAction-ecf9e23c-b381-543c-be74-49833572a25b-attr-3-name" class="er entityLabel">agent</text><rect height="21" width="57.0625" y="87" x="0" class="er attributeBoxEven"/><text style="dominant-baseline: middle; font-size: 10.2px;" transform="translate(5,97.5)" y="0" x="0" id="text-entity-WearAction-ecf9e23c-b381-543c-be74-49833572a25b-attr-4-type" class="er entityLabel">stringList</text><rect height="21" width="147.015625" y="87" x="57.0625" class="er attributeBoxEven"/><text style="dominant-baseline: middle; font-size: 10.2px;" transform="translate(62.0625,97.5)" y="0" x="0" id="text-entity-WearAction-ecf9e23c-b381-543c-be74-49833572a25b-attr-4-name" class="er entityLabel">endTime</text><rect height="21" width="57.0625" y="108" x="0" class="er attributeBoxOdd"/><text style="dominant-baseline: middle; font-size: 10.2px;" transform="translate(5,118.5)" y="0" x="0" id="text-entity-WearAction-ecf9e23c-b381-543c-be74-49833572a25b-attr-5-type" class="er entityLabel">stringList</text><rect height="21" width="147.015625" y="108" x="57.0625" class="er attributeBoxOdd"/><text style="dominant-baseline: middle; font-size: 10.2px;" transform="translate(62.0625,118.5)" y="0" x="0" id="text-entity-WearAction-ecf9e23c-b381-543c-be74-49833572a25b-attr-5-name" class="er entityLabel">provider</text><rect height="21" width="57.0625" y="129" x="0" class="er attributeBoxEven"/><text style="dominant-baseline: middle; font-size: 10.2px;" transform="translate(5,139.5)" y="0" x="0" id="text-entity-WearAction-ecf9e23c-b381-543c-be74-49833572a25b-attr-6-type" class="er entityLabel">stringList</text><rect height="21" width="147.015625" y="129" x="57.0625" class="er attributeBoxEven"/><text style="dominant-baseline: middle; font-size: 10.2px;" transform="translate(62.0625,139.5)" y="0" x="0" id="text-entity-WearAction-ecf9e23c-b381-543c-be74-49833572a25b-attr-6-name" class="er entityLabel">startTime</text><rect height="21" width="57.0625" y="150" x="0" class="er attributeBoxOdd"/><text style="dominant-baseline: middle; font-size: 10.2px;" transform="translate(5,160.5)" y="0" x="0" id="text-entity-WearAction-ecf9e23c-b381-543c-be74-49833572a25b-attr-7-type" class="er entityLabel">stringList</text><rect height="21" width="147.015625" y="150" x="57.0625" class="er attributeBoxOdd"/><text style="dominant-baseline: middle; font-size: 10.2px;" transform="translate(62.0625,160.5)" y="0" x="0" id="text-entity-WearAction-ecf9e23c-b381-543c-be74-49833572a25b-attr-7-name" class="er entityLabel">target</text><rect height="21" width="57.0625" y="171" x="0" class="er attributeBoxEven"/><text style="dominant-baseline: middle; font-size: 10.2px;" transform="translate(5,181.5)" y="0" x="0" id="text-entity-WearAction-ecf9e23c-b381-543c-be74-49833572a25b-attr-8-type" class="er entityLabel">stringList</text><rect height="21" width="147.015625" y="171" x="57.0625" class="er attributeBoxEven"/><text style="dominant-baseline: middle; font-size: 10.2px;" transform="translate(62.0625,181.5)" y="0" x="0" id="text-entity-WearAction-ecf9e23c-b381-543c-be74-49833572a25b-attr-8-name" class="er entityLabel">additionalType</text><rect height="21" width="57.0625" y="192" x="0" class="er attributeBoxOdd"/><text style="dominant-baseline: middle; font-size: 10.2px;" transform="translate(5,202.5)" y="0" x="0" id="text-entity-WearAction-ecf9e23c-b381-543c-be74-49833572a25b-attr-9-type" class="er entityLabel">TextList</text><rect height="21" width="147.015625" y="192" x="57.0625" class="er attributeBoxOdd"/><text style="dominant-baseline: middle; font-size: 10.2px;" transform="translate(62.0625,202.5)" y="0" x="0" id="text-entity-WearAction-ecf9e23c-b381-543c-be74-49833572a25b-attr-9-name" class="er entityLabel">alternateName</text><rect height="21" width="57.0625" y="213" x="0" class="er attributeBoxEven"/><text style="dominant-baseline: middle; font-size: 10.2px;" transform="translate(5,223.5)" y="0" x="0" id="text-entity-WearAction-ecf9e23c-b381-543c-be74-49833572a25b-attr-10-type" class="er entityLabel">stringList</text><rect height="21" width="147.015625" y="213" x="57.0625" class="er attributeBoxEven"/><text style="dominant-baseline: middle; font-size: 10.2px;" transform="translate(62.0625,223.5)" y="0" x="0" id="text-entity-WearAction-ecf9e23c-b381-543c-be74-49833572a25b-attr-10-name" class="er entityLabel">description</text><rect height="21" width="57.0625" y="234" x="0" class="er attributeBoxOdd"/><text style="dominant-baseline: middle; font-size: 10.2px;" transform="translate(5,244.5)" y="0" x="0" id="text-entity-WearAction-ecf9e23c-b381-543c-be74-49833572a25b-attr-11-type" class="er entityLabel">TextList</text><rect height="21" width="147.015625" y="234" x="57.0625" class="er attributeBoxOdd"/><text style="dominant-baseline: middle; font-size: 10.2px;" transform="translate(62.0625,244.5)" y="0" x="0" id="text-entity-WearAction-ecf9e23c-b381-543c-be74-49833572a25b-attr-11-name" class="er entityLabel">disambiguatingDescription</text><rect height="21" width="57.0625" y="255" x="0" class="er attributeBoxEven"/><text style="dominant-baseline: middle; font-size: 10.2px;" transform="translate(5,265.5)" y="0" x="0" id="text-entity-WearAction-ecf9e23c-b381-543c-be74-49833572a25b-attr-12-type" class="er entityLabel">stringList</text><rect height="21" width="147.015625" y="255" x="57.0625" class="er attributeBoxEven"/><text style="dominant-baseline: middle; font-size: 10.2px;" transform="translate(62.0625,265.5)" y="0" x="0" id="text-entity-WearAction-ecf9e23c-b381-543c-be74-49833572a25b-attr-12-name" class="er entityLabel">identifier</text><rect height="21" width="57.0625" y="276" x="0" class="er attributeBoxOdd"/><text style="dominant-baseline: middle; font-size: 10.2px;" transform="translate(5,286.5)" y="0" x="0" id="text-entity-WearAction-ecf9e23c-b381-543c-be74-49833572a25b-attr-13-type" class="er entityLabel">stringList</text><rect height="21" width="147.015625" y="276" x="57.0625" class="er attributeBoxOdd"/><text style="dominant-baseline: middle; font-size: 10.2px;" transform="translate(62.0625,286.5)" y="0" x="0" id="text-entity-WearAction-ecf9e23c-b381-543c-be74-49833572a25b-attr-13-name" class="er entityLabel">image</text><rect height="21" width="57.0625" y="297" x="0" class="er attributeBoxEven"/><text style="dominant-baseline: middle; font-size: 10.2px;" transform="translate(5,307.5)" y="0" x="0" id="text-entity-WearAction-ecf9e23c-b381-543c-be74-49833572a25b-attr-14-type" class="er entityLabel">TextList</text><rect height="21" width="147.015625" y="297" x="57.0625" class="er attributeBoxEven"/><text style="dominant-baseline: middle; font-size: 10.2px;" transform="translate(62.0625,307.5)" y="0" x="0" id="text-entity-WearAction-ecf9e23c-b381-543c-be74-49833572a25b-attr-14-name" class="er entityLabel">name</text><rect height="21" width="57.0625" y="318" x="0" class="er attributeBoxOdd"/><text style="dominant-baseline: middle; font-size: 10.2px;" transform="translate(5,328.5)" y="0" x="0" id="text-entity-WearAction-ecf9e23c-b381-543c-be74-49833572a25b-attr-15-type" class="er entityLabel">URLList</text><rect height="21" width="147.015625" y="318" x="57.0625" class="er attributeBoxOdd"/><text style="dominant-baseline: middle; font-size: 10.2px;" transform="translate(62.0625,328.5)" y="0" x="0" id="text-entity-WearAction-ecf9e23c-b381-543c-be74-49833572a25b-attr-15-name" class="er entityLabel">sameAs</text><rect height="21" width="57.0625" y="339" x="0" class="er attributeBoxEven"/><text style="dominant-baseline: middle; font-size: 10.2px;" transform="translate(5,349.5)" y="0" x="0" id="text-entity-WearAction-ecf9e23c-b381-543c-be74-49833572a25b-attr-16-type" class="er entityLabel">stringList</text><rect height="21" width="147.015625" y="339" x="57.0625" class="er attributeBoxEven"/><text style="dominant-baseline: middle; font-size: 10.2px;" transform="translate(62.0625,349.5)" y="0" x="0" id="text-entity-WearAction-ecf9e23c-b381-543c-be74-49833572a25b-attr-16-name" class="er entityLabel">mainEntityOfPage</text><rect height="21" width="57.0625" y="360" x="0" class="er attributeBoxOdd"/><text style="dominant-baseline: middle; font-size: 10.2px;" transform="translate(5,370.5)" y="0" x="0" id="text-entity-WearAction-ecf9e23c-b381-543c-be74-49833572a25b-attr-17-type" class="er entityLabel">stringList</text><rect height="21" width="147.015625" y="360" x="57.0625" class="er attributeBoxOdd"/><text style="dominant-baseline: middle; font-size: 10.2px;" transform="translate(62.0625,370.5)" y="0" x="0" id="text-entity-WearAction-ecf9e23c-b381-543c-be74-49833572a25b-attr-17-name" class="er entityLabel">subjectOf</text><rect height="21" width="57.0625" y="381" x="0" class="er attributeBoxEven"/><text style="dominant-baseline: middle; font-size: 10.2px;" transform="translate(5,391.5)" y="0" x="0" id="text-entity-WearAction-ecf9e23c-b381-543c-be74-49833572a25b-attr-18-type" class="er entityLabel">URLList</text><rect height="21" width="147.015625" y="381" x="57.0625" class="er attributeBoxEven"/><text style="dominant-baseline: middle; font-size: 10.2px;" transform="translate(62.0625,391.5)" y="0" x="0" id="text-entity-WearAction-ecf9e23c-b381-543c-be74-49833572a25b-attr-18-name" class="er entityLabel">url</text></g><g transform="translate(20,522 )" id="entity-ActionAccessSpecification-ad4a70c5-ec60-5754-b968-358fcf280834"><rect height="75" width="185.71875" y="0" x="0" class="er entityBox"/><text style="dominant-baseline: middle; text-anchor: middle; font-size: 12px;" transform="translate(92.859375,37.5)" y="0" x="0" id="text-entity-ActionAccessSpecification-ad4a70c5-ec60-5754-b968-358fcf280834" class="er entityLabel">ActionAccessSpecification</text></g><g transform="translate(305.71875,522 )" id="entity-Offer-9c0a33b2-e454-50da-b6ad-eaee0635acde"><rect height="75" width="100" y="0" x="0" class="er entityBox"/><text style="dominant-baseline: middle; text-anchor: middle; font-size: 12px;" transform="translate(50,37.5)" y="0" x="0" id="text-entity-Offer-9c0a33b2-e454-50da-b6ad-eaee0635acde" class="er entityLabel">Offer</text></g><g transform="translate(555.71875,522 )" id="entity-Thing-27bc9527-b992-59fc-a0fb-da83e2ff80bf"><rect height="75" width="100" y="0" x="0" class="er entityBox"/><text style="dominant-baseline: middle; text-anchor: middle; font-size: 12px;" transform="translate(50,37.5)" y="0" x="0" id="text-entity-Thing-27bc9527-b992-59fc-a0fb-da83e2ff80bf" class="er entityLabel">Thing</text></g><g transform="translate(805.71875,522 )" id="entity-HowTo-6f9e6b0e-89c2-59a9-964a-8696b3aa66a4"><rect height="75" width="100" y="0" x="0" class="er entityBox"/><text style="dominant-baseline: middle; text-anchor: middle; font-size: 12px;" transform="translate(50,37.5)" y="0" x="0" id="text-entity-HowTo-6f9e6b0e-89c2-59a9-964a-8696b3aa66a4" class="er entityLabel">HowTo</text></g><g transform="translate(1005.71875,522 )" id="entity-ActionStatusType-935590f3-1b2a-599d-8a3e-9af222825f06"><rect height="75" width="133.390625" y="0" x="0" class="er entityBox"/><text style="dominant-baseline: middle; text-anchor: middle; font-size: 12px;" transform="translate(66.6953125,37.5)" y="0" x="0" id="text-entity-ActionStatusType-935590f3-1b2a-599d-8a3e-9af222825f06" class="er entityLabel">ActionStatusType</text></g><g transform="translate(1239.109375,522 )" id="entity-Action-6cd87d9a-a078-546e-a35b-bee54f477b31"><rect height="75" width="100" y="0" x="0" class="er entityBox"/><text style="dominant-baseline: middle; text-anchor: middle; font-size: 12px;" transform="translate(50,37.5)" y="0" x="0" id="text-entity-Action-6cd87d9a-a078-546e-a35b-bee54f477b31" class="er entityLabel">Action</text></g><rect height="14" width="188.24609375" y="371.3487243652344" x="224.2064208984375" class="er relationshipLabelBox"/><text style="text-anchor: middle; dominant-baseline: middle; font-size: 12px;" y="378.3487243652344" x="318.3294677734375" id="rel1" class="er relationshipLabel">actionAccessibilityRequirement</text><rect height="14" width="131.111328125" y="396.66015625" x="374.0221252441406" class="er relationshipLabelBox"/><text style="text-anchor: middle; dominant-baseline: middle; font-size: 12px;" y="403.66015625" x="439.5777893066406" id="rel2" class="er relationshipLabel">expectsAcceptanceOf</text><rect height="14" width="66.11328125" y="438.9962463378906" x="457.83367919921875" class="er relationshipLabelBox"/><text style="text-anchor: middle; dominant-baseline: middle; font-size: 12px;" y="445.9962463378906" x="490.89031982421875" id="rel3" class="er relationshipLabel">instrument</text><rect height="14" width="37.2734375" y="466.287353515625" x="545.2918090820312" class="er relationshipLabelBox"/><text style="text-anchor: middle; dominant-baseline: middle; font-size: 12px;" y="473.287353515625" x="563.9285278320312" id="rel4" class="er relationshipLabel">object</text><rect height="14" width="34.244140625" y="467.447265625" x="633.1018676757812" class="er relationshipLabelBox"/><text style="text-anchor: middle; dominant-baseline: middle; font-size: 12px;" y="474.447265625" x="650.2239379882812" id="rel5" class="er relationshipLabel">result</text><rect height="14" width="82.46875" y="422.4356994628906" x="778.4864501953125" class="er relationshipLabelBox"/><text style="text-anchor: middle; dominant-baseline: middle; font-size: 12px;" y="429.4356994628906" x="819.7208251953125" id="rel6" class="er relationshipLabel">actionProcess</text><rect height="14" width="75.1875" y="381.0508117675781" x="892.9486083984375" class="er relationshipLabelBox"/><text style="text-anchor: middle; dominant-baseline: middle; font-size: 12px;" y="388.0508117675781" x="930.5423583984375" id="rel7" class="er relationshipLabel">actionStatus</text><rect height="14" width="29.1171875" y="482.03485107421875" x="705.5850219726562" class="er relationshipLabelBox"/><text style="text-anchor: middle; dominant-baseline: middle; font-size: 12px;" y="489.03485107421875" x="720.1436157226562" id="rel8" class="er relationshipLabel">error</text><rect height="14" width="90.96875" y="366.71746826171875" x="992.36572265625" class="er relationshipLabelBox"/><text style="text-anchor: middle; dominant-baseline: middle; font-size: 12px;" y="373.71746826171875" x="1037.85009765625" id="rel9" class="er relationshipLabel">potentialAction</text></svg>