<svg aria-roledescription="er" role="graphics-document document" viewBox="0 0 2194.24609375 659" style="max-width: 2194.25px; background-color: white;" xmlns:xlink="http://www.w3.org/1999/xlink" xmlns="http://www.w3.org/2000/svg" width="100%" id="my-svg"><style>#my-svg{font-family:"trebuchet ms",verdana,arial,sans-serif;font-size:16px;fill:#333;}#my-svg .error-icon{fill:#552222;}#my-svg .error-text{fill:#552222;stroke:#552222;}#my-svg .edge-thickness-normal{stroke-width:1px;}#my-svg .edge-thickness-thick{stroke-width:3.5px;}#my-svg .edge-pattern-solid{stroke-dasharray:0;}#my-svg .edge-thickness-invisible{stroke-width:0;fill:none;}#my-svg .edge-pattern-dashed{stroke-dasharray:3;}#my-svg .edge-pattern-dotted{stroke-dasharray:2;}#my-svg .marker{fill:#333333;stroke:#333333;}#my-svg .marker.cross{stroke:#333333;}#my-svg svg{font-family:"trebuchet ms",verdana,arial,sans-serif;font-size:16px;}#my-svg p{margin:0;}#my-svg .entityBox{fill:#ECECFF;stroke:#9370DB;}#my-svg .attributeBoxOdd{fill:#ffffff;stroke:#9370DB;}#my-svg .attributeBoxEven{fill:#f2f2f2;stroke:#9370DB;}#my-svg .relationshipLabelBox{fill:hsl(80, 100%, 96.2745098039%);opacity:0.7;background-color:hsl(80, 100%, 96.2745098039%);}#my-svg .relationshipLabelBox rect{opacity:0.5;}#my-svg .relationshipLine{stroke:#333333;}#my-svg .entityTitleText{text-anchor:middle;font-size:18px;fill:#333;}#my-svg #MD_PARENT_START{fill:#f5f5f5!important;stroke:#333333!important;stroke-width:1;}#my-svg #MD_PARENT_END{fill:#f5f5f5!important;stroke:#333333!important;stroke-width:1;}#my-svg :root{--mermaid-font-family:"trebuchet ms",verdana,arial,sans-serif;}</style><g/><defs><marker orient="auto" markerHeight="240" markerWidth="190" refY="7" refX="0" id="MD_PARENT_START"><path d="M 18,7 L9,13 L1,7 L9,1 Z"/></marker></defs><defs><marker orient="auto" markerHeight="28" markerWidth="20" refY="7" refX="19" id="MD_PARENT_END"><path d="M 18,7 L9,13 L1,7 L9,1 Z"/></marker></defs><defs><marker orient="auto" markerHeight="18" markerWidth="18" refY="9" refX="0" id="ONLY_ONE_START"><path d="M9,0 L9,18 M15,0 L15,18" fill="none" stroke="gray"/></marker></defs><defs><marker orient="auto" markerHeight="18" markerWidth="18" refY="9" refX="18" id="ONLY_ONE_END"><path d="M3,0 L3,18 M9,0 L9,18" fill="none" stroke="gray"/></marker></defs><defs><marker orient="auto" markerHeight="18" markerWidth="30" refY="9" refX="0" id="ZERO_OR_ONE_START"><circle r="6" cy="9" cx="21" fill="white" stroke="gray"/><path d="M9,0 L9,18" fill="none" stroke="gray"/></marker></defs><defs><marker orient="auto" markerHeight="18" markerWidth="30" refY="9" refX="30" id="ZERO_OR_ONE_END"><circle r="6" cy="9" cx="9" fill="white" stroke="gray"/><path d="M21,0 L21,18" fill="none" stroke="gray"/></marker></defs><defs><marker orient="auto" markerHeight="36" markerWidth="45" refY="18" refX="18" id="ONE_OR_MORE_START"><path d="M0,18 Q 18,0 36,18 Q 18,36 0,18 M42,9 L42,27" fill="none" stroke="gray"/></marker></defs><defs><marker orient="auto" markerHeight="36" markerWidth="45" refY="18" refX="27" id="ONE_OR_MORE_END"><path d="M3,9 L3,27 M9,18 Q27,0 45,18 Q27,36 9,18" fill="none" stroke="gray"/></marker></defs><defs><marker orient="auto" markerHeight="36" markerWidth="57" refY="18" refX="18" id="ZERO_OR_MORE_START"><circle r="6" cy="18" cx="48" fill="white" stroke="gray"/><path d="M0,18 Q18,0 36,18 Q18,36 0,18" fill="none" stroke="gray"/></marker></defs><defs><marker orient="auto" markerHeight="36" markerWidth="57" refY="18" refX="39" id="ZERO_OR_MORE_END"><circle r="6" cy="18" cx="9" fill="white" stroke="gray"/><path d="M21,18 Q39,0 57,18 Q39,36 21,18" fill="none" stroke="gray"/></marker></defs><path style="stroke: gray; fill: none;" marker-start="url(#ONLY_ONE_START)" marker-end="url(#ZERO_OR_MORE_END)" d="M1209.73,266.873L1020.105,308.061C830.479,349.249,451.228,431.624,266.364,481.146C81.5,530.667,91.024,547.333,95.786,555.667L100.548,564" class="er relationshipLine"/><path style="stroke: gray; fill: none;" marker-start="url(#ONLY_ONE_START)" marker-end="url(#ZERO_OR_MORE_END)" d="M1209.73,274.778L1070.434,314.648C931.138,354.518,652.546,434.259,513.249,482.463C373.953,530.667,373.953,547.333,373.953,555.667L373.953,564" class="er relationshipLine"/><path style="stroke: gray; fill: none;" marker-start="url(#ONLY_ONE_START)" marker-end="url(#ZERO_OR_MORE_END)" d="M1209.73,283.523L1103.792,321.936C997.854,360.349,785.977,437.174,680.038,483.92C574.1,530.667,574.1,547.333,574.1,555.667L574.1,564" class="er relationshipLine"/><path style="stroke: gray; fill: none;" marker-start="url(#ONLY_ONE_START)" marker-end="url(#ZERO_OR_MORE_END)" d="M1209.73,298.633L1137.15,334.528C1064.569,370.422,919.408,442.211,846.827,486.439C774.246,530.667,774.246,547.333,774.246,555.667L774.246,564" class="er relationshipLine"/><path style="stroke: gray; fill: none;" marker-start="url(#ONLY_ONE_START)" marker-end="url(#ZERO_OR_MORE_END)" d="M1209.73,330.995L1170.483,361.496C1131.236,391.997,1052.741,452.998,1013.493,491.833C974.246,530.667,974.246,547.333,974.246,555.667L974.246,564" class="er relationshipLine"/><path style="stroke: gray; fill: none;" marker-start="url(#ONLY_ONE_START)" marker-end="url(#ZERO_OR_MORE_END)" d="M1209.73,269.656L1041.103,310.38C872.475,351.104,535.22,432.552,359.355,481.609C183.491,530.667,169.017,547.333,161.78,555.667L154.543,564" class="er relationshipLine"/><path style="stroke: gray; fill: none;" marker-start="url(#ONLY_ONE_START)" marker-end="url(#ZERO_OR_MORE_END)" d="M1209.73,397.741L1195.483,417.118C1181.236,436.494,1152.741,475.247,1143.255,502.957C1133.77,530.667,1143.294,547.333,1148.056,555.667L1152.818,564" class="er relationshipLine"/><path style="stroke: gray; fill: none;" marker-start="url(#ONLY_ONE_START)" marker-end="url(#ZERO_OR_MORE_END)" d="M1365.055,464L1366.587,472.333C1368.119,480.667,1371.182,497.333,1372.714,514C1374.246,530.667,1374.246,547.333,1374.246,555.667L1374.246,564" class="er relationshipLine"/><path style="stroke: gray; fill: none;" marker-start="url(#ONLY_ONE_START)" marker-end="url(#ZERO_OR_MORE_END)" d="M1438.762,449.655L1444.676,460.379C1450.59,471.103,1462.418,492.552,1484.999,512.998C1507.579,533.444,1540.913,552.889,1557.579,562.611L1574.246,572.333" class="er relationshipLine"/><path style="stroke: gray; fill: none;" marker-start="url(#ONLY_ONE_START)" marker-end="url(#ZERO_OR_MORE_END)" d="M1242.628,464L1239.565,472.333C1236.501,480.667,1230.374,497.333,1222.548,514C1214.722,530.667,1205.198,547.333,1200.437,555.667L1195.675,564" class="er relationshipLine"/><path style="stroke: gray; fill: none;" marker-start="url(#ONLY_ONE_START)" marker-end="url(#ZERO_OR_MORE_END)" d="M1438.762,366.593L1461.342,391.161C1483.923,415.729,1529.085,464.864,1556.427,497.766C1583.77,530.667,1593.294,547.333,1598.056,555.667L1602.818,564" class="er relationshipLine"/><path style="stroke: gray; fill: none;" marker-start="url(#ONLY_ONE_START)" marker-end="url(#ZERO_OR_MORE_END)" d="M1438.762,330.995L1478.009,361.496C1517.257,391.997,1595.751,452.998,1630.237,491.833C1664.722,530.667,1655.198,547.333,1650.437,555.667L1645.675,564" class="er relationshipLine"/><path style="stroke: gray; fill: none;" marker-start="url(#ONLY_ONE_START)" marker-end="url(#ZERO_OR_MORE_END)" d="M1438.762,311.218L1494.676,345.015C1550.59,378.812,1662.418,446.406,1701.665,489.925C1740.913,533.444,1707.579,552.889,1690.913,562.611L1674.246,572.333" class="er relationshipLine"/><path style="stroke: gray; fill: none;" marker-start="url(#ONLY_ONE_START)" marker-end="url(#ZERO_OR_MORE_END)" d="M1438.762,298.633L1511.342,334.528C1583.923,370.422,1729.085,442.211,1806.427,486.439C1883.77,530.667,1893.294,547.333,1898.056,555.667L1902.818,564" class="er relationshipLine"/><path style="stroke: gray; fill: none;" marker-start="url(#ONLY_ONE_START)" marker-end="url(#ZERO_OR_MORE_END)" d="M1438.762,280.935L1553.009,319.779C1667.257,358.624,1895.751,436.312,2009.999,483.489C2124.246,530.667,2124.246,547.333,2124.246,555.667L2124.246,564" class="er relationshipLine"/><path style="stroke: gray; fill: none;" marker-start="url(#ONLY_ONE_START)" marker-end="url(#ZERO_OR_MORE_END)" d="M1438.762,289.92L1528.009,327.267C1617.257,364.614,1795.751,439.307,1880.237,484.987C1964.722,530.667,1955.198,547.333,1950.437,555.667L1945.675,564" class="er relationshipLine"/><g transform="translate(1209.73046875,20 )" id="entity-WorkBasedProgram-5bddca5c-49b9-5b8c-ad39-6a456566e67f"><rect height="444" width="229.03125" y="0" x="0" class="er entityBox"/><text style="dominant-baseline: middle; text-anchor: middle; font-size: 12px;" transform="translate(114.515625,12)" y="0" x="0" id="text-entity-WorkBasedProgram-5bddca5c-49b9-5b8c-ad39-6a456566e67f" class="er entityLabel">WorkBasedProgram</text><rect height="21" width="57.0625" y="24" x="0" class="er attributeBoxOdd"/><text style="dominant-baseline: middle; font-size: 10.2px;" transform="translate(5,34.5)" y="0" x="0" id="text-entity-WorkBasedProgram-5bddca5c-49b9-5b8c-ad39-6a456566e67f-attr-1-type" class="er entityLabel">stringList</text><rect height="21" width="171.96875" y="24" x="57.0625" class="er attributeBoxOdd"/><text style="dominant-baseline: middle; font-size: 10.2px;" transform="translate(62.0625,34.5)" y="0" x="0" id="text-entity-WorkBasedProgram-5bddca5c-49b9-5b8c-ad39-6a456566e67f-attr-1-name" class="er entityLabel">occupationalCategory</text><rect height="21" width="57.0625" y="45" x="0" class="er attributeBoxEven"/><text style="dominant-baseline: middle; font-size: 10.2px;" transform="translate(5,55.5)" y="0" x="0" id="text-entity-WorkBasedProgram-5bddca5c-49b9-5b8c-ad39-6a456566e67f-attr-2-type" class="er entityLabel">stringList</text><rect height="21" width="171.96875" y="45" x="57.0625" class="er attributeBoxEven"/><text style="dominant-baseline: middle; font-size: 10.2px;" transform="translate(62.0625,55.5)" y="0" x="0" id="text-entity-WorkBasedProgram-5bddca5c-49b9-5b8c-ad39-6a456566e67f-attr-2-name" class="er entityLabel">applicationDeadline</text><rect height="21" width="57.0625" y="66" x="0" class="er attributeBoxOdd"/><text style="dominant-baseline: middle; font-size: 10.2px;" transform="translate(5,76.5)" y="0" x="0" id="text-entity-WorkBasedProgram-5bddca5c-49b9-5b8c-ad39-6a456566e67f-attr-3-type" class="er entityLabel">stringList</text><rect height="21" width="171.96875" y="66" x="57.0625" class="er attributeBoxOdd"/><text style="dominant-baseline: middle; font-size: 10.2px;" transform="translate(62.0625,76.5)" y="0" x="0" id="text-entity-WorkBasedProgram-5bddca5c-49b9-5b8c-ad39-6a456566e67f-attr-3-name" class="er entityLabel">educationalCredentialAwarded</text><rect height="21" width="57.0625" y="87" x="0" class="er attributeBoxEven"/><text style="dominant-baseline: middle; font-size: 10.2px;" transform="translate(5,97.5)" y="0" x="0" id="text-entity-WorkBasedProgram-5bddca5c-49b9-5b8c-ad39-6a456566e67f-attr-4-type" class="er entityLabel">stringList</text><rect height="21" width="171.96875" y="87" x="57.0625" class="er attributeBoxEven"/><text style="dominant-baseline: middle; font-size: 10.2px;" transform="translate(62.0625,97.5)" y="0" x="0" id="text-entity-WorkBasedProgram-5bddca5c-49b9-5b8c-ad39-6a456566e67f-attr-4-name" class="er entityLabel">educationalProgramMode</text><rect height="21" width="57.0625" y="108" x="0" class="er attributeBoxOdd"/><text style="dominant-baseline: middle; font-size: 10.2px;" transform="translate(5,118.5)" y="0" x="0" id="text-entity-WorkBasedProgram-5bddca5c-49b9-5b8c-ad39-6a456566e67f-attr-5-type" class="er entityLabel">stringList</text><rect height="21" width="171.96875" y="108" x="57.0625" class="er attributeBoxOdd"/><text style="dominant-baseline: middle; font-size: 10.2px;" transform="translate(62.0625,118.5)" y="0" x="0" id="text-entity-WorkBasedProgram-5bddca5c-49b9-5b8c-ad39-6a456566e67f-attr-5-name" class="er entityLabel">endDate</text><rect height="21" width="57.0625" y="129" x="0" class="er attributeBoxEven"/><text style="dominant-baseline: middle; font-size: 10.2px;" transform="translate(5,139.5)" y="0" x="0" id="text-entity-WorkBasedProgram-5bddca5c-49b9-5b8c-ad39-6a456566e67f-attr-6-type" class="er entityLabel">stringList</text><rect height="21" width="171.96875" y="129" x="57.0625" class="er attributeBoxEven"/><text style="dominant-baseline: middle; font-size: 10.2px;" transform="translate(62.0625,139.5)" y="0" x="0" id="text-entity-WorkBasedProgram-5bddca5c-49b9-5b8c-ad39-6a456566e67f-attr-6-name" class="er entityLabel">financialAidEligible</text><rect height="21" width="57.0625" y="150" x="0" class="er attributeBoxOdd"/><text style="dominant-baseline: middle; font-size: 10.2px;" transform="translate(5,160.5)" y="0" x="0" id="text-entity-WorkBasedProgram-5bddca5c-49b9-5b8c-ad39-6a456566e67f-attr-7-type" class="er entityLabel">stringList</text><rect height="21" width="171.96875" y="150" x="57.0625" class="er attributeBoxOdd"/><text style="dominant-baseline: middle; font-size: 10.2px;" transform="translate(62.0625,160.5)" y="0" x="0" id="text-entity-WorkBasedProgram-5bddca5c-49b9-5b8c-ad39-6a456566e67f-attr-7-name" class="er entityLabel">numberOfCredits</text><rect height="21" width="57.0625" y="171" x="0" class="er attributeBoxEven"/><text style="dominant-baseline: middle; font-size: 10.2px;" transform="translate(5,181.5)" y="0" x="0" id="text-entity-WorkBasedProgram-5bddca5c-49b9-5b8c-ad39-6a456566e67f-attr-8-type" class="er entityLabel">stringList</text><rect height="21" width="171.96875" y="171" x="57.0625" class="er attributeBoxEven"/><text style="dominant-baseline: middle; font-size: 10.2px;" transform="translate(62.0625,181.5)" y="0" x="0" id="text-entity-WorkBasedProgram-5bddca5c-49b9-5b8c-ad39-6a456566e67f-attr-8-name" class="er entityLabel">occupationalCredentialAwarded</text><rect height="21" width="57.0625" y="192" x="0" class="er attributeBoxOdd"/><text style="dominant-baseline: middle; font-size: 10.2px;" transform="translate(5,202.5)" y="0" x="0" id="text-entity-WorkBasedProgram-5bddca5c-49b9-5b8c-ad39-6a456566e67f-attr-9-type" class="er entityLabel">stringList</text><rect height="21" width="171.96875" y="192" x="57.0625" class="er attributeBoxOdd"/><text style="dominant-baseline: middle; font-size: 10.2px;" transform="translate(62.0625,202.5)" y="0" x="0" id="text-entity-WorkBasedProgram-5bddca5c-49b9-5b8c-ad39-6a456566e67f-attr-9-name" class="er entityLabel">offers</text><rect height="21" width="57.0625" y="213" x="0" class="er attributeBoxEven"/><text style="dominant-baseline: middle; font-size: 10.2px;" transform="translate(5,223.5)" y="0" x="0" id="text-entity-WorkBasedProgram-5bddca5c-49b9-5b8c-ad39-6a456566e67f-attr-10-type" class="er entityLabel">stringList</text><rect height="21" width="171.96875" y="213" x="57.0625" class="er attributeBoxEven"/><text style="dominant-baseline: middle; font-size: 10.2px;" transform="translate(62.0625,223.5)" y="0" x="0" id="text-entity-WorkBasedProgram-5bddca5c-49b9-5b8c-ad39-6a456566e67f-attr-10-name" class="er entityLabel">programPrerequisites</text><rect height="21" width="57.0625" y="234" x="0" class="er attributeBoxOdd"/><text style="dominant-baseline: middle; font-size: 10.2px;" transform="translate(5,244.5)" y="0" x="0" id="text-entity-WorkBasedProgram-5bddca5c-49b9-5b8c-ad39-6a456566e67f-attr-11-type" class="er entityLabel">stringList</text><rect height="21" width="171.96875" y="234" x="57.0625" class="er attributeBoxOdd"/><text style="dominant-baseline: middle; font-size: 10.2px;" transform="translate(62.0625,244.5)" y="0" x="0" id="text-entity-WorkBasedProgram-5bddca5c-49b9-5b8c-ad39-6a456566e67f-attr-11-name" class="er entityLabel">programType</text><rect height="21" width="57.0625" y="255" x="0" class="er attributeBoxEven"/><text style="dominant-baseline: middle; font-size: 10.2px;" transform="translate(5,265.5)" y="0" x="0" id="text-entity-WorkBasedProgram-5bddca5c-49b9-5b8c-ad39-6a456566e67f-attr-12-type" class="er entityLabel">stringList</text><rect height="21" width="171.96875" y="255" x="57.0625" class="er attributeBoxEven"/><text style="dominant-baseline: middle; font-size: 10.2px;" transform="translate(62.0625,265.5)" y="0" x="0" id="text-entity-WorkBasedProgram-5bddca5c-49b9-5b8c-ad39-6a456566e67f-attr-12-name" class="er entityLabel">provider</text><rect height="21" width="57.0625" y="276" x="0" class="er attributeBoxOdd"/><text style="dominant-baseline: middle; font-size: 10.2px;" transform="translate(5,286.5)" y="0" x="0" id="text-entity-WorkBasedProgram-5bddca5c-49b9-5b8c-ad39-6a456566e67f-attr-13-type" class="er entityLabel">stringList</text><rect height="21" width="171.96875" y="276" x="57.0625" class="er attributeBoxOdd"/><text style="dominant-baseline: middle; font-size: 10.2px;" transform="translate(62.0625,286.5)" y="0" x="0" id="text-entity-WorkBasedProgram-5bddca5c-49b9-5b8c-ad39-6a456566e67f-attr-13-name" class="er entityLabel">startDate</text><rect height="21" width="57.0625" y="297" x="0" class="er attributeBoxEven"/><text style="dominant-baseline: middle; font-size: 10.2px;" transform="translate(5,307.5)" y="0" x="0" id="text-entity-WorkBasedProgram-5bddca5c-49b9-5b8c-ad39-6a456566e67f-attr-14-type" class="er entityLabel">stringList</text><rect height="21" width="171.96875" y="297" x="57.0625" class="er attributeBoxEven"/><text style="dominant-baseline: middle; font-size: 10.2px;" transform="translate(62.0625,307.5)" y="0" x="0" id="text-entity-WorkBasedProgram-5bddca5c-49b9-5b8c-ad39-6a456566e67f-attr-14-name" class="er entityLabel">typicalCreditsPerTerm</text><rect height="21" width="57.0625" y="318" x="0" class="er attributeBoxOdd"/><text style="dominant-baseline: middle; font-size: 10.2px;" transform="translate(5,328.5)" y="0" x="0" id="text-entity-WorkBasedProgram-5bddca5c-49b9-5b8c-ad39-6a456566e67f-attr-15-type" class="er entityLabel">stringList</text><rect height="21" width="171.96875" y="318" x="57.0625" class="er attributeBoxOdd"/><text style="dominant-baseline: middle; font-size: 10.2px;" transform="translate(62.0625,328.5)" y="0" x="0" id="text-entity-WorkBasedProgram-5bddca5c-49b9-5b8c-ad39-6a456566e67f-attr-15-name" class="er entityLabel">additionalType</text><rect height="21" width="57.0625" y="339" x="0" class="er attributeBoxEven"/><text style="dominant-baseline: middle; font-size: 10.2px;" transform="translate(5,349.5)" y="0" x="0" id="text-entity-WorkBasedProgram-5bddca5c-49b9-5b8c-ad39-6a456566e67f-attr-16-type" class="er entityLabel">stringList</text><rect height="21" width="171.96875" y="339" x="57.0625" class="er attributeBoxEven"/><text style="dominant-baseline: middle; font-size: 10.2px;" transform="translate(62.0625,349.5)" y="0" x="0" id="text-entity-WorkBasedProgram-5bddca5c-49b9-5b8c-ad39-6a456566e67f-attr-16-name" class="er entityLabel">description</text><rect height="21" width="57.0625" y="360" x="0" class="er attributeBoxOdd"/><text style="dominant-baseline: middle; font-size: 10.2px;" transform="translate(5,370.5)" y="0" x="0" id="text-entity-WorkBasedProgram-5bddca5c-49b9-5b8c-ad39-6a456566e67f-attr-17-type" class="er entityLabel">stringList</text><rect height="21" width="171.96875" y="360" x="57.0625" class="er attributeBoxOdd"/><text style="dominant-baseline: middle; font-size: 10.2px;" transform="translate(62.0625,370.5)" y="0" x="0" id="text-entity-WorkBasedProgram-5bddca5c-49b9-5b8c-ad39-6a456566e67f-attr-17-name" class="er entityLabel">identifier</text><rect height="21" width="57.0625" y="381" x="0" class="er attributeBoxEven"/><text style="dominant-baseline: middle; font-size: 10.2px;" transform="translate(5,391.5)" y="0" x="0" id="text-entity-WorkBasedProgram-5bddca5c-49b9-5b8c-ad39-6a456566e67f-attr-18-type" class="er entityLabel">stringList</text><rect height="21" width="171.96875" y="381" x="57.0625" class="er attributeBoxEven"/><text style="dominant-baseline: middle; font-size: 10.2px;" transform="translate(62.0625,391.5)" y="0" x="0" id="text-entity-WorkBasedProgram-5bddca5c-49b9-5b8c-ad39-6a456566e67f-attr-18-name" class="er entityLabel">image</text><rect height="21" width="57.0625" y="402" x="0" class="er attributeBoxOdd"/><text style="dominant-baseline: middle; font-size: 10.2px;" transform="translate(5,412.5)" y="0" x="0" id="text-entity-WorkBasedProgram-5bddca5c-49b9-5b8c-ad39-6a456566e67f-attr-19-type" class="er entityLabel">stringList</text><rect height="21" width="171.96875" y="402" x="57.0625" class="er attributeBoxOdd"/><text style="dominant-baseline: middle; font-size: 10.2px;" transform="translate(62.0625,412.5)" y="0" x="0" id="text-entity-WorkBasedProgram-5bddca5c-49b9-5b8c-ad39-6a456566e67f-attr-19-name" class="er entityLabel">mainEntityOfPage</text><rect height="21" width="57.0625" y="423" x="0" class="er attributeBoxEven"/><text style="dominant-baseline: middle; font-size: 10.2px;" transform="translate(5,433.5)" y="0" x="0" id="text-entity-WorkBasedProgram-5bddca5c-49b9-5b8c-ad39-6a456566e67f-attr-20-type" class="er entityLabel">stringList</text><rect height="21" width="171.96875" y="423" x="57.0625" class="er attributeBoxEven"/><text style="dominant-baseline: middle; font-size: 10.2px;" transform="translate(62.0625,433.5)" y="0" x="0" id="text-entity-WorkBasedProgram-5bddca5c-49b9-5b8c-ad39-6a456566e67f-attr-20-name" class="er entityLabel">subjectOf</text></g><g transform="translate(20,564 )" id="entity-MonetaryAmountDistribution-3ca5e3da-fa82-5009-a087-5a854b9dacdf"><rect height="75" width="203.953125" y="0" x="0" class="er entityBox"/><text style="dominant-baseline: middle; text-anchor: middle; font-size: 12px;" transform="translate(101.9765625,37.5)" y="0" x="0" id="text-entity-MonetaryAmountDistribution-3ca5e3da-fa82-5009-a087-5a854b9dacdf" class="er entityLabel">MonetaryAmountDistribution</text></g><g transform="translate(323.953125,564 )" id="entity-Date-7e62fd57-a538-5b88-8dc2-5a8d536e6d1b"><rect height="75" width="100" y="0" x="0" class="er entityBox"/><text style="dominant-baseline: middle; text-anchor: middle; font-size: 12px;" transform="translate(50,37.5)" y="0" x="0" id="text-entity-Date-7e62fd57-a538-5b88-8dc2-5a8d536e6d1b" class="er entityLabel">Date</text></g><g transform="translate(523.953125,564 )" id="entity-DayOfWeek-10b17d84-0d6c-5612-82cd-c4d01e4780a8"><rect height="75" width="100.29296875" y="0" x="0" class="er entityBox"/><text style="dominant-baseline: middle; text-anchor: middle; font-size: 12px;" transform="translate(50.146484375,37.5)" y="0" x="0" id="text-entity-DayOfWeek-10b17d84-0d6c-5612-82cd-c4d01e4780a8" class="er entityLabel">DayOfWeek</text></g><g transform="translate(724.24609375,564 )" id="entity-Course-e6435c0c-5f73-5cd3-80c6-be59c059830f"><rect height="75" width="100" y="0" x="0" class="er entityBox"/><text style="dominant-baseline: middle; text-anchor: middle; font-size: 12px;" transform="translate(50,37.5)" y="0" x="0" id="text-entity-Course-e6435c0c-5f73-5cd3-80c6-be59c059830f" class="er entityLabel">Course</text></g><g transform="translate(924.24609375,564 )" id="entity-Integer-fc94dbf2-2dc2-55cd-ac16-6d1e48f8bef9"><rect height="75" width="100" y="0" x="0" class="er entityBox"/><text style="dominant-baseline: middle; text-anchor: middle; font-size: 12px;" transform="translate(50,37.5)" y="0" x="0" id="text-entity-Integer-fc94dbf2-2dc2-55cd-ac16-6d1e48f8bef9" class="er entityLabel">Integer</text></g><g transform="translate(1124.24609375,564 )" id="entity-Duration-4925bcef-08f8-5f30-b1af-3959fea9384e"><rect height="75" width="100" y="0" x="0" class="er entityBox"/><text style="dominant-baseline: middle; text-anchor: middle; font-size: 12px;" transform="translate(50,37.5)" y="0" x="0" id="text-entity-Duration-4925bcef-08f8-5f30-b1af-3959fea9384e" class="er entityLabel">Duration</text></g><g transform="translate(1324.24609375,564 )" id="entity-Number-03723608-6bf1-5294-8c7e-b493e3224412"><rect height="75" width="100" y="0" x="0" class="er entityBox"/><text style="dominant-baseline: middle; text-anchor: middle; font-size: 12px;" transform="translate(50,37.5)" y="0" x="0" id="text-entity-Number-03723608-6bf1-5294-8c7e-b493e3224412" class="er entityLabel">Number</text></g><g transform="translate(1574.24609375,564 )" id="entity-Text-426c5d39-acfc-5487-a6d9-ede67887190e"><rect height="75" width="100" y="0" x="0" class="er entityBox"/><text style="dominant-baseline: middle; text-anchor: middle; font-size: 12px;" transform="translate(50,37.5)" y="0" x="0" id="text-entity-Text-426c5d39-acfc-5487-a6d9-ede67887190e" class="er entityLabel">Text</text></g><g transform="translate(1874.24609375,564 )" id="entity-URL-07f78d3e-fd74-5925-b39b-26c1cc2d6b7c"><rect height="75" width="100" y="0" x="0" class="er entityBox"/><text style="dominant-baseline: middle; text-anchor: middle; font-size: 12px;" transform="translate(50,37.5)" y="0" x="0" id="text-entity-URL-07f78d3e-fd74-5925-b39b-26c1cc2d6b7c" class="er entityLabel">URL</text></g><g transform="translate(2074.24609375,564 )" id="entity-Action-6cd87d9a-a078-546e-a35b-bee54f477b31"><rect height="75" width="100" y="0" x="0" class="er entityBox"/><text style="dominant-baseline: middle; text-anchor: middle; font-size: 12px;" transform="translate(50,37.5)" y="0" x="0" id="text-entity-Action-6cd87d9a-a078-546e-a35b-bee54f477b31" class="er entityLabel">Action</text></g><rect height="14" width="84.1875" y="385.41217041015625" x="595.2227783203125" class="er relationshipLabelBox"/><text style="text-anchor: middle; dominant-baseline: middle; font-size: 12px;" y="392.41217041015625" x="637.3165283203125" id="rel1" class="er relationshipLabel">trainingSalary</text><rect height="14" width="124.203125" y="392.2611389160156" x="716.834716796875" class="er relationshipLabelBox"/><text style="text-anchor: middle; dominant-baseline: middle; font-size: 12px;" y="399.2611389160156" x="778.936279296875" id="rel2" class="er relationshipLabel">applicationStartDate</text><rect height="14" width="68.669921875" y="398.05419921875" x="843.6351318359375" class="er relationshipLabelBox"/><text style="text-anchor: middle; dominant-baseline: middle; font-size: 12px;" y="405.05419921875" x="877.9700927734375" id="rel3" class="er relationshipLabel">dayOfWeek</text><rect height="14" width="63.109375" y="408.1079406738281" x="945.40771484375" class="er relationshipLabelBox"/><text style="text-anchor: middle; dominant-baseline: middle; font-size: 12px;" y="415.1079406738281" x="976.96240234375" id="rel4" class="er relationshipLabel">hasCourse</text><rect height="14" width="126.0078125" y="429.046630859375" x="1013.717041015625" class="er relationshipLabelBox"/><text style="text-anchor: middle; dominant-baseline: middle; font-size: 12px;" y="436.046630859375" x="1076.720947265625" id="rel5" class="er relationshipLabel">maximumEnrollment</text><rect height="14" width="136.40625" y="392.7129211425781" x="607.200439453125" class="er relationshipLabelBox"/><text style="text-anchor: middle; dominant-baseline: middle; font-size: 12px;" y="399.7129211425781" x="675.403564453125" id="rel6" class="er relationshipLabel">salaryUponCompletion</text><rect height="14" width="80.625" y="468.6843566894531" x="1115.81396484375" class="er relationshipLabelBox"/><text style="text-anchor: middle; dominant-baseline: middle; font-size: 12px;" y="475.6843566894531" x="1156.12646484375" id="rel7" class="er relationshipLabel">termDuration</text><rect height="14" width="79.349609375" y="506.7216796875" x="1333.0128173828125" class="er relationshipLabelBox"/><text style="text-anchor: middle; dominant-baseline: middle; font-size: 12px;" y="513.7216796875" x="1372.6876220703125" id="rel8" class="er relationshipLabel">termsPerYear</text><rect height="14" width="64.484375" y="515.1763916015625" x="1463.64697265625" class="er relationshipLabelBox"/><text style="text-anchor: middle; dominant-baseline: middle; font-size: 12px;" y="522.1763916015625" x="1495.88916015625" id="rel9" class="er relationshipLabel">timeOfDay</text><rect height="14" width="97.578125" y="508.3018798828125" x="1173.1435546875" class="er relationshipLabelBox"/><text style="text-anchor: middle; dominant-baseline: middle; font-size: 12px;" y="515.3018798828125" x="1221.9326171875" id="rel10" class="er relationshipLabel">timeToComplete</text><rect height="14" width="89.953125" y="454.72711181640625" x="1480.3392333984375" class="er relationshipLabelBox"/><text style="text-anchor: middle; dominant-baseline: middle; font-size: 12px;" y="461.72711181640625" x="1525.3157958984375" id="rel11" class="er relationshipLabel">alternateName</text><rect height="14" width="161.390625" y="427.261962890625" x="1488.010986328125" class="er relationshipLabelBox"/><text style="text-anchor: middle; dominant-baseline: middle; font-size: 12px;" y="434.261962890625" x="1568.706298828125" id="rel12" class="er relationshipLabel">disambiguatingDescription</text><rect height="14" width="34.03125" y="417.6846008300781" x="1603.466796875" class="er relationshipLabelBox"/><text style="text-anchor: middle; dominant-baseline: middle; font-size: 12px;" y="424.6846008300781" x="1620.482421875" id="rel13" class="er relationshipLabel">name</text><rect height="14" width="47.140625" y="411.84332275390625" x="1656.0423583984375" class="er relationshipLabelBox"/><text style="text-anchor: middle; dominant-baseline: middle; font-size: 12px;" y="418.84332275390625" x="1679.6126708984375" id="rel14" class="er relationshipLabel">sameAs</text><rect height="14" width="90.96875" y="396.3349304199219" x="1749.691650390625" class="er relationshipLabelBox"/><text style="text-anchor: middle; dominant-baseline: middle; font-size: 12px;" y="403.3349304199219" x="1795.176025390625" id="rel15" class="er relationshipLabel">potentialAction</text><rect height="14" width="15.875" y="400.06390380859375" x="1707.2197265625" class="er relationshipLabelBox"/><text style="text-anchor: middle; dominant-baseline: middle; font-size: 12px;" y="407.06390380859375" x="1715.1572265625" id="rel16" class="er relationshipLabel">url</text></svg>